<?xml version="1.0" encoding="utf-8" standalone="no"?>
<!DOCTYPE svg PUBLIC "-//W3C//DTD SVG 1.1//EN"
  "http://www.w3.org/Graphics/SVG/1.1/DTD/svg11.dtd">
<svg xmlns:xlink="http://www.w3.org/1999/xlink" width="1400.792188pt" height="392.273625pt" viewBox="0 0 1400.792188 392.273625" xmlns="http://www.w3.org/2000/svg" version="1.1">
 <metadata>
  <rdf:RDF xmlns:dc="http://purl.org/dc/elements/1.1/" xmlns:cc="http://creativecommons.org/ns#" xmlns:rdf="http://www.w3.org/1999/02/22-rdf-syntax-ns#">
   <cc:Work>
    <dc:type rdf:resource="http://purl.org/dc/dcmitype/StillImage"/>
    <dc:date>2022-07-28T20:28:16.890271</dc:date>
    <dc:format>image/svg+xml</dc:format>
    <dc:creator>
     <cc:Agent>
      <dc:title>Matplotlib v3.5.2, https://matplotlib.org/</dc:title>
     </cc:Agent>
    </dc:creator>
   </cc:Work>
  </rdf:RDF>
 </metadata>
 <defs>
  <style type="text/css">*{stroke-linejoin: round; stroke-linecap: butt}</style>
 </defs>
 <g id="figure_1">
  <g id="patch_1">
   <path d="M 0 392.273625 
L 1400.792188 392.273625 
L 1400.792188 0 
L 0 0 
z
" style="fill: #ffffff"/>
  </g>
  <g id="axes_1">
   <g id="patch_2">
    <path d="M 54.392188 368.3955 
L 1393.592188 368.3955 
L 1393.592188 35.7555 
L 54.392188 35.7555 
z
" style="fill: #ffffff"/>
   </g>
   <g id="matplotlib.axis_1">
    <g id="xtick_1">
     <g id="line2d_1">
      <defs>
       <path id="mad53392958" d="M 0 0 
L 0 3.5 
" style="stroke: #000000; stroke-width: 0.8"/>
      </defs>
      <g>
       <use xlink:href="#mad53392958" x="86.433914" y="368.3955" style="stroke: #000000; stroke-width: 0.8"/>
      </g>
     </g>
     <g id="text_1">
      <!-- 2020-01 -->
      <g transform="translate(65.542507 382.993937)scale(0.1 -0.1)">
       <defs>
        <path id="DejaVuSans-32" d="M 1228 531 
L 3431 531 
L 3431 0 
L 469 0 
L 469 531 
Q 828 903 1448 1529 
Q 2069 2156 2228 2338 
Q 2531 2678 2651 2914 
Q 2772 3150 2772 3378 
Q 2772 3750 2511 3984 
Q 2250 4219 1831 4219 
Q 1534 4219 1204 4116 
Q 875 4013 500 3803 
L 500 4441 
Q 881 4594 1212 4672 
Q 1544 4750 1819 4750 
Q 2544 4750 2975 4387 
Q 3406 4025 3406 3419 
Q 3406 3131 3298 2873 
Q 3191 2616 2906 2266 
Q 2828 2175 2409 1742 
Q 1991 1309 1228 531 
z
" transform="scale(0.015625)"/>
        <path id="DejaVuSans-30" d="M 2034 4250 
Q 1547 4250 1301 3770 
Q 1056 3291 1056 2328 
Q 1056 1369 1301 889 
Q 1547 409 2034 409 
Q 2525 409 2770 889 
Q 3016 1369 3016 2328 
Q 3016 3291 2770 3770 
Q 2525 4250 2034 4250 
z
M 2034 4750 
Q 2819 4750 3233 4129 
Q 3647 3509 3647 2328 
Q 3647 1150 3233 529 
Q 2819 -91 2034 -91 
Q 1250 -91 836 529 
Q 422 1150 422 2328 
Q 422 3509 836 4129 
Q 1250 4750 2034 4750 
z
" transform="scale(0.015625)"/>
        <path id="DejaVuSans-2d" d="M 313 2009 
L 1997 2009 
L 1997 1497 
L 313 1497 
L 313 2009 
z
" transform="scale(0.015625)"/>
        <path id="DejaVuSans-31" d="M 794 531 
L 1825 531 
L 1825 4091 
L 703 3866 
L 703 4441 
L 1819 4666 
L 2450 4666 
L 2450 531 
L 3481 531 
L 3481 0 
L 794 0 
L 794 531 
z
" transform="scale(0.015625)"/>
       </defs>
       <use xlink:href="#DejaVuSans-32"/>
       <use xlink:href="#DejaVuSans-30" x="63.623047"/>
       <use xlink:href="#DejaVuSans-32" x="127.246094"/>
       <use xlink:href="#DejaVuSans-30" x="190.869141"/>
       <use xlink:href="#DejaVuSans-2d" x="254.492188"/>
       <use xlink:href="#DejaVuSans-30" x="290.576172"/>
       <use xlink:href="#DejaVuSans-31" x="354.199219"/>
      </g>
     </g>
    </g>
    <g id="xtick_2">
     <g id="line2d_2">
      <g>
       <use xlink:href="#mad53392958" x="205.689418" y="368.3955" style="stroke: #000000; stroke-width: 0.8"/>
      </g>
     </g>
     <g id="text_2">
      <!-- 2020-04 -->
      <g transform="translate(184.798012 382.993937)scale(0.1 -0.1)">
       <defs>
        <path id="DejaVuSans-34" d="M 2419 4116 
L 825 1625 
L 2419 1625 
L 2419 4116 
z
M 2253 4666 
L 3047 4666 
L 3047 1625 
L 3713 1625 
L 3713 1100 
L 3047 1100 
L 3047 0 
L 2419 0 
L 2419 1100 
L 313 1100 
L 313 1709 
L 2253 4666 
z
" transform="scale(0.015625)"/>
       </defs>
       <use xlink:href="#DejaVuSans-32"/>
       <use xlink:href="#DejaVuSans-30" x="63.623047"/>
       <use xlink:href="#DejaVuSans-32" x="127.246094"/>
       <use xlink:href="#DejaVuSans-30" x="190.869141"/>
       <use xlink:href="#DejaVuSans-2d" x="254.492188"/>
       <use xlink:href="#DejaVuSans-30" x="290.576172"/>
       <use xlink:href="#DejaVuSans-34" x="354.199219"/>
      </g>
     </g>
    </g>
    <g id="xtick_3">
     <g id="line2d_3">
      <g>
       <use xlink:href="#mad53392958" x="324.944923" y="368.3955" style="stroke: #000000; stroke-width: 0.8"/>
      </g>
     </g>
     <g id="text_3">
      <!-- 2020-07 -->
      <g transform="translate(304.053516 382.993937)scale(0.1 -0.1)">
       <defs>
        <path id="DejaVuSans-37" d="M 525 4666 
L 3525 4666 
L 3525 4397 
L 1831 0 
L 1172 0 
L 2766 4134 
L 525 4134 
L 525 4666 
z
" transform="scale(0.015625)"/>
       </defs>
       <use xlink:href="#DejaVuSans-32"/>
       <use xlink:href="#DejaVuSans-30" x="63.623047"/>
       <use xlink:href="#DejaVuSans-32" x="127.246094"/>
       <use xlink:href="#DejaVuSans-30" x="190.869141"/>
       <use xlink:href="#DejaVuSans-2d" x="254.492188"/>
       <use xlink:href="#DejaVuSans-30" x="290.576172"/>
       <use xlink:href="#DejaVuSans-37" x="354.199219"/>
      </g>
     </g>
    </g>
    <g id="xtick_4">
     <g id="line2d_4">
      <g>
       <use xlink:href="#mad53392958" x="445.510927" y="368.3955" style="stroke: #000000; stroke-width: 0.8"/>
      </g>
     </g>
     <g id="text_4">
      <!-- 2020-10 -->
      <g transform="translate(424.619521 382.993937)scale(0.1 -0.1)">
       <use xlink:href="#DejaVuSans-32"/>
       <use xlink:href="#DejaVuSans-30" x="63.623047"/>
       <use xlink:href="#DejaVuSans-32" x="127.246094"/>
       <use xlink:href="#DejaVuSans-30" x="190.869141"/>
       <use xlink:href="#DejaVuSans-2d" x="254.492188"/>
       <use xlink:href="#DejaVuSans-31" x="290.576172"/>
       <use xlink:href="#DejaVuSans-30" x="354.199219"/>
      </g>
     </g>
    </g>
    <g id="xtick_5">
     <g id="line2d_5">
      <g>
       <use xlink:href="#mad53392958" x="566.076932" y="368.3955" style="stroke: #000000; stroke-width: 0.8"/>
      </g>
     </g>
     <g id="text_5">
      <!-- 2021-01 -->
      <g transform="translate(545.185525 382.993937)scale(0.1 -0.1)">
       <use xlink:href="#DejaVuSans-32"/>
       <use xlink:href="#DejaVuSans-30" x="63.623047"/>
       <use xlink:href="#DejaVuSans-32" x="127.246094"/>
       <use xlink:href="#DejaVuSans-31" x="190.869141"/>
       <use xlink:href="#DejaVuSans-2d" x="254.492188"/>
       <use xlink:href="#DejaVuSans-30" x="290.576172"/>
       <use xlink:href="#DejaVuSans-31" x="354.199219"/>
      </g>
     </g>
    </g>
    <g id="xtick_6">
     <g id="line2d_6">
      <g>
       <use xlink:href="#mad53392958" x="684.021936" y="368.3955" style="stroke: #000000; stroke-width: 0.8"/>
      </g>
     </g>
     <g id="text_6">
      <!-- 2021-04 -->
      <g transform="translate(663.13053 382.993937)scale(0.1 -0.1)">
       <use xlink:href="#DejaVuSans-32"/>
       <use xlink:href="#DejaVuSans-30" x="63.623047"/>
       <use xlink:href="#DejaVuSans-32" x="127.246094"/>
       <use xlink:href="#DejaVuSans-31" x="190.869141"/>
       <use xlink:href="#DejaVuSans-2d" x="254.492188"/>
       <use xlink:href="#DejaVuSans-30" x="290.576172"/>
       <use xlink:href="#DejaVuSans-34" x="354.199219"/>
      </g>
     </g>
    </g>
    <g id="xtick_7">
     <g id="line2d_7">
      <g>
       <use xlink:href="#mad53392958" x="803.27744" y="368.3955" style="stroke: #000000; stroke-width: 0.8"/>
      </g>
     </g>
     <g id="text_7">
      <!-- 2021-07 -->
      <g transform="translate(782.386034 382.993937)scale(0.1 -0.1)">
       <use xlink:href="#DejaVuSans-32"/>
       <use xlink:href="#DejaVuSans-30" x="63.623047"/>
       <use xlink:href="#DejaVuSans-32" x="127.246094"/>
       <use xlink:href="#DejaVuSans-31" x="190.869141"/>
       <use xlink:href="#DejaVuSans-2d" x="254.492188"/>
       <use xlink:href="#DejaVuSans-30" x="290.576172"/>
       <use xlink:href="#DejaVuSans-37" x="354.199219"/>
      </g>
     </g>
    </g>
    <g id="xtick_8">
     <g id="line2d_8">
      <g>
       <use xlink:href="#mad53392958" x="923.843445" y="368.3955" style="stroke: #000000; stroke-width: 0.8"/>
      </g>
     </g>
     <g id="text_8">
      <!-- 2021-10 -->
      <g transform="translate(902.952039 382.993937)scale(0.1 -0.1)">
       <use xlink:href="#DejaVuSans-32"/>
       <use xlink:href="#DejaVuSans-30" x="63.623047"/>
       <use xlink:href="#DejaVuSans-32" x="127.246094"/>
       <use xlink:href="#DejaVuSans-31" x="190.869141"/>
       <use xlink:href="#DejaVuSans-2d" x="254.492188"/>
       <use xlink:href="#DejaVuSans-31" x="290.576172"/>
       <use xlink:href="#DejaVuSans-30" x="354.199219"/>
      </g>
     </g>
    </g>
    <g id="xtick_9">
     <g id="line2d_9">
      <g>
       <use xlink:href="#mad53392958" x="1044.409449" y="368.3955" style="stroke: #000000; stroke-width: 0.8"/>
      </g>
     </g>
     <g id="text_9">
      <!-- 2022-01 -->
      <g transform="translate(1023.518043 382.993937)scale(0.1 -0.1)">
       <use xlink:href="#DejaVuSans-32"/>
       <use xlink:href="#DejaVuSans-30" x="63.623047"/>
       <use xlink:href="#DejaVuSans-32" x="127.246094"/>
       <use xlink:href="#DejaVuSans-32" x="190.869141"/>
       <use xlink:href="#DejaVuSans-2d" x="254.492188"/>
       <use xlink:href="#DejaVuSans-30" x="290.576172"/>
       <use xlink:href="#DejaVuSans-31" x="354.199219"/>
      </g>
     </g>
    </g>
    <g id="xtick_10">
     <g id="line2d_10">
      <g>
       <use xlink:href="#mad53392958" x="1162.354454" y="368.3955" style="stroke: #000000; stroke-width: 0.8"/>
      </g>
     </g>
     <g id="text_10">
      <!-- 2022-04 -->
      <g transform="translate(1141.463048 382.993937)scale(0.1 -0.1)">
       <use xlink:href="#DejaVuSans-32"/>
       <use xlink:href="#DejaVuSans-30" x="63.623047"/>
       <use xlink:href="#DejaVuSans-32" x="127.246094"/>
       <use xlink:href="#DejaVuSans-32" x="190.869141"/>
       <use xlink:href="#DejaVuSans-2d" x="254.492188"/>
       <use xlink:href="#DejaVuSans-30" x="290.576172"/>
       <use xlink:href="#DejaVuSans-34" x="354.199219"/>
      </g>
     </g>
    </g>
    <g id="xtick_11">
     <g id="line2d_11">
      <g>
       <use xlink:href="#mad53392958" x="1281.609958" y="368.3955" style="stroke: #000000; stroke-width: 0.8"/>
      </g>
     </g>
     <g id="text_11">
      <!-- 2022-07 -->
      <g transform="translate(1260.718552 382.993937)scale(0.1 -0.1)">
       <use xlink:href="#DejaVuSans-32"/>
       <use xlink:href="#DejaVuSans-30" x="63.623047"/>
       <use xlink:href="#DejaVuSans-32" x="127.246094"/>
       <use xlink:href="#DejaVuSans-32" x="190.869141"/>
       <use xlink:href="#DejaVuSans-2d" x="254.492188"/>
       <use xlink:href="#DejaVuSans-30" x="290.576172"/>
       <use xlink:href="#DejaVuSans-37" x="354.199219"/>
      </g>
     </g>
    </g>
   </g>
   <g id="matplotlib.axis_2">
    <g id="ytick_1">
     <g id="line2d_12">
      <defs>
       <path id="mdd4c571995" d="M 0 0 
L -3.5 0 
" style="stroke: #000000; stroke-width: 0.8"/>
      </defs>
      <g>
       <use xlink:href="#mdd4c571995" x="54.392188" y="356.797817" style="stroke: #000000; stroke-width: 0.8"/>
      </g>
     </g>
     <g id="text_12">
      <!-- −10000 -->
      <g transform="translate(7.2 360.597036)scale(0.1 -0.1)">
       <defs>
        <path id="DejaVuSans-2212" d="M 678 2272 
L 4684 2272 
L 4684 1741 
L 678 1741 
L 678 2272 
z
" transform="scale(0.015625)"/>
       </defs>
       <use xlink:href="#DejaVuSans-2212"/>
       <use xlink:href="#DejaVuSans-31" x="83.789062"/>
       <use xlink:href="#DejaVuSans-30" x="147.412109"/>
       <use xlink:href="#DejaVuSans-30" x="211.035156"/>
       <use xlink:href="#DejaVuSans-30" x="274.658203"/>
       <use xlink:href="#DejaVuSans-30" x="338.28125"/>
      </g>
     </g>
    </g>
    <g id="ytick_2">
     <g id="line2d_13">
      <g>
       <use xlink:href="#mdd4c571995" x="54.392188" y="303.267166" style="stroke: #000000; stroke-width: 0.8"/>
      </g>
     </g>
     <g id="text_13">
      <!-- 0 -->
      <g transform="translate(41.029688 307.066385)scale(0.1 -0.1)">
       <use xlink:href="#DejaVuSans-30"/>
      </g>
     </g>
    </g>
    <g id="ytick_3">
     <g id="line2d_14">
      <g>
       <use xlink:href="#mdd4c571995" x="54.392188" y="249.736515" style="stroke: #000000; stroke-width: 0.8"/>
      </g>
     </g>
     <g id="text_14">
      <!-- 10000 -->
      <g transform="translate(15.579688 253.535734)scale(0.1 -0.1)">
       <use xlink:href="#DejaVuSans-31"/>
       <use xlink:href="#DejaVuSans-30" x="63.623047"/>
       <use xlink:href="#DejaVuSans-30" x="127.246094"/>
       <use xlink:href="#DejaVuSans-30" x="190.869141"/>
       <use xlink:href="#DejaVuSans-30" x="254.492188"/>
      </g>
     </g>
    </g>
    <g id="ytick_4">
     <g id="line2d_15">
      <g>
       <use xlink:href="#mdd4c571995" x="54.392188" y="196.205864" style="stroke: #000000; stroke-width: 0.8"/>
      </g>
     </g>
     <g id="text_15">
      <!-- 20000 -->
      <g transform="translate(15.579688 200.005083)scale(0.1 -0.1)">
       <use xlink:href="#DejaVuSans-32"/>
       <use xlink:href="#DejaVuSans-30" x="63.623047"/>
       <use xlink:href="#DejaVuSans-30" x="127.246094"/>
       <use xlink:href="#DejaVuSans-30" x="190.869141"/>
       <use xlink:href="#DejaVuSans-30" x="254.492188"/>
      </g>
     </g>
    </g>
    <g id="ytick_5">
     <g id="line2d_16">
      <g>
       <use xlink:href="#mdd4c571995" x="54.392188" y="142.675213" style="stroke: #000000; stroke-width: 0.8"/>
      </g>
     </g>
     <g id="text_16">
      <!-- 30000 -->
      <g transform="translate(15.579688 146.474432)scale(0.1 -0.1)">
       <defs>
        <path id="DejaVuSans-33" d="M 2597 2516 
Q 3050 2419 3304 2112 
Q 3559 1806 3559 1356 
Q 3559 666 3084 287 
Q 2609 -91 1734 -91 
Q 1441 -91 1130 -33 
Q 819 25 488 141 
L 488 750 
Q 750 597 1062 519 
Q 1375 441 1716 441 
Q 2309 441 2620 675 
Q 2931 909 2931 1356 
Q 2931 1769 2642 2001 
Q 2353 2234 1838 2234 
L 1294 2234 
L 1294 2753 
L 1863 2753 
Q 2328 2753 2575 2939 
Q 2822 3125 2822 3475 
Q 2822 3834 2567 4026 
Q 2313 4219 1838 4219 
Q 1578 4219 1281 4162 
Q 984 4106 628 3988 
L 628 4550 
Q 988 4650 1302 4700 
Q 1616 4750 1894 4750 
Q 2613 4750 3031 4423 
Q 3450 4097 3450 3541 
Q 3450 3153 3228 2886 
Q 3006 2619 2597 2516 
z
" transform="scale(0.015625)"/>
       </defs>
       <use xlink:href="#DejaVuSans-33"/>
       <use xlink:href="#DejaVuSans-30" x="63.623047"/>
       <use xlink:href="#DejaVuSans-30" x="127.246094"/>
       <use xlink:href="#DejaVuSans-30" x="190.869141"/>
       <use xlink:href="#DejaVuSans-30" x="254.492188"/>
      </g>
     </g>
    </g>
    <g id="ytick_6">
     <g id="line2d_17">
      <g>
       <use xlink:href="#mdd4c571995" x="54.392188" y="89.144562" style="stroke: #000000; stroke-width: 0.8"/>
      </g>
     </g>
     <g id="text_17">
      <!-- 40000 -->
      <g transform="translate(15.579688 92.943781)scale(0.1 -0.1)">
       <use xlink:href="#DejaVuSans-34"/>
       <use xlink:href="#DejaVuSans-30" x="63.623047"/>
       <use xlink:href="#DejaVuSans-30" x="127.246094"/>
       <use xlink:href="#DejaVuSans-30" x="190.869141"/>
       <use xlink:href="#DejaVuSans-30" x="254.492188"/>
      </g>
     </g>
    </g>
   </g>
   <g id="line2d_18">
    <path d="M 115.264915 303.267166 
L 141.474916 303.267166 
L 182.100417 303.229694 
L 183.410917 303.095868 
L 187.342417 303.079809 
L 188.652918 302.945982 
L 189.963418 302.999513 
L 191.273918 302.790743 
L 192.584418 302.26079 
L 193.894918 302.614092 
L 196.515918 302.694388 
L 197.826418 302.672976 
L 199.136918 302.780037 
L 203.068418 302.528443 
L 209.620918 302.790743 
L 210.931418 302.721153 
L 212.241918 302.99416 
L 213.552418 303.063749 
L 214.862918 302.672976 
L 216.173419 302.9781 
L 234.520419 303.197576 
L 235.830919 303.18687 
L 237.141419 302.983453 
L 238.451919 303.18687 
L 243.69392 303.229694 
L 276.456421 303.25646 
L 301.355922 303.240401 
L 306.597922 303.267166 
L 310.529422 303.261813 
L 440.268927 303.261813 
L 441.579427 303.149398 
L 446.821427 303.235048 
L 457.305428 303.235048 
L 462.547428 303.218988 
L 467.789428 303.229694 
L 479.583928 303.251107 
L 483.515429 303.202929 
L 487.446929 303.251107 
L 491.378429 303.235048 
L 504.483429 303.224341 
L 508.414929 303.25646 
L 513.65693 303.208282 
L 517.58843 303.245754 
L 520.20943 303.165458 
L 522.83043 303.208282 
L 524.14093 303.154752 
L 526.76193 303.170811 
L 532.00393 303.192223 
L 535.93543 303.133339 
L 541.177431 303.176164 
L 542.487931 303.11728 
L 543.798431 303.218988 
L 549.040431 303.085162 
L 550.350931 300.1838 
L 551.661431 301.222295 
L 552.971931 300.981407 
L 554.282431 303.020925 
L 562.145431 302.437441 
L 563.455932 301.9289 
L 564.766432 302.228671 
L 566.076932 301.773661 
L 567.387432 302.110904 
L 568.697932 301.58095 
L 570.008432 299.279132 
L 571.318932 300.446101 
L 572.629432 301.313297 
L 573.939932 301.634481 
L 575.250432 302.169788 
L 576.560932 302.132316 
L 577.871432 301.955665 
L 579.181932 301.934253 
L 580.492432 301.730836 
L 581.802932 302.426735 
L 583.113432 301.816485 
L 584.423932 302.26079 
L 585.734432 302.035961 
L 587.044932 301.26512 
L 588.355432 301.291885 
L 589.665932 302.351792 
L 590.976433 302.951335 
L 592.286933 302.507031 
L 593.597433 301.613069 
L 594.907933 302.207259 
L 597.528933 302.266143 
L 598.839433 298.133577 
L 600.149933 298.883006 
L 601.460433 299.220249 
L 602.770933 298.974008 
L 604.081433 298.288815 
L 605.391933 298.829475 
L 608.012933 298.792004 
L 609.323433 299.011479 
L 610.633933 298.936536 
L 611.944433 300.13027 
L 613.254933 300.644164 
L 614.565433 301.99849 
L 615.875933 302.271496 
L 617.186434 302.255437 
L 618.496934 302.426735 
L 619.807434 302.1912 
L 621.117934 302.33038 
L 622.428434 302.59268 
L 623.738934 302.378557 
L 625.049434 302.501678 
L 626.359934 302.881745 
L 627.670434 302.33038 
L 632.912434 302.774684 
L 638.154434 302.881745 
L 639.464934 303.026278 
L 640.775434 302.881745 
L 643.396434 302.838921 
L 644.706935 303.042337 
L 646.017435 303.079809 
L 648.638435 302.844274 
L 651.259435 302.919217 
L 653.880435 302.945982 
L 655.190935 303.058396 
L 659.122435 302.849627 
L 660.432935 302.357145 
L 661.743435 302.849627 
L 663.053935 302.469559 
L 664.364435 301.950312 
L 665.674935 302.774684 
L 668.295935 302.619445 
L 670.916936 302.876392 
L 672.227436 301.120587 
L 673.537936 302.897804 
L 676.158936 302.549855 
L 677.469436 302.838921 
L 678.779936 302.85498 
L 680.090436 303.058396 
L 682.711436 303.042337 
L 684.021936 303.127986 
L 686.642936 302.817508 
L 687.953436 302.753272 
L 689.263936 302.228671 
L 690.574436 301.9289 
L 693.195436 301.099175 
L 694.505936 300.274803 
L 695.816436 299.043598 
L 697.126936 298.090752 
L 698.437437 297.994397 
L 699.747937 298.101458 
L 701.058437 296.104765 
L 702.368937 295.007386 
L 703.679437 294.798617 
L 704.989937 294.985974 
L 706.300437 293.8083 
L 707.610937 295.826405 
L 708.921437 295.542693 
L 711.542437 295.39816 
L 712.852937 292.186321 
L 714.163437 288.069814 
L 716.784437 292.304089 
L 718.094937 291.602837 
L 719.405437 292.496799 
L 720.715937 293.251581 
L 722.026437 294.793264 
L 723.336937 293.14452 
L 724.647438 292.88222 
L 725.957938 292.34156 
L 727.268438 293.829712 
L 728.578938 291.961492 
L 729.889438 293.037459 
L 731.199938 292.325501 
L 732.510438 290.318101 
L 733.820938 292.020376 
L 735.131438 294.54167 
L 736.441938 292.994634 
L 737.752438 292.652038 
L 739.062938 277.106737 
L 740.373438 291.190651 
L 741.683938 286.699429 
L 742.994438 290.94441 
L 744.304938 251.690384 
L 745.615438 290.029036 
L 746.925938 285.098863 
L 748.236438 289.156486 
L 749.546938 284.633146 
L 750.857439 286.929611 
L 752.167939 285.1631 
L 753.478439 288.7443 
L 754.788939 285.998178 
L 756.099439 290.125391 
L 757.409939 285.478931 
L 758.720439 283.144994 
L 760.030939 277.556394 
L 761.341439 279.028487 
L 762.651939 273.905604 
L 763.962439 291.329831 
L 765.272939 284.852622 
L 766.583439 282.465155 
L 767.893939 289.183252 
L 769.204439 288.187582 
L 770.514939 288.969129 
L 771.825439 290.318101 
L 773.135939 289.017307 
L 774.446439 288.920951 
L 775.756939 290.901586 
L 777.067439 291.008647 
L 778.37794 285.725172 
L 779.68844 288.257171 
L 780.99894 285.307633 
L 782.30944 287.207971 
L 783.61994 290.789171 
L 784.93044 286.517425 
L 786.24094 286.897493 
L 787.55144 283.637476 
L 788.86194 283.55718 
L 790.17244 286.271184 
L 791.48294 281.539075 
L 792.79344 286.276537 
L 794.10394 281.276775 
L 795.41444 283.760597 
L 796.72494 280.998415 
L 798.03544 281.876318 
L 799.34594 274.328496 
L 800.65644 278.311176 
L 801.96694 277.647396 
L 803.27744 273.648657 
L 804.587941 270.683059 
L 805.898441 269.91757 
L 807.208941 271.598433 
L 808.519441 270.260167 
L 809.829941 274.253553 
L 811.140441 268.370535 
L 812.450941 265.485233 
L 813.761441 253.612134 
L 815.071941 253.344481 
L 816.382441 252.204278 
L 817.692941 256.931035 
L 819.003441 256.775796 
L 820.313941 253.392658 
L 821.624441 254.09391 
L 822.934941 251.385259 
L 824.245441 249.297564 
L 825.555941 242.258283 
L 826.866441 240.186647 
L 828.176941 242.750765 
L 829.487441 233.666614 
L 830.797941 230.171062 
L 832.108442 225.246242 
L 833.418942 226.932458 
L 834.729442 221.177913 
L 836.039942 220.958437 
L 837.350442 227.521295 
L 838.660942 214.764941 
L 839.971442 208.683859 
L 841.281942 210.418252 
L 842.592442 202.029999 
L 843.902942 206.767462 
L 845.213442 207.072586 
L 846.523942 202.088883 
L 847.834442 195.135251 
L 849.144942 191.281044 
L 851.765942 186.36693 
L 853.076442 196.296866 
L 854.386942 198.331031 
L 855.697442 197.046295 
L 857.007942 190.649383 
L 858.318443 181.313637 
L 859.628943 177.909088 
L 860.939443 185.03937 
L 862.249943 186.131396 
L 863.560443 190.012368 
L 864.870943 195.520672 
L 867.491943 191.377399 
L 868.802443 197.003471 
L 870.112943 193.149264 
L 872.733943 209.636704 
L 874.044443 211.381804 
L 875.354943 204.679766 
L 876.665443 204.230109 
L 877.975943 203.154143 
L 879.286443 206.997643 
L 880.596943 214.748882 
L 881.907443 217.76801 
L 883.217943 224.759113 
L 885.838944 223.206724 
L 887.149444 224.828703 
L 888.459944 217.928602 
L 889.770444 220.551604 
L 891.080944 228.388491 
L 892.391444 229.282453 
L 893.701944 227.382115 
L 895.012444 217.452179 
L 896.322944 226.166969 
L 897.633444 221.948754 
L 898.943944 228.169016 
L 900.254444 235.909548 
L 901.564944 240.175941 
L 902.875444 229.405574 
L 904.185944 228.87562 
L 905.496444 225.353304 
L 906.806944 227.740771 
L 908.117444 230.593954 
L 909.427944 235.235062 
L 910.738444 244.817048 
L 912.048945 243.034478 
L 913.359445 232.306935 
L 914.669945 235.299298 
L 915.980445 239.164211 
L 917.290945 237.140753 
L 918.601445 248.194832 
L 919.911945 252.471931 
L 921.222445 247.520346 
L 922.532945 240.930723 
L 923.843445 240.347239 
L 925.153945 242.370697 
L 926.464445 245.304177 
L 927.774945 250.11123 
L 929.085445 250.437767 
L 930.395945 250.453826 
L 931.706445 243.312837 
L 933.016945 243.634021 
L 934.327445 246.364084 
L 935.637945 245.363061 
L 936.948445 249.549158 
L 938.258945 252.707466 
L 939.569446 249.393919 
L 940.879946 242.906004 
L 942.190446 247.134925 
L 943.500946 246.267729 
L 944.811446 245.11682 
L 946.121946 249.142325 
L 947.432446 254.436506 
L 948.742946 255.528531 
L 950.053446 251.197902 
L 951.363946 250.75895 
L 952.674446 251.112253 
L 953.984946 253.210654 
L 955.295446 256.829326 
L 956.605946 262.016446 
L 957.916446 258.02306 
L 959.226946 251.567263 
L 960.537446 255.260878 
L 961.847946 253.890494 
L 963.158446 255.844362 
L 964.468946 259.559389 
L 965.779447 262.723051 
L 967.089947 262.160979 
L 968.400447 260.549707 
L 969.710947 259.639685 
L 971.021447 257.942764 
L 972.331947 260.656768 
L 973.642447 262.626696 
L 974.952947 266.309605 
L 976.263447 265.913478 
L 977.573947 263.14059 
L 978.884447 264.163025 
L 980.194947 265.490586 
L 981.505447 265.372818 
L 982.815947 269.312674 
L 984.126447 271.432488 
L 985.436947 268.343769 
L 986.747447 266.325664 
L 988.057947 266.571905 
L 989.368447 267.963702 
L 990.678947 265.763592 
L 991.989448 268.857664 
L 993.299948 275.827354 
L 994.610448 271.914264 
L 995.920948 269.355499 
L 997.231448 268.156412 
L 998.541948 270.758002 
L 999.852448 271.930323 
L 1001.162948 277.824048 
L 1002.473448 280.216868 
L 1003.783948 277.11209 
L 1005.094448 276.657079 
L 1006.404948 276.97291 
L 1007.715448 271.705494 
L 1009.025948 278.086348 
L 1010.336448 281.854906 
L 1011.646948 284.397611 
L 1012.957448 283.899776 
L 1014.267948 280.768233 
L 1015.578448 280.821764 
L 1016.888948 281.432013 
L 1018.199448 282.995108 
L 1019.509949 285.077451 
L 1020.820449 287.946694 
L 1022.130949 285.227337 
L 1023.441449 283.546474 
L 1024.751949 284.333375 
L 1026.062449 286.501366 
L 1027.372949 287.74863 
L 1028.683449 289.750677 
L 1029.993949 290.012977 
L 1031.304449 289.713205 
L 1032.614949 287.529155 
L 1033.925449 288.969129 
L 1035.235949 288.460588 
L 1036.546449 289.713205 
L 1037.856949 290.221746 
L 1039.167449 290.928351 
L 1040.477949 289.483023 
L 1041.788449 287.009907 
L 1043.098949 286.61378 
L 1044.409449 287.149087 
L 1045.71995 286.608427 
L 1047.03045 287.598744 
L 1048.34095 286.720842 
L 1049.65145 282.395565 
L 1052.27245 262.979998 
L 1053.58295 259.034789 
L 1054.89345 257.707229 
L 1056.20395 260.838772 
L 1057.51445 265.083753 
L 1058.82495 262.150273 
L 1060.13545 259.548683 
L 1061.44595 259.596861 
L 1062.75645 261.55073 
L 1064.06695 260.030459 
L 1065.37745 266.175778 
L 1066.68795 269.023609 
L 1067.99845 265.142636 
L 1069.30895 259.7521 
L 1070.61945 257.016684 
L 1071.92995 259.843102 
L 1073.240451 262.123508 
L 1074.550951 265.051634 
L 1075.861451 267.305275 
L 1077.171951 262.653461 
L 1078.482451 260.025106 
L 1079.792951 258.033766 
L 1081.103451 257.134451 
L 1082.413951 258.065884 
L 1083.724451 260.399821 
L 1085.034951 263.536717 
L 1086.345451 257.300396 
L 1087.655951 254.168853 
L 1088.966451 250.223644 
L 1090.276951 247.113513 
L 1091.587451 245.031171 
L 1092.897951 247.220574 
L 1094.208451 247.605995 
L 1095.518951 232.703062 
L 1096.829451 223.924035 
L 1098.139951 221.675748 
L 1099.450452 215.851613 
L 1100.760952 218.249786 
L 1102.071452 223.506496 
L 1103.381952 226.327561 
L 1104.692452 215.145008 
L 1106.002952 210.39684 
L 1107.313452 206.558692 
L 1108.623952 202.174532 
L 1109.934452 201.810523 
L 1111.244952 202.185238 
L 1112.555452 204.968832 
L 1113.865952 189.610888 
L 1115.176452 177.165012 
L 1116.486952 169.804547 
L 1117.797452 166.148404 
L 1119.107952 170.94475 
L 1120.418452 183.834931 
L 1121.728952 193.957577 
L 1123.039452 184.44518 
L 1124.349952 176.838475 
L 1125.660452 175.682213 
L 1128.281453 186.136749 
L 1129.591953 189.985602 
L 1130.902453 201.864054 
L 1132.212953 185.10896 
L 1133.523453 180.232318 
L 1134.833953 170.553976 
L 1136.144453 171.624589 
L 1137.454953 177.020479 
L 1138.765453 184.803835 
L 1140.075953 197.586955 
L 1141.386453 175.088022 
L 1144.007453 158.354341 
L 1145.317953 165.136674 
L 1146.628453 169.461951 
L 1147.938953 177.785967 
L 1149.249453 188.807928 
L 1150.559953 168.562636 
L 1151.870453 158.605935 
L 1153.180954 163.81982 
L 1154.491454 162.834856 
L 1155.801954 165.045672 
L 1157.112454 171.394407 
L 1158.422954 187.223421 
L 1159.733454 167.358196 
L 1161.043954 155.736692 
L 1162.354454 151.352532 
L 1163.664954 153.226105 
L 1164.975454 159.590899 
L 1166.285954 170.01867 
L 1167.596454 190.381729 
L 1168.906954 173.444631 
L 1170.217454 163.653875 
L 1171.527954 168.69111 
L 1172.838454 167.845325 
L 1174.148954 168.696463 
L 1175.459454 183.428098 
L 1176.769954 196.302219 
L 1178.080454 50.8755 
L 1179.390955 303.267166 
L 1180.701455 194.658828 
L 1182.011955 202.13706 
L 1183.322455 208.116434 
L 1184.632955 212.297178 
L 1185.943455 212.848543 
L 1187.253955 193.77022 
L 1188.564455 185.869095 
L 1189.874955 186.527522 
L 1191.185455 195.927505 
L 1192.495955 208.068256 
L 1193.806455 223.003308 
L 1195.116955 229.309219 
L 1196.427455 223.576086 
L 1197.737955 225.984965 
L 1199.048455 228.040542 
L 1200.358955 234.276863 
L 1201.669455 241.51956 
L 1202.979955 253.317716 
L 1204.290455 251.23002 
L 1205.600955 253.547897 
L 1206.911456 250.860659 
L 1208.221956 262.021799 
L 1209.532456 258.033766 
L 1210.842956 260.009047 
L 1212.153456 268.53648 
L 1213.463956 269.91757 
L 1214.774456 262.316218 
L 1216.084956 260.340937 
L 1217.395456 261.625673 
L 1218.705956 267.208919 
L 1220.016456 270.645587 
L 1221.326956 275.227811 
L 1222.637456 282.427684 
L 1223.947956 273.11335 
L 1225.258456 269.516091 
L 1226.568956 268.670306 
L 1227.879456 274.483735 
L 1229.189956 353.2755 
L 1230.500456 205.948443 
L 1231.810956 281.084064 
L 1233.121457 276.432251 
L 1235.742457 277.37439 
L 1237.052957 279.24261 
L 1238.363457 283.733831 
L 1239.673957 282.636453 
L 1240.984457 282.095793 
L 1242.294957 278.84113 
L 1243.605457 289.563319 
L 1244.915957 287.336444 
L 1246.226457 287.202618 
L 1247.536957 285.944647 
L 1248.847457 291.693839 
L 1250.157957 291.361949 
L 1252.778957 286.217654 
L 1255.399957 289.87915 
L 1256.710457 290.023683 
L 1258.020957 293.626296 
L 1259.331457 293.454998 
L 1260.641958 291.15318 
L 1261.952458 291.742017 
L 1263.262958 292.737687 
L 1264.573458 291.105002 
L 1265.883958 293.139167 
L 1267.194458 293.717298 
L 1268.504958 294.092012 
L 1269.815458 290.4894 
L 1271.125958 290.960469 
L 1272.436458 290.885526 
L 1273.746958 291.297712 
L 1275.057458 290.537577 
L 1276.367958 293.979598 
L 1277.678458 293.840418 
L 1278.988958 289.515142 
L 1280.299458 288.840656 
L 1281.609958 290.666051 
L 1282.920458 289.841679 
L 1284.230958 290.80523 
L 1285.541458 292.587801 
L 1286.851959 293.00534 
L 1288.162459 290.269924 
L 1289.472959 290.601814 
L 1290.783459 291.790194 
L 1293.404459 292.539623 
L 1294.714959 284.584969 
L 1296.025459 290.467987 
L 1297.335959 291.185298 
L 1298.646459 293.658414 
L 1299.956959 303.267166 
L 1301.267459 281.571193 
L 1302.577959 293.556706 
L 1303.888459 291.891903 
L 1305.198959 287.81822 
L 1306.509459 303.267166 
L 1307.819959 276.335895 
L 1309.130459 289.466964 
L 1310.440959 290.47334 
L 1311.751459 293.952833 
L 1313.061959 303.267166 
L 1314.37246 278.776893 
L 1315.68296 293.085636 
L 1315.68296 293.085636 
" clip-path="url(#pebb1534bd7)" style="fill: none; stroke: #0000ff; stroke-width: 1.5; stroke-linecap: square"/>
   </g>
   <g id="line2d_19">
    <path d="M 1075.861451 263.125642 
L 1077.171951 262.029992 
L 1078.482451 260.682956 
L 1081.103451 259.649263 
L 1083.724451 261.087357 
L 1085.034951 259.568278 
L 1086.345451 258.307573 
L 1087.655951 256.422589 
L 1088.966451 254.958568 
L 1090.276951 253.250839 
L 1091.587451 252.18951 
L 1092.897951 250.945528 
L 1094.208451 247.440474 
L 1095.518951 244.282876 
L 1096.829451 237.799525 
L 1098.139951 230.69602 
L 1099.450452 225.800436 
L 1100.760952 222.977039 
L 1102.071452 222.005193 
L 1103.381952 219.135165 
L 1104.692452 217.855897 
L 1106.002952 214.966496 
L 1107.313452 211.161402 
L 1108.623952 208.827052 
L 1111.244952 206.772048 
L 1112.555452 201.060278 
L 1113.865952 197.762579 
L 1115.176452 192.192859 
L 1116.486952 183.656206 
L 1117.797452 176.822208 
L 1119.107952 173.251315 
L 1120.418452 173.626889 
L 1121.728952 172.85601 
L 1123.039452 175.955059 
L 1124.349952 176.912596 
L 1125.660452 174.932267 
L 1126.970953 175.430813 
L 1128.281453 180.617626 
L 1129.591953 186.539557 
L 1130.902453 184.556429 
L 1132.212953 185.34441 
L 1133.523453 183.399484 
L 1136.144453 177.765025 
L 1137.454953 177.740315 
L 1138.765453 181.545671 
L 1140.075953 178.429835 
L 1141.386453 179.868508 
L 1142.696953 175.460512 
L 1144.007453 170.238917 
L 1145.317953 166.930107 
L 1146.628453 168.861592 
L 1147.938953 174.641844 
L 1149.249453 170.315615 
L 1150.559953 170.958006 
L 1151.870453 166.543937 
L 1153.180954 163.043048 
L 1154.491454 164.42119 
L 1155.801954 168.113169 
L 1157.112454 172.839267 
L 1158.422954 166.100888 
L 1159.733454 166.66518 
L 1161.043954 164.991895 
L 1162.354454 161.048152 
L 1163.664954 158.447278 
L 1164.975454 159.822274 
L 1166.285954 166.433975 
L 1167.596454 161.776167 
L 1168.906954 164.966417 
L 1170.217454 166.369195 
L 1171.527954 165.764717 
L 1172.838454 168.600566 
L 1174.148954 173.268443 
L 1175.459454 180.283573 
L 1176.769954 175.278541 
L 1178.080454 171.442718 
L 1179.390955 135.934783 
L 1180.701455 179.728869 
L 1182.011955 205.493312 
L 1183.322455 208.511002 
L 1184.632955 216.860512 
L 1185.943455 191.140049 
L 1187.253955 221.916533 
L 1188.564455 205.839173 
L 1189.874955 195.424024 
L 1191.185455 191.383546 
L 1192.495955 197.942178 
L 1193.806455 209.018532 
L 1195.116955 195.17033 
L 1196.427455 223.845692 
L 1197.737955 220.743413 
L 1199.048455 223.333721 
L 1200.358955 228.212422 
L 1202.979955 246.22203 
L 1204.290455 234.249222 
L 1205.600955 252.316158 
L 1206.911456 250.027351 
L 1208.221956 252.439609 
L 1209.532456 258.878152 
L 1210.842956 266.347884 
L 1212.153456 269.042995 
L 1213.463956 258.051826 
L 1214.774456 269.880253 
L 1216.084956 266.718974 
L 1217.395456 264.796085 
L 1218.705956 265.818115 
L 1220.016456 272.28862 
L 1221.326956 276.189642 
L 1222.637456 267.600027 
L 1223.947956 277.529158 
L 1226.568956 274.824184 
L 1227.879456 274.792588 
L 1229.189956 282.103343 
L 1230.500456 306.878707 
L 1231.810956 273.44394 
L 1233.121457 267.716877 
L 1235.742457 276.297034 
L 1237.052957 290.312102 
L 1238.363457 273.307393 
L 1239.673957 283.911006 
L 1240.984457 280.199933 
L 1242.294957 283.700893 
L 1243.605457 281.469428 
L 1244.915957 285.548371 
L 1246.226457 297.277109 
L 1247.536957 284.193299 
L 1248.847457 289.725992 
L 1250.157957 287.037157 
L 1251.468457 292.341301 
L 1252.778957 290.760439 
L 1254.089457 290.110941 
L 1255.399957 296.191312 
L 1256.710457 287.715619 
L 1258.020957 292.380712 
L 1259.331457 290.183626 
L 1260.641958 293.512729 
L 1261.952458 292.636167 
L 1263.262958 293.324266 
L 1264.573458 298.292769 
L 1265.883958 291.884126 
L 1267.194458 294.905487 
L 1268.504958 292.30997 
L 1269.815458 294.200549 
L 1271.125958 292.961996 
L 1272.436458 292.580148 
L 1273.746958 295.883804 
L 1275.057458 291.438271 
L 1276.367958 293.262296 
L 1277.678458 291.26183 
L 1278.988958 293.122186 
L 1280.299458 291.921133 
L 1281.609958 291.085622 
L 1282.920458 293.482017 
L 1284.230958 290.764557 
L 1285.541458 292.381185 
L 1286.851959 290.354966 
L 1288.162459 291.649081 
L 1290.783459 291.441484 
L 1292.093959 293.672712 
L 1293.404459 292.409923 
L 1294.714959 293.553023 
L 1296.025459 288.670104 
L 1297.335959 288.676878 
L 1298.646459 290.169743 
L 1299.956959 292.341142 
L 1301.267459 297.475331 
L 1302.577959 291.577913 
L 1303.888459 292.068726 
L 1305.198959 291.208094 
L 1306.509459 291.077808 
L 1307.819959 295.803449 
L 1309.130459 288.249691 
L 1310.440959 288.612193 
L 1311.751459 288.644581 
L 1313.061959 291.677497 
L 1314.37246 296.621523 
L 1315.68296 289.1277 
L 1315.68296 289.1277 
" clip-path="url(#pebb1534bd7)" style="fill: none; stroke: #ffa500; stroke-width: 1.5; stroke-linecap: square"/>
   </g>
   <g id="line2d_20">
    <path d="M 1315.68296 289.1277 
L 1316.99346 290.4751 
L 1318.30396 289.405485 
L 1319.61446 291.746271 
L 1320.92496 291.710342 
L 1322.23546 289.007956 
L 1323.54596 291.752714 
L 1324.85646 288.937707 
L 1326.16696 291.242229 
L 1327.47746 289.684793 
L 1328.78796 291.836476 
L 1330.09846 291.836305 
L 1331.40896 289.471693 
L 1332.71946 291.850191 
" clip-path="url(#pebb1534bd7)" style="fill: none; stroke: #ff0000; stroke-width: 1.5; stroke-linecap: square"/>
   </g>
   <g id="patch_3">
    <path d="M 54.392188 368.3955 
L 54.392188 35.7555 
" style="fill: none; stroke: #000000; stroke-width: 0.8; stroke-linejoin: miter; stroke-linecap: square"/>
   </g>
   <g id="patch_4">
    <path d="M 1393.592188 368.3955 
L 1393.592188 35.7555 
" style="fill: none; stroke: #000000; stroke-width: 0.8; stroke-linejoin: miter; stroke-linecap: square"/>
   </g>
   <g id="patch_5">
    <path d="M 54.392188 368.3955 
L 1393.592188 368.3955 
" style="fill: none; stroke: #000000; stroke-width: 0.8; stroke-linejoin: miter; stroke-linecap: square"/>
   </g>
   <g id="patch_6">
    <path d="M 54.392188 35.7555 
L 1393.592188 35.7555 
" style="fill: none; stroke: #000000; stroke-width: 0.8; stroke-linejoin: miter; stroke-linecap: square"/>
   </g>
   <g id="text_18">
    <!-- Daily Confirmed Cases Forecasting - Thailand -->
    <g transform="translate(587.725625 16.318125)scale(0.12 -0.12)">
     <defs>
      <path id="DejaVuSans-44" d="M 1259 4147 
L 1259 519 
L 2022 519 
Q 2988 519 3436 956 
Q 3884 1394 3884 2338 
Q 3884 3275 3436 3711 
Q 2988 4147 2022 4147 
L 1259 4147 
z
M 628 4666 
L 1925 4666 
Q 3281 4666 3915 4102 
Q 4550 3538 4550 2338 
Q 4550 1131 3912 565 
Q 3275 0 1925 0 
L 628 0 
L 628 4666 
z
" transform="scale(0.015625)"/>
      <path id="DejaVuSans-61" d="M 2194 1759 
Q 1497 1759 1228 1600 
Q 959 1441 959 1056 
Q 959 750 1161 570 
Q 1363 391 1709 391 
Q 2188 391 2477 730 
Q 2766 1069 2766 1631 
L 2766 1759 
L 2194 1759 
z
M 3341 1997 
L 3341 0 
L 2766 0 
L 2766 531 
Q 2569 213 2275 61 
Q 1981 -91 1556 -91 
Q 1019 -91 701 211 
Q 384 513 384 1019 
Q 384 1609 779 1909 
Q 1175 2209 1959 2209 
L 2766 2209 
L 2766 2266 
Q 2766 2663 2505 2880 
Q 2244 3097 1772 3097 
Q 1472 3097 1187 3025 
Q 903 2953 641 2809 
L 641 3341 
Q 956 3463 1253 3523 
Q 1550 3584 1831 3584 
Q 2591 3584 2966 3190 
Q 3341 2797 3341 1997 
z
" transform="scale(0.015625)"/>
      <path id="DejaVuSans-69" d="M 603 3500 
L 1178 3500 
L 1178 0 
L 603 0 
L 603 3500 
z
M 603 4863 
L 1178 4863 
L 1178 4134 
L 603 4134 
L 603 4863 
z
" transform="scale(0.015625)"/>
      <path id="DejaVuSans-6c" d="M 603 4863 
L 1178 4863 
L 1178 0 
L 603 0 
L 603 4863 
z
" transform="scale(0.015625)"/>
      <path id="DejaVuSans-79" d="M 2059 -325 
Q 1816 -950 1584 -1140 
Q 1353 -1331 966 -1331 
L 506 -1331 
L 506 -850 
L 844 -850 
Q 1081 -850 1212 -737 
Q 1344 -625 1503 -206 
L 1606 56 
L 191 3500 
L 800 3500 
L 1894 763 
L 2988 3500 
L 3597 3500 
L 2059 -325 
z
" transform="scale(0.015625)"/>
      <path id="DejaVuSans-20" transform="scale(0.015625)"/>
      <path id="DejaVuSans-43" d="M 4122 4306 
L 4122 3641 
Q 3803 3938 3442 4084 
Q 3081 4231 2675 4231 
Q 1875 4231 1450 3742 
Q 1025 3253 1025 2328 
Q 1025 1406 1450 917 
Q 1875 428 2675 428 
Q 3081 428 3442 575 
Q 3803 722 4122 1019 
L 4122 359 
Q 3791 134 3420 21 
Q 3050 -91 2638 -91 
Q 1578 -91 968 557 
Q 359 1206 359 2328 
Q 359 3453 968 4101 
Q 1578 4750 2638 4750 
Q 3056 4750 3426 4639 
Q 3797 4528 4122 4306 
z
" transform="scale(0.015625)"/>
      <path id="DejaVuSans-6f" d="M 1959 3097 
Q 1497 3097 1228 2736 
Q 959 2375 959 1747 
Q 959 1119 1226 758 
Q 1494 397 1959 397 
Q 2419 397 2687 759 
Q 2956 1122 2956 1747 
Q 2956 2369 2687 2733 
Q 2419 3097 1959 3097 
z
M 1959 3584 
Q 2709 3584 3137 3096 
Q 3566 2609 3566 1747 
Q 3566 888 3137 398 
Q 2709 -91 1959 -91 
Q 1206 -91 779 398 
Q 353 888 353 1747 
Q 353 2609 779 3096 
Q 1206 3584 1959 3584 
z
" transform="scale(0.015625)"/>
      <path id="DejaVuSans-6e" d="M 3513 2113 
L 3513 0 
L 2938 0 
L 2938 2094 
Q 2938 2591 2744 2837 
Q 2550 3084 2163 3084 
Q 1697 3084 1428 2787 
Q 1159 2491 1159 1978 
L 1159 0 
L 581 0 
L 581 3500 
L 1159 3500 
L 1159 2956 
Q 1366 3272 1645 3428 
Q 1925 3584 2291 3584 
Q 2894 3584 3203 3211 
Q 3513 2838 3513 2113 
z
" transform="scale(0.015625)"/>
      <path id="DejaVuSans-66" d="M 2375 4863 
L 2375 4384 
L 1825 4384 
Q 1516 4384 1395 4259 
Q 1275 4134 1275 3809 
L 1275 3500 
L 2222 3500 
L 2222 3053 
L 1275 3053 
L 1275 0 
L 697 0 
L 697 3053 
L 147 3053 
L 147 3500 
L 697 3500 
L 697 3744 
Q 697 4328 969 4595 
Q 1241 4863 1831 4863 
L 2375 4863 
z
" transform="scale(0.015625)"/>
      <path id="DejaVuSans-72" d="M 2631 2963 
Q 2534 3019 2420 3045 
Q 2306 3072 2169 3072 
Q 1681 3072 1420 2755 
Q 1159 2438 1159 1844 
L 1159 0 
L 581 0 
L 581 3500 
L 1159 3500 
L 1159 2956 
Q 1341 3275 1631 3429 
Q 1922 3584 2338 3584 
Q 2397 3584 2469 3576 
Q 2541 3569 2628 3553 
L 2631 2963 
z
" transform="scale(0.015625)"/>
      <path id="DejaVuSans-6d" d="M 3328 2828 
Q 3544 3216 3844 3400 
Q 4144 3584 4550 3584 
Q 5097 3584 5394 3201 
Q 5691 2819 5691 2113 
L 5691 0 
L 5113 0 
L 5113 2094 
Q 5113 2597 4934 2840 
Q 4756 3084 4391 3084 
Q 3944 3084 3684 2787 
Q 3425 2491 3425 1978 
L 3425 0 
L 2847 0 
L 2847 2094 
Q 2847 2600 2669 2842 
Q 2491 3084 2119 3084 
Q 1678 3084 1418 2786 
Q 1159 2488 1159 1978 
L 1159 0 
L 581 0 
L 581 3500 
L 1159 3500 
L 1159 2956 
Q 1356 3278 1631 3431 
Q 1906 3584 2284 3584 
Q 2666 3584 2933 3390 
Q 3200 3197 3328 2828 
z
" transform="scale(0.015625)"/>
      <path id="DejaVuSans-65" d="M 3597 1894 
L 3597 1613 
L 953 1613 
Q 991 1019 1311 708 
Q 1631 397 2203 397 
Q 2534 397 2845 478 
Q 3156 559 3463 722 
L 3463 178 
Q 3153 47 2828 -22 
Q 2503 -91 2169 -91 
Q 1331 -91 842 396 
Q 353 884 353 1716 
Q 353 2575 817 3079 
Q 1281 3584 2069 3584 
Q 2775 3584 3186 3129 
Q 3597 2675 3597 1894 
z
M 3022 2063 
Q 3016 2534 2758 2815 
Q 2500 3097 2075 3097 
Q 1594 3097 1305 2825 
Q 1016 2553 972 2059 
L 3022 2063 
z
" transform="scale(0.015625)"/>
      <path id="DejaVuSans-64" d="M 2906 2969 
L 2906 4863 
L 3481 4863 
L 3481 0 
L 2906 0 
L 2906 525 
Q 2725 213 2448 61 
Q 2172 -91 1784 -91 
Q 1150 -91 751 415 
Q 353 922 353 1747 
Q 353 2572 751 3078 
Q 1150 3584 1784 3584 
Q 2172 3584 2448 3432 
Q 2725 3281 2906 2969 
z
M 947 1747 
Q 947 1113 1208 752 
Q 1469 391 1925 391 
Q 2381 391 2643 752 
Q 2906 1113 2906 1747 
Q 2906 2381 2643 2742 
Q 2381 3103 1925 3103 
Q 1469 3103 1208 2742 
Q 947 2381 947 1747 
z
" transform="scale(0.015625)"/>
      <path id="DejaVuSans-73" d="M 2834 3397 
L 2834 2853 
Q 2591 2978 2328 3040 
Q 2066 3103 1784 3103 
Q 1356 3103 1142 2972 
Q 928 2841 928 2578 
Q 928 2378 1081 2264 
Q 1234 2150 1697 2047 
L 1894 2003 
Q 2506 1872 2764 1633 
Q 3022 1394 3022 966 
Q 3022 478 2636 193 
Q 2250 -91 1575 -91 
Q 1294 -91 989 -36 
Q 684 19 347 128 
L 347 722 
Q 666 556 975 473 
Q 1284 391 1588 391 
Q 1994 391 2212 530 
Q 2431 669 2431 922 
Q 2431 1156 2273 1281 
Q 2116 1406 1581 1522 
L 1381 1569 
Q 847 1681 609 1914 
Q 372 2147 372 2553 
Q 372 3047 722 3315 
Q 1072 3584 1716 3584 
Q 2034 3584 2315 3537 
Q 2597 3491 2834 3397 
z
" transform="scale(0.015625)"/>
      <path id="DejaVuSans-46" d="M 628 4666 
L 3309 4666 
L 3309 4134 
L 1259 4134 
L 1259 2759 
L 3109 2759 
L 3109 2228 
L 1259 2228 
L 1259 0 
L 628 0 
L 628 4666 
z
" transform="scale(0.015625)"/>
      <path id="DejaVuSans-63" d="M 3122 3366 
L 3122 2828 
Q 2878 2963 2633 3030 
Q 2388 3097 2138 3097 
Q 1578 3097 1268 2742 
Q 959 2388 959 1747 
Q 959 1106 1268 751 
Q 1578 397 2138 397 
Q 2388 397 2633 464 
Q 2878 531 3122 666 
L 3122 134 
Q 2881 22 2623 -34 
Q 2366 -91 2075 -91 
Q 1284 -91 818 406 
Q 353 903 353 1747 
Q 353 2603 823 3093 
Q 1294 3584 2113 3584 
Q 2378 3584 2631 3529 
Q 2884 3475 3122 3366 
z
" transform="scale(0.015625)"/>
      <path id="DejaVuSans-74" d="M 1172 4494 
L 1172 3500 
L 2356 3500 
L 2356 3053 
L 1172 3053 
L 1172 1153 
Q 1172 725 1289 603 
Q 1406 481 1766 481 
L 2356 481 
L 2356 0 
L 1766 0 
Q 1100 0 847 248 
Q 594 497 594 1153 
L 594 3053 
L 172 3053 
L 172 3500 
L 594 3500 
L 594 4494 
L 1172 4494 
z
" transform="scale(0.015625)"/>
      <path id="DejaVuSans-67" d="M 2906 1791 
Q 2906 2416 2648 2759 
Q 2391 3103 1925 3103 
Q 1463 3103 1205 2759 
Q 947 2416 947 1791 
Q 947 1169 1205 825 
Q 1463 481 1925 481 
Q 2391 481 2648 825 
Q 2906 1169 2906 1791 
z
M 3481 434 
Q 3481 -459 3084 -895 
Q 2688 -1331 1869 -1331 
Q 1566 -1331 1297 -1286 
Q 1028 -1241 775 -1147 
L 775 -588 
Q 1028 -725 1275 -790 
Q 1522 -856 1778 -856 
Q 2344 -856 2625 -561 
Q 2906 -266 2906 331 
L 2906 616 
Q 2728 306 2450 153 
Q 2172 0 1784 0 
Q 1141 0 747 490 
Q 353 981 353 1791 
Q 353 2603 747 3093 
Q 1141 3584 1784 3584 
Q 2172 3584 2450 3431 
Q 2728 3278 2906 2969 
L 2906 3500 
L 3481 3500 
L 3481 434 
z
" transform="scale(0.015625)"/>
      <path id="DejaVuSans-54" d="M -19 4666 
L 3928 4666 
L 3928 4134 
L 2272 4134 
L 2272 0 
L 1638 0 
L 1638 4134 
L -19 4134 
L -19 4666 
z
" transform="scale(0.015625)"/>
      <path id="DejaVuSans-68" d="M 3513 2113 
L 3513 0 
L 2938 0 
L 2938 2094 
Q 2938 2591 2744 2837 
Q 2550 3084 2163 3084 
Q 1697 3084 1428 2787 
Q 1159 2491 1159 1978 
L 1159 0 
L 581 0 
L 581 4863 
L 1159 4863 
L 1159 2956 
Q 1366 3272 1645 3428 
Q 1925 3584 2291 3584 
Q 2894 3584 3203 3211 
Q 3513 2838 3513 2113 
z
" transform="scale(0.015625)"/>
     </defs>
     <use xlink:href="#DejaVuSans-44"/>
     <use xlink:href="#DejaVuSans-61" x="77.001953"/>
     <use xlink:href="#DejaVuSans-69" x="138.28125"/>
     <use xlink:href="#DejaVuSans-6c" x="166.064453"/>
     <use xlink:href="#DejaVuSans-79" x="193.847656"/>
     <use xlink:href="#DejaVuSans-20" x="253.027344"/>
     <use xlink:href="#DejaVuSans-43" x="284.814453"/>
     <use xlink:href="#DejaVuSans-6f" x="354.638672"/>
     <use xlink:href="#DejaVuSans-6e" x="415.820312"/>
     <use xlink:href="#DejaVuSans-66" x="479.199219"/>
     <use xlink:href="#DejaVuSans-69" x="514.404297"/>
     <use xlink:href="#DejaVuSans-72" x="542.1875"/>
     <use xlink:href="#DejaVuSans-6d" x="581.550781"/>
     <use xlink:href="#DejaVuSans-65" x="678.962891"/>
     <use xlink:href="#DejaVuSans-64" x="740.486328"/>
     <use xlink:href="#DejaVuSans-20" x="803.962891"/>
     <use xlink:href="#DejaVuSans-43" x="835.75"/>
     <use xlink:href="#DejaVuSans-61" x="905.574219"/>
     <use xlink:href="#DejaVuSans-73" x="966.853516"/>
     <use xlink:href="#DejaVuSans-65" x="1018.953125"/>
     <use xlink:href="#DejaVuSans-73" x="1080.476562"/>
     <use xlink:href="#DejaVuSans-20" x="1132.576172"/>
     <use xlink:href="#DejaVuSans-46" x="1164.363281"/>
     <use xlink:href="#DejaVuSans-6f" x="1218.257812"/>
     <use xlink:href="#DejaVuSans-72" x="1279.439453"/>
     <use xlink:href="#DejaVuSans-65" x="1318.302734"/>
     <use xlink:href="#DejaVuSans-63" x="1379.826172"/>
     <use xlink:href="#DejaVuSans-61" x="1434.806641"/>
     <use xlink:href="#DejaVuSans-73" x="1496.085938"/>
     <use xlink:href="#DejaVuSans-74" x="1548.185547"/>
     <use xlink:href="#DejaVuSans-69" x="1587.394531"/>
     <use xlink:href="#DejaVuSans-6e" x="1615.177734"/>
     <use xlink:href="#DejaVuSans-67" x="1678.556641"/>
     <use xlink:href="#DejaVuSans-20" x="1742.033203"/>
     <use xlink:href="#DejaVuSans-2d" x="1773.820312"/>
     <use xlink:href="#DejaVuSans-20" x="1809.904297"/>
     <use xlink:href="#DejaVuSans-54" x="1841.691406"/>
     <use xlink:href="#DejaVuSans-68" x="1902.775391"/>
     <use xlink:href="#DejaVuSans-61" x="1966.154297"/>
     <use xlink:href="#DejaVuSans-69" x="2027.433594"/>
     <use xlink:href="#DejaVuSans-6c" x="2055.216797"/>
     <use xlink:href="#DejaVuSans-61" x="2083"/>
     <use xlink:href="#DejaVuSans-6e" x="2144.279297"/>
     <use xlink:href="#DejaVuSans-64" x="2207.658203"/>
    </g>
    <!-- ARIMA (2, 1, 1)x(1, 0, 1, 7) (R2 = 0.851766) -->
    <g transform="translate(592.008125 29.7555)scale(0.12 -0.12)">
     <defs>
      <path id="DejaVuSans-41" d="M 2188 4044 
L 1331 1722 
L 3047 1722 
L 2188 4044 
z
M 1831 4666 
L 2547 4666 
L 4325 0 
L 3669 0 
L 3244 1197 
L 1141 1197 
L 716 0 
L 50 0 
L 1831 4666 
z
" transform="scale(0.015625)"/>
      <path id="DejaVuSans-52" d="M 2841 2188 
Q 3044 2119 3236 1894 
Q 3428 1669 3622 1275 
L 4263 0 
L 3584 0 
L 2988 1197 
Q 2756 1666 2539 1819 
Q 2322 1972 1947 1972 
L 1259 1972 
L 1259 0 
L 628 0 
L 628 4666 
L 2053 4666 
Q 2853 4666 3247 4331 
Q 3641 3997 3641 3322 
Q 3641 2881 3436 2590 
Q 3231 2300 2841 2188 
z
M 1259 4147 
L 1259 2491 
L 2053 2491 
Q 2509 2491 2742 2702 
Q 2975 2913 2975 3322 
Q 2975 3731 2742 3939 
Q 2509 4147 2053 4147 
L 1259 4147 
z
" transform="scale(0.015625)"/>
      <path id="DejaVuSans-49" d="M 628 4666 
L 1259 4666 
L 1259 0 
L 628 0 
L 628 4666 
z
" transform="scale(0.015625)"/>
      <path id="DejaVuSans-4d" d="M 628 4666 
L 1569 4666 
L 2759 1491 
L 3956 4666 
L 4897 4666 
L 4897 0 
L 4281 0 
L 4281 4097 
L 3078 897 
L 2444 897 
L 1241 4097 
L 1241 0 
L 628 0 
L 628 4666 
z
" transform="scale(0.015625)"/>
      <path id="DejaVuSans-28" d="M 1984 4856 
Q 1566 4138 1362 3434 
Q 1159 2731 1159 2009 
Q 1159 1288 1364 580 
Q 1569 -128 1984 -844 
L 1484 -844 
Q 1016 -109 783 600 
Q 550 1309 550 2009 
Q 550 2706 781 3412 
Q 1013 4119 1484 4856 
L 1984 4856 
z
" transform="scale(0.015625)"/>
      <path id="DejaVuSans-2c" d="M 750 794 
L 1409 794 
L 1409 256 
L 897 -744 
L 494 -744 
L 750 256 
L 750 794 
z
" transform="scale(0.015625)"/>
      <path id="DejaVuSans-29" d="M 513 4856 
L 1013 4856 
Q 1481 4119 1714 3412 
Q 1947 2706 1947 2009 
Q 1947 1309 1714 600 
Q 1481 -109 1013 -844 
L 513 -844 
Q 928 -128 1133 580 
Q 1338 1288 1338 2009 
Q 1338 2731 1133 3434 
Q 928 4138 513 4856 
z
" transform="scale(0.015625)"/>
      <path id="DejaVuSans-78" d="M 3513 3500 
L 2247 1797 
L 3578 0 
L 2900 0 
L 1881 1375 
L 863 0 
L 184 0 
L 1544 1831 
L 300 3500 
L 978 3500 
L 1906 2253 
L 2834 3500 
L 3513 3500 
z
" transform="scale(0.015625)"/>
      <path id="DejaVuSans-3d" d="M 678 2906 
L 4684 2906 
L 4684 2381 
L 678 2381 
L 678 2906 
z
M 678 1631 
L 4684 1631 
L 4684 1100 
L 678 1100 
L 678 1631 
z
" transform="scale(0.015625)"/>
      <path id="DejaVuSans-2e" d="M 684 794 
L 1344 794 
L 1344 0 
L 684 0 
L 684 794 
z
" transform="scale(0.015625)"/>
      <path id="DejaVuSans-38" d="M 2034 2216 
Q 1584 2216 1326 1975 
Q 1069 1734 1069 1313 
Q 1069 891 1326 650 
Q 1584 409 2034 409 
Q 2484 409 2743 651 
Q 3003 894 3003 1313 
Q 3003 1734 2745 1975 
Q 2488 2216 2034 2216 
z
M 1403 2484 
Q 997 2584 770 2862 
Q 544 3141 544 3541 
Q 544 4100 942 4425 
Q 1341 4750 2034 4750 
Q 2731 4750 3128 4425 
Q 3525 4100 3525 3541 
Q 3525 3141 3298 2862 
Q 3072 2584 2669 2484 
Q 3125 2378 3379 2068 
Q 3634 1759 3634 1313 
Q 3634 634 3220 271 
Q 2806 -91 2034 -91 
Q 1263 -91 848 271 
Q 434 634 434 1313 
Q 434 1759 690 2068 
Q 947 2378 1403 2484 
z
M 1172 3481 
Q 1172 3119 1398 2916 
Q 1625 2713 2034 2713 
Q 2441 2713 2670 2916 
Q 2900 3119 2900 3481 
Q 2900 3844 2670 4047 
Q 2441 4250 2034 4250 
Q 1625 4250 1398 4047 
Q 1172 3844 1172 3481 
z
" transform="scale(0.015625)"/>
      <path id="DejaVuSans-35" d="M 691 4666 
L 3169 4666 
L 3169 4134 
L 1269 4134 
L 1269 2991 
Q 1406 3038 1543 3061 
Q 1681 3084 1819 3084 
Q 2600 3084 3056 2656 
Q 3513 2228 3513 1497 
Q 3513 744 3044 326 
Q 2575 -91 1722 -91 
Q 1428 -91 1123 -41 
Q 819 9 494 109 
L 494 744 
Q 775 591 1075 516 
Q 1375 441 1709 441 
Q 2250 441 2565 725 
Q 2881 1009 2881 1497 
Q 2881 1984 2565 2268 
Q 2250 2553 1709 2553 
Q 1456 2553 1204 2497 
Q 953 2441 691 2322 
L 691 4666 
z
" transform="scale(0.015625)"/>
      <path id="DejaVuSans-36" d="M 2113 2584 
Q 1688 2584 1439 2293 
Q 1191 2003 1191 1497 
Q 1191 994 1439 701 
Q 1688 409 2113 409 
Q 2538 409 2786 701 
Q 3034 994 3034 1497 
Q 3034 2003 2786 2293 
Q 2538 2584 2113 2584 
z
M 3366 4563 
L 3366 3988 
Q 3128 4100 2886 4159 
Q 2644 4219 2406 4219 
Q 1781 4219 1451 3797 
Q 1122 3375 1075 2522 
Q 1259 2794 1537 2939 
Q 1816 3084 2150 3084 
Q 2853 3084 3261 2657 
Q 3669 2231 3669 1497 
Q 3669 778 3244 343 
Q 2819 -91 2113 -91 
Q 1303 -91 875 529 
Q 447 1150 447 2328 
Q 447 3434 972 4092 
Q 1497 4750 2381 4750 
Q 2619 4750 2861 4703 
Q 3103 4656 3366 4563 
z
" transform="scale(0.015625)"/>
     </defs>
     <use xlink:href="#DejaVuSans-41"/>
     <use xlink:href="#DejaVuSans-52" x="68.408203"/>
     <use xlink:href="#DejaVuSans-49" x="137.890625"/>
     <use xlink:href="#DejaVuSans-4d" x="167.382812"/>
     <use xlink:href="#DejaVuSans-41" x="253.662109"/>
     <use xlink:href="#DejaVuSans-20" x="322.070312"/>
     <use xlink:href="#DejaVuSans-28" x="353.857422"/>
     <use xlink:href="#DejaVuSans-32" x="392.871094"/>
     <use xlink:href="#DejaVuSans-2c" x="456.494141"/>
     <use xlink:href="#DejaVuSans-20" x="488.28125"/>
     <use xlink:href="#DejaVuSans-31" x="520.068359"/>
     <use xlink:href="#DejaVuSans-2c" x="583.691406"/>
     <use xlink:href="#DejaVuSans-20" x="615.478516"/>
     <use xlink:href="#DejaVuSans-31" x="647.265625"/>
     <use xlink:href="#DejaVuSans-29" x="710.888672"/>
     <use xlink:href="#DejaVuSans-78" x="749.902344"/>
     <use xlink:href="#DejaVuSans-28" x="809.082031"/>
     <use xlink:href="#DejaVuSans-31" x="848.095703"/>
     <use xlink:href="#DejaVuSans-2c" x="911.71875"/>
     <use xlink:href="#DejaVuSans-20" x="943.505859"/>
     <use xlink:href="#DejaVuSans-30" x="975.292969"/>
     <use xlink:href="#DejaVuSans-2c" x="1038.916016"/>
     <use xlink:href="#DejaVuSans-20" x="1070.703125"/>
     <use xlink:href="#DejaVuSans-31" x="1102.490234"/>
     <use xlink:href="#DejaVuSans-2c" x="1166.113281"/>
     <use xlink:href="#DejaVuSans-20" x="1197.900391"/>
     <use xlink:href="#DejaVuSans-37" x="1229.6875"/>
     <use xlink:href="#DejaVuSans-29" x="1293.310547"/>
     <use xlink:href="#DejaVuSans-20" x="1332.324219"/>
     <use xlink:href="#DejaVuSans-28" x="1364.111328"/>
     <use xlink:href="#DejaVuSans-52" x="1403.125"/>
     <use xlink:href="#DejaVuSans-32" x="1472.607422"/>
     <use xlink:href="#DejaVuSans-20" x="1536.230469"/>
     <use xlink:href="#DejaVuSans-3d" x="1568.017578"/>
     <use xlink:href="#DejaVuSans-20" x="1651.806641"/>
     <use xlink:href="#DejaVuSans-30" x="1683.59375"/>
     <use xlink:href="#DejaVuSans-2e" x="1747.216797"/>
     <use xlink:href="#DejaVuSans-38" x="1779.003906"/>
     <use xlink:href="#DejaVuSans-35" x="1842.626953"/>
     <use xlink:href="#DejaVuSans-31" x="1906.25"/>
     <use xlink:href="#DejaVuSans-37" x="1969.873047"/>
     <use xlink:href="#DejaVuSans-36" x="2033.496094"/>
     <use xlink:href="#DejaVuSans-36" x="2097.119141"/>
     <use xlink:href="#DejaVuSans-29" x="2160.742188"/>
    </g>
   </g>
   <g id="legend_1">
    <g id="patch_7">
     <path d="M 1289.5125 87.789875 
L 1386.592188 87.789875 
Q 1388.592188 87.789875 1388.592188 85.789875 
L 1388.592188 42.7555 
Q 1388.592188 40.7555 1386.592188 40.7555 
L 1289.5125 40.7555 
Q 1287.5125 40.7555 1287.5125 42.7555 
L 1287.5125 85.789875 
Q 1287.5125 87.789875 1289.5125 87.789875 
z
" style="fill: #ffffff; opacity: 0.8; stroke: #cccccc; stroke-linejoin: miter"/>
    </g>
    <g id="line2d_21">
     <path d="M 1291.5125 48.853937 
L 1301.5125 48.853937 
L 1311.5125 48.853937 
" style="fill: none; stroke: #0000ff; stroke-width: 1.5; stroke-linecap: square"/>
    </g>
    <g id="text_19">
     <!-- Actual Value -->
     <g transform="translate(1319.5125 52.353937)scale(0.1 -0.1)">
      <defs>
       <path id="DejaVuSans-75" d="M 544 1381 
L 544 3500 
L 1119 3500 
L 1119 1403 
Q 1119 906 1312 657 
Q 1506 409 1894 409 
Q 2359 409 2629 706 
Q 2900 1003 2900 1516 
L 2900 3500 
L 3475 3500 
L 3475 0 
L 2900 0 
L 2900 538 
Q 2691 219 2414 64 
Q 2138 -91 1772 -91 
Q 1169 -91 856 284 
Q 544 659 544 1381 
z
M 1991 3584 
L 1991 3584 
z
" transform="scale(0.015625)"/>
       <path id="DejaVuSans-56" d="M 1831 0 
L 50 4666 
L 709 4666 
L 2188 738 
L 3669 4666 
L 4325 4666 
L 2547 0 
L 1831 0 
z
" transform="scale(0.015625)"/>
      </defs>
      <use xlink:href="#DejaVuSans-41"/>
      <use xlink:href="#DejaVuSans-63" x="66.658203"/>
      <use xlink:href="#DejaVuSans-74" x="121.638672"/>
      <use xlink:href="#DejaVuSans-75" x="160.847656"/>
      <use xlink:href="#DejaVuSans-61" x="224.226562"/>
      <use xlink:href="#DejaVuSans-6c" x="285.505859"/>
      <use xlink:href="#DejaVuSans-20" x="313.289062"/>
      <use xlink:href="#DejaVuSans-56" x="345.076172"/>
      <use xlink:href="#DejaVuSans-61" x="405.734375"/>
      <use xlink:href="#DejaVuSans-6c" x="467.013672"/>
      <use xlink:href="#DejaVuSans-75" x="494.796875"/>
      <use xlink:href="#DejaVuSans-65" x="558.175781"/>
     </g>
    </g>
    <g id="line2d_22">
     <path d="M 1291.5125 63.532062 
L 1301.5125 63.532062 
L 1311.5125 63.532062 
" style="fill: none; stroke: #ffa500; stroke-width: 1.5; stroke-linecap: square"/>
    </g>
    <g id="text_20">
     <!-- Check Value -->
     <g transform="translate(1319.5125 67.032062)scale(0.1 -0.1)">
      <defs>
       <path id="DejaVuSans-6b" d="M 581 4863 
L 1159 4863 
L 1159 1991 
L 2875 3500 
L 3609 3500 
L 1753 1863 
L 3688 0 
L 2938 0 
L 1159 1709 
L 1159 0 
L 581 0 
L 581 4863 
z
" transform="scale(0.015625)"/>
      </defs>
      <use xlink:href="#DejaVuSans-43"/>
      <use xlink:href="#DejaVuSans-68" x="69.824219"/>
      <use xlink:href="#DejaVuSans-65" x="133.203125"/>
      <use xlink:href="#DejaVuSans-63" x="194.726562"/>
      <use xlink:href="#DejaVuSans-6b" x="249.707031"/>
      <use xlink:href="#DejaVuSans-20" x="307.617188"/>
      <use xlink:href="#DejaVuSans-56" x="339.404297"/>
      <use xlink:href="#DejaVuSans-61" x="400.0625"/>
      <use xlink:href="#DejaVuSans-6c" x="461.341797"/>
      <use xlink:href="#DejaVuSans-75" x="489.125"/>
      <use xlink:href="#DejaVuSans-65" x="552.503906"/>
     </g>
    </g>
    <g id="line2d_23">
     <path d="M 1291.5125 78.210187 
L 1301.5125 78.210187 
L 1311.5125 78.210187 
" style="fill: none; stroke: #ff0000; stroke-width: 1.5; stroke-linecap: square"/>
    </g>
    <g id="text_21">
     <!-- Predict Value -->
     <g transform="translate(1319.5125 81.710187)scale(0.1 -0.1)">
      <defs>
       <path id="DejaVuSans-50" d="M 1259 4147 
L 1259 2394 
L 2053 2394 
Q 2494 2394 2734 2622 
Q 2975 2850 2975 3272 
Q 2975 3691 2734 3919 
Q 2494 4147 2053 4147 
L 1259 4147 
z
M 628 4666 
L 2053 4666 
Q 2838 4666 3239 4311 
Q 3641 3956 3641 3272 
Q 3641 2581 3239 2228 
Q 2838 1875 2053 1875 
L 1259 1875 
L 1259 0 
L 628 0 
L 628 4666 
z
" transform="scale(0.015625)"/>
      </defs>
      <use xlink:href="#DejaVuSans-50"/>
      <use xlink:href="#DejaVuSans-72" x="58.552734"/>
      <use xlink:href="#DejaVuSans-65" x="97.416016"/>
      <use xlink:href="#DejaVuSans-64" x="158.939453"/>
      <use xlink:href="#DejaVuSans-69" x="222.416016"/>
      <use xlink:href="#DejaVuSans-63" x="250.199219"/>
      <use xlink:href="#DejaVuSans-74" x="305.179688"/>
      <use xlink:href="#DejaVuSans-20" x="344.388672"/>
      <use xlink:href="#DejaVuSans-56" x="376.175781"/>
      <use xlink:href="#DejaVuSans-61" x="436.833984"/>
      <use xlink:href="#DejaVuSans-6c" x="498.113281"/>
      <use xlink:href="#DejaVuSans-75" x="525.896484"/>
      <use xlink:href="#DejaVuSans-65" x="589.275391"/>
     </g>
    </g>
   </g>
  </g>
 </g>
 <defs>
  <clipPath id="pebb1534bd7">
   <rect x="54.392188" y="35.7555" width="1339.2" height="332.64"/>
  </clipPath>
 </defs>
</svg>
