<?xml version="1.0" encoding="utf-8" standalone="no"?>
<!DOCTYPE svg PUBLIC "-//W3C//DTD SVG 1.1//EN"
  "http://www.w3.org/Graphics/SVG/1.1/DTD/svg11.dtd">
<svg xmlns:xlink="http://www.w3.org/1999/xlink" width="1398.775pt" height="392.273625pt" viewBox="0 0 1398.775 392.273625" xmlns="http://www.w3.org/2000/svg" version="1.1">
 <metadata>
  <rdf:RDF xmlns:dc="http://purl.org/dc/elements/1.1/" xmlns:cc="http://creativecommons.org/ns#" xmlns:rdf="http://www.w3.org/1999/02/22-rdf-syntax-ns#">
   <cc:Work>
    <dc:type rdf:resource="http://purl.org/dc/dcmitype/StillImage"/>
    <dc:date>2022-07-30T19:29:00.840173</dc:date>
    <dc:format>image/svg+xml</dc:format>
    <dc:creator>
     <cc:Agent>
      <dc:title>Matplotlib v3.5.2, https://matplotlib.org/</dc:title>
     </cc:Agent>
    </dc:creator>
   </cc:Work>
  </rdf:RDF>
 </metadata>
 <defs>
  <style type="text/css">*{stroke-linejoin: round; stroke-linecap: butt}</style>
 </defs>
 <g id="figure_1">
  <g id="patch_1">
   <path d="M 0 392.273625 
L 1398.775 392.273625 
L 1398.775 0 
L 0 0 
z
" style="fill: #ffffff"/>
  </g>
  <g id="axes_1">
   <g id="patch_2">
    <path d="M 52.375 368.3955 
L 1391.575 368.3955 
L 1391.575 35.7555 
L 52.375 35.7555 
z
" style="fill: #ffffff"/>
   </g>
   <g id="matplotlib.axis_1">
    <g id="xtick_1">
     <g id="line2d_1">
      <defs>
       <path id="m7ee0b0049f" d="M 0 0 
L 0 3.5 
" style="stroke: #000000; stroke-width: 0.8"/>
      </defs>
      <g>
       <use xlink:href="#m7ee0b0049f" x="84.478662" y="368.3955" style="stroke: #000000; stroke-width: 0.8"/>
      </g>
     </g>
     <g id="text_1">
      <!-- 2020-01 -->
      <g transform="translate(63.587256 382.993937)scale(0.1 -0.1)">
       <defs>
        <path id="DejaVuSans-32" d="M 1228 531 
L 3431 531 
L 3431 0 
L 469 0 
L 469 531 
Q 828 903 1448 1529 
Q 2069 2156 2228 2338 
Q 2531 2678 2651 2914 
Q 2772 3150 2772 3378 
Q 2772 3750 2511 3984 
Q 2250 4219 1831 4219 
Q 1534 4219 1204 4116 
Q 875 4013 500 3803 
L 500 4441 
Q 881 4594 1212 4672 
Q 1544 4750 1819 4750 
Q 2544 4750 2975 4387 
Q 3406 4025 3406 3419 
Q 3406 3131 3298 2873 
Q 3191 2616 2906 2266 
Q 2828 2175 2409 1742 
Q 1991 1309 1228 531 
z
" transform="scale(0.015625)"/>
        <path id="DejaVuSans-30" d="M 2034 4250 
Q 1547 4250 1301 3770 
Q 1056 3291 1056 2328 
Q 1056 1369 1301 889 
Q 1547 409 2034 409 
Q 2525 409 2770 889 
Q 3016 1369 3016 2328 
Q 3016 3291 2770 3770 
Q 2525 4250 2034 4250 
z
M 2034 4750 
Q 2819 4750 3233 4129 
Q 3647 3509 3647 2328 
Q 3647 1150 3233 529 
Q 2819 -91 2034 -91 
Q 1250 -91 836 529 
Q 422 1150 422 2328 
Q 422 3509 836 4129 
Q 1250 4750 2034 4750 
z
" transform="scale(0.015625)"/>
        <path id="DejaVuSans-2d" d="M 313 2009 
L 1997 2009 
L 1997 1497 
L 313 1497 
L 313 2009 
z
" transform="scale(0.015625)"/>
        <path id="DejaVuSans-31" d="M 794 531 
L 1825 531 
L 1825 4091 
L 703 3866 
L 703 4441 
L 1819 4666 
L 2450 4666 
L 2450 531 
L 3481 531 
L 3481 0 
L 794 0 
L 794 531 
z
" transform="scale(0.015625)"/>
       </defs>
       <use xlink:href="#DejaVuSans-32"/>
       <use xlink:href="#DejaVuSans-30" x="63.623047"/>
       <use xlink:href="#DejaVuSans-32" x="127.246094"/>
       <use xlink:href="#DejaVuSans-30" x="190.869141"/>
       <use xlink:href="#DejaVuSans-2d" x="254.492188"/>
       <use xlink:href="#DejaVuSans-30" x="290.576172"/>
       <use xlink:href="#DejaVuSans-31" x="354.199219"/>
      </g>
     </g>
    </g>
    <g id="xtick_2">
     <g id="line2d_2">
      <g>
       <use xlink:href="#m7ee0b0049f" x="203.477978" y="368.3955" style="stroke: #000000; stroke-width: 0.8"/>
      </g>
     </g>
     <g id="text_2">
      <!-- 2020-04 -->
      <g transform="translate(182.586572 382.993937)scale(0.1 -0.1)">
       <defs>
        <path id="DejaVuSans-34" d="M 2419 4116 
L 825 1625 
L 2419 1625 
L 2419 4116 
z
M 2253 4666 
L 3047 4666 
L 3047 1625 
L 3713 1625 
L 3713 1100 
L 3047 1100 
L 3047 0 
L 2419 0 
L 2419 1100 
L 313 1100 
L 313 1709 
L 2253 4666 
z
" transform="scale(0.015625)"/>
       </defs>
       <use xlink:href="#DejaVuSans-32"/>
       <use xlink:href="#DejaVuSans-30" x="63.623047"/>
       <use xlink:href="#DejaVuSans-32" x="127.246094"/>
       <use xlink:href="#DejaVuSans-30" x="190.869141"/>
       <use xlink:href="#DejaVuSans-2d" x="254.492188"/>
       <use xlink:href="#DejaVuSans-30" x="290.576172"/>
       <use xlink:href="#DejaVuSans-34" x="354.199219"/>
      </g>
     </g>
    </g>
    <g id="xtick_3">
     <g id="line2d_3">
      <g>
       <use xlink:href="#m7ee0b0049f" x="322.477295" y="368.3955" style="stroke: #000000; stroke-width: 0.8"/>
      </g>
     </g>
     <g id="text_3">
      <!-- 2020-07 -->
      <g transform="translate(301.585888 382.993937)scale(0.1 -0.1)">
       <defs>
        <path id="DejaVuSans-37" d="M 525 4666 
L 3525 4666 
L 3525 4397 
L 1831 0 
L 1172 0 
L 2766 4134 
L 525 4134 
L 525 4666 
z
" transform="scale(0.015625)"/>
       </defs>
       <use xlink:href="#DejaVuSans-32"/>
       <use xlink:href="#DejaVuSans-30" x="63.623047"/>
       <use xlink:href="#DejaVuSans-32" x="127.246094"/>
       <use xlink:href="#DejaVuSans-30" x="190.869141"/>
       <use xlink:href="#DejaVuSans-2d" x="254.492188"/>
       <use xlink:href="#DejaVuSans-30" x="290.576172"/>
       <use xlink:href="#DejaVuSans-37" x="354.199219"/>
      </g>
     </g>
    </g>
    <g id="xtick_4">
     <g id="line2d_4">
      <g>
       <use xlink:href="#m7ee0b0049f" x="442.784296" y="368.3955" style="stroke: #000000; stroke-width: 0.8"/>
      </g>
     </g>
     <g id="text_4">
      <!-- 2020-10 -->
      <g transform="translate(421.89289 382.993937)scale(0.1 -0.1)">
       <use xlink:href="#DejaVuSans-32"/>
       <use xlink:href="#DejaVuSans-30" x="63.623047"/>
       <use xlink:href="#DejaVuSans-32" x="127.246094"/>
       <use xlink:href="#DejaVuSans-30" x="190.869141"/>
       <use xlink:href="#DejaVuSans-2d" x="254.492188"/>
       <use xlink:href="#DejaVuSans-31" x="290.576172"/>
       <use xlink:href="#DejaVuSans-30" x="354.199219"/>
      </g>
     </g>
    </g>
    <g id="xtick_5">
     <g id="line2d_5">
      <g>
       <use xlink:href="#m7ee0b0049f" x="563.091297" y="368.3955" style="stroke: #000000; stroke-width: 0.8"/>
      </g>
     </g>
     <g id="text_5">
      <!-- 2021-01 -->
      <g transform="translate(542.199891 382.993937)scale(0.1 -0.1)">
       <use xlink:href="#DejaVuSans-32"/>
       <use xlink:href="#DejaVuSans-30" x="63.623047"/>
       <use xlink:href="#DejaVuSans-32" x="127.246094"/>
       <use xlink:href="#DejaVuSans-31" x="190.869141"/>
       <use xlink:href="#DejaVuSans-2d" x="254.492188"/>
       <use xlink:href="#DejaVuSans-30" x="290.576172"/>
       <use xlink:href="#DejaVuSans-31" x="354.199219"/>
      </g>
     </g>
    </g>
    <g id="xtick_6">
     <g id="line2d_6">
      <g>
       <use xlink:href="#m7ee0b0049f" x="680.782929" y="368.3955" style="stroke: #000000; stroke-width: 0.8"/>
      </g>
     </g>
     <g id="text_6">
      <!-- 2021-04 -->
      <g transform="translate(659.891523 382.993937)scale(0.1 -0.1)">
       <use xlink:href="#DejaVuSans-32"/>
       <use xlink:href="#DejaVuSans-30" x="63.623047"/>
       <use xlink:href="#DejaVuSans-32" x="127.246094"/>
       <use xlink:href="#DejaVuSans-31" x="190.869141"/>
       <use xlink:href="#DejaVuSans-2d" x="254.492188"/>
       <use xlink:href="#DejaVuSans-30" x="290.576172"/>
       <use xlink:href="#DejaVuSans-34" x="354.199219"/>
      </g>
     </g>
    </g>
    <g id="xtick_7">
     <g id="line2d_7">
      <g>
       <use xlink:href="#m7ee0b0049f" x="799.782245" y="368.3955" style="stroke: #000000; stroke-width: 0.8"/>
      </g>
     </g>
     <g id="text_7">
      <!-- 2021-07 -->
      <g transform="translate(778.890839 382.993937)scale(0.1 -0.1)">
       <use xlink:href="#DejaVuSans-32"/>
       <use xlink:href="#DejaVuSans-30" x="63.623047"/>
       <use xlink:href="#DejaVuSans-32" x="127.246094"/>
       <use xlink:href="#DejaVuSans-31" x="190.869141"/>
       <use xlink:href="#DejaVuSans-2d" x="254.492188"/>
       <use xlink:href="#DejaVuSans-30" x="290.576172"/>
       <use xlink:href="#DejaVuSans-37" x="354.199219"/>
      </g>
     </g>
    </g>
    <g id="xtick_8">
     <g id="line2d_8">
      <g>
       <use xlink:href="#m7ee0b0049f" x="920.089247" y="368.3955" style="stroke: #000000; stroke-width: 0.8"/>
      </g>
     </g>
     <g id="text_8">
      <!-- 2021-10 -->
      <g transform="translate(899.19784 382.993937)scale(0.1 -0.1)">
       <use xlink:href="#DejaVuSans-32"/>
       <use xlink:href="#DejaVuSans-30" x="63.623047"/>
       <use xlink:href="#DejaVuSans-32" x="127.246094"/>
       <use xlink:href="#DejaVuSans-31" x="190.869141"/>
       <use xlink:href="#DejaVuSans-2d" x="254.492188"/>
       <use xlink:href="#DejaVuSans-31" x="290.576172"/>
       <use xlink:href="#DejaVuSans-30" x="354.199219"/>
      </g>
     </g>
    </g>
    <g id="xtick_9">
     <g id="line2d_9">
      <g>
       <use xlink:href="#m7ee0b0049f" x="1040.396248" y="368.3955" style="stroke: #000000; stroke-width: 0.8"/>
      </g>
     </g>
     <g id="text_9">
      <!-- 2022-01 -->
      <g transform="translate(1019.504842 382.993937)scale(0.1 -0.1)">
       <use xlink:href="#DejaVuSans-32"/>
       <use xlink:href="#DejaVuSans-30" x="63.623047"/>
       <use xlink:href="#DejaVuSans-32" x="127.246094"/>
       <use xlink:href="#DejaVuSans-32" x="190.869141"/>
       <use xlink:href="#DejaVuSans-2d" x="254.492188"/>
       <use xlink:href="#DejaVuSans-30" x="290.576172"/>
       <use xlink:href="#DejaVuSans-31" x="354.199219"/>
      </g>
     </g>
    </g>
    <g id="xtick_10">
     <g id="line2d_10">
      <g>
       <use xlink:href="#m7ee0b0049f" x="1158.08788" y="368.3955" style="stroke: #000000; stroke-width: 0.8"/>
      </g>
     </g>
     <g id="text_10">
      <!-- 2022-04 -->
      <g transform="translate(1137.196473 382.993937)scale(0.1 -0.1)">
       <use xlink:href="#DejaVuSans-32"/>
       <use xlink:href="#DejaVuSans-30" x="63.623047"/>
       <use xlink:href="#DejaVuSans-32" x="127.246094"/>
       <use xlink:href="#DejaVuSans-32" x="190.869141"/>
       <use xlink:href="#DejaVuSans-2d" x="254.492188"/>
       <use xlink:href="#DejaVuSans-30" x="290.576172"/>
       <use xlink:href="#DejaVuSans-34" x="354.199219"/>
      </g>
     </g>
    </g>
    <g id="xtick_11">
     <g id="line2d_11">
      <g>
       <use xlink:href="#m7ee0b0049f" x="1277.087196" y="368.3955" style="stroke: #000000; stroke-width: 0.8"/>
      </g>
     </g>
     <g id="text_11">
      <!-- 2022-07 -->
      <g transform="translate(1256.19579 382.993937)scale(0.1 -0.1)">
       <use xlink:href="#DejaVuSans-32"/>
       <use xlink:href="#DejaVuSans-30" x="63.623047"/>
       <use xlink:href="#DejaVuSans-32" x="127.246094"/>
       <use xlink:href="#DejaVuSans-32" x="190.869141"/>
       <use xlink:href="#DejaVuSans-2d" x="254.492188"/>
       <use xlink:href="#DejaVuSans-30" x="290.576172"/>
       <use xlink:href="#DejaVuSans-37" x="354.199219"/>
      </g>
     </g>
    </g>
   </g>
   <g id="matplotlib.axis_2">
    <g id="ytick_1">
     <g id="line2d_12">
      <defs>
       <path id="m24fc77721a" d="M 0 0 
L -3.5 0 
" style="stroke: #000000; stroke-width: 0.8"/>
      </defs>
      <g>
       <use xlink:href="#m24fc77721a" x="52.375" y="340.447986" style="stroke: #000000; stroke-width: 0.8"/>
      </g>
     </g>
     <g id="text_12">
      <!-- 0 -->
      <g transform="translate(39.0125 344.247205)scale(0.1 -0.1)">
       <use xlink:href="#DejaVuSans-30"/>
      </g>
     </g>
    </g>
    <g id="ytick_2">
     <g id="line2d_13">
      <g>
       <use xlink:href="#m24fc77721a" x="52.375" y="285.551375" style="stroke: #000000; stroke-width: 0.8"/>
      </g>
     </g>
     <g id="text_13">
      <!-- 100000 -->
      <g transform="translate(7.2 289.350594)scale(0.1 -0.1)">
       <use xlink:href="#DejaVuSans-31"/>
       <use xlink:href="#DejaVuSans-30" x="63.623047"/>
       <use xlink:href="#DejaVuSans-30" x="127.246094"/>
       <use xlink:href="#DejaVuSans-30" x="190.869141"/>
       <use xlink:href="#DejaVuSans-30" x="254.492188"/>
       <use xlink:href="#DejaVuSans-30" x="318.115234"/>
      </g>
     </g>
    </g>
    <g id="ytick_3">
     <g id="line2d_14">
      <g>
       <use xlink:href="#m24fc77721a" x="52.375" y="230.654764" style="stroke: #000000; stroke-width: 0.8"/>
      </g>
     </g>
     <g id="text_14">
      <!-- 200000 -->
      <g transform="translate(7.2 234.453983)scale(0.1 -0.1)">
       <use xlink:href="#DejaVuSans-32"/>
       <use xlink:href="#DejaVuSans-30" x="63.623047"/>
       <use xlink:href="#DejaVuSans-30" x="127.246094"/>
       <use xlink:href="#DejaVuSans-30" x="190.869141"/>
       <use xlink:href="#DejaVuSans-30" x="254.492188"/>
       <use xlink:href="#DejaVuSans-30" x="318.115234"/>
      </g>
     </g>
    </g>
    <g id="ytick_4">
     <g id="line2d_15">
      <g>
       <use xlink:href="#m24fc77721a" x="52.375" y="175.758153" style="stroke: #000000; stroke-width: 0.8"/>
      </g>
     </g>
     <g id="text_15">
      <!-- 300000 -->
      <g transform="translate(7.2 179.557372)scale(0.1 -0.1)">
       <defs>
        <path id="DejaVuSans-33" d="M 2597 2516 
Q 3050 2419 3304 2112 
Q 3559 1806 3559 1356 
Q 3559 666 3084 287 
Q 2609 -91 1734 -91 
Q 1441 -91 1130 -33 
Q 819 25 488 141 
L 488 750 
Q 750 597 1062 519 
Q 1375 441 1716 441 
Q 2309 441 2620 675 
Q 2931 909 2931 1356 
Q 2931 1769 2642 2001 
Q 2353 2234 1838 2234 
L 1294 2234 
L 1294 2753 
L 1863 2753 
Q 2328 2753 2575 2939 
Q 2822 3125 2822 3475 
Q 2822 3834 2567 4026 
Q 2313 4219 1838 4219 
Q 1578 4219 1281 4162 
Q 984 4106 628 3988 
L 628 4550 
Q 988 4650 1302 4700 
Q 1616 4750 1894 4750 
Q 2613 4750 3031 4423 
Q 3450 4097 3450 3541 
Q 3450 3153 3228 2886 
Q 3006 2619 2597 2516 
z
" transform="scale(0.015625)"/>
       </defs>
       <use xlink:href="#DejaVuSans-33"/>
       <use xlink:href="#DejaVuSans-30" x="63.623047"/>
       <use xlink:href="#DejaVuSans-30" x="127.246094"/>
       <use xlink:href="#DejaVuSans-30" x="190.869141"/>
       <use xlink:href="#DejaVuSans-30" x="254.492188"/>
       <use xlink:href="#DejaVuSans-30" x="318.115234"/>
      </g>
     </g>
    </g>
    <g id="ytick_5">
     <g id="line2d_16">
      <g>
       <use xlink:href="#m24fc77721a" x="52.375" y="120.861542" style="stroke: #000000; stroke-width: 0.8"/>
      </g>
     </g>
     <g id="text_16">
      <!-- 400000 -->
      <g transform="translate(7.2 124.660761)scale(0.1 -0.1)">
       <use xlink:href="#DejaVuSans-34"/>
       <use xlink:href="#DejaVuSans-30" x="63.623047"/>
       <use xlink:href="#DejaVuSans-30" x="127.246094"/>
       <use xlink:href="#DejaVuSans-30" x="190.869141"/>
       <use xlink:href="#DejaVuSans-30" x="254.492188"/>
       <use xlink:href="#DejaVuSans-30" x="318.115234"/>
      </g>
     </g>
    </g>
    <g id="ytick_6">
     <g id="line2d_17">
      <g>
       <use xlink:href="#m24fc77721a" x="52.375" y="65.964931" style="stroke: #000000; stroke-width: 0.8"/>
      </g>
     </g>
     <g id="text_17">
      <!-- 500000 -->
      <g transform="translate(7.2 69.76415)scale(0.1 -0.1)">
       <defs>
        <path id="DejaVuSans-35" d="M 691 4666 
L 3169 4666 
L 3169 4134 
L 1269 4134 
L 1269 2991 
Q 1406 3038 1543 3061 
Q 1681 3084 1819 3084 
Q 2600 3084 3056 2656 
Q 3513 2228 3513 1497 
Q 3513 744 3044 326 
Q 2575 -91 1722 -91 
Q 1428 -91 1123 -41 
Q 819 9 494 109 
L 494 744 
Q 775 591 1075 516 
Q 1375 441 1709 441 
Q 2250 441 2565 725 
Q 2881 1009 2881 1497 
Q 2881 1984 2565 2268 
Q 2250 2553 1709 2553 
Q 1456 2553 1204 2497 
Q 953 2441 691 2322 
L 691 4666 
z
" transform="scale(0.015625)"/>
       </defs>
       <use xlink:href="#DejaVuSans-35"/>
       <use xlink:href="#DejaVuSans-30" x="63.623047"/>
       <use xlink:href="#DejaVuSans-30" x="127.246094"/>
       <use xlink:href="#DejaVuSans-30" x="190.869141"/>
       <use xlink:href="#DejaVuSans-30" x="254.492188"/>
       <use xlink:href="#DejaVuSans-30" x="318.115234"/>
      </g>
     </g>
    </g>
   </g>
   <g id="line2d_18">
    <path d="M 113.247727 340.447986 
L 172.093543 340.358505 
L 176.016598 340.299216 
L 177.324282 340.007715 
L 179.939652 340.045594 
L 182.555021 339.8035 
L 185.170391 339.875964 
L 186.478076 338.910332 
L 187.785761 338.824144 
L 189.093445 338.963033 
L 190.40113 339.3786 
L 191.708815 338.218086 
L 193.0165 337.832712 
L 194.324185 338.187344 
L 196.939554 337.274962 
L 198.247239 336.992794 
L 199.554924 338.271336 
L 200.862609 337.839848 
L 202.170293 337.914508 
L 204.785663 337.068551 
L 207.401033 337.109174 
L 208.708717 337.189323 
L 210.016402 338.429438 
L 212.631772 338.250475 
L 213.939457 337.717429 
L 215.247141 337.52584 
L 217.862511 338.899353 
L 220.477881 339.305039 
L 225.70862 338.466768 
L 227.016305 339.098628 
L 228.323989 339.473571 
L 229.631674 339.468082 
L 230.939359 339.219949 
L 233.554729 339.165052 
L 236.170098 339.494432 
L 237.477783 339.889139 
L 242.708522 339.548231 
L 244.016207 339.929213 
L 247.939261 340.071944 
L 250.554631 339.743114 
L 253.17 339.76123 
L 254.477685 340.081826 
L 255.78537 340.252005 
L 257.093055 339.935801 
L 258.40074 340.009911 
L 261.016109 339.94678 
L 262.323794 340.107627 
L 263.631479 340.127939 
L 264.939164 340.26024 
L 268.862218 340.039006 
L 270.169903 340.195462 
L 271.477588 340.097746 
L 274.092957 340.289335 
L 275.400642 340.210833 
L 278.016012 340.254201 
L 279.323696 340.041202 
L 280.631381 340.042849 
L 281.939066 340.290982 
L 289.785175 340.224557 
L 292.400544 340.330507 
L 296.323599 340.14331 
L 297.631284 340.306353 
L 300.246653 340.312392 
L 301.554338 340.342585 
L 302.862023 340.240477 
L 304.169708 340.258593 
L 306.785077 340.025282 
L 308.092762 340.118058 
L 309.400447 340.070847 
L 312.015816 340.171856 
L 314.631186 340.102138 
L 315.938871 340.186129 
L 317.246556 340.070847 
L 318.55424 340.307451 
L 319.861925 340.304157 
L 321.16961 340.174601 
L 331.631088 340.230047 
L 335.554143 340.240477 
L 338.169512 340.360701 
L 339.477197 340.221812 
L 340.784882 340.255299 
L 343.400251 340.127939 
L 344.707936 340.157583 
L 346.015621 340.337095 
L 347.323306 340.311294 
L 348.630991 340.161426 
L 351.24636 340.135625 
L 352.554045 340.000579 
L 353.86173 340.019244 
L 355.169415 340.280552 
L 356.477099 340.261338 
L 357.784784 340.100491 
L 363.015523 339.923724 
L 364.323208 340.316234 
L 366.938578 339.965445 
L 368.246263 340.041202 
L 370.861632 339.818322 
L 372.169317 339.832046 
L 373.477002 340.14331 
L 374.784687 340.208637 
L 376.092371 339.917685 
L 378.707741 339.65473 
L 381.323111 339.671199 
L 382.630795 340.104882 
L 383.93848 340.140016 
L 385.246165 339.684923 
L 387.861535 339.510901 
L 389.169219 339.664612 
L 390.476904 339.331389 
L 391.784589 340.018695 
L 393.092274 340.057671 
L 394.399959 339.746408 
L 395.707643 339.582816 
L 399.630698 339.636065 
L 400.938382 340.017048 
L 402.246067 340.113117 
L 403.553752 339.779346 
L 408.784491 339.691511 
L 410.092176 339.905608 
L 411.399861 340.001128 
L 412.707546 339.625086 
L 414.01523 339.802402 
L 415.322915 339.409342 
L 416.6306 339.633321 
L 417.938285 339.553171 
L 419.24597 339.927566 
L 420.553654 339.939095 
L 424.476709 339.243555 
L 425.784394 339.396167 
L 427.092078 339.187011 
L 428.399763 339.709627 
L 429.707448 339.941839 
L 431.015133 339.448319 
L 432.322818 339.476865 
L 433.630502 339.271552 
L 434.938187 339.266062 
L 436.245872 339.071728 
L 437.553557 339.673944 
L 438.861242 339.793619 
L 440.168926 339.301196 
L 441.476611 339.460945 
L 442.784296 339.073924 
L 444.091981 338.9806 
L 446.70735 339.196892 
L 448.015035 339.689315 
L 449.32272 338.999265 
L 450.630405 338.89551 
L 451.93809 338.220282 
L 453.245774 337.968855 
L 454.553459 337.856317 
L 457.168829 339.093687 
L 458.476514 338.185148 
L 459.784198 337.630692 
L 461.091883 336.803949 
L 463.707253 336.149582 
L 465.014938 337.380913 
L 466.322622 338.073708 
L 467.630307 336.677687 
L 468.937992 336.278589 
L 470.245677 334.251806 
L 471.553361 334.276509 
L 472.861046 332.370499 
L 474.168731 334.312741 
L 475.476416 335.680216 
L 476.784101 334.184832 
L 478.091785 332.233257 
L 480.707155 330.19275 
L 482.01484 329.985241 
L 483.322525 332.665294 
L 484.630209 333.807143 
L 485.937894 332.020259 
L 487.245579 330.998084 
L 488.553264 329.474154 
L 489.860949 328.641921 
L 491.168633 327.602728 
L 492.476318 331.655196 
L 493.784003 333.112152 
L 495.091688 332.031238 
L 497.707057 328.444293 
L 499.014742 327.524226 
L 500.322427 328.117658 
L 501.630112 331.144658 
L 502.937797 334.505977 
L 504.245481 332.532444 
L 505.553166 330.807592 
L 506.860851 328.036411 
L 508.168536 327.466036 
L 509.476221 327.841528 
L 510.783905 331.806711 
L 512.09159 334.484018 
L 513.399275 333.0073 
L 514.70696 330.219101 
L 516.014645 328.223609 
L 517.322329 327.928265 
L 518.630014 328.538166 
L 519.937699 332.427042 
L 521.245384 334.316584 
L 522.553069 332.979851 
L 523.860753 330.967342 
L 525.168438 328.345479 
L 526.476123 327.57528 
L 527.783808 327.647194 
L 530.399177 333.678136 
L 531.706862 332.732817 
L 533.014547 329.021257 
L 534.322232 327.449018 
L 535.629917 324.047624 
L 536.937601 324.836488 
L 538.245286 329.358871 
L 539.552971 331.465803 
L 540.860656 332.525307 
L 542.16834 325.226254 
L 543.476025 325.668172 
L 544.78371 321.905558 
L 546.091395 323.265347 
L 547.39908 327.947479 
L 548.706764 331.311543 
L 550.014449 329.727776 
L 551.322134 326.866565 
L 552.629819 322.774022 
L 553.937504 326.431235 
L 555.245188 332.512681 
L 556.552873 332.896957 
L 557.860558 334.422534 
L 559.168243 333.370715 
L 561.783612 322.578041 
L 564.398982 333.481606 
L 565.706667 334.785401 
L 567.014352 335.042317 
L 568.322036 333.916936 
L 569.629721 328.789593 
L 572.245091 322.963965 
L 574.86046 331.145207 
L 576.168145 333.587557 
L 577.47583 333.420122 
L 578.783515 329.68825 
L 580.0912 326.633803 
L 581.398884 328.168712 
L 582.706569 330.194397 
L 584.014254 332.827239 
L 585.321939 336.527819 
L 587.937308 331.678802 
L 589.244993 329.250176 
L 590.552678 330.642354 
L 591.860363 331.43561 
L 593.168048 333.719309 
L 594.475732 336.753993 
L 595.783417 336.928016 
L 597.091102 333.202732 
L 598.398787 330.811984 
L 599.706472 332.750383 
L 601.014156 333.684175 
L 602.321841 334.303958 
L 603.629526 337.369384 
L 604.937211 337.091607 
L 606.244896 335.12027 
L 607.55258 332.646629 
L 608.860265 333.361932 
L 610.16795 334.692077 
L 611.475635 335.718094 
L 612.78332 337.958425 
L 614.091004 338.59303 
L 615.398689 336.016732 
L 616.706374 334.82822 
L 618.014059 335.03518 
L 619.321743 335.861923 
L 620.629428 337.091607 
L 621.937113 338.018262 
L 623.244798 338.331173 
L 624.552483 336.299998 
L 625.860167 334.844689 
L 627.167852 335.445258 
L 628.475537 335.417261 
L 629.783222 336.234122 
L 631.090907 338.049553 
L 632.398591 338.316351 
L 635.013961 333.932307 
L 636.321646 334.959972 
L 637.629331 335.088979 
L 638.937015 336.116644 
L 640.2447 337.850279 
L 641.552385 338.283413 
L 642.86007 335.496861 
L 644.167755 333.908702 
L 645.475439 334.639925 
L 646.783124 335.201517 
L 648.090809 335.999714 
L 649.398494 337.697117 
L 650.706179 338.113782 
L 653.321548 332.567029 
L 654.629233 333.402555 
L 655.936918 333.49039 
L 657.244603 334.524642 
L 658.552287 336.822614 
L 659.859972 337.439652 
L 661.167657 333.072627 
L 662.475342 330.838883 
L 663.783027 330.850961 
L 665.090711 331.646413 
L 666.398396 332.909035 
L 667.706081 336.216006 
L 669.013766 336.338975 
L 670.321451 331.767185 
L 671.629135 328.010061 
L 674.244505 329.209552 
L 675.55219 331.018944 
L 676.859875 335.028593 
L 678.167559 335.205909 
L 680.782929 327.10811 
L 682.090614 328.432216 
L 683.398299 330.49578 
L 684.705983 333.752796 
L 686.013668 335.783421 
L 687.321353 336.668355 
L 688.629038 335.135641 
L 689.936722 329.245235 
L 691.244407 326.469113 
L 692.552092 327.21955 
L 693.859777 330.646196 
L 695.167462 333.17693 
L 696.475146 334.513663 
L 697.782831 328.539264 
L 699.090516 324.294109 
L 700.398201 326.267643 
L 701.705886 327.380397 
L 703.01357 329.916071 
L 704.321255 334.169461 
L 705.62894 335.172971 
L 706.936625 326.787514 
L 708.24431 324.243605 
L 709.551994 325.327813 
L 710.859679 327.606571 
L 712.167364 330.142245 
L 713.475049 333.911447 
L 714.782734 334.422534 
L 716.090418 328.243921 
L 717.398103 326.868761 
L 718.705788 327.09219 
L 720.013473 330.053313 
L 721.321158 331.505328 
L 722.628842 335.419457 
L 723.936527 336.312076 
L 725.244212 330.547931 
L 726.551897 328.396533 
L 727.859582 330.300348 
L 730.474951 333.500271 
L 731.782636 336.648043 
L 733.090321 337.085569 
L 734.398006 332.263451 
L 735.70569 330.885546 
L 737.013375 334.224906 
L 738.32106 336.114448 
L 739.628745 335.781774 
L 740.93643 337.476982 
L 742.244114 338.137388 
L 743.551799 334.3874 
L 744.859484 333.696801 
L 746.167169 335.634102 
L 747.474854 336.560208 
L 748.782538 336.762228 
L 750.090223 338.975659 
L 751.397908 339.398912 
L 752.705593 339.006401 
L 754.013278 336.982363 
L 755.320962 336.396616 
L 756.628647 337.469296 
L 757.936332 338.333369 
L 759.244017 339.362131 
L 760.551701 339.468082 
L 761.859386 337.74872 
L 763.167071 337.900783 
L 764.474756 338.710508 
L 765.782441 339.188658 
L 767.090125 339.108509 
L 768.39781 339.834791 
L 769.705495 339.787031 
L 771.01318 338.661651 
L 772.320865 338.698431 
L 773.628549 339.108509 
L 776.243919 339.630576 
L 777.551604 340.146604 
L 778.859289 340.09006 
L 780.166973 339.649241 
L 785.397713 339.985757 
L 786.705397 340.258044 
L 788.013082 340.198207 
L 789.320767 339.890237 
L 790.628452 339.894628 
L 793.243821 340.122998 
L 794.551506 340.152642 
L 795.859191 340.327763 
L 797.166876 340.226204 
L 798.474561 340.004422 
L 799.782245 339.958308 
L 801.08993 340.091707 
L 803.7053 340.141114 
L 805.012985 340.331605 
L 806.320669 340.206441 
L 807.628354 339.907255 
L 812.859093 340.039006 
L 814.166778 340.270121 
L 815.474463 340.093354 
L 816.782148 339.598187 
L 818.089833 339.546584 
L 819.397517 339.648692 
L 820.705202 339.565249 
L 822.012887 339.738722 
L 823.320572 340.148251 
L 824.628257 339.798559 
L 825.935941 339.238614 
L 827.243626 339.41044 
L 828.551311 339.301196 
L 829.858996 339.39452 
L 832.474365 339.922077 
L 833.78205 339.599834 
L 835.089735 338.928448 
L 836.39742 338.723135 
L 837.705104 339.100823 
L 839.012789 339.130468 
L 840.320474 339.296804 
L 841.628159 339.983012 
L 842.935844 339.478512 
L 844.243528 338.487628 
L 846.858898 338.555151 
L 849.474268 338.731369 
L 850.781952 339.798559 
L 852.089637 339.08655 
L 853.397322 337.705352 
L 854.705007 337.352915 
L 857.320376 337.349622 
L 858.628061 337.852474 
L 859.935746 339.280884 
L 861.243431 338.300431 
L 862.551116 335.878392 
L 863.8588 335.836671 
L 865.166485 335.353581 
L 867.781855 336.577775 
L 869.08954 338.434379 
L 870.397224 337.293078 
L 871.704909 334.101389 
L 873.012594 333.51674 
L 874.320279 333.844473 
L 876.935648 335.827887 
L 878.243333 337.94525 
L 879.551018 337.291431 
L 880.858703 333.019926 
L 882.166388 332.918916 
L 883.474072 332.62467 
L 884.781757 334.499938 
L 886.089442 334.709643 
L 887.397127 337.840946 
L 888.704812 336.75564 
L 890.012496 333.001261 
L 891.320181 331.97689 
L 892.627866 333.328445 
L 893.935551 334.29188 
L 895.243236 336.41583 
L 896.55092 337.422634 
L 897.858605 336.975776 
L 899.16629 333.610613 
L 900.473975 333.352599 
L 904.397029 336.420222 
L 905.704714 338.397049 
L 907.012399 337.887608 
L 908.320083 334.709095 
L 909.627768 334.576245 
L 910.935453 335.108193 
L 912.243138 336.489392 
L 913.550823 336.180324 
L 914.858507 338.789011 
L 916.166192 338.158249 
L 917.473877 333.981165 
L 918.781562 333.778048 
L 920.089247 334.893547 
L 921.396931 335.772442 
L 922.704616 337.064159 
L 924.012301 338.752779 
L 925.319986 337.813498 
L 926.627671 334.109075 
L 927.935355 334.055825 
L 929.24304 334.722819 
L 930.550725 335.58744 
L 931.85841 336.269256 
L 933.166095 338.740153 
L 934.473779 337.719076 
L 935.781464 333.913643 
L 937.089149 333.650688 
L 938.396834 334.124995 
L 939.704519 334.437356 
L 941.012203 335.681862 
L 942.319888 338.22138 
L 943.627573 336.730937 
L 944.935258 331.107328 
L 946.242943 331.622258 
L 947.550627 329.703622 
L 948.858312 332.133895 
L 950.165997 332.909584 
L 951.473682 336.839632 
L 952.781367 334.698664 
L 954.089051 327.705385 
L 955.396736 325.056623 
L 958.012106 328.621609 
L 959.319791 331.177596 
L 960.627475 335.146072 
L 961.93516 334.512016 
L 963.242845 329.250176 
L 964.55053 321.811136 
L 965.858215 320.070364 
L 967.165899 321.782041 
L 968.473584 327.523677 
L 969.781269 331.931875 
L 971.088954 328.462958 
L 972.396639 318.667207 
L 973.704323 312.892083 
L 975.012008 313.746275 
L 976.319693 315.700045 
L 977.627378 322.058719 
L 978.935062 327.488543 
L 980.242747 322.85472 
L 981.550432 311.448303 
L 982.858117 304.561523 
L 984.165802 311.369251 
L 985.473486 305.355877 
L 986.781171 316.992311 
L 988.088856 323.626018 
L 989.396541 315.565548 
L 990.704226 303.730937 
L 992.01191 298.747972 
L 993.319595 298.49929 
L 994.62728 303.598636 
L 995.934965 316.073342 
L 997.24265 324.328145 
L 998.550334 315.33114 
L 999.858019 303.565149 
L 1001.165704 300.258726 
L 1002.473389 299.631258 
L 1003.781074 305.034183 
L 1005.088758 317.361216 
L 1006.396443 325.166966 
L 1007.704128 320.652817 
L 1009.011813 302.239396 
L 1010.319498 301.68494 
L 1011.627182 306.802951 
L 1012.934867 310.970153 
L 1014.242552 322.526439 
L 1015.550237 328.511816 
L 1016.857922 323.527204 
L 1018.165606 312.285476 
L 1019.473291 309.334234 
L 1020.780976 312.468282 
L 1022.088661 316.9451 
L 1024.70403 331.617317 
L 1026.011715 327.586808 
L 1027.3194 315.382743 
L 1028.627085 315.784586 
L 1029.93477 320.997568 
L 1032.550139 334.903429 
L 1033.857824 332.812966 
L 1035.165509 328.875781 
L 1036.473194 318.465736 
L 1037.780878 316.968706 
L 1039.088563 317.808624 
L 1041.703933 333.577675 
L 1043.011618 330.282232 
L 1044.319302 323.671033 
L 1045.626987 308.107295 
L 1046.934672 305.127507 
L 1048.242357 309.52198 
L 1049.550041 309.766819 
L 1050.857726 320.382177 
L 1052.165411 326.583847 
L 1053.473096 315.365725 
L 1054.780781 296.294642 
L 1056.088465 295.752812 
L 1057.39615 289.820685 
L 1058.703835 297.616552 
L 1060.01152 311.62507 
L 1061.319205 321.703538 
L 1063.934574 278.786466 
L 1065.242259 267.141248 
L 1066.549944 263.504896 
L 1067.857629 266.084488 
L 1069.165313 293.544322 
L 1070.472998 305.647378 
L 1071.780683 270.753994 
L 1074.396053 228.933207 
L 1075.703737 236.063178 
L 1077.011422 236.602263 
L 1078.319107 275.137488 
L 1079.626792 297.454058 
L 1080.934477 251.17896 
L 1082.242161 225.98965 
L 1083.549846 210.826108 
L 1084.857531 203.844357 
L 1086.165216 220.874933 
L 1087.472901 267.340523 
L 1088.780585 288.149632 
L 1090.08827 247.359254 
L 1091.395955 211.852675 
L 1092.70364 204.380148 
L 1094.011325 208.601698 
L 1095.319009 225.280935 
L 1096.626694 271.739388 
L 1097.934379 298.471293 
L 1099.242064 253.043249 
L 1100.549749 219.690813 
L 1101.857433 211.097298 
L 1103.165118 219.649092 
L 1104.472803 236.63575 
L 1105.780488 275.652418 
L 1107.088173 299.897507 
L 1108.395857 271.332055 
L 1109.703542 225.685523 
L 1111.011227 221.694539 
L 1112.318912 224.757221 
L 1113.626597 243.921628 
L 1114.934281 281.207406 
L 1116.241966 306.220498 
L 1118.857336 238.11741 
L 1120.165021 224.795649 
L 1121.472705 220.996804 
L 1122.78039 234.93121 
L 1124.088075 276.279887 
L 1125.39576 297.393672 
L 1126.703444 254.370649 
L 1128.011129 221.951456 
L 1129.318814 196.206043 
L 1130.626499 201.649591 
L 1131.934184 210.295807 
L 1133.241868 259.965712 
L 1134.549553 289.735595 
L 1135.857238 231.265215 
L 1137.164923 196.293329 
L 1138.472608 178.540863 
L 1139.780292 176.941175 
L 1141.087977 197.585595 
L 1142.395662 268.098645 
L 1143.703347 289.770729 
L 1145.011032 218.533593 
L 1146.318716 184.688734 
L 1147.626401 165.664314 
L 1148.934086 177.680633 
L 1150.241771 202.094254 
L 1151.549456 279.38978 
L 1152.85714 303.392225 
L 1154.164825 210.149782 
L 1155.47251 193.063212 
L 1156.780195 50.8755 
L 1158.08788 340.478728 
L 1159.395564 232.6003 
L 1160.703249 277.216972 
L 1162.010934 340.447986 
L 1163.318619 241.416147 
L 1164.626304 111.686123 
L 1165.933988 244.234539 
L 1167.241673 257.732518 
L 1168.549358 309.996287 
L 1169.857043 323.545869 
L 1171.164728 230.412121 
L 1172.472412 264.333286 
L 1173.780097 249.666559 
L 1175.087782 254.334966 
L 1176.395467 319.824427 
L 1177.703152 318.607919 
L 1179.010836 329.204062 
L 1180.318521 328.105581 
L 1181.626206 231.432649 
L 1182.933891 238.161876 
L 1185.54926 266.294193 
L 1186.856945 318.940043 
L 1188.16463 329.422551 
L 1189.472315 265.35052 
L 1190.78 340.447986 
L 1192.087684 191.258211 
L 1193.395369 284.66754 
L 1194.703054 292.524343 
L 1196.010739 334.015201 
L 1197.318423 338.234555 
L 1198.626108 278.128256 
L 1199.933793 281.911181 
L 1202.549163 293.745792 
L 1203.856847 300.784087 
L 1205.164532 335.788362 
L 1206.472217 338.60895 
L 1207.779902 281.3968 
L 1209.087587 287.192784 
L 1210.395271 291.611412 
L 1211.702956 302.569874 
L 1213.010641 306.489492 
L 1214.318326 337.071296 
L 1215.626011 339.182619 
L 1216.933695 293.098561 
L 1219.549065 308.213245 
L 1220.85675 313.598054 
L 1222.164435 317.185547 
L 1223.472119 338.349289 
L 1224.779804 339.764523 
L 1226.087489 305.074257 
L 1227.395174 313.471243 
L 1228.702859 318.651287 
L 1230.010543 339.431301 
L 1231.318228 318.502517 
L 1232.625913 338.958641 
L 1233.933598 340.033517 
L 1235.241283 306.473023 
L 1237.856652 313.822032 
L 1239.164337 317.010976 
L 1240.472022 317.892616 
L 1241.779707 340.447986 
L 1243.087391 338.594677 
L 1244.395076 339.487296 
L 1245.702761 293.97526 
L 1247.010446 297.828453 
L 1248.318131 297.695604 
L 1249.625815 304.580188 
L 1250.9335 340.447986 
L 1252.241185 337.495646 
L 1253.54887 282.345413 
L 1254.856555 289.75426 
L 1256.164239 291.512049 
L 1257.471924 325.012157 
L 1258.779609 296.38577 
L 1260.087294 340.446888 
L 1261.394979 336.637612 
L 1262.702663 272.871905 
L 1264.010348 274.993659 
L 1265.318033 274.923391 
L 1266.625718 281.055343 
L 1267.933402 291.40555 
L 1269.241087 340.447437 
L 1270.548772 340.009362 
L 1271.856457 262.314189 
L 1273.164142 266.913976 
L 1274.471826 267.616104 
L 1275.779511 278.360468 
L 1277.087196 286.282049 
L 1278.394881 340.447437 
L 1279.702566 339.149681 
L 1281.01025 259.481524 
L 1282.317935 268.682745 
L 1283.62562 266.116877 
L 1284.933305 275.817108 
L 1286.24099 287.791706 
L 1287.548674 340.447986 
L 1288.856359 338.52935 
L 1290.164044 255.507009 
L 1291.471729 270.393872 
L 1292.779414 256.923342 
L 1294.087098 280.229698 
L 1295.394783 272.899902 
L 1296.702468 340.447986 
L 1298.010153 340.447986 
L 1299.317838 252.234073 
L 1300.625522 263.044314 
L 1301.933207 265.44604 
L 1303.240892 281.259009 
L 1304.548577 289.938163 
L 1305.856262 340.446888 
L 1307.163946 340.447986 
L 1308.471631 260.588788 
L 1309.779316 273.594893 
L 1311.087001 283.286341 
L 1313.70237 304.214576 
L 1313.70237 304.214576 
" clip-path="url(#pc1ad4a3649)" style="fill: none; stroke: #0000ff; stroke-width: 1.5; stroke-linecap: square"/>
   </g>
   <g id="line2d_19">
    <path d="M 1074.396053 247.946957 
L 1075.703737 249.152443 
L 1077.011422 263.825517 
L 1078.319107 274.660288 
L 1079.626792 257.503832 
L 1080.934477 238.452775 
L 1082.242161 223.353871 
L 1083.549846 222.58942 
L 1084.857531 220.677354 
L 1086.165216 246.659464 
L 1087.472901 265.352835 
L 1088.780585 238.662014 
L 1090.08827 220.404906 
L 1091.395955 205.44779 
L 1092.70364 203.25734 
L 1094.011325 213.058153 
L 1095.319009 249.618199 
L 1096.626694 271.008199 
L 1097.934379 242.732002 
L 1099.242064 219.006947 
L 1100.549749 209.069772 
L 1101.857433 210.343483 
L 1103.165118 224.203863 
L 1104.472803 264.954588 
L 1105.780488 287.614104 
L 1107.088173 252.551482 
L 1108.395857 228.591325 
L 1109.703542 218.919084 
L 1111.011227 223.698225 
L 1112.318912 237.518378 
L 1113.626597 275.866962 
L 1114.934281 298.257368 
L 1116.241966 267.771343 
L 1117.549651 234.417441 
L 1118.857336 228.780921 
L 1120.165021 231.4194 
L 1121.472705 244.567854 
L 1122.78039 278.026902 
L 1124.088075 299.655258 
L 1125.39576 267.954477 
L 1126.703444 231.408917 
L 1128.011129 220.124919 
L 1129.318814 214.99842 
L 1130.626499 226.215777 
L 1131.934184 259.349811 
L 1133.241868 280.243388 
L 1135.857238 212.029772 
L 1137.164923 192.522439 
L 1138.472608 191.890469 
L 1139.780292 199.781558 
L 1141.087977 240.163113 
L 1142.395662 270.256373 
L 1143.703347 230.795145 
L 1145.011032 196.226464 
L 1146.318716 177.545337 
L 1147.626401 175.517993 
L 1148.934086 190.884051 
L 1150.241771 245.513154 
L 1151.549456 275.042918 
L 1152.85714 227.411526 
L 1154.164825 192.13793 
L 1155.47251 175.629419 
L 1156.780195 153.324981 
L 1159.395564 278.805978 
L 1160.703249 300.432618 
L 1162.010934 240.516425 
L 1163.318619 216.796831 
L 1164.626304 122.772621 
L 1165.933988 278.658815 
L 1167.241673 236.818646 
L 1168.549358 304.607981 
L 1169.857043 347.872774 
L 1171.164728 242.440485 
L 1172.472412 178.41144 
L 1173.780097 214.855884 
L 1175.087782 297.210512 
L 1176.395467 305.450341 
L 1177.703152 341.321516 
L 1179.010836 318.677164 
L 1180.318521 293.916926 
L 1181.626206 237.383677 
L 1182.933891 250.385417 
L 1184.241576 317.779517 
L 1185.54926 307.438539 
L 1186.856945 331.929179 
L 1188.16463 320.42749 
L 1189.472315 252.019293 
L 1190.78 252.334744 
L 1192.087684 251.314071 
L 1193.395369 300.39433 
L 1194.703054 322.130386 
L 1196.010739 340.871317 
L 1197.318423 306.708648 
L 1198.626108 303.480629 
L 1199.933793 223.644871 
L 1201.241478 285.170582 
L 1203.856847 340.18028 
L 1205.164532 349.49796 
L 1206.472217 303.322055 
L 1207.779902 301.739015 
L 1209.087587 261.576906 
L 1210.395271 295.761742 
L 1211.702956 313.648747 
L 1213.010641 343.236398 
L 1214.318326 348.509045 
L 1215.626011 298.59538 
L 1216.933695 301.639835 
L 1218.24138 284.008183 
L 1219.549065 308.626697 
L 1220.85675 320.052837 
L 1222.164435 349.099601 
L 1223.472119 351.122407 
L 1224.779804 303.442047 
L 1226.087489 309.45112 
L 1227.395174 304.363532 
L 1228.702859 320.002545 
L 1230.010543 331.334276 
L 1231.318228 353.2755 
L 1232.625913 353.029671 
L 1233.933598 311.34548 
L 1235.241283 316.883808 
L 1236.548967 314.525967 
L 1237.856652 329.950214 
L 1239.164337 321.65396 
L 1240.472022 342.749594 
L 1241.779707 344.266281 
L 1243.087391 308.05226 
L 1244.395076 320.222048 
L 1245.702761 315.447535 
L 1247.010446 321.097742 
L 1248.318131 313.425059 
L 1249.625815 332.788156 
L 1250.9335 334.77363 
L 1252.241185 317.417589 
L 1253.54887 292.528208 
L 1254.856555 294.167004 
L 1256.164239 298.565983 
L 1257.471924 306.191916 
L 1258.779609 330.810211 
L 1260.087294 331.836847 
L 1261.394979 299.521498 
L 1262.702663 287.837654 
L 1264.010348 286.931586 
L 1265.318033 301.439285 
L 1266.625718 285.364759 
L 1267.933402 319.95685 
L 1269.241087 322.299758 
L 1270.548772 281.019907 
L 1271.856457 274.764237 
L 1273.164142 274.024156 
L 1274.471826 284.302474 
L 1275.779511 281.430045 
L 1277.087196 321.301515 
L 1278.394881 324.226346 
L 1279.702566 270.0464 
L 1281.01025 268.605764 
L 1282.317935 269.473046 
L 1283.62562 279.557116 
L 1284.933305 281.363791 
L 1286.24099 326.727004 
L 1287.548674 328.530186 
L 1288.856359 265.941328 
L 1290.164044 268.103643 
L 1291.471729 267.959661 
L 1294.087098 283.093189 
L 1295.394783 326.7889 
L 1296.702468 328.355879 
L 1298.010153 260.936495 
L 1299.317838 267.833811 
L 1300.625522 260.579626 
L 1301.933207 277.017445 
L 1303.240892 278.262879 
L 1304.548577 334.388009 
L 1305.856262 334.974006 
L 1307.163946 261.036746 
L 1308.471631 270.291685 
L 1309.779316 268.835653 
L 1311.087001 287.012731 
L 1312.394686 292.490207 
L 1313.70237 345.188062 
L 1313.70237 345.188062 
" clip-path="url(#pc1ad4a3649)" style="fill: none; stroke: #ffa500; stroke-width: 1.5; stroke-linecap: square"/>
   </g>
   <g id="line2d_20">
    <path d="M 1313.70237 345.188062 
L 1315.010055 344.797763 
L 1316.31774 270.619267 
L 1317.625425 281.198265 
L 1318.93311 284.26838 
L 1320.240794 296.746242 
L 1321.548479 303.311653 
L 1322.856164 347.441209 
L 1324.163849 347.079027 
L 1325.471534 275.884308 
L 1326.779218 286.052037 
L 1328.086903 289.011657 
L 1329.394588 301.002189 
L 1330.702273 307.317099 
" clip-path="url(#pc1ad4a3649)" style="fill: none; stroke: #ff0000; stroke-width: 1.5; stroke-linecap: square"/>
   </g>
   <g id="patch_3">
    <path d="M 52.375 368.3955 
L 52.375 35.7555 
" style="fill: none; stroke: #000000; stroke-width: 0.8; stroke-linejoin: miter; stroke-linecap: square"/>
   </g>
   <g id="patch_4">
    <path d="M 1391.575 368.3955 
L 1391.575 35.7555 
" style="fill: none; stroke: #000000; stroke-width: 0.8; stroke-linejoin: miter; stroke-linecap: square"/>
   </g>
   <g id="patch_5">
    <path d="M 52.375 368.3955 
L 1391.575 368.3955 
" style="fill: none; stroke: #000000; stroke-width: 0.8; stroke-linejoin: miter; stroke-linecap: square"/>
   </g>
   <g id="patch_6">
    <path d="M 52.375 35.7555 
L 1391.575 35.7555 
" style="fill: none; stroke: #000000; stroke-width: 0.8; stroke-linejoin: miter; stroke-linecap: square"/>
   </g>
   <g id="text_18">
    <!-- Daily Confirmed Cases Forecasting - Germany -->
    <g transform="translate(583.897187 16.318125)scale(0.12 -0.12)">
     <defs>
      <path id="DejaVuSans-44" d="M 1259 4147 
L 1259 519 
L 2022 519 
Q 2988 519 3436 956 
Q 3884 1394 3884 2338 
Q 3884 3275 3436 3711 
Q 2988 4147 2022 4147 
L 1259 4147 
z
M 628 4666 
L 1925 4666 
Q 3281 4666 3915 4102 
Q 4550 3538 4550 2338 
Q 4550 1131 3912 565 
Q 3275 0 1925 0 
L 628 0 
L 628 4666 
z
" transform="scale(0.015625)"/>
      <path id="DejaVuSans-61" d="M 2194 1759 
Q 1497 1759 1228 1600 
Q 959 1441 959 1056 
Q 959 750 1161 570 
Q 1363 391 1709 391 
Q 2188 391 2477 730 
Q 2766 1069 2766 1631 
L 2766 1759 
L 2194 1759 
z
M 3341 1997 
L 3341 0 
L 2766 0 
L 2766 531 
Q 2569 213 2275 61 
Q 1981 -91 1556 -91 
Q 1019 -91 701 211 
Q 384 513 384 1019 
Q 384 1609 779 1909 
Q 1175 2209 1959 2209 
L 2766 2209 
L 2766 2266 
Q 2766 2663 2505 2880 
Q 2244 3097 1772 3097 
Q 1472 3097 1187 3025 
Q 903 2953 641 2809 
L 641 3341 
Q 956 3463 1253 3523 
Q 1550 3584 1831 3584 
Q 2591 3584 2966 3190 
Q 3341 2797 3341 1997 
z
" transform="scale(0.015625)"/>
      <path id="DejaVuSans-69" d="M 603 3500 
L 1178 3500 
L 1178 0 
L 603 0 
L 603 3500 
z
M 603 4863 
L 1178 4863 
L 1178 4134 
L 603 4134 
L 603 4863 
z
" transform="scale(0.015625)"/>
      <path id="DejaVuSans-6c" d="M 603 4863 
L 1178 4863 
L 1178 0 
L 603 0 
L 603 4863 
z
" transform="scale(0.015625)"/>
      <path id="DejaVuSans-79" d="M 2059 -325 
Q 1816 -950 1584 -1140 
Q 1353 -1331 966 -1331 
L 506 -1331 
L 506 -850 
L 844 -850 
Q 1081 -850 1212 -737 
Q 1344 -625 1503 -206 
L 1606 56 
L 191 3500 
L 800 3500 
L 1894 763 
L 2988 3500 
L 3597 3500 
L 2059 -325 
z
" transform="scale(0.015625)"/>
      <path id="DejaVuSans-20" transform="scale(0.015625)"/>
      <path id="DejaVuSans-43" d="M 4122 4306 
L 4122 3641 
Q 3803 3938 3442 4084 
Q 3081 4231 2675 4231 
Q 1875 4231 1450 3742 
Q 1025 3253 1025 2328 
Q 1025 1406 1450 917 
Q 1875 428 2675 428 
Q 3081 428 3442 575 
Q 3803 722 4122 1019 
L 4122 359 
Q 3791 134 3420 21 
Q 3050 -91 2638 -91 
Q 1578 -91 968 557 
Q 359 1206 359 2328 
Q 359 3453 968 4101 
Q 1578 4750 2638 4750 
Q 3056 4750 3426 4639 
Q 3797 4528 4122 4306 
z
" transform="scale(0.015625)"/>
      <path id="DejaVuSans-6f" d="M 1959 3097 
Q 1497 3097 1228 2736 
Q 959 2375 959 1747 
Q 959 1119 1226 758 
Q 1494 397 1959 397 
Q 2419 397 2687 759 
Q 2956 1122 2956 1747 
Q 2956 2369 2687 2733 
Q 2419 3097 1959 3097 
z
M 1959 3584 
Q 2709 3584 3137 3096 
Q 3566 2609 3566 1747 
Q 3566 888 3137 398 
Q 2709 -91 1959 -91 
Q 1206 -91 779 398 
Q 353 888 353 1747 
Q 353 2609 779 3096 
Q 1206 3584 1959 3584 
z
" transform="scale(0.015625)"/>
      <path id="DejaVuSans-6e" d="M 3513 2113 
L 3513 0 
L 2938 0 
L 2938 2094 
Q 2938 2591 2744 2837 
Q 2550 3084 2163 3084 
Q 1697 3084 1428 2787 
Q 1159 2491 1159 1978 
L 1159 0 
L 581 0 
L 581 3500 
L 1159 3500 
L 1159 2956 
Q 1366 3272 1645 3428 
Q 1925 3584 2291 3584 
Q 2894 3584 3203 3211 
Q 3513 2838 3513 2113 
z
" transform="scale(0.015625)"/>
      <path id="DejaVuSans-66" d="M 2375 4863 
L 2375 4384 
L 1825 4384 
Q 1516 4384 1395 4259 
Q 1275 4134 1275 3809 
L 1275 3500 
L 2222 3500 
L 2222 3053 
L 1275 3053 
L 1275 0 
L 697 0 
L 697 3053 
L 147 3053 
L 147 3500 
L 697 3500 
L 697 3744 
Q 697 4328 969 4595 
Q 1241 4863 1831 4863 
L 2375 4863 
z
" transform="scale(0.015625)"/>
      <path id="DejaVuSans-72" d="M 2631 2963 
Q 2534 3019 2420 3045 
Q 2306 3072 2169 3072 
Q 1681 3072 1420 2755 
Q 1159 2438 1159 1844 
L 1159 0 
L 581 0 
L 581 3500 
L 1159 3500 
L 1159 2956 
Q 1341 3275 1631 3429 
Q 1922 3584 2338 3584 
Q 2397 3584 2469 3576 
Q 2541 3569 2628 3553 
L 2631 2963 
z
" transform="scale(0.015625)"/>
      <path id="DejaVuSans-6d" d="M 3328 2828 
Q 3544 3216 3844 3400 
Q 4144 3584 4550 3584 
Q 5097 3584 5394 3201 
Q 5691 2819 5691 2113 
L 5691 0 
L 5113 0 
L 5113 2094 
Q 5113 2597 4934 2840 
Q 4756 3084 4391 3084 
Q 3944 3084 3684 2787 
Q 3425 2491 3425 1978 
L 3425 0 
L 2847 0 
L 2847 2094 
Q 2847 2600 2669 2842 
Q 2491 3084 2119 3084 
Q 1678 3084 1418 2786 
Q 1159 2488 1159 1978 
L 1159 0 
L 581 0 
L 581 3500 
L 1159 3500 
L 1159 2956 
Q 1356 3278 1631 3431 
Q 1906 3584 2284 3584 
Q 2666 3584 2933 3390 
Q 3200 3197 3328 2828 
z
" transform="scale(0.015625)"/>
      <path id="DejaVuSans-65" d="M 3597 1894 
L 3597 1613 
L 953 1613 
Q 991 1019 1311 708 
Q 1631 397 2203 397 
Q 2534 397 2845 478 
Q 3156 559 3463 722 
L 3463 178 
Q 3153 47 2828 -22 
Q 2503 -91 2169 -91 
Q 1331 -91 842 396 
Q 353 884 353 1716 
Q 353 2575 817 3079 
Q 1281 3584 2069 3584 
Q 2775 3584 3186 3129 
Q 3597 2675 3597 1894 
z
M 3022 2063 
Q 3016 2534 2758 2815 
Q 2500 3097 2075 3097 
Q 1594 3097 1305 2825 
Q 1016 2553 972 2059 
L 3022 2063 
z
" transform="scale(0.015625)"/>
      <path id="DejaVuSans-64" d="M 2906 2969 
L 2906 4863 
L 3481 4863 
L 3481 0 
L 2906 0 
L 2906 525 
Q 2725 213 2448 61 
Q 2172 -91 1784 -91 
Q 1150 -91 751 415 
Q 353 922 353 1747 
Q 353 2572 751 3078 
Q 1150 3584 1784 3584 
Q 2172 3584 2448 3432 
Q 2725 3281 2906 2969 
z
M 947 1747 
Q 947 1113 1208 752 
Q 1469 391 1925 391 
Q 2381 391 2643 752 
Q 2906 1113 2906 1747 
Q 2906 2381 2643 2742 
Q 2381 3103 1925 3103 
Q 1469 3103 1208 2742 
Q 947 2381 947 1747 
z
" transform="scale(0.015625)"/>
      <path id="DejaVuSans-73" d="M 2834 3397 
L 2834 2853 
Q 2591 2978 2328 3040 
Q 2066 3103 1784 3103 
Q 1356 3103 1142 2972 
Q 928 2841 928 2578 
Q 928 2378 1081 2264 
Q 1234 2150 1697 2047 
L 1894 2003 
Q 2506 1872 2764 1633 
Q 3022 1394 3022 966 
Q 3022 478 2636 193 
Q 2250 -91 1575 -91 
Q 1294 -91 989 -36 
Q 684 19 347 128 
L 347 722 
Q 666 556 975 473 
Q 1284 391 1588 391 
Q 1994 391 2212 530 
Q 2431 669 2431 922 
Q 2431 1156 2273 1281 
Q 2116 1406 1581 1522 
L 1381 1569 
Q 847 1681 609 1914 
Q 372 2147 372 2553 
Q 372 3047 722 3315 
Q 1072 3584 1716 3584 
Q 2034 3584 2315 3537 
Q 2597 3491 2834 3397 
z
" transform="scale(0.015625)"/>
      <path id="DejaVuSans-46" d="M 628 4666 
L 3309 4666 
L 3309 4134 
L 1259 4134 
L 1259 2759 
L 3109 2759 
L 3109 2228 
L 1259 2228 
L 1259 0 
L 628 0 
L 628 4666 
z
" transform="scale(0.015625)"/>
      <path id="DejaVuSans-63" d="M 3122 3366 
L 3122 2828 
Q 2878 2963 2633 3030 
Q 2388 3097 2138 3097 
Q 1578 3097 1268 2742 
Q 959 2388 959 1747 
Q 959 1106 1268 751 
Q 1578 397 2138 397 
Q 2388 397 2633 464 
Q 2878 531 3122 666 
L 3122 134 
Q 2881 22 2623 -34 
Q 2366 -91 2075 -91 
Q 1284 -91 818 406 
Q 353 903 353 1747 
Q 353 2603 823 3093 
Q 1294 3584 2113 3584 
Q 2378 3584 2631 3529 
Q 2884 3475 3122 3366 
z
" transform="scale(0.015625)"/>
      <path id="DejaVuSans-74" d="M 1172 4494 
L 1172 3500 
L 2356 3500 
L 2356 3053 
L 1172 3053 
L 1172 1153 
Q 1172 725 1289 603 
Q 1406 481 1766 481 
L 2356 481 
L 2356 0 
L 1766 0 
Q 1100 0 847 248 
Q 594 497 594 1153 
L 594 3053 
L 172 3053 
L 172 3500 
L 594 3500 
L 594 4494 
L 1172 4494 
z
" transform="scale(0.015625)"/>
      <path id="DejaVuSans-67" d="M 2906 1791 
Q 2906 2416 2648 2759 
Q 2391 3103 1925 3103 
Q 1463 3103 1205 2759 
Q 947 2416 947 1791 
Q 947 1169 1205 825 
Q 1463 481 1925 481 
Q 2391 481 2648 825 
Q 2906 1169 2906 1791 
z
M 3481 434 
Q 3481 -459 3084 -895 
Q 2688 -1331 1869 -1331 
Q 1566 -1331 1297 -1286 
Q 1028 -1241 775 -1147 
L 775 -588 
Q 1028 -725 1275 -790 
Q 1522 -856 1778 -856 
Q 2344 -856 2625 -561 
Q 2906 -266 2906 331 
L 2906 616 
Q 2728 306 2450 153 
Q 2172 0 1784 0 
Q 1141 0 747 490 
Q 353 981 353 1791 
Q 353 2603 747 3093 
Q 1141 3584 1784 3584 
Q 2172 3584 2450 3431 
Q 2728 3278 2906 2969 
L 2906 3500 
L 3481 3500 
L 3481 434 
z
" transform="scale(0.015625)"/>
      <path id="DejaVuSans-47" d="M 3809 666 
L 3809 1919 
L 2778 1919 
L 2778 2438 
L 4434 2438 
L 4434 434 
Q 4069 175 3628 42 
Q 3188 -91 2688 -91 
Q 1594 -91 976 548 
Q 359 1188 359 2328 
Q 359 3472 976 4111 
Q 1594 4750 2688 4750 
Q 3144 4750 3555 4637 
Q 3966 4525 4313 4306 
L 4313 3634 
Q 3963 3931 3569 4081 
Q 3175 4231 2741 4231 
Q 1884 4231 1454 3753 
Q 1025 3275 1025 2328 
Q 1025 1384 1454 906 
Q 1884 428 2741 428 
Q 3075 428 3337 486 
Q 3600 544 3809 666 
z
" transform="scale(0.015625)"/>
     </defs>
     <use xlink:href="#DejaVuSans-44"/>
     <use xlink:href="#DejaVuSans-61" x="77.001953"/>
     <use xlink:href="#DejaVuSans-69" x="138.28125"/>
     <use xlink:href="#DejaVuSans-6c" x="166.064453"/>
     <use xlink:href="#DejaVuSans-79" x="193.847656"/>
     <use xlink:href="#DejaVuSans-20" x="253.027344"/>
     <use xlink:href="#DejaVuSans-43" x="284.814453"/>
     <use xlink:href="#DejaVuSans-6f" x="354.638672"/>
     <use xlink:href="#DejaVuSans-6e" x="415.820312"/>
     <use xlink:href="#DejaVuSans-66" x="479.199219"/>
     <use xlink:href="#DejaVuSans-69" x="514.404297"/>
     <use xlink:href="#DejaVuSans-72" x="542.1875"/>
     <use xlink:href="#DejaVuSans-6d" x="581.550781"/>
     <use xlink:href="#DejaVuSans-65" x="678.962891"/>
     <use xlink:href="#DejaVuSans-64" x="740.486328"/>
     <use xlink:href="#DejaVuSans-20" x="803.962891"/>
     <use xlink:href="#DejaVuSans-43" x="835.75"/>
     <use xlink:href="#DejaVuSans-61" x="905.574219"/>
     <use xlink:href="#DejaVuSans-73" x="966.853516"/>
     <use xlink:href="#DejaVuSans-65" x="1018.953125"/>
     <use xlink:href="#DejaVuSans-73" x="1080.476562"/>
     <use xlink:href="#DejaVuSans-20" x="1132.576172"/>
     <use xlink:href="#DejaVuSans-46" x="1164.363281"/>
     <use xlink:href="#DejaVuSans-6f" x="1218.257812"/>
     <use xlink:href="#DejaVuSans-72" x="1279.439453"/>
     <use xlink:href="#DejaVuSans-65" x="1318.302734"/>
     <use xlink:href="#DejaVuSans-63" x="1379.826172"/>
     <use xlink:href="#DejaVuSans-61" x="1434.806641"/>
     <use xlink:href="#DejaVuSans-73" x="1496.085938"/>
     <use xlink:href="#DejaVuSans-74" x="1548.185547"/>
     <use xlink:href="#DejaVuSans-69" x="1587.394531"/>
     <use xlink:href="#DejaVuSans-6e" x="1615.177734"/>
     <use xlink:href="#DejaVuSans-67" x="1678.556641"/>
     <use xlink:href="#DejaVuSans-20" x="1742.033203"/>
     <use xlink:href="#DejaVuSans-2d" x="1773.820312"/>
     <use xlink:href="#DejaVuSans-20" x="1809.904297"/>
     <use xlink:href="#DejaVuSans-47" x="1841.691406"/>
     <use xlink:href="#DejaVuSans-65" x="1919.181641"/>
     <use xlink:href="#DejaVuSans-72" x="1980.705078"/>
     <use xlink:href="#DejaVuSans-6d" x="2020.068359"/>
     <use xlink:href="#DejaVuSans-61" x="2117.480469"/>
     <use xlink:href="#DejaVuSans-6e" x="2178.759766"/>
     <use xlink:href="#DejaVuSans-79" x="2242.138672"/>
    </g>
    <!-- ARIMA (0, 1, 1)x(1, 0, 1, 7) (R2 = 0.579776) -->
    <g transform="translate(589.990937 29.7555)scale(0.12 -0.12)">
     <defs>
      <path id="DejaVuSans-41" d="M 2188 4044 
L 1331 1722 
L 3047 1722 
L 2188 4044 
z
M 1831 4666 
L 2547 4666 
L 4325 0 
L 3669 0 
L 3244 1197 
L 1141 1197 
L 716 0 
L 50 0 
L 1831 4666 
z
" transform="scale(0.015625)"/>
      <path id="DejaVuSans-52" d="M 2841 2188 
Q 3044 2119 3236 1894 
Q 3428 1669 3622 1275 
L 4263 0 
L 3584 0 
L 2988 1197 
Q 2756 1666 2539 1819 
Q 2322 1972 1947 1972 
L 1259 1972 
L 1259 0 
L 628 0 
L 628 4666 
L 2053 4666 
Q 2853 4666 3247 4331 
Q 3641 3997 3641 3322 
Q 3641 2881 3436 2590 
Q 3231 2300 2841 2188 
z
M 1259 4147 
L 1259 2491 
L 2053 2491 
Q 2509 2491 2742 2702 
Q 2975 2913 2975 3322 
Q 2975 3731 2742 3939 
Q 2509 4147 2053 4147 
L 1259 4147 
z
" transform="scale(0.015625)"/>
      <path id="DejaVuSans-49" d="M 628 4666 
L 1259 4666 
L 1259 0 
L 628 0 
L 628 4666 
z
" transform="scale(0.015625)"/>
      <path id="DejaVuSans-4d" d="M 628 4666 
L 1569 4666 
L 2759 1491 
L 3956 4666 
L 4897 4666 
L 4897 0 
L 4281 0 
L 4281 4097 
L 3078 897 
L 2444 897 
L 1241 4097 
L 1241 0 
L 628 0 
L 628 4666 
z
" transform="scale(0.015625)"/>
      <path id="DejaVuSans-28" d="M 1984 4856 
Q 1566 4138 1362 3434 
Q 1159 2731 1159 2009 
Q 1159 1288 1364 580 
Q 1569 -128 1984 -844 
L 1484 -844 
Q 1016 -109 783 600 
Q 550 1309 550 2009 
Q 550 2706 781 3412 
Q 1013 4119 1484 4856 
L 1984 4856 
z
" transform="scale(0.015625)"/>
      <path id="DejaVuSans-2c" d="M 750 794 
L 1409 794 
L 1409 256 
L 897 -744 
L 494 -744 
L 750 256 
L 750 794 
z
" transform="scale(0.015625)"/>
      <path id="DejaVuSans-29" d="M 513 4856 
L 1013 4856 
Q 1481 4119 1714 3412 
Q 1947 2706 1947 2009 
Q 1947 1309 1714 600 
Q 1481 -109 1013 -844 
L 513 -844 
Q 928 -128 1133 580 
Q 1338 1288 1338 2009 
Q 1338 2731 1133 3434 
Q 928 4138 513 4856 
z
" transform="scale(0.015625)"/>
      <path id="DejaVuSans-78" d="M 3513 3500 
L 2247 1797 
L 3578 0 
L 2900 0 
L 1881 1375 
L 863 0 
L 184 0 
L 1544 1831 
L 300 3500 
L 978 3500 
L 1906 2253 
L 2834 3500 
L 3513 3500 
z
" transform="scale(0.015625)"/>
      <path id="DejaVuSans-3d" d="M 678 2906 
L 4684 2906 
L 4684 2381 
L 678 2381 
L 678 2906 
z
M 678 1631 
L 4684 1631 
L 4684 1100 
L 678 1100 
L 678 1631 
z
" transform="scale(0.015625)"/>
      <path id="DejaVuSans-2e" d="M 684 794 
L 1344 794 
L 1344 0 
L 684 0 
L 684 794 
z
" transform="scale(0.015625)"/>
      <path id="DejaVuSans-39" d="M 703 97 
L 703 672 
Q 941 559 1184 500 
Q 1428 441 1663 441 
Q 2288 441 2617 861 
Q 2947 1281 2994 2138 
Q 2813 1869 2534 1725 
Q 2256 1581 1919 1581 
Q 1219 1581 811 2004 
Q 403 2428 403 3163 
Q 403 3881 828 4315 
Q 1253 4750 1959 4750 
Q 2769 4750 3195 4129 
Q 3622 3509 3622 2328 
Q 3622 1225 3098 567 
Q 2575 -91 1691 -91 
Q 1453 -91 1209 -44 
Q 966 3 703 97 
z
M 1959 2075 
Q 2384 2075 2632 2365 
Q 2881 2656 2881 3163 
Q 2881 3666 2632 3958 
Q 2384 4250 1959 4250 
Q 1534 4250 1286 3958 
Q 1038 3666 1038 3163 
Q 1038 2656 1286 2365 
Q 1534 2075 1959 2075 
z
" transform="scale(0.015625)"/>
      <path id="DejaVuSans-36" d="M 2113 2584 
Q 1688 2584 1439 2293 
Q 1191 2003 1191 1497 
Q 1191 994 1439 701 
Q 1688 409 2113 409 
Q 2538 409 2786 701 
Q 3034 994 3034 1497 
Q 3034 2003 2786 2293 
Q 2538 2584 2113 2584 
z
M 3366 4563 
L 3366 3988 
Q 3128 4100 2886 4159 
Q 2644 4219 2406 4219 
Q 1781 4219 1451 3797 
Q 1122 3375 1075 2522 
Q 1259 2794 1537 2939 
Q 1816 3084 2150 3084 
Q 2853 3084 3261 2657 
Q 3669 2231 3669 1497 
Q 3669 778 3244 343 
Q 2819 -91 2113 -91 
Q 1303 -91 875 529 
Q 447 1150 447 2328 
Q 447 3434 972 4092 
Q 1497 4750 2381 4750 
Q 2619 4750 2861 4703 
Q 3103 4656 3366 4563 
z
" transform="scale(0.015625)"/>
     </defs>
     <use xlink:href="#DejaVuSans-41"/>
     <use xlink:href="#DejaVuSans-52" x="68.408203"/>
     <use xlink:href="#DejaVuSans-49" x="137.890625"/>
     <use xlink:href="#DejaVuSans-4d" x="167.382812"/>
     <use xlink:href="#DejaVuSans-41" x="253.662109"/>
     <use xlink:href="#DejaVuSans-20" x="322.070312"/>
     <use xlink:href="#DejaVuSans-28" x="353.857422"/>
     <use xlink:href="#DejaVuSans-30" x="392.871094"/>
     <use xlink:href="#DejaVuSans-2c" x="456.494141"/>
     <use xlink:href="#DejaVuSans-20" x="488.28125"/>
     <use xlink:href="#DejaVuSans-31" x="520.068359"/>
     <use xlink:href="#DejaVuSans-2c" x="583.691406"/>
     <use xlink:href="#DejaVuSans-20" x="615.478516"/>
     <use xlink:href="#DejaVuSans-31" x="647.265625"/>
     <use xlink:href="#DejaVuSans-29" x="710.888672"/>
     <use xlink:href="#DejaVuSans-78" x="749.902344"/>
     <use xlink:href="#DejaVuSans-28" x="809.082031"/>
     <use xlink:href="#DejaVuSans-31" x="848.095703"/>
     <use xlink:href="#DejaVuSans-2c" x="911.71875"/>
     <use xlink:href="#DejaVuSans-20" x="943.505859"/>
     <use xlink:href="#DejaVuSans-30" x="975.292969"/>
     <use xlink:href="#DejaVuSans-2c" x="1038.916016"/>
     <use xlink:href="#DejaVuSans-20" x="1070.703125"/>
     <use xlink:href="#DejaVuSans-31" x="1102.490234"/>
     <use xlink:href="#DejaVuSans-2c" x="1166.113281"/>
     <use xlink:href="#DejaVuSans-20" x="1197.900391"/>
     <use xlink:href="#DejaVuSans-37" x="1229.6875"/>
     <use xlink:href="#DejaVuSans-29" x="1293.310547"/>
     <use xlink:href="#DejaVuSans-20" x="1332.324219"/>
     <use xlink:href="#DejaVuSans-28" x="1364.111328"/>
     <use xlink:href="#DejaVuSans-52" x="1403.125"/>
     <use xlink:href="#DejaVuSans-32" x="1472.607422"/>
     <use xlink:href="#DejaVuSans-20" x="1536.230469"/>
     <use xlink:href="#DejaVuSans-3d" x="1568.017578"/>
     <use xlink:href="#DejaVuSans-20" x="1651.806641"/>
     <use xlink:href="#DejaVuSans-30" x="1683.59375"/>
     <use xlink:href="#DejaVuSans-2e" x="1747.216797"/>
     <use xlink:href="#DejaVuSans-35" x="1779.003906"/>
     <use xlink:href="#DejaVuSans-37" x="1842.626953"/>
     <use xlink:href="#DejaVuSans-39" x="1906.25"/>
     <use xlink:href="#DejaVuSans-37" x="1969.873047"/>
     <use xlink:href="#DejaVuSans-37" x="2033.496094"/>
     <use xlink:href="#DejaVuSans-36" x="2097.119141"/>
     <use xlink:href="#DejaVuSans-29" x="2160.742188"/>
    </g>
   </g>
   <g id="legend_1">
    <g id="patch_7">
     <path d="M 1287.495312 87.789875 
L 1384.575 87.789875 
Q 1386.575 87.789875 1386.575 85.789875 
L 1386.575 42.7555 
Q 1386.575 40.7555 1384.575 40.7555 
L 1287.495312 40.7555 
Q 1285.495312 40.7555 1285.495312 42.7555 
L 1285.495312 85.789875 
Q 1285.495312 87.789875 1287.495312 87.789875 
z
" style="fill: #ffffff; opacity: 0.8; stroke: #cccccc; stroke-linejoin: miter"/>
    </g>
    <g id="line2d_21">
     <path d="M 1289.495312 48.853937 
L 1299.495312 48.853937 
L 1309.495312 48.853937 
" style="fill: none; stroke: #0000ff; stroke-width: 1.5; stroke-linecap: square"/>
    </g>
    <g id="text_19">
     <!-- Actual Value -->
     <g transform="translate(1317.495312 52.353937)scale(0.1 -0.1)">
      <defs>
       <path id="DejaVuSans-75" d="M 544 1381 
L 544 3500 
L 1119 3500 
L 1119 1403 
Q 1119 906 1312 657 
Q 1506 409 1894 409 
Q 2359 409 2629 706 
Q 2900 1003 2900 1516 
L 2900 3500 
L 3475 3500 
L 3475 0 
L 2900 0 
L 2900 538 
Q 2691 219 2414 64 
Q 2138 -91 1772 -91 
Q 1169 -91 856 284 
Q 544 659 544 1381 
z
M 1991 3584 
L 1991 3584 
z
" transform="scale(0.015625)"/>
       <path id="DejaVuSans-56" d="M 1831 0 
L 50 4666 
L 709 4666 
L 2188 738 
L 3669 4666 
L 4325 4666 
L 2547 0 
L 1831 0 
z
" transform="scale(0.015625)"/>
      </defs>
      <use xlink:href="#DejaVuSans-41"/>
      <use xlink:href="#DejaVuSans-63" x="66.658203"/>
      <use xlink:href="#DejaVuSans-74" x="121.638672"/>
      <use xlink:href="#DejaVuSans-75" x="160.847656"/>
      <use xlink:href="#DejaVuSans-61" x="224.226562"/>
      <use xlink:href="#DejaVuSans-6c" x="285.505859"/>
      <use xlink:href="#DejaVuSans-20" x="313.289062"/>
      <use xlink:href="#DejaVuSans-56" x="345.076172"/>
      <use xlink:href="#DejaVuSans-61" x="405.734375"/>
      <use xlink:href="#DejaVuSans-6c" x="467.013672"/>
      <use xlink:href="#DejaVuSans-75" x="494.796875"/>
      <use xlink:href="#DejaVuSans-65" x="558.175781"/>
     </g>
    </g>
    <g id="line2d_22">
     <path d="M 1289.495312 63.532062 
L 1299.495312 63.532062 
L 1309.495312 63.532062 
" style="fill: none; stroke: #ffa500; stroke-width: 1.5; stroke-linecap: square"/>
    </g>
    <g id="text_20">
     <!-- Check Value -->
     <g transform="translate(1317.495312 67.032062)scale(0.1 -0.1)">
      <defs>
       <path id="DejaVuSans-68" d="M 3513 2113 
L 3513 0 
L 2938 0 
L 2938 2094 
Q 2938 2591 2744 2837 
Q 2550 3084 2163 3084 
Q 1697 3084 1428 2787 
Q 1159 2491 1159 1978 
L 1159 0 
L 581 0 
L 581 4863 
L 1159 4863 
L 1159 2956 
Q 1366 3272 1645 3428 
Q 1925 3584 2291 3584 
Q 2894 3584 3203 3211 
Q 3513 2838 3513 2113 
z
" transform="scale(0.015625)"/>
       <path id="DejaVuSans-6b" d="M 581 4863 
L 1159 4863 
L 1159 1991 
L 2875 3500 
L 3609 3500 
L 1753 1863 
L 3688 0 
L 2938 0 
L 1159 1709 
L 1159 0 
L 581 0 
L 581 4863 
z
" transform="scale(0.015625)"/>
      </defs>
      <use xlink:href="#DejaVuSans-43"/>
      <use xlink:href="#DejaVuSans-68" x="69.824219"/>
      <use xlink:href="#DejaVuSans-65" x="133.203125"/>
      <use xlink:href="#DejaVuSans-63" x="194.726562"/>
      <use xlink:href="#DejaVuSans-6b" x="249.707031"/>
      <use xlink:href="#DejaVuSans-20" x="307.617188"/>
      <use xlink:href="#DejaVuSans-56" x="339.404297"/>
      <use xlink:href="#DejaVuSans-61" x="400.0625"/>
      <use xlink:href="#DejaVuSans-6c" x="461.341797"/>
      <use xlink:href="#DejaVuSans-75" x="489.125"/>
      <use xlink:href="#DejaVuSans-65" x="552.503906"/>
     </g>
    </g>
    <g id="line2d_23">
     <path d="M 1289.495312 78.210187 
L 1299.495312 78.210187 
L 1309.495312 78.210187 
" style="fill: none; stroke: #ff0000; stroke-width: 1.5; stroke-linecap: square"/>
    </g>
    <g id="text_21">
     <!-- Predict Value -->
     <g transform="translate(1317.495312 81.710187)scale(0.1 -0.1)">
      <defs>
       <path id="DejaVuSans-50" d="M 1259 4147 
L 1259 2394 
L 2053 2394 
Q 2494 2394 2734 2622 
Q 2975 2850 2975 3272 
Q 2975 3691 2734 3919 
Q 2494 4147 2053 4147 
L 1259 4147 
z
M 628 4666 
L 2053 4666 
Q 2838 4666 3239 4311 
Q 3641 3956 3641 3272 
Q 3641 2581 3239 2228 
Q 2838 1875 2053 1875 
L 1259 1875 
L 1259 0 
L 628 0 
L 628 4666 
z
" transform="scale(0.015625)"/>
      </defs>
      <use xlink:href="#DejaVuSans-50"/>
      <use xlink:href="#DejaVuSans-72" x="58.552734"/>
      <use xlink:href="#DejaVuSans-65" x="97.416016"/>
      <use xlink:href="#DejaVuSans-64" x="158.939453"/>
      <use xlink:href="#DejaVuSans-69" x="222.416016"/>
      <use xlink:href="#DejaVuSans-63" x="250.199219"/>
      <use xlink:href="#DejaVuSans-74" x="305.179688"/>
      <use xlink:href="#DejaVuSans-20" x="344.388672"/>
      <use xlink:href="#DejaVuSans-56" x="376.175781"/>
      <use xlink:href="#DejaVuSans-61" x="436.833984"/>
      <use xlink:href="#DejaVuSans-6c" x="498.113281"/>
      <use xlink:href="#DejaVuSans-75" x="525.896484"/>
      <use xlink:href="#DejaVuSans-65" x="589.275391"/>
     </g>
    </g>
   </g>
  </g>
 </g>
 <defs>
  <clipPath id="pc1ad4a3649">
   <rect x="52.375" y="35.7555" width="1339.2" height="332.64"/>
  </clipPath>
 </defs>
</svg>
