<?xml version="1.0" encoding="utf-8" standalone="no"?>
<!DOCTYPE svg PUBLIC "-//W3C//DTD SVG 1.1//EN"
  "http://www.w3.org/Graphics/SVG/1.1/DTD/svg11.dtd">
<svg xmlns:xlink="http://www.w3.org/1999/xlink" width="1386.05pt" height="392.273625pt" viewBox="0 0 1386.05 392.273625" xmlns="http://www.w3.org/2000/svg" version="1.1">
 <metadata>
  <rdf:RDF xmlns:dc="http://purl.org/dc/elements/1.1/" xmlns:cc="http://creativecommons.org/ns#" xmlns:rdf="http://www.w3.org/1999/02/22-rdf-syntax-ns#">
   <cc:Work>
    <dc:type rdf:resource="http://purl.org/dc/dcmitype/StillImage"/>
    <dc:date>2022-07-07T19:20:50.702644</dc:date>
    <dc:format>image/svg+xml</dc:format>
    <dc:creator>
     <cc:Agent>
      <dc:title>Matplotlib v3.5.2, https://matplotlib.org/</dc:title>
     </cc:Agent>
    </dc:creator>
   </cc:Work>
  </rdf:RDF>
 </metadata>
 <defs>
  <style type="text/css">*{stroke-linejoin: round; stroke-linecap: butt}</style>
 </defs>
 <g id="figure_1">
  <g id="patch_1">
   <path d="M 0 392.273625 
L 1386.05 392.273625 
L 1386.05 0 
L 0 0 
z
" style="fill: #ffffff"/>
  </g>
  <g id="axes_1">
   <g id="patch_2">
    <path d="M 39.65 368.3955 
L 1378.85 368.3955 
L 1378.85 35.7555 
L 39.65 35.7555 
z
" style="fill: #ffffff"/>
   </g>
   <g id="matplotlib.axis_1">
    <g id="xtick_1">
     <g id="line2d_1">
      <defs>
       <path id="m38e39a31f8" d="M 0 0 
L 0 3.5 
" style="stroke: #000000; stroke-width: 0.8"/>
      </defs>
      <g>
       <use xlink:href="#m38e39a31f8" x="71.02493" y="368.3955" style="stroke: #000000; stroke-width: 0.8"/>
      </g>
     </g>
     <g id="text_1">
      <!-- 2020-01 -->
      <g transform="translate(50.133524 382.993937)scale(0.1 -0.1)">
       <defs>
        <path id="DejaVuSans-32" d="M 1228 531 
L 3431 531 
L 3431 0 
L 469 0 
L 469 531 
Q 828 903 1448 1529 
Q 2069 2156 2228 2338 
Q 2531 2678 2651 2914 
Q 2772 3150 2772 3378 
Q 2772 3750 2511 3984 
Q 2250 4219 1831 4219 
Q 1534 4219 1204 4116 
Q 875 4013 500 3803 
L 500 4441 
Q 881 4594 1212 4672 
Q 1544 4750 1819 4750 
Q 2544 4750 2975 4387 
Q 3406 4025 3406 3419 
Q 3406 3131 3298 2873 
Q 3191 2616 2906 2266 
Q 2828 2175 2409 1742 
Q 1991 1309 1228 531 
z
" transform="scale(0.015625)"/>
        <path id="DejaVuSans-30" d="M 2034 4250 
Q 1547 4250 1301 3770 
Q 1056 3291 1056 2328 
Q 1056 1369 1301 889 
Q 1547 409 2034 409 
Q 2525 409 2770 889 
Q 3016 1369 3016 2328 
Q 3016 3291 2770 3770 
Q 2525 4250 2034 4250 
z
M 2034 4750 
Q 2819 4750 3233 4129 
Q 3647 3509 3647 2328 
Q 3647 1150 3233 529 
Q 2819 -91 2034 -91 
Q 1250 -91 836 529 
Q 422 1150 422 2328 
Q 422 3509 836 4129 
Q 1250 4750 2034 4750 
z
" transform="scale(0.015625)"/>
        <path id="DejaVuSans-2d" d="M 313 2009 
L 1997 2009 
L 1997 1497 
L 313 1497 
L 313 2009 
z
" transform="scale(0.015625)"/>
        <path id="DejaVuSans-31" d="M 794 531 
L 1825 531 
L 1825 4091 
L 703 3866 
L 703 4441 
L 1819 4666 
L 2450 4666 
L 2450 531 
L 3481 531 
L 3481 0 
L 794 0 
L 794 531 
z
" transform="scale(0.015625)"/>
       </defs>
       <use xlink:href="#DejaVuSans-32"/>
       <use xlink:href="#DejaVuSans-30" x="63.623047"/>
       <use xlink:href="#DejaVuSans-32" x="127.246094"/>
       <use xlink:href="#DejaVuSans-30" x="190.869141"/>
       <use xlink:href="#DejaVuSans-2d" x="254.492188"/>
       <use xlink:href="#DejaVuSans-30" x="290.576172"/>
       <use xlink:href="#DejaVuSans-31" x="354.199219"/>
      </g>
     </g>
    </g>
    <g id="xtick_2">
     <g id="line2d_2">
      <g>
       <use xlink:href="#m38e39a31f8" x="193.038546" y="368.3955" style="stroke: #000000; stroke-width: 0.8"/>
      </g>
     </g>
     <g id="text_2">
      <!-- 2020-04 -->
      <g transform="translate(172.14714 382.993937)scale(0.1 -0.1)">
       <defs>
        <path id="DejaVuSans-34" d="M 2419 4116 
L 825 1625 
L 2419 1625 
L 2419 4116 
z
M 2253 4666 
L 3047 4666 
L 3047 1625 
L 3713 1625 
L 3713 1100 
L 3047 1100 
L 3047 0 
L 2419 0 
L 2419 1100 
L 313 1100 
L 313 1709 
L 2253 4666 
z
" transform="scale(0.015625)"/>
       </defs>
       <use xlink:href="#DejaVuSans-32"/>
       <use xlink:href="#DejaVuSans-30" x="63.623047"/>
       <use xlink:href="#DejaVuSans-32" x="127.246094"/>
       <use xlink:href="#DejaVuSans-30" x="190.869141"/>
       <use xlink:href="#DejaVuSans-2d" x="254.492188"/>
       <use xlink:href="#DejaVuSans-30" x="290.576172"/>
       <use xlink:href="#DejaVuSans-34" x="354.199219"/>
      </g>
     </g>
    </g>
    <g id="xtick_3">
     <g id="line2d_3">
      <g>
       <use xlink:href="#m38e39a31f8" x="315.052163" y="368.3955" style="stroke: #000000; stroke-width: 0.8"/>
      </g>
     </g>
     <g id="text_3">
      <!-- 2020-07 -->
      <g transform="translate(294.160756 382.993937)scale(0.1 -0.1)">
       <defs>
        <path id="DejaVuSans-37" d="M 525 4666 
L 3525 4666 
L 3525 4397 
L 1831 0 
L 1172 0 
L 2766 4134 
L 525 4134 
L 525 4666 
z
" transform="scale(0.015625)"/>
       </defs>
       <use xlink:href="#DejaVuSans-32"/>
       <use xlink:href="#DejaVuSans-30" x="63.623047"/>
       <use xlink:href="#DejaVuSans-32" x="127.246094"/>
       <use xlink:href="#DejaVuSans-30" x="190.869141"/>
       <use xlink:href="#DejaVuSans-2d" x="254.492188"/>
       <use xlink:href="#DejaVuSans-30" x="290.576172"/>
       <use xlink:href="#DejaVuSans-37" x="354.199219"/>
      </g>
     </g>
    </g>
    <g id="xtick_4">
     <g id="line2d_4">
      <g>
       <use xlink:href="#m38e39a31f8" x="438.406588" y="368.3955" style="stroke: #000000; stroke-width: 0.8"/>
      </g>
     </g>
     <g id="text_4">
      <!-- 2020-10 -->
      <g transform="translate(417.515182 382.993937)scale(0.1 -0.1)">
       <use xlink:href="#DejaVuSans-32"/>
       <use xlink:href="#DejaVuSans-30" x="63.623047"/>
       <use xlink:href="#DejaVuSans-32" x="127.246094"/>
       <use xlink:href="#DejaVuSans-30" x="190.869141"/>
       <use xlink:href="#DejaVuSans-2d" x="254.492188"/>
       <use xlink:href="#DejaVuSans-31" x="290.576172"/>
       <use xlink:href="#DejaVuSans-30" x="354.199219"/>
      </g>
     </g>
    </g>
    <g id="xtick_5">
     <g id="line2d_5">
      <g>
       <use xlink:href="#m38e39a31f8" x="561.761013" y="368.3955" style="stroke: #000000; stroke-width: 0.8"/>
      </g>
     </g>
     <g id="text_5">
      <!-- 2021-01 -->
      <g transform="translate(540.869607 382.993937)scale(0.1 -0.1)">
       <use xlink:href="#DejaVuSans-32"/>
       <use xlink:href="#DejaVuSans-30" x="63.623047"/>
       <use xlink:href="#DejaVuSans-32" x="127.246094"/>
       <use xlink:href="#DejaVuSans-31" x="190.869141"/>
       <use xlink:href="#DejaVuSans-2d" x="254.492188"/>
       <use xlink:href="#DejaVuSans-30" x="290.576172"/>
       <use xlink:href="#DejaVuSans-31" x="354.199219"/>
      </g>
     </g>
    </g>
    <g id="xtick_6">
     <g id="line2d_6">
      <g>
       <use xlink:href="#m38e39a31f8" x="682.433821" y="368.3955" style="stroke: #000000; stroke-width: 0.8"/>
      </g>
     </g>
     <g id="text_6">
      <!-- 2021-04 -->
      <g transform="translate(661.542414 382.993937)scale(0.1 -0.1)">
       <use xlink:href="#DejaVuSans-32"/>
       <use xlink:href="#DejaVuSans-30" x="63.623047"/>
       <use xlink:href="#DejaVuSans-32" x="127.246094"/>
       <use xlink:href="#DejaVuSans-31" x="190.869141"/>
       <use xlink:href="#DejaVuSans-2d" x="254.492188"/>
       <use xlink:href="#DejaVuSans-30" x="290.576172"/>
       <use xlink:href="#DejaVuSans-34" x="354.199219"/>
      </g>
     </g>
    </g>
    <g id="xtick_7">
     <g id="line2d_7">
      <g>
       <use xlink:href="#m38e39a31f8" x="804.447437" y="368.3955" style="stroke: #000000; stroke-width: 0.8"/>
      </g>
     </g>
     <g id="text_7">
      <!-- 2021-07 -->
      <g transform="translate(783.556031 382.993937)scale(0.1 -0.1)">
       <use xlink:href="#DejaVuSans-32"/>
       <use xlink:href="#DejaVuSans-30" x="63.623047"/>
       <use xlink:href="#DejaVuSans-32" x="127.246094"/>
       <use xlink:href="#DejaVuSans-31" x="190.869141"/>
       <use xlink:href="#DejaVuSans-2d" x="254.492188"/>
       <use xlink:href="#DejaVuSans-30" x="290.576172"/>
       <use xlink:href="#DejaVuSans-37" x="354.199219"/>
      </g>
     </g>
    </g>
    <g id="xtick_8">
     <g id="line2d_8">
      <g>
       <use xlink:href="#m38e39a31f8" x="927.801862" y="368.3955" style="stroke: #000000; stroke-width: 0.8"/>
      </g>
     </g>
     <g id="text_8">
      <!-- 2021-10 -->
      <g transform="translate(906.910456 382.993937)scale(0.1 -0.1)">
       <use xlink:href="#DejaVuSans-32"/>
       <use xlink:href="#DejaVuSans-30" x="63.623047"/>
       <use xlink:href="#DejaVuSans-32" x="127.246094"/>
       <use xlink:href="#DejaVuSans-31" x="190.869141"/>
       <use xlink:href="#DejaVuSans-2d" x="254.492188"/>
       <use xlink:href="#DejaVuSans-31" x="290.576172"/>
       <use xlink:href="#DejaVuSans-30" x="354.199219"/>
      </g>
     </g>
    </g>
    <g id="xtick_9">
     <g id="line2d_9">
      <g>
       <use xlink:href="#m38e39a31f8" x="1051.156288" y="368.3955" style="stroke: #000000; stroke-width: 0.8"/>
      </g>
     </g>
     <g id="text_9">
      <!-- 2022-01 -->
      <g transform="translate(1030.264881 382.993937)scale(0.1 -0.1)">
       <use xlink:href="#DejaVuSans-32"/>
       <use xlink:href="#DejaVuSans-30" x="63.623047"/>
       <use xlink:href="#DejaVuSans-32" x="127.246094"/>
       <use xlink:href="#DejaVuSans-32" x="190.869141"/>
       <use xlink:href="#DejaVuSans-2d" x="254.492188"/>
       <use xlink:href="#DejaVuSans-30" x="290.576172"/>
       <use xlink:href="#DejaVuSans-31" x="354.199219"/>
      </g>
     </g>
    </g>
    <g id="xtick_10">
     <g id="line2d_10">
      <g>
       <use xlink:href="#m38e39a31f8" x="1171.829095" y="368.3955" style="stroke: #000000; stroke-width: 0.8"/>
      </g>
     </g>
     <g id="text_10">
      <!-- 2022-04 -->
      <g transform="translate(1150.937689 382.993937)scale(0.1 -0.1)">
       <use xlink:href="#DejaVuSans-32"/>
       <use xlink:href="#DejaVuSans-30" x="63.623047"/>
       <use xlink:href="#DejaVuSans-32" x="127.246094"/>
       <use xlink:href="#DejaVuSans-32" x="190.869141"/>
       <use xlink:href="#DejaVuSans-2d" x="254.492188"/>
       <use xlink:href="#DejaVuSans-30" x="290.576172"/>
       <use xlink:href="#DejaVuSans-34" x="354.199219"/>
      </g>
     </g>
    </g>
    <g id="xtick_11">
     <g id="line2d_11">
      <g>
       <use xlink:href="#m38e39a31f8" x="1293.842711" y="368.3955" style="stroke: #000000; stroke-width: 0.8"/>
      </g>
     </g>
     <g id="text_11">
      <!-- 2022-07 -->
      <g transform="translate(1272.951305 382.993937)scale(0.1 -0.1)">
       <use xlink:href="#DejaVuSans-32"/>
       <use xlink:href="#DejaVuSans-30" x="63.623047"/>
       <use xlink:href="#DejaVuSans-32" x="127.246094"/>
       <use xlink:href="#DejaVuSans-32" x="190.869141"/>
       <use xlink:href="#DejaVuSans-2d" x="254.492188"/>
       <use xlink:href="#DejaVuSans-30" x="290.576172"/>
       <use xlink:href="#DejaVuSans-37" x="354.199219"/>
      </g>
     </g>
    </g>
   </g>
   <g id="matplotlib.axis_2">
    <g id="ytick_1">
     <g id="line2d_12">
      <defs>
       <path id="mf3a7c85569" d="M 0 0 
L -3.5 0 
" style="stroke: #000000; stroke-width: 0.8"/>
      </defs>
      <g>
       <use xlink:href="#mf3a7c85569" x="39.65" y="352.319003" style="stroke: #000000; stroke-width: 0.8"/>
      </g>
     </g>
     <g id="text_12">
      <!-- 0 -->
      <g transform="translate(26.2875 356.118222)scale(0.1 -0.1)">
       <use xlink:href="#DejaVuSans-30"/>
      </g>
     </g>
    </g>
    <g id="ytick_2">
     <g id="line2d_13">
      <g>
       <use xlink:href="#mf3a7c85569" x="39.65" y="314.059122" style="stroke: #000000; stroke-width: 0.8"/>
      </g>
     </g>
     <g id="text_13">
      <!-- 1000 -->
      <g transform="translate(7.2 317.858341)scale(0.1 -0.1)">
       <use xlink:href="#DejaVuSans-31"/>
       <use xlink:href="#DejaVuSans-30" x="63.623047"/>
       <use xlink:href="#DejaVuSans-30" x="127.246094"/>
       <use xlink:href="#DejaVuSans-30" x="190.869141"/>
      </g>
     </g>
    </g>
    <g id="ytick_3">
     <g id="line2d_14">
      <g>
       <use xlink:href="#mf3a7c85569" x="39.65" y="275.799241" style="stroke: #000000; stroke-width: 0.8"/>
      </g>
     </g>
     <g id="text_14">
      <!-- 2000 -->
      <g transform="translate(7.2 279.59846)scale(0.1 -0.1)">
       <use xlink:href="#DejaVuSans-32"/>
       <use xlink:href="#DejaVuSans-30" x="63.623047"/>
       <use xlink:href="#DejaVuSans-30" x="127.246094"/>
       <use xlink:href="#DejaVuSans-30" x="190.869141"/>
      </g>
     </g>
    </g>
    <g id="ytick_4">
     <g id="line2d_15">
      <g>
       <use xlink:href="#mf3a7c85569" x="39.65" y="237.53936" style="stroke: #000000; stroke-width: 0.8"/>
      </g>
     </g>
     <g id="text_15">
      <!-- 3000 -->
      <g transform="translate(7.2 241.338579)scale(0.1 -0.1)">
       <defs>
        <path id="DejaVuSans-33" d="M 2597 2516 
Q 3050 2419 3304 2112 
Q 3559 1806 3559 1356 
Q 3559 666 3084 287 
Q 2609 -91 1734 -91 
Q 1441 -91 1130 -33 
Q 819 25 488 141 
L 488 750 
Q 750 597 1062 519 
Q 1375 441 1716 441 
Q 2309 441 2620 675 
Q 2931 909 2931 1356 
Q 2931 1769 2642 2001 
Q 2353 2234 1838 2234 
L 1294 2234 
L 1294 2753 
L 1863 2753 
Q 2328 2753 2575 2939 
Q 2822 3125 2822 3475 
Q 2822 3834 2567 4026 
Q 2313 4219 1838 4219 
Q 1578 4219 1281 4162 
Q 984 4106 628 3988 
L 628 4550 
Q 988 4650 1302 4700 
Q 1616 4750 1894 4750 
Q 2613 4750 3031 4423 
Q 3450 4097 3450 3541 
Q 3450 3153 3228 2886 
Q 3006 2619 2597 2516 
z
" transform="scale(0.015625)"/>
       </defs>
       <use xlink:href="#DejaVuSans-33"/>
       <use xlink:href="#DejaVuSans-30" x="63.623047"/>
       <use xlink:href="#DejaVuSans-30" x="127.246094"/>
       <use xlink:href="#DejaVuSans-30" x="190.869141"/>
      </g>
     </g>
    </g>
    <g id="ytick_5">
     <g id="line2d_16">
      <g>
       <use xlink:href="#mf3a7c85569" x="39.65" y="199.279479" style="stroke: #000000; stroke-width: 0.8"/>
      </g>
     </g>
     <g id="text_16">
      <!-- 4000 -->
      <g transform="translate(7.2 203.078698)scale(0.1 -0.1)">
       <use xlink:href="#DejaVuSans-34"/>
       <use xlink:href="#DejaVuSans-30" x="63.623047"/>
       <use xlink:href="#DejaVuSans-30" x="127.246094"/>
       <use xlink:href="#DejaVuSans-30" x="190.869141"/>
      </g>
     </g>
    </g>
    <g id="ytick_6">
     <g id="line2d_17">
      <g>
       <use xlink:href="#mf3a7c85569" x="39.65" y="161.019598" style="stroke: #000000; stroke-width: 0.8"/>
      </g>
     </g>
     <g id="text_17">
      <!-- 5000 -->
      <g transform="translate(7.2 164.818817)scale(0.1 -0.1)">
       <defs>
        <path id="DejaVuSans-35" d="M 691 4666 
L 3169 4666 
L 3169 4134 
L 1269 4134 
L 1269 2991 
Q 1406 3038 1543 3061 
Q 1681 3084 1819 3084 
Q 2600 3084 3056 2656 
Q 3513 2228 3513 1497 
Q 3513 744 3044 326 
Q 2575 -91 1722 -91 
Q 1428 -91 1123 -41 
Q 819 9 494 109 
L 494 744 
Q 775 591 1075 516 
Q 1375 441 1709 441 
Q 2250 441 2565 725 
Q 2881 1009 2881 1497 
Q 2881 1984 2565 2268 
Q 2250 2553 1709 2553 
Q 1456 2553 1204 2497 
Q 953 2441 691 2322 
L 691 4666 
z
" transform="scale(0.015625)"/>
       </defs>
       <use xlink:href="#DejaVuSans-35"/>
       <use xlink:href="#DejaVuSans-30" x="63.623047"/>
       <use xlink:href="#DejaVuSans-30" x="127.246094"/>
       <use xlink:href="#DejaVuSans-30" x="190.869141"/>
      </g>
     </g>
    </g>
    <g id="ytick_7">
     <g id="line2d_18">
      <g>
       <use xlink:href="#mf3a7c85569" x="39.65" y="122.759717" style="stroke: #000000; stroke-width: 0.8"/>
      </g>
     </g>
     <g id="text_18">
      <!-- 6000 -->
      <g transform="translate(7.2 126.558936)scale(0.1 -0.1)">
       <defs>
        <path id="DejaVuSans-36" d="M 2113 2584 
Q 1688 2584 1439 2293 
Q 1191 2003 1191 1497 
Q 1191 994 1439 701 
Q 1688 409 2113 409 
Q 2538 409 2786 701 
Q 3034 994 3034 1497 
Q 3034 2003 2786 2293 
Q 2538 2584 2113 2584 
z
M 3366 4563 
L 3366 3988 
Q 3128 4100 2886 4159 
Q 2644 4219 2406 4219 
Q 1781 4219 1451 3797 
Q 1122 3375 1075 2522 
Q 1259 2794 1537 2939 
Q 1816 3084 2150 3084 
Q 2853 3084 3261 2657 
Q 3669 2231 3669 1497 
Q 3669 778 3244 343 
Q 2819 -91 2113 -91 
Q 1303 -91 875 529 
Q 447 1150 447 2328 
Q 447 3434 972 4092 
Q 1497 4750 2381 4750 
Q 2619 4750 2861 4703 
Q 3103 4656 3366 4563 
z
" transform="scale(0.015625)"/>
       </defs>
       <use xlink:href="#DejaVuSans-36"/>
       <use xlink:href="#DejaVuSans-30" x="63.623047"/>
       <use xlink:href="#DejaVuSans-30" x="127.246094"/>
       <use xlink:href="#DejaVuSans-30" x="190.869141"/>
      </g>
     </g>
    </g>
    <g id="ytick_8">
     <g id="line2d_19">
      <g>
       <use xlink:href="#mf3a7c85569" x="39.65" y="84.499836" style="stroke: #000000; stroke-width: 0.8"/>
      </g>
     </g>
     <g id="text_19">
      <!-- 7000 -->
      <g transform="translate(7.2 88.299055)scale(0.1 -0.1)">
       <use xlink:href="#DejaVuSans-37"/>
       <use xlink:href="#DejaVuSans-30" x="63.623047"/>
       <use xlink:href="#DejaVuSans-30" x="127.246094"/>
       <use xlink:href="#DejaVuSans-30" x="190.869141"/>
      </g>
     </g>
    </g>
    <g id="ytick_9">
     <g id="line2d_20">
      <g>
       <use xlink:href="#mf3a7c85569" x="39.65" y="46.239955" style="stroke: #000000; stroke-width: 0.8"/>
      </g>
     </g>
     <g id="text_20">
      <!-- 8000 -->
      <g transform="translate(7.2 50.039174)scale(0.1 -0.1)">
       <defs>
        <path id="DejaVuSans-38" d="M 2034 2216 
Q 1584 2216 1326 1975 
Q 1069 1734 1069 1313 
Q 1069 891 1326 650 
Q 1584 409 2034 409 
Q 2484 409 2743 651 
Q 3003 894 3003 1313 
Q 3003 1734 2745 1975 
Q 2488 2216 2034 2216 
z
M 1403 2484 
Q 997 2584 770 2862 
Q 544 3141 544 3541 
Q 544 4100 942 4425 
Q 1341 4750 2034 4750 
Q 2731 4750 3128 4425 
Q 3525 4100 3525 3541 
Q 3525 3141 3298 2862 
Q 3072 2584 2669 2484 
Q 3125 2378 3379 2068 
Q 3634 1759 3634 1313 
Q 3634 634 3220 271 
Q 2806 -91 2034 -91 
Q 1263 -91 848 271 
Q 434 634 434 1313 
Q 434 1759 690 2068 
Q 947 2378 1403 2484 
z
M 1172 3481 
Q 1172 3119 1398 2916 
Q 1625 2713 2034 2713 
Q 2441 2713 2670 2916 
Q 2900 3119 2900 3481 
Q 2900 3844 2670 4047 
Q 2441 4250 2034 4250 
Q 1625 4250 1398 4047 
Q 1172 3844 1172 3481 
z
" transform="scale(0.015625)"/>
       </defs>
       <use xlink:href="#DejaVuSans-38"/>
       <use xlink:href="#DejaVuSans-30" x="63.623047"/>
       <use xlink:href="#DejaVuSans-30" x="127.246094"/>
       <use xlink:href="#DejaVuSans-30" x="190.869141"/>
      </g>
     </g>
    </g>
   </g>
   <g id="line2d_21">
    <path d="M 100.522727 352.319003 
L 150.132659 352.319003 
L 151.473468 352.204223 
L 152.814277 352.319003 
L 155.495895 352.319003 
L 156.836704 352.204223 
L 158.177513 352.319003 
L 159.518322 352.204223 
L 160.859131 352.319003 
L 166.222367 352.319003 
L 167.563176 352.165963 
L 168.903985 352.319003 
L 170.244794 352.012924 
L 174.267221 352.319003 
L 175.60803 351.706845 
L 176.948839 352.319003 
L 178.289648 351.974664 
L 179.630457 351.859884 
L 180.971266 352.051184 
L 182.312074 351.745105 
L 183.652883 352.089444 
L 184.993692 351.209466 
L 186.334501 350.673828 
L 187.67531 351.668585 
L 189.016119 351.285986 
L 190.356928 349.870371 
L 191.697737 351.362506 
L 193.038546 349.98515 
L 194.379355 350.750348 
L 195.720164 350.673828 
L 197.060973 349.334732 
L 198.401782 349.90863 
L 199.742591 350.13819 
L 201.0834 349.411252 
L 202.424209 348.301715 
L 203.765018 348.339975 
L 205.105827 349.832111 
L 206.446636 349.755591 
L 207.787445 350.788608 
L 209.128254 350.406009 
L 210.469063 350.444269 
L 211.809872 350.17645 
L 213.150681 351.171207 
L 214.49149 350.13819 
L 215.832299 351.056427 
L 217.173108 351.362506 
L 218.513917 350.865128 
L 219.854726 350.635568 
L 222.536344 351.171207 
L 223.877153 350.635568 
L 225.217962 351.362506 
L 227.899579 351.056427 
L 229.240388 350.826868 
L 230.581197 350.444269 
L 231.922006 350.865128 
L 233.262815 350.406009 
L 234.603624 350.788608 
L 235.944433 350.865128 
L 237.285242 350.329489 
L 238.626051 349.411252 
L 239.96686 349.755591 
L 241.307669 349.372992 
L 242.648478 349.449512 
L 243.989287 346.84784 
L 245.330096 348.607795 
L 246.670905 349.640811 
L 248.011714 348.339975 
L 249.352523 349.832111 
L 250.693332 347.689557 
L 252.034141 348.454755 
L 253.37495 346.273942 
L 256.056568 347.995636 
L 257.397377 347.306959 
L 258.738186 347.995636 
L 260.078995 347.804337 
L 261.419804 348.263456 
L 262.760613 347.459998 
L 264.101422 346.96262 
L 265.442231 346.618281 
L 266.78304 347.268699 
L 268.123849 346.006123 
L 269.464658 345.011366 
L 270.805467 343.51923 
L 272.146276 342.486214 
L 273.487085 342.830553 
L 274.827893 345.891343 
L 276.168702 341.874055 
L 277.509511 339.884542 
L 278.85032 342.294914 
L 280.191129 339.387163 
L 281.531938 337.818508 
L 282.872747 340.3054 
L 284.213556 339.961061 
L 285.554365 340.26714 
L 286.895174 339.348903 
L 288.235983 338.851525 
L 289.576792 339.463683 
L 290.917601 338.851525 
L 292.25841 337.512429 
L 293.599219 338.277627 
L 294.940028 339.387163 
L 296.280837 339.731502 
L 297.621646 339.387163 
L 298.962455 335.561175 
L 300.303264 334.298599 
L 301.644073 333.533401 
L 302.984882 334.03078 
L 304.325691 332.882983 
L 305.6665 329.745673 
L 307.007309 331.390848 
L 308.348118 332.538645 
L 309.688927 332.385605 
L 312.370545 331.505628 
L 313.711354 331.046509 
L 315.052163 329.822193 
L 316.392972 330.434351 
L 317.733781 330.013492 
L 319.07459 331.888227 
L 321.756207 332.691684 
L 323.097016 331.773447 
L 325.778634 331.352588 
L 327.119443 332.194306 
L 328.460252 332.003006 
L 329.801061 332.423865 
L 331.14187 332.079526 
L 333.823488 330.93173 
L 335.164297 333.456882 
L 336.505106 334.298599 
L 337.845915 333.303842 
L 339.186724 337.474169 
L 341.868342 338.851525 
L 343.209151 337.35939 
L 344.54996 339.042824 
L 345.890769 339.616723 
L 347.231578 340.037581 
L 348.572387 336.364633 
L 349.913196 337.16809 
L 351.254005 336.555932 
L 352.594814 338.430666 
L 355.276432 340.152361 
L 356.617241 341.644496 
L 357.95805 341.376677 
L 359.298859 343.098372 
L 360.639668 343.67227 
L 361.980477 344.934846 
L 363.321286 346.80958 
L 364.662095 347.383478 
L 366.002903 348.301715 
L 367.343712 348.990393 
L 368.684521 349.296472 
L 370.02533 349.105173 
L 371.366139 348.760834 
L 372.706948 348.837354 
L 374.047757 348.378235 
L 375.388566 348.913874 
L 376.729375 348.033896 
L 378.070184 347.574778 
L 379.410993 347.306959 
L 380.751802 346.73306 
L 382.092611 347.00088 
L 384.774229 345.279185 
L 387.455847 346.503501 
L 388.796656 347.230439 
L 390.137465 346.656541 
L 391.478274 347.077399 
L 392.819083 346.8861 
L 394.159892 345.126145 
L 395.500701 347.153919 
L 396.84151 347.498258 
L 398.182319 346.84784 
L 400.863937 345.929603 
L 402.204746 347.268699 
L 403.545555 346.159162 
L 404.886364 347.077399 
L 406.227173 348.913874 
L 407.567982 347.00088 
L 408.908791 345.623524 
L 410.2496 346.8861 
L 411.590408 346.082642 
L 412.931217 347.153919 
L 414.272026 346.388721 
L 415.612835 349.411252 
L 416.953644 347.957377 
L 418.294453 346.92436 
L 419.635262 347.766077 
L 420.976071 347.842597 
L 422.31688 346.656541 
L 423.657689 346.73306 
L 424.998498 348.799094 
L 426.339307 348.569535 
L 427.680116 346.73306 
L 429.020925 346.120902 
L 430.361734 348.454755 
L 431.702543 348.186936 
L 433.043352 347.421738 
L 434.384161 350.865128 
L 435.72497 350.09993 
L 437.065779 348.110416 
L 438.406588 349.258213 
L 439.747397 346.80958 
L 441.088206 348.186936 
L 442.429015 347.345218 
L 443.769824 348.607795 
L 445.110633 346.84784 
L 446.451442 345.355705 
L 447.792251 345.011366 
L 449.13306 344.093129 
L 450.473869 343.404451 
L 451.814678 343.51923 
L 453.155487 347.651298 
L 454.496296 341.721016 
L 455.837105 338.201107 
L 457.177913 332.041266 
L 458.518722 332.844724 
L 459.859531 332.117786 
L 461.20034 327.56486 
L 462.541149 339.654982 
L 463.881958 329.975233 
L 465.222767 325.001448 
L 466.563576 320.754601 
L 467.904385 321.596319 
L 469.245194 322.017177 
L 470.586003 316.125156 
L 471.926812 332.156046 
L 473.267621 326.952702 
L 474.60843 314.518241 
L 475.949239 313.485224 
L 477.290048 313.217405 
L 478.630857 310.424433 
L 479.971666 307.363643 
L 481.312475 329.516114 
L 482.653284 304.800231 
L 483.994093 305.374129 
L 485.334902 300.132525 
L 486.675711 296.268277 
L 488.01652 298.372571 
L 489.357329 288.692821 
L 490.698138 328.023979 
L 492.038947 300.821203 
L 493.379756 306.330626 
L 494.720565 290.261476 
L 496.061374 300.132525 
L 497.402183 281.576483 
L 498.742992 265.889932 
L 500.083801 298.946469 
L 501.42461 272.92975 
L 502.765419 266.65513 
L 504.106227 252.958092 
L 505.447036 231.07344 
L 506.787845 247.678229 
L 508.128654 230.040423 
L 509.469463 268.644643 
L 510.810272 212.823477 
L 512.151081 219.595476 
L 513.49189 210.566144 
L 514.832699 210.298325 
L 516.173508 191.168384 
L 517.514317 192.775299 
L 518.855126 238.266298 
L 520.195935 182.98077 
L 521.536744 201.498552 
L 522.877553 192.048362 
L 524.218362 189.064091 
L 525.559171 186.921538 
L 526.89998 185.658962 
L 528.240789 234.24901 
L 529.581598 184.472905 
L 530.922407 183.860747 
L 532.263216 190.900565 
L 533.604025 184.702465 
L 534.944834 189.025831 
L 536.285643 182.024273 
L 537.626452 233.254253 
L 538.967261 188.834532 
L 540.30807 196.333468 
L 541.648879 194.535254 
L 542.989688 200.733355 
L 544.330497 210.566144 
L 545.671306 239.031495 
L 547.012115 294.737882 
L 548.352924 264.933435 
L 549.693732 263.020441 
L 551.034541 281.538223 
L 552.37535 287.162426 
L 553.716159 297.683893 
L 555.056968 294.202244 
L 556.397777 322.782375 
L 557.738586 310.194874 
L 559.079395 312.069608 
L 560.420204 311.61049 
L 561.761013 339.272384 
L 563.101822 336.211593 
L 564.442631 321.596319 
L 565.78344 339.540203 
L 567.124249 321.634578 
L 568.465058 321.749358 
L 569.805867 326.110985 
L 571.146676 331.964746 
L 572.487485 328.100498 
L 573.828294 329.324815 
L 575.169103 345.585264 
L 576.509912 332.462125 
L 577.850721 334.183819 
L 579.19153 337.780248 
L 580.532339 338.966305 
L 581.873148 336.938531 
L 583.213957 339.999321 
L 584.554766 347.804337 
L 585.895575 340.649739 
L 587.236384 339.616723 
L 588.577193 343.978349 
L 589.918002 341.606236 
L 591.258811 346.120902 
L 592.59962 341.338417 
L 593.940429 350.13819 
L 595.281237 339.846282 
L 596.622046 343.67227 
L 597.962855 344.322688 
L 599.303664 346.8861 
L 600.644473 347.306959 
L 601.985282 346.465241 
L 603.326091 349.372992 
L 604.6669 346.235682 
L 606.007709 346.120902 
L 607.348518 346.503501 
L 608.689327 347.039139 
L 610.030136 347.919117 
L 611.370945 347.268699 
L 612.711754 350.635568 
L 614.052563 346.044383 
L 615.393372 346.6948 
L 616.734181 346.96262 
L 618.07499 345.011366 
L 619.415799 346.388721 
L 620.756608 347.421738 
L 622.097417 349.487772 
L 623.438226 346.96262 
L 624.779035 346.426981 
L 626.119844 346.77132 
L 627.460653 344.934846 
L 628.801462 346.80958 
L 630.142271 346.350462 
L 631.48308 349.564292 
L 632.823889 343.78705 
L 634.164698 343.901829 
L 635.505507 347.498258 
L 636.846316 343.940089 
L 638.187125 341.682756 
L 639.527934 341.988835 
L 640.868742 347.536518 
L 642.209551 338.851525 
L 643.55036 340.114101 
L 644.891169 340.3054 
L 646.231978 338.354146 
L 647.572787 338.813265 
L 648.913596 336.900271 
L 650.254405 344.858326 
L 651.595214 340.955818 
L 652.936023 332.615164 
L 654.276832 329.056995 
L 655.617641 330.281312 
L 656.95845 324.27451 
L 658.299259 329.248295 
L 659.640068 337.933288 
L 660.980877 314.82432 
L 662.321686 320.180703 
L 663.662495 316.622534 
L 665.003304 318.688568 
L 666.344113 306.904524 
L 667.684922 321.17546 
L 669.025731 326.684883 
L 670.36654 301.318582 
L 671.707349 306.981044 
L 673.048158 297.645633 
L 674.388967 285.019872 
L 675.729776 287.659804 
L 677.070585 282.265161 
L 678.411394 309.123597 
L 679.752203 270.213298 
L 681.093012 266.731649 
L 682.433821 266.310791 
L 683.77463 261.987424 
L 685.115439 281.461703 
L 686.456247 254.335448 
L 687.797056 310.271394 
L 689.137865 274.460145 
L 690.478674 253.034612 
L 691.819483 248.366906 
L 693.160292 267.917706 
L 694.501101 268.453344 
L 695.84191 259.95965 
L 697.182719 308.28188 
L 698.523528 258.314475 
L 699.864337 264.589096 
L 701.205146 263.670859 
L 702.545955 269.56288 
L 703.886764 270.136779 
L 705.227573 270.289818 
L 706.568382 314.250421 
L 707.909191 268.262045 
L 709.25 272.92975 
L 710.590809 274.001027 
L 711.931618 283.106878 
L 714.613236 293.360526 
L 715.954045 321.481539 
L 717.294854 302.313339 
L 718.635663 298.67865 
L 719.976472 299.061249 
L 721.317281 306.560185 
L 722.65809 305.909767 
L 723.998899 311.840049 
L 725.339708 336.326373 
L 726.680517 315.474738 
L 728.021326 310.998332 
L 729.362135 320.027663 
L 730.702944 324.695369 
L 732.043753 327.48834 
L 733.384561 327.067482 
L 734.72537 338.124587 
L 736.066179 332.653424 
L 737.406988 330.969989 
L 738.747797 332.844724 
L 740.088606 339.846282 
L 741.429415 337.895028 
L 742.770224 334.260339 
L 744.111033 336.020294 
L 745.451842 335.790734 
L 746.792651 339.348903 
L 748.13346 335.599435 
L 749.474269 336.785491 
L 750.815078 338.851525 
L 752.155887 343.940089 
L 753.496696 346.350462 
L 754.837505 341.453197 
L 756.178314 344.552247 
L 757.519123 343.901829 
L 758.859932 343.060112 
L 760.200741 346.044383 
L 761.54155 346.92436 
L 762.882359 348.799094 
L 764.223168 345.585264 
L 765.563977 346.350462 
L 766.904786 347.421738 
L 768.245595 347.613038 
L 769.586404 348.186936 
L 772.268022 351.094687 
L 773.608831 348.416495 
L 774.94964 349.717331 
L 776.290449 349.449512 
L 777.631258 349.526032 
L 778.972066 349.98515 
L 780.312875 350.597308 
L 781.653684 351.362506 
L 782.994493 349.717331 
L 784.335302 351.285986 
L 785.676111 350.482529 
L 787.01692 350.02341 
L 788.357729 350.865128 
L 789.698538 350.17645 
L 791.039347 351.247726 
L 792.380156 350.520789 
L 793.720965 350.13819 
L 795.061774 350.367749 
L 796.402583 349.832111 
L 797.743392 350.21471 
L 799.084201 350.788608 
L 800.42501 350.865128 
L 801.765819 348.990393 
L 803.106628 349.028653 
L 804.447437 349.449512 
L 805.788246 348.454755 
L 807.129055 348.684314 
L 808.469864 348.531275 
L 809.810673 349.94689 
L 811.151482 349.334732 
L 812.492291 347.459998 
L 813.8331 348.339975 
L 815.173909 345.661784 
L 816.514718 347.115659 
L 817.855527 346.350462 
L 819.196336 349.679071 
L 820.537145 347.230439 
L 821.877954 346.73306 
L 823.218763 344.705287 
L 824.559571 345.853083 
L 827.241189 342.562733 
L 828.581998 346.656541 
L 829.922807 342.715773 
L 831.263616 343.71053 
L 832.604425 344.207908 
L 833.945234 338.124587 
L 835.286043 336.555932 
L 836.626852 337.550689 
L 837.967661 341.912315 
L 839.30847 334.413379 
L 840.649279 323.624092 
L 841.990088 328.789176 
L 843.330897 326.761403 
L 844.671706 328.100498 
L 846.012515 326.646623 
L 847.353324 335.828994 
L 848.694133 316.699054 
L 850.034942 314.212162 
L 851.375751 306.560185 
L 854.057369 303.002016 
L 855.398178 305.641948 
L 856.738987 310.194874 
L 859.420605 260.648328 
L 860.761414 250.012081 
L 862.102223 284.637274 
L 863.443032 218.103341 
L 864.783841 237.807179 
L 866.12465 281.499963 
L 867.465459 225.219678 
L 868.806268 194.343955 
L 870.147076 214.047793 
L 871.487885 200.503795 
L 872.828694 216.458166 
L 874.169503 234.899428 
L 875.510312 239.643654 
L 876.851121 215.23385 
L 878.19193 207.161015 
L 879.532739 210.221805 
L 880.873548 191.512723 
L 882.214357 190.058848 
L 883.555166 198.89688 
L 884.895975 233.445553 
L 886.236784 207.390574 
L 887.577593 205.209761 
L 888.918402 208.50011 
L 890.259211 208.385331 
L 891.60002 225.870096 
L 892.940829 225.678797 
L 894.281638 260.265729 
L 895.622447 258.697074 
L 896.963256 352.319003 
L 898.304065 352.319003 
L 899.644874 72.294934 
L 900.985683 352.319003 
L 902.326492 352.319003 
L 903.667301 114.916442 
L 905.00811 272.85323 
L 906.348919 352.319003 
L 907.689728 205.133241 
L 909.030537 352.319003 
L 911.712155 352.319003 
L 913.052964 111.817391 
L 914.393773 291.332753 
L 915.734581 300.438604 
L 917.07539 307.248863 
L 918.416199 309.161857 
L 919.757008 310.271394 
L 921.097817 312.949585 
L 922.438626 330.969989 
L 923.779435 352.319003 
L 925.120244 286.244189 
L 926.461053 322.705855 
L 927.801862 325.957945 
L 929.142671 326.149244 
L 930.48348 325.077968 
L 931.824289 337.35939 
L 933.165098 320.716341 
L 934.505907 313.714783 
L 935.846716 352.319003 
L 937.187525 278.974811 
L 938.528334 313.408704 
L 939.869143 312.834806 
L 941.209952 328.942216 
L 942.550761 303.461135 
L 943.89157 303.920254 
L 945.232379 296.918695 
L 946.573188 281.538223 
L 947.913997 352.319003 
L 949.254806 215.463409 
L 950.595615 304.685451 
L 951.936424 271.896733 
L 953.277233 264.206497 
L 954.618042 275.607942 
L 955.958851 271.514134 
L 957.29966 263.747379 
L 958.640469 274.421885 
L 959.981278 295.809159 
L 961.322087 265.622113 
L 962.662895 264.321277 
L 964.003704 259.730091 
L 965.344513 270.748937 
L 966.685322 268.568124 
L 968.026131 265.813412 
L 969.36694 306.407146 
L 970.707749 268.988982 
L 972.048558 266.004712 
L 973.389367 248.787765 
L 974.730176 258.964893 
L 976.070985 256.669301 
L 977.411794 251.657256 
L 978.752603 302.198559 
L 980.093412 281.346924 
L 981.434221 280.543466 
L 982.77503 284.445974 
L 984.115839 263.020441 
L 985.456648 275.760981 
L 986.797457 259.653571 
L 988.138266 311.304411 
L 989.479075 275.225343 
L 990.819884 274.842744 
L 992.160693 271.055016 
L 993.501502 266.884689 
L 994.842311 284.866833 
L 996.18312 280.046088 
L 997.523929 320.754601 
L 998.864738 279.47219 
L 1000.205547 278.706992 
L 1001.546356 280.390427 
L 1002.887165 275.914021 
L 1004.227974 290.452775 
L 1005.568783 288.731081 
L 1006.909592 319.530285 
L 1008.2504 288.118923 
L 1009.591209 283.642517 
L 1010.932018 284.522494 
L 1012.272827 287.162426 
L 1013.613636 298.52561 
L 1014.954445 298.984729 
L 1016.295254 329.936973 
L 1017.636063 293.781385 
L 1018.976872 306.024547 
L 1020.317681 302.00726 
L 1021.65849 309.888795 
L 1022.999299 309.582716 
L 1024.340108 305.412389 
L 1025.680917 332.500385 
L 1027.021726 317.043393 
L 1028.362535 308.090581 
L 1029.703344 314.67128 
L 1031.044153 323.432793 
L 1032.384962 330.051752 
L 1033.725771 317.081653 
L 1035.06658 330.243052 
L 1036.407389 326.990962 
L 1037.748198 327.5266 
L 1039.089007 319.645065 
L 1040.429816 330.93173 
L 1041.770625 333.150803 
L 1043.111434 332.768204 
L 1044.452243 340.611479 
L 1045.793052 337.933288 
L 1047.133861 332.041266 
L 1048.47467 332.806464 
L 1049.815479 329.554374 
L 1051.156288 338.392406 
L 1052.497097 338.239367 
L 1053.837905 341.874055 
L 1056.519523 331.161289 
L 1057.860332 329.975233 
L 1059.201141 331.390848 
L 1060.54195 328.215278 
L 1061.882759 331.084769 
L 1063.223568 339.731502 
L 1064.564377 326.570103 
L 1065.905186 327.64138 
L 1067.245995 326.531843 
L 1068.586804 327.335301 
L 1069.927613 325.154488 
L 1071.268422 321.405019 
L 1072.609231 338.583706 
L 1073.95004 316.737314 
L 1075.290849 308.28188 
L 1076.631658 306.942784 
L 1077.972467 311.45745 
L 1079.313276 290.567555 
L 1080.654085 287.391985 
L 1081.994894 323.356273 
L 1083.335703 257.893617 
L 1084.676512 230.193463 
L 1086.017321 223.727543 
L 1087.35813 215.960787 
L 1090.039748 163.200411 
L 1091.380557 268.682903 
L 1092.721366 152.487645 
L 1094.062175 99.038591 
L 1095.402984 118.436351 
L 1096.743793 82.586842 
L 1098.084602 57.56488 
L 1099.42541 66.364653 
L 1100.766219 173.26276 
L 1102.107028 83.27552 
L 1103.447837 54.695389 
L 1104.788646 60.319592 
L 1106.129455 99.689009 
L 1107.470264 124.749231 
L 1108.811073 90.583157 
L 1110.151882 247.14259 
L 1111.492691 172.994941 
L 1112.8335 78.837374 
L 1114.174309 182.100793 
L 1115.515118 206.281037 
L 1116.855927 211.140042 
L 1118.196736 249.591223 
L 1119.537545 312.605247 
L 1120.878354 261.566565 
L 1122.219163 276.602699 
L 1123.559972 285.172912 
L 1124.900781 306.024547 
L 1126.24159 352.319003 
L 1127.582399 254.641527 
L 1128.923208 338.201107 
L 1130.264017 320.486782 
L 1131.604826 319.224206 
L 1132.945635 330.510871 
L 1134.286444 329.822193 
L 1135.627253 335.752475 
L 1136.968062 338.009808 
L 1138.308871 346.618281 
L 1139.64968 341.759276 
L 1140.990489 347.498258 
L 1142.331298 341.988835 
L 1143.672107 343.71053 
L 1145.012915 344.781806 
L 1146.353724 344.973106 
L 1147.694533 350.291229 
L 1149.035342 346.8861 
L 1150.376151 347.919117 
L 1151.71696 352.319003 
L 1153.057769 344.246168 
L 1154.398578 347.880857 
L 1155.739387 349.334732 
L 1157.080196 351.209466 
L 1159.761814 350.865128 
L 1161.102623 351.515545 
L 1162.443432 350.406009 
L 1163.784241 350.750348 
L 1165.12505 350.21471 
L 1166.465859 351.706845 
L 1167.806668 350.482529 
L 1169.147477 349.94689 
L 1170.488286 350.17645 
L 1173.169904 350.788608 
L 1174.510713 350.712088 
L 1175.851522 352.089444 
L 1177.192331 350.941647 
L 1178.53314 350.865128 
L 1179.873949 351.362506 
L 1181.214758 351.477286 
L 1182.555567 351.247726 
L 1185.237185 351.706845 
L 1186.577994 350.941647 
L 1187.918803 351.706845 
L 1189.259612 351.745105 
L 1190.600421 352.319003 
L 1191.941229 351.209466 
L 1193.282038 351.821625 
L 1194.622847 352.204223 
L 1195.963656 351.324246 
L 1197.304465 351.515545 
L 1198.645274 351.056427 
L 1199.986083 351.859884 
L 1201.326892 351.592065 
L 1202.667701 351.553805 
L 1204.00851 352.319003 
L 1205.349319 352.089444 
L 1206.690128 351.592065 
L 1208.030937 353.2755 
L 1209.371746 349.94689 
L 1210.712555 352.165963 
L 1212.053364 351.706845 
L 1213.394173 352.280743 
L 1214.734982 352.089444 
L 1216.075791 352.319003 
L 1217.4166 351.783365 
L 1218.757409 352.012924 
L 1221.439027 351.859884 
L 1222.779836 352.242483 
L 1224.120645 352.089444 
L 1225.461454 352.319003 
L 1232.165499 352.319003 
L 1233.506308 350.712088 
L 1234.847117 352.127704 
L 1236.187926 351.936404 
L 1237.528734 351.859884 
L 1238.869543 352.280743 
L 1240.210352 352.165963 
L 1244.232779 352.319003 
L 1245.573588 352.319003 
L 1246.914397 351.094687 
L 1248.255206 351.898144 
L 1249.596015 352.280743 
L 1250.936824 352.280743 
L 1252.277633 352.012924 
L 1253.618442 351.898144 
L 1254.959251 352.051184 
L 1256.30006 352.319003 
L 1273.730577 352.319003 
L 1275.071386 345.661784 
L 1276.412195 351.324246 
L 1277.753004 351.362506 
L 1279.093813 352.127704 
L 1280.434622 351.515545 
L 1281.775431 351.285986 
L 1283.116239 351.324246 
L 1284.457048 351.668585 
L 1285.797857 351.018167 
L 1288.479475 351.859884 
L 1289.820284 352.319003 
L 1292.501902 352.319003 
L 1293.842711 347.498258 
L 1295.18352 351.056427 
L 1296.524329 350.941647 
L 1299.205947 352.319003 
L 1300.546756 352.319003 
L 1300.546756 352.319003 
" clip-path="url(#p82e006af16)" style="fill: none; stroke: #0000ff; stroke-width: 1.5; stroke-linecap: square"/>
   </g>
   <g id="line2d_22">
    <path d="M 1060.54195 332.004519 
L 1061.882759 333.860789 
L 1063.223568 330.923156 
L 1064.564377 328.705225 
L 1065.905186 330.461297 
L 1067.245995 326.82646 
L 1068.586804 326.147813 
L 1069.927613 326.90727 
L 1071.268422 329.118064 
L 1072.609231 325.614859 
L 1073.95004 322.660606 
L 1075.290849 323.359848 
L 1076.631658 314.913098 
L 1077.972467 309.190746 
L 1079.313276 302.750874 
L 1080.654085 306.945057 
L 1083.335703 282.623859 
L 1084.676512 279.699013 
L 1087.35813 222.895647 
L 1088.698939 209.778839 
L 1090.039748 209.097863 
L 1091.380557 188.439675 
L 1092.721366 161.948569 
L 1094.062175 174.54827 
L 1096.743793 91.545527 
L 1098.084602 77.455538 
L 1099.42541 104.611596 
L 1100.766219 67.469841 
L 1102.107028 56.912354 
L 1103.447837 87.404653 
L 1104.788646 56.343005 
L 1106.129455 50.8755 
L 1107.470264 69.564632 
L 1108.811073 134.671588 
L 1110.151882 138.922523 
L 1111.492691 127.452644 
L 1112.8335 157.296339 
L 1114.174309 169.480587 
L 1115.515118 158.524181 
L 1116.855927 186.648863 
L 1118.196736 269.386692 
L 1119.537545 251.116357 
L 1120.878354 235.34633 
L 1122.219163 287.962209 
L 1123.559972 290.769206 
L 1124.900781 312.062519 
L 1126.24159 327.893911 
L 1127.582399 340.194256 
L 1128.923208 333.795008 
L 1130.264017 301.315446 
L 1131.604826 322.384176 
L 1132.945635 335.407499 
L 1134.286444 350.427891 
L 1135.627253 311.844724 
L 1136.968062 346.806499 
L 1138.308871 336.067429 
L 1139.64968 349.531588 
L 1142.331298 345.909807 
L 1143.672107 349.639358 
L 1145.012915 346.431583 
L 1146.353724 349.527667 
L 1147.694533 347.386294 
L 1149.035342 349.220277 
L 1150.376151 347.425489 
L 1151.71696 348.688838 
L 1153.057769 347.801524 
L 1154.398578 349.916376 
L 1155.739387 349.248166 
L 1157.080196 349.007627 
L 1158.421005 350.441275 
L 1159.761814 352.31048 
L 1161.102623 349.419405 
L 1162.443432 350.893468 
L 1163.784241 351.07468 
L 1165.12505 352.228534 
L 1166.465859 351.76612 
L 1167.806668 351.012733 
L 1169.147477 351.199154 
L 1170.488286 350.17037 
L 1173.169904 350.031615 
L 1174.510713 351.019638 
L 1177.192331 350.766308 
L 1178.53314 351.157681 
L 1179.873949 351.155187 
L 1182.555567 351.443331 
L 1183.896376 352.005325 
L 1185.237185 351.391102 
L 1186.577994 351.341719 
L 1187.918803 351.499699 
L 1189.259612 351.479642 
L 1190.600421 351.822195 
L 1191.941229 351.801833 
L 1193.282038 352.044033 
L 1194.622847 351.467882 
L 1195.963656 351.85724 
L 1197.304465 351.918414 
L 1198.645274 351.772512 
L 1199.986083 351.279831 
L 1201.326892 351.413761 
L 1202.667701 351.766148 
L 1204.00851 351.627902 
L 1206.690128 351.732223 
L 1208.030937 352.436974 
L 1209.371746 351.657259 
L 1210.712555 352.293502 
L 1212.053364 351.345749 
L 1213.394173 352.043994 
L 1214.734982 351.82558 
L 1216.075791 352.669265 
L 1217.4166 351.185214 
L 1218.757409 352.338227 
L 1220.098218 351.70846 
L 1221.439027 352.402448 
L 1222.779836 352.041997 
L 1224.120645 352.144339 
L 1225.461454 352.029902 
L 1228.143072 352.205709 
L 1230.82469 352.433747 
L 1232.165499 352.363247 
L 1233.506308 352.104736 
L 1234.847117 352.02421 
L 1236.187926 351.476274 
L 1237.528734 351.916397 
L 1240.210352 352.01366 
L 1241.551161 351.583159 
L 1242.89197 352.275556 
L 1244.232779 352.251093 
L 1245.573588 352.475884 
L 1246.914397 352.200726 
L 1248.255206 352.063487 
L 1249.596015 351.729482 
L 1250.936824 352.031328 
L 1252.277633 352.206256 
L 1253.618442 352.158207 
L 1254.959251 351.559085 
L 1256.30006 351.974523 
L 1258.981678 352.532567 
L 1261.663296 352.213906 
L 1265.685723 352.42847 
L 1272.389768 352.319096 
L 1273.730577 352.319021 
L 1275.071386 350.901407 
L 1276.412195 350.843134 
L 1277.753004 348.718736 
L 1279.093813 350.997783 
L 1280.434622 351.43847 
L 1281.775431 351.724288 
L 1283.116239 348.909187 
L 1284.457048 351.574162 
L 1285.797857 351.52765 
L 1287.138666 352.765774 
L 1288.479475 351.537516 
L 1289.820284 351.593462 
L 1291.161093 351.831319 
L 1292.501902 352.327132 
L 1293.842711 351.128353 
L 1295.18352 351.160899 
L 1296.524329 349.621483 
L 1297.865138 351.241056 
L 1300.546756 351.966685 
L 1300.546756 351.966685 
" clip-path="url(#p82e006af16)" style="fill: none; stroke: #ffa500; stroke-width: 1.5; stroke-linecap: square"/>
   </g>
   <g id="line2d_23">
    <path d="M 1300.546756 351.966685 
L 1301.887565 350.313597 
L 1303.228374 351.720743 
L 1304.569183 351.563911 
L 1305.909992 351.897051 
L 1307.250801 352.167327 
L 1308.59161 352.13275 
L 1309.932419 352.008718 
L 1311.273228 351.378324 
L 1312.614037 351.91167 
L 1313.954846 351.853515 
L 1315.295655 351.985335 
L 1316.636464 352.08681 
L 1317.977273 352.073807 
" clip-path="url(#p82e006af16)" style="fill: none; stroke: #ff0000; stroke-width: 1.5; stroke-linecap: square"/>
   </g>
   <g id="patch_3">
    <path d="M 39.65 368.3955 
L 39.65 35.7555 
" style="fill: none; stroke: #000000; stroke-width: 0.8; stroke-linejoin: miter; stroke-linecap: square"/>
   </g>
   <g id="patch_4">
    <path d="M 1378.85 368.3955 
L 1378.85 35.7555 
" style="fill: none; stroke: #000000; stroke-width: 0.8; stroke-linejoin: miter; stroke-linecap: square"/>
   </g>
   <g id="patch_5">
    <path d="M 39.65 368.3955 
L 1378.85 368.3955 
" style="fill: none; stroke: #000000; stroke-width: 0.8; stroke-linejoin: miter; stroke-linecap: square"/>
   </g>
   <g id="patch_6">
    <path d="M 39.65 35.7555 
L 1378.85 35.7555 
" style="fill: none; stroke: #000000; stroke-width: 0.8; stroke-linejoin: miter; stroke-linecap: square"/>
   </g>
   <g id="text_21">
    <!-- Daily Confirmed Cases Forecasting - Azerbaijan -->
    <g transform="translate(567.03875 16.318125)scale(0.12 -0.12)">
     <defs>
      <path id="DejaVuSans-44" d="M 1259 4147 
L 1259 519 
L 2022 519 
Q 2988 519 3436 956 
Q 3884 1394 3884 2338 
Q 3884 3275 3436 3711 
Q 2988 4147 2022 4147 
L 1259 4147 
z
M 628 4666 
L 1925 4666 
Q 3281 4666 3915 4102 
Q 4550 3538 4550 2338 
Q 4550 1131 3912 565 
Q 3275 0 1925 0 
L 628 0 
L 628 4666 
z
" transform="scale(0.015625)"/>
      <path id="DejaVuSans-61" d="M 2194 1759 
Q 1497 1759 1228 1600 
Q 959 1441 959 1056 
Q 959 750 1161 570 
Q 1363 391 1709 391 
Q 2188 391 2477 730 
Q 2766 1069 2766 1631 
L 2766 1759 
L 2194 1759 
z
M 3341 1997 
L 3341 0 
L 2766 0 
L 2766 531 
Q 2569 213 2275 61 
Q 1981 -91 1556 -91 
Q 1019 -91 701 211 
Q 384 513 384 1019 
Q 384 1609 779 1909 
Q 1175 2209 1959 2209 
L 2766 2209 
L 2766 2266 
Q 2766 2663 2505 2880 
Q 2244 3097 1772 3097 
Q 1472 3097 1187 3025 
Q 903 2953 641 2809 
L 641 3341 
Q 956 3463 1253 3523 
Q 1550 3584 1831 3584 
Q 2591 3584 2966 3190 
Q 3341 2797 3341 1997 
z
" transform="scale(0.015625)"/>
      <path id="DejaVuSans-69" d="M 603 3500 
L 1178 3500 
L 1178 0 
L 603 0 
L 603 3500 
z
M 603 4863 
L 1178 4863 
L 1178 4134 
L 603 4134 
L 603 4863 
z
" transform="scale(0.015625)"/>
      <path id="DejaVuSans-6c" d="M 603 4863 
L 1178 4863 
L 1178 0 
L 603 0 
L 603 4863 
z
" transform="scale(0.015625)"/>
      <path id="DejaVuSans-79" d="M 2059 -325 
Q 1816 -950 1584 -1140 
Q 1353 -1331 966 -1331 
L 506 -1331 
L 506 -850 
L 844 -850 
Q 1081 -850 1212 -737 
Q 1344 -625 1503 -206 
L 1606 56 
L 191 3500 
L 800 3500 
L 1894 763 
L 2988 3500 
L 3597 3500 
L 2059 -325 
z
" transform="scale(0.015625)"/>
      <path id="DejaVuSans-20" transform="scale(0.015625)"/>
      <path id="DejaVuSans-43" d="M 4122 4306 
L 4122 3641 
Q 3803 3938 3442 4084 
Q 3081 4231 2675 4231 
Q 1875 4231 1450 3742 
Q 1025 3253 1025 2328 
Q 1025 1406 1450 917 
Q 1875 428 2675 428 
Q 3081 428 3442 575 
Q 3803 722 4122 1019 
L 4122 359 
Q 3791 134 3420 21 
Q 3050 -91 2638 -91 
Q 1578 -91 968 557 
Q 359 1206 359 2328 
Q 359 3453 968 4101 
Q 1578 4750 2638 4750 
Q 3056 4750 3426 4639 
Q 3797 4528 4122 4306 
z
" transform="scale(0.015625)"/>
      <path id="DejaVuSans-6f" d="M 1959 3097 
Q 1497 3097 1228 2736 
Q 959 2375 959 1747 
Q 959 1119 1226 758 
Q 1494 397 1959 397 
Q 2419 397 2687 759 
Q 2956 1122 2956 1747 
Q 2956 2369 2687 2733 
Q 2419 3097 1959 3097 
z
M 1959 3584 
Q 2709 3584 3137 3096 
Q 3566 2609 3566 1747 
Q 3566 888 3137 398 
Q 2709 -91 1959 -91 
Q 1206 -91 779 398 
Q 353 888 353 1747 
Q 353 2609 779 3096 
Q 1206 3584 1959 3584 
z
" transform="scale(0.015625)"/>
      <path id="DejaVuSans-6e" d="M 3513 2113 
L 3513 0 
L 2938 0 
L 2938 2094 
Q 2938 2591 2744 2837 
Q 2550 3084 2163 3084 
Q 1697 3084 1428 2787 
Q 1159 2491 1159 1978 
L 1159 0 
L 581 0 
L 581 3500 
L 1159 3500 
L 1159 2956 
Q 1366 3272 1645 3428 
Q 1925 3584 2291 3584 
Q 2894 3584 3203 3211 
Q 3513 2838 3513 2113 
z
" transform="scale(0.015625)"/>
      <path id="DejaVuSans-66" d="M 2375 4863 
L 2375 4384 
L 1825 4384 
Q 1516 4384 1395 4259 
Q 1275 4134 1275 3809 
L 1275 3500 
L 2222 3500 
L 2222 3053 
L 1275 3053 
L 1275 0 
L 697 0 
L 697 3053 
L 147 3053 
L 147 3500 
L 697 3500 
L 697 3744 
Q 697 4328 969 4595 
Q 1241 4863 1831 4863 
L 2375 4863 
z
" transform="scale(0.015625)"/>
      <path id="DejaVuSans-72" d="M 2631 2963 
Q 2534 3019 2420 3045 
Q 2306 3072 2169 3072 
Q 1681 3072 1420 2755 
Q 1159 2438 1159 1844 
L 1159 0 
L 581 0 
L 581 3500 
L 1159 3500 
L 1159 2956 
Q 1341 3275 1631 3429 
Q 1922 3584 2338 3584 
Q 2397 3584 2469 3576 
Q 2541 3569 2628 3553 
L 2631 2963 
z
" transform="scale(0.015625)"/>
      <path id="DejaVuSans-6d" d="M 3328 2828 
Q 3544 3216 3844 3400 
Q 4144 3584 4550 3584 
Q 5097 3584 5394 3201 
Q 5691 2819 5691 2113 
L 5691 0 
L 5113 0 
L 5113 2094 
Q 5113 2597 4934 2840 
Q 4756 3084 4391 3084 
Q 3944 3084 3684 2787 
Q 3425 2491 3425 1978 
L 3425 0 
L 2847 0 
L 2847 2094 
Q 2847 2600 2669 2842 
Q 2491 3084 2119 3084 
Q 1678 3084 1418 2786 
Q 1159 2488 1159 1978 
L 1159 0 
L 581 0 
L 581 3500 
L 1159 3500 
L 1159 2956 
Q 1356 3278 1631 3431 
Q 1906 3584 2284 3584 
Q 2666 3584 2933 3390 
Q 3200 3197 3328 2828 
z
" transform="scale(0.015625)"/>
      <path id="DejaVuSans-65" d="M 3597 1894 
L 3597 1613 
L 953 1613 
Q 991 1019 1311 708 
Q 1631 397 2203 397 
Q 2534 397 2845 478 
Q 3156 559 3463 722 
L 3463 178 
Q 3153 47 2828 -22 
Q 2503 -91 2169 -91 
Q 1331 -91 842 396 
Q 353 884 353 1716 
Q 353 2575 817 3079 
Q 1281 3584 2069 3584 
Q 2775 3584 3186 3129 
Q 3597 2675 3597 1894 
z
M 3022 2063 
Q 3016 2534 2758 2815 
Q 2500 3097 2075 3097 
Q 1594 3097 1305 2825 
Q 1016 2553 972 2059 
L 3022 2063 
z
" transform="scale(0.015625)"/>
      <path id="DejaVuSans-64" d="M 2906 2969 
L 2906 4863 
L 3481 4863 
L 3481 0 
L 2906 0 
L 2906 525 
Q 2725 213 2448 61 
Q 2172 -91 1784 -91 
Q 1150 -91 751 415 
Q 353 922 353 1747 
Q 353 2572 751 3078 
Q 1150 3584 1784 3584 
Q 2172 3584 2448 3432 
Q 2725 3281 2906 2969 
z
M 947 1747 
Q 947 1113 1208 752 
Q 1469 391 1925 391 
Q 2381 391 2643 752 
Q 2906 1113 2906 1747 
Q 2906 2381 2643 2742 
Q 2381 3103 1925 3103 
Q 1469 3103 1208 2742 
Q 947 2381 947 1747 
z
" transform="scale(0.015625)"/>
      <path id="DejaVuSans-73" d="M 2834 3397 
L 2834 2853 
Q 2591 2978 2328 3040 
Q 2066 3103 1784 3103 
Q 1356 3103 1142 2972 
Q 928 2841 928 2578 
Q 928 2378 1081 2264 
Q 1234 2150 1697 2047 
L 1894 2003 
Q 2506 1872 2764 1633 
Q 3022 1394 3022 966 
Q 3022 478 2636 193 
Q 2250 -91 1575 -91 
Q 1294 -91 989 -36 
Q 684 19 347 128 
L 347 722 
Q 666 556 975 473 
Q 1284 391 1588 391 
Q 1994 391 2212 530 
Q 2431 669 2431 922 
Q 2431 1156 2273 1281 
Q 2116 1406 1581 1522 
L 1381 1569 
Q 847 1681 609 1914 
Q 372 2147 372 2553 
Q 372 3047 722 3315 
Q 1072 3584 1716 3584 
Q 2034 3584 2315 3537 
Q 2597 3491 2834 3397 
z
" transform="scale(0.015625)"/>
      <path id="DejaVuSans-46" d="M 628 4666 
L 3309 4666 
L 3309 4134 
L 1259 4134 
L 1259 2759 
L 3109 2759 
L 3109 2228 
L 1259 2228 
L 1259 0 
L 628 0 
L 628 4666 
z
" transform="scale(0.015625)"/>
      <path id="DejaVuSans-63" d="M 3122 3366 
L 3122 2828 
Q 2878 2963 2633 3030 
Q 2388 3097 2138 3097 
Q 1578 3097 1268 2742 
Q 959 2388 959 1747 
Q 959 1106 1268 751 
Q 1578 397 2138 397 
Q 2388 397 2633 464 
Q 2878 531 3122 666 
L 3122 134 
Q 2881 22 2623 -34 
Q 2366 -91 2075 -91 
Q 1284 -91 818 406 
Q 353 903 353 1747 
Q 353 2603 823 3093 
Q 1294 3584 2113 3584 
Q 2378 3584 2631 3529 
Q 2884 3475 3122 3366 
z
" transform="scale(0.015625)"/>
      <path id="DejaVuSans-74" d="M 1172 4494 
L 1172 3500 
L 2356 3500 
L 2356 3053 
L 1172 3053 
L 1172 1153 
Q 1172 725 1289 603 
Q 1406 481 1766 481 
L 2356 481 
L 2356 0 
L 1766 0 
Q 1100 0 847 248 
Q 594 497 594 1153 
L 594 3053 
L 172 3053 
L 172 3500 
L 594 3500 
L 594 4494 
L 1172 4494 
z
" transform="scale(0.015625)"/>
      <path id="DejaVuSans-67" d="M 2906 1791 
Q 2906 2416 2648 2759 
Q 2391 3103 1925 3103 
Q 1463 3103 1205 2759 
Q 947 2416 947 1791 
Q 947 1169 1205 825 
Q 1463 481 1925 481 
Q 2391 481 2648 825 
Q 2906 1169 2906 1791 
z
M 3481 434 
Q 3481 -459 3084 -895 
Q 2688 -1331 1869 -1331 
Q 1566 -1331 1297 -1286 
Q 1028 -1241 775 -1147 
L 775 -588 
Q 1028 -725 1275 -790 
Q 1522 -856 1778 -856 
Q 2344 -856 2625 -561 
Q 2906 -266 2906 331 
L 2906 616 
Q 2728 306 2450 153 
Q 2172 0 1784 0 
Q 1141 0 747 490 
Q 353 981 353 1791 
Q 353 2603 747 3093 
Q 1141 3584 1784 3584 
Q 2172 3584 2450 3431 
Q 2728 3278 2906 2969 
L 2906 3500 
L 3481 3500 
L 3481 434 
z
" transform="scale(0.015625)"/>
      <path id="DejaVuSans-41" d="M 2188 4044 
L 1331 1722 
L 3047 1722 
L 2188 4044 
z
M 1831 4666 
L 2547 4666 
L 4325 0 
L 3669 0 
L 3244 1197 
L 1141 1197 
L 716 0 
L 50 0 
L 1831 4666 
z
" transform="scale(0.015625)"/>
      <path id="DejaVuSans-7a" d="M 353 3500 
L 3084 3500 
L 3084 2975 
L 922 459 
L 3084 459 
L 3084 0 
L 275 0 
L 275 525 
L 2438 3041 
L 353 3041 
L 353 3500 
z
" transform="scale(0.015625)"/>
      <path id="DejaVuSans-62" d="M 3116 1747 
Q 3116 2381 2855 2742 
Q 2594 3103 2138 3103 
Q 1681 3103 1420 2742 
Q 1159 2381 1159 1747 
Q 1159 1113 1420 752 
Q 1681 391 2138 391 
Q 2594 391 2855 752 
Q 3116 1113 3116 1747 
z
M 1159 2969 
Q 1341 3281 1617 3432 
Q 1894 3584 2278 3584 
Q 2916 3584 3314 3078 
Q 3713 2572 3713 1747 
Q 3713 922 3314 415 
Q 2916 -91 2278 -91 
Q 1894 -91 1617 61 
Q 1341 213 1159 525 
L 1159 0 
L 581 0 
L 581 4863 
L 1159 4863 
L 1159 2969 
z
" transform="scale(0.015625)"/>
      <path id="DejaVuSans-6a" d="M 603 3500 
L 1178 3500 
L 1178 -63 
Q 1178 -731 923 -1031 
Q 669 -1331 103 -1331 
L -116 -1331 
L -116 -844 
L 38 -844 
Q 366 -844 484 -692 
Q 603 -541 603 -63 
L 603 3500 
z
M 603 4863 
L 1178 4863 
L 1178 4134 
L 603 4134 
L 603 4863 
z
" transform="scale(0.015625)"/>
     </defs>
     <use xlink:href="#DejaVuSans-44"/>
     <use xlink:href="#DejaVuSans-61" x="77.001953"/>
     <use xlink:href="#DejaVuSans-69" x="138.28125"/>
     <use xlink:href="#DejaVuSans-6c" x="166.064453"/>
     <use xlink:href="#DejaVuSans-79" x="193.847656"/>
     <use xlink:href="#DejaVuSans-20" x="253.027344"/>
     <use xlink:href="#DejaVuSans-43" x="284.814453"/>
     <use xlink:href="#DejaVuSans-6f" x="354.638672"/>
     <use xlink:href="#DejaVuSans-6e" x="415.820312"/>
     <use xlink:href="#DejaVuSans-66" x="479.199219"/>
     <use xlink:href="#DejaVuSans-69" x="514.404297"/>
     <use xlink:href="#DejaVuSans-72" x="542.1875"/>
     <use xlink:href="#DejaVuSans-6d" x="581.550781"/>
     <use xlink:href="#DejaVuSans-65" x="678.962891"/>
     <use xlink:href="#DejaVuSans-64" x="740.486328"/>
     <use xlink:href="#DejaVuSans-20" x="803.962891"/>
     <use xlink:href="#DejaVuSans-43" x="835.75"/>
     <use xlink:href="#DejaVuSans-61" x="905.574219"/>
     <use xlink:href="#DejaVuSans-73" x="966.853516"/>
     <use xlink:href="#DejaVuSans-65" x="1018.953125"/>
     <use xlink:href="#DejaVuSans-73" x="1080.476562"/>
     <use xlink:href="#DejaVuSans-20" x="1132.576172"/>
     <use xlink:href="#DejaVuSans-46" x="1164.363281"/>
     <use xlink:href="#DejaVuSans-6f" x="1218.257812"/>
     <use xlink:href="#DejaVuSans-72" x="1279.439453"/>
     <use xlink:href="#DejaVuSans-65" x="1318.302734"/>
     <use xlink:href="#DejaVuSans-63" x="1379.826172"/>
     <use xlink:href="#DejaVuSans-61" x="1434.806641"/>
     <use xlink:href="#DejaVuSans-73" x="1496.085938"/>
     <use xlink:href="#DejaVuSans-74" x="1548.185547"/>
     <use xlink:href="#DejaVuSans-69" x="1587.394531"/>
     <use xlink:href="#DejaVuSans-6e" x="1615.177734"/>
     <use xlink:href="#DejaVuSans-67" x="1678.556641"/>
     <use xlink:href="#DejaVuSans-20" x="1742.033203"/>
     <use xlink:href="#DejaVuSans-2d" x="1773.820312"/>
     <use xlink:href="#DejaVuSans-20" x="1809.904297"/>
     <use xlink:href="#DejaVuSans-41" x="1841.691406"/>
     <use xlink:href="#DejaVuSans-7a" x="1910.099609"/>
     <use xlink:href="#DejaVuSans-65" x="1962.589844"/>
     <use xlink:href="#DejaVuSans-72" x="2024.113281"/>
     <use xlink:href="#DejaVuSans-62" x="2065.226562"/>
     <use xlink:href="#DejaVuSans-61" x="2128.703125"/>
     <use xlink:href="#DejaVuSans-69" x="2189.982422"/>
     <use xlink:href="#DejaVuSans-6a" x="2217.765625"/>
     <use xlink:href="#DejaVuSans-61" x="2245.548828"/>
     <use xlink:href="#DejaVuSans-6e" x="2306.828125"/>
    </g>
    <!-- ARIMA (2, 1, 1)x(1, 0, 0, 7) (R2 = 0.919333) -->
    <g transform="translate(577.265938 29.7555)scale(0.12 -0.12)">
     <defs>
      <path id="DejaVuSans-52" d="M 2841 2188 
Q 3044 2119 3236 1894 
Q 3428 1669 3622 1275 
L 4263 0 
L 3584 0 
L 2988 1197 
Q 2756 1666 2539 1819 
Q 2322 1972 1947 1972 
L 1259 1972 
L 1259 0 
L 628 0 
L 628 4666 
L 2053 4666 
Q 2853 4666 3247 4331 
Q 3641 3997 3641 3322 
Q 3641 2881 3436 2590 
Q 3231 2300 2841 2188 
z
M 1259 4147 
L 1259 2491 
L 2053 2491 
Q 2509 2491 2742 2702 
Q 2975 2913 2975 3322 
Q 2975 3731 2742 3939 
Q 2509 4147 2053 4147 
L 1259 4147 
z
" transform="scale(0.015625)"/>
      <path id="DejaVuSans-49" d="M 628 4666 
L 1259 4666 
L 1259 0 
L 628 0 
L 628 4666 
z
" transform="scale(0.015625)"/>
      <path id="DejaVuSans-4d" d="M 628 4666 
L 1569 4666 
L 2759 1491 
L 3956 4666 
L 4897 4666 
L 4897 0 
L 4281 0 
L 4281 4097 
L 3078 897 
L 2444 897 
L 1241 4097 
L 1241 0 
L 628 0 
L 628 4666 
z
" transform="scale(0.015625)"/>
      <path id="DejaVuSans-28" d="M 1984 4856 
Q 1566 4138 1362 3434 
Q 1159 2731 1159 2009 
Q 1159 1288 1364 580 
Q 1569 -128 1984 -844 
L 1484 -844 
Q 1016 -109 783 600 
Q 550 1309 550 2009 
Q 550 2706 781 3412 
Q 1013 4119 1484 4856 
L 1984 4856 
z
" transform="scale(0.015625)"/>
      <path id="DejaVuSans-2c" d="M 750 794 
L 1409 794 
L 1409 256 
L 897 -744 
L 494 -744 
L 750 256 
L 750 794 
z
" transform="scale(0.015625)"/>
      <path id="DejaVuSans-29" d="M 513 4856 
L 1013 4856 
Q 1481 4119 1714 3412 
Q 1947 2706 1947 2009 
Q 1947 1309 1714 600 
Q 1481 -109 1013 -844 
L 513 -844 
Q 928 -128 1133 580 
Q 1338 1288 1338 2009 
Q 1338 2731 1133 3434 
Q 928 4138 513 4856 
z
" transform="scale(0.015625)"/>
      <path id="DejaVuSans-78" d="M 3513 3500 
L 2247 1797 
L 3578 0 
L 2900 0 
L 1881 1375 
L 863 0 
L 184 0 
L 1544 1831 
L 300 3500 
L 978 3500 
L 1906 2253 
L 2834 3500 
L 3513 3500 
z
" transform="scale(0.015625)"/>
      <path id="DejaVuSans-3d" d="M 678 2906 
L 4684 2906 
L 4684 2381 
L 678 2381 
L 678 2906 
z
M 678 1631 
L 4684 1631 
L 4684 1100 
L 678 1100 
L 678 1631 
z
" transform="scale(0.015625)"/>
      <path id="DejaVuSans-2e" d="M 684 794 
L 1344 794 
L 1344 0 
L 684 0 
L 684 794 
z
" transform="scale(0.015625)"/>
      <path id="DejaVuSans-39" d="M 703 97 
L 703 672 
Q 941 559 1184 500 
Q 1428 441 1663 441 
Q 2288 441 2617 861 
Q 2947 1281 2994 2138 
Q 2813 1869 2534 1725 
Q 2256 1581 1919 1581 
Q 1219 1581 811 2004 
Q 403 2428 403 3163 
Q 403 3881 828 4315 
Q 1253 4750 1959 4750 
Q 2769 4750 3195 4129 
Q 3622 3509 3622 2328 
Q 3622 1225 3098 567 
Q 2575 -91 1691 -91 
Q 1453 -91 1209 -44 
Q 966 3 703 97 
z
M 1959 2075 
Q 2384 2075 2632 2365 
Q 2881 2656 2881 3163 
Q 2881 3666 2632 3958 
Q 2384 4250 1959 4250 
Q 1534 4250 1286 3958 
Q 1038 3666 1038 3163 
Q 1038 2656 1286 2365 
Q 1534 2075 1959 2075 
z
" transform="scale(0.015625)"/>
     </defs>
     <use xlink:href="#DejaVuSans-41"/>
     <use xlink:href="#DejaVuSans-52" x="68.408203"/>
     <use xlink:href="#DejaVuSans-49" x="137.890625"/>
     <use xlink:href="#DejaVuSans-4d" x="167.382812"/>
     <use xlink:href="#DejaVuSans-41" x="253.662109"/>
     <use xlink:href="#DejaVuSans-20" x="322.070312"/>
     <use xlink:href="#DejaVuSans-28" x="353.857422"/>
     <use xlink:href="#DejaVuSans-32" x="392.871094"/>
     <use xlink:href="#DejaVuSans-2c" x="456.494141"/>
     <use xlink:href="#DejaVuSans-20" x="488.28125"/>
     <use xlink:href="#DejaVuSans-31" x="520.068359"/>
     <use xlink:href="#DejaVuSans-2c" x="583.691406"/>
     <use xlink:href="#DejaVuSans-20" x="615.478516"/>
     <use xlink:href="#DejaVuSans-31" x="647.265625"/>
     <use xlink:href="#DejaVuSans-29" x="710.888672"/>
     <use xlink:href="#DejaVuSans-78" x="749.902344"/>
     <use xlink:href="#DejaVuSans-28" x="809.082031"/>
     <use xlink:href="#DejaVuSans-31" x="848.095703"/>
     <use xlink:href="#DejaVuSans-2c" x="911.71875"/>
     <use xlink:href="#DejaVuSans-20" x="943.505859"/>
     <use xlink:href="#DejaVuSans-30" x="975.292969"/>
     <use xlink:href="#DejaVuSans-2c" x="1038.916016"/>
     <use xlink:href="#DejaVuSans-20" x="1070.703125"/>
     <use xlink:href="#DejaVuSans-30" x="1102.490234"/>
     <use xlink:href="#DejaVuSans-2c" x="1166.113281"/>
     <use xlink:href="#DejaVuSans-20" x="1197.900391"/>
     <use xlink:href="#DejaVuSans-37" x="1229.6875"/>
     <use xlink:href="#DejaVuSans-29" x="1293.310547"/>
     <use xlink:href="#DejaVuSans-20" x="1332.324219"/>
     <use xlink:href="#DejaVuSans-28" x="1364.111328"/>
     <use xlink:href="#DejaVuSans-52" x="1403.125"/>
     <use xlink:href="#DejaVuSans-32" x="1472.607422"/>
     <use xlink:href="#DejaVuSans-20" x="1536.230469"/>
     <use xlink:href="#DejaVuSans-3d" x="1568.017578"/>
     <use xlink:href="#DejaVuSans-20" x="1651.806641"/>
     <use xlink:href="#DejaVuSans-30" x="1683.59375"/>
     <use xlink:href="#DejaVuSans-2e" x="1747.216797"/>
     <use xlink:href="#DejaVuSans-39" x="1779.003906"/>
     <use xlink:href="#DejaVuSans-31" x="1842.626953"/>
     <use xlink:href="#DejaVuSans-39" x="1906.25"/>
     <use xlink:href="#DejaVuSans-33" x="1969.873047"/>
     <use xlink:href="#DejaVuSans-33" x="2033.496094"/>
     <use xlink:href="#DejaVuSans-33" x="2097.119141"/>
     <use xlink:href="#DejaVuSans-29" x="2160.742188"/>
    </g>
   </g>
   <g id="legend_1">
    <g id="patch_7">
     <path d="M 1274.770313 87.789875 
L 1371.85 87.789875 
Q 1373.85 87.789875 1373.85 85.789875 
L 1373.85 42.7555 
Q 1373.85 40.7555 1371.85 40.7555 
L 1274.770313 40.7555 
Q 1272.770313 40.7555 1272.770313 42.7555 
L 1272.770313 85.789875 
Q 1272.770313 87.789875 1274.770313 87.789875 
z
" style="fill: #ffffff; opacity: 0.8; stroke: #cccccc; stroke-linejoin: miter"/>
    </g>
    <g id="line2d_24">
     <path d="M 1276.770313 48.853937 
L 1286.770313 48.853937 
L 1296.770313 48.853937 
" style="fill: none; stroke: #0000ff; stroke-width: 1.5; stroke-linecap: square"/>
    </g>
    <g id="text_22">
     <!-- Actual Value -->
     <g transform="translate(1304.770313 52.353937)scale(0.1 -0.1)">
      <defs>
       <path id="DejaVuSans-75" d="M 544 1381 
L 544 3500 
L 1119 3500 
L 1119 1403 
Q 1119 906 1312 657 
Q 1506 409 1894 409 
Q 2359 409 2629 706 
Q 2900 1003 2900 1516 
L 2900 3500 
L 3475 3500 
L 3475 0 
L 2900 0 
L 2900 538 
Q 2691 219 2414 64 
Q 2138 -91 1772 -91 
Q 1169 -91 856 284 
Q 544 659 544 1381 
z
M 1991 3584 
L 1991 3584 
z
" transform="scale(0.015625)"/>
       <path id="DejaVuSans-56" d="M 1831 0 
L 50 4666 
L 709 4666 
L 2188 738 
L 3669 4666 
L 4325 4666 
L 2547 0 
L 1831 0 
z
" transform="scale(0.015625)"/>
      </defs>
      <use xlink:href="#DejaVuSans-41"/>
      <use xlink:href="#DejaVuSans-63" x="66.658203"/>
      <use xlink:href="#DejaVuSans-74" x="121.638672"/>
      <use xlink:href="#DejaVuSans-75" x="160.847656"/>
      <use xlink:href="#DejaVuSans-61" x="224.226562"/>
      <use xlink:href="#DejaVuSans-6c" x="285.505859"/>
      <use xlink:href="#DejaVuSans-20" x="313.289062"/>
      <use xlink:href="#DejaVuSans-56" x="345.076172"/>
      <use xlink:href="#DejaVuSans-61" x="405.734375"/>
      <use xlink:href="#DejaVuSans-6c" x="467.013672"/>
      <use xlink:href="#DejaVuSans-75" x="494.796875"/>
      <use xlink:href="#DejaVuSans-65" x="558.175781"/>
     </g>
    </g>
    <g id="line2d_25">
     <path d="M 1276.770313 63.532062 
L 1286.770313 63.532062 
L 1296.770313 63.532062 
" style="fill: none; stroke: #ffa500; stroke-width: 1.5; stroke-linecap: square"/>
    </g>
    <g id="text_23">
     <!-- Check Value -->
     <g transform="translate(1304.770313 67.032062)scale(0.1 -0.1)">
      <defs>
       <path id="DejaVuSans-68" d="M 3513 2113 
L 3513 0 
L 2938 0 
L 2938 2094 
Q 2938 2591 2744 2837 
Q 2550 3084 2163 3084 
Q 1697 3084 1428 2787 
Q 1159 2491 1159 1978 
L 1159 0 
L 581 0 
L 581 4863 
L 1159 4863 
L 1159 2956 
Q 1366 3272 1645 3428 
Q 1925 3584 2291 3584 
Q 2894 3584 3203 3211 
Q 3513 2838 3513 2113 
z
" transform="scale(0.015625)"/>
       <path id="DejaVuSans-6b" d="M 581 4863 
L 1159 4863 
L 1159 1991 
L 2875 3500 
L 3609 3500 
L 1753 1863 
L 3688 0 
L 2938 0 
L 1159 1709 
L 1159 0 
L 581 0 
L 581 4863 
z
" transform="scale(0.015625)"/>
      </defs>
      <use xlink:href="#DejaVuSans-43"/>
      <use xlink:href="#DejaVuSans-68" x="69.824219"/>
      <use xlink:href="#DejaVuSans-65" x="133.203125"/>
      <use xlink:href="#DejaVuSans-63" x="194.726562"/>
      <use xlink:href="#DejaVuSans-6b" x="249.707031"/>
      <use xlink:href="#DejaVuSans-20" x="307.617188"/>
      <use xlink:href="#DejaVuSans-56" x="339.404297"/>
      <use xlink:href="#DejaVuSans-61" x="400.0625"/>
      <use xlink:href="#DejaVuSans-6c" x="461.341797"/>
      <use xlink:href="#DejaVuSans-75" x="489.125"/>
      <use xlink:href="#DejaVuSans-65" x="552.503906"/>
     </g>
    </g>
    <g id="line2d_26">
     <path d="M 1276.770313 78.210187 
L 1286.770313 78.210187 
L 1296.770313 78.210187 
" style="fill: none; stroke: #ff0000; stroke-width: 1.5; stroke-linecap: square"/>
    </g>
    <g id="text_24">
     <!-- Predict Value -->
     <g transform="translate(1304.770313 81.710187)scale(0.1 -0.1)">
      <defs>
       <path id="DejaVuSans-50" d="M 1259 4147 
L 1259 2394 
L 2053 2394 
Q 2494 2394 2734 2622 
Q 2975 2850 2975 3272 
Q 2975 3691 2734 3919 
Q 2494 4147 2053 4147 
L 1259 4147 
z
M 628 4666 
L 2053 4666 
Q 2838 4666 3239 4311 
Q 3641 3956 3641 3272 
Q 3641 2581 3239 2228 
Q 2838 1875 2053 1875 
L 1259 1875 
L 1259 0 
L 628 0 
L 628 4666 
z
" transform="scale(0.015625)"/>
      </defs>
      <use xlink:href="#DejaVuSans-50"/>
      <use xlink:href="#DejaVuSans-72" x="58.552734"/>
      <use xlink:href="#DejaVuSans-65" x="97.416016"/>
      <use xlink:href="#DejaVuSans-64" x="158.939453"/>
      <use xlink:href="#DejaVuSans-69" x="222.416016"/>
      <use xlink:href="#DejaVuSans-63" x="250.199219"/>
      <use xlink:href="#DejaVuSans-74" x="305.179688"/>
      <use xlink:href="#DejaVuSans-20" x="344.388672"/>
      <use xlink:href="#DejaVuSans-56" x="376.175781"/>
      <use xlink:href="#DejaVuSans-61" x="436.833984"/>
      <use xlink:href="#DejaVuSans-6c" x="498.113281"/>
      <use xlink:href="#DejaVuSans-75" x="525.896484"/>
      <use xlink:href="#DejaVuSans-65" x="589.275391"/>
     </g>
    </g>
   </g>
  </g>
 </g>
 <defs>
  <clipPath id="p82e006af16">
   <rect x="39.65" y="35.7555" width="1339.2" height="332.64"/>
  </clipPath>
 </defs>
</svg>
