<?xml version="1.0" encoding="utf-8" standalone="no"?>
<!DOCTYPE svg PUBLIC "-//W3C//DTD SVG 1.1//EN"
  "http://www.w3.org/Graphics/SVG/1.1/DTD/svg11.dtd">
<svg xmlns:xlink="http://www.w3.org/1999/xlink" width="1392.4125pt" height="392.273625pt" viewBox="0 0 1392.4125 392.273625" xmlns="http://www.w3.org/2000/svg" version="1.1">
 <metadata>
  <rdf:RDF xmlns:dc="http://purl.org/dc/elements/1.1/" xmlns:cc="http://creativecommons.org/ns#" xmlns:rdf="http://www.w3.org/1999/02/22-rdf-syntax-ns#">
   <cc:Work>
    <dc:type rdf:resource="http://purl.org/dc/dcmitype/StillImage"/>
    <dc:date>2022-07-09T20:08:51.449495</dc:date>
    <dc:format>image/svg+xml</dc:format>
    <dc:creator>
     <cc:Agent>
      <dc:title>Matplotlib v3.5.2, https://matplotlib.org/</dc:title>
     </cc:Agent>
    </dc:creator>
   </cc:Work>
  </rdf:RDF>
 </metadata>
 <defs>
  <style type="text/css">*{stroke-linejoin: round; stroke-linecap: butt}</style>
 </defs>
 <g id="figure_1">
  <g id="patch_1">
   <path d="M 0 392.273625 
L 1392.4125 392.273625 
L 1392.4125 0 
L 0 0 
z
" style="fill: #ffffff"/>
  </g>
  <g id="axes_1">
   <g id="patch_2">
    <path d="M 46.0125 368.3955 
L 1385.2125 368.3955 
L 1385.2125 35.7555 
L 46.0125 35.7555 
z
" style="fill: #ffffff"/>
   </g>
   <g id="matplotlib.axis_1">
    <g id="xtick_1">
     <g id="line2d_1">
      <defs>
       <path id="m2bdde950e0" d="M 0 0 
L 0 3.5 
" style="stroke: #000000; stroke-width: 0.8"/>
      </defs>
      <g>
       <use xlink:href="#m2bdde950e0" x="78.820962" y="368.3955" style="stroke: #000000; stroke-width: 0.8"/>
      </g>
     </g>
     <g id="text_1">
      <!-- 2020-01 -->
      <g transform="translate(57.929556 382.993937)scale(0.1 -0.1)">
       <defs>
        <path id="DejaVuSans-32" d="M 1228 531 
L 3431 531 
L 3431 0 
L 469 0 
L 469 531 
Q 828 903 1448 1529 
Q 2069 2156 2228 2338 
Q 2531 2678 2651 2914 
Q 2772 3150 2772 3378 
Q 2772 3750 2511 3984 
Q 2250 4219 1831 4219 
Q 1534 4219 1204 4116 
Q 875 4013 500 3803 
L 500 4441 
Q 881 4594 1212 4672 
Q 1544 4750 1819 4750 
Q 2544 4750 2975 4387 
Q 3406 4025 3406 3419 
Q 3406 3131 3298 2873 
Q 3191 2616 2906 2266 
Q 2828 2175 2409 1742 
Q 1991 1309 1228 531 
z
" transform="scale(0.015625)"/>
        <path id="DejaVuSans-30" d="M 2034 4250 
Q 1547 4250 1301 3770 
Q 1056 3291 1056 2328 
Q 1056 1369 1301 889 
Q 1547 409 2034 409 
Q 2525 409 2770 889 
Q 3016 1369 3016 2328 
Q 3016 3291 2770 3770 
Q 2525 4250 2034 4250 
z
M 2034 4750 
Q 2819 4750 3233 4129 
Q 3647 3509 3647 2328 
Q 3647 1150 3233 529 
Q 2819 -91 2034 -91 
Q 1250 -91 836 529 
Q 422 1150 422 2328 
Q 422 3509 836 4129 
Q 1250 4750 2034 4750 
z
" transform="scale(0.015625)"/>
        <path id="DejaVuSans-2d" d="M 313 2009 
L 1997 2009 
L 1997 1497 
L 313 1497 
L 313 2009 
z
" transform="scale(0.015625)"/>
        <path id="DejaVuSans-31" d="M 794 531 
L 1825 531 
L 1825 4091 
L 703 3866 
L 703 4441 
L 1819 4666 
L 2450 4666 
L 2450 531 
L 3481 531 
L 3481 0 
L 794 0 
L 794 531 
z
" transform="scale(0.015625)"/>
       </defs>
       <use xlink:href="#DejaVuSans-32"/>
       <use xlink:href="#DejaVuSans-30" x="63.623047"/>
       <use xlink:href="#DejaVuSans-32" x="127.246094"/>
       <use xlink:href="#DejaVuSans-30" x="190.869141"/>
       <use xlink:href="#DejaVuSans-2d" x="254.492188"/>
       <use xlink:href="#DejaVuSans-30" x="290.576172"/>
       <use xlink:href="#DejaVuSans-31" x="354.199219"/>
      </g>
     </g>
    </g>
    <g id="xtick_2">
     <g id="line2d_2">
      <g>
       <use xlink:href="#m2bdde950e0" x="200.432777" y="368.3955" style="stroke: #000000; stroke-width: 0.8"/>
      </g>
     </g>
     <g id="text_2">
      <!-- 2020-04 -->
      <g transform="translate(179.541371 382.993937)scale(0.1 -0.1)">
       <defs>
        <path id="DejaVuSans-34" d="M 2419 4116 
L 825 1625 
L 2419 1625 
L 2419 4116 
z
M 2253 4666 
L 3047 4666 
L 3047 1625 
L 3713 1625 
L 3713 1100 
L 3047 1100 
L 3047 0 
L 2419 0 
L 2419 1100 
L 313 1100 
L 313 1709 
L 2253 4666 
z
" transform="scale(0.015625)"/>
       </defs>
       <use xlink:href="#DejaVuSans-32"/>
       <use xlink:href="#DejaVuSans-30" x="63.623047"/>
       <use xlink:href="#DejaVuSans-32" x="127.246094"/>
       <use xlink:href="#DejaVuSans-30" x="190.869141"/>
       <use xlink:href="#DejaVuSans-2d" x="254.492188"/>
       <use xlink:href="#DejaVuSans-30" x="290.576172"/>
       <use xlink:href="#DejaVuSans-34" x="354.199219"/>
      </g>
     </g>
    </g>
    <g id="xtick_3">
     <g id="line2d_3">
      <g>
       <use xlink:href="#m2bdde950e0" x="322.044593" y="368.3955" style="stroke: #000000; stroke-width: 0.8"/>
      </g>
     </g>
     <g id="text_3">
      <!-- 2020-07 -->
      <g transform="translate(301.153186 382.993937)scale(0.1 -0.1)">
       <defs>
        <path id="DejaVuSans-37" d="M 525 4666 
L 3525 4666 
L 3525 4397 
L 1831 0 
L 1172 0 
L 2766 4134 
L 525 4134 
L 525 4666 
z
" transform="scale(0.015625)"/>
       </defs>
       <use xlink:href="#DejaVuSans-32"/>
       <use xlink:href="#DejaVuSans-30" x="63.623047"/>
       <use xlink:href="#DejaVuSans-32" x="127.246094"/>
       <use xlink:href="#DejaVuSans-30" x="190.869141"/>
       <use xlink:href="#DejaVuSans-2d" x="254.492188"/>
       <use xlink:href="#DejaVuSans-30" x="290.576172"/>
       <use xlink:href="#DejaVuSans-37" x="354.199219"/>
      </g>
     </g>
    </g>
    <g id="xtick_4">
     <g id="line2d_4">
      <g>
       <use xlink:href="#m2bdde950e0" x="444.992801" y="368.3955" style="stroke: #000000; stroke-width: 0.8"/>
      </g>
     </g>
     <g id="text_4">
      <!-- 2020-10 -->
      <g transform="translate(424.101395 382.993937)scale(0.1 -0.1)">
       <use xlink:href="#DejaVuSans-32"/>
       <use xlink:href="#DejaVuSans-30" x="63.623047"/>
       <use xlink:href="#DejaVuSans-32" x="127.246094"/>
       <use xlink:href="#DejaVuSans-30" x="190.869141"/>
       <use xlink:href="#DejaVuSans-2d" x="254.492188"/>
       <use xlink:href="#DejaVuSans-31" x="290.576172"/>
       <use xlink:href="#DejaVuSans-30" x="354.199219"/>
      </g>
     </g>
    </g>
    <g id="xtick_5">
     <g id="line2d_5">
      <g>
       <use xlink:href="#m2bdde950e0" x="567.94101" y="368.3955" style="stroke: #000000; stroke-width: 0.8"/>
      </g>
     </g>
     <g id="text_5">
      <!-- 2021-01 -->
      <g transform="translate(547.049604 382.993937)scale(0.1 -0.1)">
       <use xlink:href="#DejaVuSans-32"/>
       <use xlink:href="#DejaVuSans-30" x="63.623047"/>
       <use xlink:href="#DejaVuSans-32" x="127.246094"/>
       <use xlink:href="#DejaVuSans-31" x="190.869141"/>
       <use xlink:href="#DejaVuSans-2d" x="254.492188"/>
       <use xlink:href="#DejaVuSans-30" x="290.576172"/>
       <use xlink:href="#DejaVuSans-31" x="354.199219"/>
      </g>
     </g>
    </g>
    <g id="xtick_6">
     <g id="line2d_6">
      <g>
       <use xlink:href="#m2bdde950e0" x="688.216432" y="368.3955" style="stroke: #000000; stroke-width: 0.8"/>
      </g>
     </g>
     <g id="text_6">
      <!-- 2021-04 -->
      <g transform="translate(667.325025 382.993937)scale(0.1 -0.1)">
       <use xlink:href="#DejaVuSans-32"/>
       <use xlink:href="#DejaVuSans-30" x="63.623047"/>
       <use xlink:href="#DejaVuSans-32" x="127.246094"/>
       <use xlink:href="#DejaVuSans-31" x="190.869141"/>
       <use xlink:href="#DejaVuSans-2d" x="254.492188"/>
       <use xlink:href="#DejaVuSans-30" x="290.576172"/>
       <use xlink:href="#DejaVuSans-34" x="354.199219"/>
      </g>
     </g>
    </g>
    <g id="xtick_7">
     <g id="line2d_7">
      <g>
       <use xlink:href="#m2bdde950e0" x="809.828247" y="368.3955" style="stroke: #000000; stroke-width: 0.8"/>
      </g>
     </g>
     <g id="text_7">
      <!-- 2021-07 -->
      <g transform="translate(788.936841 382.993937)scale(0.1 -0.1)">
       <use xlink:href="#DejaVuSans-32"/>
       <use xlink:href="#DejaVuSans-30" x="63.623047"/>
       <use xlink:href="#DejaVuSans-32" x="127.246094"/>
       <use xlink:href="#DejaVuSans-31" x="190.869141"/>
       <use xlink:href="#DejaVuSans-2d" x="254.492188"/>
       <use xlink:href="#DejaVuSans-30" x="290.576172"/>
       <use xlink:href="#DejaVuSans-37" x="354.199219"/>
      </g>
     </g>
    </g>
    <g id="xtick_8">
     <g id="line2d_8">
      <g>
       <use xlink:href="#m2bdde950e0" x="932.776456" y="368.3955" style="stroke: #000000; stroke-width: 0.8"/>
      </g>
     </g>
     <g id="text_8">
      <!-- 2021-10 -->
      <g transform="translate(911.885049 382.993937)scale(0.1 -0.1)">
       <use xlink:href="#DejaVuSans-32"/>
       <use xlink:href="#DejaVuSans-30" x="63.623047"/>
       <use xlink:href="#DejaVuSans-32" x="127.246094"/>
       <use xlink:href="#DejaVuSans-31" x="190.869141"/>
       <use xlink:href="#DejaVuSans-2d" x="254.492188"/>
       <use xlink:href="#DejaVuSans-31" x="290.576172"/>
       <use xlink:href="#DejaVuSans-30" x="354.199219"/>
      </g>
     </g>
    </g>
    <g id="xtick_9">
     <g id="line2d_9">
      <g>
       <use xlink:href="#m2bdde950e0" x="1055.724664" y="368.3955" style="stroke: #000000; stroke-width: 0.8"/>
      </g>
     </g>
     <g id="text_9">
      <!-- 2022-01 -->
      <g transform="translate(1034.833258 382.993937)scale(0.1 -0.1)">
       <use xlink:href="#DejaVuSans-32"/>
       <use xlink:href="#DejaVuSans-30" x="63.623047"/>
       <use xlink:href="#DejaVuSans-32" x="127.246094"/>
       <use xlink:href="#DejaVuSans-32" x="190.869141"/>
       <use xlink:href="#DejaVuSans-2d" x="254.492188"/>
       <use xlink:href="#DejaVuSans-30" x="290.576172"/>
       <use xlink:href="#DejaVuSans-31" x="354.199219"/>
      </g>
     </g>
    </g>
    <g id="xtick_10">
     <g id="line2d_10">
      <g>
       <use xlink:href="#m2bdde950e0" x="1176.000086" y="368.3955" style="stroke: #000000; stroke-width: 0.8"/>
      </g>
     </g>
     <g id="text_10">
      <!-- 2022-04 -->
      <g transform="translate(1155.10868 382.993937)scale(0.1 -0.1)">
       <use xlink:href="#DejaVuSans-32"/>
       <use xlink:href="#DejaVuSans-30" x="63.623047"/>
       <use xlink:href="#DejaVuSans-32" x="127.246094"/>
       <use xlink:href="#DejaVuSans-32" x="190.869141"/>
       <use xlink:href="#DejaVuSans-2d" x="254.492188"/>
       <use xlink:href="#DejaVuSans-30" x="290.576172"/>
       <use xlink:href="#DejaVuSans-34" x="354.199219"/>
      </g>
     </g>
    </g>
    <g id="xtick_11">
     <g id="line2d_11">
      <g>
       <use xlink:href="#m2bdde950e0" x="1297.611901" y="368.3955" style="stroke: #000000; stroke-width: 0.8"/>
      </g>
     </g>
     <g id="text_11">
      <!-- 2022-07 -->
      <g transform="translate(1276.720495 382.993937)scale(0.1 -0.1)">
       <use xlink:href="#DejaVuSans-32"/>
       <use xlink:href="#DejaVuSans-30" x="63.623047"/>
       <use xlink:href="#DejaVuSans-32" x="127.246094"/>
       <use xlink:href="#DejaVuSans-32" x="190.869141"/>
       <use xlink:href="#DejaVuSans-2d" x="254.492188"/>
       <use xlink:href="#DejaVuSans-30" x="290.576172"/>
       <use xlink:href="#DejaVuSans-37" x="354.199219"/>
      </g>
     </g>
    </g>
   </g>
   <g id="matplotlib.axis_2">
    <g id="ytick_1">
     <g id="line2d_12">
      <defs>
       <path id="mabb6153292" d="M 0 0 
L -3.5 0 
" style="stroke: #000000; stroke-width: 0.8"/>
      </defs>
      <g>
       <use xlink:href="#mabb6153292" x="46.0125" y="353.2755" style="stroke: #000000; stroke-width: 0.8"/>
      </g>
     </g>
     <g id="text_12">
      <!-- 0 -->
      <g transform="translate(32.65 357.074719)scale(0.1 -0.1)">
       <use xlink:href="#DejaVuSans-30"/>
      </g>
     </g>
    </g>
    <g id="ytick_2">
     <g id="line2d_13">
      <g>
       <use xlink:href="#mabb6153292" x="46.0125" y="305.430819" style="stroke: #000000; stroke-width: 0.8"/>
      </g>
     </g>
     <g id="text_13">
      <!-- 10000 -->
      <g transform="translate(7.2 309.230038)scale(0.1 -0.1)">
       <use xlink:href="#DejaVuSans-31"/>
       <use xlink:href="#DejaVuSans-30" x="63.623047"/>
       <use xlink:href="#DejaVuSans-30" x="127.246094"/>
       <use xlink:href="#DejaVuSans-30" x="190.869141"/>
       <use xlink:href="#DejaVuSans-30" x="254.492188"/>
      </g>
     </g>
    </g>
    <g id="ytick_3">
     <g id="line2d_14">
      <g>
       <use xlink:href="#mabb6153292" x="46.0125" y="257.586139" style="stroke: #000000; stroke-width: 0.8"/>
      </g>
     </g>
     <g id="text_14">
      <!-- 20000 -->
      <g transform="translate(7.2 261.385357)scale(0.1 -0.1)">
       <use xlink:href="#DejaVuSans-32"/>
       <use xlink:href="#DejaVuSans-30" x="63.623047"/>
       <use xlink:href="#DejaVuSans-30" x="127.246094"/>
       <use xlink:href="#DejaVuSans-30" x="190.869141"/>
       <use xlink:href="#DejaVuSans-30" x="254.492188"/>
      </g>
     </g>
    </g>
    <g id="ytick_4">
     <g id="line2d_15">
      <g>
       <use xlink:href="#mabb6153292" x="46.0125" y="209.741458" style="stroke: #000000; stroke-width: 0.8"/>
      </g>
     </g>
     <g id="text_15">
      <!-- 30000 -->
      <g transform="translate(7.2 213.540677)scale(0.1 -0.1)">
       <defs>
        <path id="DejaVuSans-33" d="M 2597 2516 
Q 3050 2419 3304 2112 
Q 3559 1806 3559 1356 
Q 3559 666 3084 287 
Q 2609 -91 1734 -91 
Q 1441 -91 1130 -33 
Q 819 25 488 141 
L 488 750 
Q 750 597 1062 519 
Q 1375 441 1716 441 
Q 2309 441 2620 675 
Q 2931 909 2931 1356 
Q 2931 1769 2642 2001 
Q 2353 2234 1838 2234 
L 1294 2234 
L 1294 2753 
L 1863 2753 
Q 2328 2753 2575 2939 
Q 2822 3125 2822 3475 
Q 2822 3834 2567 4026 
Q 2313 4219 1838 4219 
Q 1578 4219 1281 4162 
Q 984 4106 628 3988 
L 628 4550 
Q 988 4650 1302 4700 
Q 1616 4750 1894 4750 
Q 2613 4750 3031 4423 
Q 3450 4097 3450 3541 
Q 3450 3153 3228 2886 
Q 3006 2619 2597 2516 
z
" transform="scale(0.015625)"/>
       </defs>
       <use xlink:href="#DejaVuSans-33"/>
       <use xlink:href="#DejaVuSans-30" x="63.623047"/>
       <use xlink:href="#DejaVuSans-30" x="127.246094"/>
       <use xlink:href="#DejaVuSans-30" x="190.869141"/>
       <use xlink:href="#DejaVuSans-30" x="254.492188"/>
      </g>
     </g>
    </g>
    <g id="ytick_5">
     <g id="line2d_16">
      <g>
       <use xlink:href="#mabb6153292" x="46.0125" y="161.896777" style="stroke: #000000; stroke-width: 0.8"/>
      </g>
     </g>
     <g id="text_16">
      <!-- 40000 -->
      <g transform="translate(7.2 165.695996)scale(0.1 -0.1)">
       <use xlink:href="#DejaVuSans-34"/>
       <use xlink:href="#DejaVuSans-30" x="63.623047"/>
       <use xlink:href="#DejaVuSans-30" x="127.246094"/>
       <use xlink:href="#DejaVuSans-30" x="190.869141"/>
       <use xlink:href="#DejaVuSans-30" x="254.492188"/>
      </g>
     </g>
    </g>
    <g id="ytick_6">
     <g id="line2d_17">
      <g>
       <use xlink:href="#mabb6153292" x="46.0125" y="114.052097" style="stroke: #000000; stroke-width: 0.8"/>
      </g>
     </g>
     <g id="text_17">
      <!-- 50000 -->
      <g transform="translate(7.2 117.851315)scale(0.1 -0.1)">
       <defs>
        <path id="DejaVuSans-35" d="M 691 4666 
L 3169 4666 
L 3169 4134 
L 1269 4134 
L 1269 2991 
Q 1406 3038 1543 3061 
Q 1681 3084 1819 3084 
Q 2600 3084 3056 2656 
Q 3513 2228 3513 1497 
Q 3513 744 3044 326 
Q 2575 -91 1722 -91 
Q 1428 -91 1123 -41 
Q 819 9 494 109 
L 494 744 
Q 775 591 1075 516 
Q 1375 441 1709 441 
Q 2250 441 2565 725 
Q 2881 1009 2881 1497 
Q 2881 1984 2565 2268 
Q 2250 2553 1709 2553 
Q 1456 2553 1204 2497 
Q 953 2441 691 2322 
L 691 4666 
z
" transform="scale(0.015625)"/>
       </defs>
       <use xlink:href="#DejaVuSans-35"/>
       <use xlink:href="#DejaVuSans-30" x="63.623047"/>
       <use xlink:href="#DejaVuSans-30" x="127.246094"/>
       <use xlink:href="#DejaVuSans-30" x="190.869141"/>
       <use xlink:href="#DejaVuSans-30" x="254.492188"/>
      </g>
     </g>
    </g>
    <g id="ytick_7">
     <g id="line2d_18">
      <g>
       <use xlink:href="#mabb6153292" x="46.0125" y="66.207416" style="stroke: #000000; stroke-width: 0.8"/>
      </g>
     </g>
     <g id="text_18">
      <!-- 60000 -->
      <g transform="translate(7.2 70.006635)scale(0.1 -0.1)">
       <defs>
        <path id="DejaVuSans-36" d="M 2113 2584 
Q 1688 2584 1439 2293 
Q 1191 2003 1191 1497 
Q 1191 994 1439 701 
Q 1688 409 2113 409 
Q 2538 409 2786 701 
Q 3034 994 3034 1497 
Q 3034 2003 2786 2293 
Q 2538 2584 2113 2584 
z
M 3366 4563 
L 3366 3988 
Q 3128 4100 2886 4159 
Q 2644 4219 2406 4219 
Q 1781 4219 1451 3797 
Q 1122 3375 1075 2522 
Q 1259 2794 1537 2939 
Q 1816 3084 2150 3084 
Q 2853 3084 3261 2657 
Q 3669 2231 3669 1497 
Q 3669 778 3244 343 
Q 2819 -91 2113 -91 
Q 1303 -91 875 529 
Q 447 1150 447 2328 
Q 447 3434 972 4092 
Q 1497 4750 2381 4750 
Q 2619 4750 2861 4703 
Q 3103 4656 3366 4563 
z
" transform="scale(0.015625)"/>
       </defs>
       <use xlink:href="#DejaVuSans-36"/>
       <use xlink:href="#DejaVuSans-30" x="63.623047"/>
       <use xlink:href="#DejaVuSans-30" x="127.246094"/>
       <use xlink:href="#DejaVuSans-30" x="190.869141"/>
       <use xlink:href="#DejaVuSans-30" x="254.492188"/>
      </g>
     </g>
    </g>
   </g>
   <g id="line2d_19">
    <path d="M 106.885227 353.2755 
L 216.4695 353.184595 
L 220.478681 353.122397 
L 221.815075 353.122397 
L 223.151468 352.959725 
L 224.487862 352.959725 
L 236.515404 351.754039 
L 237.851797 351.481324 
L 239.188191 351.481324 
L 240.524585 351.160765 
L 241.860978 350.725379 
L 243.197372 350.443095 
L 248.542946 348.825945 
L 249.87934 348.825945 
L 251.215733 347.959956 
L 252.552127 347.706379 
L 253.88852 346.744701 
L 255.224914 345.974402 
L 257.897701 344.577337 
L 259.234095 343.878805 
L 260.570488 343.878805 
L 263.243275 340.878943 
L 264.579669 340.878943 
L 265.916063 340.223471 
L 267.252456 338.261839 
L 268.58885 338.261839 
L 271.261637 335.888743 
L 272.59803 334.970125 
L 275.270818 333.439095 
L 276.607211 332.482202 
L 277.943605 332.482202 
L 279.279998 331.64492 
L 280.616392 330.310053 
L 281.952785 329.228764 
L 284.625573 327.869975 
L 289.971147 324.18115 
L 291.30754 324.18115 
L 297.989508 320.363144 
L 299.325902 319.750732 
L 301.998689 317.70298 
L 304.671476 314.904066 
L 306.00787 314.904066 
L 307.344263 313.009417 
L 308.680657 312.224764 
L 311.353444 311.191319 
L 312.689838 310.755932 
L 314.026231 310.755932 
L 315.362625 310.301408 
L 316.699018 308.985679 
L 318.035412 308.712964 
L 319.371805 308.684258 
L 320.708199 308.435465 
L 322.044593 307.823053 
L 323.380986 307.473787 
L 324.71738 306.918789 
L 326.053773 306.918789 
L 327.390167 306.5456 
L 328.72656 306.5456 
L 331.399348 305.445173 
L 332.735741 305.028924 
L 334.072135 304.454788 
L 335.408528 304.454788 
L 336.744922 304.234702 
L 338.081315 304.234702 
L 339.417709 303.918927 
L 342.090496 302.909405 
L 344.763283 302.909405 
L 347.436071 300.684627 
L 348.772464 300.684627 
L 351.445251 299.512432 
L 352.781645 299.201442 
L 354.118038 299.201442 
L 355.454432 298.804331 
L 356.790826 298.617737 
L 359.463613 297.876144 
L 362.1364 297.876144 
L 363.472793 297.565154 
L 364.809187 297.115414 
L 366.145581 297.115414 
L 367.481974 296.914466 
L 368.818368 296.914466 
L 370.154761 296.579553 
L 371.491155 296.369037 
L 372.827548 296.369037 
L 375.500336 295.703996 
L 376.836729 295.703996 
L 378.173123 295.311669 
L 380.84591 294.85236 
L 383.518697 293.900251 
L 386.191484 293.249564 
L 388.864271 292.88116 
L 390.200665 292.598876 
L 391.537058 291.862068 
L 394.209846 291.201811 
L 395.546239 291.201811 
L 396.882633 290.862114 
L 398.219026 290.685089 
L 399.55542 290.173151 
L 408.910175 290.173151 
L 410.246568 289.130137 
L 411.582962 288.986603 
L 412.919356 288.986603 
L 414.255749 288.828715 
L 416.928536 288.828715 
L 418.26493 288.60863 
L 420.937717 288.532078 
L 430.292472 288.422035 
L 432.965259 288.311993 
L 435.638046 288.24501 
L 439.647227 288.15889 
L 440.983621 288.144536 
L 443.656408 287.986649 
L 451.674769 287.88139 
L 461.029524 287.771348 
L 474.39346 287.5704 
L 479.739034 287.503418 
L 485.084609 287.230703 
L 487.757396 287.158936 
L 490.430183 286.747472 
L 491.766576 286.312085 
L 494.439364 285.862345 
L 502.457725 283.910282 
L 503.794119 283.29787 
L 505.130512 282.809854 
L 506.466906 281.283609 
L 507.803299 280.776455 
L 509.139693 280.077923 
L 510.476086 278.972711 
L 511.81248 277.49431 
L 513.148874 276.475219 
L 514.485267 275.829315 
L 517.158054 273.618891 
L 519.830841 271.614199 
L 521.167235 270.006618 
L 522.503629 268.939681 
L 523.840022 268.064124 
L 527.849203 264.595384 
L 530.52199 261.432851 
L 533.194777 258.796609 
L 534.531171 257.184243 
L 535.867564 256.169936 
L 537.203958 255.347008 
L 538.540352 253.548048 
L 539.876745 252.098354 
L 541.213139 250.954866 
L 542.549532 249.97405 
L 543.885926 248.66789 
L 545.222319 247.624876 
L 546.558713 246.749319 
L 547.895107 245.046048 
L 549.2315 244.079585 
L 550.567894 243.280579 
L 551.904287 242.754288 
L 553.240681 241.720843 
L 559.922649 235.634999 
L 561.259042 235.127846 
L 563.931829 233.37673 
L 565.268223 232.525095 
L 566.604617 231.271564 
L 567.94101 230.171137 
L 570.613797 228.692736 
L 571.950191 227.544464 
L 578.632159 227.544464 
L 579.968552 221.731335 
L 582.641339 220.420391 
L 583.977733 220.138107 
L 586.65052 218.846301 
L 587.986914 218.453974 
L 589.323307 218.195613 
L 590.659701 217.793718 
L 591.996094 217.157384 
L 593.332488 216.812902 
L 601.350849 216.812902 
L 602.687243 214.554633 
L 604.023637 214.210151 
L 605.36003 213.133646 
L 606.696424 213.133646 
L 609.369211 212.3777 
L 613.378392 211.765288 
L 614.714785 211.492573 
L 617.387572 211.492573 
L 618.723966 210.865808 
L 620.060359 210.454344 
L 621.396753 210.454344 
L 622.733147 210.062017 
L 628.078721 210.062017 
L 629.415115 209.492666 
L 633.424295 209.129046 
L 637.433476 209.129046 
L 638.76987 208.760642 
L 640.106263 208.612324 
L 641.442657 208.612324 
L 644.115444 208.229566 
L 648.124625 207.746335 
L 649.461018 207.449698 
L 653.470199 207.449698 
L 654.806592 207.157845 
L 656.142986 207.157845 
L 657.47938 206.459313 
L 660.152167 206.459313 
L 661.48856 205.564617 
L 665.497741 205.564617 
L 666.834135 205.009619 
L 673.516102 205.009619 
L 674.852496 204.253673 
L 676.18889 204.253673 
L 678.861677 203.009711 
L 685.543645 203.009711 
L 686.880038 200.971528 
L 704.253155 200.971528 
L 705.589548 195.713398 
L 706.925942 195.713398 
L 708.262335 195.282796 
L 712.271516 195.282796 
L 714.944303 194.636892 
L 716.280697 192.522157 
L 717.61709 192.168107 
L 721.626271 192.168107 
L 722.962665 191.125093 
L 724.299058 190.871516 
L 732.31742 190.871516 
L 733.653813 190.211259 
L 734.990207 188.397946 
L 738.999388 188.397946 
L 740.335781 186.350194 
L 763.054472 186.350194 
L 764.390865 184.436406 
L 767.063653 184.436406 
L 768.400046 183.450806 
L 771.072833 183.249858 
L 772.409227 182.680507 
L 776.418408 182.680507 
L 777.754801 181.015512 
L 779.091195 181.015512 
L 780.427588 180.450945 
L 781.763982 180.063403 
L 785.773163 180.063403 
L 787.109556 179.580171 
L 789.782343 179.580171 
L 791.118737 179.374439 
L 797.800705 179.374439 
L 799.137098 178.537157 
L 801.809885 178.288365 
L 804.482673 178.288365 
L 805.819066 178.068279 
L 807.15546 178.068279 
L 808.491853 177.88647 
L 813.837428 177.88647 
L 815.173821 177.642462 
L 816.510215 177.21186 
L 821.855789 177.183153 
L 827.201363 177.183153 
L 828.537757 176.317164 
L 832.546938 176.317164 
L 833.883331 175.589925 
L 861.947596 175.589925 
L 863.28399 173.723982 
L 869.965958 173.652215 
L 872.638745 173.590017 
L 873.975138 173.302949 
L 880.657106 173.192906 
L 883.329893 173.082864 
L 884.666287 172.910623 
L 894.021042 172.848425 
L 895.357436 172.011143 
L 902.039404 172.054203 
L 903.375797 171.795842 
L 911.394159 171.700152 
L 912.730552 171.489636 
L 916.739733 171.489636 
L 918.076126 171.26955 
L 920.748914 171.22649 
L 922.085307 171.097309 
L 926.094488 171.097309 
L 927.430881 170.504035 
L 930.103669 170.293519 
L 931.440062 170.111709 
L 935.449243 170.111709 
L 936.785636 169.815072 
L 938.12203 168.44193 
L 939.458424 168.284042 
L 940.794817 168.26012 
L 943.467604 167.523312 
L 946.140391 167.508958 
L 947.476785 167.236244 
L 948.813179 166.111894 
L 950.149572 164.690907 
L 951.485966 164.690907 
L 952.822359 164.049788 
L 954.158753 164.049788 
L 955.495146 162.667077 
L 958.167934 162.667077 
L 959.504327 161.494882 
L 960.840721 161.494882 
L 962.177114 160.758074 
L 963.513508 160.758074 
L 964.849901 159.825103 
L 983.559411 159.825103 
L 984.895805 157.021404 
L 986.232199 157.021404 
L 987.568592 156.667354 
L 991.577773 156.667354 
L 992.914167 155.633909 
L 994.25056 155.633909 
L 995.586954 155.432961 
L 996.923347 154.442576 
L 1000.932528 154.442576 
L 1002.268922 153.179477 
L 1004.941709 152.524004 
L 1006.278102 152.059911 
L 1010.287283 152.059911 
L 1011.623677 148.375871 
L 1012.96007 147.141478 
L 1014.296464 146.44773 
L 1015.632857 145.203768 
L 1019.642038 145.203768 
L 1020.978432 141.945546 
L 1022.314825 141.945546 
L 1023.651219 140.816411 
L 1024.987612 140.816411 
L 1026.324006 140.227922 
L 1028.996793 140.227922 
L 1030.333187 138.562927 
L 1031.66958 137.438577 
L 1038.351548 137.438577 
L 1039.687942 133.663631 
L 1041.024335 133.663631 
L 1042.360729 133.012944 
L 1043.697122 132.711522 
L 1047.706303 132.711522 
L 1049.042697 132.395747 
L 1050.37909 131.792904 
L 1051.715484 130.711615 
L 1058.397452 130.711615 
L 1059.733845 127.104126 
L 1061.070239 127.104126 
L 1062.406632 126.285982 
L 1066.415813 126.285982 
L 1067.752207 121.922547 
L 1069.0886 119.73126 
L 1070.424994 118.377256 
L 1071.761387 114.453992 
L 1073.097781 113.521021 
L 1074.434174 109.34418 
L 1075.770568 109.34418 
L 1077.106962 105.430485 
L 1078.443355 102.832519 
L 1079.779749 99.315935 
L 1081.116142 95.110388 
L 1085.125323 95.110388 
L 1086.461717 89.416871 
L 1087.79811 86.144294 
L 1089.134504 82.49853 
L 1090.470897 80.053667 
L 1094.480078 80.053667 
L 1095.816472 77.537036 
L 1097.152865 74.781183 
L 1098.489259 72.795629 
L 1099.825652 71.594727 
L 1103.834833 71.594727 
L 1105.171227 70.063697 
L 1106.50762 69.585251 
L 1107.844014 69.341243 
L 1109.180407 68.814951 
L 1110.516801 68.480038 
L 1111.853195 67.972885 
L 1113.189588 67.972885 
L 1114.525982 66.671509 
L 1115.862375 66.671509 
L 1117.198769 66.499269 
L 1122.544343 66.499269 
L 1123.880737 60.356012 
L 1125.21713 60.222047 
L 1126.553524 59.748384 
L 1127.889917 59.623988 
L 1131.899098 59.623988 
L 1133.235492 59.231662 
L 1138.581066 58.700586 
L 1141.253853 58.700586 
L 1142.590247 58.432655 
L 1150.608608 58.289121 
L 1151.945002 58.011622 
L 1154.617789 58.002053 
L 1155.954182 57.714985 
L 1159.963363 57.714985 
L 1161.299757 57.394426 
L 1177.33648 56.853781 
L 1180.009267 56.801152 
L 1182.682054 56.700678 
L 1188.027628 56.700678 
L 1189.364022 56.475808 
L 1198.718777 56.365765 
L 1201.391564 56.260507 
L 1217.428287 56.078697 
L 1225.446648 55.992577 
L 1229.455829 55.868181 
L 1234.801403 55.868181 
L 1236.137797 55.705509 
L 1244.156158 55.628957 
L 1248.165339 55.437578 
L 1253.510913 55.437578 
L 1254.847307 55.102666 
L 1257.520094 54.849089 
L 1264.202062 54.810813 
L 1265.538455 54.729477 
L 1266.874849 54.514176 
L 1272.220423 54.514176 
L 1273.556817 54.365858 
L 1281.575178 54.298875 
L 1284.247966 54.088358 
L 1290.929933 54.002238 
L 1293.602721 54.002238 
L 1294.939114 53.652972 
L 1300.284688 53.652972 
L 1301.621082 53.30849 
L 1304.293869 53.270214 
L 1305.630263 53.074051 
L 1306.966656 53.074051 
L 1306.966656 53.074051 
" clip-path="url(#p8b6f2fd339)" style="fill: none; stroke: #0000ff; stroke-width: 1.5; stroke-linecap: square"/>
   </g>
   <g id="line2d_20">
    <path d="M 1067.752207 120.398487 
L 1069.0886 118.668699 
L 1070.424994 117.538001 
L 1071.761387 113.323457 
L 1073.097781 112.568831 
L 1074.434174 108.361272 
L 1075.770568 106.643534 
L 1077.106962 103.582416 
L 1078.443355 101.242414 
L 1081.116142 93.627154 
L 1082.452536 93.204582 
L 1083.788929 94.669496 
L 1085.125323 93.020244 
L 1086.461717 87.681555 
L 1087.79811 84.200972 
L 1089.134504 79.930349 
L 1090.470897 78.808837 
L 1091.807291 78.90231 
L 1093.143685 79.748456 
L 1094.480078 77.498157 
L 1095.816472 75.902216 
L 1097.152865 73.06947 
L 1098.489259 70.870042 
L 1099.825652 71.356109 
L 1101.162046 71.081804 
L 1102.49844 71.559958 
L 1103.834833 69.509993 
L 1105.171227 68.438069 
L 1106.50762 68.332233 
L 1107.844014 68.348175 
L 1109.180407 69.105803 
L 1110.516801 68.484086 
L 1111.853195 68.010025 
L 1113.189588 66.268151 
L 1114.525982 65.480216 
L 1115.862375 65.813363 
L 1117.198769 65.814744 
L 1118.535162 66.640318 
L 1119.871556 66.501636 
L 1121.20795 66.61541 
L 1122.544343 65.263295 
L 1123.880737 59.142469 
L 1125.21713 58.844683 
L 1127.889917 59.030572 
L 1129.226311 59.544333 
L 1130.562705 59.622587 
L 1131.899098 57.330083 
L 1133.235492 58.943018 
L 1134.571885 58.901833 
L 1135.908279 58.742815 
L 1137.244672 58.975217 
L 1138.581066 58.615365 
L 1139.91746 58.688606 
L 1141.253853 57.179988 
L 1142.590247 58.195158 
L 1143.92664 58.256972 
L 1145.263034 58.154539 
L 1146.599427 58.461336 
L 1147.935821 58.252135 
L 1149.272215 58.26982 
L 1150.608608 57.299811 
L 1151.945002 57.829751 
L 1154.617789 57.864161 
L 1157.290576 57.628294 
L 1158.62697 57.673866 
L 1159.963363 56.993659 
L 1161.299757 57.252314 
L 1163.972544 57.101723 
L 1165.308937 57.278772 
L 1166.645331 57.109385 
L 1167.981725 57.105554 
L 1169.318118 56.649904 
L 1170.654512 56.915046 
L 1177.33648 56.80349 
L 1178.672873 56.47398 
L 1180.009267 56.701994 
L 1182.682054 56.556361 
L 1185.354841 56.642252 
L 1186.691235 56.649477 
L 1189.364022 56.345743 
L 1190.700415 56.381063 
L 1192.036809 56.244267 
L 1196.04599 56.295454 
L 1197.382383 56.129093 
L 1198.718777 56.280422 
L 1201.391564 56.163675 
L 1205.400745 56.126584 
L 1206.737138 56.018871 
L 1208.073532 56.084474 
L 1210.746319 55.98343 
L 1214.7555 56.018641 
L 1217.428287 55.962127 
L 1218.76468 56.011291 
L 1221.437468 55.915815 
L 1225.446648 55.888757 
L 1229.455829 55.789185 
L 1234.801403 55.762323 
L 1236.137797 55.590799 
L 1242.819765 55.555723 
L 1249.501733 55.360151 
L 1253.510913 55.3109 
L 1254.847307 54.981005 
L 1256.1837 54.781967 
L 1258.856488 54.73133 
L 1261.529275 54.775011 
L 1262.865668 54.663689 
L 1265.538455 54.631285 
L 1266.874849 54.427452 
L 1272.220423 54.366199 
L 1274.893211 54.215182 
L 1280.238785 54.232646 
L 1285.584359 53.976676 
L 1288.257146 53.925411 
L 1293.602721 53.905244 
L 1294.939114 53.552416 
L 1300.284688 53.533276 
L 1301.621082 53.190428 
L 1302.957476 53.038702 
L 1304.293869 53.187938 
L 1305.630263 52.97107 
L 1306.966656 52.979884 
L 1306.966656 52.979884 
" clip-path="url(#p8b6f2fd339)" style="fill: none; stroke: #ffa500; stroke-width: 1.5; stroke-linecap: square"/>
   </g>
   <g id="line2d_21">
    <path d="M 1306.966656 52.979884 
L 1308.30305 52.904949 
L 1309.639443 52.67568 
L 1310.975837 52.557242 
L 1312.312231 52.3772 
L 1313.648624 52.214708 
L 1314.985018 52.099032 
L 1316.321411 51.96088 
L 1317.657805 51.825026 
L 1318.994198 51.580547 
L 1320.330592 51.419634 
L 1321.666986 51.21482 
L 1323.003379 51.023704 
L 1324.339773 50.8755 
" clip-path="url(#p8b6f2fd339)" style="fill: none; stroke: #ff0000; stroke-width: 1.5; stroke-linecap: square"/>
   </g>
   <g id="patch_3">
    <path d="M 46.0125 368.3955 
L 46.0125 35.7555 
" style="fill: none; stroke: #000000; stroke-width: 0.8; stroke-linejoin: miter; stroke-linecap: square"/>
   </g>
   <g id="patch_4">
    <path d="M 1385.2125 368.3955 
L 1385.2125 35.7555 
" style="fill: none; stroke: #000000; stroke-width: 0.8; stroke-linejoin: miter; stroke-linecap: square"/>
   </g>
   <g id="patch_5">
    <path d="M 46.0125 368.3955 
L 1385.2125 368.3955 
" style="fill: none; stroke: #000000; stroke-width: 0.8; stroke-linejoin: miter; stroke-linecap: square"/>
   </g>
   <g id="patch_6">
    <path d="M 46.0125 35.7555 
L 1385.2125 35.7555 
" style="fill: none; stroke: #000000; stroke-width: 0.8; stroke-linejoin: miter; stroke-linecap: square"/>
   </g>
   <g id="text_19">
    <!-- Accumulative Confirmed Cases Forecasting - Sudan -->
    <g transform="translate(560.74125 16.318125)scale(0.12 -0.12)">
     <defs>
      <path id="DejaVuSans-41" d="M 2188 4044 
L 1331 1722 
L 3047 1722 
L 2188 4044 
z
M 1831 4666 
L 2547 4666 
L 4325 0 
L 3669 0 
L 3244 1197 
L 1141 1197 
L 716 0 
L 50 0 
L 1831 4666 
z
" transform="scale(0.015625)"/>
      <path id="DejaVuSans-63" d="M 3122 3366 
L 3122 2828 
Q 2878 2963 2633 3030 
Q 2388 3097 2138 3097 
Q 1578 3097 1268 2742 
Q 959 2388 959 1747 
Q 959 1106 1268 751 
Q 1578 397 2138 397 
Q 2388 397 2633 464 
Q 2878 531 3122 666 
L 3122 134 
Q 2881 22 2623 -34 
Q 2366 -91 2075 -91 
Q 1284 -91 818 406 
Q 353 903 353 1747 
Q 353 2603 823 3093 
Q 1294 3584 2113 3584 
Q 2378 3584 2631 3529 
Q 2884 3475 3122 3366 
z
" transform="scale(0.015625)"/>
      <path id="DejaVuSans-75" d="M 544 1381 
L 544 3500 
L 1119 3500 
L 1119 1403 
Q 1119 906 1312 657 
Q 1506 409 1894 409 
Q 2359 409 2629 706 
Q 2900 1003 2900 1516 
L 2900 3500 
L 3475 3500 
L 3475 0 
L 2900 0 
L 2900 538 
Q 2691 219 2414 64 
Q 2138 -91 1772 -91 
Q 1169 -91 856 284 
Q 544 659 544 1381 
z
M 1991 3584 
L 1991 3584 
z
" transform="scale(0.015625)"/>
      <path id="DejaVuSans-6d" d="M 3328 2828 
Q 3544 3216 3844 3400 
Q 4144 3584 4550 3584 
Q 5097 3584 5394 3201 
Q 5691 2819 5691 2113 
L 5691 0 
L 5113 0 
L 5113 2094 
Q 5113 2597 4934 2840 
Q 4756 3084 4391 3084 
Q 3944 3084 3684 2787 
Q 3425 2491 3425 1978 
L 3425 0 
L 2847 0 
L 2847 2094 
Q 2847 2600 2669 2842 
Q 2491 3084 2119 3084 
Q 1678 3084 1418 2786 
Q 1159 2488 1159 1978 
L 1159 0 
L 581 0 
L 581 3500 
L 1159 3500 
L 1159 2956 
Q 1356 3278 1631 3431 
Q 1906 3584 2284 3584 
Q 2666 3584 2933 3390 
Q 3200 3197 3328 2828 
z
" transform="scale(0.015625)"/>
      <path id="DejaVuSans-6c" d="M 603 4863 
L 1178 4863 
L 1178 0 
L 603 0 
L 603 4863 
z
" transform="scale(0.015625)"/>
      <path id="DejaVuSans-61" d="M 2194 1759 
Q 1497 1759 1228 1600 
Q 959 1441 959 1056 
Q 959 750 1161 570 
Q 1363 391 1709 391 
Q 2188 391 2477 730 
Q 2766 1069 2766 1631 
L 2766 1759 
L 2194 1759 
z
M 3341 1997 
L 3341 0 
L 2766 0 
L 2766 531 
Q 2569 213 2275 61 
Q 1981 -91 1556 -91 
Q 1019 -91 701 211 
Q 384 513 384 1019 
Q 384 1609 779 1909 
Q 1175 2209 1959 2209 
L 2766 2209 
L 2766 2266 
Q 2766 2663 2505 2880 
Q 2244 3097 1772 3097 
Q 1472 3097 1187 3025 
Q 903 2953 641 2809 
L 641 3341 
Q 956 3463 1253 3523 
Q 1550 3584 1831 3584 
Q 2591 3584 2966 3190 
Q 3341 2797 3341 1997 
z
" transform="scale(0.015625)"/>
      <path id="DejaVuSans-74" d="M 1172 4494 
L 1172 3500 
L 2356 3500 
L 2356 3053 
L 1172 3053 
L 1172 1153 
Q 1172 725 1289 603 
Q 1406 481 1766 481 
L 2356 481 
L 2356 0 
L 1766 0 
Q 1100 0 847 248 
Q 594 497 594 1153 
L 594 3053 
L 172 3053 
L 172 3500 
L 594 3500 
L 594 4494 
L 1172 4494 
z
" transform="scale(0.015625)"/>
      <path id="DejaVuSans-69" d="M 603 3500 
L 1178 3500 
L 1178 0 
L 603 0 
L 603 3500 
z
M 603 4863 
L 1178 4863 
L 1178 4134 
L 603 4134 
L 603 4863 
z
" transform="scale(0.015625)"/>
      <path id="DejaVuSans-76" d="M 191 3500 
L 800 3500 
L 1894 563 
L 2988 3500 
L 3597 3500 
L 2284 0 
L 1503 0 
L 191 3500 
z
" transform="scale(0.015625)"/>
      <path id="DejaVuSans-65" d="M 3597 1894 
L 3597 1613 
L 953 1613 
Q 991 1019 1311 708 
Q 1631 397 2203 397 
Q 2534 397 2845 478 
Q 3156 559 3463 722 
L 3463 178 
Q 3153 47 2828 -22 
Q 2503 -91 2169 -91 
Q 1331 -91 842 396 
Q 353 884 353 1716 
Q 353 2575 817 3079 
Q 1281 3584 2069 3584 
Q 2775 3584 3186 3129 
Q 3597 2675 3597 1894 
z
M 3022 2063 
Q 3016 2534 2758 2815 
Q 2500 3097 2075 3097 
Q 1594 3097 1305 2825 
Q 1016 2553 972 2059 
L 3022 2063 
z
" transform="scale(0.015625)"/>
      <path id="DejaVuSans-20" transform="scale(0.015625)"/>
      <path id="DejaVuSans-43" d="M 4122 4306 
L 4122 3641 
Q 3803 3938 3442 4084 
Q 3081 4231 2675 4231 
Q 1875 4231 1450 3742 
Q 1025 3253 1025 2328 
Q 1025 1406 1450 917 
Q 1875 428 2675 428 
Q 3081 428 3442 575 
Q 3803 722 4122 1019 
L 4122 359 
Q 3791 134 3420 21 
Q 3050 -91 2638 -91 
Q 1578 -91 968 557 
Q 359 1206 359 2328 
Q 359 3453 968 4101 
Q 1578 4750 2638 4750 
Q 3056 4750 3426 4639 
Q 3797 4528 4122 4306 
z
" transform="scale(0.015625)"/>
      <path id="DejaVuSans-6f" d="M 1959 3097 
Q 1497 3097 1228 2736 
Q 959 2375 959 1747 
Q 959 1119 1226 758 
Q 1494 397 1959 397 
Q 2419 397 2687 759 
Q 2956 1122 2956 1747 
Q 2956 2369 2687 2733 
Q 2419 3097 1959 3097 
z
M 1959 3584 
Q 2709 3584 3137 3096 
Q 3566 2609 3566 1747 
Q 3566 888 3137 398 
Q 2709 -91 1959 -91 
Q 1206 -91 779 398 
Q 353 888 353 1747 
Q 353 2609 779 3096 
Q 1206 3584 1959 3584 
z
" transform="scale(0.015625)"/>
      <path id="DejaVuSans-6e" d="M 3513 2113 
L 3513 0 
L 2938 0 
L 2938 2094 
Q 2938 2591 2744 2837 
Q 2550 3084 2163 3084 
Q 1697 3084 1428 2787 
Q 1159 2491 1159 1978 
L 1159 0 
L 581 0 
L 581 3500 
L 1159 3500 
L 1159 2956 
Q 1366 3272 1645 3428 
Q 1925 3584 2291 3584 
Q 2894 3584 3203 3211 
Q 3513 2838 3513 2113 
z
" transform="scale(0.015625)"/>
      <path id="DejaVuSans-66" d="M 2375 4863 
L 2375 4384 
L 1825 4384 
Q 1516 4384 1395 4259 
Q 1275 4134 1275 3809 
L 1275 3500 
L 2222 3500 
L 2222 3053 
L 1275 3053 
L 1275 0 
L 697 0 
L 697 3053 
L 147 3053 
L 147 3500 
L 697 3500 
L 697 3744 
Q 697 4328 969 4595 
Q 1241 4863 1831 4863 
L 2375 4863 
z
" transform="scale(0.015625)"/>
      <path id="DejaVuSans-72" d="M 2631 2963 
Q 2534 3019 2420 3045 
Q 2306 3072 2169 3072 
Q 1681 3072 1420 2755 
Q 1159 2438 1159 1844 
L 1159 0 
L 581 0 
L 581 3500 
L 1159 3500 
L 1159 2956 
Q 1341 3275 1631 3429 
Q 1922 3584 2338 3584 
Q 2397 3584 2469 3576 
Q 2541 3569 2628 3553 
L 2631 2963 
z
" transform="scale(0.015625)"/>
      <path id="DejaVuSans-64" d="M 2906 2969 
L 2906 4863 
L 3481 4863 
L 3481 0 
L 2906 0 
L 2906 525 
Q 2725 213 2448 61 
Q 2172 -91 1784 -91 
Q 1150 -91 751 415 
Q 353 922 353 1747 
Q 353 2572 751 3078 
Q 1150 3584 1784 3584 
Q 2172 3584 2448 3432 
Q 2725 3281 2906 2969 
z
M 947 1747 
Q 947 1113 1208 752 
Q 1469 391 1925 391 
Q 2381 391 2643 752 
Q 2906 1113 2906 1747 
Q 2906 2381 2643 2742 
Q 2381 3103 1925 3103 
Q 1469 3103 1208 2742 
Q 947 2381 947 1747 
z
" transform="scale(0.015625)"/>
      <path id="DejaVuSans-73" d="M 2834 3397 
L 2834 2853 
Q 2591 2978 2328 3040 
Q 2066 3103 1784 3103 
Q 1356 3103 1142 2972 
Q 928 2841 928 2578 
Q 928 2378 1081 2264 
Q 1234 2150 1697 2047 
L 1894 2003 
Q 2506 1872 2764 1633 
Q 3022 1394 3022 966 
Q 3022 478 2636 193 
Q 2250 -91 1575 -91 
Q 1294 -91 989 -36 
Q 684 19 347 128 
L 347 722 
Q 666 556 975 473 
Q 1284 391 1588 391 
Q 1994 391 2212 530 
Q 2431 669 2431 922 
Q 2431 1156 2273 1281 
Q 2116 1406 1581 1522 
L 1381 1569 
Q 847 1681 609 1914 
Q 372 2147 372 2553 
Q 372 3047 722 3315 
Q 1072 3584 1716 3584 
Q 2034 3584 2315 3537 
Q 2597 3491 2834 3397 
z
" transform="scale(0.015625)"/>
      <path id="DejaVuSans-46" d="M 628 4666 
L 3309 4666 
L 3309 4134 
L 1259 4134 
L 1259 2759 
L 3109 2759 
L 3109 2228 
L 1259 2228 
L 1259 0 
L 628 0 
L 628 4666 
z
" transform="scale(0.015625)"/>
      <path id="DejaVuSans-67" d="M 2906 1791 
Q 2906 2416 2648 2759 
Q 2391 3103 1925 3103 
Q 1463 3103 1205 2759 
Q 947 2416 947 1791 
Q 947 1169 1205 825 
Q 1463 481 1925 481 
Q 2391 481 2648 825 
Q 2906 1169 2906 1791 
z
M 3481 434 
Q 3481 -459 3084 -895 
Q 2688 -1331 1869 -1331 
Q 1566 -1331 1297 -1286 
Q 1028 -1241 775 -1147 
L 775 -588 
Q 1028 -725 1275 -790 
Q 1522 -856 1778 -856 
Q 2344 -856 2625 -561 
Q 2906 -266 2906 331 
L 2906 616 
Q 2728 306 2450 153 
Q 2172 0 1784 0 
Q 1141 0 747 490 
Q 353 981 353 1791 
Q 353 2603 747 3093 
Q 1141 3584 1784 3584 
Q 2172 3584 2450 3431 
Q 2728 3278 2906 2969 
L 2906 3500 
L 3481 3500 
L 3481 434 
z
" transform="scale(0.015625)"/>
      <path id="DejaVuSans-53" d="M 3425 4513 
L 3425 3897 
Q 3066 4069 2747 4153 
Q 2428 4238 2131 4238 
Q 1616 4238 1336 4038 
Q 1056 3838 1056 3469 
Q 1056 3159 1242 3001 
Q 1428 2844 1947 2747 
L 2328 2669 
Q 3034 2534 3370 2195 
Q 3706 1856 3706 1288 
Q 3706 609 3251 259 
Q 2797 -91 1919 -91 
Q 1588 -91 1214 -16 
Q 841 59 441 206 
L 441 856 
Q 825 641 1194 531 
Q 1563 422 1919 422 
Q 2459 422 2753 634 
Q 3047 847 3047 1241 
Q 3047 1584 2836 1778 
Q 2625 1972 2144 2069 
L 1759 2144 
Q 1053 2284 737 2584 
Q 422 2884 422 3419 
Q 422 4038 858 4394 
Q 1294 4750 2059 4750 
Q 2388 4750 2728 4690 
Q 3069 4631 3425 4513 
z
" transform="scale(0.015625)"/>
     </defs>
     <use xlink:href="#DejaVuSans-41"/>
     <use xlink:href="#DejaVuSans-63" x="66.658203"/>
     <use xlink:href="#DejaVuSans-63" x="121.638672"/>
     <use xlink:href="#DejaVuSans-75" x="176.619141"/>
     <use xlink:href="#DejaVuSans-6d" x="239.998047"/>
     <use xlink:href="#DejaVuSans-75" x="337.410156"/>
     <use xlink:href="#DejaVuSans-6c" x="400.789062"/>
     <use xlink:href="#DejaVuSans-61" x="428.572266"/>
     <use xlink:href="#DejaVuSans-74" x="489.851562"/>
     <use xlink:href="#DejaVuSans-69" x="529.060547"/>
     <use xlink:href="#DejaVuSans-76" x="556.84375"/>
     <use xlink:href="#DejaVuSans-65" x="616.023438"/>
     <use xlink:href="#DejaVuSans-20" x="677.546875"/>
     <use xlink:href="#DejaVuSans-43" x="709.333984"/>
     <use xlink:href="#DejaVuSans-6f" x="779.158203"/>
     <use xlink:href="#DejaVuSans-6e" x="840.339844"/>
     <use xlink:href="#DejaVuSans-66" x="903.71875"/>
     <use xlink:href="#DejaVuSans-69" x="938.923828"/>
     <use xlink:href="#DejaVuSans-72" x="966.707031"/>
     <use xlink:href="#DejaVuSans-6d" x="1006.070312"/>
     <use xlink:href="#DejaVuSans-65" x="1103.482422"/>
     <use xlink:href="#DejaVuSans-64" x="1165.005859"/>
     <use xlink:href="#DejaVuSans-20" x="1228.482422"/>
     <use xlink:href="#DejaVuSans-43" x="1260.269531"/>
     <use xlink:href="#DejaVuSans-61" x="1330.09375"/>
     <use xlink:href="#DejaVuSans-73" x="1391.373047"/>
     <use xlink:href="#DejaVuSans-65" x="1443.472656"/>
     <use xlink:href="#DejaVuSans-73" x="1504.996094"/>
     <use xlink:href="#DejaVuSans-20" x="1557.095703"/>
     <use xlink:href="#DejaVuSans-46" x="1588.882812"/>
     <use xlink:href="#DejaVuSans-6f" x="1642.777344"/>
     <use xlink:href="#DejaVuSans-72" x="1703.958984"/>
     <use xlink:href="#DejaVuSans-65" x="1742.822266"/>
     <use xlink:href="#DejaVuSans-63" x="1804.345703"/>
     <use xlink:href="#DejaVuSans-61" x="1859.326172"/>
     <use xlink:href="#DejaVuSans-73" x="1920.605469"/>
     <use xlink:href="#DejaVuSans-74" x="1972.705078"/>
     <use xlink:href="#DejaVuSans-69" x="2011.914062"/>
     <use xlink:href="#DejaVuSans-6e" x="2039.697266"/>
     <use xlink:href="#DejaVuSans-67" x="2103.076172"/>
     <use xlink:href="#DejaVuSans-20" x="2166.552734"/>
     <use xlink:href="#DejaVuSans-2d" x="2198.339844"/>
     <use xlink:href="#DejaVuSans-20" x="2234.423828"/>
     <use xlink:href="#DejaVuSans-53" x="2266.210938"/>
     <use xlink:href="#DejaVuSans-75" x="2329.6875"/>
     <use xlink:href="#DejaVuSans-64" x="2393.066406"/>
     <use xlink:href="#DejaVuSans-61" x="2456.542969"/>
     <use xlink:href="#DejaVuSans-6e" x="2517.822266"/>
    </g>
    <!-- ARIMA (4, 1, 0)x(1, 0, 1, 7) (R2 = 0.997442) -->
    <g transform="translate(583.628438 29.7555)scale(0.12 -0.12)">
     <defs>
      <path id="DejaVuSans-52" d="M 2841 2188 
Q 3044 2119 3236 1894 
Q 3428 1669 3622 1275 
L 4263 0 
L 3584 0 
L 2988 1197 
Q 2756 1666 2539 1819 
Q 2322 1972 1947 1972 
L 1259 1972 
L 1259 0 
L 628 0 
L 628 4666 
L 2053 4666 
Q 2853 4666 3247 4331 
Q 3641 3997 3641 3322 
Q 3641 2881 3436 2590 
Q 3231 2300 2841 2188 
z
M 1259 4147 
L 1259 2491 
L 2053 2491 
Q 2509 2491 2742 2702 
Q 2975 2913 2975 3322 
Q 2975 3731 2742 3939 
Q 2509 4147 2053 4147 
L 1259 4147 
z
" transform="scale(0.015625)"/>
      <path id="DejaVuSans-49" d="M 628 4666 
L 1259 4666 
L 1259 0 
L 628 0 
L 628 4666 
z
" transform="scale(0.015625)"/>
      <path id="DejaVuSans-4d" d="M 628 4666 
L 1569 4666 
L 2759 1491 
L 3956 4666 
L 4897 4666 
L 4897 0 
L 4281 0 
L 4281 4097 
L 3078 897 
L 2444 897 
L 1241 4097 
L 1241 0 
L 628 0 
L 628 4666 
z
" transform="scale(0.015625)"/>
      <path id="DejaVuSans-28" d="M 1984 4856 
Q 1566 4138 1362 3434 
Q 1159 2731 1159 2009 
Q 1159 1288 1364 580 
Q 1569 -128 1984 -844 
L 1484 -844 
Q 1016 -109 783 600 
Q 550 1309 550 2009 
Q 550 2706 781 3412 
Q 1013 4119 1484 4856 
L 1984 4856 
z
" transform="scale(0.015625)"/>
      <path id="DejaVuSans-2c" d="M 750 794 
L 1409 794 
L 1409 256 
L 897 -744 
L 494 -744 
L 750 256 
L 750 794 
z
" transform="scale(0.015625)"/>
      <path id="DejaVuSans-29" d="M 513 4856 
L 1013 4856 
Q 1481 4119 1714 3412 
Q 1947 2706 1947 2009 
Q 1947 1309 1714 600 
Q 1481 -109 1013 -844 
L 513 -844 
Q 928 -128 1133 580 
Q 1338 1288 1338 2009 
Q 1338 2731 1133 3434 
Q 928 4138 513 4856 
z
" transform="scale(0.015625)"/>
      <path id="DejaVuSans-78" d="M 3513 3500 
L 2247 1797 
L 3578 0 
L 2900 0 
L 1881 1375 
L 863 0 
L 184 0 
L 1544 1831 
L 300 3500 
L 978 3500 
L 1906 2253 
L 2834 3500 
L 3513 3500 
z
" transform="scale(0.015625)"/>
      <path id="DejaVuSans-3d" d="M 678 2906 
L 4684 2906 
L 4684 2381 
L 678 2381 
L 678 2906 
z
M 678 1631 
L 4684 1631 
L 4684 1100 
L 678 1100 
L 678 1631 
z
" transform="scale(0.015625)"/>
      <path id="DejaVuSans-2e" d="M 684 794 
L 1344 794 
L 1344 0 
L 684 0 
L 684 794 
z
" transform="scale(0.015625)"/>
      <path id="DejaVuSans-39" d="M 703 97 
L 703 672 
Q 941 559 1184 500 
Q 1428 441 1663 441 
Q 2288 441 2617 861 
Q 2947 1281 2994 2138 
Q 2813 1869 2534 1725 
Q 2256 1581 1919 1581 
Q 1219 1581 811 2004 
Q 403 2428 403 3163 
Q 403 3881 828 4315 
Q 1253 4750 1959 4750 
Q 2769 4750 3195 4129 
Q 3622 3509 3622 2328 
Q 3622 1225 3098 567 
Q 2575 -91 1691 -91 
Q 1453 -91 1209 -44 
Q 966 3 703 97 
z
M 1959 2075 
Q 2384 2075 2632 2365 
Q 2881 2656 2881 3163 
Q 2881 3666 2632 3958 
Q 2384 4250 1959 4250 
Q 1534 4250 1286 3958 
Q 1038 3666 1038 3163 
Q 1038 2656 1286 2365 
Q 1534 2075 1959 2075 
z
" transform="scale(0.015625)"/>
     </defs>
     <use xlink:href="#DejaVuSans-41"/>
     <use xlink:href="#DejaVuSans-52" x="68.408203"/>
     <use xlink:href="#DejaVuSans-49" x="137.890625"/>
     <use xlink:href="#DejaVuSans-4d" x="167.382812"/>
     <use xlink:href="#DejaVuSans-41" x="253.662109"/>
     <use xlink:href="#DejaVuSans-20" x="322.070312"/>
     <use xlink:href="#DejaVuSans-28" x="353.857422"/>
     <use xlink:href="#DejaVuSans-34" x="392.871094"/>
     <use xlink:href="#DejaVuSans-2c" x="456.494141"/>
     <use xlink:href="#DejaVuSans-20" x="488.28125"/>
     <use xlink:href="#DejaVuSans-31" x="520.068359"/>
     <use xlink:href="#DejaVuSans-2c" x="583.691406"/>
     <use xlink:href="#DejaVuSans-20" x="615.478516"/>
     <use xlink:href="#DejaVuSans-30" x="647.265625"/>
     <use xlink:href="#DejaVuSans-29" x="710.888672"/>
     <use xlink:href="#DejaVuSans-78" x="749.902344"/>
     <use xlink:href="#DejaVuSans-28" x="809.082031"/>
     <use xlink:href="#DejaVuSans-31" x="848.095703"/>
     <use xlink:href="#DejaVuSans-2c" x="911.71875"/>
     <use xlink:href="#DejaVuSans-20" x="943.505859"/>
     <use xlink:href="#DejaVuSans-30" x="975.292969"/>
     <use xlink:href="#DejaVuSans-2c" x="1038.916016"/>
     <use xlink:href="#DejaVuSans-20" x="1070.703125"/>
     <use xlink:href="#DejaVuSans-31" x="1102.490234"/>
     <use xlink:href="#DejaVuSans-2c" x="1166.113281"/>
     <use xlink:href="#DejaVuSans-20" x="1197.900391"/>
     <use xlink:href="#DejaVuSans-37" x="1229.6875"/>
     <use xlink:href="#DejaVuSans-29" x="1293.310547"/>
     <use xlink:href="#DejaVuSans-20" x="1332.324219"/>
     <use xlink:href="#DejaVuSans-28" x="1364.111328"/>
     <use xlink:href="#DejaVuSans-52" x="1403.125"/>
     <use xlink:href="#DejaVuSans-32" x="1472.607422"/>
     <use xlink:href="#DejaVuSans-20" x="1536.230469"/>
     <use xlink:href="#DejaVuSans-3d" x="1568.017578"/>
     <use xlink:href="#DejaVuSans-20" x="1651.806641"/>
     <use xlink:href="#DejaVuSans-30" x="1683.59375"/>
     <use xlink:href="#DejaVuSans-2e" x="1747.216797"/>
     <use xlink:href="#DejaVuSans-39" x="1779.003906"/>
     <use xlink:href="#DejaVuSans-39" x="1842.626953"/>
     <use xlink:href="#DejaVuSans-37" x="1906.25"/>
     <use xlink:href="#DejaVuSans-34" x="1969.873047"/>
     <use xlink:href="#DejaVuSans-34" x="2033.496094"/>
     <use xlink:href="#DejaVuSans-32" x="2097.119141"/>
     <use xlink:href="#DejaVuSans-29" x="2160.742188"/>
    </g>
   </g>
   <g id="legend_1">
    <g id="patch_7">
     <path d="M 53.0125 87.789875 
L 150.092188 87.789875 
Q 152.092188 87.789875 152.092188 85.789875 
L 152.092188 42.7555 
Q 152.092188 40.7555 150.092188 40.7555 
L 53.0125 40.7555 
Q 51.0125 40.7555 51.0125 42.7555 
L 51.0125 85.789875 
Q 51.0125 87.789875 53.0125 87.789875 
z
" style="fill: #ffffff; opacity: 0.8; stroke: #cccccc; stroke-linejoin: miter"/>
    </g>
    <g id="line2d_22">
     <path d="M 55.0125 48.853937 
L 65.0125 48.853937 
L 75.0125 48.853937 
" style="fill: none; stroke: #0000ff; stroke-width: 1.5; stroke-linecap: square"/>
    </g>
    <g id="text_20">
     <!-- Actual Value -->
     <g transform="translate(83.0125 52.353937)scale(0.1 -0.1)">
      <defs>
       <path id="DejaVuSans-56" d="M 1831 0 
L 50 4666 
L 709 4666 
L 2188 738 
L 3669 4666 
L 4325 4666 
L 2547 0 
L 1831 0 
z
" transform="scale(0.015625)"/>
      </defs>
      <use xlink:href="#DejaVuSans-41"/>
      <use xlink:href="#DejaVuSans-63" x="66.658203"/>
      <use xlink:href="#DejaVuSans-74" x="121.638672"/>
      <use xlink:href="#DejaVuSans-75" x="160.847656"/>
      <use xlink:href="#DejaVuSans-61" x="224.226562"/>
      <use xlink:href="#DejaVuSans-6c" x="285.505859"/>
      <use xlink:href="#DejaVuSans-20" x="313.289062"/>
      <use xlink:href="#DejaVuSans-56" x="345.076172"/>
      <use xlink:href="#DejaVuSans-61" x="405.734375"/>
      <use xlink:href="#DejaVuSans-6c" x="467.013672"/>
      <use xlink:href="#DejaVuSans-75" x="494.796875"/>
      <use xlink:href="#DejaVuSans-65" x="558.175781"/>
     </g>
    </g>
    <g id="line2d_23">
     <path d="M 55.0125 63.532062 
L 65.0125 63.532062 
L 75.0125 63.532062 
" style="fill: none; stroke: #ffa500; stroke-width: 1.5; stroke-linecap: square"/>
    </g>
    <g id="text_21">
     <!-- Check Value -->
     <g transform="translate(83.0125 67.032062)scale(0.1 -0.1)">
      <defs>
       <path id="DejaVuSans-68" d="M 3513 2113 
L 3513 0 
L 2938 0 
L 2938 2094 
Q 2938 2591 2744 2837 
Q 2550 3084 2163 3084 
Q 1697 3084 1428 2787 
Q 1159 2491 1159 1978 
L 1159 0 
L 581 0 
L 581 4863 
L 1159 4863 
L 1159 2956 
Q 1366 3272 1645 3428 
Q 1925 3584 2291 3584 
Q 2894 3584 3203 3211 
Q 3513 2838 3513 2113 
z
" transform="scale(0.015625)"/>
       <path id="DejaVuSans-6b" d="M 581 4863 
L 1159 4863 
L 1159 1991 
L 2875 3500 
L 3609 3500 
L 1753 1863 
L 3688 0 
L 2938 0 
L 1159 1709 
L 1159 0 
L 581 0 
L 581 4863 
z
" transform="scale(0.015625)"/>
      </defs>
      <use xlink:href="#DejaVuSans-43"/>
      <use xlink:href="#DejaVuSans-68" x="69.824219"/>
      <use xlink:href="#DejaVuSans-65" x="133.203125"/>
      <use xlink:href="#DejaVuSans-63" x="194.726562"/>
      <use xlink:href="#DejaVuSans-6b" x="249.707031"/>
      <use xlink:href="#DejaVuSans-20" x="307.617188"/>
      <use xlink:href="#DejaVuSans-56" x="339.404297"/>
      <use xlink:href="#DejaVuSans-61" x="400.0625"/>
      <use xlink:href="#DejaVuSans-6c" x="461.341797"/>
      <use xlink:href="#DejaVuSans-75" x="489.125"/>
      <use xlink:href="#DejaVuSans-65" x="552.503906"/>
     </g>
    </g>
    <g id="line2d_24">
     <path d="M 55.0125 78.210187 
L 65.0125 78.210187 
L 75.0125 78.210187 
" style="fill: none; stroke: #ff0000; stroke-width: 1.5; stroke-linecap: square"/>
    </g>
    <g id="text_22">
     <!-- Predict Value -->
     <g transform="translate(83.0125 81.710187)scale(0.1 -0.1)">
      <defs>
       <path id="DejaVuSans-50" d="M 1259 4147 
L 1259 2394 
L 2053 2394 
Q 2494 2394 2734 2622 
Q 2975 2850 2975 3272 
Q 2975 3691 2734 3919 
Q 2494 4147 2053 4147 
L 1259 4147 
z
M 628 4666 
L 2053 4666 
Q 2838 4666 3239 4311 
Q 3641 3956 3641 3272 
Q 3641 2581 3239 2228 
Q 2838 1875 2053 1875 
L 1259 1875 
L 1259 0 
L 628 0 
L 628 4666 
z
" transform="scale(0.015625)"/>
      </defs>
      <use xlink:href="#DejaVuSans-50"/>
      <use xlink:href="#DejaVuSans-72" x="58.552734"/>
      <use xlink:href="#DejaVuSans-65" x="97.416016"/>
      <use xlink:href="#DejaVuSans-64" x="158.939453"/>
      <use xlink:href="#DejaVuSans-69" x="222.416016"/>
      <use xlink:href="#DejaVuSans-63" x="250.199219"/>
      <use xlink:href="#DejaVuSans-74" x="305.179688"/>
      <use xlink:href="#DejaVuSans-20" x="344.388672"/>
      <use xlink:href="#DejaVuSans-56" x="376.175781"/>
      <use xlink:href="#DejaVuSans-61" x="436.833984"/>
      <use xlink:href="#DejaVuSans-6c" x="498.113281"/>
      <use xlink:href="#DejaVuSans-75" x="525.896484"/>
      <use xlink:href="#DejaVuSans-65" x="589.275391"/>
     </g>
    </g>
   </g>
  </g>
 </g>
 <defs>
  <clipPath id="p8b6f2fd339">
   <rect x="46.0125" y="35.7555" width="1339.2" height="332.64"/>
  </clipPath>
 </defs>
</svg>
