<?xml version="1.0" encoding="utf-8" standalone="no"?>
<!DOCTYPE svg PUBLIC "-//W3C//DTD SVG 1.1//EN"
  "http://www.w3.org/Graphics/SVG/1.1/DTD/svg11.dtd">
<svg xmlns:xlink="http://www.w3.org/1999/xlink" width="1386.05pt" height="392.273625pt" viewBox="0 0 1386.05 392.273625" xmlns="http://www.w3.org/2000/svg" version="1.1">
 <metadata>
  <rdf:RDF xmlns:dc="http://purl.org/dc/elements/1.1/" xmlns:cc="http://creativecommons.org/ns#" xmlns:rdf="http://www.w3.org/1999/02/22-rdf-syntax-ns#">
   <cc:Work>
    <dc:type rdf:resource="http://purl.org/dc/dcmitype/StillImage"/>
    <dc:date>2022-07-14T20:06:07.142011</dc:date>
    <dc:format>image/svg+xml</dc:format>
    <dc:creator>
     <cc:Agent>
      <dc:title>Matplotlib v3.5.2, https://matplotlib.org/</dc:title>
     </cc:Agent>
    </dc:creator>
   </cc:Work>
  </rdf:RDF>
 </metadata>
 <defs>
  <style type="text/css">*{stroke-linejoin: round; stroke-linecap: butt}</style>
 </defs>
 <g id="figure_1">
  <g id="patch_1">
   <path d="M 0 392.273625 
L 1386.05 392.273625 
L 1386.05 0 
L 0 0 
z
" style="fill: #ffffff"/>
  </g>
  <g id="axes_1">
   <g id="patch_2">
    <path d="M 39.65 368.3955 
L 1378.85 368.3955 
L 1378.85 35.7555 
L 39.65 35.7555 
z
" style="fill: #ffffff"/>
   </g>
   <g id="matplotlib.axis_1">
    <g id="xtick_1">
     <g id="line2d_1">
      <defs>
       <path id="m5585849486" d="M 0 0 
L 0 3.5 
" style="stroke: #000000; stroke-width: 0.8"/>
      </defs>
      <g>
       <use xlink:href="#m5585849486" x="71.250596" y="368.3955" style="stroke: #000000; stroke-width: 0.8"/>
      </g>
     </g>
     <g id="text_1">
      <!-- 2020-01 -->
      <g transform="translate(50.35919 382.993937)scale(0.1 -0.1)">
       <defs>
        <path id="DejaVuSans-32" d="M 1228 531 
L 3431 531 
L 3431 0 
L 469 0 
L 469 531 
Q 828 903 1448 1529 
Q 2069 2156 2228 2338 
Q 2531 2678 2651 2914 
Q 2772 3150 2772 3378 
Q 2772 3750 2511 3984 
Q 2250 4219 1831 4219 
Q 1534 4219 1204 4116 
Q 875 4013 500 3803 
L 500 4441 
Q 881 4594 1212 4672 
Q 1544 4750 1819 4750 
Q 2544 4750 2975 4387 
Q 3406 4025 3406 3419 
Q 3406 3131 3298 2873 
Q 3191 2616 2906 2266 
Q 2828 2175 2409 1742 
Q 1991 1309 1228 531 
z
" transform="scale(0.015625)"/>
        <path id="DejaVuSans-30" d="M 2034 4250 
Q 1547 4250 1301 3770 
Q 1056 3291 1056 2328 
Q 1056 1369 1301 889 
Q 1547 409 2034 409 
Q 2525 409 2770 889 
Q 3016 1369 3016 2328 
Q 3016 3291 2770 3770 
Q 2525 4250 2034 4250 
z
M 2034 4750 
Q 2819 4750 3233 4129 
Q 3647 3509 3647 2328 
Q 3647 1150 3233 529 
Q 2819 -91 2034 -91 
Q 1250 -91 836 529 
Q 422 1150 422 2328 
Q 422 3509 836 4129 
Q 1250 4750 2034 4750 
z
" transform="scale(0.015625)"/>
        <path id="DejaVuSans-2d" d="M 313 2009 
L 1997 2009 
L 1997 1497 
L 313 1497 
L 313 2009 
z
" transform="scale(0.015625)"/>
        <path id="DejaVuSans-31" d="M 794 531 
L 1825 531 
L 1825 4091 
L 703 3866 
L 703 4441 
L 1819 4666 
L 2450 4666 
L 2450 531 
L 3481 531 
L 3481 0 
L 794 0 
L 794 531 
z
" transform="scale(0.015625)"/>
       </defs>
       <use xlink:href="#DejaVuSans-32"/>
       <use xlink:href="#DejaVuSans-30" x="63.623047"/>
       <use xlink:href="#DejaVuSans-32" x="127.246094"/>
       <use xlink:href="#DejaVuSans-30" x="190.869141"/>
       <use xlink:href="#DejaVuSans-2d" x="254.492188"/>
       <use xlink:href="#DejaVuSans-30" x="290.576172"/>
       <use xlink:href="#DejaVuSans-31" x="354.199219"/>
      </g>
     </g>
    </g>
    <g id="xtick_2">
     <g id="line2d_2">
      <g>
       <use xlink:href="#m5585849486" x="192.330775" y="368.3955" style="stroke: #000000; stroke-width: 0.8"/>
      </g>
     </g>
     <g id="text_2">
      <!-- 2020-04 -->
      <g transform="translate(171.439369 382.993937)scale(0.1 -0.1)">
       <defs>
        <path id="DejaVuSans-34" d="M 2419 4116 
L 825 1625 
L 2419 1625 
L 2419 4116 
z
M 2253 4666 
L 3047 4666 
L 3047 1625 
L 3713 1625 
L 3713 1100 
L 3047 1100 
L 3047 0 
L 2419 0 
L 2419 1100 
L 313 1100 
L 313 1709 
L 2253 4666 
z
" transform="scale(0.015625)"/>
       </defs>
       <use xlink:href="#DejaVuSans-32"/>
       <use xlink:href="#DejaVuSans-30" x="63.623047"/>
       <use xlink:href="#DejaVuSans-32" x="127.246094"/>
       <use xlink:href="#DejaVuSans-30" x="190.869141"/>
       <use xlink:href="#DejaVuSans-2d" x="254.492188"/>
       <use xlink:href="#DejaVuSans-30" x="290.576172"/>
       <use xlink:href="#DejaVuSans-34" x="354.199219"/>
      </g>
     </g>
    </g>
    <g id="xtick_3">
     <g id="line2d_3">
      <g>
       <use xlink:href="#m5585849486" x="313.410954" y="368.3955" style="stroke: #000000; stroke-width: 0.8"/>
      </g>
     </g>
     <g id="text_3">
      <!-- 2020-07 -->
      <g transform="translate(292.519548 382.993937)scale(0.1 -0.1)">
       <defs>
        <path id="DejaVuSans-37" d="M 525 4666 
L 3525 4666 
L 3525 4397 
L 1831 0 
L 1172 0 
L 2766 4134 
L 525 4134 
L 525 4666 
z
" transform="scale(0.015625)"/>
       </defs>
       <use xlink:href="#DejaVuSans-32"/>
       <use xlink:href="#DejaVuSans-30" x="63.623047"/>
       <use xlink:href="#DejaVuSans-32" x="127.246094"/>
       <use xlink:href="#DejaVuSans-30" x="190.869141"/>
       <use xlink:href="#DejaVuSans-2d" x="254.492188"/>
       <use xlink:href="#DejaVuSans-30" x="290.576172"/>
       <use xlink:href="#DejaVuSans-37" x="354.199219"/>
      </g>
     </g>
    </g>
    <g id="xtick_4">
     <g id="line2d_4">
      <g>
       <use xlink:href="#m5585849486" x="435.821684" y="368.3955" style="stroke: #000000; stroke-width: 0.8"/>
      </g>
     </g>
     <g id="text_4">
      <!-- 2020-10 -->
      <g transform="translate(414.930278 382.993937)scale(0.1 -0.1)">
       <use xlink:href="#DejaVuSans-32"/>
       <use xlink:href="#DejaVuSans-30" x="63.623047"/>
       <use xlink:href="#DejaVuSans-32" x="127.246094"/>
       <use xlink:href="#DejaVuSans-30" x="190.869141"/>
       <use xlink:href="#DejaVuSans-2d" x="254.492188"/>
       <use xlink:href="#DejaVuSans-31" x="290.576172"/>
       <use xlink:href="#DejaVuSans-30" x="354.199219"/>
      </g>
     </g>
    </g>
    <g id="xtick_5">
     <g id="line2d_5">
      <g>
       <use xlink:href="#m5585849486" x="558.232414" y="368.3955" style="stroke: #000000; stroke-width: 0.8"/>
      </g>
     </g>
     <g id="text_5">
      <!-- 2021-01 -->
      <g transform="translate(537.341008 382.993937)scale(0.1 -0.1)">
       <use xlink:href="#DejaVuSans-32"/>
       <use xlink:href="#DejaVuSans-30" x="63.623047"/>
       <use xlink:href="#DejaVuSans-32" x="127.246094"/>
       <use xlink:href="#DejaVuSans-31" x="190.869141"/>
       <use xlink:href="#DejaVuSans-2d" x="254.492188"/>
       <use xlink:href="#DejaVuSans-30" x="290.576172"/>
       <use xlink:href="#DejaVuSans-31" x="354.199219"/>
      </g>
     </g>
    </g>
    <g id="xtick_6">
     <g id="line2d_6">
      <g>
       <use xlink:href="#m5585849486" x="677.982042" y="368.3955" style="stroke: #000000; stroke-width: 0.8"/>
      </g>
     </g>
     <g id="text_6">
      <!-- 2021-04 -->
      <g transform="translate(657.090635 382.993937)scale(0.1 -0.1)">
       <use xlink:href="#DejaVuSans-32"/>
       <use xlink:href="#DejaVuSans-30" x="63.623047"/>
       <use xlink:href="#DejaVuSans-32" x="127.246094"/>
       <use xlink:href="#DejaVuSans-31" x="190.869141"/>
       <use xlink:href="#DejaVuSans-2d" x="254.492188"/>
       <use xlink:href="#DejaVuSans-30" x="290.576172"/>
       <use xlink:href="#DejaVuSans-34" x="354.199219"/>
      </g>
     </g>
    </g>
    <g id="xtick_7">
     <g id="line2d_7">
      <g>
       <use xlink:href="#m5585849486" x="799.062221" y="368.3955" style="stroke: #000000; stroke-width: 0.8"/>
      </g>
     </g>
     <g id="text_7">
      <!-- 2021-07 -->
      <g transform="translate(778.170814 382.993937)scale(0.1 -0.1)">
       <use xlink:href="#DejaVuSans-32"/>
       <use xlink:href="#DejaVuSans-30" x="63.623047"/>
       <use xlink:href="#DejaVuSans-32" x="127.246094"/>
       <use xlink:href="#DejaVuSans-31" x="190.869141"/>
       <use xlink:href="#DejaVuSans-2d" x="254.492188"/>
       <use xlink:href="#DejaVuSans-30" x="290.576172"/>
       <use xlink:href="#DejaVuSans-37" x="354.199219"/>
      </g>
     </g>
    </g>
    <g id="xtick_8">
     <g id="line2d_8">
      <g>
       <use xlink:href="#m5585849486" x="921.472951" y="368.3955" style="stroke: #000000; stroke-width: 0.8"/>
      </g>
     </g>
     <g id="text_8">
      <!-- 2021-10 -->
      <g transform="translate(900.581545 382.993937)scale(0.1 -0.1)">
       <use xlink:href="#DejaVuSans-32"/>
       <use xlink:href="#DejaVuSans-30" x="63.623047"/>
       <use xlink:href="#DejaVuSans-32" x="127.246094"/>
       <use xlink:href="#DejaVuSans-31" x="190.869141"/>
       <use xlink:href="#DejaVuSans-2d" x="254.492188"/>
       <use xlink:href="#DejaVuSans-31" x="290.576172"/>
       <use xlink:href="#DejaVuSans-30" x="354.199219"/>
      </g>
     </g>
    </g>
    <g id="xtick_9">
     <g id="line2d_9">
      <g>
       <use xlink:href="#m5585849486" x="1043.883681" y="368.3955" style="stroke: #000000; stroke-width: 0.8"/>
      </g>
     </g>
     <g id="text_9">
      <!-- 2022-01 -->
      <g transform="translate(1022.992275 382.993937)scale(0.1 -0.1)">
       <use xlink:href="#DejaVuSans-32"/>
       <use xlink:href="#DejaVuSans-30" x="63.623047"/>
       <use xlink:href="#DejaVuSans-32" x="127.246094"/>
       <use xlink:href="#DejaVuSans-32" x="190.869141"/>
       <use xlink:href="#DejaVuSans-2d" x="254.492188"/>
       <use xlink:href="#DejaVuSans-30" x="290.576172"/>
       <use xlink:href="#DejaVuSans-31" x="354.199219"/>
      </g>
     </g>
    </g>
    <g id="xtick_10">
     <g id="line2d_10">
      <g>
       <use xlink:href="#m5585849486" x="1163.633308" y="368.3955" style="stroke: #000000; stroke-width: 0.8"/>
      </g>
     </g>
     <g id="text_10">
      <!-- 2022-04 -->
      <g transform="translate(1142.741902 382.993937)scale(0.1 -0.1)">
       <use xlink:href="#DejaVuSans-32"/>
       <use xlink:href="#DejaVuSans-30" x="63.623047"/>
       <use xlink:href="#DejaVuSans-32" x="127.246094"/>
       <use xlink:href="#DejaVuSans-32" x="190.869141"/>
       <use xlink:href="#DejaVuSans-2d" x="254.492188"/>
       <use xlink:href="#DejaVuSans-30" x="290.576172"/>
       <use xlink:href="#DejaVuSans-34" x="354.199219"/>
      </g>
     </g>
    </g>
    <g id="xtick_11">
     <g id="line2d_11">
      <g>
       <use xlink:href="#m5585849486" x="1284.713487" y="368.3955" style="stroke: #000000; stroke-width: 0.8"/>
      </g>
     </g>
     <g id="text_11">
      <!-- 2022-07 -->
      <g transform="translate(1263.822081 382.993937)scale(0.1 -0.1)">
       <use xlink:href="#DejaVuSans-32"/>
       <use xlink:href="#DejaVuSans-30" x="63.623047"/>
       <use xlink:href="#DejaVuSans-32" x="127.246094"/>
       <use xlink:href="#DejaVuSans-32" x="190.869141"/>
       <use xlink:href="#DejaVuSans-2d" x="254.492188"/>
       <use xlink:href="#DejaVuSans-30" x="290.576172"/>
       <use xlink:href="#DejaVuSans-37" x="354.199219"/>
      </g>
     </g>
    </g>
   </g>
   <g id="matplotlib.axis_2">
    <g id="ytick_1">
     <g id="line2d_12">
      <defs>
       <path id="ma95250c938" d="M 0 0 
L -3.5 0 
" style="stroke: #000000; stroke-width: 0.8"/>
      </defs>
      <g>
       <use xlink:href="#ma95250c938" x="39.65" y="346.935195" style="stroke: #000000; stroke-width: 0.8"/>
      </g>
     </g>
     <g id="text_12">
      <!-- 0 -->
      <g transform="translate(26.2875 350.734414)scale(0.1 -0.1)">
       <use xlink:href="#DejaVuSans-30"/>
      </g>
     </g>
    </g>
    <g id="ytick_2">
     <g id="line2d_13">
      <g>
       <use xlink:href="#ma95250c938" x="39.65" y="296.992601" style="stroke: #000000; stroke-width: 0.8"/>
      </g>
     </g>
     <g id="text_13">
      <!-- 1000 -->
      <g transform="translate(7.2 300.79182)scale(0.1 -0.1)">
       <use xlink:href="#DejaVuSans-31"/>
       <use xlink:href="#DejaVuSans-30" x="63.623047"/>
       <use xlink:href="#DejaVuSans-30" x="127.246094"/>
       <use xlink:href="#DejaVuSans-30" x="190.869141"/>
      </g>
     </g>
    </g>
    <g id="ytick_3">
     <g id="line2d_14">
      <g>
       <use xlink:href="#ma95250c938" x="39.65" y="247.050008" style="stroke: #000000; stroke-width: 0.8"/>
      </g>
     </g>
     <g id="text_14">
      <!-- 2000 -->
      <g transform="translate(7.2 250.849226)scale(0.1 -0.1)">
       <use xlink:href="#DejaVuSans-32"/>
       <use xlink:href="#DejaVuSans-30" x="63.623047"/>
       <use xlink:href="#DejaVuSans-30" x="127.246094"/>
       <use xlink:href="#DejaVuSans-30" x="190.869141"/>
      </g>
     </g>
    </g>
    <g id="ytick_4">
     <g id="line2d_15">
      <g>
       <use xlink:href="#ma95250c938" x="39.65" y="197.107414" style="stroke: #000000; stroke-width: 0.8"/>
      </g>
     </g>
     <g id="text_15">
      <!-- 3000 -->
      <g transform="translate(7.2 200.906633)scale(0.1 -0.1)">
       <defs>
        <path id="DejaVuSans-33" d="M 2597 2516 
Q 3050 2419 3304 2112 
Q 3559 1806 3559 1356 
Q 3559 666 3084 287 
Q 2609 -91 1734 -91 
Q 1441 -91 1130 -33 
Q 819 25 488 141 
L 488 750 
Q 750 597 1062 519 
Q 1375 441 1716 441 
Q 2309 441 2620 675 
Q 2931 909 2931 1356 
Q 2931 1769 2642 2001 
Q 2353 2234 1838 2234 
L 1294 2234 
L 1294 2753 
L 1863 2753 
Q 2328 2753 2575 2939 
Q 2822 3125 2822 3475 
Q 2822 3834 2567 4026 
Q 2313 4219 1838 4219 
Q 1578 4219 1281 4162 
Q 984 4106 628 3988 
L 628 4550 
Q 988 4650 1302 4700 
Q 1616 4750 1894 4750 
Q 2613 4750 3031 4423 
Q 3450 4097 3450 3541 
Q 3450 3153 3228 2886 
Q 3006 2619 2597 2516 
z
" transform="scale(0.015625)"/>
       </defs>
       <use xlink:href="#DejaVuSans-33"/>
       <use xlink:href="#DejaVuSans-30" x="63.623047"/>
       <use xlink:href="#DejaVuSans-30" x="127.246094"/>
       <use xlink:href="#DejaVuSans-30" x="190.869141"/>
      </g>
     </g>
    </g>
    <g id="ytick_5">
     <g id="line2d_16">
      <g>
       <use xlink:href="#ma95250c938" x="39.65" y="147.16482" style="stroke: #000000; stroke-width: 0.8"/>
      </g>
     </g>
     <g id="text_16">
      <!-- 4000 -->
      <g transform="translate(7.2 150.964039)scale(0.1 -0.1)">
       <use xlink:href="#DejaVuSans-34"/>
       <use xlink:href="#DejaVuSans-30" x="63.623047"/>
       <use xlink:href="#DejaVuSans-30" x="127.246094"/>
       <use xlink:href="#DejaVuSans-30" x="190.869141"/>
      </g>
     </g>
    </g>
    <g id="ytick_6">
     <g id="line2d_17">
      <g>
       <use xlink:href="#ma95250c938" x="39.65" y="97.222227" style="stroke: #000000; stroke-width: 0.8"/>
      </g>
     </g>
     <g id="text_17">
      <!-- 5000 -->
      <g transform="translate(7.2 101.021446)scale(0.1 -0.1)">
       <defs>
        <path id="DejaVuSans-35" d="M 691 4666 
L 3169 4666 
L 3169 4134 
L 1269 4134 
L 1269 2991 
Q 1406 3038 1543 3061 
Q 1681 3084 1819 3084 
Q 2600 3084 3056 2656 
Q 3513 2228 3513 1497 
Q 3513 744 3044 326 
Q 2575 -91 1722 -91 
Q 1428 -91 1123 -41 
Q 819 9 494 109 
L 494 744 
Q 775 591 1075 516 
Q 1375 441 1709 441 
Q 2250 441 2565 725 
Q 2881 1009 2881 1497 
Q 2881 1984 2565 2268 
Q 2250 2553 1709 2553 
Q 1456 2553 1204 2497 
Q 953 2441 691 2322 
L 691 4666 
z
" transform="scale(0.015625)"/>
       </defs>
       <use xlink:href="#DejaVuSans-35"/>
       <use xlink:href="#DejaVuSans-30" x="63.623047"/>
       <use xlink:href="#DejaVuSans-30" x="127.246094"/>
       <use xlink:href="#DejaVuSans-30" x="190.869141"/>
      </g>
     </g>
    </g>
    <g id="ytick_7">
     <g id="line2d_18">
      <g>
       <use xlink:href="#ma95250c938" x="39.65" y="47.279633" style="stroke: #000000; stroke-width: 0.8"/>
      </g>
     </g>
     <g id="text_18">
      <!-- 6000 -->
      <g transform="translate(7.2 51.078852)scale(0.1 -0.1)">
       <defs>
        <path id="DejaVuSans-36" d="M 2113 2584 
Q 1688 2584 1439 2293 
Q 1191 2003 1191 1497 
Q 1191 994 1439 701 
Q 1688 409 2113 409 
Q 2538 409 2786 701 
Q 3034 994 3034 1497 
Q 3034 2003 2786 2293 
Q 2538 2584 2113 2584 
z
M 3366 4563 
L 3366 3988 
Q 3128 4100 2886 4159 
Q 2644 4219 2406 4219 
Q 1781 4219 1451 3797 
Q 1122 3375 1075 2522 
Q 1259 2794 1537 2939 
Q 1816 3084 2150 3084 
Q 2853 3084 3261 2657 
Q 3669 2231 3669 1497 
Q 3669 778 3244 343 
Q 2819 -91 2113 -91 
Q 1303 -91 875 529 
Q 447 1150 447 2328 
Q 447 3434 972 4092 
Q 1497 4750 2381 4750 
Q 2619 4750 2861 4703 
Q 3103 4656 3366 4563 
z
" transform="scale(0.015625)"/>
       </defs>
       <use xlink:href="#DejaVuSans-36"/>
       <use xlink:href="#DejaVuSans-30" x="63.623047"/>
       <use xlink:href="#DejaVuSans-30" x="127.246094"/>
       <use xlink:href="#DejaVuSans-30" x="190.869141"/>
      </g>
     </g>
    </g>
   </g>
   <g id="line2d_19">
    <path d="M 100.522727 346.935195 
L 155.075335 346.935195 
L 156.405887 346.735424 
L 157.736438 346.935195 
L 159.06699 346.935195 
L 160.397541 346.635539 
L 161.728092 346.735424 
L 163.058644 346.685482 
L 164.389195 346.885252 
L 165.719747 345.736573 
L 167.050298 344.887549 
L 168.380849 346.086171 
L 169.711401 346.935195 
L 171.041952 346.186056 
L 172.372504 344.288237 
L 173.703055 346.935195 
L 175.033607 341.791108 
L 176.364158 343.439213 
L 177.694709 344.53795 
L 179.025261 340.992026 
L 180.355812 344.388123 
L 181.686364 336.696963 
L 183.016915 340.29283 
L 185.678018 342.340476 
L 187.008569 341.990878 
L 188.339121 342.140706 
L 189.669672 339.244035 
L 191.000224 341.44151 
L 192.330775 339.094208 
L 193.661326 338.694667 
L 194.991878 339.244035 
L 196.322429 339.943232 
L 197.652981 335.797996 
L 198.983532 336.796848 
L 200.314083 337.446102 
L 201.644635 340.09306 
L 202.975186 329.205574 
L 204.305738 328.756091 
L 205.636289 327.857124 
L 208.297392 323.362291 
L 209.627943 325.210167 
L 210.958495 322.313496 
L 212.289046 321.064931 
L 213.619598 308.878939 
L 214.950149 290.400179 
L 216.2807 292.597653 
L 217.611252 290.899605 
L 218.941803 289.65104 
L 220.272355 289.950696 
L 221.602906 289.101671 
L 222.933458 288.402475 
L 225.59456 285.855403 
L 226.925112 282.559192 
L 228.255663 283.707871 
L 229.586215 280.761258 
L 230.916766 279.462751 
L 232.247317 279.812349 
L 233.577869 278.913382 
L 234.90842 269.42429 
L 236.238972 264.779628 
L 237.569523 267.276758 
L 238.900075 262.682039 
L 240.230626 257.388125 
L 241.561177 261.982843 
L 242.891729 261.833015 
L 244.22228 251.444956 
L 245.552832 248.748056 
L 246.883383 251.494898 
L 248.213934 251.794554 
L 249.544486 245.102246 
L 250.875037 231.717631 
L 252.205589 205.098229 
L 253.53614 210.292259 
L 254.866692 217.43405 
L 256.197243 221.629228 
L 257.527794 212.539675 
L 258.858346 220.480548 
L 260.188897 214.986863 
L 261.519449 224.975381 
L 262.85 227.122913 
L 264.180551 235.313498 
L 265.511103 250.496047 
L 266.841654 256.289387 
L 268.172206 264.829571 
L 269.502757 267.975954 
L 270.833308 266.128078 
L 272.16386 253.192947 
L 273.494411 252.993176 
L 274.824963 253.592487 
L 276.155514 238.509824 
L 277.486066 248.298572 
L 278.816617 217.533935 
L 280.147168 191.06436 
L 281.47772 194.859997 
L 282.808271 178.678597 
L 284.138823 182.723947 
L 285.469374 161.298574 
L 286.799925 160.499493 
L 288.130477 151.110285 
L 289.461028 178.828425 
L 290.79158 135.528196 
L 292.122131 121.843926 
L 293.452683 133.830148 
L 294.783234 101.267577 
L 296.113785 109.358277 
L 297.444337 132.1321 
L 298.774888 150.111433 
L 300.10544 178.179171 
L 301.435991 177.479975 
L 302.766542 190.165394 
L 304.097094 190.964475 
L 305.427645 178.528769 
L 306.758197 150.261261 
L 308.088748 150.81063 
L 309.4193 147.714189 
L 310.749851 150.011548 
L 312.080402 127.837037 
L 313.410954 177.030491 
L 314.741505 177.979401 
L 316.072057 137.5259 
L 317.402608 140.772168 
L 318.733159 168.14071 
L 320.063711 136.826704 
L 321.394262 177.529917 
L 322.724814 195.309481 
L 324.055365 187.967919 
L 325.385917 189.166542 
L 326.716468 197.40707 
L 328.047019 208.144727 
L 329.377571 204.498918 
L 330.708122 212.489733 
L 332.038674 213.538527 
L 333.369225 208.893866 
L 334.699776 216.435198 
L 336.030328 218.832442 
L 337.360879 221.87894 
L 338.691431 225.624635 
L 340.021982 223.277333 
L 341.352534 230.519009 
L 342.683085 235.16367 
L 344.013636 228.171707 
L 345.344188 237.011546 
L 346.674739 248.648171 
L 348.005291 247.399606 
L 349.335842 252.194095 
L 351.996945 265.57871 
L 353.327496 262.731982 
L 354.658048 268.375495 
L 355.988599 279.163095 
L 357.319151 284.107412 
L 358.649702 278.86344 
L 359.980253 278.613727 
L 361.310805 276.915679 
L 362.641356 268.675151 
L 363.971908 273.569525 
L 365.302459 275.617171 
L 366.63301 284.157355 
L 367.963562 270.97251 
L 369.294113 268.575265 
L 370.624665 272.920271 
L 371.955216 277.864588 
L 373.285768 276.36631 
L 374.616319 285.655632 
L 375.94687 278.413956 
L 377.277422 276.56608 
L 378.607973 278.86344 
L 381.269076 286.354829 
L 382.599627 287.803164 
L 383.930179 291.548859 
L 385.26073 288.252647 
L 386.591282 291.299146 
L 389.252385 296.043692 
L 390.582936 293.546562 
L 393.244039 301.487435 
L 394.57459 299.439788 
L 395.905142 302.086746 
L 397.235693 306.182038 
L 398.566244 305.333014 
L 399.896796 305.882383 
L 401.227347 307.430603 
L 402.557899 309.178594 
L 405.219001 307.930029 
L 406.549553 308.229685 
L 407.880104 311.575839 
L 409.210656 312.624633 
L 411.871759 316.919696 
L 413.20231 316.620041 
L 414.532861 313.373772 
L 415.863413 315.920844 
L 417.193964 317.319237 
L 418.524516 318.168261 
L 419.855067 319.416826 
L 421.185618 322.812922 
L 422.51617 322.363439 
L 423.846721 319.366883 
L 425.177273 318.9174 
L 426.507824 322.063783 
L 427.838376 323.362291 
L 429.168927 323.911659 
L 430.499478 326.80833 
L 431.83003 324.211315 
L 433.160581 320.016137 
L 434.491133 326.059191 
L 435.821684 322.363439 
L 437.152235 322.912807 
L 438.482787 326.009248 
L 439.813338 327.457583 
L 441.14389 328.006952 
L 442.474441 323.112578 
L 443.804993 323.562061 
L 445.135544 325.909363 
L 446.466095 326.608559 
L 447.796647 326.708444 
L 449.127198 330.803737 
L 450.45775 329.555172 
L 451.788301 323.262405 
L 453.118852 321.913955 
L 454.449404 323.362291 
L 455.779955 325.310052 
L 457.110507 329.005804 
L 458.441058 329.555172 
L 459.77161 327.907067 
L 461.102161 327.707296 
L 462.432712 326.708444 
L 463.763264 326.908215 
L 465.093815 327.807181 
L 466.424367 327.20787 
L 467.754918 330.803737 
L 469.085469 329.105689 
L 470.416021 327.0081 
L 473.077124 325.210167 
L 474.407675 327.058043 
L 475.738227 326.858272 
L 477.068778 328.256665 
L 478.399329 327.907067 
L 479.729881 323.312348 
L 481.060432 325.65965 
L 482.390984 324.461028 
L 483.721535 325.160224 
L 485.052086 326.608559 
L 486.382638 328.806033 
L 487.713189 327.357698 
L 489.043741 323.412233 
L 491.704844 331.403048 
L 493.035395 324.910511 
L 494.365946 329.50523 
L 495.696498 331.702704 
L 497.027049 331.902474 
L 498.357601 328.855976 
L 499.688152 332.451843 
L 501.018703 331.003507 
L 502.349255 332.651613 
L 503.679806 335.897882 
L 505.010358 335.748054 
L 506.340909 335.398456 
L 507.671461 334.349661 
L 509.002012 330.653909 
L 510.332563 330.85368 
L 511.663115 331.852532 
L 512.993666 335.947824 
L 514.324218 336.097652 
L 515.654769 335.348513 
L 516.98532 333.800293 
L 518.315872 334.499489 
L 519.646423 335.448398 
L 520.976975 335.248628 
L 522.307526 337.446102 
L 523.638077 337.59593 
L 524.968629 336.497193 
L 526.29918 337.296274 
L 527.629732 338.994322 
L 528.960283 339.893289 
L 530.290835 338.544839 
L 531.621386 338.644724 
L 532.951937 339.993174 
L 534.282489 340.692371 
L 535.61304 339.843347 
L 536.943592 337.945528 
L 538.274143 337.895585 
L 539.604694 338.245184 
L 540.935246 339.044265 
L 543.596349 338.544839 
L 544.9269 337.895585 
L 546.257452 338.095356 
L 547.588003 337.496045 
L 548.918554 338.045413 
L 550.249106 338.794552 
L 551.579657 339.244035 
L 552.910209 340.992026 
L 554.24076 339.493748 
L 555.571311 341.291682 
L 556.901863 339.943232 
L 558.232414 340.09306 
L 559.562966 341.890993 
L 560.893517 342.839902 
L 564.885171 341.041969 
L 567.546274 342.090763 
L 568.876826 341.44151 
L 570.207377 341.091911 
L 571.537928 339.943232 
L 572.86848 339.593634 
L 574.199031 338.195241 
L 575.529583 338.494897 
L 576.860134 338.295126 
L 578.190686 339.943232 
L 579.521237 338.145298 
L 580.851788 338.444954 
L 582.18234 335.648169 
L 583.512891 335.048858 
L 584.843443 336.347365 
L 586.173994 336.297422 
L 587.504545 337.096504 
L 588.835097 337.645872 
L 590.165648 336.297422 
L 591.4962 335.797996 
L 592.826751 336.147595 
L 594.157303 334.299719 
L 595.487854 333.600522 
L 596.818405 333.450695 
L 598.148957 333.900178 
L 599.479508 334.199833 
L 600.81006 331.452991 
L 603.471162 331.802589 
L 604.801714 330.603967 
L 606.132265 327.657354 
L 607.462817 331.103393 
L 608.793368 329.155632 
L 610.12392 329.305459 
L 611.454471 328.506378 
L 612.785022 328.756091 
L 614.115574 329.305459 
L 616.776677 330.85368 
L 618.107228 331.25322 
L 619.437779 330.85368 
L 620.768331 330.254369 
L 622.098882 330.603967 
L 623.429434 330.104541 
L 626.090537 331.203278 
L 627.421088 330.603967 
L 628.751639 330.204426 
L 630.082191 329.305459 
L 631.412742 329.155632 
L 634.073845 330.054598 
L 635.404396 330.85368 
L 636.734948 331.103393 
L 638.065499 331.852532 
L 639.396051 330.404196 
L 640.726602 328.206722 
L 642.057154 327.757239 
L 643.387705 327.857124 
L 644.718256 329.105689 
L 646.048808 329.405344 
L 647.379359 327.457583 
L 648.709911 327.657354 
L 650.040462 327.457583 
L 651.371013 328.955861 
L 652.701565 329.405344 
L 655.362668 329.705 
L 656.693219 329.255517 
L 658.02377 327.307756 
L 659.354322 327.907067 
L 660.684873 327.407641 
L 662.015425 327.857124 
L 663.345976 328.606263 
L 664.676528 326.758387 
L 666.007079 326.458731 
L 667.33763 323.661946 
L 668.668182 322.862865 
L 669.998733 321.464472 
L 671.329285 321.864013 
L 672.659836 320.415678 
L 673.990387 319.916252 
L 675.320939 319.167113 
L 676.65149 317.718778 
L 677.982042 317.469065 
L 679.312593 310.576987 
L 680.643145 312.774461 
L 681.973696 313.323829 
L 683.304247 312.225092 
L 684.634799 307.380661 
L 685.96535 307.830144 
L 687.295902 301.886975 
L 688.626453 301.78709 
L 689.957004 303.085598 
L 691.287556 307.031063 
L 692.618107 304.883531 
L 693.948659 299.439788 
L 695.27921 300.538525 
L 696.609762 297.74174 
L 697.940313 298.790535 
L 699.270864 299.589616 
L 700.601416 301.187779 
L 701.931967 298.490879 
L 703.262519 293.49662 
L 704.59307 295.594209 
L 705.923621 294.245759 
L 707.254173 292.098227 
L 708.584724 293.396735 
L 709.915276 299.339903 
L 711.245827 299.09019 
L 712.576379 294.745185 
L 713.90693 293.89616 
L 715.237481 295.694094 
L 716.568033 294.195816 
L 717.898584 294.595357 
L 719.229136 300.138985 
L 720.559687 299.339903 
L 721.890238 297.042544 
L 723.22079 296.19352 
L 724.551341 292.497768 
L 725.881893 295.04484 
L 727.212444 297.142429 
L 728.542996 299.889272 
L 729.873547 297.691798 
L 731.204098 297.042544 
L 732.53465 295.993749 
L 733.865201 291.19926 
L 735.195753 300.638411 
L 736.526304 305.133244 
L 737.856855 305.732555 
L 739.187407 302.686057 
L 741.84851 286.404771 
L 743.179061 280.511545 
L 744.509613 290.200409 
L 745.840164 289.900753 
L 747.170715 293.646447 
L 748.501267 289.151614 
L 749.831818 277.564932 
L 751.16237 281.010971 
L 752.492921 287.853107 
L 753.823472 286.254944 
L 755.154024 291.698686 
L 756.484575 301.637262 
L 757.815127 284.756666 
L 759.145678 284.45701 
L 760.47623 283.558044 
L 761.806781 283.957584 
L 764.467884 289.800868 
L 765.798435 297.791683 
L 767.128987 288.951844 
L 768.459538 283.957584 
L 769.790089 283.308331 
L 771.120641 346.935195 
L 772.451192 224.026472 
L 773.781744 293.147022 
L 775.112295 296.143577 
L 776.442846 291.548859 
L 777.773398 283.558044 
L 779.103949 285.056321 
L 780.434501 281.56034 
L 781.765052 285.206149 
L 783.095604 289.351384 
L 784.426155 293.047136 
L 785.756706 286.404771 
L 787.087258 273.070099 
L 788.417809 284.357125 
L 789.748361 284.25724 
L 791.078912 281.410512 
L 792.409463 281.959881 
L 793.740015 286.105116 
L 795.070566 281.110856 
L 796.401118 268.675151 
L 797.731669 272.720501 
L 799.062221 270.323256 
L 801.723323 289.601097 
L 803.053875 288.352533 
L 804.384426 284.656781 
L 805.714978 283.158503 
L 807.045529 286.654484 
L 808.37608 284.157355 
L 809.706632 290.350236 
L 811.037183 288.152762 
L 812.367735 291.399031 
L 813.698286 284.806608 
L 815.028838 282.259536 
L 816.359389 285.705575 
L 817.68994 288.752073 
L 819.020492 282.109708 
L 820.351043 292.098227 
L 821.681595 294.245759 
L 823.012146 282.359421 
L 824.342697 283.358273 
L 825.673249 289.900753 
L 827.0038 288.901901 
L 828.334352 284.656781 
L 829.664903 284.207297 
L 830.995455 287.303738 
L 832.326006 284.407068 
L 833.656557 278.064358 
L 834.987109 280.311775 
L 836.31766 346.935195 
L 837.648212 346.935195 
L 838.978763 166.043121 
L 840.309314 292.797423 
L 841.639866 346.935195 
L 845.63152 346.935195 
L 846.962072 91.179173 
L 848.292623 346.935195 
L 854.94538 346.935195 
L 856.275931 75.297428 
L 857.606483 346.935195 
L 858.937034 346.935195 
L 860.267586 259.285943 
L 861.598137 346.935195 
L 862.928689 346.935195 
L 864.25924 291.249203 
L 865.589791 346.935195 
L 866.920343 299.140133 
L 868.250894 346.935195 
L 869.581446 307.330718 
L 870.911997 346.935195 
L 873.5731 346.935195 
L 874.903651 280.811201 
L 876.234203 346.935195 
L 885.548063 346.935195 
L 886.878614 250.795702 
L 888.209165 346.935195 
L 889.539717 333.850235 
L 890.870268 346.935195 
L 892.20082 335.847939 
L 893.531371 341.84105 
L 894.861923 346.935195 
L 900.184128 346.935195 
L 901.51468 321.6143 
L 902.845231 343.1895 
L 904.175782 346.935195 
L 905.506334 346.935195 
L 906.836885 336.896734 
L 908.167437 343.489156 
L 909.497988 344.238295 
L 910.828539 346.935195 
L 912.159091 346.935195 
L 913.489642 339.593634 
L 914.820194 344.737721 
L 916.150745 343.988582 
L 917.481297 344.438065 
L 918.811848 346.935195 
L 920.142399 341.990878 
L 921.472951 346.935195 
L 925.464605 346.935195 
L 926.795156 335.797996 
L 928.125708 344.687778 
L 930.786811 344.53795 
L 932.117362 345.187204 
L 933.447914 343.988582 
L 937.439568 344.088467 
L 938.770119 345.137261 
L 940.100671 344.53795 
L 944.092325 345.037376 
L 945.422876 344.488008 
L 948.083979 344.637836 
L 949.414531 344.388123 
L 950.745082 344.787663 
L 953.406185 344.388123 
L 954.736736 343.688926 
L 956.067288 344.188352 
L 957.397839 344.388123 
L 958.72839 344.13841 
L 960.058942 344.887549 
L 962.720045 344.488008 
L 964.050596 344.687778 
L 965.381148 344.488008 
L 968.04225 344.787663 
L 970.703353 344.937491 
L 972.033905 344.787663 
L 973.364456 344.488008 
L 974.695007 345.037376 
L 976.025559 344.787663 
L 977.35611 344.687778 
L 978.686662 344.737721 
L 980.017213 345.436917 
L 981.347765 345.037376 
L 982.678316 345.087319 
L 984.008867 344.837606 
L 988.000522 345.386974 
L 990.661624 344.987434 
L 991.992176 345.037376 
L 995.98383 345.736573 
L 997.314382 345.48686 
L 998.644933 345.736573 
L 999.975484 345.68663 
L 1001.306036 345.337032 
L 1002.636587 345.237147 
L 1003.967139 345.736573 
L 1005.29769 345.037376 
L 1006.628241 345.48686 
L 1009.289344 344.787663 
L 1010.619896 344.837606 
L 1011.950447 344.637836 
L 1013.280999 344.687778 
L 1015.942101 344.288237 
L 1017.272653 344.388123 
L 1018.603204 343.738869 
L 1019.933756 343.688926 
L 1021.264307 342.540247 
L 1023.92541 342.939787 
L 1025.255961 341.141854 
L 1026.586513 341.741165 
L 1027.917064 339.643576 
L 1029.247615 335.847939 
L 1030.578167 334.349661 
L 1031.908718 332.60167 
L 1033.23927 330.354254 
L 1034.569821 330.703852 
L 1035.900373 327.507526 
L 1037.230924 320.765276 
L 1038.561475 316.869753 
L 1039.892027 309.777905 
L 1041.222578 309.378364 
L 1042.55313 306.032211 
L 1043.883681 304.683761 
L 1045.214232 295.793979 
L 1046.544784 259.735426 
L 1047.875335 217.83359 
L 1049.205887 194.859997 
L 1050.536438 188.717058 
L 1051.86699 168.390423 
L 1053.197541 193.711318 
L 1054.528092 174.133821 
L 1055.858644 108.309483 
L 1057.189195 114.602249 
L 1058.519747 79.143008 
L 1061.180849 65.858278 
L 1062.511401 83.188358 
L 1063.841952 73.39961 
L 1065.172504 72.001217 
L 1066.503055 53.622343 
L 1067.833607 50.8755 
L 1069.164158 67.706154 
L 1070.494709 103.015568 
L 1071.825261 116.799724 
L 1073.155812 120.445533 
L 1074.486364 105.312927 
L 1075.816915 120.145877 
L 1077.147466 120.895016 
L 1078.478018 110.307186 
L 1079.808569 123.492031 
L 1081.139121 151.509826 
L 1082.469672 163.695819 
L 1083.800224 136.626933 
L 1085.130775 154.106841 
L 1086.461326 142.570102 
L 1087.791878 154.556324 
L 1089.122429 169.389275 
L 1090.452981 196.45816 
L 1091.783532 184.12234 
L 1093.114083 159.800297 
L 1094.444635 180.626358 
L 1095.775186 189.016714 
L 1097.105738 203.799722 
L 1098.436289 220.930031 
L 1099.766841 260.734278 
L 1101.097392 240.257815 
L 1102.427943 235.713039 
L 1103.758495 247.948974 
L 1105.089046 257.388125 
L 1106.419598 268.575265 
L 1107.750149 278.214186 
L 1109.0807 297.142429 
L 1110.411252 296.343348 
L 1111.741803 294.395586 
L 1114.402906 315.621189 
L 1115.733458 313.124059 
L 1117.064009 313.773313 
L 1118.39456 320.116022 
L 1119.725112 315.371476 
L 1121.055663 314.322681 
L 1123.716766 323.16252 
L 1125.047317 326.608559 
L 1126.377869 328.806033 
L 1127.70842 332.801441 
L 1129.038972 331.103393 
L 1130.369523 333.001211 
L 1131.700075 335.997767 
L 1133.030626 337.59593 
L 1134.361177 337.446102 
L 1135.691729 338.045413 
L 1137.02228 340.192945 
L 1138.352832 339.693519 
L 1139.683383 339.643576 
L 1141.013934 340.4926 
L 1142.344486 340.592485 
L 1143.675037 342.090763 
L 1145.005589 341.691223 
L 1146.33614 342.040821 
L 1147.666692 340.642428 
L 1148.997243 340.29283 
L 1150.327794 340.692371 
L 1151.658346 341.44151 
L 1152.988897 341.191797 
L 1154.319449 341.990878 
L 1155.65 342.98973 
L 1156.980551 342.040821 
L 1158.311103 340.592485 
L 1159.641654 341.64128 
L 1160.972206 341.041969 
L 1163.633308 342.140706 
L 1166.294411 343.039673 
L 1167.624963 341.741165 
L 1168.955514 341.141854 
L 1170.286066 341.541395 
L 1171.616617 341.241739 
L 1174.27772 342.190648 
L 1175.608271 342.140706 
L 1176.938823 340.442658 
L 1178.269374 340.192945 
L 1179.599925 341.44151 
L 1180.930477 341.791108 
L 1182.261028 341.691223 
L 1183.59158 342.78996 
L 1184.922131 342.290534 
L 1186.252683 340.29283 
L 1187.583234 339.793404 
L 1188.913785 339.643576 
L 1190.244337 340.442658 
L 1191.574888 341.091911 
L 1192.90544 342.390419 
L 1194.235991 342.690074 
L 1195.566542 341.491452 
L 1196.897094 341.64128 
L 1199.558197 342.340476 
L 1200.888748 341.990878 
L 1202.2193 342.440361 
L 1203.549851 341.990878 
L 1204.880402 340.542543 
L 1206.210954 341.84105 
L 1207.541505 340.742313 
L 1208.872057 338.994322 
L 1210.202608 335.997767 
L 1211.533159 335.248628 
L 1212.863711 330.004656 
L 1214.194262 318.717629 
L 1215.524814 318.517859 
L 1216.855365 314.87205 
L 1218.185917 316.42027 
L 1219.516468 319.017285 
L 1220.847019 325.260109 
L 1222.177571 325.409937 
L 1223.508122 315.471361 
L 1224.838674 315.920844 
L 1226.169225 316.869753 
L 1227.499776 319.716481 
L 1228.830328 319.966194 
L 1230.160879 326.408789 
L 1231.491431 323.612004 
L 1232.821982 314.472509 
L 1234.152534 319.11717 
L 1235.483085 319.966194 
L 1236.813636 321.164817 
L 1238.144188 322.812922 
L 1239.474739 326.558617 
L 1240.805291 320.46562 
L 1242.135842 312.674576 
L 1243.466393 313.623485 
L 1244.796945 318.517859 
L 1246.127496 308.229685 
L 1247.458048 313.873198 
L 1248.788599 318.717629 
L 1250.119151 314.372624 
L 1251.449702 298.640707 
L 1252.780253 299.389846 
L 1254.110805 295.544266 
L 1255.441356 299.240018 
L 1256.771908 300.388698 
L 1258.102459 309.328422 
L 1259.43301 301.737148 
L 1260.763562 287.603394 
L 1262.094113 289.401327 
L 1263.424665 295.344496 
L 1264.755216 298.840477 
L 1266.085768 299.739444 
L 1267.416319 305.4329 
L 1268.74687 300.488583 
L 1270.077422 285.40592 
L 1271.407973 289.85081 
L 1272.738525 292.897309 
L 1274.069076 346.935195 
L 1276.730179 346.935195 
L 1278.06073 172.635543 
L 1279.391282 293.196964 
L 1280.721833 303.535081 
L 1282.052385 309.028766 
L 1283.382936 312.075265 
L 1284.713487 315.721074 
L 1286.044039 324.11143 
L 1287.37459 321.81407 
L 1288.705142 316.819811 
L 1290.035693 318.667687 
L 1292.696796 321.81407 
L 1294.027347 324.061487 
L 1295.357899 329.305459 
L 1296.68845 332.002359 
L 1298.019001 328.206722 
L 1299.349553 326.608559 
L 1300.680104 322.96275 
L 1300.680104 322.96275 
" clip-path="url(#pcc7829613c)" style="fill: none; stroke: #0000ff; stroke-width: 1.5; stroke-linecap: square"/>
   </g>
   <g id="line2d_20">
    <path d="M 1061.180849 91.20525 
L 1062.511401 84.724596 
L 1063.841952 69.191419 
L 1065.172504 81.945065 
L 1066.503055 67.8046 
L 1067.833607 65.660364 
L 1069.164158 68.105688 
L 1071.825261 95.516495 
L 1073.155812 116.666648 
L 1074.486364 107.329595 
L 1075.816915 119.020737 
L 1077.147466 124.773124 
L 1078.478018 132.889346 
L 1079.808569 136.33554 
L 1081.139121 142.892099 
L 1082.469672 141.807383 
L 1083.800224 154.251061 
L 1085.130775 156.537147 
L 1086.461326 146.488278 
L 1087.791878 149.506154 
L 1089.122429 162.023278 
L 1090.452981 178.363084 
L 1091.783532 180.788226 
L 1093.114083 177.188384 
L 1094.444635 177.87448 
L 1095.775186 187.220813 
L 1099.766841 225.591641 
L 1101.097392 226.465039 
L 1102.427943 241.348466 
L 1103.758495 248.161761 
L 1105.089046 251.71204 
L 1106.419598 259.809866 
L 1107.750149 275.431229 
L 1109.0807 281.281768 
L 1110.411252 289.471424 
L 1111.741803 292.088581 
L 1113.072355 297.729913 
L 1114.402906 306.491616 
L 1115.733458 311.060834 
L 1117.064009 313.475663 
L 1118.39456 316.996639 
L 1119.725112 314.311419 
L 1121.055663 318.194659 
L 1122.386215 320.636171 
L 1123.716766 318.504622 
L 1125.047317 320.111919 
L 1126.377869 324.466839 
L 1127.70842 325.2902 
L 1129.038972 328.158945 
L 1130.369523 329.113706 
L 1131.700075 330.788913 
L 1133.030626 335.322015 
L 1134.361177 337.140535 
L 1135.691729 337.564121 
L 1137.02228 338.769743 
L 1138.352832 338.585355 
L 1139.683383 339.991932 
L 1141.013934 340.394628 
L 1142.344486 338.41724 
L 1143.675037 338.633114 
L 1145.005589 339.596838 
L 1147.666692 339.542772 
L 1148.997243 338.862176 
L 1150.327794 338.570783 
L 1151.658346 340.376398 
L 1154.319449 340.434893 
L 1155.65 340.704977 
L 1156.980551 340.610921 
L 1158.311103 340.742985 
L 1159.641654 341.048024 
L 1160.972206 339.53887 
L 1162.302757 339.894933 
L 1163.633308 340.473456 
L 1167.624963 340.568526 
L 1168.955514 339.971831 
L 1170.286066 340.706235 
L 1171.616617 340.423664 
L 1172.947168 340.332168 
L 1174.27772 340.708715 
L 1175.608271 340.575241 
L 1176.938823 339.965829 
L 1178.269374 340.015288 
L 1179.599925 339.389085 
L 1183.59158 340.489143 
L 1190.244337 339.175791 
L 1191.574888 339.464979 
L 1192.90544 339.943583 
L 1194.235991 340.110387 
L 1196.897094 340.135509 
L 1198.227645 340.242128 
L 1199.558197 340.706263 
L 1202.2193 341.167914 
L 1204.880402 340.435189 
L 1206.210954 340.616717 
L 1207.541505 340.139846 
L 1208.872057 339.170359 
L 1211.533159 336.126167 
L 1212.863711 333.098015 
L 1214.194262 328.275562 
L 1215.524814 324.114222 
L 1216.855365 319.071996 
L 1218.185917 316.79084 
L 1219.516468 316.528851 
L 1220.847019 317.6772 
L 1222.177571 317.105061 
L 1223.508122 316.820452 
L 1224.838674 316.179366 
L 1226.169225 316.512984 
L 1227.499776 318.325504 
L 1228.830328 320.57481 
L 1230.160879 323.370733 
L 1231.491431 322.102281 
L 1232.821982 320.177302 
L 1234.152534 320.41589 
L 1235.483085 319.472118 
L 1236.813636 319.227991 
L 1238.144188 320.883014 
L 1239.474739 321.224306 
L 1240.805291 318.937503 
L 1242.135842 318.358929 
L 1243.466393 316.299185 
L 1244.796945 316.316718 
L 1246.127496 313.922074 
L 1247.458048 315.005635 
L 1248.788599 314.192903 
L 1250.119151 313.062913 
L 1251.449702 308.334431 
L 1252.780253 307.11054 
L 1254.110805 298.868229 
L 1255.441356 299.696198 
L 1256.771908 300.020981 
L 1258.102459 302.680015 
L 1259.43301 298.450286 
L 1260.763562 296.381014 
L 1262.094113 292.127705 
L 1263.424665 294.969535 
L 1264.755216 295.383458 
L 1266.085768 299.339946 
L 1267.416319 299.872942 
L 1268.74687 298.543501 
L 1270.077422 295.053279 
L 1271.407973 296.54985 
L 1272.738525 293.306034 
L 1274.069076 311.004789 
L 1275.399627 321.49502 
L 1276.730179 334.169053 
L 1278.06073 280.469027 
L 1279.391282 291.254732 
L 1280.721833 275.64617 
L 1282.052385 306.632819 
L 1283.382936 310.888059 
L 1284.713487 314.413687 
L 1286.044039 267.871225 
L 1287.37459 321.432428 
L 1288.705142 321.638296 
L 1290.035693 328.299907 
L 1291.366244 315.09126 
L 1292.696796 317.424097 
L 1294.027347 321.174978 
L 1295.357899 353.2755 
L 1296.68845 323.21477 
L 1298.019001 324.858984 
L 1299.349553 321.617122 
L 1300.680104 328.26022 
L 1300.680104 328.26022 
" clip-path="url(#pcc7829613c)" style="fill: none; stroke: #ffa500; stroke-width: 1.5; stroke-linecap: square"/>
   </g>
   <g id="line2d_21">
    <path d="M 1300.680104 328.26022 
L 1302.010656 328.273187 
L 1303.341207 327.843981 
L 1304.671759 310.758777 
L 1306.00231 323.405445 
L 1307.332861 323.166813 
L 1308.663413 322.326838 
L 1309.993964 320.14195 
L 1311.324516 319.919647 
L 1312.655067 319.550778 
L 1313.985618 324.522662 
L 1315.31617 320.056285 
L 1316.646721 319.69754 
L 1317.977273 319.533119 
" clip-path="url(#pcc7829613c)" style="fill: none; stroke: #ff0000; stroke-width: 1.5; stroke-linecap: square"/>
   </g>
   <g id="patch_3">
    <path d="M 39.65 368.3955 
L 39.65 35.7555 
" style="fill: none; stroke: #000000; stroke-width: 0.8; stroke-linejoin: miter; stroke-linecap: square"/>
   </g>
   <g id="patch_4">
    <path d="M 1378.85 368.3955 
L 1378.85 35.7555 
" style="fill: none; stroke: #000000; stroke-width: 0.8; stroke-linejoin: miter; stroke-linecap: square"/>
   </g>
   <g id="patch_5">
    <path d="M 39.65 368.3955 
L 1378.85 368.3955 
" style="fill: none; stroke: #000000; stroke-width: 0.8; stroke-linejoin: miter; stroke-linecap: square"/>
   </g>
   <g id="patch_6">
    <path d="M 39.65 35.7555 
L 1378.85 35.7555 
" style="fill: none; stroke: #000000; stroke-width: 0.8; stroke-linejoin: miter; stroke-linecap: square"/>
   </g>
   <g id="text_19">
    <!-- Daily Confirmed Cases Forecasting - Saudi Arabia -->
    <g transform="translate(560.677813 16.318125)scale(0.12 -0.12)">
     <defs>
      <path id="DejaVuSans-44" d="M 1259 4147 
L 1259 519 
L 2022 519 
Q 2988 519 3436 956 
Q 3884 1394 3884 2338 
Q 3884 3275 3436 3711 
Q 2988 4147 2022 4147 
L 1259 4147 
z
M 628 4666 
L 1925 4666 
Q 3281 4666 3915 4102 
Q 4550 3538 4550 2338 
Q 4550 1131 3912 565 
Q 3275 0 1925 0 
L 628 0 
L 628 4666 
z
" transform="scale(0.015625)"/>
      <path id="DejaVuSans-61" d="M 2194 1759 
Q 1497 1759 1228 1600 
Q 959 1441 959 1056 
Q 959 750 1161 570 
Q 1363 391 1709 391 
Q 2188 391 2477 730 
Q 2766 1069 2766 1631 
L 2766 1759 
L 2194 1759 
z
M 3341 1997 
L 3341 0 
L 2766 0 
L 2766 531 
Q 2569 213 2275 61 
Q 1981 -91 1556 -91 
Q 1019 -91 701 211 
Q 384 513 384 1019 
Q 384 1609 779 1909 
Q 1175 2209 1959 2209 
L 2766 2209 
L 2766 2266 
Q 2766 2663 2505 2880 
Q 2244 3097 1772 3097 
Q 1472 3097 1187 3025 
Q 903 2953 641 2809 
L 641 3341 
Q 956 3463 1253 3523 
Q 1550 3584 1831 3584 
Q 2591 3584 2966 3190 
Q 3341 2797 3341 1997 
z
" transform="scale(0.015625)"/>
      <path id="DejaVuSans-69" d="M 603 3500 
L 1178 3500 
L 1178 0 
L 603 0 
L 603 3500 
z
M 603 4863 
L 1178 4863 
L 1178 4134 
L 603 4134 
L 603 4863 
z
" transform="scale(0.015625)"/>
      <path id="DejaVuSans-6c" d="M 603 4863 
L 1178 4863 
L 1178 0 
L 603 0 
L 603 4863 
z
" transform="scale(0.015625)"/>
      <path id="DejaVuSans-79" d="M 2059 -325 
Q 1816 -950 1584 -1140 
Q 1353 -1331 966 -1331 
L 506 -1331 
L 506 -850 
L 844 -850 
Q 1081 -850 1212 -737 
Q 1344 -625 1503 -206 
L 1606 56 
L 191 3500 
L 800 3500 
L 1894 763 
L 2988 3500 
L 3597 3500 
L 2059 -325 
z
" transform="scale(0.015625)"/>
      <path id="DejaVuSans-20" transform="scale(0.015625)"/>
      <path id="DejaVuSans-43" d="M 4122 4306 
L 4122 3641 
Q 3803 3938 3442 4084 
Q 3081 4231 2675 4231 
Q 1875 4231 1450 3742 
Q 1025 3253 1025 2328 
Q 1025 1406 1450 917 
Q 1875 428 2675 428 
Q 3081 428 3442 575 
Q 3803 722 4122 1019 
L 4122 359 
Q 3791 134 3420 21 
Q 3050 -91 2638 -91 
Q 1578 -91 968 557 
Q 359 1206 359 2328 
Q 359 3453 968 4101 
Q 1578 4750 2638 4750 
Q 3056 4750 3426 4639 
Q 3797 4528 4122 4306 
z
" transform="scale(0.015625)"/>
      <path id="DejaVuSans-6f" d="M 1959 3097 
Q 1497 3097 1228 2736 
Q 959 2375 959 1747 
Q 959 1119 1226 758 
Q 1494 397 1959 397 
Q 2419 397 2687 759 
Q 2956 1122 2956 1747 
Q 2956 2369 2687 2733 
Q 2419 3097 1959 3097 
z
M 1959 3584 
Q 2709 3584 3137 3096 
Q 3566 2609 3566 1747 
Q 3566 888 3137 398 
Q 2709 -91 1959 -91 
Q 1206 -91 779 398 
Q 353 888 353 1747 
Q 353 2609 779 3096 
Q 1206 3584 1959 3584 
z
" transform="scale(0.015625)"/>
      <path id="DejaVuSans-6e" d="M 3513 2113 
L 3513 0 
L 2938 0 
L 2938 2094 
Q 2938 2591 2744 2837 
Q 2550 3084 2163 3084 
Q 1697 3084 1428 2787 
Q 1159 2491 1159 1978 
L 1159 0 
L 581 0 
L 581 3500 
L 1159 3500 
L 1159 2956 
Q 1366 3272 1645 3428 
Q 1925 3584 2291 3584 
Q 2894 3584 3203 3211 
Q 3513 2838 3513 2113 
z
" transform="scale(0.015625)"/>
      <path id="DejaVuSans-66" d="M 2375 4863 
L 2375 4384 
L 1825 4384 
Q 1516 4384 1395 4259 
Q 1275 4134 1275 3809 
L 1275 3500 
L 2222 3500 
L 2222 3053 
L 1275 3053 
L 1275 0 
L 697 0 
L 697 3053 
L 147 3053 
L 147 3500 
L 697 3500 
L 697 3744 
Q 697 4328 969 4595 
Q 1241 4863 1831 4863 
L 2375 4863 
z
" transform="scale(0.015625)"/>
      <path id="DejaVuSans-72" d="M 2631 2963 
Q 2534 3019 2420 3045 
Q 2306 3072 2169 3072 
Q 1681 3072 1420 2755 
Q 1159 2438 1159 1844 
L 1159 0 
L 581 0 
L 581 3500 
L 1159 3500 
L 1159 2956 
Q 1341 3275 1631 3429 
Q 1922 3584 2338 3584 
Q 2397 3584 2469 3576 
Q 2541 3569 2628 3553 
L 2631 2963 
z
" transform="scale(0.015625)"/>
      <path id="DejaVuSans-6d" d="M 3328 2828 
Q 3544 3216 3844 3400 
Q 4144 3584 4550 3584 
Q 5097 3584 5394 3201 
Q 5691 2819 5691 2113 
L 5691 0 
L 5113 0 
L 5113 2094 
Q 5113 2597 4934 2840 
Q 4756 3084 4391 3084 
Q 3944 3084 3684 2787 
Q 3425 2491 3425 1978 
L 3425 0 
L 2847 0 
L 2847 2094 
Q 2847 2600 2669 2842 
Q 2491 3084 2119 3084 
Q 1678 3084 1418 2786 
Q 1159 2488 1159 1978 
L 1159 0 
L 581 0 
L 581 3500 
L 1159 3500 
L 1159 2956 
Q 1356 3278 1631 3431 
Q 1906 3584 2284 3584 
Q 2666 3584 2933 3390 
Q 3200 3197 3328 2828 
z
" transform="scale(0.015625)"/>
      <path id="DejaVuSans-65" d="M 3597 1894 
L 3597 1613 
L 953 1613 
Q 991 1019 1311 708 
Q 1631 397 2203 397 
Q 2534 397 2845 478 
Q 3156 559 3463 722 
L 3463 178 
Q 3153 47 2828 -22 
Q 2503 -91 2169 -91 
Q 1331 -91 842 396 
Q 353 884 353 1716 
Q 353 2575 817 3079 
Q 1281 3584 2069 3584 
Q 2775 3584 3186 3129 
Q 3597 2675 3597 1894 
z
M 3022 2063 
Q 3016 2534 2758 2815 
Q 2500 3097 2075 3097 
Q 1594 3097 1305 2825 
Q 1016 2553 972 2059 
L 3022 2063 
z
" transform="scale(0.015625)"/>
      <path id="DejaVuSans-64" d="M 2906 2969 
L 2906 4863 
L 3481 4863 
L 3481 0 
L 2906 0 
L 2906 525 
Q 2725 213 2448 61 
Q 2172 -91 1784 -91 
Q 1150 -91 751 415 
Q 353 922 353 1747 
Q 353 2572 751 3078 
Q 1150 3584 1784 3584 
Q 2172 3584 2448 3432 
Q 2725 3281 2906 2969 
z
M 947 1747 
Q 947 1113 1208 752 
Q 1469 391 1925 391 
Q 2381 391 2643 752 
Q 2906 1113 2906 1747 
Q 2906 2381 2643 2742 
Q 2381 3103 1925 3103 
Q 1469 3103 1208 2742 
Q 947 2381 947 1747 
z
" transform="scale(0.015625)"/>
      <path id="DejaVuSans-73" d="M 2834 3397 
L 2834 2853 
Q 2591 2978 2328 3040 
Q 2066 3103 1784 3103 
Q 1356 3103 1142 2972 
Q 928 2841 928 2578 
Q 928 2378 1081 2264 
Q 1234 2150 1697 2047 
L 1894 2003 
Q 2506 1872 2764 1633 
Q 3022 1394 3022 966 
Q 3022 478 2636 193 
Q 2250 -91 1575 -91 
Q 1294 -91 989 -36 
Q 684 19 347 128 
L 347 722 
Q 666 556 975 473 
Q 1284 391 1588 391 
Q 1994 391 2212 530 
Q 2431 669 2431 922 
Q 2431 1156 2273 1281 
Q 2116 1406 1581 1522 
L 1381 1569 
Q 847 1681 609 1914 
Q 372 2147 372 2553 
Q 372 3047 722 3315 
Q 1072 3584 1716 3584 
Q 2034 3584 2315 3537 
Q 2597 3491 2834 3397 
z
" transform="scale(0.015625)"/>
      <path id="DejaVuSans-46" d="M 628 4666 
L 3309 4666 
L 3309 4134 
L 1259 4134 
L 1259 2759 
L 3109 2759 
L 3109 2228 
L 1259 2228 
L 1259 0 
L 628 0 
L 628 4666 
z
" transform="scale(0.015625)"/>
      <path id="DejaVuSans-63" d="M 3122 3366 
L 3122 2828 
Q 2878 2963 2633 3030 
Q 2388 3097 2138 3097 
Q 1578 3097 1268 2742 
Q 959 2388 959 1747 
Q 959 1106 1268 751 
Q 1578 397 2138 397 
Q 2388 397 2633 464 
Q 2878 531 3122 666 
L 3122 134 
Q 2881 22 2623 -34 
Q 2366 -91 2075 -91 
Q 1284 -91 818 406 
Q 353 903 353 1747 
Q 353 2603 823 3093 
Q 1294 3584 2113 3584 
Q 2378 3584 2631 3529 
Q 2884 3475 3122 3366 
z
" transform="scale(0.015625)"/>
      <path id="DejaVuSans-74" d="M 1172 4494 
L 1172 3500 
L 2356 3500 
L 2356 3053 
L 1172 3053 
L 1172 1153 
Q 1172 725 1289 603 
Q 1406 481 1766 481 
L 2356 481 
L 2356 0 
L 1766 0 
Q 1100 0 847 248 
Q 594 497 594 1153 
L 594 3053 
L 172 3053 
L 172 3500 
L 594 3500 
L 594 4494 
L 1172 4494 
z
" transform="scale(0.015625)"/>
      <path id="DejaVuSans-67" d="M 2906 1791 
Q 2906 2416 2648 2759 
Q 2391 3103 1925 3103 
Q 1463 3103 1205 2759 
Q 947 2416 947 1791 
Q 947 1169 1205 825 
Q 1463 481 1925 481 
Q 2391 481 2648 825 
Q 2906 1169 2906 1791 
z
M 3481 434 
Q 3481 -459 3084 -895 
Q 2688 -1331 1869 -1331 
Q 1566 -1331 1297 -1286 
Q 1028 -1241 775 -1147 
L 775 -588 
Q 1028 -725 1275 -790 
Q 1522 -856 1778 -856 
Q 2344 -856 2625 -561 
Q 2906 -266 2906 331 
L 2906 616 
Q 2728 306 2450 153 
Q 2172 0 1784 0 
Q 1141 0 747 490 
Q 353 981 353 1791 
Q 353 2603 747 3093 
Q 1141 3584 1784 3584 
Q 2172 3584 2450 3431 
Q 2728 3278 2906 2969 
L 2906 3500 
L 3481 3500 
L 3481 434 
z
" transform="scale(0.015625)"/>
      <path id="DejaVuSans-53" d="M 3425 4513 
L 3425 3897 
Q 3066 4069 2747 4153 
Q 2428 4238 2131 4238 
Q 1616 4238 1336 4038 
Q 1056 3838 1056 3469 
Q 1056 3159 1242 3001 
Q 1428 2844 1947 2747 
L 2328 2669 
Q 3034 2534 3370 2195 
Q 3706 1856 3706 1288 
Q 3706 609 3251 259 
Q 2797 -91 1919 -91 
Q 1588 -91 1214 -16 
Q 841 59 441 206 
L 441 856 
Q 825 641 1194 531 
Q 1563 422 1919 422 
Q 2459 422 2753 634 
Q 3047 847 3047 1241 
Q 3047 1584 2836 1778 
Q 2625 1972 2144 2069 
L 1759 2144 
Q 1053 2284 737 2584 
Q 422 2884 422 3419 
Q 422 4038 858 4394 
Q 1294 4750 2059 4750 
Q 2388 4750 2728 4690 
Q 3069 4631 3425 4513 
z
" transform="scale(0.015625)"/>
      <path id="DejaVuSans-75" d="M 544 1381 
L 544 3500 
L 1119 3500 
L 1119 1403 
Q 1119 906 1312 657 
Q 1506 409 1894 409 
Q 2359 409 2629 706 
Q 2900 1003 2900 1516 
L 2900 3500 
L 3475 3500 
L 3475 0 
L 2900 0 
L 2900 538 
Q 2691 219 2414 64 
Q 2138 -91 1772 -91 
Q 1169 -91 856 284 
Q 544 659 544 1381 
z
M 1991 3584 
L 1991 3584 
z
" transform="scale(0.015625)"/>
      <path id="DejaVuSans-41" d="M 2188 4044 
L 1331 1722 
L 3047 1722 
L 2188 4044 
z
M 1831 4666 
L 2547 4666 
L 4325 0 
L 3669 0 
L 3244 1197 
L 1141 1197 
L 716 0 
L 50 0 
L 1831 4666 
z
" transform="scale(0.015625)"/>
      <path id="DejaVuSans-62" d="M 3116 1747 
Q 3116 2381 2855 2742 
Q 2594 3103 2138 3103 
Q 1681 3103 1420 2742 
Q 1159 2381 1159 1747 
Q 1159 1113 1420 752 
Q 1681 391 2138 391 
Q 2594 391 2855 752 
Q 3116 1113 3116 1747 
z
M 1159 2969 
Q 1341 3281 1617 3432 
Q 1894 3584 2278 3584 
Q 2916 3584 3314 3078 
Q 3713 2572 3713 1747 
Q 3713 922 3314 415 
Q 2916 -91 2278 -91 
Q 1894 -91 1617 61 
Q 1341 213 1159 525 
L 1159 0 
L 581 0 
L 581 4863 
L 1159 4863 
L 1159 2969 
z
" transform="scale(0.015625)"/>
     </defs>
     <use xlink:href="#DejaVuSans-44"/>
     <use xlink:href="#DejaVuSans-61" x="77.001953"/>
     <use xlink:href="#DejaVuSans-69" x="138.28125"/>
     <use xlink:href="#DejaVuSans-6c" x="166.064453"/>
     <use xlink:href="#DejaVuSans-79" x="193.847656"/>
     <use xlink:href="#DejaVuSans-20" x="253.027344"/>
     <use xlink:href="#DejaVuSans-43" x="284.814453"/>
     <use xlink:href="#DejaVuSans-6f" x="354.638672"/>
     <use xlink:href="#DejaVuSans-6e" x="415.820312"/>
     <use xlink:href="#DejaVuSans-66" x="479.199219"/>
     <use xlink:href="#DejaVuSans-69" x="514.404297"/>
     <use xlink:href="#DejaVuSans-72" x="542.1875"/>
     <use xlink:href="#DejaVuSans-6d" x="581.550781"/>
     <use xlink:href="#DejaVuSans-65" x="678.962891"/>
     <use xlink:href="#DejaVuSans-64" x="740.486328"/>
     <use xlink:href="#DejaVuSans-20" x="803.962891"/>
     <use xlink:href="#DejaVuSans-43" x="835.75"/>
     <use xlink:href="#DejaVuSans-61" x="905.574219"/>
     <use xlink:href="#DejaVuSans-73" x="966.853516"/>
     <use xlink:href="#DejaVuSans-65" x="1018.953125"/>
     <use xlink:href="#DejaVuSans-73" x="1080.476562"/>
     <use xlink:href="#DejaVuSans-20" x="1132.576172"/>
     <use xlink:href="#DejaVuSans-46" x="1164.363281"/>
     <use xlink:href="#DejaVuSans-6f" x="1218.257812"/>
     <use xlink:href="#DejaVuSans-72" x="1279.439453"/>
     <use xlink:href="#DejaVuSans-65" x="1318.302734"/>
     <use xlink:href="#DejaVuSans-63" x="1379.826172"/>
     <use xlink:href="#DejaVuSans-61" x="1434.806641"/>
     <use xlink:href="#DejaVuSans-73" x="1496.085938"/>
     <use xlink:href="#DejaVuSans-74" x="1548.185547"/>
     <use xlink:href="#DejaVuSans-69" x="1587.394531"/>
     <use xlink:href="#DejaVuSans-6e" x="1615.177734"/>
     <use xlink:href="#DejaVuSans-67" x="1678.556641"/>
     <use xlink:href="#DejaVuSans-20" x="1742.033203"/>
     <use xlink:href="#DejaVuSans-2d" x="1773.820312"/>
     <use xlink:href="#DejaVuSans-20" x="1809.904297"/>
     <use xlink:href="#DejaVuSans-53" x="1841.691406"/>
     <use xlink:href="#DejaVuSans-61" x="1905.167969"/>
     <use xlink:href="#DejaVuSans-75" x="1966.447266"/>
     <use xlink:href="#DejaVuSans-64" x="2029.826172"/>
     <use xlink:href="#DejaVuSans-69" x="2093.302734"/>
     <use xlink:href="#DejaVuSans-20" x="2121.085938"/>
     <use xlink:href="#DejaVuSans-41" x="2152.873047"/>
     <use xlink:href="#DejaVuSans-72" x="2221.28125"/>
     <use xlink:href="#DejaVuSans-61" x="2262.394531"/>
     <use xlink:href="#DejaVuSans-62" x="2323.673828"/>
     <use xlink:href="#DejaVuSans-69" x="2387.150391"/>
     <use xlink:href="#DejaVuSans-61" x="2414.933594"/>
    </g>
    <!-- ARIMA (3, 0, 1)x(1, 0, 1, 7) (R2 = 0.974750) -->
    <g transform="translate(577.265938 29.7555)scale(0.12 -0.12)">
     <defs>
      <path id="DejaVuSans-52" d="M 2841 2188 
Q 3044 2119 3236 1894 
Q 3428 1669 3622 1275 
L 4263 0 
L 3584 0 
L 2988 1197 
Q 2756 1666 2539 1819 
Q 2322 1972 1947 1972 
L 1259 1972 
L 1259 0 
L 628 0 
L 628 4666 
L 2053 4666 
Q 2853 4666 3247 4331 
Q 3641 3997 3641 3322 
Q 3641 2881 3436 2590 
Q 3231 2300 2841 2188 
z
M 1259 4147 
L 1259 2491 
L 2053 2491 
Q 2509 2491 2742 2702 
Q 2975 2913 2975 3322 
Q 2975 3731 2742 3939 
Q 2509 4147 2053 4147 
L 1259 4147 
z
" transform="scale(0.015625)"/>
      <path id="DejaVuSans-49" d="M 628 4666 
L 1259 4666 
L 1259 0 
L 628 0 
L 628 4666 
z
" transform="scale(0.015625)"/>
      <path id="DejaVuSans-4d" d="M 628 4666 
L 1569 4666 
L 2759 1491 
L 3956 4666 
L 4897 4666 
L 4897 0 
L 4281 0 
L 4281 4097 
L 3078 897 
L 2444 897 
L 1241 4097 
L 1241 0 
L 628 0 
L 628 4666 
z
" transform="scale(0.015625)"/>
      <path id="DejaVuSans-28" d="M 1984 4856 
Q 1566 4138 1362 3434 
Q 1159 2731 1159 2009 
Q 1159 1288 1364 580 
Q 1569 -128 1984 -844 
L 1484 -844 
Q 1016 -109 783 600 
Q 550 1309 550 2009 
Q 550 2706 781 3412 
Q 1013 4119 1484 4856 
L 1984 4856 
z
" transform="scale(0.015625)"/>
      <path id="DejaVuSans-2c" d="M 750 794 
L 1409 794 
L 1409 256 
L 897 -744 
L 494 -744 
L 750 256 
L 750 794 
z
" transform="scale(0.015625)"/>
      <path id="DejaVuSans-29" d="M 513 4856 
L 1013 4856 
Q 1481 4119 1714 3412 
Q 1947 2706 1947 2009 
Q 1947 1309 1714 600 
Q 1481 -109 1013 -844 
L 513 -844 
Q 928 -128 1133 580 
Q 1338 1288 1338 2009 
Q 1338 2731 1133 3434 
Q 928 4138 513 4856 
z
" transform="scale(0.015625)"/>
      <path id="DejaVuSans-78" d="M 3513 3500 
L 2247 1797 
L 3578 0 
L 2900 0 
L 1881 1375 
L 863 0 
L 184 0 
L 1544 1831 
L 300 3500 
L 978 3500 
L 1906 2253 
L 2834 3500 
L 3513 3500 
z
" transform="scale(0.015625)"/>
      <path id="DejaVuSans-3d" d="M 678 2906 
L 4684 2906 
L 4684 2381 
L 678 2381 
L 678 2906 
z
M 678 1631 
L 4684 1631 
L 4684 1100 
L 678 1100 
L 678 1631 
z
" transform="scale(0.015625)"/>
      <path id="DejaVuSans-2e" d="M 684 794 
L 1344 794 
L 1344 0 
L 684 0 
L 684 794 
z
" transform="scale(0.015625)"/>
      <path id="DejaVuSans-39" d="M 703 97 
L 703 672 
Q 941 559 1184 500 
Q 1428 441 1663 441 
Q 2288 441 2617 861 
Q 2947 1281 2994 2138 
Q 2813 1869 2534 1725 
Q 2256 1581 1919 1581 
Q 1219 1581 811 2004 
Q 403 2428 403 3163 
Q 403 3881 828 4315 
Q 1253 4750 1959 4750 
Q 2769 4750 3195 4129 
Q 3622 3509 3622 2328 
Q 3622 1225 3098 567 
Q 2575 -91 1691 -91 
Q 1453 -91 1209 -44 
Q 966 3 703 97 
z
M 1959 2075 
Q 2384 2075 2632 2365 
Q 2881 2656 2881 3163 
Q 2881 3666 2632 3958 
Q 2384 4250 1959 4250 
Q 1534 4250 1286 3958 
Q 1038 3666 1038 3163 
Q 1038 2656 1286 2365 
Q 1534 2075 1959 2075 
z
" transform="scale(0.015625)"/>
     </defs>
     <use xlink:href="#DejaVuSans-41"/>
     <use xlink:href="#DejaVuSans-52" x="68.408203"/>
     <use xlink:href="#DejaVuSans-49" x="137.890625"/>
     <use xlink:href="#DejaVuSans-4d" x="167.382812"/>
     <use xlink:href="#DejaVuSans-41" x="253.662109"/>
     <use xlink:href="#DejaVuSans-20" x="322.070312"/>
     <use xlink:href="#DejaVuSans-28" x="353.857422"/>
     <use xlink:href="#DejaVuSans-33" x="392.871094"/>
     <use xlink:href="#DejaVuSans-2c" x="456.494141"/>
     <use xlink:href="#DejaVuSans-20" x="488.28125"/>
     <use xlink:href="#DejaVuSans-30" x="520.068359"/>
     <use xlink:href="#DejaVuSans-2c" x="583.691406"/>
     <use xlink:href="#DejaVuSans-20" x="615.478516"/>
     <use xlink:href="#DejaVuSans-31" x="647.265625"/>
     <use xlink:href="#DejaVuSans-29" x="710.888672"/>
     <use xlink:href="#DejaVuSans-78" x="749.902344"/>
     <use xlink:href="#DejaVuSans-28" x="809.082031"/>
     <use xlink:href="#DejaVuSans-31" x="848.095703"/>
     <use xlink:href="#DejaVuSans-2c" x="911.71875"/>
     <use xlink:href="#DejaVuSans-20" x="943.505859"/>
     <use xlink:href="#DejaVuSans-30" x="975.292969"/>
     <use xlink:href="#DejaVuSans-2c" x="1038.916016"/>
     <use xlink:href="#DejaVuSans-20" x="1070.703125"/>
     <use xlink:href="#DejaVuSans-31" x="1102.490234"/>
     <use xlink:href="#DejaVuSans-2c" x="1166.113281"/>
     <use xlink:href="#DejaVuSans-20" x="1197.900391"/>
     <use xlink:href="#DejaVuSans-37" x="1229.6875"/>
     <use xlink:href="#DejaVuSans-29" x="1293.310547"/>
     <use xlink:href="#DejaVuSans-20" x="1332.324219"/>
     <use xlink:href="#DejaVuSans-28" x="1364.111328"/>
     <use xlink:href="#DejaVuSans-52" x="1403.125"/>
     <use xlink:href="#DejaVuSans-32" x="1472.607422"/>
     <use xlink:href="#DejaVuSans-20" x="1536.230469"/>
     <use xlink:href="#DejaVuSans-3d" x="1568.017578"/>
     <use xlink:href="#DejaVuSans-20" x="1651.806641"/>
     <use xlink:href="#DejaVuSans-30" x="1683.59375"/>
     <use xlink:href="#DejaVuSans-2e" x="1747.216797"/>
     <use xlink:href="#DejaVuSans-39" x="1779.003906"/>
     <use xlink:href="#DejaVuSans-37" x="1842.626953"/>
     <use xlink:href="#DejaVuSans-34" x="1906.25"/>
     <use xlink:href="#DejaVuSans-37" x="1969.873047"/>
     <use xlink:href="#DejaVuSans-35" x="2033.496094"/>
     <use xlink:href="#DejaVuSans-30" x="2097.119141"/>
     <use xlink:href="#DejaVuSans-29" x="2160.742188"/>
    </g>
   </g>
   <g id="legend_1">
    <g id="patch_7">
     <path d="M 1274.770313 87.789875 
L 1371.85 87.789875 
Q 1373.85 87.789875 1373.85 85.789875 
L 1373.85 42.7555 
Q 1373.85 40.7555 1371.85 40.7555 
L 1274.770313 40.7555 
Q 1272.770313 40.7555 1272.770313 42.7555 
L 1272.770313 85.789875 
Q 1272.770313 87.789875 1274.770313 87.789875 
z
" style="fill: #ffffff; opacity: 0.8; stroke: #cccccc; stroke-linejoin: miter"/>
    </g>
    <g id="line2d_22">
     <path d="M 1276.770313 48.853937 
L 1286.770313 48.853937 
L 1296.770313 48.853937 
" style="fill: none; stroke: #0000ff; stroke-width: 1.5; stroke-linecap: square"/>
    </g>
    <g id="text_20">
     <!-- Actual Value -->
     <g transform="translate(1304.770313 52.353937)scale(0.1 -0.1)">
      <defs>
       <path id="DejaVuSans-56" d="M 1831 0 
L 50 4666 
L 709 4666 
L 2188 738 
L 3669 4666 
L 4325 4666 
L 2547 0 
L 1831 0 
z
" transform="scale(0.015625)"/>
      </defs>
      <use xlink:href="#DejaVuSans-41"/>
      <use xlink:href="#DejaVuSans-63" x="66.658203"/>
      <use xlink:href="#DejaVuSans-74" x="121.638672"/>
      <use xlink:href="#DejaVuSans-75" x="160.847656"/>
      <use xlink:href="#DejaVuSans-61" x="224.226562"/>
      <use xlink:href="#DejaVuSans-6c" x="285.505859"/>
      <use xlink:href="#DejaVuSans-20" x="313.289062"/>
      <use xlink:href="#DejaVuSans-56" x="345.076172"/>
      <use xlink:href="#DejaVuSans-61" x="405.734375"/>
      <use xlink:href="#DejaVuSans-6c" x="467.013672"/>
      <use xlink:href="#DejaVuSans-75" x="494.796875"/>
      <use xlink:href="#DejaVuSans-65" x="558.175781"/>
     </g>
    </g>
    <g id="line2d_23">
     <path d="M 1276.770313 63.532062 
L 1286.770313 63.532062 
L 1296.770313 63.532062 
" style="fill: none; stroke: #ffa500; stroke-width: 1.5; stroke-linecap: square"/>
    </g>
    <g id="text_21">
     <!-- Check Value -->
     <g transform="translate(1304.770313 67.032062)scale(0.1 -0.1)">
      <defs>
       <path id="DejaVuSans-68" d="M 3513 2113 
L 3513 0 
L 2938 0 
L 2938 2094 
Q 2938 2591 2744 2837 
Q 2550 3084 2163 3084 
Q 1697 3084 1428 2787 
Q 1159 2491 1159 1978 
L 1159 0 
L 581 0 
L 581 4863 
L 1159 4863 
L 1159 2956 
Q 1366 3272 1645 3428 
Q 1925 3584 2291 3584 
Q 2894 3584 3203 3211 
Q 3513 2838 3513 2113 
z
" transform="scale(0.015625)"/>
       <path id="DejaVuSans-6b" d="M 581 4863 
L 1159 4863 
L 1159 1991 
L 2875 3500 
L 3609 3500 
L 1753 1863 
L 3688 0 
L 2938 0 
L 1159 1709 
L 1159 0 
L 581 0 
L 581 4863 
z
" transform="scale(0.015625)"/>
      </defs>
      <use xlink:href="#DejaVuSans-43"/>
      <use xlink:href="#DejaVuSans-68" x="69.824219"/>
      <use xlink:href="#DejaVuSans-65" x="133.203125"/>
      <use xlink:href="#DejaVuSans-63" x="194.726562"/>
      <use xlink:href="#DejaVuSans-6b" x="249.707031"/>
      <use xlink:href="#DejaVuSans-20" x="307.617188"/>
      <use xlink:href="#DejaVuSans-56" x="339.404297"/>
      <use xlink:href="#DejaVuSans-61" x="400.0625"/>
      <use xlink:href="#DejaVuSans-6c" x="461.341797"/>
      <use xlink:href="#DejaVuSans-75" x="489.125"/>
      <use xlink:href="#DejaVuSans-65" x="552.503906"/>
     </g>
    </g>
    <g id="line2d_24">
     <path d="M 1276.770313 78.210187 
L 1286.770313 78.210187 
L 1296.770313 78.210187 
" style="fill: none; stroke: #ff0000; stroke-width: 1.5; stroke-linecap: square"/>
    </g>
    <g id="text_22">
     <!-- Predict Value -->
     <g transform="translate(1304.770313 81.710187)scale(0.1 -0.1)">
      <defs>
       <path id="DejaVuSans-50" d="M 1259 4147 
L 1259 2394 
L 2053 2394 
Q 2494 2394 2734 2622 
Q 2975 2850 2975 3272 
Q 2975 3691 2734 3919 
Q 2494 4147 2053 4147 
L 1259 4147 
z
M 628 4666 
L 2053 4666 
Q 2838 4666 3239 4311 
Q 3641 3956 3641 3272 
Q 3641 2581 3239 2228 
Q 2838 1875 2053 1875 
L 1259 1875 
L 1259 0 
L 628 0 
L 628 4666 
z
" transform="scale(0.015625)"/>
      </defs>
      <use xlink:href="#DejaVuSans-50"/>
      <use xlink:href="#DejaVuSans-72" x="58.552734"/>
      <use xlink:href="#DejaVuSans-65" x="97.416016"/>
      <use xlink:href="#DejaVuSans-64" x="158.939453"/>
      <use xlink:href="#DejaVuSans-69" x="222.416016"/>
      <use xlink:href="#DejaVuSans-63" x="250.199219"/>
      <use xlink:href="#DejaVuSans-74" x="305.179688"/>
      <use xlink:href="#DejaVuSans-20" x="344.388672"/>
      <use xlink:href="#DejaVuSans-56" x="376.175781"/>
      <use xlink:href="#DejaVuSans-61" x="436.833984"/>
      <use xlink:href="#DejaVuSans-6c" x="498.113281"/>
      <use xlink:href="#DejaVuSans-75" x="525.896484"/>
      <use xlink:href="#DejaVuSans-65" x="589.275391"/>
     </g>
    </g>
   </g>
  </g>
 </g>
 <defs>
  <clipPath id="pcc7829613c">
   <rect x="39.65" y="35.7555" width="1339.2" height="332.64"/>
  </clipPath>
 </defs>
</svg>
