<?xml version="1.0" encoding="utf-8" standalone="no"?>
<!DOCTYPE svg PUBLIC "-//W3C//DTD SVG 1.1//EN"
  "http://www.w3.org/Graphics/SVG/1.1/DTD/svg11.dtd">
<svg xmlns:xlink="http://www.w3.org/1999/xlink" width="1392.4125pt" height="392.273625pt" viewBox="0 0 1392.4125 392.273625" xmlns="http://www.w3.org/2000/svg" version="1.1">
 <metadata>
  <rdf:RDF xmlns:dc="http://purl.org/dc/elements/1.1/" xmlns:cc="http://creativecommons.org/ns#" xmlns:rdf="http://www.w3.org/1999/02/22-rdf-syntax-ns#">
   <cc:Work>
    <dc:type rdf:resource="http://purl.org/dc/dcmitype/StillImage"/>
    <dc:date>2022-07-14T19:45:36.062244</dc:date>
    <dc:format>image/svg+xml</dc:format>
    <dc:creator>
     <cc:Agent>
      <dc:title>Matplotlib v3.5.2, https://matplotlib.org/</dc:title>
     </cc:Agent>
    </dc:creator>
   </cc:Work>
  </rdf:RDF>
 </metadata>
 <defs>
  <style type="text/css">*{stroke-linejoin: round; stroke-linecap: butt}</style>
 </defs>
 <g id="figure_1">
  <g id="patch_1">
   <path d="M 0 392.273625 
L 1392.4125 392.273625 
L 1392.4125 0 
L 0 0 
z
" style="fill: #ffffff"/>
  </g>
  <g id="axes_1">
   <g id="patch_2">
    <path d="M 46.0125 368.3955 
L 1385.2125 368.3955 
L 1385.2125 35.7555 
L 46.0125 35.7555 
z
" style="fill: #ffffff"/>
   </g>
   <g id="matplotlib.axis_1">
    <g id="xtick_1">
     <g id="line2d_1">
      <defs>
       <path id="m1f50f922c8" d="M 0 0 
L 0 3.5 
" style="stroke: #000000; stroke-width: 0.8"/>
      </defs>
      <g>
       <use xlink:href="#m1f50f922c8" x="77.613096" y="368.3955" style="stroke: #000000; stroke-width: 0.8"/>
      </g>
     </g>
     <g id="text_1">
      <!-- 2020-01 -->
      <g transform="translate(56.72169 382.993937)scale(0.1 -0.1)">
       <defs>
        <path id="DejaVuSans-32" d="M 1228 531 
L 3431 531 
L 3431 0 
L 469 0 
L 469 531 
Q 828 903 1448 1529 
Q 2069 2156 2228 2338 
Q 2531 2678 2651 2914 
Q 2772 3150 2772 3378 
Q 2772 3750 2511 3984 
Q 2250 4219 1831 4219 
Q 1534 4219 1204 4116 
Q 875 4013 500 3803 
L 500 4441 
Q 881 4594 1212 4672 
Q 1544 4750 1819 4750 
Q 2544 4750 2975 4387 
Q 3406 4025 3406 3419 
Q 3406 3131 3298 2873 
Q 3191 2616 2906 2266 
Q 2828 2175 2409 1742 
Q 1991 1309 1228 531 
z
" transform="scale(0.015625)"/>
        <path id="DejaVuSans-30" d="M 2034 4250 
Q 1547 4250 1301 3770 
Q 1056 3291 1056 2328 
Q 1056 1369 1301 889 
Q 1547 409 2034 409 
Q 2525 409 2770 889 
Q 3016 1369 3016 2328 
Q 3016 3291 2770 3770 
Q 2525 4250 2034 4250 
z
M 2034 4750 
Q 2819 4750 3233 4129 
Q 3647 3509 3647 2328 
Q 3647 1150 3233 529 
Q 2819 -91 2034 -91 
Q 1250 -91 836 529 
Q 422 1150 422 2328 
Q 422 3509 836 4129 
Q 1250 4750 2034 4750 
z
" transform="scale(0.015625)"/>
        <path id="DejaVuSans-2d" d="M 313 2009 
L 1997 2009 
L 1997 1497 
L 313 1497 
L 313 2009 
z
" transform="scale(0.015625)"/>
        <path id="DejaVuSans-31" d="M 794 531 
L 1825 531 
L 1825 4091 
L 703 3866 
L 703 4441 
L 1819 4666 
L 2450 4666 
L 2450 531 
L 3481 531 
L 3481 0 
L 794 0 
L 794 531 
z
" transform="scale(0.015625)"/>
       </defs>
       <use xlink:href="#DejaVuSans-32"/>
       <use xlink:href="#DejaVuSans-30" x="63.623047"/>
       <use xlink:href="#DejaVuSans-32" x="127.246094"/>
       <use xlink:href="#DejaVuSans-30" x="190.869141"/>
       <use xlink:href="#DejaVuSans-2d" x="254.492188"/>
       <use xlink:href="#DejaVuSans-30" x="290.576172"/>
       <use xlink:href="#DejaVuSans-31" x="354.199219"/>
      </g>
     </g>
    </g>
    <g id="xtick_2">
     <g id="line2d_2">
      <g>
       <use xlink:href="#m1f50f922c8" x="198.693275" y="368.3955" style="stroke: #000000; stroke-width: 0.8"/>
      </g>
     </g>
     <g id="text_2">
      <!-- 2020-04 -->
      <g transform="translate(177.801869 382.993937)scale(0.1 -0.1)">
       <defs>
        <path id="DejaVuSans-34" d="M 2419 4116 
L 825 1625 
L 2419 1625 
L 2419 4116 
z
M 2253 4666 
L 3047 4666 
L 3047 1625 
L 3713 1625 
L 3713 1100 
L 3047 1100 
L 3047 0 
L 2419 0 
L 2419 1100 
L 313 1100 
L 313 1709 
L 2253 4666 
z
" transform="scale(0.015625)"/>
       </defs>
       <use xlink:href="#DejaVuSans-32"/>
       <use xlink:href="#DejaVuSans-30" x="63.623047"/>
       <use xlink:href="#DejaVuSans-32" x="127.246094"/>
       <use xlink:href="#DejaVuSans-30" x="190.869141"/>
       <use xlink:href="#DejaVuSans-2d" x="254.492188"/>
       <use xlink:href="#DejaVuSans-30" x="290.576172"/>
       <use xlink:href="#DejaVuSans-34" x="354.199219"/>
      </g>
     </g>
    </g>
    <g id="xtick_3">
     <g id="line2d_3">
      <g>
       <use xlink:href="#m1f50f922c8" x="319.773454" y="368.3955" style="stroke: #000000; stroke-width: 0.8"/>
      </g>
     </g>
     <g id="text_3">
      <!-- 2020-07 -->
      <g transform="translate(298.882048 382.993937)scale(0.1 -0.1)">
       <defs>
        <path id="DejaVuSans-37" d="M 525 4666 
L 3525 4666 
L 3525 4397 
L 1831 0 
L 1172 0 
L 2766 4134 
L 525 4134 
L 525 4666 
z
" transform="scale(0.015625)"/>
       </defs>
       <use xlink:href="#DejaVuSans-32"/>
       <use xlink:href="#DejaVuSans-30" x="63.623047"/>
       <use xlink:href="#DejaVuSans-32" x="127.246094"/>
       <use xlink:href="#DejaVuSans-30" x="190.869141"/>
       <use xlink:href="#DejaVuSans-2d" x="254.492188"/>
       <use xlink:href="#DejaVuSans-30" x="290.576172"/>
       <use xlink:href="#DejaVuSans-37" x="354.199219"/>
      </g>
     </g>
    </g>
    <g id="xtick_4">
     <g id="line2d_4">
      <g>
       <use xlink:href="#m1f50f922c8" x="442.184184" y="368.3955" style="stroke: #000000; stroke-width: 0.8"/>
      </g>
     </g>
     <g id="text_4">
      <!-- 2020-10 -->
      <g transform="translate(421.292778 382.993937)scale(0.1 -0.1)">
       <use xlink:href="#DejaVuSans-32"/>
       <use xlink:href="#DejaVuSans-30" x="63.623047"/>
       <use xlink:href="#DejaVuSans-32" x="127.246094"/>
       <use xlink:href="#DejaVuSans-30" x="190.869141"/>
       <use xlink:href="#DejaVuSans-2d" x="254.492188"/>
       <use xlink:href="#DejaVuSans-31" x="290.576172"/>
       <use xlink:href="#DejaVuSans-30" x="354.199219"/>
      </g>
     </g>
    </g>
    <g id="xtick_5">
     <g id="line2d_5">
      <g>
       <use xlink:href="#m1f50f922c8" x="564.594914" y="368.3955" style="stroke: #000000; stroke-width: 0.8"/>
      </g>
     </g>
     <g id="text_5">
      <!-- 2021-01 -->
      <g transform="translate(543.703508 382.993937)scale(0.1 -0.1)">
       <use xlink:href="#DejaVuSans-32"/>
       <use xlink:href="#DejaVuSans-30" x="63.623047"/>
       <use xlink:href="#DejaVuSans-32" x="127.246094"/>
       <use xlink:href="#DejaVuSans-31" x="190.869141"/>
       <use xlink:href="#DejaVuSans-2d" x="254.492188"/>
       <use xlink:href="#DejaVuSans-30" x="290.576172"/>
       <use xlink:href="#DejaVuSans-31" x="354.199219"/>
      </g>
     </g>
    </g>
    <g id="xtick_6">
     <g id="line2d_6">
      <g>
       <use xlink:href="#m1f50f922c8" x="684.344542" y="368.3955" style="stroke: #000000; stroke-width: 0.8"/>
      </g>
     </g>
     <g id="text_6">
      <!-- 2021-04 -->
      <g transform="translate(663.453135 382.993937)scale(0.1 -0.1)">
       <use xlink:href="#DejaVuSans-32"/>
       <use xlink:href="#DejaVuSans-30" x="63.623047"/>
       <use xlink:href="#DejaVuSans-32" x="127.246094"/>
       <use xlink:href="#DejaVuSans-31" x="190.869141"/>
       <use xlink:href="#DejaVuSans-2d" x="254.492188"/>
       <use xlink:href="#DejaVuSans-30" x="290.576172"/>
       <use xlink:href="#DejaVuSans-34" x="354.199219"/>
      </g>
     </g>
    </g>
    <g id="xtick_7">
     <g id="line2d_7">
      <g>
       <use xlink:href="#m1f50f922c8" x="805.424721" y="368.3955" style="stroke: #000000; stroke-width: 0.8"/>
      </g>
     </g>
     <g id="text_7">
      <!-- 2021-07 -->
      <g transform="translate(784.533314 382.993937)scale(0.1 -0.1)">
       <use xlink:href="#DejaVuSans-32"/>
       <use xlink:href="#DejaVuSans-30" x="63.623047"/>
       <use xlink:href="#DejaVuSans-32" x="127.246094"/>
       <use xlink:href="#DejaVuSans-31" x="190.869141"/>
       <use xlink:href="#DejaVuSans-2d" x="254.492188"/>
       <use xlink:href="#DejaVuSans-30" x="290.576172"/>
       <use xlink:href="#DejaVuSans-37" x="354.199219"/>
      </g>
     </g>
    </g>
    <g id="xtick_8">
     <g id="line2d_8">
      <g>
       <use xlink:href="#m1f50f922c8" x="927.835451" y="368.3955" style="stroke: #000000; stroke-width: 0.8"/>
      </g>
     </g>
     <g id="text_8">
      <!-- 2021-10 -->
      <g transform="translate(906.944045 382.993937)scale(0.1 -0.1)">
       <use xlink:href="#DejaVuSans-32"/>
       <use xlink:href="#DejaVuSans-30" x="63.623047"/>
       <use xlink:href="#DejaVuSans-32" x="127.246094"/>
       <use xlink:href="#DejaVuSans-31" x="190.869141"/>
       <use xlink:href="#DejaVuSans-2d" x="254.492188"/>
       <use xlink:href="#DejaVuSans-31" x="290.576172"/>
       <use xlink:href="#DejaVuSans-30" x="354.199219"/>
      </g>
     </g>
    </g>
    <g id="xtick_9">
     <g id="line2d_9">
      <g>
       <use xlink:href="#m1f50f922c8" x="1050.246181" y="368.3955" style="stroke: #000000; stroke-width: 0.8"/>
      </g>
     </g>
     <g id="text_9">
      <!-- 2022-01 -->
      <g transform="translate(1029.354775 382.993937)scale(0.1 -0.1)">
       <use xlink:href="#DejaVuSans-32"/>
       <use xlink:href="#DejaVuSans-30" x="63.623047"/>
       <use xlink:href="#DejaVuSans-32" x="127.246094"/>
       <use xlink:href="#DejaVuSans-32" x="190.869141"/>
       <use xlink:href="#DejaVuSans-2d" x="254.492188"/>
       <use xlink:href="#DejaVuSans-30" x="290.576172"/>
       <use xlink:href="#DejaVuSans-31" x="354.199219"/>
      </g>
     </g>
    </g>
    <g id="xtick_10">
     <g id="line2d_10">
      <g>
       <use xlink:href="#m1f50f922c8" x="1169.995808" y="368.3955" style="stroke: #000000; stroke-width: 0.8"/>
      </g>
     </g>
     <g id="text_10">
      <!-- 2022-04 -->
      <g transform="translate(1149.104402 382.993937)scale(0.1 -0.1)">
       <use xlink:href="#DejaVuSans-32"/>
       <use xlink:href="#DejaVuSans-30" x="63.623047"/>
       <use xlink:href="#DejaVuSans-32" x="127.246094"/>
       <use xlink:href="#DejaVuSans-32" x="190.869141"/>
       <use xlink:href="#DejaVuSans-2d" x="254.492188"/>
       <use xlink:href="#DejaVuSans-30" x="290.576172"/>
       <use xlink:href="#DejaVuSans-34" x="354.199219"/>
      </g>
     </g>
    </g>
    <g id="xtick_11">
     <g id="line2d_11">
      <g>
       <use xlink:href="#m1f50f922c8" x="1291.075987" y="368.3955" style="stroke: #000000; stroke-width: 0.8"/>
      </g>
     </g>
     <g id="text_11">
      <!-- 2022-07 -->
      <g transform="translate(1270.184581 382.993937)scale(0.1 -0.1)">
       <use xlink:href="#DejaVuSans-32"/>
       <use xlink:href="#DejaVuSans-30" x="63.623047"/>
       <use xlink:href="#DejaVuSans-32" x="127.246094"/>
       <use xlink:href="#DejaVuSans-32" x="190.869141"/>
       <use xlink:href="#DejaVuSans-2d" x="254.492188"/>
       <use xlink:href="#DejaVuSans-30" x="290.576172"/>
       <use xlink:href="#DejaVuSans-37" x="354.199219"/>
      </g>
     </g>
    </g>
   </g>
   <g id="matplotlib.axis_2">
    <g id="ytick_1">
     <g id="line2d_12">
      <defs>
       <path id="m43fac74654" d="M 0 0 
L -3.5 0 
" style="stroke: #000000; stroke-width: 0.8"/>
      </defs>
      <g>
       <use xlink:href="#m43fac74654" x="46.0125" y="340.574506" style="stroke: #000000; stroke-width: 0.8"/>
      </g>
     </g>
     <g id="text_12">
      <!-- 0 -->
      <g transform="translate(32.65 344.373725)scale(0.1 -0.1)">
       <use xlink:href="#DejaVuSans-30"/>
      </g>
     </g>
    </g>
    <g id="ytick_2">
     <g id="line2d_13">
      <g>
       <use xlink:href="#m43fac74654" x="46.0125" y="292.259128" style="stroke: #000000; stroke-width: 0.8"/>
      </g>
     </g>
     <g id="text_13">
      <!-- 2000 -->
      <g transform="translate(13.5625 296.058347)scale(0.1 -0.1)">
       <use xlink:href="#DejaVuSans-32"/>
       <use xlink:href="#DejaVuSans-30" x="63.623047"/>
       <use xlink:href="#DejaVuSans-30" x="127.246094"/>
       <use xlink:href="#DejaVuSans-30" x="190.869141"/>
      </g>
     </g>
    </g>
    <g id="ytick_3">
     <g id="line2d_14">
      <g>
       <use xlink:href="#m43fac74654" x="46.0125" y="243.94375" style="stroke: #000000; stroke-width: 0.8"/>
      </g>
     </g>
     <g id="text_14">
      <!-- 4000 -->
      <g transform="translate(13.5625 247.742969)scale(0.1 -0.1)">
       <use xlink:href="#DejaVuSans-34"/>
       <use xlink:href="#DejaVuSans-30" x="63.623047"/>
       <use xlink:href="#DejaVuSans-30" x="127.246094"/>
       <use xlink:href="#DejaVuSans-30" x="190.869141"/>
      </g>
     </g>
    </g>
    <g id="ytick_4">
     <g id="line2d_15">
      <g>
       <use xlink:href="#m43fac74654" x="46.0125" y="195.628372" style="stroke: #000000; stroke-width: 0.8"/>
      </g>
     </g>
     <g id="text_15">
      <!-- 6000 -->
      <g transform="translate(13.5625 199.427591)scale(0.1 -0.1)">
       <defs>
        <path id="DejaVuSans-36" d="M 2113 2584 
Q 1688 2584 1439 2293 
Q 1191 2003 1191 1497 
Q 1191 994 1439 701 
Q 1688 409 2113 409 
Q 2538 409 2786 701 
Q 3034 994 3034 1497 
Q 3034 2003 2786 2293 
Q 2538 2584 2113 2584 
z
M 3366 4563 
L 3366 3988 
Q 3128 4100 2886 4159 
Q 2644 4219 2406 4219 
Q 1781 4219 1451 3797 
Q 1122 3375 1075 2522 
Q 1259 2794 1537 2939 
Q 1816 3084 2150 3084 
Q 2853 3084 3261 2657 
Q 3669 2231 3669 1497 
Q 3669 778 3244 343 
Q 2819 -91 2113 -91 
Q 1303 -91 875 529 
Q 447 1150 447 2328 
Q 447 3434 972 4092 
Q 1497 4750 2381 4750 
Q 2619 4750 2861 4703 
Q 3103 4656 3366 4563 
z
" transform="scale(0.015625)"/>
       </defs>
       <use xlink:href="#DejaVuSans-36"/>
       <use xlink:href="#DejaVuSans-30" x="63.623047"/>
       <use xlink:href="#DejaVuSans-30" x="127.246094"/>
       <use xlink:href="#DejaVuSans-30" x="190.869141"/>
      </g>
     </g>
    </g>
    <g id="ytick_5">
     <g id="line2d_16">
      <g>
       <use xlink:href="#m43fac74654" x="46.0125" y="147.312994" style="stroke: #000000; stroke-width: 0.8"/>
      </g>
     </g>
     <g id="text_16">
      <!-- 8000 -->
      <g transform="translate(13.5625 151.112213)scale(0.1 -0.1)">
       <defs>
        <path id="DejaVuSans-38" d="M 2034 2216 
Q 1584 2216 1326 1975 
Q 1069 1734 1069 1313 
Q 1069 891 1326 650 
Q 1584 409 2034 409 
Q 2484 409 2743 651 
Q 3003 894 3003 1313 
Q 3003 1734 2745 1975 
Q 2488 2216 2034 2216 
z
M 1403 2484 
Q 997 2584 770 2862 
Q 544 3141 544 3541 
Q 544 4100 942 4425 
Q 1341 4750 2034 4750 
Q 2731 4750 3128 4425 
Q 3525 4100 3525 3541 
Q 3525 3141 3298 2862 
Q 3072 2584 2669 2484 
Q 3125 2378 3379 2068 
Q 3634 1759 3634 1313 
Q 3634 634 3220 271 
Q 2806 -91 2034 -91 
Q 1263 -91 848 271 
Q 434 634 434 1313 
Q 434 1759 690 2068 
Q 947 2378 1403 2484 
z
M 1172 3481 
Q 1172 3119 1398 2916 
Q 1625 2713 2034 2713 
Q 2441 2713 2670 2916 
Q 2900 3119 2900 3481 
Q 2900 3844 2670 4047 
Q 2441 4250 2034 4250 
Q 1625 4250 1398 4047 
Q 1172 3844 1172 3481 
z
" transform="scale(0.015625)"/>
       </defs>
       <use xlink:href="#DejaVuSans-38"/>
       <use xlink:href="#DejaVuSans-30" x="63.623047"/>
       <use xlink:href="#DejaVuSans-30" x="127.246094"/>
       <use xlink:href="#DejaVuSans-30" x="190.869141"/>
      </g>
     </g>
    </g>
    <g id="ytick_6">
     <g id="line2d_17">
      <g>
       <use xlink:href="#m43fac74654" x="46.0125" y="98.997616" style="stroke: #000000; stroke-width: 0.8"/>
      </g>
     </g>
     <g id="text_17">
      <!-- 10000 -->
      <g transform="translate(7.2 102.796835)scale(0.1 -0.1)">
       <use xlink:href="#DejaVuSans-31"/>
       <use xlink:href="#DejaVuSans-30" x="63.623047"/>
       <use xlink:href="#DejaVuSans-30" x="127.246094"/>
       <use xlink:href="#DejaVuSans-30" x="190.869141"/>
       <use xlink:href="#DejaVuSans-30" x="254.492188"/>
      </g>
     </g>
    </g>
    <g id="ytick_7">
     <g id="line2d_18">
      <g>
       <use xlink:href="#m43fac74654" x="46.0125" y="50.682238" style="stroke: #000000; stroke-width: 0.8"/>
      </g>
     </g>
     <g id="text_18">
      <!-- 12000 -->
      <g transform="translate(7.2 54.481457)scale(0.1 -0.1)">
       <use xlink:href="#DejaVuSans-31"/>
       <use xlink:href="#DejaVuSans-32" x="63.623047"/>
       <use xlink:href="#DejaVuSans-30" x="127.246094"/>
       <use xlink:href="#DejaVuSans-30" x="190.869141"/>
       <use xlink:href="#DejaVuSans-30" x="254.492188"/>
      </g>
     </g>
    </g>
   </g>
   <g id="line2d_19">
    <path d="M 106.885227 340.574506 
L 172.082247 340.574506 
L 173.412798 340.405403 
L 174.743349 340.357087 
L 176.073901 340.477876 
L 177.404452 340.477876 
L 180.065555 340.043037 
L 181.396107 340.212141 
L 182.726658 339.970564 
L 184.057209 340.260456 
L 185.387761 340.212141 
L 186.718312 339.584041 
L 188.048864 340.163826 
L 189.379415 339.994722 
L 190.709966 340.018879 
L 192.040518 339.70483 
L 193.371069 339.970564 
L 194.701621 339.559883 
L 196.032172 339.873933 
L 197.362724 340.043037 
L 198.693275 339.414937 
L 200.023826 340.284614 
L 201.354378 339.728987 
L 202.684929 340.187983 
L 204.015481 339.994722 
L 205.346032 340.357087 
L 206.676583 340.42956 
L 208.007135 339.873933 
L 209.337686 340.284614 
L 210.668238 340.018879 
L 211.998789 340.139668 
L 213.329341 340.067195 
L 214.659892 340.477876 
L 215.990443 340.526191 
L 217.320995 340.357087 
L 219.982098 340.405403 
L 221.312649 339.849776 
L 222.6432 340.212141 
L 225.304303 340.357087 
L 227.965406 340.163826 
L 229.295958 340.42956 
L 230.626509 340.091353 
L 231.95706 340.381245 
L 233.287612 340.42956 
L 234.618163 340.139668 
L 237.279266 340.357087 
L 238.609817 340.284614 
L 239.940369 340.550349 
L 242.601472 340.163826 
L 243.932023 340.574506 
L 246.593126 340.357087 
L 247.923677 340.11551 
L 249.254229 340.526191 
L 250.58478 340.357087 
L 254.576434 340.550349 
L 255.906986 340.308772 
L 257.237537 340.381245 
L 258.568089 339.922249 
L 259.89864 340.308772 
L 261.229192 340.550349 
L 266.551397 340.453718 
L 267.881949 340.187983 
L 269.2125 340.550349 
L 275.865257 340.502033 
L 279.856911 340.574506 
L 282.518014 340.381245 
L 283.848566 340.502033 
L 329.087314 340.405403 
L 330.417865 340.260456 
L 333.078968 340.381245 
L 334.409519 340.574506 
L 343.723379 340.502033 
L 346.384482 340.550349 
L 349.045585 340.42956 
L 351.706688 340.550349 
L 353.037239 340.260456 
L 354.367791 340.574506 
L 363.681651 340.502033 
L 365.012202 340.502033 
L 366.342753 340.381245 
L 367.673305 340.139668 
L 369.003856 340.42956 
L 370.334408 340.405403 
L 372.99551 340.574506 
L 375.656613 340.332929 
L 378.317716 340.550349 
L 379.648268 340.405403 
L 380.978819 340.405403 
L 382.30937 340.550349 
L 386.301025 340.550349 
L 390.292679 340.477876 
L 391.62323 340.574506 
L 392.953782 340.453718 
L 394.284333 340.139668 
L 395.614885 340.42956 
L 396.945436 340.357087 
L 398.275987 340.42956 
L 399.606539 340.284614 
L 400.93709 340.502033 
L 402.267642 340.381245 
L 403.598193 340.526191 
L 407.589847 340.357087 
L 410.25095 340.550349 
L 411.581501 340.502033 
L 412.912053 340.308772 
L 414.242604 340.453718 
L 415.573156 340.308772 
L 416.903707 340.453718 
L 418.234259 340.332929 
L 419.56481 340.502033 
L 423.556464 340.381245 
L 424.887016 340.477876 
L 426.217567 340.163826 
L 428.87867 340.550349 
L 430.209221 339.753145 
L 431.539773 340.284614 
L 434.200876 339.825618 
L 435.531427 339.873933 
L 436.861978 340.043037 
L 438.19253 340.067195 
L 439.523081 339.80146 
L 440.853633 338.279526 
L 442.184184 339.511568 
L 443.514735 338.714364 
L 446.175838 338.955941 
L 447.50639 339.608199 
L 448.836941 338.931783 
L 450.167493 338.955941 
L 451.498044 337.941318 
L 452.828595 337.264903 
L 454.159147 338.424472 
L 455.489698 338.786837 
L 456.82025 338.279526 
L 458.150801 338.76268 
L 459.481352 338.110422 
L 460.811904 337.82053 
L 462.142455 336.999168 
L 463.473007 336.032861 
L 464.803558 339.17336 
L 466.13411 339.511568 
L 468.795212 336.032861 
L 470.125764 336.685118 
L 471.456315 334.535084 
L 472.786867 334.317665 
L 474.117418 335.477234 
L 475.447969 338.666049 
L 476.778521 337.289061 
L 478.109072 334.510926 
L 479.439624 334.510926 
L 480.770175 333.713723 
L 482.100727 335.380603 
L 483.431278 334.728346 
L 484.761829 337.385691 
L 486.092381 336.443542 
L 487.422932 333.01315 
L 488.753484 331.708634 
L 490.084035 331.950211 
L 491.414586 330.8148 
L 492.745138 335.380603 
L 494.075689 338.351999 
L 495.406241 335.549707 
L 496.736792 329.631073 
L 498.067344 327.698458 
L 499.397895 329.582758 
L 500.728446 331.032219 
L 502.058998 332.940677 
L 503.389549 338.424472 
L 504.720101 333.858669 
L 506.050652 329.896808 
L 507.381203 331.732792 
L 508.711755 331.394585 
L 510.042306 325.06527 
L 512.703409 337.772214 
L 514.033961 329.534442 
L 515.364512 326.563047 
L 516.695063 318.880902 
L 518.025615 325.186058 
L 519.356166 322.383767 
L 522.017269 338.158737 
L 523.34782 325.790001 
L 524.678372 323.905701 
L 526.008923 318.107856 
L 527.339475 324.002332 
L 528.670026 321.393301 
L 530.000577 327.867562 
L 531.331129 335.573865 
L 532.66168 326.466416 
L 533.992232 323.374232 
L 535.322783 319.074163 
L 536.653335 324.147278 
L 537.983886 324.630432 
L 539.314437 325.37932 
L 540.644989 335.501392 
L 541.97554 326.393943 
L 543.306092 315.861191 
L 544.636643 315.45051 
L 545.967194 319.025848 
L 547.297746 319.557317 
L 548.628297 325.041112 
L 549.958849 331.032219 
L 551.2894 316.320187 
L 552.619952 312.913952 
L 553.950503 309.894241 
L 555.281054 324.485485 
L 556.611606 330.935588 
L 557.942157 328.229927 
L 559.272709 328.3024 
L 560.60326 320.330363 
L 563.264363 295.617047 
L 564.594914 323.398389 
L 565.925466 332.988992 
L 567.256017 326.852939 
L 568.586569 325.572581 
L 569.91712 320.668571 
L 571.247671 310.884707 
L 572.578223 307.381842 
L 573.908774 310.691445 
L 575.239326 312.31001 
L 576.569877 325.69337 
L 577.900428 332.578311 
L 579.23098 319.364055 
L 580.561531 310.256607 
L 581.892083 317.624702 
L 583.222634 314.387571 
L 584.553186 315.667929 
L 585.883737 326.877097 
L 587.214288 334.68003 
L 588.54484 320.958463 
L 589.875391 314.290941 
L 591.205943 318.784271 
L 592.536494 319.412371 
L 593.867045 318.591009 
L 595.197597 328.20577 
L 596.528148 335.187342 
L 597.8587 323.833228 
L 599.189251 313.928575 
L 600.519803 317.262336 
L 601.850354 318.083698 
L 603.180905 321.61072 
L 604.511457 327.698458 
L 605.842008 330.645696 
L 607.17256 321.852297 
L 608.503111 310.836391 
L 609.833662 322.649501 
L 611.164214 319.412371 
L 612.494765 315.353879 
L 613.825317 328.978816 
L 615.155868 333.617092 
L 616.48642 321.707351 
L 617.816971 316.658394 
L 619.147522 320.233732 
L 621.808625 321.900613 
L 623.139177 330.331646 
L 624.469728 333.858669 
L 625.800279 323.350074 
L 627.130831 317.721333 
L 628.461382 323.470863 
L 629.791934 323.929859 
L 631.122485 314.749937 
L 632.453037 330.669854 
L 633.783588 333.9553 
L 635.114139 324.413012 
L 636.444691 316.827498 
L 637.775242 320.934305 
L 639.105794 323.060182 
L 640.436345 320.596098 
L 641.766896 331.491215 
L 643.097448 334.003615 
L 644.427999 324.992797 
L 645.758551 318.37359 
L 647.089102 324.968639 
L 648.419654 322.55287 
L 649.750205 326.200681 
L 651.080756 332.79573 
L 652.411308 335.887915 
L 653.741859 329.172077 
L 655.072411 325.137743 
L 656.402962 325.161901 
L 657.733513 325.306847 
L 659.064065 326.611362 
L 660.394616 333.399673 
L 661.725168 336.274438 
L 663.055719 325.041112 
L 664.38627 320.813517 
L 665.716822 328.9305 
L 667.047373 325.548424 
L 668.377925 325.475951 
L 669.708476 334.293507 
L 671.039028 336.298595 
L 672.369579 328.3024 
L 673.70013 321.82814 
L 675.030682 325.934947 
L 676.361233 325.161901 
L 677.691785 326.031578 
L 679.022336 332.747415 
L 680.352887 336.540172 
L 681.683439 327.867562 
L 683.01399 325.355162 
L 684.344542 325.161901 
L 685.675093 326.393943 
L 687.005645 333.834511 
L 688.336196 334.824976 
L 689.666747 337.699741 
L 690.997299 333.10978 
L 692.32785 325.041112 
L 693.658402 322.697816 
L 694.988953 324.678747 
L 696.319504 324.485485 
L 697.650056 331.684477 
L 698.980607 335.501392 
L 700.311159 327.601827 
L 701.64171 322.86692 
L 702.972262 325.041112 
L 704.302813 325.790001 
L 705.633364 324.775378 
L 706.963916 332.433365 
L 708.294467 335.694653 
L 709.625019 323.954016 
L 710.95557 322.23882 
L 712.286121 326.611362 
L 713.616673 324.074805 
L 714.947224 323.398389 
L 716.277776 331.853581 
L 717.608327 335.259815 
L 720.26943 317.214021 
L 721.599981 323.760755 
L 722.930533 322.14219 
L 724.261084 320.958463 
L 725.591636 331.394585 
L 726.922187 335.670495 
L 728.252738 330.307489 
L 729.58329 331.926054 
L 730.913841 321.900613 
L 732.244393 315.547141 
L 733.574944 321.586563 
L 734.905496 325.306847 
L 736.236047 332.409207 
L 737.566598 324.654589 
L 738.89715 322.963551 
L 740.227701 323.929859 
L 741.558253 324.268066 
L 742.888804 327.432724 
L 744.219355 331.370427 
L 745.549907 337.023326 
L 746.880458 326.973727 
L 748.21101 325.862474 
L 749.541561 328.568135 
L 750.872113 329.051289 
L 752.202664 329.920966 
L 753.533215 334.945765 
L 754.863767 337.337376 
L 756.194318 330.065912 
L 757.52487 331.008062 
L 758.855421 332.167631 
L 760.185972 332.022684 
L 761.516524 333.182254 
L 762.847075 336.226122 
L 764.177627 338.13458 
L 765.508178 332.868204 
L 766.83873 332.167631 
L 768.169281 333.42383 
L 769.499832 334.317665 
L 770.830384 334.390138 
L 772.160935 337.313218 
L 773.491487 338.738522 
L 774.822038 334.390138 
L 776.152589 334.68003 
L 777.483141 335.839599 
L 778.813692 336.274438 
L 780.144244 336.274438 
L 781.474795 338.400314 
L 782.805346 338.786837 
L 784.135898 337.119957 
L 785.466449 336.805907 
L 786.797001 337.168272 
L 788.127552 337.965476 
L 789.458104 338.54526 
L 790.788655 338.786837 
L 792.119206 339.608199 
L 793.449758 337.554795 
L 794.780309 338.110422 
L 796.110861 339.777303 
L 797.441412 340.091353 
L 798.771963 339.632356 
L 800.102515 339.584041 
L 801.433066 339.849776 
L 802.763618 338.424472 
L 804.094169 338.158737 
L 806.755272 339.608199 
L 808.085823 339.125045 
L 809.416375 339.825618 
L 810.746926 340.043037 
L 812.077478 339.463253 
L 814.73858 339.366622 
L 816.069132 339.753145 
L 817.399683 339.80146 
L 818.730235 339.70483 
L 820.060786 340.139668 
L 821.391338 339.294149 
L 822.721889 339.753145 
L 824.05244 339.680672 
L 825.382992 339.463253 
L 829.374646 339.970564 
L 830.705197 339.269991 
L 832.035749 339.07673 
L 833.3663 339.511568 
L 834.696852 339.656514 
L 836.027403 339.535726 
L 837.357955 339.221676 
L 838.688506 340.018879 
L 840.019057 338.931783 
L 841.349609 338.690207 
L 842.68016 338.955941 
L 844.010712 338.593576 
L 845.341263 339.028414 
L 846.671814 339.70483 
L 848.002366 339.946406 
L 849.332917 337.868845 
L 850.663469 338.231211 
L 851.99402 338.883468 
L 853.324572 338.641891 
L 854.655123 339.052572 
L 855.985674 338.786837 
L 857.316226 339.584041 
L 858.646777 337.554795 
L 859.977329 337.675584 
L 861.30788 337.989634 
L 862.638431 337.50648 
L 863.968983 337.965476 
L 865.299534 338.810995 
L 866.630086 339.39078 
L 867.960637 336.854222 
L 869.291189 336.226122 
L 870.62174 337.047484 
L 871.952291 337.361534 
L 873.282843 336.709276 
L 874.613394 338.13458 
L 875.943946 338.810995 
L 877.274497 336.491857 
L 878.605048 334.559242 
L 879.9356 336.950853 
L 881.266151 336.201965 
L 882.596703 334.390138 
L 883.927254 335.839599 
L 885.257806 338.617734 
L 886.588357 334.849134 
L 887.918908 329.24455 
L 889.24946 332.360892 
L 890.580011 332.022684 
L 891.910563 331.877738 
L 893.241114 331.926054 
L 894.571665 337.82053 
L 895.902217 333.061465 
L 897.232768 329.486127 
L 898.56332 328.713081 
L 899.893871 328.785554 
L 901.224423 330.452435 
L 902.554974 331.080535 
L 903.885525 337.313218 
L 905.216077 329.461969 
L 906.546628 323.736597 
L 907.87718 326.176524 
L 909.207731 327.698458 
L 910.538282 327.481039 
L 911.868834 330.8148 
L 913.199385 336.008703 
L 914.529937 328.640608 
L 915.860488 324.292224 
L 917.191039 321.82814 
L 918.521591 323.422547 
L 919.852142 320.861832 
L 921.182694 326.877097 
L 922.513245 333.568777 
L 923.843797 321.151724 
L 925.174348 311.512806 
L 926.504899 311.392018 
L 927.835451 313.348791 
L 929.166002 311.826856 
L 930.496554 315.619614 
L 931.827105 329.002973 
L 933.157656 316.17524 
L 934.488208 300.207008 
L 935.818759 298.250235 
L 937.149311 299.627224 
L 938.479862 300.255323 
L 939.810414 307.744207 
L 941.140965 316.368502 
L 942.471516 307.333526 
L 943.802068 286.557914 
L 945.132619 282.402791 
L 946.463171 288.828737 
L 947.793722 272.957135 
L 949.124273 283.199995 
L 950.454825 310.256607 
L 951.785376 295.810309 
L 953.115928 277.788673 
L 954.446479 269.671689 
L 955.777031 264.888467 
L 957.107582 269.744162 
L 958.438133 286.171391 
L 959.768685 319.146636 
L 961.099236 289.432679 
L 962.429788 263.124955 
L 963.760339 270.058212 
L 965.09089 273.9476 
L 966.421442 271.02452 
L 969.082545 321.92477 
L 970.413096 295.06142 
L 971.743648 274.913908 
L 973.074199 283.87641 
L 974.40475 296.583355 
L 975.735302 294.96479 
L 977.065853 310.256607 
L 978.396405 330.355804 
L 979.726956 305.5217 
L 981.057507 299.77217 
L 982.388059 307.285211 
L 983.71861 307.043634 
L 985.049162 306.222273 
L 986.379713 322.093874 
L 987.710265 330.379962 
L 989.040816 314.556675 
L 990.371367 304.313815 
L 991.701919 311.077968 
L 993.03247 329.824335 
L 994.363022 325.669212 
L 995.693573 328.664766 
L 997.024124 332.143473 
L 998.354676 309.338614 
L 999.685227 309.676822 
L 1001.015779 314.121837 
L 1002.34633 319.460686 
L 1003.676882 318.37359 
L 1005.007433 328.785554 
L 1006.337984 332.964834 
L 1007.668536 318.083698 
L 1008.999087 315.667929 
L 1010.329639 323.374232 
L 1011.66019 323.108497 
L 1012.990741 323.011866 
L 1015.651844 335.018238 
L 1016.982396 319.798894 
L 1018.312947 321.344986 
L 1019.643499 321.417459 
L 1020.97405 324.872009 
L 1022.304601 321.127567 
L 1023.635153 328.954658 
L 1024.965704 334.027773 
L 1026.296256 318.107856 
L 1027.626807 319.170794 
L 1028.957358 318.011225 
L 1030.28791 320.25789 
L 1031.618461 318.591009 
L 1032.949013 330.355804 
L 1034.279564 332.6991 
L 1035.610115 316.634237 
L 1036.940667 322.504555 
L 1038.271218 317.528071 
L 1039.60177 317.673017 
L 1040.932321 337.627268 
L 1042.262873 335.670495 
L 1043.593424 332.481681 
L 1044.923975 311.923487 
L 1046.254527 308.710515 
L 1047.585078 310.474026 
L 1048.91563 312.62406 
L 1050.246181 336.540172 
L 1051.576732 336.226122 
L 1052.907284 324.364697 
L 1054.237835 301.245789 
L 1055.568387 296.245147 
L 1056.898938 292.404075 
L 1058.22949 295.230524 
L 1059.560041 296.728301 
L 1060.890592 316.17524 
L 1062.221144 319.702263 
L 1063.551695 286.437125 
L 1064.882247 281.653903 
L 1066.212798 278.585876 
L 1067.543349 277.0881 
L 1068.873901 266.53119 
L 1070.204452 288.877052 
L 1071.535004 302.888512 
L 1072.865555 251.046111 
L 1074.196107 217.805131 
L 1075.526658 222.564196 
L 1076.857209 196.304788 
L 1078.187761 200.725645 
L 1079.518312 225.753011 
L 1080.848864 245.079162 
L 1082.179415 193.285077 
L 1083.509966 119.700756 
L 1084.840518 121.053587 
L 1086.171069 130.837451 
L 1087.501621 108.032592 
L 1088.832172 174.85276 
L 1090.162724 249.37923 
L 1091.493275 122.47889 
L 1092.823826 84.261426 
L 1094.154378 103.080266 
L 1095.484929 95.688013 
L 1096.815481 86.894614 
L 1098.146032 165.817784 
L 1099.476583 252.495572 
L 1100.807135 71.36122 
L 1102.137686 54.668257 
L 1103.468238 60.369472 
L 1104.798789 55.586249 
L 1106.129341 81.91813 
L 1107.459892 152.410267 
L 1108.790443 240.465043 
L 1110.120995 72.30337 
L 1111.451546 64.57291 
L 1112.782098 60.466103 
L 1114.112649 92.112675 
L 1115.4432 50.8755 
L 1116.773752 176.882006 
L 1118.104303 248.316292 
L 1119.434855 54.619942 
L 1120.765406 67.109467 
L 1122.095958 72.714051 
L 1123.426509 100.157186 
L 1124.75706 96.171167 
L 1126.087612 209.470728 
L 1127.418163 253.220303 
L 1128.748715 110.496676 
L 1130.079266 85.131103 
L 1131.409817 125.571074 
L 1132.740369 155.140086 
L 1134.07092 153.255786 
L 1135.401472 244.137012 
L 1136.732023 277.909461 
L 1138.062575 144.003391 
L 1139.393126 158.377216 
L 1140.723677 170.142011 
L 1142.054229 190.410312 
L 1143.38478 182.945586 
L 1144.715332 274.696488 
L 1146.045883 289.915833 
L 1147.376434 189.58895 
L 1148.706986 216.4523 
L 1150.037537 213.674166 
L 1151.368089 238.556586 
L 1152.69864 247.953927 
L 1154.029192 294.505793 
L 1155.359743 307.913311 
L 1156.690294 224.351865 
L 1158.020846 252.882095 
L 1159.351397 260.274348 
L 1160.681949 272.473981 
L 1162.0125 279.962865 
L 1163.343051 313.107214 
L 1164.673603 318.107856 
L 1166.004154 270.589681 
L 1168.665257 292.13834 
L 1169.995808 297.283928 
L 1171.32636 308.831303 
L 1172.656911 327.698458 
L 1173.987463 332.046842 
L 1175.318014 306.729584 
L 1176.648566 314.846568 
L 1177.979117 314.677464 
L 1179.309668 317.383125 
L 1180.64022 317.479756 
L 1181.970771 329.510285 
L 1183.301323 336.226122 
L 1184.631874 317.914594 
L 1185.962425 313.058899 
L 1187.292977 320.958463 
L 1188.623528 320.813517 
L 1189.95408 335.960388 
L 1191.284631 333.351357 
L 1192.615183 338.955941 
L 1193.945734 336.419384 
L 1195.276285 316.779183 
L 1196.606837 313.203845 
L 1197.937388 322.093874 
L 1199.26794 323.760755 
L 1200.598491 332.79573 
L 1201.929042 337.603111 
L 1203.259594 326.297312 
L 1204.590145 325.741685 
L 1205.920697 269.116062 
L 1207.251248 330.645696 
L 1208.5818 340.574506 
L 1209.912351 340.574506 
L 1211.242902 323.350074 
L 1212.573454 331.297954 
L 1213.904005 340.574506 
L 1215.234557 325.548424 
L 1217.895659 340.574506 
L 1219.226211 340.574506 
L 1220.556762 326.345628 
L 1221.887314 333.544619 
L 1223.217865 332.215946 
L 1224.548417 335.791284 
L 1225.878968 335.042396 
L 1227.209519 340.574506 
L 1228.540071 340.574506 
L 1229.870622 332.38505 
L 1231.201174 333.230569 
L 1232.531725 336.612645 
L 1233.862276 335.042396 
L 1235.192828 337.651426 
L 1236.523379 340.574506 
L 1237.853931 340.574506 
L 1239.184482 332.240104 
L 1240.515034 334.873292 
L 1241.845585 334.245192 
L 1243.176136 335.984545 
L 1244.506688 336.032861 
L 1245.837239 340.574506 
L 1247.167791 340.574506 
L 1248.498342 332.626627 
L 1249.828893 335.549707 
L 1251.159445 335.549707 
L 1253.820548 337.071641 
L 1255.151099 340.574506 
L 1256.481651 340.574506 
L 1257.812202 333.762038 
L 1259.142753 335.380603 
L 1260.473305 335.477234 
L 1261.803856 335.139026 
L 1263.134408 335.62218 
L 1264.464959 340.574506 
L 1265.79551 340.574506 
L 1267.126062 330.50075 
L 1268.456613 333.834511 
L 1269.787165 334.027773 
L 1271.117716 333.979457 
L 1272.448268 335.598022 
L 1273.778819 340.574506 
L 1275.10937 340.574506 
L 1276.439922 329.920966 
L 1277.770473 332.916519 
L 1279.101025 330.935588 
L 1280.431576 340.574506 
L 1284.42323 340.574506 
L 1285.753782 320.596098 
L 1287.084333 320.668571 
L 1288.414885 325.669212 
L 1289.745436 324.992797 
L 1291.075987 329.413654 
L 1292.406539 340.574506 
L 1293.73709 340.574506 
L 1295.067642 318.276959 
L 1296.398193 323.905701 
L 1297.728744 324.026489 
L 1299.059296 323.80907 
L 1300.389847 326.200681 
L 1301.720399 340.574506 
L 1303.05095 340.574506 
L 1304.381501 309.507718 
L 1305.712053 316.537606 
L 1307.042604 318.639325 
L 1307.042604 318.639325 
" clip-path="url(#pe34855220f)" style="fill: none; stroke: #0000ff; stroke-width: 1.5; stroke-linecap: square"/>
   </g>
   <g id="line2d_20">
    <path d="M 1067.543349 281.011448 
L 1068.873901 292.900853 
L 1070.204452 295.497271 
L 1071.535004 268.22874 
L 1072.865555 255.931385 
L 1074.196107 239.613336 
L 1075.526658 233.941859 
L 1076.857209 208.428987 
L 1078.187761 227.58751 
L 1079.518312 238.138135 
L 1080.848864 194.016577 
L 1082.179415 163.283019 
L 1083.509966 150.237133 
L 1084.840518 118.752998 
L 1086.171069 127.914468 
L 1087.501621 139.208104 
L 1088.832172 173.512472 
L 1090.162724 153.980792 
L 1091.493275 69.912349 
L 1094.154378 98.197932 
L 1095.484929 75.109631 
L 1096.815481 141.303729 
L 1098.146032 217.075807 
L 1099.476583 115.985579 
L 1100.807135 61.680792 
L 1102.137686 81.809436 
L 1103.468238 64.829786 
L 1104.798789 54.181934 
L 1107.459892 217.373582 
L 1108.790443 64.365881 
L 1110.120995 51.683873 
L 1111.451546 62.565318 
L 1112.782098 56.750355 
L 1115.4432 137.302138 
L 1116.773752 238.312399 
L 1118.104303 85.869773 
L 1119.434855 66.854214 
L 1120.765406 67.167887 
L 1122.095958 96.042509 
L 1123.426509 59.88603 
L 1124.75706 187.774552 
L 1126.087612 257.679991 
L 1127.418163 82.108309 
L 1128.748715 106.731529 
L 1130.079266 100.114924 
L 1131.409817 138.430475 
L 1132.740369 138.447203 
L 1134.07092 245.635805 
L 1135.401472 284.093773 
L 1136.732023 154.538775 
L 1138.062575 127.980257 
L 1139.393126 177.183698 
L 1140.723677 197.442403 
L 1142.054229 195.098794 
L 1143.38478 272.204108 
L 1144.715332 304.027934 
L 1146.045883 177.240478 
L 1147.376434 196.533237 
L 1150.037537 230.411487 
L 1151.368089 228.242108 
L 1152.69864 317.951845 
L 1154.029192 320.55786 
L 1155.359743 228.663007 
L 1156.690294 251.012927 
L 1158.020846 248.694743 
L 1159.351397 275.32345 
L 1160.681949 281.679602 
L 1162.0125 323.637559 
L 1163.343051 331.441623 
L 1164.673603 251.835915 
L 1166.004154 285.70868 
L 1167.334706 288.141991 
L 1168.665257 302.032402 
L 1169.995808 306.44306 
L 1171.32636 337.660769 
L 1172.656911 337.632294 
L 1173.987463 293.717145 
L 1175.318014 308.869339 
L 1176.648566 319.216184 
L 1177.979117 322.124026 
L 1179.309668 331.41456 
L 1180.64022 342.814288 
L 1181.970771 342.210751 
L 1183.301323 317.502491 
L 1184.631874 324.687685 
L 1185.962425 319.382692 
L 1187.292977 323.548099 
L 1188.623528 321.779511 
L 1189.95408 338.581484 
L 1191.284631 341.09096 
L 1192.615183 325.006098 
L 1193.945734 325.339939 
L 1195.276285 327.658946 
L 1196.606837 323.010321 
L 1197.937388 337.183578 
L 1199.26794 328.539077 
L 1200.598491 336.378862 
L 1201.929042 333.562086 
L 1203.259594 312.994305 
L 1204.590145 315.803448 
L 1205.920697 303.16265 
L 1207.251248 320.725324 
L 1208.5818 332.053933 
L 1209.912351 339.061802 
L 1211.242902 323.235119 
L 1212.573454 327.978045 
L 1213.904005 280.684635 
L 1215.234557 353.2755 
L 1216.565108 350.634999 
L 1217.895659 350.85805 
L 1219.226211 331.329546 
L 1220.556762 336.417436 
L 1221.887314 343.446548 
L 1223.217865 325.373302 
L 1224.548417 337.167984 
L 1225.878968 341.544872 
L 1227.209519 341.814032 
L 1228.540071 328.65492 
L 1229.870622 336.625337 
L 1231.201174 333.624012 
L 1232.531725 338.55169 
L 1233.862276 336.023753 
L 1235.192828 342.075187 
L 1236.523379 341.156287 
L 1237.853931 333.751262 
L 1239.184482 333.884603 
L 1240.515034 337.403012 
L 1241.845585 334.527205 
L 1243.176136 337.786415 
L 1244.506688 339.397857 
L 1245.837239 340.077968 
L 1247.167791 332.623258 
L 1248.498342 334.977502 
L 1249.828893 334.682293 
L 1251.159445 336.536653 
L 1252.489996 336.432898 
L 1253.820548 340.829632 
L 1255.151099 340.652914 
L 1256.481651 333.536501 
L 1257.812202 336.241627 
L 1259.142753 335.853128 
L 1260.473305 336.475814 
L 1261.803856 336.584798 
L 1263.134408 339.418896 
L 1264.464959 339.899476 
L 1265.79551 333.892352 
L 1267.126062 333.951086 
L 1268.456613 334.342432 
L 1269.787165 333.731596 
L 1271.117716 334.247958 
L 1272.448268 339.208629 
L 1273.778819 339.649709 
L 1275.10937 330.935452 
L 1276.439922 333.502525 
L 1277.770473 333.5755 
L 1279.101025 332.446035 
L 1281.762127 342.27092 
L 1283.092679 341.700801 
L 1284.42323 332.084061 
L 1285.753782 330.074119 
L 1287.084333 325.399679 
L 1288.414885 334.385551 
L 1289.745436 329.928616 
L 1291.075987 330.558169 
L 1292.406539 334.236728 
L 1293.73709 317.882153 
L 1295.067642 318.097898 
L 1296.398193 325.341946 
L 1297.728744 323.683736 
L 1299.059296 328.08741 
L 1300.389847 337.283011 
L 1301.720399 338.761142 
L 1303.05095 319.099045 
L 1304.381501 320.223592 
L 1305.712053 319.826418 
L 1307.042604 318.95993 
L 1307.042604 318.95993 
" clip-path="url(#pe34855220f)" style="fill: none; stroke: #ffa500; stroke-width: 1.5; stroke-linecap: square"/>
   </g>
   <g id="line2d_21">
    <path d="M 1307.042604 318.95993 
L 1308.373156 320.9156 
L 1309.703707 333.75097 
L 1311.034259 333.7597 
L 1312.36481 305.895121 
L 1313.695361 312.190421 
L 1315.025913 314.06716 
L 1316.356464 314.347097 
L 1317.687016 316.093287 
L 1319.017567 327.596513 
L 1320.348118 327.596616 
L 1321.67867 302.599506 
L 1323.009221 308.237507 
L 1324.339773 309.912874 
" clip-path="url(#pe34855220f)" style="fill: none; stroke: #ff0000; stroke-width: 1.5; stroke-linecap: square"/>
   </g>
   <g id="patch_3">
    <path d="M 46.0125 368.3955 
L 46.0125 35.7555 
" style="fill: none; stroke: #000000; stroke-width: 0.8; stroke-linejoin: miter; stroke-linecap: square"/>
   </g>
   <g id="patch_4">
    <path d="M 1385.2125 368.3955 
L 1385.2125 35.7555 
" style="fill: none; stroke: #000000; stroke-width: 0.8; stroke-linejoin: miter; stroke-linecap: square"/>
   </g>
   <g id="patch_5">
    <path d="M 46.0125 368.3955 
L 1385.2125 368.3955 
" style="fill: none; stroke: #000000; stroke-width: 0.8; stroke-linejoin: miter; stroke-linecap: square"/>
   </g>
   <g id="patch_6">
    <path d="M 46.0125 35.7555 
L 1385.2125 35.7555 
" style="fill: none; stroke: #000000; stroke-width: 0.8; stroke-linejoin: miter; stroke-linecap: square"/>
   </g>
   <g id="text_19">
    <!-- Daily Confirmed Cases Forecasting - Latvia -->
    <g transform="translate(586.845 16.318125)scale(0.12 -0.12)">
     <defs>
      <path id="DejaVuSans-44" d="M 1259 4147 
L 1259 519 
L 2022 519 
Q 2988 519 3436 956 
Q 3884 1394 3884 2338 
Q 3884 3275 3436 3711 
Q 2988 4147 2022 4147 
L 1259 4147 
z
M 628 4666 
L 1925 4666 
Q 3281 4666 3915 4102 
Q 4550 3538 4550 2338 
Q 4550 1131 3912 565 
Q 3275 0 1925 0 
L 628 0 
L 628 4666 
z
" transform="scale(0.015625)"/>
      <path id="DejaVuSans-61" d="M 2194 1759 
Q 1497 1759 1228 1600 
Q 959 1441 959 1056 
Q 959 750 1161 570 
Q 1363 391 1709 391 
Q 2188 391 2477 730 
Q 2766 1069 2766 1631 
L 2766 1759 
L 2194 1759 
z
M 3341 1997 
L 3341 0 
L 2766 0 
L 2766 531 
Q 2569 213 2275 61 
Q 1981 -91 1556 -91 
Q 1019 -91 701 211 
Q 384 513 384 1019 
Q 384 1609 779 1909 
Q 1175 2209 1959 2209 
L 2766 2209 
L 2766 2266 
Q 2766 2663 2505 2880 
Q 2244 3097 1772 3097 
Q 1472 3097 1187 3025 
Q 903 2953 641 2809 
L 641 3341 
Q 956 3463 1253 3523 
Q 1550 3584 1831 3584 
Q 2591 3584 2966 3190 
Q 3341 2797 3341 1997 
z
" transform="scale(0.015625)"/>
      <path id="DejaVuSans-69" d="M 603 3500 
L 1178 3500 
L 1178 0 
L 603 0 
L 603 3500 
z
M 603 4863 
L 1178 4863 
L 1178 4134 
L 603 4134 
L 603 4863 
z
" transform="scale(0.015625)"/>
      <path id="DejaVuSans-6c" d="M 603 4863 
L 1178 4863 
L 1178 0 
L 603 0 
L 603 4863 
z
" transform="scale(0.015625)"/>
      <path id="DejaVuSans-79" d="M 2059 -325 
Q 1816 -950 1584 -1140 
Q 1353 -1331 966 -1331 
L 506 -1331 
L 506 -850 
L 844 -850 
Q 1081 -850 1212 -737 
Q 1344 -625 1503 -206 
L 1606 56 
L 191 3500 
L 800 3500 
L 1894 763 
L 2988 3500 
L 3597 3500 
L 2059 -325 
z
" transform="scale(0.015625)"/>
      <path id="DejaVuSans-20" transform="scale(0.015625)"/>
      <path id="DejaVuSans-43" d="M 4122 4306 
L 4122 3641 
Q 3803 3938 3442 4084 
Q 3081 4231 2675 4231 
Q 1875 4231 1450 3742 
Q 1025 3253 1025 2328 
Q 1025 1406 1450 917 
Q 1875 428 2675 428 
Q 3081 428 3442 575 
Q 3803 722 4122 1019 
L 4122 359 
Q 3791 134 3420 21 
Q 3050 -91 2638 -91 
Q 1578 -91 968 557 
Q 359 1206 359 2328 
Q 359 3453 968 4101 
Q 1578 4750 2638 4750 
Q 3056 4750 3426 4639 
Q 3797 4528 4122 4306 
z
" transform="scale(0.015625)"/>
      <path id="DejaVuSans-6f" d="M 1959 3097 
Q 1497 3097 1228 2736 
Q 959 2375 959 1747 
Q 959 1119 1226 758 
Q 1494 397 1959 397 
Q 2419 397 2687 759 
Q 2956 1122 2956 1747 
Q 2956 2369 2687 2733 
Q 2419 3097 1959 3097 
z
M 1959 3584 
Q 2709 3584 3137 3096 
Q 3566 2609 3566 1747 
Q 3566 888 3137 398 
Q 2709 -91 1959 -91 
Q 1206 -91 779 398 
Q 353 888 353 1747 
Q 353 2609 779 3096 
Q 1206 3584 1959 3584 
z
" transform="scale(0.015625)"/>
      <path id="DejaVuSans-6e" d="M 3513 2113 
L 3513 0 
L 2938 0 
L 2938 2094 
Q 2938 2591 2744 2837 
Q 2550 3084 2163 3084 
Q 1697 3084 1428 2787 
Q 1159 2491 1159 1978 
L 1159 0 
L 581 0 
L 581 3500 
L 1159 3500 
L 1159 2956 
Q 1366 3272 1645 3428 
Q 1925 3584 2291 3584 
Q 2894 3584 3203 3211 
Q 3513 2838 3513 2113 
z
" transform="scale(0.015625)"/>
      <path id="DejaVuSans-66" d="M 2375 4863 
L 2375 4384 
L 1825 4384 
Q 1516 4384 1395 4259 
Q 1275 4134 1275 3809 
L 1275 3500 
L 2222 3500 
L 2222 3053 
L 1275 3053 
L 1275 0 
L 697 0 
L 697 3053 
L 147 3053 
L 147 3500 
L 697 3500 
L 697 3744 
Q 697 4328 969 4595 
Q 1241 4863 1831 4863 
L 2375 4863 
z
" transform="scale(0.015625)"/>
      <path id="DejaVuSans-72" d="M 2631 2963 
Q 2534 3019 2420 3045 
Q 2306 3072 2169 3072 
Q 1681 3072 1420 2755 
Q 1159 2438 1159 1844 
L 1159 0 
L 581 0 
L 581 3500 
L 1159 3500 
L 1159 2956 
Q 1341 3275 1631 3429 
Q 1922 3584 2338 3584 
Q 2397 3584 2469 3576 
Q 2541 3569 2628 3553 
L 2631 2963 
z
" transform="scale(0.015625)"/>
      <path id="DejaVuSans-6d" d="M 3328 2828 
Q 3544 3216 3844 3400 
Q 4144 3584 4550 3584 
Q 5097 3584 5394 3201 
Q 5691 2819 5691 2113 
L 5691 0 
L 5113 0 
L 5113 2094 
Q 5113 2597 4934 2840 
Q 4756 3084 4391 3084 
Q 3944 3084 3684 2787 
Q 3425 2491 3425 1978 
L 3425 0 
L 2847 0 
L 2847 2094 
Q 2847 2600 2669 2842 
Q 2491 3084 2119 3084 
Q 1678 3084 1418 2786 
Q 1159 2488 1159 1978 
L 1159 0 
L 581 0 
L 581 3500 
L 1159 3500 
L 1159 2956 
Q 1356 3278 1631 3431 
Q 1906 3584 2284 3584 
Q 2666 3584 2933 3390 
Q 3200 3197 3328 2828 
z
" transform="scale(0.015625)"/>
      <path id="DejaVuSans-65" d="M 3597 1894 
L 3597 1613 
L 953 1613 
Q 991 1019 1311 708 
Q 1631 397 2203 397 
Q 2534 397 2845 478 
Q 3156 559 3463 722 
L 3463 178 
Q 3153 47 2828 -22 
Q 2503 -91 2169 -91 
Q 1331 -91 842 396 
Q 353 884 353 1716 
Q 353 2575 817 3079 
Q 1281 3584 2069 3584 
Q 2775 3584 3186 3129 
Q 3597 2675 3597 1894 
z
M 3022 2063 
Q 3016 2534 2758 2815 
Q 2500 3097 2075 3097 
Q 1594 3097 1305 2825 
Q 1016 2553 972 2059 
L 3022 2063 
z
" transform="scale(0.015625)"/>
      <path id="DejaVuSans-64" d="M 2906 2969 
L 2906 4863 
L 3481 4863 
L 3481 0 
L 2906 0 
L 2906 525 
Q 2725 213 2448 61 
Q 2172 -91 1784 -91 
Q 1150 -91 751 415 
Q 353 922 353 1747 
Q 353 2572 751 3078 
Q 1150 3584 1784 3584 
Q 2172 3584 2448 3432 
Q 2725 3281 2906 2969 
z
M 947 1747 
Q 947 1113 1208 752 
Q 1469 391 1925 391 
Q 2381 391 2643 752 
Q 2906 1113 2906 1747 
Q 2906 2381 2643 2742 
Q 2381 3103 1925 3103 
Q 1469 3103 1208 2742 
Q 947 2381 947 1747 
z
" transform="scale(0.015625)"/>
      <path id="DejaVuSans-73" d="M 2834 3397 
L 2834 2853 
Q 2591 2978 2328 3040 
Q 2066 3103 1784 3103 
Q 1356 3103 1142 2972 
Q 928 2841 928 2578 
Q 928 2378 1081 2264 
Q 1234 2150 1697 2047 
L 1894 2003 
Q 2506 1872 2764 1633 
Q 3022 1394 3022 966 
Q 3022 478 2636 193 
Q 2250 -91 1575 -91 
Q 1294 -91 989 -36 
Q 684 19 347 128 
L 347 722 
Q 666 556 975 473 
Q 1284 391 1588 391 
Q 1994 391 2212 530 
Q 2431 669 2431 922 
Q 2431 1156 2273 1281 
Q 2116 1406 1581 1522 
L 1381 1569 
Q 847 1681 609 1914 
Q 372 2147 372 2553 
Q 372 3047 722 3315 
Q 1072 3584 1716 3584 
Q 2034 3584 2315 3537 
Q 2597 3491 2834 3397 
z
" transform="scale(0.015625)"/>
      <path id="DejaVuSans-46" d="M 628 4666 
L 3309 4666 
L 3309 4134 
L 1259 4134 
L 1259 2759 
L 3109 2759 
L 3109 2228 
L 1259 2228 
L 1259 0 
L 628 0 
L 628 4666 
z
" transform="scale(0.015625)"/>
      <path id="DejaVuSans-63" d="M 3122 3366 
L 3122 2828 
Q 2878 2963 2633 3030 
Q 2388 3097 2138 3097 
Q 1578 3097 1268 2742 
Q 959 2388 959 1747 
Q 959 1106 1268 751 
Q 1578 397 2138 397 
Q 2388 397 2633 464 
Q 2878 531 3122 666 
L 3122 134 
Q 2881 22 2623 -34 
Q 2366 -91 2075 -91 
Q 1284 -91 818 406 
Q 353 903 353 1747 
Q 353 2603 823 3093 
Q 1294 3584 2113 3584 
Q 2378 3584 2631 3529 
Q 2884 3475 3122 3366 
z
" transform="scale(0.015625)"/>
      <path id="DejaVuSans-74" d="M 1172 4494 
L 1172 3500 
L 2356 3500 
L 2356 3053 
L 1172 3053 
L 1172 1153 
Q 1172 725 1289 603 
Q 1406 481 1766 481 
L 2356 481 
L 2356 0 
L 1766 0 
Q 1100 0 847 248 
Q 594 497 594 1153 
L 594 3053 
L 172 3053 
L 172 3500 
L 594 3500 
L 594 4494 
L 1172 4494 
z
" transform="scale(0.015625)"/>
      <path id="DejaVuSans-67" d="M 2906 1791 
Q 2906 2416 2648 2759 
Q 2391 3103 1925 3103 
Q 1463 3103 1205 2759 
Q 947 2416 947 1791 
Q 947 1169 1205 825 
Q 1463 481 1925 481 
Q 2391 481 2648 825 
Q 2906 1169 2906 1791 
z
M 3481 434 
Q 3481 -459 3084 -895 
Q 2688 -1331 1869 -1331 
Q 1566 -1331 1297 -1286 
Q 1028 -1241 775 -1147 
L 775 -588 
Q 1028 -725 1275 -790 
Q 1522 -856 1778 -856 
Q 2344 -856 2625 -561 
Q 2906 -266 2906 331 
L 2906 616 
Q 2728 306 2450 153 
Q 2172 0 1784 0 
Q 1141 0 747 490 
Q 353 981 353 1791 
Q 353 2603 747 3093 
Q 1141 3584 1784 3584 
Q 2172 3584 2450 3431 
Q 2728 3278 2906 2969 
L 2906 3500 
L 3481 3500 
L 3481 434 
z
" transform="scale(0.015625)"/>
      <path id="DejaVuSans-4c" d="M 628 4666 
L 1259 4666 
L 1259 531 
L 3531 531 
L 3531 0 
L 628 0 
L 628 4666 
z
" transform="scale(0.015625)"/>
      <path id="DejaVuSans-76" d="M 191 3500 
L 800 3500 
L 1894 563 
L 2988 3500 
L 3597 3500 
L 2284 0 
L 1503 0 
L 191 3500 
z
" transform="scale(0.015625)"/>
     </defs>
     <use xlink:href="#DejaVuSans-44"/>
     <use xlink:href="#DejaVuSans-61" x="77.001953"/>
     <use xlink:href="#DejaVuSans-69" x="138.28125"/>
     <use xlink:href="#DejaVuSans-6c" x="166.064453"/>
     <use xlink:href="#DejaVuSans-79" x="193.847656"/>
     <use xlink:href="#DejaVuSans-20" x="253.027344"/>
     <use xlink:href="#DejaVuSans-43" x="284.814453"/>
     <use xlink:href="#DejaVuSans-6f" x="354.638672"/>
     <use xlink:href="#DejaVuSans-6e" x="415.820312"/>
     <use xlink:href="#DejaVuSans-66" x="479.199219"/>
     <use xlink:href="#DejaVuSans-69" x="514.404297"/>
     <use xlink:href="#DejaVuSans-72" x="542.1875"/>
     <use xlink:href="#DejaVuSans-6d" x="581.550781"/>
     <use xlink:href="#DejaVuSans-65" x="678.962891"/>
     <use xlink:href="#DejaVuSans-64" x="740.486328"/>
     <use xlink:href="#DejaVuSans-20" x="803.962891"/>
     <use xlink:href="#DejaVuSans-43" x="835.75"/>
     <use xlink:href="#DejaVuSans-61" x="905.574219"/>
     <use xlink:href="#DejaVuSans-73" x="966.853516"/>
     <use xlink:href="#DejaVuSans-65" x="1018.953125"/>
     <use xlink:href="#DejaVuSans-73" x="1080.476562"/>
     <use xlink:href="#DejaVuSans-20" x="1132.576172"/>
     <use xlink:href="#DejaVuSans-46" x="1164.363281"/>
     <use xlink:href="#DejaVuSans-6f" x="1218.257812"/>
     <use xlink:href="#DejaVuSans-72" x="1279.439453"/>
     <use xlink:href="#DejaVuSans-65" x="1318.302734"/>
     <use xlink:href="#DejaVuSans-63" x="1379.826172"/>
     <use xlink:href="#DejaVuSans-61" x="1434.806641"/>
     <use xlink:href="#DejaVuSans-73" x="1496.085938"/>
     <use xlink:href="#DejaVuSans-74" x="1548.185547"/>
     <use xlink:href="#DejaVuSans-69" x="1587.394531"/>
     <use xlink:href="#DejaVuSans-6e" x="1615.177734"/>
     <use xlink:href="#DejaVuSans-67" x="1678.556641"/>
     <use xlink:href="#DejaVuSans-20" x="1742.033203"/>
     <use xlink:href="#DejaVuSans-2d" x="1773.820312"/>
     <use xlink:href="#DejaVuSans-20" x="1809.904297"/>
     <use xlink:href="#DejaVuSans-4c" x="1841.691406"/>
     <use xlink:href="#DejaVuSans-61" x="1897.404297"/>
     <use xlink:href="#DejaVuSans-74" x="1958.683594"/>
     <use xlink:href="#DejaVuSans-76" x="1997.892578"/>
     <use xlink:href="#DejaVuSans-69" x="2057.072266"/>
     <use xlink:href="#DejaVuSans-61" x="2084.855469"/>
    </g>
    <!-- ARIMA (2, 1, 1)x(1, 0, 0, 7) (R2 = 0.833273) -->
    <g transform="translate(583.628438 29.7555)scale(0.12 -0.12)">
     <defs>
      <path id="DejaVuSans-41" d="M 2188 4044 
L 1331 1722 
L 3047 1722 
L 2188 4044 
z
M 1831 4666 
L 2547 4666 
L 4325 0 
L 3669 0 
L 3244 1197 
L 1141 1197 
L 716 0 
L 50 0 
L 1831 4666 
z
" transform="scale(0.015625)"/>
      <path id="DejaVuSans-52" d="M 2841 2188 
Q 3044 2119 3236 1894 
Q 3428 1669 3622 1275 
L 4263 0 
L 3584 0 
L 2988 1197 
Q 2756 1666 2539 1819 
Q 2322 1972 1947 1972 
L 1259 1972 
L 1259 0 
L 628 0 
L 628 4666 
L 2053 4666 
Q 2853 4666 3247 4331 
Q 3641 3997 3641 3322 
Q 3641 2881 3436 2590 
Q 3231 2300 2841 2188 
z
M 1259 4147 
L 1259 2491 
L 2053 2491 
Q 2509 2491 2742 2702 
Q 2975 2913 2975 3322 
Q 2975 3731 2742 3939 
Q 2509 4147 2053 4147 
L 1259 4147 
z
" transform="scale(0.015625)"/>
      <path id="DejaVuSans-49" d="M 628 4666 
L 1259 4666 
L 1259 0 
L 628 0 
L 628 4666 
z
" transform="scale(0.015625)"/>
      <path id="DejaVuSans-4d" d="M 628 4666 
L 1569 4666 
L 2759 1491 
L 3956 4666 
L 4897 4666 
L 4897 0 
L 4281 0 
L 4281 4097 
L 3078 897 
L 2444 897 
L 1241 4097 
L 1241 0 
L 628 0 
L 628 4666 
z
" transform="scale(0.015625)"/>
      <path id="DejaVuSans-28" d="M 1984 4856 
Q 1566 4138 1362 3434 
Q 1159 2731 1159 2009 
Q 1159 1288 1364 580 
Q 1569 -128 1984 -844 
L 1484 -844 
Q 1016 -109 783 600 
Q 550 1309 550 2009 
Q 550 2706 781 3412 
Q 1013 4119 1484 4856 
L 1984 4856 
z
" transform="scale(0.015625)"/>
      <path id="DejaVuSans-2c" d="M 750 794 
L 1409 794 
L 1409 256 
L 897 -744 
L 494 -744 
L 750 256 
L 750 794 
z
" transform="scale(0.015625)"/>
      <path id="DejaVuSans-29" d="M 513 4856 
L 1013 4856 
Q 1481 4119 1714 3412 
Q 1947 2706 1947 2009 
Q 1947 1309 1714 600 
Q 1481 -109 1013 -844 
L 513 -844 
Q 928 -128 1133 580 
Q 1338 1288 1338 2009 
Q 1338 2731 1133 3434 
Q 928 4138 513 4856 
z
" transform="scale(0.015625)"/>
      <path id="DejaVuSans-78" d="M 3513 3500 
L 2247 1797 
L 3578 0 
L 2900 0 
L 1881 1375 
L 863 0 
L 184 0 
L 1544 1831 
L 300 3500 
L 978 3500 
L 1906 2253 
L 2834 3500 
L 3513 3500 
z
" transform="scale(0.015625)"/>
      <path id="DejaVuSans-3d" d="M 678 2906 
L 4684 2906 
L 4684 2381 
L 678 2381 
L 678 2906 
z
M 678 1631 
L 4684 1631 
L 4684 1100 
L 678 1100 
L 678 1631 
z
" transform="scale(0.015625)"/>
      <path id="DejaVuSans-2e" d="M 684 794 
L 1344 794 
L 1344 0 
L 684 0 
L 684 794 
z
" transform="scale(0.015625)"/>
      <path id="DejaVuSans-33" d="M 2597 2516 
Q 3050 2419 3304 2112 
Q 3559 1806 3559 1356 
Q 3559 666 3084 287 
Q 2609 -91 1734 -91 
Q 1441 -91 1130 -33 
Q 819 25 488 141 
L 488 750 
Q 750 597 1062 519 
Q 1375 441 1716 441 
Q 2309 441 2620 675 
Q 2931 909 2931 1356 
Q 2931 1769 2642 2001 
Q 2353 2234 1838 2234 
L 1294 2234 
L 1294 2753 
L 1863 2753 
Q 2328 2753 2575 2939 
Q 2822 3125 2822 3475 
Q 2822 3834 2567 4026 
Q 2313 4219 1838 4219 
Q 1578 4219 1281 4162 
Q 984 4106 628 3988 
L 628 4550 
Q 988 4650 1302 4700 
Q 1616 4750 1894 4750 
Q 2613 4750 3031 4423 
Q 3450 4097 3450 3541 
Q 3450 3153 3228 2886 
Q 3006 2619 2597 2516 
z
" transform="scale(0.015625)"/>
     </defs>
     <use xlink:href="#DejaVuSans-41"/>
     <use xlink:href="#DejaVuSans-52" x="68.408203"/>
     <use xlink:href="#DejaVuSans-49" x="137.890625"/>
     <use xlink:href="#DejaVuSans-4d" x="167.382812"/>
     <use xlink:href="#DejaVuSans-41" x="253.662109"/>
     <use xlink:href="#DejaVuSans-20" x="322.070312"/>
     <use xlink:href="#DejaVuSans-28" x="353.857422"/>
     <use xlink:href="#DejaVuSans-32" x="392.871094"/>
     <use xlink:href="#DejaVuSans-2c" x="456.494141"/>
     <use xlink:href="#DejaVuSans-20" x="488.28125"/>
     <use xlink:href="#DejaVuSans-31" x="520.068359"/>
     <use xlink:href="#DejaVuSans-2c" x="583.691406"/>
     <use xlink:href="#DejaVuSans-20" x="615.478516"/>
     <use xlink:href="#DejaVuSans-31" x="647.265625"/>
     <use xlink:href="#DejaVuSans-29" x="710.888672"/>
     <use xlink:href="#DejaVuSans-78" x="749.902344"/>
     <use xlink:href="#DejaVuSans-28" x="809.082031"/>
     <use xlink:href="#DejaVuSans-31" x="848.095703"/>
     <use xlink:href="#DejaVuSans-2c" x="911.71875"/>
     <use xlink:href="#DejaVuSans-20" x="943.505859"/>
     <use xlink:href="#DejaVuSans-30" x="975.292969"/>
     <use xlink:href="#DejaVuSans-2c" x="1038.916016"/>
     <use xlink:href="#DejaVuSans-20" x="1070.703125"/>
     <use xlink:href="#DejaVuSans-30" x="1102.490234"/>
     <use xlink:href="#DejaVuSans-2c" x="1166.113281"/>
     <use xlink:href="#DejaVuSans-20" x="1197.900391"/>
     <use xlink:href="#DejaVuSans-37" x="1229.6875"/>
     <use xlink:href="#DejaVuSans-29" x="1293.310547"/>
     <use xlink:href="#DejaVuSans-20" x="1332.324219"/>
     <use xlink:href="#DejaVuSans-28" x="1364.111328"/>
     <use xlink:href="#DejaVuSans-52" x="1403.125"/>
     <use xlink:href="#DejaVuSans-32" x="1472.607422"/>
     <use xlink:href="#DejaVuSans-20" x="1536.230469"/>
     <use xlink:href="#DejaVuSans-3d" x="1568.017578"/>
     <use xlink:href="#DejaVuSans-20" x="1651.806641"/>
     <use xlink:href="#DejaVuSans-30" x="1683.59375"/>
     <use xlink:href="#DejaVuSans-2e" x="1747.216797"/>
     <use xlink:href="#DejaVuSans-38" x="1779.003906"/>
     <use xlink:href="#DejaVuSans-33" x="1842.626953"/>
     <use xlink:href="#DejaVuSans-33" x="1906.25"/>
     <use xlink:href="#DejaVuSans-32" x="1969.873047"/>
     <use xlink:href="#DejaVuSans-37" x="2033.496094"/>
     <use xlink:href="#DejaVuSans-33" x="2097.119141"/>
     <use xlink:href="#DejaVuSans-29" x="2160.742188"/>
    </g>
   </g>
   <g id="legend_1">
    <g id="patch_7">
     <path d="M 1281.132812 87.789875 
L 1378.2125 87.789875 
Q 1380.2125 87.789875 1380.2125 85.789875 
L 1380.2125 42.7555 
Q 1380.2125 40.7555 1378.2125 40.7555 
L 1281.132812 40.7555 
Q 1279.132812 40.7555 1279.132812 42.7555 
L 1279.132812 85.789875 
Q 1279.132812 87.789875 1281.132812 87.789875 
z
" style="fill: #ffffff; opacity: 0.8; stroke: #cccccc; stroke-linejoin: miter"/>
    </g>
    <g id="line2d_22">
     <path d="M 1283.132812 48.853937 
L 1293.132812 48.853937 
L 1303.132812 48.853937 
" style="fill: none; stroke: #0000ff; stroke-width: 1.5; stroke-linecap: square"/>
    </g>
    <g id="text_20">
     <!-- Actual Value -->
     <g transform="translate(1311.132812 52.353937)scale(0.1 -0.1)">
      <defs>
       <path id="DejaVuSans-75" d="M 544 1381 
L 544 3500 
L 1119 3500 
L 1119 1403 
Q 1119 906 1312 657 
Q 1506 409 1894 409 
Q 2359 409 2629 706 
Q 2900 1003 2900 1516 
L 2900 3500 
L 3475 3500 
L 3475 0 
L 2900 0 
L 2900 538 
Q 2691 219 2414 64 
Q 2138 -91 1772 -91 
Q 1169 -91 856 284 
Q 544 659 544 1381 
z
M 1991 3584 
L 1991 3584 
z
" transform="scale(0.015625)"/>
       <path id="DejaVuSans-56" d="M 1831 0 
L 50 4666 
L 709 4666 
L 2188 738 
L 3669 4666 
L 4325 4666 
L 2547 0 
L 1831 0 
z
" transform="scale(0.015625)"/>
      </defs>
      <use xlink:href="#DejaVuSans-41"/>
      <use xlink:href="#DejaVuSans-63" x="66.658203"/>
      <use xlink:href="#DejaVuSans-74" x="121.638672"/>
      <use xlink:href="#DejaVuSans-75" x="160.847656"/>
      <use xlink:href="#DejaVuSans-61" x="224.226562"/>
      <use xlink:href="#DejaVuSans-6c" x="285.505859"/>
      <use xlink:href="#DejaVuSans-20" x="313.289062"/>
      <use xlink:href="#DejaVuSans-56" x="345.076172"/>
      <use xlink:href="#DejaVuSans-61" x="405.734375"/>
      <use xlink:href="#DejaVuSans-6c" x="467.013672"/>
      <use xlink:href="#DejaVuSans-75" x="494.796875"/>
      <use xlink:href="#DejaVuSans-65" x="558.175781"/>
     </g>
    </g>
    <g id="line2d_23">
     <path d="M 1283.132812 63.532062 
L 1293.132812 63.532062 
L 1303.132812 63.532062 
" style="fill: none; stroke: #ffa500; stroke-width: 1.5; stroke-linecap: square"/>
    </g>
    <g id="text_21">
     <!-- Check Value -->
     <g transform="translate(1311.132812 67.032062)scale(0.1 -0.1)">
      <defs>
       <path id="DejaVuSans-68" d="M 3513 2113 
L 3513 0 
L 2938 0 
L 2938 2094 
Q 2938 2591 2744 2837 
Q 2550 3084 2163 3084 
Q 1697 3084 1428 2787 
Q 1159 2491 1159 1978 
L 1159 0 
L 581 0 
L 581 4863 
L 1159 4863 
L 1159 2956 
Q 1366 3272 1645 3428 
Q 1925 3584 2291 3584 
Q 2894 3584 3203 3211 
Q 3513 2838 3513 2113 
z
" transform="scale(0.015625)"/>
       <path id="DejaVuSans-6b" d="M 581 4863 
L 1159 4863 
L 1159 1991 
L 2875 3500 
L 3609 3500 
L 1753 1863 
L 3688 0 
L 2938 0 
L 1159 1709 
L 1159 0 
L 581 0 
L 581 4863 
z
" transform="scale(0.015625)"/>
      </defs>
      <use xlink:href="#DejaVuSans-43"/>
      <use xlink:href="#DejaVuSans-68" x="69.824219"/>
      <use xlink:href="#DejaVuSans-65" x="133.203125"/>
      <use xlink:href="#DejaVuSans-63" x="194.726562"/>
      <use xlink:href="#DejaVuSans-6b" x="249.707031"/>
      <use xlink:href="#DejaVuSans-20" x="307.617188"/>
      <use xlink:href="#DejaVuSans-56" x="339.404297"/>
      <use xlink:href="#DejaVuSans-61" x="400.0625"/>
      <use xlink:href="#DejaVuSans-6c" x="461.341797"/>
      <use xlink:href="#DejaVuSans-75" x="489.125"/>
      <use xlink:href="#DejaVuSans-65" x="552.503906"/>
     </g>
    </g>
    <g id="line2d_24">
     <path d="M 1283.132812 78.210187 
L 1293.132812 78.210187 
L 1303.132812 78.210187 
" style="fill: none; stroke: #ff0000; stroke-width: 1.5; stroke-linecap: square"/>
    </g>
    <g id="text_22">
     <!-- Predict Value -->
     <g transform="translate(1311.132812 81.710187)scale(0.1 -0.1)">
      <defs>
       <path id="DejaVuSans-50" d="M 1259 4147 
L 1259 2394 
L 2053 2394 
Q 2494 2394 2734 2622 
Q 2975 2850 2975 3272 
Q 2975 3691 2734 3919 
Q 2494 4147 2053 4147 
L 1259 4147 
z
M 628 4666 
L 2053 4666 
Q 2838 4666 3239 4311 
Q 3641 3956 3641 3272 
Q 3641 2581 3239 2228 
Q 2838 1875 2053 1875 
L 1259 1875 
L 1259 0 
L 628 0 
L 628 4666 
z
" transform="scale(0.015625)"/>
      </defs>
      <use xlink:href="#DejaVuSans-50"/>
      <use xlink:href="#DejaVuSans-72" x="58.552734"/>
      <use xlink:href="#DejaVuSans-65" x="97.416016"/>
      <use xlink:href="#DejaVuSans-64" x="158.939453"/>
      <use xlink:href="#DejaVuSans-69" x="222.416016"/>
      <use xlink:href="#DejaVuSans-63" x="250.199219"/>
      <use xlink:href="#DejaVuSans-74" x="305.179688"/>
      <use xlink:href="#DejaVuSans-20" x="344.388672"/>
      <use xlink:href="#DejaVuSans-56" x="376.175781"/>
      <use xlink:href="#DejaVuSans-61" x="436.833984"/>
      <use xlink:href="#DejaVuSans-6c" x="498.113281"/>
      <use xlink:href="#DejaVuSans-75" x="525.896484"/>
      <use xlink:href="#DejaVuSans-65" x="589.275391"/>
     </g>
    </g>
   </g>
  </g>
 </g>
 <defs>
  <clipPath id="pe34855220f">
   <rect x="46.0125" y="35.7555" width="1339.2" height="332.64"/>
  </clipPath>
 </defs>
</svg>
