<?xml version="1.0" encoding="utf-8" standalone="no"?>
<!DOCTYPE svg PUBLIC "-//W3C//DTD SVG 1.1//EN"
  "http://www.w3.org/Graphics/SVG/1.1/DTD/svg11.dtd">
<svg xmlns:xlink="http://www.w3.org/1999/xlink" width="1379.6875pt" height="392.273625pt" viewBox="0 0 1379.6875 392.273625" xmlns="http://www.w3.org/2000/svg" version="1.1">
 <metadata>
  <rdf:RDF xmlns:dc="http://purl.org/dc/elements/1.1/" xmlns:cc="http://creativecommons.org/ns#" xmlns:rdf="http://www.w3.org/1999/02/22-rdf-syntax-ns#">
   <cc:Work>
    <dc:type rdf:resource="http://purl.org/dc/dcmitype/StillImage"/>
    <dc:date>2022-07-15T20:20:22.362356</dc:date>
    <dc:format>image/svg+xml</dc:format>
    <dc:creator>
     <cc:Agent>
      <dc:title>Matplotlib v3.5.2, https://matplotlib.org/</dc:title>
     </cc:Agent>
    </dc:creator>
   </cc:Work>
  </rdf:RDF>
 </metadata>
 <defs>
  <style type="text/css">*{stroke-linejoin: round; stroke-linecap: butt}</style>
 </defs>
 <g id="figure_1">
  <g id="patch_1">
   <path d="M 0 392.273625 
L 1379.6875 392.273625 
L 1379.6875 0 
L 0 0 
z
" style="fill: #ffffff"/>
  </g>
  <g id="axes_1">
   <g id="patch_2">
    <path d="M 33.2875 368.3955 
L 1372.4875 368.3955 
L 1372.4875 35.7555 
L 33.2875 35.7555 
z
" style="fill: #ffffff"/>
   </g>
   <g id="matplotlib.axis_1">
    <g id="xtick_1">
     <g id="line2d_1">
      <defs>
       <path id="mb356207c36" d="M 0 0 
L 0 3.5 
" style="stroke: #000000; stroke-width: 0.8"/>
      </defs>
      <g>
       <use xlink:href="#mb356207c36" x="64.920053" y="368.3955" style="stroke: #000000; stroke-width: 0.8"/>
      </g>
     </g>
     <g id="text_1">
      <!-- 2020-01 -->
      <g transform="translate(44.028646 382.993937)scale(0.1 -0.1)">
       <defs>
        <path id="DejaVuSans-32" d="M 1228 531 
L 3431 531 
L 3431 0 
L 469 0 
L 469 531 
Q 828 903 1448 1529 
Q 2069 2156 2228 2338 
Q 2531 2678 2651 2914 
Q 2772 3150 2772 3378 
Q 2772 3750 2511 3984 
Q 2250 4219 1831 4219 
Q 1534 4219 1204 4116 
Q 875 4013 500 3803 
L 500 4441 
Q 881 4594 1212 4672 
Q 1544 4750 1819 4750 
Q 2544 4750 2975 4387 
Q 3406 4025 3406 3419 
Q 3406 3131 3298 2873 
Q 3191 2616 2906 2266 
Q 2828 2175 2409 1742 
Q 1991 1309 1228 531 
z
" transform="scale(0.015625)"/>
        <path id="DejaVuSans-30" d="M 2034 4250 
Q 1547 4250 1301 3770 
Q 1056 3291 1056 2328 
Q 1056 1369 1301 889 
Q 1547 409 2034 409 
Q 2525 409 2770 889 
Q 3016 1369 3016 2328 
Q 3016 3291 2770 3770 
Q 2525 4250 2034 4250 
z
M 2034 4750 
Q 2819 4750 3233 4129 
Q 3647 3509 3647 2328 
Q 3647 1150 3233 529 
Q 2819 -91 2034 -91 
Q 1250 -91 836 529 
Q 422 1150 422 2328 
Q 422 3509 836 4129 
Q 1250 4750 2034 4750 
z
" transform="scale(0.015625)"/>
        <path id="DejaVuSans-2d" d="M 313 2009 
L 1997 2009 
L 1997 1497 
L 313 1497 
L 313 2009 
z
" transform="scale(0.015625)"/>
        <path id="DejaVuSans-31" d="M 794 531 
L 1825 531 
L 1825 4091 
L 703 3866 
L 703 4441 
L 1819 4666 
L 2450 4666 
L 2450 531 
L 3481 531 
L 3481 0 
L 794 0 
L 794 531 
z
" transform="scale(0.015625)"/>
       </defs>
       <use xlink:href="#DejaVuSans-32"/>
       <use xlink:href="#DejaVuSans-30" x="63.623047"/>
       <use xlink:href="#DejaVuSans-32" x="127.246094"/>
       <use xlink:href="#DejaVuSans-30" x="190.869141"/>
       <use xlink:href="#DejaVuSans-2d" x="254.492188"/>
       <use xlink:href="#DejaVuSans-30" x="290.576172"/>
       <use xlink:href="#DejaVuSans-31" x="354.199219"/>
      </g>
     </g>
    </g>
    <g id="xtick_2">
     <g id="line2d_2">
      <g>
       <use xlink:href="#mb356207c36" x="185.868048" y="368.3955" style="stroke: #000000; stroke-width: 0.8"/>
      </g>
     </g>
     <g id="text_2">
      <!-- 2020-04 -->
      <g transform="translate(164.976642 382.993937)scale(0.1 -0.1)">
       <defs>
        <path id="DejaVuSans-34" d="M 2419 4116 
L 825 1625 
L 2419 1625 
L 2419 4116 
z
M 2253 4666 
L 3047 4666 
L 3047 1625 
L 3713 1625 
L 3713 1100 
L 3047 1100 
L 3047 0 
L 2419 0 
L 2419 1100 
L 313 1100 
L 313 1709 
L 2253 4666 
z
" transform="scale(0.015625)"/>
       </defs>
       <use xlink:href="#DejaVuSans-32"/>
       <use xlink:href="#DejaVuSans-30" x="63.623047"/>
       <use xlink:href="#DejaVuSans-32" x="127.246094"/>
       <use xlink:href="#DejaVuSans-30" x="190.869141"/>
       <use xlink:href="#DejaVuSans-2d" x="254.492188"/>
       <use xlink:href="#DejaVuSans-30" x="290.576172"/>
       <use xlink:href="#DejaVuSans-34" x="354.199219"/>
      </g>
     </g>
    </g>
    <g id="xtick_3">
     <g id="line2d_3">
      <g>
       <use xlink:href="#mb356207c36" x="306.816043" y="368.3955" style="stroke: #000000; stroke-width: 0.8"/>
      </g>
     </g>
     <g id="text_3">
      <!-- 2020-07 -->
      <g transform="translate(285.924637 382.993937)scale(0.1 -0.1)">
       <defs>
        <path id="DejaVuSans-37" d="M 525 4666 
L 3525 4666 
L 3525 4397 
L 1831 0 
L 1172 0 
L 2766 4134 
L 525 4134 
L 525 4666 
z
" transform="scale(0.015625)"/>
       </defs>
       <use xlink:href="#DejaVuSans-32"/>
       <use xlink:href="#DejaVuSans-30" x="63.623047"/>
       <use xlink:href="#DejaVuSans-32" x="127.246094"/>
       <use xlink:href="#DejaVuSans-30" x="190.869141"/>
       <use xlink:href="#DejaVuSans-2d" x="254.492188"/>
       <use xlink:href="#DejaVuSans-30" x="290.576172"/>
       <use xlink:href="#DejaVuSans-37" x="354.199219"/>
      </g>
     </g>
    </g>
    <g id="xtick_4">
     <g id="line2d_4">
      <g>
       <use xlink:href="#mb356207c36" x="429.093137" y="368.3955" style="stroke: #000000; stroke-width: 0.8"/>
      </g>
     </g>
     <g id="text_4">
      <!-- 2020-10 -->
      <g transform="translate(408.201731 382.993937)scale(0.1 -0.1)">
       <use xlink:href="#DejaVuSans-32"/>
       <use xlink:href="#DejaVuSans-30" x="63.623047"/>
       <use xlink:href="#DejaVuSans-32" x="127.246094"/>
       <use xlink:href="#DejaVuSans-30" x="190.869141"/>
       <use xlink:href="#DejaVuSans-2d" x="254.492188"/>
       <use xlink:href="#DejaVuSans-31" x="290.576172"/>
       <use xlink:href="#DejaVuSans-30" x="354.199219"/>
      </g>
     </g>
    </g>
    <g id="xtick_5">
     <g id="line2d_5">
      <g>
       <use xlink:href="#mb356207c36" x="551.370231" y="368.3955" style="stroke: #000000; stroke-width: 0.8"/>
      </g>
     </g>
     <g id="text_5">
      <!-- 2021-01 -->
      <g transform="translate(530.478825 382.993937)scale(0.1 -0.1)">
       <use xlink:href="#DejaVuSans-32"/>
       <use xlink:href="#DejaVuSans-30" x="63.623047"/>
       <use xlink:href="#DejaVuSans-32" x="127.246094"/>
       <use xlink:href="#DejaVuSans-31" x="190.869141"/>
       <use xlink:href="#DejaVuSans-2d" x="254.492188"/>
       <use xlink:href="#DejaVuSans-30" x="290.576172"/>
       <use xlink:href="#DejaVuSans-31" x="354.199219"/>
      </g>
     </g>
    </g>
    <g id="xtick_6">
     <g id="line2d_6">
      <g>
       <use xlink:href="#mb356207c36" x="670.989128" y="368.3955" style="stroke: #000000; stroke-width: 0.8"/>
      </g>
     </g>
     <g id="text_6">
      <!-- 2021-04 -->
      <g transform="translate(650.097721 382.993937)scale(0.1 -0.1)">
       <use xlink:href="#DejaVuSans-32"/>
       <use xlink:href="#DejaVuSans-30" x="63.623047"/>
       <use xlink:href="#DejaVuSans-32" x="127.246094"/>
       <use xlink:href="#DejaVuSans-31" x="190.869141"/>
       <use xlink:href="#DejaVuSans-2d" x="254.492188"/>
       <use xlink:href="#DejaVuSans-30" x="290.576172"/>
       <use xlink:href="#DejaVuSans-34" x="354.199219"/>
      </g>
     </g>
    </g>
    <g id="xtick_7">
     <g id="line2d_7">
      <g>
       <use xlink:href="#mb356207c36" x="791.937123" y="368.3955" style="stroke: #000000; stroke-width: 0.8"/>
      </g>
     </g>
     <g id="text_7">
      <!-- 2021-07 -->
      <g transform="translate(771.045717 382.993937)scale(0.1 -0.1)">
       <use xlink:href="#DejaVuSans-32"/>
       <use xlink:href="#DejaVuSans-30" x="63.623047"/>
       <use xlink:href="#DejaVuSans-32" x="127.246094"/>
       <use xlink:href="#DejaVuSans-31" x="190.869141"/>
       <use xlink:href="#DejaVuSans-2d" x="254.492188"/>
       <use xlink:href="#DejaVuSans-30" x="290.576172"/>
       <use xlink:href="#DejaVuSans-37" x="354.199219"/>
      </g>
     </g>
    </g>
    <g id="xtick_8">
     <g id="line2d_8">
      <g>
       <use xlink:href="#mb356207c36" x="914.214217" y="368.3955" style="stroke: #000000; stroke-width: 0.8"/>
      </g>
     </g>
     <g id="text_8">
      <!-- 2021-10 -->
      <g transform="translate(893.322811 382.993937)scale(0.1 -0.1)">
       <use xlink:href="#DejaVuSans-32"/>
       <use xlink:href="#DejaVuSans-30" x="63.623047"/>
       <use xlink:href="#DejaVuSans-32" x="127.246094"/>
       <use xlink:href="#DejaVuSans-31" x="190.869141"/>
       <use xlink:href="#DejaVuSans-2d" x="254.492188"/>
       <use xlink:href="#DejaVuSans-31" x="290.576172"/>
       <use xlink:href="#DejaVuSans-30" x="354.199219"/>
      </g>
     </g>
    </g>
    <g id="xtick_9">
     <g id="line2d_9">
      <g>
       <use xlink:href="#mb356207c36" x="1036.491311" y="368.3955" style="stroke: #000000; stroke-width: 0.8"/>
      </g>
     </g>
     <g id="text_9">
      <!-- 2022-01 -->
      <g transform="translate(1015.599905 382.993937)scale(0.1 -0.1)">
       <use xlink:href="#DejaVuSans-32"/>
       <use xlink:href="#DejaVuSans-30" x="63.623047"/>
       <use xlink:href="#DejaVuSans-32" x="127.246094"/>
       <use xlink:href="#DejaVuSans-32" x="190.869141"/>
       <use xlink:href="#DejaVuSans-2d" x="254.492188"/>
       <use xlink:href="#DejaVuSans-30" x="290.576172"/>
       <use xlink:href="#DejaVuSans-31" x="354.199219"/>
      </g>
     </g>
    </g>
    <g id="xtick_10">
     <g id="line2d_10">
      <g>
       <use xlink:href="#mb356207c36" x="1156.110207" y="368.3955" style="stroke: #000000; stroke-width: 0.8"/>
      </g>
     </g>
     <g id="text_10">
      <!-- 2022-04 -->
      <g transform="translate(1135.218801 382.993937)scale(0.1 -0.1)">
       <use xlink:href="#DejaVuSans-32"/>
       <use xlink:href="#DejaVuSans-30" x="63.623047"/>
       <use xlink:href="#DejaVuSans-32" x="127.246094"/>
       <use xlink:href="#DejaVuSans-32" x="190.869141"/>
       <use xlink:href="#DejaVuSans-2d" x="254.492188"/>
       <use xlink:href="#DejaVuSans-30" x="290.576172"/>
       <use xlink:href="#DejaVuSans-34" x="354.199219"/>
      </g>
     </g>
    </g>
    <g id="xtick_11">
     <g id="line2d_11">
      <g>
       <use xlink:href="#mb356207c36" x="1277.058203" y="368.3955" style="stroke: #000000; stroke-width: 0.8"/>
      </g>
     </g>
     <g id="text_11">
      <!-- 2022-07 -->
      <g transform="translate(1256.166796 382.993937)scale(0.1 -0.1)">
       <use xlink:href="#DejaVuSans-32"/>
       <use xlink:href="#DejaVuSans-30" x="63.623047"/>
       <use xlink:href="#DejaVuSans-32" x="127.246094"/>
       <use xlink:href="#DejaVuSans-32" x="190.869141"/>
       <use xlink:href="#DejaVuSans-2d" x="254.492188"/>
       <use xlink:href="#DejaVuSans-30" x="290.576172"/>
       <use xlink:href="#DejaVuSans-37" x="354.199219"/>
      </g>
     </g>
    </g>
   </g>
   <g id="matplotlib.axis_2">
    <g id="ytick_1">
     <g id="line2d_12">
      <defs>
       <path id="ma933768aa7" d="M 0 0 
L -3.5 0 
" style="stroke: #000000; stroke-width: 0.8"/>
      </defs>
      <g>
       <use xlink:href="#ma933768aa7" x="33.2875" y="333.167789" style="stroke: #000000; stroke-width: 0.8"/>
      </g>
     </g>
     <g id="text_12">
      <!-- 0 -->
      <g transform="translate(19.925 336.967008)scale(0.1 -0.1)">
       <use xlink:href="#DejaVuSans-30"/>
      </g>
     </g>
    </g>
    <g id="ytick_2">
     <g id="line2d_13">
      <g>
       <use xlink:href="#ma933768aa7" x="33.2875" y="275.674451" style="stroke: #000000; stroke-width: 0.8"/>
      </g>
     </g>
     <g id="text_13">
      <!-- 100 -->
      <g transform="translate(7.2 279.47367)scale(0.1 -0.1)">
       <use xlink:href="#DejaVuSans-31"/>
       <use xlink:href="#DejaVuSans-30" x="63.623047"/>
       <use xlink:href="#DejaVuSans-30" x="127.246094"/>
      </g>
     </g>
    </g>
    <g id="ytick_3">
     <g id="line2d_14">
      <g>
       <use xlink:href="#ma933768aa7" x="33.2875" y="218.181114" style="stroke: #000000; stroke-width: 0.8"/>
      </g>
     </g>
     <g id="text_14">
      <!-- 200 -->
      <g transform="translate(7.2 221.980332)scale(0.1 -0.1)">
       <use xlink:href="#DejaVuSans-32"/>
       <use xlink:href="#DejaVuSans-30" x="63.623047"/>
       <use xlink:href="#DejaVuSans-30" x="127.246094"/>
      </g>
     </g>
    </g>
    <g id="ytick_4">
     <g id="line2d_15">
      <g>
       <use xlink:href="#ma933768aa7" x="33.2875" y="160.687776" style="stroke: #000000; stroke-width: 0.8"/>
      </g>
     </g>
     <g id="text_15">
      <!-- 300 -->
      <g transform="translate(7.2 164.486994)scale(0.1 -0.1)">
       <defs>
        <path id="DejaVuSans-33" d="M 2597 2516 
Q 3050 2419 3304 2112 
Q 3559 1806 3559 1356 
Q 3559 666 3084 287 
Q 2609 -91 1734 -91 
Q 1441 -91 1130 -33 
Q 819 25 488 141 
L 488 750 
Q 750 597 1062 519 
Q 1375 441 1716 441 
Q 2309 441 2620 675 
Q 2931 909 2931 1356 
Q 2931 1769 2642 2001 
Q 2353 2234 1838 2234 
L 1294 2234 
L 1294 2753 
L 1863 2753 
Q 2328 2753 2575 2939 
Q 2822 3125 2822 3475 
Q 2822 3834 2567 4026 
Q 2313 4219 1838 4219 
Q 1578 4219 1281 4162 
Q 984 4106 628 3988 
L 628 4550 
Q 988 4650 1302 4700 
Q 1616 4750 1894 4750 
Q 2613 4750 3031 4423 
Q 3450 4097 3450 3541 
Q 3450 3153 3228 2886 
Q 3006 2619 2597 2516 
z
" transform="scale(0.015625)"/>
       </defs>
       <use xlink:href="#DejaVuSans-33"/>
       <use xlink:href="#DejaVuSans-30" x="63.623047"/>
       <use xlink:href="#DejaVuSans-30" x="127.246094"/>
      </g>
     </g>
    </g>
    <g id="ytick_5">
     <g id="line2d_16">
      <g>
       <use xlink:href="#ma933768aa7" x="33.2875" y="103.194438" style="stroke: #000000; stroke-width: 0.8"/>
      </g>
     </g>
     <g id="text_16">
      <!-- 400 -->
      <g transform="translate(7.2 106.993656)scale(0.1 -0.1)">
       <use xlink:href="#DejaVuSans-34"/>
       <use xlink:href="#DejaVuSans-30" x="63.623047"/>
       <use xlink:href="#DejaVuSans-30" x="127.246094"/>
      </g>
     </g>
    </g>
    <g id="ytick_6">
     <g id="line2d_17">
      <g>
       <use xlink:href="#ma933768aa7" x="33.2875" y="45.7011" style="stroke: #000000; stroke-width: 0.8"/>
      </g>
     </g>
     <g id="text_17">
      <!-- 500 -->
      <g transform="translate(7.2 49.500318)scale(0.1 -0.1)">
       <defs>
        <path id="DejaVuSans-35" d="M 691 4666 
L 3169 4666 
L 3169 4134 
L 1269 4134 
L 1269 2991 
Q 1406 3038 1543 3061 
Q 1681 3084 1819 3084 
Q 2600 3084 3056 2656 
Q 3513 2228 3513 1497 
Q 3513 744 3044 326 
Q 2575 -91 1722 -91 
Q 1428 -91 1123 -41 
Q 819 9 494 109 
L 494 744 
Q 775 591 1075 516 
Q 1375 441 1709 441 
Q 2250 441 2565 725 
Q 2881 1009 2881 1497 
Q 2881 1984 2565 2268 
Q 2250 2553 1709 2553 
Q 1456 2553 1204 2497 
Q 953 2441 691 2322 
L 691 4666 
z
" transform="scale(0.015625)"/>
       </defs>
       <use xlink:href="#DejaVuSans-35"/>
       <use xlink:href="#DejaVuSans-30" x="63.623047"/>
       <use xlink:href="#DejaVuSans-30" x="127.246094"/>
      </g>
     </g>
    </g>
   </g>
   <g id="line2d_18">
    <path d="M 94.160227 333.167789 
L 142.007786 333.167789 
L 143.336885 332.592856 
L 144.665984 333.167789 
L 145.995082 333.167789 
L 147.324181 328.568322 
L 148.65328 333.167789 
L 149.982379 329.143256 
L 151.311478 329.718189 
L 152.640577 332.017923 
L 153.969675 331.442989 
L 155.298774 327.418456 
L 156.627873 326.268589 
L 157.956972 326.843522 
L 159.286071 333.167789 
L 160.61517 330.868056 
L 161.944269 325.693656 
L 163.273367 333.167789 
L 164.602466 333.167789 
L 165.931565 318.794455 
L 167.260664 332.017923 
L 168.589763 330.293123 
L 169.918862 323.393922 
L 171.247961 318.794455 
L 172.577059 319.369388 
L 175.235257 333.167789 
L 176.564356 321.094188 
L 177.893455 327.418456 
L 179.222554 330.293123 
L 180.551652 330.293123 
L 181.880751 333.167789 
L 183.20985 332.017923 
L 184.538949 329.718189 
L 185.868048 333.167789 
L 187.197147 333.167789 
L 188.526246 327.993389 
L 189.855344 329.143256 
L 192.513542 329.143256 
L 193.842641 326.843522 
L 195.17174 332.017923 
L 196.500839 316.494721 
L 197.829937 312.470188 
L 199.159036 333.167789 
L 200.488135 326.268589 
L 201.817234 333.167789 
L 203.146333 324.543789 
L 204.475432 332.592856 
L 205.804531 321.094188 
L 207.133629 314.194988 
L 208.462728 333.167789 
L 209.791827 316.494721 
L 211.120926 329.718189 
L 212.450025 332.592856 
L 213.779124 325.118722 
L 215.108223 326.268589 
L 216.437321 325.693656 
L 217.76642 326.268589 
L 219.095519 333.167789 
L 220.424618 318.794455 
L 221.753717 333.167789 
L 223.082816 324.543789 
L 224.411914 327.418456 
L 225.741013 329.718189 
L 227.070112 326.843522 
L 228.399211 333.167789 
L 229.72831 332.017923 
L 231.057409 333.167789 
L 232.386508 329.143256 
L 233.715606 322.244055 
L 235.044705 319.369388 
L 236.373804 333.167789 
L 237.702903 333.167789 
L 240.361101 327.418456 
L 241.690199 333.167789 
L 244.348397 333.167789 
L 245.677496 330.293123 
L 247.006595 333.167789 
L 248.335694 323.968855 
L 249.664793 333.167789 
L 250.993891 333.167789 
L 252.32299 332.017923 
L 253.652089 332.017923 
L 254.981188 333.167789 
L 261.626682 333.167789 
L 262.955781 324.543789 
L 264.28488 333.167789 
L 270.930374 333.167789 
L 272.259473 328.568322 
L 273.588572 333.167789 
L 288.208659 333.167789 
L 289.537758 325.118722 
L 290.866857 333.167789 
L 292.195956 330.868056 
L 293.525055 333.167789 
L 317.448834 333.167789 
L 318.777933 331.442989 
L 320.107032 333.167789 
L 354.663602 333.167789 
L 355.9927 332.592856 
L 357.321799 333.167789 
L 361.309096 333.167789 
L 362.638195 332.017923 
L 363.967294 333.167789 
L 373.270986 333.167789 
L 374.600084 329.143256 
L 375.929183 333.167789 
L 379.91648 333.167789 
L 381.245579 330.868056 
L 382.574677 333.167789 
L 383.903776 332.017923 
L 386.561974 333.167789 
L 387.891073 332.017923 
L 389.220172 333.167789 
L 401.182061 333.167789 
L 402.51116 329.718189 
L 403.840259 333.167789 
L 409.156654 333.167789 
L 410.485753 332.592856 
L 411.814852 333.167789 
L 418.460346 333.167789 
L 419.789445 330.868056 
L 421.118544 333.167789 
L 425.105841 333.167789 
L 426.434939 331.442989 
L 427.764038 333.167789 
L 429.093137 332.592856 
L 430.422236 333.167789 
L 434.409533 333.167789 
L 435.738631 332.592856 
L 437.06773 333.167789 
L 438.396829 332.592856 
L 439.725928 333.167789 
L 441.055027 325.118722 
L 442.384126 333.167789 
L 445.042323 333.167789 
L 446.371422 329.718189 
L 447.700521 333.167789 
L 449.02962 327.993389 
L 450.358719 331.442989 
L 451.687818 333.167789 
L 453.016916 333.167789 
L 454.346015 330.293123 
L 455.675114 330.293123 
L 457.004213 332.017923 
L 458.333312 329.718189 
L 459.662411 323.393922 
L 460.99151 318.794455 
L 462.320608 333.167789 
L 463.649707 328.568322 
L 464.978806 315.344855 
L 466.307905 321.669122 
L 467.637004 318.219522 
L 468.966103 316.494721 
L 470.295201 333.167789 
L 472.953399 333.167789 
L 474.282498 312.470188 
L 475.611597 328.568322 
L 476.940696 309.595521 
L 478.269795 299.821653 
L 479.598893 333.167789 
L 480.927992 333.167789 
L 482.257091 325.693656 
L 483.58619 309.595521 
L 484.915289 313.045121 
L 486.244388 307.870721 
L 487.573487 322.244055 
L 488.902585 333.167789 
L 490.231684 311.895254 
L 491.560783 333.167789 
L 492.889882 315.344855 
L 494.218981 311.895254 
L 495.54808 324.543789 
L 496.877178 320.519255 
L 498.206277 314.769921 
L 499.535376 332.592856 
L 500.864475 333.167789 
L 502.193574 318.219522 
L 503.522673 311.320321 
L 504.851772 320.519255 
L 506.18087 310.170454 
L 507.509969 314.769921 
L 508.839068 319.944322 
L 510.168167 331.442989 
L 511.497266 311.320321 
L 512.826365 311.895254 
L 514.155463 317.644588 
L 515.484562 309.020588 
L 516.813661 314.194988 
L 518.14276 333.167789 
L 519.471859 326.843522 
L 520.800958 314.769921 
L 522.130057 332.017923 
L 523.459155 313.620055 
L 524.788254 310.170454 
L 526.117353 319.369388 
L 527.446452 324.543789 
L 528.775551 313.045121 
L 530.10465 308.445654 
L 531.433749 333.167789 
L 532.762847 319.369388 
L 534.091946 333.167789 
L 535.421045 299.821653 
L 536.750144 333.167789 
L 538.079243 317.069655 
L 539.408342 309.595521 
L 540.73744 315.919788 
L 542.066539 318.794455 
L 543.395638 314.194988 
L 544.724737 333.167789 
L 546.053836 326.268589 
L 547.382935 333.167789 
L 548.712034 300.396587 
L 550.041132 333.167789 
L 551.370231 303.846187 
L 552.69933 307.870721 
L 554.028429 313.045121 
L 555.357528 333.167789 
L 556.686627 315.919788 
L 558.015725 300.97152 
L 559.344824 333.167789 
L 560.673923 313.620055 
L 562.003022 307.295787 
L 564.66122 333.167789 
L 565.990319 333.167789 
L 567.319417 300.97152 
L 568.648516 323.393922 
L 569.977615 324.543789 
L 571.306714 316.494721 
L 572.635813 326.843522 
L 573.964912 333.167789 
L 575.294011 327.993389 
L 576.623109 333.167789 
L 577.952208 317.069655 
L 579.281307 322.818989 
L 580.610406 317.069655 
L 581.939505 325.693656 
L 583.268604 333.167789 
L 584.597702 324.543789 
L 585.926801 318.219522 
L 587.2559 318.219522 
L 588.584999 317.069655 
L 589.914098 317.644588 
L 591.243197 316.494721 
L 592.572296 333.167789 
L 593.901394 309.595521 
L 595.230493 317.069655 
L 596.559592 323.393922 
L 597.888691 325.118722 
L 599.21779 332.017923 
L 600.546889 327.993389 
L 601.875987 332.592856 
L 603.205086 333.167789 
L 604.534185 304.42112 
L 605.863284 318.219522 
L 607.192383 313.620055 
L 608.521482 315.344855 
L 609.850581 318.219522 
L 611.179679 327.418456 
L 612.508778 331.442989 
L 613.837877 313.045121 
L 615.166976 309.020588 
L 616.496075 318.219522 
L 617.825174 321.669122 
L 619.154273 314.769921 
L 620.483371 321.669122 
L 621.81247 332.017923 
L 623.141569 307.870721 
L 624.470668 306.145921 
L 625.799767 312.470188 
L 627.128866 304.42112 
L 628.457964 307.295787 
L 629.787063 333.167789 
L 631.116162 315.919788 
L 632.445261 307.295787 
L 633.77436 311.320321 
L 635.103459 311.320321 
L 636.432558 316.494721 
L 637.761656 318.219522 
L 639.090755 325.693656 
L 640.419854 304.996054 
L 641.748953 306.720854 
L 643.078052 314.769921 
L 644.407151 313.620055 
L 645.73625 315.919788 
L 647.065348 333.167789 
L 648.394447 333.167789 
L 649.723546 318.794455 
L 651.052645 302.69632 
L 652.381744 307.295787 
L 653.710843 308.445654 
L 655.039941 312.470188 
L 656.36904 317.069655 
L 657.698139 333.167789 
L 659.027238 314.769921 
L 660.356337 307.295787 
L 661.685436 303.846187 
L 663.014535 296.946987 
L 664.343633 300.97152 
L 665.672732 319.944322 
L 667.001831 330.293123 
L 668.33093 301.546454 
L 669.660029 306.720854 
L 670.989128 329.718189 
L 672.318226 305.570987 
L 673.647325 323.968855 
L 674.976424 331.442989 
L 676.305523 299.24672 
L 677.634622 333.167789 
L 678.963721 333.167789 
L 680.29282 310.170454 
L 681.621918 317.069655 
L 682.951017 326.268589 
L 684.280116 326.268589 
L 685.609215 333.167789 
L 686.938314 329.718189 
L 688.267413 319.944322 
L 689.596512 322.244055 
L 690.92561 329.718189 
L 692.254709 333.167789 
L 693.583808 333.167789 
L 694.912907 321.669122 
L 696.242006 327.418456 
L 697.571105 330.868056 
L 698.900203 332.017923 
L 701.558401 333.167789 
L 702.8875 333.167789 
L 704.216599 328.568322 
L 705.545698 331.442989 
L 706.874797 333.167789 
L 708.203895 332.017923 
L 709.532994 333.167789 
L 710.862093 329.718189 
L 712.191192 333.167789 
L 713.520291 332.592856 
L 714.84939 330.868056 
L 716.178488 330.293123 
L 717.507587 331.442989 
L 718.836686 333.167789 
L 721.494884 333.167789 
L 722.823983 330.868056 
L 724.153082 333.167789 
L 725.48218 331.442989 
L 726.811279 332.592856 
L 728.140378 333.167789 
L 732.127675 333.167789 
L 733.456774 332.017923 
L 734.785872 333.167789 
L 744.089564 333.167789 
L 745.418663 332.592856 
L 746.747762 333.167789 
L 769.342442 333.167789 
L 770.671541 332.592856 
L 772.00064 333.167789 
L 786.620727 333.167789 
L 787.949826 332.592856 
L 789.278925 333.167789 
L 807.886309 333.167789 
L 809.215408 332.017923 
L 810.544507 333.167789 
L 814.531803 333.167789 
L 815.860902 332.017923 
L 817.190001 329.718189 
L 818.5191 333.167789 
L 819.848199 330.293123 
L 821.177298 333.167789 
L 822.506396 333.167789 
L 823.835495 332.592856 
L 826.493693 324.543789 
L 827.822792 332.017923 
L 829.151891 333.167789 
L 830.480989 327.418456 
L 831.810088 333.167789 
L 833.139187 333.167789 
L 834.468286 330.868056 
L 835.797385 321.669122 
L 837.126484 326.843522 
L 838.455583 332.592856 
L 839.784681 330.868056 
L 841.11378 333.167789 
L 842.442879 333.167789 
L 843.771978 326.843522 
L 845.101077 325.693656 
L 846.430176 331.442989 
L 847.759275 329.143256 
L 849.088373 330.293123 
L 850.417472 333.167789 
L 851.746571 333.167789 
L 853.07567 327.993389 
L 854.404769 329.143256 
L 855.733868 329.718189 
L 857.062966 329.718189 
L 858.392065 330.293123 
L 859.721164 333.167789 
L 861.050263 333.167789 
L 862.379362 329.718189 
L 863.708461 322.818989 
L 865.03756 325.693656 
L 866.366658 325.693656 
L 867.695757 327.993389 
L 869.024856 333.167789 
L 870.353955 333.167789 
L 871.683054 329.143256 
L 873.012153 327.418456 
L 874.341251 333.167789 
L 875.67035 325.118722 
L 876.999449 333.167789 
L 880.986746 333.167789 
L 882.315845 329.718189 
L 884.974042 328.568322 
L 886.303141 329.143256 
L 887.63224 333.167789 
L 888.961339 333.167789 
L 890.290438 324.543789 
L 891.619537 326.843522 
L 892.948635 331.442989 
L 894.277734 329.718189 
L 895.606833 330.868056 
L 896.935932 333.167789 
L 898.265031 333.167789 
L 899.59413 329.143256 
L 900.923228 330.868056 
L 902.252327 333.167789 
L 903.581426 331.442989 
L 904.910525 332.592856 
L 906.239624 333.167789 
L 907.568723 333.167789 
L 908.897822 332.592856 
L 910.22692 328.568322 
L 911.556019 332.017923 
L 912.885118 332.017923 
L 914.214217 333.167789 
L 916.872415 333.167789 
L 918.201513 330.868056 
L 919.530612 326.268589 
L 920.859711 330.868056 
L 922.18881 330.868056 
L 924.847008 333.167789 
L 926.176107 333.167789 
L 927.505205 330.868056 
L 928.834304 333.167789 
L 931.492502 333.167789 
L 932.821601 331.442989 
L 934.1507 333.167789 
L 935.479799 333.167789 
L 938.137996 330.868056 
L 939.467095 332.017923 
L 940.796194 327.993389 
L 942.125293 329.143256 
L 943.454392 333.167789 
L 944.78349 333.167789 
L 946.112589 326.268589 
L 947.441688 326.268589 
L 948.770787 325.693656 
L 950.099886 329.718189 
L 951.428985 329.143256 
L 952.758084 333.167789 
L 956.74538 333.167789 
L 958.074479 320.519255 
L 959.403578 325.693656 
L 960.732677 329.718189 
L 962.061776 333.167789 
L 963.390874 333.167789 
L 964.719973 327.418456 
L 966.049072 326.268589 
L 967.378171 333.167789 
L 968.70727 330.868056 
L 970.036369 327.418456 
L 971.365467 333.167789 
L 972.694566 333.167789 
L 974.023665 315.919788 
L 976.681863 317.069655 
L 978.010962 319.944322 
L 979.340061 319.369388 
L 980.669159 333.167789 
L 981.998258 333.167789 
L 983.327357 314.769921 
L 984.656456 308.445654 
L 985.985555 310.745388 
L 987.314654 312.470188 
L 988.643752 320.519255 
L 989.972851 333.167789 
L 991.30195 333.167789 
L 992.631049 304.996054 
L 993.960148 298.671787 
L 995.289247 307.295787 
L 996.618346 313.620055 
L 997.947444 315.919788 
L 999.276543 333.167789 
L 1000.605642 333.167789 
L 1001.934741 293.497386 
L 1003.26384 280.848852 
L 1004.592939 333.167789 
L 1005.922038 304.996054 
L 1007.251136 271.649918 
L 1008.580235 333.167789 
L 1011.238433 333.167789 
L 1012.567532 186.559778 
L 1013.896631 282.573652 
L 1015.225729 271.074984 
L 1016.554828 280.273919 
L 1017.883927 333.167789 
L 1019.213026 333.167789 
L 1020.542125 245.202982 
L 1021.871224 333.167789 
L 1023.200323 223.355514 
L 1024.529421 277.974185 
L 1025.85852 287.748052 
L 1027.187619 333.167789 
L 1028.516718 333.167789 
L 1029.845817 258.42645 
L 1031.174916 332.592856 
L 1032.504014 246.352849 
L 1033.833113 333.167789 
L 1035.162212 106.644038 
L 1036.491311 333.167789 
L 1037.82041 333.167789 
L 1039.149509 169.311776 
L 1040.478608 221.05578 
L 1041.807706 238.303782 
L 1043.136805 333.167789 
L 1044.465904 190.584311 
L 1045.795003 333.167789 
L 1047.124102 333.167789 
L 1048.453201 89.97097 
L 1049.7823 333.167789 
L 1051.111398 50.8755 
L 1052.440497 229.679781 
L 1053.769596 240.603515 
L 1055.098695 333.167789 
L 1056.427794 333.167789 
L 1057.756893 165.862176 
L 1059.085991 209.557113 
L 1060.41509 206.107513 
L 1061.744189 217.60618 
L 1063.073288 225.080314 
L 1064.402387 333.167789 
L 1065.731486 333.167789 
L 1067.060585 149.189108 
L 1068.389683 333.167789 
L 1069.718782 213.006713 
L 1071.047881 198.633379 
L 1072.37698 199.208312 
L 1073.706079 333.167789 
L 1075.035178 333.167789 
L 1076.364276 90.545903 
L 1077.693375 333.167789 
L 1079.022474 217.60618 
L 1080.351573 193.458978 
L 1081.680672 333.167789 
L 1084.33887 333.167789 
L 1085.667968 193.458978 
L 1086.997067 332.592856 
L 1088.326166 208.982179 
L 1089.655265 296.372053 
L 1090.984364 327.993389 
L 1092.313463 333.167789 
L 1093.642562 333.167789 
L 1094.97166 260.15125 
L 1096.300759 300.97152 
L 1097.629858 309.020588 
L 1098.958957 333.167789 
L 1100.288056 298.096853 
L 1101.617155 333.167789 
L 1102.946253 333.167789 
L 1104.275352 298.671787 
L 1105.604451 333.167789 
L 1106.93355 301.546454 
L 1108.262649 316.494721 
L 1109.591748 322.244055 
L 1110.920847 333.167789 
L 1112.249945 333.167789 
L 1113.579044 299.24672 
L 1114.908143 307.295787 
L 1116.237242 321.094188 
L 1117.566341 315.344855 
L 1118.89544 321.094188 
L 1120.224539 333.167789 
L 1121.553637 333.167789 
L 1122.882736 312.470188 
L 1124.211835 299.821653 
L 1125.540934 305.570987 
L 1126.870033 319.369388 
L 1128.199132 311.320321 
L 1129.52823 333.167789 
L 1130.857329 333.167789 
L 1132.186428 313.045121 
L 1133.515527 296.946987 
L 1134.844626 307.295787 
L 1136.173725 333.167789 
L 1137.502824 312.470188 
L 1138.831922 333.167789 
L 1140.161021 333.167789 
L 1141.49012 276.824318 
L 1142.819219 295.222186 
L 1144.148318 307.295787 
L 1145.477417 306.720854 
L 1146.806515 333.167789 
L 1149.464713 333.167789 
L 1150.793812 300.97152 
L 1152.122911 280.848852 
L 1153.45201 313.045121 
L 1154.781109 311.320321 
L 1156.110207 333.167789 
L 1161.426603 333.167789 
L 1162.755702 222.205647 
L 1164.084801 308.445654 
L 1165.413899 305.570987 
L 1166.742998 333.167789 
L 1168.072097 333.167789 
L 1169.401196 302.121387 
L 1170.730295 277.974185 
L 1172.059394 305.570987 
L 1173.388492 306.145921 
L 1174.717591 333.167789 
L 1178.704888 333.167789 
L 1180.033987 271.649918 
L 1181.363086 278.549118 
L 1182.692184 296.372053 
L 1184.021283 306.720854 
L 1185.350382 333.167789 
L 1191.995876 333.167789 
L 1193.324975 188.859511 
L 1194.654074 333.167789 
L 1195.983173 333.167789 
L 1197.312272 310.745388 
L 1198.641371 305.570987 
L 1199.970469 311.895254 
L 1201.299568 333.167789 
L 1202.628667 296.946987 
L 1203.957766 333.167789 
L 1205.286865 333.167789 
L 1206.615964 309.020588 
L 1207.945063 288.897919 
L 1209.274161 309.020588 
L 1210.60326 311.320321 
L 1211.932359 316.494721 
L 1213.261458 333.167789 
L 1219.906952 333.167789 
L 1221.236051 253.25205 
L 1222.56515 333.167789 
L 1223.894249 333.167789 
L 1225.223348 314.769921 
L 1226.552446 320.519255 
L 1227.881545 325.118722 
L 1229.210644 333.167789 
L 1230.539743 319.369388 
L 1231.868842 333.167789 
L 1233.197941 333.167789 
L 1234.527039 320.519255 
L 1235.856138 322.244055 
L 1237.185237 333.167789 
L 1254.463522 333.167789 
L 1255.792621 188.284578 
L 1257.12172 333.167789 
L 1258.450819 311.895254 
L 1259.779918 333.167789 
L 1261.109016 333.167789 
L 1262.438115 281.998719 
L 1263.767214 294.07232 
L 1265.096313 298.096853 
L 1266.425412 333.167789 
L 1267.754511 282.573652 
L 1269.08361 333.167789 
L 1270.412708 333.167789 
L 1271.741807 305.570987 
L 1273.070906 333.167789 
L 1274.400005 221.630714 
L 1275.729104 301.546454 
L 1277.058203 289.472853 
L 1278.387302 333.167789 
L 1279.7164 333.167789 
L 1281.045499 250.377383 
L 1282.374598 261.301117 
L 1283.703697 333.167789 
L 1286.361895 333.167789 
L 1287.690993 132.51604 
L 1289.020092 333.167789 
L 1290.349191 319.369388 
L 1291.67829 245.777916 
L 1293.007389 280.848852 
L 1294.336488 333.167789 
L 1294.336488 333.167789 
" clip-path="url(#pd481f9ab5f)" style="fill: none; stroke: #0000ff; stroke-width: 1.5; stroke-linecap: square"/>
   </g>
   <g id="line2d_19">
    <path d="M 1055.098695 264.622353 
L 1056.427794 149.049397 
L 1057.756893 263.391982 
L 1059.085991 169.203219 
L 1060.41509 245.075508 
L 1061.744189 208.964622 
L 1063.073288 288.406153 
L 1064.402387 281.227612 
L 1065.731486 165.22048 
L 1067.060585 242.696816 
L 1068.389683 181.695698 
L 1069.718782 232.780603 
L 1071.047881 236.065649 
L 1072.37698 311.172517 
L 1073.706079 298.114892 
L 1075.035178 173.221858 
L 1076.364276 287.700752 
L 1077.693375 206.150352 
L 1079.022474 217.31866 
L 1080.351573 222.992314 
L 1081.680672 290.594252 
L 1083.009771 297.330916 
L 1084.33887 167.75895 
L 1085.667968 301.93531 
L 1086.997067 230.216839 
L 1088.326166 237.945575 
L 1090.984364 315.527011 
L 1092.313463 327.723521 
L 1093.642562 214.393181 
L 1094.97166 321.55664 
L 1096.300759 251.471504 
L 1097.629858 277.731195 
L 1098.958957 308.613261 
L 1100.288056 345.008995 
L 1101.617155 348.679961 
L 1102.946253 262.866759 
L 1104.275352 323.735326 
L 1105.604451 292.362941 
L 1106.93355 320.212827 
L 1108.262649 324.63269 
L 1109.591748 347.090816 
L 1110.920847 347.770761 
L 1112.249945 296.190841 
L 1113.579044 336.884783 
L 1114.908143 312.098237 
L 1116.237242 324.279095 
L 1117.566341 326.849647 
L 1118.89544 342.859108 
L 1120.224539 341.970392 
L 1121.553637 304.819295 
L 1122.882736 325.954643 
L 1124.211835 321.305601 
L 1125.540934 326.338829 
L 1126.870033 325.588523 
L 1128.199132 336.789407 
L 1129.52823 335.28921 
L 1130.857329 309.076541 
L 1132.186428 315.303647 
L 1133.515527 316.112291 
L 1134.844626 322.635849 
L 1136.173725 316.991468 
L 1137.502824 331.894428 
L 1138.831922 332.69549 
L 1140.161021 312.955891 
L 1141.49012 314.884376 
L 1142.819219 315.041217 
L 1144.148318 322.146805 
L 1145.477417 314.373368 
L 1146.806515 323.806994 
L 1148.135614 323.88469 
L 1149.464713 297.664871 
L 1150.793812 304.189364 
L 1152.122911 313.420534 
L 1153.45201 316.153274 
L 1154.781109 319.750713 
L 1156.110207 324.956969 
L 1157.439306 325.472031 
L 1158.768405 301.957134 
L 1160.097504 295.154236 
L 1161.426603 309.738289 
L 1162.755702 330.247649 
L 1164.084801 333.788701 
L 1165.413899 326.057887 
L 1166.742998 322.784426 
L 1168.072097 309.02845 
L 1169.401196 310.503455 
L 1170.730295 281.178641 
L 1172.059394 304.405683 
L 1173.388492 308.416909 
L 1174.717591 321.186658 
L 1176.04669 322.450973 
L 1177.375789 308.417649 
L 1178.704888 297.813112 
L 1180.033987 299.064325 
L 1181.363086 315.313362 
L 1182.692184 322.337447 
L 1184.021283 325.738496 
L 1185.350382 321.798802 
L 1186.679481 312.622396 
L 1188.00858 286.70555 
L 1189.337679 284.865174 
L 1191.995876 317.294401 
L 1193.324975 351.591875 
L 1194.654074 337.148309 
L 1195.983173 316.386732 
L 1197.312272 307.540247 
L 1198.641371 307.756535 
L 1199.970469 312.256772 
L 1201.299568 263.287785 
L 1202.628667 320.179509 
L 1203.957766 325.372652 
L 1205.286865 319.159001 
L 1206.615964 313.513336 
L 1207.945063 317.410906 
L 1209.274161 324.326949 
L 1210.60326 287.175838 
L 1211.932359 322.263208 
L 1213.261458 324.081617 
L 1214.590557 314.848641 
L 1215.919656 303.066717 
L 1217.248754 310.751411 
L 1218.577853 319.953478 
L 1219.906952 309.1186 
L 1221.236051 343.333889 
L 1222.56515 337.18161 
L 1223.894249 323.544857 
L 1225.223348 320.184998 
L 1226.552446 323.054055 
L 1227.881545 324.557966 
L 1229.210644 288.686986 
L 1230.539743 326.974821 
L 1231.868842 331.301932 
L 1233.197941 325.297431 
L 1234.527039 325.059168 
L 1237.185237 330.878846 
L 1238.514336 309.439325 
L 1239.843435 331.747647 
L 1241.172534 334.896104 
L 1242.501633 328.645001 
L 1243.830731 327.490407 
L 1245.15983 332.714618 
L 1246.488929 336.124576 
L 1247.818028 326.608429 
L 1249.147127 336.600895 
L 1250.476226 337.589213 
L 1251.805325 334.187376 
L 1253.134423 333.253342 
L 1254.463522 335.387802 
L 1255.792621 353.2755 
L 1257.12172 330.245444 
L 1258.450819 319.305692 
L 1259.779918 319.287326 
L 1261.109016 316.977572 
L 1262.438115 324.429575 
L 1263.767214 273.500105 
L 1265.096313 314.301395 
L 1266.425412 303.949455 
L 1267.754511 323.257015 
L 1269.08361 319.969805 
L 1270.412708 297.300065 
L 1271.741807 304.651397 
L 1273.070906 281.199517 
L 1274.400005 329.345667 
L 1275.729104 304.182769 
L 1277.058203 317.404597 
L 1278.387302 313.070784 
L 1279.7164 293.964753 
L 1281.045499 315.66453 
L 1282.374598 266.717463 
L 1283.703697 292.189603 
L 1285.032796 277.780476 
L 1286.361895 313.19847 
L 1287.690993 342.972761 
L 1289.020092 284.034432 
L 1290.349191 267.003202 
L 1291.67829 282.763389 
L 1293.007389 306.891383 
L 1294.336488 291.591837 
L 1294.336488 291.591837 
" clip-path="url(#pd481f9ab5f)" style="fill: none; stroke: #ffa500; stroke-width: 1.5; stroke-linecap: square"/>
   </g>
   <g id="line2d_20">
    <path d="M 1294.336488 291.591837 
L 1295.665587 236.795118 
L 1296.994685 311.736172 
L 1298.323784 287.22882 
L 1299.652883 265.367605 
L 1300.981982 278.915344 
L 1302.311081 307.932587 
L 1303.64018 289.679265 
L 1304.969278 242.0984 
L 1306.298377 302.814843 
L 1307.627476 283.076199 
L 1308.956575 264.958893 
L 1310.285674 276.126191 
L 1311.614773 300.249715 
" clip-path="url(#pd481f9ab5f)" style="fill: none; stroke: #ff0000; stroke-width: 1.5; stroke-linecap: square"/>
   </g>
   <g id="patch_3">
    <path d="M 33.2875 368.3955 
L 33.2875 35.7555 
" style="fill: none; stroke: #000000; stroke-width: 0.8; stroke-linejoin: miter; stroke-linecap: square"/>
   </g>
   <g id="patch_4">
    <path d="M 1372.4875 368.3955 
L 1372.4875 35.7555 
" style="fill: none; stroke: #000000; stroke-width: 0.8; stroke-linejoin: miter; stroke-linecap: square"/>
   </g>
   <g id="patch_5">
    <path d="M 33.2875 368.3955 
L 1372.4875 368.3955 
" style="fill: none; stroke: #000000; stroke-width: 0.8; stroke-linejoin: miter; stroke-linecap: square"/>
   </g>
   <g id="patch_6">
    <path d="M 33.2875 35.7555 
L 1372.4875 35.7555 
" style="fill: none; stroke: #000000; stroke-width: 0.8; stroke-linejoin: miter; stroke-linecap: square"/>
   </g>
   <g id="text_18">
    <!-- Daily Confirmed Cases Forecasting - San Marino -->
    <g transform="translate(558.730938 16.318125)scale(0.12 -0.12)">
     <defs>
      <path id="DejaVuSans-44" d="M 1259 4147 
L 1259 519 
L 2022 519 
Q 2988 519 3436 956 
Q 3884 1394 3884 2338 
Q 3884 3275 3436 3711 
Q 2988 4147 2022 4147 
L 1259 4147 
z
M 628 4666 
L 1925 4666 
Q 3281 4666 3915 4102 
Q 4550 3538 4550 2338 
Q 4550 1131 3912 565 
Q 3275 0 1925 0 
L 628 0 
L 628 4666 
z
" transform="scale(0.015625)"/>
      <path id="DejaVuSans-61" d="M 2194 1759 
Q 1497 1759 1228 1600 
Q 959 1441 959 1056 
Q 959 750 1161 570 
Q 1363 391 1709 391 
Q 2188 391 2477 730 
Q 2766 1069 2766 1631 
L 2766 1759 
L 2194 1759 
z
M 3341 1997 
L 3341 0 
L 2766 0 
L 2766 531 
Q 2569 213 2275 61 
Q 1981 -91 1556 -91 
Q 1019 -91 701 211 
Q 384 513 384 1019 
Q 384 1609 779 1909 
Q 1175 2209 1959 2209 
L 2766 2209 
L 2766 2266 
Q 2766 2663 2505 2880 
Q 2244 3097 1772 3097 
Q 1472 3097 1187 3025 
Q 903 2953 641 2809 
L 641 3341 
Q 956 3463 1253 3523 
Q 1550 3584 1831 3584 
Q 2591 3584 2966 3190 
Q 3341 2797 3341 1997 
z
" transform="scale(0.015625)"/>
      <path id="DejaVuSans-69" d="M 603 3500 
L 1178 3500 
L 1178 0 
L 603 0 
L 603 3500 
z
M 603 4863 
L 1178 4863 
L 1178 4134 
L 603 4134 
L 603 4863 
z
" transform="scale(0.015625)"/>
      <path id="DejaVuSans-6c" d="M 603 4863 
L 1178 4863 
L 1178 0 
L 603 0 
L 603 4863 
z
" transform="scale(0.015625)"/>
      <path id="DejaVuSans-79" d="M 2059 -325 
Q 1816 -950 1584 -1140 
Q 1353 -1331 966 -1331 
L 506 -1331 
L 506 -850 
L 844 -850 
Q 1081 -850 1212 -737 
Q 1344 -625 1503 -206 
L 1606 56 
L 191 3500 
L 800 3500 
L 1894 763 
L 2988 3500 
L 3597 3500 
L 2059 -325 
z
" transform="scale(0.015625)"/>
      <path id="DejaVuSans-20" transform="scale(0.015625)"/>
      <path id="DejaVuSans-43" d="M 4122 4306 
L 4122 3641 
Q 3803 3938 3442 4084 
Q 3081 4231 2675 4231 
Q 1875 4231 1450 3742 
Q 1025 3253 1025 2328 
Q 1025 1406 1450 917 
Q 1875 428 2675 428 
Q 3081 428 3442 575 
Q 3803 722 4122 1019 
L 4122 359 
Q 3791 134 3420 21 
Q 3050 -91 2638 -91 
Q 1578 -91 968 557 
Q 359 1206 359 2328 
Q 359 3453 968 4101 
Q 1578 4750 2638 4750 
Q 3056 4750 3426 4639 
Q 3797 4528 4122 4306 
z
" transform="scale(0.015625)"/>
      <path id="DejaVuSans-6f" d="M 1959 3097 
Q 1497 3097 1228 2736 
Q 959 2375 959 1747 
Q 959 1119 1226 758 
Q 1494 397 1959 397 
Q 2419 397 2687 759 
Q 2956 1122 2956 1747 
Q 2956 2369 2687 2733 
Q 2419 3097 1959 3097 
z
M 1959 3584 
Q 2709 3584 3137 3096 
Q 3566 2609 3566 1747 
Q 3566 888 3137 398 
Q 2709 -91 1959 -91 
Q 1206 -91 779 398 
Q 353 888 353 1747 
Q 353 2609 779 3096 
Q 1206 3584 1959 3584 
z
" transform="scale(0.015625)"/>
      <path id="DejaVuSans-6e" d="M 3513 2113 
L 3513 0 
L 2938 0 
L 2938 2094 
Q 2938 2591 2744 2837 
Q 2550 3084 2163 3084 
Q 1697 3084 1428 2787 
Q 1159 2491 1159 1978 
L 1159 0 
L 581 0 
L 581 3500 
L 1159 3500 
L 1159 2956 
Q 1366 3272 1645 3428 
Q 1925 3584 2291 3584 
Q 2894 3584 3203 3211 
Q 3513 2838 3513 2113 
z
" transform="scale(0.015625)"/>
      <path id="DejaVuSans-66" d="M 2375 4863 
L 2375 4384 
L 1825 4384 
Q 1516 4384 1395 4259 
Q 1275 4134 1275 3809 
L 1275 3500 
L 2222 3500 
L 2222 3053 
L 1275 3053 
L 1275 0 
L 697 0 
L 697 3053 
L 147 3053 
L 147 3500 
L 697 3500 
L 697 3744 
Q 697 4328 969 4595 
Q 1241 4863 1831 4863 
L 2375 4863 
z
" transform="scale(0.015625)"/>
      <path id="DejaVuSans-72" d="M 2631 2963 
Q 2534 3019 2420 3045 
Q 2306 3072 2169 3072 
Q 1681 3072 1420 2755 
Q 1159 2438 1159 1844 
L 1159 0 
L 581 0 
L 581 3500 
L 1159 3500 
L 1159 2956 
Q 1341 3275 1631 3429 
Q 1922 3584 2338 3584 
Q 2397 3584 2469 3576 
Q 2541 3569 2628 3553 
L 2631 2963 
z
" transform="scale(0.015625)"/>
      <path id="DejaVuSans-6d" d="M 3328 2828 
Q 3544 3216 3844 3400 
Q 4144 3584 4550 3584 
Q 5097 3584 5394 3201 
Q 5691 2819 5691 2113 
L 5691 0 
L 5113 0 
L 5113 2094 
Q 5113 2597 4934 2840 
Q 4756 3084 4391 3084 
Q 3944 3084 3684 2787 
Q 3425 2491 3425 1978 
L 3425 0 
L 2847 0 
L 2847 2094 
Q 2847 2600 2669 2842 
Q 2491 3084 2119 3084 
Q 1678 3084 1418 2786 
Q 1159 2488 1159 1978 
L 1159 0 
L 581 0 
L 581 3500 
L 1159 3500 
L 1159 2956 
Q 1356 3278 1631 3431 
Q 1906 3584 2284 3584 
Q 2666 3584 2933 3390 
Q 3200 3197 3328 2828 
z
" transform="scale(0.015625)"/>
      <path id="DejaVuSans-65" d="M 3597 1894 
L 3597 1613 
L 953 1613 
Q 991 1019 1311 708 
Q 1631 397 2203 397 
Q 2534 397 2845 478 
Q 3156 559 3463 722 
L 3463 178 
Q 3153 47 2828 -22 
Q 2503 -91 2169 -91 
Q 1331 -91 842 396 
Q 353 884 353 1716 
Q 353 2575 817 3079 
Q 1281 3584 2069 3584 
Q 2775 3584 3186 3129 
Q 3597 2675 3597 1894 
z
M 3022 2063 
Q 3016 2534 2758 2815 
Q 2500 3097 2075 3097 
Q 1594 3097 1305 2825 
Q 1016 2553 972 2059 
L 3022 2063 
z
" transform="scale(0.015625)"/>
      <path id="DejaVuSans-64" d="M 2906 2969 
L 2906 4863 
L 3481 4863 
L 3481 0 
L 2906 0 
L 2906 525 
Q 2725 213 2448 61 
Q 2172 -91 1784 -91 
Q 1150 -91 751 415 
Q 353 922 353 1747 
Q 353 2572 751 3078 
Q 1150 3584 1784 3584 
Q 2172 3584 2448 3432 
Q 2725 3281 2906 2969 
z
M 947 1747 
Q 947 1113 1208 752 
Q 1469 391 1925 391 
Q 2381 391 2643 752 
Q 2906 1113 2906 1747 
Q 2906 2381 2643 2742 
Q 2381 3103 1925 3103 
Q 1469 3103 1208 2742 
Q 947 2381 947 1747 
z
" transform="scale(0.015625)"/>
      <path id="DejaVuSans-73" d="M 2834 3397 
L 2834 2853 
Q 2591 2978 2328 3040 
Q 2066 3103 1784 3103 
Q 1356 3103 1142 2972 
Q 928 2841 928 2578 
Q 928 2378 1081 2264 
Q 1234 2150 1697 2047 
L 1894 2003 
Q 2506 1872 2764 1633 
Q 3022 1394 3022 966 
Q 3022 478 2636 193 
Q 2250 -91 1575 -91 
Q 1294 -91 989 -36 
Q 684 19 347 128 
L 347 722 
Q 666 556 975 473 
Q 1284 391 1588 391 
Q 1994 391 2212 530 
Q 2431 669 2431 922 
Q 2431 1156 2273 1281 
Q 2116 1406 1581 1522 
L 1381 1569 
Q 847 1681 609 1914 
Q 372 2147 372 2553 
Q 372 3047 722 3315 
Q 1072 3584 1716 3584 
Q 2034 3584 2315 3537 
Q 2597 3491 2834 3397 
z
" transform="scale(0.015625)"/>
      <path id="DejaVuSans-46" d="M 628 4666 
L 3309 4666 
L 3309 4134 
L 1259 4134 
L 1259 2759 
L 3109 2759 
L 3109 2228 
L 1259 2228 
L 1259 0 
L 628 0 
L 628 4666 
z
" transform="scale(0.015625)"/>
      <path id="DejaVuSans-63" d="M 3122 3366 
L 3122 2828 
Q 2878 2963 2633 3030 
Q 2388 3097 2138 3097 
Q 1578 3097 1268 2742 
Q 959 2388 959 1747 
Q 959 1106 1268 751 
Q 1578 397 2138 397 
Q 2388 397 2633 464 
Q 2878 531 3122 666 
L 3122 134 
Q 2881 22 2623 -34 
Q 2366 -91 2075 -91 
Q 1284 -91 818 406 
Q 353 903 353 1747 
Q 353 2603 823 3093 
Q 1294 3584 2113 3584 
Q 2378 3584 2631 3529 
Q 2884 3475 3122 3366 
z
" transform="scale(0.015625)"/>
      <path id="DejaVuSans-74" d="M 1172 4494 
L 1172 3500 
L 2356 3500 
L 2356 3053 
L 1172 3053 
L 1172 1153 
Q 1172 725 1289 603 
Q 1406 481 1766 481 
L 2356 481 
L 2356 0 
L 1766 0 
Q 1100 0 847 248 
Q 594 497 594 1153 
L 594 3053 
L 172 3053 
L 172 3500 
L 594 3500 
L 594 4494 
L 1172 4494 
z
" transform="scale(0.015625)"/>
      <path id="DejaVuSans-67" d="M 2906 1791 
Q 2906 2416 2648 2759 
Q 2391 3103 1925 3103 
Q 1463 3103 1205 2759 
Q 947 2416 947 1791 
Q 947 1169 1205 825 
Q 1463 481 1925 481 
Q 2391 481 2648 825 
Q 2906 1169 2906 1791 
z
M 3481 434 
Q 3481 -459 3084 -895 
Q 2688 -1331 1869 -1331 
Q 1566 -1331 1297 -1286 
Q 1028 -1241 775 -1147 
L 775 -588 
Q 1028 -725 1275 -790 
Q 1522 -856 1778 -856 
Q 2344 -856 2625 -561 
Q 2906 -266 2906 331 
L 2906 616 
Q 2728 306 2450 153 
Q 2172 0 1784 0 
Q 1141 0 747 490 
Q 353 981 353 1791 
Q 353 2603 747 3093 
Q 1141 3584 1784 3584 
Q 2172 3584 2450 3431 
Q 2728 3278 2906 2969 
L 2906 3500 
L 3481 3500 
L 3481 434 
z
" transform="scale(0.015625)"/>
      <path id="DejaVuSans-53" d="M 3425 4513 
L 3425 3897 
Q 3066 4069 2747 4153 
Q 2428 4238 2131 4238 
Q 1616 4238 1336 4038 
Q 1056 3838 1056 3469 
Q 1056 3159 1242 3001 
Q 1428 2844 1947 2747 
L 2328 2669 
Q 3034 2534 3370 2195 
Q 3706 1856 3706 1288 
Q 3706 609 3251 259 
Q 2797 -91 1919 -91 
Q 1588 -91 1214 -16 
Q 841 59 441 206 
L 441 856 
Q 825 641 1194 531 
Q 1563 422 1919 422 
Q 2459 422 2753 634 
Q 3047 847 3047 1241 
Q 3047 1584 2836 1778 
Q 2625 1972 2144 2069 
L 1759 2144 
Q 1053 2284 737 2584 
Q 422 2884 422 3419 
Q 422 4038 858 4394 
Q 1294 4750 2059 4750 
Q 2388 4750 2728 4690 
Q 3069 4631 3425 4513 
z
" transform="scale(0.015625)"/>
      <path id="DejaVuSans-4d" d="M 628 4666 
L 1569 4666 
L 2759 1491 
L 3956 4666 
L 4897 4666 
L 4897 0 
L 4281 0 
L 4281 4097 
L 3078 897 
L 2444 897 
L 1241 4097 
L 1241 0 
L 628 0 
L 628 4666 
z
" transform="scale(0.015625)"/>
     </defs>
     <use xlink:href="#DejaVuSans-44"/>
     <use xlink:href="#DejaVuSans-61" x="77.001953"/>
     <use xlink:href="#DejaVuSans-69" x="138.28125"/>
     <use xlink:href="#DejaVuSans-6c" x="166.064453"/>
     <use xlink:href="#DejaVuSans-79" x="193.847656"/>
     <use xlink:href="#DejaVuSans-20" x="253.027344"/>
     <use xlink:href="#DejaVuSans-43" x="284.814453"/>
     <use xlink:href="#DejaVuSans-6f" x="354.638672"/>
     <use xlink:href="#DejaVuSans-6e" x="415.820312"/>
     <use xlink:href="#DejaVuSans-66" x="479.199219"/>
     <use xlink:href="#DejaVuSans-69" x="514.404297"/>
     <use xlink:href="#DejaVuSans-72" x="542.1875"/>
     <use xlink:href="#DejaVuSans-6d" x="581.550781"/>
     <use xlink:href="#DejaVuSans-65" x="678.962891"/>
     <use xlink:href="#DejaVuSans-64" x="740.486328"/>
     <use xlink:href="#DejaVuSans-20" x="803.962891"/>
     <use xlink:href="#DejaVuSans-43" x="835.75"/>
     <use xlink:href="#DejaVuSans-61" x="905.574219"/>
     <use xlink:href="#DejaVuSans-73" x="966.853516"/>
     <use xlink:href="#DejaVuSans-65" x="1018.953125"/>
     <use xlink:href="#DejaVuSans-73" x="1080.476562"/>
     <use xlink:href="#DejaVuSans-20" x="1132.576172"/>
     <use xlink:href="#DejaVuSans-46" x="1164.363281"/>
     <use xlink:href="#DejaVuSans-6f" x="1218.257812"/>
     <use xlink:href="#DejaVuSans-72" x="1279.439453"/>
     <use xlink:href="#DejaVuSans-65" x="1318.302734"/>
     <use xlink:href="#DejaVuSans-63" x="1379.826172"/>
     <use xlink:href="#DejaVuSans-61" x="1434.806641"/>
     <use xlink:href="#DejaVuSans-73" x="1496.085938"/>
     <use xlink:href="#DejaVuSans-74" x="1548.185547"/>
     <use xlink:href="#DejaVuSans-69" x="1587.394531"/>
     <use xlink:href="#DejaVuSans-6e" x="1615.177734"/>
     <use xlink:href="#DejaVuSans-67" x="1678.556641"/>
     <use xlink:href="#DejaVuSans-20" x="1742.033203"/>
     <use xlink:href="#DejaVuSans-2d" x="1773.820312"/>
     <use xlink:href="#DejaVuSans-20" x="1809.904297"/>
     <use xlink:href="#DejaVuSans-53" x="1841.691406"/>
     <use xlink:href="#DejaVuSans-61" x="1905.167969"/>
     <use xlink:href="#DejaVuSans-6e" x="1966.447266"/>
     <use xlink:href="#DejaVuSans-20" x="2029.826172"/>
     <use xlink:href="#DejaVuSans-4d" x="2061.613281"/>
     <use xlink:href="#DejaVuSans-61" x="2147.892578"/>
     <use xlink:href="#DejaVuSans-72" x="2209.171875"/>
     <use xlink:href="#DejaVuSans-69" x="2250.285156"/>
     <use xlink:href="#DejaVuSans-6e" x="2278.068359"/>
     <use xlink:href="#DejaVuSans-6f" x="2341.447266"/>
    </g>
    <!-- ARIMA (2, 1, 1)x(1, 0, 1, 7) (R2 = -0.394434) -->
    <g transform="translate(568.73875 29.7555)scale(0.12 -0.12)">
     <defs>
      <path id="DejaVuSans-41" d="M 2188 4044 
L 1331 1722 
L 3047 1722 
L 2188 4044 
z
M 1831 4666 
L 2547 4666 
L 4325 0 
L 3669 0 
L 3244 1197 
L 1141 1197 
L 716 0 
L 50 0 
L 1831 4666 
z
" transform="scale(0.015625)"/>
      <path id="DejaVuSans-52" d="M 2841 2188 
Q 3044 2119 3236 1894 
Q 3428 1669 3622 1275 
L 4263 0 
L 3584 0 
L 2988 1197 
Q 2756 1666 2539 1819 
Q 2322 1972 1947 1972 
L 1259 1972 
L 1259 0 
L 628 0 
L 628 4666 
L 2053 4666 
Q 2853 4666 3247 4331 
Q 3641 3997 3641 3322 
Q 3641 2881 3436 2590 
Q 3231 2300 2841 2188 
z
M 1259 4147 
L 1259 2491 
L 2053 2491 
Q 2509 2491 2742 2702 
Q 2975 2913 2975 3322 
Q 2975 3731 2742 3939 
Q 2509 4147 2053 4147 
L 1259 4147 
z
" transform="scale(0.015625)"/>
      <path id="DejaVuSans-49" d="M 628 4666 
L 1259 4666 
L 1259 0 
L 628 0 
L 628 4666 
z
" transform="scale(0.015625)"/>
      <path id="DejaVuSans-28" d="M 1984 4856 
Q 1566 4138 1362 3434 
Q 1159 2731 1159 2009 
Q 1159 1288 1364 580 
Q 1569 -128 1984 -844 
L 1484 -844 
Q 1016 -109 783 600 
Q 550 1309 550 2009 
Q 550 2706 781 3412 
Q 1013 4119 1484 4856 
L 1984 4856 
z
" transform="scale(0.015625)"/>
      <path id="DejaVuSans-2c" d="M 750 794 
L 1409 794 
L 1409 256 
L 897 -744 
L 494 -744 
L 750 256 
L 750 794 
z
" transform="scale(0.015625)"/>
      <path id="DejaVuSans-29" d="M 513 4856 
L 1013 4856 
Q 1481 4119 1714 3412 
Q 1947 2706 1947 2009 
Q 1947 1309 1714 600 
Q 1481 -109 1013 -844 
L 513 -844 
Q 928 -128 1133 580 
Q 1338 1288 1338 2009 
Q 1338 2731 1133 3434 
Q 928 4138 513 4856 
z
" transform="scale(0.015625)"/>
      <path id="DejaVuSans-78" d="M 3513 3500 
L 2247 1797 
L 3578 0 
L 2900 0 
L 1881 1375 
L 863 0 
L 184 0 
L 1544 1831 
L 300 3500 
L 978 3500 
L 1906 2253 
L 2834 3500 
L 3513 3500 
z
" transform="scale(0.015625)"/>
      <path id="DejaVuSans-3d" d="M 678 2906 
L 4684 2906 
L 4684 2381 
L 678 2381 
L 678 2906 
z
M 678 1631 
L 4684 1631 
L 4684 1100 
L 678 1100 
L 678 1631 
z
" transform="scale(0.015625)"/>
      <path id="DejaVuSans-2e" d="M 684 794 
L 1344 794 
L 1344 0 
L 684 0 
L 684 794 
z
" transform="scale(0.015625)"/>
      <path id="DejaVuSans-39" d="M 703 97 
L 703 672 
Q 941 559 1184 500 
Q 1428 441 1663 441 
Q 2288 441 2617 861 
Q 2947 1281 2994 2138 
Q 2813 1869 2534 1725 
Q 2256 1581 1919 1581 
Q 1219 1581 811 2004 
Q 403 2428 403 3163 
Q 403 3881 828 4315 
Q 1253 4750 1959 4750 
Q 2769 4750 3195 4129 
Q 3622 3509 3622 2328 
Q 3622 1225 3098 567 
Q 2575 -91 1691 -91 
Q 1453 -91 1209 -44 
Q 966 3 703 97 
z
M 1959 2075 
Q 2384 2075 2632 2365 
Q 2881 2656 2881 3163 
Q 2881 3666 2632 3958 
Q 2384 4250 1959 4250 
Q 1534 4250 1286 3958 
Q 1038 3666 1038 3163 
Q 1038 2656 1286 2365 
Q 1534 2075 1959 2075 
z
" transform="scale(0.015625)"/>
     </defs>
     <use xlink:href="#DejaVuSans-41"/>
     <use xlink:href="#DejaVuSans-52" x="68.408203"/>
     <use xlink:href="#DejaVuSans-49" x="137.890625"/>
     <use xlink:href="#DejaVuSans-4d" x="167.382812"/>
     <use xlink:href="#DejaVuSans-41" x="253.662109"/>
     <use xlink:href="#DejaVuSans-20" x="322.070312"/>
     <use xlink:href="#DejaVuSans-28" x="353.857422"/>
     <use xlink:href="#DejaVuSans-32" x="392.871094"/>
     <use xlink:href="#DejaVuSans-2c" x="456.494141"/>
     <use xlink:href="#DejaVuSans-20" x="488.28125"/>
     <use xlink:href="#DejaVuSans-31" x="520.068359"/>
     <use xlink:href="#DejaVuSans-2c" x="583.691406"/>
     <use xlink:href="#DejaVuSans-20" x="615.478516"/>
     <use xlink:href="#DejaVuSans-31" x="647.265625"/>
     <use xlink:href="#DejaVuSans-29" x="710.888672"/>
     <use xlink:href="#DejaVuSans-78" x="749.902344"/>
     <use xlink:href="#DejaVuSans-28" x="809.082031"/>
     <use xlink:href="#DejaVuSans-31" x="848.095703"/>
     <use xlink:href="#DejaVuSans-2c" x="911.71875"/>
     <use xlink:href="#DejaVuSans-20" x="943.505859"/>
     <use xlink:href="#DejaVuSans-30" x="975.292969"/>
     <use xlink:href="#DejaVuSans-2c" x="1038.916016"/>
     <use xlink:href="#DejaVuSans-20" x="1070.703125"/>
     <use xlink:href="#DejaVuSans-31" x="1102.490234"/>
     <use xlink:href="#DejaVuSans-2c" x="1166.113281"/>
     <use xlink:href="#DejaVuSans-20" x="1197.900391"/>
     <use xlink:href="#DejaVuSans-37" x="1229.6875"/>
     <use xlink:href="#DejaVuSans-29" x="1293.310547"/>
     <use xlink:href="#DejaVuSans-20" x="1332.324219"/>
     <use xlink:href="#DejaVuSans-28" x="1364.111328"/>
     <use xlink:href="#DejaVuSans-52" x="1403.125"/>
     <use xlink:href="#DejaVuSans-32" x="1472.607422"/>
     <use xlink:href="#DejaVuSans-20" x="1536.230469"/>
     <use xlink:href="#DejaVuSans-3d" x="1568.017578"/>
     <use xlink:href="#DejaVuSans-20" x="1651.806641"/>
     <use xlink:href="#DejaVuSans-2d" x="1683.59375"/>
     <use xlink:href="#DejaVuSans-30" x="1719.677734"/>
     <use xlink:href="#DejaVuSans-2e" x="1783.300781"/>
     <use xlink:href="#DejaVuSans-33" x="1815.087891"/>
     <use xlink:href="#DejaVuSans-39" x="1878.710938"/>
     <use xlink:href="#DejaVuSans-34" x="1942.333984"/>
     <use xlink:href="#DejaVuSans-34" x="2005.957031"/>
     <use xlink:href="#DejaVuSans-33" x="2069.580078"/>
     <use xlink:href="#DejaVuSans-34" x="2133.203125"/>
     <use xlink:href="#DejaVuSans-29" x="2196.826172"/>
    </g>
   </g>
   <g id="legend_1">
    <g id="patch_7">
     <path d="M 1268.407813 87.789875 
L 1365.4875 87.789875 
Q 1367.4875 87.789875 1367.4875 85.789875 
L 1367.4875 42.7555 
Q 1367.4875 40.7555 1365.4875 40.7555 
L 1268.407813 40.7555 
Q 1266.407813 40.7555 1266.407813 42.7555 
L 1266.407813 85.789875 
Q 1266.407813 87.789875 1268.407813 87.789875 
z
" style="fill: #ffffff; opacity: 0.8; stroke: #cccccc; stroke-linejoin: miter"/>
    </g>
    <g id="line2d_21">
     <path d="M 1270.407813 48.853937 
L 1280.407813 48.853937 
L 1290.407813 48.853937 
" style="fill: none; stroke: #0000ff; stroke-width: 1.5; stroke-linecap: square"/>
    </g>
    <g id="text_19">
     <!-- Actual Value -->
     <g transform="translate(1298.407813 52.353937)scale(0.1 -0.1)">
      <defs>
       <path id="DejaVuSans-75" d="M 544 1381 
L 544 3500 
L 1119 3500 
L 1119 1403 
Q 1119 906 1312 657 
Q 1506 409 1894 409 
Q 2359 409 2629 706 
Q 2900 1003 2900 1516 
L 2900 3500 
L 3475 3500 
L 3475 0 
L 2900 0 
L 2900 538 
Q 2691 219 2414 64 
Q 2138 -91 1772 -91 
Q 1169 -91 856 284 
Q 544 659 544 1381 
z
M 1991 3584 
L 1991 3584 
z
" transform="scale(0.015625)"/>
       <path id="DejaVuSans-56" d="M 1831 0 
L 50 4666 
L 709 4666 
L 2188 738 
L 3669 4666 
L 4325 4666 
L 2547 0 
L 1831 0 
z
" transform="scale(0.015625)"/>
      </defs>
      <use xlink:href="#DejaVuSans-41"/>
      <use xlink:href="#DejaVuSans-63" x="66.658203"/>
      <use xlink:href="#DejaVuSans-74" x="121.638672"/>
      <use xlink:href="#DejaVuSans-75" x="160.847656"/>
      <use xlink:href="#DejaVuSans-61" x="224.226562"/>
      <use xlink:href="#DejaVuSans-6c" x="285.505859"/>
      <use xlink:href="#DejaVuSans-20" x="313.289062"/>
      <use xlink:href="#DejaVuSans-56" x="345.076172"/>
      <use xlink:href="#DejaVuSans-61" x="405.734375"/>
      <use xlink:href="#DejaVuSans-6c" x="467.013672"/>
      <use xlink:href="#DejaVuSans-75" x="494.796875"/>
      <use xlink:href="#DejaVuSans-65" x="558.175781"/>
     </g>
    </g>
    <g id="line2d_22">
     <path d="M 1270.407813 63.532062 
L 1280.407813 63.532062 
L 1290.407813 63.532062 
" style="fill: none; stroke: #ffa500; stroke-width: 1.5; stroke-linecap: square"/>
    </g>
    <g id="text_20">
     <!-- Check Value -->
     <g transform="translate(1298.407813 67.032062)scale(0.1 -0.1)">
      <defs>
       <path id="DejaVuSans-68" d="M 3513 2113 
L 3513 0 
L 2938 0 
L 2938 2094 
Q 2938 2591 2744 2837 
Q 2550 3084 2163 3084 
Q 1697 3084 1428 2787 
Q 1159 2491 1159 1978 
L 1159 0 
L 581 0 
L 581 4863 
L 1159 4863 
L 1159 2956 
Q 1366 3272 1645 3428 
Q 1925 3584 2291 3584 
Q 2894 3584 3203 3211 
Q 3513 2838 3513 2113 
z
" transform="scale(0.015625)"/>
       <path id="DejaVuSans-6b" d="M 581 4863 
L 1159 4863 
L 1159 1991 
L 2875 3500 
L 3609 3500 
L 1753 1863 
L 3688 0 
L 2938 0 
L 1159 1709 
L 1159 0 
L 581 0 
L 581 4863 
z
" transform="scale(0.015625)"/>
      </defs>
      <use xlink:href="#DejaVuSans-43"/>
      <use xlink:href="#DejaVuSans-68" x="69.824219"/>
      <use xlink:href="#DejaVuSans-65" x="133.203125"/>
      <use xlink:href="#DejaVuSans-63" x="194.726562"/>
      <use xlink:href="#DejaVuSans-6b" x="249.707031"/>
      <use xlink:href="#DejaVuSans-20" x="307.617188"/>
      <use xlink:href="#DejaVuSans-56" x="339.404297"/>
      <use xlink:href="#DejaVuSans-61" x="400.0625"/>
      <use xlink:href="#DejaVuSans-6c" x="461.341797"/>
      <use xlink:href="#DejaVuSans-75" x="489.125"/>
      <use xlink:href="#DejaVuSans-65" x="552.503906"/>
     </g>
    </g>
    <g id="line2d_23">
     <path d="M 1270.407813 78.210187 
L 1280.407813 78.210187 
L 1290.407813 78.210187 
" style="fill: none; stroke: #ff0000; stroke-width: 1.5; stroke-linecap: square"/>
    </g>
    <g id="text_21">
     <!-- Predict Value -->
     <g transform="translate(1298.407813 81.710187)scale(0.1 -0.1)">
      <defs>
       <path id="DejaVuSans-50" d="M 1259 4147 
L 1259 2394 
L 2053 2394 
Q 2494 2394 2734 2622 
Q 2975 2850 2975 3272 
Q 2975 3691 2734 3919 
Q 2494 4147 2053 4147 
L 1259 4147 
z
M 628 4666 
L 2053 4666 
Q 2838 4666 3239 4311 
Q 3641 3956 3641 3272 
Q 3641 2581 3239 2228 
Q 2838 1875 2053 1875 
L 1259 1875 
L 1259 0 
L 628 0 
L 628 4666 
z
" transform="scale(0.015625)"/>
      </defs>
      <use xlink:href="#DejaVuSans-50"/>
      <use xlink:href="#DejaVuSans-72" x="58.552734"/>
      <use xlink:href="#DejaVuSans-65" x="97.416016"/>
      <use xlink:href="#DejaVuSans-64" x="158.939453"/>
      <use xlink:href="#DejaVuSans-69" x="222.416016"/>
      <use xlink:href="#DejaVuSans-63" x="250.199219"/>
      <use xlink:href="#DejaVuSans-74" x="305.179688"/>
      <use xlink:href="#DejaVuSans-20" x="344.388672"/>
      <use xlink:href="#DejaVuSans-56" x="376.175781"/>
      <use xlink:href="#DejaVuSans-61" x="436.833984"/>
      <use xlink:href="#DejaVuSans-6c" x="498.113281"/>
      <use xlink:href="#DejaVuSans-75" x="525.896484"/>
      <use xlink:href="#DejaVuSans-65" x="589.275391"/>
     </g>
    </g>
   </g>
  </g>
 </g>
 <defs>
  <clipPath id="pd481f9ab5f">
   <rect x="33.2875" y="35.7555" width="1339.2" height="332.64"/>
  </clipPath>
 </defs>
</svg>
