<?xml version="1.0" encoding="utf-8" standalone="no"?>
<!DOCTYPE svg PUBLIC "-//W3C//DTD SVG 1.1//EN"
  "http://www.w3.org/Graphics/SVG/1.1/DTD/svg11.dtd">
<svg xmlns:xlink="http://www.w3.org/1999/xlink" width="1379.6875pt" height="392.273625pt" viewBox="0 0 1379.6875 392.273625" xmlns="http://www.w3.org/2000/svg" version="1.1">
 <metadata>
  <rdf:RDF xmlns:dc="http://purl.org/dc/elements/1.1/" xmlns:cc="http://creativecommons.org/ns#" xmlns:rdf="http://www.w3.org/1999/02/22-rdf-syntax-ns#">
   <cc:Work>
    <dc:type rdf:resource="http://purl.org/dc/dcmitype/StillImage"/>
    <dc:date>2022-07-09T19:27:54.895608</dc:date>
    <dc:format>image/svg+xml</dc:format>
    <dc:creator>
     <cc:Agent>
      <dc:title>Matplotlib v3.5.2, https://matplotlib.org/</dc:title>
     </cc:Agent>
    </dc:creator>
   </cc:Work>
  </rdf:RDF>
 </metadata>
 <defs>
  <style type="text/css">*{stroke-linejoin: round; stroke-linecap: butt}</style>
 </defs>
 <g id="figure_1">
  <g id="patch_1">
   <path d="M 0 392.273625 
L 1379.6875 392.273625 
L 1379.6875 0 
L 0 0 
z
" style="fill: #ffffff"/>
  </g>
  <g id="axes_1">
   <g id="patch_2">
    <path d="M 33.2875 368.3955 
L 1372.4875 368.3955 
L 1372.4875 35.7555 
L 33.2875 35.7555 
z
" style="fill: #ffffff"/>
   </g>
   <g id="matplotlib.axis_1">
    <g id="xtick_1">
     <g id="line2d_1">
      <defs>
       <path id="m69d8760eca" d="M 0 0 
L 0 3.5 
" style="stroke: #000000; stroke-width: 0.8"/>
      </defs>
      <g>
       <use xlink:href="#m69d8760eca" x="64.72726" y="368.3955" style="stroke: #000000; stroke-width: 0.8"/>
      </g>
     </g>
     <g id="text_1">
      <!-- 2020-01 -->
      <g transform="translate(43.835854 382.993937)scale(0.1 -0.1)">
       <defs>
        <path id="DejaVuSans-32" d="M 1228 531 
L 3431 531 
L 3431 0 
L 469 0 
L 469 531 
Q 828 903 1448 1529 
Q 2069 2156 2228 2338 
Q 2531 2678 2651 2914 
Q 2772 3150 2772 3378 
Q 2772 3750 2511 3984 
Q 2250 4219 1831 4219 
Q 1534 4219 1204 4116 
Q 875 4013 500 3803 
L 500 4441 
Q 881 4594 1212 4672 
Q 1544 4750 1819 4750 
Q 2544 4750 2975 4387 
Q 3406 4025 3406 3419 
Q 3406 3131 3298 2873 
Q 3191 2616 2906 2266 
Q 2828 2175 2409 1742 
Q 1991 1309 1228 531 
z
" transform="scale(0.015625)"/>
        <path id="DejaVuSans-30" d="M 2034 4250 
Q 1547 4250 1301 3770 
Q 1056 3291 1056 2328 
Q 1056 1369 1301 889 
Q 1547 409 2034 409 
Q 2525 409 2770 889 
Q 3016 1369 3016 2328 
Q 3016 3291 2770 3770 
Q 2525 4250 2034 4250 
z
M 2034 4750 
Q 2819 4750 3233 4129 
Q 3647 3509 3647 2328 
Q 3647 1150 3233 529 
Q 2819 -91 2034 -91 
Q 1250 -91 836 529 
Q 422 1150 422 2328 
Q 422 3509 836 4129 
Q 1250 4750 2034 4750 
z
" transform="scale(0.015625)"/>
        <path id="DejaVuSans-2d" d="M 313 2009 
L 1997 2009 
L 1997 1497 
L 313 1497 
L 313 2009 
z
" transform="scale(0.015625)"/>
        <path id="DejaVuSans-31" d="M 794 531 
L 1825 531 
L 1825 4091 
L 703 3866 
L 703 4441 
L 1819 4666 
L 2450 4666 
L 2450 531 
L 3481 531 
L 3481 0 
L 794 0 
L 794 531 
z
" transform="scale(0.015625)"/>
       </defs>
       <use xlink:href="#DejaVuSans-32"/>
       <use xlink:href="#DejaVuSans-30" x="63.623047"/>
       <use xlink:href="#DejaVuSans-32" x="127.246094"/>
       <use xlink:href="#DejaVuSans-30" x="190.869141"/>
       <use xlink:href="#DejaVuSans-2d" x="254.492188"/>
       <use xlink:href="#DejaVuSans-30" x="290.576172"/>
       <use xlink:href="#DejaVuSans-31" x="354.199219"/>
      </g>
     </g>
    </g>
    <g id="xtick_2">
     <g id="line2d_2">
      <g>
       <use xlink:href="#m69d8760eca" x="186.472715" y="368.3955" style="stroke: #000000; stroke-width: 0.8"/>
      </g>
     </g>
     <g id="text_2">
      <!-- 2020-04 -->
      <g transform="translate(165.581309 382.993937)scale(0.1 -0.1)">
       <defs>
        <path id="DejaVuSans-34" d="M 2419 4116 
L 825 1625 
L 2419 1625 
L 2419 4116 
z
M 2253 4666 
L 3047 4666 
L 3047 1625 
L 3713 1625 
L 3713 1100 
L 3047 1100 
L 3047 0 
L 2419 0 
L 2419 1100 
L 313 1100 
L 313 1709 
L 2253 4666 
z
" transform="scale(0.015625)"/>
       </defs>
       <use xlink:href="#DejaVuSans-32"/>
       <use xlink:href="#DejaVuSans-30" x="63.623047"/>
       <use xlink:href="#DejaVuSans-32" x="127.246094"/>
       <use xlink:href="#DejaVuSans-30" x="190.869141"/>
       <use xlink:href="#DejaVuSans-2d" x="254.492188"/>
       <use xlink:href="#DejaVuSans-30" x="290.576172"/>
       <use xlink:href="#DejaVuSans-34" x="354.199219"/>
      </g>
     </g>
    </g>
    <g id="xtick_3">
     <g id="line2d_3">
      <g>
       <use xlink:href="#m69d8760eca" x="308.218169" y="368.3955" style="stroke: #000000; stroke-width: 0.8"/>
      </g>
     </g>
     <g id="text_3">
      <!-- 2020-07 -->
      <g transform="translate(287.326763 382.993937)scale(0.1 -0.1)">
       <defs>
        <path id="DejaVuSans-37" d="M 525 4666 
L 3525 4666 
L 3525 4397 
L 1831 0 
L 1172 0 
L 2766 4134 
L 525 4134 
L 525 4666 
z
" transform="scale(0.015625)"/>
       </defs>
       <use xlink:href="#DejaVuSans-32"/>
       <use xlink:href="#DejaVuSans-30" x="63.623047"/>
       <use xlink:href="#DejaVuSans-32" x="127.246094"/>
       <use xlink:href="#DejaVuSans-30" x="190.869141"/>
       <use xlink:href="#DejaVuSans-2d" x="254.492188"/>
       <use xlink:href="#DejaVuSans-30" x="290.576172"/>
       <use xlink:href="#DejaVuSans-37" x="354.199219"/>
      </g>
     </g>
    </g>
    <g id="xtick_4">
     <g id="line2d_4">
      <g>
       <use xlink:href="#m69d8760eca" x="431.301486" y="368.3955" style="stroke: #000000; stroke-width: 0.8"/>
      </g>
     </g>
     <g id="text_4">
      <!-- 2020-10 -->
      <g transform="translate(410.41008 382.993937)scale(0.1 -0.1)">
       <use xlink:href="#DejaVuSans-32"/>
       <use xlink:href="#DejaVuSans-30" x="63.623047"/>
       <use xlink:href="#DejaVuSans-32" x="127.246094"/>
       <use xlink:href="#DejaVuSans-30" x="190.869141"/>
       <use xlink:href="#DejaVuSans-2d" x="254.492188"/>
       <use xlink:href="#DejaVuSans-31" x="290.576172"/>
       <use xlink:href="#DejaVuSans-30" x="354.199219"/>
      </g>
     </g>
    </g>
    <g id="xtick_5">
     <g id="line2d_5">
      <g>
       <use xlink:href="#m69d8760eca" x="554.384803" y="368.3955" style="stroke: #000000; stroke-width: 0.8"/>
      </g>
     </g>
     <g id="text_5">
      <!-- 2021-01 -->
      <g transform="translate(533.493396 382.993937)scale(0.1 -0.1)">
       <use xlink:href="#DejaVuSans-32"/>
       <use xlink:href="#DejaVuSans-30" x="63.623047"/>
       <use xlink:href="#DejaVuSans-32" x="127.246094"/>
       <use xlink:href="#DejaVuSans-31" x="190.869141"/>
       <use xlink:href="#DejaVuSans-2d" x="254.492188"/>
       <use xlink:href="#DejaVuSans-30" x="290.576172"/>
       <use xlink:href="#DejaVuSans-31" x="354.199219"/>
      </g>
     </g>
    </g>
    <g id="xtick_6">
     <g id="line2d_6">
      <g>
       <use xlink:href="#m69d8760eca" x="674.792395" y="368.3955" style="stroke: #000000; stroke-width: 0.8"/>
      </g>
     </g>
     <g id="text_6">
      <!-- 2021-04 -->
      <g transform="translate(653.900989 382.993937)scale(0.1 -0.1)">
       <use xlink:href="#DejaVuSans-32"/>
       <use xlink:href="#DejaVuSans-30" x="63.623047"/>
       <use xlink:href="#DejaVuSans-32" x="127.246094"/>
       <use xlink:href="#DejaVuSans-31" x="190.869141"/>
       <use xlink:href="#DejaVuSans-2d" x="254.492188"/>
       <use xlink:href="#DejaVuSans-30" x="290.576172"/>
       <use xlink:href="#DejaVuSans-34" x="354.199219"/>
      </g>
     </g>
    </g>
    <g id="xtick_7">
     <g id="line2d_7">
      <g>
       <use xlink:href="#m69d8760eca" x="796.53785" y="368.3955" style="stroke: #000000; stroke-width: 0.8"/>
      </g>
     </g>
     <g id="text_7">
      <!-- 2021-07 -->
      <g transform="translate(775.646443 382.993937)scale(0.1 -0.1)">
       <use xlink:href="#DejaVuSans-32"/>
       <use xlink:href="#DejaVuSans-30" x="63.623047"/>
       <use xlink:href="#DejaVuSans-32" x="127.246094"/>
       <use xlink:href="#DejaVuSans-31" x="190.869141"/>
       <use xlink:href="#DejaVuSans-2d" x="254.492188"/>
       <use xlink:href="#DejaVuSans-30" x="290.576172"/>
       <use xlink:href="#DejaVuSans-37" x="354.199219"/>
      </g>
     </g>
    </g>
    <g id="xtick_8">
     <g id="line2d_8">
      <g>
       <use xlink:href="#m69d8760eca" x="919.621166" y="368.3955" style="stroke: #000000; stroke-width: 0.8"/>
      </g>
     </g>
     <g id="text_8">
      <!-- 2021-10 -->
      <g transform="translate(898.72976 382.993937)scale(0.1 -0.1)">
       <use xlink:href="#DejaVuSans-32"/>
       <use xlink:href="#DejaVuSans-30" x="63.623047"/>
       <use xlink:href="#DejaVuSans-32" x="127.246094"/>
       <use xlink:href="#DejaVuSans-31" x="190.869141"/>
       <use xlink:href="#DejaVuSans-2d" x="254.492188"/>
       <use xlink:href="#DejaVuSans-31" x="290.576172"/>
       <use xlink:href="#DejaVuSans-30" x="354.199219"/>
      </g>
     </g>
    </g>
    <g id="xtick_9">
     <g id="line2d_9">
      <g>
       <use xlink:href="#m69d8760eca" x="1042.704483" y="368.3955" style="stroke: #000000; stroke-width: 0.8"/>
      </g>
     </g>
     <g id="text_9">
      <!-- 2022-01 -->
      <g transform="translate(1021.813077 382.993937)scale(0.1 -0.1)">
       <use xlink:href="#DejaVuSans-32"/>
       <use xlink:href="#DejaVuSans-30" x="63.623047"/>
       <use xlink:href="#DejaVuSans-32" x="127.246094"/>
       <use xlink:href="#DejaVuSans-32" x="190.869141"/>
       <use xlink:href="#DejaVuSans-2d" x="254.492188"/>
       <use xlink:href="#DejaVuSans-30" x="290.576172"/>
       <use xlink:href="#DejaVuSans-31" x="354.199219"/>
      </g>
     </g>
    </g>
    <g id="xtick_10">
     <g id="line2d_10">
      <g>
       <use xlink:href="#m69d8760eca" x="1163.112075" y="368.3955" style="stroke: #000000; stroke-width: 0.8"/>
      </g>
     </g>
     <g id="text_10">
      <!-- 2022-04 -->
      <g transform="translate(1142.220669 382.993937)scale(0.1 -0.1)">
       <use xlink:href="#DejaVuSans-32"/>
       <use xlink:href="#DejaVuSans-30" x="63.623047"/>
       <use xlink:href="#DejaVuSans-32" x="127.246094"/>
       <use xlink:href="#DejaVuSans-32" x="190.869141"/>
       <use xlink:href="#DejaVuSans-2d" x="254.492188"/>
       <use xlink:href="#DejaVuSans-30" x="290.576172"/>
       <use xlink:href="#DejaVuSans-34" x="354.199219"/>
      </g>
     </g>
    </g>
    <g id="xtick_11">
     <g id="line2d_11">
      <g>
       <use xlink:href="#m69d8760eca" x="1284.85753" y="368.3955" style="stroke: #000000; stroke-width: 0.8"/>
      </g>
     </g>
     <g id="text_11">
      <!-- 2022-07 -->
      <g transform="translate(1263.966124 382.993937)scale(0.1 -0.1)">
       <use xlink:href="#DejaVuSans-32"/>
       <use xlink:href="#DejaVuSans-30" x="63.623047"/>
       <use xlink:href="#DejaVuSans-32" x="127.246094"/>
       <use xlink:href="#DejaVuSans-32" x="190.869141"/>
       <use xlink:href="#DejaVuSans-2d" x="254.492188"/>
       <use xlink:href="#DejaVuSans-30" x="290.576172"/>
       <use xlink:href="#DejaVuSans-37" x="354.199219"/>
      </g>
     </g>
    </g>
   </g>
   <g id="matplotlib.axis_2">
    <g id="ytick_1">
     <g id="line2d_12">
      <defs>
       <path id="mcb4b03f0f6" d="M 0 0 
L -3.5 0 
" style="stroke: #000000; stroke-width: 0.8"/>
      </defs>
      <g>
       <use xlink:href="#mcb4b03f0f6" x="33.2875" y="348.569331" style="stroke: #000000; stroke-width: 0.8"/>
      </g>
     </g>
     <g id="text_12">
      <!-- 0 -->
      <g transform="translate(19.925 352.368549)scale(0.1 -0.1)">
       <use xlink:href="#DejaVuSans-30"/>
      </g>
     </g>
    </g>
    <g id="ytick_2">
     <g id="line2d_13">
      <g>
       <use xlink:href="#mcb4b03f0f6" x="33.2875" y="295.786737" style="stroke: #000000; stroke-width: 0.8"/>
      </g>
     </g>
     <g id="text_13">
      <!-- 50 -->
      <g transform="translate(13.5625 299.585955)scale(0.1 -0.1)">
       <defs>
        <path id="DejaVuSans-35" d="M 691 4666 
L 3169 4666 
L 3169 4134 
L 1269 4134 
L 1269 2991 
Q 1406 3038 1543 3061 
Q 1681 3084 1819 3084 
Q 2600 3084 3056 2656 
Q 3513 2228 3513 1497 
Q 3513 744 3044 326 
Q 2575 -91 1722 -91 
Q 1428 -91 1123 -41 
Q 819 9 494 109 
L 494 744 
Q 775 591 1075 516 
Q 1375 441 1709 441 
Q 2250 441 2565 725 
Q 2881 1009 2881 1497 
Q 2881 1984 2565 2268 
Q 2250 2553 1709 2553 
Q 1456 2553 1204 2497 
Q 953 2441 691 2322 
L 691 4666 
z
" transform="scale(0.015625)"/>
       </defs>
       <use xlink:href="#DejaVuSans-35"/>
       <use xlink:href="#DejaVuSans-30" x="63.623047"/>
      </g>
     </g>
    </g>
    <g id="ytick_3">
     <g id="line2d_14">
      <g>
       <use xlink:href="#mcb4b03f0f6" x="33.2875" y="243.004142" style="stroke: #000000; stroke-width: 0.8"/>
      </g>
     </g>
     <g id="text_14">
      <!-- 100 -->
      <g transform="translate(7.2 246.803361)scale(0.1 -0.1)">
       <use xlink:href="#DejaVuSans-31"/>
       <use xlink:href="#DejaVuSans-30" x="63.623047"/>
       <use xlink:href="#DejaVuSans-30" x="127.246094"/>
      </g>
     </g>
    </g>
    <g id="ytick_4">
     <g id="line2d_15">
      <g>
       <use xlink:href="#mcb4b03f0f6" x="33.2875" y="190.221548" style="stroke: #000000; stroke-width: 0.8"/>
      </g>
     </g>
     <g id="text_15">
      <!-- 150 -->
      <g transform="translate(7.2 194.020767)scale(0.1 -0.1)">
       <use xlink:href="#DejaVuSans-31"/>
       <use xlink:href="#DejaVuSans-35" x="63.623047"/>
       <use xlink:href="#DejaVuSans-30" x="127.246094"/>
      </g>
     </g>
    </g>
    <g id="ytick_5">
     <g id="line2d_16">
      <g>
       <use xlink:href="#mcb4b03f0f6" x="33.2875" y="137.438954" style="stroke: #000000; stroke-width: 0.8"/>
      </g>
     </g>
     <g id="text_16">
      <!-- 200 -->
      <g transform="translate(7.2 141.238173)scale(0.1 -0.1)">
       <use xlink:href="#DejaVuSans-32"/>
       <use xlink:href="#DejaVuSans-30" x="63.623047"/>
       <use xlink:href="#DejaVuSans-30" x="127.246094"/>
      </g>
     </g>
    </g>
    <g id="ytick_6">
     <g id="line2d_17">
      <g>
       <use xlink:href="#mcb4b03f0f6" x="33.2875" y="84.65636" style="stroke: #000000; stroke-width: 0.8"/>
      </g>
     </g>
     <g id="text_17">
      <!-- 250 -->
      <g transform="translate(7.2 88.455579)scale(0.1 -0.1)">
       <use xlink:href="#DejaVuSans-32"/>
       <use xlink:href="#DejaVuSans-35" x="63.623047"/>
       <use xlink:href="#DejaVuSans-30" x="127.246094"/>
      </g>
     </g>
    </g>
   </g>
   <g id="line2d_18">
    <path d="M 94.160227 348.569331 
L 170.418369 348.569331 
L 171.756231 347.513679 
L 173.094093 348.569331 
L 175.769818 348.569331 
L 177.10768 345.402375 
L 178.445542 346.458027 
L 179.783404 348.569331 
L 181.121266 348.569331 
L 182.459128 342.235419 
L 183.796991 348.569331 
L 185.134853 345.402375 
L 186.472715 348.569331 
L 187.810577 341.179767 
L 189.148439 348.569331 
L 190.486301 341.179767 
L 191.824163 348.569331 
L 193.162025 346.458027 
L 194.499888 348.569331 
L 195.83775 346.458027 
L 197.175612 348.569331 
L 198.513474 347.513679 
L 199.851336 348.569331 
L 203.864923 348.569331 
L 205.202785 347.513679 
L 206.540647 348.569331 
L 207.878509 348.569331 
L 209.216371 344.346723 
L 210.554233 348.569331 
L 278.785202 348.569331 
L 280.123064 346.458027 
L 281.460927 348.569331 
L 282.798789 348.569331 
L 284.136651 323.233685 
L 285.474513 315.844122 
L 286.812375 334.845856 
L 288.150237 335.901508 
L 289.488099 338.012812 
L 290.825962 336.95716 
L 292.163824 348.569331 
L 293.501686 347.513679 
L 294.839548 348.569331 
L 297.515272 348.569331 
L 298.853134 347.513679 
L 300.190997 348.569331 
L 301.528859 324.289337 
L 302.866721 323.233685 
L 304.204583 348.569331 
L 305.542445 348.569331 
L 306.880307 335.901508 
L 308.218169 348.569331 
L 309.556031 335.901508 
L 310.893894 348.569331 
L 317.583204 348.569331 
L 318.921066 330.623249 
L 320.258929 348.569331 
L 326.948239 348.569331 
L 328.286101 328.511945 
L 329.623964 348.569331 
L 336.313274 348.569331 
L 337.651136 338.012812 
L 338.988999 348.569331 
L 340.326861 346.458027 
L 341.664723 348.569331 
L 343.002585 346.458027 
L 344.340447 348.569331 
L 345.678309 348.569331 
L 347.016171 333.790204 
L 348.354033 348.569331 
L 351.029758 348.569331 
L 352.36762 345.402375 
L 353.705482 348.569331 
L 356.381206 348.569331 
L 357.719068 345.402375 
L 359.056931 348.569331 
L 371.09769 348.569331 
L 372.435552 328.511945 
L 373.773414 348.569331 
L 375.111276 346.458027 
L 376.449138 348.569331 
L 380.462725 348.569331 
L 381.800587 339.068464 
L 383.138449 348.569331 
L 384.476311 346.458027 
L 385.814173 348.569331 
L 387.152035 347.513679 
L 388.489898 348.569331 
L 389.82776 347.513679 
L 391.165622 348.569331 
L 392.503484 348.569331 
L 393.841346 336.95716 
L 395.179208 348.569331 
L 399.192795 348.569331 
L 400.530657 336.95716 
L 401.868519 348.569331 
L 403.206381 327.456293 
L 404.544243 348.569331 
L 408.55783 348.569331 
L 409.895692 345.402375 
L 411.233554 348.569331 
L 420.598589 348.569331 
L 421.936451 343.291071 
L 423.274313 348.569331 
L 424.612175 342.235419 
L 425.950037 348.569331 
L 429.963624 348.569331 
L 431.301486 342.235419 
L 432.639348 348.569331 
L 433.97721 330.623249 
L 435.315072 348.569331 
L 439.328659 348.569331 
L 440.666521 341.179767 
L 442.004383 348.569331 
L 443.342245 339.068464 
L 444.680107 348.569331 
L 448.693694 348.569331 
L 450.031556 340.124116 
L 451.369418 348.569331 
L 452.70728 316.899774 
L 454.045142 348.569331 
L 458.058729 348.569331 
L 459.396591 343.291071 
L 460.734453 344.346723 
L 462.072315 348.569331 
L 468.761626 348.569331 
L 470.099488 346.458027 
L 471.43735 348.569331 
L 472.775212 348.569331 
L 474.113074 330.623249 
L 475.450937 348.569331 
L 476.788799 348.569331 
L 478.126661 344.346723 
L 479.464523 348.569331 
L 480.802385 341.179767 
L 482.140247 348.569331 
L 486.153834 348.569331 
L 487.491696 346.458027 
L 488.829558 348.569331 
L 491.505282 348.569331 
L 492.843144 322.178034 
L 494.181006 348.569331 
L 495.518869 348.569331 
L 496.856731 339.068464 
L 498.194593 348.569331 
L 499.532455 323.233685 
L 500.870317 348.569331 
L 502.208179 341.179767 
L 503.546041 348.569331 
L 504.883904 348.569331 
L 506.221766 340.124116 
L 507.559628 348.569331 
L 508.89749 336.95716 
L 510.235352 348.569331 
L 514.248939 348.569331 
L 515.586801 330.623249 
L 516.924663 308.454559 
L 518.262525 348.569331 
L 519.600387 348.569331 
L 520.938249 330.623249 
L 522.276111 348.569331 
L 523.613974 348.569331 
L 524.951836 341.179767 
L 526.289698 348.569331 
L 527.62756 290.508477 
L 528.965422 348.569331 
L 532.979008 348.569331 
L 534.316871 316.899774 
L 535.654733 348.569331 
L 536.992595 334.845856 
L 538.330457 348.569331 
L 539.668319 292.619781 
L 541.006181 322.178034 
L 542.344043 301.064996 
L 543.681906 270.451091 
L 545.019768 305.287603 
L 546.35763 348.569331 
L 547.695492 298.953692 
L 549.033354 348.569331 
L 550.371216 157.49634 
L 551.709078 314.78847 
L 553.046941 276.785003 
L 554.384803 348.569331 
L 557.060527 348.569331 
L 558.398389 303.1763 
L 559.736251 348.569331 
L 561.074113 262.005876 
L 562.411976 348.569331 
L 563.749838 231.391972 
L 565.0877 348.569331 
L 567.763424 348.569331 
L 569.101286 306.343255 
L 570.439148 348.569331 
L 571.77701 127.938087 
L 573.114873 272.562395 
L 574.452735 348.569331 
L 578.466321 348.569331 
L 579.804183 313.732819 
L 581.142045 345.402375 
L 582.479908 320.06673 
L 583.81777 348.569331 
L 585.155632 348.569331 
L 587.831356 327.456293 
L 589.169218 227.169364 
L 590.50708 348.569331 
L 591.844943 295.786737 
L 593.182805 348.569331 
L 595.858529 348.569331 
L 597.196391 209.223282 
L 598.534253 304.231952 
L 599.872115 348.569331 
L 601.209978 330.623249 
L 602.54784 348.569331 
L 605.223564 348.569331 
L 606.561426 269.39544 
L 607.899288 330.623249 
L 609.23715 336.95716 
L 610.575012 348.569331 
L 613.250737 348.569331 
L 614.588599 203.945023 
L 615.926461 348.569331 
L 617.264323 284.174566 
L 618.602185 297.89804 
L 619.940047 338.012812 
L 621.27791 348.569331 
L 622.615772 348.569331 
L 623.953634 329.567597 
L 625.291496 274.673699 
L 626.629358 331.678901 
L 627.96722 309.510211 
L 629.305082 326.400641 
L 630.642945 348.569331 
L 631.980807 348.569331 
L 633.318669 328.511945 
L 634.656531 329.567597 
L 635.994393 340.124116 
L 637.332255 326.400641 
L 638.670117 339.068464 
L 640.00798 325.344989 
L 641.345842 348.569331 
L 644.021566 348.569331 
L 645.359428 302.120648 
L 646.69729 326.400641 
L 648.035152 317.955426 
L 649.373014 348.569331 
L 650.710877 348.569331 
L 652.048739 330.623249 
L 653.386601 341.179767 
L 654.724463 331.678901 
L 656.062325 330.623249 
L 657.400187 324.289337 
L 658.738049 348.569331 
L 662.751636 348.569331 
L 664.089498 279.951958 
L 665.42736 339.068464 
L 666.765222 331.678901 
L 668.103084 348.569331 
L 669.440947 348.569331 
L 670.778809 303.1763 
L 672.116671 319.011078 
L 673.454533 342.235419 
L 674.792395 324.289337 
L 676.130257 321.122382 
L 677.468119 348.569331 
L 678.805982 348.569331 
L 680.143844 342.235419 
L 681.481706 324.289337 
L 682.819568 336.95716 
L 684.15743 328.511945 
L 685.495292 291.564129 
L 686.833154 348.569331 
L 688.171016 348.569331 
L 689.508879 328.511945 
L 690.846741 345.402375 
L 692.184603 338.012812 
L 693.522465 341.179767 
L 694.860327 343.291071 
L 696.198189 348.569331 
L 697.536051 348.569331 
L 698.873914 300.009344 
L 700.211776 336.95716 
L 701.549638 331.678901 
L 702.8875 313.732819 
L 704.225362 340.124116 
L 705.563224 348.569331 
L 706.901086 348.569331 
L 708.238949 311.621515 
L 709.576811 348.569331 
L 710.914673 328.511945 
L 712.252535 335.901508 
L 713.590397 348.569331 
L 716.266121 348.569331 
L 717.603984 346.458027 
L 718.941846 340.124116 
L 720.279708 321.122382 
L 721.61757 320.06673 
L 722.955432 340.124116 
L 724.293294 348.569331 
L 725.631156 348.569331 
L 726.969018 335.901508 
L 728.306881 281.00761 
L 729.644743 344.346723 
L 730.982605 348.569331 
L 732.320467 348.569331 
L 733.658329 325.344989 
L 734.996191 348.569331 
L 736.334053 323.233685 
L 737.671916 336.95716 
L 739.009778 340.124116 
L 740.34764 328.511945 
L 743.023364 336.95716 
L 744.361226 348.569331 
L 745.699088 348.569331 
L 747.036951 331.678901 
L 748.374813 306.343255 
L 749.712675 325.344989 
L 751.050537 335.901508 
L 752.388399 307.398907 
L 753.726261 348.569331 
L 755.064123 313.732819 
L 756.401986 324.289337 
L 757.739848 319.011078 
L 759.07771 348.569331 
L 760.415572 50.8755 
L 761.753434 348.569331 
L 763.091296 348.569331 
L 764.429158 272.562395 
L 765.76702 245.115446 
L 767.104883 250.393706 
L 768.442745 268.339788 
L 769.780607 262.005876 
L 771.118469 348.569331 
L 772.456331 348.569331 
L 773.794193 208.16763 
L 775.132055 315.844122 
L 776.469918 247.22675 
L 777.80778 257.783269 
L 779.145642 252.505009 
L 780.483504 294.731085 
L 781.821366 321.122382 
L 783.159228 286.28587 
L 784.49709 256.727617 
L 785.834953 248.282402 
L 787.172815 284.174566 
L 788.510677 289.452825 
L 789.848539 285.230218 
L 791.186401 348.569331 
L 792.524263 238.781535 
L 793.862125 293.675433 
L 795.199988 271.506743 
L 796.53785 328.511945 
L 797.875712 324.289337 
L 799.213574 324.289337 
L 800.551436 333.790204 
L 801.889298 307.398907 
L 803.22716 284.174566 
L 804.565022 310.565863 
L 805.902885 329.567597 
L 807.240747 330.623249 
L 808.578609 329.567597 
L 809.916471 341.179767 
L 811.254333 348.569331 
L 812.592195 303.1763 
L 813.930057 327.456293 
L 815.26792 311.621515 
L 816.605782 327.456293 
L 817.943644 348.569331 
L 819.281506 348.569331 
L 820.619368 306.343255 
L 821.95723 340.124116 
L 823.295092 324.289337 
L 824.632955 341.179767 
L 825.970817 336.95716 
L 827.308679 344.346723 
L 828.646541 348.569331 
L 829.984403 336.95716 
L 831.322265 336.95716 
L 832.660127 325.344989 
L 833.99799 343.291071 
L 835.335852 347.513679 
L 836.673714 346.458027 
L 838.011576 348.569331 
L 839.349438 335.901508 
L 840.6873 343.291071 
L 842.025162 344.346723 
L 843.363024 343.291071 
L 844.700887 345.402375 
L 846.038749 348.569331 
L 847.376611 348.569331 
L 848.714473 334.845856 
L 850.052335 348.569331 
L 851.390197 344.346723 
L 852.728059 344.346723 
L 854.065922 345.402375 
L 855.403784 347.513679 
L 856.741646 348.569331 
L 858.079508 346.458027 
L 859.41737 342.235419 
L 860.755232 346.458027 
L 862.093094 341.179767 
L 863.430957 348.569331 
L 864.768819 346.458027 
L 866.106681 345.402375 
L 867.444543 347.513679 
L 868.782405 340.124116 
L 870.120267 345.402375 
L 871.458129 347.513679 
L 872.795992 345.402375 
L 874.133854 348.569331 
L 876.809578 346.458027 
L 878.14744 348.569331 
L 880.823164 348.569331 
L 882.161026 344.346723 
L 883.498889 347.513679 
L 884.836751 347.513679 
L 886.174613 348.569331 
L 887.512475 345.402375 
L 888.850337 348.569331 
L 890.188199 345.402375 
L 891.526061 347.513679 
L 892.863924 348.569331 
L 894.201786 348.569331 
L 896.87751 344.346723 
L 898.215372 346.458027 
L 899.553234 344.346723 
L 900.891096 346.458027 
L 902.228959 346.458027 
L 903.566821 348.569331 
L 906.242545 342.235419 
L 907.580407 348.569331 
L 908.918269 348.569331 
L 910.256131 343.291071 
L 911.593994 339.068464 
L 912.931856 348.569331 
L 914.269718 348.569331 
L 915.60758 345.402375 
L 916.945442 335.901508 
L 918.283304 334.845856 
L 919.621166 348.569331 
L 920.959028 348.569331 
L 922.296891 347.513679 
L 923.634753 348.569331 
L 926.310477 344.346723 
L 927.648339 343.291071 
L 928.986201 345.402375 
L 930.324063 344.346723 
L 931.661926 348.569331 
L 932.999788 333.790204 
L 934.33765 345.402375 
L 935.675512 342.235419 
L 937.013374 348.569331 
L 939.689098 342.235419 
L 941.026961 347.513679 
L 942.364823 346.458027 
L 945.040547 346.458027 
L 946.378409 340.124116 
L 947.716271 348.569331 
L 949.054133 347.513679 
L 950.391996 345.402375 
L 953.06772 345.402375 
L 954.405582 346.458027 
L 957.081306 338.012812 
L 958.419168 332.734552 
L 959.75703 345.402375 
L 961.094893 343.291071 
L 962.432755 326.400641 
L 963.770617 326.400641 
L 965.108479 317.955426 
L 966.446341 348.569331 
L 967.784203 313.732819 
L 969.122065 343.291071 
L 970.459928 336.95716 
L 971.79779 327.456293 
L 973.135652 323.233685 
L 974.473514 338.012812 
L 975.811376 321.122382 
L 977.149238 335.901508 
L 978.4871 344.346723 
L 979.824963 340.124116 
L 981.162825 334.845856 
L 982.500687 332.734552 
L 983.838549 326.400641 
L 985.176411 326.400641 
L 986.514273 324.289337 
L 987.852135 328.511945 
L 989.189998 334.845856 
L 990.52786 311.621515 
L 993.203584 328.511945 
L 994.541446 331.678901 
L 995.879308 327.456293 
L 997.21717 334.845856 
L 998.555032 324.289337 
L 999.892895 330.623249 
L 1001.230757 311.621515 
L 1002.568619 328.511945 
L 1003.906481 316.899774 
L 1005.244343 331.678901 
L 1006.582205 348.569331 
L 1007.920067 321.122382 
L 1009.25793 317.955426 
L 1010.595792 327.456293 
L 1011.933654 295.786737 
L 1013.271516 313.732819 
L 1014.609378 334.845856 
L 1015.94724 330.623249 
L 1017.285102 338.012812 
L 1018.622965 328.511945 
L 1019.960827 336.95716 
L 1021.298689 320.06673 
L 1022.636551 329.567597 
L 1023.974413 325.344989 
L 1025.312275 338.012812 
L 1026.650137 331.678901 
L 1027.988 319.011078 
L 1029.325862 338.012812 
L 1030.663724 335.901508 
L 1032.001586 323.233685 
L 1033.339448 327.456293 
L 1034.67731 334.845856 
L 1036.015172 331.678901 
L 1037.353034 317.955426 
L 1038.690897 330.623249 
L 1040.028759 312.677167 
L 1041.366621 317.955426 
L 1042.704483 332.734552 
L 1044.042345 324.289337 
L 1045.380207 333.790204 
L 1046.718069 279.951958 
L 1048.055932 313.732819 
L 1049.393794 295.786737 
L 1050.731656 294.731085 
L 1052.069518 305.287603 
L 1053.40738 314.78847 
L 1056.083104 200.778067 
L 1057.420967 249.338054 
L 1058.758829 240.892839 
L 1060.096691 253.560661 
L 1061.434553 315.844122 
L 1062.772415 312.677167 
L 1064.110277 251.449358 
L 1065.448139 260.950224 
L 1066.786001 316.899774 
L 1068.123864 301.064996 
L 1069.461726 314.78847 
L 1070.799588 287.341521 
L 1072.13745 298.953692 
L 1073.475312 311.621515 
L 1074.813174 287.341521 
L 1076.151036 329.567597 
L 1077.488899 319.011078 
L 1078.826761 292.619781 
L 1080.164623 328.511945 
L 1081.502485 330.623249 
L 1082.840347 336.95716 
L 1084.178209 348.569331 
L 1085.516071 302.120648 
L 1086.853934 326.400641 
L 1088.191796 329.567597 
L 1090.86752 342.235419 
L 1092.205382 341.179767 
L 1093.543244 341.179767 
L 1094.881106 347.513679 
L 1096.218969 340.124116 
L 1097.556831 346.458027 
L 1098.894693 346.458027 
L 1100.232555 344.346723 
L 1101.570417 341.179767 
L 1104.246141 347.513679 
L 1105.584003 347.513679 
L 1106.921866 346.458027 
L 1108.259728 344.346723 
L 1109.59759 348.569331 
L 1110.935452 346.458027 
L 1112.273314 348.569331 
L 1113.611176 343.291071 
L 1114.949038 346.458027 
L 1117.624763 346.458027 
L 1118.962625 348.569331 
L 1120.300487 347.513679 
L 1121.638349 345.402375 
L 1122.976211 347.513679 
L 1124.314073 346.458027 
L 1125.651936 347.513679 
L 1126.989798 341.179767 
L 1128.32766 348.569331 
L 1129.665522 347.513679 
L 1131.003384 348.569331 
L 1132.341246 346.458027 
L 1133.679108 347.513679 
L 1136.354833 347.513679 
L 1137.692695 348.569331 
L 1139.030557 347.513679 
L 1140.368419 348.569331 
L 1143.044143 348.569331 
L 1144.382005 347.513679 
L 1145.719868 348.569331 
L 1152.409178 348.569331 
L 1153.74704 347.513679 
L 1155.084903 348.569331 
L 1159.098489 348.569331 
L 1160.436351 345.402375 
L 1161.774213 347.513679 
L 1163.112075 348.569331 
L 1171.139248 348.569331 
L 1172.47711 347.513679 
L 1173.814973 348.569331 
L 1175.152835 346.458027 
L 1177.828559 348.569331 
L 1179.166421 347.513679 
L 1180.504283 348.569331 
L 1189.869318 348.569331 
L 1191.20718 347.513679 
L 1192.545042 348.569331 
L 1205.923664 348.569331 
L 1207.261526 347.513679 
L 1208.599388 348.569331 
L 1209.93725 346.458027 
L 1211.275112 348.569331 
L 1212.612975 348.569331 
L 1213.950837 347.513679 
L 1215.288699 348.569331 
L 1216.626561 348.569331 
L 1217.964423 346.458027 
L 1219.302285 343.291071 
L 1220.640147 348.569331 
L 1223.315872 348.569331 
L 1224.653734 342.235419 
L 1225.991596 348.569331 
L 1227.329458 348.569331 
L 1228.66732 346.458027 
L 1231.343044 348.569331 
L 1232.680907 347.513679 
L 1234.018769 348.569331 
L 1235.356631 347.513679 
L 1236.694493 348.569331 
L 1238.032355 347.513679 
L 1239.370217 348.569331 
L 1240.708079 348.569331 
L 1242.045942 346.458027 
L 1243.383804 348.569331 
L 1244.721666 343.291071 
L 1246.059528 347.513679 
L 1247.39739 346.458027 
L 1248.735252 348.569331 
L 1250.073114 348.569331 
L 1251.410977 347.513679 
L 1252.748839 348.569331 
L 1255.424563 348.569331 
L 1256.762425 347.513679 
L 1258.100287 348.569331 
L 1259.438149 346.458027 
L 1260.776011 348.569331 
L 1262.113874 346.458027 
L 1263.451736 348.569331 
L 1264.789598 346.458027 
L 1266.12746 348.569331 
L 1267.465322 346.458027 
L 1268.803184 348.569331 
L 1270.141046 348.569331 
L 1271.478909 343.291071 
L 1272.816771 346.458027 
L 1274.154633 347.513679 
L 1275.492495 345.402375 
L 1276.830357 348.569331 
L 1278.168219 348.569331 
L 1279.506081 344.346723 
L 1280.843944 344.346723 
L 1282.181806 348.569331 
L 1283.519668 345.402375 
L 1284.85753 346.458027 
L 1286.195392 348.569331 
L 1287.533254 348.569331 
L 1288.871116 344.346723 
L 1290.208979 343.291071 
L 1291.546841 347.513679 
L 1292.884703 348.569331 
L 1294.222565 348.569331 
L 1294.222565 348.569331 
" clip-path="url(#p8c83468573)" style="fill: none; stroke: #0000ff; stroke-width: 1.5; stroke-linecap: square"/>
   </g>
   <g id="line2d_19">
    <path d="M 1054.745242 301.990249 
L 1056.083104 294.3911 
L 1057.420967 278.305279 
L 1058.758829 272.930561 
L 1060.096691 271.305751 
L 1061.434553 275.75238 
L 1062.772415 276.659835 
L 1064.110277 269.31769 
L 1065.448139 272.032356 
L 1066.786001 270.7604 
L 1068.123864 278.708609 
L 1069.461726 290.228353 
L 1070.799588 296.836424 
L 1072.13745 286.732335 
L 1073.475312 280.611832 
L 1074.813174 292.934228 
L 1076.151036 291.530941 
L 1077.488899 299.024893 
L 1078.826761 305.543995 
L 1080.164623 309.297715 
L 1081.502485 305.490705 
L 1082.840347 300.776953 
L 1084.178209 317.581447 
L 1085.516071 317.523444 
L 1086.853934 315.804248 
L 1088.191796 323.919022 
L 1089.529658 329.216293 
L 1092.205382 320.005602 
L 1093.543244 329.678292 
L 1094.881106 330.668126 
L 1096.218969 333.193708 
L 1097.556831 340.620217 
L 1098.894693 345.619193 
L 1100.232555 340.20695 
L 1101.570417 333.913616 
L 1102.908279 341.11053 
L 1104.246141 340.219159 
L 1105.584003 341.842612 
L 1106.921866 348.060024 
L 1108.259728 351.094668 
L 1109.59759 345.086135 
L 1110.935452 339.641862 
L 1112.273314 346.31004 
L 1113.611176 344.976013 
L 1114.949038 345.115377 
L 1116.286901 349.936925 
L 1117.624763 352.64787 
L 1118.962625 347.058013 
L 1120.300487 342.080036 
L 1121.638349 347.385231 
L 1122.976211 346.040236 
L 1124.314073 346.487869 
L 1125.651936 350.641206 
L 1126.989798 352.839565 
L 1128.32766 347.03932 
L 1129.665522 342.476541 
L 1131.003384 347.52868 
L 1132.341246 346.540974 
L 1133.679108 346.868245 
L 1135.016971 350.252835 
L 1136.354833 352.958763 
L 1137.692695 348.317662 
L 1139.030557 344.10028 
L 1140.368419 348.307031 
L 1141.706281 347.464732 
L 1143.044143 347.916612 
L 1144.382005 350.894779 
L 1145.719868 353.2755 
L 1147.05773 349.045593 
L 1148.395592 345.26734 
L 1149.733454 349.024646 
L 1151.071316 348.152643 
L 1152.409178 348.391277 
L 1153.74704 351.033993 
L 1155.084903 353.088407 
L 1156.422765 349.254914 
L 1157.760627 345.834372 
L 1159.098489 349.153876 
L 1160.436351 348.167641 
L 1161.774213 347.888505 
L 1163.112075 350.326805 
L 1164.449938 352.357897 
L 1165.7878 348.976171 
L 1167.125662 345.955907 
L 1168.463524 348.752147 
L 1169.801386 348.196632 
L 1171.139248 348.416703 
L 1172.47711 350.576006 
L 1173.814973 352.190818 
L 1176.490697 345.99211 
L 1177.828559 348.408144 
L 1179.166421 347.909281 
L 1180.504283 347.972165 
L 1181.842145 350.092142 
L 1183.180007 351.567691 
L 1184.51787 348.923662 
L 1185.855732 346.581966 
L 1187.193594 348.738235 
L 1188.531456 348.349355 
L 1189.869318 348.460153 
L 1191.20718 350.221812 
L 1192.545042 351.36535 
L 1193.882905 348.982862 
L 1195.220767 346.873997 
L 1196.558629 348.786508 
L 1197.896491 348.4276 
L 1199.234353 348.450809 
L 1200.572215 350.139323 
L 1201.910077 351.263402 
L 1203.24794 349.100915 
L 1204.585802 347.18877 
L 1205.923664 348.874175 
L 1207.261526 348.47553 
L 1208.599388 348.366462 
L 1209.93725 349.774185 
L 1211.275112 350.564469 
L 1213.950837 346.995733 
L 1215.288699 348.370015 
L 1217.964423 348.026015 
L 1219.302285 349.02623 
L 1220.640147 349.456386 
L 1221.978009 347.882979 
L 1223.315872 346.607719 
L 1224.653734 347.697693 
L 1225.991596 346.794621 
L 1227.329458 346.775251 
L 1228.66732 348.570453 
L 1230.005182 349.311645 
L 1232.680907 346.223429 
L 1234.018769 347.842027 
L 1235.356631 347.679587 
L 1236.694493 347.285041 
L 1238.032355 348.930634 
L 1239.370217 349.754642 
L 1242.045942 346.867121 
L 1243.383804 348.049131 
L 1244.721666 347.698594 
L 1246.059528 346.732269 
L 1247.39739 348.191246 
L 1248.735252 348.919298 
L 1250.073114 347.661486 
L 1251.410977 346.617648 
L 1252.748839 347.530139 
L 1254.086701 347.805318 
L 1255.424563 347.511438 
L 1256.762425 348.995728 
L 1258.100287 349.626998 
L 1259.438149 348.190309 
L 1260.776011 347.045677 
L 1262.113874 347.823863 
L 1263.451736 347.789777 
L 1264.789598 347.360154 
L 1266.12746 348.594754 
L 1267.465322 349.088845 
L 1268.803184 347.85283 
L 1270.141046 347.000483 
L 1271.478909 347.659742 
L 1272.816771 347.038112 
L 1274.154633 346.713939 
L 1275.492495 347.755513 
L 1276.830357 348.191569 
L 1278.168219 347.470547 
L 1279.506081 346.221931 
L 1280.843944 346.665668 
L 1283.519668 346.348055 
L 1284.85753 347.338056 
L 1286.195392 347.922793 
L 1287.533254 347.067048 
L 1288.871116 345.985504 
L 1290.208979 346.594605 
L 1291.546841 346.137041 
L 1292.884703 346.140352 
L 1294.222565 347.679905 
L 1294.222565 347.679905 
" clip-path="url(#p8c83468573)" style="fill: none; stroke: #ffa500; stroke-width: 1.5; stroke-linecap: square"/>
   </g>
   <g id="line2d_20">
    <path d="M 1294.222565 347.679905 
L 1295.560427 348.353635 
L 1296.898289 347.144685 
L 1298.236151 346.200684 
L 1299.574013 347.419392 
L 1300.911876 347.266044 
L 1302.249738 347.029195 
L 1303.5876 348.000624 
L 1304.925462 348.430631 
L 1306.263324 347.299835 
L 1307.601186 346.394234 
L 1308.939048 347.559893 
L 1310.276911 347.413223 
L 1311.614773 347.186756 
" clip-path="url(#p8c83468573)" style="fill: none; stroke: #ff0000; stroke-width: 1.5; stroke-linecap: square"/>
   </g>
   <g id="patch_3">
    <path d="M 33.2875 368.3955 
L 33.2875 35.7555 
" style="fill: none; stroke: #000000; stroke-width: 0.8; stroke-linejoin: miter; stroke-linecap: square"/>
   </g>
   <g id="patch_4">
    <path d="M 1372.4875 368.3955 
L 1372.4875 35.7555 
" style="fill: none; stroke: #000000; stroke-width: 0.8; stroke-linejoin: miter; stroke-linecap: square"/>
   </g>
   <g id="patch_5">
    <path d="M 33.2875 368.3955 
L 1372.4875 368.3955 
" style="fill: none; stroke: #000000; stroke-width: 0.8; stroke-linejoin: miter; stroke-linecap: square"/>
   </g>
   <g id="patch_6">
    <path d="M 33.2875 35.7555 
L 1372.4875 35.7555 
" style="fill: none; stroke: #000000; stroke-width: 0.8; stroke-linejoin: miter; stroke-linecap: square"/>
   </g>
   <g id="text_18">
    <!-- Daily Confirmed Cases Forecasting - Eritrea -->
    <g transform="translate(572.41 16.318125)scale(0.12 -0.12)">
     <defs>
      <path id="DejaVuSans-44" d="M 1259 4147 
L 1259 519 
L 2022 519 
Q 2988 519 3436 956 
Q 3884 1394 3884 2338 
Q 3884 3275 3436 3711 
Q 2988 4147 2022 4147 
L 1259 4147 
z
M 628 4666 
L 1925 4666 
Q 3281 4666 3915 4102 
Q 4550 3538 4550 2338 
Q 4550 1131 3912 565 
Q 3275 0 1925 0 
L 628 0 
L 628 4666 
z
" transform="scale(0.015625)"/>
      <path id="DejaVuSans-61" d="M 2194 1759 
Q 1497 1759 1228 1600 
Q 959 1441 959 1056 
Q 959 750 1161 570 
Q 1363 391 1709 391 
Q 2188 391 2477 730 
Q 2766 1069 2766 1631 
L 2766 1759 
L 2194 1759 
z
M 3341 1997 
L 3341 0 
L 2766 0 
L 2766 531 
Q 2569 213 2275 61 
Q 1981 -91 1556 -91 
Q 1019 -91 701 211 
Q 384 513 384 1019 
Q 384 1609 779 1909 
Q 1175 2209 1959 2209 
L 2766 2209 
L 2766 2266 
Q 2766 2663 2505 2880 
Q 2244 3097 1772 3097 
Q 1472 3097 1187 3025 
Q 903 2953 641 2809 
L 641 3341 
Q 956 3463 1253 3523 
Q 1550 3584 1831 3584 
Q 2591 3584 2966 3190 
Q 3341 2797 3341 1997 
z
" transform="scale(0.015625)"/>
      <path id="DejaVuSans-69" d="M 603 3500 
L 1178 3500 
L 1178 0 
L 603 0 
L 603 3500 
z
M 603 4863 
L 1178 4863 
L 1178 4134 
L 603 4134 
L 603 4863 
z
" transform="scale(0.015625)"/>
      <path id="DejaVuSans-6c" d="M 603 4863 
L 1178 4863 
L 1178 0 
L 603 0 
L 603 4863 
z
" transform="scale(0.015625)"/>
      <path id="DejaVuSans-79" d="M 2059 -325 
Q 1816 -950 1584 -1140 
Q 1353 -1331 966 -1331 
L 506 -1331 
L 506 -850 
L 844 -850 
Q 1081 -850 1212 -737 
Q 1344 -625 1503 -206 
L 1606 56 
L 191 3500 
L 800 3500 
L 1894 763 
L 2988 3500 
L 3597 3500 
L 2059 -325 
z
" transform="scale(0.015625)"/>
      <path id="DejaVuSans-20" transform="scale(0.015625)"/>
      <path id="DejaVuSans-43" d="M 4122 4306 
L 4122 3641 
Q 3803 3938 3442 4084 
Q 3081 4231 2675 4231 
Q 1875 4231 1450 3742 
Q 1025 3253 1025 2328 
Q 1025 1406 1450 917 
Q 1875 428 2675 428 
Q 3081 428 3442 575 
Q 3803 722 4122 1019 
L 4122 359 
Q 3791 134 3420 21 
Q 3050 -91 2638 -91 
Q 1578 -91 968 557 
Q 359 1206 359 2328 
Q 359 3453 968 4101 
Q 1578 4750 2638 4750 
Q 3056 4750 3426 4639 
Q 3797 4528 4122 4306 
z
" transform="scale(0.015625)"/>
      <path id="DejaVuSans-6f" d="M 1959 3097 
Q 1497 3097 1228 2736 
Q 959 2375 959 1747 
Q 959 1119 1226 758 
Q 1494 397 1959 397 
Q 2419 397 2687 759 
Q 2956 1122 2956 1747 
Q 2956 2369 2687 2733 
Q 2419 3097 1959 3097 
z
M 1959 3584 
Q 2709 3584 3137 3096 
Q 3566 2609 3566 1747 
Q 3566 888 3137 398 
Q 2709 -91 1959 -91 
Q 1206 -91 779 398 
Q 353 888 353 1747 
Q 353 2609 779 3096 
Q 1206 3584 1959 3584 
z
" transform="scale(0.015625)"/>
      <path id="DejaVuSans-6e" d="M 3513 2113 
L 3513 0 
L 2938 0 
L 2938 2094 
Q 2938 2591 2744 2837 
Q 2550 3084 2163 3084 
Q 1697 3084 1428 2787 
Q 1159 2491 1159 1978 
L 1159 0 
L 581 0 
L 581 3500 
L 1159 3500 
L 1159 2956 
Q 1366 3272 1645 3428 
Q 1925 3584 2291 3584 
Q 2894 3584 3203 3211 
Q 3513 2838 3513 2113 
z
" transform="scale(0.015625)"/>
      <path id="DejaVuSans-66" d="M 2375 4863 
L 2375 4384 
L 1825 4384 
Q 1516 4384 1395 4259 
Q 1275 4134 1275 3809 
L 1275 3500 
L 2222 3500 
L 2222 3053 
L 1275 3053 
L 1275 0 
L 697 0 
L 697 3053 
L 147 3053 
L 147 3500 
L 697 3500 
L 697 3744 
Q 697 4328 969 4595 
Q 1241 4863 1831 4863 
L 2375 4863 
z
" transform="scale(0.015625)"/>
      <path id="DejaVuSans-72" d="M 2631 2963 
Q 2534 3019 2420 3045 
Q 2306 3072 2169 3072 
Q 1681 3072 1420 2755 
Q 1159 2438 1159 1844 
L 1159 0 
L 581 0 
L 581 3500 
L 1159 3500 
L 1159 2956 
Q 1341 3275 1631 3429 
Q 1922 3584 2338 3584 
Q 2397 3584 2469 3576 
Q 2541 3569 2628 3553 
L 2631 2963 
z
" transform="scale(0.015625)"/>
      <path id="DejaVuSans-6d" d="M 3328 2828 
Q 3544 3216 3844 3400 
Q 4144 3584 4550 3584 
Q 5097 3584 5394 3201 
Q 5691 2819 5691 2113 
L 5691 0 
L 5113 0 
L 5113 2094 
Q 5113 2597 4934 2840 
Q 4756 3084 4391 3084 
Q 3944 3084 3684 2787 
Q 3425 2491 3425 1978 
L 3425 0 
L 2847 0 
L 2847 2094 
Q 2847 2600 2669 2842 
Q 2491 3084 2119 3084 
Q 1678 3084 1418 2786 
Q 1159 2488 1159 1978 
L 1159 0 
L 581 0 
L 581 3500 
L 1159 3500 
L 1159 2956 
Q 1356 3278 1631 3431 
Q 1906 3584 2284 3584 
Q 2666 3584 2933 3390 
Q 3200 3197 3328 2828 
z
" transform="scale(0.015625)"/>
      <path id="DejaVuSans-65" d="M 3597 1894 
L 3597 1613 
L 953 1613 
Q 991 1019 1311 708 
Q 1631 397 2203 397 
Q 2534 397 2845 478 
Q 3156 559 3463 722 
L 3463 178 
Q 3153 47 2828 -22 
Q 2503 -91 2169 -91 
Q 1331 -91 842 396 
Q 353 884 353 1716 
Q 353 2575 817 3079 
Q 1281 3584 2069 3584 
Q 2775 3584 3186 3129 
Q 3597 2675 3597 1894 
z
M 3022 2063 
Q 3016 2534 2758 2815 
Q 2500 3097 2075 3097 
Q 1594 3097 1305 2825 
Q 1016 2553 972 2059 
L 3022 2063 
z
" transform="scale(0.015625)"/>
      <path id="DejaVuSans-64" d="M 2906 2969 
L 2906 4863 
L 3481 4863 
L 3481 0 
L 2906 0 
L 2906 525 
Q 2725 213 2448 61 
Q 2172 -91 1784 -91 
Q 1150 -91 751 415 
Q 353 922 353 1747 
Q 353 2572 751 3078 
Q 1150 3584 1784 3584 
Q 2172 3584 2448 3432 
Q 2725 3281 2906 2969 
z
M 947 1747 
Q 947 1113 1208 752 
Q 1469 391 1925 391 
Q 2381 391 2643 752 
Q 2906 1113 2906 1747 
Q 2906 2381 2643 2742 
Q 2381 3103 1925 3103 
Q 1469 3103 1208 2742 
Q 947 2381 947 1747 
z
" transform="scale(0.015625)"/>
      <path id="DejaVuSans-73" d="M 2834 3397 
L 2834 2853 
Q 2591 2978 2328 3040 
Q 2066 3103 1784 3103 
Q 1356 3103 1142 2972 
Q 928 2841 928 2578 
Q 928 2378 1081 2264 
Q 1234 2150 1697 2047 
L 1894 2003 
Q 2506 1872 2764 1633 
Q 3022 1394 3022 966 
Q 3022 478 2636 193 
Q 2250 -91 1575 -91 
Q 1294 -91 989 -36 
Q 684 19 347 128 
L 347 722 
Q 666 556 975 473 
Q 1284 391 1588 391 
Q 1994 391 2212 530 
Q 2431 669 2431 922 
Q 2431 1156 2273 1281 
Q 2116 1406 1581 1522 
L 1381 1569 
Q 847 1681 609 1914 
Q 372 2147 372 2553 
Q 372 3047 722 3315 
Q 1072 3584 1716 3584 
Q 2034 3584 2315 3537 
Q 2597 3491 2834 3397 
z
" transform="scale(0.015625)"/>
      <path id="DejaVuSans-46" d="M 628 4666 
L 3309 4666 
L 3309 4134 
L 1259 4134 
L 1259 2759 
L 3109 2759 
L 3109 2228 
L 1259 2228 
L 1259 0 
L 628 0 
L 628 4666 
z
" transform="scale(0.015625)"/>
      <path id="DejaVuSans-63" d="M 3122 3366 
L 3122 2828 
Q 2878 2963 2633 3030 
Q 2388 3097 2138 3097 
Q 1578 3097 1268 2742 
Q 959 2388 959 1747 
Q 959 1106 1268 751 
Q 1578 397 2138 397 
Q 2388 397 2633 464 
Q 2878 531 3122 666 
L 3122 134 
Q 2881 22 2623 -34 
Q 2366 -91 2075 -91 
Q 1284 -91 818 406 
Q 353 903 353 1747 
Q 353 2603 823 3093 
Q 1294 3584 2113 3584 
Q 2378 3584 2631 3529 
Q 2884 3475 3122 3366 
z
" transform="scale(0.015625)"/>
      <path id="DejaVuSans-74" d="M 1172 4494 
L 1172 3500 
L 2356 3500 
L 2356 3053 
L 1172 3053 
L 1172 1153 
Q 1172 725 1289 603 
Q 1406 481 1766 481 
L 2356 481 
L 2356 0 
L 1766 0 
Q 1100 0 847 248 
Q 594 497 594 1153 
L 594 3053 
L 172 3053 
L 172 3500 
L 594 3500 
L 594 4494 
L 1172 4494 
z
" transform="scale(0.015625)"/>
      <path id="DejaVuSans-67" d="M 2906 1791 
Q 2906 2416 2648 2759 
Q 2391 3103 1925 3103 
Q 1463 3103 1205 2759 
Q 947 2416 947 1791 
Q 947 1169 1205 825 
Q 1463 481 1925 481 
Q 2391 481 2648 825 
Q 2906 1169 2906 1791 
z
M 3481 434 
Q 3481 -459 3084 -895 
Q 2688 -1331 1869 -1331 
Q 1566 -1331 1297 -1286 
Q 1028 -1241 775 -1147 
L 775 -588 
Q 1028 -725 1275 -790 
Q 1522 -856 1778 -856 
Q 2344 -856 2625 -561 
Q 2906 -266 2906 331 
L 2906 616 
Q 2728 306 2450 153 
Q 2172 0 1784 0 
Q 1141 0 747 490 
Q 353 981 353 1791 
Q 353 2603 747 3093 
Q 1141 3584 1784 3584 
Q 2172 3584 2450 3431 
Q 2728 3278 2906 2969 
L 2906 3500 
L 3481 3500 
L 3481 434 
z
" transform="scale(0.015625)"/>
      <path id="DejaVuSans-45" d="M 628 4666 
L 3578 4666 
L 3578 4134 
L 1259 4134 
L 1259 2753 
L 3481 2753 
L 3481 2222 
L 1259 2222 
L 1259 531 
L 3634 531 
L 3634 0 
L 628 0 
L 628 4666 
z
" transform="scale(0.015625)"/>
     </defs>
     <use xlink:href="#DejaVuSans-44"/>
     <use xlink:href="#DejaVuSans-61" x="77.001953"/>
     <use xlink:href="#DejaVuSans-69" x="138.28125"/>
     <use xlink:href="#DejaVuSans-6c" x="166.064453"/>
     <use xlink:href="#DejaVuSans-79" x="193.847656"/>
     <use xlink:href="#DejaVuSans-20" x="253.027344"/>
     <use xlink:href="#DejaVuSans-43" x="284.814453"/>
     <use xlink:href="#DejaVuSans-6f" x="354.638672"/>
     <use xlink:href="#DejaVuSans-6e" x="415.820312"/>
     <use xlink:href="#DejaVuSans-66" x="479.199219"/>
     <use xlink:href="#DejaVuSans-69" x="514.404297"/>
     <use xlink:href="#DejaVuSans-72" x="542.1875"/>
     <use xlink:href="#DejaVuSans-6d" x="581.550781"/>
     <use xlink:href="#DejaVuSans-65" x="678.962891"/>
     <use xlink:href="#DejaVuSans-64" x="740.486328"/>
     <use xlink:href="#DejaVuSans-20" x="803.962891"/>
     <use xlink:href="#DejaVuSans-43" x="835.75"/>
     <use xlink:href="#DejaVuSans-61" x="905.574219"/>
     <use xlink:href="#DejaVuSans-73" x="966.853516"/>
     <use xlink:href="#DejaVuSans-65" x="1018.953125"/>
     <use xlink:href="#DejaVuSans-73" x="1080.476562"/>
     <use xlink:href="#DejaVuSans-20" x="1132.576172"/>
     <use xlink:href="#DejaVuSans-46" x="1164.363281"/>
     <use xlink:href="#DejaVuSans-6f" x="1218.257812"/>
     <use xlink:href="#DejaVuSans-72" x="1279.439453"/>
     <use xlink:href="#DejaVuSans-65" x="1318.302734"/>
     <use xlink:href="#DejaVuSans-63" x="1379.826172"/>
     <use xlink:href="#DejaVuSans-61" x="1434.806641"/>
     <use xlink:href="#DejaVuSans-73" x="1496.085938"/>
     <use xlink:href="#DejaVuSans-74" x="1548.185547"/>
     <use xlink:href="#DejaVuSans-69" x="1587.394531"/>
     <use xlink:href="#DejaVuSans-6e" x="1615.177734"/>
     <use xlink:href="#DejaVuSans-67" x="1678.556641"/>
     <use xlink:href="#DejaVuSans-20" x="1742.033203"/>
     <use xlink:href="#DejaVuSans-2d" x="1773.820312"/>
     <use xlink:href="#DejaVuSans-20" x="1809.904297"/>
     <use xlink:href="#DejaVuSans-45" x="1841.691406"/>
     <use xlink:href="#DejaVuSans-72" x="1904.875"/>
     <use xlink:href="#DejaVuSans-69" x="1945.988281"/>
     <use xlink:href="#DejaVuSans-74" x="1973.771484"/>
     <use xlink:href="#DejaVuSans-72" x="2012.980469"/>
     <use xlink:href="#DejaVuSans-65" x="2051.84375"/>
     <use xlink:href="#DejaVuSans-61" x="2113.367188"/>
    </g>
    <!-- ARIMA (1, 1, 1)x(1, 0, 1, 7) (R2 = 0.686901) -->
    <g transform="translate(570.903438 29.7555)scale(0.12 -0.12)">
     <defs>
      <path id="DejaVuSans-41" d="M 2188 4044 
L 1331 1722 
L 3047 1722 
L 2188 4044 
z
M 1831 4666 
L 2547 4666 
L 4325 0 
L 3669 0 
L 3244 1197 
L 1141 1197 
L 716 0 
L 50 0 
L 1831 4666 
z
" transform="scale(0.015625)"/>
      <path id="DejaVuSans-52" d="M 2841 2188 
Q 3044 2119 3236 1894 
Q 3428 1669 3622 1275 
L 4263 0 
L 3584 0 
L 2988 1197 
Q 2756 1666 2539 1819 
Q 2322 1972 1947 1972 
L 1259 1972 
L 1259 0 
L 628 0 
L 628 4666 
L 2053 4666 
Q 2853 4666 3247 4331 
Q 3641 3997 3641 3322 
Q 3641 2881 3436 2590 
Q 3231 2300 2841 2188 
z
M 1259 4147 
L 1259 2491 
L 2053 2491 
Q 2509 2491 2742 2702 
Q 2975 2913 2975 3322 
Q 2975 3731 2742 3939 
Q 2509 4147 2053 4147 
L 1259 4147 
z
" transform="scale(0.015625)"/>
      <path id="DejaVuSans-49" d="M 628 4666 
L 1259 4666 
L 1259 0 
L 628 0 
L 628 4666 
z
" transform="scale(0.015625)"/>
      <path id="DejaVuSans-4d" d="M 628 4666 
L 1569 4666 
L 2759 1491 
L 3956 4666 
L 4897 4666 
L 4897 0 
L 4281 0 
L 4281 4097 
L 3078 897 
L 2444 897 
L 1241 4097 
L 1241 0 
L 628 0 
L 628 4666 
z
" transform="scale(0.015625)"/>
      <path id="DejaVuSans-28" d="M 1984 4856 
Q 1566 4138 1362 3434 
Q 1159 2731 1159 2009 
Q 1159 1288 1364 580 
Q 1569 -128 1984 -844 
L 1484 -844 
Q 1016 -109 783 600 
Q 550 1309 550 2009 
Q 550 2706 781 3412 
Q 1013 4119 1484 4856 
L 1984 4856 
z
" transform="scale(0.015625)"/>
      <path id="DejaVuSans-2c" d="M 750 794 
L 1409 794 
L 1409 256 
L 897 -744 
L 494 -744 
L 750 256 
L 750 794 
z
" transform="scale(0.015625)"/>
      <path id="DejaVuSans-29" d="M 513 4856 
L 1013 4856 
Q 1481 4119 1714 3412 
Q 1947 2706 1947 2009 
Q 1947 1309 1714 600 
Q 1481 -109 1013 -844 
L 513 -844 
Q 928 -128 1133 580 
Q 1338 1288 1338 2009 
Q 1338 2731 1133 3434 
Q 928 4138 513 4856 
z
" transform="scale(0.015625)"/>
      <path id="DejaVuSans-78" d="M 3513 3500 
L 2247 1797 
L 3578 0 
L 2900 0 
L 1881 1375 
L 863 0 
L 184 0 
L 1544 1831 
L 300 3500 
L 978 3500 
L 1906 2253 
L 2834 3500 
L 3513 3500 
z
" transform="scale(0.015625)"/>
      <path id="DejaVuSans-3d" d="M 678 2906 
L 4684 2906 
L 4684 2381 
L 678 2381 
L 678 2906 
z
M 678 1631 
L 4684 1631 
L 4684 1100 
L 678 1100 
L 678 1631 
z
" transform="scale(0.015625)"/>
      <path id="DejaVuSans-2e" d="M 684 794 
L 1344 794 
L 1344 0 
L 684 0 
L 684 794 
z
" transform="scale(0.015625)"/>
      <path id="DejaVuSans-36" d="M 2113 2584 
Q 1688 2584 1439 2293 
Q 1191 2003 1191 1497 
Q 1191 994 1439 701 
Q 1688 409 2113 409 
Q 2538 409 2786 701 
Q 3034 994 3034 1497 
Q 3034 2003 2786 2293 
Q 2538 2584 2113 2584 
z
M 3366 4563 
L 3366 3988 
Q 3128 4100 2886 4159 
Q 2644 4219 2406 4219 
Q 1781 4219 1451 3797 
Q 1122 3375 1075 2522 
Q 1259 2794 1537 2939 
Q 1816 3084 2150 3084 
Q 2853 3084 3261 2657 
Q 3669 2231 3669 1497 
Q 3669 778 3244 343 
Q 2819 -91 2113 -91 
Q 1303 -91 875 529 
Q 447 1150 447 2328 
Q 447 3434 972 4092 
Q 1497 4750 2381 4750 
Q 2619 4750 2861 4703 
Q 3103 4656 3366 4563 
z
" transform="scale(0.015625)"/>
      <path id="DejaVuSans-38" d="M 2034 2216 
Q 1584 2216 1326 1975 
Q 1069 1734 1069 1313 
Q 1069 891 1326 650 
Q 1584 409 2034 409 
Q 2484 409 2743 651 
Q 3003 894 3003 1313 
Q 3003 1734 2745 1975 
Q 2488 2216 2034 2216 
z
M 1403 2484 
Q 997 2584 770 2862 
Q 544 3141 544 3541 
Q 544 4100 942 4425 
Q 1341 4750 2034 4750 
Q 2731 4750 3128 4425 
Q 3525 4100 3525 3541 
Q 3525 3141 3298 2862 
Q 3072 2584 2669 2484 
Q 3125 2378 3379 2068 
Q 3634 1759 3634 1313 
Q 3634 634 3220 271 
Q 2806 -91 2034 -91 
Q 1263 -91 848 271 
Q 434 634 434 1313 
Q 434 1759 690 2068 
Q 947 2378 1403 2484 
z
M 1172 3481 
Q 1172 3119 1398 2916 
Q 1625 2713 2034 2713 
Q 2441 2713 2670 2916 
Q 2900 3119 2900 3481 
Q 2900 3844 2670 4047 
Q 2441 4250 2034 4250 
Q 1625 4250 1398 4047 
Q 1172 3844 1172 3481 
z
" transform="scale(0.015625)"/>
      <path id="DejaVuSans-39" d="M 703 97 
L 703 672 
Q 941 559 1184 500 
Q 1428 441 1663 441 
Q 2288 441 2617 861 
Q 2947 1281 2994 2138 
Q 2813 1869 2534 1725 
Q 2256 1581 1919 1581 
Q 1219 1581 811 2004 
Q 403 2428 403 3163 
Q 403 3881 828 4315 
Q 1253 4750 1959 4750 
Q 2769 4750 3195 4129 
Q 3622 3509 3622 2328 
Q 3622 1225 3098 567 
Q 2575 -91 1691 -91 
Q 1453 -91 1209 -44 
Q 966 3 703 97 
z
M 1959 2075 
Q 2384 2075 2632 2365 
Q 2881 2656 2881 3163 
Q 2881 3666 2632 3958 
Q 2384 4250 1959 4250 
Q 1534 4250 1286 3958 
Q 1038 3666 1038 3163 
Q 1038 2656 1286 2365 
Q 1534 2075 1959 2075 
z
" transform="scale(0.015625)"/>
     </defs>
     <use xlink:href="#DejaVuSans-41"/>
     <use xlink:href="#DejaVuSans-52" x="68.408203"/>
     <use xlink:href="#DejaVuSans-49" x="137.890625"/>
     <use xlink:href="#DejaVuSans-4d" x="167.382812"/>
     <use xlink:href="#DejaVuSans-41" x="253.662109"/>
     <use xlink:href="#DejaVuSans-20" x="322.070312"/>
     <use xlink:href="#DejaVuSans-28" x="353.857422"/>
     <use xlink:href="#DejaVuSans-31" x="392.871094"/>
     <use xlink:href="#DejaVuSans-2c" x="456.494141"/>
     <use xlink:href="#DejaVuSans-20" x="488.28125"/>
     <use xlink:href="#DejaVuSans-31" x="520.068359"/>
     <use xlink:href="#DejaVuSans-2c" x="583.691406"/>
     <use xlink:href="#DejaVuSans-20" x="615.478516"/>
     <use xlink:href="#DejaVuSans-31" x="647.265625"/>
     <use xlink:href="#DejaVuSans-29" x="710.888672"/>
     <use xlink:href="#DejaVuSans-78" x="749.902344"/>
     <use xlink:href="#DejaVuSans-28" x="809.082031"/>
     <use xlink:href="#DejaVuSans-31" x="848.095703"/>
     <use xlink:href="#DejaVuSans-2c" x="911.71875"/>
     <use xlink:href="#DejaVuSans-20" x="943.505859"/>
     <use xlink:href="#DejaVuSans-30" x="975.292969"/>
     <use xlink:href="#DejaVuSans-2c" x="1038.916016"/>
     <use xlink:href="#DejaVuSans-20" x="1070.703125"/>
     <use xlink:href="#DejaVuSans-31" x="1102.490234"/>
     <use xlink:href="#DejaVuSans-2c" x="1166.113281"/>
     <use xlink:href="#DejaVuSans-20" x="1197.900391"/>
     <use xlink:href="#DejaVuSans-37" x="1229.6875"/>
     <use xlink:href="#DejaVuSans-29" x="1293.310547"/>
     <use xlink:href="#DejaVuSans-20" x="1332.324219"/>
     <use xlink:href="#DejaVuSans-28" x="1364.111328"/>
     <use xlink:href="#DejaVuSans-52" x="1403.125"/>
     <use xlink:href="#DejaVuSans-32" x="1472.607422"/>
     <use xlink:href="#DejaVuSans-20" x="1536.230469"/>
     <use xlink:href="#DejaVuSans-3d" x="1568.017578"/>
     <use xlink:href="#DejaVuSans-20" x="1651.806641"/>
     <use xlink:href="#DejaVuSans-30" x="1683.59375"/>
     <use xlink:href="#DejaVuSans-2e" x="1747.216797"/>
     <use xlink:href="#DejaVuSans-36" x="1779.003906"/>
     <use xlink:href="#DejaVuSans-38" x="1842.626953"/>
     <use xlink:href="#DejaVuSans-36" x="1906.25"/>
     <use xlink:href="#DejaVuSans-39" x="1969.873047"/>
     <use xlink:href="#DejaVuSans-30" x="2033.496094"/>
     <use xlink:href="#DejaVuSans-31" x="2097.119141"/>
     <use xlink:href="#DejaVuSans-29" x="2160.742188"/>
    </g>
   </g>
   <g id="legend_1">
    <g id="patch_7">
     <path d="M 1268.407813 87.789875 
L 1365.4875 87.789875 
Q 1367.4875 87.789875 1367.4875 85.789875 
L 1367.4875 42.7555 
Q 1367.4875 40.7555 1365.4875 40.7555 
L 1268.407813 40.7555 
Q 1266.407813 40.7555 1266.407813 42.7555 
L 1266.407813 85.789875 
Q 1266.407813 87.789875 1268.407813 87.789875 
z
" style="fill: #ffffff; opacity: 0.8; stroke: #cccccc; stroke-linejoin: miter"/>
    </g>
    <g id="line2d_21">
     <path d="M 1270.407813 48.853937 
L 1280.407813 48.853937 
L 1290.407813 48.853937 
" style="fill: none; stroke: #0000ff; stroke-width: 1.5; stroke-linecap: square"/>
    </g>
    <g id="text_19">
     <!-- Actual Value -->
     <g transform="translate(1298.407813 52.353937)scale(0.1 -0.1)">
      <defs>
       <path id="DejaVuSans-75" d="M 544 1381 
L 544 3500 
L 1119 3500 
L 1119 1403 
Q 1119 906 1312 657 
Q 1506 409 1894 409 
Q 2359 409 2629 706 
Q 2900 1003 2900 1516 
L 2900 3500 
L 3475 3500 
L 3475 0 
L 2900 0 
L 2900 538 
Q 2691 219 2414 64 
Q 2138 -91 1772 -91 
Q 1169 -91 856 284 
Q 544 659 544 1381 
z
M 1991 3584 
L 1991 3584 
z
" transform="scale(0.015625)"/>
       <path id="DejaVuSans-56" d="M 1831 0 
L 50 4666 
L 709 4666 
L 2188 738 
L 3669 4666 
L 4325 4666 
L 2547 0 
L 1831 0 
z
" transform="scale(0.015625)"/>
      </defs>
      <use xlink:href="#DejaVuSans-41"/>
      <use xlink:href="#DejaVuSans-63" x="66.658203"/>
      <use xlink:href="#DejaVuSans-74" x="121.638672"/>
      <use xlink:href="#DejaVuSans-75" x="160.847656"/>
      <use xlink:href="#DejaVuSans-61" x="224.226562"/>
      <use xlink:href="#DejaVuSans-6c" x="285.505859"/>
      <use xlink:href="#DejaVuSans-20" x="313.289062"/>
      <use xlink:href="#DejaVuSans-56" x="345.076172"/>
      <use xlink:href="#DejaVuSans-61" x="405.734375"/>
      <use xlink:href="#DejaVuSans-6c" x="467.013672"/>
      <use xlink:href="#DejaVuSans-75" x="494.796875"/>
      <use xlink:href="#DejaVuSans-65" x="558.175781"/>
     </g>
    </g>
    <g id="line2d_22">
     <path d="M 1270.407813 63.532062 
L 1280.407813 63.532062 
L 1290.407813 63.532062 
" style="fill: none; stroke: #ffa500; stroke-width: 1.5; stroke-linecap: square"/>
    </g>
    <g id="text_20">
     <!-- Check Value -->
     <g transform="translate(1298.407813 67.032062)scale(0.1 -0.1)">
      <defs>
       <path id="DejaVuSans-68" d="M 3513 2113 
L 3513 0 
L 2938 0 
L 2938 2094 
Q 2938 2591 2744 2837 
Q 2550 3084 2163 3084 
Q 1697 3084 1428 2787 
Q 1159 2491 1159 1978 
L 1159 0 
L 581 0 
L 581 4863 
L 1159 4863 
L 1159 2956 
Q 1366 3272 1645 3428 
Q 1925 3584 2291 3584 
Q 2894 3584 3203 3211 
Q 3513 2838 3513 2113 
z
" transform="scale(0.015625)"/>
       <path id="DejaVuSans-6b" d="M 581 4863 
L 1159 4863 
L 1159 1991 
L 2875 3500 
L 3609 3500 
L 1753 1863 
L 3688 0 
L 2938 0 
L 1159 1709 
L 1159 0 
L 581 0 
L 581 4863 
z
" transform="scale(0.015625)"/>
      </defs>
      <use xlink:href="#DejaVuSans-43"/>
      <use xlink:href="#DejaVuSans-68" x="69.824219"/>
      <use xlink:href="#DejaVuSans-65" x="133.203125"/>
      <use xlink:href="#DejaVuSans-63" x="194.726562"/>
      <use xlink:href="#DejaVuSans-6b" x="249.707031"/>
      <use xlink:href="#DejaVuSans-20" x="307.617188"/>
      <use xlink:href="#DejaVuSans-56" x="339.404297"/>
      <use xlink:href="#DejaVuSans-61" x="400.0625"/>
      <use xlink:href="#DejaVuSans-6c" x="461.341797"/>
      <use xlink:href="#DejaVuSans-75" x="489.125"/>
      <use xlink:href="#DejaVuSans-65" x="552.503906"/>
     </g>
    </g>
    <g id="line2d_23">
     <path d="M 1270.407813 78.210187 
L 1280.407813 78.210187 
L 1290.407813 78.210187 
" style="fill: none; stroke: #ff0000; stroke-width: 1.5; stroke-linecap: square"/>
    </g>
    <g id="text_21">
     <!-- Predict Value -->
     <g transform="translate(1298.407813 81.710187)scale(0.1 -0.1)">
      <defs>
       <path id="DejaVuSans-50" d="M 1259 4147 
L 1259 2394 
L 2053 2394 
Q 2494 2394 2734 2622 
Q 2975 2850 2975 3272 
Q 2975 3691 2734 3919 
Q 2494 4147 2053 4147 
L 1259 4147 
z
M 628 4666 
L 2053 4666 
Q 2838 4666 3239 4311 
Q 3641 3956 3641 3272 
Q 3641 2581 3239 2228 
Q 2838 1875 2053 1875 
L 1259 1875 
L 1259 0 
L 628 0 
L 628 4666 
z
" transform="scale(0.015625)"/>
      </defs>
      <use xlink:href="#DejaVuSans-50"/>
      <use xlink:href="#DejaVuSans-72" x="58.552734"/>
      <use xlink:href="#DejaVuSans-65" x="97.416016"/>
      <use xlink:href="#DejaVuSans-64" x="158.939453"/>
      <use xlink:href="#DejaVuSans-69" x="222.416016"/>
      <use xlink:href="#DejaVuSans-63" x="250.199219"/>
      <use xlink:href="#DejaVuSans-74" x="305.179688"/>
      <use xlink:href="#DejaVuSans-20" x="344.388672"/>
      <use xlink:href="#DejaVuSans-56" x="376.175781"/>
      <use xlink:href="#DejaVuSans-61" x="436.833984"/>
      <use xlink:href="#DejaVuSans-6c" x="498.113281"/>
      <use xlink:href="#DejaVuSans-75" x="525.896484"/>
      <use xlink:href="#DejaVuSans-65" x="589.275391"/>
     </g>
    </g>
   </g>
  </g>
 </g>
 <defs>
  <clipPath id="p8c83468573">
   <rect x="33.2875" y="35.7555" width="1339.2" height="332.64"/>
  </clipPath>
 </defs>
</svg>
