<?xml version="1.0" encoding="utf-8" standalone="no"?>
<!DOCTYPE svg PUBLIC "-//W3C//DTD SVG 1.1//EN"
  "http://www.w3.org/Graphics/SVG/1.1/DTD/svg11.dtd">
<svg xmlns:xlink="http://www.w3.org/1999/xlink" width="1400.792188pt" height="392.273625pt" viewBox="0 0 1400.792188 392.273625" xmlns="http://www.w3.org/2000/svg" version="1.1">
 <metadata>
  <rdf:RDF xmlns:dc="http://purl.org/dc/elements/1.1/" xmlns:cc="http://creativecommons.org/ns#" xmlns:rdf="http://www.w3.org/1999/02/22-rdf-syntax-ns#">
   <cc:Work>
    <dc:type rdf:resource="http://purl.org/dc/dcmitype/StillImage"/>
    <dc:date>2022-07-21T19:21:50.891633</dc:date>
    <dc:format>image/svg+xml</dc:format>
    <dc:creator>
     <cc:Agent>
      <dc:title>Matplotlib v3.5.2, https://matplotlib.org/</dc:title>
     </cc:Agent>
    </dc:creator>
   </cc:Work>
  </rdf:RDF>
 </metadata>
 <defs>
  <style type="text/css">*{stroke-linejoin: round; stroke-linecap: butt}</style>
 </defs>
 <g id="figure_1">
  <g id="patch_1">
   <path d="M 0 392.273625 
L 1400.792188 392.273625 
L 1400.792188 0 
L 0 0 
z
" style="fill: #ffffff"/>
  </g>
  <g id="axes_1">
   <g id="patch_2">
    <path d="M 54.392188 368.3955 
L 1393.592188 368.3955 
L 1393.592188 35.7555 
L 54.392188 35.7555 
z
" style="fill: #ffffff"/>
   </g>
   <g id="matplotlib.axis_1">
    <g id="xtick_1">
     <g id="line2d_1">
      <defs>
       <path id="m4ae8b97398" d="M 0 0 
L 0 3.5 
" style="stroke: #000000; stroke-width: 0.8"/>
      </defs>
      <g>
       <use xlink:href="#m4ae8b97398" x="86.215023" y="368.3955" style="stroke: #000000; stroke-width: 0.8"/>
      </g>
     </g>
     <g id="text_1">
      <!-- 2020-01 -->
      <g transform="translate(65.323617 382.993937)scale(0.1 -0.1)">
       <defs>
        <path id="DejaVuSans-32" d="M 1228 531 
L 3431 531 
L 3431 0 
L 469 0 
L 469 531 
Q 828 903 1448 1529 
Q 2069 2156 2228 2338 
Q 2531 2678 2651 2914 
Q 2772 3150 2772 3378 
Q 2772 3750 2511 3984 
Q 2250 4219 1831 4219 
Q 1534 4219 1204 4116 
Q 875 4013 500 3803 
L 500 4441 
Q 881 4594 1212 4672 
Q 1544 4750 1819 4750 
Q 2544 4750 2975 4387 
Q 3406 4025 3406 3419 
Q 3406 3131 3298 2873 
Q 3191 2616 2906 2266 
Q 2828 2175 2409 1742 
Q 1991 1309 1228 531 
z
" transform="scale(0.015625)"/>
        <path id="DejaVuSans-30" d="M 2034 4250 
Q 1547 4250 1301 3770 
Q 1056 3291 1056 2328 
Q 1056 1369 1301 889 
Q 1547 409 2034 409 
Q 2525 409 2770 889 
Q 3016 1369 3016 2328 
Q 3016 3291 2770 3770 
Q 2525 4250 2034 4250 
z
M 2034 4750 
Q 2819 4750 3233 4129 
Q 3647 3509 3647 2328 
Q 3647 1150 3233 529 
Q 2819 -91 2034 -91 
Q 1250 -91 836 529 
Q 422 1150 422 2328 
Q 422 3509 836 4129 
Q 1250 4750 2034 4750 
z
" transform="scale(0.015625)"/>
        <path id="DejaVuSans-2d" d="M 313 2009 
L 1997 2009 
L 1997 1497 
L 313 1497 
L 313 2009 
z
" transform="scale(0.015625)"/>
        <path id="DejaVuSans-31" d="M 794 531 
L 1825 531 
L 1825 4091 
L 703 3866 
L 703 4441 
L 1819 4666 
L 2450 4666 
L 2450 531 
L 3481 531 
L 3481 0 
L 794 0 
L 794 531 
z
" transform="scale(0.015625)"/>
       </defs>
       <use xlink:href="#DejaVuSans-32"/>
       <use xlink:href="#DejaVuSans-30" x="63.623047"/>
       <use xlink:href="#DejaVuSans-32" x="127.246094"/>
       <use xlink:href="#DejaVuSans-30" x="190.869141"/>
       <use xlink:href="#DejaVuSans-2d" x="254.492188"/>
       <use xlink:href="#DejaVuSans-30" x="290.576172"/>
       <use xlink:href="#DejaVuSans-31" x="354.199219"/>
      </g>
     </g>
    </g>
    <g id="xtick_2">
     <g id="line2d_2">
      <g>
       <use xlink:href="#m4ae8b97398" x="206.375938" y="368.3955" style="stroke: #000000; stroke-width: 0.8"/>
      </g>
     </g>
     <g id="text_2">
      <!-- 2020-04 -->
      <g transform="translate(185.484532 382.993937)scale(0.1 -0.1)">
       <defs>
        <path id="DejaVuSans-34" d="M 2419 4116 
L 825 1625 
L 2419 1625 
L 2419 4116 
z
M 2253 4666 
L 3047 4666 
L 3047 1625 
L 3713 1625 
L 3713 1100 
L 3047 1100 
L 3047 0 
L 2419 0 
L 2419 1100 
L 313 1100 
L 313 1709 
L 2253 4666 
z
" transform="scale(0.015625)"/>
       </defs>
       <use xlink:href="#DejaVuSans-32"/>
       <use xlink:href="#DejaVuSans-30" x="63.623047"/>
       <use xlink:href="#DejaVuSans-32" x="127.246094"/>
       <use xlink:href="#DejaVuSans-30" x="190.869141"/>
       <use xlink:href="#DejaVuSans-2d" x="254.492188"/>
       <use xlink:href="#DejaVuSans-30" x="290.576172"/>
       <use xlink:href="#DejaVuSans-34" x="354.199219"/>
      </g>
     </g>
    </g>
    <g id="xtick_3">
     <g id="line2d_3">
      <g>
       <use xlink:href="#m4ae8b97398" x="326.536853" y="368.3955" style="stroke: #000000; stroke-width: 0.8"/>
      </g>
     </g>
     <g id="text_3">
      <!-- 2020-07 -->
      <g transform="translate(305.645447 382.993937)scale(0.1 -0.1)">
       <defs>
        <path id="DejaVuSans-37" d="M 525 4666 
L 3525 4666 
L 3525 4397 
L 1831 0 
L 1172 0 
L 2766 4134 
L 525 4134 
L 525 4666 
z
" transform="scale(0.015625)"/>
       </defs>
       <use xlink:href="#DejaVuSans-32"/>
       <use xlink:href="#DejaVuSans-30" x="63.623047"/>
       <use xlink:href="#DejaVuSans-32" x="127.246094"/>
       <use xlink:href="#DejaVuSans-30" x="190.869141"/>
       <use xlink:href="#DejaVuSans-2d" x="254.492188"/>
       <use xlink:href="#DejaVuSans-30" x="290.576172"/>
       <use xlink:href="#DejaVuSans-37" x="354.199219"/>
      </g>
     </g>
    </g>
    <g id="xtick_4">
     <g id="line2d_4">
      <g>
       <use xlink:href="#m4ae8b97398" x="448.018218" y="368.3955" style="stroke: #000000; stroke-width: 0.8"/>
      </g>
     </g>
     <g id="text_4">
      <!-- 2020-10 -->
      <g transform="translate(427.126812 382.993937)scale(0.1 -0.1)">
       <use xlink:href="#DejaVuSans-32"/>
       <use xlink:href="#DejaVuSans-30" x="63.623047"/>
       <use xlink:href="#DejaVuSans-32" x="127.246094"/>
       <use xlink:href="#DejaVuSans-30" x="190.869141"/>
       <use xlink:href="#DejaVuSans-2d" x="254.492188"/>
       <use xlink:href="#DejaVuSans-31" x="290.576172"/>
       <use xlink:href="#DejaVuSans-30" x="354.199219"/>
      </g>
     </g>
    </g>
    <g id="xtick_5">
     <g id="line2d_5">
      <g>
       <use xlink:href="#m4ae8b97398" x="569.499582" y="368.3955" style="stroke: #000000; stroke-width: 0.8"/>
      </g>
     </g>
     <g id="text_5">
      <!-- 2021-01 -->
      <g transform="translate(548.608176 382.993937)scale(0.1 -0.1)">
       <use xlink:href="#DejaVuSans-32"/>
       <use xlink:href="#DejaVuSans-30" x="63.623047"/>
       <use xlink:href="#DejaVuSans-32" x="127.246094"/>
       <use xlink:href="#DejaVuSans-31" x="190.869141"/>
       <use xlink:href="#DejaVuSans-2d" x="254.492188"/>
       <use xlink:href="#DejaVuSans-30" x="290.576172"/>
       <use xlink:href="#DejaVuSans-31" x="354.199219"/>
      </g>
     </g>
    </g>
    <g id="xtick_6">
     <g id="line2d_6">
      <g>
       <use xlink:href="#m4ae8b97398" x="688.340048" y="368.3955" style="stroke: #000000; stroke-width: 0.8"/>
      </g>
     </g>
     <g id="text_6">
      <!-- 2021-04 -->
      <g transform="translate(667.448642 382.993937)scale(0.1 -0.1)">
       <use xlink:href="#DejaVuSans-32"/>
       <use xlink:href="#DejaVuSans-30" x="63.623047"/>
       <use xlink:href="#DejaVuSans-32" x="127.246094"/>
       <use xlink:href="#DejaVuSans-31" x="190.869141"/>
       <use xlink:href="#DejaVuSans-2d" x="254.492188"/>
       <use xlink:href="#DejaVuSans-30" x="290.576172"/>
       <use xlink:href="#DejaVuSans-34" x="354.199219"/>
      </g>
     </g>
    </g>
    <g id="xtick_7">
     <g id="line2d_7">
      <g>
       <use xlink:href="#m4ae8b97398" x="808.500963" y="368.3955" style="stroke: #000000; stroke-width: 0.8"/>
      </g>
     </g>
     <g id="text_7">
      <!-- 2021-07 -->
      <g transform="translate(787.609557 382.993937)scale(0.1 -0.1)">
       <use xlink:href="#DejaVuSans-32"/>
       <use xlink:href="#DejaVuSans-30" x="63.623047"/>
       <use xlink:href="#DejaVuSans-32" x="127.246094"/>
       <use xlink:href="#DejaVuSans-31" x="190.869141"/>
       <use xlink:href="#DejaVuSans-2d" x="254.492188"/>
       <use xlink:href="#DejaVuSans-30" x="290.576172"/>
       <use xlink:href="#DejaVuSans-37" x="354.199219"/>
      </g>
     </g>
    </g>
    <g id="xtick_8">
     <g id="line2d_8">
      <g>
       <use xlink:href="#m4ae8b97398" x="929.982328" y="368.3955" style="stroke: #000000; stroke-width: 0.8"/>
      </g>
     </g>
     <g id="text_8">
      <!-- 2021-10 -->
      <g transform="translate(909.090921 382.993937)scale(0.1 -0.1)">
       <use xlink:href="#DejaVuSans-32"/>
       <use xlink:href="#DejaVuSans-30" x="63.623047"/>
       <use xlink:href="#DejaVuSans-32" x="127.246094"/>
       <use xlink:href="#DejaVuSans-31" x="190.869141"/>
       <use xlink:href="#DejaVuSans-2d" x="254.492188"/>
       <use xlink:href="#DejaVuSans-31" x="290.576172"/>
       <use xlink:href="#DejaVuSans-30" x="354.199219"/>
      </g>
     </g>
    </g>
    <g id="xtick_9">
     <g id="line2d_9">
      <g>
       <use xlink:href="#m4ae8b97398" x="1051.463692" y="368.3955" style="stroke: #000000; stroke-width: 0.8"/>
      </g>
     </g>
     <g id="text_9">
      <!-- 2022-01 -->
      <g transform="translate(1030.572286 382.993937)scale(0.1 -0.1)">
       <use xlink:href="#DejaVuSans-32"/>
       <use xlink:href="#DejaVuSans-30" x="63.623047"/>
       <use xlink:href="#DejaVuSans-32" x="127.246094"/>
       <use xlink:href="#DejaVuSans-32" x="190.869141"/>
       <use xlink:href="#DejaVuSans-2d" x="254.492188"/>
       <use xlink:href="#DejaVuSans-30" x="290.576172"/>
       <use xlink:href="#DejaVuSans-31" x="354.199219"/>
      </g>
     </g>
    </g>
    <g id="xtick_10">
     <g id="line2d_10">
      <g>
       <use xlink:href="#m4ae8b97398" x="1170.304158" y="368.3955" style="stroke: #000000; stroke-width: 0.8"/>
      </g>
     </g>
     <g id="text_10">
      <!-- 2022-04 -->
      <g transform="translate(1149.412751 382.993937)scale(0.1 -0.1)">
       <use xlink:href="#DejaVuSans-32"/>
       <use xlink:href="#DejaVuSans-30" x="63.623047"/>
       <use xlink:href="#DejaVuSans-32" x="127.246094"/>
       <use xlink:href="#DejaVuSans-32" x="190.869141"/>
       <use xlink:href="#DejaVuSans-2d" x="254.492188"/>
       <use xlink:href="#DejaVuSans-30" x="290.576172"/>
       <use xlink:href="#DejaVuSans-34" x="354.199219"/>
      </g>
     </g>
    </g>
    <g id="xtick_11">
     <g id="line2d_11">
      <g>
       <use xlink:href="#m4ae8b97398" x="1290.465073" y="368.3955" style="stroke: #000000; stroke-width: 0.8"/>
      </g>
     </g>
     <g id="text_11">
      <!-- 2022-07 -->
      <g transform="translate(1269.573666 382.993937)scale(0.1 -0.1)">
       <use xlink:href="#DejaVuSans-32"/>
       <use xlink:href="#DejaVuSans-30" x="63.623047"/>
       <use xlink:href="#DejaVuSans-32" x="127.246094"/>
       <use xlink:href="#DejaVuSans-32" x="190.869141"/>
       <use xlink:href="#DejaVuSans-2d" x="254.492188"/>
       <use xlink:href="#DejaVuSans-30" x="290.576172"/>
       <use xlink:href="#DejaVuSans-37" x="354.199219"/>
      </g>
     </g>
    </g>
   </g>
   <g id="matplotlib.axis_2">
    <g id="ytick_1">
     <g id="line2d_12">
      <defs>
       <path id="mb3e0b82329" d="M 0 0 
L -3.5 0 
" style="stroke: #000000; stroke-width: 0.8"/>
      </defs>
      <g>
       <use xlink:href="#mb3e0b82329" x="54.392188" y="361.51388" style="stroke: #000000; stroke-width: 0.8"/>
      </g>
     </g>
     <g id="text_12">
      <!-- −10000 -->
      <g transform="translate(7.2 365.313099)scale(0.1 -0.1)">
       <defs>
        <path id="DejaVuSans-2212" d="M 678 2272 
L 4684 2272 
L 4684 1741 
L 678 1741 
L 678 2272 
z
" transform="scale(0.015625)"/>
       </defs>
       <use xlink:href="#DejaVuSans-2212"/>
       <use xlink:href="#DejaVuSans-31" x="83.789062"/>
       <use xlink:href="#DejaVuSans-30" x="147.412109"/>
       <use xlink:href="#DejaVuSans-30" x="211.035156"/>
       <use xlink:href="#DejaVuSans-30" x="274.658203"/>
       <use xlink:href="#DejaVuSans-30" x="338.28125"/>
      </g>
     </g>
    </g>
    <g id="ytick_2">
     <g id="line2d_13">
      <g>
       <use xlink:href="#mb3e0b82329" x="54.392188" y="319.352261" style="stroke: #000000; stroke-width: 0.8"/>
      </g>
     </g>
     <g id="text_13">
      <!-- 0 -->
      <g transform="translate(41.029688 323.15148)scale(0.1 -0.1)">
       <use xlink:href="#DejaVuSans-30"/>
      </g>
     </g>
    </g>
    <g id="ytick_3">
     <g id="line2d_14">
      <g>
       <use xlink:href="#mb3e0b82329" x="54.392188" y="277.190641" style="stroke: #000000; stroke-width: 0.8"/>
      </g>
     </g>
     <g id="text_14">
      <!-- 10000 -->
      <g transform="translate(15.579688 280.98986)scale(0.1 -0.1)">
       <use xlink:href="#DejaVuSans-31"/>
       <use xlink:href="#DejaVuSans-30" x="63.623047"/>
       <use xlink:href="#DejaVuSans-30" x="127.246094"/>
       <use xlink:href="#DejaVuSans-30" x="190.869141"/>
       <use xlink:href="#DejaVuSans-30" x="254.492188"/>
      </g>
     </g>
    </g>
    <g id="ytick_4">
     <g id="line2d_15">
      <g>
       <use xlink:href="#mb3e0b82329" x="54.392188" y="235.029022" style="stroke: #000000; stroke-width: 0.8"/>
      </g>
     </g>
     <g id="text_15">
      <!-- 20000 -->
      <g transform="translate(15.579688 238.828241)scale(0.1 -0.1)">
       <use xlink:href="#DejaVuSans-32"/>
       <use xlink:href="#DejaVuSans-30" x="63.623047"/>
       <use xlink:href="#DejaVuSans-30" x="127.246094"/>
       <use xlink:href="#DejaVuSans-30" x="190.869141"/>
       <use xlink:href="#DejaVuSans-30" x="254.492188"/>
      </g>
     </g>
    </g>
    <g id="ytick_5">
     <g id="line2d_16">
      <g>
       <use xlink:href="#mb3e0b82329" x="54.392188" y="192.867402" style="stroke: #000000; stroke-width: 0.8"/>
      </g>
     </g>
     <g id="text_16">
      <!-- 30000 -->
      <g transform="translate(15.579688 196.666621)scale(0.1 -0.1)">
       <defs>
        <path id="DejaVuSans-33" d="M 2597 2516 
Q 3050 2419 3304 2112 
Q 3559 1806 3559 1356 
Q 3559 666 3084 287 
Q 2609 -91 1734 -91 
Q 1441 -91 1130 -33 
Q 819 25 488 141 
L 488 750 
Q 750 597 1062 519 
Q 1375 441 1716 441 
Q 2309 441 2620 675 
Q 2931 909 2931 1356 
Q 2931 1769 2642 2001 
Q 2353 2234 1838 2234 
L 1294 2234 
L 1294 2753 
L 1863 2753 
Q 2328 2753 2575 2939 
Q 2822 3125 2822 3475 
Q 2822 3834 2567 4026 
Q 2313 4219 1838 4219 
Q 1578 4219 1281 4162 
Q 984 4106 628 3988 
L 628 4550 
Q 988 4650 1302 4700 
Q 1616 4750 1894 4750 
Q 2613 4750 3031 4423 
Q 3450 4097 3450 3541 
Q 3450 3153 3228 2886 
Q 3006 2619 2597 2516 
z
" transform="scale(0.015625)"/>
       </defs>
       <use xlink:href="#DejaVuSans-33"/>
       <use xlink:href="#DejaVuSans-30" x="63.623047"/>
       <use xlink:href="#DejaVuSans-30" x="127.246094"/>
       <use xlink:href="#DejaVuSans-30" x="190.869141"/>
       <use xlink:href="#DejaVuSans-30" x="254.492188"/>
      </g>
     </g>
    </g>
    <g id="ytick_6">
     <g id="line2d_17">
      <g>
       <use xlink:href="#mb3e0b82329" x="54.392188" y="150.705783" style="stroke: #000000; stroke-width: 0.8"/>
      </g>
     </g>
     <g id="text_17">
      <!-- 40000 -->
      <g transform="translate(15.579688 154.505002)scale(0.1 -0.1)">
       <use xlink:href="#DejaVuSans-34"/>
       <use xlink:href="#DejaVuSans-30" x="63.623047"/>
       <use xlink:href="#DejaVuSans-30" x="127.246094"/>
       <use xlink:href="#DejaVuSans-30" x="190.869141"/>
       <use xlink:href="#DejaVuSans-30" x="254.492188"/>
      </g>
     </g>
    </g>
    <g id="ytick_7">
     <g id="line2d_18">
      <g>
       <use xlink:href="#mb3e0b82329" x="54.392188" y="108.544163" style="stroke: #000000; stroke-width: 0.8"/>
      </g>
     </g>
     <g id="text_18">
      <!-- 50000 -->
      <g transform="translate(15.579688 112.343382)scale(0.1 -0.1)">
       <defs>
        <path id="DejaVuSans-35" d="M 691 4666 
L 3169 4666 
L 3169 4134 
L 1269 4134 
L 1269 2991 
Q 1406 3038 1543 3061 
Q 1681 3084 1819 3084 
Q 2600 3084 3056 2656 
Q 3513 2228 3513 1497 
Q 3513 744 3044 326 
Q 2575 -91 1722 -91 
Q 1428 -91 1123 -41 
Q 819 9 494 109 
L 494 744 
Q 775 591 1075 516 
Q 1375 441 1709 441 
Q 2250 441 2565 725 
Q 2881 1009 2881 1497 
Q 2881 1984 2565 2268 
Q 2250 2553 1709 2553 
Q 1456 2553 1204 2497 
Q 953 2441 691 2322 
L 691 4666 
z
" transform="scale(0.015625)"/>
       </defs>
       <use xlink:href="#DejaVuSans-35"/>
       <use xlink:href="#DejaVuSans-30" x="63.623047"/>
       <use xlink:href="#DejaVuSans-30" x="127.246094"/>
       <use xlink:href="#DejaVuSans-30" x="190.869141"/>
       <use xlink:href="#DejaVuSans-30" x="254.492188"/>
      </g>
     </g>
    </g>
    <g id="ytick_8">
     <g id="line2d_19">
      <g>
       <use xlink:href="#mb3e0b82329" x="54.392188" y="66.382544" style="stroke: #000000; stroke-width: 0.8"/>
      </g>
     </g>
     <g id="text_19">
      <!-- 60000 -->
      <g transform="translate(15.579688 70.181762)scale(0.1 -0.1)">
       <defs>
        <path id="DejaVuSans-36" d="M 2113 2584 
Q 1688 2584 1439 2293 
Q 1191 2003 1191 1497 
Q 1191 994 1439 701 
Q 1688 409 2113 409 
Q 2538 409 2786 701 
Q 3034 994 3034 1497 
Q 3034 2003 2786 2293 
Q 2538 2584 2113 2584 
z
M 3366 4563 
L 3366 3988 
Q 3128 4100 2886 4159 
Q 2644 4219 2406 4219 
Q 1781 4219 1451 3797 
Q 1122 3375 1075 2522 
Q 1259 2794 1537 2939 
Q 1816 3084 2150 3084 
Q 2853 3084 3261 2657 
Q 3669 2231 3669 1497 
Q 3669 778 3244 343 
Q 2819 -91 2113 -91 
Q 1303 -91 875 529 
Q 447 1150 447 2328 
Q 447 3434 972 4092 
Q 1497 4750 2381 4750 
Q 2619 4750 2861 4703 
Q 3103 4656 3366 4563 
z
" transform="scale(0.015625)"/>
       </defs>
       <use xlink:href="#DejaVuSans-36"/>
       <use xlink:href="#DejaVuSans-30" x="63.623047"/>
       <use xlink:href="#DejaVuSans-30" x="127.246094"/>
       <use xlink:href="#DejaVuSans-30" x="190.869141"/>
       <use xlink:href="#DejaVuSans-30" x="254.492188"/>
      </g>
     </g>
    </g>
   </g>
   <g id="line2d_20">
    <path d="M 115.264915 319.343829 
L 150.917054 319.352261 
L 177.326047 319.263722 
L 178.646496 319.086643 
L 179.966946 319.095075 
L 181.287396 318.943293 
L 182.607845 319.069778 
L 186.569194 318.702972 
L 187.889644 318.327734 
L 189.210093 318.289788 
L 190.530543 317.906117 
L 191.850992 317.231531 
L 193.171442 317.425475 
L 194.491892 316.62862 
L 195.812341 316.405164 
L 197.132791 316.9364 
L 198.453241 315.384853 
L 199.77369 315.688416 
L 201.09414 315.43123 
L 202.414589 315.405933 
L 203.735039 314.157949 
L 205.055489 314.153733 
L 206.375938 313.820656 
L 207.696388 312.104679 
L 209.016837 313.736333 
L 210.337287 313.719469 
L 211.657737 314.339244 
L 212.978186 313.023802 
L 214.298636 313.500228 
L 215.619086 314.141085 
L 216.939535 313.533957 
L 218.259985 314.528972 
L 219.580434 313.550822 
L 220.900884 313.694172 
L 222.221334 311.775818 
L 223.541783 312.231163 
L 224.862233 311.986626 
L 226.182682 311.906519 
L 227.503132 310.388701 
L 228.823582 312.918398 
L 230.144031 312.184786 
L 231.464481 312.134192 
L 232.784931 312.648563 
L 234.10538 311.569226 
L 235.42583 311.725224 
L 236.746279 312.437755 
L 238.066729 312.682293 
L 239.387179 314.246489 
L 240.707628 312.370297 
L 242.028078 312.931046 
L 243.348527 312.231163 
L 244.668977 312.441971 
L 245.989427 311.716792 
L 247.309876 313.635145 
L 248.630326 314.044113 
L 249.950776 313.550822 
L 251.271225 313.470715 
L 252.591675 312.960559 
L 253.912124 313.993519 
L 257.873473 314.975885 
L 259.193923 315.034911 
L 261.834822 314.17903 
L 263.155272 314.672321 
L 264.475721 313.993519 
L 265.796171 314.482594 
L 267.116621 314.259137 
L 268.43707 314.773509 
L 269.75752 315.127667 
L 271.077969 314.056762 
L 272.398419 314.65124 
L 273.718869 314.756644 
L 275.039318 315.528202 
L 276.359768 315.334259 
L 277.680217 315.287881 
L 279.000667 316.118465 
L 280.321117 315.620958 
L 281.641566 316.034141 
L 282.962016 314.845184 
L 284.282466 316.139546 
L 285.602915 316.274463 
L 286.923365 315.996196 
L 288.243814 316.708727 
L 289.564264 316.476838 
L 290.884714 316.898455 
L 292.205163 317.130344 
L 293.525613 317.142992 
L 294.846062 317.615202 
L 296.166512 317.450772 
L 297.486962 317.522447 
L 298.807411 317.286342 
L 300.127861 317.615202 
L 301.448311 317.40861 
L 302.76876 317.91455 
L 304.08921 318.07898 
L 305.409659 317.762768 
L 306.730109 317.838659 
L 309.371008 317.640499 
L 310.691458 317.71639 
L 312.011907 318.02417 
L 313.332357 318.053683 
L 314.652807 317.855523 
L 315.973256 318.011521 
L 317.293706 318.003089 
L 318.614156 318.112709 
L 319.934605 317.973576 
L 321.255055 317.657364 
L 322.575504 318.032602 
L 323.895954 318.104277 
L 325.216404 317.944063 
L 326.536853 318.416273 
L 327.857303 317.88082 
L 329.177752 318.011521 
L 331.818652 318.690323 
L 333.139101 317.868172 
L 334.459551 318.032602 
L 338.4209 317.885037 
L 339.741349 318.340382 
L 341.061799 318.450002 
L 342.382249 317.067101 
L 343.702698 317.556176 
L 345.023148 317.640499 
L 346.343597 317.320071 
L 347.664047 317.121911 
L 350.304946 318.285572 
L 351.625396 316.000412 
L 352.945846 317.412826 
L 354.266295 317.741687 
L 355.586745 316.249166 
L 356.907194 317.509798 
L 358.227644 317.935631 
L 359.548094 318.057899 
L 360.868543 316.691863 
L 362.188993 317.762768 
L 363.509442 317.239964 
L 364.829892 317.471853 
L 366.150342 317.446556 
L 367.470791 318.281356 
L 368.791241 318.576487 
L 370.111691 318.226546 
L 371.43214 316.447325 
L 372.75259 317.842875 
L 374.073039 317.948279 
L 375.393489 317.488717 
L 376.713939 318.344598 
L 378.034388 318.412057 
L 379.354838 316.894238 
L 380.675287 317.82601 
L 381.995737 317.948279 
L 383.316187 317.269477 
L 384.636636 317.615202 
L 385.957086 318.466867 
L 387.277536 318.614433 
L 388.597985 318.492164 
L 389.918435 315.545067 
L 391.238884 317.855523 
L 392.559334 318.315085 
L 393.879784 316.379867 
L 395.200233 318.49638 
L 396.520683 318.24341 
L 397.841132 316.228085 
L 399.161582 317.788065 
L 400.482032 317.311639 
L 401.802481 317.349584 
L 403.122931 316.982778 
L 404.443381 317.973576 
L 405.76383 318.180168 
L 407.08428 314.996966 
L 408.404729 317.088182 
L 409.725179 316.961697 
L 411.045629 316.603323 
L 412.366078 316.66235 
L 413.686528 317.750119 
L 415.006977 317.535095 
L 416.327427 317.594121 
L 417.647877 313.120774 
L 418.968326 317.218883 
L 420.288776 315.21199 
L 422.929675 316.658133 
L 424.250125 316.923752 
L 425.570574 313.748982 
L 426.891024 315.43123 
L 428.211474 315.119234 
L 429.531923 314.65124 
L 430.852373 313.951357 
L 432.172822 315.279448 
L 433.493272 315.414366 
L 434.813722 312.269109 
L 436.134171 314.238056 
L 437.454621 313.34423 
L 438.775071 313.323149 
L 440.09552 311.788466 
L 442.736419 313.205097 
L 444.056869 310.064056 
L 445.377319 311.206636 
L 446.697768 310.831398 
L 448.018218 311.409012 
L 449.338667 310.215838 
L 450.659117 311.9276 
L 451.979567 312.349216 
L 453.300016 309.153365 
L 454.620466 310.249567 
L 455.940916 310.464592 
L 457.261365 309.22504 
L 458.581815 309.001583 
L 459.902264 311.957113 
L 461.222714 311.354202 
L 462.543164 312.922614 
L 463.863613 304.722179 
L 465.184063 308.647426 
L 467.824962 309.064826 
L 469.145412 311.834844 
L 470.465861 311.20242 
L 471.786311 306.109296 
L 473.106761 308.908828 
L 474.42721 308.141486 
L 475.74766 308.60948 
L 477.068109 306.261078 
L 478.388559 310.860911 
L 479.709009 311.215068 
L 481.029458 301.517896 
L 482.349908 307.762032 
L 483.670357 307.226579 
L 484.990807 306.889286 
L 486.311257 304.903474 
L 487.631706 309.562333 
L 488.952156 308.740181 
L 490.272606 305.422062 
L 491.593055 299.44776 
L 492.913505 307.298254 
L 494.233954 302.318967 
L 495.554404 299.076738 
L 496.874854 301.517896 
L 498.195303 302.689989 
L 499.515753 298.731013 
L 500.836202 299.785053 
L 502.156652 301.981674 
L 503.477102 296.201316 
L 506.118001 301.286007 
L 507.438451 302.044916 
L 508.7589 294.822631 
L 510.07935 300.704177 
L 512.720249 298.208209 
L 514.040699 297.963671 
L 515.361148 298.992415 
L 516.681598 299.814566 
L 518.002047 290.800412 
L 519.322497 296.458502 
L 521.963396 294.63712 
L 523.283846 294.607606 
L 524.604296 295.809213 
L 525.924745 296.36153 
L 527.245195 286.997434 
L 528.565644 294.898522 
L 529.886094 292.503742 
L 531.206544 291.82494 
L 532.526993 290.585388 
L 533.847443 293.283732 
L 535.167892 294.346204 
L 536.488342 286.402955 
L 537.808792 292.954871 
L 539.129241 292.520606 
L 540.449691 291.677374 
L 541.770141 289.763236 
L 543.09059 293.317461 
L 544.41104 294.089018 
L 545.731489 283.325157 
L 547.051939 292.575416 
L 548.372389 290.606469 
L 549.692838 288.215905 
L 551.013288 289.021192 
L 552.333737 293.325893 
L 553.654187 293.764374 
L 554.974637 287.191378 
L 556.295086 291.84602 
L 557.615536 291.150354 
L 558.935986 292.566984 
L 560.256435 294.375718 
L 561.576885 296.681958 
L 562.897334 295.977859 
L 564.217784 292.916925 
L 565.538234 279.699258 
L 566.858683 286.828788 
L 569.499582 292.651307 
L 570.820032 294.839495 
L 572.140482 278.771702 
L 573.460931 278.383815 
L 574.781381 287.612994 
L 576.101831 281.782042 
L 577.42228 280.43287 
L 578.74273 281.870581 
L 580.063179 290.302905 
L 581.383629 292.35196 
L 582.704079 288.068339 
L 584.024528 290.669711 
L 585.344978 289.455456 
L 587.985877 290.054151 
L 589.306327 294.894305 
L 590.626776 298.760526 
L 591.947226 293.865562 
L 593.267676 296.939144 
L 594.588125 294.755172 
L 595.908575 294.717227 
L 597.229024 295.455055 
L 598.549474 301.214332 
L 599.869924 302.740583 
L 601.190373 296.787362 
L 602.510823 300.95293 
L 603.831272 300.586124 
L 605.151722 299.772405 
L 606.472172 299.586894 
L 607.792621 303.739813 
L 609.113071 305.847894 
L 610.433521 302.441235 
L 611.75397 304.047593 
L 613.07442 304.169862 
L 614.394869 302.786961 
L 615.715319 302.639395 
L 617.035769 306.826044 
L 618.356218 308.482995 
L 619.676668 304.570397 
L 620.997117 306.923015 
L 622.317567 304.136132 
L 623.638017 305.118498 
L 624.958466 305.396765 
L 626.278916 308.723317 
L 627.599366 310.034543 
L 628.919815 311.054854 
L 630.240265 302.580369 
L 631.560714 307.289822 
L 632.881164 304.806502 
L 634.201614 306.092432 
L 635.522063 308.504076 
L 636.842513 309.199743 
L 638.162962 304.283698 
L 639.483412 306.606803 
L 640.803862 306.455021 
L 642.124311 306.058702 
L 643.444761 306.218916 
L 644.765211 308.803424 
L 646.08566 310.342323 
L 647.40611 304.5451 
L 648.726559 306.476102 
L 650.047009 306.906151 
L 651.367459 305.696112 
L 652.687908 305.375684 
L 654.008358 308.162567 
L 655.328807 309.364173 
L 656.649257 303.474195 
L 657.969707 306.573074 
L 659.290156 305.818381 
L 660.610606 304.857096 
L 661.931056 303.453114 
L 663.251505 307.479549 
L 664.571955 309.220824 
L 665.892404 302.972472 
L 667.212854 304.68845 
L 668.533304 304.047593 
L 669.853753 302.795393 
L 671.174203 301.024605 
L 672.494652 305.358819 
L 673.815102 306.252646 
L 675.135552 297.904645 
L 676.456001 302.302102 
L 677.776451 298.2841 
L 679.096901 297.567352 
L 680.41735 295.695376 
L 681.7378 301.973241 
L 683.058249 302.369561 
L 684.378699 291.487647 
L 685.699149 297.284869 
L 687.019598 291.871317 
L 688.340048 292.562768 
L 689.660497 299.877809 
L 690.980947 294.215503 
L 692.301397 300.881255 
L 693.621846 287.663588 
L 694.942296 272.219786 
L 696.262746 284.965244 
L 697.583195 281.933824 
L 698.903645 280.593084 
L 700.224094 285.770531 
L 701.544544 289.059137 
L 702.864994 275.626445 
L 704.185443 284.796598 
L 705.505893 279.87212 
L 706.826342 278.219385 
L 708.146792 284.493034 
L 709.467242 286.348145 
L 710.787691 289.03384 
L 712.108141 278.860242 
L 713.428591 286.031933 
L 714.74904 284.712274 
L 716.06949 281.26767 
L 717.389939 284.670113 
L 718.710389 289.063353 
L 720.030839 291.521376 
L 721.351288 282.899325 
L 722.671738 287.718398 
L 723.992188 284.488818 
L 725.312637 284.113579 
L 726.633087 285.766315 
L 727.953536 286.609547 
L 729.273986 293.469243 
L 730.594436 284.294874 
L 731.914885 290.256527 
L 733.235335 286.807707 
L 734.555784 285.273024 
L 735.876234 286.69387 
L 737.196684 292.035748 
L 738.517133 296.015805 
L 739.837583 290.087881 
L 741.158033 293.709564 
L 742.478482 291.466566 
L 743.798932 292.5712 
L 745.119381 294.004695 
L 746.439831 299.144197 
L 747.760281 301.353466 
L 749.08073 298.30518 
L 750.40118 300.881255 
L 751.721629 298.313613 
L 753.042079 300.472288 
L 754.362529 300.501801 
L 755.682978 304.882393 
L 757.003428 307.416306 
L 758.323878 309.347309 
L 759.644327 304.608343 
L 760.964777 307.331983 
L 762.285226 306.594155 
L 763.605676 306.93988 
L 764.926126 309.452713 
L 766.246575 311.543929 
L 767.567025 309.448496 
L 768.887474 311.636685 
L 770.207924 310.093569 
L 771.528374 310.266432 
L 774.169273 313.023802 
L 775.489723 314.343461 
L 776.810172 313.184016 
L 778.130622 313.559254 
L 779.451071 312.720238 
L 780.771521 313.28942 
L 782.091971 313.664658 
L 783.41242 314.453081 
L 784.73287 315.46496 
L 786.053319 314.916859 
L 787.373769 315.262584 
L 788.694219 315.060208 
L 790.014668 314.722915 
L 791.335118 315.182477 
L 792.655568 316.219653 
L 793.976017 316.742457 
L 795.296467 316.468406 
L 796.616916 316.603323 
L 797.937366 316.363002 
L 799.257816 316.367218 
L 800.578265 316.66235 
L 803.219164 317.653148 
L 804.539614 316.350354 
L 807.180513 317.033372 
L 808.500963 318.1886 
L 809.821413 316.586459 
L 811.141862 317.729039 
L 812.462312 318.116925 
L 813.782761 316.9364 
L 815.103211 317.644715 
L 816.423661 316.99121 
L 817.74411 317.147208 
L 819.06456 317.10083 
L 820.385009 317.889253 
L 821.705459 318.218113 
L 823.025909 317.438123 
L 824.346358 317.813362 
L 825.666808 317.986224 
L 826.987258 317.467637 
L 828.307707 317.809146 
L 829.628157 317.889253 
L 830.948606 318.125358 
L 832.269056 316.970129 
L 833.589506 317.855523 
L 834.909955 317.083966 
L 836.230405 317.691093 
L 837.550854 316.843645 
L 838.871304 317.775416 
L 840.191754 318.112709 
L 841.512203 315.372204 
L 842.832653 316.847861 
L 844.153103 315.798036 
L 845.473552 315.427014 
L 846.794002 315.536634 
L 848.114451 317.362232 
L 849.434901 317.750119 
L 850.755351 317.935631 
L 852.0758 310.793452 
L 853.39625 314.743996 
L 854.716699 312.648563 
L 856.037149 312.500998 
L 857.357599 316.32084 
L 858.678048 316.278679 
L 859.998498 307.306686 
L 861.318948 313.377959 
L 862.639397 310.58686 
L 863.959847 310.236919 
L 865.280296 309.073258 
L 866.600746 314.832535 
L 867.921196 315.435446 
L 869.241645 302.837555 
L 870.562095 311.029557 
L 871.882544 308.407104 
L 873.202994 307.116959 
L 874.523444 306.57729 
L 875.843893 313.1798 
L 877.164343 314.330812 
L 878.484793 299.080954 
L 879.805242 308.849801 
L 881.125692 304.717963 
L 882.446141 304.368021 
L 883.766591 303.465763 
L 885.087041 312.285973 
L 886.40749 313.306285 
L 887.72794 292.410986 
L 889.048389 305.894272 
L 890.368839 302.487613 
L 891.689289 302.234643 
L 893.009738 301.53476 
L 894.330188 312.129975 
L 895.650638 311.758953 
L 896.971087 313.011153 
L 898.291537 281.10324 
L 899.611986 302.753231 
L 900.932436 301.517896 
L 902.252886 299.763972 
L 903.573335 314.59643 
L 904.893785 307.576521 
L 906.214234 282.713814 
L 907.534684 301.2059 
L 910.175583 299.801918 
L 911.496033 298.060643 
L 912.816483 310.928369 
L 914.136932 311.691495 
L 915.457382 283.236618 
L 916.777831 303.031498 
L 918.098281 301.909999 
L 919.418731 300.075968 
L 920.73918 300.265696 
L 922.05963 314.06941 
L 923.380079 314.663889 
L 924.700529 273.602688 
L 926.020979 304.060242 
L 927.341428 300.725257 
L 928.661878 303.550086 
L 929.982328 297.461948 
L 931.302777 311.459606 
L 932.623227 313.1798 
L 933.943676 285.989771 
L 935.264126 307.0495 
L 936.584576 303.141118 
L 937.905025 301.863621 
L 939.225475 302.006971 
L 940.545924 311.952897 
L 943.186824 313.54239 
L 944.507273 289.678913 
L 945.827723 307.905381 
L 947.148173 305.207038 
L 948.468622 304.840231 
L 949.789072 312.614834 
L 951.109521 313.90498 
L 952.429971 296.69039 
L 953.750421 309.64244 
L 955.07087 307.597601 
L 956.39132 307.251876 
L 957.711769 308.495644 
L 959.032219 311.855925 
L 960.352669 313.044883 
L 961.673118 305.367252 
L 962.993568 311.636685 
L 964.314018 308.149919 
L 965.634467 308.145702 
L 966.954917 308.668507 
L 968.275366 311.813763 
L 969.595816 312.7624 
L 970.916266 306.691127 
L 972.236715 311.118097 
L 973.557165 309.246121 
L 974.877614 308.052947 
L 976.198064 308.512509 
L 977.518514 313.314717 
L 978.838963 314.153733 
L 980.159413 300.295209 
L 981.479863 308.790775 
L 982.800312 307.850571 
L 984.120762 312.530511 
L 985.441211 303.212793 
L 986.761661 313.049099 
L 988.082111 313.867034 
L 989.40256 302.377993 
L 990.72301 310.468808 
L 992.043459 308.33543 
L 993.363909 307.386793 
L 994.684359 307.736735 
L 996.004808 311.484903 
L 997.325258 313.154503 
L 998.645708 301.791946 
L 999.966157 309.326228 
L 1001.286607 307.559656 
L 1002.607056 300.813797 
L 1003.927506 306.598371 
L 1005.247956 310.068272 
L 1006.568405 312.041436 
L 1007.888855 303.440466 
L 1009.209304 308.314349 
L 1010.529754 304.945636 
L 1011.850204 305.093201 
L 1013.170653 304.022296 
L 1014.491103 308.293268 
L 1015.811553 309.612927 
L 1017.132002 299.59111 
L 1018.452452 305.628654 
L 1019.772901 302.753231 
L 1021.093351 300.312074 
L 1022.413801 306.345401 
L 1023.73425 295.138843 
L 1025.0547 304.464993 
L 1026.375149 293.621025 
L 1027.695599 297.259572 
L 1029.016049 289.076002 
L 1030.336498 285.94761 
L 1031.656948 277.11475 
L 1032.977398 284.341252 
L 1034.297847 283.995527 
L 1035.618297 254.212559 
L 1036.938746 259.731515 
L 1038.259196 239.6668 
L 1039.579646 209.879616 
L 1040.900095 213.172438 
L 1042.220545 239.135564 
L 1043.540994 242.727734 
L 1044.861444 224.960827 
L 1046.181894 200.941352 
L 1047.502343 87.210384 
L 1048.822793 138.25124 
L 1050.143243 138.327131 
L 1051.463692 180.168322 
L 1052.784142 192.917996 
L 1054.104591 166.217043 
L 1055.425041 111.63461 
L 1056.745491 151.047292 
L 1058.06594 142.783614 
L 1059.38639 127.554837 
L 1060.706839 196.948647 
L 1062.027289 208.585254 
L 1063.347739 72.871217 
L 1064.668188 180.847125 
L 1065.988638 172.322045 
L 1067.309088 186.176353 
L 1068.629537 148.55554 
L 1069.949987 242.84157 
L 1071.270436 254.941955 
L 1072.590886 144.773643 
L 1073.911336 231.386258 
L 1075.231785 220.390508 
L 1076.552235 222.523885 
L 1077.872684 229.999141 
L 1079.193134 261.240901 
L 1080.513584 297.14152 
L 1081.834033 237.086509 
L 1083.154483 197.222698 
L 1084.474933 287.081757 
L 1085.795382 199.613261 
L 1087.115832 249.621158 
L 1088.436281 283.784719 
L 1089.756731 288.61644 
L 1091.077181 229.628118 
L 1092.39763 269.023936 
L 1093.71808 254.625743 
L 1095.038529 263.816976 
L 1096.358979 264.128972 
L 1097.679429 291.42862 
L 1098.999878 296.572338 
L 1100.320328 251.682862 
L 1101.640778 277.021995 
L 1102.961227 275.820389 
L 1104.281677 275.584284 
L 1105.602126 288.140014 
L 1106.922576 277.848363 
L 1108.243026 304.110835 
L 1109.563475 267.961463 
L 1110.883925 292.132719 
L 1112.204374 286.651709 
L 1113.524824 289.016976 
L 1114.845274 290.905816 
L 1116.165723 304.410183 
L 1117.486173 309.031096 
L 1118.806623 303.933757 
L 1120.127072 285.660911 
L 1121.447522 277.98328 
L 1122.767971 295.062952 
L 1124.088421 282.958351 
L 1125.408871 311.712575 
L 1126.72932 304.241536 
L 1128.04977 285.964474 
L 1129.370219 297.807673 
L 1130.690669 294.422095 
L 1132.011119 284.126228 
L 1133.331568 279.286074 
L 1134.652018 305.873191 
L 1135.972468 308.33543 
L 1137.292917 283.704612 
L 1138.613367 301.84254 
L 1139.933816 290.931113 
L 1141.254266 295.712241 
L 1142.574716 285.378428 
L 1143.895165 311.661982 
L 1145.215615 313.479147 
L 1146.536064 300.286777 
L 1147.856514 281.276102 
L 1149.176964 297.048764 
L 1150.497413 301.648597 
L 1151.817863 305.27028 
L 1153.138313 306.674262 
L 1154.458762 309.853248 
L 1155.779212 284.977893 
L 1157.099661 279.442072 
L 1158.420111 290.581172 
L 1159.740561 289.615671 
L 1161.06101 281.642908 
L 1162.38146 300.910769 
L 1163.701909 303.946405 
L 1165.022359 293.422865 
L 1166.342809 274.825375 
L 1167.663258 273.075667 
L 1168.983708 282.287981 
L 1170.304158 266.776721 
L 1171.624607 289.780101 
L 1172.945057 308.470347 
L 1174.265506 316.99121 
L 1175.585956 281.811555 
L 1176.906406 279.079482 
L 1178.226855 293.975182 
L 1179.547305 319.352261 
L 1180.867754 253.719268 
L 1182.188204 319.352261 
L 1183.508654 318.795728 
L 1184.829103 319.352261 
L 1186.149553 50.8755 
L 1187.470003 239.477073 
L 1188.790452 353.2755 
L 1190.110902 248.997166 
L 1191.431351 311.181339 
L 1192.751801 268.867938 
L 1194.072251 286.074095 
L 1195.3927 262.716557 
L 1196.71315 275.019318 
L 1198.033599 246.454821 
L 1199.354049 299.321275 
L 1200.674499 299.717595 
L 1201.994948 302.980904 
L 1203.315398 287.351592 
L 1204.635848 264.183782 
L 1205.956297 283.527533 
L 1207.276747 267.792816 
L 1208.597196 304.781205 
L 1209.917646 308.310133 
L 1211.238096 308.111973 
L 1212.558545 295.927265 
L 1213.878995 273.826144 
L 1215.199444 289.253081 
L 1216.519894 281.533288 
L 1217.840344 308.988935 
L 1219.160793 310.31281 
L 1220.481243 310.198973 
L 1221.801693 300.851742 
L 1223.122142 284.746004 
L 1224.442592 296.226613 
L 1225.763041 286.588466 
L 1227.083491 315.987764 
L 1228.403941 316.679214 
L 1229.72439 315.245719 
L 1231.04484 292.672388 
L 1232.365289 293.882427 
L 1233.685739 300.674663 
L 1235.006189 294.759388 
L 1236.326638 313.521309 
L 1237.647088 314.735564 
L 1238.967538 317.935631 
L 1240.287987 310.688048 
L 1241.608437 300.17294 
L 1242.928886 303.385656 
L 1244.249336 297.133087 
L 1245.569786 314.335028 
L 1246.890235 315.220422 
L 1248.210685 315.498689 
L 1249.531134 310.810317 
L 1250.851584 300.328938 
L 1252.172034 306.336969 
L 1253.492483 304.595694 
L 1254.812933 312.353432 
L 1256.133383 315.675768 
L 1257.453832 315.6842 
L 1258.774282 306.973609 
L 1260.094731 303.575383 
L 1261.415181 309.596062 
L 1262.735631 299.266465 
L 1264.05608 302.833338 
L 1265.37653 313.361095 
L 1266.696979 315.726362 
L 1268.017429 309.161797 
L 1269.337879 309.570765 
L 1270.658328 307.656628 
L 1271.978778 311.944464 
L 1273.299228 304.680017 
L 1274.619677 319.352261 
L 1275.940127 313.985087 
L 1277.260576 309.106987 
L 1278.581026 306.817611 
L 1279.901476 299.249601 
L 1281.221925 309.760492 
L 1282.542375 304.684233 
L 1283.862824 316.476838 
L 1285.183274 315.671552 
L 1286.503724 304.869745 
L 1287.824173 308.310133 
L 1289.144623 293.368055 
L 1290.465073 313.327365 
L 1291.785522 302.310534 
L 1293.105972 315.448095 
L 1294.426421 317.952495 
L 1295.746871 294.059505 
L 1297.067321 314.988533 
L 1298.38777 282.389169 
L 1299.70822 304.317427 
L 1301.028669 313.196664 
L 1302.349119 314.836751 
L 1303.669569 314.996966 
L 1304.990018 305.282928 
L 1306.310468 298.385288 
L 1307.630918 243.043946 
L 1308.951367 295.501433 
L 1310.271817 310.987396 
L 1311.592266 319.352261 
L 1312.912716 319.246857 
L 1314.233166 273.906251 
L 1315.553615 302.023835 
L 1315.553615 302.023835 
" clip-path="url(#p6db723342a)" style="fill: none; stroke: #0000ff; stroke-width: 1.5; stroke-linecap: square"/>
   </g>
   <g id="line2d_21">
    <path d="M 1076.552235 199.828161 
L 1077.872684 249.05877 
L 1079.193134 259.087335 
L 1080.513584 215.152486 
L 1081.834033 256.362842 
L 1083.154483 244.811225 
L 1084.474933 263.998944 
L 1085.795382 234.979415 
L 1087.115832 274.544529 
L 1088.436281 279.495268 
L 1089.756731 240.1054 
L 1091.077181 243.515331 
L 1092.39763 277.390326 
L 1093.71808 243.630258 
L 1095.038529 266.15152 
L 1096.358979 283.857329 
L 1097.679429 295.94268 
L 1098.999878 258.653651 
L 1100.320328 272.802494 
L 1101.640778 280.678098 
L 1102.961227 269.655509 
L 1104.281677 277.712063 
L 1105.602126 297.002813 
L 1106.922576 298.679231 
L 1108.243026 273.018473 
L 1109.563475 282.573558 
L 1110.883925 287.281774 
L 1112.204374 282.011675 
L 1113.524824 292.021307 
L 1114.845274 296.313295 
L 1116.165723 309.156965 
L 1117.486173 284.044836 
L 1118.806623 302.620517 
L 1120.127072 297.61813 
L 1121.447522 297.690133 
L 1122.767971 299.472547 
L 1124.088421 298.612767 
L 1125.408871 306.798523 
L 1126.72932 291.143148 
L 1128.04977 293.206514 
L 1129.370219 291.846785 
L 1130.690669 295.920851 
L 1132.011119 291.552117 
L 1133.331568 302.436573 
L 1134.652018 302.445576 
L 1135.972468 289.659779 
L 1137.292917 292.159526 
L 1138.613367 293.889127 
L 1139.933816 291.094601 
L 1141.254266 290.842646 
L 1142.574716 302.353908 
L 1143.895165 306.153091 
L 1145.215615 293.500827 
L 1146.536064 302.946116 
L 1147.856514 295.678839 
L 1149.176964 299.905022 
L 1150.497413 291.889638 
L 1151.817863 307.416019 
L 1153.138313 307.860624 
L 1155.779212 296.151976 
L 1157.099661 297.044599 
L 1158.420111 295.571556 
L 1159.740561 290.844072 
L 1161.06101 294.81669 
L 1162.38146 297.506394 
L 1163.701909 285.1659 
L 1165.022359 284.179471 
L 1166.342809 288.056584 
L 1167.663258 288.238463 
L 1168.983708 283.704463 
L 1170.304158 286.491114 
L 1171.624607 288.320343 
L 1172.945057 280.882711 
L 1174.265506 279.797178 
L 1175.585956 283.068706 
L 1176.906406 292.44078 
L 1178.226855 287.93311 
L 1179.547305 302.693022 
L 1180.867754 296.990531 
L 1182.188204 309.449432 
L 1183.508654 288.526064 
L 1184.829103 295.269404 
L 1186.149553 255.711697 
L 1187.470003 282.035978 
L 1188.790452 238.442725 
L 1190.110902 247.066827 
L 1191.431351 272.550145 
L 1192.751801 273.318677 
L 1194.072251 203.478424 
L 1195.3927 270.804566 
L 1196.71315 305.395977 
L 1198.033599 265.479225 
L 1199.354049 308.403323 
L 1200.674499 279.878777 
L 1201.994948 289.588075 
L 1203.315398 244.369369 
L 1204.635848 284.4085 
L 1205.956297 289.80975 
L 1207.276747 287.63961 
L 1208.597196 305.301553 
L 1209.917646 295.899372 
L 1211.238096 296.319337 
L 1212.558545 270.623943 
L 1213.878995 293.249365 
L 1215.199444 290.375847 
L 1216.519894 300.236076 
L 1217.840344 308.40087 
L 1219.160793 304.417085 
L 1220.481243 301.337333 
L 1221.801693 283.429522 
L 1223.122142 298.054028 
L 1224.442592 294.263081 
L 1225.763041 306.352137 
L 1227.083491 311.671825 
L 1228.403941 309.609523 
L 1229.72439 306.554439 
L 1231.04484 291.972734 
L 1232.365289 303.808986 
L 1233.685739 296.095696 
L 1235.006189 310.628605 
L 1236.326638 312.593747 
L 1237.647088 312.076378 
L 1238.967538 304.209434 
L 1240.287987 300.138645 
L 1241.608437 306.908356 
L 1242.928886 303.731144 
L 1244.249336 315.139745 
L 1245.569786 315.697144 
L 1246.890235 314.85745 
L 1248.210685 308.503556 
L 1249.531134 303.509396 
L 1250.851584 306.720804 
L 1252.172034 303.692949 
L 1253.492483 314.026886 
L 1254.812933 314.19047 
L 1256.133383 315.08656 
L 1257.453832 310.752016 
L 1258.774282 304.565607 
L 1260.094731 308.219476 
L 1261.415181 305.825178 
L 1262.735631 311.253091 
L 1264.05608 311.756545 
L 1265.37653 311.839012 
L 1266.696979 306.257612 
L 1268.017429 303.040043 
L 1269.337879 308.461917 
L 1270.658328 304.607652 
L 1271.978778 311.250781 
L 1273.299228 313.163258 
L 1274.619677 316.680514 
L 1275.940127 310.709647 
L 1277.260576 310.041669 
L 1278.581026 310.08137 
L 1279.901476 307.570626 
L 1281.221925 307.604155 
L 1282.542375 311.194621 
L 1283.862824 311.260955 
L 1285.183274 308.253091 
L 1286.503724 307.087428 
L 1287.824173 306.441271 
L 1289.144623 306.425204 
L 1290.465073 306.76957 
L 1291.785522 309.507797 
L 1293.105972 311.06188 
L 1294.426421 306.791395 
L 1295.746871 305.579316 
L 1297.067321 303.948325 
L 1298.38777 304.70801 
L 1299.70822 303.012364 
L 1301.028669 308.280194 
L 1302.349119 308.776151 
L 1303.669569 301.860217 
L 1304.990018 310.736085 
L 1306.310468 296.877013 
L 1307.630918 298.028323 
L 1308.951367 299.921742 
L 1310.271817 295.774703 
L 1311.592266 297.727586 
L 1312.912716 296.014851 
L 1314.233166 297.28446 
L 1315.553615 281.251907 
L 1315.553615 281.251907 
" clip-path="url(#p6db723342a)" style="fill: none; stroke: #ffa500; stroke-width: 1.5; stroke-linecap: square"/>
   </g>
   <g id="line2d_22">
    <path d="M 1315.553615 281.251907 
L 1316.874065 297.030711 
L 1318.194514 301.341802 
L 1319.514964 305.640585 
L 1320.835414 306.673933 
L 1322.155863 289.50565 
L 1323.476313 298.224436 
L 1324.796763 281.889558 
L 1326.117212 295.868673 
L 1327.437662 299.515463 
L 1328.758111 302.62112 
L 1330.078561 302.952279 
L 1331.399011 290.148309 
L 1332.71946 296.807455 
" clip-path="url(#p6db723342a)" style="fill: none; stroke: #ff0000; stroke-width: 1.5; stroke-linecap: square"/>
   </g>
   <g id="patch_3">
    <path d="M 54.392188 368.3955 
L 54.392188 35.7555 
" style="fill: none; stroke: #000000; stroke-width: 0.8; stroke-linejoin: miter; stroke-linecap: square"/>
   </g>
   <g id="patch_4">
    <path d="M 1393.592188 368.3955 
L 1393.592188 35.7555 
" style="fill: none; stroke: #000000; stroke-width: 0.8; stroke-linejoin: miter; stroke-linecap: square"/>
   </g>
   <g id="patch_5">
    <path d="M 54.392188 368.3955 
L 1393.592188 368.3955 
" style="fill: none; stroke: #000000; stroke-width: 0.8; stroke-linejoin: miter; stroke-linecap: square"/>
   </g>
   <g id="patch_6">
    <path d="M 54.392188 35.7555 
L 1393.592188 35.7555 
" style="fill: none; stroke: #000000; stroke-width: 0.8; stroke-linejoin: miter; stroke-linecap: square"/>
   </g>
   <g id="text_20">
    <!-- Daily Confirmed Cases Forecasting - Canada -->
    <g transform="translate(590.66 16.318125)scale(0.12 -0.12)">
     <defs>
      <path id="DejaVuSans-44" d="M 1259 4147 
L 1259 519 
L 2022 519 
Q 2988 519 3436 956 
Q 3884 1394 3884 2338 
Q 3884 3275 3436 3711 
Q 2988 4147 2022 4147 
L 1259 4147 
z
M 628 4666 
L 1925 4666 
Q 3281 4666 3915 4102 
Q 4550 3538 4550 2338 
Q 4550 1131 3912 565 
Q 3275 0 1925 0 
L 628 0 
L 628 4666 
z
" transform="scale(0.015625)"/>
      <path id="DejaVuSans-61" d="M 2194 1759 
Q 1497 1759 1228 1600 
Q 959 1441 959 1056 
Q 959 750 1161 570 
Q 1363 391 1709 391 
Q 2188 391 2477 730 
Q 2766 1069 2766 1631 
L 2766 1759 
L 2194 1759 
z
M 3341 1997 
L 3341 0 
L 2766 0 
L 2766 531 
Q 2569 213 2275 61 
Q 1981 -91 1556 -91 
Q 1019 -91 701 211 
Q 384 513 384 1019 
Q 384 1609 779 1909 
Q 1175 2209 1959 2209 
L 2766 2209 
L 2766 2266 
Q 2766 2663 2505 2880 
Q 2244 3097 1772 3097 
Q 1472 3097 1187 3025 
Q 903 2953 641 2809 
L 641 3341 
Q 956 3463 1253 3523 
Q 1550 3584 1831 3584 
Q 2591 3584 2966 3190 
Q 3341 2797 3341 1997 
z
" transform="scale(0.015625)"/>
      <path id="DejaVuSans-69" d="M 603 3500 
L 1178 3500 
L 1178 0 
L 603 0 
L 603 3500 
z
M 603 4863 
L 1178 4863 
L 1178 4134 
L 603 4134 
L 603 4863 
z
" transform="scale(0.015625)"/>
      <path id="DejaVuSans-6c" d="M 603 4863 
L 1178 4863 
L 1178 0 
L 603 0 
L 603 4863 
z
" transform="scale(0.015625)"/>
      <path id="DejaVuSans-79" d="M 2059 -325 
Q 1816 -950 1584 -1140 
Q 1353 -1331 966 -1331 
L 506 -1331 
L 506 -850 
L 844 -850 
Q 1081 -850 1212 -737 
Q 1344 -625 1503 -206 
L 1606 56 
L 191 3500 
L 800 3500 
L 1894 763 
L 2988 3500 
L 3597 3500 
L 2059 -325 
z
" transform="scale(0.015625)"/>
      <path id="DejaVuSans-20" transform="scale(0.015625)"/>
      <path id="DejaVuSans-43" d="M 4122 4306 
L 4122 3641 
Q 3803 3938 3442 4084 
Q 3081 4231 2675 4231 
Q 1875 4231 1450 3742 
Q 1025 3253 1025 2328 
Q 1025 1406 1450 917 
Q 1875 428 2675 428 
Q 3081 428 3442 575 
Q 3803 722 4122 1019 
L 4122 359 
Q 3791 134 3420 21 
Q 3050 -91 2638 -91 
Q 1578 -91 968 557 
Q 359 1206 359 2328 
Q 359 3453 968 4101 
Q 1578 4750 2638 4750 
Q 3056 4750 3426 4639 
Q 3797 4528 4122 4306 
z
" transform="scale(0.015625)"/>
      <path id="DejaVuSans-6f" d="M 1959 3097 
Q 1497 3097 1228 2736 
Q 959 2375 959 1747 
Q 959 1119 1226 758 
Q 1494 397 1959 397 
Q 2419 397 2687 759 
Q 2956 1122 2956 1747 
Q 2956 2369 2687 2733 
Q 2419 3097 1959 3097 
z
M 1959 3584 
Q 2709 3584 3137 3096 
Q 3566 2609 3566 1747 
Q 3566 888 3137 398 
Q 2709 -91 1959 -91 
Q 1206 -91 779 398 
Q 353 888 353 1747 
Q 353 2609 779 3096 
Q 1206 3584 1959 3584 
z
" transform="scale(0.015625)"/>
      <path id="DejaVuSans-6e" d="M 3513 2113 
L 3513 0 
L 2938 0 
L 2938 2094 
Q 2938 2591 2744 2837 
Q 2550 3084 2163 3084 
Q 1697 3084 1428 2787 
Q 1159 2491 1159 1978 
L 1159 0 
L 581 0 
L 581 3500 
L 1159 3500 
L 1159 2956 
Q 1366 3272 1645 3428 
Q 1925 3584 2291 3584 
Q 2894 3584 3203 3211 
Q 3513 2838 3513 2113 
z
" transform="scale(0.015625)"/>
      <path id="DejaVuSans-66" d="M 2375 4863 
L 2375 4384 
L 1825 4384 
Q 1516 4384 1395 4259 
Q 1275 4134 1275 3809 
L 1275 3500 
L 2222 3500 
L 2222 3053 
L 1275 3053 
L 1275 0 
L 697 0 
L 697 3053 
L 147 3053 
L 147 3500 
L 697 3500 
L 697 3744 
Q 697 4328 969 4595 
Q 1241 4863 1831 4863 
L 2375 4863 
z
" transform="scale(0.015625)"/>
      <path id="DejaVuSans-72" d="M 2631 2963 
Q 2534 3019 2420 3045 
Q 2306 3072 2169 3072 
Q 1681 3072 1420 2755 
Q 1159 2438 1159 1844 
L 1159 0 
L 581 0 
L 581 3500 
L 1159 3500 
L 1159 2956 
Q 1341 3275 1631 3429 
Q 1922 3584 2338 3584 
Q 2397 3584 2469 3576 
Q 2541 3569 2628 3553 
L 2631 2963 
z
" transform="scale(0.015625)"/>
      <path id="DejaVuSans-6d" d="M 3328 2828 
Q 3544 3216 3844 3400 
Q 4144 3584 4550 3584 
Q 5097 3584 5394 3201 
Q 5691 2819 5691 2113 
L 5691 0 
L 5113 0 
L 5113 2094 
Q 5113 2597 4934 2840 
Q 4756 3084 4391 3084 
Q 3944 3084 3684 2787 
Q 3425 2491 3425 1978 
L 3425 0 
L 2847 0 
L 2847 2094 
Q 2847 2600 2669 2842 
Q 2491 3084 2119 3084 
Q 1678 3084 1418 2786 
Q 1159 2488 1159 1978 
L 1159 0 
L 581 0 
L 581 3500 
L 1159 3500 
L 1159 2956 
Q 1356 3278 1631 3431 
Q 1906 3584 2284 3584 
Q 2666 3584 2933 3390 
Q 3200 3197 3328 2828 
z
" transform="scale(0.015625)"/>
      <path id="DejaVuSans-65" d="M 3597 1894 
L 3597 1613 
L 953 1613 
Q 991 1019 1311 708 
Q 1631 397 2203 397 
Q 2534 397 2845 478 
Q 3156 559 3463 722 
L 3463 178 
Q 3153 47 2828 -22 
Q 2503 -91 2169 -91 
Q 1331 -91 842 396 
Q 353 884 353 1716 
Q 353 2575 817 3079 
Q 1281 3584 2069 3584 
Q 2775 3584 3186 3129 
Q 3597 2675 3597 1894 
z
M 3022 2063 
Q 3016 2534 2758 2815 
Q 2500 3097 2075 3097 
Q 1594 3097 1305 2825 
Q 1016 2553 972 2059 
L 3022 2063 
z
" transform="scale(0.015625)"/>
      <path id="DejaVuSans-64" d="M 2906 2969 
L 2906 4863 
L 3481 4863 
L 3481 0 
L 2906 0 
L 2906 525 
Q 2725 213 2448 61 
Q 2172 -91 1784 -91 
Q 1150 -91 751 415 
Q 353 922 353 1747 
Q 353 2572 751 3078 
Q 1150 3584 1784 3584 
Q 2172 3584 2448 3432 
Q 2725 3281 2906 2969 
z
M 947 1747 
Q 947 1113 1208 752 
Q 1469 391 1925 391 
Q 2381 391 2643 752 
Q 2906 1113 2906 1747 
Q 2906 2381 2643 2742 
Q 2381 3103 1925 3103 
Q 1469 3103 1208 2742 
Q 947 2381 947 1747 
z
" transform="scale(0.015625)"/>
      <path id="DejaVuSans-73" d="M 2834 3397 
L 2834 2853 
Q 2591 2978 2328 3040 
Q 2066 3103 1784 3103 
Q 1356 3103 1142 2972 
Q 928 2841 928 2578 
Q 928 2378 1081 2264 
Q 1234 2150 1697 2047 
L 1894 2003 
Q 2506 1872 2764 1633 
Q 3022 1394 3022 966 
Q 3022 478 2636 193 
Q 2250 -91 1575 -91 
Q 1294 -91 989 -36 
Q 684 19 347 128 
L 347 722 
Q 666 556 975 473 
Q 1284 391 1588 391 
Q 1994 391 2212 530 
Q 2431 669 2431 922 
Q 2431 1156 2273 1281 
Q 2116 1406 1581 1522 
L 1381 1569 
Q 847 1681 609 1914 
Q 372 2147 372 2553 
Q 372 3047 722 3315 
Q 1072 3584 1716 3584 
Q 2034 3584 2315 3537 
Q 2597 3491 2834 3397 
z
" transform="scale(0.015625)"/>
      <path id="DejaVuSans-46" d="M 628 4666 
L 3309 4666 
L 3309 4134 
L 1259 4134 
L 1259 2759 
L 3109 2759 
L 3109 2228 
L 1259 2228 
L 1259 0 
L 628 0 
L 628 4666 
z
" transform="scale(0.015625)"/>
      <path id="DejaVuSans-63" d="M 3122 3366 
L 3122 2828 
Q 2878 2963 2633 3030 
Q 2388 3097 2138 3097 
Q 1578 3097 1268 2742 
Q 959 2388 959 1747 
Q 959 1106 1268 751 
Q 1578 397 2138 397 
Q 2388 397 2633 464 
Q 2878 531 3122 666 
L 3122 134 
Q 2881 22 2623 -34 
Q 2366 -91 2075 -91 
Q 1284 -91 818 406 
Q 353 903 353 1747 
Q 353 2603 823 3093 
Q 1294 3584 2113 3584 
Q 2378 3584 2631 3529 
Q 2884 3475 3122 3366 
z
" transform="scale(0.015625)"/>
      <path id="DejaVuSans-74" d="M 1172 4494 
L 1172 3500 
L 2356 3500 
L 2356 3053 
L 1172 3053 
L 1172 1153 
Q 1172 725 1289 603 
Q 1406 481 1766 481 
L 2356 481 
L 2356 0 
L 1766 0 
Q 1100 0 847 248 
Q 594 497 594 1153 
L 594 3053 
L 172 3053 
L 172 3500 
L 594 3500 
L 594 4494 
L 1172 4494 
z
" transform="scale(0.015625)"/>
      <path id="DejaVuSans-67" d="M 2906 1791 
Q 2906 2416 2648 2759 
Q 2391 3103 1925 3103 
Q 1463 3103 1205 2759 
Q 947 2416 947 1791 
Q 947 1169 1205 825 
Q 1463 481 1925 481 
Q 2391 481 2648 825 
Q 2906 1169 2906 1791 
z
M 3481 434 
Q 3481 -459 3084 -895 
Q 2688 -1331 1869 -1331 
Q 1566 -1331 1297 -1286 
Q 1028 -1241 775 -1147 
L 775 -588 
Q 1028 -725 1275 -790 
Q 1522 -856 1778 -856 
Q 2344 -856 2625 -561 
Q 2906 -266 2906 331 
L 2906 616 
Q 2728 306 2450 153 
Q 2172 0 1784 0 
Q 1141 0 747 490 
Q 353 981 353 1791 
Q 353 2603 747 3093 
Q 1141 3584 1784 3584 
Q 2172 3584 2450 3431 
Q 2728 3278 2906 2969 
L 2906 3500 
L 3481 3500 
L 3481 434 
z
" transform="scale(0.015625)"/>
     </defs>
     <use xlink:href="#DejaVuSans-44"/>
     <use xlink:href="#DejaVuSans-61" x="77.001953"/>
     <use xlink:href="#DejaVuSans-69" x="138.28125"/>
     <use xlink:href="#DejaVuSans-6c" x="166.064453"/>
     <use xlink:href="#DejaVuSans-79" x="193.847656"/>
     <use xlink:href="#DejaVuSans-20" x="253.027344"/>
     <use xlink:href="#DejaVuSans-43" x="284.814453"/>
     <use xlink:href="#DejaVuSans-6f" x="354.638672"/>
     <use xlink:href="#DejaVuSans-6e" x="415.820312"/>
     <use xlink:href="#DejaVuSans-66" x="479.199219"/>
     <use xlink:href="#DejaVuSans-69" x="514.404297"/>
     <use xlink:href="#DejaVuSans-72" x="542.1875"/>
     <use xlink:href="#DejaVuSans-6d" x="581.550781"/>
     <use xlink:href="#DejaVuSans-65" x="678.962891"/>
     <use xlink:href="#DejaVuSans-64" x="740.486328"/>
     <use xlink:href="#DejaVuSans-20" x="803.962891"/>
     <use xlink:href="#DejaVuSans-43" x="835.75"/>
     <use xlink:href="#DejaVuSans-61" x="905.574219"/>
     <use xlink:href="#DejaVuSans-73" x="966.853516"/>
     <use xlink:href="#DejaVuSans-65" x="1018.953125"/>
     <use xlink:href="#DejaVuSans-73" x="1080.476562"/>
     <use xlink:href="#DejaVuSans-20" x="1132.576172"/>
     <use xlink:href="#DejaVuSans-46" x="1164.363281"/>
     <use xlink:href="#DejaVuSans-6f" x="1218.257812"/>
     <use xlink:href="#DejaVuSans-72" x="1279.439453"/>
     <use xlink:href="#DejaVuSans-65" x="1318.302734"/>
     <use xlink:href="#DejaVuSans-63" x="1379.826172"/>
     <use xlink:href="#DejaVuSans-61" x="1434.806641"/>
     <use xlink:href="#DejaVuSans-73" x="1496.085938"/>
     <use xlink:href="#DejaVuSans-74" x="1548.185547"/>
     <use xlink:href="#DejaVuSans-69" x="1587.394531"/>
     <use xlink:href="#DejaVuSans-6e" x="1615.177734"/>
     <use xlink:href="#DejaVuSans-67" x="1678.556641"/>
     <use xlink:href="#DejaVuSans-20" x="1742.033203"/>
     <use xlink:href="#DejaVuSans-2d" x="1773.820312"/>
     <use xlink:href="#DejaVuSans-20" x="1809.904297"/>
     <use xlink:href="#DejaVuSans-43" x="1841.691406"/>
     <use xlink:href="#DejaVuSans-61" x="1911.515625"/>
     <use xlink:href="#DejaVuSans-6e" x="1972.794922"/>
     <use xlink:href="#DejaVuSans-61" x="2036.173828"/>
     <use xlink:href="#DejaVuSans-64" x="2097.453125"/>
     <use xlink:href="#DejaVuSans-61" x="2160.929688"/>
    </g>
    <!-- ARIMA (4, 1, 1)x(1, 0, 1, 7) (R2 = 0.263266) -->
    <g transform="translate(592.008125 29.7555)scale(0.12 -0.12)">
     <defs>
      <path id="DejaVuSans-41" d="M 2188 4044 
L 1331 1722 
L 3047 1722 
L 2188 4044 
z
M 1831 4666 
L 2547 4666 
L 4325 0 
L 3669 0 
L 3244 1197 
L 1141 1197 
L 716 0 
L 50 0 
L 1831 4666 
z
" transform="scale(0.015625)"/>
      <path id="DejaVuSans-52" d="M 2841 2188 
Q 3044 2119 3236 1894 
Q 3428 1669 3622 1275 
L 4263 0 
L 3584 0 
L 2988 1197 
Q 2756 1666 2539 1819 
Q 2322 1972 1947 1972 
L 1259 1972 
L 1259 0 
L 628 0 
L 628 4666 
L 2053 4666 
Q 2853 4666 3247 4331 
Q 3641 3997 3641 3322 
Q 3641 2881 3436 2590 
Q 3231 2300 2841 2188 
z
M 1259 4147 
L 1259 2491 
L 2053 2491 
Q 2509 2491 2742 2702 
Q 2975 2913 2975 3322 
Q 2975 3731 2742 3939 
Q 2509 4147 2053 4147 
L 1259 4147 
z
" transform="scale(0.015625)"/>
      <path id="DejaVuSans-49" d="M 628 4666 
L 1259 4666 
L 1259 0 
L 628 0 
L 628 4666 
z
" transform="scale(0.015625)"/>
      <path id="DejaVuSans-4d" d="M 628 4666 
L 1569 4666 
L 2759 1491 
L 3956 4666 
L 4897 4666 
L 4897 0 
L 4281 0 
L 4281 4097 
L 3078 897 
L 2444 897 
L 1241 4097 
L 1241 0 
L 628 0 
L 628 4666 
z
" transform="scale(0.015625)"/>
      <path id="DejaVuSans-28" d="M 1984 4856 
Q 1566 4138 1362 3434 
Q 1159 2731 1159 2009 
Q 1159 1288 1364 580 
Q 1569 -128 1984 -844 
L 1484 -844 
Q 1016 -109 783 600 
Q 550 1309 550 2009 
Q 550 2706 781 3412 
Q 1013 4119 1484 4856 
L 1984 4856 
z
" transform="scale(0.015625)"/>
      <path id="DejaVuSans-2c" d="M 750 794 
L 1409 794 
L 1409 256 
L 897 -744 
L 494 -744 
L 750 256 
L 750 794 
z
" transform="scale(0.015625)"/>
      <path id="DejaVuSans-29" d="M 513 4856 
L 1013 4856 
Q 1481 4119 1714 3412 
Q 1947 2706 1947 2009 
Q 1947 1309 1714 600 
Q 1481 -109 1013 -844 
L 513 -844 
Q 928 -128 1133 580 
Q 1338 1288 1338 2009 
Q 1338 2731 1133 3434 
Q 928 4138 513 4856 
z
" transform="scale(0.015625)"/>
      <path id="DejaVuSans-78" d="M 3513 3500 
L 2247 1797 
L 3578 0 
L 2900 0 
L 1881 1375 
L 863 0 
L 184 0 
L 1544 1831 
L 300 3500 
L 978 3500 
L 1906 2253 
L 2834 3500 
L 3513 3500 
z
" transform="scale(0.015625)"/>
      <path id="DejaVuSans-3d" d="M 678 2906 
L 4684 2906 
L 4684 2381 
L 678 2381 
L 678 2906 
z
M 678 1631 
L 4684 1631 
L 4684 1100 
L 678 1100 
L 678 1631 
z
" transform="scale(0.015625)"/>
      <path id="DejaVuSans-2e" d="M 684 794 
L 1344 794 
L 1344 0 
L 684 0 
L 684 794 
z
" transform="scale(0.015625)"/>
     </defs>
     <use xlink:href="#DejaVuSans-41"/>
     <use xlink:href="#DejaVuSans-52" x="68.408203"/>
     <use xlink:href="#DejaVuSans-49" x="137.890625"/>
     <use xlink:href="#DejaVuSans-4d" x="167.382812"/>
     <use xlink:href="#DejaVuSans-41" x="253.662109"/>
     <use xlink:href="#DejaVuSans-20" x="322.070312"/>
     <use xlink:href="#DejaVuSans-28" x="353.857422"/>
     <use xlink:href="#DejaVuSans-34" x="392.871094"/>
     <use xlink:href="#DejaVuSans-2c" x="456.494141"/>
     <use xlink:href="#DejaVuSans-20" x="488.28125"/>
     <use xlink:href="#DejaVuSans-31" x="520.068359"/>
     <use xlink:href="#DejaVuSans-2c" x="583.691406"/>
     <use xlink:href="#DejaVuSans-20" x="615.478516"/>
     <use xlink:href="#DejaVuSans-31" x="647.265625"/>
     <use xlink:href="#DejaVuSans-29" x="710.888672"/>
     <use xlink:href="#DejaVuSans-78" x="749.902344"/>
     <use xlink:href="#DejaVuSans-28" x="809.082031"/>
     <use xlink:href="#DejaVuSans-31" x="848.095703"/>
     <use xlink:href="#DejaVuSans-2c" x="911.71875"/>
     <use xlink:href="#DejaVuSans-20" x="943.505859"/>
     <use xlink:href="#DejaVuSans-30" x="975.292969"/>
     <use xlink:href="#DejaVuSans-2c" x="1038.916016"/>
     <use xlink:href="#DejaVuSans-20" x="1070.703125"/>
     <use xlink:href="#DejaVuSans-31" x="1102.490234"/>
     <use xlink:href="#DejaVuSans-2c" x="1166.113281"/>
     <use xlink:href="#DejaVuSans-20" x="1197.900391"/>
     <use xlink:href="#DejaVuSans-37" x="1229.6875"/>
     <use xlink:href="#DejaVuSans-29" x="1293.310547"/>
     <use xlink:href="#DejaVuSans-20" x="1332.324219"/>
     <use xlink:href="#DejaVuSans-28" x="1364.111328"/>
     <use xlink:href="#DejaVuSans-52" x="1403.125"/>
     <use xlink:href="#DejaVuSans-32" x="1472.607422"/>
     <use xlink:href="#DejaVuSans-20" x="1536.230469"/>
     <use xlink:href="#DejaVuSans-3d" x="1568.017578"/>
     <use xlink:href="#DejaVuSans-20" x="1651.806641"/>
     <use xlink:href="#DejaVuSans-30" x="1683.59375"/>
     <use xlink:href="#DejaVuSans-2e" x="1747.216797"/>
     <use xlink:href="#DejaVuSans-32" x="1779.003906"/>
     <use xlink:href="#DejaVuSans-36" x="1842.626953"/>
     <use xlink:href="#DejaVuSans-33" x="1906.25"/>
     <use xlink:href="#DejaVuSans-32" x="1969.873047"/>
     <use xlink:href="#DejaVuSans-36" x="2033.496094"/>
     <use xlink:href="#DejaVuSans-36" x="2097.119141"/>
     <use xlink:href="#DejaVuSans-29" x="2160.742188"/>
    </g>
   </g>
   <g id="legend_1">
    <g id="patch_7">
     <path d="M 1289.5125 87.789875 
L 1386.592188 87.789875 
Q 1388.592188 87.789875 1388.592188 85.789875 
L 1388.592188 42.7555 
Q 1388.592188 40.7555 1386.592188 40.7555 
L 1289.5125 40.7555 
Q 1287.5125 40.7555 1287.5125 42.7555 
L 1287.5125 85.789875 
Q 1287.5125 87.789875 1289.5125 87.789875 
z
" style="fill: #ffffff; opacity: 0.8; stroke: #cccccc; stroke-linejoin: miter"/>
    </g>
    <g id="line2d_23">
     <path d="M 1291.5125 48.853937 
L 1301.5125 48.853937 
L 1311.5125 48.853937 
" style="fill: none; stroke: #0000ff; stroke-width: 1.5; stroke-linecap: square"/>
    </g>
    <g id="text_21">
     <!-- Actual Value -->
     <g transform="translate(1319.5125 52.353937)scale(0.1 -0.1)">
      <defs>
       <path id="DejaVuSans-75" d="M 544 1381 
L 544 3500 
L 1119 3500 
L 1119 1403 
Q 1119 906 1312 657 
Q 1506 409 1894 409 
Q 2359 409 2629 706 
Q 2900 1003 2900 1516 
L 2900 3500 
L 3475 3500 
L 3475 0 
L 2900 0 
L 2900 538 
Q 2691 219 2414 64 
Q 2138 -91 1772 -91 
Q 1169 -91 856 284 
Q 544 659 544 1381 
z
M 1991 3584 
L 1991 3584 
z
" transform="scale(0.015625)"/>
       <path id="DejaVuSans-56" d="M 1831 0 
L 50 4666 
L 709 4666 
L 2188 738 
L 3669 4666 
L 4325 4666 
L 2547 0 
L 1831 0 
z
" transform="scale(0.015625)"/>
      </defs>
      <use xlink:href="#DejaVuSans-41"/>
      <use xlink:href="#DejaVuSans-63" x="66.658203"/>
      <use xlink:href="#DejaVuSans-74" x="121.638672"/>
      <use xlink:href="#DejaVuSans-75" x="160.847656"/>
      <use xlink:href="#DejaVuSans-61" x="224.226562"/>
      <use xlink:href="#DejaVuSans-6c" x="285.505859"/>
      <use xlink:href="#DejaVuSans-20" x="313.289062"/>
      <use xlink:href="#DejaVuSans-56" x="345.076172"/>
      <use xlink:href="#DejaVuSans-61" x="405.734375"/>
      <use xlink:href="#DejaVuSans-6c" x="467.013672"/>
      <use xlink:href="#DejaVuSans-75" x="494.796875"/>
      <use xlink:href="#DejaVuSans-65" x="558.175781"/>
     </g>
    </g>
    <g id="line2d_24">
     <path d="M 1291.5125 63.532062 
L 1301.5125 63.532062 
L 1311.5125 63.532062 
" style="fill: none; stroke: #ffa500; stroke-width: 1.5; stroke-linecap: square"/>
    </g>
    <g id="text_22">
     <!-- Check Value -->
     <g transform="translate(1319.5125 67.032062)scale(0.1 -0.1)">
      <defs>
       <path id="DejaVuSans-68" d="M 3513 2113 
L 3513 0 
L 2938 0 
L 2938 2094 
Q 2938 2591 2744 2837 
Q 2550 3084 2163 3084 
Q 1697 3084 1428 2787 
Q 1159 2491 1159 1978 
L 1159 0 
L 581 0 
L 581 4863 
L 1159 4863 
L 1159 2956 
Q 1366 3272 1645 3428 
Q 1925 3584 2291 3584 
Q 2894 3584 3203 3211 
Q 3513 2838 3513 2113 
z
" transform="scale(0.015625)"/>
       <path id="DejaVuSans-6b" d="M 581 4863 
L 1159 4863 
L 1159 1991 
L 2875 3500 
L 3609 3500 
L 1753 1863 
L 3688 0 
L 2938 0 
L 1159 1709 
L 1159 0 
L 581 0 
L 581 4863 
z
" transform="scale(0.015625)"/>
      </defs>
      <use xlink:href="#DejaVuSans-43"/>
      <use xlink:href="#DejaVuSans-68" x="69.824219"/>
      <use xlink:href="#DejaVuSans-65" x="133.203125"/>
      <use xlink:href="#DejaVuSans-63" x="194.726562"/>
      <use xlink:href="#DejaVuSans-6b" x="249.707031"/>
      <use xlink:href="#DejaVuSans-20" x="307.617188"/>
      <use xlink:href="#DejaVuSans-56" x="339.404297"/>
      <use xlink:href="#DejaVuSans-61" x="400.0625"/>
      <use xlink:href="#DejaVuSans-6c" x="461.341797"/>
      <use xlink:href="#DejaVuSans-75" x="489.125"/>
      <use xlink:href="#DejaVuSans-65" x="552.503906"/>
     </g>
    </g>
    <g id="line2d_25">
     <path d="M 1291.5125 78.210187 
L 1301.5125 78.210187 
L 1311.5125 78.210187 
" style="fill: none; stroke: #ff0000; stroke-width: 1.5; stroke-linecap: square"/>
    </g>
    <g id="text_23">
     <!-- Predict Value -->
     <g transform="translate(1319.5125 81.710187)scale(0.1 -0.1)">
      <defs>
       <path id="DejaVuSans-50" d="M 1259 4147 
L 1259 2394 
L 2053 2394 
Q 2494 2394 2734 2622 
Q 2975 2850 2975 3272 
Q 2975 3691 2734 3919 
Q 2494 4147 2053 4147 
L 1259 4147 
z
M 628 4666 
L 2053 4666 
Q 2838 4666 3239 4311 
Q 3641 3956 3641 3272 
Q 3641 2581 3239 2228 
Q 2838 1875 2053 1875 
L 1259 1875 
L 1259 0 
L 628 0 
L 628 4666 
z
" transform="scale(0.015625)"/>
      </defs>
      <use xlink:href="#DejaVuSans-50"/>
      <use xlink:href="#DejaVuSans-72" x="58.552734"/>
      <use xlink:href="#DejaVuSans-65" x="97.416016"/>
      <use xlink:href="#DejaVuSans-64" x="158.939453"/>
      <use xlink:href="#DejaVuSans-69" x="222.416016"/>
      <use xlink:href="#DejaVuSans-63" x="250.199219"/>
      <use xlink:href="#DejaVuSans-74" x="305.179688"/>
      <use xlink:href="#DejaVuSans-20" x="344.388672"/>
      <use xlink:href="#DejaVuSans-56" x="376.175781"/>
      <use xlink:href="#DejaVuSans-61" x="436.833984"/>
      <use xlink:href="#DejaVuSans-6c" x="498.113281"/>
      <use xlink:href="#DejaVuSans-75" x="525.896484"/>
      <use xlink:href="#DejaVuSans-65" x="589.275391"/>
     </g>
    </g>
   </g>
  </g>
 </g>
 <defs>
  <clipPath id="p6db723342a">
   <rect x="54.392188" y="35.7555" width="1339.2" height="332.64"/>
  </clipPath>
 </defs>
</svg>
