<?xml version="1.0" encoding="utf-8" standalone="no"?>
<!DOCTYPE svg PUBLIC "-//W3C//DTD SVG 1.1//EN"
  "http://www.w3.org/Graphics/SVG/1.1/DTD/svg11.dtd">
<svg xmlns:xlink="http://www.w3.org/1999/xlink" width="1392.4125pt" height="392.273625pt" viewBox="0 0 1392.4125 392.273625" xmlns="http://www.w3.org/2000/svg" version="1.1">
 <metadata>
  <rdf:RDF xmlns:dc="http://purl.org/dc/elements/1.1/" xmlns:cc="http://creativecommons.org/ns#" xmlns:rdf="http://www.w3.org/1999/02/22-rdf-syntax-ns#">
   <cc:Work>
    <dc:type rdf:resource="http://purl.org/dc/dcmitype/StillImage"/>
    <dc:date>2022-07-19T20:11:36.358741</dc:date>
    <dc:format>image/svg+xml</dc:format>
    <dc:creator>
     <cc:Agent>
      <dc:title>Matplotlib v3.5.2, https://matplotlib.org/</dc:title>
     </cc:Agent>
    </dc:creator>
   </cc:Work>
  </rdf:RDF>
 </metadata>
 <defs>
  <style type="text/css">*{stroke-linejoin: round; stroke-linecap: butt}</style>
 </defs>
 <g id="figure_1">
  <g id="patch_1">
   <path d="M 0 392.273625 
L 1392.4125 392.273625 
L 1392.4125 0 
L 0 0 
z
" style="fill: #ffffff"/>
  </g>
  <g id="axes_1">
   <g id="patch_2">
    <path d="M 46.0125 368.3955 
L 1385.2125 368.3955 
L 1385.2125 35.7555 
L 46.0125 35.7555 
z
" style="fill: #ffffff"/>
   </g>
   <g id="matplotlib.axis_1">
    <g id="xtick_1">
     <g id="line2d_1">
      <defs>
       <path id="m5e13ec0ecb" d="M 0 0 
L 0 3.5 
" style="stroke: #000000; stroke-width: 0.8"/>
      </defs>
      <g>
       <use xlink:href="#m5e13ec0ecb" x="77.772184" y="368.3955" style="stroke: #000000; stroke-width: 0.8"/>
      </g>
     </g>
     <g id="text_1">
      <!-- 2020-01 -->
      <g transform="translate(56.880778 382.993937)scale(0.1 -0.1)">
       <defs>
        <path id="DejaVuSans-32" d="M 1228 531 
L 3431 531 
L 3431 0 
L 469 0 
L 469 531 
Q 828 903 1448 1529 
Q 2069 2156 2228 2338 
Q 2531 2678 2651 2914 
Q 2772 3150 2772 3378 
Q 2772 3750 2511 3984 
Q 2250 4219 1831 4219 
Q 1534 4219 1204 4116 
Q 875 4013 500 3803 
L 500 4441 
Q 881 4594 1212 4672 
Q 1544 4750 1819 4750 
Q 2544 4750 2975 4387 
Q 3406 4025 3406 3419 
Q 3406 3131 3298 2873 
Q 3191 2616 2906 2266 
Q 2828 2175 2409 1742 
Q 1991 1309 1228 531 
z
" transform="scale(0.015625)"/>
        <path id="DejaVuSans-30" d="M 2034 4250 
Q 1547 4250 1301 3770 
Q 1056 3291 1056 2328 
Q 1056 1369 1301 889 
Q 1547 409 2034 409 
Q 2525 409 2770 889 
Q 3016 1369 3016 2328 
Q 3016 3291 2770 3770 
Q 2525 4250 2034 4250 
z
M 2034 4750 
Q 2819 4750 3233 4129 
Q 3647 3509 3647 2328 
Q 3647 1150 3233 529 
Q 2819 -91 2034 -91 
Q 1250 -91 836 529 
Q 422 1150 422 2328 
Q 422 3509 836 4129 
Q 1250 4750 2034 4750 
z
" transform="scale(0.015625)"/>
        <path id="DejaVuSans-2d" d="M 313 2009 
L 1997 2009 
L 1997 1497 
L 313 1497 
L 313 2009 
z
" transform="scale(0.015625)"/>
        <path id="DejaVuSans-31" d="M 794 531 
L 1825 531 
L 1825 4091 
L 703 3866 
L 703 4441 
L 1819 4666 
L 2450 4666 
L 2450 531 
L 3481 531 
L 3481 0 
L 794 0 
L 794 531 
z
" transform="scale(0.015625)"/>
       </defs>
       <use xlink:href="#DejaVuSans-32"/>
       <use xlink:href="#DejaVuSans-30" x="63.623047"/>
       <use xlink:href="#DejaVuSans-32" x="127.246094"/>
       <use xlink:href="#DejaVuSans-30" x="190.869141"/>
       <use xlink:href="#DejaVuSans-2d" x="254.492188"/>
       <use xlink:href="#DejaVuSans-30" x="290.576172"/>
       <use xlink:href="#DejaVuSans-31" x="354.199219"/>
      </g>
     </g>
    </g>
    <g id="xtick_2">
     <g id="line2d_2">
      <g>
       <use xlink:href="#m5e13ec0ecb" x="198.194318" y="368.3955" style="stroke: #000000; stroke-width: 0.8"/>
      </g>
     </g>
     <g id="text_2">
      <!-- 2020-04 -->
      <g transform="translate(177.302912 382.993937)scale(0.1 -0.1)">
       <defs>
        <path id="DejaVuSans-34" d="M 2419 4116 
L 825 1625 
L 2419 1625 
L 2419 4116 
z
M 2253 4666 
L 3047 4666 
L 3047 1625 
L 3713 1625 
L 3713 1100 
L 3047 1100 
L 3047 0 
L 2419 0 
L 2419 1100 
L 313 1100 
L 313 1709 
L 2253 4666 
z
" transform="scale(0.015625)"/>
       </defs>
       <use xlink:href="#DejaVuSans-32"/>
       <use xlink:href="#DejaVuSans-30" x="63.623047"/>
       <use xlink:href="#DejaVuSans-32" x="127.246094"/>
       <use xlink:href="#DejaVuSans-30" x="190.869141"/>
       <use xlink:href="#DejaVuSans-2d" x="254.492188"/>
       <use xlink:href="#DejaVuSans-30" x="290.576172"/>
       <use xlink:href="#DejaVuSans-34" x="354.199219"/>
      </g>
     </g>
    </g>
    <g id="xtick_3">
     <g id="line2d_3">
      <g>
       <use xlink:href="#m5e13ec0ecb" x="318.616453" y="368.3955" style="stroke: #000000; stroke-width: 0.8"/>
      </g>
     </g>
     <g id="text_3">
      <!-- 2020-07 -->
      <g transform="translate(297.725046 382.993937)scale(0.1 -0.1)">
       <defs>
        <path id="DejaVuSans-37" d="M 525 4666 
L 3525 4666 
L 3525 4397 
L 1831 0 
L 1172 0 
L 2766 4134 
L 525 4134 
L 525 4666 
z
" transform="scale(0.015625)"/>
       </defs>
       <use xlink:href="#DejaVuSans-32"/>
       <use xlink:href="#DejaVuSans-30" x="63.623047"/>
       <use xlink:href="#DejaVuSans-32" x="127.246094"/>
       <use xlink:href="#DejaVuSans-30" x="190.869141"/>
       <use xlink:href="#DejaVuSans-2d" x="254.492188"/>
       <use xlink:href="#DejaVuSans-30" x="290.576172"/>
       <use xlink:href="#DejaVuSans-37" x="354.199219"/>
      </g>
     </g>
    </g>
    <g id="xtick_4">
     <g id="line2d_4">
      <g>
       <use xlink:href="#m5e13ec0ecb" x="440.361907" y="368.3955" style="stroke: #000000; stroke-width: 0.8"/>
      </g>
     </g>
     <g id="text_4">
      <!-- 2020-10 -->
      <g transform="translate(419.470501 382.993937)scale(0.1 -0.1)">
       <use xlink:href="#DejaVuSans-32"/>
       <use xlink:href="#DejaVuSans-30" x="63.623047"/>
       <use xlink:href="#DejaVuSans-32" x="127.246094"/>
       <use xlink:href="#DejaVuSans-30" x="190.869141"/>
       <use xlink:href="#DejaVuSans-2d" x="254.492188"/>
       <use xlink:href="#DejaVuSans-31" x="290.576172"/>
       <use xlink:href="#DejaVuSans-30" x="354.199219"/>
      </g>
     </g>
    </g>
    <g id="xtick_5">
     <g id="line2d_5">
      <g>
       <use xlink:href="#m5e13ec0ecb" x="562.107362" y="368.3955" style="stroke: #000000; stroke-width: 0.8"/>
      </g>
     </g>
     <g id="text_5">
      <!-- 2021-01 -->
      <g transform="translate(541.215955 382.993937)scale(0.1 -0.1)">
       <use xlink:href="#DejaVuSans-32"/>
       <use xlink:href="#DejaVuSans-30" x="63.623047"/>
       <use xlink:href="#DejaVuSans-32" x="127.246094"/>
       <use xlink:href="#DejaVuSans-31" x="190.869141"/>
       <use xlink:href="#DejaVuSans-2d" x="254.492188"/>
       <use xlink:href="#DejaVuSans-30" x="290.576172"/>
       <use xlink:href="#DejaVuSans-31" x="354.199219"/>
      </g>
     </g>
    </g>
    <g id="xtick_6">
     <g id="line2d_6">
      <g>
       <use xlink:href="#m5e13ec0ecb" x="681.206176" y="368.3955" style="stroke: #000000; stroke-width: 0.8"/>
      </g>
     </g>
     <g id="text_6">
      <!-- 2021-04 -->
      <g transform="translate(660.31477 382.993937)scale(0.1 -0.1)">
       <use xlink:href="#DejaVuSans-32"/>
       <use xlink:href="#DejaVuSans-30" x="63.623047"/>
       <use xlink:href="#DejaVuSans-32" x="127.246094"/>
       <use xlink:href="#DejaVuSans-31" x="190.869141"/>
       <use xlink:href="#DejaVuSans-2d" x="254.492188"/>
       <use xlink:href="#DejaVuSans-30" x="290.576172"/>
       <use xlink:href="#DejaVuSans-34" x="354.199219"/>
      </g>
     </g>
    </g>
    <g id="xtick_7">
     <g id="line2d_7">
      <g>
       <use xlink:href="#m5e13ec0ecb" x="801.62831" y="368.3955" style="stroke: #000000; stroke-width: 0.8"/>
      </g>
     </g>
     <g id="text_7">
      <!-- 2021-07 -->
      <g transform="translate(780.736904 382.993937)scale(0.1 -0.1)">
       <use xlink:href="#DejaVuSans-32"/>
       <use xlink:href="#DejaVuSans-30" x="63.623047"/>
       <use xlink:href="#DejaVuSans-32" x="127.246094"/>
       <use xlink:href="#DejaVuSans-31" x="190.869141"/>
       <use xlink:href="#DejaVuSans-2d" x="254.492188"/>
       <use xlink:href="#DejaVuSans-30" x="290.576172"/>
       <use xlink:href="#DejaVuSans-37" x="354.199219"/>
      </g>
     </g>
    </g>
    <g id="xtick_8">
     <g id="line2d_8">
      <g>
       <use xlink:href="#m5e13ec0ecb" x="923.373765" y="368.3955" style="stroke: #000000; stroke-width: 0.8"/>
      </g>
     </g>
     <g id="text_8">
      <!-- 2021-10 -->
      <g transform="translate(902.482359 382.993937)scale(0.1 -0.1)">
       <use xlink:href="#DejaVuSans-32"/>
       <use xlink:href="#DejaVuSans-30" x="63.623047"/>
       <use xlink:href="#DejaVuSans-32" x="127.246094"/>
       <use xlink:href="#DejaVuSans-31" x="190.869141"/>
       <use xlink:href="#DejaVuSans-2d" x="254.492188"/>
       <use xlink:href="#DejaVuSans-31" x="290.576172"/>
       <use xlink:href="#DejaVuSans-30" x="354.199219"/>
      </g>
     </g>
    </g>
    <g id="xtick_9">
     <g id="line2d_9">
      <g>
       <use xlink:href="#m5e13ec0ecb" x="1045.119219" y="368.3955" style="stroke: #000000; stroke-width: 0.8"/>
      </g>
     </g>
     <g id="text_9">
      <!-- 2022-01 -->
      <g transform="translate(1024.227813 382.993937)scale(0.1 -0.1)">
       <use xlink:href="#DejaVuSans-32"/>
       <use xlink:href="#DejaVuSans-30" x="63.623047"/>
       <use xlink:href="#DejaVuSans-32" x="127.246094"/>
       <use xlink:href="#DejaVuSans-32" x="190.869141"/>
       <use xlink:href="#DejaVuSans-2d" x="254.492188"/>
       <use xlink:href="#DejaVuSans-30" x="290.576172"/>
       <use xlink:href="#DejaVuSans-31" x="354.199219"/>
      </g>
     </g>
    </g>
    <g id="xtick_10">
     <g id="line2d_10">
      <g>
       <use xlink:href="#m5e13ec0ecb" x="1164.218034" y="368.3955" style="stroke: #000000; stroke-width: 0.8"/>
      </g>
     </g>
     <g id="text_10">
      <!-- 2022-04 -->
      <g transform="translate(1143.326627 382.993937)scale(0.1 -0.1)">
       <use xlink:href="#DejaVuSans-32"/>
       <use xlink:href="#DejaVuSans-30" x="63.623047"/>
       <use xlink:href="#DejaVuSans-32" x="127.246094"/>
       <use xlink:href="#DejaVuSans-32" x="190.869141"/>
       <use xlink:href="#DejaVuSans-2d" x="254.492188"/>
       <use xlink:href="#DejaVuSans-30" x="290.576172"/>
       <use xlink:href="#DejaVuSans-34" x="354.199219"/>
      </g>
     </g>
    </g>
    <g id="xtick_11">
     <g id="line2d_11">
      <g>
       <use xlink:href="#m5e13ec0ecb" x="1284.640168" y="368.3955" style="stroke: #000000; stroke-width: 0.8"/>
      </g>
     </g>
     <g id="text_11">
      <!-- 2022-07 -->
      <g transform="translate(1263.748762 382.993937)scale(0.1 -0.1)">
       <use xlink:href="#DejaVuSans-32"/>
       <use xlink:href="#DejaVuSans-30" x="63.623047"/>
       <use xlink:href="#DejaVuSans-32" x="127.246094"/>
       <use xlink:href="#DejaVuSans-32" x="190.869141"/>
       <use xlink:href="#DejaVuSans-2d" x="254.492188"/>
       <use xlink:href="#DejaVuSans-30" x="290.576172"/>
       <use xlink:href="#DejaVuSans-37" x="354.199219"/>
      </g>
     </g>
    </g>
   </g>
   <g id="matplotlib.axis_2">
    <g id="ytick_1">
     <g id="line2d_12">
      <defs>
       <path id="m865fc10cae" d="M 0 0 
L -3.5 0 
" style="stroke: #000000; stroke-width: 0.8"/>
      </defs>
      <g>
       <use xlink:href="#m865fc10cae" x="46.0125" y="344.026182" style="stroke: #000000; stroke-width: 0.8"/>
      </g>
     </g>
     <g id="text_12">
      <!-- 0 -->
      <g transform="translate(32.65 347.825401)scale(0.1 -0.1)">
       <use xlink:href="#DejaVuSans-30"/>
      </g>
     </g>
    </g>
    <g id="ytick_2">
     <g id="line2d_13">
      <g>
       <use xlink:href="#m865fc10cae" x="46.0125" y="292.603455" style="stroke: #000000; stroke-width: 0.8"/>
      </g>
     </g>
     <g id="text_13">
      <!-- 5000 -->
      <g transform="translate(13.5625 296.402674)scale(0.1 -0.1)">
       <defs>
        <path id="DejaVuSans-35" d="M 691 4666 
L 3169 4666 
L 3169 4134 
L 1269 4134 
L 1269 2991 
Q 1406 3038 1543 3061 
Q 1681 3084 1819 3084 
Q 2600 3084 3056 2656 
Q 3513 2228 3513 1497 
Q 3513 744 3044 326 
Q 2575 -91 1722 -91 
Q 1428 -91 1123 -41 
Q 819 9 494 109 
L 494 744 
Q 775 591 1075 516 
Q 1375 441 1709 441 
Q 2250 441 2565 725 
Q 2881 1009 2881 1497 
Q 2881 1984 2565 2268 
Q 2250 2553 1709 2553 
Q 1456 2553 1204 2497 
Q 953 2441 691 2322 
L 691 4666 
z
" transform="scale(0.015625)"/>
       </defs>
       <use xlink:href="#DejaVuSans-35"/>
       <use xlink:href="#DejaVuSans-30" x="63.623047"/>
       <use xlink:href="#DejaVuSans-30" x="127.246094"/>
       <use xlink:href="#DejaVuSans-30" x="190.869141"/>
      </g>
     </g>
    </g>
    <g id="ytick_3">
     <g id="line2d_14">
      <g>
       <use xlink:href="#m865fc10cae" x="46.0125" y="241.180728" style="stroke: #000000; stroke-width: 0.8"/>
      </g>
     </g>
     <g id="text_14">
      <!-- 10000 -->
      <g transform="translate(7.2 244.979947)scale(0.1 -0.1)">
       <use xlink:href="#DejaVuSans-31"/>
       <use xlink:href="#DejaVuSans-30" x="63.623047"/>
       <use xlink:href="#DejaVuSans-30" x="127.246094"/>
       <use xlink:href="#DejaVuSans-30" x="190.869141"/>
       <use xlink:href="#DejaVuSans-30" x="254.492188"/>
      </g>
     </g>
    </g>
    <g id="ytick_4">
     <g id="line2d_15">
      <g>
       <use xlink:href="#m865fc10cae" x="46.0125" y="189.758001" style="stroke: #000000; stroke-width: 0.8"/>
      </g>
     </g>
     <g id="text_15">
      <!-- 15000 -->
      <g transform="translate(7.2 193.55722)scale(0.1 -0.1)">
       <use xlink:href="#DejaVuSans-31"/>
       <use xlink:href="#DejaVuSans-35" x="63.623047"/>
       <use xlink:href="#DejaVuSans-30" x="127.246094"/>
       <use xlink:href="#DejaVuSans-30" x="190.869141"/>
       <use xlink:href="#DejaVuSans-30" x="254.492188"/>
      </g>
     </g>
    </g>
    <g id="ytick_5">
     <g id="line2d_16">
      <g>
       <use xlink:href="#m865fc10cae" x="46.0125" y="138.335274" style="stroke: #000000; stroke-width: 0.8"/>
      </g>
     </g>
     <g id="text_16">
      <!-- 20000 -->
      <g transform="translate(7.2 142.134493)scale(0.1 -0.1)">
       <use xlink:href="#DejaVuSans-32"/>
       <use xlink:href="#DejaVuSans-30" x="63.623047"/>
       <use xlink:href="#DejaVuSans-30" x="127.246094"/>
       <use xlink:href="#DejaVuSans-30" x="190.869141"/>
       <use xlink:href="#DejaVuSans-30" x="254.492188"/>
      </g>
     </g>
    </g>
    <g id="ytick_6">
     <g id="line2d_17">
      <g>
       <use xlink:href="#m865fc10cae" x="46.0125" y="86.912547" style="stroke: #000000; stroke-width: 0.8"/>
      </g>
     </g>
     <g id="text_17">
      <!-- 25000 -->
      <g transform="translate(7.2 90.711766)scale(0.1 -0.1)">
       <use xlink:href="#DejaVuSans-32"/>
       <use xlink:href="#DejaVuSans-35" x="63.623047"/>
       <use xlink:href="#DejaVuSans-30" x="127.246094"/>
       <use xlink:href="#DejaVuSans-30" x="190.869141"/>
       <use xlink:href="#DejaVuSans-30" x="254.492188"/>
      </g>
     </g>
    </g>
   </g>
   <g id="line2d_18">
    <path d="M 106.885227 344.026182 
L 171.727915 343.995328 
L 174.374555 343.913052 
L 183.637796 343.882198 
L 184.961117 343.604516 
L 186.284437 343.95419 
L 187.607757 343.830776 
L 190.254397 343.923336 
L 191.577717 343.583946 
L 192.901038 343.789637 
L 196.870998 343.748499 
L 198.194318 343.645654 
L 200.840958 343.779353 
L 203.487599 343.882198 
L 204.810919 343.522239 
L 206.134239 343.542808 
L 207.457559 342.987443 
L 208.780879 343.830776 
L 212.75084 343.882198 
L 214.07416 343.748499 
L 215.39748 343.347402 
L 216.7208 343.738215 
L 218.044121 342.853744 
L 220.690761 343.6148 
L 222.014081 343.285695 
L 223.337401 343.902767 
L 225.984042 343.563377 
L 227.307362 343.193134 
L 228.630682 343.666223 
L 229.954002 343.892483 
L 232.600642 344.005613 
L 247.157164 343.923336 
L 248.480484 344.026182 
L 257.743725 343.892483 
L 259.067045 344.015897 
L 301.413291 344.015897 
L 302.736611 343.882198 
L 308.029891 344.015897 
L 309.353211 343.84106 
L 310.676532 343.789637 
L 311.999852 343.892483 
L 314.646492 343.95419 
L 317.293132 344.005613 
L 318.616453 343.820491 
L 319.939773 343.892483 
L 322.586413 343.72793 
L 325.233053 344.015897 
L 326.556374 344.005613 
L 329.203014 343.481101 
L 330.526334 343.830776 
L 331.849654 343.789637 
L 334.496294 344.015897 
L 339.789575 343.882198 
L 343.759536 344.015897 
L 345.082856 343.604516 
L 350.376136 343.789637 
L 351.699457 343.635369 
L 353.022777 344.005613 
L 355.669417 343.604516 
L 356.992737 343.820491 
L 358.316057 343.748499 
L 359.639377 343.563377 
L 360.962698 343.95419 
L 363.609338 343.882198 
L 364.932658 343.522239 
L 366.255978 343.378256 
L 367.579298 343.583946 
L 368.902619 343.583946 
L 370.225939 343.717646 
L 371.549259 343.995328 
L 372.872579 343.861629 
L 374.195899 343.254841 
L 375.519219 343.522239 
L 376.84254 343.38854 
L 379.48918 343.542808 
L 380.8125 343.974759 
L 382.13582 343.871914 
L 383.45914 342.997727 
L 384.78246 343.203418 
L 386.105781 342.761183 
L 387.429101 343.090288 
L 388.752421 343.6148 
L 390.075741 343.326833 
L 391.399061 343.738215 
L 392.722381 343.16228 
L 395.369022 342.977158 
L 396.692342 342.853744 
L 398.015662 343.676507 
L 399.338982 343.604516 
L 400.662302 343.285695 
L 401.985623 343.481101 
L 403.308943 342.781752 
L 404.632263 342.617199 
L 405.955583 341.701875 
L 407.278903 343.121142 
L 408.602223 343.799922 
L 411.248864 342.37037 
L 413.895504 342.113256 
L 415.218824 341.958988 
L 416.542144 343.213703 
L 417.865464 343.532524 
L 419.188785 342.092687 
L 420.512105 343.080004 
L 424.482065 341.043664 
L 425.805385 342.678906 
L 427.128706 343.213703 
L 428.452026 342.226386 
L 429.775346 340.550006 
L 431.098666 340.323746 
L 432.421986 339.716957 
L 433.745306 338.349113 
L 435.068626 339.110169 
L 436.391947 341.300777 
L 437.715267 341.650452 
L 439.038587 338.194845 
L 440.361907 335.829399 
L 441.685227 337.042976 
L 443.008547 336.785862 
L 444.331868 335.613424 
L 445.655188 340.395737 
L 446.978508 340.735127 
L 448.301828 335.006636 
L 450.948468 331.84928 
L 452.271789 324.619245 
L 453.595109 333.186271 
L 454.918429 338.842771 
L 456.241749 338.153706 
L 457.565069 328.661071 
L 458.888389 323.868473 
L 460.211709 322.315507 
L 461.53503 323.508514 
L 462.85835 327.910299 
L 464.18167 335.181473 
L 465.50499 336.065944 
L 466.82831 320.9888 
L 468.15163 325.760829 
L 469.474951 316.031649 
L 470.798271 313.079985 
L 472.121591 312.072099 
L 473.444911 330.121477 
L 474.768231 332.384076 
L 476.091551 311.928116 
L 477.414872 313.0697 
L 478.738192 306.981249 
L 480.061512 312.50405 
L 481.384832 310.529418 
L 482.708152 320.793394 
L 484.031472 312.576042 
L 485.354792 309.943198 
L 486.678113 323.004571 
L 489.324753 314.139293 
L 490.648073 320.711117 
L 491.971393 336.621309 
L 493.294713 321.348759 
L 494.618034 321.420751 
L 495.941354 316.340186 
L 497.264674 321.431036 
L 498.587994 324.187294 
L 499.911314 330.666557 
L 501.234634 338.451958 
L 502.557955 327.447495 
L 503.881275 328.239405 
L 505.204595 322.356645 
L 506.527915 317.409778 
L 507.851235 318.602786 
L 509.174555 330.594566 
L 510.497875 341.064233 
L 511.821196 324.434123 
L 513.144516 316.206487 
L 514.467836 316.401893 
L 515.791156 316.093357 
L 517.114476 320.227744 
L 518.437796 328.259974 
L 519.761117 340.159193 
L 521.084437 313.470798 
L 522.407757 306.590437 
L 523.731077 306.539014 
L 525.054397 308.462224 
L 526.377717 309.778646 
L 527.701038 327.200666 
L 529.024358 337.022406 
L 530.347678 301.725847 
L 531.670998 287.214353 
L 532.994318 288.170816 
L 534.317638 289.785489 
L 535.640958 279.572936 
L 536.964279 311.218482 
L 538.287599 337.814316 
L 539.610919 290.484839 
L 540.934239 264.804329 
L 542.257559 276.18932 
L 543.580879 263.446769 
L 544.9042 276.950377 
L 546.22752 312.329213 
L 547.55084 326.388187 
L 548.87416 243.721011 
L 550.19748 249.254096 
L 551.5208 268.393635 
L 552.844121 291.945244 
L 554.167441 331.869849 
L 555.490761 332.857166 
L 556.814081 335.047774 
L 558.137401 255.085433 
L 559.460721 243.823856 
L 560.784042 221.485824 
L 562.107362 236.285284 
L 563.430682 320.104329 
L 564.754002 326.07965 
L 566.077322 334.687815 
L 567.400642 237.611991 
L 568.723962 230.073419 
L 570.047283 311.475596 
L 571.370603 258.757016 
L 572.693923 261.718965 
L 575.340563 325.668268 
L 576.663883 285.363135 
L 577.987204 276.09676 
L 579.310524 286.916101 
L 580.633844 292.377195 
L 581.957164 300.615116 
L 583.280484 326.53217 
L 584.603804 316.319617 
L 585.927125 289.579799 
L 587.250445 291.019635 
L 588.573765 294.74264 
L 589.897085 293.755324 
L 591.220405 298.856459 
L 592.543725 257.43031 
L 593.867045 299.350117 
L 595.190366 299.514669 
L 596.513686 288.057686 
L 597.837006 305.335722 
L 599.160326 295.98707 
L 600.483646 293.652479 
L 601.806966 276.744686 
L 603.130287 309.994621 
L 604.453607 290.166018 
L 605.776927 277.372043 
L 607.100247 296.203046 
L 608.423567 286.916101 
L 609.746887 289.631221 
L 611.070208 271.622982 
L 612.393528 302.147513 
L 613.716848 288.952441 
L 615.040168 280.097448 
L 616.363488 287.769719 
L 617.686808 293.580487 
L 619.010128 285.681956 
L 620.333449 279.428952 
L 621.656769 308.122834 
L 624.303409 283.049112 
L 625.626729 288.993579 
L 626.950049 291.266464 
L 628.27337 279.449521 
L 629.59669 272.219486 
L 630.92001 307.63946 
L 632.24333 288.129678 
L 633.56665 277.875986 
L 634.88997 287.995979 
L 636.213291 289.980896 
L 637.536611 280.447122 
L 638.859931 272.579445 
L 640.183251 308.400517 
L 641.506571 289.908904 
L 642.829891 281.259601 
L 644.153211 289.620937 
L 645.476532 294.423819 
L 646.799852 288.849596 
L 648.123172 290.4437 
L 649.446492 316.319617 
L 650.769812 294.475242 
L 652.093132 285.980208 
L 653.416453 303.391943 
L 654.739773 301.221904 
L 656.063093 295.154022 
L 657.386413 295.657965 
L 658.709733 320.351158 
L 660.033053 304.831779 
L 661.356374 295.472843 
L 662.679694 307.094379 
L 664.003014 310.148889 
L 665.326334 304.646658 
L 666.649654 306.837266 
L 667.972974 323.806766 
L 669.296294 312.637749 
L 670.619615 308.102265 
L 673.266255 316.91612 
L 674.589575 311.167059 
L 675.912895 311.856124 
L 677.236215 328.496518 
L 678.559536 316.319617 
L 679.882856 312.50405 
L 681.206176 317.841729 
L 682.529496 316.998397 
L 683.852816 329.92607 
L 685.176136 317.533193 
L 686.499457 336.755008 
L 687.822777 334.029604 
L 689.146097 316.874982 
L 690.469417 317.862298 
L 691.792737 326.244203 
L 693.116057 323.282254 
L 694.439377 323.652497 
L 695.762698 335.376879 
L 697.086018 325.678553 
L 698.409338 325.904813 
L 699.732658 328.362819 
L 701.055978 330.553427 
L 702.379298 327.714893 
L 703.702619 327.108105 
L 705.025939 336.539033 
L 706.349259 328.9079 
L 707.672579 329.514688 
L 708.995899 330.296314 
L 710.319219 333.247978 
L 711.64254 328.22912 
L 712.96586 329.946639 
L 714.28918 336.909276 
L 715.6125 331.787573 
L 716.93582 331.767004 
L 718.25914 333.062856 
L 719.58246 333.710783 
L 720.905781 332.147532 
L 722.229101 333.577084 
L 723.552421 337.577772 
L 724.875741 334.461555 
L 726.199061 332.816027 
L 727.522381 336.672732 
L 728.845702 336.302488 
L 730.169022 335.46944 
L 731.492342 340.406022 
L 732.815662 336.71387 
L 734.138982 335.963098 
L 735.462302 337.104683 
L 736.785623 337.783463 
L 738.108943 338.266836 
L 739.432263 337.742325 
L 740.755583 340.169477 
L 742.078903 340.056347 
L 743.402223 338.359397 
L 744.725543 339.171876 
L 746.048864 339.346714 
L 747.372184 340.837973 
L 748.695504 339.932933 
L 751.342144 341.886996 
L 752.665464 339.953502 
L 753.988785 339.943217 
L 755.312105 340.837973 
L 756.635425 341.424192 
L 757.958745 340.755696 
L 759.282065 341.743013 
L 760.605385 342.411508 
L 761.928706 340.375168 
L 763.252026 341.372769 
L 764.575346 341.372769 
L 765.898666 341.69159 
L 767.221986 341.434476 
L 768.545306 342.277809 
L 769.868626 342.977158 
L 771.191947 341.527037 
L 772.515267 341.547606 
L 773.838587 342.318947 
L 775.161907 342.421793 
L 776.485227 342.226386 
L 777.808547 343.008012 
L 779.131868 343.316548 
L 780.455188 342.720045 
L 784.425148 343.193134 
L 785.748468 342.966874 
L 787.071789 343.50167 
L 788.395109 343.594231 
L 789.718429 342.812606 
L 791.041749 343.357686 
L 795.011709 343.265126 
L 797.65835 343.645654 
L 798.98167 343.213703 
L 800.30499 343.439963 
L 801.62831 343.460532 
L 802.95163 343.738215 
L 804.274951 343.676507 
L 805.598271 343.72793 
L 806.921591 343.902767 
L 808.244911 343.779353 
L 809.568231 343.450247 
L 812.214872 343.511955 
L 813.538192 343.429678 
L 816.184832 343.871914 
L 817.508152 343.604516 
L 818.831472 343.697076 
L 822.801433 343.532524 
L 824.124753 343.645654 
L 825.448073 343.913052 
L 826.771393 343.491386 
L 829.418034 343.511955 
L 830.741354 343.337117 
L 832.064674 343.481101 
L 833.387994 343.429678 
L 834.711314 343.830776 
L 836.034634 343.27541 
L 837.357955 342.997727 
L 838.681275 343.316548 
L 840.004595 343.409109 
L 841.327915 343.141711 
L 842.651235 343.326833 
L 843.974555 343.799922 
L 845.297875 343.265126 
L 846.621196 342.915451 
L 847.944516 343.357686 
L 849.267836 343.141711 
L 853.237796 343.686792 
L 854.561117 342.802321 
L 855.884437 343.028581 
L 858.531077 343.151996 
L 859.854397 342.70976 
L 861.177717 343.04915 
L 862.501038 343.738215 
L 863.824358 342.802321 
L 865.147678 342.617199 
L 867.794318 342.771467 
L 869.117638 342.534923 
L 870.440958 342.70976 
L 871.764279 343.50167 
L 873.087599 342.349801 
L 874.410919 342.894882 
L 875.734239 341.876712 
L 877.057559 342.452646 
L 878.380879 342.092687 
L 881.02752 343.203418 
L 882.35084 341.69159 
L 883.67416 340.858542 
L 884.99748 341.660736 
L 886.3208 340.076916 
L 887.644121 339.141023 
L 888.967441 341.033379 
L 890.290761 342.082403 
L 891.614081 338.842771 
L 892.937401 337.937731 
L 894.260721 337.269236 
L 895.584042 338.246267 
L 896.907362 336.796146 
L 898.230682 338.657649 
L 899.554002 341.938419 
L 900.877322 336.14822 
L 902.200642 333.422816 
L 903.523962 339.274722 
L 904.847283 330.707696 
L 907.493923 334.605538 
L 908.817243 340.827688 
L 910.140563 331.191069 
L 911.463883 328.578795 
L 912.787204 330.985378 
L 914.110524 332.456068 
L 915.433844 329.658672 
L 918.080484 339.922648 
L 919.403804 327.478348 
L 920.727125 324.907212 
L 922.050445 325.688837 
L 923.373765 327.457779 
L 924.697085 326.275057 
L 926.020405 331.160216 
L 927.343725 337.937731 
L 928.667045 324.629529 
L 929.990366 318.438233 
L 931.313686 324.15644 
L 932.637006 321.770426 
L 933.960326 320.567134 
L 935.283646 329.514688 
L 936.606966 336.199643 
L 937.930287 321.276767 
L 939.253607 313.573643 
L 940.576927 319.51811 
L 941.900247 319.075875 
L 943.223567 318.129697 
L 944.546887 321.698434 
L 945.870208 331.838996 
L 947.193528 313.265107 
L 948.516848 299.83349 
L 949.840168 302.970277 
L 951.163488 298.640483 
L 952.486808 298.661052 
L 953.810128 303.782756 
L 955.133449 324.845505 
L 956.456769 297.488614 
L 957.780089 281.516715 
L 959.103409 279.531798 
L 960.426729 281.18761 
L 961.750049 275.438549 
L 963.07337 291.986382 
L 964.39669 311.958969 
L 965.72001 310.704255 
L 967.04333 259.158113 
L 968.36665 252.833118 
L 969.68997 254.283239 
L 971.013291 255.311693 
L 973.659931 293.662763 
L 974.983251 258.849577 
L 976.306571 247.351455 
L 977.629891 250.395681 
L 978.953211 247.145764 
L 980.276532 242.301743 
L 981.599852 265.164288 
L 982.923172 285.661387 
L 984.246492 236.902357 
L 985.569812 231.235573 
L 986.893132 253.974702 
L 988.216453 233.477603 
L 989.539773 210.995587 
L 990.863093 245.459099 
L 992.186413 268.311359 
L 993.509733 230.093988 
L 994.833053 207.591403 
L 996.156374 208.876971 
L 997.479694 219.634605 
L 998.803014 222.030904 
L 1000.126334 250.879054 
L 1001.449654 265.431686 
L 1002.772974 236.72752 
L 1004.096294 216.888632 
L 1005.419615 242.445727 
L 1006.742935 163.655825 
L 1008.066255 222.730254 
L 1009.389575 255.867059 
L 1010.712895 296.316176 
L 1012.036215 247.557146 
L 1013.359536 233.734717 
L 1014.682856 241.489264 
L 1016.006176 262.418314 
L 1017.329496 268.136521 
L 1018.652816 282.668584 
L 1019.976136 314.036448 
L 1021.299457 275.561963 
L 1022.622777 276.66241 
L 1023.946097 260.423112 
L 1025.269417 286.59728 
L 1026.592737 293.436503 
L 1027.916057 302.250358 
L 1029.239377 324.711806 
L 1030.562698 290.885936 
L 1031.886018 316.175633 
L 1033.209338 267.735424 
L 1034.532658 286.946955 
L 1035.855978 330.94424 
L 1037.179298 337.238382 
L 1038.502619 327.118389 
L 1039.825939 285.250005 
L 1041.149259 279.099847 
L 1042.472579 304.091292 
L 1043.795899 305.757388 
L 1045.119219 310.375149 
L 1046.44254 338.925047 
L 1047.76586 326.449894 
L 1049.08918 296.55272 
L 1050.4125 296.871541 
L 1051.73582 305.088893 
L 1053.05914 328.445096 
L 1054.38246 306.754989 
L 1055.705781 317.574331 
L 1057.029101 330.656273 
L 1058.352421 309.038158 
L 1059.675741 303.967878 
L 1060.999061 307.917143 
L 1062.322381 321.369328 
L 1063.645702 317.430347 
L 1064.969022 307.690883 
L 1066.292342 326.624731 
L 1067.615662 326.069366 
L 1068.938982 234.547196 
L 1070.262302 270.933918 
L 1071.585623 259.795755 
L 1072.908943 266.336726 
L 1074.232263 257.872545 
L 1075.555583 330.872248 
L 1076.878903 197.306857 
L 1078.202223 175.339068 
L 1079.525543 167.882773 
L 1080.848864 168.911227 
L 1082.172184 160.878998 
L 1083.495504 187.701092 
L 1084.818824 270.059731 
L 1086.142144 100.261887 
L 1087.465464 94.245428 
L 1088.788785 110.926961 
L 1090.112105 134.396293 
L 1091.435425 70.457274 
L 1092.758745 153.289003 
L 1094.082065 211.489245 
L 1095.405385 81.029787 
L 1096.728706 118.043866 
L 1098.052026 53.631758 
L 1099.375346 93.268396 
L 1100.698666 103.347251 
L 1102.021986 176.840612 
L 1103.345306 221.34184 
L 1104.668626 122.630773 
L 1105.991947 50.8755 
L 1107.315267 107.985581 
L 1108.638587 124.86252 
L 1109.961907 123.443252 
L 1111.285227 191.979463 
L 1112.608547 247.125195 
L 1113.931868 183.78268 
L 1115.255188 70.313291 
L 1116.578508 147.46795 
L 1117.901828 214.533471 
L 1119.225148 154.204328 
L 1120.548468 242.702841 
L 1121.871789 271.149893 
L 1123.195109 185.263655 
L 1124.518429 180.800162 
L 1125.841749 199.16836 
L 1127.165069 205.359656 
L 1128.488389 216.857778 
L 1129.811709 268.126237 
L 1131.13503 290.937359 
L 1132.45835 201.554375 
L 1133.78167 196.360679 
L 1135.10499 193.079909 
L 1136.42831 216.806355 
L 1137.75163 228.726143 
L 1139.074951 256.052181 
L 1140.398271 296.89211 
L 1141.721591 214.132374 
L 1143.044911 203.621568 
L 1144.368231 208.249614 
L 1145.691551 231.605816 
L 1147.014872 231.97606 
L 1148.338192 265.411117 
L 1149.661512 304.296983 
L 1150.984832 227.420006 
L 1152.308152 218.637004 
L 1153.631472 227.851957 
L 1154.954792 246.919504 
L 1156.278113 254.14954 
L 1158.924753 307.207509 
L 1160.248073 258.901 
L 1161.571393 261.27673 
L 1162.894713 257.337749 
L 1164.218034 272.404608 
L 1165.541354 276.816678 
L 1166.864674 307.402916 
L 1168.187994 322.397783 
L 1169.511314 277.053222 
L 1170.834634 281.73269 
L 1172.157955 289.898619 
L 1173.481275 300.604831 
L 1174.804595 304.029585 
L 1176.127915 319.158151 
L 1177.451235 330.697411 
L 1178.774555 303.937024 
L 1180.097875 312.318928 
L 1181.421196 344.026182 
L 1182.744516 282.390901 
L 1184.067836 333.361108 
L 1185.391156 334.656961 
L 1186.714476 344.026182 
L 1188.037796 320.320305 
L 1189.361117 352.089265 
L 1190.684437 277.34119 
L 1192.007757 316.391608 
L 1193.331077 324.72209 
L 1194.654397 331.088224 
L 1195.977717 338.133137 
L 1197.301038 325.339163 
L 1198.624358 305.366576 
L 1199.947678 330.028916 
L 1201.270998 344.026182 
L 1206.564279 344.026182 
L 1207.887599 288.098824 
L 1209.210919 336.014521 
L 1210.534239 337.330943 
L 1211.857559 337.629195 
L 1213.180879 341.002526 
L 1214.5042 342.884597 
L 1215.82752 337.526349 
L 1217.15084 337.50578 
L 1218.47416 338.688503 
L 1219.79748 340.138624 
L 1221.1208 344.026182 
L 1222.444121 336.929846 
L 1223.767441 343.234272 
L 1225.090761 339.326145 
L 1226.414081 340.282607 
L 1227.737401 344.026182 
L 1229.060721 337.762894 
L 1230.384042 344.026182 
L 1231.707362 344.026182 
L 1233.030682 339.254153 
L 1234.354002 340.724843 
L 1235.677322 341.424192 
L 1237.000642 344.026182 
L 1238.323962 339.120454 
L 1239.647283 341.91785 
L 1240.970603 342.915451 
L 1242.293923 343.553093 
L 1243.617243 341.773866 
L 1248.910524 342.164679 
L 1250.233844 343.018296 
L 1251.557164 343.367971 
L 1252.880484 341.3522 
L 1254.203804 341.660736 
L 1255.527125 341.331631 
L 1256.850445 341.784151 
L 1258.173765 341.91785 
L 1259.497085 344.026182 
L 1260.820405 342.534923 
L 1262.143725 340.796835 
L 1263.467045 341.228786 
L 1264.790366 341.537322 
L 1266.113686 341.681306 
L 1267.437006 341.403623 
L 1268.760326 344.026182 
L 1270.083646 341.845858 
L 1271.406966 339.356998 
L 1272.730287 339.614112 
L 1274.053607 339.747811 
L 1275.376927 339.665535 
L 1276.700247 338.709072 
L 1278.023567 341.629883 
L 1279.346887 342.534923 
L 1280.670208 336.539033 
L 1281.993528 337.073829 
L 1283.316848 336.333342 
L 1284.640168 344.026182 
L 1289.933449 344.026182 
L 1291.256769 313.213684 
L 1292.580089 334.070742 
L 1293.903409 334.029604 
L 1295.226729 332.198955 
L 1296.550049 339.521551 
L 1297.87337 341.979557 
L 1299.19669 331.180785 
L 1300.52001 331.96241 
L 1301.84333 332.949726 
L 1303.16665 332.785174 
L 1304.48997 329.956924 
L 1305.813291 337.917162 
L 1307.136611 341.557891 
L 1307.136611 341.557891 
" clip-path="url(#p9140a5c14f)" style="fill: none; stroke: #0000ff; stroke-width: 1.5; stroke-linecap: square"/>
   </g>
   <g id="line2d_19">
    <path d="M 1067.615662 310.094334 
L 1068.938982 288.424607 
L 1070.262302 300.097427 
L 1071.585623 281.128582 
L 1072.908943 276.115627 
L 1074.232263 276.845919 
L 1075.555583 288.56291 
L 1076.878903 202.035498 
L 1078.202223 224.347621 
L 1079.525543 202.244891 
L 1080.848864 198.459302 
L 1082.172184 174.951816 
L 1083.495504 222.25474 
L 1084.818824 157.619406 
L 1086.142144 108.769614 
L 1087.465464 112.440547 
L 1088.788785 112.747183 
L 1090.112105 116.792758 
L 1091.435425 108.988738 
L 1092.758745 184.77977 
L 1094.082065 74.350258 
L 1095.405385 66.399295 
L 1096.728706 91.448409 
L 1098.052026 91.63919 
L 1099.375346 62.493094 
L 1102.021986 186.984543 
L 1103.345306 88.4489 
L 1104.668626 117.488863 
L 1105.991947 66.164423 
L 1107.315267 114.728704 
L 1108.638587 107.971018 
L 1109.961907 167.239629 
L 1111.285227 208.562413 
L 1112.608547 139.407553 
L 1113.931868 118.296276 
L 1115.255188 124.308204 
L 1116.578508 155.472621 
L 1117.901828 170.258157 
L 1119.225148 214.96741 
L 1120.548468 265.514971 
L 1121.871789 208.737704 
L 1123.195109 132.974436 
L 1124.518429 197.702579 
L 1125.841749 235.878491 
L 1127.165069 193.704094 
L 1128.488389 266.585827 
L 1129.811709 294.111421 
L 1131.13503 229.313119 
L 1132.45835 196.247281 
L 1133.78167 223.810405 
L 1135.10499 227.836529 
L 1136.42831 222.711954 
L 1137.75163 268.688172 
L 1139.074951 283.696136 
L 1140.398271 220.685781 
L 1141.721591 207.915493 
L 1143.044911 213.168861 
L 1144.368231 228.520842 
L 1145.691551 236.046654 
L 1147.014872 261.657886 
L 1148.338192 291.086155 
L 1149.661512 230.372347 
L 1150.984832 220.431503 
L 1152.308152 224.512962 
L 1153.631472 243.779882 
L 1154.954792 246.829704 
L 1157.601433 305.190152 
L 1158.924753 245.641215 
L 1160.248073 243.081698 
L 1161.571393 254.533025 
L 1162.894713 270.18386 
L 1164.218034 276.151747 
L 1165.541354 298.841211 
L 1166.864674 325.663205 
L 1168.187994 280.119672 
L 1169.511314 278.899134 
L 1170.834634 279.579669 
L 1172.157955 295.563686 
L 1173.481275 299.84225 
L 1174.804595 323.982567 
L 1176.127915 337.561939 
L 1177.451235 299.409376 
L 1178.774555 303.71119 
L 1180.097875 310.023393 
L 1181.421196 329.269368 
L 1182.744516 314.716785 
L 1184.067836 341.344433 
L 1185.391156 347.281047 
L 1186.714476 323.093788 
L 1188.037796 324.548786 
L 1189.361117 353.2755 
L 1190.684437 295.338434 
L 1192.007757 338.037932 
L 1193.331077 334.043298 
L 1194.654397 343.124901 
L 1195.977717 316.988737 
L 1197.301038 340.73042 
L 1198.624358 292.523561 
L 1199.947678 320.239614 
L 1201.270998 335.99989 
L 1202.594318 342.931291 
L 1203.917638 348.713417 
L 1205.240958 337.822658 
L 1206.564279 335.787026 
L 1207.887599 322.891164 
L 1209.210919 341.792777 
L 1210.534239 340.357299 
L 1211.857559 341.399949 
L 1213.180879 340.835778 
L 1214.5042 339.232562 
L 1215.82752 306.19805 
L 1217.15084 343.598392 
L 1218.47416 343.409537 
L 1219.79748 345.353892 
L 1221.1208 347.750264 
L 1222.444121 347.360318 
L 1223.767441 342.015834 
L 1225.090761 331.308469 
L 1226.414081 342.329167 
L 1229.060721 344.396748 
L 1230.384042 341.773668 
L 1231.707362 346.751432 
L 1233.030682 340.728038 
L 1234.354002 338.900742 
L 1235.677322 343.834232 
L 1237.000642 340.849295 
L 1238.323962 344.158834 
L 1240.970603 341.623842 
L 1242.293923 341.962834 
L 1243.617243 341.397202 
L 1244.940563 344.205192 
L 1246.263883 340.04328 
L 1247.587204 343.737568 
L 1248.910524 343.232603 
L 1250.233844 343.243372 
L 1251.557164 342.124339 
L 1252.880484 341.980272 
L 1254.203804 342.676916 
L 1255.527125 341.283821 
L 1256.850445 342.352782 
L 1258.173765 342.616374 
L 1259.497085 343.26558 
L 1260.820405 341.459755 
L 1262.143725 341.589389 
L 1264.790366 341.591812 
L 1266.113686 341.828992 
L 1267.437006 342.950048 
L 1268.760326 342.559443 
L 1270.083646 340.899567 
L 1274.053607 340.533811 
L 1275.376927 340.123959 
L 1276.700247 341.40568 
L 1278.023567 340.085032 
L 1279.346887 339.012657 
L 1280.670208 338.226157 
L 1281.993528 338.247026 
L 1283.316848 337.682003 
L 1284.640168 339.349955 
L 1285.963488 342.167891 
L 1287.286808 342.687884 
L 1288.610128 339.464391 
L 1289.933449 341.749191 
L 1291.256769 332.178351 
L 1292.580089 339.421132 
L 1293.903409 336.127302 
L 1295.226729 335.595672 
L 1296.550049 335.393864 
L 1297.87337 336.401141 
L 1299.19669 317.529139 
L 1300.52001 334.22977 
L 1301.84333 334.046706 
L 1303.16665 333.499386 
L 1305.813291 339.233302 
L 1307.136611 333.164059 
L 1307.136611 333.164059 
" clip-path="url(#p9140a5c14f)" style="fill: none; stroke: #ffa500; stroke-width: 1.5; stroke-linecap: square"/>
   </g>
   <g id="line2d_20">
    <path d="M 1307.136611 333.164059 
L 1308.459931 328.452442 
L 1309.783251 332.174103 
L 1311.106571 332.625993 
L 1312.429891 330.961514 
L 1313.753211 336.466368 
L 1315.076532 338.795527 
L 1316.399852 332.399632 
L 1317.723172 328.611539 
L 1319.046492 331.72357 
L 1320.369812 332.038978 
L 1321.693132 330.597506 
L 1323.016453 335.189807 
L 1324.339773 337.143694 
" clip-path="url(#p9140a5c14f)" style="fill: none; stroke: #ff0000; stroke-width: 1.5; stroke-linecap: square"/>
   </g>
   <g id="patch_3">
    <path d="M 46.0125 368.3955 
L 46.0125 35.7555 
" style="fill: none; stroke: #000000; stroke-width: 0.8; stroke-linejoin: miter; stroke-linecap: square"/>
   </g>
   <g id="patch_4">
    <path d="M 1385.2125 368.3955 
L 1385.2125 35.7555 
" style="fill: none; stroke: #000000; stroke-width: 0.8; stroke-linejoin: miter; stroke-linecap: square"/>
   </g>
   <g id="patch_5">
    <path d="M 46.0125 368.3955 
L 1385.2125 368.3955 
" style="fill: none; stroke: #000000; stroke-width: 0.8; stroke-linejoin: miter; stroke-linecap: square"/>
   </g>
   <g id="patch_6">
    <path d="M 46.0125 35.7555 
L 1385.2125 35.7555 
" style="fill: none; stroke: #000000; stroke-width: 0.8; stroke-linejoin: miter; stroke-linecap: square"/>
   </g>
   <g id="text_18">
    <!-- Daily Confirmed Cases Forecasting - Slovakia -->
    <g transform="translate(579.91875 16.318125)scale(0.12 -0.12)">
     <defs>
      <path id="DejaVuSans-44" d="M 1259 4147 
L 1259 519 
L 2022 519 
Q 2988 519 3436 956 
Q 3884 1394 3884 2338 
Q 3884 3275 3436 3711 
Q 2988 4147 2022 4147 
L 1259 4147 
z
M 628 4666 
L 1925 4666 
Q 3281 4666 3915 4102 
Q 4550 3538 4550 2338 
Q 4550 1131 3912 565 
Q 3275 0 1925 0 
L 628 0 
L 628 4666 
z
" transform="scale(0.015625)"/>
      <path id="DejaVuSans-61" d="M 2194 1759 
Q 1497 1759 1228 1600 
Q 959 1441 959 1056 
Q 959 750 1161 570 
Q 1363 391 1709 391 
Q 2188 391 2477 730 
Q 2766 1069 2766 1631 
L 2766 1759 
L 2194 1759 
z
M 3341 1997 
L 3341 0 
L 2766 0 
L 2766 531 
Q 2569 213 2275 61 
Q 1981 -91 1556 -91 
Q 1019 -91 701 211 
Q 384 513 384 1019 
Q 384 1609 779 1909 
Q 1175 2209 1959 2209 
L 2766 2209 
L 2766 2266 
Q 2766 2663 2505 2880 
Q 2244 3097 1772 3097 
Q 1472 3097 1187 3025 
Q 903 2953 641 2809 
L 641 3341 
Q 956 3463 1253 3523 
Q 1550 3584 1831 3584 
Q 2591 3584 2966 3190 
Q 3341 2797 3341 1997 
z
" transform="scale(0.015625)"/>
      <path id="DejaVuSans-69" d="M 603 3500 
L 1178 3500 
L 1178 0 
L 603 0 
L 603 3500 
z
M 603 4863 
L 1178 4863 
L 1178 4134 
L 603 4134 
L 603 4863 
z
" transform="scale(0.015625)"/>
      <path id="DejaVuSans-6c" d="M 603 4863 
L 1178 4863 
L 1178 0 
L 603 0 
L 603 4863 
z
" transform="scale(0.015625)"/>
      <path id="DejaVuSans-79" d="M 2059 -325 
Q 1816 -950 1584 -1140 
Q 1353 -1331 966 -1331 
L 506 -1331 
L 506 -850 
L 844 -850 
Q 1081 -850 1212 -737 
Q 1344 -625 1503 -206 
L 1606 56 
L 191 3500 
L 800 3500 
L 1894 763 
L 2988 3500 
L 3597 3500 
L 2059 -325 
z
" transform="scale(0.015625)"/>
      <path id="DejaVuSans-20" transform="scale(0.015625)"/>
      <path id="DejaVuSans-43" d="M 4122 4306 
L 4122 3641 
Q 3803 3938 3442 4084 
Q 3081 4231 2675 4231 
Q 1875 4231 1450 3742 
Q 1025 3253 1025 2328 
Q 1025 1406 1450 917 
Q 1875 428 2675 428 
Q 3081 428 3442 575 
Q 3803 722 4122 1019 
L 4122 359 
Q 3791 134 3420 21 
Q 3050 -91 2638 -91 
Q 1578 -91 968 557 
Q 359 1206 359 2328 
Q 359 3453 968 4101 
Q 1578 4750 2638 4750 
Q 3056 4750 3426 4639 
Q 3797 4528 4122 4306 
z
" transform="scale(0.015625)"/>
      <path id="DejaVuSans-6f" d="M 1959 3097 
Q 1497 3097 1228 2736 
Q 959 2375 959 1747 
Q 959 1119 1226 758 
Q 1494 397 1959 397 
Q 2419 397 2687 759 
Q 2956 1122 2956 1747 
Q 2956 2369 2687 2733 
Q 2419 3097 1959 3097 
z
M 1959 3584 
Q 2709 3584 3137 3096 
Q 3566 2609 3566 1747 
Q 3566 888 3137 398 
Q 2709 -91 1959 -91 
Q 1206 -91 779 398 
Q 353 888 353 1747 
Q 353 2609 779 3096 
Q 1206 3584 1959 3584 
z
" transform="scale(0.015625)"/>
      <path id="DejaVuSans-6e" d="M 3513 2113 
L 3513 0 
L 2938 0 
L 2938 2094 
Q 2938 2591 2744 2837 
Q 2550 3084 2163 3084 
Q 1697 3084 1428 2787 
Q 1159 2491 1159 1978 
L 1159 0 
L 581 0 
L 581 3500 
L 1159 3500 
L 1159 2956 
Q 1366 3272 1645 3428 
Q 1925 3584 2291 3584 
Q 2894 3584 3203 3211 
Q 3513 2838 3513 2113 
z
" transform="scale(0.015625)"/>
      <path id="DejaVuSans-66" d="M 2375 4863 
L 2375 4384 
L 1825 4384 
Q 1516 4384 1395 4259 
Q 1275 4134 1275 3809 
L 1275 3500 
L 2222 3500 
L 2222 3053 
L 1275 3053 
L 1275 0 
L 697 0 
L 697 3053 
L 147 3053 
L 147 3500 
L 697 3500 
L 697 3744 
Q 697 4328 969 4595 
Q 1241 4863 1831 4863 
L 2375 4863 
z
" transform="scale(0.015625)"/>
      <path id="DejaVuSans-72" d="M 2631 2963 
Q 2534 3019 2420 3045 
Q 2306 3072 2169 3072 
Q 1681 3072 1420 2755 
Q 1159 2438 1159 1844 
L 1159 0 
L 581 0 
L 581 3500 
L 1159 3500 
L 1159 2956 
Q 1341 3275 1631 3429 
Q 1922 3584 2338 3584 
Q 2397 3584 2469 3576 
Q 2541 3569 2628 3553 
L 2631 2963 
z
" transform="scale(0.015625)"/>
      <path id="DejaVuSans-6d" d="M 3328 2828 
Q 3544 3216 3844 3400 
Q 4144 3584 4550 3584 
Q 5097 3584 5394 3201 
Q 5691 2819 5691 2113 
L 5691 0 
L 5113 0 
L 5113 2094 
Q 5113 2597 4934 2840 
Q 4756 3084 4391 3084 
Q 3944 3084 3684 2787 
Q 3425 2491 3425 1978 
L 3425 0 
L 2847 0 
L 2847 2094 
Q 2847 2600 2669 2842 
Q 2491 3084 2119 3084 
Q 1678 3084 1418 2786 
Q 1159 2488 1159 1978 
L 1159 0 
L 581 0 
L 581 3500 
L 1159 3500 
L 1159 2956 
Q 1356 3278 1631 3431 
Q 1906 3584 2284 3584 
Q 2666 3584 2933 3390 
Q 3200 3197 3328 2828 
z
" transform="scale(0.015625)"/>
      <path id="DejaVuSans-65" d="M 3597 1894 
L 3597 1613 
L 953 1613 
Q 991 1019 1311 708 
Q 1631 397 2203 397 
Q 2534 397 2845 478 
Q 3156 559 3463 722 
L 3463 178 
Q 3153 47 2828 -22 
Q 2503 -91 2169 -91 
Q 1331 -91 842 396 
Q 353 884 353 1716 
Q 353 2575 817 3079 
Q 1281 3584 2069 3584 
Q 2775 3584 3186 3129 
Q 3597 2675 3597 1894 
z
M 3022 2063 
Q 3016 2534 2758 2815 
Q 2500 3097 2075 3097 
Q 1594 3097 1305 2825 
Q 1016 2553 972 2059 
L 3022 2063 
z
" transform="scale(0.015625)"/>
      <path id="DejaVuSans-64" d="M 2906 2969 
L 2906 4863 
L 3481 4863 
L 3481 0 
L 2906 0 
L 2906 525 
Q 2725 213 2448 61 
Q 2172 -91 1784 -91 
Q 1150 -91 751 415 
Q 353 922 353 1747 
Q 353 2572 751 3078 
Q 1150 3584 1784 3584 
Q 2172 3584 2448 3432 
Q 2725 3281 2906 2969 
z
M 947 1747 
Q 947 1113 1208 752 
Q 1469 391 1925 391 
Q 2381 391 2643 752 
Q 2906 1113 2906 1747 
Q 2906 2381 2643 2742 
Q 2381 3103 1925 3103 
Q 1469 3103 1208 2742 
Q 947 2381 947 1747 
z
" transform="scale(0.015625)"/>
      <path id="DejaVuSans-73" d="M 2834 3397 
L 2834 2853 
Q 2591 2978 2328 3040 
Q 2066 3103 1784 3103 
Q 1356 3103 1142 2972 
Q 928 2841 928 2578 
Q 928 2378 1081 2264 
Q 1234 2150 1697 2047 
L 1894 2003 
Q 2506 1872 2764 1633 
Q 3022 1394 3022 966 
Q 3022 478 2636 193 
Q 2250 -91 1575 -91 
Q 1294 -91 989 -36 
Q 684 19 347 128 
L 347 722 
Q 666 556 975 473 
Q 1284 391 1588 391 
Q 1994 391 2212 530 
Q 2431 669 2431 922 
Q 2431 1156 2273 1281 
Q 2116 1406 1581 1522 
L 1381 1569 
Q 847 1681 609 1914 
Q 372 2147 372 2553 
Q 372 3047 722 3315 
Q 1072 3584 1716 3584 
Q 2034 3584 2315 3537 
Q 2597 3491 2834 3397 
z
" transform="scale(0.015625)"/>
      <path id="DejaVuSans-46" d="M 628 4666 
L 3309 4666 
L 3309 4134 
L 1259 4134 
L 1259 2759 
L 3109 2759 
L 3109 2228 
L 1259 2228 
L 1259 0 
L 628 0 
L 628 4666 
z
" transform="scale(0.015625)"/>
      <path id="DejaVuSans-63" d="M 3122 3366 
L 3122 2828 
Q 2878 2963 2633 3030 
Q 2388 3097 2138 3097 
Q 1578 3097 1268 2742 
Q 959 2388 959 1747 
Q 959 1106 1268 751 
Q 1578 397 2138 397 
Q 2388 397 2633 464 
Q 2878 531 3122 666 
L 3122 134 
Q 2881 22 2623 -34 
Q 2366 -91 2075 -91 
Q 1284 -91 818 406 
Q 353 903 353 1747 
Q 353 2603 823 3093 
Q 1294 3584 2113 3584 
Q 2378 3584 2631 3529 
Q 2884 3475 3122 3366 
z
" transform="scale(0.015625)"/>
      <path id="DejaVuSans-74" d="M 1172 4494 
L 1172 3500 
L 2356 3500 
L 2356 3053 
L 1172 3053 
L 1172 1153 
Q 1172 725 1289 603 
Q 1406 481 1766 481 
L 2356 481 
L 2356 0 
L 1766 0 
Q 1100 0 847 248 
Q 594 497 594 1153 
L 594 3053 
L 172 3053 
L 172 3500 
L 594 3500 
L 594 4494 
L 1172 4494 
z
" transform="scale(0.015625)"/>
      <path id="DejaVuSans-67" d="M 2906 1791 
Q 2906 2416 2648 2759 
Q 2391 3103 1925 3103 
Q 1463 3103 1205 2759 
Q 947 2416 947 1791 
Q 947 1169 1205 825 
Q 1463 481 1925 481 
Q 2391 481 2648 825 
Q 2906 1169 2906 1791 
z
M 3481 434 
Q 3481 -459 3084 -895 
Q 2688 -1331 1869 -1331 
Q 1566 -1331 1297 -1286 
Q 1028 -1241 775 -1147 
L 775 -588 
Q 1028 -725 1275 -790 
Q 1522 -856 1778 -856 
Q 2344 -856 2625 -561 
Q 2906 -266 2906 331 
L 2906 616 
Q 2728 306 2450 153 
Q 2172 0 1784 0 
Q 1141 0 747 490 
Q 353 981 353 1791 
Q 353 2603 747 3093 
Q 1141 3584 1784 3584 
Q 2172 3584 2450 3431 
Q 2728 3278 2906 2969 
L 2906 3500 
L 3481 3500 
L 3481 434 
z
" transform="scale(0.015625)"/>
      <path id="DejaVuSans-53" d="M 3425 4513 
L 3425 3897 
Q 3066 4069 2747 4153 
Q 2428 4238 2131 4238 
Q 1616 4238 1336 4038 
Q 1056 3838 1056 3469 
Q 1056 3159 1242 3001 
Q 1428 2844 1947 2747 
L 2328 2669 
Q 3034 2534 3370 2195 
Q 3706 1856 3706 1288 
Q 3706 609 3251 259 
Q 2797 -91 1919 -91 
Q 1588 -91 1214 -16 
Q 841 59 441 206 
L 441 856 
Q 825 641 1194 531 
Q 1563 422 1919 422 
Q 2459 422 2753 634 
Q 3047 847 3047 1241 
Q 3047 1584 2836 1778 
Q 2625 1972 2144 2069 
L 1759 2144 
Q 1053 2284 737 2584 
Q 422 2884 422 3419 
Q 422 4038 858 4394 
Q 1294 4750 2059 4750 
Q 2388 4750 2728 4690 
Q 3069 4631 3425 4513 
z
" transform="scale(0.015625)"/>
      <path id="DejaVuSans-76" d="M 191 3500 
L 800 3500 
L 1894 563 
L 2988 3500 
L 3597 3500 
L 2284 0 
L 1503 0 
L 191 3500 
z
" transform="scale(0.015625)"/>
      <path id="DejaVuSans-6b" d="M 581 4863 
L 1159 4863 
L 1159 1991 
L 2875 3500 
L 3609 3500 
L 1753 1863 
L 3688 0 
L 2938 0 
L 1159 1709 
L 1159 0 
L 581 0 
L 581 4863 
z
" transform="scale(0.015625)"/>
     </defs>
     <use xlink:href="#DejaVuSans-44"/>
     <use xlink:href="#DejaVuSans-61" x="77.001953"/>
     <use xlink:href="#DejaVuSans-69" x="138.28125"/>
     <use xlink:href="#DejaVuSans-6c" x="166.064453"/>
     <use xlink:href="#DejaVuSans-79" x="193.847656"/>
     <use xlink:href="#DejaVuSans-20" x="253.027344"/>
     <use xlink:href="#DejaVuSans-43" x="284.814453"/>
     <use xlink:href="#DejaVuSans-6f" x="354.638672"/>
     <use xlink:href="#DejaVuSans-6e" x="415.820312"/>
     <use xlink:href="#DejaVuSans-66" x="479.199219"/>
     <use xlink:href="#DejaVuSans-69" x="514.404297"/>
     <use xlink:href="#DejaVuSans-72" x="542.1875"/>
     <use xlink:href="#DejaVuSans-6d" x="581.550781"/>
     <use xlink:href="#DejaVuSans-65" x="678.962891"/>
     <use xlink:href="#DejaVuSans-64" x="740.486328"/>
     <use xlink:href="#DejaVuSans-20" x="803.962891"/>
     <use xlink:href="#DejaVuSans-43" x="835.75"/>
     <use xlink:href="#DejaVuSans-61" x="905.574219"/>
     <use xlink:href="#DejaVuSans-73" x="966.853516"/>
     <use xlink:href="#DejaVuSans-65" x="1018.953125"/>
     <use xlink:href="#DejaVuSans-73" x="1080.476562"/>
     <use xlink:href="#DejaVuSans-20" x="1132.576172"/>
     <use xlink:href="#DejaVuSans-46" x="1164.363281"/>
     <use xlink:href="#DejaVuSans-6f" x="1218.257812"/>
     <use xlink:href="#DejaVuSans-72" x="1279.439453"/>
     <use xlink:href="#DejaVuSans-65" x="1318.302734"/>
     <use xlink:href="#DejaVuSans-63" x="1379.826172"/>
     <use xlink:href="#DejaVuSans-61" x="1434.806641"/>
     <use xlink:href="#DejaVuSans-73" x="1496.085938"/>
     <use xlink:href="#DejaVuSans-74" x="1548.185547"/>
     <use xlink:href="#DejaVuSans-69" x="1587.394531"/>
     <use xlink:href="#DejaVuSans-6e" x="1615.177734"/>
     <use xlink:href="#DejaVuSans-67" x="1678.556641"/>
     <use xlink:href="#DejaVuSans-20" x="1742.033203"/>
     <use xlink:href="#DejaVuSans-2d" x="1773.820312"/>
     <use xlink:href="#DejaVuSans-20" x="1809.904297"/>
     <use xlink:href="#DejaVuSans-53" x="1841.691406"/>
     <use xlink:href="#DejaVuSans-6c" x="1905.167969"/>
     <use xlink:href="#DejaVuSans-6f" x="1932.951172"/>
     <use xlink:href="#DejaVuSans-76" x="1994.132812"/>
     <use xlink:href="#DejaVuSans-61" x="2053.3125"/>
     <use xlink:href="#DejaVuSans-6b" x="2114.591797"/>
     <use xlink:href="#DejaVuSans-69" x="2172.501953"/>
     <use xlink:href="#DejaVuSans-61" x="2200.285156"/>
    </g>
    <!-- ARIMA (4, 1, 1)x(1, 0, 1, 7) (R2 = 0.870868) -->
    <g transform="translate(583.628438 29.7555)scale(0.12 -0.12)">
     <defs>
      <path id="DejaVuSans-41" d="M 2188 4044 
L 1331 1722 
L 3047 1722 
L 2188 4044 
z
M 1831 4666 
L 2547 4666 
L 4325 0 
L 3669 0 
L 3244 1197 
L 1141 1197 
L 716 0 
L 50 0 
L 1831 4666 
z
" transform="scale(0.015625)"/>
      <path id="DejaVuSans-52" d="M 2841 2188 
Q 3044 2119 3236 1894 
Q 3428 1669 3622 1275 
L 4263 0 
L 3584 0 
L 2988 1197 
Q 2756 1666 2539 1819 
Q 2322 1972 1947 1972 
L 1259 1972 
L 1259 0 
L 628 0 
L 628 4666 
L 2053 4666 
Q 2853 4666 3247 4331 
Q 3641 3997 3641 3322 
Q 3641 2881 3436 2590 
Q 3231 2300 2841 2188 
z
M 1259 4147 
L 1259 2491 
L 2053 2491 
Q 2509 2491 2742 2702 
Q 2975 2913 2975 3322 
Q 2975 3731 2742 3939 
Q 2509 4147 2053 4147 
L 1259 4147 
z
" transform="scale(0.015625)"/>
      <path id="DejaVuSans-49" d="M 628 4666 
L 1259 4666 
L 1259 0 
L 628 0 
L 628 4666 
z
" transform="scale(0.015625)"/>
      <path id="DejaVuSans-4d" d="M 628 4666 
L 1569 4666 
L 2759 1491 
L 3956 4666 
L 4897 4666 
L 4897 0 
L 4281 0 
L 4281 4097 
L 3078 897 
L 2444 897 
L 1241 4097 
L 1241 0 
L 628 0 
L 628 4666 
z
" transform="scale(0.015625)"/>
      <path id="DejaVuSans-28" d="M 1984 4856 
Q 1566 4138 1362 3434 
Q 1159 2731 1159 2009 
Q 1159 1288 1364 580 
Q 1569 -128 1984 -844 
L 1484 -844 
Q 1016 -109 783 600 
Q 550 1309 550 2009 
Q 550 2706 781 3412 
Q 1013 4119 1484 4856 
L 1984 4856 
z
" transform="scale(0.015625)"/>
      <path id="DejaVuSans-2c" d="M 750 794 
L 1409 794 
L 1409 256 
L 897 -744 
L 494 -744 
L 750 256 
L 750 794 
z
" transform="scale(0.015625)"/>
      <path id="DejaVuSans-29" d="M 513 4856 
L 1013 4856 
Q 1481 4119 1714 3412 
Q 1947 2706 1947 2009 
Q 1947 1309 1714 600 
Q 1481 -109 1013 -844 
L 513 -844 
Q 928 -128 1133 580 
Q 1338 1288 1338 2009 
Q 1338 2731 1133 3434 
Q 928 4138 513 4856 
z
" transform="scale(0.015625)"/>
      <path id="DejaVuSans-78" d="M 3513 3500 
L 2247 1797 
L 3578 0 
L 2900 0 
L 1881 1375 
L 863 0 
L 184 0 
L 1544 1831 
L 300 3500 
L 978 3500 
L 1906 2253 
L 2834 3500 
L 3513 3500 
z
" transform="scale(0.015625)"/>
      <path id="DejaVuSans-3d" d="M 678 2906 
L 4684 2906 
L 4684 2381 
L 678 2381 
L 678 2906 
z
M 678 1631 
L 4684 1631 
L 4684 1100 
L 678 1100 
L 678 1631 
z
" transform="scale(0.015625)"/>
      <path id="DejaVuSans-2e" d="M 684 794 
L 1344 794 
L 1344 0 
L 684 0 
L 684 794 
z
" transform="scale(0.015625)"/>
      <path id="DejaVuSans-38" d="M 2034 2216 
Q 1584 2216 1326 1975 
Q 1069 1734 1069 1313 
Q 1069 891 1326 650 
Q 1584 409 2034 409 
Q 2484 409 2743 651 
Q 3003 894 3003 1313 
Q 3003 1734 2745 1975 
Q 2488 2216 2034 2216 
z
M 1403 2484 
Q 997 2584 770 2862 
Q 544 3141 544 3541 
Q 544 4100 942 4425 
Q 1341 4750 2034 4750 
Q 2731 4750 3128 4425 
Q 3525 4100 3525 3541 
Q 3525 3141 3298 2862 
Q 3072 2584 2669 2484 
Q 3125 2378 3379 2068 
Q 3634 1759 3634 1313 
Q 3634 634 3220 271 
Q 2806 -91 2034 -91 
Q 1263 -91 848 271 
Q 434 634 434 1313 
Q 434 1759 690 2068 
Q 947 2378 1403 2484 
z
M 1172 3481 
Q 1172 3119 1398 2916 
Q 1625 2713 2034 2713 
Q 2441 2713 2670 2916 
Q 2900 3119 2900 3481 
Q 2900 3844 2670 4047 
Q 2441 4250 2034 4250 
Q 1625 4250 1398 4047 
Q 1172 3844 1172 3481 
z
" transform="scale(0.015625)"/>
      <path id="DejaVuSans-36" d="M 2113 2584 
Q 1688 2584 1439 2293 
Q 1191 2003 1191 1497 
Q 1191 994 1439 701 
Q 1688 409 2113 409 
Q 2538 409 2786 701 
Q 3034 994 3034 1497 
Q 3034 2003 2786 2293 
Q 2538 2584 2113 2584 
z
M 3366 4563 
L 3366 3988 
Q 3128 4100 2886 4159 
Q 2644 4219 2406 4219 
Q 1781 4219 1451 3797 
Q 1122 3375 1075 2522 
Q 1259 2794 1537 2939 
Q 1816 3084 2150 3084 
Q 2853 3084 3261 2657 
Q 3669 2231 3669 1497 
Q 3669 778 3244 343 
Q 2819 -91 2113 -91 
Q 1303 -91 875 529 
Q 447 1150 447 2328 
Q 447 3434 972 4092 
Q 1497 4750 2381 4750 
Q 2619 4750 2861 4703 
Q 3103 4656 3366 4563 
z
" transform="scale(0.015625)"/>
     </defs>
     <use xlink:href="#DejaVuSans-41"/>
     <use xlink:href="#DejaVuSans-52" x="68.408203"/>
     <use xlink:href="#DejaVuSans-49" x="137.890625"/>
     <use xlink:href="#DejaVuSans-4d" x="167.382812"/>
     <use xlink:href="#DejaVuSans-41" x="253.662109"/>
     <use xlink:href="#DejaVuSans-20" x="322.070312"/>
     <use xlink:href="#DejaVuSans-28" x="353.857422"/>
     <use xlink:href="#DejaVuSans-34" x="392.871094"/>
     <use xlink:href="#DejaVuSans-2c" x="456.494141"/>
     <use xlink:href="#DejaVuSans-20" x="488.28125"/>
     <use xlink:href="#DejaVuSans-31" x="520.068359"/>
     <use xlink:href="#DejaVuSans-2c" x="583.691406"/>
     <use xlink:href="#DejaVuSans-20" x="615.478516"/>
     <use xlink:href="#DejaVuSans-31" x="647.265625"/>
     <use xlink:href="#DejaVuSans-29" x="710.888672"/>
     <use xlink:href="#DejaVuSans-78" x="749.902344"/>
     <use xlink:href="#DejaVuSans-28" x="809.082031"/>
     <use xlink:href="#DejaVuSans-31" x="848.095703"/>
     <use xlink:href="#DejaVuSans-2c" x="911.71875"/>
     <use xlink:href="#DejaVuSans-20" x="943.505859"/>
     <use xlink:href="#DejaVuSans-30" x="975.292969"/>
     <use xlink:href="#DejaVuSans-2c" x="1038.916016"/>
     <use xlink:href="#DejaVuSans-20" x="1070.703125"/>
     <use xlink:href="#DejaVuSans-31" x="1102.490234"/>
     <use xlink:href="#DejaVuSans-2c" x="1166.113281"/>
     <use xlink:href="#DejaVuSans-20" x="1197.900391"/>
     <use xlink:href="#DejaVuSans-37" x="1229.6875"/>
     <use xlink:href="#DejaVuSans-29" x="1293.310547"/>
     <use xlink:href="#DejaVuSans-20" x="1332.324219"/>
     <use xlink:href="#DejaVuSans-28" x="1364.111328"/>
     <use xlink:href="#DejaVuSans-52" x="1403.125"/>
     <use xlink:href="#DejaVuSans-32" x="1472.607422"/>
     <use xlink:href="#DejaVuSans-20" x="1536.230469"/>
     <use xlink:href="#DejaVuSans-3d" x="1568.017578"/>
     <use xlink:href="#DejaVuSans-20" x="1651.806641"/>
     <use xlink:href="#DejaVuSans-30" x="1683.59375"/>
     <use xlink:href="#DejaVuSans-2e" x="1747.216797"/>
     <use xlink:href="#DejaVuSans-38" x="1779.003906"/>
     <use xlink:href="#DejaVuSans-37" x="1842.626953"/>
     <use xlink:href="#DejaVuSans-30" x="1906.25"/>
     <use xlink:href="#DejaVuSans-38" x="1969.873047"/>
     <use xlink:href="#DejaVuSans-36" x="2033.496094"/>
     <use xlink:href="#DejaVuSans-38" x="2097.119141"/>
     <use xlink:href="#DejaVuSans-29" x="2160.742188"/>
    </g>
   </g>
   <g id="legend_1">
    <g id="patch_7">
     <path d="M 1281.132812 87.789875 
L 1378.2125 87.789875 
Q 1380.2125 87.789875 1380.2125 85.789875 
L 1380.2125 42.7555 
Q 1380.2125 40.7555 1378.2125 40.7555 
L 1281.132812 40.7555 
Q 1279.132812 40.7555 1279.132812 42.7555 
L 1279.132812 85.789875 
Q 1279.132812 87.789875 1281.132812 87.789875 
z
" style="fill: #ffffff; opacity: 0.8; stroke: #cccccc; stroke-linejoin: miter"/>
    </g>
    <g id="line2d_21">
     <path d="M 1283.132812 48.853937 
L 1293.132812 48.853937 
L 1303.132812 48.853937 
" style="fill: none; stroke: #0000ff; stroke-width: 1.5; stroke-linecap: square"/>
    </g>
    <g id="text_19">
     <!-- Actual Value -->
     <g transform="translate(1311.132812 52.353937)scale(0.1 -0.1)">
      <defs>
       <path id="DejaVuSans-75" d="M 544 1381 
L 544 3500 
L 1119 3500 
L 1119 1403 
Q 1119 906 1312 657 
Q 1506 409 1894 409 
Q 2359 409 2629 706 
Q 2900 1003 2900 1516 
L 2900 3500 
L 3475 3500 
L 3475 0 
L 2900 0 
L 2900 538 
Q 2691 219 2414 64 
Q 2138 -91 1772 -91 
Q 1169 -91 856 284 
Q 544 659 544 1381 
z
M 1991 3584 
L 1991 3584 
z
" transform="scale(0.015625)"/>
       <path id="DejaVuSans-56" d="M 1831 0 
L 50 4666 
L 709 4666 
L 2188 738 
L 3669 4666 
L 4325 4666 
L 2547 0 
L 1831 0 
z
" transform="scale(0.015625)"/>
      </defs>
      <use xlink:href="#DejaVuSans-41"/>
      <use xlink:href="#DejaVuSans-63" x="66.658203"/>
      <use xlink:href="#DejaVuSans-74" x="121.638672"/>
      <use xlink:href="#DejaVuSans-75" x="160.847656"/>
      <use xlink:href="#DejaVuSans-61" x="224.226562"/>
      <use xlink:href="#DejaVuSans-6c" x="285.505859"/>
      <use xlink:href="#DejaVuSans-20" x="313.289062"/>
      <use xlink:href="#DejaVuSans-56" x="345.076172"/>
      <use xlink:href="#DejaVuSans-61" x="405.734375"/>
      <use xlink:href="#DejaVuSans-6c" x="467.013672"/>
      <use xlink:href="#DejaVuSans-75" x="494.796875"/>
      <use xlink:href="#DejaVuSans-65" x="558.175781"/>
     </g>
    </g>
    <g id="line2d_22">
     <path d="M 1283.132812 63.532062 
L 1293.132812 63.532062 
L 1303.132812 63.532062 
" style="fill: none; stroke: #ffa500; stroke-width: 1.5; stroke-linecap: square"/>
    </g>
    <g id="text_20">
     <!-- Check Value -->
     <g transform="translate(1311.132812 67.032062)scale(0.1 -0.1)">
      <defs>
       <path id="DejaVuSans-68" d="M 3513 2113 
L 3513 0 
L 2938 0 
L 2938 2094 
Q 2938 2591 2744 2837 
Q 2550 3084 2163 3084 
Q 1697 3084 1428 2787 
Q 1159 2491 1159 1978 
L 1159 0 
L 581 0 
L 581 4863 
L 1159 4863 
L 1159 2956 
Q 1366 3272 1645 3428 
Q 1925 3584 2291 3584 
Q 2894 3584 3203 3211 
Q 3513 2838 3513 2113 
z
" transform="scale(0.015625)"/>
      </defs>
      <use xlink:href="#DejaVuSans-43"/>
      <use xlink:href="#DejaVuSans-68" x="69.824219"/>
      <use xlink:href="#DejaVuSans-65" x="133.203125"/>
      <use xlink:href="#DejaVuSans-63" x="194.726562"/>
      <use xlink:href="#DejaVuSans-6b" x="249.707031"/>
      <use xlink:href="#DejaVuSans-20" x="307.617188"/>
      <use xlink:href="#DejaVuSans-56" x="339.404297"/>
      <use xlink:href="#DejaVuSans-61" x="400.0625"/>
      <use xlink:href="#DejaVuSans-6c" x="461.341797"/>
      <use xlink:href="#DejaVuSans-75" x="489.125"/>
      <use xlink:href="#DejaVuSans-65" x="552.503906"/>
     </g>
    </g>
    <g id="line2d_23">
     <path d="M 1283.132812 78.210187 
L 1293.132812 78.210187 
L 1303.132812 78.210187 
" style="fill: none; stroke: #ff0000; stroke-width: 1.5; stroke-linecap: square"/>
    </g>
    <g id="text_21">
     <!-- Predict Value -->
     <g transform="translate(1311.132812 81.710187)scale(0.1 -0.1)">
      <defs>
       <path id="DejaVuSans-50" d="M 1259 4147 
L 1259 2394 
L 2053 2394 
Q 2494 2394 2734 2622 
Q 2975 2850 2975 3272 
Q 2975 3691 2734 3919 
Q 2494 4147 2053 4147 
L 1259 4147 
z
M 628 4666 
L 2053 4666 
Q 2838 4666 3239 4311 
Q 3641 3956 3641 3272 
Q 3641 2581 3239 2228 
Q 2838 1875 2053 1875 
L 1259 1875 
L 1259 0 
L 628 0 
L 628 4666 
z
" transform="scale(0.015625)"/>
      </defs>
      <use xlink:href="#DejaVuSans-50"/>
      <use xlink:href="#DejaVuSans-72" x="58.552734"/>
      <use xlink:href="#DejaVuSans-65" x="97.416016"/>
      <use xlink:href="#DejaVuSans-64" x="158.939453"/>
      <use xlink:href="#DejaVuSans-69" x="222.416016"/>
      <use xlink:href="#DejaVuSans-63" x="250.199219"/>
      <use xlink:href="#DejaVuSans-74" x="305.179688"/>
      <use xlink:href="#DejaVuSans-20" x="344.388672"/>
      <use xlink:href="#DejaVuSans-56" x="376.175781"/>
      <use xlink:href="#DejaVuSans-61" x="436.833984"/>
      <use xlink:href="#DejaVuSans-6c" x="498.113281"/>
      <use xlink:href="#DejaVuSans-75" x="525.896484"/>
      <use xlink:href="#DejaVuSans-65" x="589.275391"/>
     </g>
    </g>
   </g>
  </g>
 </g>
 <defs>
  <clipPath id="p9140a5c14f">
   <rect x="46.0125" y="35.7555" width="1339.2" height="332.64"/>
  </clipPath>
 </defs>
</svg>
