<?xml version="1.0" encoding="utf-8" standalone="no"?>
<!DOCTYPE svg PUBLIC "-//W3C//DTD SVG 1.1//EN"
  "http://www.w3.org/Graphics/SVG/1.1/DTD/svg11.dtd">
<svg xmlns:xlink="http://www.w3.org/1999/xlink" width="1392.4125pt" height="392.273625pt" viewBox="0 0 1392.4125 392.273625" xmlns="http://www.w3.org/2000/svg" version="1.1">
 <metadata>
  <rdf:RDF xmlns:dc="http://purl.org/dc/elements/1.1/" xmlns:cc="http://creativecommons.org/ns#" xmlns:rdf="http://www.w3.org/1999/02/22-rdf-syntax-ns#">
   <cc:Work>
    <dc:type rdf:resource="http://purl.org/dc/dcmitype/StillImage"/>
    <dc:date>2022-06-19T19:27:56.810001</dc:date>
    <dc:format>image/svg+xml</dc:format>
    <dc:creator>
     <cc:Agent>
      <dc:title>Matplotlib v3.5.2, https://matplotlib.org/</dc:title>
     </cc:Agent>
    </dc:creator>
   </cc:Work>
  </rdf:RDF>
 </metadata>
 <defs>
  <style type="text/css">*{stroke-linejoin: round; stroke-linecap: butt}</style>
 </defs>
 <g id="figure_1">
  <g id="patch_1">
   <path d="M 0 392.273625 
L 1392.4125 392.273625 
L 1392.4125 0 
L 0 0 
z
" style="fill: #ffffff"/>
  </g>
  <g id="axes_1">
   <g id="patch_2">
    <path d="M 46.0125 368.3955 
L 1385.2125 368.3955 
L 1385.2125 35.7555 
L 46.0125 35.7555 
z
" style="fill: #ffffff"/>
   </g>
   <g id="matplotlib.axis_1">
    <g id="xtick_1">
     <g id="line2d_1">
      <defs>
       <path id="m310f19a99d" d="M 0 0 
L 0 3.5 
" style="stroke: #000000; stroke-width: 0.8"/>
      </defs>
      <g>
       <use xlink:href="#m310f19a99d" x="76.790845" y="368.3955" style="stroke: #000000; stroke-width: 0.8"/>
      </g>
     </g>
     <g id="text_1">
      <!-- 2020-01 -->
      <g transform="translate(55.899439 382.993937)scale(0.1 -0.1)">
       <defs>
        <path id="DejaVuSans-32" d="M 1228 531 
L 3431 531 
L 3431 0 
L 469 0 
L 469 531 
Q 828 903 1448 1529 
Q 2069 2156 2228 2338 
Q 2531 2678 2651 2914 
Q 2772 3150 2772 3378 
Q 2772 3750 2511 3984 
Q 2250 4219 1831 4219 
Q 1534 4219 1204 4116 
Q 875 4013 500 3803 
L 500 4441 
Q 881 4594 1212 4672 
Q 1544 4750 1819 4750 
Q 2544 4750 2975 4387 
Q 3406 4025 3406 3419 
Q 3406 3131 3298 2873 
Q 3191 2616 2906 2266 
Q 2828 2175 2409 1742 
Q 1991 1309 1228 531 
z
" transform="scale(0.015625)"/>
        <path id="DejaVuSans-30" d="M 2034 4250 
Q 1547 4250 1301 3770 
Q 1056 3291 1056 2328 
Q 1056 1369 1301 889 
Q 1547 409 2034 409 
Q 2525 409 2770 889 
Q 3016 1369 3016 2328 
Q 3016 3291 2770 3770 
Q 2525 4250 2034 4250 
z
M 2034 4750 
Q 2819 4750 3233 4129 
Q 3647 3509 3647 2328 
Q 3647 1150 3233 529 
Q 2819 -91 2034 -91 
Q 1250 -91 836 529 
Q 422 1150 422 2328 
Q 422 3509 836 4129 
Q 1250 4750 2034 4750 
z
" transform="scale(0.015625)"/>
        <path id="DejaVuSans-2d" d="M 313 2009 
L 1997 2009 
L 1997 1497 
L 313 1497 
L 313 2009 
z
" transform="scale(0.015625)"/>
        <path id="DejaVuSans-31" d="M 794 531 
L 1825 531 
L 1825 4091 
L 703 3866 
L 703 4441 
L 1819 4666 
L 2450 4666 
L 2450 531 
L 3481 531 
L 3481 0 
L 794 0 
L 794 531 
z
" transform="scale(0.015625)"/>
       </defs>
       <use xlink:href="#DejaVuSans-32"/>
       <use xlink:href="#DejaVuSans-30" x="63.623047"/>
       <use xlink:href="#DejaVuSans-32" x="127.246094"/>
       <use xlink:href="#DejaVuSans-30" x="190.869141"/>
       <use xlink:href="#DejaVuSans-2d" x="254.492188"/>
       <use xlink:href="#DejaVuSans-30" x="290.576172"/>
       <use xlink:href="#DejaVuSans-31" x="354.199219"/>
      </g>
     </g>
    </g>
    <g id="xtick_2">
     <g id="line2d_2">
      <g>
       <use xlink:href="#m310f19a99d" x="201.272153" y="368.3955" style="stroke: #000000; stroke-width: 0.8"/>
      </g>
     </g>
     <g id="text_2">
      <!-- 2020-04 -->
      <g transform="translate(180.380746 382.993937)scale(0.1 -0.1)">
       <defs>
        <path id="DejaVuSans-34" d="M 2419 4116 
L 825 1625 
L 2419 1625 
L 2419 4116 
z
M 2253 4666 
L 3047 4666 
L 3047 1625 
L 3713 1625 
L 3713 1100 
L 3047 1100 
L 3047 0 
L 2419 0 
L 2419 1100 
L 313 1100 
L 313 1709 
L 2253 4666 
z
" transform="scale(0.015625)"/>
       </defs>
       <use xlink:href="#DejaVuSans-32"/>
       <use xlink:href="#DejaVuSans-30" x="63.623047"/>
       <use xlink:href="#DejaVuSans-32" x="127.246094"/>
       <use xlink:href="#DejaVuSans-30" x="190.869141"/>
       <use xlink:href="#DejaVuSans-2d" x="254.492188"/>
       <use xlink:href="#DejaVuSans-30" x="290.576172"/>
       <use xlink:href="#DejaVuSans-34" x="354.199219"/>
      </g>
     </g>
    </g>
    <g id="xtick_3">
     <g id="line2d_3">
      <g>
       <use xlink:href="#m310f19a99d" x="325.75346" y="368.3955" style="stroke: #000000; stroke-width: 0.8"/>
      </g>
     </g>
     <g id="text_3">
      <!-- 2020-07 -->
      <g transform="translate(304.862054 382.993937)scale(0.1 -0.1)">
       <defs>
        <path id="DejaVuSans-37" d="M 525 4666 
L 3525 4666 
L 3525 4397 
L 1831 0 
L 1172 0 
L 2766 4134 
L 525 4134 
L 525 4666 
z
" transform="scale(0.015625)"/>
       </defs>
       <use xlink:href="#DejaVuSans-32"/>
       <use xlink:href="#DejaVuSans-30" x="63.623047"/>
       <use xlink:href="#DejaVuSans-32" x="127.246094"/>
       <use xlink:href="#DejaVuSans-30" x="190.869141"/>
       <use xlink:href="#DejaVuSans-2d" x="254.492188"/>
       <use xlink:href="#DejaVuSans-30" x="290.576172"/>
       <use xlink:href="#DejaVuSans-37" x="354.199219"/>
      </g>
     </g>
    </g>
    <g id="xtick_4">
     <g id="line2d_4">
      <g>
       <use xlink:href="#m310f19a99d" x="451.602694" y="368.3955" style="stroke: #000000; stroke-width: 0.8"/>
      </g>
     </g>
     <g id="text_4">
      <!-- 2020-10 -->
      <g transform="translate(430.711288 382.993937)scale(0.1 -0.1)">
       <use xlink:href="#DejaVuSans-32"/>
       <use xlink:href="#DejaVuSans-30" x="63.623047"/>
       <use xlink:href="#DejaVuSans-32" x="127.246094"/>
       <use xlink:href="#DejaVuSans-30" x="190.869141"/>
       <use xlink:href="#DejaVuSans-2d" x="254.492188"/>
       <use xlink:href="#DejaVuSans-31" x="290.576172"/>
       <use xlink:href="#DejaVuSans-30" x="354.199219"/>
      </g>
     </g>
    </g>
    <g id="xtick_5">
     <g id="line2d_5">
      <g>
       <use xlink:href="#m310f19a99d" x="577.451928" y="368.3955" style="stroke: #000000; stroke-width: 0.8"/>
      </g>
     </g>
     <g id="text_5">
      <!-- 2021-01 -->
      <g transform="translate(556.560522 382.993937)scale(0.1 -0.1)">
       <use xlink:href="#DejaVuSans-32"/>
       <use xlink:href="#DejaVuSans-30" x="63.623047"/>
       <use xlink:href="#DejaVuSans-32" x="127.246094"/>
       <use xlink:href="#DejaVuSans-31" x="190.869141"/>
       <use xlink:href="#DejaVuSans-2d" x="254.492188"/>
       <use xlink:href="#DejaVuSans-30" x="290.576172"/>
       <use xlink:href="#DejaVuSans-31" x="354.199219"/>
      </g>
     </g>
    </g>
    <g id="xtick_6">
     <g id="line2d_6">
      <g>
       <use xlink:href="#m310f19a99d" x="700.565309" y="368.3955" style="stroke: #000000; stroke-width: 0.8"/>
      </g>
     </g>
     <g id="text_6">
      <!-- 2021-04 -->
      <g transform="translate(679.673903 382.993937)scale(0.1 -0.1)">
       <use xlink:href="#DejaVuSans-32"/>
       <use xlink:href="#DejaVuSans-30" x="63.623047"/>
       <use xlink:href="#DejaVuSans-32" x="127.246094"/>
       <use xlink:href="#DejaVuSans-31" x="190.869141"/>
       <use xlink:href="#DejaVuSans-2d" x="254.492188"/>
       <use xlink:href="#DejaVuSans-30" x="290.576172"/>
       <use xlink:href="#DejaVuSans-34" x="354.199219"/>
      </g>
     </g>
    </g>
    <g id="xtick_7">
     <g id="line2d_7">
      <g>
       <use xlink:href="#m310f19a99d" x="825.046616" y="368.3955" style="stroke: #000000; stroke-width: 0.8"/>
      </g>
     </g>
     <g id="text_7">
      <!-- 2021-07 -->
      <g transform="translate(804.15521 382.993937)scale(0.1 -0.1)">
       <use xlink:href="#DejaVuSans-32"/>
       <use xlink:href="#DejaVuSans-30" x="63.623047"/>
       <use xlink:href="#DejaVuSans-32" x="127.246094"/>
       <use xlink:href="#DejaVuSans-31" x="190.869141"/>
       <use xlink:href="#DejaVuSans-2d" x="254.492188"/>
       <use xlink:href="#DejaVuSans-30" x="290.576172"/>
       <use xlink:href="#DejaVuSans-37" x="354.199219"/>
      </g>
     </g>
    </g>
    <g id="xtick_8">
     <g id="line2d_8">
      <g>
       <use xlink:href="#m310f19a99d" x="950.89585" y="368.3955" style="stroke: #000000; stroke-width: 0.8"/>
      </g>
     </g>
     <g id="text_8">
      <!-- 2021-10 -->
      <g transform="translate(930.004444 382.993937)scale(0.1 -0.1)">
       <use xlink:href="#DejaVuSans-32"/>
       <use xlink:href="#DejaVuSans-30" x="63.623047"/>
       <use xlink:href="#DejaVuSans-32" x="127.246094"/>
       <use xlink:href="#DejaVuSans-31" x="190.869141"/>
       <use xlink:href="#DejaVuSans-2d" x="254.492188"/>
       <use xlink:href="#DejaVuSans-31" x="290.576172"/>
       <use xlink:href="#DejaVuSans-30" x="354.199219"/>
      </g>
     </g>
    </g>
    <g id="xtick_9">
     <g id="line2d_9">
      <g>
       <use xlink:href="#m310f19a99d" x="1076.745084" y="368.3955" style="stroke: #000000; stroke-width: 0.8"/>
      </g>
     </g>
     <g id="text_9">
      <!-- 2022-01 -->
      <g transform="translate(1055.853678 382.993937)scale(0.1 -0.1)">
       <use xlink:href="#DejaVuSans-32"/>
       <use xlink:href="#DejaVuSans-30" x="63.623047"/>
       <use xlink:href="#DejaVuSans-32" x="127.246094"/>
       <use xlink:href="#DejaVuSans-32" x="190.869141"/>
       <use xlink:href="#DejaVuSans-2d" x="254.492188"/>
       <use xlink:href="#DejaVuSans-30" x="290.576172"/>
       <use xlink:href="#DejaVuSans-31" x="354.199219"/>
      </g>
     </g>
    </g>
    <g id="xtick_10">
     <g id="line2d_10">
      <g>
       <use xlink:href="#m310f19a99d" x="1199.858465" y="368.3955" style="stroke: #000000; stroke-width: 0.8"/>
      </g>
     </g>
     <g id="text_10">
      <!-- 2022-04 -->
      <g transform="translate(1178.967059 382.993937)scale(0.1 -0.1)">
       <use xlink:href="#DejaVuSans-32"/>
       <use xlink:href="#DejaVuSans-30" x="63.623047"/>
       <use xlink:href="#DejaVuSans-32" x="127.246094"/>
       <use xlink:href="#DejaVuSans-32" x="190.869141"/>
       <use xlink:href="#DejaVuSans-2d" x="254.492188"/>
       <use xlink:href="#DejaVuSans-30" x="290.576172"/>
       <use xlink:href="#DejaVuSans-34" x="354.199219"/>
      </g>
     </g>
    </g>
    <g id="xtick_11">
     <g id="line2d_11">
      <g>
       <use xlink:href="#m310f19a99d" x="1324.339773" y="368.3955" style="stroke: #000000; stroke-width: 0.8"/>
      </g>
     </g>
     <g id="text_11">
      <!-- 2022-07 -->
      <g transform="translate(1303.448366 382.993937)scale(0.1 -0.1)">
       <use xlink:href="#DejaVuSans-32"/>
       <use xlink:href="#DejaVuSans-30" x="63.623047"/>
       <use xlink:href="#DejaVuSans-32" x="127.246094"/>
       <use xlink:href="#DejaVuSans-32" x="190.869141"/>
       <use xlink:href="#DejaVuSans-2d" x="254.492188"/>
       <use xlink:href="#DejaVuSans-30" x="290.576172"/>
       <use xlink:href="#DejaVuSans-37" x="354.199219"/>
      </g>
     </g>
    </g>
   </g>
   <g id="matplotlib.axis_2">
    <g id="ytick_1">
     <g id="line2d_12">
      <defs>
       <path id="m6354ceb5cd" d="M 0 0 
L -3.5 0 
" style="stroke: #000000; stroke-width: 0.8"/>
      </defs>
      <g>
       <use xlink:href="#m6354ceb5cd" x="46.0125" y="336.631696" style="stroke: #000000; stroke-width: 0.8"/>
      </g>
     </g>
     <g id="text_12">
      <!-- 0 -->
      <g transform="translate(32.65 340.430914)scale(0.1 -0.1)">
       <use xlink:href="#DejaVuSans-30"/>
      </g>
     </g>
    </g>
    <g id="ytick_2">
     <g id="line2d_13">
      <g>
       <use xlink:href="#m6354ceb5cd" x="46.0125" y="291.549074" style="stroke: #000000; stroke-width: 0.8"/>
      </g>
     </g>
     <g id="text_13">
      <!-- 2000 -->
      <g transform="translate(13.5625 295.348293)scale(0.1 -0.1)">
       <use xlink:href="#DejaVuSans-32"/>
       <use xlink:href="#DejaVuSans-30" x="63.623047"/>
       <use xlink:href="#DejaVuSans-30" x="127.246094"/>
       <use xlink:href="#DejaVuSans-30" x="190.869141"/>
      </g>
     </g>
    </g>
    <g id="ytick_3">
     <g id="line2d_14">
      <g>
       <use xlink:href="#m6354ceb5cd" x="46.0125" y="246.466453" style="stroke: #000000; stroke-width: 0.8"/>
      </g>
     </g>
     <g id="text_14">
      <!-- 4000 -->
      <g transform="translate(13.5625 250.265672)scale(0.1 -0.1)">
       <use xlink:href="#DejaVuSans-34"/>
       <use xlink:href="#DejaVuSans-30" x="63.623047"/>
       <use xlink:href="#DejaVuSans-30" x="127.246094"/>
       <use xlink:href="#DejaVuSans-30" x="190.869141"/>
      </g>
     </g>
    </g>
    <g id="ytick_4">
     <g id="line2d_15">
      <g>
       <use xlink:href="#m6354ceb5cd" x="46.0125" y="201.383831" style="stroke: #000000; stroke-width: 0.8"/>
      </g>
     </g>
     <g id="text_15">
      <!-- 6000 -->
      <g transform="translate(13.5625 205.18305)scale(0.1 -0.1)">
       <defs>
        <path id="DejaVuSans-36" d="M 2113 2584 
Q 1688 2584 1439 2293 
Q 1191 2003 1191 1497 
Q 1191 994 1439 701 
Q 1688 409 2113 409 
Q 2538 409 2786 701 
Q 3034 994 3034 1497 
Q 3034 2003 2786 2293 
Q 2538 2584 2113 2584 
z
M 3366 4563 
L 3366 3988 
Q 3128 4100 2886 4159 
Q 2644 4219 2406 4219 
Q 1781 4219 1451 3797 
Q 1122 3375 1075 2522 
Q 1259 2794 1537 2939 
Q 1816 3084 2150 3084 
Q 2853 3084 3261 2657 
Q 3669 2231 3669 1497 
Q 3669 778 3244 343 
Q 2819 -91 2113 -91 
Q 1303 -91 875 529 
Q 447 1150 447 2328 
Q 447 3434 972 4092 
Q 1497 4750 2381 4750 
Q 2619 4750 2861 4703 
Q 3103 4656 3366 4563 
z
" transform="scale(0.015625)"/>
       </defs>
       <use xlink:href="#DejaVuSans-36"/>
       <use xlink:href="#DejaVuSans-30" x="63.623047"/>
       <use xlink:href="#DejaVuSans-30" x="127.246094"/>
       <use xlink:href="#DejaVuSans-30" x="190.869141"/>
      </g>
     </g>
    </g>
    <g id="ytick_5">
     <g id="line2d_16">
      <g>
       <use xlink:href="#m6354ceb5cd" x="46.0125" y="156.30121" style="stroke: #000000; stroke-width: 0.8"/>
      </g>
     </g>
     <g id="text_16">
      <!-- 8000 -->
      <g transform="translate(13.5625 160.100429)scale(0.1 -0.1)">
       <defs>
        <path id="DejaVuSans-38" d="M 2034 2216 
Q 1584 2216 1326 1975 
Q 1069 1734 1069 1313 
Q 1069 891 1326 650 
Q 1584 409 2034 409 
Q 2484 409 2743 651 
Q 3003 894 3003 1313 
Q 3003 1734 2745 1975 
Q 2488 2216 2034 2216 
z
M 1403 2484 
Q 997 2584 770 2862 
Q 544 3141 544 3541 
Q 544 4100 942 4425 
Q 1341 4750 2034 4750 
Q 2731 4750 3128 4425 
Q 3525 4100 3525 3541 
Q 3525 3141 3298 2862 
Q 3072 2584 2669 2484 
Q 3125 2378 3379 2068 
Q 3634 1759 3634 1313 
Q 3634 634 3220 271 
Q 2806 -91 2034 -91 
Q 1263 -91 848 271 
Q 434 634 434 1313 
Q 434 1759 690 2068 
Q 947 2378 1403 2484 
z
M 1172 3481 
Q 1172 3119 1398 2916 
Q 1625 2713 2034 2713 
Q 2441 2713 2670 2916 
Q 2900 3119 2900 3481 
Q 2900 3844 2670 4047 
Q 2441 4250 2034 4250 
Q 1625 4250 1398 4047 
Q 1172 3844 1172 3481 
z
" transform="scale(0.015625)"/>
       </defs>
       <use xlink:href="#DejaVuSans-38"/>
       <use xlink:href="#DejaVuSans-30" x="63.623047"/>
       <use xlink:href="#DejaVuSans-30" x="127.246094"/>
       <use xlink:href="#DejaVuSans-30" x="190.869141"/>
      </g>
     </g>
    </g>
    <g id="ytick_6">
     <g id="line2d_17">
      <g>
       <use xlink:href="#m6354ceb5cd" x="46.0125" y="111.218589" style="stroke: #000000; stroke-width: 0.8"/>
      </g>
     </g>
     <g id="text_17">
      <!-- 10000 -->
      <g transform="translate(7.2 115.017807)scale(0.1 -0.1)">
       <use xlink:href="#DejaVuSans-31"/>
       <use xlink:href="#DejaVuSans-30" x="63.623047"/>
       <use xlink:href="#DejaVuSans-30" x="127.246094"/>
       <use xlink:href="#DejaVuSans-30" x="190.869141"/>
       <use xlink:href="#DejaVuSans-30" x="254.492188"/>
      </g>
     </g>
    </g>
    <g id="ytick_7">
     <g id="line2d_18">
      <g>
       <use xlink:href="#m6354ceb5cd" x="46.0125" y="66.135967" style="stroke: #000000; stroke-width: 0.8"/>
      </g>
     </g>
     <g id="text_18">
      <!-- 12000 -->
      <g transform="translate(7.2 69.935186)scale(0.1 -0.1)">
       <use xlink:href="#DejaVuSans-31"/>
       <use xlink:href="#DejaVuSans-32" x="63.623047"/>
       <use xlink:href="#DejaVuSans-30" x="127.246094"/>
       <use xlink:href="#DejaVuSans-30" x="190.869141"/>
       <use xlink:href="#DejaVuSans-30" x="254.492188"/>
      </g>
     </g>
    </g>
   </g>
   <g id="line2d_19">
    <path d="M 106.885227 336.631696 
L 194.43252 336.631696 
L 195.800447 336.496448 
L 201.272153 336.631696 
L 202.640079 336.428824 
L 204.008006 336.518989 
L 205.375932 336.406283 
L 206.743859 336.496448 
L 209.479711 336.428824 
L 210.847638 336.293576 
L 212.215564 336.406283 
L 213.583491 336.316117 
L 214.951417 336.609154 
L 217.68727 336.3612 
L 220.423123 336.406283 
L 221.79105 336.518989 
L 223.158976 336.338659 
L 227.262755 336.248493 
L 228.630682 336.473906 
L 232.734461 336.090704 
L 234.102388 336.631696 
L 235.470314 336.090704 
L 238.206167 336.135787 
L 239.574093 335.910374 
L 240.94202 336.225952 
L 242.309946 335.977998 
L 243.677873 336.135787 
L 246.413726 335.16651 
L 247.781652 335.910374 
L 250.517505 335.234134 
L 251.885432 335.572254 
L 253.253358 335.684961 
L 254.621284 334.264858 
L 255.989211 335.076345 
L 257.357137 335.730043 
L 258.725064 335.752585 
L 260.09299 334.941097 
L 261.460917 334.422647 
L 262.828843 335.391924 
L 264.19677 334.98618 
L 265.564696 334.941097 
L 266.932623 334.715684 
L 268.300549 334.98618 
L 269.668475 335.076345 
L 271.036402 334.715684 
L 272.404328 334.512812 
L 273.772255 334.46773 
L 275.140181 335.098887 
L 276.508108 335.301758 
L 277.876034 335.121428 
L 279.243961 334.715684 
L 280.611887 334.738226 
L 281.979814 333.994362 
L 283.34774 333.881656 
L 284.715666 335.16651 
L 286.083593 335.031263 
L 287.451519 335.459547 
L 288.819446 334.918556 
L 290.187372 335.098887 
L 291.555299 334.715684 
L 292.923225 334.805849 
L 294.291152 334.625519 
L 297.027005 334.760767 
L 298.394931 334.400106 
L 299.762858 334.197234 
L 301.130784 333.881656 
L 302.49871 333.994362 
L 303.866637 334.242317 
L 307.970416 333.61116 
L 309.338343 333.723867 
L 310.706269 333.340664 
L 312.074196 333.227958 
L 313.442122 332.529177 
L 314.810049 332.912379 
L 317.545901 332.439012 
L 318.913828 332.551718 
L 320.281754 331.89802 
L 321.649681 331.965644 
L 323.017607 331.244322 
L 324.385534 330.658248 
L 325.75346 329.914385 
L 327.121387 330.68079 
L 328.489313 330.613166 
L 329.85724 331.221781 
L 331.225166 330.545542 
L 332.593092 330.996368 
L 333.961019 330.320129 
L 335.328945 330.793496 
L 338.064798 329.914385 
L 339.432725 331.018909 
L 340.800651 330.252505 
L 344.904431 328.922567 
L 346.272357 329.598807 
L 347.640283 330.996368 
L 349.00821 329.846761 
L 350.376136 329.012733 
L 351.744063 328.494282 
L 358.583695 326.961473 
L 359.951622 327.4123 
L 361.319548 327.502465 
L 362.687474 327.367217 
L 364.055401 327.727878 
L 365.423327 327.863126 
L 368.15918 327.209428 
L 369.527107 327.660254 
L 370.895033 327.727878 
L 373.630886 326.73606 
L 374.998813 327.051639 
L 376.366739 327.209428 
L 379.102592 326.600812 
L 380.470518 326.510647 
L 381.838445 327.682795 
L 384.574298 328.764778 
L 385.942224 329.395935 
L 388.678077 330.027092 
L 396.885636 331.672607 
L 399.621489 332.371388 
L 400.989415 332.686966 
L 402.357342 333.160334 
L 406.461121 333.881656 
L 407.829047 334.422647 
L 411.932827 334.738226 
L 413.300753 334.46773 
L 414.66868 334.400106 
L 416.036606 334.219775 
L 417.404533 334.332482 
L 418.772459 334.264858 
L 422.876239 334.693143 
L 424.244165 334.715684 
L 425.612091 334.873473 
L 426.980018 334.896015 
L 428.347944 334.805849 
L 431.083797 334.941097 
L 433.81965 334.445189 
L 435.187577 334.783308 
L 436.555503 333.814032 
L 437.92343 331.109075 
L 439.291356 333.115251 
L 440.659282 331.063992 
L 442.027209 331.807855 
L 443.395135 331.785314 
L 444.763062 334.557895 
L 446.130988 338.705496 
L 447.498915 332.596801 
L 448.866841 332.75459 
L 450.234768 334.46773 
L 451.602694 334.422647 
L 454.338547 334.625519 
L 455.706473 334.557895 
L 457.0744 334.625519 
L 465.281959 333.791491 
L 466.649885 333.498453 
L 468.017812 333.363206 
L 469.385738 330.184881 
L 470.753664 329.982009 
L 472.121591 332.033268 
L 473.489517 332.326305 
L 474.857444 331.89802 
L 476.22537 333.025086 
L 477.593297 333.27304 
L 480.32915 333.43083 
L 481.697076 333.047627 
L 485.800855 332.732049 
L 487.168782 332.912379 
L 489.904635 332.551718 
L 492.640488 332.23614 
L 494.008414 332.371388 
L 495.376341 332.145975 
L 496.744267 332.348847 
L 498.112194 332.732049 
L 499.48012 332.010727 
L 500.848046 332.484094 
L 502.215973 332.596801 
L 504.951826 332.506636 
L 506.319752 332.686966 
L 507.687679 332.619342 
L 509.055605 332.844755 
L 519.999017 333.453371 
L 521.366943 333.160334 
L 522.73487 333.070169 
L 524.102796 333.09271 
L 526.838649 332.709508 
L 528.206576 332.799673 
L 530.942428 332.551718 
L 532.310355 332.75459 
L 535.046208 332.371388 
L 536.414134 332.191057 
L 537.782061 332.393929 
L 539.149987 332.05581 
L 540.517914 331.852938 
L 541.88584 332.100892 
L 543.253767 331.807855 
L 544.621693 331.988186 
L 545.98962 332.348847 
L 550.093399 331.424653 
L 551.461325 331.289405 
L 552.829252 331.018909 
L 554.197178 330.951285 
L 555.565105 330.658248 
L 556.933031 331.131616 
L 558.300958 330.477918 
L 559.668884 330.297587 
L 561.036811 330.275046 
L 562.404737 329.982009 
L 563.772663 330.184881 
L 565.14059 330.545542 
L 566.508516 330.072174 
L 567.876443 330.477918 
L 569.244369 336.631696 
L 570.612296 330.658248 
L 571.980222 330.816037 
L 574.716075 330.410294 
L 576.084002 330.275046 
L 577.451928 330.477918 
L 578.819854 330.139798 
L 580.187781 336.631696 
L 581.555707 330.229963 
L 582.923634 330.590624 
L 584.29156 330.094716 
L 585.659487 329.801679 
L 587.027413 329.711513 
L 589.763266 329.170522 
L 591.131193 329.441018 
L 592.499119 329.531183 
L 593.867045 329.418476 
L 595.234972 329.914385 
L 597.970825 329.4861 
L 602.074604 329.080357 
L 603.442531 329.373394 
L 604.810457 330.00455 
L 607.54631 330.387753 
L 610.282163 330.748414 
L 611.650089 330.793496 
L 613.018016 330.973827 
L 614.385942 330.951285 
L 615.753869 331.063992 
L 617.121795 331.334488 
L 618.489722 331.154157 
L 619.857648 331.469736 
L 621.225575 331.650066 
L 623.961427 332.168516 
L 626.69728 331.852938 
L 628.065207 332.010727 
L 629.433133 331.875479 
L 630.80106 331.988186 
L 632.168986 332.416471 
L 633.536913 332.506636 
L 636.272766 331.89802 
L 637.640692 332.100892 
L 639.008618 332.484094 
L 641.744471 332.709508 
L 643.112398 332.75459 
L 644.480324 332.529177 
L 648.584104 332.934921 
L 654.055809 333.160334 
L 659.527515 333.160334 
L 660.895442 333.27304 
L 662.263368 333.025086 
L 663.631295 333.205416 
L 673.20678 333.633701 
L 680.046412 333.025086 
L 682.782265 332.934921 
L 684.150192 332.777132 
L 686.886044 333.340664 
L 690.989824 333.61116 
L 692.35775 333.498453 
L 693.725677 333.723867 
L 696.46153 333.633701 
L 699.197383 333.182875 
L 700.565309 333.27304 
L 701.933235 333.137792 
L 703.301162 333.250499 
L 704.669088 333.09271 
L 706.037015 333.160334 
L 707.404941 336.631696 
L 712.876647 336.631696 
L 714.244574 314.135468 
L 715.6125 336.631696 
L 716.980426 329.260687 
L 718.348353 333.475912 
L 721.084206 333.250499 
L 722.452132 333.137792 
L 723.820059 333.182875 
L 725.187985 336.631696 
L 726.555912 330.00455 
L 727.923838 333.115251 
L 729.291765 333.160334 
L 730.659691 333.09271 
L 732.027617 333.250499 
L 733.395544 336.631696 
L 734.76347 336.631696 
L 736.131397 326.397941 
L 737.499323 336.631696 
L 738.86725 330.410294 
L 740.235176 336.631696 
L 742.971029 336.631696 
L 744.338956 324.707342 
L 745.706882 336.631696 
L 747.074808 330.545542 
L 748.442735 336.631696 
L 749.810661 330.816037 
L 751.178588 336.631696 
L 752.546514 333.814032 
L 753.914441 336.631696 
L 755.282367 336.631696 
L 756.650294 324.572094 
L 758.01822 336.631696 
L 759.386147 336.631696 
L 760.754073 327.277052 
L 762.121999 333.27304 
L 763.489926 336.631696 
L 767.593705 336.631696 
L 768.961632 319.928584 
L 770.329558 336.631696 
L 773.065411 336.631696 
L 774.433338 323.084368 
L 775.801264 336.631696 
L 777.169191 336.631696 
L 778.537117 327.051639 
L 779.905043 336.631696 
L 781.27297 336.631696 
L 782.640896 326.352858 
L 784.008823 336.631696 
L 785.376749 336.631696 
L 786.744676 326.73606 
L 788.112602 336.631696 
L 792.216382 336.631696 
L 793.584308 317.651912 
L 794.952234 336.631696 
L 796.320161 328.336493 
L 797.688087 336.631696 
L 801.791867 336.631696 
L 803.159793 315.307616 
L 804.52772 332.168516 
L 805.895646 336.631696 
L 807.263573 332.078351 
L 808.631499 336.631696 
L 809.999425 327.547547 
L 811.367352 327.975832 
L 812.735278 336.631696 
L 818.206984 336.631696 
L 819.574911 312.10675 
L 820.942837 332.258681 
L 822.310764 336.631696 
L 826.414543 336.631696 
L 827.782469 313.549394 
L 829.150396 336.631696 
L 830.518322 326.600812 
L 831.886249 336.631696 
L 833.254175 336.631696 
L 834.622102 320.920402 
L 835.990028 336.631696 
L 837.357955 336.631696 
L 838.725881 320.582282 
L 840.093807 336.631696 
L 841.461734 325.676619 
L 842.82966 331.37957 
L 845.565513 331.063992 
L 846.93344 336.631696 
L 851.037219 336.631696 
L 852.405146 307.508322 
L 853.773072 336.631696 
L 855.140998 324.301599 
L 856.508925 336.631696 
L 859.244778 336.631696 
L 860.612704 312.10675 
L 861.980631 330.320129 
L 863.348557 336.631696 
L 864.716484 323.98602 
L 866.08441 336.631696 
L 867.452337 336.631696 
L 868.820263 316.840425 
L 870.188189 336.631696 
L 871.556116 336.631696 
L 872.924042 316.953131 
L 874.291969 336.631696 
L 879.763675 336.631696 
L 881.131601 297.004071 
L 882.499528 336.631696 
L 889.33916 336.631696 
L 890.707086 291.413826 
L 892.075013 330.297587 
L 893.442939 330.545542 
L 894.810866 336.631696 
L 898.914645 336.631696 
L 900.282572 305.659935 
L 901.650498 336.631696 
L 908.49013 336.631696 
L 909.858057 291.391285 
L 911.225983 336.631696 
L 919.433542 336.631696 
L 920.801468 290.309302 
L 922.169395 336.631696 
L 924.905248 336.631696 
L 926.273174 301.038966 
L 927.641101 336.631696 
L 934.480733 336.631696 
L 935.848659 284.268231 
L 937.216586 336.631696 
L 944.056218 336.631696 
L 945.424145 284.24569 
L 946.792071 336.631696 
L 956.367556 336.631696 
L 957.735483 269.300801 
L 959.103409 329.215604 
L 960.471336 336.631696 
L 967.310968 336.631696 
L 968.678894 286.65761 
L 970.046821 329.711513 
L 971.414747 336.631696 
L 978.254379 336.631696 
L 979.622306 289.249861 
L 980.990232 336.631696 
L 983.726085 336.631696 
L 985.094012 311.114932 
L 986.461938 336.631696 
L 998.773276 336.631696 
L 1000.141203 272.704539 
L 1001.509129 336.631696 
L 1004.244982 336.631696 
L 1005.612909 312.016584 
L 1006.980835 336.631696 
L 1008.348761 332.258681 
L 1011.084614 332.980003 
L 1012.452541 333.09271 
L 1013.820467 336.631696 
L 1027.499732 336.631696 
L 1028.867658 316.840425 
L 1030.235585 316.705177 
L 1031.603511 336.631696 
L 1048.018629 336.631696 
L 1049.386555 306.787 
L 1050.754482 334.98618 
L 1052.122408 335.121428 
L 1053.490335 336.631696 
L 1054.858261 333.994362 
L 1056.226187 335.437006 
L 1057.594114 335.572254 
L 1058.96204 335.594795 
L 1060.329967 336.631696 
L 1061.697893 334.535354 
L 1063.06582 336.631696 
L 1065.801673 334.828391 
L 1067.169599 336.631696 
L 1072.641305 336.631696 
L 1074.009231 332.033268 
L 1075.377158 336.631696 
L 1078.113011 336.631696 
L 1079.480937 333.971821 
L 1080.848864 336.631696 
L 1083.584717 336.631696 
L 1084.952643 332.777132 
L 1086.320569 336.631696 
L 1087.688496 331.334488 
L 1089.056422 333.047627 
L 1090.424349 336.631696 
L 1091.792275 327.682795 
L 1093.160202 336.631696 
L 1094.528128 324.188892 
L 1095.896055 336.631696 
L 1102.735687 336.631696 
L 1104.103613 259.202293 
L 1105.47154 336.631696 
L 1113.679099 336.631696 
L 1115.047025 195.748504 
L 1116.414951 316.502305 
L 1117.782878 315.127285 
L 1119.150804 336.631696 
L 1135.565922 336.631696 
L 1136.933848 50.8755 
L 1138.301775 336.631696 
L 1154.716892 336.631696 
L 1156.084819 143.272333 
L 1157.452745 336.631696 
L 1177.971642 336.631696 
L 1179.339568 247.79639 
L 1180.707495 322.272881 
L 1182.075421 334.152151 
L 1183.443348 336.631696 
L 1201.226392 336.631696 
L 1202.594318 324.955297 
L 1203.962245 336.631696 
L 1209.43395 336.631696 
L 1210.801877 328.178704 
L 1212.169803 333.385747 
L 1213.53773 336.631696 
L 1273.726494 336.631696 
L 1275.09442 321.619183 
L 1276.462347 336.631696 
L 1287.405758 336.631696 
L 1288.773685 314.541211 
L 1290.141611 336.631696 
L 1291.509538 327.637713 
L 1292.877464 336.631696 
L 1306.556729 336.631696 
L 1306.556729 336.631696 
" clip-path="url(#pe43ab20f62)" style="fill: none; stroke: #0000ff; stroke-width: 1.5; stroke-linecap: square"/>
   </g>
   <g id="line2d_20">
    <path d="M 1067.169599 330.277551 
L 1068.537526 332.997401 
L 1069.905452 333.332123 
L 1071.273378 333.261083 
L 1072.641305 333.336224 
L 1074.009231 334.003731 
L 1075.377158 334.222156 
L 1076.745084 335.991116 
L 1078.113011 334.472103 
L 1079.480937 334.087486 
L 1080.848864 334.335125 
L 1082.21679 335.100054 
L 1083.584717 334.368888 
L 1084.952643 334.390461 
L 1086.320569 333.619619 
L 1087.688496 335.123541 
L 1089.056422 335.098416 
L 1091.792275 334.751262 
L 1093.160202 335.503321 
L 1094.528128 335.057717 
L 1095.896055 336.576833 
L 1097.263981 334.939789 
L 1098.631908 334.543669 
L 1099.999834 334.673722 
L 1101.36776 333.985269 
L 1102.735687 335.054652 
L 1104.103613 335.677329 
L 1105.47154 337.028401 
L 1106.839466 337.681887 
L 1108.207393 336.24475 
L 1109.575319 328.814177 
L 1110.943246 329.724586 
L 1112.311172 339.08558 
L 1113.679099 330.82939 
L 1116.414951 338.960863 
L 1117.782878 339.964019 
L 1119.150804 337.346788 
L 1120.518731 324.571112 
L 1121.886657 317.569955 
L 1123.254584 339.117161 
L 1124.62251 324.960534 
L 1125.990437 326.572346 
L 1127.358363 324.93798 
L 1128.72629 325.515354 
L 1130.094216 324.765579 
L 1131.462142 328.518875 
L 1132.830069 315.025229 
L 1134.197995 324.789154 
L 1135.565922 324.830333 
L 1138.301775 340.873638 
L 1139.669701 342.251471 
L 1141.037628 334.499297 
L 1142.405554 318.597378 
L 1143.773481 314.307727 
L 1145.141407 351.145662 
L 1146.509334 316.958987 
L 1147.87726 318.942596 
L 1149.245186 319.489174 
L 1150.613113 320.902301 
L 1151.981039 313.491038 
L 1153.348966 317.972254 
L 1154.716892 297.147765 
L 1156.084819 323.971648 
L 1157.452745 329.244028 
L 1158.820672 330.423671 
L 1160.188598 326.713363 
L 1161.556525 315.698562 
L 1162.924451 314.854425 
L 1164.292377 353.2755 
L 1165.660304 317.782032 
L 1167.02823 319.783274 
L 1168.396157 320.6064 
L 1169.764083 321.193792 
L 1171.13201 316.876047 
L 1172.499936 319.158521 
L 1173.867863 297.281382 
L 1175.235789 320.612914 
L 1176.603716 320.879977 
L 1177.971642 321.788152 
L 1179.339568 324.700907 
L 1180.707495 331.184591 
L 1182.075421 331.415323 
L 1183.443348 344.068028 
L 1184.811274 322.766923 
L 1186.179201 322.604116 
L 1187.547127 334.079057 
L 1188.915054 325.7547 
L 1190.28298 323.36877 
L 1191.650907 324.336916 
L 1193.018833 316.230885 
L 1194.386759 324.323058 
L 1195.754686 324.606019 
L 1197.122612 318.533773 
L 1198.490539 324.700545 
L 1199.858465 327.170207 
L 1201.226392 327.529723 
L 1202.594318 333.653352 
L 1203.962245 329.843567 
L 1205.330171 330.478338 
L 1206.698098 334.705904 
L 1208.066024 330.628292 
L 1209.43395 329.836052 
L 1210.801877 331.923036 
L 1212.169803 327.847894 
L 1213.53773 331.09587 
L 1214.905656 331.10045 
L 1216.273583 328.057406 
L 1219.009436 332.150606 
L 1220.377362 330.889592 
L 1221.745289 333.693448 
L 1223.113215 332.23429 
L 1224.481141 332.539305 
L 1225.849068 334.228415 
L 1227.216994 333.206228 
L 1228.584921 332.332838 
L 1229.952847 333.487301 
L 1231.320774 332.129902 
L 1232.6887 333.365571 
L 1234.056627 333.501558 
L 1235.424553 332.771799 
L 1238.160406 334.49563 
L 1239.528332 334.046539 
L 1240.896259 335.122862 
L 1242.264185 334.596762 
L 1243.632112 334.732088 
L 1245.000038 335.386147 
L 1247.735891 334.710321 
L 1249.103818 335.160548 
L 1250.471744 334.666432 
L 1251.839671 335.145409 
L 1253.207597 335.210544 
L 1254.575523 334.949749 
L 1257.311376 335.621685 
L 1258.679303 335.464261 
L 1260.047229 335.879165 
L 1261.415156 335.691631 
L 1262.783082 335.751979 
L 1264.151009 336.006645 
L 1266.886862 335.769382 
L 1268.254788 335.946104 
L 1269.622715 335.767724 
L 1270.990641 335.954441 
L 1272.358567 335.985352 
L 1273.726494 335.893497 
L 1276.462347 336.866424 
L 1277.830273 336.81496 
L 1279.1982 336.645989 
L 1280.566126 335.269366 
L 1281.934053 335.346704 
L 1283.301979 337.346525 
L 1284.669906 335.535017 
L 1287.405758 335.698085 
L 1291.509538 336.877666 
L 1292.877464 335.49252 
L 1294.245391 334.766871 
L 1295.613317 334.697631 
L 1296.981244 336.722322 
L 1298.34917 334.270282 
L 1299.717097 335.645952 
L 1301.085023 334.682618 
L 1302.452949 335.489873 
L 1303.820876 334.654658 
L 1305.188802 334.737688 
L 1306.556729 333.094601 
L 1306.556729 333.094601 
" clip-path="url(#pe43ab20f62)" style="fill: none; stroke: #ffa500; stroke-width: 1.5; stroke-linecap: square"/>
   </g>
   <g id="line2d_21">
    <path d="M 1306.556729 333.094601 
L 1307.924655 334.863061 
L 1309.292582 334.326925 
L 1310.660508 335.181875 
L 1312.028435 334.8596 
L 1313.396361 335.250637 
L 1314.764288 335.224769 
L 1316.132214 336.653403 
L 1317.50014 335.429841 
L 1318.868067 335.908345 
L 1320.235993 335.390512 
L 1321.60392 335.703469 
L 1322.971846 335.382797 
L 1324.339773 335.377611 
" clip-path="url(#pe43ab20f62)" style="fill: none; stroke: #ff0000; stroke-width: 1.5; stroke-linecap: square"/>
   </g>
   <g id="patch_3">
    <path d="M 46.0125 368.3955 
L 46.0125 35.7555 
" style="fill: none; stroke: #000000; stroke-width: 0.8; stroke-linejoin: miter; stroke-linecap: square"/>
   </g>
   <g id="patch_4">
    <path d="M 1385.2125 368.3955 
L 1385.2125 35.7555 
" style="fill: none; stroke: #000000; stroke-width: 0.8; stroke-linejoin: miter; stroke-linecap: square"/>
   </g>
   <g id="patch_5">
    <path d="M 46.0125 368.3955 
L 1385.2125 368.3955 
" style="fill: none; stroke: #000000; stroke-width: 0.8; stroke-linejoin: miter; stroke-linecap: square"/>
   </g>
   <g id="patch_6">
    <path d="M 46.0125 35.7555 
L 1385.2125 35.7555 
" style="fill: none; stroke: #000000; stroke-width: 0.8; stroke-linejoin: miter; stroke-linecap: square"/>
   </g>
   <g id="text_19">
    <!-- Daily Confirmed Cases Forecasting - El Salvador -->
    <g transform="translate(571.419375 16.318125)scale(0.12 -0.12)">
     <defs>
      <path id="DejaVuSans-44" d="M 1259 4147 
L 1259 519 
L 2022 519 
Q 2988 519 3436 956 
Q 3884 1394 3884 2338 
Q 3884 3275 3436 3711 
Q 2988 4147 2022 4147 
L 1259 4147 
z
M 628 4666 
L 1925 4666 
Q 3281 4666 3915 4102 
Q 4550 3538 4550 2338 
Q 4550 1131 3912 565 
Q 3275 0 1925 0 
L 628 0 
L 628 4666 
z
" transform="scale(0.015625)"/>
      <path id="DejaVuSans-61" d="M 2194 1759 
Q 1497 1759 1228 1600 
Q 959 1441 959 1056 
Q 959 750 1161 570 
Q 1363 391 1709 391 
Q 2188 391 2477 730 
Q 2766 1069 2766 1631 
L 2766 1759 
L 2194 1759 
z
M 3341 1997 
L 3341 0 
L 2766 0 
L 2766 531 
Q 2569 213 2275 61 
Q 1981 -91 1556 -91 
Q 1019 -91 701 211 
Q 384 513 384 1019 
Q 384 1609 779 1909 
Q 1175 2209 1959 2209 
L 2766 2209 
L 2766 2266 
Q 2766 2663 2505 2880 
Q 2244 3097 1772 3097 
Q 1472 3097 1187 3025 
Q 903 2953 641 2809 
L 641 3341 
Q 956 3463 1253 3523 
Q 1550 3584 1831 3584 
Q 2591 3584 2966 3190 
Q 3341 2797 3341 1997 
z
" transform="scale(0.015625)"/>
      <path id="DejaVuSans-69" d="M 603 3500 
L 1178 3500 
L 1178 0 
L 603 0 
L 603 3500 
z
M 603 4863 
L 1178 4863 
L 1178 4134 
L 603 4134 
L 603 4863 
z
" transform="scale(0.015625)"/>
      <path id="DejaVuSans-6c" d="M 603 4863 
L 1178 4863 
L 1178 0 
L 603 0 
L 603 4863 
z
" transform="scale(0.015625)"/>
      <path id="DejaVuSans-79" d="M 2059 -325 
Q 1816 -950 1584 -1140 
Q 1353 -1331 966 -1331 
L 506 -1331 
L 506 -850 
L 844 -850 
Q 1081 -850 1212 -737 
Q 1344 -625 1503 -206 
L 1606 56 
L 191 3500 
L 800 3500 
L 1894 763 
L 2988 3500 
L 3597 3500 
L 2059 -325 
z
" transform="scale(0.015625)"/>
      <path id="DejaVuSans-20" transform="scale(0.015625)"/>
      <path id="DejaVuSans-43" d="M 4122 4306 
L 4122 3641 
Q 3803 3938 3442 4084 
Q 3081 4231 2675 4231 
Q 1875 4231 1450 3742 
Q 1025 3253 1025 2328 
Q 1025 1406 1450 917 
Q 1875 428 2675 428 
Q 3081 428 3442 575 
Q 3803 722 4122 1019 
L 4122 359 
Q 3791 134 3420 21 
Q 3050 -91 2638 -91 
Q 1578 -91 968 557 
Q 359 1206 359 2328 
Q 359 3453 968 4101 
Q 1578 4750 2638 4750 
Q 3056 4750 3426 4639 
Q 3797 4528 4122 4306 
z
" transform="scale(0.015625)"/>
      <path id="DejaVuSans-6f" d="M 1959 3097 
Q 1497 3097 1228 2736 
Q 959 2375 959 1747 
Q 959 1119 1226 758 
Q 1494 397 1959 397 
Q 2419 397 2687 759 
Q 2956 1122 2956 1747 
Q 2956 2369 2687 2733 
Q 2419 3097 1959 3097 
z
M 1959 3584 
Q 2709 3584 3137 3096 
Q 3566 2609 3566 1747 
Q 3566 888 3137 398 
Q 2709 -91 1959 -91 
Q 1206 -91 779 398 
Q 353 888 353 1747 
Q 353 2609 779 3096 
Q 1206 3584 1959 3584 
z
" transform="scale(0.015625)"/>
      <path id="DejaVuSans-6e" d="M 3513 2113 
L 3513 0 
L 2938 0 
L 2938 2094 
Q 2938 2591 2744 2837 
Q 2550 3084 2163 3084 
Q 1697 3084 1428 2787 
Q 1159 2491 1159 1978 
L 1159 0 
L 581 0 
L 581 3500 
L 1159 3500 
L 1159 2956 
Q 1366 3272 1645 3428 
Q 1925 3584 2291 3584 
Q 2894 3584 3203 3211 
Q 3513 2838 3513 2113 
z
" transform="scale(0.015625)"/>
      <path id="DejaVuSans-66" d="M 2375 4863 
L 2375 4384 
L 1825 4384 
Q 1516 4384 1395 4259 
Q 1275 4134 1275 3809 
L 1275 3500 
L 2222 3500 
L 2222 3053 
L 1275 3053 
L 1275 0 
L 697 0 
L 697 3053 
L 147 3053 
L 147 3500 
L 697 3500 
L 697 3744 
Q 697 4328 969 4595 
Q 1241 4863 1831 4863 
L 2375 4863 
z
" transform="scale(0.015625)"/>
      <path id="DejaVuSans-72" d="M 2631 2963 
Q 2534 3019 2420 3045 
Q 2306 3072 2169 3072 
Q 1681 3072 1420 2755 
Q 1159 2438 1159 1844 
L 1159 0 
L 581 0 
L 581 3500 
L 1159 3500 
L 1159 2956 
Q 1341 3275 1631 3429 
Q 1922 3584 2338 3584 
Q 2397 3584 2469 3576 
Q 2541 3569 2628 3553 
L 2631 2963 
z
" transform="scale(0.015625)"/>
      <path id="DejaVuSans-6d" d="M 3328 2828 
Q 3544 3216 3844 3400 
Q 4144 3584 4550 3584 
Q 5097 3584 5394 3201 
Q 5691 2819 5691 2113 
L 5691 0 
L 5113 0 
L 5113 2094 
Q 5113 2597 4934 2840 
Q 4756 3084 4391 3084 
Q 3944 3084 3684 2787 
Q 3425 2491 3425 1978 
L 3425 0 
L 2847 0 
L 2847 2094 
Q 2847 2600 2669 2842 
Q 2491 3084 2119 3084 
Q 1678 3084 1418 2786 
Q 1159 2488 1159 1978 
L 1159 0 
L 581 0 
L 581 3500 
L 1159 3500 
L 1159 2956 
Q 1356 3278 1631 3431 
Q 1906 3584 2284 3584 
Q 2666 3584 2933 3390 
Q 3200 3197 3328 2828 
z
" transform="scale(0.015625)"/>
      <path id="DejaVuSans-65" d="M 3597 1894 
L 3597 1613 
L 953 1613 
Q 991 1019 1311 708 
Q 1631 397 2203 397 
Q 2534 397 2845 478 
Q 3156 559 3463 722 
L 3463 178 
Q 3153 47 2828 -22 
Q 2503 -91 2169 -91 
Q 1331 -91 842 396 
Q 353 884 353 1716 
Q 353 2575 817 3079 
Q 1281 3584 2069 3584 
Q 2775 3584 3186 3129 
Q 3597 2675 3597 1894 
z
M 3022 2063 
Q 3016 2534 2758 2815 
Q 2500 3097 2075 3097 
Q 1594 3097 1305 2825 
Q 1016 2553 972 2059 
L 3022 2063 
z
" transform="scale(0.015625)"/>
      <path id="DejaVuSans-64" d="M 2906 2969 
L 2906 4863 
L 3481 4863 
L 3481 0 
L 2906 0 
L 2906 525 
Q 2725 213 2448 61 
Q 2172 -91 1784 -91 
Q 1150 -91 751 415 
Q 353 922 353 1747 
Q 353 2572 751 3078 
Q 1150 3584 1784 3584 
Q 2172 3584 2448 3432 
Q 2725 3281 2906 2969 
z
M 947 1747 
Q 947 1113 1208 752 
Q 1469 391 1925 391 
Q 2381 391 2643 752 
Q 2906 1113 2906 1747 
Q 2906 2381 2643 2742 
Q 2381 3103 1925 3103 
Q 1469 3103 1208 2742 
Q 947 2381 947 1747 
z
" transform="scale(0.015625)"/>
      <path id="DejaVuSans-73" d="M 2834 3397 
L 2834 2853 
Q 2591 2978 2328 3040 
Q 2066 3103 1784 3103 
Q 1356 3103 1142 2972 
Q 928 2841 928 2578 
Q 928 2378 1081 2264 
Q 1234 2150 1697 2047 
L 1894 2003 
Q 2506 1872 2764 1633 
Q 3022 1394 3022 966 
Q 3022 478 2636 193 
Q 2250 -91 1575 -91 
Q 1294 -91 989 -36 
Q 684 19 347 128 
L 347 722 
Q 666 556 975 473 
Q 1284 391 1588 391 
Q 1994 391 2212 530 
Q 2431 669 2431 922 
Q 2431 1156 2273 1281 
Q 2116 1406 1581 1522 
L 1381 1569 
Q 847 1681 609 1914 
Q 372 2147 372 2553 
Q 372 3047 722 3315 
Q 1072 3584 1716 3584 
Q 2034 3584 2315 3537 
Q 2597 3491 2834 3397 
z
" transform="scale(0.015625)"/>
      <path id="DejaVuSans-46" d="M 628 4666 
L 3309 4666 
L 3309 4134 
L 1259 4134 
L 1259 2759 
L 3109 2759 
L 3109 2228 
L 1259 2228 
L 1259 0 
L 628 0 
L 628 4666 
z
" transform="scale(0.015625)"/>
      <path id="DejaVuSans-63" d="M 3122 3366 
L 3122 2828 
Q 2878 2963 2633 3030 
Q 2388 3097 2138 3097 
Q 1578 3097 1268 2742 
Q 959 2388 959 1747 
Q 959 1106 1268 751 
Q 1578 397 2138 397 
Q 2388 397 2633 464 
Q 2878 531 3122 666 
L 3122 134 
Q 2881 22 2623 -34 
Q 2366 -91 2075 -91 
Q 1284 -91 818 406 
Q 353 903 353 1747 
Q 353 2603 823 3093 
Q 1294 3584 2113 3584 
Q 2378 3584 2631 3529 
Q 2884 3475 3122 3366 
z
" transform="scale(0.015625)"/>
      <path id="DejaVuSans-74" d="M 1172 4494 
L 1172 3500 
L 2356 3500 
L 2356 3053 
L 1172 3053 
L 1172 1153 
Q 1172 725 1289 603 
Q 1406 481 1766 481 
L 2356 481 
L 2356 0 
L 1766 0 
Q 1100 0 847 248 
Q 594 497 594 1153 
L 594 3053 
L 172 3053 
L 172 3500 
L 594 3500 
L 594 4494 
L 1172 4494 
z
" transform="scale(0.015625)"/>
      <path id="DejaVuSans-67" d="M 2906 1791 
Q 2906 2416 2648 2759 
Q 2391 3103 1925 3103 
Q 1463 3103 1205 2759 
Q 947 2416 947 1791 
Q 947 1169 1205 825 
Q 1463 481 1925 481 
Q 2391 481 2648 825 
Q 2906 1169 2906 1791 
z
M 3481 434 
Q 3481 -459 3084 -895 
Q 2688 -1331 1869 -1331 
Q 1566 -1331 1297 -1286 
Q 1028 -1241 775 -1147 
L 775 -588 
Q 1028 -725 1275 -790 
Q 1522 -856 1778 -856 
Q 2344 -856 2625 -561 
Q 2906 -266 2906 331 
L 2906 616 
Q 2728 306 2450 153 
Q 2172 0 1784 0 
Q 1141 0 747 490 
Q 353 981 353 1791 
Q 353 2603 747 3093 
Q 1141 3584 1784 3584 
Q 2172 3584 2450 3431 
Q 2728 3278 2906 2969 
L 2906 3500 
L 3481 3500 
L 3481 434 
z
" transform="scale(0.015625)"/>
      <path id="DejaVuSans-45" d="M 628 4666 
L 3578 4666 
L 3578 4134 
L 1259 4134 
L 1259 2753 
L 3481 2753 
L 3481 2222 
L 1259 2222 
L 1259 531 
L 3634 531 
L 3634 0 
L 628 0 
L 628 4666 
z
" transform="scale(0.015625)"/>
      <path id="DejaVuSans-53" d="M 3425 4513 
L 3425 3897 
Q 3066 4069 2747 4153 
Q 2428 4238 2131 4238 
Q 1616 4238 1336 4038 
Q 1056 3838 1056 3469 
Q 1056 3159 1242 3001 
Q 1428 2844 1947 2747 
L 2328 2669 
Q 3034 2534 3370 2195 
Q 3706 1856 3706 1288 
Q 3706 609 3251 259 
Q 2797 -91 1919 -91 
Q 1588 -91 1214 -16 
Q 841 59 441 206 
L 441 856 
Q 825 641 1194 531 
Q 1563 422 1919 422 
Q 2459 422 2753 634 
Q 3047 847 3047 1241 
Q 3047 1584 2836 1778 
Q 2625 1972 2144 2069 
L 1759 2144 
Q 1053 2284 737 2584 
Q 422 2884 422 3419 
Q 422 4038 858 4394 
Q 1294 4750 2059 4750 
Q 2388 4750 2728 4690 
Q 3069 4631 3425 4513 
z
" transform="scale(0.015625)"/>
      <path id="DejaVuSans-76" d="M 191 3500 
L 800 3500 
L 1894 563 
L 2988 3500 
L 3597 3500 
L 2284 0 
L 1503 0 
L 191 3500 
z
" transform="scale(0.015625)"/>
     </defs>
     <use xlink:href="#DejaVuSans-44"/>
     <use xlink:href="#DejaVuSans-61" x="77.001953"/>
     <use xlink:href="#DejaVuSans-69" x="138.28125"/>
     <use xlink:href="#DejaVuSans-6c" x="166.064453"/>
     <use xlink:href="#DejaVuSans-79" x="193.847656"/>
     <use xlink:href="#DejaVuSans-20" x="253.027344"/>
     <use xlink:href="#DejaVuSans-43" x="284.814453"/>
     <use xlink:href="#DejaVuSans-6f" x="354.638672"/>
     <use xlink:href="#DejaVuSans-6e" x="415.820312"/>
     <use xlink:href="#DejaVuSans-66" x="479.199219"/>
     <use xlink:href="#DejaVuSans-69" x="514.404297"/>
     <use xlink:href="#DejaVuSans-72" x="542.1875"/>
     <use xlink:href="#DejaVuSans-6d" x="581.550781"/>
     <use xlink:href="#DejaVuSans-65" x="678.962891"/>
     <use xlink:href="#DejaVuSans-64" x="740.486328"/>
     <use xlink:href="#DejaVuSans-20" x="803.962891"/>
     <use xlink:href="#DejaVuSans-43" x="835.75"/>
     <use xlink:href="#DejaVuSans-61" x="905.574219"/>
     <use xlink:href="#DejaVuSans-73" x="966.853516"/>
     <use xlink:href="#DejaVuSans-65" x="1018.953125"/>
     <use xlink:href="#DejaVuSans-73" x="1080.476562"/>
     <use xlink:href="#DejaVuSans-20" x="1132.576172"/>
     <use xlink:href="#DejaVuSans-46" x="1164.363281"/>
     <use xlink:href="#DejaVuSans-6f" x="1218.257812"/>
     <use xlink:href="#DejaVuSans-72" x="1279.439453"/>
     <use xlink:href="#DejaVuSans-65" x="1318.302734"/>
     <use xlink:href="#DejaVuSans-63" x="1379.826172"/>
     <use xlink:href="#DejaVuSans-61" x="1434.806641"/>
     <use xlink:href="#DejaVuSans-73" x="1496.085938"/>
     <use xlink:href="#DejaVuSans-74" x="1548.185547"/>
     <use xlink:href="#DejaVuSans-69" x="1587.394531"/>
     <use xlink:href="#DejaVuSans-6e" x="1615.177734"/>
     <use xlink:href="#DejaVuSans-67" x="1678.556641"/>
     <use xlink:href="#DejaVuSans-20" x="1742.033203"/>
     <use xlink:href="#DejaVuSans-2d" x="1773.820312"/>
     <use xlink:href="#DejaVuSans-20" x="1809.904297"/>
     <use xlink:href="#DejaVuSans-45" x="1841.691406"/>
     <use xlink:href="#DejaVuSans-6c" x="1904.875"/>
     <use xlink:href="#DejaVuSans-20" x="1932.658203"/>
     <use xlink:href="#DejaVuSans-53" x="1964.445312"/>
     <use xlink:href="#DejaVuSans-61" x="2027.921875"/>
     <use xlink:href="#DejaVuSans-6c" x="2089.201172"/>
     <use xlink:href="#DejaVuSans-76" x="2116.984375"/>
     <use xlink:href="#DejaVuSans-61" x="2176.164062"/>
     <use xlink:href="#DejaVuSans-64" x="2237.443359"/>
     <use xlink:href="#DejaVuSans-6f" x="2300.919922"/>
     <use xlink:href="#DejaVuSans-72" x="2362.101562"/>
    </g>
    <!-- ARIMA (4, 1, 1)x(1, 0, 1, 7) (R2 = -0.074085) -->
    <g transform="translate(581.46375 29.7555)scale(0.12 -0.12)">
     <defs>
      <path id="DejaVuSans-41" d="M 2188 4044 
L 1331 1722 
L 3047 1722 
L 2188 4044 
z
M 1831 4666 
L 2547 4666 
L 4325 0 
L 3669 0 
L 3244 1197 
L 1141 1197 
L 716 0 
L 50 0 
L 1831 4666 
z
" transform="scale(0.015625)"/>
      <path id="DejaVuSans-52" d="M 2841 2188 
Q 3044 2119 3236 1894 
Q 3428 1669 3622 1275 
L 4263 0 
L 3584 0 
L 2988 1197 
Q 2756 1666 2539 1819 
Q 2322 1972 1947 1972 
L 1259 1972 
L 1259 0 
L 628 0 
L 628 4666 
L 2053 4666 
Q 2853 4666 3247 4331 
Q 3641 3997 3641 3322 
Q 3641 2881 3436 2590 
Q 3231 2300 2841 2188 
z
M 1259 4147 
L 1259 2491 
L 2053 2491 
Q 2509 2491 2742 2702 
Q 2975 2913 2975 3322 
Q 2975 3731 2742 3939 
Q 2509 4147 2053 4147 
L 1259 4147 
z
" transform="scale(0.015625)"/>
      <path id="DejaVuSans-49" d="M 628 4666 
L 1259 4666 
L 1259 0 
L 628 0 
L 628 4666 
z
" transform="scale(0.015625)"/>
      <path id="DejaVuSans-4d" d="M 628 4666 
L 1569 4666 
L 2759 1491 
L 3956 4666 
L 4897 4666 
L 4897 0 
L 4281 0 
L 4281 4097 
L 3078 897 
L 2444 897 
L 1241 4097 
L 1241 0 
L 628 0 
L 628 4666 
z
" transform="scale(0.015625)"/>
      <path id="DejaVuSans-28" d="M 1984 4856 
Q 1566 4138 1362 3434 
Q 1159 2731 1159 2009 
Q 1159 1288 1364 580 
Q 1569 -128 1984 -844 
L 1484 -844 
Q 1016 -109 783 600 
Q 550 1309 550 2009 
Q 550 2706 781 3412 
Q 1013 4119 1484 4856 
L 1984 4856 
z
" transform="scale(0.015625)"/>
      <path id="DejaVuSans-2c" d="M 750 794 
L 1409 794 
L 1409 256 
L 897 -744 
L 494 -744 
L 750 256 
L 750 794 
z
" transform="scale(0.015625)"/>
      <path id="DejaVuSans-29" d="M 513 4856 
L 1013 4856 
Q 1481 4119 1714 3412 
Q 1947 2706 1947 2009 
Q 1947 1309 1714 600 
Q 1481 -109 1013 -844 
L 513 -844 
Q 928 -128 1133 580 
Q 1338 1288 1338 2009 
Q 1338 2731 1133 3434 
Q 928 4138 513 4856 
z
" transform="scale(0.015625)"/>
      <path id="DejaVuSans-78" d="M 3513 3500 
L 2247 1797 
L 3578 0 
L 2900 0 
L 1881 1375 
L 863 0 
L 184 0 
L 1544 1831 
L 300 3500 
L 978 3500 
L 1906 2253 
L 2834 3500 
L 3513 3500 
z
" transform="scale(0.015625)"/>
      <path id="DejaVuSans-3d" d="M 678 2906 
L 4684 2906 
L 4684 2381 
L 678 2381 
L 678 2906 
z
M 678 1631 
L 4684 1631 
L 4684 1100 
L 678 1100 
L 678 1631 
z
" transform="scale(0.015625)"/>
      <path id="DejaVuSans-2e" d="M 684 794 
L 1344 794 
L 1344 0 
L 684 0 
L 684 794 
z
" transform="scale(0.015625)"/>
      <path id="DejaVuSans-35" d="M 691 4666 
L 3169 4666 
L 3169 4134 
L 1269 4134 
L 1269 2991 
Q 1406 3038 1543 3061 
Q 1681 3084 1819 3084 
Q 2600 3084 3056 2656 
Q 3513 2228 3513 1497 
Q 3513 744 3044 326 
Q 2575 -91 1722 -91 
Q 1428 -91 1123 -41 
Q 819 9 494 109 
L 494 744 
Q 775 591 1075 516 
Q 1375 441 1709 441 
Q 2250 441 2565 725 
Q 2881 1009 2881 1497 
Q 2881 1984 2565 2268 
Q 2250 2553 1709 2553 
Q 1456 2553 1204 2497 
Q 953 2441 691 2322 
L 691 4666 
z
" transform="scale(0.015625)"/>
     </defs>
     <use xlink:href="#DejaVuSans-41"/>
     <use xlink:href="#DejaVuSans-52" x="68.408203"/>
     <use xlink:href="#DejaVuSans-49" x="137.890625"/>
     <use xlink:href="#DejaVuSans-4d" x="167.382812"/>
     <use xlink:href="#DejaVuSans-41" x="253.662109"/>
     <use xlink:href="#DejaVuSans-20" x="322.070312"/>
     <use xlink:href="#DejaVuSans-28" x="353.857422"/>
     <use xlink:href="#DejaVuSans-34" x="392.871094"/>
     <use xlink:href="#DejaVuSans-2c" x="456.494141"/>
     <use xlink:href="#DejaVuSans-20" x="488.28125"/>
     <use xlink:href="#DejaVuSans-31" x="520.068359"/>
     <use xlink:href="#DejaVuSans-2c" x="583.691406"/>
     <use xlink:href="#DejaVuSans-20" x="615.478516"/>
     <use xlink:href="#DejaVuSans-31" x="647.265625"/>
     <use xlink:href="#DejaVuSans-29" x="710.888672"/>
     <use xlink:href="#DejaVuSans-78" x="749.902344"/>
     <use xlink:href="#DejaVuSans-28" x="809.082031"/>
     <use xlink:href="#DejaVuSans-31" x="848.095703"/>
     <use xlink:href="#DejaVuSans-2c" x="911.71875"/>
     <use xlink:href="#DejaVuSans-20" x="943.505859"/>
     <use xlink:href="#DejaVuSans-30" x="975.292969"/>
     <use xlink:href="#DejaVuSans-2c" x="1038.916016"/>
     <use xlink:href="#DejaVuSans-20" x="1070.703125"/>
     <use xlink:href="#DejaVuSans-31" x="1102.490234"/>
     <use xlink:href="#DejaVuSans-2c" x="1166.113281"/>
     <use xlink:href="#DejaVuSans-20" x="1197.900391"/>
     <use xlink:href="#DejaVuSans-37" x="1229.6875"/>
     <use xlink:href="#DejaVuSans-29" x="1293.310547"/>
     <use xlink:href="#DejaVuSans-20" x="1332.324219"/>
     <use xlink:href="#DejaVuSans-28" x="1364.111328"/>
     <use xlink:href="#DejaVuSans-52" x="1403.125"/>
     <use xlink:href="#DejaVuSans-32" x="1472.607422"/>
     <use xlink:href="#DejaVuSans-20" x="1536.230469"/>
     <use xlink:href="#DejaVuSans-3d" x="1568.017578"/>
     <use xlink:href="#DejaVuSans-20" x="1651.806641"/>
     <use xlink:href="#DejaVuSans-2d" x="1683.59375"/>
     <use xlink:href="#DejaVuSans-30" x="1719.677734"/>
     <use xlink:href="#DejaVuSans-2e" x="1783.300781"/>
     <use xlink:href="#DejaVuSans-30" x="1815.087891"/>
     <use xlink:href="#DejaVuSans-37" x="1878.710938"/>
     <use xlink:href="#DejaVuSans-34" x="1942.333984"/>
     <use xlink:href="#DejaVuSans-30" x="2005.957031"/>
     <use xlink:href="#DejaVuSans-38" x="2069.580078"/>
     <use xlink:href="#DejaVuSans-35" x="2133.203125"/>
     <use xlink:href="#DejaVuSans-29" x="2196.826172"/>
    </g>
   </g>
   <g id="legend_1">
    <g id="patch_7">
     <path d="M 1281.132812 87.789875 
L 1378.2125 87.789875 
Q 1380.2125 87.789875 1380.2125 85.789875 
L 1380.2125 42.7555 
Q 1380.2125 40.7555 1378.2125 40.7555 
L 1281.132812 40.7555 
Q 1279.132812 40.7555 1279.132812 42.7555 
L 1279.132812 85.789875 
Q 1279.132812 87.789875 1281.132812 87.789875 
z
" style="fill: #ffffff; opacity: 0.8; stroke: #cccccc; stroke-linejoin: miter"/>
    </g>
    <g id="line2d_22">
     <path d="M 1283.132812 48.853937 
L 1293.132812 48.853937 
L 1303.132812 48.853937 
" style="fill: none; stroke: #0000ff; stroke-width: 1.5; stroke-linecap: square"/>
    </g>
    <g id="text_20">
     <!-- Actual Value -->
     <g transform="translate(1311.132812 52.353937)scale(0.1 -0.1)">
      <defs>
       <path id="DejaVuSans-75" d="M 544 1381 
L 544 3500 
L 1119 3500 
L 1119 1403 
Q 1119 906 1312 657 
Q 1506 409 1894 409 
Q 2359 409 2629 706 
Q 2900 1003 2900 1516 
L 2900 3500 
L 3475 3500 
L 3475 0 
L 2900 0 
L 2900 538 
Q 2691 219 2414 64 
Q 2138 -91 1772 -91 
Q 1169 -91 856 284 
Q 544 659 544 1381 
z
M 1991 3584 
L 1991 3584 
z
" transform="scale(0.015625)"/>
       <path id="DejaVuSans-56" d="M 1831 0 
L 50 4666 
L 709 4666 
L 2188 738 
L 3669 4666 
L 4325 4666 
L 2547 0 
L 1831 0 
z
" transform="scale(0.015625)"/>
      </defs>
      <use xlink:href="#DejaVuSans-41"/>
      <use xlink:href="#DejaVuSans-63" x="66.658203"/>
      <use xlink:href="#DejaVuSans-74" x="121.638672"/>
      <use xlink:href="#DejaVuSans-75" x="160.847656"/>
      <use xlink:href="#DejaVuSans-61" x="224.226562"/>
      <use xlink:href="#DejaVuSans-6c" x="285.505859"/>
      <use xlink:href="#DejaVuSans-20" x="313.289062"/>
      <use xlink:href="#DejaVuSans-56" x="345.076172"/>
      <use xlink:href="#DejaVuSans-61" x="405.734375"/>
      <use xlink:href="#DejaVuSans-6c" x="467.013672"/>
      <use xlink:href="#DejaVuSans-75" x="494.796875"/>
      <use xlink:href="#DejaVuSans-65" x="558.175781"/>
     </g>
    </g>
    <g id="line2d_23">
     <path d="M 1283.132812 63.532062 
L 1293.132812 63.532062 
L 1303.132812 63.532062 
" style="fill: none; stroke: #ffa500; stroke-width: 1.5; stroke-linecap: square"/>
    </g>
    <g id="text_21">
     <!-- Check Value -->
     <g transform="translate(1311.132812 67.032062)scale(0.1 -0.1)">
      <defs>
       <path id="DejaVuSans-68" d="M 3513 2113 
L 3513 0 
L 2938 0 
L 2938 2094 
Q 2938 2591 2744 2837 
Q 2550 3084 2163 3084 
Q 1697 3084 1428 2787 
Q 1159 2491 1159 1978 
L 1159 0 
L 581 0 
L 581 4863 
L 1159 4863 
L 1159 2956 
Q 1366 3272 1645 3428 
Q 1925 3584 2291 3584 
Q 2894 3584 3203 3211 
Q 3513 2838 3513 2113 
z
" transform="scale(0.015625)"/>
       <path id="DejaVuSans-6b" d="M 581 4863 
L 1159 4863 
L 1159 1991 
L 2875 3500 
L 3609 3500 
L 1753 1863 
L 3688 0 
L 2938 0 
L 1159 1709 
L 1159 0 
L 581 0 
L 581 4863 
z
" transform="scale(0.015625)"/>
      </defs>
      <use xlink:href="#DejaVuSans-43"/>
      <use xlink:href="#DejaVuSans-68" x="69.824219"/>
      <use xlink:href="#DejaVuSans-65" x="133.203125"/>
      <use xlink:href="#DejaVuSans-63" x="194.726562"/>
      <use xlink:href="#DejaVuSans-6b" x="249.707031"/>
      <use xlink:href="#DejaVuSans-20" x="307.617188"/>
      <use xlink:href="#DejaVuSans-56" x="339.404297"/>
      <use xlink:href="#DejaVuSans-61" x="400.0625"/>
      <use xlink:href="#DejaVuSans-6c" x="461.341797"/>
      <use xlink:href="#DejaVuSans-75" x="489.125"/>
      <use xlink:href="#DejaVuSans-65" x="552.503906"/>
     </g>
    </g>
    <g id="line2d_24">
     <path d="M 1283.132812 78.210187 
L 1293.132812 78.210187 
L 1303.132812 78.210187 
" style="fill: none; stroke: #ff0000; stroke-width: 1.5; stroke-linecap: square"/>
    </g>
    <g id="text_22">
     <!-- Predict Value -->
     <g transform="translate(1311.132812 81.710187)scale(0.1 -0.1)">
      <defs>
       <path id="DejaVuSans-50" d="M 1259 4147 
L 1259 2394 
L 2053 2394 
Q 2494 2394 2734 2622 
Q 2975 2850 2975 3272 
Q 2975 3691 2734 3919 
Q 2494 4147 2053 4147 
L 1259 4147 
z
M 628 4666 
L 2053 4666 
Q 2838 4666 3239 4311 
Q 3641 3956 3641 3272 
Q 3641 2581 3239 2228 
Q 2838 1875 2053 1875 
L 1259 1875 
L 1259 0 
L 628 0 
L 628 4666 
z
" transform="scale(0.015625)"/>
      </defs>
      <use xlink:href="#DejaVuSans-50"/>
      <use xlink:href="#DejaVuSans-72" x="58.552734"/>
      <use xlink:href="#DejaVuSans-65" x="97.416016"/>
      <use xlink:href="#DejaVuSans-64" x="158.939453"/>
      <use xlink:href="#DejaVuSans-69" x="222.416016"/>
      <use xlink:href="#DejaVuSans-63" x="250.199219"/>
      <use xlink:href="#DejaVuSans-74" x="305.179688"/>
      <use xlink:href="#DejaVuSans-20" x="344.388672"/>
      <use xlink:href="#DejaVuSans-56" x="376.175781"/>
      <use xlink:href="#DejaVuSans-61" x="436.833984"/>
      <use xlink:href="#DejaVuSans-6c" x="498.113281"/>
      <use xlink:href="#DejaVuSans-75" x="525.896484"/>
      <use xlink:href="#DejaVuSans-65" x="589.275391"/>
     </g>
    </g>
   </g>
  </g>
 </g>
 <defs>
  <clipPath id="pe43ab20f62">
   <rect x="46.0125" y="35.7555" width="1339.2" height="332.64"/>
  </clipPath>
 </defs>
</svg>
