<?xml version="1.0" encoding="utf-8" standalone="no"?>
<!DOCTYPE svg PUBLIC "-//W3C//DTD SVG 1.1//EN"
  "http://www.w3.org/Graphics/SVG/1.1/DTD/svg11.dtd">
<svg xmlns:xlink="http://www.w3.org/1999/xlink" width="1386.05pt" height="392.273625pt" viewBox="0 0 1386.05 392.273625" xmlns="http://www.w3.org/2000/svg" version="1.1">
 <metadata>
  <rdf:RDF xmlns:dc="http://purl.org/dc/elements/1.1/" xmlns:cc="http://creativecommons.org/ns#" xmlns:rdf="http://www.w3.org/1999/02/22-rdf-syntax-ns#">
   <cc:Work>
    <dc:type rdf:resource="http://purl.org/dc/dcmitype/StillImage"/>
    <dc:date>2022-07-22T19:24:57.776067</dc:date>
    <dc:format>image/svg+xml</dc:format>
    <dc:creator>
     <cc:Agent>
      <dc:title>Matplotlib v3.5.2, https://matplotlib.org/</dc:title>
     </cc:Agent>
    </dc:creator>
   </cc:Work>
  </rdf:RDF>
 </metadata>
 <defs>
  <style type="text/css">*{stroke-linejoin: round; stroke-linecap: butt}</style>
 </defs>
 <g id="figure_1">
  <g id="patch_1">
   <path d="M 0 392.273625 
L 1386.05 392.273625 
L 1386.05 0 
L 0 0 
z
" style="fill: #ffffff"/>
  </g>
  <g id="axes_1">
   <g id="patch_2">
    <path d="M 39.65 368.3955 
L 1378.85 368.3955 
L 1378.85 35.7555 
L 39.65 35.7555 
z
" style="fill: #ffffff"/>
   </g>
   <g id="matplotlib.axis_1">
    <g id="xtick_1">
     <g id="line2d_1">
      <defs>
       <path id="ma363d55ee0" d="M 0 0 
L 0 3.5 
" style="stroke: #000000; stroke-width: 0.8"/>
      </defs>
      <g>
       <use xlink:href="#ma363d55ee0" x="71.504309" y="368.3955" style="stroke: #000000; stroke-width: 0.8"/>
      </g>
     </g>
     <g id="text_1">
      <!-- 2020-01 -->
      <g transform="translate(50.612903 382.993937)scale(0.1 -0.1)">
       <defs>
        <path id="DejaVuSans-32" d="M 1228 531 
L 3431 531 
L 3431 0 
L 469 0 
L 469 531 
Q 828 903 1448 1529 
Q 2069 2156 2228 2338 
Q 2531 2678 2651 2914 
Q 2772 3150 2772 3378 
Q 2772 3750 2511 3984 
Q 2250 4219 1831 4219 
Q 1534 4219 1204 4116 
Q 875 4013 500 3803 
L 500 4441 
Q 881 4594 1212 4672 
Q 1544 4750 1819 4750 
Q 2544 4750 2975 4387 
Q 3406 4025 3406 3419 
Q 3406 3131 3298 2873 
Q 3191 2616 2906 2266 
Q 2828 2175 2409 1742 
Q 1991 1309 1228 531 
z
" transform="scale(0.015625)"/>
        <path id="DejaVuSans-30" d="M 2034 4250 
Q 1547 4250 1301 3770 
Q 1056 3291 1056 2328 
Q 1056 1369 1301 889 
Q 1547 409 2034 409 
Q 2525 409 2770 889 
Q 3016 1369 3016 2328 
Q 3016 3291 2770 3770 
Q 2525 4250 2034 4250 
z
M 2034 4750 
Q 2819 4750 3233 4129 
Q 3647 3509 3647 2328 
Q 3647 1150 3233 529 
Q 2819 -91 2034 -91 
Q 1250 -91 836 529 
Q 422 1150 422 2328 
Q 422 3509 836 4129 
Q 1250 4750 2034 4750 
z
" transform="scale(0.015625)"/>
        <path id="DejaVuSans-2d" d="M 313 2009 
L 1997 2009 
L 1997 1497 
L 313 1497 
L 313 2009 
z
" transform="scale(0.015625)"/>
        <path id="DejaVuSans-31" d="M 794 531 
L 1825 531 
L 1825 4091 
L 703 3866 
L 703 4441 
L 1819 4666 
L 2450 4666 
L 2450 531 
L 3481 531 
L 3481 0 
L 794 0 
L 794 531 
z
" transform="scale(0.015625)"/>
       </defs>
       <use xlink:href="#DejaVuSans-32"/>
       <use xlink:href="#DejaVuSans-30" x="63.623047"/>
       <use xlink:href="#DejaVuSans-32" x="127.246094"/>
       <use xlink:href="#DejaVuSans-30" x="190.869141"/>
       <use xlink:href="#DejaVuSans-2d" x="254.492188"/>
       <use xlink:href="#DejaVuSans-30" x="290.576172"/>
       <use xlink:href="#DejaVuSans-31" x="354.199219"/>
      </g>
     </g>
    </g>
    <g id="xtick_2">
     <g id="line2d_2">
      <g>
       <use xlink:href="#ma363d55ee0" x="191.535039" y="368.3955" style="stroke: #000000; stroke-width: 0.8"/>
      </g>
     </g>
     <g id="text_2">
      <!-- 2020-04 -->
      <g transform="translate(170.643633 382.993937)scale(0.1 -0.1)">
       <defs>
        <path id="DejaVuSans-34" d="M 2419 4116 
L 825 1625 
L 2419 1625 
L 2419 4116 
z
M 2253 4666 
L 3047 4666 
L 3047 1625 
L 3713 1625 
L 3713 1100 
L 3047 1100 
L 3047 0 
L 2419 0 
L 2419 1100 
L 313 1100 
L 313 1709 
L 2253 4666 
z
" transform="scale(0.015625)"/>
       </defs>
       <use xlink:href="#DejaVuSans-32"/>
       <use xlink:href="#DejaVuSans-30" x="63.623047"/>
       <use xlink:href="#DejaVuSans-32" x="127.246094"/>
       <use xlink:href="#DejaVuSans-30" x="190.869141"/>
       <use xlink:href="#DejaVuSans-2d" x="254.492188"/>
       <use xlink:href="#DejaVuSans-30" x="290.576172"/>
       <use xlink:href="#DejaVuSans-34" x="354.199219"/>
      </g>
     </g>
    </g>
    <g id="xtick_3">
     <g id="line2d_3">
      <g>
       <use xlink:href="#ma363d55ee0" x="311.565769" y="368.3955" style="stroke: #000000; stroke-width: 0.8"/>
      </g>
     </g>
     <g id="text_3">
      <!-- 2020-07 -->
      <g transform="translate(290.674362 382.993937)scale(0.1 -0.1)">
       <defs>
        <path id="DejaVuSans-37" d="M 525 4666 
L 3525 4666 
L 3525 4397 
L 1831 0 
L 1172 0 
L 2766 4134 
L 525 4134 
L 525 4666 
z
" transform="scale(0.015625)"/>
       </defs>
       <use xlink:href="#DejaVuSans-32"/>
       <use xlink:href="#DejaVuSans-30" x="63.623047"/>
       <use xlink:href="#DejaVuSans-32" x="127.246094"/>
       <use xlink:href="#DejaVuSans-30" x="190.869141"/>
       <use xlink:href="#DejaVuSans-2d" x="254.492188"/>
       <use xlink:href="#DejaVuSans-30" x="290.576172"/>
       <use xlink:href="#DejaVuSans-37" x="354.199219"/>
      </g>
     </g>
    </g>
    <g id="xtick_4">
     <g id="line2d_4">
      <g>
       <use xlink:href="#ma363d55ee0" x="432.915518" y="368.3955" style="stroke: #000000; stroke-width: 0.8"/>
      </g>
     </g>
     <g id="text_4">
      <!-- 2020-10 -->
      <g transform="translate(412.024111 382.993937)scale(0.1 -0.1)">
       <use xlink:href="#DejaVuSans-32"/>
       <use xlink:href="#DejaVuSans-30" x="63.623047"/>
       <use xlink:href="#DejaVuSans-32" x="127.246094"/>
       <use xlink:href="#DejaVuSans-30" x="190.869141"/>
       <use xlink:href="#DejaVuSans-2d" x="254.492188"/>
       <use xlink:href="#DejaVuSans-31" x="290.576172"/>
       <use xlink:href="#DejaVuSans-30" x="354.199219"/>
      </g>
     </g>
    </g>
    <g id="xtick_5">
     <g id="line2d_5">
      <g>
       <use xlink:href="#ma363d55ee0" x="554.265266" y="368.3955" style="stroke: #000000; stroke-width: 0.8"/>
      </g>
     </g>
     <g id="text_5">
      <!-- 2021-01 -->
      <g transform="translate(533.37386 382.993937)scale(0.1 -0.1)">
       <use xlink:href="#DejaVuSans-32"/>
       <use xlink:href="#DejaVuSans-30" x="63.623047"/>
       <use xlink:href="#DejaVuSans-32" x="127.246094"/>
       <use xlink:href="#DejaVuSans-31" x="190.869141"/>
       <use xlink:href="#DejaVuSans-2d" x="254.492188"/>
       <use xlink:href="#DejaVuSans-30" x="290.576172"/>
       <use xlink:href="#DejaVuSans-31" x="354.199219"/>
      </g>
     </g>
    </g>
    <g id="xtick_6">
     <g id="line2d_6">
      <g>
       <use xlink:href="#ma363d55ee0" x="672.976977" y="368.3955" style="stroke: #000000; stroke-width: 0.8"/>
      </g>
     </g>
     <g id="text_6">
      <!-- 2021-04 -->
      <g transform="translate(652.085571 382.993937)scale(0.1 -0.1)">
       <use xlink:href="#DejaVuSans-32"/>
       <use xlink:href="#DejaVuSans-30" x="63.623047"/>
       <use xlink:href="#DejaVuSans-32" x="127.246094"/>
       <use xlink:href="#DejaVuSans-31" x="190.869141"/>
       <use xlink:href="#DejaVuSans-2d" x="254.492188"/>
       <use xlink:href="#DejaVuSans-30" x="290.576172"/>
       <use xlink:href="#DejaVuSans-34" x="354.199219"/>
      </g>
     </g>
    </g>
    <g id="xtick_7">
     <g id="line2d_7">
      <g>
       <use xlink:href="#ma363d55ee0" x="793.007707" y="368.3955" style="stroke: #000000; stroke-width: 0.8"/>
      </g>
     </g>
     <g id="text_7">
      <!-- 2021-07 -->
      <g transform="translate(772.116301 382.993937)scale(0.1 -0.1)">
       <use xlink:href="#DejaVuSans-32"/>
       <use xlink:href="#DejaVuSans-30" x="63.623047"/>
       <use xlink:href="#DejaVuSans-32" x="127.246094"/>
       <use xlink:href="#DejaVuSans-31" x="190.869141"/>
       <use xlink:href="#DejaVuSans-2d" x="254.492188"/>
       <use xlink:href="#DejaVuSans-30" x="290.576172"/>
       <use xlink:href="#DejaVuSans-37" x="354.199219"/>
      </g>
     </g>
    </g>
    <g id="xtick_8">
     <g id="line2d_8">
      <g>
       <use xlink:href="#ma363d55ee0" x="914.357456" y="368.3955" style="stroke: #000000; stroke-width: 0.8"/>
      </g>
     </g>
     <g id="text_8">
      <!-- 2021-10 -->
      <g transform="translate(893.46605 382.993937)scale(0.1 -0.1)">
       <use xlink:href="#DejaVuSans-32"/>
       <use xlink:href="#DejaVuSans-30" x="63.623047"/>
       <use xlink:href="#DejaVuSans-32" x="127.246094"/>
       <use xlink:href="#DejaVuSans-31" x="190.869141"/>
       <use xlink:href="#DejaVuSans-2d" x="254.492188"/>
       <use xlink:href="#DejaVuSans-31" x="290.576172"/>
       <use xlink:href="#DejaVuSans-30" x="354.199219"/>
      </g>
     </g>
    </g>
    <g id="xtick_9">
     <g id="line2d_9">
      <g>
       <use xlink:href="#ma363d55ee0" x="1035.707205" y="368.3955" style="stroke: #000000; stroke-width: 0.8"/>
      </g>
     </g>
     <g id="text_9">
      <!-- 2022-01 -->
      <g transform="translate(1014.815799 382.993937)scale(0.1 -0.1)">
       <use xlink:href="#DejaVuSans-32"/>
       <use xlink:href="#DejaVuSans-30" x="63.623047"/>
       <use xlink:href="#DejaVuSans-32" x="127.246094"/>
       <use xlink:href="#DejaVuSans-32" x="190.869141"/>
       <use xlink:href="#DejaVuSans-2d" x="254.492188"/>
       <use xlink:href="#DejaVuSans-30" x="290.576172"/>
       <use xlink:href="#DejaVuSans-31" x="354.199219"/>
      </g>
     </g>
    </g>
    <g id="xtick_10">
     <g id="line2d_10">
      <g>
       <use xlink:href="#ma363d55ee0" x="1154.418916" y="368.3955" style="stroke: #000000; stroke-width: 0.8"/>
      </g>
     </g>
     <g id="text_10">
      <!-- 2022-04 -->
      <g transform="translate(1133.527509 382.993937)scale(0.1 -0.1)">
       <use xlink:href="#DejaVuSans-32"/>
       <use xlink:href="#DejaVuSans-30" x="63.623047"/>
       <use xlink:href="#DejaVuSans-32" x="127.246094"/>
       <use xlink:href="#DejaVuSans-32" x="190.869141"/>
       <use xlink:href="#DejaVuSans-2d" x="254.492188"/>
       <use xlink:href="#DejaVuSans-30" x="290.576172"/>
       <use xlink:href="#DejaVuSans-34" x="354.199219"/>
      </g>
     </g>
    </g>
    <g id="xtick_11">
     <g id="line2d_11">
      <g>
       <use xlink:href="#ma363d55ee0" x="1274.449645" y="368.3955" style="stroke: #000000; stroke-width: 0.8"/>
      </g>
     </g>
     <g id="text_11">
      <!-- 2022-07 -->
      <g transform="translate(1253.558239 382.993937)scale(0.1 -0.1)">
       <use xlink:href="#DejaVuSans-32"/>
       <use xlink:href="#DejaVuSans-30" x="63.623047"/>
       <use xlink:href="#DejaVuSans-32" x="127.246094"/>
       <use xlink:href="#DejaVuSans-32" x="190.869141"/>
       <use xlink:href="#DejaVuSans-2d" x="254.492188"/>
       <use xlink:href="#DejaVuSans-30" x="290.576172"/>
       <use xlink:href="#DejaVuSans-37" x="354.199219"/>
      </g>
     </g>
    </g>
   </g>
   <g id="matplotlib.axis_2">
    <g id="ytick_1">
     <g id="line2d_12">
      <defs>
       <path id="m8f7eeb9115" d="M 0 0 
L -3.5 0 
" style="stroke: #000000; stroke-width: 0.8"/>
      </defs>
      <g>
       <use xlink:href="#m8f7eeb9115" x="39.65" y="349.720313" style="stroke: #000000; stroke-width: 0.8"/>
      </g>
     </g>
     <g id="text_12">
      <!-- 0 -->
      <g transform="translate(26.2875 353.519532)scale(0.1 -0.1)">
       <use xlink:href="#DejaVuSans-30"/>
      </g>
     </g>
    </g>
    <g id="ytick_2">
     <g id="line2d_13">
      <g>
       <use xlink:href="#m8f7eeb9115" x="39.65" y="297.438156" style="stroke: #000000; stroke-width: 0.8"/>
      </g>
     </g>
     <g id="text_13">
      <!-- 500 -->
      <g transform="translate(13.5625 301.237374)scale(0.1 -0.1)">
       <defs>
        <path id="DejaVuSans-35" d="M 691 4666 
L 3169 4666 
L 3169 4134 
L 1269 4134 
L 1269 2991 
Q 1406 3038 1543 3061 
Q 1681 3084 1819 3084 
Q 2600 3084 3056 2656 
Q 3513 2228 3513 1497 
Q 3513 744 3044 326 
Q 2575 -91 1722 -91 
Q 1428 -91 1123 -41 
Q 819 9 494 109 
L 494 744 
Q 775 591 1075 516 
Q 1375 441 1709 441 
Q 2250 441 2565 725 
Q 2881 1009 2881 1497 
Q 2881 1984 2565 2268 
Q 2250 2553 1709 2553 
Q 1456 2553 1204 2497 
Q 953 2441 691 2322 
L 691 4666 
z
" transform="scale(0.015625)"/>
       </defs>
       <use xlink:href="#DejaVuSans-35"/>
       <use xlink:href="#DejaVuSans-30" x="63.623047"/>
       <use xlink:href="#DejaVuSans-30" x="127.246094"/>
      </g>
     </g>
    </g>
    <g id="ytick_3">
     <g id="line2d_14">
      <g>
       <use xlink:href="#m8f7eeb9115" x="39.65" y="245.155998" style="stroke: #000000; stroke-width: 0.8"/>
      </g>
     </g>
     <g id="text_14">
      <!-- 1000 -->
      <g transform="translate(7.2 248.955217)scale(0.1 -0.1)">
       <use xlink:href="#DejaVuSans-31"/>
       <use xlink:href="#DejaVuSans-30" x="63.623047"/>
       <use xlink:href="#DejaVuSans-30" x="127.246094"/>
       <use xlink:href="#DejaVuSans-30" x="190.869141"/>
      </g>
     </g>
    </g>
    <g id="ytick_4">
     <g id="line2d_15">
      <g>
       <use xlink:href="#m8f7eeb9115" x="39.65" y="192.87384" style="stroke: #000000; stroke-width: 0.8"/>
      </g>
     </g>
     <g id="text_15">
      <!-- 1500 -->
      <g transform="translate(7.2 196.673059)scale(0.1 -0.1)">
       <use xlink:href="#DejaVuSans-31"/>
       <use xlink:href="#DejaVuSans-35" x="63.623047"/>
       <use xlink:href="#DejaVuSans-30" x="127.246094"/>
       <use xlink:href="#DejaVuSans-30" x="190.869141"/>
      </g>
     </g>
    </g>
    <g id="ytick_5">
     <g id="line2d_16">
      <g>
       <use xlink:href="#m8f7eeb9115" x="39.65" y="140.591683" style="stroke: #000000; stroke-width: 0.8"/>
      </g>
     </g>
     <g id="text_16">
      <!-- 2000 -->
      <g transform="translate(7.2 144.390901)scale(0.1 -0.1)">
       <use xlink:href="#DejaVuSans-32"/>
       <use xlink:href="#DejaVuSans-30" x="63.623047"/>
       <use xlink:href="#DejaVuSans-30" x="127.246094"/>
       <use xlink:href="#DejaVuSans-30" x="190.869141"/>
      </g>
     </g>
    </g>
    <g id="ytick_6">
     <g id="line2d_17">
      <g>
       <use xlink:href="#m8f7eeb9115" x="39.65" y="88.309525" style="stroke: #000000; stroke-width: 0.8"/>
      </g>
     </g>
     <g id="text_17">
      <!-- 2500 -->
      <g transform="translate(7.2 92.108744)scale(0.1 -0.1)">
       <use xlink:href="#DejaVuSans-32"/>
       <use xlink:href="#DejaVuSans-35" x="63.623047"/>
       <use xlink:href="#DejaVuSans-30" x="127.246094"/>
       <use xlink:href="#DejaVuSans-30" x="190.869141"/>
      </g>
     </g>
    </g>
    <g id="ytick_7">
     <g id="line2d_18">
      <g>
       <use xlink:href="#m8f7eeb9115" x="39.65" y="36.027367" style="stroke: #000000; stroke-width: 0.8"/>
      </g>
     </g>
     <g id="text_18">
      <!-- 3000 -->
      <g transform="translate(7.2 39.826586)scale(0.1 -0.1)">
       <defs>
        <path id="DejaVuSans-33" d="M 2597 2516 
Q 3050 2419 3304 2112 
Q 3559 1806 3559 1356 
Q 3559 666 3084 287 
Q 2609 -91 1734 -91 
Q 1441 -91 1130 -33 
Q 819 25 488 141 
L 488 750 
Q 750 597 1062 519 
Q 1375 441 1716 441 
Q 2309 441 2620 675 
Q 2931 909 2931 1356 
Q 2931 1769 2642 2001 
Q 2353 2234 1838 2234 
L 1294 2234 
L 1294 2753 
L 1863 2753 
Q 2328 2753 2575 2939 
Q 2822 3125 2822 3475 
Q 2822 3834 2567 4026 
Q 2313 4219 1838 4219 
Q 1578 4219 1281 4162 
Q 984 4106 628 3988 
L 628 4550 
Q 988 4650 1302 4700 
Q 1616 4750 1894 4750 
Q 2613 4750 3031 4423 
Q 3450 4097 3450 3541 
Q 3450 3153 3228 2886 
Q 3006 2619 2597 2516 
z
" transform="scale(0.015625)"/>
       </defs>
       <use xlink:href="#DejaVuSans-33"/>
       <use xlink:href="#DejaVuSans-30" x="63.623047"/>
       <use xlink:href="#DejaVuSans-30" x="127.246094"/>
       <use xlink:href="#DejaVuSans-30" x="190.869141"/>
      </g>
     </g>
    </g>
   </g>
   <g id="line2d_19">
    <path d="M 100.522727 349.720313 
L 170.430735 349.720313 
L 171.749754 349.302056 
L 173.068773 349.615749 
L 174.387792 349.40662 
L 175.706811 349.720313 
L 177.02583 349.197492 
L 178.344849 349.720313 
L 179.663868 348.570106 
L 180.982887 344.701226 
L 182.301906 348.988363 
L 183.620925 348.047284 
L 184.939944 349.197492 
L 186.258963 349.720313 
L 187.577982 343.028197 
L 188.897001 349.40662 
L 190.21602 348.570106 
L 191.535039 348.570106 
L 192.854058 349.302056 
L 194.173077 347.21077 
L 195.492096 346.897077 
L 196.811115 348.047284 
L 198.130134 343.237326 
L 199.449153 347.001641 
L 200.768172 346.060562 
L 202.087191 343.446454 
L 203.40621 349.720313 
L 204.725229 340.414089 
L 206.044248 345.433176 
L 207.363267 344.282969 
L 208.682286 348.465541 
L 210.001305 349.720313 
L 211.320324 348.047284 
L 212.639343 346.165127 
L 213.958362 337.904546 
L 215.277381 344.910355 
L 216.5964 349.720313 
L 217.915419 342.505376 
L 219.234438 345.955998 
L 220.553457 344.282969 
L 221.872476 342.087118 
L 223.191495 349.720313 
L 224.510514 342.087118 
L 225.829533 348.256413 
L 227.148552 347.733591 
L 228.467571 343.969276 
L 229.78659 345.851434 
L 231.105609 343.655583 
L 232.424628 346.687948 
L 233.743647 345.955998 
L 236.381685 346.374255 
L 237.700704 344.282969 
L 239.019723 343.969276 
L 240.338742 346.47882 
L 241.657761 342.923633 
L 242.97678 346.269691 
L 244.295799 346.583384 
L 245.614818 336.440645 
L 246.933837 343.969276 
L 248.252856 343.551019 
L 249.571875 344.910355 
L 250.890894 345.119483 
L 252.209913 344.701226 
L 253.528932 348.67467 
L 254.847951 346.165127 
L 256.16697 341.564297 
L 257.485989 342.400811 
L 258.805008 345.537741 
L 261.443046 348.67467 
L 262.762065 344.80579 
L 264.081084 344.07384 
L 265.400103 341.459732 
L 266.719122 340.832346 
L 268.038141 338.322803 
L 269.35716 344.596662 
L 270.676179 346.165127 
L 271.995198 337.381724 
L 273.314217 342.087118 
L 274.633236 340.727782 
L 275.952255 333.826537 
L 277.271275 332.048944 
L 278.590294 336.54521 
L 279.909313 330.689608 
L 281.228332 334.87218 
L 282.547351 337.799981 
L 283.86637 330.271351 
L 285.185389 326.402471 
L 286.504408 320.442305 
L 287.823427 332.571766 
L 289.142446 325.043135 
L 290.461465 312.599981 
L 291.780484 324.624878 
L 293.099503 309.567616 
L 294.418522 309.881309 
L 295.737541 304.757658 
L 297.05656 307.685459 
L 298.375579 327.134421 
L 299.694598 330.375915 
L 301.013617 325.984214 
L 302.332636 322.533591 
L 303.651655 331.94438 
L 304.970674 307.371766 
L 306.289693 328.284629 
L 308.927731 337.904546 
L 310.24675 319.919483 
L 311.565769 328.493757 
L 312.884788 319.396662 
L 314.203807 323.370106 
L 315.522826 326.925293 
L 316.841845 317.305376 
L 318.160864 329.434836 
L 319.479883 325.879649 
L 320.798902 317.305376 
L 322.117921 323.997492 
L 323.43694 318.14189 
L 324.755959 308.835666 
L 326.074978 315.946039 
L 327.393997 338.636496 
L 328.713016 332.467201 
L 330.032035 311.449774 
L 331.351054 333.931102 
L 332.670073 334.87218 
L 333.989092 327.134421 
L 335.308111 328.0755 
L 336.62713 329.5394 
L 337.946149 326.820728 
L 339.265168 328.598322 
L 340.584187 321.697077 
L 341.903206 323.370106 
L 343.222225 324.520313 
L 344.541244 339.054753 
L 345.860263 343.551019 
L 347.179282 343.655583 
L 348.498301 339.263882 
L 349.81732 332.467201 
L 351.136339 342.505376 
L 352.455358 343.237326 
L 353.774377 342.087118 
L 355.093396 345.746869 
L 356.412415 342.087118 
L 357.731434 343.864712 
L 359.050453 339.47301 
L 360.369472 341.668861 
L 361.688491 339.682139 
L 363.00751 339.786703 
L 364.326529 341.041475 
L 365.645548 344.596662 
L 366.964567 349.720313 
L 368.283586 345.328612 
L 369.602605 344.910355 
L 370.921624 343.655583 
L 372.240643 346.269691 
L 373.559662 341.250604 
L 374.878681 345.224048 
L 376.1977 341.146039 
L 377.516719 347.94272 
L 378.835738 343.34189 
L 380.154757 343.028197 
L 381.473776 339.577575 
L 382.792795 346.060562 
L 384.111814 343.864712 
L 385.430833 345.433176 
L 386.749852 339.368446 
L 388.068871 339.786703 
L 389.38789 339.682139 
L 390.706909 343.969276 
L 392.025928 337.27716 
L 393.344947 345.955998 
L 394.663966 343.655583 
L 395.982985 344.80579 
L 397.302004 343.34189 
L 398.621023 328.493757 
L 399.940042 337.590853 
L 401.259061 337.904546 
L 402.57808 341.668861 
L 403.897099 345.851434 
L 405.216118 344.07384 
L 406.535137 344.80579 
L 407.854156 349.720313 
L 409.173175 339.577575 
L 410.492194 344.178405 
L 411.811213 346.165127 
L 413.130232 346.374255 
L 414.449251 347.001641 
L 415.76827 345.328612 
L 417.087289 342.505376 
L 418.406308 344.387533 
L 419.725327 348.988363 
L 421.044346 348.047284 
L 422.363366 340.623218 
L 425.001404 343.969276 
L 426.320423 345.119483 
L 427.639442 346.687948 
L 428.958461 348.465541 
L 430.27748 346.792512 
L 431.596499 343.969276 
L 432.915518 346.47882 
L 434.234537 345.746869 
L 435.553556 343.864712 
L 436.872575 346.269691 
L 438.191594 349.40662 
L 442.148651 344.80579 
L 443.46767 344.07384 
L 444.786689 340.100396 
L 446.105708 347.001641 
L 447.424727 349.615749 
L 448.743746 346.792512 
L 451.381784 345.537741 
L 452.700803 347.838156 
L 454.019822 347.001641 
L 455.338841 347.419898 
L 456.65786 349.615749 
L 457.976879 347.838156 
L 459.295898 347.524463 
L 460.614917 346.897077 
L 461.933936 348.151849 
L 463.252955 347.21077 
L 464.571974 345.433176 
L 465.890993 348.047284 
L 467.210012 349.511185 
L 468.529031 342.714504 
L 469.84805 342.087118 
L 471.167069 343.028197 
L 472.486088 347.21077 
L 473.805107 349.720313 
L 475.124126 345.851434 
L 476.443145 348.465541 
L 477.762164 348.360977 
L 479.081183 348.570106 
L 481.719221 348.465541 
L 483.03824 347.733591 
L 484.357259 349.40662 
L 485.676278 348.465541 
L 486.995297 348.883799 
L 488.314316 346.897077 
L 489.633335 347.94272 
L 490.952354 344.910355 
L 492.271373 346.47882 
L 493.590392 348.465541 
L 494.909411 348.047284 
L 496.22843 345.433176 
L 497.547449 345.746869 
L 498.866468 348.047284 
L 500.185487 346.897077 
L 501.504506 348.465541 
L 504.142544 348.883799 
L 505.461563 348.465541 
L 506.780582 346.47882 
L 508.099601 346.269691 
L 509.41862 346.687948 
L 510.737639 344.596662 
L 512.056658 347.524463 
L 513.375677 349.40662 
L 514.694696 346.897077 
L 516.013715 346.792512 
L 517.332734 347.315334 
L 518.651753 346.687948 
L 519.970772 345.119483 
L 521.289791 347.419898 
L 522.60881 349.092927 
L 523.927829 346.165127 
L 525.246848 345.224048 
L 526.565867 346.792512 
L 527.884886 347.524463 
L 529.203905 345.433176 
L 530.522924 347.106205 
L 531.841943 342.400811 
L 533.160962 353.2755 
L 534.479981 346.47882 
L 535.799 342.087118 
L 537.118019 345.014919 
L 538.437038 346.792512 
L 539.756057 348.256413 
L 541.075076 348.67467 
L 542.394095 345.328612 
L 543.713114 340.623218 
L 545.032133 348.67467 
L 546.351152 349.720313 
L 547.670171 342.296247 
L 548.98919 347.21077 
L 550.308209 341.982554 
L 551.627228 337.590853 
L 552.946247 336.754338 
L 554.265266 342.087118 
L 555.584285 349.720313 
L 556.903304 340.832346 
L 558.222323 333.826537 
L 559.541342 343.969276 
L 560.860361 338.427367 
L 562.17938 327.761807 
L 563.498399 341.250604 
L 564.817418 325.879649 
L 566.136438 321.697077 
L 567.455457 334.663052 
L 568.774476 319.187533 
L 570.093495 330.585044 
L 571.412514 327.866371 
L 572.731533 320.651434 
L 574.050552 349.720313 
L 575.369571 309.463052 
L 576.68859 343.132761 
L 578.007609 341.459732 
L 579.326628 327.34355 
L 580.645647 333.617409 
L 581.964666 290.746039 
L 583.283685 318.664712 
L 584.602704 324.834006 
L 585.921723 323.997492 
L 587.240742 334.976745 
L 588.559761 326.925293 
L 589.87878 324.729442 
L 591.197799 324.624878 
L 592.516818 324.20662 
L 593.835837 326.6116 
L 595.154856 341.773425 
L 596.473875 335.917824 
L 597.792894 335.917824 
L 599.111913 311.763467 
L 600.430932 329.5394 
L 601.749951 321.27882 
L 603.06897 322.74272 
L 604.387989 334.87218 
L 605.707008 349.720313 
L 607.026027 321.174255 
L 608.345046 319.814919 
L 609.664065 329.748529 
L 610.983084 332.258073 
L 612.302103 322.951849 
L 613.621122 339.786703 
L 614.940141 336.126952 
L 616.25916 335.917824 
L 617.578179 337.695417 
L 618.897198 327.448114 
L 620.216217 340.414089 
L 621.535236 338.00911 
L 622.854255 348.360977 
L 624.173274 340.832346 
L 625.492293 331.839815 
L 626.811312 349.720313 
L 628.130331 330.585044 
L 630.768369 336.858902 
L 632.087388 345.851434 
L 633.406407 335.290438 
L 634.725426 312.495417 
L 636.044445 277.466371 
L 637.363464 304.130272 
L 638.682483 295.033176 
L 640.001502 323.370106 
L 641.320521 334.663052 
L 642.63954 334.453923 
L 643.958559 292.105376 
L 645.277578 299.215749 
L 646.596597 316.991683 
L 647.915616 299.529442 
L 649.234635 313.227367 
L 650.553654 323.056413 
L 651.872673 327.552678 
L 653.191692 332.780894 
L 654.510711 282.694587 
L 655.82973 296.287948 
L 657.148749 299.634006 
L 658.467768 308.20828 
L 659.786787 319.292098 
L 661.105806 321.801641 
L 662.424825 303.816579 
L 663.743844 269.519483 
L 665.062863 308.521973 
L 666.381882 308.626537 
L 669.01992 324.415749 
L 670.338939 337.172595 
L 671.657958 313.436496 
L 672.976977 349.720313 
L 674.295996 291.582554 
L 675.615015 331.630687 
L 678.253053 340.100396 
L 679.572072 348.360977 
L 680.891091 347.001641 
L 682.21011 339.786703 
L 683.529129 337.799981 
L 684.848148 349.720313 
L 686.167167 337.486288 
L 687.486186 347.524463 
L 688.805205 345.746869 
L 690.124224 336.858902 
L 691.443243 343.864712 
L 692.762262 346.583384 
L 694.081281 345.014919 
L 695.4003 345.433176 
L 696.719319 348.67467 
L 698.038338 345.119483 
L 699.357357 341.041475 
L 700.676376 347.838156 
L 701.995395 344.492098 
L 703.314414 343.969276 
L 705.952452 348.570106 
L 707.271471 347.419898 
L 708.59049 343.655583 
L 709.90951 343.969276 
L 711.228529 345.746869 
L 712.547548 341.564297 
L 713.866567 349.720313 
L 715.185586 345.537741 
L 716.504605 347.733591 
L 717.823624 343.655583 
L 719.142643 340.936911 
L 720.461662 346.687948 
L 721.780681 345.433176 
L 723.0997 343.760147 
L 724.418719 349.615749 
L 725.737738 345.433176 
L 727.056757 346.374255 
L 728.375776 349.302056 
L 729.694795 348.151849 
L 731.013814 349.720313 
L 732.332833 337.068031 
L 733.651852 349.197492 
L 734.970871 344.80579 
L 736.28989 342.505376 
L 737.608909 343.760147 
L 738.927928 345.537741 
L 740.246947 342.60994 
L 741.565966 349.720313 
L 742.884985 340.204961 
L 744.204004 349.40662 
L 745.523023 344.596662 
L 746.842042 343.34189 
L 749.48008 345.746869 
L 750.799099 349.720313 
L 752.118118 343.551019 
L 753.437137 346.897077 
L 754.756156 345.851434 
L 756.075175 346.269691 
L 757.394194 344.910355 
L 758.713213 345.433176 
L 760.032232 348.256413 
L 761.351251 349.40662 
L 762.67027 347.838156 
L 763.989289 345.955998 
L 765.308308 343.655583 
L 766.627327 346.269691 
L 767.946346 347.21077 
L 769.265365 349.720313 
L 770.584384 339.47301 
L 771.903403 334.14023 
L 773.222422 347.21077 
L 774.541441 345.537741 
L 775.86046 349.720313 
L 777.179479 343.655583 
L 778.498498 348.360977 
L 779.817517 349.40662 
L 781.136536 348.570106 
L 782.455555 349.720313 
L 785.093593 349.720313 
L 786.412612 337.381724 
L 787.731631 348.047284 
L 789.05065 348.570106 
L 790.369669 345.642305 
L 791.688688 343.132761 
L 793.007707 342.087118 
L 794.326726 349.720313 
L 795.645745 335.604131 
L 796.964764 344.387533 
L 798.283783 348.047284 
L 799.602802 344.07384 
L 800.921821 343.551019 
L 802.24084 344.910355 
L 803.559859 345.851434 
L 804.878878 349.720313 
L 806.197897 349.720313 
L 807.516916 339.995832 
L 808.835935 346.165127 
L 810.154954 343.864712 
L 811.473973 345.537741 
L 812.792992 342.400811 
L 814.112011 343.864712 
L 815.43103 342.296247 
L 816.750049 347.315334 
L 818.069068 342.505376 
L 819.388087 349.720313 
L 820.707106 339.47301 
L 822.026125 340.623218 
L 823.345144 341.250604 
L 824.664163 345.746869 
L 825.983182 343.969276 
L 827.302201 344.282969 
L 828.62122 341.773425 
L 829.940239 335.499566 
L 831.259258 339.995832 
L 832.578277 336.022388 
L 833.897296 334.767616 
L 835.216315 343.132761 
L 836.535334 333.199151 
L 837.854353 333.931102 
L 839.173372 324.311185 
L 840.492391 335.604131 
L 841.81141 331.94438 
L 843.130429 330.689608 
L 844.449448 347.733591 
L 845.768467 334.14023 
L 847.087486 330.480479 
L 848.406505 329.434836 
L 849.725524 327.761807 
L 851.044543 342.819068 
L 852.363562 349.720313 
L 853.682582 326.6116 
L 855.001601 332.990023 
L 856.32062 323.265541 
L 857.639639 339.263882 
L 858.958658 317.200811 
L 860.277677 327.866371 
L 861.596696 329.957658 
L 862.915715 340.832346 
L 864.234734 343.760147 
L 865.553753 323.47467 
L 866.872772 322.429027 
L 868.191791 321.801641 
L 869.51081 319.396662 
L 870.829829 323.370106 
L 872.148848 306.848944 
L 873.467867 333.931102 
L 874.786886 299.634006 
L 876.105905 310.717824 
L 877.424924 340.623218 
L 878.743943 336.440645 
L 880.062962 337.172595 
L 881.381981 328.702886 
L 882.701 338.950189 
L 884.020019 335.708695 
L 885.339038 336.022388 
L 886.658057 331.526122 
L 887.977076 330.271351 
L 889.296095 326.193342 
L 890.615114 335.185873 
L 891.934133 341.564297 
L 893.253152 337.695417 
L 894.572171 329.853093 
L 895.89119 327.552678 
L 897.210209 334.453923 
L 898.529228 336.022388 
L 899.848247 335.813259 
L 901.167266 340.727782 
L 902.486285 332.048944 
L 903.805304 334.035666 
L 905.124323 339.47301 
L 906.443342 336.963467 
L 907.762361 339.159317 
L 909.08138 339.47301 
L 910.400399 345.224048 
L 911.719418 337.381724 
L 913.038437 337.695417 
L 914.357456 341.146039 
L 915.676475 345.433176 
L 916.995494 344.701226 
L 918.314513 349.720313 
L 919.633532 343.760147 
L 920.952551 340.100396 
L 922.27157 342.60994 
L 923.590589 344.492098 
L 924.909608 339.891268 
L 926.228627 346.165127 
L 927.547646 348.67467 
L 928.866665 344.596662 
L 930.185684 349.720313 
L 931.504703 343.028197 
L 932.823722 345.537741 
L 934.142741 349.720313 
L 935.46176 343.864712 
L 936.780779 346.165127 
L 938.099798 347.94272 
L 939.418817 347.21077 
L 940.737836 347.001641 
L 942.056855 348.360977 
L 943.375874 347.001641 
L 944.694893 349.720313 
L 946.013912 346.583384 
L 947.332931 348.360977 
L 948.65195 346.47882 
L 949.970969 348.151849 
L 951.289988 349.302056 
L 952.609007 347.524463 
L 953.928026 349.197492 
L 955.247045 348.256413 
L 956.566064 348.883799 
L 957.885083 348.570106 
L 959.204102 345.537741 
L 960.523121 347.94272 
L 963.161159 347.94272 
L 964.480178 349.197492 
L 965.799197 348.047284 
L 967.118216 348.047284 
L 968.437235 346.792512 
L 969.756254 349.720313 
L 971.075273 347.94272 
L 973.713311 349.720313 
L 975.03233 348.465541 
L 976.351349 348.360977 
L 977.670368 347.94272 
L 978.989387 348.151849 
L 980.308406 348.779234 
L 981.627425 348.256413 
L 982.946444 349.720313 
L 984.265463 343.34189 
L 985.584482 348.883799 
L 986.903501 349.197492 
L 988.22252 347.524463 
L 989.541539 347.838156 
L 990.860558 349.302056 
L 992.179577 349.302056 
L 993.498596 348.465541 
L 994.817615 346.165127 
L 996.136634 347.94272 
L 997.455654 347.733591 
L 998.774673 347.315334 
L 1000.093692 348.988363 
L 1001.412711 349.511185 
L 1002.73173 347.838156 
L 1004.050749 348.360977 
L 1005.369768 349.092927 
L 1006.688787 347.733591 
L 1009.326825 348.779234 
L 1010.645844 349.720313 
L 1011.964863 349.511185 
L 1013.283882 345.955998 
L 1014.602901 343.969276 
L 1015.92192 346.165127 
L 1017.240939 345.014919 
L 1018.559958 349.720313 
L 1019.878977 340.414089 
L 1022.517015 323.892927 
L 1023.836034 310.299566 
L 1025.155053 304.548529 
L 1026.474072 302.14355 
L 1027.793091 349.720313 
L 1029.11211 278.616579 
L 1030.431129 293.360147 
L 1031.750148 192.664712 
L 1033.069167 184.717824 
L 1034.388186 50.8755 
L 1035.707205 264.918654 
L 1037.026224 293.569276 
L 1038.345243 349.720313 
L 1039.664262 199.775085 
L 1040.983281 216.087118 
L 1042.3023 281.648944 
L 1043.621319 286.354338 
L 1044.940338 306.74438 
L 1046.259357 274.747699 
L 1047.578376 325.879649 
L 1048.897395 330.898737 
L 1050.216414 307.790023 
L 1051.535433 324.938571 
L 1052.854452 328.389193 
L 1054.173471 309.044795 
L 1055.49249 349.720313 
L 1056.811509 330.375915 
L 1058.130528 332.780894 
L 1059.449547 336.858902 
L 1060.768566 349.720313 
L 1062.087585 322.951849 
L 1063.406604 318.351019 
L 1064.725623 343.237326 
L 1066.044642 342.087118 
L 1067.363661 337.799981 
L 1068.68268 346.269691 
L 1070.001699 340.204961 
L 1071.320718 341.459732 
L 1072.639737 343.760147 
L 1073.958756 342.191683 
L 1075.277775 347.315334 
L 1076.596794 342.923633 
L 1077.915813 349.720313 
L 1079.234832 349.720313 
L 1080.553851 345.746869 
L 1081.87287 341.355168 
L 1083.191889 347.733591 
L 1084.510908 347.838156 
L 1085.829927 345.746869 
L 1087.148946 346.687948 
L 1088.467965 346.060562 
L 1089.786984 342.505376 
L 1091.106003 348.779234 
L 1092.425022 349.720313 
L 1093.744041 339.786703 
L 1095.06306 347.21077 
L 1096.382079 348.047284 
L 1097.701098 346.687948 
L 1099.020117 345.537741 
L 1100.339136 347.21077 
L 1101.658155 347.524463 
L 1102.977174 348.988363 
L 1104.296193 347.315334 
L 1105.615212 348.360977 
L 1106.934231 349.720313 
L 1108.25325 345.642305 
L 1109.572269 347.838156 
L 1110.891288 349.720313 
L 1112.210307 348.047284 
L 1113.529326 349.720313 
L 1114.848345 346.060562 
L 1116.167364 349.197492 
L 1117.486383 348.570106 
L 1118.805402 348.465541 
L 1120.124421 348.67467 
L 1121.44344 349.720313 
L 1122.762459 349.40662 
L 1124.081478 348.465541 
L 1125.400497 349.720313 
L 1126.719516 349.092927 
L 1128.038535 347.94272 
L 1129.357554 349.40662 
L 1130.676573 349.615749 
L 1131.995592 347.838156 
L 1133.314611 348.67467 
L 1134.63363 348.570106 
L 1135.952649 349.092927 
L 1137.271668 348.465541 
L 1138.590687 349.720313 
L 1139.909706 348.465541 
L 1141.228725 349.302056 
L 1143.866764 349.197492 
L 1145.185783 348.67467 
L 1146.504802 348.988363 
L 1147.823821 349.720313 
L 1149.14284 347.94272 
L 1150.461859 349.197492 
L 1151.780878 349.40662 
L 1153.099897 347.733591 
L 1154.418916 349.720313 
L 1155.737935 347.629027 
L 1157.056954 349.720313 
L 1158.375973 348.67467 
L 1159.694992 348.779234 
L 1161.014011 349.720313 
L 1162.33303 347.629027 
L 1163.652049 349.40662 
L 1164.971068 348.570106 
L 1166.290087 348.256413 
L 1167.609106 349.615749 
L 1168.928125 349.197492 
L 1171.566163 349.302056 
L 1172.885182 348.988363 
L 1174.204201 348.883799 
L 1175.52322 349.720313 
L 1176.842239 349.302056 
L 1178.161258 349.720313 
L 1179.480277 348.779234 
L 1180.799296 349.197492 
L 1183.437334 349.092927 
L 1184.756353 349.720313 
L 1186.075372 348.570106 
L 1187.394391 348.570106 
L 1188.71341 349.302056 
L 1191.351448 348.67467 
L 1192.670467 349.720313 
L 1193.989486 346.897077 
L 1195.308505 349.720313 
L 1196.627524 349.511185 
L 1197.946543 348.883799 
L 1199.265562 349.615749 
L 1200.584581 349.511185 
L 1201.9036 349.720313 
L 1203.222619 349.302056 
L 1204.541638 349.720313 
L 1205.860657 349.40662 
L 1207.179676 349.720313 
L 1208.498695 348.883799 
L 1211.136733 349.720313 
L 1212.455752 348.465541 
L 1213.774771 348.988363 
L 1215.09379 349.720313 
L 1216.412809 348.465541 
L 1217.731828 348.256413 
L 1219.050847 348.67467 
L 1220.369866 349.720313 
L 1221.688885 349.720313 
L 1223.007904 347.001641 
L 1224.326923 347.838156 
L 1225.645942 346.792512 
L 1226.964961 347.106205 
L 1228.28398 348.256413 
L 1229.602999 346.792512 
L 1230.922018 348.67467 
L 1232.241037 349.615749 
L 1233.560056 347.524463 
L 1236.198094 349.720313 
L 1237.517113 348.047284 
L 1238.836132 345.746869 
L 1240.155151 347.106205 
L 1241.47417 349.302056 
L 1242.793189 349.720313 
L 1244.112208 345.746869 
L 1245.431227 347.94272 
L 1246.750246 346.687948 
L 1248.069265 341.982554 
L 1249.388284 347.629027 
L 1250.707303 349.197492 
L 1252.026322 349.720313 
L 1253.345341 340.518654 
L 1254.66436 346.165127 
L 1255.983379 345.014919 
L 1257.302398 349.720313 
L 1258.621417 342.923633 
L 1259.940436 347.733591 
L 1261.259455 343.237326 
L 1262.578474 345.851434 
L 1263.897493 343.132761 
L 1265.216512 344.701226 
L 1266.535531 344.910355 
L 1267.85455 344.492098 
L 1269.173569 349.720313 
L 1270.492588 349.720313 
L 1271.811607 322.533591 
L 1273.130626 333.617409 
L 1275.768664 342.819068 
L 1277.087683 347.419898 
L 1278.406702 347.629027 
L 1279.725721 344.492098 
L 1281.04474 339.891268 
L 1282.363759 342.087118 
L 1283.682778 341.041475 
L 1285.001797 343.132761 
L 1286.320817 345.851434 
L 1287.639836 349.197492 
L 1288.958855 341.250604 
L 1290.277874 341.041475 
L 1291.596893 339.368446 
L 1292.915912 338.845624 
L 1294.234931 344.492098 
L 1295.55395 341.146039 
L 1296.872969 346.269691 
L 1298.191988 345.328612 
L 1299.511007 340.936911 
L 1300.830026 338.950189 
L 1300.830026 338.950189 
" clip-path="url(#p7793f71254)" style="fill: none; stroke: #0000ff; stroke-width: 1.5; stroke-linecap: square"/>
   </g>
   <g id="line2d_20">
    <path d="M 1060.768566 340.726764 
L 1062.087585 329.010025 
L 1063.406604 329.33687 
L 1064.725623 343.810533 
L 1066.044642 337.161213 
L 1067.363661 336.027603 
L 1068.68268 345.374124 
L 1070.001699 340.625251 
L 1071.320718 337.672132 
L 1072.639737 343.629697 
L 1073.958756 342.183126 
L 1075.277775 345.742987 
L 1076.596794 343.172483 
L 1077.915813 342.663863 
L 1079.234832 349.469314 
L 1080.553851 345.087548 
L 1081.87287 342.848347 
L 1083.191889 347.490528 
L 1084.510908 346.677437 
L 1085.829927 344.636697 
L 1087.148946 347.178431 
L 1088.467965 345.206414 
L 1089.786984 342.216624 
L 1091.106003 346.997337 
L 1092.425022 348.330255 
L 1093.744041 341.06047 
L 1095.06306 344.370395 
L 1096.382079 348.545772 
L 1097.701098 343.68938 
L 1099.020117 346.017176 
L 1100.339136 346.395173 
L 1101.658155 345.413918 
L 1102.977174 347.463675 
L 1105.615212 346.488004 
L 1106.934231 348.620468 
L 1108.25325 345.388503 
L 1109.572269 346.173584 
L 1110.891288 349.947614 
L 1112.210307 346.250764 
L 1113.529326 347.153025 
L 1114.848345 347.217012 
L 1116.167364 346.274571 
L 1117.486383 348.982609 
L 1118.805402 346.905993 
L 1120.124421 346.808202 
L 1121.44344 348.688609 
L 1122.762459 347.78635 
L 1124.081478 347.336993 
L 1125.400497 348.699456 
L 1126.719516 347.966192 
L 1128.038535 346.981483 
L 1129.357554 348.653335 
L 1130.676573 348.340468 
L 1131.995592 346.979232 
L 1133.314611 347.612417 
L 1134.63363 347.831246 
L 1135.952649 347.546499 
L 1137.271668 347.762653 
L 1141.228725 347.648747 
L 1142.547745 348.323207 
L 1143.866764 347.934159 
L 1145.185783 347.718433 
L 1146.504802 347.925444 
L 1147.823821 348.437822 
L 1149.14284 347.499084 
L 1150.461859 347.640621 
L 1151.780878 348.615296 
L 1153.099897 346.831597 
L 1154.418916 347.95452 
L 1155.737935 347.835169 
L 1157.056954 347.163981 
L 1158.375973 348.380635 
L 1159.694992 347.174579 
L 1161.014011 348.132952 
L 1162.33303 347.583551 
L 1163.652049 347.335083 
L 1164.971068 348.377909 
L 1166.290087 347.054 
L 1167.609106 348.094642 
L 1168.928125 348.328232 
L 1170.247144 347.49361 
L 1171.566163 348.177455 
L 1172.885182 348.04214 
L 1174.204201 347.628367 
L 1175.52322 348.516002 
L 1178.161258 347.985823 
L 1179.480277 348.199697 
L 1180.799296 347.853286 
L 1182.118315 348.197333 
L 1183.437334 348.098119 
L 1184.756353 348.183901 
L 1187.394391 347.41668 
L 1188.71341 348.231605 
L 1190.032429 347.967406 
L 1191.351448 347.459334 
L 1192.670467 348.250419 
L 1193.989486 346.935309 
L 1195.308505 347.51202 
L 1196.627524 349.13538 
L 1197.946543 347.0328 
L 1199.265562 348.074395 
L 1200.584581 348.643426 
L 1201.9036 347.793321 
L 1203.222619 348.515077 
L 1204.541638 348.487876 
L 1205.860657 348.153191 
L 1207.179676 348.525276 
L 1209.817714 347.941458 
L 1211.136733 348.801339 
L 1212.455752 347.571051 
L 1213.774771 347.60347 
L 1215.09379 348.799544 
L 1216.412809 347.393119 
L 1217.731828 347.157247 
L 1219.050847 348.072697 
L 1220.369866 347.94071 
L 1221.688885 348.255947 
L 1223.007904 346.815292 
L 1224.326923 346.666067 
L 1225.645942 347.353003 
L 1226.964961 346.264767 
L 1228.28398 347.242719 
L 1229.602999 346.460794 
L 1230.922018 346.31333 
L 1232.241037 348.201407 
L 1233.560056 346.438153 
L 1234.879075 346.745152 
L 1236.198094 348.801495 
L 1237.517113 346.897059 
L 1238.836132 345.710112 
L 1240.155151 347.248588 
L 1241.47417 347.986935 
L 1242.793189 347.808252 
L 1244.112208 345.766249 
L 1245.431227 346.180962 
L 1246.750246 347.286199 
L 1248.069265 343.093283 
L 1250.707303 348.808754 
L 1252.026322 345.551469 
L 1253.345341 342.66958 
L 1255.983379 346.776995 
L 1257.302398 345.99998 
L 1258.621417 344.734442 
L 1259.940436 344.256633 
L 1261.259455 345.391008 
L 1262.578474 343.880809 
L 1263.897493 344.808563 
L 1265.216512 343.959993 
L 1266.535531 344.194528 
L 1267.85455 343.847146 
L 1269.173569 346.318226 
L 1270.492588 347.948554 
L 1271.811607 331.945079 
L 1273.130626 334.887404 
L 1274.449645 346.379313 
L 1275.768664 338.113643 
L 1277.087683 342.47928 
L 1278.406702 344.053017 
L 1279.725721 338.516617 
L 1281.04474 341.872413 
L 1282.363759 343.61439 
L 1283.682778 342.594017 
L 1285.001797 343.054076 
L 1286.320817 344.651157 
L 1287.639836 345.395358 
L 1288.958855 343.698977 
L 1290.277874 340.591895 
L 1291.596893 342.51204 
L 1292.915912 340.481159 
L 1294.234931 342.8571 
L 1296.872969 341.379082 
L 1298.191988 344.016683 
L 1299.511007 340.421285 
L 1300.830026 340.233253 
L 1300.830026 340.233253 
" clip-path="url(#p7793f71254)" style="fill: none; stroke: #ffa500; stroke-width: 1.5; stroke-linecap: square"/>
   </g>
   <g id="line2d_21">
    <path d="M 1300.830026 340.233253 
L 1302.149045 342.516503 
L 1303.468064 342.176722 
L 1304.787083 341.823877 
L 1306.106102 341.634049 
L 1307.425121 341.438285 
L 1308.74414 341.365959 
L 1310.063159 341.533621 
L 1311.382178 341.252368 
L 1312.701197 341.35558 
L 1314.020216 341.02367 
L 1315.339235 340.850204 
L 1316.658254 340.93264 
L 1317.977273 341.072397 
" clip-path="url(#p7793f71254)" style="fill: none; stroke: #ff0000; stroke-width: 1.5; stroke-linecap: square"/>
   </g>
   <g id="patch_3">
    <path d="M 39.65 368.3955 
L 39.65 35.7555 
" style="fill: none; stroke: #000000; stroke-width: 0.8; stroke-linejoin: miter; stroke-linecap: square"/>
   </g>
   <g id="patch_4">
    <path d="M 1378.85 368.3955 
L 1378.85 35.7555 
" style="fill: none; stroke: #000000; stroke-width: 0.8; stroke-linejoin: miter; stroke-linecap: square"/>
   </g>
   <g id="patch_5">
    <path d="M 39.65 368.3955 
L 1378.85 368.3955 
" style="fill: none; stroke: #000000; stroke-width: 0.8; stroke-linejoin: miter; stroke-linecap: square"/>
   </g>
   <g id="patch_6">
    <path d="M 39.65 35.7555 
L 1378.85 35.7555 
" style="fill: none; stroke: #000000; stroke-width: 0.8; stroke-linejoin: miter; stroke-linecap: square"/>
   </g>
   <g id="text_19">
    <!-- Daily Confirmed Cases Forecasting - Cote d'Ivoire -->
    <g transform="translate(560.796875 16.318125)scale(0.12 -0.12)">
     <defs>
      <path id="DejaVuSans-44" d="M 1259 4147 
L 1259 519 
L 2022 519 
Q 2988 519 3436 956 
Q 3884 1394 3884 2338 
Q 3884 3275 3436 3711 
Q 2988 4147 2022 4147 
L 1259 4147 
z
M 628 4666 
L 1925 4666 
Q 3281 4666 3915 4102 
Q 4550 3538 4550 2338 
Q 4550 1131 3912 565 
Q 3275 0 1925 0 
L 628 0 
L 628 4666 
z
" transform="scale(0.015625)"/>
      <path id="DejaVuSans-61" d="M 2194 1759 
Q 1497 1759 1228 1600 
Q 959 1441 959 1056 
Q 959 750 1161 570 
Q 1363 391 1709 391 
Q 2188 391 2477 730 
Q 2766 1069 2766 1631 
L 2766 1759 
L 2194 1759 
z
M 3341 1997 
L 3341 0 
L 2766 0 
L 2766 531 
Q 2569 213 2275 61 
Q 1981 -91 1556 -91 
Q 1019 -91 701 211 
Q 384 513 384 1019 
Q 384 1609 779 1909 
Q 1175 2209 1959 2209 
L 2766 2209 
L 2766 2266 
Q 2766 2663 2505 2880 
Q 2244 3097 1772 3097 
Q 1472 3097 1187 3025 
Q 903 2953 641 2809 
L 641 3341 
Q 956 3463 1253 3523 
Q 1550 3584 1831 3584 
Q 2591 3584 2966 3190 
Q 3341 2797 3341 1997 
z
" transform="scale(0.015625)"/>
      <path id="DejaVuSans-69" d="M 603 3500 
L 1178 3500 
L 1178 0 
L 603 0 
L 603 3500 
z
M 603 4863 
L 1178 4863 
L 1178 4134 
L 603 4134 
L 603 4863 
z
" transform="scale(0.015625)"/>
      <path id="DejaVuSans-6c" d="M 603 4863 
L 1178 4863 
L 1178 0 
L 603 0 
L 603 4863 
z
" transform="scale(0.015625)"/>
      <path id="DejaVuSans-79" d="M 2059 -325 
Q 1816 -950 1584 -1140 
Q 1353 -1331 966 -1331 
L 506 -1331 
L 506 -850 
L 844 -850 
Q 1081 -850 1212 -737 
Q 1344 -625 1503 -206 
L 1606 56 
L 191 3500 
L 800 3500 
L 1894 763 
L 2988 3500 
L 3597 3500 
L 2059 -325 
z
" transform="scale(0.015625)"/>
      <path id="DejaVuSans-20" transform="scale(0.015625)"/>
      <path id="DejaVuSans-43" d="M 4122 4306 
L 4122 3641 
Q 3803 3938 3442 4084 
Q 3081 4231 2675 4231 
Q 1875 4231 1450 3742 
Q 1025 3253 1025 2328 
Q 1025 1406 1450 917 
Q 1875 428 2675 428 
Q 3081 428 3442 575 
Q 3803 722 4122 1019 
L 4122 359 
Q 3791 134 3420 21 
Q 3050 -91 2638 -91 
Q 1578 -91 968 557 
Q 359 1206 359 2328 
Q 359 3453 968 4101 
Q 1578 4750 2638 4750 
Q 3056 4750 3426 4639 
Q 3797 4528 4122 4306 
z
" transform="scale(0.015625)"/>
      <path id="DejaVuSans-6f" d="M 1959 3097 
Q 1497 3097 1228 2736 
Q 959 2375 959 1747 
Q 959 1119 1226 758 
Q 1494 397 1959 397 
Q 2419 397 2687 759 
Q 2956 1122 2956 1747 
Q 2956 2369 2687 2733 
Q 2419 3097 1959 3097 
z
M 1959 3584 
Q 2709 3584 3137 3096 
Q 3566 2609 3566 1747 
Q 3566 888 3137 398 
Q 2709 -91 1959 -91 
Q 1206 -91 779 398 
Q 353 888 353 1747 
Q 353 2609 779 3096 
Q 1206 3584 1959 3584 
z
" transform="scale(0.015625)"/>
      <path id="DejaVuSans-6e" d="M 3513 2113 
L 3513 0 
L 2938 0 
L 2938 2094 
Q 2938 2591 2744 2837 
Q 2550 3084 2163 3084 
Q 1697 3084 1428 2787 
Q 1159 2491 1159 1978 
L 1159 0 
L 581 0 
L 581 3500 
L 1159 3500 
L 1159 2956 
Q 1366 3272 1645 3428 
Q 1925 3584 2291 3584 
Q 2894 3584 3203 3211 
Q 3513 2838 3513 2113 
z
" transform="scale(0.015625)"/>
      <path id="DejaVuSans-66" d="M 2375 4863 
L 2375 4384 
L 1825 4384 
Q 1516 4384 1395 4259 
Q 1275 4134 1275 3809 
L 1275 3500 
L 2222 3500 
L 2222 3053 
L 1275 3053 
L 1275 0 
L 697 0 
L 697 3053 
L 147 3053 
L 147 3500 
L 697 3500 
L 697 3744 
Q 697 4328 969 4595 
Q 1241 4863 1831 4863 
L 2375 4863 
z
" transform="scale(0.015625)"/>
      <path id="DejaVuSans-72" d="M 2631 2963 
Q 2534 3019 2420 3045 
Q 2306 3072 2169 3072 
Q 1681 3072 1420 2755 
Q 1159 2438 1159 1844 
L 1159 0 
L 581 0 
L 581 3500 
L 1159 3500 
L 1159 2956 
Q 1341 3275 1631 3429 
Q 1922 3584 2338 3584 
Q 2397 3584 2469 3576 
Q 2541 3569 2628 3553 
L 2631 2963 
z
" transform="scale(0.015625)"/>
      <path id="DejaVuSans-6d" d="M 3328 2828 
Q 3544 3216 3844 3400 
Q 4144 3584 4550 3584 
Q 5097 3584 5394 3201 
Q 5691 2819 5691 2113 
L 5691 0 
L 5113 0 
L 5113 2094 
Q 5113 2597 4934 2840 
Q 4756 3084 4391 3084 
Q 3944 3084 3684 2787 
Q 3425 2491 3425 1978 
L 3425 0 
L 2847 0 
L 2847 2094 
Q 2847 2600 2669 2842 
Q 2491 3084 2119 3084 
Q 1678 3084 1418 2786 
Q 1159 2488 1159 1978 
L 1159 0 
L 581 0 
L 581 3500 
L 1159 3500 
L 1159 2956 
Q 1356 3278 1631 3431 
Q 1906 3584 2284 3584 
Q 2666 3584 2933 3390 
Q 3200 3197 3328 2828 
z
" transform="scale(0.015625)"/>
      <path id="DejaVuSans-65" d="M 3597 1894 
L 3597 1613 
L 953 1613 
Q 991 1019 1311 708 
Q 1631 397 2203 397 
Q 2534 397 2845 478 
Q 3156 559 3463 722 
L 3463 178 
Q 3153 47 2828 -22 
Q 2503 -91 2169 -91 
Q 1331 -91 842 396 
Q 353 884 353 1716 
Q 353 2575 817 3079 
Q 1281 3584 2069 3584 
Q 2775 3584 3186 3129 
Q 3597 2675 3597 1894 
z
M 3022 2063 
Q 3016 2534 2758 2815 
Q 2500 3097 2075 3097 
Q 1594 3097 1305 2825 
Q 1016 2553 972 2059 
L 3022 2063 
z
" transform="scale(0.015625)"/>
      <path id="DejaVuSans-64" d="M 2906 2969 
L 2906 4863 
L 3481 4863 
L 3481 0 
L 2906 0 
L 2906 525 
Q 2725 213 2448 61 
Q 2172 -91 1784 -91 
Q 1150 -91 751 415 
Q 353 922 353 1747 
Q 353 2572 751 3078 
Q 1150 3584 1784 3584 
Q 2172 3584 2448 3432 
Q 2725 3281 2906 2969 
z
M 947 1747 
Q 947 1113 1208 752 
Q 1469 391 1925 391 
Q 2381 391 2643 752 
Q 2906 1113 2906 1747 
Q 2906 2381 2643 2742 
Q 2381 3103 1925 3103 
Q 1469 3103 1208 2742 
Q 947 2381 947 1747 
z
" transform="scale(0.015625)"/>
      <path id="DejaVuSans-73" d="M 2834 3397 
L 2834 2853 
Q 2591 2978 2328 3040 
Q 2066 3103 1784 3103 
Q 1356 3103 1142 2972 
Q 928 2841 928 2578 
Q 928 2378 1081 2264 
Q 1234 2150 1697 2047 
L 1894 2003 
Q 2506 1872 2764 1633 
Q 3022 1394 3022 966 
Q 3022 478 2636 193 
Q 2250 -91 1575 -91 
Q 1294 -91 989 -36 
Q 684 19 347 128 
L 347 722 
Q 666 556 975 473 
Q 1284 391 1588 391 
Q 1994 391 2212 530 
Q 2431 669 2431 922 
Q 2431 1156 2273 1281 
Q 2116 1406 1581 1522 
L 1381 1569 
Q 847 1681 609 1914 
Q 372 2147 372 2553 
Q 372 3047 722 3315 
Q 1072 3584 1716 3584 
Q 2034 3584 2315 3537 
Q 2597 3491 2834 3397 
z
" transform="scale(0.015625)"/>
      <path id="DejaVuSans-46" d="M 628 4666 
L 3309 4666 
L 3309 4134 
L 1259 4134 
L 1259 2759 
L 3109 2759 
L 3109 2228 
L 1259 2228 
L 1259 0 
L 628 0 
L 628 4666 
z
" transform="scale(0.015625)"/>
      <path id="DejaVuSans-63" d="M 3122 3366 
L 3122 2828 
Q 2878 2963 2633 3030 
Q 2388 3097 2138 3097 
Q 1578 3097 1268 2742 
Q 959 2388 959 1747 
Q 959 1106 1268 751 
Q 1578 397 2138 397 
Q 2388 397 2633 464 
Q 2878 531 3122 666 
L 3122 134 
Q 2881 22 2623 -34 
Q 2366 -91 2075 -91 
Q 1284 -91 818 406 
Q 353 903 353 1747 
Q 353 2603 823 3093 
Q 1294 3584 2113 3584 
Q 2378 3584 2631 3529 
Q 2884 3475 3122 3366 
z
" transform="scale(0.015625)"/>
      <path id="DejaVuSans-74" d="M 1172 4494 
L 1172 3500 
L 2356 3500 
L 2356 3053 
L 1172 3053 
L 1172 1153 
Q 1172 725 1289 603 
Q 1406 481 1766 481 
L 2356 481 
L 2356 0 
L 1766 0 
Q 1100 0 847 248 
Q 594 497 594 1153 
L 594 3053 
L 172 3053 
L 172 3500 
L 594 3500 
L 594 4494 
L 1172 4494 
z
" transform="scale(0.015625)"/>
      <path id="DejaVuSans-67" d="M 2906 1791 
Q 2906 2416 2648 2759 
Q 2391 3103 1925 3103 
Q 1463 3103 1205 2759 
Q 947 2416 947 1791 
Q 947 1169 1205 825 
Q 1463 481 1925 481 
Q 2391 481 2648 825 
Q 2906 1169 2906 1791 
z
M 3481 434 
Q 3481 -459 3084 -895 
Q 2688 -1331 1869 -1331 
Q 1566 -1331 1297 -1286 
Q 1028 -1241 775 -1147 
L 775 -588 
Q 1028 -725 1275 -790 
Q 1522 -856 1778 -856 
Q 2344 -856 2625 -561 
Q 2906 -266 2906 331 
L 2906 616 
Q 2728 306 2450 153 
Q 2172 0 1784 0 
Q 1141 0 747 490 
Q 353 981 353 1791 
Q 353 2603 747 3093 
Q 1141 3584 1784 3584 
Q 2172 3584 2450 3431 
Q 2728 3278 2906 2969 
L 2906 3500 
L 3481 3500 
L 3481 434 
z
" transform="scale(0.015625)"/>
      <path id="DejaVuSans-27" d="M 1147 4666 
L 1147 2931 
L 616 2931 
L 616 4666 
L 1147 4666 
z
" transform="scale(0.015625)"/>
      <path id="DejaVuSans-49" d="M 628 4666 
L 1259 4666 
L 1259 0 
L 628 0 
L 628 4666 
z
" transform="scale(0.015625)"/>
      <path id="DejaVuSans-76" d="M 191 3500 
L 800 3500 
L 1894 563 
L 2988 3500 
L 3597 3500 
L 2284 0 
L 1503 0 
L 191 3500 
z
" transform="scale(0.015625)"/>
     </defs>
     <use xlink:href="#DejaVuSans-44"/>
     <use xlink:href="#DejaVuSans-61" x="77.001953"/>
     <use xlink:href="#DejaVuSans-69" x="138.28125"/>
     <use xlink:href="#DejaVuSans-6c" x="166.064453"/>
     <use xlink:href="#DejaVuSans-79" x="193.847656"/>
     <use xlink:href="#DejaVuSans-20" x="253.027344"/>
     <use xlink:href="#DejaVuSans-43" x="284.814453"/>
     <use xlink:href="#DejaVuSans-6f" x="354.638672"/>
     <use xlink:href="#DejaVuSans-6e" x="415.820312"/>
     <use xlink:href="#DejaVuSans-66" x="479.199219"/>
     <use xlink:href="#DejaVuSans-69" x="514.404297"/>
     <use xlink:href="#DejaVuSans-72" x="542.1875"/>
     <use xlink:href="#DejaVuSans-6d" x="581.550781"/>
     <use xlink:href="#DejaVuSans-65" x="678.962891"/>
     <use xlink:href="#DejaVuSans-64" x="740.486328"/>
     <use xlink:href="#DejaVuSans-20" x="803.962891"/>
     <use xlink:href="#DejaVuSans-43" x="835.75"/>
     <use xlink:href="#DejaVuSans-61" x="905.574219"/>
     <use xlink:href="#DejaVuSans-73" x="966.853516"/>
     <use xlink:href="#DejaVuSans-65" x="1018.953125"/>
     <use xlink:href="#DejaVuSans-73" x="1080.476562"/>
     <use xlink:href="#DejaVuSans-20" x="1132.576172"/>
     <use xlink:href="#DejaVuSans-46" x="1164.363281"/>
     <use xlink:href="#DejaVuSans-6f" x="1218.257812"/>
     <use xlink:href="#DejaVuSans-72" x="1279.439453"/>
     <use xlink:href="#DejaVuSans-65" x="1318.302734"/>
     <use xlink:href="#DejaVuSans-63" x="1379.826172"/>
     <use xlink:href="#DejaVuSans-61" x="1434.806641"/>
     <use xlink:href="#DejaVuSans-73" x="1496.085938"/>
     <use xlink:href="#DejaVuSans-74" x="1548.185547"/>
     <use xlink:href="#DejaVuSans-69" x="1587.394531"/>
     <use xlink:href="#DejaVuSans-6e" x="1615.177734"/>
     <use xlink:href="#DejaVuSans-67" x="1678.556641"/>
     <use xlink:href="#DejaVuSans-20" x="1742.033203"/>
     <use xlink:href="#DejaVuSans-2d" x="1773.820312"/>
     <use xlink:href="#DejaVuSans-20" x="1809.904297"/>
     <use xlink:href="#DejaVuSans-43" x="1841.691406"/>
     <use xlink:href="#DejaVuSans-6f" x="1911.515625"/>
     <use xlink:href="#DejaVuSans-74" x="1972.697266"/>
     <use xlink:href="#DejaVuSans-65" x="2011.90625"/>
     <use xlink:href="#DejaVuSans-20" x="2073.429688"/>
     <use xlink:href="#DejaVuSans-64" x="2105.216797"/>
     <use xlink:href="#DejaVuSans-27" x="2168.693359"/>
     <use xlink:href="#DejaVuSans-49" x="2196.183594"/>
     <use xlink:href="#DejaVuSans-76" x="2225.675781"/>
     <use xlink:href="#DejaVuSans-6f" x="2284.855469"/>
     <use xlink:href="#DejaVuSans-69" x="2346.037109"/>
     <use xlink:href="#DejaVuSans-72" x="2373.820312"/>
     <use xlink:href="#DejaVuSans-65" x="2412.683594"/>
    </g>
    <!-- ARIMA (4, 0, 1)x(1, 0, 1, 7) (R2 = 0.742446) -->
    <g transform="translate(577.265938 29.7555)scale(0.12 -0.12)">
     <defs>
      <path id="DejaVuSans-41" d="M 2188 4044 
L 1331 1722 
L 3047 1722 
L 2188 4044 
z
M 1831 4666 
L 2547 4666 
L 4325 0 
L 3669 0 
L 3244 1197 
L 1141 1197 
L 716 0 
L 50 0 
L 1831 4666 
z
" transform="scale(0.015625)"/>
      <path id="DejaVuSans-52" d="M 2841 2188 
Q 3044 2119 3236 1894 
Q 3428 1669 3622 1275 
L 4263 0 
L 3584 0 
L 2988 1197 
Q 2756 1666 2539 1819 
Q 2322 1972 1947 1972 
L 1259 1972 
L 1259 0 
L 628 0 
L 628 4666 
L 2053 4666 
Q 2853 4666 3247 4331 
Q 3641 3997 3641 3322 
Q 3641 2881 3436 2590 
Q 3231 2300 2841 2188 
z
M 1259 4147 
L 1259 2491 
L 2053 2491 
Q 2509 2491 2742 2702 
Q 2975 2913 2975 3322 
Q 2975 3731 2742 3939 
Q 2509 4147 2053 4147 
L 1259 4147 
z
" transform="scale(0.015625)"/>
      <path id="DejaVuSans-4d" d="M 628 4666 
L 1569 4666 
L 2759 1491 
L 3956 4666 
L 4897 4666 
L 4897 0 
L 4281 0 
L 4281 4097 
L 3078 897 
L 2444 897 
L 1241 4097 
L 1241 0 
L 628 0 
L 628 4666 
z
" transform="scale(0.015625)"/>
      <path id="DejaVuSans-28" d="M 1984 4856 
Q 1566 4138 1362 3434 
Q 1159 2731 1159 2009 
Q 1159 1288 1364 580 
Q 1569 -128 1984 -844 
L 1484 -844 
Q 1016 -109 783 600 
Q 550 1309 550 2009 
Q 550 2706 781 3412 
Q 1013 4119 1484 4856 
L 1984 4856 
z
" transform="scale(0.015625)"/>
      <path id="DejaVuSans-2c" d="M 750 794 
L 1409 794 
L 1409 256 
L 897 -744 
L 494 -744 
L 750 256 
L 750 794 
z
" transform="scale(0.015625)"/>
      <path id="DejaVuSans-29" d="M 513 4856 
L 1013 4856 
Q 1481 4119 1714 3412 
Q 1947 2706 1947 2009 
Q 1947 1309 1714 600 
Q 1481 -109 1013 -844 
L 513 -844 
Q 928 -128 1133 580 
Q 1338 1288 1338 2009 
Q 1338 2731 1133 3434 
Q 928 4138 513 4856 
z
" transform="scale(0.015625)"/>
      <path id="DejaVuSans-78" d="M 3513 3500 
L 2247 1797 
L 3578 0 
L 2900 0 
L 1881 1375 
L 863 0 
L 184 0 
L 1544 1831 
L 300 3500 
L 978 3500 
L 1906 2253 
L 2834 3500 
L 3513 3500 
z
" transform="scale(0.015625)"/>
      <path id="DejaVuSans-3d" d="M 678 2906 
L 4684 2906 
L 4684 2381 
L 678 2381 
L 678 2906 
z
M 678 1631 
L 4684 1631 
L 4684 1100 
L 678 1100 
L 678 1631 
z
" transform="scale(0.015625)"/>
      <path id="DejaVuSans-2e" d="M 684 794 
L 1344 794 
L 1344 0 
L 684 0 
L 684 794 
z
" transform="scale(0.015625)"/>
      <path id="DejaVuSans-36" d="M 2113 2584 
Q 1688 2584 1439 2293 
Q 1191 2003 1191 1497 
Q 1191 994 1439 701 
Q 1688 409 2113 409 
Q 2538 409 2786 701 
Q 3034 994 3034 1497 
Q 3034 2003 2786 2293 
Q 2538 2584 2113 2584 
z
M 3366 4563 
L 3366 3988 
Q 3128 4100 2886 4159 
Q 2644 4219 2406 4219 
Q 1781 4219 1451 3797 
Q 1122 3375 1075 2522 
Q 1259 2794 1537 2939 
Q 1816 3084 2150 3084 
Q 2853 3084 3261 2657 
Q 3669 2231 3669 1497 
Q 3669 778 3244 343 
Q 2819 -91 2113 -91 
Q 1303 -91 875 529 
Q 447 1150 447 2328 
Q 447 3434 972 4092 
Q 1497 4750 2381 4750 
Q 2619 4750 2861 4703 
Q 3103 4656 3366 4563 
z
" transform="scale(0.015625)"/>
     </defs>
     <use xlink:href="#DejaVuSans-41"/>
     <use xlink:href="#DejaVuSans-52" x="68.408203"/>
     <use xlink:href="#DejaVuSans-49" x="137.890625"/>
     <use xlink:href="#DejaVuSans-4d" x="167.382812"/>
     <use xlink:href="#DejaVuSans-41" x="253.662109"/>
     <use xlink:href="#DejaVuSans-20" x="322.070312"/>
     <use xlink:href="#DejaVuSans-28" x="353.857422"/>
     <use xlink:href="#DejaVuSans-34" x="392.871094"/>
     <use xlink:href="#DejaVuSans-2c" x="456.494141"/>
     <use xlink:href="#DejaVuSans-20" x="488.28125"/>
     <use xlink:href="#DejaVuSans-30" x="520.068359"/>
     <use xlink:href="#DejaVuSans-2c" x="583.691406"/>
     <use xlink:href="#DejaVuSans-20" x="615.478516"/>
     <use xlink:href="#DejaVuSans-31" x="647.265625"/>
     <use xlink:href="#DejaVuSans-29" x="710.888672"/>
     <use xlink:href="#DejaVuSans-78" x="749.902344"/>
     <use xlink:href="#DejaVuSans-28" x="809.082031"/>
     <use xlink:href="#DejaVuSans-31" x="848.095703"/>
     <use xlink:href="#DejaVuSans-2c" x="911.71875"/>
     <use xlink:href="#DejaVuSans-20" x="943.505859"/>
     <use xlink:href="#DejaVuSans-30" x="975.292969"/>
     <use xlink:href="#DejaVuSans-2c" x="1038.916016"/>
     <use xlink:href="#DejaVuSans-20" x="1070.703125"/>
     <use xlink:href="#DejaVuSans-31" x="1102.490234"/>
     <use xlink:href="#DejaVuSans-2c" x="1166.113281"/>
     <use xlink:href="#DejaVuSans-20" x="1197.900391"/>
     <use xlink:href="#DejaVuSans-37" x="1229.6875"/>
     <use xlink:href="#DejaVuSans-29" x="1293.310547"/>
     <use xlink:href="#DejaVuSans-20" x="1332.324219"/>
     <use xlink:href="#DejaVuSans-28" x="1364.111328"/>
     <use xlink:href="#DejaVuSans-52" x="1403.125"/>
     <use xlink:href="#DejaVuSans-32" x="1472.607422"/>
     <use xlink:href="#DejaVuSans-20" x="1536.230469"/>
     <use xlink:href="#DejaVuSans-3d" x="1568.017578"/>
     <use xlink:href="#DejaVuSans-20" x="1651.806641"/>
     <use xlink:href="#DejaVuSans-30" x="1683.59375"/>
     <use xlink:href="#DejaVuSans-2e" x="1747.216797"/>
     <use xlink:href="#DejaVuSans-37" x="1779.003906"/>
     <use xlink:href="#DejaVuSans-34" x="1842.626953"/>
     <use xlink:href="#DejaVuSans-32" x="1906.25"/>
     <use xlink:href="#DejaVuSans-34" x="1969.873047"/>
     <use xlink:href="#DejaVuSans-34" x="2033.496094"/>
     <use xlink:href="#DejaVuSans-36" x="2097.119141"/>
     <use xlink:href="#DejaVuSans-29" x="2160.742188"/>
    </g>
   </g>
   <g id="legend_1">
    <g id="patch_7">
     <path d="M 1274.770313 87.789875 
L 1371.85 87.789875 
Q 1373.85 87.789875 1373.85 85.789875 
L 1373.85 42.7555 
Q 1373.85 40.7555 1371.85 40.7555 
L 1274.770313 40.7555 
Q 1272.770313 40.7555 1272.770313 42.7555 
L 1272.770313 85.789875 
Q 1272.770313 87.789875 1274.770313 87.789875 
z
" style="fill: #ffffff; opacity: 0.8; stroke: #cccccc; stroke-linejoin: miter"/>
    </g>
    <g id="line2d_22">
     <path d="M 1276.770313 48.853937 
L 1286.770313 48.853937 
L 1296.770313 48.853937 
" style="fill: none; stroke: #0000ff; stroke-width: 1.5; stroke-linecap: square"/>
    </g>
    <g id="text_20">
     <!-- Actual Value -->
     <g transform="translate(1304.770313 52.353937)scale(0.1 -0.1)">
      <defs>
       <path id="DejaVuSans-75" d="M 544 1381 
L 544 3500 
L 1119 3500 
L 1119 1403 
Q 1119 906 1312 657 
Q 1506 409 1894 409 
Q 2359 409 2629 706 
Q 2900 1003 2900 1516 
L 2900 3500 
L 3475 3500 
L 3475 0 
L 2900 0 
L 2900 538 
Q 2691 219 2414 64 
Q 2138 -91 1772 -91 
Q 1169 -91 856 284 
Q 544 659 544 1381 
z
M 1991 3584 
L 1991 3584 
z
" transform="scale(0.015625)"/>
       <path id="DejaVuSans-56" d="M 1831 0 
L 50 4666 
L 709 4666 
L 2188 738 
L 3669 4666 
L 4325 4666 
L 2547 0 
L 1831 0 
z
" transform="scale(0.015625)"/>
      </defs>
      <use xlink:href="#DejaVuSans-41"/>
      <use xlink:href="#DejaVuSans-63" x="66.658203"/>
      <use xlink:href="#DejaVuSans-74" x="121.638672"/>
      <use xlink:href="#DejaVuSans-75" x="160.847656"/>
      <use xlink:href="#DejaVuSans-61" x="224.226562"/>
      <use xlink:href="#DejaVuSans-6c" x="285.505859"/>
      <use xlink:href="#DejaVuSans-20" x="313.289062"/>
      <use xlink:href="#DejaVuSans-56" x="345.076172"/>
      <use xlink:href="#DejaVuSans-61" x="405.734375"/>
      <use xlink:href="#DejaVuSans-6c" x="467.013672"/>
      <use xlink:href="#DejaVuSans-75" x="494.796875"/>
      <use xlink:href="#DejaVuSans-65" x="558.175781"/>
     </g>
    </g>
    <g id="line2d_23">
     <path d="M 1276.770313 63.532062 
L 1286.770313 63.532062 
L 1296.770313 63.532062 
" style="fill: none; stroke: #ffa500; stroke-width: 1.5; stroke-linecap: square"/>
    </g>
    <g id="text_21">
     <!-- Check Value -->
     <g transform="translate(1304.770313 67.032062)scale(0.1 -0.1)">
      <defs>
       <path id="DejaVuSans-68" d="M 3513 2113 
L 3513 0 
L 2938 0 
L 2938 2094 
Q 2938 2591 2744 2837 
Q 2550 3084 2163 3084 
Q 1697 3084 1428 2787 
Q 1159 2491 1159 1978 
L 1159 0 
L 581 0 
L 581 4863 
L 1159 4863 
L 1159 2956 
Q 1366 3272 1645 3428 
Q 1925 3584 2291 3584 
Q 2894 3584 3203 3211 
Q 3513 2838 3513 2113 
z
" transform="scale(0.015625)"/>
       <path id="DejaVuSans-6b" d="M 581 4863 
L 1159 4863 
L 1159 1991 
L 2875 3500 
L 3609 3500 
L 1753 1863 
L 3688 0 
L 2938 0 
L 1159 1709 
L 1159 0 
L 581 0 
L 581 4863 
z
" transform="scale(0.015625)"/>
      </defs>
      <use xlink:href="#DejaVuSans-43"/>
      <use xlink:href="#DejaVuSans-68" x="69.824219"/>
      <use xlink:href="#DejaVuSans-65" x="133.203125"/>
      <use xlink:href="#DejaVuSans-63" x="194.726562"/>
      <use xlink:href="#DejaVuSans-6b" x="249.707031"/>
      <use xlink:href="#DejaVuSans-20" x="307.617188"/>
      <use xlink:href="#DejaVuSans-56" x="339.404297"/>
      <use xlink:href="#DejaVuSans-61" x="400.0625"/>
      <use xlink:href="#DejaVuSans-6c" x="461.341797"/>
      <use xlink:href="#DejaVuSans-75" x="489.125"/>
      <use xlink:href="#DejaVuSans-65" x="552.503906"/>
     </g>
    </g>
    <g id="line2d_24">
     <path d="M 1276.770313 78.210187 
L 1286.770313 78.210187 
L 1296.770313 78.210187 
" style="fill: none; stroke: #ff0000; stroke-width: 1.5; stroke-linecap: square"/>
    </g>
    <g id="text_22">
     <!-- Predict Value -->
     <g transform="translate(1304.770313 81.710187)scale(0.1 -0.1)">
      <defs>
       <path id="DejaVuSans-50" d="M 1259 4147 
L 1259 2394 
L 2053 2394 
Q 2494 2394 2734 2622 
Q 2975 2850 2975 3272 
Q 2975 3691 2734 3919 
Q 2494 4147 2053 4147 
L 1259 4147 
z
M 628 4666 
L 2053 4666 
Q 2838 4666 3239 4311 
Q 3641 3956 3641 3272 
Q 3641 2581 3239 2228 
Q 2838 1875 2053 1875 
L 1259 1875 
L 1259 0 
L 628 0 
L 628 4666 
z
" transform="scale(0.015625)"/>
      </defs>
      <use xlink:href="#DejaVuSans-50"/>
      <use xlink:href="#DejaVuSans-72" x="58.552734"/>
      <use xlink:href="#DejaVuSans-65" x="97.416016"/>
      <use xlink:href="#DejaVuSans-64" x="158.939453"/>
      <use xlink:href="#DejaVuSans-69" x="222.416016"/>
      <use xlink:href="#DejaVuSans-63" x="250.199219"/>
      <use xlink:href="#DejaVuSans-74" x="305.179688"/>
      <use xlink:href="#DejaVuSans-20" x="344.388672"/>
      <use xlink:href="#DejaVuSans-56" x="376.175781"/>
      <use xlink:href="#DejaVuSans-61" x="436.833984"/>
      <use xlink:href="#DejaVuSans-6c" x="498.113281"/>
      <use xlink:href="#DejaVuSans-75" x="525.896484"/>
      <use xlink:href="#DejaVuSans-65" x="589.275391"/>
     </g>
    </g>
   </g>
  </g>
 </g>
 <defs>
  <clipPath id="p7793f71254">
   <rect x="39.65" y="35.7555" width="1339.2" height="332.64"/>
  </clipPath>
 </defs>
</svg>
