<?xml version="1.0" encoding="utf-8" standalone="no"?>
<!DOCTYPE svg PUBLIC "-//W3C//DTD SVG 1.1//EN"
  "http://www.w3.org/Graphics/SVG/1.1/DTD/svg11.dtd">
<svg xmlns:xlink="http://www.w3.org/1999/xlink" width="1386.05pt" height="392.273625pt" viewBox="0 0 1386.05 392.273625" xmlns="http://www.w3.org/2000/svg" version="1.1">
 <metadata>
  <rdf:RDF xmlns:dc="http://purl.org/dc/elements/1.1/" xmlns:cc="http://creativecommons.org/ns#" xmlns:rdf="http://www.w3.org/1999/02/22-rdf-syntax-ns#">
   <cc:Work>
    <dc:type rdf:resource="http://purl.org/dc/dcmitype/StillImage"/>
    <dc:date>2022-07-28T19:28:59.313812</dc:date>
    <dc:format>image/svg+xml</dc:format>
    <dc:creator>
     <cc:Agent>
      <dc:title>Matplotlib v3.5.2, https://matplotlib.org/</dc:title>
     </cc:Agent>
    </dc:creator>
   </cc:Work>
  </rdf:RDF>
 </metadata>
 <defs>
  <style type="text/css">*{stroke-linejoin: round; stroke-linecap: butt}</style>
 </defs>
 <g id="figure_1">
  <g id="patch_1">
   <path d="M 0 392.273625 
L 1386.05 392.273625 
L 1386.05 0 
L 0 0 
z
" style="fill: #ffffff"/>
  </g>
  <g id="axes_1">
   <g id="patch_2">
    <path d="M 39.65 368.3955 
L 1378.85 368.3955 
L 1378.85 35.7555 
L 39.65 35.7555 
z
" style="fill: #ffffff"/>
   </g>
   <g id="matplotlib.axis_1">
    <g id="xtick_1">
     <g id="line2d_1">
      <defs>
       <path id="m359c2bae33" d="M 0 0 
L 0 3.5 
" style="stroke: #000000; stroke-width: 0.8"/>
      </defs>
      <g>
       <use xlink:href="#m359c2bae33" x="71.691726" y="368.3955" style="stroke: #000000; stroke-width: 0.8"/>
      </g>
     </g>
     <g id="text_1">
      <!-- 2020-01 -->
      <g transform="translate(50.80032 382.993937)scale(0.1 -0.1)">
       <defs>
        <path id="DejaVuSans-32" d="M 1228 531 
L 3431 531 
L 3431 0 
L 469 0 
L 469 531 
Q 828 903 1448 1529 
Q 2069 2156 2228 2338 
Q 2531 2678 2651 2914 
Q 2772 3150 2772 3378 
Q 2772 3750 2511 3984 
Q 2250 4219 1831 4219 
Q 1534 4219 1204 4116 
Q 875 4013 500 3803 
L 500 4441 
Q 881 4594 1212 4672 
Q 1544 4750 1819 4750 
Q 2544 4750 2975 4387 
Q 3406 4025 3406 3419 
Q 3406 3131 3298 2873 
Q 3191 2616 2906 2266 
Q 2828 2175 2409 1742 
Q 1991 1309 1228 531 
z
" transform="scale(0.015625)"/>
        <path id="DejaVuSans-30" d="M 2034 4250 
Q 1547 4250 1301 3770 
Q 1056 3291 1056 2328 
Q 1056 1369 1301 889 
Q 1547 409 2034 409 
Q 2525 409 2770 889 
Q 3016 1369 3016 2328 
Q 3016 3291 2770 3770 
Q 2525 4250 2034 4250 
z
M 2034 4750 
Q 2819 4750 3233 4129 
Q 3647 3509 3647 2328 
Q 3647 1150 3233 529 
Q 2819 -91 2034 -91 
Q 1250 -91 836 529 
Q 422 1150 422 2328 
Q 422 3509 836 4129 
Q 1250 4750 2034 4750 
z
" transform="scale(0.015625)"/>
        <path id="DejaVuSans-2d" d="M 313 2009 
L 1997 2009 
L 1997 1497 
L 313 1497 
L 313 2009 
z
" transform="scale(0.015625)"/>
        <path id="DejaVuSans-31" d="M 794 531 
L 1825 531 
L 1825 4091 
L 703 3866 
L 703 4441 
L 1819 4666 
L 2450 4666 
L 2450 531 
L 3481 531 
L 3481 0 
L 794 0 
L 794 531 
z
" transform="scale(0.015625)"/>
       </defs>
       <use xlink:href="#DejaVuSans-32"/>
       <use xlink:href="#DejaVuSans-30" x="63.623047"/>
       <use xlink:href="#DejaVuSans-32" x="127.246094"/>
       <use xlink:href="#DejaVuSans-30" x="190.869141"/>
       <use xlink:href="#DejaVuSans-2d" x="254.492188"/>
       <use xlink:href="#DejaVuSans-30" x="290.576172"/>
       <use xlink:href="#DejaVuSans-31" x="354.199219"/>
      </g>
     </g>
    </g>
    <g id="xtick_2">
     <g id="line2d_2">
      <g>
       <use xlink:href="#m359c2bae33" x="190.947231" y="368.3955" style="stroke: #000000; stroke-width: 0.8"/>
      </g>
     </g>
     <g id="text_2">
      <!-- 2020-04 -->
      <g transform="translate(170.055824 382.993937)scale(0.1 -0.1)">
       <defs>
        <path id="DejaVuSans-34" d="M 2419 4116 
L 825 1625 
L 2419 1625 
L 2419 4116 
z
M 2253 4666 
L 3047 4666 
L 3047 1625 
L 3713 1625 
L 3713 1100 
L 3047 1100 
L 3047 0 
L 2419 0 
L 2419 1100 
L 313 1100 
L 313 1709 
L 2253 4666 
z
" transform="scale(0.015625)"/>
       </defs>
       <use xlink:href="#DejaVuSans-32"/>
       <use xlink:href="#DejaVuSans-30" x="63.623047"/>
       <use xlink:href="#DejaVuSans-32" x="127.246094"/>
       <use xlink:href="#DejaVuSans-30" x="190.869141"/>
       <use xlink:href="#DejaVuSans-2d" x="254.492188"/>
       <use xlink:href="#DejaVuSans-30" x="290.576172"/>
       <use xlink:href="#DejaVuSans-34" x="354.199219"/>
      </g>
     </g>
    </g>
    <g id="xtick_3">
     <g id="line2d_3">
      <g>
       <use xlink:href="#m359c2bae33" x="310.202735" y="368.3955" style="stroke: #000000; stroke-width: 0.8"/>
      </g>
     </g>
     <g id="text_3">
      <!-- 2020-07 -->
      <g transform="translate(289.311329 382.993937)scale(0.1 -0.1)">
       <defs>
        <path id="DejaVuSans-37" d="M 525 4666 
L 3525 4666 
L 3525 4397 
L 1831 0 
L 1172 0 
L 2766 4134 
L 525 4134 
L 525 4666 
z
" transform="scale(0.015625)"/>
       </defs>
       <use xlink:href="#DejaVuSans-32"/>
       <use xlink:href="#DejaVuSans-30" x="63.623047"/>
       <use xlink:href="#DejaVuSans-32" x="127.246094"/>
       <use xlink:href="#DejaVuSans-30" x="190.869141"/>
       <use xlink:href="#DejaVuSans-2d" x="254.492188"/>
       <use xlink:href="#DejaVuSans-30" x="290.576172"/>
       <use xlink:href="#DejaVuSans-37" x="354.199219"/>
      </g>
     </g>
    </g>
    <g id="xtick_4">
     <g id="line2d_4">
      <g>
       <use xlink:href="#m359c2bae33" x="430.76874" y="368.3955" style="stroke: #000000; stroke-width: 0.8"/>
      </g>
     </g>
     <g id="text_4">
      <!-- 2020-10 -->
      <g transform="translate(409.877333 382.993937)scale(0.1 -0.1)">
       <use xlink:href="#DejaVuSans-32"/>
       <use xlink:href="#DejaVuSans-30" x="63.623047"/>
       <use xlink:href="#DejaVuSans-32" x="127.246094"/>
       <use xlink:href="#DejaVuSans-30" x="190.869141"/>
       <use xlink:href="#DejaVuSans-2d" x="254.492188"/>
       <use xlink:href="#DejaVuSans-31" x="290.576172"/>
       <use xlink:href="#DejaVuSans-30" x="354.199219"/>
      </g>
     </g>
    </g>
    <g id="xtick_5">
     <g id="line2d_5">
      <g>
       <use xlink:href="#m359c2bae33" x="551.334744" y="368.3955" style="stroke: #000000; stroke-width: 0.8"/>
      </g>
     </g>
     <g id="text_5">
      <!-- 2021-01 -->
      <g transform="translate(530.443338 382.993937)scale(0.1 -0.1)">
       <use xlink:href="#DejaVuSans-32"/>
       <use xlink:href="#DejaVuSans-30" x="63.623047"/>
       <use xlink:href="#DejaVuSans-32" x="127.246094"/>
       <use xlink:href="#DejaVuSans-31" x="190.869141"/>
       <use xlink:href="#DejaVuSans-2d" x="254.492188"/>
       <use xlink:href="#DejaVuSans-30" x="290.576172"/>
       <use xlink:href="#DejaVuSans-31" x="354.199219"/>
      </g>
     </g>
    </g>
    <g id="xtick_6">
     <g id="line2d_6">
      <g>
       <use xlink:href="#m359c2bae33" x="669.279749" y="368.3955" style="stroke: #000000; stroke-width: 0.8"/>
      </g>
     </g>
     <g id="text_6">
      <!-- 2021-04 -->
      <g transform="translate(648.388342 382.993937)scale(0.1 -0.1)">
       <use xlink:href="#DejaVuSans-32"/>
       <use xlink:href="#DejaVuSans-30" x="63.623047"/>
       <use xlink:href="#DejaVuSans-32" x="127.246094"/>
       <use xlink:href="#DejaVuSans-31" x="190.869141"/>
       <use xlink:href="#DejaVuSans-2d" x="254.492188"/>
       <use xlink:href="#DejaVuSans-30" x="290.576172"/>
       <use xlink:href="#DejaVuSans-34" x="354.199219"/>
      </g>
     </g>
    </g>
    <g id="xtick_7">
     <g id="line2d_7">
      <g>
       <use xlink:href="#m359c2bae33" x="788.535253" y="368.3955" style="stroke: #000000; stroke-width: 0.8"/>
      </g>
     </g>
     <g id="text_7">
      <!-- 2021-07 -->
      <g transform="translate(767.643847 382.993937)scale(0.1 -0.1)">
       <use xlink:href="#DejaVuSans-32"/>
       <use xlink:href="#DejaVuSans-30" x="63.623047"/>
       <use xlink:href="#DejaVuSans-32" x="127.246094"/>
       <use xlink:href="#DejaVuSans-31" x="190.869141"/>
       <use xlink:href="#DejaVuSans-2d" x="254.492188"/>
       <use xlink:href="#DejaVuSans-30" x="290.576172"/>
       <use xlink:href="#DejaVuSans-37" x="354.199219"/>
      </g>
     </g>
    </g>
    <g id="xtick_8">
     <g id="line2d_8">
      <g>
       <use xlink:href="#m359c2bae33" x="909.101257" y="368.3955" style="stroke: #000000; stroke-width: 0.8"/>
      </g>
     </g>
     <g id="text_8">
      <!-- 2021-10 -->
      <g transform="translate(888.209851 382.993937)scale(0.1 -0.1)">
       <use xlink:href="#DejaVuSans-32"/>
       <use xlink:href="#DejaVuSans-30" x="63.623047"/>
       <use xlink:href="#DejaVuSans-32" x="127.246094"/>
       <use xlink:href="#DejaVuSans-31" x="190.869141"/>
       <use xlink:href="#DejaVuSans-2d" x="254.492188"/>
       <use xlink:href="#DejaVuSans-31" x="290.576172"/>
       <use xlink:href="#DejaVuSans-30" x="354.199219"/>
      </g>
     </g>
    </g>
    <g id="xtick_9">
     <g id="line2d_9">
      <g>
       <use xlink:href="#m359c2bae33" x="1029.667262" y="368.3955" style="stroke: #000000; stroke-width: 0.8"/>
      </g>
     </g>
     <g id="text_9">
      <!-- 2022-01 -->
      <g transform="translate(1008.775856 382.993937)scale(0.1 -0.1)">
       <use xlink:href="#DejaVuSans-32"/>
       <use xlink:href="#DejaVuSans-30" x="63.623047"/>
       <use xlink:href="#DejaVuSans-32" x="127.246094"/>
       <use xlink:href="#DejaVuSans-32" x="190.869141"/>
       <use xlink:href="#DejaVuSans-2d" x="254.492188"/>
       <use xlink:href="#DejaVuSans-30" x="290.576172"/>
       <use xlink:href="#DejaVuSans-31" x="354.199219"/>
      </g>
     </g>
    </g>
    <g id="xtick_10">
     <g id="line2d_10">
      <g>
       <use xlink:href="#m359c2bae33" x="1147.612266" y="368.3955" style="stroke: #000000; stroke-width: 0.8"/>
      </g>
     </g>
     <g id="text_10">
      <!-- 2022-04 -->
      <g transform="translate(1126.72086 382.993937)scale(0.1 -0.1)">
       <use xlink:href="#DejaVuSans-32"/>
       <use xlink:href="#DejaVuSans-30" x="63.623047"/>
       <use xlink:href="#DejaVuSans-32" x="127.246094"/>
       <use xlink:href="#DejaVuSans-32" x="190.869141"/>
       <use xlink:href="#DejaVuSans-2d" x="254.492188"/>
       <use xlink:href="#DejaVuSans-30" x="290.576172"/>
       <use xlink:href="#DejaVuSans-34" x="354.199219"/>
      </g>
     </g>
    </g>
    <g id="xtick_11">
     <g id="line2d_11">
      <g>
       <use xlink:href="#m359c2bae33" x="1266.867771" y="368.3955" style="stroke: #000000; stroke-width: 0.8"/>
      </g>
     </g>
     <g id="text_11">
      <!-- 2022-07 -->
      <g transform="translate(1245.976365 382.993937)scale(0.1 -0.1)">
       <use xlink:href="#DejaVuSans-32"/>
       <use xlink:href="#DejaVuSans-30" x="63.623047"/>
       <use xlink:href="#DejaVuSans-32" x="127.246094"/>
       <use xlink:href="#DejaVuSans-32" x="190.869141"/>
       <use xlink:href="#DejaVuSans-2d" x="254.492188"/>
       <use xlink:href="#DejaVuSans-30" x="290.576172"/>
       <use xlink:href="#DejaVuSans-37" x="354.199219"/>
      </g>
     </g>
    </g>
   </g>
   <g id="matplotlib.axis_2">
    <g id="ytick_1">
     <g id="line2d_12">
      <defs>
       <path id="m8ac2a40e4e" d="M 0 0 
L -3.5 0 
" style="stroke: #000000; stroke-width: 0.8"/>
      </defs>
      <g>
       <use xlink:href="#m8ac2a40e4e" x="39.65" y="349.658597" style="stroke: #000000; stroke-width: 0.8"/>
      </g>
     </g>
     <g id="text_12">
      <!-- 0 -->
      <g transform="translate(26.2875 353.457815)scale(0.1 -0.1)">
       <use xlink:href="#DejaVuSans-30"/>
      </g>
     </g>
    </g>
    <g id="ytick_2">
     <g id="line2d_13">
      <g>
       <use xlink:href="#m8ac2a40e4e" x="39.65" y="282.980824" style="stroke: #000000; stroke-width: 0.8"/>
      </g>
     </g>
     <g id="text_13">
      <!-- 1000 -->
      <g transform="translate(7.2 286.780043)scale(0.1 -0.1)">
       <use xlink:href="#DejaVuSans-31"/>
       <use xlink:href="#DejaVuSans-30" x="63.623047"/>
       <use xlink:href="#DejaVuSans-30" x="127.246094"/>
       <use xlink:href="#DejaVuSans-30" x="190.869141"/>
      </g>
     </g>
    </g>
    <g id="ytick_3">
     <g id="line2d_14">
      <g>
       <use xlink:href="#m8ac2a40e4e" x="39.65" y="216.303052" style="stroke: #000000; stroke-width: 0.8"/>
      </g>
     </g>
     <g id="text_14">
      <!-- 2000 -->
      <g transform="translate(7.2 220.102271)scale(0.1 -0.1)">
       <use xlink:href="#DejaVuSans-32"/>
       <use xlink:href="#DejaVuSans-30" x="63.623047"/>
       <use xlink:href="#DejaVuSans-30" x="127.246094"/>
       <use xlink:href="#DejaVuSans-30" x="190.869141"/>
      </g>
     </g>
    </g>
    <g id="ytick_4">
     <g id="line2d_15">
      <g>
       <use xlink:href="#m8ac2a40e4e" x="39.65" y="149.62528" style="stroke: #000000; stroke-width: 0.8"/>
      </g>
     </g>
     <g id="text_15">
      <!-- 3000 -->
      <g transform="translate(7.2 153.424499)scale(0.1 -0.1)">
       <defs>
        <path id="DejaVuSans-33" d="M 2597 2516 
Q 3050 2419 3304 2112 
Q 3559 1806 3559 1356 
Q 3559 666 3084 287 
Q 2609 -91 1734 -91 
Q 1441 -91 1130 -33 
Q 819 25 488 141 
L 488 750 
Q 750 597 1062 519 
Q 1375 441 1716 441 
Q 2309 441 2620 675 
Q 2931 909 2931 1356 
Q 2931 1769 2642 2001 
Q 2353 2234 1838 2234 
L 1294 2234 
L 1294 2753 
L 1863 2753 
Q 2328 2753 2575 2939 
Q 2822 3125 2822 3475 
Q 2822 3834 2567 4026 
Q 2313 4219 1838 4219 
Q 1578 4219 1281 4162 
Q 984 4106 628 3988 
L 628 4550 
Q 988 4650 1302 4700 
Q 1616 4750 1894 4750 
Q 2613 4750 3031 4423 
Q 3450 4097 3450 3541 
Q 3450 3153 3228 2886 
Q 3006 2619 2597 2516 
z
" transform="scale(0.015625)"/>
       </defs>
       <use xlink:href="#DejaVuSans-33"/>
       <use xlink:href="#DejaVuSans-30" x="63.623047"/>
       <use xlink:href="#DejaVuSans-30" x="127.246094"/>
       <use xlink:href="#DejaVuSans-30" x="190.869141"/>
      </g>
     </g>
    </g>
    <g id="ytick_5">
     <g id="line2d_16">
      <g>
       <use xlink:href="#m8ac2a40e4e" x="39.65" y="82.947508" style="stroke: #000000; stroke-width: 0.8"/>
      </g>
     </g>
     <g id="text_16">
      <!-- 4000 -->
      <g transform="translate(7.2 86.746727)scale(0.1 -0.1)">
       <use xlink:href="#DejaVuSans-34"/>
       <use xlink:href="#DejaVuSans-30" x="63.623047"/>
       <use xlink:href="#DejaVuSans-30" x="127.246094"/>
       <use xlink:href="#DejaVuSans-30" x="190.869141"/>
      </g>
     </g>
    </g>
   </g>
   <g id="line2d_17">
    <path d="M 100.522727 349.658597 
L 172.60023 349.591919 
L 173.91073 348.991819 
L 175.22123 349.391885 
L 180.46323 349.058497 
L 181.77373 349.458563 
L 183.08423 349.458563 
L 184.39473 349.658597 
L 185.70523 348.725108 
L 187.015731 349.658597 
L 188.326231 348.591752 
L 189.636731 348.525074 
L 190.947231 348.925141 
L 192.257731 347.991652 
L 193.568231 349.658597 
L 194.878731 348.325041 
L 196.189231 349.658597 
L 197.499731 349.191852 
L 198.810231 348.391719 
L 200.120731 349.658597 
L 201.431231 349.658597 
L 202.741731 347.324875 
L 204.052231 349.125174 
L 205.362731 348.925141 
L 206.673231 349.591919 
L 207.983731 349.25853 
L 209.294231 348.791786 
L 210.604731 348.791786 
L 211.915231 348.325041 
L 214.536232 348.325041 
L 215.846732 349.325208 
L 217.157232 348.458397 
L 218.467732 349.058497 
L 219.778232 348.458397 
L 221.088732 348.525074 
L 223.709732 347.924974 
L 225.020232 348.525074 
L 226.330732 348.858463 
L 227.641232 348.325041 
L 228.951732 344.257697 
L 230.262232 347.524908 
L 231.572732 344.991152 
L 232.883232 349.658597 
L 234.193732 349.125174 
L 235.504232 348.125008 
L 236.814732 343.524242 
L 238.125232 345.257864 
L 239.435732 344.724441 
L 240.746233 349.658597 
L 242.056733 346.057997 
L 243.367233 347.45823 
L 244.677733 344.45773 
L 245.988233 345.191186 
L 247.298733 344.791119 
L 248.609233 345.924641 
L 249.919733 339.190186 
L 251.230233 349.658597 
L 252.540733 344.124341 
L 253.851233 343.590919 
L 255.161733 342.857464 
L 256.472233 342.724108 
L 257.782733 342.324042 
L 259.093233 344.324375 
L 260.403733 341.923975 
L 261.714233 339.256864 
L 263.024733 342.590753 
L 264.335233 340.123675 
L 265.645733 342.057331 
L 266.956233 338.123342 
L 268.266734 340.790453 
L 269.577234 342.724108 
L 270.887734 341.323875 
L 272.198234 340.923808 
L 273.508734 338.390053 
L 274.819234 339.723609 
L 276.129734 341.657264 
L 277.440234 342.057331 
L 278.750734 340.457064 
L 280.061234 343.657597 
L 281.371734 339.456897 
L 282.682234 340.923808 
L 283.992734 341.323875 
L 285.303234 341.523908 
L 287.924234 346.057997 
L 289.234734 345.724608 
L 290.545234 340.523742 
L 291.855734 341.257197 
L 293.166234 337.456564 
L 294.476735 336.723109 
L 295.787235 336.656431 
L 297.097735 339.39022 
L 298.408235 343.124175 
L 299.718735 342.790786 
L 301.029235 337.256531 
L 302.339735 336.456398 
L 303.650235 340.257031 
L 304.960735 340.457064 
L 306.271235 340.523742 
L 307.581735 342.190686 
L 308.892235 342.990819 
L 311.513235 345.191186 
L 312.823735 341.523908 
L 314.134235 345.124508 
L 315.444735 347.524908 
L 316.755235 348.258363 
L 318.065735 349.658597 
L 319.376235 349.658597 
L 320.686735 322.053999 
L 321.997236 345.724608 
L 323.307736 345.257864 
L 324.618236 345.524575 
L 325.928736 346.85813 
L 327.239236 345.65793 
L 328.549736 347.791619 
L 329.860236 347.258197 
L 331.170736 346.324708 
L 332.481236 344.657764 
L 333.791736 344.391053 
L 335.102236 346.991486 
L 336.412736 343.590919 
L 339.033736 343.390886 
L 340.344236 346.524741 
L 341.654736 347.391552 
L 342.965236 347.658263 
L 344.275736 348.791786 
L 345.586236 347.724941 
L 346.896736 345.791286 
L 348.207237 344.391053 
L 349.517737 345.65793 
L 350.828237 348.725108 
L 352.138737 347.591586 
L 353.449237 348.458397 
L 354.759737 346.658097 
L 356.070237 344.657764 
L 357.380737 345.924641 
L 358.691237 346.591419 
L 360.001737 344.257697 
L 361.312237 348.458397 
L 362.622737 347.324875 
L 363.933237 348.991819 
L 365.243737 347.058163 
L 366.554237 346.25803 
L 367.864737 348.591752 
L 369.175237 347.45823 
L 370.485737 347.124841 
L 371.796237 347.658263 
L 373.106737 348.65843 
L 374.417237 348.325041 
L 375.727738 348.591752 
L 377.038238 346.658097 
L 378.348738 349.058497 
L 379.659238 348.391719 
L 380.969738 348.858463 
L 382.280238 346.391386 
L 383.590738 348.258363 
L 384.901238 349.458563 
L 386.211738 344.391053 
L 387.522238 348.791786 
L 388.832738 347.124841 
L 390.143238 346.191352 
L 391.453738 349.191852 
L 392.764238 348.991819 
L 394.074738 348.925141 
L 395.385238 348.05833 
L 396.695738 347.724941 
L 398.006238 347.524908 
L 399.316738 348.125008 
L 400.627238 345.724608 
L 401.937739 347.524908 
L 403.248239 348.391719 
L 404.558739 348.458397 
L 405.869239 348.05833 
L 407.179739 349.325208 
L 408.490239 349.658597 
L 409.800739 348.925141 
L 411.111239 348.791786 
L 412.421739 347.791619 
L 413.732239 348.725108 
L 415.042739 347.524908 
L 416.353239 347.858297 
L 417.663739 349.391885 
L 418.974239 349.391885 
L 420.284739 348.725108 
L 422.905739 348.125008 
L 424.216239 348.65843 
L 425.526739 348.391719 
L 426.837239 348.858463 
L 428.14774 349.191852 
L 429.45824 347.791619 
L 430.76874 347.924974 
L 432.07924 346.724775 
L 433.38974 348.125008 
L 434.70024 349.125174 
L 436.01074 348.458397 
L 437.32124 348.925141 
L 439.94224 348.458397 
L 441.25274 348.791786 
L 442.56324 349.25853 
L 443.87374 348.991819 
L 445.18424 348.525074 
L 446.49474 349.391885 
L 447.80524 345.457897 
L 449.11574 349.658597 
L 450.42624 345.391219 
L 451.73674 349.591919 
L 453.04724 349.25853 
L 454.35774 346.591419 
L 455.668241 348.725108 
L 456.978741 349.658597 
L 458.289241 347.591586 
L 459.599741 347.991652 
L 460.910241 348.258363 
L 462.220741 349.658597 
L 463.531241 347.591586 
L 464.841741 348.525074 
L 466.152241 348.325041 
L 467.462741 349.658597 
L 468.773241 343.324208 
L 470.083741 349.658597 
L 471.394241 345.191186 
L 472.704741 348.191686 
L 474.015241 347.524908 
L 475.325741 348.125008 
L 476.636241 349.658597 
L 477.946741 345.191186 
L 479.257241 347.45823 
L 480.567741 346.924808 
L 481.878242 348.525074 
L 483.188742 347.391552 
L 484.499242 348.725108 
L 485.809742 347.258197 
L 487.120242 349.658597 
L 488.430742 345.124508 
L 489.741242 349.658597 
L 491.051742 344.391053 
L 492.362242 347.858297 
L 493.672742 346.191352 
L 494.983242 343.657597 
L 496.293742 341.590586 
L 497.604242 346.25803 
L 498.914742 349.658597 
L 500.225242 343.124175 
L 501.535742 347.524908 
L 502.846242 345.991319 
L 504.156742 342.65743 
L 505.467242 349.658597 
L 506.777742 340.457064 
L 508.088242 343.390886 
L 509.398743 344.991152 
L 510.709243 343.85763 
L 512.019743 341.123842 
L 513.330243 339.99032 
L 514.640743 339.723609 
L 517.261743 342.057331 
L 518.572243 345.124508 
L 519.882743 339.323542 
L 521.193243 343.457564 
L 522.503743 339.39022 
L 523.814243 338.19002 
L 525.124743 338.123342 
L 526.435243 341.723942 
L 527.745743 346.191352 
L 529.056243 344.057664 
L 530.366743 327.454898 
L 531.677243 339.056831 
L 532.987743 349.658597 
L 534.298243 329.121843 
L 535.608744 343.124175 
L 536.919244 338.056664 
L 538.229744 340.257031 
L 539.540244 334.389387 
L 540.850744 333.455898 
L 542.161244 336.98982 
L 543.471744 330.255365 
L 544.782244 344.591086 
L 546.092744 344.45773 
L 547.403244 331.988987 
L 548.713744 336.723109 
L 550.024244 330.855465 
L 551.334744 336.923142 
L 553.955744 342.724108 
L 555.266244 346.25803 
L 556.576744 343.324208 
L 557.887244 333.722609 
L 559.197744 332.922476 
L 560.508244 334.256031 
L 561.818744 336.98982 
L 563.129245 331.188854 
L 564.439745 345.65793 
L 565.750245 335.589587 
L 567.060745 329.921976 
L 568.371245 317.919977 
L 569.681745 344.524408 
L 570.992245 340.523742 
L 572.302745 335.322876 
L 573.613245 339.523575 
L 574.923745 344.324375 
L 576.234245 338.856797 
L 577.544745 343.25753 
L 578.855245 336.38972 
L 580.165745 341.923975 
L 581.476245 339.256864 
L 582.786745 343.990986 
L 584.097245 343.390886 
L 585.407745 340.990486 
L 586.718245 340.056997 
L 588.028745 340.790453 
L 590.649746 338.523409 
L 591.960246 344.924475 
L 593.270746 336.256364 
L 594.581246 340.390386 
L 595.891746 346.991486 
L 597.202246 339.723609 
L 598.512746 342.057331 
L 599.823246 342.057331 
L 601.133746 344.857797 
L 602.444246 342.990819 
L 605.065246 340.59042 
L 606.375746 341.257197 
L 607.686246 343.790953 
L 608.996746 345.991319 
L 610.307246 343.590919 
L 611.617746 347.191519 
L 612.928246 337.723275 
L 614.238746 336.856464 
L 615.549247 338.323375 
L 616.859747 341.923975 
L 618.170247 349.658597 
L 619.480747 345.391219 
L 620.791247 349.658597 
L 623.412247 349.658597 
L 624.722747 313.185855 
L 626.033247 342.924142 
L 627.343747 341.590586 
L 628.654247 346.391386 
L 629.964747 343.790953 
L 631.275247 336.523075 
L 632.585747 343.457564 
L 633.896247 349.658597 
L 635.206747 341.057164 
L 636.517247 344.857797 
L 637.827747 343.924308 
L 639.138247 345.857964 
L 640.448747 346.057997 
L 641.759247 348.258363 
L 643.069748 343.85763 
L 644.380248 343.524242 
L 645.690748 344.591086 
L 647.001248 345.457897 
L 648.311748 348.125008 
L 649.622248 339.523575 
L 650.932748 347.124841 
L 652.243248 345.257864 
L 653.553748 342.190686 
L 654.864248 343.990986 
L 656.174748 348.391719 
L 657.485248 349.125174 
L 658.795748 344.324375 
L 660.106248 345.05783 
L 661.416748 345.324541 
L 662.727248 343.457564 
L 664.037748 346.791452 
L 665.348248 344.191019 
L 666.658748 345.391219 
L 667.969248 345.257864 
L 669.279749 345.857964 
L 670.590249 348.458397 
L 671.900749 344.657764 
L 673.211249 347.45823 
L 674.521749 347.724941 
L 675.832249 348.125008 
L 677.142749 347.45823 
L 678.453249 345.391219 
L 679.763749 347.191519 
L 681.074249 347.591586 
L 682.384749 349.658597 
L 683.695249 349.658597 
L 685.005749 341.457231 
L 686.316249 346.391386 
L 687.626749 345.991319 
L 688.937249 343.657597 
L 690.247749 347.324875 
L 691.558249 345.524575 
L 692.868749 349.658597 
L 694.179249 341.123842 
L 695.489749 339.723609 
L 696.80025 341.857297 
L 698.11075 345.991319 
L 699.42125 343.457564 
L 700.73175 344.45773 
L 702.04225 347.324875 
L 703.35275 343.657597 
L 705.97375 346.724775 
L 707.28425 346.924808 
L 709.90525 345.591252 
L 711.21575 347.058163 
L 712.52625 345.191186 
L 713.83675 345.724608 
L 715.14725 344.924475 
L 716.45775 347.058163 
L 717.76825 346.658097 
L 719.07875 347.124841 
L 720.38925 347.858297 
L 721.69975 346.85813 
L 723.010251 347.191519 
L 724.320751 346.391386 
L 725.631251 347.45823 
L 726.941751 347.324875 
L 728.252251 348.591752 
L 729.562751 346.524741 
L 730.873251 348.925141 
L 732.183751 343.790953 
L 733.494251 346.391386 
L 734.804751 345.124508 
L 736.115251 347.124841 
L 737.425751 349.658597 
L 738.736251 349.658597 
L 740.046751 329.055165 
L 741.357251 344.591086 
L 742.667751 347.591586 
L 743.978251 342.524075 
L 745.288751 347.658263 
L 746.599251 340.257031 
L 747.909751 343.390886 
L 749.220251 349.658597 
L 750.530752 330.788787 
L 751.841252 333.455898 
L 753.151752 325.121176 
L 754.462252 332.922476 
L 755.772752 322.587421 
L 757.083252 340.59042 
L 758.393752 333.722609 
L 759.704252 324.387721 
L 761.014752 328.988487 
L 762.325252 321.053832 
L 763.635752 332.722442 
L 764.946252 331.055498 
L 766.256752 320.320377 
L 767.567252 332.989154 
L 770.188252 325.92131 
L 771.498752 324.387721 
L 772.809252 312.185689 
L 774.119752 330.322043 
L 775.430252 341.857297 
L 776.740753 322.720777 
L 778.051253 334.789453 
L 779.361753 324.12101 
L 780.672253 319.053499 
L 781.982753 325.454565 
L 783.293253 316.586422 
L 784.603753 337.323209 
L 785.914253 323.187521 
L 787.224753 349.658597 
L 788.535253 315.186188 
L 789.845753 321.787288 
L 791.156253 337.123175 
L 792.466753 334.856131 
L 793.777253 320.587088 
L 795.087753 332.122342 
L 796.398253 340.390386 
L 797.708753 328.721776 
L 799.019253 325.587921 
L 800.329753 331.255531 
L 801.640253 338.390053 
L 802.950753 336.789787 
L 804.261254 337.656598 
L 805.571754 323.187521 
L 808.192754 335.322876 
L 809.503254 349.658597 
L 810.813754 310.785455 
L 812.124254 326.52141 
L 813.434754 325.054499 
L 814.745254 340.257031 
L 816.055754 329.121843 
L 817.366254 334.322709 
L 818.676754 324.187688 
L 819.987254 326.854799 
L 821.297754 324.654432 
L 822.608254 331.988987 
L 823.918754 336.189687 
L 825.229254 330.922143 
L 826.539754 328.921809 
L 827.850254 325.987987 
L 829.160754 349.658597 
L 830.471255 331.255531 
L 831.781755 327.254865 
L 833.092255 332.055665 
L 834.402755 332.655765 
L 835.713255 335.922976 
L 837.023755 331.722276 
L 838.334255 325.254532 
L 839.644755 343.25753 
L 840.955255 329.188521 
L 842.265755 340.323708 
L 843.576255 349.658597 
L 844.886755 313.719277 
L 846.197255 338.656764 
L 847.507755 341.790619 
L 848.818255 343.524242 
L 850.128755 339.323542 
L 851.439255 341.723942 
L 852.749755 340.523742 
L 854.060255 340.190353 
L 855.370755 349.658597 
L 856.681256 342.324042 
L 857.991756 349.658597 
L 859.302256 349.658597 
L 860.612756 341.123842 
L 861.923256 343.724275 
L 863.233756 330.855465 
L 864.544256 349.658597 
L 865.854756 349.658597 
L 867.165256 325.987987 
L 868.475756 349.658597 
L 869.786256 330.788787 
L 871.096756 349.658597 
L 872.407256 338.923475 
L 873.717756 349.658597 
L 876.338756 349.658597 
L 877.649256 311.652266 
L 878.959756 349.658597 
L 880.270256 335.78962 
L 881.580756 348.925141 
L 882.891256 349.658597 
L 884.201757 349.658597 
L 885.512257 341.723942 
L 886.822757 349.658597 
L 888.133257 342.524075 
L 889.443757 347.324875 
L 890.754257 347.658263 
L 892.064757 349.658597 
L 893.375257 349.658597 
L 894.685757 344.591086 
L 895.996257 349.658597 
L 898.617257 349.658597 
L 899.927757 339.39022 
L 901.238257 349.658597 
L 902.548757 349.658597 
L 903.859257 333.322542 
L 905.169757 349.658597 
L 906.480257 349.658597 
L 907.790757 344.657764 
L 909.101257 345.65793 
L 910.411758 349.658597 
L 911.722258 349.658597 
L 913.032758 347.191519 
L 914.343258 349.658597 
L 915.653758 346.391386 
L 916.964258 349.658597 
L 918.274758 346.791452 
L 919.585258 349.658597 
L 920.895758 349.25853 
L 922.206258 341.990653 
L 923.516758 349.658597 
L 924.827258 348.191686 
L 926.137758 349.658597 
L 930.069258 349.658597 
L 931.379758 345.05783 
L 932.690258 349.658597 
L 934.000758 345.391219 
L 935.311258 349.658597 
L 936.621758 347.658263 
L 937.932259 349.658597 
L 939.242759 349.658597 
L 940.553259 348.258363 
L 941.863759 349.658597 
L 943.174259 348.525074 
L 944.484759 349.658597 
L 948.416259 349.658597 
L 949.726759 343.324208 
L 951.037259 349.658597 
L 952.347759 348.525074 
L 953.658259 349.325208 
L 954.968759 348.458397 
L 956.279259 349.658597 
L 957.589759 349.658597 
L 958.900259 347.45823 
L 960.210759 349.658597 
L 961.521259 348.05833 
L 962.831759 349.658597 
L 964.14226 345.191186 
L 965.45276 349.658597 
L 966.76326 349.658597 
L 968.07376 344.724441 
L 969.38426 349.658597 
L 972.00526 349.658597 
L 973.31576 344.524408 
L 974.62626 349.658597 
L 975.93676 349.658597 
L 977.24726 343.190853 
L 978.55776 346.191352 
L 979.86826 347.591586 
L 981.17876 349.658597 
L 982.48926 345.991319 
L 983.79976 349.658597 
L 985.11026 349.658597 
L 986.42076 341.723942 
L 987.73126 349.658597 
L 989.04176 344.857797 
L 990.35226 348.791786 
L 991.662761 349.658597 
L 994.283761 349.658597 
L 995.594261 313.719277 
L 996.904761 328.521743 
L 998.215261 349.658597 
L 999.525761 347.45823 
L 1000.836261 306.784789 
L 1002.146761 349.658597 
L 1006.078261 349.658597 
L 1007.388761 210.902153 
L 1008.699261 252.57576 
L 1010.009761 278.980158 
L 1011.320261 349.658597 
L 1012.630761 349.658597 
L 1013.941261 159.626946 
L 1015.251761 349.658597 
L 1016.562261 349.658597 
L 1017.872762 165.561268 
L 1019.183262 349.658597 
L 1021.804262 349.658597 
L 1023.114762 196.966499 
L 1024.425262 349.658597 
L 1025.735762 186.698122 
L 1027.046262 349.658597 
L 1032.288262 349.658597 
L 1033.598762 50.8755 
L 1034.909262 305.117845 
L 1036.219762 334.122676 
L 1037.530262 349.658597 
L 1040.151262 349.658597 
L 1041.461762 294.78279 
L 1042.772262 301.583923 
L 1044.082763 349.658597 
L 1045.393263 349.658597 
L 1046.703763 310.518744 
L 1048.014263 349.658597 
L 1049.324763 349.658597 
L 1050.635263 304.451067 
L 1051.945763 349.658597 
L 1053.256263 349.658597 
L 1054.566763 268.711781 
L 1055.877263 343.990986 
L 1057.187763 349.658597 
L 1058.498263 349.658597 
L 1059.808763 333.922642 
L 1061.119263 333.589253 
L 1062.429763 341.857297 
L 1063.740263 346.391386 
L 1065.050763 344.857797 
L 1066.361263 349.658597 
L 1067.671763 349.658597 
L 1068.982263 324.254365 
L 1070.292763 349.658597 
L 1071.603264 340.923808 
L 1072.913764 349.658597 
L 1076.845264 349.658597 
L 1078.155764 337.923309 
L 1079.466264 349.658597 
L 1080.776764 348.191686 
L 1082.087264 347.324875 
L 1083.397764 347.45823 
L 1084.708264 349.658597 
L 1086.018764 349.658597 
L 1087.329264 348.525074 
L 1088.639764 349.658597 
L 1089.950264 347.724941 
L 1091.260764 348.858463 
L 1092.571264 349.658597 
L 1095.192264 349.658597 
L 1096.502764 346.85813 
L 1097.813265 349.658597 
L 1099.123765 349.658597 
L 1100.434265 345.524575 
L 1101.744765 345.591252 
L 1103.055265 349.658597 
L 1104.365765 349.658597 
L 1105.676265 348.391719 
L 1106.986765 348.258363 
L 1108.297265 349.658597 
L 1109.607765 343.057497 
L 1110.918265 348.591752 
L 1112.228765 349.658597 
L 1116.160265 349.658597 
L 1117.470765 341.857297 
L 1118.781265 348.391719 
L 1120.091765 347.991652 
L 1121.402265 349.658597 
L 1122.712765 349.658597 
L 1124.023265 347.724941 
L 1125.333766 347.591586 
L 1126.644266 346.25803 
L 1127.954766 347.324875 
L 1129.265266 349.658597 
L 1133.196766 349.658597 
L 1134.507266 346.458063 
L 1135.817766 344.591086 
L 1137.128266 348.791786 
L 1138.438766 348.791786 
L 1139.749266 349.658597 
L 1141.059766 349.658597 
L 1142.370266 348.525074 
L 1143.680766 343.85763 
L 1144.991266 347.45823 
L 1146.301766 349.658597 
L 1163.338267 349.658597 
L 1164.648767 331.322209 
L 1165.959267 349.658597 
L 1205.274269 349.658597 
L 1206.584769 308.985156 
L 1207.895269 349.658597 
L 1217.068769 349.658597 
L 1218.379269 322.787454 
L 1219.689769 349.658597 
L 1223.621269 349.658597 
L 1224.931769 327.12151 
L 1226.242269 349.658597 
L 1227.552769 349.658597 
L 1228.863269 295.316212 
L 1230.173769 349.658597 
L 1238.03677 349.658597 
L 1239.34727 300.117012 
L 1240.65777 349.658597 
L 1251.14177 349.658597 
L 1252.45227 307.718278 
L 1253.76277 349.658597 
L 1255.07327 349.658597 
L 1256.38377 314.919477 
L 1257.69427 349.658597 
L 1265.557271 349.658597 
L 1266.867771 328.921809 
L 1268.178271 349.658597 
L 1278.662271 349.658597 
L 1279.972771 326.721443 
L 1281.283271 349.658597 
L 1289.146272 349.658597 
L 1290.456772 336.923142 
L 1291.767272 349.658597 
L 1298.319772 349.658597 
L 1299.630272 333.322542 
L 1300.940772 349.658597 
L 1300.940772 349.658597 
" clip-path="url(#pd00af37665)" style="fill: none; stroke: #0000ff; stroke-width: 1.5; stroke-linecap: square"/>
   </g>
   <g id="line2d_18">
    <path d="M 1061.119263 330.61271 
L 1062.429763 325.440392 
L 1063.740263 333.647009 
L 1065.050763 334.926694 
L 1066.361263 335.712269 
L 1067.671763 335.997896 
L 1068.982263 340.541009 
L 1070.292763 340.945516 
L 1071.603264 342.34182 
L 1072.913764 342.116504 
L 1074.224264 340.267257 
L 1075.534764 342.011585 
L 1076.845264 340.210394 
L 1078.155764 344.817261 
L 1079.466264 344.47791 
L 1082.087264 346.108788 
L 1083.397764 345.635318 
L 1084.708264 346.061077 
L 1086.018764 345.510804 
L 1087.329264 346.695189 
L 1088.639764 346.91679 
L 1089.950264 347.418961 
L 1092.571264 348.063997 
L 1093.881764 348.280281 
L 1095.192264 348.296141 
L 1096.502764 348.756233 
L 1097.813265 348.643995 
L 1099.123765 348.67288 
L 1100.434265 349.225031 
L 1101.744765 349.142584 
L 1104.365765 348.192382 
L 1106.986765 348.056494 
L 1108.297265 347.808797 
L 1109.607765 348.492858 
L 1110.918265 348.639038 
L 1112.228765 348.102942 
L 1113.539265 348.083161 
L 1114.849765 347.548308 
L 1118.781265 348.764892 
L 1120.091765 348.450113 
L 1121.402265 348.362451 
L 1122.712765 347.520298 
L 1124.023265 347.980653 
L 1125.333766 347.446476 
L 1126.644266 348.376727 
L 1127.954766 348.370144 
L 1131.886266 347.675477 
L 1133.196766 347.715871 
L 1135.817766 348.838522 
L 1137.128266 348.765131 
L 1139.749266 348.141885 
L 1141.059766 347.772833 
L 1142.370266 347.831184 
L 1144.991266 348.650247 
L 1146.301766 348.22242 
L 1147.612266 348.129148 
L 1148.922766 347.716232 
L 1150.233266 347.77242 
L 1151.543767 347.693499 
L 1152.854267 348.293581 
L 1154.164767 348.711366 
L 1156.785767 349.118474 
L 1159.406767 349.387398 
L 1162.027767 349.492274 
L 1163.338267 349.508596 
L 1164.648767 351.165097 
L 1165.959267 350.016247 
L 1167.269767 348.385322 
L 1168.580267 348.153469 
L 1169.890767 346.217076 
L 1171.201267 346.870597 
L 1172.511767 345.655677 
L 1173.822267 347.672505 
L 1176.443267 348.568538 
L 1177.753767 348.819857 
L 1179.064268 349.18991 
L 1180.374768 349.278433 
L 1181.685268 349.516154 
L 1182.995768 349.423355 
L 1192.169268 349.583345 
L 1205.274269 349.650248 
L 1206.584769 353.2755 
L 1207.895269 350.682375 
L 1209.205769 347.035019 
L 1210.516269 346.489075 
L 1211.826769 342.170545 
L 1213.137269 343.587996 
L 1214.447769 340.868368 
L 1215.758269 345.324052 
L 1217.068769 346.326081 
L 1218.379269 349.679518 
L 1219.689769 348.513883 
L 1221.000269 346.916885 
L 1222.310769 346.747024 
L 1223.621269 344.416712 
L 1224.931769 347.151393 
L 1226.242269 343.995327 
L 1227.552769 344.966943 
L 1228.863269 350.2295 
L 1230.173769 345.018769 
L 1231.484269 341.348585 
L 1232.79477 339.658941 
L 1234.10527 336.552517 
L 1235.41577 339.378751 
L 1236.72627 336.165295 
L 1239.34727 348.749432 
L 1240.65777 347.029592 
L 1241.96827 343.631206 
L 1243.27877 343.977661 
L 1244.58927 339.029275 
L 1245.89977 341.532081 
L 1247.21027 337.999094 
L 1248.52077 343.56042 
L 1251.14177 346.167073 
L 1252.45227 350.640292 
L 1253.76277 349.059515 
L 1255.07327 345.565254 
L 1256.38377 348.842442 
L 1257.69427 341.97616 
L 1259.004771 340.463718 
L 1260.315271 337.289195 
L 1261.625771 338.301255 
L 1262.936271 340.583809 
L 1264.246771 339.34046 
L 1265.557271 343.734415 
L 1266.867771 347.371193 
L 1268.178271 347.11336 
L 1269.488771 346.301987 
L 1270.799271 346.532226 
L 1272.109771 344.603775 
L 1273.420271 345.842276 
L 1274.730771 344.360086 
L 1276.041271 346.722867 
L 1278.662271 347.905376 
L 1279.972771 350.319401 
L 1281.283271 349.357784 
L 1282.593771 347.440434 
L 1283.904271 347.482014 
L 1285.214772 344.99097 
L 1286.525272 345.868271 
L 1287.835772 344.392329 
L 1289.146272 346.959889 
L 1290.456772 348.684987 
L 1291.767272 348.459505 
L 1293.077772 347.641152 
L 1294.388272 347.972696 
L 1295.698772 346.752364 
L 1297.009272 347.511127 
L 1298.319772 346.556864 
L 1299.630272 349.466049 
L 1300.940772 348.774958 
L 1300.940772 348.774958 
" clip-path="url(#pd00af37665)" style="fill: none; stroke: #ffa500; stroke-width: 1.5; stroke-linecap: square"/>
   </g>
   <g id="line2d_19">
    <path d="M 1300.940772 348.774958 
L 1302.251272 347.733354 
L 1303.561772 347.81387 
L 1304.872272 346.333025 
L 1306.182772 346.966311 
L 1307.493272 345.822523 
L 1308.803772 347.240501 
L 1310.114272 347.181911 
L 1311.424772 346.96106 
L 1312.735273 346.966597 
L 1314.045773 346.853291 
L 1315.356273 346.923006 
L 1316.666773 346.95572 
L 1317.977273 346.946413 
" clip-path="url(#pd00af37665)" style="fill: none; stroke: #ff0000; stroke-width: 1.5; stroke-linecap: square"/>
   </g>
   <g id="patch_3">
    <path d="M 39.65 368.3955 
L 39.65 35.7555 
" style="fill: none; stroke: #000000; stroke-width: 0.8; stroke-linejoin: miter; stroke-linecap: square"/>
   </g>
   <g id="patch_4">
    <path d="M 1378.85 368.3955 
L 1378.85 35.7555 
" style="fill: none; stroke: #000000; stroke-width: 0.8; stroke-linejoin: miter; stroke-linecap: square"/>
   </g>
   <g id="patch_5">
    <path d="M 39.65 368.3955 
L 1378.85 368.3955 
" style="fill: none; stroke: #000000; stroke-width: 0.8; stroke-linejoin: miter; stroke-linecap: square"/>
   </g>
   <g id="patch_6">
    <path d="M 39.65 35.7555 
L 1378.85 35.7555 
" style="fill: none; stroke: #000000; stroke-width: 0.8; stroke-linejoin: miter; stroke-linecap: square"/>
   </g>
   <g id="text_17">
    <!-- Daily Confirmed Cases Forecasting - Congo (Kinshasa) -->
    <g transform="translate(546.205625 16.318125)scale(0.12 -0.12)">
     <defs>
      <path id="DejaVuSans-44" d="M 1259 4147 
L 1259 519 
L 2022 519 
Q 2988 519 3436 956 
Q 3884 1394 3884 2338 
Q 3884 3275 3436 3711 
Q 2988 4147 2022 4147 
L 1259 4147 
z
M 628 4666 
L 1925 4666 
Q 3281 4666 3915 4102 
Q 4550 3538 4550 2338 
Q 4550 1131 3912 565 
Q 3275 0 1925 0 
L 628 0 
L 628 4666 
z
" transform="scale(0.015625)"/>
      <path id="DejaVuSans-61" d="M 2194 1759 
Q 1497 1759 1228 1600 
Q 959 1441 959 1056 
Q 959 750 1161 570 
Q 1363 391 1709 391 
Q 2188 391 2477 730 
Q 2766 1069 2766 1631 
L 2766 1759 
L 2194 1759 
z
M 3341 1997 
L 3341 0 
L 2766 0 
L 2766 531 
Q 2569 213 2275 61 
Q 1981 -91 1556 -91 
Q 1019 -91 701 211 
Q 384 513 384 1019 
Q 384 1609 779 1909 
Q 1175 2209 1959 2209 
L 2766 2209 
L 2766 2266 
Q 2766 2663 2505 2880 
Q 2244 3097 1772 3097 
Q 1472 3097 1187 3025 
Q 903 2953 641 2809 
L 641 3341 
Q 956 3463 1253 3523 
Q 1550 3584 1831 3584 
Q 2591 3584 2966 3190 
Q 3341 2797 3341 1997 
z
" transform="scale(0.015625)"/>
      <path id="DejaVuSans-69" d="M 603 3500 
L 1178 3500 
L 1178 0 
L 603 0 
L 603 3500 
z
M 603 4863 
L 1178 4863 
L 1178 4134 
L 603 4134 
L 603 4863 
z
" transform="scale(0.015625)"/>
      <path id="DejaVuSans-6c" d="M 603 4863 
L 1178 4863 
L 1178 0 
L 603 0 
L 603 4863 
z
" transform="scale(0.015625)"/>
      <path id="DejaVuSans-79" d="M 2059 -325 
Q 1816 -950 1584 -1140 
Q 1353 -1331 966 -1331 
L 506 -1331 
L 506 -850 
L 844 -850 
Q 1081 -850 1212 -737 
Q 1344 -625 1503 -206 
L 1606 56 
L 191 3500 
L 800 3500 
L 1894 763 
L 2988 3500 
L 3597 3500 
L 2059 -325 
z
" transform="scale(0.015625)"/>
      <path id="DejaVuSans-20" transform="scale(0.015625)"/>
      <path id="DejaVuSans-43" d="M 4122 4306 
L 4122 3641 
Q 3803 3938 3442 4084 
Q 3081 4231 2675 4231 
Q 1875 4231 1450 3742 
Q 1025 3253 1025 2328 
Q 1025 1406 1450 917 
Q 1875 428 2675 428 
Q 3081 428 3442 575 
Q 3803 722 4122 1019 
L 4122 359 
Q 3791 134 3420 21 
Q 3050 -91 2638 -91 
Q 1578 -91 968 557 
Q 359 1206 359 2328 
Q 359 3453 968 4101 
Q 1578 4750 2638 4750 
Q 3056 4750 3426 4639 
Q 3797 4528 4122 4306 
z
" transform="scale(0.015625)"/>
      <path id="DejaVuSans-6f" d="M 1959 3097 
Q 1497 3097 1228 2736 
Q 959 2375 959 1747 
Q 959 1119 1226 758 
Q 1494 397 1959 397 
Q 2419 397 2687 759 
Q 2956 1122 2956 1747 
Q 2956 2369 2687 2733 
Q 2419 3097 1959 3097 
z
M 1959 3584 
Q 2709 3584 3137 3096 
Q 3566 2609 3566 1747 
Q 3566 888 3137 398 
Q 2709 -91 1959 -91 
Q 1206 -91 779 398 
Q 353 888 353 1747 
Q 353 2609 779 3096 
Q 1206 3584 1959 3584 
z
" transform="scale(0.015625)"/>
      <path id="DejaVuSans-6e" d="M 3513 2113 
L 3513 0 
L 2938 0 
L 2938 2094 
Q 2938 2591 2744 2837 
Q 2550 3084 2163 3084 
Q 1697 3084 1428 2787 
Q 1159 2491 1159 1978 
L 1159 0 
L 581 0 
L 581 3500 
L 1159 3500 
L 1159 2956 
Q 1366 3272 1645 3428 
Q 1925 3584 2291 3584 
Q 2894 3584 3203 3211 
Q 3513 2838 3513 2113 
z
" transform="scale(0.015625)"/>
      <path id="DejaVuSans-66" d="M 2375 4863 
L 2375 4384 
L 1825 4384 
Q 1516 4384 1395 4259 
Q 1275 4134 1275 3809 
L 1275 3500 
L 2222 3500 
L 2222 3053 
L 1275 3053 
L 1275 0 
L 697 0 
L 697 3053 
L 147 3053 
L 147 3500 
L 697 3500 
L 697 3744 
Q 697 4328 969 4595 
Q 1241 4863 1831 4863 
L 2375 4863 
z
" transform="scale(0.015625)"/>
      <path id="DejaVuSans-72" d="M 2631 2963 
Q 2534 3019 2420 3045 
Q 2306 3072 2169 3072 
Q 1681 3072 1420 2755 
Q 1159 2438 1159 1844 
L 1159 0 
L 581 0 
L 581 3500 
L 1159 3500 
L 1159 2956 
Q 1341 3275 1631 3429 
Q 1922 3584 2338 3584 
Q 2397 3584 2469 3576 
Q 2541 3569 2628 3553 
L 2631 2963 
z
" transform="scale(0.015625)"/>
      <path id="DejaVuSans-6d" d="M 3328 2828 
Q 3544 3216 3844 3400 
Q 4144 3584 4550 3584 
Q 5097 3584 5394 3201 
Q 5691 2819 5691 2113 
L 5691 0 
L 5113 0 
L 5113 2094 
Q 5113 2597 4934 2840 
Q 4756 3084 4391 3084 
Q 3944 3084 3684 2787 
Q 3425 2491 3425 1978 
L 3425 0 
L 2847 0 
L 2847 2094 
Q 2847 2600 2669 2842 
Q 2491 3084 2119 3084 
Q 1678 3084 1418 2786 
Q 1159 2488 1159 1978 
L 1159 0 
L 581 0 
L 581 3500 
L 1159 3500 
L 1159 2956 
Q 1356 3278 1631 3431 
Q 1906 3584 2284 3584 
Q 2666 3584 2933 3390 
Q 3200 3197 3328 2828 
z
" transform="scale(0.015625)"/>
      <path id="DejaVuSans-65" d="M 3597 1894 
L 3597 1613 
L 953 1613 
Q 991 1019 1311 708 
Q 1631 397 2203 397 
Q 2534 397 2845 478 
Q 3156 559 3463 722 
L 3463 178 
Q 3153 47 2828 -22 
Q 2503 -91 2169 -91 
Q 1331 -91 842 396 
Q 353 884 353 1716 
Q 353 2575 817 3079 
Q 1281 3584 2069 3584 
Q 2775 3584 3186 3129 
Q 3597 2675 3597 1894 
z
M 3022 2063 
Q 3016 2534 2758 2815 
Q 2500 3097 2075 3097 
Q 1594 3097 1305 2825 
Q 1016 2553 972 2059 
L 3022 2063 
z
" transform="scale(0.015625)"/>
      <path id="DejaVuSans-64" d="M 2906 2969 
L 2906 4863 
L 3481 4863 
L 3481 0 
L 2906 0 
L 2906 525 
Q 2725 213 2448 61 
Q 2172 -91 1784 -91 
Q 1150 -91 751 415 
Q 353 922 353 1747 
Q 353 2572 751 3078 
Q 1150 3584 1784 3584 
Q 2172 3584 2448 3432 
Q 2725 3281 2906 2969 
z
M 947 1747 
Q 947 1113 1208 752 
Q 1469 391 1925 391 
Q 2381 391 2643 752 
Q 2906 1113 2906 1747 
Q 2906 2381 2643 2742 
Q 2381 3103 1925 3103 
Q 1469 3103 1208 2742 
Q 947 2381 947 1747 
z
" transform="scale(0.015625)"/>
      <path id="DejaVuSans-73" d="M 2834 3397 
L 2834 2853 
Q 2591 2978 2328 3040 
Q 2066 3103 1784 3103 
Q 1356 3103 1142 2972 
Q 928 2841 928 2578 
Q 928 2378 1081 2264 
Q 1234 2150 1697 2047 
L 1894 2003 
Q 2506 1872 2764 1633 
Q 3022 1394 3022 966 
Q 3022 478 2636 193 
Q 2250 -91 1575 -91 
Q 1294 -91 989 -36 
Q 684 19 347 128 
L 347 722 
Q 666 556 975 473 
Q 1284 391 1588 391 
Q 1994 391 2212 530 
Q 2431 669 2431 922 
Q 2431 1156 2273 1281 
Q 2116 1406 1581 1522 
L 1381 1569 
Q 847 1681 609 1914 
Q 372 2147 372 2553 
Q 372 3047 722 3315 
Q 1072 3584 1716 3584 
Q 2034 3584 2315 3537 
Q 2597 3491 2834 3397 
z
" transform="scale(0.015625)"/>
      <path id="DejaVuSans-46" d="M 628 4666 
L 3309 4666 
L 3309 4134 
L 1259 4134 
L 1259 2759 
L 3109 2759 
L 3109 2228 
L 1259 2228 
L 1259 0 
L 628 0 
L 628 4666 
z
" transform="scale(0.015625)"/>
      <path id="DejaVuSans-63" d="M 3122 3366 
L 3122 2828 
Q 2878 2963 2633 3030 
Q 2388 3097 2138 3097 
Q 1578 3097 1268 2742 
Q 959 2388 959 1747 
Q 959 1106 1268 751 
Q 1578 397 2138 397 
Q 2388 397 2633 464 
Q 2878 531 3122 666 
L 3122 134 
Q 2881 22 2623 -34 
Q 2366 -91 2075 -91 
Q 1284 -91 818 406 
Q 353 903 353 1747 
Q 353 2603 823 3093 
Q 1294 3584 2113 3584 
Q 2378 3584 2631 3529 
Q 2884 3475 3122 3366 
z
" transform="scale(0.015625)"/>
      <path id="DejaVuSans-74" d="M 1172 4494 
L 1172 3500 
L 2356 3500 
L 2356 3053 
L 1172 3053 
L 1172 1153 
Q 1172 725 1289 603 
Q 1406 481 1766 481 
L 2356 481 
L 2356 0 
L 1766 0 
Q 1100 0 847 248 
Q 594 497 594 1153 
L 594 3053 
L 172 3053 
L 172 3500 
L 594 3500 
L 594 4494 
L 1172 4494 
z
" transform="scale(0.015625)"/>
      <path id="DejaVuSans-67" d="M 2906 1791 
Q 2906 2416 2648 2759 
Q 2391 3103 1925 3103 
Q 1463 3103 1205 2759 
Q 947 2416 947 1791 
Q 947 1169 1205 825 
Q 1463 481 1925 481 
Q 2391 481 2648 825 
Q 2906 1169 2906 1791 
z
M 3481 434 
Q 3481 -459 3084 -895 
Q 2688 -1331 1869 -1331 
Q 1566 -1331 1297 -1286 
Q 1028 -1241 775 -1147 
L 775 -588 
Q 1028 -725 1275 -790 
Q 1522 -856 1778 -856 
Q 2344 -856 2625 -561 
Q 2906 -266 2906 331 
L 2906 616 
Q 2728 306 2450 153 
Q 2172 0 1784 0 
Q 1141 0 747 490 
Q 353 981 353 1791 
Q 353 2603 747 3093 
Q 1141 3584 1784 3584 
Q 2172 3584 2450 3431 
Q 2728 3278 2906 2969 
L 2906 3500 
L 3481 3500 
L 3481 434 
z
" transform="scale(0.015625)"/>
      <path id="DejaVuSans-28" d="M 1984 4856 
Q 1566 4138 1362 3434 
Q 1159 2731 1159 2009 
Q 1159 1288 1364 580 
Q 1569 -128 1984 -844 
L 1484 -844 
Q 1016 -109 783 600 
Q 550 1309 550 2009 
Q 550 2706 781 3412 
Q 1013 4119 1484 4856 
L 1984 4856 
z
" transform="scale(0.015625)"/>
      <path id="DejaVuSans-4b" d="M 628 4666 
L 1259 4666 
L 1259 2694 
L 3353 4666 
L 4166 4666 
L 1850 2491 
L 4331 0 
L 3500 0 
L 1259 2247 
L 1259 0 
L 628 0 
L 628 4666 
z
" transform="scale(0.015625)"/>
      <path id="DejaVuSans-68" d="M 3513 2113 
L 3513 0 
L 2938 0 
L 2938 2094 
Q 2938 2591 2744 2837 
Q 2550 3084 2163 3084 
Q 1697 3084 1428 2787 
Q 1159 2491 1159 1978 
L 1159 0 
L 581 0 
L 581 4863 
L 1159 4863 
L 1159 2956 
Q 1366 3272 1645 3428 
Q 1925 3584 2291 3584 
Q 2894 3584 3203 3211 
Q 3513 2838 3513 2113 
z
" transform="scale(0.015625)"/>
      <path id="DejaVuSans-29" d="M 513 4856 
L 1013 4856 
Q 1481 4119 1714 3412 
Q 1947 2706 1947 2009 
Q 1947 1309 1714 600 
Q 1481 -109 1013 -844 
L 513 -844 
Q 928 -128 1133 580 
Q 1338 1288 1338 2009 
Q 1338 2731 1133 3434 
Q 928 4138 513 4856 
z
" transform="scale(0.015625)"/>
     </defs>
     <use xlink:href="#DejaVuSans-44"/>
     <use xlink:href="#DejaVuSans-61" x="77.001953"/>
     <use xlink:href="#DejaVuSans-69" x="138.28125"/>
     <use xlink:href="#DejaVuSans-6c" x="166.064453"/>
     <use xlink:href="#DejaVuSans-79" x="193.847656"/>
     <use xlink:href="#DejaVuSans-20" x="253.027344"/>
     <use xlink:href="#DejaVuSans-43" x="284.814453"/>
     <use xlink:href="#DejaVuSans-6f" x="354.638672"/>
     <use xlink:href="#DejaVuSans-6e" x="415.820312"/>
     <use xlink:href="#DejaVuSans-66" x="479.199219"/>
     <use xlink:href="#DejaVuSans-69" x="514.404297"/>
     <use xlink:href="#DejaVuSans-72" x="542.1875"/>
     <use xlink:href="#DejaVuSans-6d" x="581.550781"/>
     <use xlink:href="#DejaVuSans-65" x="678.962891"/>
     <use xlink:href="#DejaVuSans-64" x="740.486328"/>
     <use xlink:href="#DejaVuSans-20" x="803.962891"/>
     <use xlink:href="#DejaVuSans-43" x="835.75"/>
     <use xlink:href="#DejaVuSans-61" x="905.574219"/>
     <use xlink:href="#DejaVuSans-73" x="966.853516"/>
     <use xlink:href="#DejaVuSans-65" x="1018.953125"/>
     <use xlink:href="#DejaVuSans-73" x="1080.476562"/>
     <use xlink:href="#DejaVuSans-20" x="1132.576172"/>
     <use xlink:href="#DejaVuSans-46" x="1164.363281"/>
     <use xlink:href="#DejaVuSans-6f" x="1218.257812"/>
     <use xlink:href="#DejaVuSans-72" x="1279.439453"/>
     <use xlink:href="#DejaVuSans-65" x="1318.302734"/>
     <use xlink:href="#DejaVuSans-63" x="1379.826172"/>
     <use xlink:href="#DejaVuSans-61" x="1434.806641"/>
     <use xlink:href="#DejaVuSans-73" x="1496.085938"/>
     <use xlink:href="#DejaVuSans-74" x="1548.185547"/>
     <use xlink:href="#DejaVuSans-69" x="1587.394531"/>
     <use xlink:href="#DejaVuSans-6e" x="1615.177734"/>
     <use xlink:href="#DejaVuSans-67" x="1678.556641"/>
     <use xlink:href="#DejaVuSans-20" x="1742.033203"/>
     <use xlink:href="#DejaVuSans-2d" x="1773.820312"/>
     <use xlink:href="#DejaVuSans-20" x="1809.904297"/>
     <use xlink:href="#DejaVuSans-43" x="1841.691406"/>
     <use xlink:href="#DejaVuSans-6f" x="1911.515625"/>
     <use xlink:href="#DejaVuSans-6e" x="1972.697266"/>
     <use xlink:href="#DejaVuSans-67" x="2036.076172"/>
     <use xlink:href="#DejaVuSans-6f" x="2099.552734"/>
     <use xlink:href="#DejaVuSans-20" x="2160.734375"/>
     <use xlink:href="#DejaVuSans-28" x="2192.521484"/>
     <use xlink:href="#DejaVuSans-4b" x="2231.535156"/>
     <use xlink:href="#DejaVuSans-69" x="2297.111328"/>
     <use xlink:href="#DejaVuSans-6e" x="2324.894531"/>
     <use xlink:href="#DejaVuSans-73" x="2388.273438"/>
     <use xlink:href="#DejaVuSans-68" x="2440.373047"/>
     <use xlink:href="#DejaVuSans-61" x="2503.751953"/>
     <use xlink:href="#DejaVuSans-73" x="2565.03125"/>
     <use xlink:href="#DejaVuSans-61" x="2617.130859"/>
     <use xlink:href="#DejaVuSans-29" x="2678.410156"/>
    </g>
    <!-- ARIMA (4, 1, 1)x(0, 0, 1, 7) (R2 = -0.339410) -->
    <g transform="translate(575.10125 29.7555)scale(0.12 -0.12)">
     <defs>
      <path id="DejaVuSans-41" d="M 2188 4044 
L 1331 1722 
L 3047 1722 
L 2188 4044 
z
M 1831 4666 
L 2547 4666 
L 4325 0 
L 3669 0 
L 3244 1197 
L 1141 1197 
L 716 0 
L 50 0 
L 1831 4666 
z
" transform="scale(0.015625)"/>
      <path id="DejaVuSans-52" d="M 2841 2188 
Q 3044 2119 3236 1894 
Q 3428 1669 3622 1275 
L 4263 0 
L 3584 0 
L 2988 1197 
Q 2756 1666 2539 1819 
Q 2322 1972 1947 1972 
L 1259 1972 
L 1259 0 
L 628 0 
L 628 4666 
L 2053 4666 
Q 2853 4666 3247 4331 
Q 3641 3997 3641 3322 
Q 3641 2881 3436 2590 
Q 3231 2300 2841 2188 
z
M 1259 4147 
L 1259 2491 
L 2053 2491 
Q 2509 2491 2742 2702 
Q 2975 2913 2975 3322 
Q 2975 3731 2742 3939 
Q 2509 4147 2053 4147 
L 1259 4147 
z
" transform="scale(0.015625)"/>
      <path id="DejaVuSans-49" d="M 628 4666 
L 1259 4666 
L 1259 0 
L 628 0 
L 628 4666 
z
" transform="scale(0.015625)"/>
      <path id="DejaVuSans-4d" d="M 628 4666 
L 1569 4666 
L 2759 1491 
L 3956 4666 
L 4897 4666 
L 4897 0 
L 4281 0 
L 4281 4097 
L 3078 897 
L 2444 897 
L 1241 4097 
L 1241 0 
L 628 0 
L 628 4666 
z
" transform="scale(0.015625)"/>
      <path id="DejaVuSans-2c" d="M 750 794 
L 1409 794 
L 1409 256 
L 897 -744 
L 494 -744 
L 750 256 
L 750 794 
z
" transform="scale(0.015625)"/>
      <path id="DejaVuSans-78" d="M 3513 3500 
L 2247 1797 
L 3578 0 
L 2900 0 
L 1881 1375 
L 863 0 
L 184 0 
L 1544 1831 
L 300 3500 
L 978 3500 
L 1906 2253 
L 2834 3500 
L 3513 3500 
z
" transform="scale(0.015625)"/>
      <path id="DejaVuSans-3d" d="M 678 2906 
L 4684 2906 
L 4684 2381 
L 678 2381 
L 678 2906 
z
M 678 1631 
L 4684 1631 
L 4684 1100 
L 678 1100 
L 678 1631 
z
" transform="scale(0.015625)"/>
      <path id="DejaVuSans-2e" d="M 684 794 
L 1344 794 
L 1344 0 
L 684 0 
L 684 794 
z
" transform="scale(0.015625)"/>
      <path id="DejaVuSans-39" d="M 703 97 
L 703 672 
Q 941 559 1184 500 
Q 1428 441 1663 441 
Q 2288 441 2617 861 
Q 2947 1281 2994 2138 
Q 2813 1869 2534 1725 
Q 2256 1581 1919 1581 
Q 1219 1581 811 2004 
Q 403 2428 403 3163 
Q 403 3881 828 4315 
Q 1253 4750 1959 4750 
Q 2769 4750 3195 4129 
Q 3622 3509 3622 2328 
Q 3622 1225 3098 567 
Q 2575 -91 1691 -91 
Q 1453 -91 1209 -44 
Q 966 3 703 97 
z
M 1959 2075 
Q 2384 2075 2632 2365 
Q 2881 2656 2881 3163 
Q 2881 3666 2632 3958 
Q 2384 4250 1959 4250 
Q 1534 4250 1286 3958 
Q 1038 3666 1038 3163 
Q 1038 2656 1286 2365 
Q 1534 2075 1959 2075 
z
" transform="scale(0.015625)"/>
     </defs>
     <use xlink:href="#DejaVuSans-41"/>
     <use xlink:href="#DejaVuSans-52" x="68.408203"/>
     <use xlink:href="#DejaVuSans-49" x="137.890625"/>
     <use xlink:href="#DejaVuSans-4d" x="167.382812"/>
     <use xlink:href="#DejaVuSans-41" x="253.662109"/>
     <use xlink:href="#DejaVuSans-20" x="322.070312"/>
     <use xlink:href="#DejaVuSans-28" x="353.857422"/>
     <use xlink:href="#DejaVuSans-34" x="392.871094"/>
     <use xlink:href="#DejaVuSans-2c" x="456.494141"/>
     <use xlink:href="#DejaVuSans-20" x="488.28125"/>
     <use xlink:href="#DejaVuSans-31" x="520.068359"/>
     <use xlink:href="#DejaVuSans-2c" x="583.691406"/>
     <use xlink:href="#DejaVuSans-20" x="615.478516"/>
     <use xlink:href="#DejaVuSans-31" x="647.265625"/>
     <use xlink:href="#DejaVuSans-29" x="710.888672"/>
     <use xlink:href="#DejaVuSans-78" x="749.902344"/>
     <use xlink:href="#DejaVuSans-28" x="809.082031"/>
     <use xlink:href="#DejaVuSans-30" x="848.095703"/>
     <use xlink:href="#DejaVuSans-2c" x="911.71875"/>
     <use xlink:href="#DejaVuSans-20" x="943.505859"/>
     <use xlink:href="#DejaVuSans-30" x="975.292969"/>
     <use xlink:href="#DejaVuSans-2c" x="1038.916016"/>
     <use xlink:href="#DejaVuSans-20" x="1070.703125"/>
     <use xlink:href="#DejaVuSans-31" x="1102.490234"/>
     <use xlink:href="#DejaVuSans-2c" x="1166.113281"/>
     <use xlink:href="#DejaVuSans-20" x="1197.900391"/>
     <use xlink:href="#DejaVuSans-37" x="1229.6875"/>
     <use xlink:href="#DejaVuSans-29" x="1293.310547"/>
     <use xlink:href="#DejaVuSans-20" x="1332.324219"/>
     <use xlink:href="#DejaVuSans-28" x="1364.111328"/>
     <use xlink:href="#DejaVuSans-52" x="1403.125"/>
     <use xlink:href="#DejaVuSans-32" x="1472.607422"/>
     <use xlink:href="#DejaVuSans-20" x="1536.230469"/>
     <use xlink:href="#DejaVuSans-3d" x="1568.017578"/>
     <use xlink:href="#DejaVuSans-20" x="1651.806641"/>
     <use xlink:href="#DejaVuSans-2d" x="1683.59375"/>
     <use xlink:href="#DejaVuSans-30" x="1719.677734"/>
     <use xlink:href="#DejaVuSans-2e" x="1783.300781"/>
     <use xlink:href="#DejaVuSans-33" x="1815.087891"/>
     <use xlink:href="#DejaVuSans-33" x="1878.710938"/>
     <use xlink:href="#DejaVuSans-39" x="1942.333984"/>
     <use xlink:href="#DejaVuSans-34" x="2005.957031"/>
     <use xlink:href="#DejaVuSans-31" x="2069.580078"/>
     <use xlink:href="#DejaVuSans-30" x="2133.203125"/>
     <use xlink:href="#DejaVuSans-29" x="2196.826172"/>
    </g>
   </g>
   <g id="legend_1">
    <g id="patch_7">
     <path d="M 1274.770313 87.789875 
L 1371.85 87.789875 
Q 1373.85 87.789875 1373.85 85.789875 
L 1373.85 42.7555 
Q 1373.85 40.7555 1371.85 40.7555 
L 1274.770313 40.7555 
Q 1272.770313 40.7555 1272.770313 42.7555 
L 1272.770313 85.789875 
Q 1272.770313 87.789875 1274.770313 87.789875 
z
" style="fill: #ffffff; opacity: 0.8; stroke: #cccccc; stroke-linejoin: miter"/>
    </g>
    <g id="line2d_20">
     <path d="M 1276.770313 48.853937 
L 1286.770313 48.853937 
L 1296.770313 48.853937 
" style="fill: none; stroke: #0000ff; stroke-width: 1.5; stroke-linecap: square"/>
    </g>
    <g id="text_18">
     <!-- Actual Value -->
     <g transform="translate(1304.770313 52.353937)scale(0.1 -0.1)">
      <defs>
       <path id="DejaVuSans-75" d="M 544 1381 
L 544 3500 
L 1119 3500 
L 1119 1403 
Q 1119 906 1312 657 
Q 1506 409 1894 409 
Q 2359 409 2629 706 
Q 2900 1003 2900 1516 
L 2900 3500 
L 3475 3500 
L 3475 0 
L 2900 0 
L 2900 538 
Q 2691 219 2414 64 
Q 2138 -91 1772 -91 
Q 1169 -91 856 284 
Q 544 659 544 1381 
z
M 1991 3584 
L 1991 3584 
z
" transform="scale(0.015625)"/>
       <path id="DejaVuSans-56" d="M 1831 0 
L 50 4666 
L 709 4666 
L 2188 738 
L 3669 4666 
L 4325 4666 
L 2547 0 
L 1831 0 
z
" transform="scale(0.015625)"/>
      </defs>
      <use xlink:href="#DejaVuSans-41"/>
      <use xlink:href="#DejaVuSans-63" x="66.658203"/>
      <use xlink:href="#DejaVuSans-74" x="121.638672"/>
      <use xlink:href="#DejaVuSans-75" x="160.847656"/>
      <use xlink:href="#DejaVuSans-61" x="224.226562"/>
      <use xlink:href="#DejaVuSans-6c" x="285.505859"/>
      <use xlink:href="#DejaVuSans-20" x="313.289062"/>
      <use xlink:href="#DejaVuSans-56" x="345.076172"/>
      <use xlink:href="#DejaVuSans-61" x="405.734375"/>
      <use xlink:href="#DejaVuSans-6c" x="467.013672"/>
      <use xlink:href="#DejaVuSans-75" x="494.796875"/>
      <use xlink:href="#DejaVuSans-65" x="558.175781"/>
     </g>
    </g>
    <g id="line2d_21">
     <path d="M 1276.770313 63.532062 
L 1286.770313 63.532062 
L 1296.770313 63.532062 
" style="fill: none; stroke: #ffa500; stroke-width: 1.5; stroke-linecap: square"/>
    </g>
    <g id="text_19">
     <!-- Check Value -->
     <g transform="translate(1304.770313 67.032062)scale(0.1 -0.1)">
      <defs>
       <path id="DejaVuSans-6b" d="M 581 4863 
L 1159 4863 
L 1159 1991 
L 2875 3500 
L 3609 3500 
L 1753 1863 
L 3688 0 
L 2938 0 
L 1159 1709 
L 1159 0 
L 581 0 
L 581 4863 
z
" transform="scale(0.015625)"/>
      </defs>
      <use xlink:href="#DejaVuSans-43"/>
      <use xlink:href="#DejaVuSans-68" x="69.824219"/>
      <use xlink:href="#DejaVuSans-65" x="133.203125"/>
      <use xlink:href="#DejaVuSans-63" x="194.726562"/>
      <use xlink:href="#DejaVuSans-6b" x="249.707031"/>
      <use xlink:href="#DejaVuSans-20" x="307.617188"/>
      <use xlink:href="#DejaVuSans-56" x="339.404297"/>
      <use xlink:href="#DejaVuSans-61" x="400.0625"/>
      <use xlink:href="#DejaVuSans-6c" x="461.341797"/>
      <use xlink:href="#DejaVuSans-75" x="489.125"/>
      <use xlink:href="#DejaVuSans-65" x="552.503906"/>
     </g>
    </g>
    <g id="line2d_22">
     <path d="M 1276.770313 78.210187 
L 1286.770313 78.210187 
L 1296.770313 78.210187 
" style="fill: none; stroke: #ff0000; stroke-width: 1.5; stroke-linecap: square"/>
    </g>
    <g id="text_20">
     <!-- Predict Value -->
     <g transform="translate(1304.770313 81.710187)scale(0.1 -0.1)">
      <defs>
       <path id="DejaVuSans-50" d="M 1259 4147 
L 1259 2394 
L 2053 2394 
Q 2494 2394 2734 2622 
Q 2975 2850 2975 3272 
Q 2975 3691 2734 3919 
Q 2494 4147 2053 4147 
L 1259 4147 
z
M 628 4666 
L 2053 4666 
Q 2838 4666 3239 4311 
Q 3641 3956 3641 3272 
Q 3641 2581 3239 2228 
Q 2838 1875 2053 1875 
L 1259 1875 
L 1259 0 
L 628 0 
L 628 4666 
z
" transform="scale(0.015625)"/>
      </defs>
      <use xlink:href="#DejaVuSans-50"/>
      <use xlink:href="#DejaVuSans-72" x="58.552734"/>
      <use xlink:href="#DejaVuSans-65" x="97.416016"/>
      <use xlink:href="#DejaVuSans-64" x="158.939453"/>
      <use xlink:href="#DejaVuSans-69" x="222.416016"/>
      <use xlink:href="#DejaVuSans-63" x="250.199219"/>
      <use xlink:href="#DejaVuSans-74" x="305.179688"/>
      <use xlink:href="#DejaVuSans-20" x="344.388672"/>
      <use xlink:href="#DejaVuSans-56" x="376.175781"/>
      <use xlink:href="#DejaVuSans-61" x="436.833984"/>
      <use xlink:href="#DejaVuSans-6c" x="498.113281"/>
      <use xlink:href="#DejaVuSans-75" x="525.896484"/>
      <use xlink:href="#DejaVuSans-65" x="589.275391"/>
     </g>
    </g>
   </g>
  </g>
 </g>
 <defs>
  <clipPath id="pd00af37665">
   <rect x="39.65" y="35.7555" width="1339.2" height="332.64"/>
  </clipPath>
 </defs>
</svg>
