<?xml version="1.0" encoding="utf-8" standalone="no"?>
<!DOCTYPE svg PUBLIC "-//W3C//DTD SVG 1.1//EN"
  "http://www.w3.org/Graphics/SVG/1.1/DTD/svg11.dtd">
<svg xmlns:xlink="http://www.w3.org/1999/xlink" width="1400.792188pt" height="392.273625pt" viewBox="0 0 1400.792188 392.273625" xmlns="http://www.w3.org/2000/svg" version="1.1">
 <metadata>
  <rdf:RDF xmlns:dc="http://purl.org/dc/elements/1.1/" xmlns:cc="http://creativecommons.org/ns#" xmlns:rdf="http://www.w3.org/1999/02/22-rdf-syntax-ns#">
   <cc:Work>
    <dc:type rdf:resource="http://purl.org/dc/dcmitype/StillImage"/>
    <dc:date>2022-07-21T19:11:10.464530</dc:date>
    <dc:format>image/svg+xml</dc:format>
    <dc:creator>
     <cc:Agent>
      <dc:title>Matplotlib v3.5.2, https://matplotlib.org/</dc:title>
     </cc:Agent>
    </dc:creator>
   </cc:Work>
  </rdf:RDF>
 </metadata>
 <defs>
  <style type="text/css">*{stroke-linejoin: round; stroke-linecap: butt}</style>
 </defs>
 <g id="figure_1">
  <g id="patch_1">
   <path d="M 0 392.273625 
L 1400.792188 392.273625 
L 1400.792188 0 
L 0 0 
z
" style="fill: #ffffff"/>
  </g>
  <g id="axes_1">
   <g id="patch_2">
    <path d="M 54.392188 368.3955 
L 1393.592188 368.3955 
L 1393.592188 35.7555 
L 54.392188 35.7555 
z
" style="fill: #ffffff"/>
   </g>
   <g id="matplotlib.axis_1">
    <g id="xtick_1">
     <g id="line2d_1">
      <defs>
       <path id="m3a71638fe6" d="M 0 0 
L 0 3.5 
" style="stroke: #000000; stroke-width: 0.8"/>
      </defs>
      <g>
       <use xlink:href="#m3a71638fe6" x="86.215023" y="368.3955" style="stroke: #000000; stroke-width: 0.8"/>
      </g>
     </g>
     <g id="text_1">
      <!-- 2020-01 -->
      <g transform="translate(65.323617 382.993937)scale(0.1 -0.1)">
       <defs>
        <path id="DejaVuSans-32" d="M 1228 531 
L 3431 531 
L 3431 0 
L 469 0 
L 469 531 
Q 828 903 1448 1529 
Q 2069 2156 2228 2338 
Q 2531 2678 2651 2914 
Q 2772 3150 2772 3378 
Q 2772 3750 2511 3984 
Q 2250 4219 1831 4219 
Q 1534 4219 1204 4116 
Q 875 4013 500 3803 
L 500 4441 
Q 881 4594 1212 4672 
Q 1544 4750 1819 4750 
Q 2544 4750 2975 4387 
Q 3406 4025 3406 3419 
Q 3406 3131 3298 2873 
Q 3191 2616 2906 2266 
Q 2828 2175 2409 1742 
Q 1991 1309 1228 531 
z
" transform="scale(0.015625)"/>
        <path id="DejaVuSans-30" d="M 2034 4250 
Q 1547 4250 1301 3770 
Q 1056 3291 1056 2328 
Q 1056 1369 1301 889 
Q 1547 409 2034 409 
Q 2525 409 2770 889 
Q 3016 1369 3016 2328 
Q 3016 3291 2770 3770 
Q 2525 4250 2034 4250 
z
M 2034 4750 
Q 2819 4750 3233 4129 
Q 3647 3509 3647 2328 
Q 3647 1150 3233 529 
Q 2819 -91 2034 -91 
Q 1250 -91 836 529 
Q 422 1150 422 2328 
Q 422 3509 836 4129 
Q 1250 4750 2034 4750 
z
" transform="scale(0.015625)"/>
        <path id="DejaVuSans-2d" d="M 313 2009 
L 1997 2009 
L 1997 1497 
L 313 1497 
L 313 2009 
z
" transform="scale(0.015625)"/>
        <path id="DejaVuSans-31" d="M 794 531 
L 1825 531 
L 1825 4091 
L 703 3866 
L 703 4441 
L 1819 4666 
L 2450 4666 
L 2450 531 
L 3481 531 
L 3481 0 
L 794 0 
L 794 531 
z
" transform="scale(0.015625)"/>
       </defs>
       <use xlink:href="#DejaVuSans-32"/>
       <use xlink:href="#DejaVuSans-30" x="63.623047"/>
       <use xlink:href="#DejaVuSans-32" x="127.246094"/>
       <use xlink:href="#DejaVuSans-30" x="190.869141"/>
       <use xlink:href="#DejaVuSans-2d" x="254.492188"/>
       <use xlink:href="#DejaVuSans-30" x="290.576172"/>
       <use xlink:href="#DejaVuSans-31" x="354.199219"/>
      </g>
     </g>
    </g>
    <g id="xtick_2">
     <g id="line2d_2">
      <g>
       <use xlink:href="#m3a71638fe6" x="206.375938" y="368.3955" style="stroke: #000000; stroke-width: 0.8"/>
      </g>
     </g>
     <g id="text_2">
      <!-- 2020-04 -->
      <g transform="translate(185.484532 382.993937)scale(0.1 -0.1)">
       <defs>
        <path id="DejaVuSans-34" d="M 2419 4116 
L 825 1625 
L 2419 1625 
L 2419 4116 
z
M 2253 4666 
L 3047 4666 
L 3047 1625 
L 3713 1625 
L 3713 1100 
L 3047 1100 
L 3047 0 
L 2419 0 
L 2419 1100 
L 313 1100 
L 313 1709 
L 2253 4666 
z
" transform="scale(0.015625)"/>
       </defs>
       <use xlink:href="#DejaVuSans-32"/>
       <use xlink:href="#DejaVuSans-30" x="63.623047"/>
       <use xlink:href="#DejaVuSans-32" x="127.246094"/>
       <use xlink:href="#DejaVuSans-30" x="190.869141"/>
       <use xlink:href="#DejaVuSans-2d" x="254.492188"/>
       <use xlink:href="#DejaVuSans-30" x="290.576172"/>
       <use xlink:href="#DejaVuSans-34" x="354.199219"/>
      </g>
     </g>
    </g>
    <g id="xtick_3">
     <g id="line2d_3">
      <g>
       <use xlink:href="#m3a71638fe6" x="326.536853" y="368.3955" style="stroke: #000000; stroke-width: 0.8"/>
      </g>
     </g>
     <g id="text_3">
      <!-- 2020-07 -->
      <g transform="translate(305.645447 382.993937)scale(0.1 -0.1)">
       <defs>
        <path id="DejaVuSans-37" d="M 525 4666 
L 3525 4666 
L 3525 4397 
L 1831 0 
L 1172 0 
L 2766 4134 
L 525 4134 
L 525 4666 
z
" transform="scale(0.015625)"/>
       </defs>
       <use xlink:href="#DejaVuSans-32"/>
       <use xlink:href="#DejaVuSans-30" x="63.623047"/>
       <use xlink:href="#DejaVuSans-32" x="127.246094"/>
       <use xlink:href="#DejaVuSans-30" x="190.869141"/>
       <use xlink:href="#DejaVuSans-2d" x="254.492188"/>
       <use xlink:href="#DejaVuSans-30" x="290.576172"/>
       <use xlink:href="#DejaVuSans-37" x="354.199219"/>
      </g>
     </g>
    </g>
    <g id="xtick_4">
     <g id="line2d_4">
      <g>
       <use xlink:href="#m3a71638fe6" x="448.018218" y="368.3955" style="stroke: #000000; stroke-width: 0.8"/>
      </g>
     </g>
     <g id="text_4">
      <!-- 2020-10 -->
      <g transform="translate(427.126812 382.993937)scale(0.1 -0.1)">
       <use xlink:href="#DejaVuSans-32"/>
       <use xlink:href="#DejaVuSans-30" x="63.623047"/>
       <use xlink:href="#DejaVuSans-32" x="127.246094"/>
       <use xlink:href="#DejaVuSans-30" x="190.869141"/>
       <use xlink:href="#DejaVuSans-2d" x="254.492188"/>
       <use xlink:href="#DejaVuSans-31" x="290.576172"/>
       <use xlink:href="#DejaVuSans-30" x="354.199219"/>
      </g>
     </g>
    </g>
    <g id="xtick_5">
     <g id="line2d_5">
      <g>
       <use xlink:href="#m3a71638fe6" x="569.499582" y="368.3955" style="stroke: #000000; stroke-width: 0.8"/>
      </g>
     </g>
     <g id="text_5">
      <!-- 2021-01 -->
      <g transform="translate(548.608176 382.993937)scale(0.1 -0.1)">
       <use xlink:href="#DejaVuSans-32"/>
       <use xlink:href="#DejaVuSans-30" x="63.623047"/>
       <use xlink:href="#DejaVuSans-32" x="127.246094"/>
       <use xlink:href="#DejaVuSans-31" x="190.869141"/>
       <use xlink:href="#DejaVuSans-2d" x="254.492188"/>
       <use xlink:href="#DejaVuSans-30" x="290.576172"/>
       <use xlink:href="#DejaVuSans-31" x="354.199219"/>
      </g>
     </g>
    </g>
    <g id="xtick_6">
     <g id="line2d_6">
      <g>
       <use xlink:href="#m3a71638fe6" x="688.340048" y="368.3955" style="stroke: #000000; stroke-width: 0.8"/>
      </g>
     </g>
     <g id="text_6">
      <!-- 2021-04 -->
      <g transform="translate(667.448642 382.993937)scale(0.1 -0.1)">
       <use xlink:href="#DejaVuSans-32"/>
       <use xlink:href="#DejaVuSans-30" x="63.623047"/>
       <use xlink:href="#DejaVuSans-32" x="127.246094"/>
       <use xlink:href="#DejaVuSans-31" x="190.869141"/>
       <use xlink:href="#DejaVuSans-2d" x="254.492188"/>
       <use xlink:href="#DejaVuSans-30" x="290.576172"/>
       <use xlink:href="#DejaVuSans-34" x="354.199219"/>
      </g>
     </g>
    </g>
    <g id="xtick_7">
     <g id="line2d_7">
      <g>
       <use xlink:href="#m3a71638fe6" x="808.500963" y="368.3955" style="stroke: #000000; stroke-width: 0.8"/>
      </g>
     </g>
     <g id="text_7">
      <!-- 2021-07 -->
      <g transform="translate(787.609557 382.993937)scale(0.1 -0.1)">
       <use xlink:href="#DejaVuSans-32"/>
       <use xlink:href="#DejaVuSans-30" x="63.623047"/>
       <use xlink:href="#DejaVuSans-32" x="127.246094"/>
       <use xlink:href="#DejaVuSans-31" x="190.869141"/>
       <use xlink:href="#DejaVuSans-2d" x="254.492188"/>
       <use xlink:href="#DejaVuSans-30" x="290.576172"/>
       <use xlink:href="#DejaVuSans-37" x="354.199219"/>
      </g>
     </g>
    </g>
    <g id="xtick_8">
     <g id="line2d_8">
      <g>
       <use xlink:href="#m3a71638fe6" x="929.982328" y="368.3955" style="stroke: #000000; stroke-width: 0.8"/>
      </g>
     </g>
     <g id="text_8">
      <!-- 2021-10 -->
      <g transform="translate(909.090921 382.993937)scale(0.1 -0.1)">
       <use xlink:href="#DejaVuSans-32"/>
       <use xlink:href="#DejaVuSans-30" x="63.623047"/>
       <use xlink:href="#DejaVuSans-32" x="127.246094"/>
       <use xlink:href="#DejaVuSans-31" x="190.869141"/>
       <use xlink:href="#DejaVuSans-2d" x="254.492188"/>
       <use xlink:href="#DejaVuSans-31" x="290.576172"/>
       <use xlink:href="#DejaVuSans-30" x="354.199219"/>
      </g>
     </g>
    </g>
    <g id="xtick_9">
     <g id="line2d_9">
      <g>
       <use xlink:href="#m3a71638fe6" x="1051.463692" y="368.3955" style="stroke: #000000; stroke-width: 0.8"/>
      </g>
     </g>
     <g id="text_9">
      <!-- 2022-01 -->
      <g transform="translate(1030.572286 382.993937)scale(0.1 -0.1)">
       <use xlink:href="#DejaVuSans-32"/>
       <use xlink:href="#DejaVuSans-30" x="63.623047"/>
       <use xlink:href="#DejaVuSans-32" x="127.246094"/>
       <use xlink:href="#DejaVuSans-32" x="190.869141"/>
       <use xlink:href="#DejaVuSans-2d" x="254.492188"/>
       <use xlink:href="#DejaVuSans-30" x="290.576172"/>
       <use xlink:href="#DejaVuSans-31" x="354.199219"/>
      </g>
     </g>
    </g>
    <g id="xtick_10">
     <g id="line2d_10">
      <g>
       <use xlink:href="#m3a71638fe6" x="1170.304158" y="368.3955" style="stroke: #000000; stroke-width: 0.8"/>
      </g>
     </g>
     <g id="text_10">
      <!-- 2022-04 -->
      <g transform="translate(1149.412751 382.993937)scale(0.1 -0.1)">
       <use xlink:href="#DejaVuSans-32"/>
       <use xlink:href="#DejaVuSans-30" x="63.623047"/>
       <use xlink:href="#DejaVuSans-32" x="127.246094"/>
       <use xlink:href="#DejaVuSans-32" x="190.869141"/>
       <use xlink:href="#DejaVuSans-2d" x="254.492188"/>
       <use xlink:href="#DejaVuSans-30" x="290.576172"/>
       <use xlink:href="#DejaVuSans-34" x="354.199219"/>
      </g>
     </g>
    </g>
    <g id="xtick_11">
     <g id="line2d_11">
      <g>
       <use xlink:href="#m3a71638fe6" x="1290.465073" y="368.3955" style="stroke: #000000; stroke-width: 0.8"/>
      </g>
     </g>
     <g id="text_11">
      <!-- 2022-07 -->
      <g transform="translate(1269.573666 382.993937)scale(0.1 -0.1)">
       <use xlink:href="#DejaVuSans-32"/>
       <use xlink:href="#DejaVuSans-30" x="63.623047"/>
       <use xlink:href="#DejaVuSans-32" x="127.246094"/>
       <use xlink:href="#DejaVuSans-32" x="190.869141"/>
       <use xlink:href="#DejaVuSans-2d" x="254.492188"/>
       <use xlink:href="#DejaVuSans-30" x="290.576172"/>
       <use xlink:href="#DejaVuSans-37" x="354.199219"/>
      </g>
     </g>
    </g>
   </g>
   <g id="matplotlib.axis_2">
    <g id="ytick_1">
     <g id="line2d_12">
      <defs>
       <path id="m3ded7a1091" d="M 0 0 
L -3.5 0 
" style="stroke: #000000; stroke-width: 0.8"/>
      </defs>
      <g>
       <use xlink:href="#m3ded7a1091" x="54.392188" y="347.435118" style="stroke: #000000; stroke-width: 0.8"/>
      </g>
     </g>
     <g id="text_12">
      <!-- −25000 -->
      <g transform="translate(7.2 351.234337)scale(0.1 -0.1)">
       <defs>
        <path id="DejaVuSans-2212" d="M 678 2272 
L 4684 2272 
L 4684 1741 
L 678 1741 
L 678 2272 
z
" transform="scale(0.015625)"/>
        <path id="DejaVuSans-35" d="M 691 4666 
L 3169 4666 
L 3169 4134 
L 1269 4134 
L 1269 2991 
Q 1406 3038 1543 3061 
Q 1681 3084 1819 3084 
Q 2600 3084 3056 2656 
Q 3513 2228 3513 1497 
Q 3513 744 3044 326 
Q 2575 -91 1722 -91 
Q 1428 -91 1123 -41 
Q 819 9 494 109 
L 494 744 
Q 775 591 1075 516 
Q 1375 441 1709 441 
Q 2250 441 2565 725 
Q 2881 1009 2881 1497 
Q 2881 1984 2565 2268 
Q 2250 2553 1709 2553 
Q 1456 2553 1204 2497 
Q 953 2441 691 2322 
L 691 4666 
z
" transform="scale(0.015625)"/>
       </defs>
       <use xlink:href="#DejaVuSans-2212"/>
       <use xlink:href="#DejaVuSans-32" x="83.789062"/>
       <use xlink:href="#DejaVuSans-35" x="147.412109"/>
       <use xlink:href="#DejaVuSans-30" x="211.035156"/>
       <use xlink:href="#DejaVuSans-30" x="274.658203"/>
       <use xlink:href="#DejaVuSans-30" x="338.28125"/>
      </g>
     </g>
    </g>
    <g id="ytick_2">
     <g id="line2d_13">
      <g>
       <use xlink:href="#m3ded7a1091" x="54.392188" y="302.461776" style="stroke: #000000; stroke-width: 0.8"/>
      </g>
     </g>
     <g id="text_13">
      <!-- 0 -->
      <g transform="translate(41.029688 306.260994)scale(0.1 -0.1)">
       <use xlink:href="#DejaVuSans-30"/>
      </g>
     </g>
    </g>
    <g id="ytick_3">
     <g id="line2d_14">
      <g>
       <use xlink:href="#m3ded7a1091" x="54.392188" y="257.488433" style="stroke: #000000; stroke-width: 0.8"/>
      </g>
     </g>
     <g id="text_14">
      <!-- 25000 -->
      <g transform="translate(15.579688 261.287652)scale(0.1 -0.1)">
       <use xlink:href="#DejaVuSans-32"/>
       <use xlink:href="#DejaVuSans-35" x="63.623047"/>
       <use xlink:href="#DejaVuSans-30" x="127.246094"/>
       <use xlink:href="#DejaVuSans-30" x="190.869141"/>
       <use xlink:href="#DejaVuSans-30" x="254.492188"/>
      </g>
     </g>
    </g>
    <g id="ytick_4">
     <g id="line2d_15">
      <g>
       <use xlink:href="#m3ded7a1091" x="54.392188" y="212.51509" style="stroke: #000000; stroke-width: 0.8"/>
      </g>
     </g>
     <g id="text_15">
      <!-- 50000 -->
      <g transform="translate(15.579688 216.314309)scale(0.1 -0.1)">
       <use xlink:href="#DejaVuSans-35"/>
       <use xlink:href="#DejaVuSans-30" x="63.623047"/>
       <use xlink:href="#DejaVuSans-30" x="127.246094"/>
       <use xlink:href="#DejaVuSans-30" x="190.869141"/>
       <use xlink:href="#DejaVuSans-30" x="254.492188"/>
      </g>
     </g>
    </g>
    <g id="ytick_5">
     <g id="line2d_16">
      <g>
       <use xlink:href="#m3ded7a1091" x="54.392188" y="167.541748" style="stroke: #000000; stroke-width: 0.8"/>
      </g>
     </g>
     <g id="text_16">
      <!-- 75000 -->
      <g transform="translate(15.579688 171.340966)scale(0.1 -0.1)">
       <use xlink:href="#DejaVuSans-37"/>
       <use xlink:href="#DejaVuSans-35" x="63.623047"/>
       <use xlink:href="#DejaVuSans-30" x="127.246094"/>
       <use xlink:href="#DejaVuSans-30" x="190.869141"/>
       <use xlink:href="#DejaVuSans-30" x="254.492188"/>
      </g>
     </g>
    </g>
    <g id="ytick_6">
     <g id="line2d_17">
      <g>
       <use xlink:href="#m3ded7a1091" x="54.392188" y="122.568405" style="stroke: #000000; stroke-width: 0.8"/>
      </g>
     </g>
     <g id="text_17">
      <!-- 100000 -->
      <g transform="translate(9.217188 126.367624)scale(0.1 -0.1)">
       <use xlink:href="#DejaVuSans-31"/>
       <use xlink:href="#DejaVuSans-30" x="63.623047"/>
       <use xlink:href="#DejaVuSans-30" x="127.246094"/>
       <use xlink:href="#DejaVuSans-30" x="190.869141"/>
       <use xlink:href="#DejaVuSans-30" x="254.492188"/>
       <use xlink:href="#DejaVuSans-30" x="318.115234"/>
      </g>
     </g>
    </g>
    <g id="ytick_7">
     <g id="line2d_18">
      <g>
       <use xlink:href="#m3ded7a1091" x="54.392188" y="77.595062" style="stroke: #000000; stroke-width: 0.8"/>
      </g>
     </g>
     <g id="text_18">
      <!-- 125000 -->
      <g transform="translate(9.217188 81.394281)scale(0.1 -0.1)">
       <use xlink:href="#DejaVuSans-31"/>
       <use xlink:href="#DejaVuSans-32" x="63.623047"/>
       <use xlink:href="#DejaVuSans-35" x="127.246094"/>
       <use xlink:href="#DejaVuSans-30" x="190.869141"/>
       <use xlink:href="#DejaVuSans-30" x="254.492188"/>
       <use xlink:href="#DejaVuSans-30" x="318.115234"/>
      </g>
     </g>
    </g>
   </g>
   <g id="line2d_19">
    <path d="M 115.264915 302.461776 
L 191.850992 302.407808 
L 193.171442 302.267491 
L 194.491892 302.398813 
L 195.812341 302.307067 
L 197.132791 302.461776 
L 198.453241 302.254898 
L 202.414589 302.362834 
L 203.735039 302.326856 
L 205.055489 302.040825 
L 206.375938 302.461776 
L 210.337287 302.127174 
L 211.657737 302.461776 
L 212.978186 302.276486 
L 215.619086 302.305268 
L 216.939535 302.317861 
L 218.259985 302.137968 
L 219.580434 302.461776 
L 220.900884 302.161354 
L 222.221334 302.343046 
L 223.541783 302.337649 
L 224.862233 302.163153 
L 228.823582 302.301671 
L 234.10538 302.258496 
L 235.42583 301.938286 
L 236.746279 302.152359 
L 238.066729 302.15056 
L 240.707628 302.262094 
L 247.309876 302.193735 
L 249.950776 302.274687 
L 255.232574 302.030032 
L 256.553024 302.164952 
L 257.873473 301.997651 
L 260.514372 301.94908 
L 261.834822 301.893313 
L 263.155272 302.003048 
L 264.475721 301.841144 
L 268.43707 301.916699 
L 269.75752 301.673843 
L 271.077969 301.609081 
L 272.398419 301.296067 
L 273.718869 301.170141 
L 276.359768 301.161147 
L 277.680217 301.468764 
L 280.321117 301.193527 
L 281.641566 301.078396 
L 282.962016 301.17194 
L 284.282466 301.031623 
L 285.602915 301.315855 
L 286.923365 301.447177 
L 288.243814 300.83554 
L 289.564264 300.754588 
L 290.884714 300.790566 
L 292.205163 300.950671 
L 293.525613 300.693424 
L 294.846062 301.069401 
L 296.166512 300.975856 
L 297.486962 300.409192 
L 298.807411 300.256283 
L 300.127861 299.968454 
L 301.448311 299.959459 
L 302.76876 299.707608 
L 304.08921 300.155543 
L 305.409659 300.288664 
L 306.730109 299.990041 
L 308.050559 299.955861 
L 309.371008 298.939463 
L 310.691458 298.755972 
L 312.011907 299.522318 
L 313.332357 299.617661 
L 314.652807 298.601264 
L 315.973256 298.374598 
L 317.293706 297.698199 
L 318.614156 297.773754 
L 319.934605 297.270053 
L 321.255055 298.142536 
L 322.575504 298.52391 
L 323.895954 298.261265 
L 325.216404 298.392588 
L 326.536853 297.664019 
L 329.177752 297.343809 
L 330.498202 297.802537 
L 331.818652 298.074176 
L 333.139101 297.726982 
L 334.459551 297.102752 
L 335.780001 295.978419 
L 337.10045 295.872282 
L 338.4209 296.404766 
L 339.741349 296.257253 
L 341.061799 297.682009 
L 342.382249 296.88688 
L 345.023148 294.841492 
L 346.343597 295.919054 
L 347.664047 294.334193 
L 348.984497 296.663812 
L 350.304946 294.850487 
L 351.625396 295.231861 
L 352.945846 292.848274 
L 354.266295 292.060341 
L 355.586745 291.439709 
L 359.548094 294.920646 
L 360.868543 293.66499 
L 362.188993 291.777908 
L 363.509442 292.313991 
L 364.829892 290.989975 
L 366.150342 291.795898 
L 367.470791 293.033564 
L 368.791241 292.790708 
L 370.111691 293.783719 
L 371.43214 290.243418 
L 374.073039 288.946387 
L 375.393489 289.002154 
L 378.034388 294.028374 
L 379.354838 289.205433 
L 380.675287 289.791886 
L 381.995737 288.676547 
L 383.316187 288.973371 
L 384.636636 291.011563 
L 385.957086 290.47548 
L 387.277536 292.623407 
L 388.597985 294.264035 
L 389.918435 290.157069 
L 391.238884 290.421512 
L 392.559334 287.665546 
L 393.879784 287.784276 
L 395.200233 288.503849 
L 396.520683 292.833882 
L 397.841132 286.787666 
L 399.161582 286.683328 
L 400.482032 283.483025 
L 401.802481 284.28535 
L 403.122931 281.383669 
L 404.443381 285.857618 
L 405.76383 289.532839 
L 407.08428 285.715502 
L 408.404729 283.565776 
L 409.725179 282.794033 
L 411.045629 280.827799 
L 412.366078 283.241968 
L 413.686528 284.609158 
L 415.006977 289.894425 
L 416.327427 285.884602 
L 417.647877 280.826 
L 418.968326 280.408647 
L 421.609226 281.761446 
L 422.929675 283.076466 
L 424.250125 286.170632 
L 425.570574 284.636142 
L 426.891024 281.068856 
L 428.211474 281.461024 
L 429.531923 279.613519 
L 430.852373 280.973513 
L 432.172822 285.774867 
L 433.493272 287.294966 
L 434.813722 286.66354 
L 436.134171 280.826 
L 437.454621 279.750238 
L 438.775071 278.235535 
L 440.09552 279.131404 
L 441.41597 282.22557 
L 442.736419 286.557403 
L 444.056869 281.221765 
L 445.377319 278.217546 
L 446.697768 276.571522 
L 448.018218 277.274905 
L 449.338667 276.040836 
L 451.979567 288.667552 
L 454.620466 275.945493 
L 455.940916 272.874713 
L 457.261365 274.661054 
L 458.581815 275.299676 
L 459.902264 280.129813 
L 461.222714 283.889584 
L 462.543164 285.328731 
L 463.863613 278.526963 
L 465.184063 275.600098 
L 466.504512 271.707205 
L 467.824962 272.696619 
L 470.465861 283.463237 
L 471.786311 279.108018 
L 473.106761 273.072596 
L 474.42721 269.494517 
L 475.74766 273.094183 
L 477.068109 274.186136 
L 478.388559 280.932137 
L 479.709009 285.816242 
L 482.349908 276.722632 
L 483.670357 277.413423 
L 484.990807 278.595322 
L 486.311257 278.393842 
L 487.631706 284.931167 
L 488.952156 290.572623 
L 490.272606 285.19561 
L 491.593055 280.613726 
L 492.913505 283.299534 
L 494.233954 282.493612 
L 495.554404 281.259543 
L 496.874854 288.003745 
L 498.195303 292.87166 
L 499.515753 287.500044 
L 500.836202 280.915947 
L 502.156652 282.889377 
L 503.477102 282.380279 
L 504.797551 281.128221 
L 506.118001 287.228405 
L 507.438451 292.306795 
L 508.7589 288.262792 
L 510.07935 283.355301 
L 512.720249 284.297942 
L 514.040699 285.177621 
L 515.361148 289.617389 
L 516.681598 294.935037 
L 518.002047 294.789323 
L 519.322497 289.574215 
L 520.642947 287.003538 
L 521.963396 286.194018 
L 523.283846 288.347342 
L 524.604296 291.491878 
L 525.924745 292.689968 
L 527.245195 292.161081 
L 528.565644 288.003745 
L 529.886094 288.910408 
L 531.206544 288.73771 
L 532.526993 290.050932 
L 533.847443 293.105521 
L 535.167892 296.564871 
L 536.488342 296.706987 
L 537.808792 295.967625 
L 540.449691 289.880033 
L 541.770141 289.667759 
L 544.41104 296.06117 
L 545.731489 293.355573 
L 547.051939 289.903419 
L 548.372389 290.151672 
L 549.692838 289.282787 
L 551.013288 289.865642 
L 552.333737 292.036955 
L 553.654187 295.057365 
L 554.974637 291.932617 
L 556.295086 287.816656 
L 557.615536 287.016131 
L 558.935986 302.461776 
L 560.256435 283.232973 
L 561.576885 295.782335 
L 562.897334 293.413139 
L 564.217784 289.48067 
L 565.538234 281.504198 
L 566.858683 281.297321 
L 568.179133 281.61933 
L 569.499582 295.122126 
L 570.820032 293.035363 
L 572.140482 291.87685 
L 573.460931 287.670943 
L 574.781381 277.65448 
L 576.101831 278.282308 
L 577.42228 277.573528 
L 578.74273 278.453206 
L 580.063179 282.570966 
L 581.383629 288.415701 
L 582.704079 286.803857 
L 584.024528 277.667072 
L 585.344978 279.570344 
L 586.665427 278.561142 
L 587.985877 280.277325 
L 589.306327 286.3937 
L 590.626776 289.394321 
L 591.947226 287.737503 
L 593.267676 280.620922 
L 594.588125 280.673091 
L 597.229024 283.117842 
L 598.549474 287.419092 
L 599.869924 293.41134 
L 601.190373 288.829456 
L 602.510823 283.736675 
L 603.831272 282.955937 
L 605.151722 285.424075 
L 606.472172 284.763866 
L 607.792621 290.045535 
L 609.113071 293.51208 
L 610.433521 290.563628 
L 611.75397 285.021113 
L 613.07442 285.918781 
L 614.394869 286.467456 
L 615.715319 287.397505 
L 617.035769 290.444899 
L 618.356218 295.881276 
L 619.676668 293.190071 
L 620.997117 288.440886 
L 622.317567 288.539828 
L 623.638017 289.309771 
L 624.958466 289.597601 
L 626.278916 291.565634 
L 627.599366 294.825302 
L 628.919815 296.599051 
L 630.240265 295.260644 
L 631.560714 291.553042 
L 632.881164 288.662155 
L 634.201614 288.275384 
L 635.522063 291.768914 
L 636.842513 295.789531 
L 638.162962 292.716952 
L 639.483412 289.011148 
L 640.803862 287.741101 
L 642.124311 287.649356 
L 643.444761 293.317796 
L 644.765211 292.623407 
L 646.08566 296.762754 
L 647.40611 294.082342 
L 648.726559 290.49347 
L 650.047009 288.331151 
L 651.367459 289.0921 
L 652.687908 288.26639 
L 654.008358 293.718958 
L 655.328807 297.205291 
L 657.969707 289.316967 
L 659.290156 288.622579 
L 660.610606 287.703324 
L 661.931056 288.341945 
L 663.251505 291.16807 
L 664.571955 295.811118 
L 665.892404 291.373148 
L 667.212854 287.647557 
L 669.853753 287.480256 
L 671.174203 287.782477 
L 672.494652 290.182254 
L 673.815102 295.208475 
L 675.135552 290.946801 
L 676.456001 285.542804 
L 677.776451 287.530626 
L 679.096901 287.64216 
L 680.41735 279.190769 
L 681.7378 283.864399 
L 683.058249 289.495062 
L 684.378699 277.251519 
L 685.699149 284.195403 
L 687.019598 273.578096 
L 688.340048 276.503162 
L 689.660497 284.648734 
L 690.980947 283.781648 
L 692.301397 284.553391 
L 693.621846 277.875749 
L 694.942296 264.918029 
L 696.262746 262.815076 
L 697.583195 259.857629 
L 698.903645 259.053505 
L 700.224094 267.528282 
L 701.544544 275.006449 
L 702.864994 267.495901 
L 704.185443 253.888767 
L 705.505893 257.206 
L 706.826342 257.490232 
L 708.146792 249.443601 
L 709.467242 268.067962 
L 710.787691 273.198521 
L 712.108141 265.653793 
L 713.428591 250.031853 
L 714.74904 255.811827 
L 716.06949 253.501996 
L 717.389939 252.300308 
L 720.030839 275.456183 
L 721.351288 268.654415 
L 722.671738 256.597961 
L 723.992188 259.794666 
L 725.312637 255.594156 
L 726.633087 262.129682 
L 727.953536 272.775772 
L 729.273986 281.964725 
L 730.594436 273.822751 
L 731.914885 255.261353 
L 733.235335 259.145251 
L 734.555784 259.132658 
L 735.876234 261.892223 
L 737.196684 270.037795 
L 738.517133 281.626525 
L 739.837583 271.194509 
L 741.158033 255.732674 
L 742.478482 258.432873 
L 743.798932 254.734266 
L 745.119381 253.237553 
L 746.439831 263.840468 
L 747.760281 273.04921 
L 749.08073 250.868357 
L 750.40118 238.522275 
L 751.721629 231.130456 
L 753.042079 237.908839 
L 754.362529 238.657195 
L 755.682978 244.588279 
L 757.003428 257.846421 
L 758.323878 261.714128 
L 759.644327 258.206208 
L 760.964777 238.781321 
L 762.285226 228.561579 
L 763.605676 231.930982 
L 764.926126 248.779795 
L 766.246575 264.061737 
L 768.887474 238.860474 
L 770.207924 239.468514 
L 771.528374 244.372407 
L 772.848823 246.784777 
L 775.489723 272.932279 
L 776.810172 262.534442 
L 778.130622 246.448377 
L 779.451071 248.930905 
L 780.771521 252.760835 
L 782.091971 254.009295 
L 783.41242 269.97843 
L 784.73287 278.998283 
L 786.053319 264.158879 
L 787.373769 253.422843 
L 788.694219 255.908969 
L 790.014668 259.683132 
L 791.335118 265.830089 
L 792.655568 274.342643 
L 793.976017 283.76186 
L 795.296467 286.980152 
L 796.616916 263.98798 
L 797.937366 253.316706 
L 799.257816 258.45446 
L 800.578265 259.245991 
L 801.898715 269.082561 
L 803.219164 280.685683 
L 804.539614 269.381184 
L 805.860064 259.170436 
L 808.500963 264.365757 
L 809.821413 264.885648 
L 811.141862 277.21554 
L 812.462312 286.271372 
L 813.782761 271.381598 
L 815.103211 263.622797 
L 816.423661 267.521086 
L 817.74411 267.821508 
L 819.06456 276.344856 
L 821.705459 286.541212 
L 823.025909 275.497558 
L 824.346358 266.441726 
L 825.666808 267.028178 
L 826.987258 271.349217 
L 828.307707 271.410381 
L 830.948606 289.98617 
L 832.269056 279.500186 
L 833.589506 275.339252 
L 834.909955 276.139778 
L 836.230405 278.176171 
L 837.550854 274.358833 
L 838.871304 282.42885 
L 840.191754 288.958979 
L 841.512203 279.876163 
L 842.832653 272.317044 
L 844.153103 273.889312 
L 845.473552 277.069826 
L 846.794002 278.206753 
L 848.114451 283.832018 
L 849.434901 291.518862 
L 850.755351 282.3443 
L 852.0758 275.74761 
L 853.39625 277.751622 
L 854.716699 277.661676 
L 856.037149 278.088023 
L 858.678048 291.414524 
L 859.998498 284.148631 
L 861.318948 280.133411 
L 862.639397 281.959328 
L 863.959847 278.411831 
L 865.280296 287.221209 
L 867.921196 295.75715 
L 869.241645 295.920853 
L 870.562095 287.760889 
L 871.882544 284.896987 
L 873.202994 283.400274 
L 875.843893 291.867855 
L 877.164343 297.102752 
L 878.484793 291.425317 
L 879.805242 287.856233 
L 881.125692 289.880033 
L 882.446141 290.144477 
L 883.766591 292.015368 
L 885.087041 295.760748 
L 886.40749 298.732586 
L 887.72794 292.823089 
L 889.048389 290.353153 
L 890.368839 292.877057 
L 891.689289 294.091337 
L 893.009738 294.69398 
L 894.330188 297.989626 
L 895.650638 299.948665 
L 896.971087 295.458527 
L 898.291537 295.075354 
L 899.611986 296.109741 
L 900.932436 295.875879 
L 902.252886 297.395978 
L 903.573335 299.23269 
L 904.893785 300.788767 
L 906.214234 298.329625 
L 907.534684 297.034393 
L 908.855134 297.946452 
L 910.175583 297.977034 
L 911.496033 298.309837 
L 914.136932 301.342839 
L 915.457382 298.572481 
L 916.777831 299.157134 
L 918.098281 298.802745 
L 919.418731 299.344224 
L 920.73918 299.135547 
L 922.05963 300.675435 
L 923.380079 301.450775 
L 924.700529 299.695016 
L 926.020979 299.178722 
L 927.341428 299.770571 
L 928.661878 299.509725 
L 929.982328 299.648243 
L 931.302777 300.86792 
L 932.623227 301.767387 
L 933.943676 300.697022 
L 935.264126 300.274272 
L 936.584576 300.151945 
L 937.905025 300.508134 
L 940.545924 301.616277 
L 941.866374 301.866329 
L 943.186824 301.713419 
L 944.507273 300.54771 
L 945.827723 300.097977 
L 948.468622 300.018824 
L 949.789072 301.040618 
L 951.109521 301.742202 
L 952.429971 300.821148 
L 953.750421 300.117765 
L 955.07087 300.270674 
L 956.39132 299.689619 
L 957.711769 299.970252 
L 959.032219 300.828344 
L 960.352669 301.490351 
L 961.673118 300.254484 
L 962.993568 299.916284 
L 965.634467 299.60327 
L 966.954917 299.99184 
L 968.275366 301.001042 
L 969.595816 301.47596 
L 970.916266 300.414589 
L 972.236715 300.051205 
L 973.557165 300.187923 
L 974.877614 299.871311 
L 976.198064 300.175331 
L 978.838963 301.395008 
L 980.159413 300.144749 
L 981.479863 300.035014 
L 982.800312 299.642847 
L 984.120762 299.835332 
L 985.441211 299.558297 
L 988.082111 301.398606 
L 989.40256 299.912687 
L 990.72301 299.543905 
L 992.043459 299.668032 
L 993.363909 299.304647 
L 994.684359 299.730994 
L 997.325258 301.299665 
L 998.645708 301.308659 
L 999.966157 299.504329 
L 1001.286607 298.442958 
L 1002.607056 298.396186 
L 1005.247956 299.725598 
L 1006.568405 300.864323 
L 1007.888855 298.921474 
L 1009.209304 298.266662 
L 1010.529754 299.077981 
L 1011.850204 297.638834 
L 1013.170653 298.176716 
L 1014.491103 299.421578 
L 1015.811553 300.133955 
L 1017.132002 298.005817 
L 1018.452452 296.904869 
L 1019.772901 299.077981 
L 1022.413801 296.034186 
L 1023.73425 298.063383 
L 1025.0547 299.63745 
L 1026.375149 296.143921 
L 1027.695599 294.267633 
L 1029.016049 293.792714 
L 1030.336498 292.925628 
L 1031.656948 292.301398 
L 1032.977398 294.972815 
L 1034.297847 296.608045 
L 1035.618297 292.860866 
L 1036.938746 285.666931 
L 1038.259196 282.455834 
L 1039.579646 278.255324 
L 1040.900095 273.176934 
L 1042.220545 289.540035 
L 1043.540994 288.748504 
L 1046.181894 241.474325 
L 1048.822793 211.60483 
L 1050.143243 216.719198 
L 1051.463692 266.447123 
L 1052.784142 265.580037 
L 1054.104591 222.596315 
L 1055.425041 156.370369 
L 1058.06594 105.28425 
L 1059.38639 103.620236 
L 1060.706839 119.530006 
L 1062.027289 170.565755 
L 1063.347739 143.522385 
L 1064.668188 60.614927 
L 1065.988638 66.653948 
L 1067.309088 71.47509 
L 1068.629537 50.8755 
L 1069.949987 128.591235 
L 1071.270436 185.097542 
L 1072.590886 118.146626 
L 1073.911336 84.823178 
L 1075.231785 71.620804 
L 1076.552235 69.123884 
L 1077.872684 89.879981 
L 1079.193134 125.903628 
L 1080.513584 176.745093 
L 1081.834033 161.927276 
L 1083.154483 121.015925 
L 1084.474933 143.250746 
L 1085.795382 162.632458 
L 1087.115832 187.538695 
L 1089.756731 263.658776 
L 1091.077181 224.25853 
L 1092.39763 214.094554 
L 1093.71808 221.383834 
L 1095.038529 226.120426 
L 1096.358979 230.335328 
L 1097.679429 263.180259 
L 1098.999878 279.680079 
L 1100.320328 256.758066 
L 1101.640778 243.474739 
L 1102.961227 253.437234 
L 1104.281677 257.29055 
L 1105.602126 272.773973 
L 1108.243026 291.148282 
L 1109.563475 278.985691 
L 1110.883925 269.05018 
L 1112.204374 271.818739 
L 1113.524824 272.509529 
L 1114.845274 274.777985 
L 1116.165723 288.4175 
L 1117.486173 294.456521 
L 1118.806623 282.367686 
L 1120.127072 271.969849 
L 1121.447522 279.859973 
L 1122.767971 283.936356 
L 1124.088421 285.395292 
L 1125.408871 292.396742 
L 1126.72932 295.967625 
L 1128.04977 296.205084 
L 1129.370219 296.129529 
L 1130.690669 287.816656 
L 1132.011119 285.877406 
L 1133.331568 287.419092 
L 1134.652018 294.492499 
L 1135.972468 298.371 
L 1137.292917 291.153678 
L 1138.613367 290.815479 
L 1139.933816 291.495476 
L 1141.254266 291.42172 
L 1142.574716 292.360763 
L 1143.895165 297.09016 
L 1145.215615 300.238294 
L 1146.536064 294.102131 
L 1147.856514 293.330388 
L 1149.176964 294.040967 
L 1150.497413 294.228056 
L 1151.817863 276.528347 
L 1153.138313 299.408985 
L 1154.458762 300.254484 
L 1155.779212 295.960429 
L 1157.099661 294.024777 
L 1158.420111 295.980218 
L 1159.740561 299.61946 
L 1161.06101 297.834918 
L 1162.38146 299.862316 
L 1163.701909 300.990248 
L 1165.022359 297.685607 
L 1166.342809 296.287835 
L 1167.663258 297.127937 
L 1168.983708 297.453544 
L 1170.304158 298.99523 
L 1171.624607 301.019031 
L 1172.945057 301.591092 
L 1174.265506 298.910681 
L 1175.585956 298.453751 
L 1176.906406 298.716396 
L 1178.226855 299.14814 
L 1179.547305 298.876501 
L 1180.867754 300.950671 
L 1182.188204 301.646859 
L 1183.508654 299.601471 
L 1184.829103 298.72539 
L 1187.470003 299.892898 
L 1188.790452 301.395008 
L 1190.110902 301.470563 
L 1191.431351 301.691832 
L 1192.751801 302.461776 
L 1200.674499 302.461776 
L 1201.994948 282.121232 
L 1203.315398 302.461776 
L 1208.597196 302.461776 
L 1209.917646 281.876577 
L 1211.238096 302.461776 
L 1217.840344 302.461776 
L 1219.160793 270.717791 
L 1220.481243 302.461776 
L 1227.083491 302.461776 
L 1228.403941 241.317818 
L 1229.72439 302.461776 
L 1236.326638 302.461776 
L 1237.647088 224.231546 
L 1238.967538 302.461776 
L 1245.569786 302.461776 
L 1246.890235 209.316586 
L 1248.210685 302.461776 
L 1254.812933 302.461776 
L 1256.133383 219.629873 
L 1257.453832 302.461776 
L 1266.696979 302.461776 
L 1268.017429 236.198053 
L 1269.337879 302.461776 
L 1273.299228 302.461776 
L 1274.619677 252.021473 
L 1275.940127 302.461776 
L 1282.542375 302.461776 
L 1283.862824 256.265158 
L 1285.183274 302.461776 
L 1291.785522 302.461776 
L 1293.105972 253.61353 
L 1294.426421 302.461776 
L 1301.028669 302.461776 
L 1302.349119 245.174732 
L 1303.669569 302.461776 
L 1310.271817 302.461776 
L 1311.592266 231.123261 
L 1312.912716 302.461776 
L 1315.553615 302.461776 
L 1315.553615 302.461776 
" clip-path="url(#pd49867d950)" style="fill: none; stroke: #0000ff; stroke-width: 1.5; stroke-linecap: square"/>
   </g>
   <g id="line2d_20">
    <path d="M 1076.552235 66.780348 
L 1077.872684 131.28217 
L 1079.193134 165.645933 
L 1080.513584 132.910661 
L 1081.834033 110.535687 
L 1083.154483 105.910285 
L 1084.474933 134.894164 
L 1085.795382 153.194651 
L 1087.115832 213.354456 
L 1088.436281 259.782695 
L 1089.756731 241.375241 
L 1091.077181 195.481984 
L 1092.39763 226.028712 
L 1093.71808 227.993958 
L 1095.038529 251.695703 
L 1096.358979 266.13422 
L 1097.679429 301.082618 
L 1098.999878 254.915353 
L 1100.320328 248.403263 
L 1101.640778 248.242192 
L 1102.961227 260.669973 
L 1104.281677 262.562423 
L 1105.602126 299.245892 
L 1106.922576 301.458361 
L 1108.243026 278.720373 
L 1109.563475 266.121652 
L 1110.883925 276.260146 
L 1112.204374 277.778914 
L 1113.524824 285.274737 
L 1114.845274 289.757614 
L 1116.165723 301.059712 
L 1117.486173 282.741284 
L 1118.806623 275.85708 
L 1120.127072 275.456282 
L 1121.447522 280.851624 
L 1122.767971 285.541484 
L 1124.088421 296.809334 
L 1125.408871 299.682738 
L 1126.72932 287.08711 
L 1128.04977 285.688905 
L 1129.370219 296.890454 
L 1130.690669 292.376605 
L 1132.011119 292.135412 
L 1133.331568 294.439085 
L 1134.652018 299.91424 
L 1135.972468 296.919012 
L 1137.292917 290.664866 
L 1138.613367 287.81809 
L 1139.933816 288.874318 
L 1141.254266 291.82065 
L 1142.574716 298.244614 
L 1143.895165 300.18407 
L 1145.215615 295.460044 
L 1146.536064 293.843948 
L 1147.856514 293.451184 
L 1149.176964 293.602935 
L 1150.497413 294.797993 
L 1151.817863 285.76998 
L 1153.138313 302.933578 
L 1154.458762 289.343733 
L 1155.779212 298.695421 
L 1157.099661 291.909283 
L 1158.420111 296.335741 
L 1159.740561 286.608292 
L 1161.06101 310.240267 
L 1162.38146 301.487688 
L 1163.701909 301.250917 
L 1165.022359 294.501038 
L 1166.342809 299.384945 
L 1167.663258 299.681134 
L 1168.983708 294.590777 
L 1170.304158 302.873798 
L 1171.624607 301.095167 
L 1172.945057 299.949725 
L 1174.265506 297.007429 
L 1175.585956 299.339981 
L 1176.906406 299.397326 
L 1178.226855 299.673043 
L 1179.547305 301.263289 
L 1180.867754 301.825794 
L 1182.188204 299.336911 
L 1183.508654 299.005718 
L 1184.829103 299.083962 
L 1186.149553 299.80954 
L 1187.470003 299.602434 
L 1188.790452 302.806595 
L 1190.110902 301.958742 
L 1191.431351 300.537795 
L 1192.751801 300.931897 
L 1194.072251 302.180101 
L 1195.3927 302.913435 
L 1196.71315 303.35148 
L 1198.033599 303.172669 
L 1199.354049 303.199962 
L 1200.674499 302.835861 
L 1201.994948 287.659035 
L 1203.315398 303.630061 
L 1204.635848 295.668033 
L 1205.956297 305.988214 
L 1207.276747 299.803934 
L 1208.597196 302.612774 
L 1209.917646 274.115124 
L 1211.238096 313.280267 
L 1212.558545 294.850079 
L 1213.878995 310.299082 
L 1215.199444 297.547175 
L 1216.519894 304.329993 
L 1217.840344 288.992184 
L 1219.160793 286.381338 
L 1220.481243 305.372323 
L 1221.801693 296.146114 
L 1223.122142 306.309237 
L 1224.442592 299.52254 
L 1225.763041 302.843925 
L 1227.083491 278.887734 
L 1228.403941 274.383278 
L 1229.72439 304.738974 
L 1231.04484 289.697118 
L 1232.365289 308.659656 
L 1233.685739 297.19797 
L 1235.006189 302.539946 
L 1236.326638 257.539326 
L 1237.647088 277.943989 
L 1238.967538 304.201333 
L 1240.287987 291.161756 
L 1241.608437 307.827526 
L 1242.928886 297.853819 
L 1244.249336 302.477766 
L 1245.569786 241.966678 
L 1246.890235 278.515436 
L 1248.210685 304.102002 
L 1249.531134 291.388733 
L 1250.851584 307.69156 
L 1252.172034 297.958462 
L 1253.492483 302.465046 
L 1254.812933 228.999502 
L 1256.133383 295.591769 
L 1257.453832 302.931061 
L 1258.774282 299.284217 
L 1260.094731 303.96192 
L 1261.415181 301.169752 
L 1262.735631 302.462445 
L 1264.05608 233.110833 
L 1265.37653 353.2755 
L 1266.696979 299.014941 
L 1268.017429 277.426822 
L 1269.337879 294.664593 
L 1270.658328 289.548509 
L 1271.978778 313.059754 
L 1273.299228 279.143604 
L 1274.619677 275.897364 
L 1275.940127 260.806164 
L 1277.260576 322.009972 
L 1278.581026 306.099786 
L 1279.901476 312.20243 
L 1281.221925 295.511376 
L 1282.542375 272.468735 
L 1283.862824 294.977493 
L 1285.183274 294.080103 
L 1286.503724 305.511446 
L 1287.824173 303.653505 
L 1289.144623 304.06859 
L 1290.465073 301.040049 
L 1291.785522 266.029278 
L 1293.105972 294.262188 
L 1294.426421 301.199717 
L 1295.746871 299.999253 
L 1297.067321 304.16115 
L 1298.38777 301.536154 
L 1299.70822 302.170957 
L 1301.028669 262.973038 
L 1302.349119 289.604254 
L 1303.669569 302.962149 
L 1304.990018 296.783681 
L 1306.310468 305.249766 
L 1307.630918 300.16955 
L 1308.951367 302.402288 
L 1310.271817 256.813421 
L 1311.592266 283.675691 
L 1312.912716 303.660244 
L 1314.233166 293.823074 
L 1315.553615 306.558533 
L 1315.553615 306.558533 
" clip-path="url(#pd49867d950)" style="fill: none; stroke: #ffa500; stroke-width: 1.5; stroke-linecap: square"/>
   </g>
   <g id="line2d_21">
    <path d="M 1315.553615 306.558533 
L 1316.874065 301.955888 
L 1318.194514 301.875277 
L 1319.514964 247.322684 
L 1320.835414 302.393335 
L 1322.155863 302.793214 
L 1323.476313 303.080982 
L 1324.796763 305.321826 
L 1326.117212 302.49193 
L 1327.437662 302.478763 
L 1328.758111 255.101065 
L 1330.078561 302.785257 
L 1331.399011 303.033951 
L 1332.71946 303.193763 
" clip-path="url(#pd49867d950)" style="fill: none; stroke: #ff0000; stroke-width: 1.5; stroke-linecap: square"/>
   </g>
   <g id="patch_3">
    <path d="M 54.392188 368.3955 
L 54.392188 35.7555 
" style="fill: none; stroke: #000000; stroke-width: 0.8; stroke-linejoin: miter; stroke-linecap: square"/>
   </g>
   <g id="patch_4">
    <path d="M 1393.592188 368.3955 
L 1393.592188 35.7555 
" style="fill: none; stroke: #000000; stroke-width: 0.8; stroke-linejoin: miter; stroke-linecap: square"/>
   </g>
   <g id="patch_5">
    <path d="M 54.392188 368.3955 
L 1393.592188 368.3955 
" style="fill: none; stroke: #000000; stroke-width: 0.8; stroke-linejoin: miter; stroke-linecap: square"/>
   </g>
   <g id="patch_6">
    <path d="M 54.392188 35.7555 
L 1393.592188 35.7555 
" style="fill: none; stroke: #000000; stroke-width: 0.8; stroke-linejoin: miter; stroke-linecap: square"/>
   </g>
   <g id="text_19">
    <!-- Daily Confirmed Cases Forecasting - Argentina -->
    <g transform="translate(584.224062 16.318125)scale(0.12 -0.12)">
     <defs>
      <path id="DejaVuSans-44" d="M 1259 4147 
L 1259 519 
L 2022 519 
Q 2988 519 3436 956 
Q 3884 1394 3884 2338 
Q 3884 3275 3436 3711 
Q 2988 4147 2022 4147 
L 1259 4147 
z
M 628 4666 
L 1925 4666 
Q 3281 4666 3915 4102 
Q 4550 3538 4550 2338 
Q 4550 1131 3912 565 
Q 3275 0 1925 0 
L 628 0 
L 628 4666 
z
" transform="scale(0.015625)"/>
      <path id="DejaVuSans-61" d="M 2194 1759 
Q 1497 1759 1228 1600 
Q 959 1441 959 1056 
Q 959 750 1161 570 
Q 1363 391 1709 391 
Q 2188 391 2477 730 
Q 2766 1069 2766 1631 
L 2766 1759 
L 2194 1759 
z
M 3341 1997 
L 3341 0 
L 2766 0 
L 2766 531 
Q 2569 213 2275 61 
Q 1981 -91 1556 -91 
Q 1019 -91 701 211 
Q 384 513 384 1019 
Q 384 1609 779 1909 
Q 1175 2209 1959 2209 
L 2766 2209 
L 2766 2266 
Q 2766 2663 2505 2880 
Q 2244 3097 1772 3097 
Q 1472 3097 1187 3025 
Q 903 2953 641 2809 
L 641 3341 
Q 956 3463 1253 3523 
Q 1550 3584 1831 3584 
Q 2591 3584 2966 3190 
Q 3341 2797 3341 1997 
z
" transform="scale(0.015625)"/>
      <path id="DejaVuSans-69" d="M 603 3500 
L 1178 3500 
L 1178 0 
L 603 0 
L 603 3500 
z
M 603 4863 
L 1178 4863 
L 1178 4134 
L 603 4134 
L 603 4863 
z
" transform="scale(0.015625)"/>
      <path id="DejaVuSans-6c" d="M 603 4863 
L 1178 4863 
L 1178 0 
L 603 0 
L 603 4863 
z
" transform="scale(0.015625)"/>
      <path id="DejaVuSans-79" d="M 2059 -325 
Q 1816 -950 1584 -1140 
Q 1353 -1331 966 -1331 
L 506 -1331 
L 506 -850 
L 844 -850 
Q 1081 -850 1212 -737 
Q 1344 -625 1503 -206 
L 1606 56 
L 191 3500 
L 800 3500 
L 1894 763 
L 2988 3500 
L 3597 3500 
L 2059 -325 
z
" transform="scale(0.015625)"/>
      <path id="DejaVuSans-20" transform="scale(0.015625)"/>
      <path id="DejaVuSans-43" d="M 4122 4306 
L 4122 3641 
Q 3803 3938 3442 4084 
Q 3081 4231 2675 4231 
Q 1875 4231 1450 3742 
Q 1025 3253 1025 2328 
Q 1025 1406 1450 917 
Q 1875 428 2675 428 
Q 3081 428 3442 575 
Q 3803 722 4122 1019 
L 4122 359 
Q 3791 134 3420 21 
Q 3050 -91 2638 -91 
Q 1578 -91 968 557 
Q 359 1206 359 2328 
Q 359 3453 968 4101 
Q 1578 4750 2638 4750 
Q 3056 4750 3426 4639 
Q 3797 4528 4122 4306 
z
" transform="scale(0.015625)"/>
      <path id="DejaVuSans-6f" d="M 1959 3097 
Q 1497 3097 1228 2736 
Q 959 2375 959 1747 
Q 959 1119 1226 758 
Q 1494 397 1959 397 
Q 2419 397 2687 759 
Q 2956 1122 2956 1747 
Q 2956 2369 2687 2733 
Q 2419 3097 1959 3097 
z
M 1959 3584 
Q 2709 3584 3137 3096 
Q 3566 2609 3566 1747 
Q 3566 888 3137 398 
Q 2709 -91 1959 -91 
Q 1206 -91 779 398 
Q 353 888 353 1747 
Q 353 2609 779 3096 
Q 1206 3584 1959 3584 
z
" transform="scale(0.015625)"/>
      <path id="DejaVuSans-6e" d="M 3513 2113 
L 3513 0 
L 2938 0 
L 2938 2094 
Q 2938 2591 2744 2837 
Q 2550 3084 2163 3084 
Q 1697 3084 1428 2787 
Q 1159 2491 1159 1978 
L 1159 0 
L 581 0 
L 581 3500 
L 1159 3500 
L 1159 2956 
Q 1366 3272 1645 3428 
Q 1925 3584 2291 3584 
Q 2894 3584 3203 3211 
Q 3513 2838 3513 2113 
z
" transform="scale(0.015625)"/>
      <path id="DejaVuSans-66" d="M 2375 4863 
L 2375 4384 
L 1825 4384 
Q 1516 4384 1395 4259 
Q 1275 4134 1275 3809 
L 1275 3500 
L 2222 3500 
L 2222 3053 
L 1275 3053 
L 1275 0 
L 697 0 
L 697 3053 
L 147 3053 
L 147 3500 
L 697 3500 
L 697 3744 
Q 697 4328 969 4595 
Q 1241 4863 1831 4863 
L 2375 4863 
z
" transform="scale(0.015625)"/>
      <path id="DejaVuSans-72" d="M 2631 2963 
Q 2534 3019 2420 3045 
Q 2306 3072 2169 3072 
Q 1681 3072 1420 2755 
Q 1159 2438 1159 1844 
L 1159 0 
L 581 0 
L 581 3500 
L 1159 3500 
L 1159 2956 
Q 1341 3275 1631 3429 
Q 1922 3584 2338 3584 
Q 2397 3584 2469 3576 
Q 2541 3569 2628 3553 
L 2631 2963 
z
" transform="scale(0.015625)"/>
      <path id="DejaVuSans-6d" d="M 3328 2828 
Q 3544 3216 3844 3400 
Q 4144 3584 4550 3584 
Q 5097 3584 5394 3201 
Q 5691 2819 5691 2113 
L 5691 0 
L 5113 0 
L 5113 2094 
Q 5113 2597 4934 2840 
Q 4756 3084 4391 3084 
Q 3944 3084 3684 2787 
Q 3425 2491 3425 1978 
L 3425 0 
L 2847 0 
L 2847 2094 
Q 2847 2600 2669 2842 
Q 2491 3084 2119 3084 
Q 1678 3084 1418 2786 
Q 1159 2488 1159 1978 
L 1159 0 
L 581 0 
L 581 3500 
L 1159 3500 
L 1159 2956 
Q 1356 3278 1631 3431 
Q 1906 3584 2284 3584 
Q 2666 3584 2933 3390 
Q 3200 3197 3328 2828 
z
" transform="scale(0.015625)"/>
      <path id="DejaVuSans-65" d="M 3597 1894 
L 3597 1613 
L 953 1613 
Q 991 1019 1311 708 
Q 1631 397 2203 397 
Q 2534 397 2845 478 
Q 3156 559 3463 722 
L 3463 178 
Q 3153 47 2828 -22 
Q 2503 -91 2169 -91 
Q 1331 -91 842 396 
Q 353 884 353 1716 
Q 353 2575 817 3079 
Q 1281 3584 2069 3584 
Q 2775 3584 3186 3129 
Q 3597 2675 3597 1894 
z
M 3022 2063 
Q 3016 2534 2758 2815 
Q 2500 3097 2075 3097 
Q 1594 3097 1305 2825 
Q 1016 2553 972 2059 
L 3022 2063 
z
" transform="scale(0.015625)"/>
      <path id="DejaVuSans-64" d="M 2906 2969 
L 2906 4863 
L 3481 4863 
L 3481 0 
L 2906 0 
L 2906 525 
Q 2725 213 2448 61 
Q 2172 -91 1784 -91 
Q 1150 -91 751 415 
Q 353 922 353 1747 
Q 353 2572 751 3078 
Q 1150 3584 1784 3584 
Q 2172 3584 2448 3432 
Q 2725 3281 2906 2969 
z
M 947 1747 
Q 947 1113 1208 752 
Q 1469 391 1925 391 
Q 2381 391 2643 752 
Q 2906 1113 2906 1747 
Q 2906 2381 2643 2742 
Q 2381 3103 1925 3103 
Q 1469 3103 1208 2742 
Q 947 2381 947 1747 
z
" transform="scale(0.015625)"/>
      <path id="DejaVuSans-73" d="M 2834 3397 
L 2834 2853 
Q 2591 2978 2328 3040 
Q 2066 3103 1784 3103 
Q 1356 3103 1142 2972 
Q 928 2841 928 2578 
Q 928 2378 1081 2264 
Q 1234 2150 1697 2047 
L 1894 2003 
Q 2506 1872 2764 1633 
Q 3022 1394 3022 966 
Q 3022 478 2636 193 
Q 2250 -91 1575 -91 
Q 1294 -91 989 -36 
Q 684 19 347 128 
L 347 722 
Q 666 556 975 473 
Q 1284 391 1588 391 
Q 1994 391 2212 530 
Q 2431 669 2431 922 
Q 2431 1156 2273 1281 
Q 2116 1406 1581 1522 
L 1381 1569 
Q 847 1681 609 1914 
Q 372 2147 372 2553 
Q 372 3047 722 3315 
Q 1072 3584 1716 3584 
Q 2034 3584 2315 3537 
Q 2597 3491 2834 3397 
z
" transform="scale(0.015625)"/>
      <path id="DejaVuSans-46" d="M 628 4666 
L 3309 4666 
L 3309 4134 
L 1259 4134 
L 1259 2759 
L 3109 2759 
L 3109 2228 
L 1259 2228 
L 1259 0 
L 628 0 
L 628 4666 
z
" transform="scale(0.015625)"/>
      <path id="DejaVuSans-63" d="M 3122 3366 
L 3122 2828 
Q 2878 2963 2633 3030 
Q 2388 3097 2138 3097 
Q 1578 3097 1268 2742 
Q 959 2388 959 1747 
Q 959 1106 1268 751 
Q 1578 397 2138 397 
Q 2388 397 2633 464 
Q 2878 531 3122 666 
L 3122 134 
Q 2881 22 2623 -34 
Q 2366 -91 2075 -91 
Q 1284 -91 818 406 
Q 353 903 353 1747 
Q 353 2603 823 3093 
Q 1294 3584 2113 3584 
Q 2378 3584 2631 3529 
Q 2884 3475 3122 3366 
z
" transform="scale(0.015625)"/>
      <path id="DejaVuSans-74" d="M 1172 4494 
L 1172 3500 
L 2356 3500 
L 2356 3053 
L 1172 3053 
L 1172 1153 
Q 1172 725 1289 603 
Q 1406 481 1766 481 
L 2356 481 
L 2356 0 
L 1766 0 
Q 1100 0 847 248 
Q 594 497 594 1153 
L 594 3053 
L 172 3053 
L 172 3500 
L 594 3500 
L 594 4494 
L 1172 4494 
z
" transform="scale(0.015625)"/>
      <path id="DejaVuSans-67" d="M 2906 1791 
Q 2906 2416 2648 2759 
Q 2391 3103 1925 3103 
Q 1463 3103 1205 2759 
Q 947 2416 947 1791 
Q 947 1169 1205 825 
Q 1463 481 1925 481 
Q 2391 481 2648 825 
Q 2906 1169 2906 1791 
z
M 3481 434 
Q 3481 -459 3084 -895 
Q 2688 -1331 1869 -1331 
Q 1566 -1331 1297 -1286 
Q 1028 -1241 775 -1147 
L 775 -588 
Q 1028 -725 1275 -790 
Q 1522 -856 1778 -856 
Q 2344 -856 2625 -561 
Q 2906 -266 2906 331 
L 2906 616 
Q 2728 306 2450 153 
Q 2172 0 1784 0 
Q 1141 0 747 490 
Q 353 981 353 1791 
Q 353 2603 747 3093 
Q 1141 3584 1784 3584 
Q 2172 3584 2450 3431 
Q 2728 3278 2906 2969 
L 2906 3500 
L 3481 3500 
L 3481 434 
z
" transform="scale(0.015625)"/>
      <path id="DejaVuSans-41" d="M 2188 4044 
L 1331 1722 
L 3047 1722 
L 2188 4044 
z
M 1831 4666 
L 2547 4666 
L 4325 0 
L 3669 0 
L 3244 1197 
L 1141 1197 
L 716 0 
L 50 0 
L 1831 4666 
z
" transform="scale(0.015625)"/>
     </defs>
     <use xlink:href="#DejaVuSans-44"/>
     <use xlink:href="#DejaVuSans-61" x="77.001953"/>
     <use xlink:href="#DejaVuSans-69" x="138.28125"/>
     <use xlink:href="#DejaVuSans-6c" x="166.064453"/>
     <use xlink:href="#DejaVuSans-79" x="193.847656"/>
     <use xlink:href="#DejaVuSans-20" x="253.027344"/>
     <use xlink:href="#DejaVuSans-43" x="284.814453"/>
     <use xlink:href="#DejaVuSans-6f" x="354.638672"/>
     <use xlink:href="#DejaVuSans-6e" x="415.820312"/>
     <use xlink:href="#DejaVuSans-66" x="479.199219"/>
     <use xlink:href="#DejaVuSans-69" x="514.404297"/>
     <use xlink:href="#DejaVuSans-72" x="542.1875"/>
     <use xlink:href="#DejaVuSans-6d" x="581.550781"/>
     <use xlink:href="#DejaVuSans-65" x="678.962891"/>
     <use xlink:href="#DejaVuSans-64" x="740.486328"/>
     <use xlink:href="#DejaVuSans-20" x="803.962891"/>
     <use xlink:href="#DejaVuSans-43" x="835.75"/>
     <use xlink:href="#DejaVuSans-61" x="905.574219"/>
     <use xlink:href="#DejaVuSans-73" x="966.853516"/>
     <use xlink:href="#DejaVuSans-65" x="1018.953125"/>
     <use xlink:href="#DejaVuSans-73" x="1080.476562"/>
     <use xlink:href="#DejaVuSans-20" x="1132.576172"/>
     <use xlink:href="#DejaVuSans-46" x="1164.363281"/>
     <use xlink:href="#DejaVuSans-6f" x="1218.257812"/>
     <use xlink:href="#DejaVuSans-72" x="1279.439453"/>
     <use xlink:href="#DejaVuSans-65" x="1318.302734"/>
     <use xlink:href="#DejaVuSans-63" x="1379.826172"/>
     <use xlink:href="#DejaVuSans-61" x="1434.806641"/>
     <use xlink:href="#DejaVuSans-73" x="1496.085938"/>
     <use xlink:href="#DejaVuSans-74" x="1548.185547"/>
     <use xlink:href="#DejaVuSans-69" x="1587.394531"/>
     <use xlink:href="#DejaVuSans-6e" x="1615.177734"/>
     <use xlink:href="#DejaVuSans-67" x="1678.556641"/>
     <use xlink:href="#DejaVuSans-20" x="1742.033203"/>
     <use xlink:href="#DejaVuSans-2d" x="1773.820312"/>
     <use xlink:href="#DejaVuSans-20" x="1809.904297"/>
     <use xlink:href="#DejaVuSans-41" x="1841.691406"/>
     <use xlink:href="#DejaVuSans-72" x="1910.099609"/>
     <use xlink:href="#DejaVuSans-67" x="1949.462891"/>
     <use xlink:href="#DejaVuSans-65" x="2012.939453"/>
     <use xlink:href="#DejaVuSans-6e" x="2074.462891"/>
     <use xlink:href="#DejaVuSans-74" x="2137.841797"/>
     <use xlink:href="#DejaVuSans-69" x="2177.050781"/>
     <use xlink:href="#DejaVuSans-6e" x="2204.833984"/>
     <use xlink:href="#DejaVuSans-61" x="2268.212891"/>
    </g>
    <!-- ARIMA (4, 1, 0)x(1, 0, 1, 7) (R2 = 0.749793) -->
    <g transform="translate(592.008125 29.7555)scale(0.12 -0.12)">
     <defs>
      <path id="DejaVuSans-52" d="M 2841 2188 
Q 3044 2119 3236 1894 
Q 3428 1669 3622 1275 
L 4263 0 
L 3584 0 
L 2988 1197 
Q 2756 1666 2539 1819 
Q 2322 1972 1947 1972 
L 1259 1972 
L 1259 0 
L 628 0 
L 628 4666 
L 2053 4666 
Q 2853 4666 3247 4331 
Q 3641 3997 3641 3322 
Q 3641 2881 3436 2590 
Q 3231 2300 2841 2188 
z
M 1259 4147 
L 1259 2491 
L 2053 2491 
Q 2509 2491 2742 2702 
Q 2975 2913 2975 3322 
Q 2975 3731 2742 3939 
Q 2509 4147 2053 4147 
L 1259 4147 
z
" transform="scale(0.015625)"/>
      <path id="DejaVuSans-49" d="M 628 4666 
L 1259 4666 
L 1259 0 
L 628 0 
L 628 4666 
z
" transform="scale(0.015625)"/>
      <path id="DejaVuSans-4d" d="M 628 4666 
L 1569 4666 
L 2759 1491 
L 3956 4666 
L 4897 4666 
L 4897 0 
L 4281 0 
L 4281 4097 
L 3078 897 
L 2444 897 
L 1241 4097 
L 1241 0 
L 628 0 
L 628 4666 
z
" transform="scale(0.015625)"/>
      <path id="DejaVuSans-28" d="M 1984 4856 
Q 1566 4138 1362 3434 
Q 1159 2731 1159 2009 
Q 1159 1288 1364 580 
Q 1569 -128 1984 -844 
L 1484 -844 
Q 1016 -109 783 600 
Q 550 1309 550 2009 
Q 550 2706 781 3412 
Q 1013 4119 1484 4856 
L 1984 4856 
z
" transform="scale(0.015625)"/>
      <path id="DejaVuSans-2c" d="M 750 794 
L 1409 794 
L 1409 256 
L 897 -744 
L 494 -744 
L 750 256 
L 750 794 
z
" transform="scale(0.015625)"/>
      <path id="DejaVuSans-29" d="M 513 4856 
L 1013 4856 
Q 1481 4119 1714 3412 
Q 1947 2706 1947 2009 
Q 1947 1309 1714 600 
Q 1481 -109 1013 -844 
L 513 -844 
Q 928 -128 1133 580 
Q 1338 1288 1338 2009 
Q 1338 2731 1133 3434 
Q 928 4138 513 4856 
z
" transform="scale(0.015625)"/>
      <path id="DejaVuSans-78" d="M 3513 3500 
L 2247 1797 
L 3578 0 
L 2900 0 
L 1881 1375 
L 863 0 
L 184 0 
L 1544 1831 
L 300 3500 
L 978 3500 
L 1906 2253 
L 2834 3500 
L 3513 3500 
z
" transform="scale(0.015625)"/>
      <path id="DejaVuSans-3d" d="M 678 2906 
L 4684 2906 
L 4684 2381 
L 678 2381 
L 678 2906 
z
M 678 1631 
L 4684 1631 
L 4684 1100 
L 678 1100 
L 678 1631 
z
" transform="scale(0.015625)"/>
      <path id="DejaVuSans-2e" d="M 684 794 
L 1344 794 
L 1344 0 
L 684 0 
L 684 794 
z
" transform="scale(0.015625)"/>
      <path id="DejaVuSans-39" d="M 703 97 
L 703 672 
Q 941 559 1184 500 
Q 1428 441 1663 441 
Q 2288 441 2617 861 
Q 2947 1281 2994 2138 
Q 2813 1869 2534 1725 
Q 2256 1581 1919 1581 
Q 1219 1581 811 2004 
Q 403 2428 403 3163 
Q 403 3881 828 4315 
Q 1253 4750 1959 4750 
Q 2769 4750 3195 4129 
Q 3622 3509 3622 2328 
Q 3622 1225 3098 567 
Q 2575 -91 1691 -91 
Q 1453 -91 1209 -44 
Q 966 3 703 97 
z
M 1959 2075 
Q 2384 2075 2632 2365 
Q 2881 2656 2881 3163 
Q 2881 3666 2632 3958 
Q 2384 4250 1959 4250 
Q 1534 4250 1286 3958 
Q 1038 3666 1038 3163 
Q 1038 2656 1286 2365 
Q 1534 2075 1959 2075 
z
" transform="scale(0.015625)"/>
      <path id="DejaVuSans-33" d="M 2597 2516 
Q 3050 2419 3304 2112 
Q 3559 1806 3559 1356 
Q 3559 666 3084 287 
Q 2609 -91 1734 -91 
Q 1441 -91 1130 -33 
Q 819 25 488 141 
L 488 750 
Q 750 597 1062 519 
Q 1375 441 1716 441 
Q 2309 441 2620 675 
Q 2931 909 2931 1356 
Q 2931 1769 2642 2001 
Q 2353 2234 1838 2234 
L 1294 2234 
L 1294 2753 
L 1863 2753 
Q 2328 2753 2575 2939 
Q 2822 3125 2822 3475 
Q 2822 3834 2567 4026 
Q 2313 4219 1838 4219 
Q 1578 4219 1281 4162 
Q 984 4106 628 3988 
L 628 4550 
Q 988 4650 1302 4700 
Q 1616 4750 1894 4750 
Q 2613 4750 3031 4423 
Q 3450 4097 3450 3541 
Q 3450 3153 3228 2886 
Q 3006 2619 2597 2516 
z
" transform="scale(0.015625)"/>
     </defs>
     <use xlink:href="#DejaVuSans-41"/>
     <use xlink:href="#DejaVuSans-52" x="68.408203"/>
     <use xlink:href="#DejaVuSans-49" x="137.890625"/>
     <use xlink:href="#DejaVuSans-4d" x="167.382812"/>
     <use xlink:href="#DejaVuSans-41" x="253.662109"/>
     <use xlink:href="#DejaVuSans-20" x="322.070312"/>
     <use xlink:href="#DejaVuSans-28" x="353.857422"/>
     <use xlink:href="#DejaVuSans-34" x="392.871094"/>
     <use xlink:href="#DejaVuSans-2c" x="456.494141"/>
     <use xlink:href="#DejaVuSans-20" x="488.28125"/>
     <use xlink:href="#DejaVuSans-31" x="520.068359"/>
     <use xlink:href="#DejaVuSans-2c" x="583.691406"/>
     <use xlink:href="#DejaVuSans-20" x="615.478516"/>
     <use xlink:href="#DejaVuSans-30" x="647.265625"/>
     <use xlink:href="#DejaVuSans-29" x="710.888672"/>
     <use xlink:href="#DejaVuSans-78" x="749.902344"/>
     <use xlink:href="#DejaVuSans-28" x="809.082031"/>
     <use xlink:href="#DejaVuSans-31" x="848.095703"/>
     <use xlink:href="#DejaVuSans-2c" x="911.71875"/>
     <use xlink:href="#DejaVuSans-20" x="943.505859"/>
     <use xlink:href="#DejaVuSans-30" x="975.292969"/>
     <use xlink:href="#DejaVuSans-2c" x="1038.916016"/>
     <use xlink:href="#DejaVuSans-20" x="1070.703125"/>
     <use xlink:href="#DejaVuSans-31" x="1102.490234"/>
     <use xlink:href="#DejaVuSans-2c" x="1166.113281"/>
     <use xlink:href="#DejaVuSans-20" x="1197.900391"/>
     <use xlink:href="#DejaVuSans-37" x="1229.6875"/>
     <use xlink:href="#DejaVuSans-29" x="1293.310547"/>
     <use xlink:href="#DejaVuSans-20" x="1332.324219"/>
     <use xlink:href="#DejaVuSans-28" x="1364.111328"/>
     <use xlink:href="#DejaVuSans-52" x="1403.125"/>
     <use xlink:href="#DejaVuSans-32" x="1472.607422"/>
     <use xlink:href="#DejaVuSans-20" x="1536.230469"/>
     <use xlink:href="#DejaVuSans-3d" x="1568.017578"/>
     <use xlink:href="#DejaVuSans-20" x="1651.806641"/>
     <use xlink:href="#DejaVuSans-30" x="1683.59375"/>
     <use xlink:href="#DejaVuSans-2e" x="1747.216797"/>
     <use xlink:href="#DejaVuSans-37" x="1779.003906"/>
     <use xlink:href="#DejaVuSans-34" x="1842.626953"/>
     <use xlink:href="#DejaVuSans-39" x="1906.25"/>
     <use xlink:href="#DejaVuSans-37" x="1969.873047"/>
     <use xlink:href="#DejaVuSans-39" x="2033.496094"/>
     <use xlink:href="#DejaVuSans-33" x="2097.119141"/>
     <use xlink:href="#DejaVuSans-29" x="2160.742188"/>
    </g>
   </g>
   <g id="legend_1">
    <g id="patch_7">
     <path d="M 1289.5125 87.789875 
L 1386.592188 87.789875 
Q 1388.592188 87.789875 1388.592188 85.789875 
L 1388.592188 42.7555 
Q 1388.592188 40.7555 1386.592188 40.7555 
L 1289.5125 40.7555 
Q 1287.5125 40.7555 1287.5125 42.7555 
L 1287.5125 85.789875 
Q 1287.5125 87.789875 1289.5125 87.789875 
z
" style="fill: #ffffff; opacity: 0.8; stroke: #cccccc; stroke-linejoin: miter"/>
    </g>
    <g id="line2d_22">
     <path d="M 1291.5125 48.853937 
L 1301.5125 48.853937 
L 1311.5125 48.853937 
" style="fill: none; stroke: #0000ff; stroke-width: 1.5; stroke-linecap: square"/>
    </g>
    <g id="text_20">
     <!-- Actual Value -->
     <g transform="translate(1319.5125 52.353937)scale(0.1 -0.1)">
      <defs>
       <path id="DejaVuSans-75" d="M 544 1381 
L 544 3500 
L 1119 3500 
L 1119 1403 
Q 1119 906 1312 657 
Q 1506 409 1894 409 
Q 2359 409 2629 706 
Q 2900 1003 2900 1516 
L 2900 3500 
L 3475 3500 
L 3475 0 
L 2900 0 
L 2900 538 
Q 2691 219 2414 64 
Q 2138 -91 1772 -91 
Q 1169 -91 856 284 
Q 544 659 544 1381 
z
M 1991 3584 
L 1991 3584 
z
" transform="scale(0.015625)"/>
       <path id="DejaVuSans-56" d="M 1831 0 
L 50 4666 
L 709 4666 
L 2188 738 
L 3669 4666 
L 4325 4666 
L 2547 0 
L 1831 0 
z
" transform="scale(0.015625)"/>
      </defs>
      <use xlink:href="#DejaVuSans-41"/>
      <use xlink:href="#DejaVuSans-63" x="66.658203"/>
      <use xlink:href="#DejaVuSans-74" x="121.638672"/>
      <use xlink:href="#DejaVuSans-75" x="160.847656"/>
      <use xlink:href="#DejaVuSans-61" x="224.226562"/>
      <use xlink:href="#DejaVuSans-6c" x="285.505859"/>
      <use xlink:href="#DejaVuSans-20" x="313.289062"/>
      <use xlink:href="#DejaVuSans-56" x="345.076172"/>
      <use xlink:href="#DejaVuSans-61" x="405.734375"/>
      <use xlink:href="#DejaVuSans-6c" x="467.013672"/>
      <use xlink:href="#DejaVuSans-75" x="494.796875"/>
      <use xlink:href="#DejaVuSans-65" x="558.175781"/>
     </g>
    </g>
    <g id="line2d_23">
     <path d="M 1291.5125 63.532062 
L 1301.5125 63.532062 
L 1311.5125 63.532062 
" style="fill: none; stroke: #ffa500; stroke-width: 1.5; stroke-linecap: square"/>
    </g>
    <g id="text_21">
     <!-- Check Value -->
     <g transform="translate(1319.5125 67.032062)scale(0.1 -0.1)">
      <defs>
       <path id="DejaVuSans-68" d="M 3513 2113 
L 3513 0 
L 2938 0 
L 2938 2094 
Q 2938 2591 2744 2837 
Q 2550 3084 2163 3084 
Q 1697 3084 1428 2787 
Q 1159 2491 1159 1978 
L 1159 0 
L 581 0 
L 581 4863 
L 1159 4863 
L 1159 2956 
Q 1366 3272 1645 3428 
Q 1925 3584 2291 3584 
Q 2894 3584 3203 3211 
Q 3513 2838 3513 2113 
z
" transform="scale(0.015625)"/>
       <path id="DejaVuSans-6b" d="M 581 4863 
L 1159 4863 
L 1159 1991 
L 2875 3500 
L 3609 3500 
L 1753 1863 
L 3688 0 
L 2938 0 
L 1159 1709 
L 1159 0 
L 581 0 
L 581 4863 
z
" transform="scale(0.015625)"/>
      </defs>
      <use xlink:href="#DejaVuSans-43"/>
      <use xlink:href="#DejaVuSans-68" x="69.824219"/>
      <use xlink:href="#DejaVuSans-65" x="133.203125"/>
      <use xlink:href="#DejaVuSans-63" x="194.726562"/>
      <use xlink:href="#DejaVuSans-6b" x="249.707031"/>
      <use xlink:href="#DejaVuSans-20" x="307.617188"/>
      <use xlink:href="#DejaVuSans-56" x="339.404297"/>
      <use xlink:href="#DejaVuSans-61" x="400.0625"/>
      <use xlink:href="#DejaVuSans-6c" x="461.341797"/>
      <use xlink:href="#DejaVuSans-75" x="489.125"/>
      <use xlink:href="#DejaVuSans-65" x="552.503906"/>
     </g>
    </g>
    <g id="line2d_24">
     <path d="M 1291.5125 78.210187 
L 1301.5125 78.210187 
L 1311.5125 78.210187 
" style="fill: none; stroke: #ff0000; stroke-width: 1.5; stroke-linecap: square"/>
    </g>
    <g id="text_22">
     <!-- Predict Value -->
     <g transform="translate(1319.5125 81.710187)scale(0.1 -0.1)">
      <defs>
       <path id="DejaVuSans-50" d="M 1259 4147 
L 1259 2394 
L 2053 2394 
Q 2494 2394 2734 2622 
Q 2975 2850 2975 3272 
Q 2975 3691 2734 3919 
Q 2494 4147 2053 4147 
L 1259 4147 
z
M 628 4666 
L 2053 4666 
Q 2838 4666 3239 4311 
Q 3641 3956 3641 3272 
Q 3641 2581 3239 2228 
Q 2838 1875 2053 1875 
L 1259 1875 
L 1259 0 
L 628 0 
L 628 4666 
z
" transform="scale(0.015625)"/>
      </defs>
      <use xlink:href="#DejaVuSans-50"/>
      <use xlink:href="#DejaVuSans-72" x="58.552734"/>
      <use xlink:href="#DejaVuSans-65" x="97.416016"/>
      <use xlink:href="#DejaVuSans-64" x="158.939453"/>
      <use xlink:href="#DejaVuSans-69" x="222.416016"/>
      <use xlink:href="#DejaVuSans-63" x="250.199219"/>
      <use xlink:href="#DejaVuSans-74" x="305.179688"/>
      <use xlink:href="#DejaVuSans-20" x="344.388672"/>
      <use xlink:href="#DejaVuSans-56" x="376.175781"/>
      <use xlink:href="#DejaVuSans-61" x="436.833984"/>
      <use xlink:href="#DejaVuSans-6c" x="498.113281"/>
      <use xlink:href="#DejaVuSans-75" x="525.896484"/>
      <use xlink:href="#DejaVuSans-65" x="589.275391"/>
     </g>
    </g>
   </g>
  </g>
 </g>
 <defs>
  <clipPath id="pd49867d950">
   <rect x="54.392188" y="35.7555" width="1339.2" height="332.64"/>
  </clipPath>
 </defs>
</svg>
