<?xml version="1.0" encoding="utf-8" standalone="no"?>
<!DOCTYPE svg PUBLIC "-//W3C//DTD SVG 1.1//EN"
  "http://www.w3.org/Graphics/SVG/1.1/DTD/svg11.dtd">
<svg xmlns:xlink="http://www.w3.org/1999/xlink" width="1392.4125pt" height="392.273625pt" viewBox="0 0 1392.4125 392.273625" xmlns="http://www.w3.org/2000/svg" version="1.1">
 <metadata>
  <rdf:RDF xmlns:dc="http://purl.org/dc/elements/1.1/" xmlns:cc="http://creativecommons.org/ns#" xmlns:rdf="http://www.w3.org/1999/02/22-rdf-syntax-ns#">
   <cc:Work>
    <dc:type rdf:resource="http://purl.org/dc/dcmitype/StillImage"/>
    <dc:date>2022-08-01T19:45:40.039380</dc:date>
    <dc:format>image/svg+xml</dc:format>
    <dc:creator>
     <cc:Agent>
      <dc:title>Matplotlib v3.5.2, https://matplotlib.org/</dc:title>
     </cc:Agent>
    </dc:creator>
   </cc:Work>
  </rdf:RDF>
 </metadata>
 <defs>
  <style type="text/css">*{stroke-linejoin: round; stroke-linecap: butt}</style>
 </defs>
 <g id="figure_1">
  <g id="patch_1">
   <path d="M 0 392.273625 
L 1392.4125 392.273625 
L 1392.4125 0 
L 0 0 
z
" style="fill: #ffffff"/>
  </g>
  <g id="axes_1">
   <g id="patch_2">
    <path d="M 46.0125 368.3955 
L 1385.2125 368.3955 
L 1385.2125 35.7555 
L 46.0125 35.7555 
z
" style="fill: #ffffff"/>
   </g>
   <g id="matplotlib.axis_1">
    <g id="xtick_1">
     <g id="line2d_1">
      <defs>
       <path id="medfb894662" d="M 0 0 
L 0 3.5 
" style="stroke: #000000; stroke-width: 0.8"/>
      </defs>
      <g>
       <use xlink:href="#medfb894662" x="78.177832" y="368.3955" style="stroke: #000000; stroke-width: 0.8"/>
      </g>
     </g>
     <g id="text_1">
      <!-- 2020-01 -->
      <g transform="translate(57.286426 382.993937)scale(0.1 -0.1)">
       <defs>
        <path id="DejaVuSans-32" d="M 1228 531 
L 3431 531 
L 3431 0 
L 469 0 
L 469 531 
Q 828 903 1448 1529 
Q 2069 2156 2228 2338 
Q 2531 2678 2651 2914 
Q 2772 3150 2772 3378 
Q 2772 3750 2511 3984 
Q 2250 4219 1831 4219 
Q 1534 4219 1204 4116 
Q 875 4013 500 3803 
L 500 4441 
Q 881 4594 1212 4672 
Q 1544 4750 1819 4750 
Q 2544 4750 2975 4387 
Q 3406 4025 3406 3419 
Q 3406 3131 3298 2873 
Q 3191 2616 2906 2266 
Q 2828 2175 2409 1742 
Q 1991 1309 1228 531 
z
" transform="scale(0.015625)"/>
        <path id="DejaVuSans-30" d="M 2034 4250 
Q 1547 4250 1301 3770 
Q 1056 3291 1056 2328 
Q 1056 1369 1301 889 
Q 1547 409 2034 409 
Q 2525 409 2770 889 
Q 3016 1369 3016 2328 
Q 3016 3291 2770 3770 
Q 2525 4250 2034 4250 
z
M 2034 4750 
Q 2819 4750 3233 4129 
Q 3647 3509 3647 2328 
Q 3647 1150 3233 529 
Q 2819 -91 2034 -91 
Q 1250 -91 836 529 
Q 422 1150 422 2328 
Q 422 3509 836 4129 
Q 1250 4750 2034 4750 
z
" transform="scale(0.015625)"/>
        <path id="DejaVuSans-2d" d="M 313 2009 
L 1997 2009 
L 1997 1497 
L 313 1497 
L 313 2009 
z
" transform="scale(0.015625)"/>
        <path id="DejaVuSans-31" d="M 794 531 
L 1825 531 
L 1825 4091 
L 703 3866 
L 703 4441 
L 1819 4666 
L 2450 4666 
L 2450 531 
L 3481 531 
L 3481 0 
L 794 0 
L 794 531 
z
" transform="scale(0.015625)"/>
       </defs>
       <use xlink:href="#DejaVuSans-32"/>
       <use xlink:href="#DejaVuSans-30" x="63.623047"/>
       <use xlink:href="#DejaVuSans-32" x="127.246094"/>
       <use xlink:href="#DejaVuSans-30" x="190.869141"/>
       <use xlink:href="#DejaVuSans-2d" x="254.492188"/>
       <use xlink:href="#DejaVuSans-30" x="290.576172"/>
       <use xlink:href="#DejaVuSans-31" x="354.199219"/>
      </g>
     </g>
    </g>
    <g id="xtick_2">
     <g id="line2d_2">
      <g>
       <use xlink:href="#medfb894662" x="196.922059" y="368.3955" style="stroke: #000000; stroke-width: 0.8"/>
      </g>
     </g>
     <g id="text_2">
      <!-- 2020-04 -->
      <g transform="translate(176.030652 382.993937)scale(0.1 -0.1)">
       <defs>
        <path id="DejaVuSans-34" d="M 2419 4116 
L 825 1625 
L 2419 1625 
L 2419 4116 
z
M 2253 4666 
L 3047 4666 
L 3047 1625 
L 3713 1625 
L 3713 1100 
L 3047 1100 
L 3047 0 
L 2419 0 
L 2419 1100 
L 313 1100 
L 313 1709 
L 2253 4666 
z
" transform="scale(0.015625)"/>
       </defs>
       <use xlink:href="#DejaVuSans-32"/>
       <use xlink:href="#DejaVuSans-30" x="63.623047"/>
       <use xlink:href="#DejaVuSans-32" x="127.246094"/>
       <use xlink:href="#DejaVuSans-30" x="190.869141"/>
       <use xlink:href="#DejaVuSans-2d" x="254.492188"/>
       <use xlink:href="#DejaVuSans-30" x="290.576172"/>
       <use xlink:href="#DejaVuSans-34" x="354.199219"/>
      </g>
     </g>
    </g>
    <g id="xtick_3">
     <g id="line2d_3">
      <g>
       <use xlink:href="#medfb894662" x="315.666285" y="368.3955" style="stroke: #000000; stroke-width: 0.8"/>
      </g>
     </g>
     <g id="text_3">
      <!-- 2020-07 -->
      <g transform="translate(294.774879 382.993937)scale(0.1 -0.1)">
       <defs>
        <path id="DejaVuSans-37" d="M 525 4666 
L 3525 4666 
L 3525 4397 
L 1831 0 
L 1172 0 
L 2766 4134 
L 525 4134 
L 525 4666 
z
" transform="scale(0.015625)"/>
       </defs>
       <use xlink:href="#DejaVuSans-32"/>
       <use xlink:href="#DejaVuSans-30" x="63.623047"/>
       <use xlink:href="#DejaVuSans-32" x="127.246094"/>
       <use xlink:href="#DejaVuSans-30" x="190.869141"/>
       <use xlink:href="#DejaVuSans-2d" x="254.492188"/>
       <use xlink:href="#DejaVuSans-30" x="290.576172"/>
       <use xlink:href="#DejaVuSans-37" x="354.199219"/>
      </g>
     </g>
    </g>
    <g id="xtick_4">
     <g id="line2d_4">
      <g>
       <use xlink:href="#medfb894662" x="435.715394" y="368.3955" style="stroke: #000000; stroke-width: 0.8"/>
      </g>
     </g>
     <g id="text_4">
      <!-- 2020-10 -->
      <g transform="translate(414.823988 382.993937)scale(0.1 -0.1)">
       <use xlink:href="#DejaVuSans-32"/>
       <use xlink:href="#DejaVuSans-30" x="63.623047"/>
       <use xlink:href="#DejaVuSans-32" x="127.246094"/>
       <use xlink:href="#DejaVuSans-30" x="190.869141"/>
       <use xlink:href="#DejaVuSans-2d" x="254.492188"/>
       <use xlink:href="#DejaVuSans-31" x="290.576172"/>
       <use xlink:href="#DejaVuSans-30" x="354.199219"/>
      </g>
     </g>
    </g>
    <g id="xtick_5">
     <g id="line2d_5">
      <g>
       <use xlink:href="#medfb894662" x="555.764502" y="368.3955" style="stroke: #000000; stroke-width: 0.8"/>
      </g>
     </g>
     <g id="text_5">
      <!-- 2021-01 -->
      <g transform="translate(534.873096 382.993937)scale(0.1 -0.1)">
       <use xlink:href="#DejaVuSans-32"/>
       <use xlink:href="#DejaVuSans-30" x="63.623047"/>
       <use xlink:href="#DejaVuSans-32" x="127.246094"/>
       <use xlink:href="#DejaVuSans-31" x="190.869141"/>
       <use xlink:href="#DejaVuSans-2d" x="254.492188"/>
       <use xlink:href="#DejaVuSans-30" x="290.576172"/>
       <use xlink:href="#DejaVuSans-31" x="354.199219"/>
      </g>
     </g>
    </g>
    <g id="xtick_6">
     <g id="line2d_6">
      <g>
       <use xlink:href="#medfb894662" x="673.203848" y="368.3955" style="stroke: #000000; stroke-width: 0.8"/>
      </g>
     </g>
     <g id="text_6">
      <!-- 2021-04 -->
      <g transform="translate(652.312441 382.993937)scale(0.1 -0.1)">
       <use xlink:href="#DejaVuSans-32"/>
       <use xlink:href="#DejaVuSans-30" x="63.623047"/>
       <use xlink:href="#DejaVuSans-32" x="127.246094"/>
       <use xlink:href="#DejaVuSans-31" x="190.869141"/>
       <use xlink:href="#DejaVuSans-2d" x="254.492188"/>
       <use xlink:href="#DejaVuSans-30" x="290.576172"/>
       <use xlink:href="#DejaVuSans-34" x="354.199219"/>
      </g>
     </g>
    </g>
    <g id="xtick_7">
     <g id="line2d_7">
      <g>
       <use xlink:href="#medfb894662" x="791.948074" y="368.3955" style="stroke: #000000; stroke-width: 0.8"/>
      </g>
     </g>
     <g id="text_7">
      <!-- 2021-07 -->
      <g transform="translate(771.056668 382.993937)scale(0.1 -0.1)">
       <use xlink:href="#DejaVuSans-32"/>
       <use xlink:href="#DejaVuSans-30" x="63.623047"/>
       <use xlink:href="#DejaVuSans-32" x="127.246094"/>
       <use xlink:href="#DejaVuSans-31" x="190.869141"/>
       <use xlink:href="#DejaVuSans-2d" x="254.492188"/>
       <use xlink:href="#DejaVuSans-30" x="290.576172"/>
       <use xlink:href="#DejaVuSans-37" x="354.199219"/>
      </g>
     </g>
    </g>
    <g id="xtick_8">
     <g id="line2d_8">
      <g>
       <use xlink:href="#medfb894662" x="911.997183" y="368.3955" style="stroke: #000000; stroke-width: 0.8"/>
      </g>
     </g>
     <g id="text_8">
      <!-- 2021-10 -->
      <g transform="translate(891.105777 382.993937)scale(0.1 -0.1)">
       <use xlink:href="#DejaVuSans-32"/>
       <use xlink:href="#DejaVuSans-30" x="63.623047"/>
       <use xlink:href="#DejaVuSans-32" x="127.246094"/>
       <use xlink:href="#DejaVuSans-31" x="190.869141"/>
       <use xlink:href="#DejaVuSans-2d" x="254.492188"/>
       <use xlink:href="#DejaVuSans-31" x="290.576172"/>
       <use xlink:href="#DejaVuSans-30" x="354.199219"/>
      </g>
     </g>
    </g>
    <g id="xtick_9">
     <g id="line2d_9">
      <g>
       <use xlink:href="#medfb894662" x="1032.046291" y="368.3955" style="stroke: #000000; stroke-width: 0.8"/>
      </g>
     </g>
     <g id="text_9">
      <!-- 2022-01 -->
      <g transform="translate(1011.154885 382.993937)scale(0.1 -0.1)">
       <use xlink:href="#DejaVuSans-32"/>
       <use xlink:href="#DejaVuSans-30" x="63.623047"/>
       <use xlink:href="#DejaVuSans-32" x="127.246094"/>
       <use xlink:href="#DejaVuSans-32" x="190.869141"/>
       <use xlink:href="#DejaVuSans-2d" x="254.492188"/>
       <use xlink:href="#DejaVuSans-30" x="290.576172"/>
       <use xlink:href="#DejaVuSans-31" x="354.199219"/>
      </g>
     </g>
    </g>
    <g id="xtick_10">
     <g id="line2d_10">
      <g>
       <use xlink:href="#medfb894662" x="1149.485637" y="368.3955" style="stroke: #000000; stroke-width: 0.8"/>
      </g>
     </g>
     <g id="text_10">
      <!-- 2022-04 -->
      <g transform="translate(1128.59423 382.993937)scale(0.1 -0.1)">
       <use xlink:href="#DejaVuSans-32"/>
       <use xlink:href="#DejaVuSans-30" x="63.623047"/>
       <use xlink:href="#DejaVuSans-32" x="127.246094"/>
       <use xlink:href="#DejaVuSans-32" x="190.869141"/>
       <use xlink:href="#DejaVuSans-2d" x="254.492188"/>
       <use xlink:href="#DejaVuSans-30" x="290.576172"/>
       <use xlink:href="#DejaVuSans-34" x="354.199219"/>
      </g>
     </g>
    </g>
    <g id="xtick_11">
     <g id="line2d_11">
      <g>
       <use xlink:href="#medfb894662" x="1268.229863" y="368.3955" style="stroke: #000000; stroke-width: 0.8"/>
      </g>
     </g>
     <g id="text_11">
      <!-- 2022-07 -->
      <g transform="translate(1247.338457 382.993937)scale(0.1 -0.1)">
       <use xlink:href="#DejaVuSans-32"/>
       <use xlink:href="#DejaVuSans-30" x="63.623047"/>
       <use xlink:href="#DejaVuSans-32" x="127.246094"/>
       <use xlink:href="#DejaVuSans-32" x="190.869141"/>
       <use xlink:href="#DejaVuSans-2d" x="254.492188"/>
       <use xlink:href="#DejaVuSans-30" x="290.576172"/>
       <use xlink:href="#DejaVuSans-37" x="354.199219"/>
      </g>
     </g>
    </g>
   </g>
   <g id="matplotlib.axis_2">
    <g id="ytick_1">
     <g id="line2d_12">
      <defs>
       <path id="m169c165a9a" d="M 0 0 
L -3.5 0 
" style="stroke: #000000; stroke-width: 0.8"/>
      </defs>
      <g>
       <use xlink:href="#m169c165a9a" x="46.0125" y="350.630175" style="stroke: #000000; stroke-width: 0.8"/>
      </g>
     </g>
     <g id="text_12">
      <!-- 0 -->
      <g transform="translate(32.65 354.429394)scale(0.1 -0.1)">
       <use xlink:href="#DejaVuSans-30"/>
      </g>
     </g>
    </g>
    <g id="ytick_2">
     <g id="line2d_13">
      <g>
       <use xlink:href="#m169c165a9a" x="46.0125" y="312.068583" style="stroke: #000000; stroke-width: 0.8"/>
      </g>
     </g>
     <g id="text_13">
      <!-- 5000 -->
      <g transform="translate(13.5625 315.867802)scale(0.1 -0.1)">
       <defs>
        <path id="DejaVuSans-35" d="M 691 4666 
L 3169 4666 
L 3169 4134 
L 1269 4134 
L 1269 2991 
Q 1406 3038 1543 3061 
Q 1681 3084 1819 3084 
Q 2600 3084 3056 2656 
Q 3513 2228 3513 1497 
Q 3513 744 3044 326 
Q 2575 -91 1722 -91 
Q 1428 -91 1123 -41 
Q 819 9 494 109 
L 494 744 
Q 775 591 1075 516 
Q 1375 441 1709 441 
Q 2250 441 2565 725 
Q 2881 1009 2881 1497 
Q 2881 1984 2565 2268 
Q 2250 2553 1709 2553 
Q 1456 2553 1204 2497 
Q 953 2441 691 2322 
L 691 4666 
z
" transform="scale(0.015625)"/>
       </defs>
       <use xlink:href="#DejaVuSans-35"/>
       <use xlink:href="#DejaVuSans-30" x="63.623047"/>
       <use xlink:href="#DejaVuSans-30" x="127.246094"/>
       <use xlink:href="#DejaVuSans-30" x="190.869141"/>
      </g>
     </g>
    </g>
    <g id="ytick_3">
     <g id="line2d_14">
      <g>
       <use xlink:href="#m169c165a9a" x="46.0125" y="273.506992" style="stroke: #000000; stroke-width: 0.8"/>
      </g>
     </g>
     <g id="text_14">
      <!-- 10000 -->
      <g transform="translate(7.2 277.306211)scale(0.1 -0.1)">
       <use xlink:href="#DejaVuSans-31"/>
       <use xlink:href="#DejaVuSans-30" x="63.623047"/>
       <use xlink:href="#DejaVuSans-30" x="127.246094"/>
       <use xlink:href="#DejaVuSans-30" x="190.869141"/>
       <use xlink:href="#DejaVuSans-30" x="254.492188"/>
      </g>
     </g>
    </g>
    <g id="ytick_4">
     <g id="line2d_15">
      <g>
       <use xlink:href="#m169c165a9a" x="46.0125" y="234.945401" style="stroke: #000000; stroke-width: 0.8"/>
      </g>
     </g>
     <g id="text_15">
      <!-- 15000 -->
      <g transform="translate(7.2 238.744619)scale(0.1 -0.1)">
       <use xlink:href="#DejaVuSans-31"/>
       <use xlink:href="#DejaVuSans-35" x="63.623047"/>
       <use xlink:href="#DejaVuSans-30" x="127.246094"/>
       <use xlink:href="#DejaVuSans-30" x="190.869141"/>
       <use xlink:href="#DejaVuSans-30" x="254.492188"/>
      </g>
     </g>
    </g>
    <g id="ytick_5">
     <g id="line2d_16">
      <g>
       <use xlink:href="#m169c165a9a" x="46.0125" y="196.383809" style="stroke: #000000; stroke-width: 0.8"/>
      </g>
     </g>
     <g id="text_16">
      <!-- 20000 -->
      <g transform="translate(7.2 200.183028)scale(0.1 -0.1)">
       <use xlink:href="#DejaVuSans-32"/>
       <use xlink:href="#DejaVuSans-30" x="63.623047"/>
       <use xlink:href="#DejaVuSans-30" x="127.246094"/>
       <use xlink:href="#DejaVuSans-30" x="190.869141"/>
       <use xlink:href="#DejaVuSans-30" x="254.492188"/>
      </g>
     </g>
    </g>
    <g id="ytick_6">
     <g id="line2d_17">
      <g>
       <use xlink:href="#m169c165a9a" x="46.0125" y="157.822218" style="stroke: #000000; stroke-width: 0.8"/>
      </g>
     </g>
     <g id="text_17">
      <!-- 25000 -->
      <g transform="translate(7.2 161.621436)scale(0.1 -0.1)">
       <use xlink:href="#DejaVuSans-32"/>
       <use xlink:href="#DejaVuSans-35" x="63.623047"/>
       <use xlink:href="#DejaVuSans-30" x="127.246094"/>
       <use xlink:href="#DejaVuSans-30" x="190.869141"/>
       <use xlink:href="#DejaVuSans-30" x="254.492188"/>
      </g>
     </g>
    </g>
    <g id="ytick_7">
     <g id="line2d_18">
      <g>
       <use xlink:href="#m169c165a9a" x="46.0125" y="119.260626" style="stroke: #000000; stroke-width: 0.8"/>
      </g>
     </g>
     <g id="text_18">
      <!-- 30000 -->
      <g transform="translate(7.2 123.059845)scale(0.1 -0.1)">
       <defs>
        <path id="DejaVuSans-33" d="M 2597 2516 
Q 3050 2419 3304 2112 
Q 3559 1806 3559 1356 
Q 3559 666 3084 287 
Q 2609 -91 1734 -91 
Q 1441 -91 1130 -33 
Q 819 25 488 141 
L 488 750 
Q 750 597 1062 519 
Q 1375 441 1716 441 
Q 2309 441 2620 675 
Q 2931 909 2931 1356 
Q 2931 1769 2642 2001 
Q 2353 2234 1838 2234 
L 1294 2234 
L 1294 2753 
L 1863 2753 
Q 2328 2753 2575 2939 
Q 2822 3125 2822 3475 
Q 2822 3834 2567 4026 
Q 2313 4219 1838 4219 
Q 1578 4219 1281 4162 
Q 984 4106 628 3988 
L 628 4550 
Q 988 4650 1302 4700 
Q 1616 4750 1894 4750 
Q 2613 4750 3031 4423 
Q 3450 4097 3450 3541 
Q 3450 3153 3228 2886 
Q 3006 2619 2597 2516 
z
" transform="scale(0.015625)"/>
       </defs>
       <use xlink:href="#DejaVuSans-33"/>
       <use xlink:href="#DejaVuSans-30" x="63.623047"/>
       <use xlink:href="#DejaVuSans-30" x="127.246094"/>
       <use xlink:href="#DejaVuSans-30" x="190.869141"/>
       <use xlink:href="#DejaVuSans-30" x="254.492188"/>
      </g>
     </g>
    </g>
    <g id="ytick_8">
     <g id="line2d_19">
      <g>
       <use xlink:href="#m169c165a9a" x="46.0125" y="80.699035" style="stroke: #000000; stroke-width: 0.8"/>
      </g>
     </g>
     <g id="text_19">
      <!-- 35000 -->
      <g transform="translate(7.2 84.498254)scale(0.1 -0.1)">
       <use xlink:href="#DejaVuSans-33"/>
       <use xlink:href="#DejaVuSans-35" x="63.623047"/>
       <use xlink:href="#DejaVuSans-30" x="127.246094"/>
       <use xlink:href="#DejaVuSans-30" x="190.869141"/>
       <use xlink:href="#DejaVuSans-30" x="254.492188"/>
      </g>
     </g>
    </g>
    <g id="ytick_9">
     <g id="line2d_20">
      <g>
       <use xlink:href="#m169c165a9a" x="46.0125" y="42.137443" style="stroke: #000000; stroke-width: 0.8"/>
      </g>
     </g>
     <g id="text_20">
      <!-- 40000 -->
      <g transform="translate(7.2 45.936662)scale(0.1 -0.1)">
       <use xlink:href="#DejaVuSans-34"/>
       <use xlink:href="#DejaVuSans-30" x="63.623047"/>
       <use xlink:href="#DejaVuSans-30" x="127.246094"/>
       <use xlink:href="#DejaVuSans-30" x="190.869141"/>
       <use xlink:href="#DejaVuSans-30" x="254.492188"/>
      </g>
     </g>
    </g>
   </g>
   <g id="line2d_21">
    <path d="M 106.885227 350.630175 
L 168.214663 350.529915 
L 169.519545 350.506778 
L 170.824426 350.607038 
L 172.129308 350.537627 
L 173.43419 350.267696 
L 176.043953 350.61475 
L 177.348834 350.283121 
L 178.653716 350.51449 
L 181.263479 350.529915 
L 182.568361 350.036326 
L 185.178124 349.997765 
L 187.787887 349.98234 
L 189.092769 350.0826 
L 190.397651 349.889792 
L 191.702532 348.532424 
L 193.007414 347.98485 
L 194.312295 349.642998 
L 195.617177 346.480948 
L 196.922059 348.879479 
L 198.22694 348.146808 
L 199.531822 347.660932 
L 200.836703 350.044039 
L 202.141585 349.457902 
L 203.446467 347.437275 
L 204.751348 349.828094 
L 206.05623 349.812669 
L 207.361112 349.041437 
L 208.665993 349.712409 
L 209.970875 348.833205 
L 211.275756 348.933465 
L 212.580638 348.439876 
L 213.88552 348.38589 
L 215.190401 348.856342 
L 216.495283 349.033725 
L 217.800164 348.948889 
L 219.105046 349.0183 
L 220.409928 349.303656 
L 221.714809 349.087711 
L 223.019691 349.55045 
L 224.324572 349.774107 
L 225.629454 348.540137 
L 226.934336 349.002876 
L 228.239217 349.843518 
L 229.544099 348.432164 
L 230.848981 349.103136 
L 232.153862 349.234245 
L 233.458744 348.671246 
L 236.068507 348.439876 
L 237.373389 349.427053 
L 238.67827 348.355041 
L 239.983152 348.609547 
L 241.288033 349.095423 
L 242.592915 348.162233 
L 243.897797 348.015699 
L 245.202678 349.704697 
L 247.812442 349.211108 
L 249.117323 348.378178 
L 250.422205 348.594123 
L 253.031968 348.640397 
L 254.33685 348.972026 
L 259.556376 348.902616 
L 260.861258 348.478438 
L 262.166139 348.987451 
L 263.471021 349.373067 
L 264.775903 349.241958 
L 266.080784 348.640397 
L 267.385666 348.439876 
L 268.690547 347.930863 
L 269.995429 347.699494 
L 271.300311 346.473235 
L 272.605192 342.56309 
L 273.910074 346.079907 
L 275.214955 343.982156 
L 276.519837 346.372975 
L 277.824719 347.861453 
L 279.1296 344.838224 
L 280.434482 345.740565 
L 281.739363 348.748369 
L 283.044245 345.12358 
L 284.349127 346.349838 
L 285.654008 346.164743 
L 286.95889 346.635194 
L 288.263772 344.923059 
L 289.568653 347.213618 
L 290.873535 345.910236 
L 292.178416 345.964222 
L 293.483298 346.480948 
L 294.78818 346.851139 
L 296.093061 347.846028 
L 300.007706 345.540045 
L 301.312588 343.372883 
L 302.617469 345.601743 
L 303.922351 345.771414 
L 305.227233 341.814995 
L 306.532114 347.005385 
L 307.836996 344.66084 
L 309.141877 342.887007 
L 310.446759 345.000182 
L 311.751641 345.601743 
L 313.056522 343.048966 
L 314.361404 342.33172 
L 315.666285 342.940993 
L 316.971167 348.362753 
L 318.276049 338.822616 
L 319.58093 339.107971 
L 320.885812 331.935515 
L 322.190694 334.596265 
L 323.495575 338.753205 
L 324.800457 331.457352 
L 326.105338 339.871491 
L 327.41022 341.683886 
L 328.715102 340.542463 
L 330.019983 334.920182 
L 331.324865 344.869073 
L 332.629746 346.473235 
L 333.934628 340.565599 
L 335.23951 331.997214 
L 336.544391 337.249303 
L 337.849273 332.868706 
L 339.154154 334.033266 
L 340.459036 339.509012 
L 341.763918 336.238989 
L 343.068799 339.023136 
L 344.373681 334.272348 
L 345.678563 334.789073 
L 346.983444 335.452332 
L 348.288326 334.927895 
L 349.593207 338.352164 
L 350.898089 338.035959 
L 352.202971 336.647742 
L 353.507852 320.644681 
L 354.812734 319.935148 
L 356.117615 313.009486 
L 357.422497 312.431062 
L 358.727379 326.374934 
L 360.03226 302.327925 
L 361.337142 324.508553 
L 362.642024 323.791307 
L 363.946905 325.225798 
L 365.251787 318.770588 
L 366.556668 327.277275 
L 367.86155 298.764834 
L 369.166432 328.264452 
L 370.471313 318.153603 
L 371.776195 321.500749 
L 373.081076 303.322814 
L 374.385958 317.791124 
L 375.69084 324.909593 
L 376.995721 325.788798 
L 378.300603 314.081498 
L 379.605485 315.454291 
L 380.910366 317.868247 
L 382.215248 317.135577 
L 383.520129 312.963212 
L 384.825011 332.490802 
L 386.129893 314.760182 
L 387.434774 328.171904 
L 388.739656 310.549257 
L 390.044537 325.79651 
L 391.349419 320.066257 
L 392.654301 322.966089 
L 393.959182 317.737137 
L 395.264064 324.230909 
L 396.568945 324.061238 
L 397.873827 333.84817 
L 399.178709 335.490894 
L 400.48359 322.333679 
L 401.788472 331.364804 
L 403.093354 329.074245 
L 404.398235 340.125997 
L 405.703117 325.488017 
L 407.007998 326.290098 
L 408.31288 321.292516 
L 409.617762 319.649792 
L 410.922643 312.847528 
L 412.227525 324.770772 
L 413.532406 314.598224 
L 414.837288 323.490527 
L 416.14217 323.428828 
L 417.447051 324.755347 
L 418.751933 325.665401 
L 420.056815 320.289915 
L 421.361696 325.310634 
L 422.666578 324.045814 
L 423.971459 338.298178 
L 425.276341 329.020259 
L 426.581223 333.940718 
L 427.886104 330.531873 
L 429.190986 336.015332 
L 430.495867 327.72459 
L 431.800749 327.015056 
L 433.105631 335.089853 
L 434.410512 332.190022 
L 435.715394 332.236296 
L 437.020276 330.58586 
L 438.325157 330.177107 
L 439.630039 326.205263 
L 440.93492 333.161774 
L 442.239802 334.657964 
L 443.544684 329.004834 
L 444.849565 333.41628 
L 446.154447 328.256739 
L 447.459328 334.002417 
L 448.76421 332.004926 
L 450.069092 323.829869 
L 451.373973 335.999907 
L 452.678855 336.570619 
L 453.983736 333.956143 
L 455.288618 327.092179 
L 456.5935 330.670695 
L 457.898381 333.046089 
L 459.203263 330.956051 
L 460.508145 338.244192 
L 461.813026 339.308492 
L 463.117908 337.943411 
L 464.422789 335.891935 
L 465.727671 335.051292 
L 467.032553 333.593664 
L 468.337434 338.275041 
L 469.642316 338.953725 
L 470.947197 334.927895 
L 472.252079 337.095056 
L 473.556961 335.220963 
L 474.861842 336.778851 
L 476.166724 332.244008 
L 477.471606 332.992103 
L 478.776487 337.048782 
L 480.081369 343.102952 
L 481.38625 338.383013 
L 482.691132 334.557704 
L 483.996014 334.033266 
L 485.300895 331.858392 
L 486.605777 334.789073 
L 487.910658 340.604161 
L 489.21554 337.77374 
L 490.520422 339.80208 
L 491.825303 336.030756 
L 493.130185 338.10537 
L 494.435067 339.053985 
L 495.739948 337.24159 
L 497.04483 341.807283 
L 498.349711 339.994888 
L 499.654593 340.349655 
L 500.959475 338.00511 
L 502.264356 336.863687 
L 503.569238 335.467757 
L 504.874119 336.778851 
L 506.179001 342.084926 
L 507.483883 341.429379 
L 508.788764 339.971751 
L 511.398527 336.138729 
L 512.703409 334.688813 
L 514.008291 337.010221 
L 515.313172 340.642723 
L 516.618054 339.586135 
L 517.922936 342.485967 
L 519.227817 343.442294 
L 520.532699 337.334138 
L 521.83758 337.017933 
L 524.447344 339.940902 
L 527.057107 340.018025 
L 528.361988 339.06941 
L 530.971752 342.385707 
L 532.276633 340.349655 
L 533.581515 342.100351 
L 534.886397 341.768721 
L 536.191278 339.377902 
L 537.49616 334.318622 
L 538.801041 339.200519 
L 540.105923 337.172179 
L 541.410805 337.395837 
L 542.715686 340.527038 
L 544.020568 341.460228 
L 545.325449 337.364987 
L 546.630331 336.154153 
L 547.935213 339.80208 
L 549.240094 343.835622 
L 550.544976 344.737964 
L 551.849857 343.874184 
L 553.154739 342.871583 
L 554.459621 338.814903 
L 555.764502 337.087344 
L 557.069384 342.177474 
L 558.374266 343.758499 
L 559.679147 343.272623 
L 560.984029 343.442294 
L 562.28891 342.578515 
L 563.593792 340.249394 
L 564.898674 336.987084 
L 566.203555 335.629716 
L 567.508437 336.030756 
L 568.813318 334.850772 
L 570.1182 338.892026 
L 571.423082 339.509012 
L 572.727963 335.938208 
L 574.032845 334.889333 
L 575.337727 334.858484 
L 576.642608 336.084743 
L 577.94749 333.97928 
L 579.252371 340.23397 
L 580.557253 336.323824 
L 581.862135 336.917673 
L 583.167016 333.894444 
L 584.471898 336.8097 
L 585.776779 335.668277 
L 587.081661 340.010313 
L 588.386543 341.606762 
L 589.691424 333.34687 
L 590.996306 341.622187 
L 592.301188 336.454934 
L 593.606069 334.411169 
L 594.910951 334.418882 
L 596.215832 337.874 
L 597.520714 338.437 
L 598.825596 340.874092 
L 601.435359 336.069318 
L 602.74024 335.714551 
L 604.045122 336.832837 
L 605.350004 337.634919 
L 606.654885 341.128599 
L 607.959767 340.349655 
L 609.264648 337.349563 
L 610.56953 335.066717 
L 611.874412 335.552593 
L 613.179293 335.814811 
L 614.484175 337.642631 
L 615.789057 339.940902 
L 617.093938 341.545064 
L 618.39882 337.218453 
L 619.703701 336.015332 
L 621.008583 333.431705 
L 622.313465 336.123304 
L 623.618346 332.992103 
L 624.923228 339.763518 
L 626.228109 338.63752 
L 627.532991 333.200336 
L 628.837873 330.215668 
L 630.142754 328.110205 
L 631.447636 334.395745 
L 632.752518 334.981881 
L 634.057399 334.735087 
L 635.362281 336.894536 
L 636.667162 331.781269 
L 637.972044 327.207864 
L 639.276926 324.146074 
L 640.581807 325.380045 
L 641.886689 324.786196 
L 643.19157 330.076847 
L 644.496452 328.418698 
L 647.106215 315.38488 
L 648.411097 312.12257 
L 649.715979 312.940075 
L 651.02086 309.022218 
L 652.325742 316.487742 
L 653.630623 316.865645 
L 654.935505 309.86286 
L 656.240387 296.011537 
L 657.545268 289.008752 
L 658.85015 290.952256 
L 660.155031 288.947053 
L 661.459913 305.428277 
L 662.764795 299.28156 
L 664.069676 283.24765 
L 665.374558 274.987757 
L 666.679439 276.699892 
L 667.984321 277.748767 
L 669.289203 273.491567 
L 670.594084 279.005875 
L 671.898966 303.531047 
L 673.203848 281.905707 
L 674.508729 232.64713 
L 675.813611 253.87143 
L 677.118492 265.732975 
L 678.423374 286.255454 
L 679.728256 278.427451 
L 681.033137 301.240489 
L 683.6429 256.63244 
L 684.947782 253.030787 
L 686.252664 260.712256 
L 687.557545 263.041376 
L 688.862427 284.628155 
L 690.167309 288.183534 
L 691.47219 262.671185 
L 692.777072 268.216342 
L 694.081953 265.169976 
L 695.386835 272.882294 
L 696.691717 276.499371 
L 697.996598 293.8598 
L 699.30148 279.669134 
L 700.606361 283.209088 
L 701.911243 283.602417 
L 703.216125 276.283427 
L 704.521006 287.828767 
L 705.825888 281.95198 
L 707.13077 295.178606 
L 708.435651 297.592562 
L 709.740533 287.057535 
L 712.350296 279.730833 
L 713.655178 286.386564 
L 714.960059 294.777566 
L 716.264941 306.924467 
L 717.569822 306.955316 
L 718.874704 299.597765 
L 720.179586 291.145064 
L 721.484467 296.92159 
L 722.789349 295.55651 
L 724.09423 297.908767 
L 725.399112 314.22032 
L 726.703994 313.518499 
L 728.008875 301.541269 
L 729.313757 298.626013 
L 730.618639 298.803396 
L 731.92352 306.083824 
L 733.228402 304.649333 
L 734.533283 316.210098 
L 735.838165 314.513388 
L 737.143047 303.70843 
L 738.447928 302.44361 
L 739.75281 298.078438 
L 741.057691 338.329027 
L 742.362573 312.886089 
L 743.667455 320.043121 
L 744.972336 309.724039 
L 746.277218 300.854873 
L 747.5821 283.34791 
L 748.886981 293.343075 
L 751.496744 299.158163 
L 752.801626 310.788339 
L 754.106508 310.148216 
L 755.411389 295.232593 
L 756.716271 293.265951 
L 758.021152 297.137535 
L 759.326034 295.062922 
L 760.630916 300.299586 
L 761.935797 313.850129 
L 763.240679 308.644314 
L 764.545561 293.019157 
L 765.850442 299.25071 
L 767.155324 288.908492 
L 768.460205 294.430511 
L 769.765087 301.163365 
L 771.069969 309.153327 
L 772.37485 308.975944 
L 773.679732 299.536066 
L 774.984613 298.039876 
L 776.289495 297.075837 
L 777.594377 305.93729 
L 778.899258 310.341024 
L 780.20414 322.441651 
L 781.509021 317.174138 
L 782.813903 304.14032 
L 784.118785 298.240397 
L 785.423666 297.739096 
L 786.728548 303.731567 
L 788.03343 307.472042 
L 789.338311 316.156112 
L 790.643193 315.91703 
L 791.948074 306.0684 
L 793.252956 302.960336 
L 794.557838 305.119785 
L 795.862719 304.741881 
L 797.167601 309.161039 
L 798.472482 319.117642 
L 799.777364 317.636877 
L 801.082246 308.405232 
L 802.387127 305.358866 
L 803.692009 306.947604 
L 804.996891 305.081223 
L 806.301772 311.79094 
L 807.606654 322.873541 
L 808.911535 321.346502 
L 810.216417 310.464421 
L 811.521299 306.955316 
L 812.82618 304.117183 
L 814.131062 309.014505 
L 815.435943 307.124987 
L 816.740825 315.870756 
L 818.045707 300.145339 
L 819.350588 305.767619 
L 820.65547 297.947329 
L 821.960352 302.937199 
L 823.265233 308.412945 
L 824.570115 299.412669 
L 825.874996 296.458851 
L 827.179878 317.875959 
L 828.48476 307.286946 
L 829.789641 284.790114 
L 831.094523 287.844192 
L 832.399404 283.34791 
L 833.704286 288.368629 
L 835.009168 298.348369 
L 836.314049 294.461361 
L 837.618931 288.993327 
L 838.923812 269.427176 
L 840.228694 265.825523 
L 841.533576 276.784727 
L 842.838457 282.777199 
L 844.143339 285.522784 
L 845.448221 258.976984 
L 846.753102 255.591277 
L 848.057984 250.840489 
L 849.362865 243.205293 
L 850.667747 239.688476 
L 851.972629 240.883886 
L 853.27751 274.825798 
L 854.582392 267.182891 
L 855.887273 238.739861 
L 857.192155 221.086365 
L 858.497037 225.29729 
L 859.801918 230.441407 
L 861.1068 211.72361 
L 862.411682 257.735301 
L 863.716563 247.308247 
L 865.021445 226.369303 
L 866.326326 217.507849 
L 867.631208 202.252883 
L 868.93609 209.317367 
L 870.240971 179.578668 
L 871.545853 245.318469 
L 872.850734 241.901912 
L 874.155616 223.153266 
L 875.460498 195.735974 
L 876.765379 192.404253 
L 878.070261 197.155041 
L 879.375143 178.282998 
L 880.680024 211.985829 
L 881.984906 252.70687 
L 883.289787 135.556755 
L 884.594669 212.749349 
L 885.899551 148.174107 
L 887.204432 186.003029 
L 888.509314 190.954337 
L 889.814195 211.847007 
L 891.119077 219.944941 
L 892.423959 187.275561 
L 893.72884 194.201223 
L 895.033722 172.66843 
L 896.338603 202.561376 
L 897.643485 205.121866 
L 898.948367 224.919387 
L 900.253248 231.066104 
L 901.55813 216.94485 
L 902.863012 207.373863 
L 904.167893 220.700749 
L 905.472775 191.116296 
L 906.777656 209.348216 
L 908.082538 244.29273 
L 909.38742 252.167007 
L 910.692301 240.853036 
L 911.997183 230.927283 
L 913.302064 237.367068 
L 914.606946 248.627053 
L 915.911828 268.563396 
L 917.216709 280.987941 
L 918.521591 274.686977 
L 919.826473 273.784635 
L 921.131354 268.779341 
L 922.436236 266.134016 
L 923.741117 257.218576 
L 925.045999 286.988124 
L 926.350881 284.628155 
L 927.655762 296.003824 
L 928.960644 290.651476 
L 930.265525 292.325049 
L 931.570407 291.114215 
L 932.875289 297.731384 
L 934.18017 297.276357 
L 935.485052 316.318071 
L 936.789933 322.60361 
L 939.399697 306.0684 
L 940.704578 306.0684 
L 942.00946 310.09423 
L 943.314342 316.819371 
L 944.619223 316.965906 
L 945.924105 326.12814 
L 947.228986 322.541912 
L 948.533868 293.157979 
L 949.83875 320.143381 
L 951.143631 324.562539 
L 952.448513 326.7297 
L 953.753394 333.038377 
L 955.058276 341.051476 
L 956.363158 337.179892 
L 957.668039 332.552501 
L 958.972921 330.308216 
L 960.277803 330.639846 
L 961.582684 334.58084 
L 962.887566 339.832929 
L 964.192447 330.447038 
L 965.497329 335.691414 
L 966.802211 336.231277 
L 968.107092 335.475469 
L 969.411974 335.97677 
L 970.716855 338.822616 
L 972.021737 344.228951 
L 973.326619 341.737872 
L 974.6315 340.920366 
L 975.936382 339.393327 
L 977.241264 340.688997 
L 978.546145 335.891935 
L 979.851027 347.213618 
L 981.155908 343.172363 
L 982.46079 344.151827 
L 983.765672 343.241774 
L 985.070553 344.699402 
L 986.375435 344.537443 
L 987.680316 345.771414 
L 988.985198 346.249578 
L 990.29008 347.861453 
L 991.594961 348.28563 
L 992.899843 347.275316 
L 994.204724 347.506686 
L 995.509606 347.42185 
L 996.814488 346.92055 
L 998.119369 347.707206 
L 999.424251 349.157122 
L 1000.729133 348.71752 
L 1002.034014 347.522111 
L 1003.338896 349.056862 
L 1004.643777 349.396204 
L 1005.948659 348.840917 
L 1007.253541 349.002876 
L 1008.558422 350.128874 
L 1009.863304 350.267696 
L 1011.168185 349.851231 
L 1012.473067 347.175056 
L 1013.777949 349.928354 
L 1015.08283 350.460504 
L 1016.387712 349.45019 
L 1017.692594 350.71501 
L 1018.997475 350.128874 
L 1020.302357 349.712409 
L 1021.607238 349.635286 
L 1022.91212 347.938576 
L 1024.217002 348.632684 
L 1025.521883 349.457902 
L 1026.826765 348.169945 
L 1028.131646 345.393511 
L 1029.436528 339.293067 
L 1030.74141 329.660381 
L 1032.046291 323.583075 
L 1033.351173 316.34892 
L 1034.656055 320.644681 
L 1035.960936 309.754888 
L 1037.265818 268.679081 
L 1038.570699 218.194245 
L 1041.180463 148.4826 
L 1042.485344 130.273817 
L 1043.790226 95.483549 
L 1045.095107 135.124865 
L 1046.399989 102.594306 
L 1047.704871 90.146625 
L 1049.009752 64.480029 
L 1050.314634 50.8755 
L 1051.619515 65.143289 
L 1052.924397 65.444069 
L 1054.229279 131.723733 
L 1055.53416 174.272593 
L 1056.839042 112.682019 
L 1058.143924 99.170037 
L 1059.448805 115.859494 
L 1060.753687 121.63602 
L 1062.058568 159.056189 
L 1063.36345 214.970496 
L 1064.668332 229.955531 
L 1065.973213 210.620749 
L 1067.278095 211.469104 
L 1068.582976 217.168507 
L 1069.887858 220.415393 
L 1071.19274 238.631889 
L 1072.497621 277.648507 
L 1073.802503 291.762049 
L 1075.107385 287.674521 
L 1076.412266 284.759264 
L 1077.717148 293.02687 
L 1079.022029 288.183534 
L 1080.326911 298.039876 
L 1081.631793 325.59599 
L 1082.936674 323.305431 
L 1084.241556 316.703687 
L 1085.546437 327.015056 
L 1086.851319 321.855515 
L 1088.156201 328.171904 
L 1089.461082 330.099984 
L 1090.765964 335.220963 
L 1092.070846 330.138545 
L 1093.375727 333.693924 
L 1094.680609 334.187512 
L 1095.98549 336.570619 
L 1097.290372 339.408752 
L 1098.595254 340.426778 
L 1099.900135 344.784238 
L 1101.205017 339.640121 
L 1102.509898 338.035959 
L 1103.81478 338.676081 
L 1105.119662 341.93068 
L 1106.424543 342.694199 
L 1107.729425 343.318897 
L 1109.034306 342.439693 
L 1110.339188 343.989869 
L 1111.64407 343.033541 
L 1112.948951 344.136403 
L 1114.253833 343.450007 
L 1115.558715 343.966732 
L 1116.863596 345.031032 
L 1118.168478 347.22133 
L 1119.473359 346.211016 
L 1120.778241 353.2755 
L 1122.083123 346.133893 
L 1123.388004 345.586319 
L 1124.692886 346.295852 
L 1125.997767 346.35755 
L 1127.302649 350.630175 
L 1128.607531 344.645416 
L 1129.912412 346.064482 
L 1131.217294 346.465523 
L 1132.522176 346.650619 
L 1133.827057 346.241866 
L 1135.131939 347.483549 
L 1136.43682 348.401315 
L 1137.741702 347.537535 
L 1139.046584 347.259892 
L 1140.351465 347.475837 
L 1141.656347 347.275316 
L 1142.961228 348.115959 
L 1144.26611 347.660932 
L 1145.570992 348.779218 
L 1146.875873 348.254781 
L 1148.180755 348.154521 
L 1149.485637 347.907726 
L 1150.790518 347.776617 
L 1152.0954 345.532332 
L 1153.400281 349.612149 
L 1154.705163 348.91804 
L 1156.010045 348.61726 
L 1159.924689 348.324192 
L 1161.229571 348.524712 
L 1162.534453 348.532424 
L 1163.839334 349.04915 
L 1166.449097 348.524712 
L 1167.753979 348.570986 
L 1170.363742 349.126273 
L 1172.973506 349.427053 
L 1174.278387 347.815179 
L 1175.583269 349.604436 
L 1176.88815 348.864054 
L 1178.193032 349.041437 
L 1179.497914 349.087711 
L 1180.802795 348.995163 
L 1182.107677 349.68156 
L 1183.412558 349.133985 
L 1186.022322 349.234245 
L 1187.327203 348.779218 
L 1188.632085 348.686671 
L 1191.241848 349.596724 
L 1192.54673 349.403916 
L 1193.851611 349.334505 
L 1195.156493 349.473327 
L 1196.461375 349.280519 
L 1197.766256 349.473327 
L 1199.071138 349.24967 
L 1200.376019 349.68156 
L 1201.680901 349.797244 
L 1204.290664 349.234245 
L 1205.595546 349.288231 
L 1206.900428 349.010588 
L 1208.205309 349.396204 
L 1209.510191 352.874459 
L 1210.815072 349.866655 
L 1212.119954 349.126273 
L 1214.729717 348.756081 
L 1216.034599 349.164834 
L 1217.33948 349.157122 
L 1218.644362 349.481039 
L 1221.254125 349.095423 
L 1222.559007 349.0183 
L 1223.863888 349.164834 
L 1226.473652 349.110848 
L 1227.778533 349.627573 
L 1229.083415 349.658423 
L 1231.693178 348.894903 
L 1232.99806 348.987451 
L 1234.302941 348.941177 
L 1235.607823 349.257382 
L 1236.912705 349.334505 
L 1238.217586 349.14941 
L 1239.522468 348.686671 
L 1242.132231 348.339616 
L 1243.437113 348.254781 
L 1244.741994 347.65322 
L 1246.046876 348.648109 
L 1247.351758 348.655821 
L 1248.656639 347.483549 
L 1249.961521 346.473235 
L 1251.266402 346.126181 
L 1252.571284 345.910236 
L 1253.876166 346.550358 
L 1255.181047 347.491261 
L 1256.485929 346.05677 
L 1257.79081 345.108155 
L 1260.400574 344.637704 
L 1261.705455 344.090129 
L 1263.010337 343.943595 
L 1264.315219 346.187879 
L 1265.6201 344.606854 
L 1266.924982 340.550175 
L 1268.229863 341.051476 
L 1269.534745 340.588736 
L 1270.839627 340.449915 
L 1272.144508 342.03094 
L 1273.44939 344.776525 
L 1274.754271 341.969241 
L 1276.059153 336.262126 
L 1277.364035 337.989685 
L 1278.668916 337.118193 
L 1279.973798 335.629716 
L 1281.278679 338.390726 
L 1282.583561 340.149134 
L 1283.888443 338.282753 
L 1285.193324 332.367405 
L 1286.498206 330.670695 
L 1289.107969 330.917489 
L 1290.412851 333.030664 
L 1291.717732 336.447221 
L 1293.022614 335.683702 
L 1294.327496 328.827451 
L 1295.632377 324.50084 
L 1296.937259 322.83498 
L 1298.24214 323.212883 
L 1299.547022 328.503534 
L 1300.851904 332.436816 
L 1302.156785 329.606395 
L 1303.461667 320.876051 
L 1304.766549 318.793725 
L 1306.07143 319.827176 
L 1307.376312 318.554643 
L 1307.376312 318.554643 
" clip-path="url(#p9584a240bf)" style="fill: none; stroke: #0000ff; stroke-width: 1.5; stroke-linecap: square"/>
   </g>
   <g id="line2d_22">
    <path d="M 1067.278095 216.064938 
L 1068.582976 224.679532 
L 1069.887858 238.260046 
L 1071.19274 273.604551 
L 1072.497621 288.129304 
L 1073.802503 274.960662 
L 1075.107385 281.963038 
L 1076.412266 291.005656 
L 1077.717148 295.963336 
L 1079.022029 304.793186 
L 1080.326911 326.700996 
L 1081.631793 334.844424 
L 1082.936674 319.958795 
L 1084.241556 313.224418 
L 1085.546437 326.708794 
L 1086.851319 324.777553 
L 1088.156201 333.292777 
L 1089.461082 352.94061 
L 1090.765964 342.141901 
L 1092.070846 325.680987 
L 1093.375727 332.308068 
L 1094.680609 334.034688 
L 1095.98549 337.06446 
L 1097.290372 342.424947 
L 1098.595254 349.925341 
L 1099.900135 344.543601 
L 1101.205017 340.012352 
L 1102.509898 339.013756 
L 1103.81478 338.941812 
L 1105.119662 342.367682 
L 1106.424543 344.421978 
L 1107.729425 348.044558 
L 1109.034306 341.449791 
L 1110.339188 341.086701 
L 1111.64407 343.678954 
L 1112.948951 345.478759 
L 1114.253833 345.114409 
L 1115.558715 344.611493 
L 1116.863596 345.865067 
L 1118.168478 346.523635 
L 1119.473359 345.845326 
L 1120.778241 351.266746 
L 1122.083123 349.742219 
L 1123.388004 346.111714 
L 1124.692886 346.652293 
L 1125.997767 347.681672 
L 1127.302649 348.937851 
L 1128.607531 349.38028 
L 1129.912412 343.346657 
L 1131.217294 344.813665 
L 1132.522176 346.990129 
L 1133.827057 346.81499 
L 1135.131939 349.26571 
L 1136.43682 346.249433 
L 1137.741702 348.320302 
L 1139.046584 347.237208 
L 1140.351465 347.088947 
L 1141.656347 347.361309 
L 1142.961228 348.415568 
L 1144.26611 349.196042 
L 1145.570992 347.507331 
L 1146.875873 348.35689 
L 1148.180755 348.211514 
L 1149.485637 347.85482 
L 1150.790518 348.119198 
L 1152.0954 346.399105 
L 1153.400281 348.778571 
L 1154.705163 349.023951 
L 1156.010045 348.589814 
L 1158.619808 348.334852 
L 1159.924689 347.518586 
L 1161.229571 349.871835 
L 1163.839334 348.450194 
L 1165.144216 348.784964 
L 1166.449097 348.526598 
L 1167.753979 348.428654 
L 1169.058861 348.578579 
L 1170.363742 349.578483 
L 1171.668624 349.721037 
L 1172.973506 349.282874 
L 1174.278387 348.164169 
L 1176.88815 349.314683 
L 1178.193032 349.044466 
L 1179.497914 349.347993 
L 1180.802795 349.227619 
L 1182.107677 348.721828 
L 1183.412558 349.800431 
L 1184.71744 349.105967 
L 1186.022322 349.170515 
L 1187.327203 349.013657 
L 1188.632085 348.729565 
L 1189.936967 349.307034 
L 1191.241848 349.112192 
L 1192.54673 349.559627 
L 1195.156493 349.251898 
L 1196.461375 349.2853 
L 1197.766256 349.631034 
L 1199.071138 349.704223 
L 1200.376019 349.372428 
L 1201.680901 349.725095 
L 1202.985783 349.725627 
L 1204.290664 349.223552 
L 1205.595546 349.257623 
L 1206.900428 349.099675 
L 1208.205309 349.484954 
L 1209.510191 351.765032 
L 1210.815072 351.121909 
L 1212.119954 349.168963 
L 1214.729717 348.65597 
L 1216.034599 349.068371 
L 1217.33948 350.728362 
L 1218.644362 348.615539 
L 1219.949244 348.449898 
L 1221.254125 348.950523 
L 1222.559007 348.928635 
L 1223.863888 349.2352 
L 1225.16877 349.24955 
L 1226.473652 349.761059 
L 1227.778533 349.171994 
L 1230.388297 349.292023 
L 1231.693178 349.020572 
L 1234.302941 348.975567 
L 1235.607823 349.565842 
L 1236.912705 349.321438 
L 1239.522468 348.587315 
L 1243.437113 348.376417 
L 1244.741994 348.038006 
L 1247.351758 348.350484 
L 1248.656639 347.666238 
L 1249.961521 346.656886 
L 1251.266402 346.051824 
L 1252.571284 345.633549 
L 1253.876166 346.615889 
L 1255.181047 347.292557 
L 1257.79081 344.667168 
L 1261.705455 344.387025 
L 1263.010337 344.520029 
L 1264.315219 344.910224 
L 1265.6201 344.459685 
L 1266.924982 341.472991 
L 1268.229863 340.276275 
L 1270.839627 340.244601 
L 1272.144508 342.489151 
L 1273.44939 343.443565 
L 1274.754271 340.986549 
L 1276.059153 337.66215 
L 1277.364035 336.795098 
L 1278.668916 337.051184 
L 1279.973798 336.579196 
L 1281.278679 338.9193 
L 1282.583561 338.647275 
L 1283.888443 335.50383 
L 1285.193324 334.115071 
L 1286.498206 330.76443 
L 1287.803088 329.464023 
L 1290.412851 333.864906 
L 1291.717732 334.441335 
L 1293.022614 332.310954 
L 1294.327496 329.741546 
L 1295.632377 325.516982 
L 1296.937259 322.681387 
L 1298.24214 323.808845 
L 1299.547022 328.623947 
L 1300.851904 331.140168 
L 1302.156785 326.688465 
L 1303.461667 320.586247 
L 1304.766549 317.663275 
L 1306.07143 318.98742 
L 1307.376312 321.561137 
L 1307.376312 321.561137 
" clip-path="url(#p9584a240bf)" style="fill: none; stroke: #ffa500; stroke-width: 1.5; stroke-linecap: square"/>
   </g>
   <g id="line2d_23">
    <path d="M 1307.376312 321.561137 
L 1308.681193 323.452945 
L 1309.986075 322.055092 
L 1311.290957 317.04301 
L 1312.595838 315.508465 
L 1313.90072 315.645188 
L 1315.205601 315.119393 
L 1316.510483 317.187497 
L 1317.815365 318.671909 
L 1319.120246 317.612961 
L 1320.425128 313.91897 
L 1321.73001 312.781538 
L 1323.034891 312.889488 
L 1324.339773 312.502334 
" clip-path="url(#p9584a240bf)" style="fill: none; stroke: #ff0000; stroke-width: 1.5; stroke-linecap: square"/>
   </g>
   <g id="patch_3">
    <path d="M 46.0125 368.3955 
L 46.0125 35.7555 
" style="fill: none; stroke: #000000; stroke-width: 0.8; stroke-linejoin: miter; stroke-linecap: square"/>
   </g>
   <g id="patch_4">
    <path d="M 1385.2125 368.3955 
L 1385.2125 35.7555 
" style="fill: none; stroke: #000000; stroke-width: 0.8; stroke-linejoin: miter; stroke-linecap: square"/>
   </g>
   <g id="patch_5">
    <path d="M 46.0125 368.3955 
L 1385.2125 368.3955 
" style="fill: none; stroke: #000000; stroke-width: 0.8; stroke-linejoin: miter; stroke-linecap: square"/>
   </g>
   <g id="patch_6">
    <path d="M 46.0125 35.7555 
L 1385.2125 35.7555 
" style="fill: none; stroke: #000000; stroke-width: 0.8; stroke-linejoin: miter; stroke-linecap: square"/>
   </g>
   <g id="text_21">
    <!-- Daily Confirmed Cases Forecasting - Philippines -->
    <g transform="translate(572.78625 16.318125)scale(0.12 -0.12)">
     <defs>
      <path id="DejaVuSans-44" d="M 1259 4147 
L 1259 519 
L 2022 519 
Q 2988 519 3436 956 
Q 3884 1394 3884 2338 
Q 3884 3275 3436 3711 
Q 2988 4147 2022 4147 
L 1259 4147 
z
M 628 4666 
L 1925 4666 
Q 3281 4666 3915 4102 
Q 4550 3538 4550 2338 
Q 4550 1131 3912 565 
Q 3275 0 1925 0 
L 628 0 
L 628 4666 
z
" transform="scale(0.015625)"/>
      <path id="DejaVuSans-61" d="M 2194 1759 
Q 1497 1759 1228 1600 
Q 959 1441 959 1056 
Q 959 750 1161 570 
Q 1363 391 1709 391 
Q 2188 391 2477 730 
Q 2766 1069 2766 1631 
L 2766 1759 
L 2194 1759 
z
M 3341 1997 
L 3341 0 
L 2766 0 
L 2766 531 
Q 2569 213 2275 61 
Q 1981 -91 1556 -91 
Q 1019 -91 701 211 
Q 384 513 384 1019 
Q 384 1609 779 1909 
Q 1175 2209 1959 2209 
L 2766 2209 
L 2766 2266 
Q 2766 2663 2505 2880 
Q 2244 3097 1772 3097 
Q 1472 3097 1187 3025 
Q 903 2953 641 2809 
L 641 3341 
Q 956 3463 1253 3523 
Q 1550 3584 1831 3584 
Q 2591 3584 2966 3190 
Q 3341 2797 3341 1997 
z
" transform="scale(0.015625)"/>
      <path id="DejaVuSans-69" d="M 603 3500 
L 1178 3500 
L 1178 0 
L 603 0 
L 603 3500 
z
M 603 4863 
L 1178 4863 
L 1178 4134 
L 603 4134 
L 603 4863 
z
" transform="scale(0.015625)"/>
      <path id="DejaVuSans-6c" d="M 603 4863 
L 1178 4863 
L 1178 0 
L 603 0 
L 603 4863 
z
" transform="scale(0.015625)"/>
      <path id="DejaVuSans-79" d="M 2059 -325 
Q 1816 -950 1584 -1140 
Q 1353 -1331 966 -1331 
L 506 -1331 
L 506 -850 
L 844 -850 
Q 1081 -850 1212 -737 
Q 1344 -625 1503 -206 
L 1606 56 
L 191 3500 
L 800 3500 
L 1894 763 
L 2988 3500 
L 3597 3500 
L 2059 -325 
z
" transform="scale(0.015625)"/>
      <path id="DejaVuSans-20" transform="scale(0.015625)"/>
      <path id="DejaVuSans-43" d="M 4122 4306 
L 4122 3641 
Q 3803 3938 3442 4084 
Q 3081 4231 2675 4231 
Q 1875 4231 1450 3742 
Q 1025 3253 1025 2328 
Q 1025 1406 1450 917 
Q 1875 428 2675 428 
Q 3081 428 3442 575 
Q 3803 722 4122 1019 
L 4122 359 
Q 3791 134 3420 21 
Q 3050 -91 2638 -91 
Q 1578 -91 968 557 
Q 359 1206 359 2328 
Q 359 3453 968 4101 
Q 1578 4750 2638 4750 
Q 3056 4750 3426 4639 
Q 3797 4528 4122 4306 
z
" transform="scale(0.015625)"/>
      <path id="DejaVuSans-6f" d="M 1959 3097 
Q 1497 3097 1228 2736 
Q 959 2375 959 1747 
Q 959 1119 1226 758 
Q 1494 397 1959 397 
Q 2419 397 2687 759 
Q 2956 1122 2956 1747 
Q 2956 2369 2687 2733 
Q 2419 3097 1959 3097 
z
M 1959 3584 
Q 2709 3584 3137 3096 
Q 3566 2609 3566 1747 
Q 3566 888 3137 398 
Q 2709 -91 1959 -91 
Q 1206 -91 779 398 
Q 353 888 353 1747 
Q 353 2609 779 3096 
Q 1206 3584 1959 3584 
z
" transform="scale(0.015625)"/>
      <path id="DejaVuSans-6e" d="M 3513 2113 
L 3513 0 
L 2938 0 
L 2938 2094 
Q 2938 2591 2744 2837 
Q 2550 3084 2163 3084 
Q 1697 3084 1428 2787 
Q 1159 2491 1159 1978 
L 1159 0 
L 581 0 
L 581 3500 
L 1159 3500 
L 1159 2956 
Q 1366 3272 1645 3428 
Q 1925 3584 2291 3584 
Q 2894 3584 3203 3211 
Q 3513 2838 3513 2113 
z
" transform="scale(0.015625)"/>
      <path id="DejaVuSans-66" d="M 2375 4863 
L 2375 4384 
L 1825 4384 
Q 1516 4384 1395 4259 
Q 1275 4134 1275 3809 
L 1275 3500 
L 2222 3500 
L 2222 3053 
L 1275 3053 
L 1275 0 
L 697 0 
L 697 3053 
L 147 3053 
L 147 3500 
L 697 3500 
L 697 3744 
Q 697 4328 969 4595 
Q 1241 4863 1831 4863 
L 2375 4863 
z
" transform="scale(0.015625)"/>
      <path id="DejaVuSans-72" d="M 2631 2963 
Q 2534 3019 2420 3045 
Q 2306 3072 2169 3072 
Q 1681 3072 1420 2755 
Q 1159 2438 1159 1844 
L 1159 0 
L 581 0 
L 581 3500 
L 1159 3500 
L 1159 2956 
Q 1341 3275 1631 3429 
Q 1922 3584 2338 3584 
Q 2397 3584 2469 3576 
Q 2541 3569 2628 3553 
L 2631 2963 
z
" transform="scale(0.015625)"/>
      <path id="DejaVuSans-6d" d="M 3328 2828 
Q 3544 3216 3844 3400 
Q 4144 3584 4550 3584 
Q 5097 3584 5394 3201 
Q 5691 2819 5691 2113 
L 5691 0 
L 5113 0 
L 5113 2094 
Q 5113 2597 4934 2840 
Q 4756 3084 4391 3084 
Q 3944 3084 3684 2787 
Q 3425 2491 3425 1978 
L 3425 0 
L 2847 0 
L 2847 2094 
Q 2847 2600 2669 2842 
Q 2491 3084 2119 3084 
Q 1678 3084 1418 2786 
Q 1159 2488 1159 1978 
L 1159 0 
L 581 0 
L 581 3500 
L 1159 3500 
L 1159 2956 
Q 1356 3278 1631 3431 
Q 1906 3584 2284 3584 
Q 2666 3584 2933 3390 
Q 3200 3197 3328 2828 
z
" transform="scale(0.015625)"/>
      <path id="DejaVuSans-65" d="M 3597 1894 
L 3597 1613 
L 953 1613 
Q 991 1019 1311 708 
Q 1631 397 2203 397 
Q 2534 397 2845 478 
Q 3156 559 3463 722 
L 3463 178 
Q 3153 47 2828 -22 
Q 2503 -91 2169 -91 
Q 1331 -91 842 396 
Q 353 884 353 1716 
Q 353 2575 817 3079 
Q 1281 3584 2069 3584 
Q 2775 3584 3186 3129 
Q 3597 2675 3597 1894 
z
M 3022 2063 
Q 3016 2534 2758 2815 
Q 2500 3097 2075 3097 
Q 1594 3097 1305 2825 
Q 1016 2553 972 2059 
L 3022 2063 
z
" transform="scale(0.015625)"/>
      <path id="DejaVuSans-64" d="M 2906 2969 
L 2906 4863 
L 3481 4863 
L 3481 0 
L 2906 0 
L 2906 525 
Q 2725 213 2448 61 
Q 2172 -91 1784 -91 
Q 1150 -91 751 415 
Q 353 922 353 1747 
Q 353 2572 751 3078 
Q 1150 3584 1784 3584 
Q 2172 3584 2448 3432 
Q 2725 3281 2906 2969 
z
M 947 1747 
Q 947 1113 1208 752 
Q 1469 391 1925 391 
Q 2381 391 2643 752 
Q 2906 1113 2906 1747 
Q 2906 2381 2643 2742 
Q 2381 3103 1925 3103 
Q 1469 3103 1208 2742 
Q 947 2381 947 1747 
z
" transform="scale(0.015625)"/>
      <path id="DejaVuSans-73" d="M 2834 3397 
L 2834 2853 
Q 2591 2978 2328 3040 
Q 2066 3103 1784 3103 
Q 1356 3103 1142 2972 
Q 928 2841 928 2578 
Q 928 2378 1081 2264 
Q 1234 2150 1697 2047 
L 1894 2003 
Q 2506 1872 2764 1633 
Q 3022 1394 3022 966 
Q 3022 478 2636 193 
Q 2250 -91 1575 -91 
Q 1294 -91 989 -36 
Q 684 19 347 128 
L 347 722 
Q 666 556 975 473 
Q 1284 391 1588 391 
Q 1994 391 2212 530 
Q 2431 669 2431 922 
Q 2431 1156 2273 1281 
Q 2116 1406 1581 1522 
L 1381 1569 
Q 847 1681 609 1914 
Q 372 2147 372 2553 
Q 372 3047 722 3315 
Q 1072 3584 1716 3584 
Q 2034 3584 2315 3537 
Q 2597 3491 2834 3397 
z
" transform="scale(0.015625)"/>
      <path id="DejaVuSans-46" d="M 628 4666 
L 3309 4666 
L 3309 4134 
L 1259 4134 
L 1259 2759 
L 3109 2759 
L 3109 2228 
L 1259 2228 
L 1259 0 
L 628 0 
L 628 4666 
z
" transform="scale(0.015625)"/>
      <path id="DejaVuSans-63" d="M 3122 3366 
L 3122 2828 
Q 2878 2963 2633 3030 
Q 2388 3097 2138 3097 
Q 1578 3097 1268 2742 
Q 959 2388 959 1747 
Q 959 1106 1268 751 
Q 1578 397 2138 397 
Q 2388 397 2633 464 
Q 2878 531 3122 666 
L 3122 134 
Q 2881 22 2623 -34 
Q 2366 -91 2075 -91 
Q 1284 -91 818 406 
Q 353 903 353 1747 
Q 353 2603 823 3093 
Q 1294 3584 2113 3584 
Q 2378 3584 2631 3529 
Q 2884 3475 3122 3366 
z
" transform="scale(0.015625)"/>
      <path id="DejaVuSans-74" d="M 1172 4494 
L 1172 3500 
L 2356 3500 
L 2356 3053 
L 1172 3053 
L 1172 1153 
Q 1172 725 1289 603 
Q 1406 481 1766 481 
L 2356 481 
L 2356 0 
L 1766 0 
Q 1100 0 847 248 
Q 594 497 594 1153 
L 594 3053 
L 172 3053 
L 172 3500 
L 594 3500 
L 594 4494 
L 1172 4494 
z
" transform="scale(0.015625)"/>
      <path id="DejaVuSans-67" d="M 2906 1791 
Q 2906 2416 2648 2759 
Q 2391 3103 1925 3103 
Q 1463 3103 1205 2759 
Q 947 2416 947 1791 
Q 947 1169 1205 825 
Q 1463 481 1925 481 
Q 2391 481 2648 825 
Q 2906 1169 2906 1791 
z
M 3481 434 
Q 3481 -459 3084 -895 
Q 2688 -1331 1869 -1331 
Q 1566 -1331 1297 -1286 
Q 1028 -1241 775 -1147 
L 775 -588 
Q 1028 -725 1275 -790 
Q 1522 -856 1778 -856 
Q 2344 -856 2625 -561 
Q 2906 -266 2906 331 
L 2906 616 
Q 2728 306 2450 153 
Q 2172 0 1784 0 
Q 1141 0 747 490 
Q 353 981 353 1791 
Q 353 2603 747 3093 
Q 1141 3584 1784 3584 
Q 2172 3584 2450 3431 
Q 2728 3278 2906 2969 
L 2906 3500 
L 3481 3500 
L 3481 434 
z
" transform="scale(0.015625)"/>
      <path id="DejaVuSans-50" d="M 1259 4147 
L 1259 2394 
L 2053 2394 
Q 2494 2394 2734 2622 
Q 2975 2850 2975 3272 
Q 2975 3691 2734 3919 
Q 2494 4147 2053 4147 
L 1259 4147 
z
M 628 4666 
L 2053 4666 
Q 2838 4666 3239 4311 
Q 3641 3956 3641 3272 
Q 3641 2581 3239 2228 
Q 2838 1875 2053 1875 
L 1259 1875 
L 1259 0 
L 628 0 
L 628 4666 
z
" transform="scale(0.015625)"/>
      <path id="DejaVuSans-68" d="M 3513 2113 
L 3513 0 
L 2938 0 
L 2938 2094 
Q 2938 2591 2744 2837 
Q 2550 3084 2163 3084 
Q 1697 3084 1428 2787 
Q 1159 2491 1159 1978 
L 1159 0 
L 581 0 
L 581 4863 
L 1159 4863 
L 1159 2956 
Q 1366 3272 1645 3428 
Q 1925 3584 2291 3584 
Q 2894 3584 3203 3211 
Q 3513 2838 3513 2113 
z
" transform="scale(0.015625)"/>
      <path id="DejaVuSans-70" d="M 1159 525 
L 1159 -1331 
L 581 -1331 
L 581 3500 
L 1159 3500 
L 1159 2969 
Q 1341 3281 1617 3432 
Q 1894 3584 2278 3584 
Q 2916 3584 3314 3078 
Q 3713 2572 3713 1747 
Q 3713 922 3314 415 
Q 2916 -91 2278 -91 
Q 1894 -91 1617 61 
Q 1341 213 1159 525 
z
M 3116 1747 
Q 3116 2381 2855 2742 
Q 2594 3103 2138 3103 
Q 1681 3103 1420 2742 
Q 1159 2381 1159 1747 
Q 1159 1113 1420 752 
Q 1681 391 2138 391 
Q 2594 391 2855 752 
Q 3116 1113 3116 1747 
z
" transform="scale(0.015625)"/>
     </defs>
     <use xlink:href="#DejaVuSans-44"/>
     <use xlink:href="#DejaVuSans-61" x="77.001953"/>
     <use xlink:href="#DejaVuSans-69" x="138.28125"/>
     <use xlink:href="#DejaVuSans-6c" x="166.064453"/>
     <use xlink:href="#DejaVuSans-79" x="193.847656"/>
     <use xlink:href="#DejaVuSans-20" x="253.027344"/>
     <use xlink:href="#DejaVuSans-43" x="284.814453"/>
     <use xlink:href="#DejaVuSans-6f" x="354.638672"/>
     <use xlink:href="#DejaVuSans-6e" x="415.820312"/>
     <use xlink:href="#DejaVuSans-66" x="479.199219"/>
     <use xlink:href="#DejaVuSans-69" x="514.404297"/>
     <use xlink:href="#DejaVuSans-72" x="542.1875"/>
     <use xlink:href="#DejaVuSans-6d" x="581.550781"/>
     <use xlink:href="#DejaVuSans-65" x="678.962891"/>
     <use xlink:href="#DejaVuSans-64" x="740.486328"/>
     <use xlink:href="#DejaVuSans-20" x="803.962891"/>
     <use xlink:href="#DejaVuSans-43" x="835.75"/>
     <use xlink:href="#DejaVuSans-61" x="905.574219"/>
     <use xlink:href="#DejaVuSans-73" x="966.853516"/>
     <use xlink:href="#DejaVuSans-65" x="1018.953125"/>
     <use xlink:href="#DejaVuSans-73" x="1080.476562"/>
     <use xlink:href="#DejaVuSans-20" x="1132.576172"/>
     <use xlink:href="#DejaVuSans-46" x="1164.363281"/>
     <use xlink:href="#DejaVuSans-6f" x="1218.257812"/>
     <use xlink:href="#DejaVuSans-72" x="1279.439453"/>
     <use xlink:href="#DejaVuSans-65" x="1318.302734"/>
     <use xlink:href="#DejaVuSans-63" x="1379.826172"/>
     <use xlink:href="#DejaVuSans-61" x="1434.806641"/>
     <use xlink:href="#DejaVuSans-73" x="1496.085938"/>
     <use xlink:href="#DejaVuSans-74" x="1548.185547"/>
     <use xlink:href="#DejaVuSans-69" x="1587.394531"/>
     <use xlink:href="#DejaVuSans-6e" x="1615.177734"/>
     <use xlink:href="#DejaVuSans-67" x="1678.556641"/>
     <use xlink:href="#DejaVuSans-20" x="1742.033203"/>
     <use xlink:href="#DejaVuSans-2d" x="1773.820312"/>
     <use xlink:href="#DejaVuSans-20" x="1809.904297"/>
     <use xlink:href="#DejaVuSans-50" x="1841.691406"/>
     <use xlink:href="#DejaVuSans-68" x="1901.994141"/>
     <use xlink:href="#DejaVuSans-69" x="1965.373047"/>
     <use xlink:href="#DejaVuSans-6c" x="1993.15625"/>
     <use xlink:href="#DejaVuSans-69" x="2020.939453"/>
     <use xlink:href="#DejaVuSans-70" x="2048.722656"/>
     <use xlink:href="#DejaVuSans-70" x="2112.199219"/>
     <use xlink:href="#DejaVuSans-69" x="2175.675781"/>
     <use xlink:href="#DejaVuSans-6e" x="2203.458984"/>
     <use xlink:href="#DejaVuSans-65" x="2266.837891"/>
     <use xlink:href="#DejaVuSans-73" x="2328.361328"/>
    </g>
    <!-- ARIMA (2, 1, 1)x(1, 0, 1, 7) (R2 = 0.952177) -->
    <g transform="translate(583.628438 29.7555)scale(0.12 -0.12)">
     <defs>
      <path id="DejaVuSans-41" d="M 2188 4044 
L 1331 1722 
L 3047 1722 
L 2188 4044 
z
M 1831 4666 
L 2547 4666 
L 4325 0 
L 3669 0 
L 3244 1197 
L 1141 1197 
L 716 0 
L 50 0 
L 1831 4666 
z
" transform="scale(0.015625)"/>
      <path id="DejaVuSans-52" d="M 2841 2188 
Q 3044 2119 3236 1894 
Q 3428 1669 3622 1275 
L 4263 0 
L 3584 0 
L 2988 1197 
Q 2756 1666 2539 1819 
Q 2322 1972 1947 1972 
L 1259 1972 
L 1259 0 
L 628 0 
L 628 4666 
L 2053 4666 
Q 2853 4666 3247 4331 
Q 3641 3997 3641 3322 
Q 3641 2881 3436 2590 
Q 3231 2300 2841 2188 
z
M 1259 4147 
L 1259 2491 
L 2053 2491 
Q 2509 2491 2742 2702 
Q 2975 2913 2975 3322 
Q 2975 3731 2742 3939 
Q 2509 4147 2053 4147 
L 1259 4147 
z
" transform="scale(0.015625)"/>
      <path id="DejaVuSans-49" d="M 628 4666 
L 1259 4666 
L 1259 0 
L 628 0 
L 628 4666 
z
" transform="scale(0.015625)"/>
      <path id="DejaVuSans-4d" d="M 628 4666 
L 1569 4666 
L 2759 1491 
L 3956 4666 
L 4897 4666 
L 4897 0 
L 4281 0 
L 4281 4097 
L 3078 897 
L 2444 897 
L 1241 4097 
L 1241 0 
L 628 0 
L 628 4666 
z
" transform="scale(0.015625)"/>
      <path id="DejaVuSans-28" d="M 1984 4856 
Q 1566 4138 1362 3434 
Q 1159 2731 1159 2009 
Q 1159 1288 1364 580 
Q 1569 -128 1984 -844 
L 1484 -844 
Q 1016 -109 783 600 
Q 550 1309 550 2009 
Q 550 2706 781 3412 
Q 1013 4119 1484 4856 
L 1984 4856 
z
" transform="scale(0.015625)"/>
      <path id="DejaVuSans-2c" d="M 750 794 
L 1409 794 
L 1409 256 
L 897 -744 
L 494 -744 
L 750 256 
L 750 794 
z
" transform="scale(0.015625)"/>
      <path id="DejaVuSans-29" d="M 513 4856 
L 1013 4856 
Q 1481 4119 1714 3412 
Q 1947 2706 1947 2009 
Q 1947 1309 1714 600 
Q 1481 -109 1013 -844 
L 513 -844 
Q 928 -128 1133 580 
Q 1338 1288 1338 2009 
Q 1338 2731 1133 3434 
Q 928 4138 513 4856 
z
" transform="scale(0.015625)"/>
      <path id="DejaVuSans-78" d="M 3513 3500 
L 2247 1797 
L 3578 0 
L 2900 0 
L 1881 1375 
L 863 0 
L 184 0 
L 1544 1831 
L 300 3500 
L 978 3500 
L 1906 2253 
L 2834 3500 
L 3513 3500 
z
" transform="scale(0.015625)"/>
      <path id="DejaVuSans-3d" d="M 678 2906 
L 4684 2906 
L 4684 2381 
L 678 2381 
L 678 2906 
z
M 678 1631 
L 4684 1631 
L 4684 1100 
L 678 1100 
L 678 1631 
z
" transform="scale(0.015625)"/>
      <path id="DejaVuSans-2e" d="M 684 794 
L 1344 794 
L 1344 0 
L 684 0 
L 684 794 
z
" transform="scale(0.015625)"/>
      <path id="DejaVuSans-39" d="M 703 97 
L 703 672 
Q 941 559 1184 500 
Q 1428 441 1663 441 
Q 2288 441 2617 861 
Q 2947 1281 2994 2138 
Q 2813 1869 2534 1725 
Q 2256 1581 1919 1581 
Q 1219 1581 811 2004 
Q 403 2428 403 3163 
Q 403 3881 828 4315 
Q 1253 4750 1959 4750 
Q 2769 4750 3195 4129 
Q 3622 3509 3622 2328 
Q 3622 1225 3098 567 
Q 2575 -91 1691 -91 
Q 1453 -91 1209 -44 
Q 966 3 703 97 
z
M 1959 2075 
Q 2384 2075 2632 2365 
Q 2881 2656 2881 3163 
Q 2881 3666 2632 3958 
Q 2384 4250 1959 4250 
Q 1534 4250 1286 3958 
Q 1038 3666 1038 3163 
Q 1038 2656 1286 2365 
Q 1534 2075 1959 2075 
z
" transform="scale(0.015625)"/>
     </defs>
     <use xlink:href="#DejaVuSans-41"/>
     <use xlink:href="#DejaVuSans-52" x="68.408203"/>
     <use xlink:href="#DejaVuSans-49" x="137.890625"/>
     <use xlink:href="#DejaVuSans-4d" x="167.382812"/>
     <use xlink:href="#DejaVuSans-41" x="253.662109"/>
     <use xlink:href="#DejaVuSans-20" x="322.070312"/>
     <use xlink:href="#DejaVuSans-28" x="353.857422"/>
     <use xlink:href="#DejaVuSans-32" x="392.871094"/>
     <use xlink:href="#DejaVuSans-2c" x="456.494141"/>
     <use xlink:href="#DejaVuSans-20" x="488.28125"/>
     <use xlink:href="#DejaVuSans-31" x="520.068359"/>
     <use xlink:href="#DejaVuSans-2c" x="583.691406"/>
     <use xlink:href="#DejaVuSans-20" x="615.478516"/>
     <use xlink:href="#DejaVuSans-31" x="647.265625"/>
     <use xlink:href="#DejaVuSans-29" x="710.888672"/>
     <use xlink:href="#DejaVuSans-78" x="749.902344"/>
     <use xlink:href="#DejaVuSans-28" x="809.082031"/>
     <use xlink:href="#DejaVuSans-31" x="848.095703"/>
     <use xlink:href="#DejaVuSans-2c" x="911.71875"/>
     <use xlink:href="#DejaVuSans-20" x="943.505859"/>
     <use xlink:href="#DejaVuSans-30" x="975.292969"/>
     <use xlink:href="#DejaVuSans-2c" x="1038.916016"/>
     <use xlink:href="#DejaVuSans-20" x="1070.703125"/>
     <use xlink:href="#DejaVuSans-31" x="1102.490234"/>
     <use xlink:href="#DejaVuSans-2c" x="1166.113281"/>
     <use xlink:href="#DejaVuSans-20" x="1197.900391"/>
     <use xlink:href="#DejaVuSans-37" x="1229.6875"/>
     <use xlink:href="#DejaVuSans-29" x="1293.310547"/>
     <use xlink:href="#DejaVuSans-20" x="1332.324219"/>
     <use xlink:href="#DejaVuSans-28" x="1364.111328"/>
     <use xlink:href="#DejaVuSans-52" x="1403.125"/>
     <use xlink:href="#DejaVuSans-32" x="1472.607422"/>
     <use xlink:href="#DejaVuSans-20" x="1536.230469"/>
     <use xlink:href="#DejaVuSans-3d" x="1568.017578"/>
     <use xlink:href="#DejaVuSans-20" x="1651.806641"/>
     <use xlink:href="#DejaVuSans-30" x="1683.59375"/>
     <use xlink:href="#DejaVuSans-2e" x="1747.216797"/>
     <use xlink:href="#DejaVuSans-39" x="1779.003906"/>
     <use xlink:href="#DejaVuSans-35" x="1842.626953"/>
     <use xlink:href="#DejaVuSans-32" x="1906.25"/>
     <use xlink:href="#DejaVuSans-31" x="1969.873047"/>
     <use xlink:href="#DejaVuSans-37" x="2033.496094"/>
     <use xlink:href="#DejaVuSans-37" x="2097.119141"/>
     <use xlink:href="#DejaVuSans-29" x="2160.742188"/>
    </g>
   </g>
   <g id="legend_1">
    <g id="patch_7">
     <path d="M 1281.132812 87.789875 
L 1378.2125 87.789875 
Q 1380.2125 87.789875 1380.2125 85.789875 
L 1380.2125 42.7555 
Q 1380.2125 40.7555 1378.2125 40.7555 
L 1281.132812 40.7555 
Q 1279.132812 40.7555 1279.132812 42.7555 
L 1279.132812 85.789875 
Q 1279.132812 87.789875 1281.132812 87.789875 
z
" style="fill: #ffffff; opacity: 0.8; stroke: #cccccc; stroke-linejoin: miter"/>
    </g>
    <g id="line2d_24">
     <path d="M 1283.132812 48.853937 
L 1293.132812 48.853937 
L 1303.132812 48.853937 
" style="fill: none; stroke: #0000ff; stroke-width: 1.5; stroke-linecap: square"/>
    </g>
    <g id="text_22">
     <!-- Actual Value -->
     <g transform="translate(1311.132812 52.353937)scale(0.1 -0.1)">
      <defs>
       <path id="DejaVuSans-75" d="M 544 1381 
L 544 3500 
L 1119 3500 
L 1119 1403 
Q 1119 906 1312 657 
Q 1506 409 1894 409 
Q 2359 409 2629 706 
Q 2900 1003 2900 1516 
L 2900 3500 
L 3475 3500 
L 3475 0 
L 2900 0 
L 2900 538 
Q 2691 219 2414 64 
Q 2138 -91 1772 -91 
Q 1169 -91 856 284 
Q 544 659 544 1381 
z
M 1991 3584 
L 1991 3584 
z
" transform="scale(0.015625)"/>
       <path id="DejaVuSans-56" d="M 1831 0 
L 50 4666 
L 709 4666 
L 2188 738 
L 3669 4666 
L 4325 4666 
L 2547 0 
L 1831 0 
z
" transform="scale(0.015625)"/>
      </defs>
      <use xlink:href="#DejaVuSans-41"/>
      <use xlink:href="#DejaVuSans-63" x="66.658203"/>
      <use xlink:href="#DejaVuSans-74" x="121.638672"/>
      <use xlink:href="#DejaVuSans-75" x="160.847656"/>
      <use xlink:href="#DejaVuSans-61" x="224.226562"/>
      <use xlink:href="#DejaVuSans-6c" x="285.505859"/>
      <use xlink:href="#DejaVuSans-20" x="313.289062"/>
      <use xlink:href="#DejaVuSans-56" x="345.076172"/>
      <use xlink:href="#DejaVuSans-61" x="405.734375"/>
      <use xlink:href="#DejaVuSans-6c" x="467.013672"/>
      <use xlink:href="#DejaVuSans-75" x="494.796875"/>
      <use xlink:href="#DejaVuSans-65" x="558.175781"/>
     </g>
    </g>
    <g id="line2d_25">
     <path d="M 1283.132812 63.532062 
L 1293.132812 63.532062 
L 1303.132812 63.532062 
" style="fill: none; stroke: #ffa500; stroke-width: 1.5; stroke-linecap: square"/>
    </g>
    <g id="text_23">
     <!-- Check Value -->
     <g transform="translate(1311.132812 67.032062)scale(0.1 -0.1)">
      <defs>
       <path id="DejaVuSans-6b" d="M 581 4863 
L 1159 4863 
L 1159 1991 
L 2875 3500 
L 3609 3500 
L 1753 1863 
L 3688 0 
L 2938 0 
L 1159 1709 
L 1159 0 
L 581 0 
L 581 4863 
z
" transform="scale(0.015625)"/>
      </defs>
      <use xlink:href="#DejaVuSans-43"/>
      <use xlink:href="#DejaVuSans-68" x="69.824219"/>
      <use xlink:href="#DejaVuSans-65" x="133.203125"/>
      <use xlink:href="#DejaVuSans-63" x="194.726562"/>
      <use xlink:href="#DejaVuSans-6b" x="249.707031"/>
      <use xlink:href="#DejaVuSans-20" x="307.617188"/>
      <use xlink:href="#DejaVuSans-56" x="339.404297"/>
      <use xlink:href="#DejaVuSans-61" x="400.0625"/>
      <use xlink:href="#DejaVuSans-6c" x="461.341797"/>
      <use xlink:href="#DejaVuSans-75" x="489.125"/>
      <use xlink:href="#DejaVuSans-65" x="552.503906"/>
     </g>
    </g>
    <g id="line2d_26">
     <path d="M 1283.132812 78.210187 
L 1293.132812 78.210187 
L 1303.132812 78.210187 
" style="fill: none; stroke: #ff0000; stroke-width: 1.5; stroke-linecap: square"/>
    </g>
    <g id="text_24">
     <!-- Predict Value -->
     <g transform="translate(1311.132812 81.710187)scale(0.1 -0.1)">
      <use xlink:href="#DejaVuSans-50"/>
      <use xlink:href="#DejaVuSans-72" x="58.552734"/>
      <use xlink:href="#DejaVuSans-65" x="97.416016"/>
      <use xlink:href="#DejaVuSans-64" x="158.939453"/>
      <use xlink:href="#DejaVuSans-69" x="222.416016"/>
      <use xlink:href="#DejaVuSans-63" x="250.199219"/>
      <use xlink:href="#DejaVuSans-74" x="305.179688"/>
      <use xlink:href="#DejaVuSans-20" x="344.388672"/>
      <use xlink:href="#DejaVuSans-56" x="376.175781"/>
      <use xlink:href="#DejaVuSans-61" x="436.833984"/>
      <use xlink:href="#DejaVuSans-6c" x="498.113281"/>
      <use xlink:href="#DejaVuSans-75" x="525.896484"/>
      <use xlink:href="#DejaVuSans-65" x="589.275391"/>
     </g>
    </g>
   </g>
  </g>
 </g>
 <defs>
  <clipPath id="p9584a240bf">
   <rect x="46.0125" y="35.7555" width="1339.2" height="332.64"/>
  </clipPath>
 </defs>
</svg>
