<?xml version="1.0" encoding="utf-8" standalone="no"?>
<!DOCTYPE svg PUBLIC "-//W3C//DTD SVG 1.1//EN"
  "http://www.w3.org/Graphics/SVG/1.1/DTD/svg11.dtd">
<svg xmlns:xlink="http://www.w3.org/1999/xlink" width="1392.4125pt" height="392.273625pt" viewBox="0 0 1392.4125 392.273625" xmlns="http://www.w3.org/2000/svg" version="1.1">
 <metadata>
  <rdf:RDF xmlns:dc="http://purl.org/dc/elements/1.1/" xmlns:cc="http://creativecommons.org/ns#" xmlns:rdf="http://www.w3.org/1999/02/22-rdf-syntax-ns#">
   <cc:Work>
    <dc:type rdf:resource="http://purl.org/dc/dcmitype/StillImage"/>
    <dc:date>2022-07-02T19:56:43.913307</dc:date>
    <dc:format>image/svg+xml</dc:format>
    <dc:creator>
     <cc:Agent>
      <dc:title>Matplotlib v3.5.2, https://matplotlib.org/</dc:title>
     </cc:Agent>
    </dc:creator>
   </cc:Work>
  </rdf:RDF>
 </metadata>
 <defs>
  <style type="text/css">*{stroke-linejoin: round; stroke-linecap: butt}</style>
 </defs>
 <g id="figure_1">
  <g id="patch_1">
   <path d="M 0 392.273625 
L 1392.4125 392.273625 
L 1392.4125 0 
L 0 0 
z
" style="fill: #ffffff"/>
  </g>
  <g id="axes_1">
   <g id="patch_2">
    <path d="M 46.0125 368.3955 
L 1385.2125 368.3955 
L 1385.2125 35.7555 
L 46.0125 35.7555 
z
" style="fill: #ffffff"/>
   </g>
   <g id="matplotlib.axis_1">
    <g id="xtick_1">
     <g id="line2d_1">
      <defs>
       <path id="ma6e5b88ad0" d="M 0 0 
L 0 3.5 
" style="stroke: #000000; stroke-width: 0.8"/>
      </defs>
      <g>
       <use xlink:href="#ma6e5b88ad0" x="77.224098" y="368.3955" style="stroke: #000000; stroke-width: 0.8"/>
      </g>
     </g>
     <g id="text_1">
      <!-- 2020-01 -->
      <g transform="translate(56.332691 382.993937)scale(0.1 -0.1)">
       <defs>
        <path id="DejaVuSans-32" d="M 1228 531 
L 3431 531 
L 3431 0 
L 469 0 
L 469 531 
Q 828 903 1448 1529 
Q 2069 2156 2228 2338 
Q 2531 2678 2651 2914 
Q 2772 3150 2772 3378 
Q 2772 3750 2511 3984 
Q 2250 4219 1831 4219 
Q 1534 4219 1204 4116 
Q 875 4013 500 3803 
L 500 4441 
Q 881 4594 1212 4672 
Q 1544 4750 1819 4750 
Q 2544 4750 2975 4387 
Q 3406 4025 3406 3419 
Q 3406 3131 3298 2873 
Q 3191 2616 2906 2266 
Q 2828 2175 2409 1742 
Q 1991 1309 1228 531 
z
" transform="scale(0.015625)"/>
        <path id="DejaVuSans-30" d="M 2034 4250 
Q 1547 4250 1301 3770 
Q 1056 3291 1056 2328 
Q 1056 1369 1301 889 
Q 1547 409 2034 409 
Q 2525 409 2770 889 
Q 3016 1369 3016 2328 
Q 3016 3291 2770 3770 
Q 2525 4250 2034 4250 
z
M 2034 4750 
Q 2819 4750 3233 4129 
Q 3647 3509 3647 2328 
Q 3647 1150 3233 529 
Q 2819 -91 2034 -91 
Q 1250 -91 836 529 
Q 422 1150 422 2328 
Q 422 3509 836 4129 
Q 1250 4750 2034 4750 
z
" transform="scale(0.015625)"/>
        <path id="DejaVuSans-2d" d="M 313 2009 
L 1997 2009 
L 1997 1497 
L 313 1497 
L 313 2009 
z
" transform="scale(0.015625)"/>
        <path id="DejaVuSans-31" d="M 794 531 
L 1825 531 
L 1825 4091 
L 703 3866 
L 703 4441 
L 1819 4666 
L 2450 4666 
L 2450 531 
L 3481 531 
L 3481 0 
L 794 0 
L 794 531 
z
" transform="scale(0.015625)"/>
       </defs>
       <use xlink:href="#DejaVuSans-32"/>
       <use xlink:href="#DejaVuSans-30" x="63.623047"/>
       <use xlink:href="#DejaVuSans-32" x="127.246094"/>
       <use xlink:href="#DejaVuSans-30" x="190.869141"/>
       <use xlink:href="#DejaVuSans-2d" x="254.492188"/>
       <use xlink:href="#DejaVuSans-30" x="290.576172"/>
       <use xlink:href="#DejaVuSans-31" x="354.199219"/>
      </g>
     </g>
    </g>
    <g id="xtick_2">
     <g id="line2d_2">
      <g>
       <use xlink:href="#ma6e5b88ad0" x="199.913315" y="368.3955" style="stroke: #000000; stroke-width: 0.8"/>
      </g>
     </g>
     <g id="text_2">
      <!-- 2020-04 -->
      <g transform="translate(179.021909 382.993937)scale(0.1 -0.1)">
       <defs>
        <path id="DejaVuSans-34" d="M 2419 4116 
L 825 1625 
L 2419 1625 
L 2419 4116 
z
M 2253 4666 
L 3047 4666 
L 3047 1625 
L 3713 1625 
L 3713 1100 
L 3047 1100 
L 3047 0 
L 2419 0 
L 2419 1100 
L 313 1100 
L 313 1709 
L 2253 4666 
z
" transform="scale(0.015625)"/>
       </defs>
       <use xlink:href="#DejaVuSans-32"/>
       <use xlink:href="#DejaVuSans-30" x="63.623047"/>
       <use xlink:href="#DejaVuSans-32" x="127.246094"/>
       <use xlink:href="#DejaVuSans-30" x="190.869141"/>
       <use xlink:href="#DejaVuSans-2d" x="254.492188"/>
       <use xlink:href="#DejaVuSans-30" x="290.576172"/>
       <use xlink:href="#DejaVuSans-34" x="354.199219"/>
      </g>
     </g>
    </g>
    <g id="xtick_3">
     <g id="line2d_3">
      <g>
       <use xlink:href="#ma6e5b88ad0" x="322.602533" y="368.3955" style="stroke: #000000; stroke-width: 0.8"/>
      </g>
     </g>
     <g id="text_3">
      <!-- 2020-07 -->
      <g transform="translate(301.711127 382.993937)scale(0.1 -0.1)">
       <defs>
        <path id="DejaVuSans-37" d="M 525 4666 
L 3525 4666 
L 3525 4397 
L 1831 0 
L 1172 0 
L 2766 4134 
L 525 4134 
L 525 4666 
z
" transform="scale(0.015625)"/>
       </defs>
       <use xlink:href="#DejaVuSans-32"/>
       <use xlink:href="#DejaVuSans-30" x="63.623047"/>
       <use xlink:href="#DejaVuSans-32" x="127.246094"/>
       <use xlink:href="#DejaVuSans-30" x="190.869141"/>
       <use xlink:href="#DejaVuSans-2d" x="254.492188"/>
       <use xlink:href="#DejaVuSans-30" x="290.576172"/>
       <use xlink:href="#DejaVuSans-37" x="354.199219"/>
      </g>
     </g>
    </g>
    <g id="xtick_4">
     <g id="line2d_4">
      <g>
       <use xlink:href="#ma6e5b88ad0" x="446.639984" y="368.3955" style="stroke: #000000; stroke-width: 0.8"/>
      </g>
     </g>
     <g id="text_4">
      <!-- 2020-10 -->
      <g transform="translate(425.748578 382.993937)scale(0.1 -0.1)">
       <use xlink:href="#DejaVuSans-32"/>
       <use xlink:href="#DejaVuSans-30" x="63.623047"/>
       <use xlink:href="#DejaVuSans-32" x="127.246094"/>
       <use xlink:href="#DejaVuSans-30" x="190.869141"/>
       <use xlink:href="#DejaVuSans-2d" x="254.492188"/>
       <use xlink:href="#DejaVuSans-31" x="290.576172"/>
       <use xlink:href="#DejaVuSans-30" x="354.199219"/>
      </g>
     </g>
    </g>
    <g id="xtick_5">
     <g id="line2d_5">
      <g>
       <use xlink:href="#ma6e5b88ad0" x="570.677435" y="368.3955" style="stroke: #000000; stroke-width: 0.8"/>
      </g>
     </g>
     <g id="text_5">
      <!-- 2021-01 -->
      <g transform="translate(549.786029 382.993937)scale(0.1 -0.1)">
       <use xlink:href="#DejaVuSans-32"/>
       <use xlink:href="#DejaVuSans-30" x="63.623047"/>
       <use xlink:href="#DejaVuSans-32" x="127.246094"/>
       <use xlink:href="#DejaVuSans-31" x="190.869141"/>
       <use xlink:href="#DejaVuSans-2d" x="254.492188"/>
       <use xlink:href="#DejaVuSans-30" x="290.576172"/>
       <use xlink:href="#DejaVuSans-31" x="354.199219"/>
      </g>
     </g>
    </g>
    <g id="xtick_6">
     <g id="line2d_6">
      <g>
       <use xlink:href="#ma6e5b88ad0" x="692.01842" y="368.3955" style="stroke: #000000; stroke-width: 0.8"/>
      </g>
     </g>
     <g id="text_6">
      <!-- 2021-04 -->
      <g transform="translate(671.127013 382.993937)scale(0.1 -0.1)">
       <use xlink:href="#DejaVuSans-32"/>
       <use xlink:href="#DejaVuSans-30" x="63.623047"/>
       <use xlink:href="#DejaVuSans-32" x="127.246094"/>
       <use xlink:href="#DejaVuSans-31" x="190.869141"/>
       <use xlink:href="#DejaVuSans-2d" x="254.492188"/>
       <use xlink:href="#DejaVuSans-30" x="290.576172"/>
       <use xlink:href="#DejaVuSans-34" x="354.199219"/>
      </g>
     </g>
    </g>
    <g id="xtick_7">
     <g id="line2d_7">
      <g>
       <use xlink:href="#ma6e5b88ad0" x="814.707637" y="368.3955" style="stroke: #000000; stroke-width: 0.8"/>
      </g>
     </g>
     <g id="text_7">
      <!-- 2021-07 -->
      <g transform="translate(793.816231 382.993937)scale(0.1 -0.1)">
       <use xlink:href="#DejaVuSans-32"/>
       <use xlink:href="#DejaVuSans-30" x="63.623047"/>
       <use xlink:href="#DejaVuSans-32" x="127.246094"/>
       <use xlink:href="#DejaVuSans-31" x="190.869141"/>
       <use xlink:href="#DejaVuSans-2d" x="254.492188"/>
       <use xlink:href="#DejaVuSans-30" x="290.576172"/>
       <use xlink:href="#DejaVuSans-37" x="354.199219"/>
      </g>
     </g>
    </g>
    <g id="xtick_8">
     <g id="line2d_8">
      <g>
       <use xlink:href="#ma6e5b88ad0" x="938.745088" y="368.3955" style="stroke: #000000; stroke-width: 0.8"/>
      </g>
     </g>
     <g id="text_8">
      <!-- 2021-10 -->
      <g transform="translate(917.853682 382.993937)scale(0.1 -0.1)">
       <use xlink:href="#DejaVuSans-32"/>
       <use xlink:href="#DejaVuSans-30" x="63.623047"/>
       <use xlink:href="#DejaVuSans-32" x="127.246094"/>
       <use xlink:href="#DejaVuSans-31" x="190.869141"/>
       <use xlink:href="#DejaVuSans-2d" x="254.492188"/>
       <use xlink:href="#DejaVuSans-31" x="290.576172"/>
       <use xlink:href="#DejaVuSans-30" x="354.199219"/>
      </g>
     </g>
    </g>
    <g id="xtick_9">
     <g id="line2d_9">
      <g>
       <use xlink:href="#ma6e5b88ad0" x="1062.782539" y="368.3955" style="stroke: #000000; stroke-width: 0.8"/>
      </g>
     </g>
     <g id="text_9">
      <!-- 2022-01 -->
      <g transform="translate(1041.891133 382.993937)scale(0.1 -0.1)">
       <use xlink:href="#DejaVuSans-32"/>
       <use xlink:href="#DejaVuSans-30" x="63.623047"/>
       <use xlink:href="#DejaVuSans-32" x="127.246094"/>
       <use xlink:href="#DejaVuSans-32" x="190.869141"/>
       <use xlink:href="#DejaVuSans-2d" x="254.492188"/>
       <use xlink:href="#DejaVuSans-30" x="290.576172"/>
       <use xlink:href="#DejaVuSans-31" x="354.199219"/>
      </g>
     </g>
    </g>
    <g id="xtick_10">
     <g id="line2d_10">
      <g>
       <use xlink:href="#ma6e5b88ad0" x="1184.123524" y="368.3955" style="stroke: #000000; stroke-width: 0.8"/>
      </g>
     </g>
     <g id="text_10">
      <!-- 2022-04 -->
      <g transform="translate(1163.232118 382.993937)scale(0.1 -0.1)">
       <use xlink:href="#DejaVuSans-32"/>
       <use xlink:href="#DejaVuSans-30" x="63.623047"/>
       <use xlink:href="#DejaVuSans-32" x="127.246094"/>
       <use xlink:href="#DejaVuSans-32" x="190.869141"/>
       <use xlink:href="#DejaVuSans-2d" x="254.492188"/>
       <use xlink:href="#DejaVuSans-30" x="290.576172"/>
       <use xlink:href="#DejaVuSans-34" x="354.199219"/>
      </g>
     </g>
    </g>
    <g id="xtick_11">
     <g id="line2d_11">
      <g>
       <use xlink:href="#ma6e5b88ad0" x="1306.812742" y="368.3955" style="stroke: #000000; stroke-width: 0.8"/>
      </g>
     </g>
     <g id="text_11">
      <!-- 2022-07 -->
      <g transform="translate(1285.921335 382.993937)scale(0.1 -0.1)">
       <use xlink:href="#DejaVuSans-32"/>
       <use xlink:href="#DejaVuSans-30" x="63.623047"/>
       <use xlink:href="#DejaVuSans-32" x="127.246094"/>
       <use xlink:href="#DejaVuSans-32" x="190.869141"/>
       <use xlink:href="#DejaVuSans-2d" x="254.492188"/>
       <use xlink:href="#DejaVuSans-30" x="290.576172"/>
       <use xlink:href="#DejaVuSans-37" x="354.199219"/>
      </g>
     </g>
    </g>
   </g>
   <g id="matplotlib.axis_2">
    <g id="ytick_1">
     <g id="line2d_12">
      <defs>
       <path id="md88a7fb518" d="M 0 0 
L -3.5 0 
" style="stroke: #000000; stroke-width: 0.8"/>
      </defs>
      <g>
       <use xlink:href="#md88a7fb518" x="46.0125" y="345.465623" style="stroke: #000000; stroke-width: 0.8"/>
      </g>
     </g>
     <g id="text_12">
      <!-- 0 -->
      <g transform="translate(32.65 349.264842)scale(0.1 -0.1)">
       <use xlink:href="#DejaVuSans-30"/>
      </g>
     </g>
    </g>
    <g id="ytick_2">
     <g id="line2d_13">
      <g>
       <use xlink:href="#md88a7fb518" x="46.0125" y="308.122792" style="stroke: #000000; stroke-width: 0.8"/>
      </g>
     </g>
     <g id="text_13">
      <!-- 2500 -->
      <g transform="translate(13.5625 311.922011)scale(0.1 -0.1)">
       <defs>
        <path id="DejaVuSans-35" d="M 691 4666 
L 3169 4666 
L 3169 4134 
L 1269 4134 
L 1269 2991 
Q 1406 3038 1543 3061 
Q 1681 3084 1819 3084 
Q 2600 3084 3056 2656 
Q 3513 2228 3513 1497 
Q 3513 744 3044 326 
Q 2575 -91 1722 -91 
Q 1428 -91 1123 -41 
Q 819 9 494 109 
L 494 744 
Q 775 591 1075 516 
Q 1375 441 1709 441 
Q 2250 441 2565 725 
Q 2881 1009 2881 1497 
Q 2881 1984 2565 2268 
Q 2250 2553 1709 2553 
Q 1456 2553 1204 2497 
Q 953 2441 691 2322 
L 691 4666 
z
" transform="scale(0.015625)"/>
       </defs>
       <use xlink:href="#DejaVuSans-32"/>
       <use xlink:href="#DejaVuSans-35" x="63.623047"/>
       <use xlink:href="#DejaVuSans-30" x="127.246094"/>
       <use xlink:href="#DejaVuSans-30" x="190.869141"/>
      </g>
     </g>
    </g>
    <g id="ytick_3">
     <g id="line2d_14">
      <g>
       <use xlink:href="#md88a7fb518" x="46.0125" y="270.779962" style="stroke: #000000; stroke-width: 0.8"/>
      </g>
     </g>
     <g id="text_14">
      <!-- 5000 -->
      <g transform="translate(13.5625 274.57918)scale(0.1 -0.1)">
       <use xlink:href="#DejaVuSans-35"/>
       <use xlink:href="#DejaVuSans-30" x="63.623047"/>
       <use xlink:href="#DejaVuSans-30" x="127.246094"/>
       <use xlink:href="#DejaVuSans-30" x="190.869141"/>
      </g>
     </g>
    </g>
    <g id="ytick_4">
     <g id="line2d_15">
      <g>
       <use xlink:href="#md88a7fb518" x="46.0125" y="233.437131" style="stroke: #000000; stroke-width: 0.8"/>
      </g>
     </g>
     <g id="text_15">
      <!-- 7500 -->
      <g transform="translate(13.5625 237.23635)scale(0.1 -0.1)">
       <use xlink:href="#DejaVuSans-37"/>
       <use xlink:href="#DejaVuSans-35" x="63.623047"/>
       <use xlink:href="#DejaVuSans-30" x="127.246094"/>
       <use xlink:href="#DejaVuSans-30" x="190.869141"/>
      </g>
     </g>
    </g>
    <g id="ytick_5">
     <g id="line2d_16">
      <g>
       <use xlink:href="#md88a7fb518" x="46.0125" y="196.0943" style="stroke: #000000; stroke-width: 0.8"/>
      </g>
     </g>
     <g id="text_16">
      <!-- 10000 -->
      <g transform="translate(7.2 199.893519)scale(0.1 -0.1)">
       <use xlink:href="#DejaVuSans-31"/>
       <use xlink:href="#DejaVuSans-30" x="63.623047"/>
       <use xlink:href="#DejaVuSans-30" x="127.246094"/>
       <use xlink:href="#DejaVuSans-30" x="190.869141"/>
       <use xlink:href="#DejaVuSans-30" x="254.492188"/>
      </g>
     </g>
    </g>
    <g id="ytick_6">
     <g id="line2d_17">
      <g>
       <use xlink:href="#md88a7fb518" x="46.0125" y="158.751469" style="stroke: #000000; stroke-width: 0.8"/>
      </g>
     </g>
     <g id="text_17">
      <!-- 12500 -->
      <g transform="translate(7.2 162.550688)scale(0.1 -0.1)">
       <use xlink:href="#DejaVuSans-31"/>
       <use xlink:href="#DejaVuSans-32" x="63.623047"/>
       <use xlink:href="#DejaVuSans-35" x="127.246094"/>
       <use xlink:href="#DejaVuSans-30" x="190.869141"/>
       <use xlink:href="#DejaVuSans-30" x="254.492188"/>
      </g>
     </g>
    </g>
    <g id="ytick_7">
     <g id="line2d_18">
      <g>
       <use xlink:href="#md88a7fb518" x="46.0125" y="121.408639" style="stroke: #000000; stroke-width: 0.8"/>
      </g>
     </g>
     <g id="text_18">
      <!-- 15000 -->
      <g transform="translate(7.2 125.207857)scale(0.1 -0.1)">
       <use xlink:href="#DejaVuSans-31"/>
       <use xlink:href="#DejaVuSans-35" x="63.623047"/>
       <use xlink:href="#DejaVuSans-30" x="127.246094"/>
       <use xlink:href="#DejaVuSans-30" x="190.869141"/>
       <use xlink:href="#DejaVuSans-30" x="254.492188"/>
      </g>
     </g>
    </g>
    <g id="ytick_8">
     <g id="line2d_19">
      <g>
       <use xlink:href="#md88a7fb518" x="46.0125" y="84.065808" style="stroke: #000000; stroke-width: 0.8"/>
      </g>
     </g>
     <g id="text_19">
      <!-- 17500 -->
      <g transform="translate(7.2 87.865027)scale(0.1 -0.1)">
       <use xlink:href="#DejaVuSans-31"/>
       <use xlink:href="#DejaVuSans-37" x="63.623047"/>
       <use xlink:href="#DejaVuSans-35" x="127.246094"/>
       <use xlink:href="#DejaVuSans-30" x="190.869141"/>
       <use xlink:href="#DejaVuSans-30" x="254.492188"/>
      </g>
     </g>
    </g>
    <g id="ytick_9">
     <g id="line2d_20">
      <g>
       <use xlink:href="#md88a7fb518" x="46.0125" y="46.722977" style="stroke: #000000; stroke-width: 0.8"/>
      </g>
     </g>
     <g id="text_20">
      <!-- 20000 -->
      <g transform="translate(7.2 50.522196)scale(0.1 -0.1)">
       <use xlink:href="#DejaVuSans-32"/>
       <use xlink:href="#DejaVuSans-30" x="63.623047"/>
       <use xlink:href="#DejaVuSans-30" x="127.246094"/>
       <use xlink:href="#DejaVuSans-30" x="190.869141"/>
       <use xlink:href="#DejaVuSans-30" x="254.492188"/>
      </g>
     </g>
    </g>
   </g>
   <g id="line2d_21">
    <path d="M 106.885227 345.465623 
L 172.948652 345.420812 
L 174.296885 345.226629 
L 176.993352 345.361063 
L 183.734518 345.047383 
L 185.082751 344.524584 
L 186.430984 343.777727 
L 187.779217 344.987635 
L 189.12745 345.465623 
L 190.475683 344.001784 
L 191.823916 343.747853 
L 195.868616 343.747853 
L 197.216849 344.151155 
L 198.565082 342.597694 
L 199.913315 345.465623 
L 201.261549 343.434173 
L 202.609782 343.105556 
L 203.958015 342.508071 
L 205.306248 343.55367 
L 206.654481 342.672379 
L 208.002714 343.792664 
L 209.350948 343.23999 
L 210.699181 341.298163 
L 212.047414 342.119705 
L 213.395647 342.14958 
L 214.74388 341.581969 
L 217.440347 344.390149 
L 218.78858 343.942035 
L 220.136813 342.821751 
L 221.485046 341.507283 
L 222.833279 342.567819 
L 224.181512 344.524584 
L 225.529746 342.567819 
L 226.877979 342.612631 
L 228.226212 343.03087 
L 229.574445 340.312312 
L 230.922678 342.896436 
L 232.270911 342.478197 
L 233.619145 341.865774 
L 234.967378 341.850837 
L 236.315611 345.465623 
L 237.663844 340.133067 
L 239.012077 343.165305 
L 240.36031 342.657442 
L 241.708543 339.938884 
L 243.056777 345.465623 
L 244.40501 343.86735 
L 245.753243 340.596118 
L 247.101476 342.358699 
L 248.449709 343.419236 
L 249.797942 342.448322 
L 251.146176 342.298951 
L 252.494409 342.986059 
L 255.190875 342.971122 
L 256.539108 343.060745 
L 257.887341 342.866562 
L 259.235575 343.225053 
L 260.583808 342.762002 
L 261.932041 343.120493 
L 263.280274 343.673167 
L 264.628507 343.359487 
L 265.97674 343.822538 
L 267.324974 343.389362 
L 268.673207 343.210116 
L 270.02144 340.835112 
L 271.369673 340.252564 
L 272.717906 341.62678 
L 274.066139 341.52222 
L 275.414373 341.268289 
L 276.762606 339.445959 
L 278.110839 339.49077 
L 279.459072 338.19124 
L 280.807305 338.818599 
L 282.155538 339.879136 
L 283.503772 341.611843 
L 284.852005 337.787937 
L 286.200238 338.96797 
L 287.548471 339.206965 
L 288.896704 337.384634 
L 290.244937 339.17709 
L 291.59317 339.057593 
L 292.941404 339.80445 
L 294.289637 335.666864 
L 295.63787 335.054442 
L 296.986103 336.129915 
L 298.334336 332.798935 
L 299.682569 325.16606 
L 301.030803 345.405874 
L 302.379036 337.399572 
L 303.727269 335.980544 
L 305.075502 334.203025 
L 306.423735 331.67865 
L 307.771968 331.305222 
L 309.120202 333.39642 
L 310.468435 334.681013 
L 311.816668 337.070955 
L 313.164901 334.770636 
L 314.513134 330.423931 
L 315.861367 332.500192 
L 317.209601 334.217962 
L 318.557834 330.110251 
L 319.906067 329.049715 
L 321.2543 334.038717 
L 322.602533 331.828021 
L 323.950766 333.904283 
L 325.299 334.143277 
L 326.647233 330.707736 
L 327.995466 328.048927 
L 329.343699 327.765121 
L 330.691932 331.170787 
L 333.388399 331.05129 
L 334.736632 329.916068 
L 336.084865 329.408206 
L 338.781331 322.462439 
L 340.129564 331.67865 
L 341.477797 328.332732 
L 342.826031 328.586664 
L 344.174264 330.005691 
L 345.522497 332.724249 
L 346.87073 327.436504 
L 349.567196 334.606328 
L 350.91543 334.217962 
L 352.263663 331.857895 
L 353.611896 327.899555 
L 354.960129 332.455381 
L 356.308362 324.07565 
L 357.656595 328.347669 
L 359.004829 333.799723 
L 360.353062 329.841383 
L 361.701295 331.693587 
L 363.049528 329.557577 
L 364.397761 328.631475 
L 365.745994 329.482891 
L 367.094228 330.483679 
L 368.442461 331.006479 
L 369.790694 333.411357 
L 371.138927 327.735247 
L 373.835393 329.169212 
L 375.183627 332.903495 
L 376.53186 331.99233 
L 377.880093 329.482891 
L 379.228326 331.828021 
L 380.576559 329.497829 
L 381.924792 331.185725 
L 383.273026 326.600025 
L 384.621259 326.420779 
L 385.969492 336.458532 
L 387.317725 341.776151 
L 388.665958 331.066227 
L 390.014191 343.956973 
L 391.362424 337.444383 
L 392.710658 329.214023 
L 394.058891 324.254895 
L 395.407124 336.727401 
L 396.755357 332.081952 
L 398.10359 334.994693 
L 399.451823 332.022204 
L 400.800057 335.875984 
L 402.14829 334.815448 
L 403.496523 334.591391 
L 404.844756 331.768273 
L 406.192989 336.951458 
L 407.541222 337.519069 
L 408.889456 333.067803 
L 410.237689 335.278499 
L 412.934155 334.442019 
L 414.282388 337.474257 
L 415.630621 333.08274 
L 416.978855 335.980544 
L 418.327088 335.412933 
L 419.675321 336.279287 
L 421.023554 334.845322 
L 422.371787 334.949882 
L 423.72002 338.609479 
L 425.068254 336.085104 
L 426.416487 335.995481 
L 427.76472 335.42787 
L 429.112953 334.397208 
L 430.461186 334.681013 
L 431.809419 336.473469 
L 433.157653 336.398784 
L 434.505886 338.385422 
L 435.854119 334.920008 
L 437.202352 334.471894 
L 439.898818 335.353184 
L 441.247051 338.788725 
L 442.595285 334.681013 
L 443.943518 336.861835 
L 445.291751 334.382271 
L 446.639984 334.307585 
L 447.988217 336.204601 
L 449.33645 335.144065 
L 450.684684 336.010418 
L 452.032917 336.010418 
L 453.38115 335.263562 
L 454.729383 335.039505 
L 456.077616 334.203025 
L 458.774083 333.142489 
L 460.122316 335.801298 
L 461.470549 338.161365 
L 462.818782 338.08668 
L 464.167015 333.037929 
L 465.515248 334.188088 
L 466.863482 336.279287 
L 468.211715 336.368909 
L 469.559948 335.935733 
L 470.908181 338.953033 
L 472.256414 337.130703 
L 473.604647 335.069379 
L 474.952881 333.635414 
L 476.301114 335.920795 
L 477.649347 335.771424 
L 478.99758 335.233687 
L 480.345813 337.235263 
L 481.694046 335.442807 
L 483.04228 333.142489 
L 484.390513 333.545791 
L 485.738746 333.1873 
L 487.086979 334.546579 
L 488.435212 334.442019 
L 489.783445 336.817023 
L 491.131678 335.353184 
L 492.479912 339.012782 
L 493.828145 337.35476 
L 495.176378 327.645624 
L 496.524611 334.322522 
L 497.872844 330.214811 
L 499.221077 333.456169 
L 500.569311 330.961668 
L 501.917544 328.093738 
L 503.265777 332.216387 
L 504.61401 328.661349 
L 505.962243 333.037929 
L 507.310476 325.390117 
L 508.65871 330.319371 
L 510.006943 329.721886 
L 511.355176 328.855532 
L 512.703409 326.704585 
L 514.051642 327.541064 
L 515.399875 326.226597 
L 516.748109 327.451441 
L 518.096342 332.395632 
L 519.444575 326.465591 
L 520.792808 321.536337 
L 522.141041 319.250956 
L 523.489274 323.702221 
L 524.837508 319.938064 
L 526.185741 326.405842 
L 527.533974 329.378332 
L 528.882207 322.985239 
L 530.23044 315.173119 
L 531.578673 317.383814 
L 532.926907 309.795751 
L 534.27514 311.110219 
L 535.623373 318.399539 
L 536.971606 322.895616 
L 538.319839 316.547335 
L 539.668072 318.414476 
L 541.016305 308.91446 
L 542.364539 310.288676 
L 543.712772 303.55203 
L 545.061005 309.287889 
L 546.409238 321.386966 
L 547.757471 310.094494 
L 549.105704 301.251711 
L 550.453938 295.456104 
L 551.802171 300.430169 
L 553.150404 296.561452 
L 554.498637 304.313824 
L 555.84687 320.087435 
L 557.195103 298.204536 
L 558.543337 299.772935 
L 559.89157 294.48519 
L 561.239803 300.863346 
L 562.588036 314.635382 
L 563.936269 306.136154 
L 565.284502 310.393236 
L 566.632736 277.14318 
L 567.980969 278.771327 
L 569.329202 285.029986 
L 570.677435 301.505643 
L 572.025668 315.128307 
L 573.373901 316.009598 
L 574.722135 308.212415 
L 576.070368 292.588175 
L 577.418601 268.001655 
L 578.766834 283.700581 
L 580.115067 286.523699 
L 581.4633 289.675434 
L 582.811534 309.258014 
L 584.159767 313.246229 
L 585.508 289.600748 
L 588.204466 302.491493 
L 589.552699 311.005659 
L 590.900932 305.47892 
L 592.249166 319.325641 
L 593.597399 325.419991 
L 594.945632 313.007235 
L 596.293865 311.961635 
L 597.642098 315.964787 
L 598.990331 314.978936 
L 600.338565 314.725005 
L 601.686798 324.658198 
L 603.035031 331.813084 
L 604.383264 320.430989 
L 605.731497 322.074074 
L 607.07973 324.434141 
L 608.427964 323.881467 
L 609.776197 327.541064 
L 611.12443 331.633838 
L 612.472663 334.651139 
L 613.820896 329.064652 
L 615.169129 327.82487 
L 616.517363 328.930218 
L 617.865596 330.558365 
L 619.213829 330.872045 
L 620.562062 336.100041 
L 621.910295 337.056018 
L 623.258528 333.1873 
L 624.606762 332.156638 
L 625.954995 334.890133 
L 627.303228 331.872833 
L 629.999694 338.19124 
L 631.347927 337.997057 
L 632.696161 336.921583 
L 634.044394 337.937308 
L 635.392627 334.890133 
L 636.74086 332.380695 
L 638.089093 335.039505 
L 639.437326 338.236051 
L 640.785559 337.011206 
L 642.133793 334.740762 
L 643.482026 332.081952 
L 644.830259 335.278499 
L 646.178492 339.520644 
L 647.526725 335.547367 
L 648.874958 338.445171 
L 650.223192 337.922371 
L 651.571425 336.518281 
L 652.919658 334.681013 
L 654.267891 337.399572 
L 655.616124 338.564668 
L 656.964357 334.501768 
L 658.312591 340.133067 
L 659.660824 339.460896 
L 661.009057 337.653503 
L 662.35729 337.369697 
L 663.705523 338.385422 
L 665.053756 338.728976 
L 666.40199 339.266713 
L 667.750223 341.3131 
L 669.098456 341.94046 
L 670.446689 339.117342 
L 671.794922 338.893285 
L 673.143155 338.221114 
L 674.491389 334.785573 
L 675.839622 338.818599 
L 677.187855 340.596118 
L 678.536088 342.14958 
L 679.884321 338.684165 
L 681.232554 339.266713 
L 682.580788 338.041868 
L 683.929021 338.923159 
L 685.277254 338.295799 
L 686.625487 340.357124 
L 687.97372 341.791088 
L 689.321953 337.713251 
L 690.670186 338.788725 
L 692.01842 338.773788 
L 693.366653 340.22269 
L 694.714886 342.134642 
L 696.063119 340.924735 
L 697.411352 342.791876 
L 698.759585 340.133067 
L 700.107819 340.028507 
L 701.456052 339.087468 
L 702.804285 339.580393 
L 704.152518 341.298163 
L 706.848984 342.762002 
L 708.197218 340.551306 
L 709.545451 339.565456 
L 710.893684 340.775363 
L 712.241917 339.206965 
L 713.59015 340.267501 
L 714.938383 341.820963 
L 716.286617 342.433385 
L 717.63485 341.357912 
L 718.983083 340.103193 
L 720.331316 340.775363 
L 721.679549 339.998633 
L 723.027782 340.416872 
L 725.724249 342.508071 
L 727.072482 339.968758 
L 728.420715 340.058381 
L 729.768948 340.640929 
L 731.117181 340.11813 
L 732.465415 341.462472 
L 733.813648 341.581969 
L 735.161881 342.552882 
L 736.510114 340.685741 
L 739.20658 339.655079 
L 740.554814 339.520644 
L 741.903047 337.87756 
L 744.599513 341.701466 
L 745.947746 338.594542 
L 747.295979 337.070955 
L 748.644212 337.623629 
L 749.992446 336.682589 
L 751.340679 338.146428 
L 752.688912 340.327249 
L 754.037145 341.462472 
L 755.385378 337.414509 
L 756.733611 337.444383 
L 758.081845 336.817023 
L 759.430078 337.87756 
L 760.778311 338.504919 
L 763.474777 341.955397 
L 764.82301 336.787149 
L 766.171244 335.562304 
L 768.86771 336.249412 
L 770.215943 336.891709 
L 771.564176 340.267501 
L 772.912409 340.670804 
L 774.260643 334.546579 
L 775.608876 335.338247 
L 776.957109 334.994693 
L 778.305342 331.798147 
L 779.653575 333.112615 
L 781.001808 337.608691 
L 782.350042 339.849261 
L 783.698275 332.291072 
L 785.046508 333.829597 
L 786.394741 332.903495 
L 787.742974 331.78321 
L 789.091207 332.649563 
L 790.439441 334.785573 
L 791.787674 338.250988 
L 793.135907 332.798935 
L 794.48414 329.811508 
L 795.832373 330.991542 
L 798.528839 330.857108 
L 799.877073 336.757275 
L 801.225306 337.787937 
L 802.573539 327.421567 
L 803.921772 329.378332 
L 805.270005 327.526127 
L 806.618238 329.139337 
L 807.966472 329.677074 
L 809.314705 333.680226 
L 810.662938 335.517493 
L 812.011171 326.809145 
L 813.359404 327.585876 
L 814.707637 327.466379 
L 816.055871 330.080377 
L 817.404104 325.79342 
L 818.752337 333.620477 
L 820.10057 336.428658 
L 821.448803 326.405842 
L 822.797036 327.212447 
L 824.14527 326.943579 
L 825.493503 328.13855 
L 826.841736 330.214811 
L 828.189969 333.022992 
L 829.538202 334.2329 
L 830.886435 332.694375 
L 832.234669 322.805993 
L 833.582902 327.167636 
L 834.931135 329.22896 
L 836.279368 329.916068 
L 837.627601 334.695951 
L 838.975834 335.188876 
L 840.324068 329.199086 
L 841.672301 328.377544 
L 843.020534 326.794208 
L 844.368767 328.467166 
L 845.717 329.094526 
L 847.065233 332.530066 
L 848.413466 338.071743 
L 849.7617 328.885406 
L 851.109933 330.991542 
L 852.458166 330.199874 
L 853.806399 331.798147 
L 855.154632 327.61575 
L 856.502865 333.217175 
L 857.851099 340.431809 
L 859.199332 331.544216 
L 860.547565 329.975817 
L 861.895798 333.247049 
L 863.244031 345.465623 
L 864.592264 319.818567 
L 865.940498 330.84217 
L 867.288731 337.653503 
L 868.636964 332.022204 
L 869.985197 330.872045 
L 871.33343 331.185725 
L 872.681663 334.143277 
L 874.029897 332.739186 
L 875.37813 337.056018 
L 876.726363 338.833536 
L 878.074596 335.666864 
L 879.422829 332.948306 
L 880.771062 332.589815 
L 882.119296 335.472681 
L 883.467529 335.144065 
L 884.815762 336.294224 
L 886.163995 339.670016 
L 887.512228 338.295799 
L 888.860461 332.559941 
L 890.208695 337.280074 
L 891.556928 335.771424 
L 892.905161 335.368122 
L 894.253394 338.549731 
L 895.601627 339.923947 
L 896.94986 338.743913 
L 898.298093 335.457744 
L 899.646327 338.280862 
L 900.99456 338.908222 
L 902.342793 338.863411 
L 903.691026 340.611055 
L 905.039259 345.465623 
L 906.387492 335.681801 
L 907.735726 340.536369 
L 909.083959 339.475833 
L 910.432192 340.088255 
L 911.780425 339.192027 
L 913.128658 345.465623 
L 914.476891 342.269077 
L 915.825125 342.134642 
L 917.173358 335.920795 
L 918.521591 339.894073 
L 919.869824 340.625992 
L 921.218057 341.656654 
L 922.56629 341.73134 
L 923.914524 343.195179 
L 925.262757 340.372061 
L 926.61099 339.998633 
L 927.959223 340.625992 
L 929.307456 341.507283 
L 930.655689 341.62678 
L 932.003923 342.702254 
L 933.352156 342.791876 
L 934.700389 342.000208 
L 936.048622 341.552094 
L 937.396855 341.552094 
L 938.745088 342.104768 
L 940.093322 342.074894 
L 942.789788 343.65823 
L 944.138021 341.686529 
L 945.486254 342.313888 
L 946.834487 342.179454 
L 948.18272 342.552882 
L 949.530954 342.134642 
L 950.879187 343.688104 
L 952.22742 343.852413 
L 953.575653 341.73134 
L 956.272119 345.465623 
L 957.620353 339.057593 
L 958.968586 345.465623 
L 960.316819 341.492346 
L 963.013285 345.465623 
L 964.361518 338.594542 
L 965.709752 342.403511 
L 967.057985 342.582756 
L 968.406218 343.225053 
L 969.754451 345.465623 
L 971.102684 341.492346 
L 972.450917 342.25414 
L 973.799151 342.881499 
L 975.147384 343.374424 
L 976.495617 342.463259 
L 977.84385 343.434173 
L 979.192083 343.523796 
L 980.540316 345.465623 
L 981.88855 342.284014 
L 983.236783 343.55367 
L 984.585016 344.210904 
L 985.933249 344.061533 
L 987.281482 343.673167 
L 989.977949 343.882287 
L 991.326182 345.465623 
L 992.674415 339.774576 
L 994.022648 343.986847 
L 995.370881 342.04502 
L 996.719114 342.14958 
L 998.067347 342.956185 
L 999.415581 345.465623 
L 1000.763814 340.879923 
L 1002.112047 341.910586 
L 1003.46028 342.433385 
L 1004.808513 345.465623 
L 1006.156746 338.504919 
L 1007.50498 343.045808 
L 1008.853213 343.493922 
L 1010.201446 342.269077 
L 1011.549679 341.462472 
L 1012.897912 342.448322 
L 1014.246145 341.238415 
L 1015.594379 342.328825 
L 1016.942612 345.465623 
L 1018.290845 342.358699 
L 1020.987311 341.761214 
L 1022.335544 341.20854 
L 1023.683778 341.462472 
L 1025.032011 345.465623 
L 1026.380244 337.847686 
L 1027.728477 345.465623 
L 1029.07671 342.806813 
L 1030.424943 340.506495 
L 1031.773177 337.593754 
L 1033.12141 343.568607 
L 1034.469643 340.148004 
L 1035.817876 342.358699 
L 1037.166109 345.465623 
L 1038.514342 335.651927 
L 1039.862576 345.465623 
L 1041.210809 339.69989 
L 1042.559042 332.724249 
L 1043.907275 345.465623 
L 1045.255508 339.69989 
L 1047.951974 341.701466 
L 1049.300208 328.213235 
L 1050.648441 334.725825 
L 1051.996674 345.465623 
L 1053.344907 320.191995 
L 1054.69314 337.056018 
L 1056.041373 336.891709 
L 1057.389607 325.240746 
L 1058.73784 325.330369 
L 1060.086073 345.465623 
L 1061.434306 272.617229 
L 1062.782539 317.264317 
L 1064.130772 330.872045 
L 1065.479006 325.106312 
L 1066.827239 345.465623 
L 1068.175472 296.785509 
L 1069.523705 211.106118 
L 1070.871938 270.137665 
L 1072.220171 273.707639 
L 1073.568405 284.731243 
L 1074.916638 298.577965 
L 1076.264871 284.148695 
L 1077.613104 248.18008 
L 1078.961337 345.465623 
L 1080.30957 67.575214 
L 1081.657804 212.495271 
L 1083.006037 236.753174 
L 1084.35427 263.789384 
L 1085.702503 173.404796 
L 1087.050736 184.697268 
L 1088.398969 160.977102 
L 1089.747203 167.220823 
L 1091.095436 345.465623 
L 1092.443669 79.689228 
L 1093.791902 345.465623 
L 1095.140135 263.983566 
L 1096.488368 50.8755 
L 1097.836601 221.965413 
L 1099.184835 233.407257 
L 1100.533068 240.845948 
L 1101.881301 278.397899 
L 1103.229534 345.465623 
L 1104.577767 214.676093 
L 1105.926 345.465623 
L 1107.274234 176.810462 
L 1108.622467 281.116457 
L 1109.9707 345.465623 
L 1111.318933 256.82868 
L 1112.667166 345.465623 
L 1114.015399 273.857011 
L 1115.363633 300.235986 
L 1116.711866 309.258014 
L 1118.060099 313.933337 
L 1119.408332 317.368877 
L 1120.756565 327.496253 
L 1122.104798 345.465623 
L 1123.453032 307.92861 
L 1124.801265 325.629111 
L 1126.149498 327.227384 
L 1127.497731 327.257259 
L 1128.845964 345.465623 
L 1130.194197 321.192783 
L 1131.542431 345.465623 
L 1132.890664 324.359455 
L 1134.238897 334.501768 
L 1135.58713 333.7101 
L 1138.283596 337.35476 
L 1139.63183 340.133067 
L 1140.980063 341.94046 
L 1142.328296 340.162941 
L 1143.676529 342.000208 
L 1145.024762 338.684165 
L 1146.372995 337.66844 
L 1147.721228 339.102405 
L 1149.069462 345.465623 
L 1150.417695 338.848473 
L 1151.765928 339.759638 
L 1153.114161 340.969546 
L 1154.462394 340.835112 
L 1155.810627 340.969546 
L 1157.158861 345.465623 
L 1158.507094 339.311524 
L 1159.855327 343.284802 
L 1161.20356 340.640929 
L 1162.551793 340.984483 
L 1163.900026 340.536369 
L 1165.24826 341.447534 
L 1166.596493 345.465623 
L 1167.944726 337.937308 
L 1169.292959 345.465623 
L 1170.641192 337.997057 
L 1171.989425 339.69989 
L 1177.382358 342.433385 
L 1178.730591 343.598481 
L 1180.078824 340.611055 
L 1182.775291 341.089043 
L 1184.123524 341.059169 
L 1185.471757 345.465623 
L 1186.81999 339.759638 
L 1188.168223 343.613419 
L 1189.516457 340.386998 
L 1190.86469 341.686529 
L 1192.212923 341.776151 
L 1193.561156 340.581181 
L 1194.909389 345.465623 
L 1196.257622 339.087468 
L 1197.605855 345.465623 
L 1198.954089 343.434173 
L 1200.302322 333.993905 
L 1201.650555 340.028507 
L 1202.998788 341.41766 
L 1204.347021 345.465623 
L 1205.695254 340.625992 
L 1207.043488 342.717191 
L 1208.391721 338.310737 
L 1209.739954 337.713251 
L 1211.088187 338.19124 
L 1212.43642 337.369697 
L 1213.784653 338.280862 
L 1215.132887 340.491558 
L 1216.48112 341.477409 
L 1217.829353 334.352397 
L 1219.177586 332.843746 
L 1220.525819 332.410569 
L 1221.874052 331.439656 
L 1223.222286 331.544216 
L 1224.570519 335.00963 
L 1225.918752 337.429446 
L 1227.266985 335.726613 
L 1228.615218 318.011174 
L 1229.963451 313.843714 
L 1231.311685 316.801266 
L 1232.659918 305.553606 
L 1234.008151 321.342154 
L 1235.356384 325.16606 
L 1236.704617 296.068527 
L 1238.05285 295.814595 
L 1239.401084 292.97654 
L 1240.749317 296.949817 
L 1242.09755 299.847621 
L 1243.445783 313.111794 
L 1244.794016 318.593722 
L 1246.142249 345.465623 
L 1247.490482 234.69185 
L 1248.838716 288.077161 
L 1250.186949 294.425442 
L 1251.535182 297.621988 
L 1252.883415 313.096857 
L 1254.231648 319.206144 
L 1255.579881 287.569298 
L 1256.928115 288.331092 
L 1258.276348 286.449013 
L 1259.624581 290.52685 
L 1260.972814 299.026079 
L 1262.321047 313.754091 
L 1263.66928 317.951425 
L 1265.017514 288.420715 
L 1266.365747 294.037077 
L 1267.71398 288.868829 
L 1269.062213 296.232835 
L 1270.410446 299.817747 
L 1271.758679 316.457712 
L 1273.106913 320.191995 
L 1274.455146 292.842106 
L 1275.803379 297.009566 
L 1277.151612 303.746213 
L 1278.499845 306.763513 
L 1279.848078 310.766665 
L 1281.196312 324.717946 
L 1282.544545 328.945155 
L 1283.892778 309.780814 
L 1285.241011 314.396388 
L 1286.589244 316.218718 
L 1287.937477 323.791844 
L 1289.285711 314.79969 
L 1290.633944 328.392481 
L 1291.982177 333.127552 
L 1293.33041 314.396388 
L 1294.678643 316.233655 
L 1296.026876 313.649531 
L 1297.375109 318.190419 
L 1298.723343 321.805205 
L 1300.071576 328.661349 
L 1301.419809 332.530066 
L 1302.768042 315.755667 
L 1304.116275 318.160545 
L 1305.464508 321.20772 
L 1306.812742 321.177846 
L 1306.812742 321.177846 
" clip-path="url(#p1777b85388)" style="fill: none; stroke: #0000ff; stroke-width: 1.5; stroke-linecap: square"/>
   </g>
   <g id="line2d_22">
    <path d="M 1066.827239 313.792557 
L 1068.175472 328.042361 
L 1069.523705 318.140404 
L 1072.220171 271.792521 
L 1073.568405 298.312619 
L 1074.916638 280.904517 
L 1076.264871 271.953859 
L 1077.613104 248.714932 
L 1078.961337 244.87654 
L 1080.30957 281.593392 
L 1081.657804 295.777721 
L 1083.006037 179.672958 
L 1084.35427 253.148612 
L 1085.702503 217.906439 
L 1087.050736 246.631936 
L 1088.398969 122.334804 
L 1089.747203 176.894017 
L 1091.095436 153.189049 
L 1092.443669 244.097341 
L 1093.791902 207.123906 
L 1095.140135 132.30654 
L 1096.488368 279.946013 
L 1097.836601 178.784486 
L 1099.184835 198.342501 
L 1100.533068 194.769494 
L 1101.881301 255.75376 
L 1103.229534 220.66867 
L 1104.577767 218.309181 
L 1105.926 236.046033 
L 1107.274234 256.880236 
L 1108.622467 335.984357 
L 1109.9707 229.089819 
L 1111.318933 353.2755 
L 1112.667166 287.729513 
L 1114.015399 294.980312 
L 1115.363633 274.525523 
L 1116.711866 290.706911 
L 1118.060099 325.728282 
L 1119.408332 316.839791 
L 1120.756565 334.033092 
L 1122.104798 304.350165 
L 1123.453032 335.888422 
L 1124.801265 317.337833 
L 1126.149498 328.627028 
L 1127.497731 336.146001 
L 1128.845964 334.603094 
L 1130.194197 347.37698 
L 1131.542431 331.079123 
L 1132.890664 330.877523 
L 1134.238897 336.540682 
L 1135.58713 334.718113 
L 1136.935363 342.861554 
L 1138.283596 333.987716 
L 1139.63183 343.613652 
L 1140.980063 332.239234 
L 1142.328296 340.92523 
L 1143.676529 337.073339 
L 1145.024762 343.297268 
L 1146.372995 343.043636 
L 1147.721228 342.068495 
L 1149.069462 343.178276 
L 1150.417695 341.445122 
L 1151.765928 344.160101 
L 1153.114161 338.860988 
L 1154.462394 340.818879 
L 1155.810627 340.629355 
L 1157.158861 343.039453 
L 1158.507094 342.314853 
L 1159.855327 342.57241 
L 1161.20356 340.620036 
L 1162.551793 343.318871 
L 1163.900026 341.237643 
L 1165.24826 343.10365 
L 1166.596493 340.909247 
L 1167.944726 342.941867 
L 1169.292959 341.695004 
L 1170.641192 340.751484 
L 1171.989425 342.901829 
L 1173.337659 339.765586 
L 1174.685892 342.782877 
L 1176.034125 339.600942 
L 1177.382358 342.071833 
L 1178.730591 339.316122 
L 1180.078824 341.58609 
L 1181.427058 340.966042 
L 1182.775291 341.726368 
L 1184.123524 342.096446 
L 1185.471757 341.513681 
L 1186.81999 343.093061 
L 1188.168223 342.391461 
L 1189.516457 340.583653 
L 1190.86469 342.281568 
L 1192.212923 341.183139 
L 1193.561156 343.577136 
L 1194.909389 340.901076 
L 1196.257622 342.679366 
L 1198.954089 340.889948 
L 1200.302322 344.225792 
L 1201.650555 341.491326 
L 1202.998788 340.108291 
L 1204.347021 340.225134 
L 1205.695254 342.513477 
L 1207.043488 342.365964 
L 1208.391721 338.716213 
L 1209.739954 340.588568 
L 1211.088187 339.844712 
L 1212.43642 342.575345 
L 1213.784653 338.903936 
L 1215.132887 339.090878 
L 1216.48112 337.176142 
L 1217.829353 338.396828 
L 1219.177586 337.982707 
L 1220.525819 335.841845 
L 1221.874052 336.239154 
L 1223.222286 335.327725 
L 1224.570519 334.585799 
L 1225.918752 331.124718 
L 1227.266985 331.490905 
L 1228.615218 333.469551 
L 1229.963451 332.262903 
L 1231.311685 324.39575 
L 1232.659918 325.173148 
L 1234.008151 322.224361 
L 1235.356384 315.034249 
L 1236.704617 316.562779 
L 1238.05285 310.288059 
L 1239.401084 300.421704 
L 1240.749317 299.238997 
L 1242.09755 300.059367 
L 1243.445783 301.621498 
L 1244.794016 293.646588 
L 1246.142249 293.368998 
L 1247.490482 308.459886 
L 1248.838716 311.937612 
L 1250.186949 271.221565 
L 1251.535182 307.406697 
L 1252.883415 297.712196 
L 1254.231648 308.623004 
L 1255.579881 278.193086 
L 1256.928115 292.557778 
L 1258.276348 286.260526 
L 1259.624581 304.690388 
L 1260.972814 296.591493 
L 1262.321047 303.43256 
L 1263.66928 296.249109 
L 1265.017514 294.73566 
L 1266.365747 295.97217 
L 1267.71398 293.138758 
L 1269.062213 301.664779 
L 1270.410446 302.851384 
L 1271.758679 306.969457 
L 1273.106913 295.023474 
L 1274.455146 302.382079 
L 1277.151612 298.238403 
L 1278.499845 303.726979 
L 1279.848078 312.66071 
L 1281.196312 313.819391 
L 1282.544545 304.709376 
L 1283.892778 311.19486 
L 1285.241011 314.478503 
L 1286.589244 314.992377 
L 1287.937477 318.942006 
L 1289.285711 326.270912 
L 1290.633944 329.246108 
L 1291.982177 316.330367 
L 1293.33041 323.649407 
L 1294.678643 323.79833 
L 1296.026876 323.233275 
L 1297.375109 320.32298 
L 1300.071576 325.567067 
L 1301.419809 319.176447 
L 1302.768042 321.2651 
L 1304.116275 321.215693 
L 1305.464508 320.119851 
L 1306.812742 322.739806 
L 1306.812742 322.739806 
" clip-path="url(#p1777b85388)" style="fill: none; stroke: #ffa500; stroke-width: 1.5; stroke-linecap: square"/>
   </g>
   <g id="line2d_23">
    <path d="M 1306.812742 322.739806 
L 1308.160975 326.60205 
L 1309.509208 327.110781 
L 1310.857441 320.560978 
L 1312.205674 321.448787 
L 1313.553907 322.045776 
L 1314.902141 322.901229 
L 1316.250374 323.314361 
L 1317.598607 325.278856 
L 1318.94684 325.959838 
L 1320.295073 322.132587 
L 1321.643306 322.705808 
L 1322.99154 323.129165 
L 1324.339773 323.405436 
" clip-path="url(#p1777b85388)" style="fill: none; stroke: #ff0000; stroke-width: 1.5; stroke-linecap: square"/>
   </g>
   <g id="patch_3">
    <path d="M 46.0125 368.3955 
L 46.0125 35.7555 
" style="fill: none; stroke: #000000; stroke-width: 0.8; stroke-linejoin: miter; stroke-linecap: square"/>
   </g>
   <g id="patch_4">
    <path d="M 1385.2125 368.3955 
L 1385.2125 35.7555 
" style="fill: none; stroke: #000000; stroke-width: 0.8; stroke-linejoin: miter; stroke-linecap: square"/>
   </g>
   <g id="patch_5">
    <path d="M 46.0125 368.3955 
L 1385.2125 368.3955 
" style="fill: none; stroke: #000000; stroke-width: 0.8; stroke-linejoin: miter; stroke-linecap: square"/>
   </g>
   <g id="patch_6">
    <path d="M 46.0125 35.7555 
L 1385.2125 35.7555 
" style="fill: none; stroke: #000000; stroke-width: 0.8; stroke-linejoin: miter; stroke-linecap: square"/>
   </g>
   <g id="text_21">
    <!-- Daily Confirmed Cases Forecasting - Panama -->
    <g transform="translate(581.086875 16.318125)scale(0.12 -0.12)">
     <defs>
      <path id="DejaVuSans-44" d="M 1259 4147 
L 1259 519 
L 2022 519 
Q 2988 519 3436 956 
Q 3884 1394 3884 2338 
Q 3884 3275 3436 3711 
Q 2988 4147 2022 4147 
L 1259 4147 
z
M 628 4666 
L 1925 4666 
Q 3281 4666 3915 4102 
Q 4550 3538 4550 2338 
Q 4550 1131 3912 565 
Q 3275 0 1925 0 
L 628 0 
L 628 4666 
z
" transform="scale(0.015625)"/>
      <path id="DejaVuSans-61" d="M 2194 1759 
Q 1497 1759 1228 1600 
Q 959 1441 959 1056 
Q 959 750 1161 570 
Q 1363 391 1709 391 
Q 2188 391 2477 730 
Q 2766 1069 2766 1631 
L 2766 1759 
L 2194 1759 
z
M 3341 1997 
L 3341 0 
L 2766 0 
L 2766 531 
Q 2569 213 2275 61 
Q 1981 -91 1556 -91 
Q 1019 -91 701 211 
Q 384 513 384 1019 
Q 384 1609 779 1909 
Q 1175 2209 1959 2209 
L 2766 2209 
L 2766 2266 
Q 2766 2663 2505 2880 
Q 2244 3097 1772 3097 
Q 1472 3097 1187 3025 
Q 903 2953 641 2809 
L 641 3341 
Q 956 3463 1253 3523 
Q 1550 3584 1831 3584 
Q 2591 3584 2966 3190 
Q 3341 2797 3341 1997 
z
" transform="scale(0.015625)"/>
      <path id="DejaVuSans-69" d="M 603 3500 
L 1178 3500 
L 1178 0 
L 603 0 
L 603 3500 
z
M 603 4863 
L 1178 4863 
L 1178 4134 
L 603 4134 
L 603 4863 
z
" transform="scale(0.015625)"/>
      <path id="DejaVuSans-6c" d="M 603 4863 
L 1178 4863 
L 1178 0 
L 603 0 
L 603 4863 
z
" transform="scale(0.015625)"/>
      <path id="DejaVuSans-79" d="M 2059 -325 
Q 1816 -950 1584 -1140 
Q 1353 -1331 966 -1331 
L 506 -1331 
L 506 -850 
L 844 -850 
Q 1081 -850 1212 -737 
Q 1344 -625 1503 -206 
L 1606 56 
L 191 3500 
L 800 3500 
L 1894 763 
L 2988 3500 
L 3597 3500 
L 2059 -325 
z
" transform="scale(0.015625)"/>
      <path id="DejaVuSans-20" transform="scale(0.015625)"/>
      <path id="DejaVuSans-43" d="M 4122 4306 
L 4122 3641 
Q 3803 3938 3442 4084 
Q 3081 4231 2675 4231 
Q 1875 4231 1450 3742 
Q 1025 3253 1025 2328 
Q 1025 1406 1450 917 
Q 1875 428 2675 428 
Q 3081 428 3442 575 
Q 3803 722 4122 1019 
L 4122 359 
Q 3791 134 3420 21 
Q 3050 -91 2638 -91 
Q 1578 -91 968 557 
Q 359 1206 359 2328 
Q 359 3453 968 4101 
Q 1578 4750 2638 4750 
Q 3056 4750 3426 4639 
Q 3797 4528 4122 4306 
z
" transform="scale(0.015625)"/>
      <path id="DejaVuSans-6f" d="M 1959 3097 
Q 1497 3097 1228 2736 
Q 959 2375 959 1747 
Q 959 1119 1226 758 
Q 1494 397 1959 397 
Q 2419 397 2687 759 
Q 2956 1122 2956 1747 
Q 2956 2369 2687 2733 
Q 2419 3097 1959 3097 
z
M 1959 3584 
Q 2709 3584 3137 3096 
Q 3566 2609 3566 1747 
Q 3566 888 3137 398 
Q 2709 -91 1959 -91 
Q 1206 -91 779 398 
Q 353 888 353 1747 
Q 353 2609 779 3096 
Q 1206 3584 1959 3584 
z
" transform="scale(0.015625)"/>
      <path id="DejaVuSans-6e" d="M 3513 2113 
L 3513 0 
L 2938 0 
L 2938 2094 
Q 2938 2591 2744 2837 
Q 2550 3084 2163 3084 
Q 1697 3084 1428 2787 
Q 1159 2491 1159 1978 
L 1159 0 
L 581 0 
L 581 3500 
L 1159 3500 
L 1159 2956 
Q 1366 3272 1645 3428 
Q 1925 3584 2291 3584 
Q 2894 3584 3203 3211 
Q 3513 2838 3513 2113 
z
" transform="scale(0.015625)"/>
      <path id="DejaVuSans-66" d="M 2375 4863 
L 2375 4384 
L 1825 4384 
Q 1516 4384 1395 4259 
Q 1275 4134 1275 3809 
L 1275 3500 
L 2222 3500 
L 2222 3053 
L 1275 3053 
L 1275 0 
L 697 0 
L 697 3053 
L 147 3053 
L 147 3500 
L 697 3500 
L 697 3744 
Q 697 4328 969 4595 
Q 1241 4863 1831 4863 
L 2375 4863 
z
" transform="scale(0.015625)"/>
      <path id="DejaVuSans-72" d="M 2631 2963 
Q 2534 3019 2420 3045 
Q 2306 3072 2169 3072 
Q 1681 3072 1420 2755 
Q 1159 2438 1159 1844 
L 1159 0 
L 581 0 
L 581 3500 
L 1159 3500 
L 1159 2956 
Q 1341 3275 1631 3429 
Q 1922 3584 2338 3584 
Q 2397 3584 2469 3576 
Q 2541 3569 2628 3553 
L 2631 2963 
z
" transform="scale(0.015625)"/>
      <path id="DejaVuSans-6d" d="M 3328 2828 
Q 3544 3216 3844 3400 
Q 4144 3584 4550 3584 
Q 5097 3584 5394 3201 
Q 5691 2819 5691 2113 
L 5691 0 
L 5113 0 
L 5113 2094 
Q 5113 2597 4934 2840 
Q 4756 3084 4391 3084 
Q 3944 3084 3684 2787 
Q 3425 2491 3425 1978 
L 3425 0 
L 2847 0 
L 2847 2094 
Q 2847 2600 2669 2842 
Q 2491 3084 2119 3084 
Q 1678 3084 1418 2786 
Q 1159 2488 1159 1978 
L 1159 0 
L 581 0 
L 581 3500 
L 1159 3500 
L 1159 2956 
Q 1356 3278 1631 3431 
Q 1906 3584 2284 3584 
Q 2666 3584 2933 3390 
Q 3200 3197 3328 2828 
z
" transform="scale(0.015625)"/>
      <path id="DejaVuSans-65" d="M 3597 1894 
L 3597 1613 
L 953 1613 
Q 991 1019 1311 708 
Q 1631 397 2203 397 
Q 2534 397 2845 478 
Q 3156 559 3463 722 
L 3463 178 
Q 3153 47 2828 -22 
Q 2503 -91 2169 -91 
Q 1331 -91 842 396 
Q 353 884 353 1716 
Q 353 2575 817 3079 
Q 1281 3584 2069 3584 
Q 2775 3584 3186 3129 
Q 3597 2675 3597 1894 
z
M 3022 2063 
Q 3016 2534 2758 2815 
Q 2500 3097 2075 3097 
Q 1594 3097 1305 2825 
Q 1016 2553 972 2059 
L 3022 2063 
z
" transform="scale(0.015625)"/>
      <path id="DejaVuSans-64" d="M 2906 2969 
L 2906 4863 
L 3481 4863 
L 3481 0 
L 2906 0 
L 2906 525 
Q 2725 213 2448 61 
Q 2172 -91 1784 -91 
Q 1150 -91 751 415 
Q 353 922 353 1747 
Q 353 2572 751 3078 
Q 1150 3584 1784 3584 
Q 2172 3584 2448 3432 
Q 2725 3281 2906 2969 
z
M 947 1747 
Q 947 1113 1208 752 
Q 1469 391 1925 391 
Q 2381 391 2643 752 
Q 2906 1113 2906 1747 
Q 2906 2381 2643 2742 
Q 2381 3103 1925 3103 
Q 1469 3103 1208 2742 
Q 947 2381 947 1747 
z
" transform="scale(0.015625)"/>
      <path id="DejaVuSans-73" d="M 2834 3397 
L 2834 2853 
Q 2591 2978 2328 3040 
Q 2066 3103 1784 3103 
Q 1356 3103 1142 2972 
Q 928 2841 928 2578 
Q 928 2378 1081 2264 
Q 1234 2150 1697 2047 
L 1894 2003 
Q 2506 1872 2764 1633 
Q 3022 1394 3022 966 
Q 3022 478 2636 193 
Q 2250 -91 1575 -91 
Q 1294 -91 989 -36 
Q 684 19 347 128 
L 347 722 
Q 666 556 975 473 
Q 1284 391 1588 391 
Q 1994 391 2212 530 
Q 2431 669 2431 922 
Q 2431 1156 2273 1281 
Q 2116 1406 1581 1522 
L 1381 1569 
Q 847 1681 609 1914 
Q 372 2147 372 2553 
Q 372 3047 722 3315 
Q 1072 3584 1716 3584 
Q 2034 3584 2315 3537 
Q 2597 3491 2834 3397 
z
" transform="scale(0.015625)"/>
      <path id="DejaVuSans-46" d="M 628 4666 
L 3309 4666 
L 3309 4134 
L 1259 4134 
L 1259 2759 
L 3109 2759 
L 3109 2228 
L 1259 2228 
L 1259 0 
L 628 0 
L 628 4666 
z
" transform="scale(0.015625)"/>
      <path id="DejaVuSans-63" d="M 3122 3366 
L 3122 2828 
Q 2878 2963 2633 3030 
Q 2388 3097 2138 3097 
Q 1578 3097 1268 2742 
Q 959 2388 959 1747 
Q 959 1106 1268 751 
Q 1578 397 2138 397 
Q 2388 397 2633 464 
Q 2878 531 3122 666 
L 3122 134 
Q 2881 22 2623 -34 
Q 2366 -91 2075 -91 
Q 1284 -91 818 406 
Q 353 903 353 1747 
Q 353 2603 823 3093 
Q 1294 3584 2113 3584 
Q 2378 3584 2631 3529 
Q 2884 3475 3122 3366 
z
" transform="scale(0.015625)"/>
      <path id="DejaVuSans-74" d="M 1172 4494 
L 1172 3500 
L 2356 3500 
L 2356 3053 
L 1172 3053 
L 1172 1153 
Q 1172 725 1289 603 
Q 1406 481 1766 481 
L 2356 481 
L 2356 0 
L 1766 0 
Q 1100 0 847 248 
Q 594 497 594 1153 
L 594 3053 
L 172 3053 
L 172 3500 
L 594 3500 
L 594 4494 
L 1172 4494 
z
" transform="scale(0.015625)"/>
      <path id="DejaVuSans-67" d="M 2906 1791 
Q 2906 2416 2648 2759 
Q 2391 3103 1925 3103 
Q 1463 3103 1205 2759 
Q 947 2416 947 1791 
Q 947 1169 1205 825 
Q 1463 481 1925 481 
Q 2391 481 2648 825 
Q 2906 1169 2906 1791 
z
M 3481 434 
Q 3481 -459 3084 -895 
Q 2688 -1331 1869 -1331 
Q 1566 -1331 1297 -1286 
Q 1028 -1241 775 -1147 
L 775 -588 
Q 1028 -725 1275 -790 
Q 1522 -856 1778 -856 
Q 2344 -856 2625 -561 
Q 2906 -266 2906 331 
L 2906 616 
Q 2728 306 2450 153 
Q 2172 0 1784 0 
Q 1141 0 747 490 
Q 353 981 353 1791 
Q 353 2603 747 3093 
Q 1141 3584 1784 3584 
Q 2172 3584 2450 3431 
Q 2728 3278 2906 2969 
L 2906 3500 
L 3481 3500 
L 3481 434 
z
" transform="scale(0.015625)"/>
      <path id="DejaVuSans-50" d="M 1259 4147 
L 1259 2394 
L 2053 2394 
Q 2494 2394 2734 2622 
Q 2975 2850 2975 3272 
Q 2975 3691 2734 3919 
Q 2494 4147 2053 4147 
L 1259 4147 
z
M 628 4666 
L 2053 4666 
Q 2838 4666 3239 4311 
Q 3641 3956 3641 3272 
Q 3641 2581 3239 2228 
Q 2838 1875 2053 1875 
L 1259 1875 
L 1259 0 
L 628 0 
L 628 4666 
z
" transform="scale(0.015625)"/>
     </defs>
     <use xlink:href="#DejaVuSans-44"/>
     <use xlink:href="#DejaVuSans-61" x="77.001953"/>
     <use xlink:href="#DejaVuSans-69" x="138.28125"/>
     <use xlink:href="#DejaVuSans-6c" x="166.064453"/>
     <use xlink:href="#DejaVuSans-79" x="193.847656"/>
     <use xlink:href="#DejaVuSans-20" x="253.027344"/>
     <use xlink:href="#DejaVuSans-43" x="284.814453"/>
     <use xlink:href="#DejaVuSans-6f" x="354.638672"/>
     <use xlink:href="#DejaVuSans-6e" x="415.820312"/>
     <use xlink:href="#DejaVuSans-66" x="479.199219"/>
     <use xlink:href="#DejaVuSans-69" x="514.404297"/>
     <use xlink:href="#DejaVuSans-72" x="542.1875"/>
     <use xlink:href="#DejaVuSans-6d" x="581.550781"/>
     <use xlink:href="#DejaVuSans-65" x="678.962891"/>
     <use xlink:href="#DejaVuSans-64" x="740.486328"/>
     <use xlink:href="#DejaVuSans-20" x="803.962891"/>
     <use xlink:href="#DejaVuSans-43" x="835.75"/>
     <use xlink:href="#DejaVuSans-61" x="905.574219"/>
     <use xlink:href="#DejaVuSans-73" x="966.853516"/>
     <use xlink:href="#DejaVuSans-65" x="1018.953125"/>
     <use xlink:href="#DejaVuSans-73" x="1080.476562"/>
     <use xlink:href="#DejaVuSans-20" x="1132.576172"/>
     <use xlink:href="#DejaVuSans-46" x="1164.363281"/>
     <use xlink:href="#DejaVuSans-6f" x="1218.257812"/>
     <use xlink:href="#DejaVuSans-72" x="1279.439453"/>
     <use xlink:href="#DejaVuSans-65" x="1318.302734"/>
     <use xlink:href="#DejaVuSans-63" x="1379.826172"/>
     <use xlink:href="#DejaVuSans-61" x="1434.806641"/>
     <use xlink:href="#DejaVuSans-73" x="1496.085938"/>
     <use xlink:href="#DejaVuSans-74" x="1548.185547"/>
     <use xlink:href="#DejaVuSans-69" x="1587.394531"/>
     <use xlink:href="#DejaVuSans-6e" x="1615.177734"/>
     <use xlink:href="#DejaVuSans-67" x="1678.556641"/>
     <use xlink:href="#DejaVuSans-20" x="1742.033203"/>
     <use xlink:href="#DejaVuSans-2d" x="1773.820312"/>
     <use xlink:href="#DejaVuSans-20" x="1809.904297"/>
     <use xlink:href="#DejaVuSans-50" x="1841.691406"/>
     <use xlink:href="#DejaVuSans-61" x="1897.494141"/>
     <use xlink:href="#DejaVuSans-6e" x="1958.773438"/>
     <use xlink:href="#DejaVuSans-61" x="2022.152344"/>
     <use xlink:href="#DejaVuSans-6d" x="2083.431641"/>
     <use xlink:href="#DejaVuSans-61" x="2180.84375"/>
    </g>
    <!-- ARIMA (4, 1, 1)x(1, 0, 1, 7) (R2 = 0.245423) -->
    <g transform="translate(583.628438 29.7555)scale(0.12 -0.12)">
     <defs>
      <path id="DejaVuSans-41" d="M 2188 4044 
L 1331 1722 
L 3047 1722 
L 2188 4044 
z
M 1831 4666 
L 2547 4666 
L 4325 0 
L 3669 0 
L 3244 1197 
L 1141 1197 
L 716 0 
L 50 0 
L 1831 4666 
z
" transform="scale(0.015625)"/>
      <path id="DejaVuSans-52" d="M 2841 2188 
Q 3044 2119 3236 1894 
Q 3428 1669 3622 1275 
L 4263 0 
L 3584 0 
L 2988 1197 
Q 2756 1666 2539 1819 
Q 2322 1972 1947 1972 
L 1259 1972 
L 1259 0 
L 628 0 
L 628 4666 
L 2053 4666 
Q 2853 4666 3247 4331 
Q 3641 3997 3641 3322 
Q 3641 2881 3436 2590 
Q 3231 2300 2841 2188 
z
M 1259 4147 
L 1259 2491 
L 2053 2491 
Q 2509 2491 2742 2702 
Q 2975 2913 2975 3322 
Q 2975 3731 2742 3939 
Q 2509 4147 2053 4147 
L 1259 4147 
z
" transform="scale(0.015625)"/>
      <path id="DejaVuSans-49" d="M 628 4666 
L 1259 4666 
L 1259 0 
L 628 0 
L 628 4666 
z
" transform="scale(0.015625)"/>
      <path id="DejaVuSans-4d" d="M 628 4666 
L 1569 4666 
L 2759 1491 
L 3956 4666 
L 4897 4666 
L 4897 0 
L 4281 0 
L 4281 4097 
L 3078 897 
L 2444 897 
L 1241 4097 
L 1241 0 
L 628 0 
L 628 4666 
z
" transform="scale(0.015625)"/>
      <path id="DejaVuSans-28" d="M 1984 4856 
Q 1566 4138 1362 3434 
Q 1159 2731 1159 2009 
Q 1159 1288 1364 580 
Q 1569 -128 1984 -844 
L 1484 -844 
Q 1016 -109 783 600 
Q 550 1309 550 2009 
Q 550 2706 781 3412 
Q 1013 4119 1484 4856 
L 1984 4856 
z
" transform="scale(0.015625)"/>
      <path id="DejaVuSans-2c" d="M 750 794 
L 1409 794 
L 1409 256 
L 897 -744 
L 494 -744 
L 750 256 
L 750 794 
z
" transform="scale(0.015625)"/>
      <path id="DejaVuSans-29" d="M 513 4856 
L 1013 4856 
Q 1481 4119 1714 3412 
Q 1947 2706 1947 2009 
Q 1947 1309 1714 600 
Q 1481 -109 1013 -844 
L 513 -844 
Q 928 -128 1133 580 
Q 1338 1288 1338 2009 
Q 1338 2731 1133 3434 
Q 928 4138 513 4856 
z
" transform="scale(0.015625)"/>
      <path id="DejaVuSans-78" d="M 3513 3500 
L 2247 1797 
L 3578 0 
L 2900 0 
L 1881 1375 
L 863 0 
L 184 0 
L 1544 1831 
L 300 3500 
L 978 3500 
L 1906 2253 
L 2834 3500 
L 3513 3500 
z
" transform="scale(0.015625)"/>
      <path id="DejaVuSans-3d" d="M 678 2906 
L 4684 2906 
L 4684 2381 
L 678 2381 
L 678 2906 
z
M 678 1631 
L 4684 1631 
L 4684 1100 
L 678 1100 
L 678 1631 
z
" transform="scale(0.015625)"/>
      <path id="DejaVuSans-2e" d="M 684 794 
L 1344 794 
L 1344 0 
L 684 0 
L 684 794 
z
" transform="scale(0.015625)"/>
      <path id="DejaVuSans-33" d="M 2597 2516 
Q 3050 2419 3304 2112 
Q 3559 1806 3559 1356 
Q 3559 666 3084 287 
Q 2609 -91 1734 -91 
Q 1441 -91 1130 -33 
Q 819 25 488 141 
L 488 750 
Q 750 597 1062 519 
Q 1375 441 1716 441 
Q 2309 441 2620 675 
Q 2931 909 2931 1356 
Q 2931 1769 2642 2001 
Q 2353 2234 1838 2234 
L 1294 2234 
L 1294 2753 
L 1863 2753 
Q 2328 2753 2575 2939 
Q 2822 3125 2822 3475 
Q 2822 3834 2567 4026 
Q 2313 4219 1838 4219 
Q 1578 4219 1281 4162 
Q 984 4106 628 3988 
L 628 4550 
Q 988 4650 1302 4700 
Q 1616 4750 1894 4750 
Q 2613 4750 3031 4423 
Q 3450 4097 3450 3541 
Q 3450 3153 3228 2886 
Q 3006 2619 2597 2516 
z
" transform="scale(0.015625)"/>
     </defs>
     <use xlink:href="#DejaVuSans-41"/>
     <use xlink:href="#DejaVuSans-52" x="68.408203"/>
     <use xlink:href="#DejaVuSans-49" x="137.890625"/>
     <use xlink:href="#DejaVuSans-4d" x="167.382812"/>
     <use xlink:href="#DejaVuSans-41" x="253.662109"/>
     <use xlink:href="#DejaVuSans-20" x="322.070312"/>
     <use xlink:href="#DejaVuSans-28" x="353.857422"/>
     <use xlink:href="#DejaVuSans-34" x="392.871094"/>
     <use xlink:href="#DejaVuSans-2c" x="456.494141"/>
     <use xlink:href="#DejaVuSans-20" x="488.28125"/>
     <use xlink:href="#DejaVuSans-31" x="520.068359"/>
     <use xlink:href="#DejaVuSans-2c" x="583.691406"/>
     <use xlink:href="#DejaVuSans-20" x="615.478516"/>
     <use xlink:href="#DejaVuSans-31" x="647.265625"/>
     <use xlink:href="#DejaVuSans-29" x="710.888672"/>
     <use xlink:href="#DejaVuSans-78" x="749.902344"/>
     <use xlink:href="#DejaVuSans-28" x="809.082031"/>
     <use xlink:href="#DejaVuSans-31" x="848.095703"/>
     <use xlink:href="#DejaVuSans-2c" x="911.71875"/>
     <use xlink:href="#DejaVuSans-20" x="943.505859"/>
     <use xlink:href="#DejaVuSans-30" x="975.292969"/>
     <use xlink:href="#DejaVuSans-2c" x="1038.916016"/>
     <use xlink:href="#DejaVuSans-20" x="1070.703125"/>
     <use xlink:href="#DejaVuSans-31" x="1102.490234"/>
     <use xlink:href="#DejaVuSans-2c" x="1166.113281"/>
     <use xlink:href="#DejaVuSans-20" x="1197.900391"/>
     <use xlink:href="#DejaVuSans-37" x="1229.6875"/>
     <use xlink:href="#DejaVuSans-29" x="1293.310547"/>
     <use xlink:href="#DejaVuSans-20" x="1332.324219"/>
     <use xlink:href="#DejaVuSans-28" x="1364.111328"/>
     <use xlink:href="#DejaVuSans-52" x="1403.125"/>
     <use xlink:href="#DejaVuSans-32" x="1472.607422"/>
     <use xlink:href="#DejaVuSans-20" x="1536.230469"/>
     <use xlink:href="#DejaVuSans-3d" x="1568.017578"/>
     <use xlink:href="#DejaVuSans-20" x="1651.806641"/>
     <use xlink:href="#DejaVuSans-30" x="1683.59375"/>
     <use xlink:href="#DejaVuSans-2e" x="1747.216797"/>
     <use xlink:href="#DejaVuSans-32" x="1779.003906"/>
     <use xlink:href="#DejaVuSans-34" x="1842.626953"/>
     <use xlink:href="#DejaVuSans-35" x="1906.25"/>
     <use xlink:href="#DejaVuSans-34" x="1969.873047"/>
     <use xlink:href="#DejaVuSans-32" x="2033.496094"/>
     <use xlink:href="#DejaVuSans-33" x="2097.119141"/>
     <use xlink:href="#DejaVuSans-29" x="2160.742188"/>
    </g>
   </g>
   <g id="legend_1">
    <g id="patch_7">
     <path d="M 1281.132812 87.789875 
L 1378.2125 87.789875 
Q 1380.2125 87.789875 1380.2125 85.789875 
L 1380.2125 42.7555 
Q 1380.2125 40.7555 1378.2125 40.7555 
L 1281.132812 40.7555 
Q 1279.132812 40.7555 1279.132812 42.7555 
L 1279.132812 85.789875 
Q 1279.132812 87.789875 1281.132812 87.789875 
z
" style="fill: #ffffff; opacity: 0.8; stroke: #cccccc; stroke-linejoin: miter"/>
    </g>
    <g id="line2d_24">
     <path d="M 1283.132812 48.853937 
L 1293.132812 48.853937 
L 1303.132812 48.853937 
" style="fill: none; stroke: #0000ff; stroke-width: 1.5; stroke-linecap: square"/>
    </g>
    <g id="text_22">
     <!-- Actual Value -->
     <g transform="translate(1311.132812 52.353937)scale(0.1 -0.1)">
      <defs>
       <path id="DejaVuSans-75" d="M 544 1381 
L 544 3500 
L 1119 3500 
L 1119 1403 
Q 1119 906 1312 657 
Q 1506 409 1894 409 
Q 2359 409 2629 706 
Q 2900 1003 2900 1516 
L 2900 3500 
L 3475 3500 
L 3475 0 
L 2900 0 
L 2900 538 
Q 2691 219 2414 64 
Q 2138 -91 1772 -91 
Q 1169 -91 856 284 
Q 544 659 544 1381 
z
M 1991 3584 
L 1991 3584 
z
" transform="scale(0.015625)"/>
       <path id="DejaVuSans-56" d="M 1831 0 
L 50 4666 
L 709 4666 
L 2188 738 
L 3669 4666 
L 4325 4666 
L 2547 0 
L 1831 0 
z
" transform="scale(0.015625)"/>
      </defs>
      <use xlink:href="#DejaVuSans-41"/>
      <use xlink:href="#DejaVuSans-63" x="66.658203"/>
      <use xlink:href="#DejaVuSans-74" x="121.638672"/>
      <use xlink:href="#DejaVuSans-75" x="160.847656"/>
      <use xlink:href="#DejaVuSans-61" x="224.226562"/>
      <use xlink:href="#DejaVuSans-6c" x="285.505859"/>
      <use xlink:href="#DejaVuSans-20" x="313.289062"/>
      <use xlink:href="#DejaVuSans-56" x="345.076172"/>
      <use xlink:href="#DejaVuSans-61" x="405.734375"/>
      <use xlink:href="#DejaVuSans-6c" x="467.013672"/>
      <use xlink:href="#DejaVuSans-75" x="494.796875"/>
      <use xlink:href="#DejaVuSans-65" x="558.175781"/>
     </g>
    </g>
    <g id="line2d_25">
     <path d="M 1283.132812 63.532062 
L 1293.132812 63.532062 
L 1303.132812 63.532062 
" style="fill: none; stroke: #ffa500; stroke-width: 1.5; stroke-linecap: square"/>
    </g>
    <g id="text_23">
     <!-- Check Value -->
     <g transform="translate(1311.132812 67.032062)scale(0.1 -0.1)">
      <defs>
       <path id="DejaVuSans-68" d="M 3513 2113 
L 3513 0 
L 2938 0 
L 2938 2094 
Q 2938 2591 2744 2837 
Q 2550 3084 2163 3084 
Q 1697 3084 1428 2787 
Q 1159 2491 1159 1978 
L 1159 0 
L 581 0 
L 581 4863 
L 1159 4863 
L 1159 2956 
Q 1366 3272 1645 3428 
Q 1925 3584 2291 3584 
Q 2894 3584 3203 3211 
Q 3513 2838 3513 2113 
z
" transform="scale(0.015625)"/>
       <path id="DejaVuSans-6b" d="M 581 4863 
L 1159 4863 
L 1159 1991 
L 2875 3500 
L 3609 3500 
L 1753 1863 
L 3688 0 
L 2938 0 
L 1159 1709 
L 1159 0 
L 581 0 
L 581 4863 
z
" transform="scale(0.015625)"/>
      </defs>
      <use xlink:href="#DejaVuSans-43"/>
      <use xlink:href="#DejaVuSans-68" x="69.824219"/>
      <use xlink:href="#DejaVuSans-65" x="133.203125"/>
      <use xlink:href="#DejaVuSans-63" x="194.726562"/>
      <use xlink:href="#DejaVuSans-6b" x="249.707031"/>
      <use xlink:href="#DejaVuSans-20" x="307.617188"/>
      <use xlink:href="#DejaVuSans-56" x="339.404297"/>
      <use xlink:href="#DejaVuSans-61" x="400.0625"/>
      <use xlink:href="#DejaVuSans-6c" x="461.341797"/>
      <use xlink:href="#DejaVuSans-75" x="489.125"/>
      <use xlink:href="#DejaVuSans-65" x="552.503906"/>
     </g>
    </g>
    <g id="line2d_26">
     <path d="M 1283.132812 78.210187 
L 1293.132812 78.210187 
L 1303.132812 78.210187 
" style="fill: none; stroke: #ff0000; stroke-width: 1.5; stroke-linecap: square"/>
    </g>
    <g id="text_24">
     <!-- Predict Value -->
     <g transform="translate(1311.132812 81.710187)scale(0.1 -0.1)">
      <use xlink:href="#DejaVuSans-50"/>
      <use xlink:href="#DejaVuSans-72" x="58.552734"/>
      <use xlink:href="#DejaVuSans-65" x="97.416016"/>
      <use xlink:href="#DejaVuSans-64" x="158.939453"/>
      <use xlink:href="#DejaVuSans-69" x="222.416016"/>
      <use xlink:href="#DejaVuSans-63" x="250.199219"/>
      <use xlink:href="#DejaVuSans-74" x="305.179688"/>
      <use xlink:href="#DejaVuSans-20" x="344.388672"/>
      <use xlink:href="#DejaVuSans-56" x="376.175781"/>
      <use xlink:href="#DejaVuSans-61" x="436.833984"/>
      <use xlink:href="#DejaVuSans-6c" x="498.113281"/>
      <use xlink:href="#DejaVuSans-75" x="525.896484"/>
      <use xlink:href="#DejaVuSans-65" x="589.275391"/>
     </g>
    </g>
   </g>
  </g>
 </g>
 <defs>
  <clipPath id="p1777b85388">
   <rect x="46.0125" y="35.7555" width="1339.2" height="332.64"/>
  </clipPath>
 </defs>
</svg>
