<?xml version="1.0" encoding="utf-8" standalone="no"?>
<!DOCTYPE svg PUBLIC "-//W3C//DTD SVG 1.1//EN"
  "http://www.w3.org/Graphics/SVG/1.1/DTD/svg11.dtd">
<svg xmlns:xlink="http://www.w3.org/1999/xlink" width="1386.05pt" height="392.273625pt" viewBox="0 0 1386.05 392.273625" xmlns="http://www.w3.org/2000/svg" version="1.1">
 <metadata>
  <rdf:RDF xmlns:dc="http://purl.org/dc/elements/1.1/" xmlns:cc="http://creativecommons.org/ns#" xmlns:rdf="http://www.w3.org/1999/02/22-rdf-syntax-ns#">
   <cc:Work>
    <dc:type rdf:resource="http://purl.org/dc/dcmitype/StillImage"/>
    <dc:date>2022-07-16T19:11:59.938148</dc:date>
    <dc:format>image/svg+xml</dc:format>
    <dc:creator>
     <cc:Agent>
      <dc:title>Matplotlib v3.5.2, https://matplotlib.org/</dc:title>
     </cc:Agent>
    </dc:creator>
   </cc:Work>
  </rdf:RDF>
 </metadata>
 <defs>
  <style type="text/css">*{stroke-linejoin: round; stroke-linecap: butt}</style>
 </defs>
 <g id="figure_1">
  <g id="patch_1">
   <path d="M 0 392.273625 
L 1386.05 392.273625 
L 1386.05 0 
L 0 0 
z
" style="fill: #ffffff"/>
  </g>
  <g id="axes_1">
   <g id="patch_2">
    <path d="M 39.65 368.3955 
L 1378.85 368.3955 
L 1378.85 35.7555 
L 39.65 35.7555 
z
" style="fill: #ffffff"/>
   </g>
   <g id="matplotlib.axis_1">
    <g id="xtick_1">
     <g id="line2d_1">
      <defs>
       <path id="mcee86afdb0" d="M 0 0 
L 0 3.5 
" style="stroke: #000000; stroke-width: 0.8"/>
      </defs>
      <g>
       <use xlink:href="#mcee86afdb0" x="71.314439" y="368.3955" style="stroke: #000000; stroke-width: 0.8"/>
      </g>
     </g>
     <g id="text_1">
      <!-- 2020-01 -->
      <g transform="translate(50.423033 382.993937)scale(0.1 -0.1)">
       <defs>
        <path id="DejaVuSans-32" d="M 1228 531 
L 3431 531 
L 3431 0 
L 469 0 
L 469 531 
Q 828 903 1448 1529 
Q 2069 2156 2228 2338 
Q 2531 2678 2651 2914 
Q 2772 3150 2772 3378 
Q 2772 3750 2511 3984 
Q 2250 4219 1831 4219 
Q 1534 4219 1204 4116 
Q 875 4013 500 3803 
L 500 4441 
Q 881 4594 1212 4672 
Q 1544 4750 1819 4750 
Q 2544 4750 2975 4387 
Q 3406 4025 3406 3419 
Q 3406 3131 3298 2873 
Q 3191 2616 2906 2266 
Q 2828 2175 2409 1742 
Q 1991 1309 1228 531 
z
" transform="scale(0.015625)"/>
        <path id="DejaVuSans-30" d="M 2034 4250 
Q 1547 4250 1301 3770 
Q 1056 3291 1056 2328 
Q 1056 1369 1301 889 
Q 1547 409 2034 409 
Q 2525 409 2770 889 
Q 3016 1369 3016 2328 
Q 3016 3291 2770 3770 
Q 2525 4250 2034 4250 
z
M 2034 4750 
Q 2819 4750 3233 4129 
Q 3647 3509 3647 2328 
Q 3647 1150 3233 529 
Q 2819 -91 2034 -91 
Q 1250 -91 836 529 
Q 422 1150 422 2328 
Q 422 3509 836 4129 
Q 1250 4750 2034 4750 
z
" transform="scale(0.015625)"/>
        <path id="DejaVuSans-2d" d="M 313 2009 
L 1997 2009 
L 1997 1497 
L 313 1497 
L 313 2009 
z
" transform="scale(0.015625)"/>
        <path id="DejaVuSans-31" d="M 794 531 
L 1825 531 
L 1825 4091 
L 703 3866 
L 703 4441 
L 1819 4666 
L 2450 4666 
L 2450 531 
L 3481 531 
L 3481 0 
L 794 0 
L 794 531 
z
" transform="scale(0.015625)"/>
       </defs>
       <use xlink:href="#DejaVuSans-32"/>
       <use xlink:href="#DejaVuSans-30" x="63.623047"/>
       <use xlink:href="#DejaVuSans-32" x="127.246094"/>
       <use xlink:href="#DejaVuSans-30" x="190.869141"/>
       <use xlink:href="#DejaVuSans-2d" x="254.492188"/>
       <use xlink:href="#DejaVuSans-30" x="290.576172"/>
       <use xlink:href="#DejaVuSans-31" x="354.199219"/>
      </g>
     </g>
    </g>
    <g id="xtick_2">
     <g id="line2d_2">
      <g>
       <use xlink:href="#mcee86afdb0" x="192.130539" y="368.3955" style="stroke: #000000; stroke-width: 0.8"/>
      </g>
     </g>
     <g id="text_2">
      <!-- 2020-04 -->
      <g transform="translate(171.239133 382.993937)scale(0.1 -0.1)">
       <defs>
        <path id="DejaVuSans-34" d="M 2419 4116 
L 825 1625 
L 2419 1625 
L 2419 4116 
z
M 2253 4666 
L 3047 4666 
L 3047 1625 
L 3713 1625 
L 3713 1100 
L 3047 1100 
L 3047 0 
L 2419 0 
L 2419 1100 
L 313 1100 
L 313 1709 
L 2253 4666 
z
" transform="scale(0.015625)"/>
       </defs>
       <use xlink:href="#DejaVuSans-32"/>
       <use xlink:href="#DejaVuSans-30" x="63.623047"/>
       <use xlink:href="#DejaVuSans-32" x="127.246094"/>
       <use xlink:href="#DejaVuSans-30" x="190.869141"/>
       <use xlink:href="#DejaVuSans-2d" x="254.492188"/>
       <use xlink:href="#DejaVuSans-30" x="290.576172"/>
       <use xlink:href="#DejaVuSans-34" x="354.199219"/>
      </g>
     </g>
    </g>
    <g id="xtick_3">
     <g id="line2d_3">
      <g>
       <use xlink:href="#mcee86afdb0" x="312.946639" y="368.3955" style="stroke: #000000; stroke-width: 0.8"/>
      </g>
     </g>
     <g id="text_3">
      <!-- 2020-07 -->
      <g transform="translate(292.055233 382.993937)scale(0.1 -0.1)">
       <defs>
        <path id="DejaVuSans-37" d="M 525 4666 
L 3525 4666 
L 3525 4397 
L 1831 0 
L 1172 0 
L 2766 4134 
L 525 4134 
L 525 4666 
z
" transform="scale(0.015625)"/>
       </defs>
       <use xlink:href="#DejaVuSans-32"/>
       <use xlink:href="#DejaVuSans-30" x="63.623047"/>
       <use xlink:href="#DejaVuSans-32" x="127.246094"/>
       <use xlink:href="#DejaVuSans-30" x="190.869141"/>
       <use xlink:href="#DejaVuSans-2d" x="254.492188"/>
       <use xlink:href="#DejaVuSans-30" x="290.576172"/>
       <use xlink:href="#DejaVuSans-37" x="354.199219"/>
      </g>
     </g>
    </g>
    <g id="xtick_4">
     <g id="line2d_4">
      <g>
       <use xlink:href="#mcee86afdb0" x="435.090389" y="368.3955" style="stroke: #000000; stroke-width: 0.8"/>
      </g>
     </g>
     <g id="text_4">
      <!-- 2020-10 -->
      <g transform="translate(414.198982 382.993937)scale(0.1 -0.1)">
       <use xlink:href="#DejaVuSans-32"/>
       <use xlink:href="#DejaVuSans-30" x="63.623047"/>
       <use xlink:href="#DejaVuSans-32" x="127.246094"/>
       <use xlink:href="#DejaVuSans-30" x="190.869141"/>
       <use xlink:href="#DejaVuSans-2d" x="254.492188"/>
       <use xlink:href="#DejaVuSans-31" x="290.576172"/>
       <use xlink:href="#DejaVuSans-30" x="354.199219"/>
      </g>
     </g>
    </g>
    <g id="xtick_5">
     <g id="line2d_5">
      <g>
       <use xlink:href="#mcee86afdb0" x="557.234138" y="368.3955" style="stroke: #000000; stroke-width: 0.8"/>
      </g>
     </g>
     <g id="text_5">
      <!-- 2021-01 -->
      <g transform="translate(536.342732 382.993937)scale(0.1 -0.1)">
       <use xlink:href="#DejaVuSans-32"/>
       <use xlink:href="#DejaVuSans-30" x="63.623047"/>
       <use xlink:href="#DejaVuSans-32" x="127.246094"/>
       <use xlink:href="#DejaVuSans-31" x="190.869141"/>
       <use xlink:href="#DejaVuSans-2d" x="254.492188"/>
       <use xlink:href="#DejaVuSans-30" x="290.576172"/>
       <use xlink:href="#DejaVuSans-31" x="354.199219"/>
      </g>
     </g>
    </g>
    <g id="xtick_6">
     <g id="line2d_6">
      <g>
       <use xlink:href="#mcee86afdb0" x="676.722588" y="368.3955" style="stroke: #000000; stroke-width: 0.8"/>
      </g>
     </g>
     <g id="text_6">
      <!-- 2021-04 -->
      <g transform="translate(655.831182 382.993937)scale(0.1 -0.1)">
       <use xlink:href="#DejaVuSans-32"/>
       <use xlink:href="#DejaVuSans-30" x="63.623047"/>
       <use xlink:href="#DejaVuSans-32" x="127.246094"/>
       <use xlink:href="#DejaVuSans-31" x="190.869141"/>
       <use xlink:href="#DejaVuSans-2d" x="254.492188"/>
       <use xlink:href="#DejaVuSans-30" x="290.576172"/>
       <use xlink:href="#DejaVuSans-34" x="354.199219"/>
      </g>
     </g>
    </g>
    <g id="xtick_7">
     <g id="line2d_7">
      <g>
       <use xlink:href="#mcee86afdb0" x="797.538688" y="368.3955" style="stroke: #000000; stroke-width: 0.8"/>
      </g>
     </g>
     <g id="text_7">
      <!-- 2021-07 -->
      <g transform="translate(776.647282 382.993937)scale(0.1 -0.1)">
       <use xlink:href="#DejaVuSans-32"/>
       <use xlink:href="#DejaVuSans-30" x="63.623047"/>
       <use xlink:href="#DejaVuSans-32" x="127.246094"/>
       <use xlink:href="#DejaVuSans-31" x="190.869141"/>
       <use xlink:href="#DejaVuSans-2d" x="254.492188"/>
       <use xlink:href="#DejaVuSans-30" x="290.576172"/>
       <use xlink:href="#DejaVuSans-37" x="354.199219"/>
      </g>
     </g>
    </g>
    <g id="xtick_8">
     <g id="line2d_8">
      <g>
       <use xlink:href="#mcee86afdb0" x="919.682438" y="368.3955" style="stroke: #000000; stroke-width: 0.8"/>
      </g>
     </g>
     <g id="text_8">
      <!-- 2021-10 -->
      <g transform="translate(898.791032 382.993937)scale(0.1 -0.1)">
       <use xlink:href="#DejaVuSans-32"/>
       <use xlink:href="#DejaVuSans-30" x="63.623047"/>
       <use xlink:href="#DejaVuSans-32" x="127.246094"/>
       <use xlink:href="#DejaVuSans-31" x="190.869141"/>
       <use xlink:href="#DejaVuSans-2d" x="254.492188"/>
       <use xlink:href="#DejaVuSans-31" x="290.576172"/>
       <use xlink:href="#DejaVuSans-30" x="354.199219"/>
      </g>
     </g>
    </g>
    <g id="xtick_9">
     <g id="line2d_9">
      <g>
       <use xlink:href="#mcee86afdb0" x="1041.826187" y="368.3955" style="stroke: #000000; stroke-width: 0.8"/>
      </g>
     </g>
     <g id="text_9">
      <!-- 2022-01 -->
      <g transform="translate(1020.934781 382.993937)scale(0.1 -0.1)">
       <use xlink:href="#DejaVuSans-32"/>
       <use xlink:href="#DejaVuSans-30" x="63.623047"/>
       <use xlink:href="#DejaVuSans-32" x="127.246094"/>
       <use xlink:href="#DejaVuSans-32" x="190.869141"/>
       <use xlink:href="#DejaVuSans-2d" x="254.492188"/>
       <use xlink:href="#DejaVuSans-30" x="290.576172"/>
       <use xlink:href="#DejaVuSans-31" x="354.199219"/>
      </g>
     </g>
    </g>
    <g id="xtick_10">
     <g id="line2d_10">
      <g>
       <use xlink:href="#mcee86afdb0" x="1161.314638" y="368.3955" style="stroke: #000000; stroke-width: 0.8"/>
      </g>
     </g>
     <g id="text_10">
      <!-- 2022-04 -->
      <g transform="translate(1140.423231 382.993937)scale(0.1 -0.1)">
       <use xlink:href="#DejaVuSans-32"/>
       <use xlink:href="#DejaVuSans-30" x="63.623047"/>
       <use xlink:href="#DejaVuSans-32" x="127.246094"/>
       <use xlink:href="#DejaVuSans-32" x="190.869141"/>
       <use xlink:href="#DejaVuSans-2d" x="254.492188"/>
       <use xlink:href="#DejaVuSans-30" x="290.576172"/>
       <use xlink:href="#DejaVuSans-34" x="354.199219"/>
      </g>
     </g>
    </g>
    <g id="xtick_11">
     <g id="line2d_11">
      <g>
       <use xlink:href="#mcee86afdb0" x="1282.130738" y="368.3955" style="stroke: #000000; stroke-width: 0.8"/>
      </g>
     </g>
     <g id="text_11">
      <!-- 2022-07 -->
      <g transform="translate(1261.239331 382.993937)scale(0.1 -0.1)">
       <use xlink:href="#DejaVuSans-32"/>
       <use xlink:href="#DejaVuSans-30" x="63.623047"/>
       <use xlink:href="#DejaVuSans-32" x="127.246094"/>
       <use xlink:href="#DejaVuSans-32" x="190.869141"/>
       <use xlink:href="#DejaVuSans-2d" x="254.492188"/>
       <use xlink:href="#DejaVuSans-30" x="290.576172"/>
       <use xlink:href="#DejaVuSans-37" x="354.199219"/>
      </g>
     </g>
    </g>
   </g>
   <g id="matplotlib.axis_2">
    <g id="ytick_1">
     <g id="line2d_12">
      <defs>
       <path id="m46199f3e5b" d="M 0 0 
L -3.5 0 
" style="stroke: #000000; stroke-width: 0.8"/>
      </defs>
      <g>
       <use xlink:href="#m46199f3e5b" x="39.65" y="343.880549" style="stroke: #000000; stroke-width: 0.8"/>
      </g>
     </g>
     <g id="text_12">
      <!-- 0 -->
      <g transform="translate(26.2875 347.679767)scale(0.1 -0.1)">
       <use xlink:href="#DejaVuSans-30"/>
      </g>
     </g>
    </g>
    <g id="ytick_2">
     <g id="line2d_13">
      <g>
       <use xlink:href="#m46199f3e5b" x="39.65" y="304.734917" style="stroke: #000000; stroke-width: 0.8"/>
      </g>
     </g>
     <g id="text_13">
      <!-- 200 -->
      <g transform="translate(13.5625 308.534136)scale(0.1 -0.1)">
       <use xlink:href="#DejaVuSans-32"/>
       <use xlink:href="#DejaVuSans-30" x="63.623047"/>
       <use xlink:href="#DejaVuSans-30" x="127.246094"/>
      </g>
     </g>
    </g>
    <g id="ytick_3">
     <g id="line2d_14">
      <g>
       <use xlink:href="#m46199f3e5b" x="39.65" y="265.589286" style="stroke: #000000; stroke-width: 0.8"/>
      </g>
     </g>
     <g id="text_14">
      <!-- 400 -->
      <g transform="translate(13.5625 269.388505)scale(0.1 -0.1)">
       <use xlink:href="#DejaVuSans-34"/>
       <use xlink:href="#DejaVuSans-30" x="63.623047"/>
       <use xlink:href="#DejaVuSans-30" x="127.246094"/>
      </g>
     </g>
    </g>
    <g id="ytick_4">
     <g id="line2d_15">
      <g>
       <use xlink:href="#m46199f3e5b" x="39.65" y="226.443655" style="stroke: #000000; stroke-width: 0.8"/>
      </g>
     </g>
     <g id="text_15">
      <!-- 600 -->
      <g transform="translate(13.5625 230.242874)scale(0.1 -0.1)">
       <defs>
        <path id="DejaVuSans-36" d="M 2113 2584 
Q 1688 2584 1439 2293 
Q 1191 2003 1191 1497 
Q 1191 994 1439 701 
Q 1688 409 2113 409 
Q 2538 409 2786 701 
Q 3034 994 3034 1497 
Q 3034 2003 2786 2293 
Q 2538 2584 2113 2584 
z
M 3366 4563 
L 3366 3988 
Q 3128 4100 2886 4159 
Q 2644 4219 2406 4219 
Q 1781 4219 1451 3797 
Q 1122 3375 1075 2522 
Q 1259 2794 1537 2939 
Q 1816 3084 2150 3084 
Q 2853 3084 3261 2657 
Q 3669 2231 3669 1497 
Q 3669 778 3244 343 
Q 2819 -91 2113 -91 
Q 1303 -91 875 529 
Q 447 1150 447 2328 
Q 447 3434 972 4092 
Q 1497 4750 2381 4750 
Q 2619 4750 2861 4703 
Q 3103 4656 3366 4563 
z
" transform="scale(0.015625)"/>
       </defs>
       <use xlink:href="#DejaVuSans-36"/>
       <use xlink:href="#DejaVuSans-30" x="63.623047"/>
       <use xlink:href="#DejaVuSans-30" x="127.246094"/>
      </g>
     </g>
    </g>
    <g id="ytick_5">
     <g id="line2d_16">
      <g>
       <use xlink:href="#m46199f3e5b" x="39.65" y="187.298024" style="stroke: #000000; stroke-width: 0.8"/>
      </g>
     </g>
     <g id="text_16">
      <!-- 800 -->
      <g transform="translate(13.5625 191.097243)scale(0.1 -0.1)">
       <defs>
        <path id="DejaVuSans-38" d="M 2034 2216 
Q 1584 2216 1326 1975 
Q 1069 1734 1069 1313 
Q 1069 891 1326 650 
Q 1584 409 2034 409 
Q 2484 409 2743 651 
Q 3003 894 3003 1313 
Q 3003 1734 2745 1975 
Q 2488 2216 2034 2216 
z
M 1403 2484 
Q 997 2584 770 2862 
Q 544 3141 544 3541 
Q 544 4100 942 4425 
Q 1341 4750 2034 4750 
Q 2731 4750 3128 4425 
Q 3525 4100 3525 3541 
Q 3525 3141 3298 2862 
Q 3072 2584 2669 2484 
Q 3125 2378 3379 2068 
Q 3634 1759 3634 1313 
Q 3634 634 3220 271 
Q 2806 -91 2034 -91 
Q 1263 -91 848 271 
Q 434 634 434 1313 
Q 434 1759 690 2068 
Q 947 2378 1403 2484 
z
M 1172 3481 
Q 1172 3119 1398 2916 
Q 1625 2713 2034 2713 
Q 2441 2713 2670 2916 
Q 2900 3119 2900 3481 
Q 2900 3844 2670 4047 
Q 2441 4250 2034 4250 
Q 1625 4250 1398 4047 
Q 1172 3844 1172 3481 
z
" transform="scale(0.015625)"/>
       </defs>
       <use xlink:href="#DejaVuSans-38"/>
       <use xlink:href="#DejaVuSans-30" x="63.623047"/>
       <use xlink:href="#DejaVuSans-30" x="127.246094"/>
      </g>
     </g>
    </g>
    <g id="ytick_6">
     <g id="line2d_17">
      <g>
       <use xlink:href="#m46199f3e5b" x="39.65" y="148.152393" style="stroke: #000000; stroke-width: 0.8"/>
      </g>
     </g>
     <g id="text_17">
      <!-- 1000 -->
      <g transform="translate(7.2 151.951612)scale(0.1 -0.1)">
       <use xlink:href="#DejaVuSans-31"/>
       <use xlink:href="#DejaVuSans-30" x="63.623047"/>
       <use xlink:href="#DejaVuSans-30" x="127.246094"/>
       <use xlink:href="#DejaVuSans-30" x="190.869141"/>
      </g>
     </g>
    </g>
    <g id="ytick_7">
     <g id="line2d_18">
      <g>
       <use xlink:href="#m46199f3e5b" x="39.65" y="109.006762" style="stroke: #000000; stroke-width: 0.8"/>
      </g>
     </g>
     <g id="text_18">
      <!-- 1200 -->
      <g transform="translate(7.2 112.805981)scale(0.1 -0.1)">
       <use xlink:href="#DejaVuSans-31"/>
       <use xlink:href="#DejaVuSans-32" x="63.623047"/>
       <use xlink:href="#DejaVuSans-30" x="127.246094"/>
       <use xlink:href="#DejaVuSans-30" x="190.869141"/>
      </g>
     </g>
    </g>
    <g id="ytick_8">
     <g id="line2d_19">
      <g>
       <use xlink:href="#m46199f3e5b" x="39.65" y="69.861131" style="stroke: #000000; stroke-width: 0.8"/>
      </g>
     </g>
     <g id="text_19">
      <!-- 1400 -->
      <g transform="translate(7.2 73.66035)scale(0.1 -0.1)">
       <use xlink:href="#DejaVuSans-31"/>
       <use xlink:href="#DejaVuSans-34" x="63.623047"/>
       <use xlink:href="#DejaVuSans-30" x="127.246094"/>
       <use xlink:href="#DejaVuSans-30" x="190.869141"/>
      </g>
     </g>
    </g>
   </g>
   <g id="line2d_20">
    <path d="M 100.522727 343.880549 
L 169.560499 343.880549 
L 170.888148 343.68482 
L 172.215798 343.880549 
L 173.543447 343.880549 
L 174.871096 343.489092 
L 176.198746 343.880549 
L 177.526395 343.68482 
L 178.854045 343.880549 
L 180.181694 343.880549 
L 181.509344 343.68482 
L 182.836993 343.880549 
L 184.164643 343.097636 
L 185.492292 343.68482 
L 186.819942 343.880549 
L 188.147591 343.68482 
L 189.47524 343.293364 
L 190.80289 343.880549 
L 192.130539 342.510451 
L 193.458189 343.293364 
L 194.785838 343.880549 
L 196.113488 343.097636 
L 197.441137 343.880549 
L 198.768787 343.68482 
L 201.424085 342.510451 
L 202.751735 343.68482 
L 204.079384 343.68482 
L 205.407034 343.097636 
L 206.734683 343.880549 
L 209.389982 343.489092 
L 210.717632 343.880549 
L 212.045281 343.097636 
L 213.372931 343.68482 
L 214.70058 343.68482 
L 216.028229 343.880549 
L 217.355879 342.901908 
L 218.683528 342.901908 
L 220.011178 343.880549 
L 221.338827 342.510451 
L 222.666477 343.68482 
L 223.994126 342.901908 
L 225.321776 343.489092 
L 226.649425 343.880549 
L 229.304724 343.880549 
L 230.632373 343.68482 
L 231.960023 343.880549 
L 233.287672 343.489092 
L 234.615322 343.880549 
L 235.942971 343.880549 
L 237.270621 342.70618 
L 239.92592 343.880549 
L 243.908868 343.880549 
L 245.236517 343.68482 
L 246.564167 343.880549 
L 249.219466 343.489092 
L 250.547115 343.880549 
L 255.857713 343.880549 
L 257.185362 343.68482 
L 258.513012 343.880549 
L 259.840661 343.880549 
L 261.168311 343.293364 
L 262.49596 343.880549 
L 266.478908 343.880549 
L 267.806558 343.68482 
L 269.134207 343.68482 
L 270.461857 343.880549 
L 278.427754 343.880549 
L 279.755403 343.68482 
L 281.083052 343.880549 
L 291.704248 343.880549 
L 293.031897 343.68482 
L 294.359547 343.880549 
L 320.912536 343.880549 
L 322.240185 343.489092 
L 323.567835 343.68482 
L 324.895484 343.68482 
L 326.223134 343.293364 
L 327.550783 343.880549 
L 328.878433 343.489092 
L 330.206082 343.293364 
L 331.533732 343.293364 
L 332.861381 342.901908 
L 334.18903 342.901908 
L 335.51668 342.118995 
L 338.171979 339.770257 
L 339.499628 339.965985 
L 340.827278 338.987345 
L 342.154927 333.1155 
L 343.482577 335.659966 
L 344.810226 341.923267 
L 346.137875 340.748898 
L 348.793174 331.158218 
L 350.120824 336.638607 
L 351.448473 339.183073 
L 352.776123 330.96249 
L 354.103772 338.987345 
L 355.431422 334.289869 
L 356.759071 337.812976 
L 358.086721 336.834335 
L 359.41437 336.834335 
L 360.742019 341.923267 
L 362.069669 330.375306 
L 363.397318 334.485597 
L 364.724968 339.965985 
L 366.052617 334.681325 
L 367.380267 335.26851 
L 368.707916 334.681325 
L 370.035566 333.506956 
L 371.363215 338.008704 
L 372.690864 317.848704 
L 374.018514 331.549675 
L 375.346163 341.140354 
L 376.673813 325.286374 
L 378.001462 322.937636 
L 379.329112 328.418024 
L 380.656761 325.67783 
L 381.984411 331.745403 
L 383.31206 340.161714 
L 384.63971 341.140354 
L 385.967359 340.944626 
L 387.295008 322.350451 
L 388.622658 324.894917 
L 389.950307 336.638607 
L 391.277957 328.613752 
L 392.605606 337.617248 
L 393.933256 334.094141 
L 395.260905 332.332587 
L 396.588555 331.941131 
L 397.916204 334.289869 
L 399.243853 343.880549 
L 400.571503 326.265015 
L 401.899152 338.008704 
L 403.226802 336.051422 
L 404.554451 336.24715 
L 405.882101 317.261519 
L 407.20975 343.880549 
L 408.5374 325.67783 
L 409.865049 321.567539 
L 411.192699 343.880549 
L 412.520348 328.222296 
L 413.847997 339.183073 
L 415.175647 333.1155 
L 416.503296 326.265015 
L 417.830946 343.880549 
L 419.158595 336.638607 
L 420.486245 324.112005 
L 421.813894 323.720549 
L 423.141544 334.289869 
L 424.469193 314.325597 
L 425.796842 328.026568 
L 427.124492 326.069286 
L 428.452141 343.880549 
L 429.779791 334.485597 
L 431.10744 343.880549 
L 432.43509 331.158218 
L 433.762739 300.820354 
L 435.090389 343.880549 
L 436.418038 324.894917 
L 437.745688 321.958995 
L 440.400986 335.464238 
L 441.728636 322.937636 
L 443.056285 313.738413 
L 444.383935 343.880549 
L 445.711584 343.880549 
L 447.039234 283.20482 
L 448.366883 333.1155 
L 449.694533 327.243655 
L 451.022182 343.880549 
L 452.349831 338.40016 
L 453.677481 305.909286 
L 455.00513 318.044432 
L 456.33278 322.154723 
L 457.660429 329.200937 
L 458.988079 330.179578 
L 460.315728 314.521325 
L 461.643378 318.827345 
L 462.971027 327.439383 
L 464.298677 317.848704 
L 465.626326 343.880549 
L 466.953975 316.08715 
L 468.281625 343.880549 
L 469.609274 325.873558 
L 470.936924 334.681325 
L 472.264573 332.528316 
L 473.592223 336.638607 
L 474.919872 330.179578 
L 476.247522 343.880549 
L 477.575171 339.770257 
L 478.90282 333.1155 
L 480.23047 333.506956 
L 481.558119 336.24715 
L 482.885769 343.880549 
L 484.213418 331.158218 
L 485.541068 343.880549 
L 486.868717 340.55317 
L 488.196367 334.485597 
L 489.524016 334.485597 
L 490.851666 331.353947 
L 492.179315 336.24715 
L 493.506964 343.880549 
L 494.834614 339.378801 
L 496.162263 330.179578 
L 497.489913 332.919772 
L 498.817562 341.727539 
L 500.145212 338.987345 
L 501.472861 340.161714 
L 502.800511 338.40016 
L 504.12816 340.357442 
L 505.455809 340.357442 
L 506.783459 338.204432 
L 508.111108 342.118995 
L 509.438758 341.336083 
L 510.766407 341.140354 
L 512.094057 343.880549 
L 513.421706 339.770257 
L 514.749356 339.183073 
L 516.077005 343.489092 
L 517.404655 343.880549 
L 518.732304 342.70618 
L 520.059953 340.748898 
L 521.387603 342.901908 
L 522.715252 343.880549 
L 524.042902 342.118995 
L 525.370551 343.880549 
L 526.698201 342.70618 
L 528.02585 343.880549 
L 529.3535 336.442879 
L 532.008798 341.727539 
L 533.336448 340.944626 
L 534.664097 339.183073 
L 535.991747 340.748898 
L 537.319396 341.727539 
L 538.647046 342.314723 
L 539.974695 343.880549 
L 541.302345 341.336083 
L 542.629994 340.161714 
L 543.957644 342.510451 
L 545.285293 340.748898 
L 546.612942 343.880549 
L 549.268241 343.880549 
L 550.595891 334.877053 
L 551.92354 343.880549 
L 553.25119 341.531811 
L 554.578839 341.727539 
L 555.906489 341.140354 
L 557.234138 340.748898 
L 558.561787 343.880549 
L 559.889437 338.595888 
L 561.217086 341.923267 
L 562.544736 343.097636 
L 563.872385 340.55317 
L 565.200035 341.140354 
L 566.527684 341.923267 
L 567.855334 343.880549 
L 569.182983 343.880549 
L 570.510632 337.030063 
L 571.838282 343.880549 
L 573.165931 342.510451 
L 574.493581 343.880549 
L 575.82123 341.923267 
L 577.14888 341.727539 
L 578.476529 343.880549 
L 579.804179 337.030063 
L 581.131828 343.68482 
L 583.787127 341.336083 
L 585.114776 341.336083 
L 586.442426 343.880549 
L 587.770075 343.880549 
L 589.097725 337.617248 
L 590.425374 342.510451 
L 591.753024 339.770257 
L 593.080673 343.880549 
L 594.408323 342.70618 
L 595.735972 342.510451 
L 597.063621 343.880549 
L 598.391271 343.880549 
L 599.71892 334.289869 
L 601.04657 342.314723 
L 602.374219 340.748898 
L 603.701869 342.118995 
L 605.029518 343.880549 
L 606.357168 343.880549 
L 607.684817 337.421519 
L 609.012467 343.880549 
L 610.340116 343.880549 
L 611.667765 339.574529 
L 612.995415 343.880549 
L 616.978363 343.880549 
L 618.306013 329.788121 
L 619.633662 343.880549 
L 620.961312 339.965985 
L 622.288961 343.880549 
L 624.94426 343.880549 
L 626.271909 330.571034 
L 627.599559 342.70618 
L 628.927208 340.161714 
L 630.254858 343.880549 
L 631.582507 339.378801 
L 632.910157 343.880549 
L 636.893105 343.880549 
L 638.220754 333.311228 
L 639.548404 343.880549 
L 640.876053 338.595888 
L 642.203703 343.880549 
L 644.859002 343.880549 
L 646.186651 335.659966 
L 647.514301 343.880549 
L 648.84195 343.880549 
L 650.169599 340.748898 
L 651.497249 343.880549 
L 652.824898 343.880549 
L 654.152548 322.937636 
L 655.480197 341.727539 
L 656.807847 339.183073 
L 658.135496 343.880549 
L 662.118445 343.880549 
L 663.446094 319.805985 
L 664.773743 341.531811 
L 666.101393 343.880549 
L 671.411991 343.880549 
L 672.73964 331.158218 
L 674.06729 320.588898 
L 675.394939 343.880549 
L 676.722588 333.702684 
L 678.050238 343.880549 
L 682.033186 343.880549 
L 683.360836 324.503461 
L 684.688485 338.791617 
L 686.016135 335.464238 
L 687.343784 338.987345 
L 688.671434 343.880549 
L 689.999083 343.880549 
L 691.326732 325.090646 
L 692.654382 335.072782 
L 693.982031 343.880549 
L 695.309681 343.880549 
L 696.63733 318.631617 
L 697.96498 343.880549 
L 699.292629 343.880549 
L 700.620279 313.151228 
L 701.947928 343.880549 
L 703.275577 328.809481 
L 704.603227 343.880549 
L 705.930876 322.741908 
L 707.258526 343.880549 
L 708.586175 329.396665 
L 709.913825 310.606762 
L 711.241474 343.880549 
L 712.569124 318.631617 
L 713.896773 343.880549 
L 715.224423 323.52482 
L 716.552072 343.880549 
L 717.879721 330.96249 
L 719.207371 332.724044 
L 720.53502 343.880549 
L 721.86267 343.880549 
L 723.190319 317.457248 
L 724.517969 331.745403 
L 725.845618 343.880549 
L 727.173268 343.880549 
L 728.500917 317.457248 
L 729.828566 343.880549 
L 731.156216 332.528316 
L 732.483865 332.528316 
L 733.811515 343.880549 
L 736.466814 343.880549 
L 737.794463 304.539189 
L 739.122113 333.506956 
L 740.449762 335.464238 
L 741.777412 329.200937 
L 743.105061 343.880549 
L 745.76036 343.880549 
L 747.088009 323.720549 
L 748.415659 324.699189 
L 749.743308 343.880549 
L 751.070958 338.987345 
L 752.398607 331.745403 
L 753.726257 331.941131 
L 755.053906 343.880549 
L 756.381555 333.898413 
L 757.709205 343.880549 
L 759.036854 330.571034 
L 760.364504 330.96249 
L 761.692153 343.880549 
L 764.347452 343.880549 
L 765.675102 325.482102 
L 767.002751 343.880549 
L 768.330401 343.293364 
L 769.65805 338.987345 
L 770.985699 336.051422 
L 772.313349 343.880549 
L 773.640998 343.880549 
L 774.968648 322.937636 
L 776.296297 338.791617 
L 777.623947 340.55317 
L 778.951596 343.880549 
L 780.279246 343.880549 
L 781.606895 333.506956 
L 782.934544 343.880549 
L 784.262194 330.375306 
L 785.589843 340.944626 
L 786.917493 338.40016 
L 788.245142 343.880549 
L 789.572792 332.136859 
L 790.900441 343.880549 
L 793.55574 343.880549 
L 794.88339 320.588898 
L 796.211039 343.880549 
L 797.538688 314.717053 
L 798.866338 343.880549 
L 801.521637 343.880549 
L 802.849286 329.592393 
L 804.176936 328.026568 
L 805.504585 329.005209 
L 806.832235 332.332587 
L 808.159884 343.880549 
L 812.142832 343.880549 
L 813.470482 302.973364 
L 814.798131 335.855694 
L 816.125781 343.880549 
L 817.45343 318.435888 
L 818.78108 343.880549 
L 820.108729 343.880549 
L 821.436379 312.172587 
L 822.764028 336.442879 
L 824.091677 309.236665 
L 825.419327 343.880549 
L 829.402275 343.880549 
L 830.729925 251.692587 
L 832.057574 343.880549 
L 833.385224 303.756277 
L 834.712873 326.656471 
L 836.040522 318.044432 
L 837.368172 311.976859 
L 838.695821 343.880549 
L 840.023471 343.880549 
L 841.35112 310.411034 
L 842.67877 321.763267 
L 844.006419 330.766762 
L 845.334069 299.254529 
L 846.661718 343.880549 
L 847.989368 320.784626 
L 849.317017 293.578413 
L 850.644666 320.197442 
L 851.972316 343.880549 
L 853.299965 299.645985 
L 854.627615 343.880549 
L 857.282914 343.880549 
L 858.610563 240.731811 
L 859.938213 343.880549 
L 861.265862 343.880549 
L 862.593511 308.649481 
L 863.921161 321.567539 
L 865.24881 343.880549 
L 866.57646 343.880549 
L 867.904109 260.891811 
L 869.231759 312.759772 
L 870.559408 330.179578 
L 871.887058 323.916277 
L 873.214707 300.23317 
L 874.542356 343.880549 
L 875.870006 343.880549 
L 877.197655 304.930646 
L 878.525305 343.880549 
L 879.852954 343.880549 
L 881.180604 258.347345 
L 882.508253 320.784626 
L 883.835903 343.880549 
L 885.163552 343.880549 
L 886.491202 312.759772 
L 887.818851 308.258024 
L 889.1465 343.880549 
L 890.47415 323.52482 
L 891.801799 317.261519 
L 893.129449 332.136859 
L 894.457098 343.880549 
L 895.784748 291.816859 
L 897.112397 343.880549 
L 898.440047 305.909286 
L 899.767696 343.880549 
L 901.095345 297.884432 
L 902.422995 343.880549 
L 903.750644 343.880549 
L 905.078294 307.67084 
L 906.405943 329.592393 
L 907.733593 343.880549 
L 909.061242 343.880549 
L 910.388892 282.22618 
L 911.716541 343.880549 
L 913.044191 343.880549 
L 914.37184 310.215306 
L 915.699489 330.766762 
L 917.027139 316.08715 
L 918.354788 343.880549 
L 919.682438 318.435888 
L 921.010087 343.880549 
L 922.337737 343.880549 
L 923.665386 305.126374 
L 924.993036 343.880549 
L 926.320685 315.304238 
L 927.648334 332.136859 
L 928.975984 331.745403 
L 930.303633 343.880549 
L 940.924829 343.880549 
L 942.252478 265.980743 
L 943.580128 330.179578 
L 944.907777 335.26851 
L 946.235427 331.745403 
L 947.563076 338.987345 
L 948.890726 343.880549 
L 950.218375 343.880549 
L 951.546025 328.222296 
L 952.873674 343.880549 
L 954.201323 343.880549 
L 955.528973 325.873558 
L 956.856622 343.880549 
L 959.511921 343.880549 
L 960.839571 332.919772 
L 962.16722 339.574529 
L 963.49487 343.880549 
L 964.822519 332.919772 
L 966.150169 343.880549 
L 968.805467 343.880549 
L 970.133117 335.26851 
L 971.460766 331.549675 
L 972.788416 353.2755 
L 974.116065 342.314723 
L 975.443715 339.965985 
L 976.771364 343.880549 
L 978.099014 343.880549 
L 979.426663 338.204432 
L 980.754312 341.531811 
L 982.081962 340.748898 
L 983.409611 341.727539 
L 984.737261 340.944626 
L 986.06491 343.880549 
L 987.39256 343.880549 
L 988.720209 341.923267 
L 990.047859 343.880549 
L 991.375508 337.812976 
L 992.703158 343.880549 
L 994.030807 339.183073 
L 995.358456 341.140354 
L 996.686106 343.880549 
L 998.013755 338.204432 
L 999.341405 338.40016 
L 1000.669054 341.727539 
L 1001.996704 342.510451 
L 1003.324353 340.748898 
L 1004.652003 343.880549 
L 1005.979652 343.880549 
L 1007.307301 341.140354 
L 1009.9626 343.880549 
L 1011.29025 341.336083 
L 1012.617899 339.574529 
L 1013.945549 343.880549 
L 1015.273198 343.880549 
L 1016.600848 338.791617 
L 1017.928497 343.880549 
L 1019.256147 335.464238 
L 1020.583796 339.770257 
L 1021.911445 339.183073 
L 1023.239095 343.880549 
L 1024.566744 343.880549 
L 1025.894394 320.980354 
L 1027.222043 339.378801 
L 1028.549693 323.329092 
L 1029.877342 316.478607 
L 1031.204992 312.759772 
L 1032.532641 343.880549 
L 1036.515589 343.880549 
L 1037.843239 213.721325 
L 1039.170888 331.158218 
L 1040.498538 303.36482 
L 1041.826187 343.880549 
L 1043.153837 185.536471 
L 1044.481486 295.144238 
L 1045.809136 250.518218 
L 1047.136785 282.22618 
L 1048.464434 270.48249 
L 1049.792084 261.478995 
L 1051.119733 343.880549 
L 1052.447383 50.8755 
L 1053.775032 275.571422 
L 1055.102682 241.90618 
L 1056.430331 296.710063 
L 1057.757981 309.040937 
L 1059.08563 343.880549 
L 1060.413279 197.671617 
L 1061.740929 305.713558 
L 1063.068578 343.880549 
L 1064.396228 293.969869 
L 1065.723877 256.977248 
L 1067.051527 315.695694 
L 1068.379176 300.428898 
L 1069.706826 327.439383 
L 1071.034475 330.375306 
L 1072.362125 330.375306 
L 1073.689774 324.112005 
L 1075.017423 335.26851 
L 1076.345073 325.482102 
L 1077.672722 335.464238 
L 1079.000372 330.766762 
L 1080.328021 338.791617 
L 1081.655671 334.094141 
L 1082.98332 335.26851 
L 1084.31097 336.24715 
L 1085.638619 337.030063 
L 1086.966268 343.880549 
L 1088.293918 337.030063 
L 1089.621567 332.528316 
L 1090.949217 338.204432 
L 1092.276866 337.812976 
L 1093.604516 343.880549 
L 1094.932165 336.442879 
L 1096.259815 337.617248 
L 1097.587464 339.574529 
L 1098.915114 342.70618 
L 1100.242763 340.161714 
L 1101.570412 339.574529 
L 1102.898062 337.421519 
L 1104.225711 343.880549 
L 1105.553361 341.336083 
L 1106.88101 342.70618 
L 1108.20866 338.40016 
L 1109.536309 340.748898 
L 1110.863959 341.336083 
L 1112.191608 343.880549 
L 1113.519257 339.183073 
L 1114.846907 343.293364 
L 1116.174556 343.880549 
L 1117.502206 339.770257 
L 1118.829855 342.70618 
L 1120.157505 341.727539 
L 1121.485154 343.097636 
L 1122.812804 343.489092 
L 1124.140453 340.55317 
L 1125.468103 343.880549 
L 1126.795752 343.489092 
L 1128.123401 342.901908 
L 1129.451051 343.097636 
L 1130.7787 343.880549 
L 1132.10635 342.314723 
L 1133.433999 343.293364 
L 1134.761649 343.293364 
L 1136.089298 343.880549 
L 1137.416948 343.097636 
L 1138.744597 343.880549 
L 1140.072246 342.314723 
L 1141.399896 343.880549 
L 1142.727545 342.901908 
L 1144.055195 343.880549 
L 1145.382844 341.923267 
L 1146.710494 342.118995 
L 1148.038143 342.901908 
L 1149.365793 343.293364 
L 1150.693442 343.097636 
L 1152.021092 343.880549 
L 1153.348741 342.510451 
L 1154.67639 342.510451 
L 1156.00404 343.68482 
L 1157.331689 343.68482 
L 1158.659339 343.880549 
L 1159.986988 338.987345 
L 1161.314638 342.314723 
L 1163.969937 343.880549 
L 1165.297586 340.357442 
L 1166.625235 343.68482 
L 1167.952885 343.68482 
L 1169.280534 340.944626 
L 1170.608184 341.923267 
L 1171.935833 342.70618 
L 1173.263483 341.531811 
L 1174.591132 343.489092 
L 1175.918782 342.70618 
L 1177.246431 343.489092 
L 1178.57408 343.097636 
L 1179.90173 340.748898 
L 1181.229379 343.293364 
L 1182.557029 343.880549 
L 1183.884678 339.965985 
L 1185.212328 343.880549 
L 1186.539977 341.923267 
L 1187.867627 342.118995 
L 1189.195276 340.748898 
L 1190.522926 340.55317 
L 1191.850575 339.965985 
L 1193.178224 342.901908 
L 1194.505874 341.923267 
L 1197.161173 340.748898 
L 1198.488822 341.140354 
L 1201.144121 339.965985 
L 1202.471771 343.097636 
L 1203.79942 340.161714 
L 1205.127069 338.987345 
L 1206.454719 338.204432 
L 1207.782368 340.55317 
L 1209.110018 339.378801 
L 1210.437667 343.880549 
L 1211.765317 333.506956 
L 1213.092966 337.812976 
L 1214.420616 339.183073 
L 1215.748265 338.595888 
L 1217.075915 343.880549 
L 1218.403564 335.855694 
L 1219.731213 331.549675 
L 1221.058863 339.378801 
L 1222.386512 337.617248 
L 1223.714162 339.574529 
L 1225.041811 334.289869 
L 1226.369461 326.656471 
L 1227.69711 331.353947 
L 1229.02476 331.745403 
L 1230.352409 338.204432 
L 1231.680058 333.702684 
L 1233.007708 343.880549 
L 1234.335357 319.218801 
L 1235.663007 326.069286 
L 1236.990656 343.880549 
L 1238.318306 324.307733 
L 1239.645955 335.855694 
L 1240.973605 334.877053 
L 1242.301254 323.916277 
L 1243.628904 343.880549 
L 1244.956553 330.179578 
L 1246.284202 333.898413 
L 1247.611852 326.656471 
L 1248.939501 342.118995 
L 1250.267151 339.965985 
L 1251.5948 337.421519 
L 1252.92245 337.812976 
L 1254.250099 333.1155 
L 1255.577749 330.571034 
L 1256.905398 334.877053 
L 1258.233047 340.161714 
L 1259.560697 343.880549 
L 1260.888346 321.763267 
L 1262.215996 333.702684 
L 1263.543645 334.485597 
L 1264.871295 336.24715 
L 1266.198944 335.855694 
L 1267.526594 343.880549 
L 1268.854243 337.225791 
L 1270.181893 338.987345 
L 1271.509542 333.702684 
L 1272.837191 333.1155 
L 1274.164841 343.097636 
L 1275.49249 339.770257 
L 1276.82014 334.877053 
L 1278.147789 339.770257 
L 1279.475439 343.880549 
L 1280.803088 329.592393 
L 1282.130738 343.880549 
L 1283.458387 340.161714 
L 1284.786036 337.030063 
L 1286.113686 329.788121 
L 1287.441335 341.336083 
L 1288.768985 340.161714 
L 1290.096634 343.880549 
L 1291.424284 338.791617 
L 1292.751933 327.047927 
L 1294.079583 343.880549 
L 1295.407232 335.659966 
L 1296.734882 341.531811 
L 1298.062531 343.880549 
L 1299.39018 333.1155 
L 1300.71783 343.880549 
L 1300.71783 343.880549 
" clip-path="url(#p13f842a8ad)" style="fill: none; stroke: #0000ff; stroke-width: 1.5; stroke-linecap: square"/>
   </g>
   <g id="line2d_21">
    <path d="M 1061.740929 270.410969 
L 1063.068578 281.361415 
L 1064.396228 283.197915 
L 1065.723877 312.337131 
L 1067.051527 317.461706 
L 1068.379176 274.516169 
L 1069.706826 311.418575 
L 1071.034475 313.816121 
L 1072.362125 304.33612 
L 1073.689774 303.929455 
L 1075.017423 311.222875 
L 1076.345073 310.500688 
L 1077.672722 339.364424 
L 1079.000372 324.416021 
L 1080.328021 325.800253 
L 1081.655671 333.836857 
L 1082.98332 340.061236 
L 1084.31097 337.08599 
L 1085.638619 341.910913 
L 1086.966268 327.130207 
L 1088.293918 339.618423 
L 1089.621567 339.149095 
L 1092.276866 333.668223 
L 1093.604516 334.757891 
L 1094.932165 336.077375 
L 1096.259815 341.969094 
L 1097.587464 335.91816 
L 1098.915114 337.249665 
L 1100.242763 339.265225 
L 1101.570412 342.565884 
L 1102.898062 340.794502 
L 1104.225711 340.058406 
L 1105.553361 338.271696 
L 1106.88101 342.063745 
L 1108.20866 342.047027 
L 1109.536309 340.756554 
L 1110.863959 338.839145 
L 1112.191608 340.871846 
L 1113.519257 341.308899 
L 1114.846907 342.303481 
L 1116.174556 339.941991 
L 1117.502206 341.25902 
L 1118.829855 341.851147 
L 1120.157505 343.787628 
L 1121.485154 341.086986 
L 1122.812804 342.347536 
L 1125.468103 342.415458 
L 1126.795752 342.880205 
L 1128.123401 342.318091 
L 1129.451051 342.117066 
L 1130.7787 343.51701 
L 1132.10635 342.553393 
L 1133.433999 343.336681 
L 1134.761649 343.269147 
L 1136.089298 342.848342 
L 1137.416948 343.395779 
L 1138.744597 343.746764 
L 1140.072246 343.020507 
L 1141.399896 343.511705 
L 1142.727545 343.293423 
L 1144.055195 343.233256 
L 1145.382844 343.561128 
L 1146.710494 343.306198 
L 1148.038143 342.588041 
L 1149.365793 343.105416 
L 1150.693442 342.537717 
L 1152.021092 342.947308 
L 1153.348741 342.774765 
L 1154.67639 342.737658 
L 1156.00404 342.904883 
L 1157.331689 343.262523 
L 1158.659339 342.921627 
L 1159.986988 344.036097 
L 1161.314638 342.783247 
L 1162.642287 342.699825 
L 1163.969937 342.391284 
L 1165.297586 342.876542 
L 1166.625235 342.364365 
L 1167.952885 341.635799 
L 1170.608184 342.724704 
L 1171.935833 342.796095 
L 1173.263483 341.809747 
L 1175.918782 342.631037 
L 1177.246431 342.333994 
L 1178.57408 342.709716 
L 1179.90173 342.917982 
L 1181.229379 342.234982 
L 1182.557029 343.106875 
L 1183.884678 342.898026 
L 1185.212328 342.462711 
L 1186.539977 342.891786 
L 1187.867627 341.817704 
L 1189.195276 342.706305 
L 1190.522926 342.78685 
L 1191.850575 341.174194 
L 1193.178224 341.503547 
L 1194.505874 341.179628 
L 1195.833523 341.125161 
L 1197.161173 341.540392 
L 1198.488822 341.027967 
L 1199.816472 340.694189 
L 1201.144121 341.937568 
L 1202.471771 340.871648 
L 1203.79942 341.285888 
L 1205.127069 341.11646 
L 1206.454719 341.16386 
L 1207.782368 340.436846 
L 1209.110018 340.197684 
L 1210.437667 339.54276 
L 1211.765317 340.758162 
L 1213.092966 339.230322 
L 1214.420616 338.986401 
L 1215.748265 338.495604 
L 1217.075915 337.824948 
L 1218.403564 340.408162 
L 1219.731213 338.258562 
L 1221.058863 337.933555 
L 1222.386512 338.065475 
L 1223.714162 336.959097 
L 1225.041811 339.323734 
L 1226.369461 337.96127 
L 1227.69711 334.394583 
L 1229.02476 335.731026 
L 1230.352409 332.785333 
L 1231.680058 333.688663 
L 1233.007708 331.95529 
L 1234.335357 333.460943 
L 1236.990656 332.425663 
L 1238.318306 333.303082 
L 1239.645955 330.946573 
L 1240.973605 335.182653 
L 1242.301254 330.117503 
L 1243.628904 329.993674 
L 1244.956553 336.41589 
L 1246.284202 330.209371 
L 1247.611852 335.031515 
L 1248.939501 332.597056 
L 1250.267151 329.687455 
L 1251.5948 337.488826 
L 1252.92245 335.868445 
L 1254.250099 335.655595 
L 1255.577749 336.603061 
L 1256.905398 337.352336 
L 1258.233047 336.014898 
L 1259.560697 336.834537 
L 1260.888346 336.630615 
L 1262.215996 335.058472 
L 1263.543645 334.917972 
L 1264.871295 332.94413 
L 1267.526594 334.99616 
L 1268.854243 331.480815 
L 1270.181893 335.826368 
L 1271.509542 338.248369 
L 1272.837191 338.240849 
L 1274.164841 337.075227 
L 1275.49249 338.92165 
L 1276.82014 337.452762 
L 1278.147789 340.515051 
L 1279.475439 337.263276 
L 1280.803088 338.015876 
L 1282.130738 338.435053 
L 1283.458387 339.265605 
L 1284.786036 336.666797 
L 1286.113686 340.192355 
L 1287.441335 337.654073 
L 1288.768985 335.755756 
L 1290.096634 338.21298 
L 1291.424284 338.805332 
L 1292.751933 339.625977 
L 1294.079583 336.707972 
L 1295.407232 338.770557 
L 1296.734882 337.026818 
L 1298.062531 340.154992 
L 1299.39018 338.977134 
L 1300.71783 335.576524 
L 1300.71783 335.576524 
" clip-path="url(#p13f842a8ad)" style="fill: none; stroke: #ffa500; stroke-width: 1.5; stroke-linecap: square"/>
   </g>
   <g id="line2d_22">
    <path d="M 1300.71783 335.576524 
L 1302.045479 341.273024 
L 1303.373129 338.444124 
L 1304.700778 340.154993 
L 1306.028428 340.272414 
L 1307.356077 337.020412 
L 1308.683727 340.820099 
L 1310.011376 339.855316 
L 1311.339025 339.11634 
L 1312.666675 339.242607 
L 1313.994324 339.350128 
L 1315.321974 339.121969 
L 1316.649623 340.007458 
L 1317.977273 338.973132 
" clip-path="url(#p13f842a8ad)" style="fill: none; stroke: #ff0000; stroke-width: 1.5; stroke-linecap: square"/>
   </g>
   <g id="patch_3">
    <path d="M 39.65 368.3955 
L 39.65 35.7555 
" style="fill: none; stroke: #000000; stroke-width: 0.8; stroke-linejoin: miter; stroke-linecap: square"/>
   </g>
   <g id="patch_4">
    <path d="M 1378.85 368.3955 
L 1378.85 35.7555 
" style="fill: none; stroke: #000000; stroke-width: 0.8; stroke-linejoin: miter; stroke-linecap: square"/>
   </g>
   <g id="patch_5">
    <path d="M 39.65 368.3955 
L 1378.85 368.3955 
" style="fill: none; stroke: #000000; stroke-width: 0.8; stroke-linejoin: miter; stroke-linecap: square"/>
   </g>
   <g id="patch_6">
    <path d="M 39.65 35.7555 
L 1378.85 35.7555 
" style="fill: none; stroke: #000000; stroke-width: 0.8; stroke-linejoin: miter; stroke-linecap: square"/>
   </g>
   <g id="text_20">
    <!-- Daily Confirmed Cases Forecasting - Bahamas -->
    <g transform="translate(570.83 16.318125)scale(0.12 -0.12)">
     <defs>
      <path id="DejaVuSans-44" d="M 1259 4147 
L 1259 519 
L 2022 519 
Q 2988 519 3436 956 
Q 3884 1394 3884 2338 
Q 3884 3275 3436 3711 
Q 2988 4147 2022 4147 
L 1259 4147 
z
M 628 4666 
L 1925 4666 
Q 3281 4666 3915 4102 
Q 4550 3538 4550 2338 
Q 4550 1131 3912 565 
Q 3275 0 1925 0 
L 628 0 
L 628 4666 
z
" transform="scale(0.015625)"/>
      <path id="DejaVuSans-61" d="M 2194 1759 
Q 1497 1759 1228 1600 
Q 959 1441 959 1056 
Q 959 750 1161 570 
Q 1363 391 1709 391 
Q 2188 391 2477 730 
Q 2766 1069 2766 1631 
L 2766 1759 
L 2194 1759 
z
M 3341 1997 
L 3341 0 
L 2766 0 
L 2766 531 
Q 2569 213 2275 61 
Q 1981 -91 1556 -91 
Q 1019 -91 701 211 
Q 384 513 384 1019 
Q 384 1609 779 1909 
Q 1175 2209 1959 2209 
L 2766 2209 
L 2766 2266 
Q 2766 2663 2505 2880 
Q 2244 3097 1772 3097 
Q 1472 3097 1187 3025 
Q 903 2953 641 2809 
L 641 3341 
Q 956 3463 1253 3523 
Q 1550 3584 1831 3584 
Q 2591 3584 2966 3190 
Q 3341 2797 3341 1997 
z
" transform="scale(0.015625)"/>
      <path id="DejaVuSans-69" d="M 603 3500 
L 1178 3500 
L 1178 0 
L 603 0 
L 603 3500 
z
M 603 4863 
L 1178 4863 
L 1178 4134 
L 603 4134 
L 603 4863 
z
" transform="scale(0.015625)"/>
      <path id="DejaVuSans-6c" d="M 603 4863 
L 1178 4863 
L 1178 0 
L 603 0 
L 603 4863 
z
" transform="scale(0.015625)"/>
      <path id="DejaVuSans-79" d="M 2059 -325 
Q 1816 -950 1584 -1140 
Q 1353 -1331 966 -1331 
L 506 -1331 
L 506 -850 
L 844 -850 
Q 1081 -850 1212 -737 
Q 1344 -625 1503 -206 
L 1606 56 
L 191 3500 
L 800 3500 
L 1894 763 
L 2988 3500 
L 3597 3500 
L 2059 -325 
z
" transform="scale(0.015625)"/>
      <path id="DejaVuSans-20" transform="scale(0.015625)"/>
      <path id="DejaVuSans-43" d="M 4122 4306 
L 4122 3641 
Q 3803 3938 3442 4084 
Q 3081 4231 2675 4231 
Q 1875 4231 1450 3742 
Q 1025 3253 1025 2328 
Q 1025 1406 1450 917 
Q 1875 428 2675 428 
Q 3081 428 3442 575 
Q 3803 722 4122 1019 
L 4122 359 
Q 3791 134 3420 21 
Q 3050 -91 2638 -91 
Q 1578 -91 968 557 
Q 359 1206 359 2328 
Q 359 3453 968 4101 
Q 1578 4750 2638 4750 
Q 3056 4750 3426 4639 
Q 3797 4528 4122 4306 
z
" transform="scale(0.015625)"/>
      <path id="DejaVuSans-6f" d="M 1959 3097 
Q 1497 3097 1228 2736 
Q 959 2375 959 1747 
Q 959 1119 1226 758 
Q 1494 397 1959 397 
Q 2419 397 2687 759 
Q 2956 1122 2956 1747 
Q 2956 2369 2687 2733 
Q 2419 3097 1959 3097 
z
M 1959 3584 
Q 2709 3584 3137 3096 
Q 3566 2609 3566 1747 
Q 3566 888 3137 398 
Q 2709 -91 1959 -91 
Q 1206 -91 779 398 
Q 353 888 353 1747 
Q 353 2609 779 3096 
Q 1206 3584 1959 3584 
z
" transform="scale(0.015625)"/>
      <path id="DejaVuSans-6e" d="M 3513 2113 
L 3513 0 
L 2938 0 
L 2938 2094 
Q 2938 2591 2744 2837 
Q 2550 3084 2163 3084 
Q 1697 3084 1428 2787 
Q 1159 2491 1159 1978 
L 1159 0 
L 581 0 
L 581 3500 
L 1159 3500 
L 1159 2956 
Q 1366 3272 1645 3428 
Q 1925 3584 2291 3584 
Q 2894 3584 3203 3211 
Q 3513 2838 3513 2113 
z
" transform="scale(0.015625)"/>
      <path id="DejaVuSans-66" d="M 2375 4863 
L 2375 4384 
L 1825 4384 
Q 1516 4384 1395 4259 
Q 1275 4134 1275 3809 
L 1275 3500 
L 2222 3500 
L 2222 3053 
L 1275 3053 
L 1275 0 
L 697 0 
L 697 3053 
L 147 3053 
L 147 3500 
L 697 3500 
L 697 3744 
Q 697 4328 969 4595 
Q 1241 4863 1831 4863 
L 2375 4863 
z
" transform="scale(0.015625)"/>
      <path id="DejaVuSans-72" d="M 2631 2963 
Q 2534 3019 2420 3045 
Q 2306 3072 2169 3072 
Q 1681 3072 1420 2755 
Q 1159 2438 1159 1844 
L 1159 0 
L 581 0 
L 581 3500 
L 1159 3500 
L 1159 2956 
Q 1341 3275 1631 3429 
Q 1922 3584 2338 3584 
Q 2397 3584 2469 3576 
Q 2541 3569 2628 3553 
L 2631 2963 
z
" transform="scale(0.015625)"/>
      <path id="DejaVuSans-6d" d="M 3328 2828 
Q 3544 3216 3844 3400 
Q 4144 3584 4550 3584 
Q 5097 3584 5394 3201 
Q 5691 2819 5691 2113 
L 5691 0 
L 5113 0 
L 5113 2094 
Q 5113 2597 4934 2840 
Q 4756 3084 4391 3084 
Q 3944 3084 3684 2787 
Q 3425 2491 3425 1978 
L 3425 0 
L 2847 0 
L 2847 2094 
Q 2847 2600 2669 2842 
Q 2491 3084 2119 3084 
Q 1678 3084 1418 2786 
Q 1159 2488 1159 1978 
L 1159 0 
L 581 0 
L 581 3500 
L 1159 3500 
L 1159 2956 
Q 1356 3278 1631 3431 
Q 1906 3584 2284 3584 
Q 2666 3584 2933 3390 
Q 3200 3197 3328 2828 
z
" transform="scale(0.015625)"/>
      <path id="DejaVuSans-65" d="M 3597 1894 
L 3597 1613 
L 953 1613 
Q 991 1019 1311 708 
Q 1631 397 2203 397 
Q 2534 397 2845 478 
Q 3156 559 3463 722 
L 3463 178 
Q 3153 47 2828 -22 
Q 2503 -91 2169 -91 
Q 1331 -91 842 396 
Q 353 884 353 1716 
Q 353 2575 817 3079 
Q 1281 3584 2069 3584 
Q 2775 3584 3186 3129 
Q 3597 2675 3597 1894 
z
M 3022 2063 
Q 3016 2534 2758 2815 
Q 2500 3097 2075 3097 
Q 1594 3097 1305 2825 
Q 1016 2553 972 2059 
L 3022 2063 
z
" transform="scale(0.015625)"/>
      <path id="DejaVuSans-64" d="M 2906 2969 
L 2906 4863 
L 3481 4863 
L 3481 0 
L 2906 0 
L 2906 525 
Q 2725 213 2448 61 
Q 2172 -91 1784 -91 
Q 1150 -91 751 415 
Q 353 922 353 1747 
Q 353 2572 751 3078 
Q 1150 3584 1784 3584 
Q 2172 3584 2448 3432 
Q 2725 3281 2906 2969 
z
M 947 1747 
Q 947 1113 1208 752 
Q 1469 391 1925 391 
Q 2381 391 2643 752 
Q 2906 1113 2906 1747 
Q 2906 2381 2643 2742 
Q 2381 3103 1925 3103 
Q 1469 3103 1208 2742 
Q 947 2381 947 1747 
z
" transform="scale(0.015625)"/>
      <path id="DejaVuSans-73" d="M 2834 3397 
L 2834 2853 
Q 2591 2978 2328 3040 
Q 2066 3103 1784 3103 
Q 1356 3103 1142 2972 
Q 928 2841 928 2578 
Q 928 2378 1081 2264 
Q 1234 2150 1697 2047 
L 1894 2003 
Q 2506 1872 2764 1633 
Q 3022 1394 3022 966 
Q 3022 478 2636 193 
Q 2250 -91 1575 -91 
Q 1294 -91 989 -36 
Q 684 19 347 128 
L 347 722 
Q 666 556 975 473 
Q 1284 391 1588 391 
Q 1994 391 2212 530 
Q 2431 669 2431 922 
Q 2431 1156 2273 1281 
Q 2116 1406 1581 1522 
L 1381 1569 
Q 847 1681 609 1914 
Q 372 2147 372 2553 
Q 372 3047 722 3315 
Q 1072 3584 1716 3584 
Q 2034 3584 2315 3537 
Q 2597 3491 2834 3397 
z
" transform="scale(0.015625)"/>
      <path id="DejaVuSans-46" d="M 628 4666 
L 3309 4666 
L 3309 4134 
L 1259 4134 
L 1259 2759 
L 3109 2759 
L 3109 2228 
L 1259 2228 
L 1259 0 
L 628 0 
L 628 4666 
z
" transform="scale(0.015625)"/>
      <path id="DejaVuSans-63" d="M 3122 3366 
L 3122 2828 
Q 2878 2963 2633 3030 
Q 2388 3097 2138 3097 
Q 1578 3097 1268 2742 
Q 959 2388 959 1747 
Q 959 1106 1268 751 
Q 1578 397 2138 397 
Q 2388 397 2633 464 
Q 2878 531 3122 666 
L 3122 134 
Q 2881 22 2623 -34 
Q 2366 -91 2075 -91 
Q 1284 -91 818 406 
Q 353 903 353 1747 
Q 353 2603 823 3093 
Q 1294 3584 2113 3584 
Q 2378 3584 2631 3529 
Q 2884 3475 3122 3366 
z
" transform="scale(0.015625)"/>
      <path id="DejaVuSans-74" d="M 1172 4494 
L 1172 3500 
L 2356 3500 
L 2356 3053 
L 1172 3053 
L 1172 1153 
Q 1172 725 1289 603 
Q 1406 481 1766 481 
L 2356 481 
L 2356 0 
L 1766 0 
Q 1100 0 847 248 
Q 594 497 594 1153 
L 594 3053 
L 172 3053 
L 172 3500 
L 594 3500 
L 594 4494 
L 1172 4494 
z
" transform="scale(0.015625)"/>
      <path id="DejaVuSans-67" d="M 2906 1791 
Q 2906 2416 2648 2759 
Q 2391 3103 1925 3103 
Q 1463 3103 1205 2759 
Q 947 2416 947 1791 
Q 947 1169 1205 825 
Q 1463 481 1925 481 
Q 2391 481 2648 825 
Q 2906 1169 2906 1791 
z
M 3481 434 
Q 3481 -459 3084 -895 
Q 2688 -1331 1869 -1331 
Q 1566 -1331 1297 -1286 
Q 1028 -1241 775 -1147 
L 775 -588 
Q 1028 -725 1275 -790 
Q 1522 -856 1778 -856 
Q 2344 -856 2625 -561 
Q 2906 -266 2906 331 
L 2906 616 
Q 2728 306 2450 153 
Q 2172 0 1784 0 
Q 1141 0 747 490 
Q 353 981 353 1791 
Q 353 2603 747 3093 
Q 1141 3584 1784 3584 
Q 2172 3584 2450 3431 
Q 2728 3278 2906 2969 
L 2906 3500 
L 3481 3500 
L 3481 434 
z
" transform="scale(0.015625)"/>
      <path id="DejaVuSans-42" d="M 1259 2228 
L 1259 519 
L 2272 519 
Q 2781 519 3026 730 
Q 3272 941 3272 1375 
Q 3272 1813 3026 2020 
Q 2781 2228 2272 2228 
L 1259 2228 
z
M 1259 4147 
L 1259 2741 
L 2194 2741 
Q 2656 2741 2882 2914 
Q 3109 3088 3109 3444 
Q 3109 3797 2882 3972 
Q 2656 4147 2194 4147 
L 1259 4147 
z
M 628 4666 
L 2241 4666 
Q 2963 4666 3353 4366 
Q 3744 4066 3744 3513 
Q 3744 3084 3544 2831 
Q 3344 2578 2956 2516 
Q 3422 2416 3680 2098 
Q 3938 1781 3938 1306 
Q 3938 681 3513 340 
Q 3088 0 2303 0 
L 628 0 
L 628 4666 
z
" transform="scale(0.015625)"/>
      <path id="DejaVuSans-68" d="M 3513 2113 
L 3513 0 
L 2938 0 
L 2938 2094 
Q 2938 2591 2744 2837 
Q 2550 3084 2163 3084 
Q 1697 3084 1428 2787 
Q 1159 2491 1159 1978 
L 1159 0 
L 581 0 
L 581 4863 
L 1159 4863 
L 1159 2956 
Q 1366 3272 1645 3428 
Q 1925 3584 2291 3584 
Q 2894 3584 3203 3211 
Q 3513 2838 3513 2113 
z
" transform="scale(0.015625)"/>
     </defs>
     <use xlink:href="#DejaVuSans-44"/>
     <use xlink:href="#DejaVuSans-61" x="77.001953"/>
     <use xlink:href="#DejaVuSans-69" x="138.28125"/>
     <use xlink:href="#DejaVuSans-6c" x="166.064453"/>
     <use xlink:href="#DejaVuSans-79" x="193.847656"/>
     <use xlink:href="#DejaVuSans-20" x="253.027344"/>
     <use xlink:href="#DejaVuSans-43" x="284.814453"/>
     <use xlink:href="#DejaVuSans-6f" x="354.638672"/>
     <use xlink:href="#DejaVuSans-6e" x="415.820312"/>
     <use xlink:href="#DejaVuSans-66" x="479.199219"/>
     <use xlink:href="#DejaVuSans-69" x="514.404297"/>
     <use xlink:href="#DejaVuSans-72" x="542.1875"/>
     <use xlink:href="#DejaVuSans-6d" x="581.550781"/>
     <use xlink:href="#DejaVuSans-65" x="678.962891"/>
     <use xlink:href="#DejaVuSans-64" x="740.486328"/>
     <use xlink:href="#DejaVuSans-20" x="803.962891"/>
     <use xlink:href="#DejaVuSans-43" x="835.75"/>
     <use xlink:href="#DejaVuSans-61" x="905.574219"/>
     <use xlink:href="#DejaVuSans-73" x="966.853516"/>
     <use xlink:href="#DejaVuSans-65" x="1018.953125"/>
     <use xlink:href="#DejaVuSans-73" x="1080.476562"/>
     <use xlink:href="#DejaVuSans-20" x="1132.576172"/>
     <use xlink:href="#DejaVuSans-46" x="1164.363281"/>
     <use xlink:href="#DejaVuSans-6f" x="1218.257812"/>
     <use xlink:href="#DejaVuSans-72" x="1279.439453"/>
     <use xlink:href="#DejaVuSans-65" x="1318.302734"/>
     <use xlink:href="#DejaVuSans-63" x="1379.826172"/>
     <use xlink:href="#DejaVuSans-61" x="1434.806641"/>
     <use xlink:href="#DejaVuSans-73" x="1496.085938"/>
     <use xlink:href="#DejaVuSans-74" x="1548.185547"/>
     <use xlink:href="#DejaVuSans-69" x="1587.394531"/>
     <use xlink:href="#DejaVuSans-6e" x="1615.177734"/>
     <use xlink:href="#DejaVuSans-67" x="1678.556641"/>
     <use xlink:href="#DejaVuSans-20" x="1742.033203"/>
     <use xlink:href="#DejaVuSans-2d" x="1773.820312"/>
     <use xlink:href="#DejaVuSans-20" x="1809.904297"/>
     <use xlink:href="#DejaVuSans-42" x="1841.691406"/>
     <use xlink:href="#DejaVuSans-61" x="1910.294922"/>
     <use xlink:href="#DejaVuSans-68" x="1971.574219"/>
     <use xlink:href="#DejaVuSans-61" x="2034.953125"/>
     <use xlink:href="#DejaVuSans-6d" x="2096.232422"/>
     <use xlink:href="#DejaVuSans-61" x="2193.644531"/>
     <use xlink:href="#DejaVuSans-73" x="2254.923828"/>
    </g>
    <!-- ARIMA (3, 1, 1)x(1, 0, 1, 7) (R2 = 0.080240) -->
    <g transform="translate(577.265938 29.7555)scale(0.12 -0.12)">
     <defs>
      <path id="DejaVuSans-41" d="M 2188 4044 
L 1331 1722 
L 3047 1722 
L 2188 4044 
z
M 1831 4666 
L 2547 4666 
L 4325 0 
L 3669 0 
L 3244 1197 
L 1141 1197 
L 716 0 
L 50 0 
L 1831 4666 
z
" transform="scale(0.015625)"/>
      <path id="DejaVuSans-52" d="M 2841 2188 
Q 3044 2119 3236 1894 
Q 3428 1669 3622 1275 
L 4263 0 
L 3584 0 
L 2988 1197 
Q 2756 1666 2539 1819 
Q 2322 1972 1947 1972 
L 1259 1972 
L 1259 0 
L 628 0 
L 628 4666 
L 2053 4666 
Q 2853 4666 3247 4331 
Q 3641 3997 3641 3322 
Q 3641 2881 3436 2590 
Q 3231 2300 2841 2188 
z
M 1259 4147 
L 1259 2491 
L 2053 2491 
Q 2509 2491 2742 2702 
Q 2975 2913 2975 3322 
Q 2975 3731 2742 3939 
Q 2509 4147 2053 4147 
L 1259 4147 
z
" transform="scale(0.015625)"/>
      <path id="DejaVuSans-49" d="M 628 4666 
L 1259 4666 
L 1259 0 
L 628 0 
L 628 4666 
z
" transform="scale(0.015625)"/>
      <path id="DejaVuSans-4d" d="M 628 4666 
L 1569 4666 
L 2759 1491 
L 3956 4666 
L 4897 4666 
L 4897 0 
L 4281 0 
L 4281 4097 
L 3078 897 
L 2444 897 
L 1241 4097 
L 1241 0 
L 628 0 
L 628 4666 
z
" transform="scale(0.015625)"/>
      <path id="DejaVuSans-28" d="M 1984 4856 
Q 1566 4138 1362 3434 
Q 1159 2731 1159 2009 
Q 1159 1288 1364 580 
Q 1569 -128 1984 -844 
L 1484 -844 
Q 1016 -109 783 600 
Q 550 1309 550 2009 
Q 550 2706 781 3412 
Q 1013 4119 1484 4856 
L 1984 4856 
z
" transform="scale(0.015625)"/>
      <path id="DejaVuSans-33" d="M 2597 2516 
Q 3050 2419 3304 2112 
Q 3559 1806 3559 1356 
Q 3559 666 3084 287 
Q 2609 -91 1734 -91 
Q 1441 -91 1130 -33 
Q 819 25 488 141 
L 488 750 
Q 750 597 1062 519 
Q 1375 441 1716 441 
Q 2309 441 2620 675 
Q 2931 909 2931 1356 
Q 2931 1769 2642 2001 
Q 2353 2234 1838 2234 
L 1294 2234 
L 1294 2753 
L 1863 2753 
Q 2328 2753 2575 2939 
Q 2822 3125 2822 3475 
Q 2822 3834 2567 4026 
Q 2313 4219 1838 4219 
Q 1578 4219 1281 4162 
Q 984 4106 628 3988 
L 628 4550 
Q 988 4650 1302 4700 
Q 1616 4750 1894 4750 
Q 2613 4750 3031 4423 
Q 3450 4097 3450 3541 
Q 3450 3153 3228 2886 
Q 3006 2619 2597 2516 
z
" transform="scale(0.015625)"/>
      <path id="DejaVuSans-2c" d="M 750 794 
L 1409 794 
L 1409 256 
L 897 -744 
L 494 -744 
L 750 256 
L 750 794 
z
" transform="scale(0.015625)"/>
      <path id="DejaVuSans-29" d="M 513 4856 
L 1013 4856 
Q 1481 4119 1714 3412 
Q 1947 2706 1947 2009 
Q 1947 1309 1714 600 
Q 1481 -109 1013 -844 
L 513 -844 
Q 928 -128 1133 580 
Q 1338 1288 1338 2009 
Q 1338 2731 1133 3434 
Q 928 4138 513 4856 
z
" transform="scale(0.015625)"/>
      <path id="DejaVuSans-78" d="M 3513 3500 
L 2247 1797 
L 3578 0 
L 2900 0 
L 1881 1375 
L 863 0 
L 184 0 
L 1544 1831 
L 300 3500 
L 978 3500 
L 1906 2253 
L 2834 3500 
L 3513 3500 
z
" transform="scale(0.015625)"/>
      <path id="DejaVuSans-3d" d="M 678 2906 
L 4684 2906 
L 4684 2381 
L 678 2381 
L 678 2906 
z
M 678 1631 
L 4684 1631 
L 4684 1100 
L 678 1100 
L 678 1631 
z
" transform="scale(0.015625)"/>
      <path id="DejaVuSans-2e" d="M 684 794 
L 1344 794 
L 1344 0 
L 684 0 
L 684 794 
z
" transform="scale(0.015625)"/>
     </defs>
     <use xlink:href="#DejaVuSans-41"/>
     <use xlink:href="#DejaVuSans-52" x="68.408203"/>
     <use xlink:href="#DejaVuSans-49" x="137.890625"/>
     <use xlink:href="#DejaVuSans-4d" x="167.382812"/>
     <use xlink:href="#DejaVuSans-41" x="253.662109"/>
     <use xlink:href="#DejaVuSans-20" x="322.070312"/>
     <use xlink:href="#DejaVuSans-28" x="353.857422"/>
     <use xlink:href="#DejaVuSans-33" x="392.871094"/>
     <use xlink:href="#DejaVuSans-2c" x="456.494141"/>
     <use xlink:href="#DejaVuSans-20" x="488.28125"/>
     <use xlink:href="#DejaVuSans-31" x="520.068359"/>
     <use xlink:href="#DejaVuSans-2c" x="583.691406"/>
     <use xlink:href="#DejaVuSans-20" x="615.478516"/>
     <use xlink:href="#DejaVuSans-31" x="647.265625"/>
     <use xlink:href="#DejaVuSans-29" x="710.888672"/>
     <use xlink:href="#DejaVuSans-78" x="749.902344"/>
     <use xlink:href="#DejaVuSans-28" x="809.082031"/>
     <use xlink:href="#DejaVuSans-31" x="848.095703"/>
     <use xlink:href="#DejaVuSans-2c" x="911.71875"/>
     <use xlink:href="#DejaVuSans-20" x="943.505859"/>
     <use xlink:href="#DejaVuSans-30" x="975.292969"/>
     <use xlink:href="#DejaVuSans-2c" x="1038.916016"/>
     <use xlink:href="#DejaVuSans-20" x="1070.703125"/>
     <use xlink:href="#DejaVuSans-31" x="1102.490234"/>
     <use xlink:href="#DejaVuSans-2c" x="1166.113281"/>
     <use xlink:href="#DejaVuSans-20" x="1197.900391"/>
     <use xlink:href="#DejaVuSans-37" x="1229.6875"/>
     <use xlink:href="#DejaVuSans-29" x="1293.310547"/>
     <use xlink:href="#DejaVuSans-20" x="1332.324219"/>
     <use xlink:href="#DejaVuSans-28" x="1364.111328"/>
     <use xlink:href="#DejaVuSans-52" x="1403.125"/>
     <use xlink:href="#DejaVuSans-32" x="1472.607422"/>
     <use xlink:href="#DejaVuSans-20" x="1536.230469"/>
     <use xlink:href="#DejaVuSans-3d" x="1568.017578"/>
     <use xlink:href="#DejaVuSans-20" x="1651.806641"/>
     <use xlink:href="#DejaVuSans-30" x="1683.59375"/>
     <use xlink:href="#DejaVuSans-2e" x="1747.216797"/>
     <use xlink:href="#DejaVuSans-30" x="1779.003906"/>
     <use xlink:href="#DejaVuSans-38" x="1842.626953"/>
     <use xlink:href="#DejaVuSans-30" x="1906.25"/>
     <use xlink:href="#DejaVuSans-32" x="1969.873047"/>
     <use xlink:href="#DejaVuSans-34" x="2033.496094"/>
     <use xlink:href="#DejaVuSans-30" x="2097.119141"/>
     <use xlink:href="#DejaVuSans-29" x="2160.742188"/>
    </g>
   </g>
   <g id="legend_1">
    <g id="patch_7">
     <path d="M 1274.770313 87.789875 
L 1371.85 87.789875 
Q 1373.85 87.789875 1373.85 85.789875 
L 1373.85 42.7555 
Q 1373.85 40.7555 1371.85 40.7555 
L 1274.770313 40.7555 
Q 1272.770313 40.7555 1272.770313 42.7555 
L 1272.770313 85.789875 
Q 1272.770313 87.789875 1274.770313 87.789875 
z
" style="fill: #ffffff; opacity: 0.8; stroke: #cccccc; stroke-linejoin: miter"/>
    </g>
    <g id="line2d_23">
     <path d="M 1276.770313 48.853937 
L 1286.770313 48.853937 
L 1296.770313 48.853937 
" style="fill: none; stroke: #0000ff; stroke-width: 1.5; stroke-linecap: square"/>
    </g>
    <g id="text_21">
     <!-- Actual Value -->
     <g transform="translate(1304.770313 52.353937)scale(0.1 -0.1)">
      <defs>
       <path id="DejaVuSans-75" d="M 544 1381 
L 544 3500 
L 1119 3500 
L 1119 1403 
Q 1119 906 1312 657 
Q 1506 409 1894 409 
Q 2359 409 2629 706 
Q 2900 1003 2900 1516 
L 2900 3500 
L 3475 3500 
L 3475 0 
L 2900 0 
L 2900 538 
Q 2691 219 2414 64 
Q 2138 -91 1772 -91 
Q 1169 -91 856 284 
Q 544 659 544 1381 
z
M 1991 3584 
L 1991 3584 
z
" transform="scale(0.015625)"/>
       <path id="DejaVuSans-56" d="M 1831 0 
L 50 4666 
L 709 4666 
L 2188 738 
L 3669 4666 
L 4325 4666 
L 2547 0 
L 1831 0 
z
" transform="scale(0.015625)"/>
      </defs>
      <use xlink:href="#DejaVuSans-41"/>
      <use xlink:href="#DejaVuSans-63" x="66.658203"/>
      <use xlink:href="#DejaVuSans-74" x="121.638672"/>
      <use xlink:href="#DejaVuSans-75" x="160.847656"/>
      <use xlink:href="#DejaVuSans-61" x="224.226562"/>
      <use xlink:href="#DejaVuSans-6c" x="285.505859"/>
      <use xlink:href="#DejaVuSans-20" x="313.289062"/>
      <use xlink:href="#DejaVuSans-56" x="345.076172"/>
      <use xlink:href="#DejaVuSans-61" x="405.734375"/>
      <use xlink:href="#DejaVuSans-6c" x="467.013672"/>
      <use xlink:href="#DejaVuSans-75" x="494.796875"/>
      <use xlink:href="#DejaVuSans-65" x="558.175781"/>
     </g>
    </g>
    <g id="line2d_24">
     <path d="M 1276.770313 63.532062 
L 1286.770313 63.532062 
L 1296.770313 63.532062 
" style="fill: none; stroke: #ffa500; stroke-width: 1.5; stroke-linecap: square"/>
    </g>
    <g id="text_22">
     <!-- Check Value -->
     <g transform="translate(1304.770313 67.032062)scale(0.1 -0.1)">
      <defs>
       <path id="DejaVuSans-6b" d="M 581 4863 
L 1159 4863 
L 1159 1991 
L 2875 3500 
L 3609 3500 
L 1753 1863 
L 3688 0 
L 2938 0 
L 1159 1709 
L 1159 0 
L 581 0 
L 581 4863 
z
" transform="scale(0.015625)"/>
      </defs>
      <use xlink:href="#DejaVuSans-43"/>
      <use xlink:href="#DejaVuSans-68" x="69.824219"/>
      <use xlink:href="#DejaVuSans-65" x="133.203125"/>
      <use xlink:href="#DejaVuSans-63" x="194.726562"/>
      <use xlink:href="#DejaVuSans-6b" x="249.707031"/>
      <use xlink:href="#DejaVuSans-20" x="307.617188"/>
      <use xlink:href="#DejaVuSans-56" x="339.404297"/>
      <use xlink:href="#DejaVuSans-61" x="400.0625"/>
      <use xlink:href="#DejaVuSans-6c" x="461.341797"/>
      <use xlink:href="#DejaVuSans-75" x="489.125"/>
      <use xlink:href="#DejaVuSans-65" x="552.503906"/>
     </g>
    </g>
    <g id="line2d_25">
     <path d="M 1276.770313 78.210187 
L 1286.770313 78.210187 
L 1296.770313 78.210187 
" style="fill: none; stroke: #ff0000; stroke-width: 1.5; stroke-linecap: square"/>
    </g>
    <g id="text_23">
     <!-- Predict Value -->
     <g transform="translate(1304.770313 81.710187)scale(0.1 -0.1)">
      <defs>
       <path id="DejaVuSans-50" d="M 1259 4147 
L 1259 2394 
L 2053 2394 
Q 2494 2394 2734 2622 
Q 2975 2850 2975 3272 
Q 2975 3691 2734 3919 
Q 2494 4147 2053 4147 
L 1259 4147 
z
M 628 4666 
L 2053 4666 
Q 2838 4666 3239 4311 
Q 3641 3956 3641 3272 
Q 3641 2581 3239 2228 
Q 2838 1875 2053 1875 
L 1259 1875 
L 1259 0 
L 628 0 
L 628 4666 
z
" transform="scale(0.015625)"/>
      </defs>
      <use xlink:href="#DejaVuSans-50"/>
      <use xlink:href="#DejaVuSans-72" x="58.552734"/>
      <use xlink:href="#DejaVuSans-65" x="97.416016"/>
      <use xlink:href="#DejaVuSans-64" x="158.939453"/>
      <use xlink:href="#DejaVuSans-69" x="222.416016"/>
      <use xlink:href="#DejaVuSans-63" x="250.199219"/>
      <use xlink:href="#DejaVuSans-74" x="305.179688"/>
      <use xlink:href="#DejaVuSans-20" x="344.388672"/>
      <use xlink:href="#DejaVuSans-56" x="376.175781"/>
      <use xlink:href="#DejaVuSans-61" x="436.833984"/>
      <use xlink:href="#DejaVuSans-6c" x="498.113281"/>
      <use xlink:href="#DejaVuSans-75" x="525.896484"/>
      <use xlink:href="#DejaVuSans-65" x="589.275391"/>
     </g>
    </g>
   </g>
  </g>
 </g>
 <defs>
  <clipPath id="p13f842a8ad">
   <rect x="39.65" y="35.7555" width="1339.2" height="332.64"/>
  </clipPath>
 </defs>
</svg>
