<?xml version="1.0" encoding="utf-8" standalone="no"?>
<!DOCTYPE svg PUBLIC "-//W3C//DTD SVG 1.1//EN"
  "http://www.w3.org/Graphics/SVG/1.1/DTD/svg11.dtd">
<svg xmlns:xlink="http://www.w3.org/1999/xlink" width="1386.05pt" height="392.273625pt" viewBox="0 0 1386.05 392.273625" xmlns="http://www.w3.org/2000/svg" version="1.1">
 <metadata>
  <rdf:RDF xmlns:dc="http://purl.org/dc/elements/1.1/" xmlns:cc="http://creativecommons.org/ns#" xmlns:rdf="http://www.w3.org/1999/02/22-rdf-syntax-ns#">
   <cc:Work>
    <dc:type rdf:resource="http://purl.org/dc/dcmitype/StillImage"/>
    <dc:date>2022-07-16T19:31:23.463352</dc:date>
    <dc:format>image/svg+xml</dc:format>
    <dc:creator>
     <cc:Agent>
      <dc:title>Matplotlib v3.5.2, https://matplotlib.org/</dc:title>
     </cc:Agent>
    </dc:creator>
   </cc:Work>
  </rdf:RDF>
 </metadata>
 <defs>
  <style type="text/css">*{stroke-linejoin: round; stroke-linecap: butt}</style>
 </defs>
 <g id="figure_1">
  <g id="patch_1">
   <path d="M 0 392.273625 
L 1386.05 392.273625 
L 1386.05 0 
L 0 0 
z
" style="fill: #ffffff"/>
  </g>
  <g id="axes_1">
   <g id="patch_2">
    <path d="M 39.65 368.3955 
L 1378.85 368.3955 
L 1378.85 35.7555 
L 39.65 35.7555 
z
" style="fill: #ffffff"/>
   </g>
   <g id="matplotlib.axis_1">
    <g id="xtick_1">
     <g id="line2d_1">
      <defs>
       <path id="m4cd59ddd21" d="M 0 0 
L 0 3.5 
" style="stroke: #000000; stroke-width: 0.8"/>
      </defs>
      <g>
       <use xlink:href="#m4cd59ddd21" x="71.314439" y="368.3955" style="stroke: #000000; stroke-width: 0.8"/>
      </g>
     </g>
     <g id="text_1">
      <!-- 2020-01 -->
      <g transform="translate(50.423033 382.993937)scale(0.1 -0.1)">
       <defs>
        <path id="DejaVuSans-32" d="M 1228 531 
L 3431 531 
L 3431 0 
L 469 0 
L 469 531 
Q 828 903 1448 1529 
Q 2069 2156 2228 2338 
Q 2531 2678 2651 2914 
Q 2772 3150 2772 3378 
Q 2772 3750 2511 3984 
Q 2250 4219 1831 4219 
Q 1534 4219 1204 4116 
Q 875 4013 500 3803 
L 500 4441 
Q 881 4594 1212 4672 
Q 1544 4750 1819 4750 
Q 2544 4750 2975 4387 
Q 3406 4025 3406 3419 
Q 3406 3131 3298 2873 
Q 3191 2616 2906 2266 
Q 2828 2175 2409 1742 
Q 1991 1309 1228 531 
z
" transform="scale(0.015625)"/>
        <path id="DejaVuSans-30" d="M 2034 4250 
Q 1547 4250 1301 3770 
Q 1056 3291 1056 2328 
Q 1056 1369 1301 889 
Q 1547 409 2034 409 
Q 2525 409 2770 889 
Q 3016 1369 3016 2328 
Q 3016 3291 2770 3770 
Q 2525 4250 2034 4250 
z
M 2034 4750 
Q 2819 4750 3233 4129 
Q 3647 3509 3647 2328 
Q 3647 1150 3233 529 
Q 2819 -91 2034 -91 
Q 1250 -91 836 529 
Q 422 1150 422 2328 
Q 422 3509 836 4129 
Q 1250 4750 2034 4750 
z
" transform="scale(0.015625)"/>
        <path id="DejaVuSans-2d" d="M 313 2009 
L 1997 2009 
L 1997 1497 
L 313 1497 
L 313 2009 
z
" transform="scale(0.015625)"/>
        <path id="DejaVuSans-31" d="M 794 531 
L 1825 531 
L 1825 4091 
L 703 3866 
L 703 4441 
L 1819 4666 
L 2450 4666 
L 2450 531 
L 3481 531 
L 3481 0 
L 794 0 
L 794 531 
z
" transform="scale(0.015625)"/>
       </defs>
       <use xlink:href="#DejaVuSans-32"/>
       <use xlink:href="#DejaVuSans-30" x="63.623047"/>
       <use xlink:href="#DejaVuSans-32" x="127.246094"/>
       <use xlink:href="#DejaVuSans-30" x="190.869141"/>
       <use xlink:href="#DejaVuSans-2d" x="254.492188"/>
       <use xlink:href="#DejaVuSans-30" x="290.576172"/>
       <use xlink:href="#DejaVuSans-31" x="354.199219"/>
      </g>
     </g>
    </g>
    <g id="xtick_2">
     <g id="line2d_2">
      <g>
       <use xlink:href="#m4cd59ddd21" x="192.130539" y="368.3955" style="stroke: #000000; stroke-width: 0.8"/>
      </g>
     </g>
     <g id="text_2">
      <!-- 2020-04 -->
      <g transform="translate(171.239133 382.993937)scale(0.1 -0.1)">
       <defs>
        <path id="DejaVuSans-34" d="M 2419 4116 
L 825 1625 
L 2419 1625 
L 2419 4116 
z
M 2253 4666 
L 3047 4666 
L 3047 1625 
L 3713 1625 
L 3713 1100 
L 3047 1100 
L 3047 0 
L 2419 0 
L 2419 1100 
L 313 1100 
L 313 1709 
L 2253 4666 
z
" transform="scale(0.015625)"/>
       </defs>
       <use xlink:href="#DejaVuSans-32"/>
       <use xlink:href="#DejaVuSans-30" x="63.623047"/>
       <use xlink:href="#DejaVuSans-32" x="127.246094"/>
       <use xlink:href="#DejaVuSans-30" x="190.869141"/>
       <use xlink:href="#DejaVuSans-2d" x="254.492188"/>
       <use xlink:href="#DejaVuSans-30" x="290.576172"/>
       <use xlink:href="#DejaVuSans-34" x="354.199219"/>
      </g>
     </g>
    </g>
    <g id="xtick_3">
     <g id="line2d_3">
      <g>
       <use xlink:href="#m4cd59ddd21" x="312.946639" y="368.3955" style="stroke: #000000; stroke-width: 0.8"/>
      </g>
     </g>
     <g id="text_3">
      <!-- 2020-07 -->
      <g transform="translate(292.055233 382.993937)scale(0.1 -0.1)">
       <defs>
        <path id="DejaVuSans-37" d="M 525 4666 
L 3525 4666 
L 3525 4397 
L 1831 0 
L 1172 0 
L 2766 4134 
L 525 4134 
L 525 4666 
z
" transform="scale(0.015625)"/>
       </defs>
       <use xlink:href="#DejaVuSans-32"/>
       <use xlink:href="#DejaVuSans-30" x="63.623047"/>
       <use xlink:href="#DejaVuSans-32" x="127.246094"/>
       <use xlink:href="#DejaVuSans-30" x="190.869141"/>
       <use xlink:href="#DejaVuSans-2d" x="254.492188"/>
       <use xlink:href="#DejaVuSans-30" x="290.576172"/>
       <use xlink:href="#DejaVuSans-37" x="354.199219"/>
      </g>
     </g>
    </g>
    <g id="xtick_4">
     <g id="line2d_4">
      <g>
       <use xlink:href="#m4cd59ddd21" x="435.090389" y="368.3955" style="stroke: #000000; stroke-width: 0.8"/>
      </g>
     </g>
     <g id="text_4">
      <!-- 2020-10 -->
      <g transform="translate(414.198982 382.993937)scale(0.1 -0.1)">
       <use xlink:href="#DejaVuSans-32"/>
       <use xlink:href="#DejaVuSans-30" x="63.623047"/>
       <use xlink:href="#DejaVuSans-32" x="127.246094"/>
       <use xlink:href="#DejaVuSans-30" x="190.869141"/>
       <use xlink:href="#DejaVuSans-2d" x="254.492188"/>
       <use xlink:href="#DejaVuSans-31" x="290.576172"/>
       <use xlink:href="#DejaVuSans-30" x="354.199219"/>
      </g>
     </g>
    </g>
    <g id="xtick_5">
     <g id="line2d_5">
      <g>
       <use xlink:href="#m4cd59ddd21" x="557.234138" y="368.3955" style="stroke: #000000; stroke-width: 0.8"/>
      </g>
     </g>
     <g id="text_5">
      <!-- 2021-01 -->
      <g transform="translate(536.342732 382.993937)scale(0.1 -0.1)">
       <use xlink:href="#DejaVuSans-32"/>
       <use xlink:href="#DejaVuSans-30" x="63.623047"/>
       <use xlink:href="#DejaVuSans-32" x="127.246094"/>
       <use xlink:href="#DejaVuSans-31" x="190.869141"/>
       <use xlink:href="#DejaVuSans-2d" x="254.492188"/>
       <use xlink:href="#DejaVuSans-30" x="290.576172"/>
       <use xlink:href="#DejaVuSans-31" x="354.199219"/>
      </g>
     </g>
    </g>
    <g id="xtick_6">
     <g id="line2d_6">
      <g>
       <use xlink:href="#m4cd59ddd21" x="676.722588" y="368.3955" style="stroke: #000000; stroke-width: 0.8"/>
      </g>
     </g>
     <g id="text_6">
      <!-- 2021-04 -->
      <g transform="translate(655.831182 382.993937)scale(0.1 -0.1)">
       <use xlink:href="#DejaVuSans-32"/>
       <use xlink:href="#DejaVuSans-30" x="63.623047"/>
       <use xlink:href="#DejaVuSans-32" x="127.246094"/>
       <use xlink:href="#DejaVuSans-31" x="190.869141"/>
       <use xlink:href="#DejaVuSans-2d" x="254.492188"/>
       <use xlink:href="#DejaVuSans-30" x="290.576172"/>
       <use xlink:href="#DejaVuSans-34" x="354.199219"/>
      </g>
     </g>
    </g>
    <g id="xtick_7">
     <g id="line2d_7">
      <g>
       <use xlink:href="#m4cd59ddd21" x="797.538688" y="368.3955" style="stroke: #000000; stroke-width: 0.8"/>
      </g>
     </g>
     <g id="text_7">
      <!-- 2021-07 -->
      <g transform="translate(776.647282 382.993937)scale(0.1 -0.1)">
       <use xlink:href="#DejaVuSans-32"/>
       <use xlink:href="#DejaVuSans-30" x="63.623047"/>
       <use xlink:href="#DejaVuSans-32" x="127.246094"/>
       <use xlink:href="#DejaVuSans-31" x="190.869141"/>
       <use xlink:href="#DejaVuSans-2d" x="254.492188"/>
       <use xlink:href="#DejaVuSans-30" x="290.576172"/>
       <use xlink:href="#DejaVuSans-37" x="354.199219"/>
      </g>
     </g>
    </g>
    <g id="xtick_8">
     <g id="line2d_8">
      <g>
       <use xlink:href="#m4cd59ddd21" x="919.682438" y="368.3955" style="stroke: #000000; stroke-width: 0.8"/>
      </g>
     </g>
     <g id="text_8">
      <!-- 2021-10 -->
      <g transform="translate(898.791032 382.993937)scale(0.1 -0.1)">
       <use xlink:href="#DejaVuSans-32"/>
       <use xlink:href="#DejaVuSans-30" x="63.623047"/>
       <use xlink:href="#DejaVuSans-32" x="127.246094"/>
       <use xlink:href="#DejaVuSans-31" x="190.869141"/>
       <use xlink:href="#DejaVuSans-2d" x="254.492188"/>
       <use xlink:href="#DejaVuSans-31" x="290.576172"/>
       <use xlink:href="#DejaVuSans-30" x="354.199219"/>
      </g>
     </g>
    </g>
    <g id="xtick_9">
     <g id="line2d_9">
      <g>
       <use xlink:href="#m4cd59ddd21" x="1041.826187" y="368.3955" style="stroke: #000000; stroke-width: 0.8"/>
      </g>
     </g>
     <g id="text_9">
      <!-- 2022-01 -->
      <g transform="translate(1020.934781 382.993937)scale(0.1 -0.1)">
       <use xlink:href="#DejaVuSans-32"/>
       <use xlink:href="#DejaVuSans-30" x="63.623047"/>
       <use xlink:href="#DejaVuSans-32" x="127.246094"/>
       <use xlink:href="#DejaVuSans-32" x="190.869141"/>
       <use xlink:href="#DejaVuSans-2d" x="254.492188"/>
       <use xlink:href="#DejaVuSans-30" x="290.576172"/>
       <use xlink:href="#DejaVuSans-31" x="354.199219"/>
      </g>
     </g>
    </g>
    <g id="xtick_10">
     <g id="line2d_10">
      <g>
       <use xlink:href="#m4cd59ddd21" x="1161.314638" y="368.3955" style="stroke: #000000; stroke-width: 0.8"/>
      </g>
     </g>
     <g id="text_10">
      <!-- 2022-04 -->
      <g transform="translate(1140.423231 382.993937)scale(0.1 -0.1)">
       <use xlink:href="#DejaVuSans-32"/>
       <use xlink:href="#DejaVuSans-30" x="63.623047"/>
       <use xlink:href="#DejaVuSans-32" x="127.246094"/>
       <use xlink:href="#DejaVuSans-32" x="190.869141"/>
       <use xlink:href="#DejaVuSans-2d" x="254.492188"/>
       <use xlink:href="#DejaVuSans-30" x="290.576172"/>
       <use xlink:href="#DejaVuSans-34" x="354.199219"/>
      </g>
     </g>
    </g>
    <g id="xtick_11">
     <g id="line2d_11">
      <g>
       <use xlink:href="#m4cd59ddd21" x="1282.130738" y="368.3955" style="stroke: #000000; stroke-width: 0.8"/>
      </g>
     </g>
     <g id="text_11">
      <!-- 2022-07 -->
      <g transform="translate(1261.239331 382.993937)scale(0.1 -0.1)">
       <use xlink:href="#DejaVuSans-32"/>
       <use xlink:href="#DejaVuSans-30" x="63.623047"/>
       <use xlink:href="#DejaVuSans-32" x="127.246094"/>
       <use xlink:href="#DejaVuSans-32" x="190.869141"/>
       <use xlink:href="#DejaVuSans-2d" x="254.492188"/>
       <use xlink:href="#DejaVuSans-30" x="290.576172"/>
       <use xlink:href="#DejaVuSans-37" x="354.199219"/>
      </g>
     </g>
    </g>
   </g>
   <g id="matplotlib.axis_2">
    <g id="ytick_1">
     <g id="line2d_12">
      <defs>
       <path id="ma363d0ca07" d="M 0 0 
L -3.5 0 
" style="stroke: #000000; stroke-width: 0.8"/>
      </defs>
      <g>
       <use xlink:href="#ma363d0ca07" x="39.65" y="351.11959" style="stroke: #000000; stroke-width: 0.8"/>
      </g>
     </g>
     <g id="text_12">
      <!-- 0 -->
      <g transform="translate(26.2875 354.918808)scale(0.1 -0.1)">
       <use xlink:href="#DejaVuSans-30"/>
      </g>
     </g>
    </g>
    <g id="ytick_2">
     <g id="line2d_13">
      <g>
       <use xlink:href="#ma363d0ca07" x="39.65" y="293.213304" style="stroke: #000000; stroke-width: 0.8"/>
      </g>
     </g>
     <g id="text_13">
      <!-- 1000 -->
      <g transform="translate(7.2 297.012523)scale(0.1 -0.1)">
       <use xlink:href="#DejaVuSans-31"/>
       <use xlink:href="#DejaVuSans-30" x="63.623047"/>
       <use xlink:href="#DejaVuSans-30" x="127.246094"/>
       <use xlink:href="#DejaVuSans-30" x="190.869141"/>
      </g>
     </g>
    </g>
    <g id="ytick_3">
     <g id="line2d_14">
      <g>
       <use xlink:href="#ma363d0ca07" x="39.65" y="235.307019" style="stroke: #000000; stroke-width: 0.8"/>
      </g>
     </g>
     <g id="text_14">
      <!-- 2000 -->
      <g transform="translate(7.2 239.106238)scale(0.1 -0.1)">
       <use xlink:href="#DejaVuSans-32"/>
       <use xlink:href="#DejaVuSans-30" x="63.623047"/>
       <use xlink:href="#DejaVuSans-30" x="127.246094"/>
       <use xlink:href="#DejaVuSans-30" x="190.869141"/>
      </g>
     </g>
    </g>
    <g id="ytick_4">
     <g id="line2d_15">
      <g>
       <use xlink:href="#ma363d0ca07" x="39.65" y="177.400734" style="stroke: #000000; stroke-width: 0.8"/>
      </g>
     </g>
     <g id="text_15">
      <!-- 3000 -->
      <g transform="translate(7.2 181.199952)scale(0.1 -0.1)">
       <defs>
        <path id="DejaVuSans-33" d="M 2597 2516 
Q 3050 2419 3304 2112 
Q 3559 1806 3559 1356 
Q 3559 666 3084 287 
Q 2609 -91 1734 -91 
Q 1441 -91 1130 -33 
Q 819 25 488 141 
L 488 750 
Q 750 597 1062 519 
Q 1375 441 1716 441 
Q 2309 441 2620 675 
Q 2931 909 2931 1356 
Q 2931 1769 2642 2001 
Q 2353 2234 1838 2234 
L 1294 2234 
L 1294 2753 
L 1863 2753 
Q 2328 2753 2575 2939 
Q 2822 3125 2822 3475 
Q 2822 3834 2567 4026 
Q 2313 4219 1838 4219 
Q 1578 4219 1281 4162 
Q 984 4106 628 3988 
L 628 4550 
Q 988 4650 1302 4700 
Q 1616 4750 1894 4750 
Q 2613 4750 3031 4423 
Q 3450 4097 3450 3541 
Q 3450 3153 3228 2886 
Q 3006 2619 2597 2516 
z
" transform="scale(0.015625)"/>
       </defs>
       <use xlink:href="#DejaVuSans-33"/>
       <use xlink:href="#DejaVuSans-30" x="63.623047"/>
       <use xlink:href="#DejaVuSans-30" x="127.246094"/>
       <use xlink:href="#DejaVuSans-30" x="190.869141"/>
      </g>
     </g>
    </g>
    <g id="ytick_5">
     <g id="line2d_16">
      <g>
       <use xlink:href="#ma363d0ca07" x="39.65" y="119.494448" style="stroke: #000000; stroke-width: 0.8"/>
      </g>
     </g>
     <g id="text_16">
      <!-- 4000 -->
      <g transform="translate(7.2 123.293667)scale(0.1 -0.1)">
       <use xlink:href="#DejaVuSans-34"/>
       <use xlink:href="#DejaVuSans-30" x="63.623047"/>
       <use xlink:href="#DejaVuSans-30" x="127.246094"/>
       <use xlink:href="#DejaVuSans-30" x="190.869141"/>
      </g>
     </g>
    </g>
    <g id="ytick_6">
     <g id="line2d_17">
      <g>
       <use xlink:href="#ma363d0ca07" x="39.65" y="61.588163" style="stroke: #000000; stroke-width: 0.8"/>
      </g>
     </g>
     <g id="text_17">
      <!-- 5000 -->
      <g transform="translate(7.2 65.387382)scale(0.1 -0.1)">
       <defs>
        <path id="DejaVuSans-35" d="M 691 4666 
L 3169 4666 
L 3169 4134 
L 1269 4134 
L 1269 2991 
Q 1406 3038 1543 3061 
Q 1681 3084 1819 3084 
Q 2600 3084 3056 2656 
Q 3513 2228 3513 1497 
Q 3513 744 3044 326 
Q 2575 -91 1722 -91 
Q 1428 -91 1123 -41 
Q 819 9 494 109 
L 494 744 
Q 775 591 1075 516 
Q 1375 441 1709 441 
Q 2250 441 2565 725 
Q 2881 1009 2881 1497 
Q 2881 1984 2565 2268 
Q 2250 2553 1709 2553 
Q 1456 2553 1204 2497 
Q 953 2441 691 2322 
L 691 4666 
z
" transform="scale(0.015625)"/>
       </defs>
       <use xlink:href="#DejaVuSans-35"/>
       <use xlink:href="#DejaVuSans-30" x="63.623047"/>
       <use xlink:href="#DejaVuSans-30" x="127.246094"/>
       <use xlink:href="#DejaVuSans-30" x="190.869141"/>
      </g>
     </g>
    </g>
   </g>
   <g id="line2d_18">
    <path d="M 100.522727 351.11959 
L 169.560499 351.11959 
L 170.888148 350.887964 
L 172.215798 351.11959 
L 173.543447 351.061683 
L 174.871096 351.11959 
L 176.198746 350.945871 
L 177.526395 351.11959 
L 178.854045 351.003777 
L 180.181694 351.11959 
L 181.509344 351.061683 
L 184.164643 351.11959 
L 185.492292 350.887964 
L 186.819942 351.11959 
L 188.147591 350.830058 
L 189.47524 351.003777 
L 192.130539 350.945871 
L 193.458189 351.11959 
L 194.785838 350.772152 
L 196.113488 350.945871 
L 197.441137 350.830058 
L 198.768787 351.061683 
L 200.096436 350.656339 
L 201.424085 350.945871 
L 202.751735 351.061683 
L 204.079384 350.598433 
L 205.407034 350.887964 
L 206.734683 351.003777 
L 208.062333 350.945871 
L 209.389982 350.656339 
L 210.717632 350.945871 
L 212.045281 350.714246 
L 213.372931 350.887964 
L 214.70058 350.598433 
L 216.028229 350.945871 
L 220.011178 351.003777 
L 221.338827 351.11959 
L 222.666477 351.061683 
L 223.994126 350.830058 
L 225.321776 351.061683 
L 227.977074 351.003777 
L 229.304724 350.887964 
L 230.632373 351.061683 
L 231.960023 351.003777 
L 233.287672 351.11959 
L 237.270621 350.830058 
L 239.92592 349.440307 
L 241.253569 350.945871 
L 243.908868 349.440307 
L 245.236517 350.48262 
L 246.564167 350.48262 
L 247.891816 351.003777 
L 250.547115 350.250995 
L 251.874765 350.01937 
L 253.202414 350.48262 
L 254.530063 349.09287 
L 255.857713 350.366808 
L 257.185362 349.729839 
L 258.513012 350.540527 
L 259.840661 349.150776 
L 262.49596 346.023836 
L 263.82361 346.892431 
L 265.151259 348.4559 
L 266.478908 349.382401 
L 267.806558 345.328961 
L 269.134207 343.186429 
L 270.461857 345.618492 
L 271.789506 344.807804 
L 273.117156 346.197555 
L 274.444805 346.081743 
L 275.772455 342.896897 
L 277.100104 342.433647 
L 278.427754 341.333427 
L 281.083052 346.139649 
L 282.410702 343.244335 
L 283.738351 340.696458 
L 285.066001 341.275521 
L 286.39365 341.622959 
L 287.7213 336.93255 
L 289.048949 336.585112 
L 290.376599 340.754365 
L 291.704248 340.928083 
L 293.031897 344.807804 
L 294.359547 343.649679 
L 295.687196 339.827864 
L 297.014846 344.40246 
L 298.342495 328.014982 
L 299.670145 347.471494 
L 300.997794 343.533866 
L 302.325444 340.406927 
L 303.653093 340.349021 
L 304.980743 342.954803 
L 306.308392 336.643018 
L 307.636041 342.723178 
L 308.963691 344.228742 
L 310.29134 342.028303 
L 311.61899 351.11959 
L 320.912536 351.11959 
L 322.240185 297.382557 
L 323.567835 339.596239 
L 324.895484 342.607366 
L 326.223134 334.790017 
L 327.550783 341.970397 
L 328.878433 339.190895 
L 330.206082 339.364614 
L 331.533732 338.843457 
L 332.861381 334.095142 
L 334.18903 332.126328 
L 335.51668 331.199827 
L 336.844329 330.504952 
L 338.171979 310.353565 
L 339.499628 301.030653 
L 340.827278 324.945949 
L 342.154927 327.435919 
L 343.482577 307.110813 
L 344.810226 318.981601 
L 346.137875 309.427064 
L 347.465525 317.59185 
L 348.793174 313.306785 
L 350.120824 315.796756 
L 351.448473 304.50503 
L 352.776123 298.135338 
L 354.103772 323.961542 
L 355.431422 310.179846 
L 356.759071 317.360225 
L 358.086721 317.070694 
L 359.41437 324.540605 
L 360.742019 318.460445 
L 362.069669 319.15532 
L 363.397318 304.736655 
L 364.724968 318.402538 
L 366.052617 306.358031 
L 367.380267 317.302319 
L 368.707916 296.513963 
L 370.035566 288.233364 
L 371.363215 291.012865 
L 372.690864 255.458406 
L 374.018514 294.255617 
L 375.346163 266.576413 
L 376.673813 270.861478 
L 378.001462 273.756792 
L 379.329112 248.162214 
L 380.656761 245.208994 
L 381.984411 271.903791 
L 383.31206 256.269094 
L 384.63971 265.881538 
L 385.967359 261.654379 
L 387.295008 262.349254 
L 388.622658 282.442735 
L 389.950307 250.767997 
L 391.277957 263.449474 
L 392.605606 266.113163 
L 393.933256 292.692148 
L 395.260905 283.195517 
L 396.588555 287.133144 
L 397.916204 304.562936 
L 399.243853 275.6677 
L 400.571503 296.108619 
L 401.899152 281.284609 
L 403.226802 294.603055 
L 404.554451 285.338049 
L 405.882101 298.077432 
L 407.20975 300.277871 
L 408.5374 305.43153 
L 409.865049 320.950415 
L 411.192699 327.204294 
L 412.520348 323.035041 
L 413.847997 310.58519 
L 415.175647 308.384751 
L 416.503296 311.222159 
L 417.830946 316.260006 
L 419.158595 315.449318 
L 420.486245 311.222159 
L 421.813894 299.640902 
L 423.141544 309.832408 
L 424.469193 312.843535 
L 425.796842 316.144193 
L 427.124492 322.977135 
L 428.452141 320.602977 
L 429.779791 314.522817 
L 431.10744 315.680943 
L 432.43509 314.059567 
L 433.762739 305.721062 
L 435.090389 308.848001 
L 436.418038 299.582996 
L 437.745688 300.625309 
L 439.073337 295.587462 
L 440.400986 315.333505 
L 441.728636 318.344632 
L 443.056285 299.467183 
L 444.383935 298.88812 
L 445.711584 301.030653 
L 447.039234 306.705469 
L 448.366883 300.972746 
L 449.694533 302.420404 
L 451.022182 317.418132 
L 452.349831 309.890314 
L 453.677481 308.326845 
L 455.00513 312.61191 
L 456.33278 316.375818 
L 457.660429 310.411471 
L 458.988079 309.253345 
L 460.315728 314.63863 
L 461.643378 314.754442 
L 462.971027 317.823476 
L 464.298677 320.081821 
L 465.626326 314.696536 
L 466.953975 323.035041 
L 468.281625 330.041702 
L 469.609274 321.529478 
L 470.936924 316.260006 
L 472.264573 323.266666 
L 473.592223 322.861322 
L 474.919872 329.115201 
L 476.247522 327.146387 
L 477.575171 330.331233 
L 478.90282 318.69207 
L 480.23047 329.173107 
L 481.558119 321.587384 
L 482.885769 330.562858 
L 484.213418 324.77223 
L 485.541068 323.67201 
L 486.868717 333.34236 
L 488.196367 331.141921 
L 489.524016 327.957075 
L 490.851666 320.950415 
L 492.179315 321.64529 
L 493.506964 318.460445 
L 494.834614 328.014982 
L 496.162263 331.663078 
L 497.489913 331.489359 
L 498.817562 320.25554 
L 500.145212 322.224353 
L 501.472861 324.945949 
L 502.800511 323.729917 
L 504.12816 326.046168 
L 505.455809 326.914762 
L 506.783459 328.651951 
L 508.111108 321.124134 
L 509.438758 318.69207 
L 510.766407 306.589656 
L 512.094057 322.629697 
L 513.421706 316.144193 
L 516.077005 323.324573 
L 517.404655 326.219887 
L 518.732304 316.66535 
L 520.059953 321.471571 
L 521.387603 313.53841 
L 522.715252 318.981601 
L 524.042902 325.640824 
L 525.370551 320.371352 
L 526.698201 318.22882 
L 528.02585 320.660883 
L 529.3535 326.683137 
L 530.681149 321.297853 
L 532.008798 323.787823 
L 533.336448 323.729917 
L 534.664097 333.747704 
L 535.991747 324.251073 
L 537.319396 323.614104 
L 538.647046 319.61857 
L 539.974695 323.961542 
L 541.302345 324.656417 
L 542.629994 328.130794 
L 543.957644 334.326767 
L 546.612942 327.378013 
L 547.940592 323.266666 
L 549.268241 320.25554 
L 550.595891 325.003855 
L 551.92354 334.847923 
L 553.25119 337.048362 
L 554.578839 324.019448 
L 555.906489 327.493825 
L 557.234138 328.651951 
L 558.561787 328.130794 
L 559.889437 317.939288 
L 561.217086 333.921423 
L 562.544736 332.473766 
L 563.872385 319.560664 
L 566.527684 331.141921 
L 567.855334 338.380207 
L 569.182983 320.776696 
L 570.510632 333.747704 
L 571.838282 329.346826 
L 573.165931 324.308979 
L 574.493581 324.077354 
L 575.82123 327.72545 
L 577.14888 325.293386 
L 578.476529 326.625231 
L 579.804179 330.794483 
L 581.131828 340.638552 
L 582.459478 333.34236 
L 583.787127 334.210954 
L 585.114776 318.981601 
L 586.442426 326.972669 
L 587.770075 323.961542 
L 589.097725 329.983795 
L 590.425374 325.814543 
L 591.753024 323.556198 
L 593.080673 319.329039 
L 594.408323 306.473844 
L 595.735972 313.133066 
L 597.063621 314.696536 
L 598.391271 308.616376 
L 599.71892 323.498291 
L 601.04657 319.444852 
L 602.374219 307.747782 
L 603.701869 309.079626 
L 605.029518 318.113007 
L 606.357168 299.872527 
L 607.684817 313.133066 
L 609.012467 317.997194 
L 610.340116 311.569597 
L 611.667765 315.623037 
L 612.995415 311.395878 
L 614.323064 342.086209 
L 615.650714 270.745666 
L 616.978363 308.674282 
L 618.306013 312.61191 
L 619.633662 303.752248 
L 620.961312 300.683215 
L 622.288961 302.652029 
L 623.61661 302.420404 
L 624.94426 296.166525 
L 626.271909 308.55847 
L 627.599559 309.658689 
L 628.927208 294.545149 
L 630.254858 300.277871 
L 631.582507 296.977213 
L 632.910157 292.865867 
L 634.237806 292.113085 
L 635.565456 299.003933 
L 636.893105 302.420404 
L 638.220754 283.890392 
L 639.548404 294.37143 
L 640.876053 286.322456 
L 642.203703 295.761181 
L 643.531352 286.901519 
L 644.859002 293.502836 
L 646.186651 281.516235 
L 647.514301 261.770191 
L 648.84195 273.988417 
L 650.169599 272.309135 
L 651.497249 265.244568 
L 652.824898 269.298008 
L 654.152548 284.469455 
L 655.480197 264.839224 
L 656.807847 252.447279 
L 658.135496 232.006361 
L 659.463146 235.654457 
L 660.790795 248.162214 
L 662.118445 251.289154 
L 663.446094 262.117629 
L 664.773743 253.142155 
L 666.101393 236.407238 
L 667.429042 238.260239 
L 668.756692 229.690109 
L 670.084341 225.289232 
L 671.411991 248.683371 
L 672.73964 236.349332 
L 674.06729 236.69677 
L 675.394939 231.369391 
L 676.722588 213.765881 
L 678.050238 214.8661 
L 679.377887 235.480738 
L 680.705537 242.371586 
L 682.033186 227.315951 
L 683.360836 232.180079 
L 684.688485 225.868294 
L 686.016135 228.300358 
L 687.343784 243.935055 
L 688.671434 250.420559 
L 689.999083 250.304747 
L 691.326732 238.318146 
L 692.654382 260.322534 
L 693.982031 241.502991 
L 695.309681 226.678982 
L 696.63733 236.870489 
L 697.96498 252.157748 
L 699.292629 247.351526 
L 700.620279 258.295814 
L 701.947928 262.870411 
L 703.275577 274.162136 
L 704.603227 263.97063 
L 705.930876 275.6677 
L 707.258526 254.821437 
L 708.586175 274.451668 
L 709.913825 302.420404 
L 711.241474 297.614182 
L 712.569124 279.084171 
L 715.224423 291.823553 
L 716.552072 315.217693 
L 717.879721 332.473766 
L 720.53502 319.792289 
L 721.86267 305.663156 
L 723.190319 312.727722 
L 724.517969 306.0685 
L 727.173268 323.035041 
L 728.500917 326.914762 
L 731.156216 310.874721 
L 732.483865 316.781162 
L 733.811515 324.888042 
L 735.139164 326.856856 
L 736.466814 326.104074 
L 737.794463 328.999389 
L 739.122113 324.830136 
L 740.449762 322.340166 
L 741.777412 325.756637 
L 743.105061 323.035041 
L 744.43271 329.057295 
L 745.76036 334.153048 
L 747.088009 333.400266 
L 748.415659 334.790017 
L 749.743308 328.072888 
L 751.070958 331.026109 
L 752.398607 326.972669 
L 753.726257 336.295581 
L 755.053906 342.723178 
L 757.709205 336.700925 
L 759.036854 336.874643 
L 760.364504 336.700925 
L 761.692153 331.026109 
L 763.019803 341.101802 
L 764.347452 344.807804 
L 765.675102 344.749898 
L 767.002751 342.375741 
L 768.330401 338.206488 
L 769.65805 334.90583 
L 770.985699 338.727645 
L 772.313349 343.244335 
L 773.640998 341.91249 
L 774.968648 341.91249 
L 776.296297 343.360147 
L 777.623947 344.112929 
L 778.951596 341.043896 
L 780.279246 343.93921 
L 781.606895 343.186429 
L 782.934544 341.970397 
L 784.262194 343.93921 
L 785.589843 346.892431 
L 786.917493 344.691992 
L 788.245142 345.386867 
L 789.572792 341.391334 
L 792.228091 347.99265 
L 793.55574 348.861244 
L 794.88339 347.471494 
L 796.211039 343.186429 
L 797.538688 346.718712 
L 798.866338 346.892431 
L 800.193987 348.513807 
L 801.521637 347.239868 
L 802.849286 347.181962 
L 804.176936 345.618492 
L 805.504585 346.197555 
L 806.832235 344.40246 
L 808.159884 346.950337 
L 809.487533 344.576179 
L 810.815183 346.081743 
L 812.142832 347.297775 
L 813.470482 346.776618 
L 814.798131 344.981523 
L 816.125781 343.881304 
L 817.45343 345.734305 
L 818.78108 346.544993 
L 821.436379 346.255462 
L 822.764028 345.50268 
L 824.091677 346.371274 
L 825.419327 342.665272 
L 826.746976 343.707585 
L 828.074626 338.785551 
L 829.402275 345.50268 
L 830.729925 341.043896 
L 833.385224 337.627425 
L 834.712873 323.556198 
L 836.040522 328.246607 
L 837.368172 331.373546 
L 838.695821 339.538333 
L 840.023471 335.600705 
L 841.35112 324.077354 
L 842.67877 321.529478 
L 844.006419 311.337972 
L 845.334069 317.302319 
L 846.661718 317.244413 
L 847.989368 326.567325 
L 849.317017 325.640824 
L 850.644666 300.046246 
L 851.972316 300.567402 
L 853.299965 299.119745 
L 854.627615 294.660961 
L 855.955264 314.696536 
L 857.282914 322.977135 
L 858.610563 311.280065 
L 859.938213 301.551809 
L 861.265862 294.081899 
L 862.593511 297.382557 
L 863.921161 292.865867 
L 865.24881 276.883732 
L 866.57646 305.663156 
L 867.904109 297.440463 
L 869.231759 277.810232 
L 870.559408 229.805922 
L 871.887058 257.253501 
L 873.214707 266.692226 
L 874.542356 240.75021 
L 875.870006 290.897053 
L 877.197655 310.990534 
L 878.525305 274.451668 
L 879.852954 280.64764 
L 881.180604 255.979563 
L 882.508253 272.714479 
L 883.835903 286.26455 
L 885.163552 263.333661 
L 886.491202 282.21111 
L 887.818851 270.166603 
L 889.1465 262.580879 
L 890.47415 272.830292 
L 891.801799 273.872605 
L 893.129449 302.188778 
L 894.457098 323.787823 
L 895.784748 315.738849 
L 897.112397 254.763531 
L 898.440047 253.431686 
L 899.767696 254.473999 
L 901.095345 249.262434 
L 902.422995 263.739005 
L 903.750644 295.645368 
L 905.078294 308.442657 
L 906.405943 259.91719 
L 907.733593 264.897131 
L 909.061242 261.712285 
L 910.388892 272.830292 
L 911.716541 282.384829 
L 913.044191 300.799028 
L 914.37184 316.896975 
L 915.699489 304.852468 
L 917.027139 280.589734 
L 918.354788 272.830292 
L 919.682438 269.471727 
L 921.010087 299.698808 
L 922.337737 310.758909 
L 923.665386 318.576257 
L 924.993036 294.776774 
L 926.320685 285.453862 
L 927.648334 283.600861 
L 928.975984 297.787901 
L 930.303633 315.912568 
L 931.631283 325.467105 
L 932.958932 320.71879 
L 934.286582 302.362497 
L 935.614231 297.32465 
L 936.941881 306.0685 
L 938.26953 305.084093 
L 939.59718 328.304513 
L 940.924829 321.703197 
L 942.252478 336.758831 
L 943.580128 328.767763 
L 944.907777 315.10188 
L 946.235427 320.776696 
L 947.563076 315.217693 
L 950.218375 336.816737 
L 951.546025 331.605171 
L 952.873674 318.22882 
L 954.201323 323.787823 
L 955.528973 328.767763 
L 956.856622 323.440385 
L 958.184272 328.883576 
L 959.511921 339.132989 
L 960.839571 339.248801 
L 962.16722 327.72545 
L 963.49487 332.531672 
L 964.822519 332.184234 
L 966.150169 330.331233 
L 967.477818 334.963736 
L 968.805467 342.549459 
L 970.133117 341.91249 
L 971.460766 335.021642 
L 972.788416 338.95927 
L 974.116065 336.700925 
L 975.443715 337.222081 
L 976.771364 333.747704 
L 978.099014 340.928083 
L 979.426663 342.028303 
L 980.754312 335.774424 
L 982.081962 339.943677 
L 983.409611 337.801144 
L 984.737261 339.538333 
L 988.720209 343.47596 
L 990.047859 340.117395 
L 991.375508 340.117395 
L 992.703158 341.043896 
L 994.030807 341.159709 
L 995.358456 344.228742 
L 996.686106 346.197555 
L 998.013755 346.255462 
L 999.341405 340.117395 
L 1000.669054 343.244335 
L 1001.996704 343.533866 
L 1003.324353 342.838991 
L 1004.652003 342.781085 
L 1005.979652 343.881304 
L 1007.307301 344.228742 
L 1008.634951 343.707585 
L 1011.29025 343.997116 
L 1012.617899 342.028303 
L 1013.945549 343.47596 
L 1015.273198 344.460367 
L 1016.600848 343.881304 
L 1017.928497 332.357953 
L 1019.256147 333.979329 
L 1020.583796 319.734383 
L 1021.911445 315.391412 
L 1023.239095 305.315718 
L 1024.566744 318.402538 
L 1025.894394 311.685409 
L 1027.222043 216.603289 
L 1028.549693 177.863984 
L 1031.204992 86.314147 
L 1032.532641 60.835381 
L 1033.86029 180.527673 
L 1035.18794 243.182274 
L 1036.515589 50.8755 
L 1037.843239 78.960048 
L 1039.170888 61.703975 
L 1040.498538 67.436698 
L 1041.826187 119.610261 
L 1043.153837 217.008633 
L 1044.481486 227.200139 
L 1045.809136 118.857479 
L 1047.136785 132.291737 
L 1048.464434 152.037781 
L 1049.792084 225.868294 
L 1051.119733 284.411549 
L 1052.447383 305.663156 
L 1053.775032 226.968514 
L 1055.102682 208.670128 
L 1056.430331 219.730228 
L 1057.757981 227.721295 
L 1059.08563 268.429414 
L 1060.413279 251.34706 
L 1061.740929 290.723334 
L 1063.068578 300.104152 
L 1064.396228 276.825825 
L 1065.723877 323.729917 
L 1067.051527 313.885848 
L 1068.379176 313.480504 
L 1069.706826 323.266666 
L 1071.034475 329.462639 
L 1072.362125 327.551731 
L 1073.689774 320.25554 
L 1075.017423 326.914762 
L 1076.345073 324.714323 
L 1077.672722 324.366886 
L 1079.000372 329.636358 
L 1080.328021 340.928083 
L 1081.655671 337.916957 
L 1082.98332 332.647485 
L 1084.31097 332.87911 
L 1085.638619 331.77889 
L 1086.966268 341.680865 
L 1088.293918 341.507146 
L 1089.621567 346.255462 
L 1090.949217 343.128522 
L 1092.276866 341.680865 
L 1093.604516 341.796678 
L 1094.932165 342.317834 
L 1096.259815 343.302241 
L 1097.587464 344.691992 
L 1098.915114 345.386867 
L 1100.242763 346.660806 
L 1101.570412 344.40246 
L 1102.898062 341.333427 
L 1104.225711 344.460367 
L 1105.553361 336.121862 
L 1106.88101 348.224275 
L 1108.20866 347.587306 
L 1109.536309 349.150776 
L 1110.863959 348.397994 
L 1112.191608 347.124056 
L 1113.519257 347.124056 
L 1114.846907 348.687526 
L 1116.174556 350.01937 
L 1117.502206 348.282182 
L 1118.829855 348.050556 
L 1120.157505 348.629619 
L 1121.485154 350.193089 
L 1122.812804 347.413587 
L 1124.140453 348.513807 
L 1125.468103 349.09287 
L 1126.795752 349.034963 
L 1128.123401 348.745432 
L 1129.451051 348.803338 
L 1130.7787 348.340088 
L 1132.10635 348.861244 
L 1133.433999 350.01937 
L 1136.089298 350.308902 
L 1137.416948 348.919151 
L 1138.744597 347.124056 
L 1140.072246 348.919151 
L 1141.399896 347.413587 
L 1142.727545 349.614026 
L 1144.055195 349.845651 
L 1145.382844 350.308902 
L 1146.710494 350.308902 
L 1148.038143 349.671932 
L 1149.365793 349.440307 
L 1150.693442 349.903558 
L 1152.021092 347.645212 
L 1153.348741 350.714246 
L 1154.67639 350.540527 
L 1156.00404 349.09287 
L 1157.331689 349.787745 
L 1158.659339 349.671932 
L 1159.986988 347.99265 
L 1161.314638 349.614026 
L 1162.642287 349.845651 
L 1163.969937 350.366808 
L 1166.625235 349.034963 
L 1167.952885 348.977057 
L 1169.280534 347.471494 
L 1170.608184 349.614026 
L 1171.935833 349.961464 
L 1173.263483 349.671932 
L 1174.591132 348.4559 
L 1175.918782 350.424714 
L 1177.246431 348.629619 
L 1178.57408 350.308902 
L 1179.90173 347.239868 
L 1181.229379 349.55612 
L 1182.557029 350.308902 
L 1185.212328 350.135183 
L 1186.539977 348.397994 
L 1187.867627 348.977057 
L 1189.195276 350.193089 
L 1190.522926 350.424714 
L 1191.850575 350.135183 
L 1193.178224 350.656339 
L 1194.505874 349.614026 
L 1197.161173 349.787745 
L 1198.488822 349.09287 
L 1199.816472 350.077276 
L 1201.144121 350.366808 
L 1202.471771 350.772152 
L 1205.127069 348.919151 
L 1206.454719 348.861244 
L 1207.782368 350.077276 
L 1209.110018 349.614026 
L 1210.437667 350.540527 
L 1211.765317 349.961464 
L 1213.092966 348.919151 
L 1214.420616 349.09287 
L 1215.748265 350.077276 
L 1217.075915 348.340088 
L 1218.403564 348.919151 
L 1219.731213 350.424714 
L 1221.058863 348.687526 
L 1222.386512 348.282182 
L 1223.714162 348.282182 
L 1225.041811 347.876838 
L 1226.369461 346.371274 
L 1227.69711 344.40246 
L 1229.02476 349.382401 
L 1230.352409 348.224275 
L 1231.680058 345.097336 
L 1234.335357 339.480426 
L 1235.663007 341.333427 
L 1236.990656 340.464833 
L 1238.318306 351.11959 
L 1239.645955 338.669738 
L 1240.973605 333.979329 
L 1242.301254 325.351293 
L 1243.628904 325.23548 
L 1244.956553 331.199827 
L 1246.284202 308.500564 
L 1247.611852 333.921423 
L 1248.939501 333.226547 
L 1250.267151 325.467105 
L 1251.5948 314.407005 
L 1252.92245 315.912568 
L 1254.250099 308.500564 
L 1255.577749 304.678749 
L 1256.905398 326.856856 
L 1258.233047 320.950415 
L 1259.560697 295.182118 
L 1260.888346 306.242218 
L 1262.215996 304.389217 
L 1263.543645 301.551809 
L 1264.871295 301.841341 
L 1266.198944 328.014982 
L 1267.526594 328.072888 
L 1268.854243 321.529478 
L 1270.181893 309.02172 
L 1271.509542 316.433725 
L 1272.837191 324.598511 
L 1274.164841 328.767763 
L 1275.49249 338.785551 
L 1276.82014 336.469299 
L 1278.147789 326.509418 
L 1279.475439 332.300047 
L 1280.803088 334.268861 
L 1282.130738 334.847923 
L 1283.458387 336.643018 
L 1284.786036 346.139649 
L 1286.113686 341.796678 
L 1287.441335 342.202022 
L 1288.768985 340.117395 
L 1290.096634 340.406927 
L 1292.751933 344.518273 
L 1294.079583 346.834524 
L 1295.407232 344.40246 
L 1296.734882 347.008243 
L 1298.062531 343.128522 
L 1299.39018 344.112929 
L 1300.71783 344.807804 
L 1300.71783 344.807804 
" clip-path="url(#p42eebdbc2f)" style="fill: none; stroke: #0000ff; stroke-width: 1.5; stroke-linecap: square"/>
   </g>
   <g id="line2d_19">
    <path d="M 1061.740929 254.214544 
L 1063.068578 285.829364 
L 1064.396228 274.18001 
L 1065.723877 313.435389 
L 1067.051527 314.302492 
L 1068.379176 297.647912 
L 1069.706826 336.565828 
L 1071.034475 342.748754 
L 1072.362125 320.083571 
L 1073.689774 343.808766 
L 1075.017423 326.381096 
L 1076.345073 324.968356 
L 1077.672722 334.684727 
L 1079.000372 327.662579 
L 1080.328021 332.742228 
L 1081.655671 334.760151 
L 1082.98332 327.985379 
L 1084.31097 332.590296 
L 1085.638619 332.099231 
L 1088.293918 345.670595 
L 1089.621567 345.934154 
L 1090.949217 341.012049 
L 1092.276866 343.382053 
L 1093.604516 341.459508 
L 1094.932165 346.788298 
L 1096.259815 344.040986 
L 1097.587464 345.287876 
L 1098.915114 343.705669 
L 1100.242763 346.133506 
L 1101.570412 343.841081 
L 1102.898062 342.52938 
L 1104.225711 343.609402 
L 1105.553361 338.092432 
L 1106.88101 347.62228 
L 1108.20866 347.219712 
L 1109.536309 347.180575 
L 1110.863959 346.467136 
L 1112.191608 348.052432 
L 1113.519257 343.55997 
L 1114.846907 353.2755 
L 1116.174556 349.436021 
L 1117.502206 349.259883 
L 1118.829855 348.681883 
L 1120.157505 348.758514 
L 1121.485154 349.498756 
L 1122.812804 349.509266 
L 1124.140453 347.843879 
L 1125.468103 348.409706 
L 1126.795752 348.490846 
L 1128.123401 348.781267 
L 1129.451051 349.515242 
L 1130.7787 347.412276 
L 1132.10635 348.657883 
L 1133.433999 350.186328 
L 1134.761649 350.03427 
L 1136.089298 350.140244 
L 1137.416948 349.080762 
L 1138.744597 347.27758 
L 1140.072246 349.613054 
L 1141.399896 348.244597 
L 1142.727545 349.474093 
L 1144.055195 349.620442 
L 1146.710494 349.144238 
L 1148.038143 350.379739 
L 1149.365793 348.59294 
L 1150.693442 350.630302 
L 1152.021092 348.250462 
L 1153.348741 350.89346 
L 1154.67639 350.50423 
L 1156.00404 349.316867 
L 1157.331689 349.512486 
L 1158.659339 350.142386 
L 1159.986988 347.048088 
L 1161.314638 350.844068 
L 1162.642287 349.530232 
L 1163.969937 349.5026 
L 1165.297586 349.908444 
L 1166.625235 349.241494 
L 1167.952885 348.218181 
L 1169.280534 348.928234 
L 1170.608184 349.263367 
L 1171.935833 350.011422 
L 1173.263483 349.529299 
L 1174.591132 348.273481 
L 1175.918782 350.127548 
L 1177.246431 348.212256 
L 1178.57408 350.655203 
L 1179.90173 347.926643 
L 1181.229379 349.512583 
L 1182.557029 349.435049 
L 1183.884678 350.936429 
L 1185.212328 349.283857 
L 1186.539977 349.626875 
L 1187.867627 347.667029 
L 1189.195276 350.81943 
L 1190.522926 350.5032 
L 1191.850575 350.325169 
L 1193.178224 350.265917 
L 1194.505874 349.172231 
L 1195.833523 349.686099 
L 1197.161173 350.810369 
L 1198.488822 349.191344 
L 1199.816472 349.916453 
L 1201.144121 350.380561 
L 1203.79942 350.061195 
L 1206.454719 348.474508 
L 1207.782368 350.396786 
L 1209.110018 349.727771 
L 1210.437667 350.561441 
L 1213.092966 348.640044 
L 1214.420616 349.117993 
L 1215.748265 350.628758 
L 1217.075915 348.229172 
L 1218.403564 349.50669 
L 1219.731213 349.89155 
L 1221.058863 348.356354 
L 1222.386512 348.720513 
L 1223.714162 348.921186 
L 1225.041811 347.095492 
L 1226.369461 347.130478 
L 1227.69711 345.741658 
L 1229.02476 348.413255 
L 1230.352409 347.644905 
L 1233.007708 343.13734 
L 1234.335357 340.574424 
L 1235.663007 340.893762 
L 1236.990656 342.700709 
L 1238.318306 349.036101 
L 1239.645955 337.873221 
L 1240.973605 335.066605 
L 1242.301254 327.32817 
L 1243.628904 328.59897 
L 1244.956553 331.311562 
L 1246.284202 317.178495 
L 1247.611852 328.551769 
L 1248.939501 328.40855 
L 1250.267151 320.792857 
L 1251.5948 316.394908 
L 1252.92245 319.86965 
L 1254.250099 300.596842 
L 1255.577749 316.448459 
L 1256.905398 325.923015 
L 1258.233047 316.785539 
L 1259.560697 296.143646 
L 1260.888346 308.876205 
L 1262.215996 300.138508 
L 1263.543645 303.26116 
L 1264.871295 308.968914 
L 1266.198944 320.879693 
L 1267.526594 312.002351 
L 1268.854243 323.963403 
L 1270.181893 309.157597 
L 1271.509542 317.431473 
L 1272.837191 322.076563 
L 1274.164841 335.816391 
L 1275.49249 337.717678 
L 1276.82014 336.54671 
L 1278.147789 320.746486 
L 1279.475439 335.651202 
L 1280.803088 336.741053 
L 1282.130738 337.07814 
L 1283.458387 338.538689 
L 1284.786036 343.273684 
L 1286.113686 335.854221 
L 1287.441335 346.190857 
L 1288.768985 339.998294 
L 1290.096634 340.204339 
L 1291.424284 342.281143 
L 1292.751933 347.6641 
L 1294.079583 344.918278 
L 1295.407232 346.375491 
L 1296.734882 344.261991 
L 1298.062531 343.538266 
L 1299.39018 345.423192 
L 1300.71783 345.841255 
L 1300.71783 345.841255 
" clip-path="url(#p42eebdbc2f)" style="fill: none; stroke: #ffa500; stroke-width: 1.5; stroke-linecap: square"/>
   </g>
   <g id="line2d_20">
    <path d="M 1300.71783 345.841255 
L 1302.045479 345.695518 
L 1303.373129 345.086353 
L 1304.700778 345.721297 
L 1306.028428 344.796146 
L 1307.356077 345.178341 
L 1308.683727 345.092636 
L 1310.011376 345.263886 
L 1311.339025 345.271064 
L 1312.666675 345.191454 
L 1313.994324 345.281862 
L 1315.321974 345.148745 
L 1316.649623 345.203076 
L 1317.977273 345.190823 
" clip-path="url(#p42eebdbc2f)" style="fill: none; stroke: #ff0000; stroke-width: 1.5; stroke-linecap: square"/>
   </g>
   <g id="patch_3">
    <path d="M 39.65 368.3955 
L 39.65 35.7555 
" style="fill: none; stroke: #000000; stroke-width: 0.8; stroke-linejoin: miter; stroke-linecap: square"/>
   </g>
   <g id="patch_4">
    <path d="M 1378.85 368.3955 
L 1378.85 35.7555 
" style="fill: none; stroke: #000000; stroke-width: 0.8; stroke-linejoin: miter; stroke-linecap: square"/>
   </g>
   <g id="patch_5">
    <path d="M 39.65 368.3955 
L 1378.85 368.3955 
" style="fill: none; stroke: #000000; stroke-width: 0.8; stroke-linejoin: miter; stroke-linecap: square"/>
   </g>
   <g id="patch_6">
    <path d="M 39.65 35.7555 
L 1378.85 35.7555 
" style="fill: none; stroke: #000000; stroke-width: 0.8; stroke-linejoin: miter; stroke-linecap: square"/>
   </g>
   <g id="text_18">
    <!-- Daily Confirmed Cases Forecasting - Ethiopia -->
    <g transform="translate(574.312813 16.318125)scale(0.12 -0.12)">
     <defs>
      <path id="DejaVuSans-44" d="M 1259 4147 
L 1259 519 
L 2022 519 
Q 2988 519 3436 956 
Q 3884 1394 3884 2338 
Q 3884 3275 3436 3711 
Q 2988 4147 2022 4147 
L 1259 4147 
z
M 628 4666 
L 1925 4666 
Q 3281 4666 3915 4102 
Q 4550 3538 4550 2338 
Q 4550 1131 3912 565 
Q 3275 0 1925 0 
L 628 0 
L 628 4666 
z
" transform="scale(0.015625)"/>
      <path id="DejaVuSans-61" d="M 2194 1759 
Q 1497 1759 1228 1600 
Q 959 1441 959 1056 
Q 959 750 1161 570 
Q 1363 391 1709 391 
Q 2188 391 2477 730 
Q 2766 1069 2766 1631 
L 2766 1759 
L 2194 1759 
z
M 3341 1997 
L 3341 0 
L 2766 0 
L 2766 531 
Q 2569 213 2275 61 
Q 1981 -91 1556 -91 
Q 1019 -91 701 211 
Q 384 513 384 1019 
Q 384 1609 779 1909 
Q 1175 2209 1959 2209 
L 2766 2209 
L 2766 2266 
Q 2766 2663 2505 2880 
Q 2244 3097 1772 3097 
Q 1472 3097 1187 3025 
Q 903 2953 641 2809 
L 641 3341 
Q 956 3463 1253 3523 
Q 1550 3584 1831 3584 
Q 2591 3584 2966 3190 
Q 3341 2797 3341 1997 
z
" transform="scale(0.015625)"/>
      <path id="DejaVuSans-69" d="M 603 3500 
L 1178 3500 
L 1178 0 
L 603 0 
L 603 3500 
z
M 603 4863 
L 1178 4863 
L 1178 4134 
L 603 4134 
L 603 4863 
z
" transform="scale(0.015625)"/>
      <path id="DejaVuSans-6c" d="M 603 4863 
L 1178 4863 
L 1178 0 
L 603 0 
L 603 4863 
z
" transform="scale(0.015625)"/>
      <path id="DejaVuSans-79" d="M 2059 -325 
Q 1816 -950 1584 -1140 
Q 1353 -1331 966 -1331 
L 506 -1331 
L 506 -850 
L 844 -850 
Q 1081 -850 1212 -737 
Q 1344 -625 1503 -206 
L 1606 56 
L 191 3500 
L 800 3500 
L 1894 763 
L 2988 3500 
L 3597 3500 
L 2059 -325 
z
" transform="scale(0.015625)"/>
      <path id="DejaVuSans-20" transform="scale(0.015625)"/>
      <path id="DejaVuSans-43" d="M 4122 4306 
L 4122 3641 
Q 3803 3938 3442 4084 
Q 3081 4231 2675 4231 
Q 1875 4231 1450 3742 
Q 1025 3253 1025 2328 
Q 1025 1406 1450 917 
Q 1875 428 2675 428 
Q 3081 428 3442 575 
Q 3803 722 4122 1019 
L 4122 359 
Q 3791 134 3420 21 
Q 3050 -91 2638 -91 
Q 1578 -91 968 557 
Q 359 1206 359 2328 
Q 359 3453 968 4101 
Q 1578 4750 2638 4750 
Q 3056 4750 3426 4639 
Q 3797 4528 4122 4306 
z
" transform="scale(0.015625)"/>
      <path id="DejaVuSans-6f" d="M 1959 3097 
Q 1497 3097 1228 2736 
Q 959 2375 959 1747 
Q 959 1119 1226 758 
Q 1494 397 1959 397 
Q 2419 397 2687 759 
Q 2956 1122 2956 1747 
Q 2956 2369 2687 2733 
Q 2419 3097 1959 3097 
z
M 1959 3584 
Q 2709 3584 3137 3096 
Q 3566 2609 3566 1747 
Q 3566 888 3137 398 
Q 2709 -91 1959 -91 
Q 1206 -91 779 398 
Q 353 888 353 1747 
Q 353 2609 779 3096 
Q 1206 3584 1959 3584 
z
" transform="scale(0.015625)"/>
      <path id="DejaVuSans-6e" d="M 3513 2113 
L 3513 0 
L 2938 0 
L 2938 2094 
Q 2938 2591 2744 2837 
Q 2550 3084 2163 3084 
Q 1697 3084 1428 2787 
Q 1159 2491 1159 1978 
L 1159 0 
L 581 0 
L 581 3500 
L 1159 3500 
L 1159 2956 
Q 1366 3272 1645 3428 
Q 1925 3584 2291 3584 
Q 2894 3584 3203 3211 
Q 3513 2838 3513 2113 
z
" transform="scale(0.015625)"/>
      <path id="DejaVuSans-66" d="M 2375 4863 
L 2375 4384 
L 1825 4384 
Q 1516 4384 1395 4259 
Q 1275 4134 1275 3809 
L 1275 3500 
L 2222 3500 
L 2222 3053 
L 1275 3053 
L 1275 0 
L 697 0 
L 697 3053 
L 147 3053 
L 147 3500 
L 697 3500 
L 697 3744 
Q 697 4328 969 4595 
Q 1241 4863 1831 4863 
L 2375 4863 
z
" transform="scale(0.015625)"/>
      <path id="DejaVuSans-72" d="M 2631 2963 
Q 2534 3019 2420 3045 
Q 2306 3072 2169 3072 
Q 1681 3072 1420 2755 
Q 1159 2438 1159 1844 
L 1159 0 
L 581 0 
L 581 3500 
L 1159 3500 
L 1159 2956 
Q 1341 3275 1631 3429 
Q 1922 3584 2338 3584 
Q 2397 3584 2469 3576 
Q 2541 3569 2628 3553 
L 2631 2963 
z
" transform="scale(0.015625)"/>
      <path id="DejaVuSans-6d" d="M 3328 2828 
Q 3544 3216 3844 3400 
Q 4144 3584 4550 3584 
Q 5097 3584 5394 3201 
Q 5691 2819 5691 2113 
L 5691 0 
L 5113 0 
L 5113 2094 
Q 5113 2597 4934 2840 
Q 4756 3084 4391 3084 
Q 3944 3084 3684 2787 
Q 3425 2491 3425 1978 
L 3425 0 
L 2847 0 
L 2847 2094 
Q 2847 2600 2669 2842 
Q 2491 3084 2119 3084 
Q 1678 3084 1418 2786 
Q 1159 2488 1159 1978 
L 1159 0 
L 581 0 
L 581 3500 
L 1159 3500 
L 1159 2956 
Q 1356 3278 1631 3431 
Q 1906 3584 2284 3584 
Q 2666 3584 2933 3390 
Q 3200 3197 3328 2828 
z
" transform="scale(0.015625)"/>
      <path id="DejaVuSans-65" d="M 3597 1894 
L 3597 1613 
L 953 1613 
Q 991 1019 1311 708 
Q 1631 397 2203 397 
Q 2534 397 2845 478 
Q 3156 559 3463 722 
L 3463 178 
Q 3153 47 2828 -22 
Q 2503 -91 2169 -91 
Q 1331 -91 842 396 
Q 353 884 353 1716 
Q 353 2575 817 3079 
Q 1281 3584 2069 3584 
Q 2775 3584 3186 3129 
Q 3597 2675 3597 1894 
z
M 3022 2063 
Q 3016 2534 2758 2815 
Q 2500 3097 2075 3097 
Q 1594 3097 1305 2825 
Q 1016 2553 972 2059 
L 3022 2063 
z
" transform="scale(0.015625)"/>
      <path id="DejaVuSans-64" d="M 2906 2969 
L 2906 4863 
L 3481 4863 
L 3481 0 
L 2906 0 
L 2906 525 
Q 2725 213 2448 61 
Q 2172 -91 1784 -91 
Q 1150 -91 751 415 
Q 353 922 353 1747 
Q 353 2572 751 3078 
Q 1150 3584 1784 3584 
Q 2172 3584 2448 3432 
Q 2725 3281 2906 2969 
z
M 947 1747 
Q 947 1113 1208 752 
Q 1469 391 1925 391 
Q 2381 391 2643 752 
Q 2906 1113 2906 1747 
Q 2906 2381 2643 2742 
Q 2381 3103 1925 3103 
Q 1469 3103 1208 2742 
Q 947 2381 947 1747 
z
" transform="scale(0.015625)"/>
      <path id="DejaVuSans-73" d="M 2834 3397 
L 2834 2853 
Q 2591 2978 2328 3040 
Q 2066 3103 1784 3103 
Q 1356 3103 1142 2972 
Q 928 2841 928 2578 
Q 928 2378 1081 2264 
Q 1234 2150 1697 2047 
L 1894 2003 
Q 2506 1872 2764 1633 
Q 3022 1394 3022 966 
Q 3022 478 2636 193 
Q 2250 -91 1575 -91 
Q 1294 -91 989 -36 
Q 684 19 347 128 
L 347 722 
Q 666 556 975 473 
Q 1284 391 1588 391 
Q 1994 391 2212 530 
Q 2431 669 2431 922 
Q 2431 1156 2273 1281 
Q 2116 1406 1581 1522 
L 1381 1569 
Q 847 1681 609 1914 
Q 372 2147 372 2553 
Q 372 3047 722 3315 
Q 1072 3584 1716 3584 
Q 2034 3584 2315 3537 
Q 2597 3491 2834 3397 
z
" transform="scale(0.015625)"/>
      <path id="DejaVuSans-46" d="M 628 4666 
L 3309 4666 
L 3309 4134 
L 1259 4134 
L 1259 2759 
L 3109 2759 
L 3109 2228 
L 1259 2228 
L 1259 0 
L 628 0 
L 628 4666 
z
" transform="scale(0.015625)"/>
      <path id="DejaVuSans-63" d="M 3122 3366 
L 3122 2828 
Q 2878 2963 2633 3030 
Q 2388 3097 2138 3097 
Q 1578 3097 1268 2742 
Q 959 2388 959 1747 
Q 959 1106 1268 751 
Q 1578 397 2138 397 
Q 2388 397 2633 464 
Q 2878 531 3122 666 
L 3122 134 
Q 2881 22 2623 -34 
Q 2366 -91 2075 -91 
Q 1284 -91 818 406 
Q 353 903 353 1747 
Q 353 2603 823 3093 
Q 1294 3584 2113 3584 
Q 2378 3584 2631 3529 
Q 2884 3475 3122 3366 
z
" transform="scale(0.015625)"/>
      <path id="DejaVuSans-74" d="M 1172 4494 
L 1172 3500 
L 2356 3500 
L 2356 3053 
L 1172 3053 
L 1172 1153 
Q 1172 725 1289 603 
Q 1406 481 1766 481 
L 2356 481 
L 2356 0 
L 1766 0 
Q 1100 0 847 248 
Q 594 497 594 1153 
L 594 3053 
L 172 3053 
L 172 3500 
L 594 3500 
L 594 4494 
L 1172 4494 
z
" transform="scale(0.015625)"/>
      <path id="DejaVuSans-67" d="M 2906 1791 
Q 2906 2416 2648 2759 
Q 2391 3103 1925 3103 
Q 1463 3103 1205 2759 
Q 947 2416 947 1791 
Q 947 1169 1205 825 
Q 1463 481 1925 481 
Q 2391 481 2648 825 
Q 2906 1169 2906 1791 
z
M 3481 434 
Q 3481 -459 3084 -895 
Q 2688 -1331 1869 -1331 
Q 1566 -1331 1297 -1286 
Q 1028 -1241 775 -1147 
L 775 -588 
Q 1028 -725 1275 -790 
Q 1522 -856 1778 -856 
Q 2344 -856 2625 -561 
Q 2906 -266 2906 331 
L 2906 616 
Q 2728 306 2450 153 
Q 2172 0 1784 0 
Q 1141 0 747 490 
Q 353 981 353 1791 
Q 353 2603 747 3093 
Q 1141 3584 1784 3584 
Q 2172 3584 2450 3431 
Q 2728 3278 2906 2969 
L 2906 3500 
L 3481 3500 
L 3481 434 
z
" transform="scale(0.015625)"/>
      <path id="DejaVuSans-45" d="M 628 4666 
L 3578 4666 
L 3578 4134 
L 1259 4134 
L 1259 2753 
L 3481 2753 
L 3481 2222 
L 1259 2222 
L 1259 531 
L 3634 531 
L 3634 0 
L 628 0 
L 628 4666 
z
" transform="scale(0.015625)"/>
      <path id="DejaVuSans-68" d="M 3513 2113 
L 3513 0 
L 2938 0 
L 2938 2094 
Q 2938 2591 2744 2837 
Q 2550 3084 2163 3084 
Q 1697 3084 1428 2787 
Q 1159 2491 1159 1978 
L 1159 0 
L 581 0 
L 581 4863 
L 1159 4863 
L 1159 2956 
Q 1366 3272 1645 3428 
Q 1925 3584 2291 3584 
Q 2894 3584 3203 3211 
Q 3513 2838 3513 2113 
z
" transform="scale(0.015625)"/>
      <path id="DejaVuSans-70" d="M 1159 525 
L 1159 -1331 
L 581 -1331 
L 581 3500 
L 1159 3500 
L 1159 2969 
Q 1341 3281 1617 3432 
Q 1894 3584 2278 3584 
Q 2916 3584 3314 3078 
Q 3713 2572 3713 1747 
Q 3713 922 3314 415 
Q 2916 -91 2278 -91 
Q 1894 -91 1617 61 
Q 1341 213 1159 525 
z
M 3116 1747 
Q 3116 2381 2855 2742 
Q 2594 3103 2138 3103 
Q 1681 3103 1420 2742 
Q 1159 2381 1159 1747 
Q 1159 1113 1420 752 
Q 1681 391 2138 391 
Q 2594 391 2855 752 
Q 3116 1113 3116 1747 
z
" transform="scale(0.015625)"/>
     </defs>
     <use xlink:href="#DejaVuSans-44"/>
     <use xlink:href="#DejaVuSans-61" x="77.001953"/>
     <use xlink:href="#DejaVuSans-69" x="138.28125"/>
     <use xlink:href="#DejaVuSans-6c" x="166.064453"/>
     <use xlink:href="#DejaVuSans-79" x="193.847656"/>
     <use xlink:href="#DejaVuSans-20" x="253.027344"/>
     <use xlink:href="#DejaVuSans-43" x="284.814453"/>
     <use xlink:href="#DejaVuSans-6f" x="354.638672"/>
     <use xlink:href="#DejaVuSans-6e" x="415.820312"/>
     <use xlink:href="#DejaVuSans-66" x="479.199219"/>
     <use xlink:href="#DejaVuSans-69" x="514.404297"/>
     <use xlink:href="#DejaVuSans-72" x="542.1875"/>
     <use xlink:href="#DejaVuSans-6d" x="581.550781"/>
     <use xlink:href="#DejaVuSans-65" x="678.962891"/>
     <use xlink:href="#DejaVuSans-64" x="740.486328"/>
     <use xlink:href="#DejaVuSans-20" x="803.962891"/>
     <use xlink:href="#DejaVuSans-43" x="835.75"/>
     <use xlink:href="#DejaVuSans-61" x="905.574219"/>
     <use xlink:href="#DejaVuSans-73" x="966.853516"/>
     <use xlink:href="#DejaVuSans-65" x="1018.953125"/>
     <use xlink:href="#DejaVuSans-73" x="1080.476562"/>
     <use xlink:href="#DejaVuSans-20" x="1132.576172"/>
     <use xlink:href="#DejaVuSans-46" x="1164.363281"/>
     <use xlink:href="#DejaVuSans-6f" x="1218.257812"/>
     <use xlink:href="#DejaVuSans-72" x="1279.439453"/>
     <use xlink:href="#DejaVuSans-65" x="1318.302734"/>
     <use xlink:href="#DejaVuSans-63" x="1379.826172"/>
     <use xlink:href="#DejaVuSans-61" x="1434.806641"/>
     <use xlink:href="#DejaVuSans-73" x="1496.085938"/>
     <use xlink:href="#DejaVuSans-74" x="1548.185547"/>
     <use xlink:href="#DejaVuSans-69" x="1587.394531"/>
     <use xlink:href="#DejaVuSans-6e" x="1615.177734"/>
     <use xlink:href="#DejaVuSans-67" x="1678.556641"/>
     <use xlink:href="#DejaVuSans-20" x="1742.033203"/>
     <use xlink:href="#DejaVuSans-2d" x="1773.820312"/>
     <use xlink:href="#DejaVuSans-20" x="1809.904297"/>
     <use xlink:href="#DejaVuSans-45" x="1841.691406"/>
     <use xlink:href="#DejaVuSans-74" x="1904.875"/>
     <use xlink:href="#DejaVuSans-68" x="1944.083984"/>
     <use xlink:href="#DejaVuSans-69" x="2007.462891"/>
     <use xlink:href="#DejaVuSans-6f" x="2035.246094"/>
     <use xlink:href="#DejaVuSans-70" x="2096.427734"/>
     <use xlink:href="#DejaVuSans-69" x="2159.904297"/>
     <use xlink:href="#DejaVuSans-61" x="2187.6875"/>
    </g>
    <!-- ARIMA (2, 1, 1)x(1, 0, 1, 7) (R2 = 0.883041) -->
    <g transform="translate(577.265938 29.7555)scale(0.12 -0.12)">
     <defs>
      <path id="DejaVuSans-41" d="M 2188 4044 
L 1331 1722 
L 3047 1722 
L 2188 4044 
z
M 1831 4666 
L 2547 4666 
L 4325 0 
L 3669 0 
L 3244 1197 
L 1141 1197 
L 716 0 
L 50 0 
L 1831 4666 
z
" transform="scale(0.015625)"/>
      <path id="DejaVuSans-52" d="M 2841 2188 
Q 3044 2119 3236 1894 
Q 3428 1669 3622 1275 
L 4263 0 
L 3584 0 
L 2988 1197 
Q 2756 1666 2539 1819 
Q 2322 1972 1947 1972 
L 1259 1972 
L 1259 0 
L 628 0 
L 628 4666 
L 2053 4666 
Q 2853 4666 3247 4331 
Q 3641 3997 3641 3322 
Q 3641 2881 3436 2590 
Q 3231 2300 2841 2188 
z
M 1259 4147 
L 1259 2491 
L 2053 2491 
Q 2509 2491 2742 2702 
Q 2975 2913 2975 3322 
Q 2975 3731 2742 3939 
Q 2509 4147 2053 4147 
L 1259 4147 
z
" transform="scale(0.015625)"/>
      <path id="DejaVuSans-49" d="M 628 4666 
L 1259 4666 
L 1259 0 
L 628 0 
L 628 4666 
z
" transform="scale(0.015625)"/>
      <path id="DejaVuSans-4d" d="M 628 4666 
L 1569 4666 
L 2759 1491 
L 3956 4666 
L 4897 4666 
L 4897 0 
L 4281 0 
L 4281 4097 
L 3078 897 
L 2444 897 
L 1241 4097 
L 1241 0 
L 628 0 
L 628 4666 
z
" transform="scale(0.015625)"/>
      <path id="DejaVuSans-28" d="M 1984 4856 
Q 1566 4138 1362 3434 
Q 1159 2731 1159 2009 
Q 1159 1288 1364 580 
Q 1569 -128 1984 -844 
L 1484 -844 
Q 1016 -109 783 600 
Q 550 1309 550 2009 
Q 550 2706 781 3412 
Q 1013 4119 1484 4856 
L 1984 4856 
z
" transform="scale(0.015625)"/>
      <path id="DejaVuSans-2c" d="M 750 794 
L 1409 794 
L 1409 256 
L 897 -744 
L 494 -744 
L 750 256 
L 750 794 
z
" transform="scale(0.015625)"/>
      <path id="DejaVuSans-29" d="M 513 4856 
L 1013 4856 
Q 1481 4119 1714 3412 
Q 1947 2706 1947 2009 
Q 1947 1309 1714 600 
Q 1481 -109 1013 -844 
L 513 -844 
Q 928 -128 1133 580 
Q 1338 1288 1338 2009 
Q 1338 2731 1133 3434 
Q 928 4138 513 4856 
z
" transform="scale(0.015625)"/>
      <path id="DejaVuSans-78" d="M 3513 3500 
L 2247 1797 
L 3578 0 
L 2900 0 
L 1881 1375 
L 863 0 
L 184 0 
L 1544 1831 
L 300 3500 
L 978 3500 
L 1906 2253 
L 2834 3500 
L 3513 3500 
z
" transform="scale(0.015625)"/>
      <path id="DejaVuSans-3d" d="M 678 2906 
L 4684 2906 
L 4684 2381 
L 678 2381 
L 678 2906 
z
M 678 1631 
L 4684 1631 
L 4684 1100 
L 678 1100 
L 678 1631 
z
" transform="scale(0.015625)"/>
      <path id="DejaVuSans-2e" d="M 684 794 
L 1344 794 
L 1344 0 
L 684 0 
L 684 794 
z
" transform="scale(0.015625)"/>
      <path id="DejaVuSans-38" d="M 2034 2216 
Q 1584 2216 1326 1975 
Q 1069 1734 1069 1313 
Q 1069 891 1326 650 
Q 1584 409 2034 409 
Q 2484 409 2743 651 
Q 3003 894 3003 1313 
Q 3003 1734 2745 1975 
Q 2488 2216 2034 2216 
z
M 1403 2484 
Q 997 2584 770 2862 
Q 544 3141 544 3541 
Q 544 4100 942 4425 
Q 1341 4750 2034 4750 
Q 2731 4750 3128 4425 
Q 3525 4100 3525 3541 
Q 3525 3141 3298 2862 
Q 3072 2584 2669 2484 
Q 3125 2378 3379 2068 
Q 3634 1759 3634 1313 
Q 3634 634 3220 271 
Q 2806 -91 2034 -91 
Q 1263 -91 848 271 
Q 434 634 434 1313 
Q 434 1759 690 2068 
Q 947 2378 1403 2484 
z
M 1172 3481 
Q 1172 3119 1398 2916 
Q 1625 2713 2034 2713 
Q 2441 2713 2670 2916 
Q 2900 3119 2900 3481 
Q 2900 3844 2670 4047 
Q 2441 4250 2034 4250 
Q 1625 4250 1398 4047 
Q 1172 3844 1172 3481 
z
" transform="scale(0.015625)"/>
     </defs>
     <use xlink:href="#DejaVuSans-41"/>
     <use xlink:href="#DejaVuSans-52" x="68.408203"/>
     <use xlink:href="#DejaVuSans-49" x="137.890625"/>
     <use xlink:href="#DejaVuSans-4d" x="167.382812"/>
     <use xlink:href="#DejaVuSans-41" x="253.662109"/>
     <use xlink:href="#DejaVuSans-20" x="322.070312"/>
     <use xlink:href="#DejaVuSans-28" x="353.857422"/>
     <use xlink:href="#DejaVuSans-32" x="392.871094"/>
     <use xlink:href="#DejaVuSans-2c" x="456.494141"/>
     <use xlink:href="#DejaVuSans-20" x="488.28125"/>
     <use xlink:href="#DejaVuSans-31" x="520.068359"/>
     <use xlink:href="#DejaVuSans-2c" x="583.691406"/>
     <use xlink:href="#DejaVuSans-20" x="615.478516"/>
     <use xlink:href="#DejaVuSans-31" x="647.265625"/>
     <use xlink:href="#DejaVuSans-29" x="710.888672"/>
     <use xlink:href="#DejaVuSans-78" x="749.902344"/>
     <use xlink:href="#DejaVuSans-28" x="809.082031"/>
     <use xlink:href="#DejaVuSans-31" x="848.095703"/>
     <use xlink:href="#DejaVuSans-2c" x="911.71875"/>
     <use xlink:href="#DejaVuSans-20" x="943.505859"/>
     <use xlink:href="#DejaVuSans-30" x="975.292969"/>
     <use xlink:href="#DejaVuSans-2c" x="1038.916016"/>
     <use xlink:href="#DejaVuSans-20" x="1070.703125"/>
     <use xlink:href="#DejaVuSans-31" x="1102.490234"/>
     <use xlink:href="#DejaVuSans-2c" x="1166.113281"/>
     <use xlink:href="#DejaVuSans-20" x="1197.900391"/>
     <use xlink:href="#DejaVuSans-37" x="1229.6875"/>
     <use xlink:href="#DejaVuSans-29" x="1293.310547"/>
     <use xlink:href="#DejaVuSans-20" x="1332.324219"/>
     <use xlink:href="#DejaVuSans-28" x="1364.111328"/>
     <use xlink:href="#DejaVuSans-52" x="1403.125"/>
     <use xlink:href="#DejaVuSans-32" x="1472.607422"/>
     <use xlink:href="#DejaVuSans-20" x="1536.230469"/>
     <use xlink:href="#DejaVuSans-3d" x="1568.017578"/>
     <use xlink:href="#DejaVuSans-20" x="1651.806641"/>
     <use xlink:href="#DejaVuSans-30" x="1683.59375"/>
     <use xlink:href="#DejaVuSans-2e" x="1747.216797"/>
     <use xlink:href="#DejaVuSans-38" x="1779.003906"/>
     <use xlink:href="#DejaVuSans-38" x="1842.626953"/>
     <use xlink:href="#DejaVuSans-33" x="1906.25"/>
     <use xlink:href="#DejaVuSans-30" x="1969.873047"/>
     <use xlink:href="#DejaVuSans-34" x="2033.496094"/>
     <use xlink:href="#DejaVuSans-31" x="2097.119141"/>
     <use xlink:href="#DejaVuSans-29" x="2160.742188"/>
    </g>
   </g>
   <g id="legend_1">
    <g id="patch_7">
     <path d="M 1274.770313 87.789875 
L 1371.85 87.789875 
Q 1373.85 87.789875 1373.85 85.789875 
L 1373.85 42.7555 
Q 1373.85 40.7555 1371.85 40.7555 
L 1274.770313 40.7555 
Q 1272.770313 40.7555 1272.770313 42.7555 
L 1272.770313 85.789875 
Q 1272.770313 87.789875 1274.770313 87.789875 
z
" style="fill: #ffffff; opacity: 0.8; stroke: #cccccc; stroke-linejoin: miter"/>
    </g>
    <g id="line2d_21">
     <path d="M 1276.770313 48.853937 
L 1286.770313 48.853937 
L 1296.770313 48.853937 
" style="fill: none; stroke: #0000ff; stroke-width: 1.5; stroke-linecap: square"/>
    </g>
    <g id="text_19">
     <!-- Actual Value -->
     <g transform="translate(1304.770313 52.353937)scale(0.1 -0.1)">
      <defs>
       <path id="DejaVuSans-75" d="M 544 1381 
L 544 3500 
L 1119 3500 
L 1119 1403 
Q 1119 906 1312 657 
Q 1506 409 1894 409 
Q 2359 409 2629 706 
Q 2900 1003 2900 1516 
L 2900 3500 
L 3475 3500 
L 3475 0 
L 2900 0 
L 2900 538 
Q 2691 219 2414 64 
Q 2138 -91 1772 -91 
Q 1169 -91 856 284 
Q 544 659 544 1381 
z
M 1991 3584 
L 1991 3584 
z
" transform="scale(0.015625)"/>
       <path id="DejaVuSans-56" d="M 1831 0 
L 50 4666 
L 709 4666 
L 2188 738 
L 3669 4666 
L 4325 4666 
L 2547 0 
L 1831 0 
z
" transform="scale(0.015625)"/>
      </defs>
      <use xlink:href="#DejaVuSans-41"/>
      <use xlink:href="#DejaVuSans-63" x="66.658203"/>
      <use xlink:href="#DejaVuSans-74" x="121.638672"/>
      <use xlink:href="#DejaVuSans-75" x="160.847656"/>
      <use xlink:href="#DejaVuSans-61" x="224.226562"/>
      <use xlink:href="#DejaVuSans-6c" x="285.505859"/>
      <use xlink:href="#DejaVuSans-20" x="313.289062"/>
      <use xlink:href="#DejaVuSans-56" x="345.076172"/>
      <use xlink:href="#DejaVuSans-61" x="405.734375"/>
      <use xlink:href="#DejaVuSans-6c" x="467.013672"/>
      <use xlink:href="#DejaVuSans-75" x="494.796875"/>
      <use xlink:href="#DejaVuSans-65" x="558.175781"/>
     </g>
    </g>
    <g id="line2d_22">
     <path d="M 1276.770313 63.532062 
L 1286.770313 63.532062 
L 1296.770313 63.532062 
" style="fill: none; stroke: #ffa500; stroke-width: 1.5; stroke-linecap: square"/>
    </g>
    <g id="text_20">
     <!-- Check Value -->
     <g transform="translate(1304.770313 67.032062)scale(0.1 -0.1)">
      <defs>
       <path id="DejaVuSans-6b" d="M 581 4863 
L 1159 4863 
L 1159 1991 
L 2875 3500 
L 3609 3500 
L 1753 1863 
L 3688 0 
L 2938 0 
L 1159 1709 
L 1159 0 
L 581 0 
L 581 4863 
z
" transform="scale(0.015625)"/>
      </defs>
      <use xlink:href="#DejaVuSans-43"/>
      <use xlink:href="#DejaVuSans-68" x="69.824219"/>
      <use xlink:href="#DejaVuSans-65" x="133.203125"/>
      <use xlink:href="#DejaVuSans-63" x="194.726562"/>
      <use xlink:href="#DejaVuSans-6b" x="249.707031"/>
      <use xlink:href="#DejaVuSans-20" x="307.617188"/>
      <use xlink:href="#DejaVuSans-56" x="339.404297"/>
      <use xlink:href="#DejaVuSans-61" x="400.0625"/>
      <use xlink:href="#DejaVuSans-6c" x="461.341797"/>
      <use xlink:href="#DejaVuSans-75" x="489.125"/>
      <use xlink:href="#DejaVuSans-65" x="552.503906"/>
     </g>
    </g>
    <g id="line2d_23">
     <path d="M 1276.770313 78.210187 
L 1286.770313 78.210187 
L 1296.770313 78.210187 
" style="fill: none; stroke: #ff0000; stroke-width: 1.5; stroke-linecap: square"/>
    </g>
    <g id="text_21">
     <!-- Predict Value -->
     <g transform="translate(1304.770313 81.710187)scale(0.1 -0.1)">
      <defs>
       <path id="DejaVuSans-50" d="M 1259 4147 
L 1259 2394 
L 2053 2394 
Q 2494 2394 2734 2622 
Q 2975 2850 2975 3272 
Q 2975 3691 2734 3919 
Q 2494 4147 2053 4147 
L 1259 4147 
z
M 628 4666 
L 2053 4666 
Q 2838 4666 3239 4311 
Q 3641 3956 3641 3272 
Q 3641 2581 3239 2228 
Q 2838 1875 2053 1875 
L 1259 1875 
L 1259 0 
L 628 0 
L 628 4666 
z
" transform="scale(0.015625)"/>
      </defs>
      <use xlink:href="#DejaVuSans-50"/>
      <use xlink:href="#DejaVuSans-72" x="58.552734"/>
      <use xlink:href="#DejaVuSans-65" x="97.416016"/>
      <use xlink:href="#DejaVuSans-64" x="158.939453"/>
      <use xlink:href="#DejaVuSans-69" x="222.416016"/>
      <use xlink:href="#DejaVuSans-63" x="250.199219"/>
      <use xlink:href="#DejaVuSans-74" x="305.179688"/>
      <use xlink:href="#DejaVuSans-20" x="344.388672"/>
      <use xlink:href="#DejaVuSans-56" x="376.175781"/>
      <use xlink:href="#DejaVuSans-61" x="436.833984"/>
      <use xlink:href="#DejaVuSans-6c" x="498.113281"/>
      <use xlink:href="#DejaVuSans-75" x="525.896484"/>
      <use xlink:href="#DejaVuSans-65" x="589.275391"/>
     </g>
    </g>
   </g>
  </g>
 </g>
 <defs>
  <clipPath id="p42eebdbc2f">
   <rect x="39.65" y="35.7555" width="1339.2" height="332.64"/>
  </clipPath>
 </defs>
</svg>
