<?xml version="1.0" encoding="utf-8" standalone="no"?>
<!DOCTYPE svg PUBLIC "-//W3C//DTD SVG 1.1//EN"
  "http://www.w3.org/Graphics/SVG/1.1/DTD/svg11.dtd">
<svg xmlns:xlink="http://www.w3.org/1999/xlink" width="1386.05pt" height="392.273625pt" viewBox="0 0 1386.05 392.273625" xmlns="http://www.w3.org/2000/svg" version="1.1">
 <metadata>
  <rdf:RDF xmlns:dc="http://purl.org/dc/elements/1.1/" xmlns:cc="http://creativecommons.org/ns#" xmlns:rdf="http://www.w3.org/1999/02/22-rdf-syntax-ns#">
   <cc:Work>
    <dc:type rdf:resource="http://purl.org/dc/dcmitype/StillImage"/>
    <dc:date>2022-08-01T19:33:24.186186</dc:date>
    <dc:format>image/svg+xml</dc:format>
    <dc:creator>
     <cc:Agent>
      <dc:title>Matplotlib v3.5.2, https://matplotlib.org/</dc:title>
     </cc:Agent>
    </dc:creator>
   </cc:Work>
  </rdf:RDF>
 </metadata>
 <defs>
  <style type="text/css">*{stroke-linejoin: round; stroke-linecap: butt}</style>
 </defs>
 <g id="figure_1">
  <g id="patch_1">
   <path d="M 0 392.273625 
L 1386.05 392.273625 
L 1386.05 0 
L 0 0 
z
" style="fill: #ffffff"/>
  </g>
  <g id="axes_1">
   <g id="patch_2">
    <path d="M 39.65 368.3955 
L 1378.85 368.3955 
L 1378.85 35.7555 
L 39.65 35.7555 
z
" style="fill: #ffffff"/>
   </g>
   <g id="matplotlib.axis_1">
    <g id="xtick_1">
     <g id="line2d_1">
      <defs>
       <path id="m9cc99618a9" d="M 0 0 
L 0 3.5 
" style="stroke: #000000; stroke-width: 0.8"/>
      </defs>
      <g>
       <use xlink:href="#m9cc99618a9" x="71.815332" y="368.3955" style="stroke: #000000; stroke-width: 0.8"/>
      </g>
     </g>
     <g id="text_1">
      <!-- 2020-01 -->
      <g transform="translate(50.923926 382.993937)scale(0.1 -0.1)">
       <defs>
        <path id="DejaVuSans-32" d="M 1228 531 
L 3431 531 
L 3431 0 
L 469 0 
L 469 531 
Q 828 903 1448 1529 
Q 2069 2156 2228 2338 
Q 2531 2678 2651 2914 
Q 2772 3150 2772 3378 
Q 2772 3750 2511 3984 
Q 2250 4219 1831 4219 
Q 1534 4219 1204 4116 
Q 875 4013 500 3803 
L 500 4441 
Q 881 4594 1212 4672 
Q 1544 4750 1819 4750 
Q 2544 4750 2975 4387 
Q 3406 4025 3406 3419 
Q 3406 3131 3298 2873 
Q 3191 2616 2906 2266 
Q 2828 2175 2409 1742 
Q 1991 1309 1228 531 
z
" transform="scale(0.015625)"/>
        <path id="DejaVuSans-30" d="M 2034 4250 
Q 1547 4250 1301 3770 
Q 1056 3291 1056 2328 
Q 1056 1369 1301 889 
Q 1547 409 2034 409 
Q 2525 409 2770 889 
Q 3016 1369 3016 2328 
Q 3016 3291 2770 3770 
Q 2525 4250 2034 4250 
z
M 2034 4750 
Q 2819 4750 3233 4129 
Q 3647 3509 3647 2328 
Q 3647 1150 3233 529 
Q 2819 -91 2034 -91 
Q 1250 -91 836 529 
Q 422 1150 422 2328 
Q 422 3509 836 4129 
Q 1250 4750 2034 4750 
z
" transform="scale(0.015625)"/>
        <path id="DejaVuSans-2d" d="M 313 2009 
L 1997 2009 
L 1997 1497 
L 313 1497 
L 313 2009 
z
" transform="scale(0.015625)"/>
        <path id="DejaVuSans-31" d="M 794 531 
L 1825 531 
L 1825 4091 
L 703 3866 
L 703 4441 
L 1819 4666 
L 2450 4666 
L 2450 531 
L 3481 531 
L 3481 0 
L 794 0 
L 794 531 
z
" transform="scale(0.015625)"/>
       </defs>
       <use xlink:href="#DejaVuSans-32"/>
       <use xlink:href="#DejaVuSans-30" x="63.623047"/>
       <use xlink:href="#DejaVuSans-32" x="127.246094"/>
       <use xlink:href="#DejaVuSans-30" x="190.869141"/>
       <use xlink:href="#DejaVuSans-2d" x="254.492188"/>
       <use xlink:href="#DejaVuSans-30" x="290.576172"/>
       <use xlink:href="#DejaVuSans-31" x="354.199219"/>
      </g>
     </g>
    </g>
    <g id="xtick_2">
     <g id="line2d_2">
      <g>
       <use xlink:href="#m9cc99618a9" x="190.559559" y="368.3955" style="stroke: #000000; stroke-width: 0.8"/>
      </g>
     </g>
     <g id="text_2">
      <!-- 2020-04 -->
      <g transform="translate(169.668152 382.993937)scale(0.1 -0.1)">
       <defs>
        <path id="DejaVuSans-34" d="M 2419 4116 
L 825 1625 
L 2419 1625 
L 2419 4116 
z
M 2253 4666 
L 3047 4666 
L 3047 1625 
L 3713 1625 
L 3713 1100 
L 3047 1100 
L 3047 0 
L 2419 0 
L 2419 1100 
L 313 1100 
L 313 1709 
L 2253 4666 
z
" transform="scale(0.015625)"/>
       </defs>
       <use xlink:href="#DejaVuSans-32"/>
       <use xlink:href="#DejaVuSans-30" x="63.623047"/>
       <use xlink:href="#DejaVuSans-32" x="127.246094"/>
       <use xlink:href="#DejaVuSans-30" x="190.869141"/>
       <use xlink:href="#DejaVuSans-2d" x="254.492188"/>
       <use xlink:href="#DejaVuSans-30" x="290.576172"/>
       <use xlink:href="#DejaVuSans-34" x="354.199219"/>
      </g>
     </g>
    </g>
    <g id="xtick_3">
     <g id="line2d_3">
      <g>
       <use xlink:href="#m9cc99618a9" x="309.303785" y="368.3955" style="stroke: #000000; stroke-width: 0.8"/>
      </g>
     </g>
     <g id="text_3">
      <!-- 2020-07 -->
      <g transform="translate(288.412379 382.993937)scale(0.1 -0.1)">
       <defs>
        <path id="DejaVuSans-37" d="M 525 4666 
L 3525 4666 
L 3525 4397 
L 1831 0 
L 1172 0 
L 2766 4134 
L 525 4134 
L 525 4666 
z
" transform="scale(0.015625)"/>
       </defs>
       <use xlink:href="#DejaVuSans-32"/>
       <use xlink:href="#DejaVuSans-30" x="63.623047"/>
       <use xlink:href="#DejaVuSans-32" x="127.246094"/>
       <use xlink:href="#DejaVuSans-30" x="190.869141"/>
       <use xlink:href="#DejaVuSans-2d" x="254.492188"/>
       <use xlink:href="#DejaVuSans-30" x="290.576172"/>
       <use xlink:href="#DejaVuSans-37" x="354.199219"/>
      </g>
     </g>
    </g>
    <g id="xtick_4">
     <g id="line2d_4">
      <g>
       <use xlink:href="#m9cc99618a9" x="429.352894" y="368.3955" style="stroke: #000000; stroke-width: 0.8"/>
      </g>
     </g>
     <g id="text_4">
      <!-- 2020-10 -->
      <g transform="translate(408.461488 382.993937)scale(0.1 -0.1)">
       <use xlink:href="#DejaVuSans-32"/>
       <use xlink:href="#DejaVuSans-30" x="63.623047"/>
       <use xlink:href="#DejaVuSans-32" x="127.246094"/>
       <use xlink:href="#DejaVuSans-30" x="190.869141"/>
       <use xlink:href="#DejaVuSans-2d" x="254.492188"/>
       <use xlink:href="#DejaVuSans-31" x="290.576172"/>
       <use xlink:href="#DejaVuSans-30" x="354.199219"/>
      </g>
     </g>
    </g>
    <g id="xtick_5">
     <g id="line2d_5">
      <g>
       <use xlink:href="#m9cc99618a9" x="549.402002" y="368.3955" style="stroke: #000000; stroke-width: 0.8"/>
      </g>
     </g>
     <g id="text_5">
      <!-- 2021-01 -->
      <g transform="translate(528.510596 382.993937)scale(0.1 -0.1)">
       <use xlink:href="#DejaVuSans-32"/>
       <use xlink:href="#DejaVuSans-30" x="63.623047"/>
       <use xlink:href="#DejaVuSans-32" x="127.246094"/>
       <use xlink:href="#DejaVuSans-31" x="190.869141"/>
       <use xlink:href="#DejaVuSans-2d" x="254.492188"/>
       <use xlink:href="#DejaVuSans-30" x="290.576172"/>
       <use xlink:href="#DejaVuSans-31" x="354.199219"/>
      </g>
     </g>
    </g>
    <g id="xtick_6">
     <g id="line2d_6">
      <g>
       <use xlink:href="#m9cc99618a9" x="666.841348" y="368.3955" style="stroke: #000000; stroke-width: 0.8"/>
      </g>
     </g>
     <g id="text_6">
      <!-- 2021-04 -->
      <g transform="translate(645.949941 382.993937)scale(0.1 -0.1)">
       <use xlink:href="#DejaVuSans-32"/>
       <use xlink:href="#DejaVuSans-30" x="63.623047"/>
       <use xlink:href="#DejaVuSans-32" x="127.246094"/>
       <use xlink:href="#DejaVuSans-31" x="190.869141"/>
       <use xlink:href="#DejaVuSans-2d" x="254.492188"/>
       <use xlink:href="#DejaVuSans-30" x="290.576172"/>
       <use xlink:href="#DejaVuSans-34" x="354.199219"/>
      </g>
     </g>
    </g>
    <g id="xtick_7">
     <g id="line2d_7">
      <g>
       <use xlink:href="#m9cc99618a9" x="785.585574" y="368.3955" style="stroke: #000000; stroke-width: 0.8"/>
      </g>
     </g>
     <g id="text_7">
      <!-- 2021-07 -->
      <g transform="translate(764.694168 382.993937)scale(0.1 -0.1)">
       <use xlink:href="#DejaVuSans-32"/>
       <use xlink:href="#DejaVuSans-30" x="63.623047"/>
       <use xlink:href="#DejaVuSans-32" x="127.246094"/>
       <use xlink:href="#DejaVuSans-31" x="190.869141"/>
       <use xlink:href="#DejaVuSans-2d" x="254.492188"/>
       <use xlink:href="#DejaVuSans-30" x="290.576172"/>
       <use xlink:href="#DejaVuSans-37" x="354.199219"/>
      </g>
     </g>
    </g>
    <g id="xtick_8">
     <g id="line2d_8">
      <g>
       <use xlink:href="#m9cc99618a9" x="905.634683" y="368.3955" style="stroke: #000000; stroke-width: 0.8"/>
      </g>
     </g>
     <g id="text_8">
      <!-- 2021-10 -->
      <g transform="translate(884.743277 382.993937)scale(0.1 -0.1)">
       <use xlink:href="#DejaVuSans-32"/>
       <use xlink:href="#DejaVuSans-30" x="63.623047"/>
       <use xlink:href="#DejaVuSans-32" x="127.246094"/>
       <use xlink:href="#DejaVuSans-31" x="190.869141"/>
       <use xlink:href="#DejaVuSans-2d" x="254.492188"/>
       <use xlink:href="#DejaVuSans-31" x="290.576172"/>
       <use xlink:href="#DejaVuSans-30" x="354.199219"/>
      </g>
     </g>
    </g>
    <g id="xtick_9">
     <g id="line2d_9">
      <g>
       <use xlink:href="#m9cc99618a9" x="1025.683791" y="368.3955" style="stroke: #000000; stroke-width: 0.8"/>
      </g>
     </g>
     <g id="text_9">
      <!-- 2022-01 -->
      <g transform="translate(1004.792385 382.993937)scale(0.1 -0.1)">
       <use xlink:href="#DejaVuSans-32"/>
       <use xlink:href="#DejaVuSans-30" x="63.623047"/>
       <use xlink:href="#DejaVuSans-32" x="127.246094"/>
       <use xlink:href="#DejaVuSans-32" x="190.869141"/>
       <use xlink:href="#DejaVuSans-2d" x="254.492188"/>
       <use xlink:href="#DejaVuSans-30" x="290.576172"/>
       <use xlink:href="#DejaVuSans-31" x="354.199219"/>
      </g>
     </g>
    </g>
    <g id="xtick_10">
     <g id="line2d_10">
      <g>
       <use xlink:href="#m9cc99618a9" x="1143.123137" y="368.3955" style="stroke: #000000; stroke-width: 0.8"/>
      </g>
     </g>
     <g id="text_10">
      <!-- 2022-04 -->
      <g transform="translate(1122.23173 382.993937)scale(0.1 -0.1)">
       <use xlink:href="#DejaVuSans-32"/>
       <use xlink:href="#DejaVuSans-30" x="63.623047"/>
       <use xlink:href="#DejaVuSans-32" x="127.246094"/>
       <use xlink:href="#DejaVuSans-32" x="190.869141"/>
       <use xlink:href="#DejaVuSans-2d" x="254.492188"/>
       <use xlink:href="#DejaVuSans-30" x="290.576172"/>
       <use xlink:href="#DejaVuSans-34" x="354.199219"/>
      </g>
     </g>
    </g>
    <g id="xtick_11">
     <g id="line2d_11">
      <g>
       <use xlink:href="#m9cc99618a9" x="1261.867363" y="368.3955" style="stroke: #000000; stroke-width: 0.8"/>
      </g>
     </g>
     <g id="text_11">
      <!-- 2022-07 -->
      <g transform="translate(1240.975957 382.993937)scale(0.1 -0.1)">
       <use xlink:href="#DejaVuSans-32"/>
       <use xlink:href="#DejaVuSans-30" x="63.623047"/>
       <use xlink:href="#DejaVuSans-32" x="127.246094"/>
       <use xlink:href="#DejaVuSans-32" x="190.869141"/>
       <use xlink:href="#DejaVuSans-2d" x="254.492188"/>
       <use xlink:href="#DejaVuSans-30" x="290.576172"/>
       <use xlink:href="#DejaVuSans-37" x="354.199219"/>
      </g>
     </g>
    </g>
   </g>
   <g id="matplotlib.axis_2">
    <g id="ytick_1">
     <g id="line2d_12">
      <defs>
       <path id="m7f5a15341d" d="M 0 0 
L -3.5 0 
" style="stroke: #000000; stroke-width: 0.8"/>
      </defs>
      <g>
       <use xlink:href="#m7f5a15341d" x="39.65" y="339.559649" style="stroke: #000000; stroke-width: 0.8"/>
      </g>
     </g>
     <g id="text_12">
      <!-- 0 -->
      <g transform="translate(26.2875 343.358868)scale(0.1 -0.1)">
       <use xlink:href="#DejaVuSans-30"/>
      </g>
     </g>
    </g>
    <g id="ytick_2">
     <g id="line2d_13">
      <g>
       <use xlink:href="#m7f5a15341d" x="39.65" y="301.058162" style="stroke: #000000; stroke-width: 0.8"/>
      </g>
     </g>
     <g id="text_13">
      <!-- 500 -->
      <g transform="translate(13.5625 304.857381)scale(0.1 -0.1)">
       <defs>
        <path id="DejaVuSans-35" d="M 691 4666 
L 3169 4666 
L 3169 4134 
L 1269 4134 
L 1269 2991 
Q 1406 3038 1543 3061 
Q 1681 3084 1819 3084 
Q 2600 3084 3056 2656 
Q 3513 2228 3513 1497 
Q 3513 744 3044 326 
Q 2575 -91 1722 -91 
Q 1428 -91 1123 -41 
Q 819 9 494 109 
L 494 744 
Q 775 591 1075 516 
Q 1375 441 1709 441 
Q 2250 441 2565 725 
Q 2881 1009 2881 1497 
Q 2881 1984 2565 2268 
Q 2250 2553 1709 2553 
Q 1456 2553 1204 2497 
Q 953 2441 691 2322 
L 691 4666 
z
" transform="scale(0.015625)"/>
       </defs>
       <use xlink:href="#DejaVuSans-35"/>
       <use xlink:href="#DejaVuSans-30" x="63.623047"/>
       <use xlink:href="#DejaVuSans-30" x="127.246094"/>
      </g>
     </g>
    </g>
    <g id="ytick_3">
     <g id="line2d_14">
      <g>
       <use xlink:href="#m7f5a15341d" x="39.65" y="262.556675" style="stroke: #000000; stroke-width: 0.8"/>
      </g>
     </g>
     <g id="text_14">
      <!-- 1000 -->
      <g transform="translate(7.2 266.355894)scale(0.1 -0.1)">
       <use xlink:href="#DejaVuSans-31"/>
       <use xlink:href="#DejaVuSans-30" x="63.623047"/>
       <use xlink:href="#DejaVuSans-30" x="127.246094"/>
       <use xlink:href="#DejaVuSans-30" x="190.869141"/>
      </g>
     </g>
    </g>
    <g id="ytick_4">
     <g id="line2d_15">
      <g>
       <use xlink:href="#m7f5a15341d" x="39.65" y="224.055188" style="stroke: #000000; stroke-width: 0.8"/>
      </g>
     </g>
     <g id="text_15">
      <!-- 1500 -->
      <g transform="translate(7.2 227.854407)scale(0.1 -0.1)">
       <use xlink:href="#DejaVuSans-31"/>
       <use xlink:href="#DejaVuSans-35" x="63.623047"/>
       <use xlink:href="#DejaVuSans-30" x="127.246094"/>
       <use xlink:href="#DejaVuSans-30" x="190.869141"/>
      </g>
     </g>
    </g>
    <g id="ytick_5">
     <g id="line2d_16">
      <g>
       <use xlink:href="#m7f5a15341d" x="39.65" y="185.553701" style="stroke: #000000; stroke-width: 0.8"/>
      </g>
     </g>
     <g id="text_16">
      <!-- 2000 -->
      <g transform="translate(7.2 189.35292)scale(0.1 -0.1)">
       <use xlink:href="#DejaVuSans-32"/>
       <use xlink:href="#DejaVuSans-30" x="63.623047"/>
       <use xlink:href="#DejaVuSans-30" x="127.246094"/>
       <use xlink:href="#DejaVuSans-30" x="190.869141"/>
      </g>
     </g>
    </g>
    <g id="ytick_6">
     <g id="line2d_17">
      <g>
       <use xlink:href="#m7f5a15341d" x="39.65" y="147.052214" style="stroke: #000000; stroke-width: 0.8"/>
      </g>
     </g>
     <g id="text_17">
      <!-- 2500 -->
      <g transform="translate(7.2 150.851433)scale(0.1 -0.1)">
       <use xlink:href="#DejaVuSans-32"/>
       <use xlink:href="#DejaVuSans-35" x="63.623047"/>
       <use xlink:href="#DejaVuSans-30" x="127.246094"/>
       <use xlink:href="#DejaVuSans-30" x="190.869141"/>
      </g>
     </g>
    </g>
    <g id="ytick_7">
     <g id="line2d_18">
      <g>
       <use xlink:href="#m7f5a15341d" x="39.65" y="108.550727" style="stroke: #000000; stroke-width: 0.8"/>
      </g>
     </g>
     <g id="text_18">
      <!-- 3000 -->
      <g transform="translate(7.2 112.349946)scale(0.1 -0.1)">
       <defs>
        <path id="DejaVuSans-33" d="M 2597 2516 
Q 3050 2419 3304 2112 
Q 3559 1806 3559 1356 
Q 3559 666 3084 287 
Q 2609 -91 1734 -91 
Q 1441 -91 1130 -33 
Q 819 25 488 141 
L 488 750 
Q 750 597 1062 519 
Q 1375 441 1716 441 
Q 2309 441 2620 675 
Q 2931 909 2931 1356 
Q 2931 1769 2642 2001 
Q 2353 2234 1838 2234 
L 1294 2234 
L 1294 2753 
L 1863 2753 
Q 2328 2753 2575 2939 
Q 2822 3125 2822 3475 
Q 2822 3834 2567 4026 
Q 2313 4219 1838 4219 
Q 1578 4219 1281 4162 
Q 984 4106 628 3988 
L 628 4550 
Q 988 4650 1302 4700 
Q 1616 4750 1894 4750 
Q 2613 4750 3031 4423 
Q 3450 4097 3450 3541 
Q 3450 3153 3228 2886 
Q 3006 2619 2597 2516 
z
" transform="scale(0.015625)"/>
       </defs>
       <use xlink:href="#DejaVuSans-33"/>
       <use xlink:href="#DejaVuSans-30" x="63.623047"/>
       <use xlink:href="#DejaVuSans-30" x="127.246094"/>
       <use xlink:href="#DejaVuSans-30" x="190.869141"/>
      </g>
     </g>
    </g>
    <g id="ytick_8">
     <g id="line2d_19">
      <g>
       <use xlink:href="#m7f5a15341d" x="39.65" y="70.04924" style="stroke: #000000; stroke-width: 0.8"/>
      </g>
     </g>
     <g id="text_19">
      <!-- 3500 -->
      <g transform="translate(7.2 73.848459)scale(0.1 -0.1)">
       <use xlink:href="#DejaVuSans-33"/>
       <use xlink:href="#DejaVuSans-35" x="63.623047"/>
       <use xlink:href="#DejaVuSans-30" x="127.246094"/>
       <use xlink:href="#DejaVuSans-30" x="190.869141"/>
      </g>
     </g>
    </g>
   </g>
   <g id="line2d_20">
    <path d="M 100.522727 339.559649 
L 167.07169 339.559649 
L 168.376571 339.405643 
L 169.681453 339.559649 
L 172.291216 339.559649 
L 173.596098 339.251637 
L 174.900979 339.559649 
L 176.205861 339.559649 
L 177.510742 338.943625 
L 178.815624 339.482646 
L 180.120506 338.866622 
L 181.425387 339.32864 
L 182.730269 339.32864 
L 184.035151 339.559649 
L 185.340032 339.020628 
L 186.644914 339.251637 
L 187.949795 338.943625 
L 189.254677 338.866622 
L 190.559559 337.865583 
L 191.86444 337.326563 
L 193.169322 338.635613 
L 194.474203 339.251637 
L 195.779085 338.327601 
L 197.083967 338.327601 
L 198.388848 338.481607 
L 199.69373 339.020628 
L 200.998612 339.174634 
L 202.303493 339.174634 
L 203.608375 339.405643 
L 206.218138 338.712616 
L 207.52302 338.943625 
L 211.437664 338.635613 
L 212.742546 338.327601 
L 214.047428 338.943625 
L 216.657191 338.404604 
L 217.962072 339.020628 
L 219.266954 338.250598 
L 220.571836 338.327601 
L 221.876717 339.020628 
L 223.181599 338.635613 
L 224.486481 338.943625 
L 225.791362 338.712616 
L 227.096244 338.789619 
L 229.706007 338.404604 
L 231.010889 337.711578 
L 232.31577 337.24956 
L 233.620652 337.634575 
L 234.925533 336.094515 
L 236.230415 335.940509 
L 237.535297 337.634575 
L 238.840178 338.481607 
L 240.14506 337.403566 
L 241.449942 337.78858 
L 242.754823 337.403566 
L 244.059705 338.404604 
L 245.364586 337.865583 
L 246.669468 337.942586 
L 247.97435 337.78858 
L 249.279231 335.786503 
L 250.584113 335.170479 
L 251.888994 337.634575 
L 253.193876 335.632497 
L 255.803639 333.399411 
L 257.108521 335.555494 
L 258.413403 337.172557 
L 259.718284 337.865583 
L 261.023166 334.015435 
L 262.328047 334.785465 
L 263.632929 330.088283 
L 264.937811 328.240212 
L 266.242692 329.780271 
L 267.547574 328.548224 
L 268.852455 333.861429 
L 270.157337 335.016473 
L 271.462219 334.015435 
L 272.7671 330.088283 
L 274.071982 330.01128 
L 275.376863 329.24125 
L 276.681745 329.857274 
L 277.986627 326.700152 
L 279.291508 331.474337 
L 280.59639 330.550301 
L 281.901272 331.474337 
L 283.206153 330.242289 
L 284.511035 332.629381 
L 285.815916 327.855197 
L 287.120798 329.010241 
L 288.42568 329.318253 
L 289.730561 329.318253 
L 291.035443 325.391102 
L 292.340324 323.158015 
L 293.645206 330.550301 
L 294.950088 331.55134 
L 296.254969 319.538876 
L 297.559851 335.016473 
L 300.169614 320.000894 
L 301.474496 325.85312 
L 302.779377 328.086206 
L 304.084259 318.152822 
L 305.389141 319.615879 
L 306.694022 330.319292 
L 307.998904 326.007125 
L 309.303785 315.919736 
L 310.608667 318.922852 
L 311.913549 320.539914 
L 313.21843 309.605492 
L 314.523312 315.76573 
L 315.828194 325.622111 
L 317.133075 325.468105 
L 318.437957 318.152822 
L 319.742838 305.13932 
L 321.04772 303.137242 
L 322.352602 318.152822 
L 323.657483 310.375522 
L 324.962365 325.006087 
L 326.267246 301.289171 
L 327.572128 304.061278 
L 328.87701 307.141397 
L 330.181891 309.605492 
L 331.486773 286.581603 
L 332.791654 293.126856 
L 334.096536 307.372406 
L 335.401418 308.989468 
L 336.706299 290.508755 
L 338.011181 278.265282 
L 339.316063 288.198665 
L 340.620944 310.683534 
L 341.925826 265.636794 
L 343.230707 310.914543 
L 344.535589 292.895847 
L 345.840471 297.670031 
L 347.145352 278.881306 
L 348.450234 283.886499 
L 349.755115 283.578487 
L 351.059997 286.427597 
L 352.364879 297.670031 
L 354.974642 287.890653 
L 356.279524 298.132049 
L 357.584405 283.578487 
L 358.889287 285.73457 
L 361.49905 301.674186 
L 362.803932 301.289171 
L 364.108813 287.27463 
L 365.413695 289.507716 
L 368.023458 299.903117 
L 369.32834 318.691843 
L 370.633221 320.69392 
L 371.938103 318.691843 
L 373.242985 310.375522 
L 374.547866 306.756382 
L 375.852748 314.764691 
L 377.157629 312.223593 
L 378.462511 320.616917 
L 379.767393 324.698075 
L 381.072274 320.616917 
L 382.377156 323.158015 
L 383.682037 310.83754 
L 384.986919 321.001932 
L 386.291801 326.931161 
L 387.596682 319.307867 
L 388.901564 328.471221 
L 390.206445 330.78131 
L 391.511327 325.85312 
L 392.816209 323.235018 
L 394.12109 325.776117 
L 395.425972 329.087244 
L 396.730854 333.168402 
L 398.035735 331.705346 
L 399.340617 327.9322 
L 400.645498 331.55134 
L 401.95038 328.548224 
L 403.255262 324.929084 
L 404.560143 326.007125 
L 405.865025 325.08309 
L 407.169906 335.863506 
L 408.474788 332.167363 
L 409.77967 339.559649 
L 411.084551 318.383831 
L 412.389433 328.163209 
L 413.694315 331.474337 
L 414.999196 327.855197 
L 416.304078 332.013357 
L 417.608959 328.856236 
L 418.913841 329.549262 
L 420.218723 328.70223 
L 421.523604 322.773001 
L 422.828486 326.931161 
L 424.133367 320.770923 
L 425.438249 335.478491 
L 426.743131 323.389024 
L 428.048012 327.9322 
L 429.352894 325.391102 
L 430.657776 323.389024 
L 431.962657 319.461873 
L 433.267539 320.847926 
L 434.57242 337.865583 
L 435.877302 329.010241 
L 437.182184 314.841694 
L 438.487065 318.691843 
L 439.791947 305.524334 
L 441.096828 298.132049 
L 442.40171 309.682495 
L 443.706592 333.938432 
L 445.011473 315.072703 
L 446.316355 293.049853 
L 447.621236 293.203859 
L 448.926118 305.909349 
L 450.231 292.125817 
L 451.535881 286.812612 
L 452.840763 324.544069 
L 454.145645 295.590951 
L 455.450526 301.289171 
L 456.755408 257.320473 
L 458.060289 290.970772 
L 459.365171 266.637833 
L 460.670053 267.86988 
L 461.974934 318.306828 
L 463.279816 275.185163 
L 464.584697 261.170622 
L 465.889579 280.960386 
L 467.194461 248.311125 
L 468.499342 232.1405 
L 469.804224 286.812612 
L 471.109106 283.809496 
L 472.413987 301.674186 
L 473.718869 224.517206 
L 475.02375 261.940651 
L 476.328632 254.163351 
L 477.633514 257.551482 
L 478.938395 284.194511 
L 480.243277 281.345401 
L 481.548158 236.067652 
L 482.85304 245.924033 
L 484.157922 268.793916 
L 485.462803 226.365277 
L 486.767685 256.396437 
L 488.072567 264.712758 
L 489.377448 296.514987 
L 490.68233 268.331898 
L 491.987211 265.867803 
L 493.292093 227.21231 
L 494.596975 258.860532 
L 495.901856 246.309048 
L 497.206738 265.02077 
L 498.511619 307.757421 
L 499.816501 283.578487 
L 501.121383 277.18724 
L 502.426264 279.497329 
L 503.731146 219.897028 
L 505.036027 266.483827 
L 506.340909 284.810534 
L 507.645791 316.304751 
L 508.950672 297.13101 
L 510.255554 265.559791 
L 511.560436 243.074923 
L 512.865317 272.875074 
L 514.170199 282.962463 
L 515.47508 309.066471 
L 516.779962 324.236057 
L 518.084844 299.4411 
L 519.389725 296.360981 
L 520.694607 289.969734 
L 521.999488 287.736648 
L 523.30437 297.362019 
L 524.609252 311.37656 
L 525.914133 327.008164 
L 527.219015 308.450447 
L 528.523897 309.220477 
L 529.828778 297.054007 
L 531.13366 312.14659 
L 532.438541 309.528489 
L 533.743423 312.685611 
L 535.048305 330.78131 
L 536.353186 327.701191 
L 537.658068 306.679379 
L 538.962949 321.386947 
L 540.267831 317.84481 
L 541.572713 329.549262 
L 542.877594 333.399411 
L 544.182476 334.246444 
L 545.487357 328.240212 
L 546.792239 330.935316 
L 548.097121 323.620033 
L 549.402002 327.547185 
L 550.706884 334.631459 
L 552.011766 330.01128 
L 553.316647 331.397334 
L 554.621529 322.695998 
L 555.92641 318.691843 
L 557.231292 313.763653 
L 558.536174 322.541992 
L 559.841055 321.848965 
L 561.145937 332.86039 
L 562.450818 334.708462 
L 563.7557 332.013357 
L 565.060582 330.088283 
L 566.365463 328.933239 
L 567.670345 326.777155 
L 568.975227 322.387986 
L 570.280108 333.399411 
L 571.58499 334.554456 
L 572.889871 333.322408 
L 574.194753 329.087244 
L 575.499635 325.237096 
L 576.804516 328.856236 
L 578.109398 329.626265 
L 579.414279 333.014396 
L 580.719161 334.246444 
L 582.024043 328.70223 
L 583.328924 329.549262 
L 584.633806 331.936354 
L 585.938688 328.70223 
L 587.243569 330.935316 
L 589.853332 333.168402 
L 591.158214 327.778194 
L 592.463096 328.009203 
L 593.767977 325.699114 
L 595.072859 324.544069 
L 596.37774 327.547185 
L 597.682622 329.626265 
L 598.987504 329.934277 
L 600.292385 331.55134 
L 601.597267 326.238134 
L 602.902148 329.395256 
L 604.20703 319.538876 
L 605.511912 325.776117 
L 606.816793 333.784426 
L 608.121675 328.240212 
L 609.426557 326.161131 
L 610.731438 328.471221 
L 612.03632 317.767807 
L 613.341201 322.156977 
L 614.646083 327.855197 
L 615.950965 323.54303 
L 617.255846 331.474337 
L 619.865609 317.998816 
L 621.170491 318.229825 
L 622.475373 307.98843 
L 623.780254 325.622111 
L 625.085136 314.533682 
L 626.390018 327.855197 
L 627.694899 312.993623 
L 628.999781 314.071665 
L 630.304662 298.902079 
L 631.609544 308.758459 
L 632.914426 290.816766 
L 634.219307 303.753266 
L 635.524189 313.609647 
L 636.82907 302.675224 
L 638.133952 284.656529 
L 639.438834 275.724184 
L 640.743715 281.807419 
L 642.048597 272.567062 
L 643.353479 306.371367 
L 644.65836 283.270475 
L 645.963242 257.628485 
L 647.268123 241.072845 
L 648.573005 245.231006 
L 649.877887 235.297622 
L 651.182768 241.45786 
L 652.48765 282.038427 
L 653.792531 252.546288 
L 655.097413 252.777297 
L 656.402295 220.975069 
L 657.707176 226.904298 
L 659.012058 184.937677 
L 660.316939 250.852223 
L 661.621821 271.48902 
L 662.926703 270.102966 
L 664.231584 221.745099 
L 665.536466 230.83145 
L 666.841348 263.788723 
L 668.146229 197.027144 
L 669.451111 248.388128 
L 670.755992 269.40994 
L 672.060874 304.138281 
L 673.365756 309.220477 
L 674.670637 222.28412 
L 675.975519 208.808599 
L 677.2804 255.549404 
L 678.585282 260.246586 
L 679.890164 302.136204 
L 681.195045 302.136204 
L 682.499927 263.249702 
L 683.804809 264.019732 
L 685.10969 255.549404 
L 686.414572 259.399553 
L 687.719453 260.477595 
L 689.024335 311.37656 
L 690.329217 321.001932 
L 691.634098 291.124778 
L 692.93898 265.251779 
L 694.243861 269.948961 
L 695.548743 280.03635 
L 696.853625 250.77522 
L 698.158506 303.445254 
L 699.463388 324.621072 
L 702.073151 275.339169 
L 703.378033 301.443177 
L 704.682914 301.289171 
L 705.987796 282.962463 
L 707.292678 311.145552 
L 708.597559 329.010241 
L 709.902441 312.993623 
L 711.207322 301.905195 
L 712.512204 285.272552 
L 713.817086 295.82196 
L 715.121967 295.513948 
L 717.73173 334.477453 
L 719.036612 312.14659 
L 720.341494 307.98843 
L 721.646375 313.840656 
L 722.951257 309.374483 
L 724.256139 318.999855 
L 725.56102 332.937393 
L 726.865902 334.015435 
L 728.170783 303.445254 
L 729.475665 310.606531 
L 730.780547 301.52018 
L 732.085428 288.814689 
L 733.39031 295.436945 
L 734.695191 314.610685 
L 736.000073 331.012319 
L 737.304955 310.144513 
L 738.609836 306.371367 
L 739.914718 313.301635 
L 741.2196 313.070626 
L 742.524481 305.370329 
L 743.829363 327.085167 
L 745.134244 332.783387 
L 746.439126 312.685611 
L 747.744008 328.625227 
L 749.048889 306.294364 
L 750.353771 317.690804 
L 751.658652 310.06751 
L 752.963534 326.777155 
L 754.268416 328.163209 
L 755.573297 306.217361 
L 756.878179 294.204897 
L 758.183061 291.509793 
L 759.487942 301.982198 
L 760.792824 308.52745 
L 762.097705 327.16217 
L 763.402587 313.070626 
L 764.707469 304.446293 
L 766.01235 302.213207 
L 767.317232 288.737686 
L 768.622113 278.265282 
L 769.926995 284.579526 
L 771.231877 317.767807 
L 772.536758 322.773001 
L 773.84164 294.666915 
L 775.146521 291.663799 
L 776.451403 282.500445 
L 777.756285 289.815728 
L 779.061166 300.442138 
L 780.366048 323.851042 
L 781.67093 317.459795 
L 782.975811 284.194511 
L 784.280693 296.591989 
L 785.585574 310.606531 
L 786.890456 299.287094 
L 788.195338 298.67107 
L 789.500219 318.229825 
L 790.805101 325.314099 
L 792.109982 308.758459 
L 793.414864 300.596144 
L 794.719746 295.975966 
L 796.024627 304.754305 
L 797.329509 298.286055 
L 798.634391 321.001932 
L 799.939272 325.08309 
L 801.244154 280.960386 
L 802.549035 302.598221 
L 803.853917 275.10816 
L 805.158799 286.273591 
L 806.46368 283.886499 
L 807.768562 314.687688 
L 809.073443 306.371367 
L 810.378325 291.971811 
L 811.683207 300.827153 
L 812.988088 277.880267 
L 814.29297 278.958308 
L 815.597852 274.33813 
L 816.902733 288.429674 
L 818.207615 297.208013 
L 819.512496 264.404746 
L 820.817378 262.094657 
L 822.12226 257.320473 
L 823.427141 266.791839 
L 824.732023 242.612905 
L 826.036904 303.59926 
L 827.341786 294.050891 
L 828.646668 256.011422 
L 831.256431 218.587977 
L 832.561312 219.358007 
L 833.866194 246.771065 
L 835.171076 277.95727 
L 836.475957 282.192433 
L 837.780839 248.465131 
L 839.085721 187.555779 
L 840.390602 220.513051 
L 841.695484 228.906375 
L 843.000365 245.231006 
L 844.305247 278.804303 
L 845.610129 287.27463 
L 846.91501 224.979224 
L 848.219892 223.59317 
L 849.524773 242.304893 
L 850.829655 230.677444 
L 852.134537 240.533825 
L 853.439418 289.815728 
L 854.7443 291.894808 
L 856.049182 249.774181 
L 857.354063 242.689908 
L 858.658945 276.648219 
L 859.963826 267.792877 
L 861.268708 278.881306 
L 862.57359 311.607569 
L 863.878471 312.91662 
L 865.183353 296.052969 
L 866.488234 261.170622 
L 867.793116 264.866764 
L 869.097998 262.479672 
L 870.402879 274.877151 
L 871.707761 302.598221 
L 873.012643 319.692882 
L 874.317524 285.349555 
L 875.622406 289.584719 
L 876.927287 300.981159 
L 878.232169 288.660683 
L 879.537051 300.211129 
L 880.841932 318.845849 
L 882.146814 323.851042 
L 883.451695 304.831308 
L 884.756577 305.216323 
L 886.061459 300.211129 
L 887.36634 305.370329 
L 888.671222 299.903117 
L 889.976103 321.540953 
L 891.280985 330.858313 
L 892.585867 315.457718 
L 893.890748 308.604453 
L 895.19563 315.149706 
L 896.500512 309.220477 
L 897.805393 314.687688 
L 899.110275 334.246444 
L 900.415156 335.401488 
L 901.720038 319.923891 
L 903.02492 308.450447 
L 904.329801 319.538876 
L 905.634683 317.151784 
L 906.939564 316.612763 
L 908.244446 332.552378 
L 909.549328 333.63042 
L 910.854209 325.006087 
L 912.159091 329.549262 
L 913.463973 322.773001 
L 914.768854 326.469143 
L 916.073736 327.316176 
L 917.378617 332.244366 
L 918.683499 332.167363 
L 919.988381 334.554456 
L 921.293262 326.469143 
L 922.598144 325.237096 
L 923.903025 329.24125 
L 925.207907 327.547185 
L 926.512789 333.861429 
L 927.81767 337.018551 
L 929.122552 329.318253 
L 930.427433 331.166325 
L 931.732315 334.40045 
L 933.037197 330.01128 
L 934.342078 329.626265 
L 935.64696 336.171518 
L 936.951842 338.327601 
L 938.256723 327.9322 
L 939.561605 331.936354 
L 940.866486 333.399411 
L 942.171368 329.318253 
L 943.47625 328.625227 
L 944.781131 338.250598 
L 946.086013 337.326563 
L 947.390894 334.169441 
L 948.695776 331.628343 
L 950.000658 328.086206 
L 951.305539 333.707423 
L 952.610421 333.707423 
L 953.915303 338.019589 
L 955.220184 338.019589 
L 956.525066 337.557572 
L 957.829947 325.85312 
L 959.134829 332.321369 
L 960.439711 334.631459 
L 961.744592 334.862467 
L 963.049474 337.942586 
L 964.354355 338.635613 
L 965.659237 333.784426 
L 966.964119 334.246444 
L 968.269 332.783387 
L 969.573882 332.783387 
L 970.878764 335.016473 
L 972.183645 337.865583 
L 973.488527 338.173595 
L 974.793408 335.478491 
L 976.09829 336.864545 
L 977.403172 336.017512 
L 978.708053 336.325524 
L 980.012935 336.787542 
L 981.317816 338.712616 
L 982.622698 337.403566 
L 983.92758 331.166325 
L 985.232461 333.707423 
L 986.537343 332.167363 
L 987.842224 332.244366 
L 989.147106 335.478491 
L 990.451988 337.326563 
L 991.756869 337.095554 
L 993.061751 333.784426 
L 995.671514 328.471221 
L 996.976396 329.087244 
L 998.281277 324.005048 
L 999.586159 324.082051 
L 1000.891041 328.086206 
L 1002.195922 314.071665 
L 1003.500804 278.034273 
L 1004.805685 266.945845 
L 1006.110567 215.661864 
L 1007.415449 172.540199 
L 1008.72033 233.911569 
L 1010.025212 261.016616 
L 1011.330094 120.563191 
L 1012.634975 83.293752 
L 1013.939857 51.106509 
L 1015.244738 111.322834 
L 1016.54962 50.8755 
L 1017.854502 247.464092 
L 1019.159383 216.662903 
L 1020.464265 223.747176 
L 1021.769146 85.680844 
L 1023.074028 86.527877 
L 1024.37891 124.644349 
L 1025.683791 175.774324 
L 1026.988673 235.297622 
L 1028.293555 245.385012 
L 1029.598436 154.598506 
L 1030.903318 168.921059 
L 1032.208199 159.680702 
L 1033.513081 151.364381 
L 1034.817963 211.195692 
L 1036.122844 282.500445 
L 1037.427726 259.938574 
L 1038.732607 254.471363 
L 1040.037489 276.956231 
L 1041.342371 249.081155 
L 1042.647252 259.861571 
L 1043.952134 291.509793 
L 1045.257015 315.688727 
L 1046.561897 322.387986 
L 1047.866779 309.374483 
L 1049.17166 280.883383 
L 1050.476542 311.222555 
L 1051.781424 304.215284 
L 1053.086305 316.458757 
L 1054.391187 332.552378 
L 1055.696068 326.469143 
L 1057.00095 325.314099 
L 1058.305832 325.545108 
L 1059.610713 327.855197 
L 1060.915595 324.698075 
L 1062.220476 330.088283 
L 1063.525358 331.782349 
L 1064.83024 336.017512 
L 1066.135121 326.39214 
L 1067.440003 330.396295 
L 1068.744885 332.398372 
L 1070.049766 327.393179 
L 1071.354648 330.242289 
L 1072.659529 335.478491 
L 1073.964411 335.324485 
L 1075.269293 334.708462 
L 1076.574174 334.93947 
L 1077.879056 334.93947 
L 1080.488819 335.863506 
L 1081.793701 336.710539 
L 1083.098582 337.711578 
L 1084.403464 338.019589 
L 1085.708346 337.403566 
L 1087.013227 334.246444 
L 1088.318109 337.557572 
L 1089.62299 337.326563 
L 1090.927872 337.480569 
L 1092.232754 339.097631 
L 1093.537635 336.941548 
L 1094.842517 336.094515 
L 1096.147398 336.402527 
L 1097.45228 335.940509 
L 1098.757162 336.710539 
L 1100.062043 337.711578 
L 1101.366925 338.327601 
L 1102.671806 337.095554 
L 1103.976688 337.711578 
L 1105.28157 337.78858 
L 1106.586451 337.095554 
L 1107.891333 338.481607 
L 1109.196215 339.251637 
L 1110.501096 338.096592 
L 1111.805978 337.942586 
L 1113.110859 338.481607 
L 1114.415741 338.712616 
L 1115.720623 338.019589 
L 1117.025504 338.712616 
L 1119.635267 338.635613 
L 1120.940149 338.866622 
L 1122.245031 338.404604 
L 1123.549912 338.173595 
L 1126.159676 338.250598 
L 1127.464557 338.866622 
L 1128.769439 338.943625 
L 1130.07432 338.250598 
L 1131.379202 338.55861 
L 1132.684084 338.481607 
L 1133.988965 338.250598 
L 1135.293847 338.404604 
L 1136.598728 338.866622 
L 1137.90361 338.866622 
L 1139.208492 338.635613 
L 1140.513373 339.020628 
L 1141.818255 337.942586 
L 1143.123137 338.55861 
L 1144.428018 338.481607 
L 1145.7329 339.251637 
L 1147.037781 338.481607 
L 1148.342663 338.712616 
L 1149.647545 336.787542 
L 1150.952426 338.866622 
L 1152.257308 339.559649 
L 1153.562189 339.020628 
L 1154.867071 338.789619 
L 1156.171953 338.327601 
L 1157.476834 337.557572 
L 1158.781716 339.174634 
L 1161.391479 338.789619 
L 1162.696361 339.251637 
L 1164.001242 339.174634 
L 1165.306124 339.251637 
L 1166.611006 338.635613 
L 1167.915887 338.327601 
L 1169.220769 339.559649 
L 1170.52565 336.325524 
L 1171.830532 338.943625 
L 1173.135414 338.55861 
L 1177.050058 339.482646 
L 1178.35494 337.942586 
L 1179.659822 338.404604 
L 1180.964703 338.55861 
L 1182.269585 338.55861 
L 1183.574467 339.097631 
L 1184.879348 339.251637 
L 1186.18423 338.789619 
L 1187.489111 338.635613 
L 1188.793993 337.403566 
L 1190.098875 337.865583 
L 1191.403756 338.55861 
L 1192.708638 338.096592 
L 1194.013519 337.942586 
L 1195.318401 338.173595 
L 1196.623283 338.55861 
L 1197.928164 337.78858 
L 1199.233046 336.787542 
L 1200.537928 338.404604 
L 1203.147691 337.634575 
L 1204.452572 337.557572 
L 1205.757454 337.095554 
L 1207.062336 336.017512 
L 1208.367217 335.940509 
L 1209.672099 338.019589 
L 1210.97698 337.095554 
L 1212.281862 333.784426 
L 1213.586744 335.170479 
L 1214.891625 334.708462 
L 1216.196507 332.706384 
L 1217.501388 329.703268 
L 1218.80627 333.245405 
L 1220.111152 332.552378 
L 1221.416033 330.550301 
L 1222.720915 332.321369 
L 1224.025797 331.859352 
L 1225.330678 328.009203 
L 1226.63556 330.165286 
L 1227.940441 330.935316 
L 1229.245323 333.399411 
L 1230.550205 327.008164 
L 1231.855086 322.773001 
L 1233.159968 324.005048 
L 1234.464849 321.694959 
L 1235.769731 317.382792 
L 1237.074613 324.544069 
L 1238.379494 323.158015 
L 1239.684376 317.998816 
L 1240.989258 303.59926 
L 1243.599021 309.528489 
L 1244.903902 308.912465 
L 1246.208784 320.616917 
L 1247.513666 320.154899 
L 1248.818547 307.295403 
L 1250.123429 304.600299 
L 1251.42831 296.514987 
L 1252.733192 300.904156 
L 1254.038074 306.679379 
L 1255.342955 319.461873 
L 1256.647837 321.694959 
L 1257.952719 305.755343 
L 1259.2576 309.374483 
L 1260.562482 308.450447 
L 1261.867363 319.692882 
L 1263.172245 316.689766 
L 1264.477127 339.559649 
L 1265.782008 316.304751 
L 1267.08689 320.385908 
L 1268.391771 317.074781 
L 1269.696653 320.385908 
L 1271.001535 322.002971 
L 1272.306416 323.851042 
L 1273.611298 332.783387 
L 1274.916179 334.323447 
L 1276.221061 330.01128 
L 1277.525943 321.155938 
L 1278.830824 327.778194 
L 1281.440588 330.935316 
L 1282.745469 335.7095 
L 1284.050351 335.093476 
L 1285.355232 331.397334 
L 1286.660114 331.782349 
L 1287.964996 333.399411 
L 1289.269877 333.707423 
L 1290.574759 333.322408 
L 1291.87964 335.324485 
L 1293.184522 336.325524 
L 1294.489404 335.7095 
L 1295.794285 334.40045 
L 1297.099167 336.171518 
L 1298.404049 335.7095 
L 1299.70893 335.786503 
L 1301.013812 337.78858 
L 1301.013812 337.78858 
" clip-path="url(#pb2d5ccf841)" style="fill: none; stroke: #0000ff; stroke-width: 1.5; stroke-linecap: square"/>
   </g>
   <g id="line2d_21">
    <path d="M 1060.915595 336.533103 
L 1062.220476 353.2755 
L 1063.525358 340.099046 
L 1064.83024 333.227886 
L 1066.135121 328.100809 
L 1067.440003 330.766225 
L 1068.744885 331.185131 
L 1070.049766 335.52541 
L 1071.354648 342.538891 
L 1072.659529 339.951265 
L 1073.964411 332.249491 
L 1075.269293 333.539049 
L 1076.574174 336.203925 
L 1077.879056 332.280993 
L 1079.183937 338.520244 
L 1080.488819 343.590395 
L 1081.793701 339.541594 
L 1083.098582 336.424146 
L 1084.403464 337.968217 
L 1085.708346 338.265277 
L 1087.013227 334.633035 
L 1088.318109 338.677228 
L 1089.62299 341.765078 
L 1090.927872 339.037145 
L 1092.232754 338.341229 
L 1093.537635 337.781503 
L 1094.842517 335.966144 
L 1096.147398 337.127452 
L 1097.45228 337.532502 
L 1098.757162 338.385678 
L 1100.062043 338.986985 
L 1101.366925 337.342274 
L 1102.671806 336.854118 
L 1103.976688 337.134285 
L 1105.28157 337.630518 
L 1106.586451 337.836132 
L 1107.891333 339.17007 
L 1109.196215 339.916375 
L 1110.501096 337.779516 
L 1111.805978 337.958815 
L 1113.110859 338.491184 
L 1114.415741 338.262149 
L 1117.025504 339.443099 
L 1118.330386 338.979508 
L 1119.635267 338.305253 
L 1120.940149 338.942151 
L 1122.245031 338.64968 
L 1123.549912 337.955734 
L 1124.854794 338.808811 
L 1126.159676 338.858328 
L 1127.464557 338.742895 
L 1128.769439 338.786695 
L 1130.07432 338.358088 
L 1133.988965 338.540832 
L 1135.293847 338.823601 
L 1136.598728 338.864107 
L 1137.90361 338.58315 
L 1140.513373 338.799766 
L 1141.818255 338.177031 
L 1143.123137 338.53133 
L 1144.428018 339.009369 
L 1145.7329 338.984633 
L 1147.037781 338.542865 
L 1148.342663 338.72205 
L 1149.647545 337.441184 
L 1150.952426 338.29739 
L 1152.257308 339.396853 
L 1153.562189 339.082634 
L 1154.867071 338.587747 
L 1156.171953 338.570106 
L 1157.476834 337.577957 
L 1158.781716 339.006853 
L 1160.086597 339.410365 
L 1161.391479 338.496608 
L 1162.696361 339.173534 
L 1165.306124 338.738248 
L 1166.611006 338.999195 
L 1167.915887 338.764547 
L 1169.220769 339.334423 
L 1170.52565 337.895432 
L 1171.830532 338.335916 
L 1173.135414 338.956994 
L 1174.440295 338.055255 
L 1177.050058 339.563213 
L 1178.35494 337.502363 
L 1179.659822 338.905712 
L 1180.964703 338.975715 
L 1182.269585 338.506138 
L 1183.574467 338.932929 
L 1184.879348 339.181626 
L 1186.18423 338.582189 
L 1187.489111 338.256611 
L 1188.793993 338.38784 
L 1190.098875 338.039292 
L 1191.403756 338.702686 
L 1192.708638 338.383916 
L 1194.013519 337.906416 
L 1195.318401 338.00663 
L 1196.623283 337.759556 
L 1197.928164 338.06759 
L 1199.233046 337.483652 
L 1200.537928 337.99259 
L 1201.842809 338.210039 
L 1203.147691 337.647342 
L 1204.452572 337.724639 
L 1205.757454 336.936885 
L 1207.062336 336.303354 
L 1209.672099 337.424247 
L 1210.97698 337.044154 
L 1212.281862 335.012521 
L 1213.586744 335.19095 
L 1214.891625 334.917402 
L 1216.196507 333.322574 
L 1217.501388 332.466289 
L 1218.80627 332.828761 
L 1221.416033 331.147461 
L 1222.720915 331.649041 
L 1224.025797 330.945054 
L 1225.330678 328.047183 
L 1226.63556 330.954616 
L 1227.940441 331.038145 
L 1229.245323 330.443759 
L 1230.550205 329.546117 
L 1231.855086 325.193489 
L 1233.159968 323.964671 
L 1234.464849 323.897435 
L 1235.769731 321.056575 
L 1237.074613 323.762183 
L 1238.379494 321.47452 
L 1239.684376 317.329203 
L 1240.989258 310.744509 
L 1242.294139 307.727115 
L 1243.599021 309.870977 
L 1244.903902 311.438959 
L 1246.208784 315.278352 
L 1247.513666 314.62749 
L 1248.818547 303.64655 
L 1250.123429 305.703372 
L 1251.42831 302.928712 
L 1252.733192 300.588518 
L 1254.038074 310.850367 
L 1255.342955 314.185985 
L 1256.647837 311.070549 
L 1257.952719 303.41618 
L 1259.2576 304.269452 
L 1261.867363 315.327054 
L 1263.172245 322.393644 
L 1264.477127 330.501789 
L 1265.782008 315.574814 
L 1267.08689 315.169615 
L 1268.391771 319.494661 
L 1269.696653 321.9997 
L 1271.001535 322.256534 
L 1272.306416 333.061112 
L 1273.611298 325.930351 
L 1274.916179 327.761046 
L 1276.221061 327.909775 
L 1277.525943 323.046413 
L 1278.830824 328.856015 
L 1280.135706 330.973947 
L 1281.440588 337.665187 
L 1282.745469 333.89919 
L 1284.050351 331.885452 
L 1285.355232 328.646066 
L 1286.660114 332.341787 
L 1287.964996 334.797021 
L 1289.269877 334.218343 
L 1290.574759 339.234615 
L 1291.87964 335.886477 
L 1293.184522 334.006594 
L 1294.489404 333.983524 
L 1295.794285 335.30448 
L 1297.099167 336.320474 
L 1298.404049 336.200025 
L 1299.70893 339.084495 
L 1301.013812 338.288309 
L 1301.013812 338.288309 
" clip-path="url(#pb2d5ccf841)" style="fill: none; stroke: #ffa500; stroke-width: 1.5; stroke-linecap: square"/>
   </g>
   <g id="line2d_22">
    <path d="M 1301.013812 338.288309 
L 1302.318693 337.021179 
L 1303.623575 336.077104 
L 1304.928457 337.256494 
L 1306.233338 337.501196 
L 1307.53822 337.598371 
L 1308.843101 339.726804 
L 1310.147983 339.725446 
L 1311.452865 338.704986 
L 1312.757746 337.859947 
L 1314.062628 338.883927 
L 1315.36751 339.0814 
L 1316.672391 339.174566 
L 1317.977273 340.849785 
" clip-path="url(#pb2d5ccf841)" style="fill: none; stroke: #ff0000; stroke-width: 1.5; stroke-linecap: square"/>
   </g>
   <g id="patch_3">
    <path d="M 39.65 368.3955 
L 39.65 35.7555 
" style="fill: none; stroke: #000000; stroke-width: 0.8; stroke-linejoin: miter; stroke-linecap: square"/>
   </g>
   <g id="patch_4">
    <path d="M 1378.85 368.3955 
L 1378.85 35.7555 
" style="fill: none; stroke: #000000; stroke-width: 0.8; stroke-linejoin: miter; stroke-linecap: square"/>
   </g>
   <g id="patch_5">
    <path d="M 39.65 368.3955 
L 1378.85 368.3955 
" style="fill: none; stroke: #000000; stroke-width: 0.8; stroke-linejoin: miter; stroke-linecap: square"/>
   </g>
   <g id="patch_6">
    <path d="M 39.65 35.7555 
L 1378.85 35.7555 
" style="fill: none; stroke: #000000; stroke-width: 0.8; stroke-linejoin: miter; stroke-linecap: square"/>
   </g>
   <g id="text_20">
    <!-- Daily Confirmed Cases Forecasting - Kenya -->
    <g transform="translate(580.3925 16.318125)scale(0.12 -0.12)">
     <defs>
      <path id="DejaVuSans-44" d="M 1259 4147 
L 1259 519 
L 2022 519 
Q 2988 519 3436 956 
Q 3884 1394 3884 2338 
Q 3884 3275 3436 3711 
Q 2988 4147 2022 4147 
L 1259 4147 
z
M 628 4666 
L 1925 4666 
Q 3281 4666 3915 4102 
Q 4550 3538 4550 2338 
Q 4550 1131 3912 565 
Q 3275 0 1925 0 
L 628 0 
L 628 4666 
z
" transform="scale(0.015625)"/>
      <path id="DejaVuSans-61" d="M 2194 1759 
Q 1497 1759 1228 1600 
Q 959 1441 959 1056 
Q 959 750 1161 570 
Q 1363 391 1709 391 
Q 2188 391 2477 730 
Q 2766 1069 2766 1631 
L 2766 1759 
L 2194 1759 
z
M 3341 1997 
L 3341 0 
L 2766 0 
L 2766 531 
Q 2569 213 2275 61 
Q 1981 -91 1556 -91 
Q 1019 -91 701 211 
Q 384 513 384 1019 
Q 384 1609 779 1909 
Q 1175 2209 1959 2209 
L 2766 2209 
L 2766 2266 
Q 2766 2663 2505 2880 
Q 2244 3097 1772 3097 
Q 1472 3097 1187 3025 
Q 903 2953 641 2809 
L 641 3341 
Q 956 3463 1253 3523 
Q 1550 3584 1831 3584 
Q 2591 3584 2966 3190 
Q 3341 2797 3341 1997 
z
" transform="scale(0.015625)"/>
      <path id="DejaVuSans-69" d="M 603 3500 
L 1178 3500 
L 1178 0 
L 603 0 
L 603 3500 
z
M 603 4863 
L 1178 4863 
L 1178 4134 
L 603 4134 
L 603 4863 
z
" transform="scale(0.015625)"/>
      <path id="DejaVuSans-6c" d="M 603 4863 
L 1178 4863 
L 1178 0 
L 603 0 
L 603 4863 
z
" transform="scale(0.015625)"/>
      <path id="DejaVuSans-79" d="M 2059 -325 
Q 1816 -950 1584 -1140 
Q 1353 -1331 966 -1331 
L 506 -1331 
L 506 -850 
L 844 -850 
Q 1081 -850 1212 -737 
Q 1344 -625 1503 -206 
L 1606 56 
L 191 3500 
L 800 3500 
L 1894 763 
L 2988 3500 
L 3597 3500 
L 2059 -325 
z
" transform="scale(0.015625)"/>
      <path id="DejaVuSans-20" transform="scale(0.015625)"/>
      <path id="DejaVuSans-43" d="M 4122 4306 
L 4122 3641 
Q 3803 3938 3442 4084 
Q 3081 4231 2675 4231 
Q 1875 4231 1450 3742 
Q 1025 3253 1025 2328 
Q 1025 1406 1450 917 
Q 1875 428 2675 428 
Q 3081 428 3442 575 
Q 3803 722 4122 1019 
L 4122 359 
Q 3791 134 3420 21 
Q 3050 -91 2638 -91 
Q 1578 -91 968 557 
Q 359 1206 359 2328 
Q 359 3453 968 4101 
Q 1578 4750 2638 4750 
Q 3056 4750 3426 4639 
Q 3797 4528 4122 4306 
z
" transform="scale(0.015625)"/>
      <path id="DejaVuSans-6f" d="M 1959 3097 
Q 1497 3097 1228 2736 
Q 959 2375 959 1747 
Q 959 1119 1226 758 
Q 1494 397 1959 397 
Q 2419 397 2687 759 
Q 2956 1122 2956 1747 
Q 2956 2369 2687 2733 
Q 2419 3097 1959 3097 
z
M 1959 3584 
Q 2709 3584 3137 3096 
Q 3566 2609 3566 1747 
Q 3566 888 3137 398 
Q 2709 -91 1959 -91 
Q 1206 -91 779 398 
Q 353 888 353 1747 
Q 353 2609 779 3096 
Q 1206 3584 1959 3584 
z
" transform="scale(0.015625)"/>
      <path id="DejaVuSans-6e" d="M 3513 2113 
L 3513 0 
L 2938 0 
L 2938 2094 
Q 2938 2591 2744 2837 
Q 2550 3084 2163 3084 
Q 1697 3084 1428 2787 
Q 1159 2491 1159 1978 
L 1159 0 
L 581 0 
L 581 3500 
L 1159 3500 
L 1159 2956 
Q 1366 3272 1645 3428 
Q 1925 3584 2291 3584 
Q 2894 3584 3203 3211 
Q 3513 2838 3513 2113 
z
" transform="scale(0.015625)"/>
      <path id="DejaVuSans-66" d="M 2375 4863 
L 2375 4384 
L 1825 4384 
Q 1516 4384 1395 4259 
Q 1275 4134 1275 3809 
L 1275 3500 
L 2222 3500 
L 2222 3053 
L 1275 3053 
L 1275 0 
L 697 0 
L 697 3053 
L 147 3053 
L 147 3500 
L 697 3500 
L 697 3744 
Q 697 4328 969 4595 
Q 1241 4863 1831 4863 
L 2375 4863 
z
" transform="scale(0.015625)"/>
      <path id="DejaVuSans-72" d="M 2631 2963 
Q 2534 3019 2420 3045 
Q 2306 3072 2169 3072 
Q 1681 3072 1420 2755 
Q 1159 2438 1159 1844 
L 1159 0 
L 581 0 
L 581 3500 
L 1159 3500 
L 1159 2956 
Q 1341 3275 1631 3429 
Q 1922 3584 2338 3584 
Q 2397 3584 2469 3576 
Q 2541 3569 2628 3553 
L 2631 2963 
z
" transform="scale(0.015625)"/>
      <path id="DejaVuSans-6d" d="M 3328 2828 
Q 3544 3216 3844 3400 
Q 4144 3584 4550 3584 
Q 5097 3584 5394 3201 
Q 5691 2819 5691 2113 
L 5691 0 
L 5113 0 
L 5113 2094 
Q 5113 2597 4934 2840 
Q 4756 3084 4391 3084 
Q 3944 3084 3684 2787 
Q 3425 2491 3425 1978 
L 3425 0 
L 2847 0 
L 2847 2094 
Q 2847 2600 2669 2842 
Q 2491 3084 2119 3084 
Q 1678 3084 1418 2786 
Q 1159 2488 1159 1978 
L 1159 0 
L 581 0 
L 581 3500 
L 1159 3500 
L 1159 2956 
Q 1356 3278 1631 3431 
Q 1906 3584 2284 3584 
Q 2666 3584 2933 3390 
Q 3200 3197 3328 2828 
z
" transform="scale(0.015625)"/>
      <path id="DejaVuSans-65" d="M 3597 1894 
L 3597 1613 
L 953 1613 
Q 991 1019 1311 708 
Q 1631 397 2203 397 
Q 2534 397 2845 478 
Q 3156 559 3463 722 
L 3463 178 
Q 3153 47 2828 -22 
Q 2503 -91 2169 -91 
Q 1331 -91 842 396 
Q 353 884 353 1716 
Q 353 2575 817 3079 
Q 1281 3584 2069 3584 
Q 2775 3584 3186 3129 
Q 3597 2675 3597 1894 
z
M 3022 2063 
Q 3016 2534 2758 2815 
Q 2500 3097 2075 3097 
Q 1594 3097 1305 2825 
Q 1016 2553 972 2059 
L 3022 2063 
z
" transform="scale(0.015625)"/>
      <path id="DejaVuSans-64" d="M 2906 2969 
L 2906 4863 
L 3481 4863 
L 3481 0 
L 2906 0 
L 2906 525 
Q 2725 213 2448 61 
Q 2172 -91 1784 -91 
Q 1150 -91 751 415 
Q 353 922 353 1747 
Q 353 2572 751 3078 
Q 1150 3584 1784 3584 
Q 2172 3584 2448 3432 
Q 2725 3281 2906 2969 
z
M 947 1747 
Q 947 1113 1208 752 
Q 1469 391 1925 391 
Q 2381 391 2643 752 
Q 2906 1113 2906 1747 
Q 2906 2381 2643 2742 
Q 2381 3103 1925 3103 
Q 1469 3103 1208 2742 
Q 947 2381 947 1747 
z
" transform="scale(0.015625)"/>
      <path id="DejaVuSans-73" d="M 2834 3397 
L 2834 2853 
Q 2591 2978 2328 3040 
Q 2066 3103 1784 3103 
Q 1356 3103 1142 2972 
Q 928 2841 928 2578 
Q 928 2378 1081 2264 
Q 1234 2150 1697 2047 
L 1894 2003 
Q 2506 1872 2764 1633 
Q 3022 1394 3022 966 
Q 3022 478 2636 193 
Q 2250 -91 1575 -91 
Q 1294 -91 989 -36 
Q 684 19 347 128 
L 347 722 
Q 666 556 975 473 
Q 1284 391 1588 391 
Q 1994 391 2212 530 
Q 2431 669 2431 922 
Q 2431 1156 2273 1281 
Q 2116 1406 1581 1522 
L 1381 1569 
Q 847 1681 609 1914 
Q 372 2147 372 2553 
Q 372 3047 722 3315 
Q 1072 3584 1716 3584 
Q 2034 3584 2315 3537 
Q 2597 3491 2834 3397 
z
" transform="scale(0.015625)"/>
      <path id="DejaVuSans-46" d="M 628 4666 
L 3309 4666 
L 3309 4134 
L 1259 4134 
L 1259 2759 
L 3109 2759 
L 3109 2228 
L 1259 2228 
L 1259 0 
L 628 0 
L 628 4666 
z
" transform="scale(0.015625)"/>
      <path id="DejaVuSans-63" d="M 3122 3366 
L 3122 2828 
Q 2878 2963 2633 3030 
Q 2388 3097 2138 3097 
Q 1578 3097 1268 2742 
Q 959 2388 959 1747 
Q 959 1106 1268 751 
Q 1578 397 2138 397 
Q 2388 397 2633 464 
Q 2878 531 3122 666 
L 3122 134 
Q 2881 22 2623 -34 
Q 2366 -91 2075 -91 
Q 1284 -91 818 406 
Q 353 903 353 1747 
Q 353 2603 823 3093 
Q 1294 3584 2113 3584 
Q 2378 3584 2631 3529 
Q 2884 3475 3122 3366 
z
" transform="scale(0.015625)"/>
      <path id="DejaVuSans-74" d="M 1172 4494 
L 1172 3500 
L 2356 3500 
L 2356 3053 
L 1172 3053 
L 1172 1153 
Q 1172 725 1289 603 
Q 1406 481 1766 481 
L 2356 481 
L 2356 0 
L 1766 0 
Q 1100 0 847 248 
Q 594 497 594 1153 
L 594 3053 
L 172 3053 
L 172 3500 
L 594 3500 
L 594 4494 
L 1172 4494 
z
" transform="scale(0.015625)"/>
      <path id="DejaVuSans-67" d="M 2906 1791 
Q 2906 2416 2648 2759 
Q 2391 3103 1925 3103 
Q 1463 3103 1205 2759 
Q 947 2416 947 1791 
Q 947 1169 1205 825 
Q 1463 481 1925 481 
Q 2391 481 2648 825 
Q 2906 1169 2906 1791 
z
M 3481 434 
Q 3481 -459 3084 -895 
Q 2688 -1331 1869 -1331 
Q 1566 -1331 1297 -1286 
Q 1028 -1241 775 -1147 
L 775 -588 
Q 1028 -725 1275 -790 
Q 1522 -856 1778 -856 
Q 2344 -856 2625 -561 
Q 2906 -266 2906 331 
L 2906 616 
Q 2728 306 2450 153 
Q 2172 0 1784 0 
Q 1141 0 747 490 
Q 353 981 353 1791 
Q 353 2603 747 3093 
Q 1141 3584 1784 3584 
Q 2172 3584 2450 3431 
Q 2728 3278 2906 2969 
L 2906 3500 
L 3481 3500 
L 3481 434 
z
" transform="scale(0.015625)"/>
      <path id="DejaVuSans-4b" d="M 628 4666 
L 1259 4666 
L 1259 2694 
L 3353 4666 
L 4166 4666 
L 1850 2491 
L 4331 0 
L 3500 0 
L 1259 2247 
L 1259 0 
L 628 0 
L 628 4666 
z
" transform="scale(0.015625)"/>
     </defs>
     <use xlink:href="#DejaVuSans-44"/>
     <use xlink:href="#DejaVuSans-61" x="77.001953"/>
     <use xlink:href="#DejaVuSans-69" x="138.28125"/>
     <use xlink:href="#DejaVuSans-6c" x="166.064453"/>
     <use xlink:href="#DejaVuSans-79" x="193.847656"/>
     <use xlink:href="#DejaVuSans-20" x="253.027344"/>
     <use xlink:href="#DejaVuSans-43" x="284.814453"/>
     <use xlink:href="#DejaVuSans-6f" x="354.638672"/>
     <use xlink:href="#DejaVuSans-6e" x="415.820312"/>
     <use xlink:href="#DejaVuSans-66" x="479.199219"/>
     <use xlink:href="#DejaVuSans-69" x="514.404297"/>
     <use xlink:href="#DejaVuSans-72" x="542.1875"/>
     <use xlink:href="#DejaVuSans-6d" x="581.550781"/>
     <use xlink:href="#DejaVuSans-65" x="678.962891"/>
     <use xlink:href="#DejaVuSans-64" x="740.486328"/>
     <use xlink:href="#DejaVuSans-20" x="803.962891"/>
     <use xlink:href="#DejaVuSans-43" x="835.75"/>
     <use xlink:href="#DejaVuSans-61" x="905.574219"/>
     <use xlink:href="#DejaVuSans-73" x="966.853516"/>
     <use xlink:href="#DejaVuSans-65" x="1018.953125"/>
     <use xlink:href="#DejaVuSans-73" x="1080.476562"/>
     <use xlink:href="#DejaVuSans-20" x="1132.576172"/>
     <use xlink:href="#DejaVuSans-46" x="1164.363281"/>
     <use xlink:href="#DejaVuSans-6f" x="1218.257812"/>
     <use xlink:href="#DejaVuSans-72" x="1279.439453"/>
     <use xlink:href="#DejaVuSans-65" x="1318.302734"/>
     <use xlink:href="#DejaVuSans-63" x="1379.826172"/>
     <use xlink:href="#DejaVuSans-61" x="1434.806641"/>
     <use xlink:href="#DejaVuSans-73" x="1496.085938"/>
     <use xlink:href="#DejaVuSans-74" x="1548.185547"/>
     <use xlink:href="#DejaVuSans-69" x="1587.394531"/>
     <use xlink:href="#DejaVuSans-6e" x="1615.177734"/>
     <use xlink:href="#DejaVuSans-67" x="1678.556641"/>
     <use xlink:href="#DejaVuSans-20" x="1742.033203"/>
     <use xlink:href="#DejaVuSans-2d" x="1773.820312"/>
     <use xlink:href="#DejaVuSans-20" x="1809.904297"/>
     <use xlink:href="#DejaVuSans-4b" x="1841.691406"/>
     <use xlink:href="#DejaVuSans-65" x="1902.267578"/>
     <use xlink:href="#DejaVuSans-6e" x="1963.791016"/>
     <use xlink:href="#DejaVuSans-79" x="2027.169922"/>
     <use xlink:href="#DejaVuSans-61" x="2086.349609"/>
    </g>
    <!-- ARIMA (3, 1, 1)x(1, 0, 1, 7) (R2 = 0.868240) -->
    <g transform="translate(577.265938 29.7555)scale(0.12 -0.12)">
     <defs>
      <path id="DejaVuSans-41" d="M 2188 4044 
L 1331 1722 
L 3047 1722 
L 2188 4044 
z
M 1831 4666 
L 2547 4666 
L 4325 0 
L 3669 0 
L 3244 1197 
L 1141 1197 
L 716 0 
L 50 0 
L 1831 4666 
z
" transform="scale(0.015625)"/>
      <path id="DejaVuSans-52" d="M 2841 2188 
Q 3044 2119 3236 1894 
Q 3428 1669 3622 1275 
L 4263 0 
L 3584 0 
L 2988 1197 
Q 2756 1666 2539 1819 
Q 2322 1972 1947 1972 
L 1259 1972 
L 1259 0 
L 628 0 
L 628 4666 
L 2053 4666 
Q 2853 4666 3247 4331 
Q 3641 3997 3641 3322 
Q 3641 2881 3436 2590 
Q 3231 2300 2841 2188 
z
M 1259 4147 
L 1259 2491 
L 2053 2491 
Q 2509 2491 2742 2702 
Q 2975 2913 2975 3322 
Q 2975 3731 2742 3939 
Q 2509 4147 2053 4147 
L 1259 4147 
z
" transform="scale(0.015625)"/>
      <path id="DejaVuSans-49" d="M 628 4666 
L 1259 4666 
L 1259 0 
L 628 0 
L 628 4666 
z
" transform="scale(0.015625)"/>
      <path id="DejaVuSans-4d" d="M 628 4666 
L 1569 4666 
L 2759 1491 
L 3956 4666 
L 4897 4666 
L 4897 0 
L 4281 0 
L 4281 4097 
L 3078 897 
L 2444 897 
L 1241 4097 
L 1241 0 
L 628 0 
L 628 4666 
z
" transform="scale(0.015625)"/>
      <path id="DejaVuSans-28" d="M 1984 4856 
Q 1566 4138 1362 3434 
Q 1159 2731 1159 2009 
Q 1159 1288 1364 580 
Q 1569 -128 1984 -844 
L 1484 -844 
Q 1016 -109 783 600 
Q 550 1309 550 2009 
Q 550 2706 781 3412 
Q 1013 4119 1484 4856 
L 1984 4856 
z
" transform="scale(0.015625)"/>
      <path id="DejaVuSans-2c" d="M 750 794 
L 1409 794 
L 1409 256 
L 897 -744 
L 494 -744 
L 750 256 
L 750 794 
z
" transform="scale(0.015625)"/>
      <path id="DejaVuSans-29" d="M 513 4856 
L 1013 4856 
Q 1481 4119 1714 3412 
Q 1947 2706 1947 2009 
Q 1947 1309 1714 600 
Q 1481 -109 1013 -844 
L 513 -844 
Q 928 -128 1133 580 
Q 1338 1288 1338 2009 
Q 1338 2731 1133 3434 
Q 928 4138 513 4856 
z
" transform="scale(0.015625)"/>
      <path id="DejaVuSans-78" d="M 3513 3500 
L 2247 1797 
L 3578 0 
L 2900 0 
L 1881 1375 
L 863 0 
L 184 0 
L 1544 1831 
L 300 3500 
L 978 3500 
L 1906 2253 
L 2834 3500 
L 3513 3500 
z
" transform="scale(0.015625)"/>
      <path id="DejaVuSans-3d" d="M 678 2906 
L 4684 2906 
L 4684 2381 
L 678 2381 
L 678 2906 
z
M 678 1631 
L 4684 1631 
L 4684 1100 
L 678 1100 
L 678 1631 
z
" transform="scale(0.015625)"/>
      <path id="DejaVuSans-2e" d="M 684 794 
L 1344 794 
L 1344 0 
L 684 0 
L 684 794 
z
" transform="scale(0.015625)"/>
      <path id="DejaVuSans-38" d="M 2034 2216 
Q 1584 2216 1326 1975 
Q 1069 1734 1069 1313 
Q 1069 891 1326 650 
Q 1584 409 2034 409 
Q 2484 409 2743 651 
Q 3003 894 3003 1313 
Q 3003 1734 2745 1975 
Q 2488 2216 2034 2216 
z
M 1403 2484 
Q 997 2584 770 2862 
Q 544 3141 544 3541 
Q 544 4100 942 4425 
Q 1341 4750 2034 4750 
Q 2731 4750 3128 4425 
Q 3525 4100 3525 3541 
Q 3525 3141 3298 2862 
Q 3072 2584 2669 2484 
Q 3125 2378 3379 2068 
Q 3634 1759 3634 1313 
Q 3634 634 3220 271 
Q 2806 -91 2034 -91 
Q 1263 -91 848 271 
Q 434 634 434 1313 
Q 434 1759 690 2068 
Q 947 2378 1403 2484 
z
M 1172 3481 
Q 1172 3119 1398 2916 
Q 1625 2713 2034 2713 
Q 2441 2713 2670 2916 
Q 2900 3119 2900 3481 
Q 2900 3844 2670 4047 
Q 2441 4250 2034 4250 
Q 1625 4250 1398 4047 
Q 1172 3844 1172 3481 
z
" transform="scale(0.015625)"/>
      <path id="DejaVuSans-36" d="M 2113 2584 
Q 1688 2584 1439 2293 
Q 1191 2003 1191 1497 
Q 1191 994 1439 701 
Q 1688 409 2113 409 
Q 2538 409 2786 701 
Q 3034 994 3034 1497 
Q 3034 2003 2786 2293 
Q 2538 2584 2113 2584 
z
M 3366 4563 
L 3366 3988 
Q 3128 4100 2886 4159 
Q 2644 4219 2406 4219 
Q 1781 4219 1451 3797 
Q 1122 3375 1075 2522 
Q 1259 2794 1537 2939 
Q 1816 3084 2150 3084 
Q 2853 3084 3261 2657 
Q 3669 2231 3669 1497 
Q 3669 778 3244 343 
Q 2819 -91 2113 -91 
Q 1303 -91 875 529 
Q 447 1150 447 2328 
Q 447 3434 972 4092 
Q 1497 4750 2381 4750 
Q 2619 4750 2861 4703 
Q 3103 4656 3366 4563 
z
" transform="scale(0.015625)"/>
     </defs>
     <use xlink:href="#DejaVuSans-41"/>
     <use xlink:href="#DejaVuSans-52" x="68.408203"/>
     <use xlink:href="#DejaVuSans-49" x="137.890625"/>
     <use xlink:href="#DejaVuSans-4d" x="167.382812"/>
     <use xlink:href="#DejaVuSans-41" x="253.662109"/>
     <use xlink:href="#DejaVuSans-20" x="322.070312"/>
     <use xlink:href="#DejaVuSans-28" x="353.857422"/>
     <use xlink:href="#DejaVuSans-33" x="392.871094"/>
     <use xlink:href="#DejaVuSans-2c" x="456.494141"/>
     <use xlink:href="#DejaVuSans-20" x="488.28125"/>
     <use xlink:href="#DejaVuSans-31" x="520.068359"/>
     <use xlink:href="#DejaVuSans-2c" x="583.691406"/>
     <use xlink:href="#DejaVuSans-20" x="615.478516"/>
     <use xlink:href="#DejaVuSans-31" x="647.265625"/>
     <use xlink:href="#DejaVuSans-29" x="710.888672"/>
     <use xlink:href="#DejaVuSans-78" x="749.902344"/>
     <use xlink:href="#DejaVuSans-28" x="809.082031"/>
     <use xlink:href="#DejaVuSans-31" x="848.095703"/>
     <use xlink:href="#DejaVuSans-2c" x="911.71875"/>
     <use xlink:href="#DejaVuSans-20" x="943.505859"/>
     <use xlink:href="#DejaVuSans-30" x="975.292969"/>
     <use xlink:href="#DejaVuSans-2c" x="1038.916016"/>
     <use xlink:href="#DejaVuSans-20" x="1070.703125"/>
     <use xlink:href="#DejaVuSans-31" x="1102.490234"/>
     <use xlink:href="#DejaVuSans-2c" x="1166.113281"/>
     <use xlink:href="#DejaVuSans-20" x="1197.900391"/>
     <use xlink:href="#DejaVuSans-37" x="1229.6875"/>
     <use xlink:href="#DejaVuSans-29" x="1293.310547"/>
     <use xlink:href="#DejaVuSans-20" x="1332.324219"/>
     <use xlink:href="#DejaVuSans-28" x="1364.111328"/>
     <use xlink:href="#DejaVuSans-52" x="1403.125"/>
     <use xlink:href="#DejaVuSans-32" x="1472.607422"/>
     <use xlink:href="#DejaVuSans-20" x="1536.230469"/>
     <use xlink:href="#DejaVuSans-3d" x="1568.017578"/>
     <use xlink:href="#DejaVuSans-20" x="1651.806641"/>
     <use xlink:href="#DejaVuSans-30" x="1683.59375"/>
     <use xlink:href="#DejaVuSans-2e" x="1747.216797"/>
     <use xlink:href="#DejaVuSans-38" x="1779.003906"/>
     <use xlink:href="#DejaVuSans-36" x="1842.626953"/>
     <use xlink:href="#DejaVuSans-38" x="1906.25"/>
     <use xlink:href="#DejaVuSans-32" x="1969.873047"/>
     <use xlink:href="#DejaVuSans-34" x="2033.496094"/>
     <use xlink:href="#DejaVuSans-30" x="2097.119141"/>
     <use xlink:href="#DejaVuSans-29" x="2160.742188"/>
    </g>
   </g>
   <g id="legend_1">
    <g id="patch_7">
     <path d="M 1274.770313 87.789875 
L 1371.85 87.789875 
Q 1373.85 87.789875 1373.85 85.789875 
L 1373.85 42.7555 
Q 1373.85 40.7555 1371.85 40.7555 
L 1274.770313 40.7555 
Q 1272.770313 40.7555 1272.770313 42.7555 
L 1272.770313 85.789875 
Q 1272.770313 87.789875 1274.770313 87.789875 
z
" style="fill: #ffffff; opacity: 0.8; stroke: #cccccc; stroke-linejoin: miter"/>
    </g>
    <g id="line2d_23">
     <path d="M 1276.770313 48.853937 
L 1286.770313 48.853937 
L 1296.770313 48.853937 
" style="fill: none; stroke: #0000ff; stroke-width: 1.5; stroke-linecap: square"/>
    </g>
    <g id="text_21">
     <!-- Actual Value -->
     <g transform="translate(1304.770313 52.353937)scale(0.1 -0.1)">
      <defs>
       <path id="DejaVuSans-75" d="M 544 1381 
L 544 3500 
L 1119 3500 
L 1119 1403 
Q 1119 906 1312 657 
Q 1506 409 1894 409 
Q 2359 409 2629 706 
Q 2900 1003 2900 1516 
L 2900 3500 
L 3475 3500 
L 3475 0 
L 2900 0 
L 2900 538 
Q 2691 219 2414 64 
Q 2138 -91 1772 -91 
Q 1169 -91 856 284 
Q 544 659 544 1381 
z
M 1991 3584 
L 1991 3584 
z
" transform="scale(0.015625)"/>
       <path id="DejaVuSans-56" d="M 1831 0 
L 50 4666 
L 709 4666 
L 2188 738 
L 3669 4666 
L 4325 4666 
L 2547 0 
L 1831 0 
z
" transform="scale(0.015625)"/>
      </defs>
      <use xlink:href="#DejaVuSans-41"/>
      <use xlink:href="#DejaVuSans-63" x="66.658203"/>
      <use xlink:href="#DejaVuSans-74" x="121.638672"/>
      <use xlink:href="#DejaVuSans-75" x="160.847656"/>
      <use xlink:href="#DejaVuSans-61" x="224.226562"/>
      <use xlink:href="#DejaVuSans-6c" x="285.505859"/>
      <use xlink:href="#DejaVuSans-20" x="313.289062"/>
      <use xlink:href="#DejaVuSans-56" x="345.076172"/>
      <use xlink:href="#DejaVuSans-61" x="405.734375"/>
      <use xlink:href="#DejaVuSans-6c" x="467.013672"/>
      <use xlink:href="#DejaVuSans-75" x="494.796875"/>
      <use xlink:href="#DejaVuSans-65" x="558.175781"/>
     </g>
    </g>
    <g id="line2d_24">
     <path d="M 1276.770313 63.532062 
L 1286.770313 63.532062 
L 1296.770313 63.532062 
" style="fill: none; stroke: #ffa500; stroke-width: 1.5; stroke-linecap: square"/>
    </g>
    <g id="text_22">
     <!-- Check Value -->
     <g transform="translate(1304.770313 67.032062)scale(0.1 -0.1)">
      <defs>
       <path id="DejaVuSans-68" d="M 3513 2113 
L 3513 0 
L 2938 0 
L 2938 2094 
Q 2938 2591 2744 2837 
Q 2550 3084 2163 3084 
Q 1697 3084 1428 2787 
Q 1159 2491 1159 1978 
L 1159 0 
L 581 0 
L 581 4863 
L 1159 4863 
L 1159 2956 
Q 1366 3272 1645 3428 
Q 1925 3584 2291 3584 
Q 2894 3584 3203 3211 
Q 3513 2838 3513 2113 
z
" transform="scale(0.015625)"/>
       <path id="DejaVuSans-6b" d="M 581 4863 
L 1159 4863 
L 1159 1991 
L 2875 3500 
L 3609 3500 
L 1753 1863 
L 3688 0 
L 2938 0 
L 1159 1709 
L 1159 0 
L 581 0 
L 581 4863 
z
" transform="scale(0.015625)"/>
      </defs>
      <use xlink:href="#DejaVuSans-43"/>
      <use xlink:href="#DejaVuSans-68" x="69.824219"/>
      <use xlink:href="#DejaVuSans-65" x="133.203125"/>
      <use xlink:href="#DejaVuSans-63" x="194.726562"/>
      <use xlink:href="#DejaVuSans-6b" x="249.707031"/>
      <use xlink:href="#DejaVuSans-20" x="307.617188"/>
      <use xlink:href="#DejaVuSans-56" x="339.404297"/>
      <use xlink:href="#DejaVuSans-61" x="400.0625"/>
      <use xlink:href="#DejaVuSans-6c" x="461.341797"/>
      <use xlink:href="#DejaVuSans-75" x="489.125"/>
      <use xlink:href="#DejaVuSans-65" x="552.503906"/>
     </g>
    </g>
    <g id="line2d_25">
     <path d="M 1276.770313 78.210187 
L 1286.770313 78.210187 
L 1296.770313 78.210187 
" style="fill: none; stroke: #ff0000; stroke-width: 1.5; stroke-linecap: square"/>
    </g>
    <g id="text_23">
     <!-- Predict Value -->
     <g transform="translate(1304.770313 81.710187)scale(0.1 -0.1)">
      <defs>
       <path id="DejaVuSans-50" d="M 1259 4147 
L 1259 2394 
L 2053 2394 
Q 2494 2394 2734 2622 
Q 2975 2850 2975 3272 
Q 2975 3691 2734 3919 
Q 2494 4147 2053 4147 
L 1259 4147 
z
M 628 4666 
L 2053 4666 
Q 2838 4666 3239 4311 
Q 3641 3956 3641 3272 
Q 3641 2581 3239 2228 
Q 2838 1875 2053 1875 
L 1259 1875 
L 1259 0 
L 628 0 
L 628 4666 
z
" transform="scale(0.015625)"/>
      </defs>
      <use xlink:href="#DejaVuSans-50"/>
      <use xlink:href="#DejaVuSans-72" x="58.552734"/>
      <use xlink:href="#DejaVuSans-65" x="97.416016"/>
      <use xlink:href="#DejaVuSans-64" x="158.939453"/>
      <use xlink:href="#DejaVuSans-69" x="222.416016"/>
      <use xlink:href="#DejaVuSans-63" x="250.199219"/>
      <use xlink:href="#DejaVuSans-74" x="305.179688"/>
      <use xlink:href="#DejaVuSans-20" x="344.388672"/>
      <use xlink:href="#DejaVuSans-56" x="376.175781"/>
      <use xlink:href="#DejaVuSans-61" x="436.833984"/>
      <use xlink:href="#DejaVuSans-6c" x="498.113281"/>
      <use xlink:href="#DejaVuSans-75" x="525.896484"/>
      <use xlink:href="#DejaVuSans-65" x="589.275391"/>
     </g>
    </g>
   </g>
  </g>
 </g>
 <defs>
  <clipPath id="pb2d5ccf841">
   <rect x="39.65" y="35.7555" width="1339.2" height="332.64"/>
  </clipPath>
 </defs>
</svg>
