<?xml version="1.0" encoding="utf-8" standalone="no"?>
<!DOCTYPE svg PUBLIC "-//W3C//DTD SVG 1.1//EN"
  "http://www.w3.org/Graphics/SVG/1.1/DTD/svg11.dtd">
<svg xmlns:xlink="http://www.w3.org/1999/xlink" width="1386.05pt" height="392.273625pt" viewBox="0 0 1386.05 392.273625" xmlns="http://www.w3.org/2000/svg" version="1.1">
 <metadata>
  <rdf:RDF xmlns:dc="http://purl.org/dc/elements/1.1/" xmlns:cc="http://creativecommons.org/ns#" xmlns:rdf="http://www.w3.org/1999/02/22-rdf-syntax-ns#">
   <cc:Work>
    <dc:type rdf:resource="http://purl.org/dc/dcmitype/StillImage"/>
    <dc:date>2022-07-09T20:00:54.845279</dc:date>
    <dc:format>image/svg+xml</dc:format>
    <dc:creator>
     <cc:Agent>
      <dc:title>Matplotlib v3.5.2, https://matplotlib.org/</dc:title>
     </cc:Agent>
    </dc:creator>
   </cc:Work>
  </rdf:RDF>
 </metadata>
 <defs>
  <style type="text/css">*{stroke-linejoin: round; stroke-linecap: butt}</style>
 </defs>
 <g id="figure_1">
  <g id="patch_1">
   <path d="M 0 392.273625 
L 1386.05 392.273625 
L 1386.05 0 
L 0 0 
z
" style="fill: #ffffff"/>
  </g>
  <g id="axes_1">
   <g id="patch_2">
    <path d="M 39.65 368.3955 
L 1378.85 368.3955 
L 1378.85 35.7555 
L 39.65 35.7555 
z
" style="fill: #ffffff"/>
   </g>
   <g id="matplotlib.axis_1">
    <g id="xtick_1">
     <g id="line2d_1">
      <defs>
       <path id="m107162d2be" d="M 0 0 
L 0 3.5 
" style="stroke: #000000; stroke-width: 0.8"/>
      </defs>
      <g>
       <use xlink:href="#m107162d2be" x="71.08976" y="368.3955" style="stroke: #000000; stroke-width: 0.8"/>
      </g>
     </g>
     <g id="text_1">
      <!-- 2020-01 -->
      <g transform="translate(50.198354 382.993937)scale(0.1 -0.1)">
       <defs>
        <path id="DejaVuSans-32" d="M 1228 531 
L 3431 531 
L 3431 0 
L 469 0 
L 469 531 
Q 828 903 1448 1529 
Q 2069 2156 2228 2338 
Q 2531 2678 2651 2914 
Q 2772 3150 2772 3378 
Q 2772 3750 2511 3984 
Q 2250 4219 1831 4219 
Q 1534 4219 1204 4116 
Q 875 4013 500 3803 
L 500 4441 
Q 881 4594 1212 4672 
Q 1544 4750 1819 4750 
Q 2544 4750 2975 4387 
Q 3406 4025 3406 3419 
Q 3406 3131 3298 2873 
Q 3191 2616 2906 2266 
Q 2828 2175 2409 1742 
Q 1991 1309 1228 531 
z
" transform="scale(0.015625)"/>
        <path id="DejaVuSans-30" d="M 2034 4250 
Q 1547 4250 1301 3770 
Q 1056 3291 1056 2328 
Q 1056 1369 1301 889 
Q 1547 409 2034 409 
Q 2525 409 2770 889 
Q 3016 1369 3016 2328 
Q 3016 3291 2770 3770 
Q 2525 4250 2034 4250 
z
M 2034 4750 
Q 2819 4750 3233 4129 
Q 3647 3509 3647 2328 
Q 3647 1150 3233 529 
Q 2819 -91 2034 -91 
Q 1250 -91 836 529 
Q 422 1150 422 2328 
Q 422 3509 836 4129 
Q 1250 4750 2034 4750 
z
" transform="scale(0.015625)"/>
        <path id="DejaVuSans-2d" d="M 313 2009 
L 1997 2009 
L 1997 1497 
L 313 1497 
L 313 2009 
z
" transform="scale(0.015625)"/>
        <path id="DejaVuSans-31" d="M 794 531 
L 1825 531 
L 1825 4091 
L 703 3866 
L 703 4441 
L 1819 4666 
L 2450 4666 
L 2450 531 
L 3481 531 
L 3481 0 
L 794 0 
L 794 531 
z
" transform="scale(0.015625)"/>
       </defs>
       <use xlink:href="#DejaVuSans-32"/>
       <use xlink:href="#DejaVuSans-30" x="63.623047"/>
       <use xlink:href="#DejaVuSans-32" x="127.246094"/>
       <use xlink:href="#DejaVuSans-30" x="190.869141"/>
       <use xlink:href="#DejaVuSans-2d" x="254.492188"/>
       <use xlink:href="#DejaVuSans-30" x="290.576172"/>
       <use xlink:href="#DejaVuSans-31" x="354.199219"/>
      </g>
     </g>
    </g>
    <g id="xtick_2">
     <g id="line2d_2">
      <g>
       <use xlink:href="#m107162d2be" x="192.835215" y="368.3955" style="stroke: #000000; stroke-width: 0.8"/>
      </g>
     </g>
     <g id="text_2">
      <!-- 2020-04 -->
      <g transform="translate(171.943809 382.993937)scale(0.1 -0.1)">
       <defs>
        <path id="DejaVuSans-34" d="M 2419 4116 
L 825 1625 
L 2419 1625 
L 2419 4116 
z
M 2253 4666 
L 3047 4666 
L 3047 1625 
L 3713 1625 
L 3713 1100 
L 3047 1100 
L 3047 0 
L 2419 0 
L 2419 1100 
L 313 1100 
L 313 1709 
L 2253 4666 
z
" transform="scale(0.015625)"/>
       </defs>
       <use xlink:href="#DejaVuSans-32"/>
       <use xlink:href="#DejaVuSans-30" x="63.623047"/>
       <use xlink:href="#DejaVuSans-32" x="127.246094"/>
       <use xlink:href="#DejaVuSans-30" x="190.869141"/>
       <use xlink:href="#DejaVuSans-2d" x="254.492188"/>
       <use xlink:href="#DejaVuSans-30" x="290.576172"/>
       <use xlink:href="#DejaVuSans-34" x="354.199219"/>
      </g>
     </g>
    </g>
    <g id="xtick_3">
     <g id="line2d_3">
      <g>
       <use xlink:href="#m107162d2be" x="314.580669" y="368.3955" style="stroke: #000000; stroke-width: 0.8"/>
      </g>
     </g>
     <g id="text_3">
      <!-- 2020-07 -->
      <g transform="translate(293.689263 382.993937)scale(0.1 -0.1)">
       <defs>
        <path id="DejaVuSans-37" d="M 525 4666 
L 3525 4666 
L 3525 4397 
L 1831 0 
L 1172 0 
L 2766 4134 
L 525 4134 
L 525 4666 
z
" transform="scale(0.015625)"/>
       </defs>
       <use xlink:href="#DejaVuSans-32"/>
       <use xlink:href="#DejaVuSans-30" x="63.623047"/>
       <use xlink:href="#DejaVuSans-32" x="127.246094"/>
       <use xlink:href="#DejaVuSans-30" x="190.869141"/>
       <use xlink:href="#DejaVuSans-2d" x="254.492188"/>
       <use xlink:href="#DejaVuSans-30" x="290.576172"/>
       <use xlink:href="#DejaVuSans-37" x="354.199219"/>
      </g>
     </g>
    </g>
    <g id="xtick_4">
     <g id="line2d_4">
      <g>
       <use xlink:href="#m107162d2be" x="437.663986" y="368.3955" style="stroke: #000000; stroke-width: 0.8"/>
      </g>
     </g>
     <g id="text_4">
      <!-- 2020-10 -->
      <g transform="translate(416.77258 382.993937)scale(0.1 -0.1)">
       <use xlink:href="#DejaVuSans-32"/>
       <use xlink:href="#DejaVuSans-30" x="63.623047"/>
       <use xlink:href="#DejaVuSans-32" x="127.246094"/>
       <use xlink:href="#DejaVuSans-30" x="190.869141"/>
       <use xlink:href="#DejaVuSans-2d" x="254.492188"/>
       <use xlink:href="#DejaVuSans-31" x="290.576172"/>
       <use xlink:href="#DejaVuSans-30" x="354.199219"/>
      </g>
     </g>
    </g>
    <g id="xtick_5">
     <g id="line2d_5">
      <g>
       <use xlink:href="#m107162d2be" x="560.747303" y="368.3955" style="stroke: #000000; stroke-width: 0.8"/>
      </g>
     </g>
     <g id="text_5">
      <!-- 2021-01 -->
      <g transform="translate(539.855896 382.993937)scale(0.1 -0.1)">
       <use xlink:href="#DejaVuSans-32"/>
       <use xlink:href="#DejaVuSans-30" x="63.623047"/>
       <use xlink:href="#DejaVuSans-32" x="127.246094"/>
       <use xlink:href="#DejaVuSans-31" x="190.869141"/>
       <use xlink:href="#DejaVuSans-2d" x="254.492188"/>
       <use xlink:href="#DejaVuSans-30" x="290.576172"/>
       <use xlink:href="#DejaVuSans-31" x="354.199219"/>
      </g>
     </g>
    </g>
    <g id="xtick_6">
     <g id="line2d_6">
      <g>
       <use xlink:href="#m107162d2be" x="681.154895" y="368.3955" style="stroke: #000000; stroke-width: 0.8"/>
      </g>
     </g>
     <g id="text_6">
      <!-- 2021-04 -->
      <g transform="translate(660.263489 382.993937)scale(0.1 -0.1)">
       <use xlink:href="#DejaVuSans-32"/>
       <use xlink:href="#DejaVuSans-30" x="63.623047"/>
       <use xlink:href="#DejaVuSans-32" x="127.246094"/>
       <use xlink:href="#DejaVuSans-31" x="190.869141"/>
       <use xlink:href="#DejaVuSans-2d" x="254.492188"/>
       <use xlink:href="#DejaVuSans-30" x="290.576172"/>
       <use xlink:href="#DejaVuSans-34" x="354.199219"/>
      </g>
     </g>
    </g>
    <g id="xtick_7">
     <g id="line2d_7">
      <g>
       <use xlink:href="#m107162d2be" x="802.90035" y="368.3955" style="stroke: #000000; stroke-width: 0.8"/>
      </g>
     </g>
     <g id="text_7">
      <!-- 2021-07 -->
      <g transform="translate(782.008943 382.993937)scale(0.1 -0.1)">
       <use xlink:href="#DejaVuSans-32"/>
       <use xlink:href="#DejaVuSans-30" x="63.623047"/>
       <use xlink:href="#DejaVuSans-32" x="127.246094"/>
       <use xlink:href="#DejaVuSans-31" x="190.869141"/>
       <use xlink:href="#DejaVuSans-2d" x="254.492188"/>
       <use xlink:href="#DejaVuSans-30" x="290.576172"/>
       <use xlink:href="#DejaVuSans-37" x="354.199219"/>
      </g>
     </g>
    </g>
    <g id="xtick_8">
     <g id="line2d_8">
      <g>
       <use xlink:href="#m107162d2be" x="925.983666" y="368.3955" style="stroke: #000000; stroke-width: 0.8"/>
      </g>
     </g>
     <g id="text_8">
      <!-- 2021-10 -->
      <g transform="translate(905.09226 382.993937)scale(0.1 -0.1)">
       <use xlink:href="#DejaVuSans-32"/>
       <use xlink:href="#DejaVuSans-30" x="63.623047"/>
       <use xlink:href="#DejaVuSans-32" x="127.246094"/>
       <use xlink:href="#DejaVuSans-31" x="190.869141"/>
       <use xlink:href="#DejaVuSans-2d" x="254.492188"/>
       <use xlink:href="#DejaVuSans-31" x="290.576172"/>
       <use xlink:href="#DejaVuSans-30" x="354.199219"/>
      </g>
     </g>
    </g>
    <g id="xtick_9">
     <g id="line2d_9">
      <g>
       <use xlink:href="#m107162d2be" x="1049.066983" y="368.3955" style="stroke: #000000; stroke-width: 0.8"/>
      </g>
     </g>
     <g id="text_9">
      <!-- 2022-01 -->
      <g transform="translate(1028.175577 382.993937)scale(0.1 -0.1)">
       <use xlink:href="#DejaVuSans-32"/>
       <use xlink:href="#DejaVuSans-30" x="63.623047"/>
       <use xlink:href="#DejaVuSans-32" x="127.246094"/>
       <use xlink:href="#DejaVuSans-32" x="190.869141"/>
       <use xlink:href="#DejaVuSans-2d" x="254.492188"/>
       <use xlink:href="#DejaVuSans-30" x="290.576172"/>
       <use xlink:href="#DejaVuSans-31" x="354.199219"/>
      </g>
     </g>
    </g>
    <g id="xtick_10">
     <g id="line2d_10">
      <g>
       <use xlink:href="#m107162d2be" x="1169.474575" y="368.3955" style="stroke: #000000; stroke-width: 0.8"/>
      </g>
     </g>
     <g id="text_10">
      <!-- 2022-04 -->
      <g transform="translate(1148.583169 382.993937)scale(0.1 -0.1)">
       <use xlink:href="#DejaVuSans-32"/>
       <use xlink:href="#DejaVuSans-30" x="63.623047"/>
       <use xlink:href="#DejaVuSans-32" x="127.246094"/>
       <use xlink:href="#DejaVuSans-32" x="190.869141"/>
       <use xlink:href="#DejaVuSans-2d" x="254.492188"/>
       <use xlink:href="#DejaVuSans-30" x="290.576172"/>
       <use xlink:href="#DejaVuSans-34" x="354.199219"/>
      </g>
     </g>
    </g>
    <g id="xtick_11">
     <g id="line2d_11">
      <g>
       <use xlink:href="#m107162d2be" x="1291.22003" y="368.3955" style="stroke: #000000; stroke-width: 0.8"/>
      </g>
     </g>
     <g id="text_11">
      <!-- 2022-07 -->
      <g transform="translate(1270.328624 382.993937)scale(0.1 -0.1)">
       <use xlink:href="#DejaVuSans-32"/>
       <use xlink:href="#DejaVuSans-30" x="63.623047"/>
       <use xlink:href="#DejaVuSans-32" x="127.246094"/>
       <use xlink:href="#DejaVuSans-32" x="190.869141"/>
       <use xlink:href="#DejaVuSans-2d" x="254.492188"/>
       <use xlink:href="#DejaVuSans-30" x="290.576172"/>
       <use xlink:href="#DejaVuSans-37" x="354.199219"/>
      </g>
     </g>
    </g>
   </g>
   <g id="matplotlib.axis_2">
    <g id="ytick_1">
     <g id="line2d_12">
      <defs>
       <path id="m9b9795819e" d="M 0 0 
L -3.5 0 
" style="stroke: #000000; stroke-width: 0.8"/>
      </defs>
      <g>
       <use xlink:href="#m9b9795819e" x="39.65" y="353.210148" style="stroke: #000000; stroke-width: 0.8"/>
      </g>
     </g>
     <g id="text_12">
      <!-- 0 -->
      <g transform="translate(26.2875 357.009366)scale(0.1 -0.1)">
       <use xlink:href="#DejaVuSans-30"/>
      </g>
     </g>
    </g>
    <g id="ytick_2">
     <g id="line2d_13">
      <g>
       <use xlink:href="#m9b9795819e" x="39.65" y="304.002034" style="stroke: #000000; stroke-width: 0.8"/>
      </g>
     </g>
     <g id="text_13">
      <!-- 500 -->
      <g transform="translate(13.5625 307.801253)scale(0.1 -0.1)">
       <defs>
        <path id="DejaVuSans-35" d="M 691 4666 
L 3169 4666 
L 3169 4134 
L 1269 4134 
L 1269 2991 
Q 1406 3038 1543 3061 
Q 1681 3084 1819 3084 
Q 2600 3084 3056 2656 
Q 3513 2228 3513 1497 
Q 3513 744 3044 326 
Q 2575 -91 1722 -91 
Q 1428 -91 1123 -41 
Q 819 9 494 109 
L 494 744 
Q 775 591 1075 516 
Q 1375 441 1709 441 
Q 2250 441 2565 725 
Q 2881 1009 2881 1497 
Q 2881 1984 2565 2268 
Q 2250 2553 1709 2553 
Q 1456 2553 1204 2497 
Q 953 2441 691 2322 
L 691 4666 
z
" transform="scale(0.015625)"/>
       </defs>
       <use xlink:href="#DejaVuSans-35"/>
       <use xlink:href="#DejaVuSans-30" x="63.623047"/>
       <use xlink:href="#DejaVuSans-30" x="127.246094"/>
      </g>
     </g>
    </g>
    <g id="ytick_3">
     <g id="line2d_14">
      <g>
       <use xlink:href="#m9b9795819e" x="39.65" y="254.793921" style="stroke: #000000; stroke-width: 0.8"/>
      </g>
     </g>
     <g id="text_14">
      <!-- 1000 -->
      <g transform="translate(7.2 258.59314)scale(0.1 -0.1)">
       <use xlink:href="#DejaVuSans-31"/>
       <use xlink:href="#DejaVuSans-30" x="63.623047"/>
       <use xlink:href="#DejaVuSans-30" x="127.246094"/>
       <use xlink:href="#DejaVuSans-30" x="190.869141"/>
      </g>
     </g>
    </g>
    <g id="ytick_4">
     <g id="line2d_15">
      <g>
       <use xlink:href="#m9b9795819e" x="39.65" y="205.585808" style="stroke: #000000; stroke-width: 0.8"/>
      </g>
     </g>
     <g id="text_15">
      <!-- 1500 -->
      <g transform="translate(7.2 209.385027)scale(0.1 -0.1)">
       <use xlink:href="#DejaVuSans-31"/>
       <use xlink:href="#DejaVuSans-35" x="63.623047"/>
       <use xlink:href="#DejaVuSans-30" x="127.246094"/>
       <use xlink:href="#DejaVuSans-30" x="190.869141"/>
      </g>
     </g>
    </g>
    <g id="ytick_5">
     <g id="line2d_16">
      <g>
       <use xlink:href="#m9b9795819e" x="39.65" y="156.377695" style="stroke: #000000; stroke-width: 0.8"/>
      </g>
     </g>
     <g id="text_16">
      <!-- 2000 -->
      <g transform="translate(7.2 160.176914)scale(0.1 -0.1)">
       <use xlink:href="#DejaVuSans-32"/>
       <use xlink:href="#DejaVuSans-30" x="63.623047"/>
       <use xlink:href="#DejaVuSans-30" x="127.246094"/>
       <use xlink:href="#DejaVuSans-30" x="190.869141"/>
      </g>
     </g>
    </g>
    <g id="ytick_6">
     <g id="line2d_17">
      <g>
       <use xlink:href="#m9b9795819e" x="39.65" y="107.169582" style="stroke: #000000; stroke-width: 0.8"/>
      </g>
     </g>
     <g id="text_17">
      <!-- 2500 -->
      <g transform="translate(7.2 110.9688)scale(0.1 -0.1)">
       <use xlink:href="#DejaVuSans-32"/>
       <use xlink:href="#DejaVuSans-35" x="63.623047"/>
       <use xlink:href="#DejaVuSans-30" x="127.246094"/>
       <use xlink:href="#DejaVuSans-30" x="190.869141"/>
      </g>
     </g>
    </g>
    <g id="ytick_7">
     <g id="line2d_18">
      <g>
       <use xlink:href="#m9b9795819e" x="39.65" y="57.961468" style="stroke: #000000; stroke-width: 0.8"/>
      </g>
     </g>
     <g id="text_18">
      <!-- 3000 -->
      <g transform="translate(7.2 61.760687)scale(0.1 -0.1)">
       <defs>
        <path id="DejaVuSans-33" d="M 2597 2516 
Q 3050 2419 3304 2112 
Q 3559 1806 3559 1356 
Q 3559 666 3084 287 
Q 2609 -91 1734 -91 
Q 1441 -91 1130 -33 
Q 819 25 488 141 
L 488 750 
Q 750 597 1062 519 
Q 1375 441 1716 441 
Q 2309 441 2620 675 
Q 2931 909 2931 1356 
Q 2931 1769 2642 2001 
Q 2353 2234 1838 2234 
L 1294 2234 
L 1294 2753 
L 1863 2753 
Q 2328 2753 2575 2939 
Q 2822 3125 2822 3475 
Q 2822 3834 2567 4026 
Q 2313 4219 1838 4219 
Q 1578 4219 1281 4162 
Q 984 4106 628 3988 
L 628 4550 
Q 988 4650 1302 4700 
Q 1616 4750 1894 4750 
Q 2613 4750 3031 4423 
Q 3450 4097 3450 3541 
Q 3450 3153 3228 2886 
Q 3006 2619 2597 2516 
z
" transform="scale(0.015625)"/>
       </defs>
       <use xlink:href="#DejaVuSans-33"/>
       <use xlink:href="#DejaVuSans-30" x="63.623047"/>
       <use xlink:href="#DejaVuSans-30" x="127.246094"/>
       <use xlink:href="#DejaVuSans-30" x="190.869141"/>
      </g>
     </g>
    </g>
   </g>
   <g id="line2d_19">
    <path d="M 100.522727 353.210148 
L 170.091558 353.210148 
L 171.429421 352.816483 
L 174.105145 353.111731 
L 175.443007 353.210148 
L 176.780869 352.324402 
L 178.118731 353.210148 
L 179.456593 353.013315 
L 180.794456 351.537072 
L 182.132318 352.816483 
L 183.47018 353.111731 
L 184.808042 352.324402 
L 186.145904 352.816483 
L 187.483766 352.61965 
L 188.821628 352.225985 
L 190.159491 353.210148 
L 191.497353 352.718067 
L 192.835215 352.521234 
L 194.173077 353.013315 
L 195.510939 352.718067 
L 196.848801 351.930737 
L 198.186663 353.013315 
L 200.862388 353.210148 
L 202.20025 352.718067 
L 203.538112 353.210148 
L 204.875974 352.422818 
L 206.213836 353.013315 
L 207.551698 352.61965 
L 208.88956 353.111731 
L 210.227423 352.521234 
L 211.565285 353.013315 
L 212.903147 353.013315 
L 214.241009 352.718067 
L 215.578871 353.111731 
L 216.916733 352.914899 
L 218.254595 353.210148 
L 219.592458 352.914899 
L 220.93032 352.914899 
L 222.268182 353.111731 
L 223.606044 351.044991 
L 224.943906 352.521234 
L 226.281768 352.422818 
L 227.61963 351.635488 
L 228.957493 352.718067 
L 230.295355 351.930737 
L 231.633217 351.438656 
L 232.971079 352.61965 
L 234.308941 352.61965 
L 238.322527 353.210148 
L 239.66039 352.521234 
L 240.998252 352.914899 
L 242.336114 353.013315 
L 243.673976 352.521234 
L 246.3497 353.111731 
L 253.039011 353.013315 
L 255.714735 352.718067 
L 257.052597 352.127569 
L 258.39046 352.61965 
L 259.728322 352.61965 
L 261.066184 353.111731 
L 262.404046 352.816483 
L 263.741908 353.013315 
L 265.07977 352.324402 
L 266.417632 352.914899 
L 267.755495 352.521234 
L 269.093357 352.914899 
L 270.431219 352.61965 
L 271.769081 352.816483 
L 273.106943 352.127569 
L 274.444805 352.521234 
L 275.782667 352.521234 
L 277.120529 351.930737 
L 278.458392 351.930737 
L 279.796254 352.225985 
L 281.134116 352.127569 
L 282.471978 352.422818 
L 283.80984 352.029153 
L 286.485564 351.930737 
L 287.823427 351.438656 
L 289.161289 351.635488 
L 290.499151 350.159245 
L 291.837013 349.175082 
L 293.174875 350.257661 
L 294.512737 350.848158 
L 295.850599 352.914899 
L 297.188462 352.521234 
L 298.526324 351.733904 
L 299.864186 349.175082 
L 301.202048 350.651326 
L 302.53991 347.40359 
L 303.877772 352.127569 
L 305.215634 350.060828 
L 307.891359 352.422818 
L 309.229221 351.241823 
L 310.567083 351.044991 
L 311.904945 343.270109 
L 313.242807 350.848158 
L 314.580669 351.537072 
L 315.918531 351.143407 
L 317.256394 351.438656 
L 318.594256 352.127569 
L 319.932118 351.930737 
L 321.26998 352.422818 
L 322.607842 347.40359 
L 323.945704 351.044991 
L 325.283566 351.635488 
L 326.621429 349.076666 
L 327.959291 348.584585 
L 329.297153 349.470331 
L 330.635015 349.175082 
L 331.972877 349.470331 
L 333.310739 351.340239 
L 334.648601 349.470331 
L 335.986464 352.029153 
L 337.324326 347.895671 
L 338.662188 348.97825 
L 340.00005 348.584585 
L 341.337912 350.651326 
L 342.675774 349.863996 
L 344.013636 351.143407 
L 345.351499 351.340239 
L 346.689361 350.946575 
L 348.027223 346.419428 
L 352.040809 349.568747 
L 353.378671 350.159245 
L 354.716533 350.454493 
L 356.054396 351.241823 
L 357.392258 351.241823 
L 358.73012 350.257661 
L 360.067982 352.521234 
L 361.405844 352.718067 
L 362.743706 352.521234 
L 364.081568 351.537072 
L 365.419431 352.61965 
L 366.757293 352.61965 
L 369.433017 351.340239 
L 370.770879 351.438656 
L 372.108741 352.127569 
L 373.446603 344.057439 
L 374.784466 347.40359 
L 376.122328 343.270109 
L 377.46019 344.647936 
L 378.798052 349.568747 
L 380.135914 346.616261 
L 381.473776 346.025763 
L 382.811638 347.009925 
L 384.1495 342.482779 
L 385.487363 333.526902 
L 386.825225 331.853827 
L 388.163087 330.475999 
L 389.500949 344.54952 
L 390.838811 348.584585 
L 392.176673 346.321012 
L 393.514535 343.270109 
L 394.852398 335.790476 
L 396.19026 348.97825 
L 397.528122 345.435266 
L 398.865984 345.730515 
L 400.203846 349.568747 
L 401.541708 348.387753 
L 402.87957 348.781418 
L 404.217433 350.749742 
L 405.555295 349.76558 
L 406.893157 350.257661 
L 408.231019 351.143407 
L 409.568881 351.340239 
L 410.906743 347.797255 
L 412.244605 350.159245 
L 413.582468 350.651326 
L 414.92033 352.127569 
L 416.258192 351.044991 
L 417.596054 352.225985 
L 418.933916 351.340239 
L 421.60964 351.438656 
L 422.947502 351.044991 
L 424.285365 352.127569 
L 425.623227 351.635488 
L 426.961089 349.175082 
L 428.298951 352.225985 
L 429.636813 352.324402 
L 430.974675 351.930737 
L 432.312537 352.324402 
L 433.6504 352.029153 
L 434.988262 352.816483 
L 440.33971 352.718067 
L 441.677572 351.832321 
L 443.015435 353.111731 
L 445.691159 352.225985 
L 447.029021 353.013315 
L 448.366883 352.718067 
L 449.704745 353.013315 
L 451.042607 352.816483 
L 452.38047 352.324402 
L 453.718332 352.914899 
L 455.056194 350.060828 
L 456.394056 351.930737 
L 457.731918 352.029153 
L 459.06978 352.61965 
L 460.407642 352.914899 
L 461.745504 351.438656 
L 463.083367 352.816483 
L 464.421229 351.635488 
L 465.759091 352.718067 
L 467.096953 349.76558 
L 468.434815 352.422818 
L 469.772677 352.61965 
L 471.110539 352.521234 
L 472.448402 352.127569 
L 473.786264 348.781418 
L 475.124126 353.013315 
L 477.79985 352.914899 
L 479.137712 352.324402 
L 480.475574 352.324402 
L 481.813437 352.521234 
L 484.489161 351.438656 
L 485.827023 351.635488 
L 487.164885 352.718067 
L 488.502747 352.324402 
L 489.840609 351.241823 
L 491.178472 351.241823 
L 492.516334 348.289336 
L 493.854196 352.521234 
L 495.192058 348.97825 
L 496.52992 350.060828 
L 497.867782 347.206758 
L 499.205644 349.667164 
L 500.543506 351.635488 
L 501.881369 349.667164 
L 503.219231 350.356077 
L 504.557093 351.832321 
L 505.894955 349.863996 
L 507.232817 348.781418 
L 508.570679 347.206758 
L 509.908541 350.848158 
L 511.246404 350.356077 
L 512.584266 346.124179 
L 513.922128 351.143407 
L 515.25999 351.340239 
L 516.597852 350.454493 
L 517.935714 351.733904 
L 519.273576 351.832321 
L 520.611439 348.683001 
L 521.949301 351.537072 
L 523.287163 350.060828 
L 524.625025 349.175082 
L 525.962887 348.781418 
L 527.300749 347.108342 
L 528.638611 348.683001 
L 529.976474 349.175082 
L 531.314336 346.222596 
L 532.652198 345.435266 
L 533.99006 343.368525 
L 535.327922 340.317622 
L 536.665784 344.54952 
L 538.003646 344.844768 
L 539.341508 341.203368 
L 540.679371 345.533682 
L 542.017233 346.025763 
L 543.355095 340.711287 
L 544.692957 347.206758 
L 546.030819 342.482779 
L 547.368681 342.482779 
L 548.706543 344.647936 
L 550.044406 346.124179 
L 552.72013 345.927347 
L 554.057992 338.152465 
L 555.395854 348.19092 
L 556.733716 342.679611 
L 558.071578 341.203368 
L 559.409441 340.12079 
L 560.747303 345.632098 
L 562.085165 342.679611 
L 563.423027 342.482779 
L 564.760889 336.282557 
L 566.098751 342.679611 
L 567.436613 343.073276 
L 568.774476 336.774638 
L 570.112338 339.136627 
L 571.4502 344.057439 
L 572.788062 336.577805 
L 574.125924 338.054049 
L 575.463786 336.873054 
L 576.801648 336.282557 
L 578.13951 334.1174 
L 579.477373 327.917178 
L 580.815235 325.948853 
L 582.153097 335.298394 
L 583.490959 330.869664 
L 584.828821 324.767858 
L 586.166683 322.504285 
L 587.504545 322.701118 
L 588.842408 326.342518 
L 590.18027 333.133238 
L 591.518132 320.929625 
L 592.855994 320.142296 
L 594.193856 296.719234 
L 595.531718 325.555188 
L 596.86958 317.485058 
L 598.207443 328.11401 
L 599.545305 320.339128 
L 600.883167 334.90473 
L 602.221029 337.955633 
L 603.558891 330.672832 
L 604.896753 338.841379 
L 606.234615 338.054049 
L 607.572478 333.723735 
L 608.91034 338.349298 
L 610.248202 341.990698 
L 611.586064 336.479389 
L 612.923926 334.511065 
L 614.261788 340.416038 
L 615.59965 340.711287 
L 616.937512 340.219206 
L 618.275375 346.616261 
L 619.613237 345.730515 
L 620.951099 339.33346 
L 622.288961 342.384363 
L 623.626823 341.203368 
L 624.964685 341.498617 
L 626.302547 343.959022 
L 627.64041 347.40359 
L 628.978272 346.813093 
L 630.316134 338.841379 
L 631.653996 340.809703 
L 634.32972 342.384363 
L 635.667582 339.825541 
L 637.005445 343.270109 
L 638.343307 347.305174 
L 639.681169 339.825541 
L 641.019031 340.908119 
L 642.356893 344.647936 
L 643.694755 339.825541 
L 645.032617 344.155855 
L 646.37048 345.041601 
L 647.708342 349.076666 
L 649.046204 342.581195 
L 650.384066 341.400201 
L 651.721928 346.616261 
L 653.05979 343.466941 
L 654.397652 342.18753 
L 655.735514 344.746352 
L 657.073377 348.97825 
L 658.411239 341.793865 
L 659.749101 342.384363 
L 661.086963 346.517844 
L 662.424825 346.222596 
L 663.762687 340.416038 
L 665.100549 345.33685 
L 666.438412 346.616261 
L 667.776274 346.517844 
L 669.114136 345.435266 
L 670.451998 340.317622 
L 671.78986 342.97486 
L 673.127722 343.466941 
L 674.465584 347.206758 
L 675.803447 348.387753 
L 677.141309 346.222596 
L 678.479171 337.955633 
L 679.817033 339.628708 
L 681.154895 339.923957 
L 682.492757 328.704507 
L 683.830619 345.730515 
L 685.168482 329.68867 
L 686.506344 333.33007 
L 687.844206 335.692059 
L 689.182068 335.593643 
L 690.51993 342.285947 
L 691.857792 342.581195 
L 693.195654 345.041601 
L 694.533516 345.041601 
L 695.871379 342.482779 
L 697.209241 346.517844 
L 698.547103 346.419428 
L 699.884965 346.124179 
L 701.222827 346.517844 
L 702.560689 347.895671 
L 703.898551 351.044991 
L 706.574276 346.222596 
L 707.912138 342.679611 
L 709.25 338.447714 
L 710.587862 333.822151 
L 711.925724 345.730515 
L 713.263586 347.502007 
L 714.601449 344.943185 
L 715.939311 339.727125 
L 717.277173 345.927347 
L 718.615035 342.679611 
L 719.952897 341.301784 
L 721.290759 342.482779 
L 722.628621 350.454493 
L 723.966484 347.502007 
L 725.304346 349.273499 
L 726.642208 346.321012 
L 727.98007 346.813093 
L 729.317932 347.994088 
L 730.655794 348.584585 
L 731.993656 346.714677 
L 734.669381 347.40359 
L 737.345105 344.54952 
L 738.682967 343.466941 
L 740.020829 346.714677 
L 741.358691 349.076666 
L 742.696553 345.927347 
L 744.034416 340.514455 
L 745.372278 345.33685 
L 746.71014 342.876444 
L 748.048002 346.124179 
L 749.385864 347.600423 
L 750.723726 350.257661 
L 752.061588 349.076666 
L 753.399451 348.289336 
L 754.737313 349.568747 
L 756.075175 350.651326 
L 757.413037 349.76558 
L 758.750899 351.832321 
L 760.088761 350.651326 
L 761.426623 348.781418 
L 762.764486 347.305174 
L 764.102348 349.175082 
L 765.44021 347.797255 
L 766.778072 348.97825 
L 768.115934 348.387753 
L 769.453796 349.863996 
L 770.791658 347.108342 
L 772.12952 340.711287 
L 773.467383 341.990698 
L 774.805245 342.18753 
L 776.143107 333.33007 
L 777.480969 325.259939 
L 778.818831 330.869664 
L 780.156693 329.491837 
L 781.494555 323.882112 
L 782.832418 327.32668 
L 784.17028 311.6785 
L 785.508142 308.82443 
L 786.846004 307.052938 
L 788.183866 324.078945 
L 789.521728 291.995255 
L 790.85959 268.473777 
L 792.197453 258.336905 
L 793.535315 266.30862 
L 796.211039 267.784863 
L 797.548901 280.283724 
L 798.886763 278.709064 
L 800.224625 273.099339 
L 801.562488 269.654771 
L 804.238212 266.210204 
L 805.576074 264.832376 
L 806.913936 265.718122 
L 808.251798 273.394588 
L 809.58966 266.30862 
L 810.927522 278.413816 
L 812.265385 263.552965 
L 813.603247 265.914955 
L 814.941109 271.52468 
L 816.278971 296.423985 
L 817.616833 277.232821 
L 818.954695 275.264496 
L 820.292557 261.289392 
L 821.63042 266.30862 
L 822.968282 261.978306 
L 824.306144 156.672943 
L 825.644006 80.301952 
L 826.981868 263.356133 
L 828.31973 264.045047 
L 829.657592 262.175138 
L 830.995455 224.383307 
L 832.333317 259.419484 
L 833.671179 353.210148 
L 835.009041 292.38892 
L 836.346903 50.8755 
L 837.684765 257.844824 
L 839.022627 263.1593 
L 840.36049 258.238489 
L 841.698352 257.647992 
L 843.036214 268.572193 
L 844.374076 289.436433 
L 845.711938 282.350465 
L 847.0498 276.937572 
L 848.387662 277.52807 
L 849.725524 279.004313 
L 851.063387 291.306341 
L 852.401249 289.239601 
L 853.739111 309.119678 
L 855.076973 299.671721 
L 856.414835 294.160412 
L 857.752697 292.290504 
L 859.090559 309.021262 
L 860.428422 302.525791 
L 863.104146 312.072165 
L 864.442008 310.399089 
L 865.77987 298.39231 
L 867.117732 289.731682 
L 868.455594 304.395699 
L 869.793457 315.811982 
L 871.131319 312.367414 
L 872.469181 314.532571 
L 873.807043 304.395699 
L 875.144905 293.373082 
L 876.482767 303.60837 
L 877.820629 297.112899 
L 879.158492 301.836877 
L 880.496354 302.132126 
L 881.834216 316.697728 
L 883.172078 302.230542 
L 884.50994 304.395699 
L 885.847802 297.112899 
L 887.185664 305.478278 
L 888.523526 304.986197 
L 889.861389 318.567636 
L 891.199251 329.196588 
L 892.537113 316.10723 
L 893.874975 308.627597 
L 895.212837 305.67511 
L 896.550699 306.560856 
L 897.888561 306.954521 
L 899.226424 353.210148 
L 900.564286 294.652493 
L 901.902148 308.0371 
L 903.24001 305.183029 
L 904.577872 305.183029 
L 905.915734 311.580084 
L 907.253596 312.367414 
L 908.591459 331.164913 
L 909.929321 339.431876 
L 911.267183 328.999756 
L 912.605045 327.228264 
L 913.942907 328.015594 
L 915.280769 322.307453 
L 917.956494 337.7588 
L 919.294356 342.18753 
L 920.632218 339.136627 
L 921.97008 332.739573 
L 923.307942 336.676222 
L 924.645804 337.561968 
L 925.983666 335.692059 
L 927.321528 344.746352 
L 928.659391 344.451104 
L 929.997253 345.238433 
L 931.335115 340.809703 
L 932.672977 340.219206 
L 935.348701 339.431876 
L 936.686563 341.990698 
L 938.024426 343.565358 
L 939.362288 348.486169 
L 940.70015 343.860606 
L 942.038012 344.746352 
L 943.375874 347.206758 
L 944.713736 345.33685 
L 946.051598 347.206758 
L 947.389461 351.537072 
L 948.727323 349.667164 
L 950.065185 350.060828 
L 951.403047 349.371915 
L 952.740909 349.667164 
L 954.078771 349.568747 
L 956.754496 351.241823 
L 958.092358 347.600423 
L 959.43022 348.97825 
L 960.768082 349.273499 
L 963.443806 347.009925 
L 964.781668 347.994088 
L 966.11953 351.537072 
L 967.457393 350.356077 
L 968.795255 349.470331 
L 970.133117 347.797255 
L 971.470979 349.863996 
L 972.808841 348.879834 
L 974.146703 349.962412 
L 975.484565 351.635488 
L 976.822428 350.159245 
L 978.16029 351.044991 
L 979.498152 351.340239 
L 980.836014 350.454493 
L 983.511738 348.97825 
L 984.8496 352.127569 
L 986.187463 352.029153 
L 988.863187 351.340239 
L 990.201049 352.521234 
L 991.538911 352.61965 
L 992.876773 352.127569 
L 994.214635 352.225985 
L 995.552498 351.733904 
L 996.89036 350.946575 
L 998.228222 351.044991 
L 999.566084 350.651326 
L 1000.903946 352.422818 
L 1002.241808 351.832321 
L 1003.57967 352.718067 
L 1004.917532 351.832321 
L 1006.255395 352.718067 
L 1007.593257 351.930737 
L 1008.931119 351.340239 
L 1010.268981 352.225985 
L 1011.606843 351.930737 
L 1012.944705 352.225985 
L 1015.62043 351.241823 
L 1016.958292 351.733904 
L 1018.296154 347.994088 
L 1019.634016 349.371915 
L 1020.971878 350.454493 
L 1022.30974 348.289336 
L 1023.647602 353.210148 
L 1024.985465 340.514455 
L 1026.323327 340.908119 
L 1027.661189 339.235044 
L 1028.999051 338.152465 
L 1030.336913 330.574416 
L 1031.674775 336.577805 
L 1033.012637 322.996366 
L 1034.3505 319.453382 
L 1035.688362 307.446602 
L 1037.026224 306.659273 
L 1038.364086 291.306341 
L 1039.701948 283.039378 
L 1041.03981 302.525791 
L 1042.377672 258.533738 
L 1043.715534 254.990754 
L 1045.053397 148.209148 
L 1046.391259 206.766803 
L 1047.729121 232.355022 
L 1049.066983 267.784863 
L 1050.404845 261.87989 
L 1051.742707 254.990754 
L 1053.080569 207.849381 
L 1054.418432 248.29845 
L 1055.756294 233.240768 
L 1057.094156 247.019039 
L 1058.432018 259.419484 
L 1059.76988 293.17625 
L 1061.107742 278.610648 
L 1062.445604 288.157022 
L 1063.783467 278.118567 
L 1065.121329 282.350465 
L 1066.459191 300.754299 
L 1067.797053 315.516733 
L 1069.134915 317.386641 
L 1070.472777 313.646825 
L 1071.810639 297.60498 
L 1073.148501 298.884391 
L 1074.486364 299.868553 
L 1075.824226 311.088003 
L 1077.162088 328.90134 
L 1078.49995 342.679611 
L 1079.837812 333.920567 
L 1081.175674 336.184141 
L 1082.513536 340.317622 
L 1083.851399 341.400201 
L 1085.189261 345.435266 
L 1086.527123 343.959022 
L 1087.864985 349.371915 
L 1089.202847 348.289336 
L 1090.540709 349.076666 
L 1091.878571 349.470331 
L 1093.216434 346.517844 
L 1094.554296 348.781418 
L 1095.892158 349.175082 
L 1097.23002 351.635488 
L 1098.567882 351.635488 
L 1099.905744 351.241823 
L 1101.243606 349.962412 
L 1102.581469 350.848158 
L 1103.919331 348.879834 
L 1105.257193 351.537072 
L 1106.595055 352.914899 
L 1107.932917 351.930737 
L 1109.270779 351.733904 
L 1111.946503 352.422818 
L 1113.284366 351.832321 
L 1114.622228 352.225985 
L 1115.96009 352.914899 
L 1117.297952 352.61965 
L 1118.635814 349.175082 
L 1119.973676 351.537072 
L 1121.311538 350.060828 
L 1122.649401 351.733904 
L 1123.987263 353.013315 
L 1125.325125 352.816483 
L 1126.662987 351.930737 
L 1128.000849 351.832321 
L 1129.338711 351.537072 
L 1130.676573 352.225985 
L 1132.014436 352.718067 
L 1133.352298 352.914899 
L 1134.69016 352.718067 
L 1136.028022 352.816483 
L 1137.365884 352.521234 
L 1138.703746 353.013315 
L 1141.379471 351.930737 
L 1142.717333 352.521234 
L 1144.055195 352.718067 
L 1145.393057 353.111731 
L 1146.730919 352.422818 
L 1148.068781 352.718067 
L 1150.744505 352.029153 
L 1152.082368 353.013315 
L 1153.42023 352.225985 
L 1154.758092 352.127569 
L 1156.095954 351.635488 
L 1157.433816 351.340239 
L 1158.771678 352.029153 
L 1160.10954 353.111731 
L 1161.447403 353.013315 
L 1162.785265 353.111731 
L 1164.123127 352.914899 
L 1165.460989 353.013315 
L 1166.798851 352.816483 
L 1169.474575 352.816483 
L 1170.812438 353.210148 
L 1173.488162 352.718067 
L 1174.826024 352.914899 
L 1177.501748 352.914899 
L 1178.83961 353.111731 
L 1180.177473 352.718067 
L 1181.515335 353.013315 
L 1182.853197 352.521234 
L 1184.191059 353.210148 
L 1185.528921 353.013315 
L 1189.542507 353.210148 
L 1192.218232 353.210148 
L 1193.556094 352.324402 
L 1194.893956 353.210148 
L 1196.231818 353.210148 
L 1197.56968 352.914899 
L 1198.907542 353.210148 
L 1200.245405 353.210148 
L 1201.583267 351.930737 
L 1202.921129 352.914899 
L 1204.258991 352.914899 
L 1205.596853 352.61965 
L 1206.934715 353.013315 
L 1208.272577 352.521234 
L 1209.61044 352.816483 
L 1210.948302 350.848158 
L 1212.286164 353.210148 
L 1213.624026 352.718067 
L 1214.961888 352.816483 
L 1216.29975 352.61965 
L 1217.637612 353.210148 
L 1218.975475 353.210148 
L 1220.313337 350.946575 
L 1221.651199 352.914899 
L 1222.989061 353.210148 
L 1224.326923 350.946575 
L 1225.664785 353.210148 
L 1227.002647 352.324402 
L 1228.340509 352.914899 
L 1229.678372 351.143407 
L 1231.016234 353.210148 
L 1232.354096 352.127569 
L 1233.691958 352.324402 
L 1235.02982 351.340239 
L 1236.367682 353.111731 
L 1237.705544 352.521234 
L 1239.043407 352.225985 
L 1240.381269 351.733904 
L 1241.719131 352.225985 
L 1243.056993 352.225985 
L 1244.394855 352.914899 
L 1245.732717 353.210148 
L 1247.070579 353.210148 
L 1248.408442 350.651326 
L 1249.746304 352.718067 
L 1251.084166 352.816483 
L 1252.422028 347.797255 
L 1253.75989 350.749742 
L 1255.097752 351.438656 
L 1256.435614 351.143407 
L 1257.773477 351.537072 
L 1259.111339 351.438656 
L 1260.449201 350.749742 
L 1261.787063 349.470331 
L 1263.124925 351.635488 
L 1264.462787 350.749742 
L 1265.800649 350.651326 
L 1267.138511 350.257661 
L 1268.476374 349.470331 
L 1269.814236 350.257661 
L 1271.152098 350.356077 
L 1272.48996 349.470331 
L 1273.827822 351.143407 
L 1275.165684 349.568747 
L 1276.503546 349.273499 
L 1277.841409 349.470331 
L 1279.179271 349.371915 
L 1280.517133 349.470331 
L 1281.854995 350.651326 
L 1283.192857 349.470331 
L 1284.530719 350.060828 
L 1285.868581 349.273499 
L 1287.206444 348.97825 
L 1288.544306 348.289336 
L 1289.882168 346.419428 
L 1291.22003 347.009925 
L 1292.557892 346.321012 
L 1293.895754 345.435266 
L 1295.233616 349.568747 
L 1296.571479 345.632098 
L 1299.247203 346.321012 
L 1300.585065 345.730515 
L 1300.585065 345.730515 
" clip-path="url(#p8adcb39dcb)" style="fill: none; stroke: #0000ff; stroke-width: 1.5; stroke-linecap: square"/>
   </g>
   <g id="line2d_20">
    <path d="M 1061.107742 270.025599 
L 1062.445604 275.226555 
L 1063.783467 278.086874 
L 1065.121329 278.694946 
L 1066.459191 288.752514 
L 1067.797053 292.051934 
L 1069.134915 302.374999 
L 1070.472777 302.908841 
L 1071.810639 301.69809 
L 1073.148501 303.274109 
L 1074.486364 299.080275 
L 1075.824226 303.475753 
L 1078.49995 323.846487 
L 1079.837812 326.035501 
L 1081.175674 332.452188 
L 1082.513536 336.41989 
L 1083.851399 335.814253 
L 1085.189261 337.556165 
L 1086.527123 336.791209 
L 1087.864985 344.441786 
L 1089.202847 343.459494 
L 1090.540709 345.991514 
L 1091.878571 347.185044 
L 1093.216434 345.553794 
L 1094.554296 348.303778 
L 1095.892158 347.077743 
L 1097.23002 349.68078 
L 1098.567882 349.540571 
L 1099.905744 350.215677 
L 1101.243606 350.485623 
L 1102.581469 350.62098 
L 1103.919331 349.474408 
L 1105.257193 350.743894 
L 1106.595055 351.272814 
L 1107.932917 351.039243 
L 1109.270779 351.7561 
L 1110.608641 351.859805 
L 1111.946503 352.451155 
L 1113.284366 351.498209 
L 1115.96009 352.448172 
L 1117.297952 352.262127 
L 1118.635814 350.468789 
L 1119.973676 352.090355 
L 1121.311538 350.507077 
L 1122.649401 351.552037 
L 1123.987263 351.877385 
L 1125.325125 351.989398 
L 1126.662987 352.421709 
L 1128.000849 351.905395 
L 1129.338711 352.171999 
L 1130.676573 351.957022 
L 1132.014436 352.076088 
L 1134.69016 352.517303 
L 1136.028022 352.712186 
L 1137.365884 352.645522 
L 1138.703746 352.830841 
L 1140.041608 352.451172 
L 1141.379471 352.212186 
L 1142.717333 352.594464 
L 1144.055195 352.502116 
L 1145.393057 352.834082 
L 1146.730919 352.365917 
L 1148.068781 352.836546 
L 1150.744505 352.280838 
L 1152.082368 352.843365 
L 1153.42023 352.134827 
L 1154.758092 352.427231 
L 1156.095954 351.955624 
L 1157.433816 351.85239 
L 1160.10954 352.39144 
L 1165.460989 353.054082 
L 1166.798851 352.79674 
L 1168.136713 352.702139 
L 1169.474575 352.766018 
L 1170.812438 352.952122 
L 1173.488162 352.79711 
L 1174.826024 352.992564 
L 1177.501748 352.915524 
L 1178.83961 352.963391 
L 1180.177473 352.793959 
L 1181.515335 353.056862 
L 1182.853197 352.649217 
L 1184.191059 353.129893 
L 1185.528921 352.873349 
L 1188.204645 353.154851 
L 1189.542507 353.087695 
L 1190.88037 353.245876 
L 1192.218232 353.091594 
L 1193.556094 352.700718 
L 1194.893956 353.218392 
L 1196.231818 352.991085 
L 1197.56968 352.91345 
L 1198.907542 353.153241 
L 1200.245405 353.105213 
L 1201.583267 352.558867 
L 1202.921129 353.001753 
L 1204.258991 352.780072 
L 1205.596853 352.680604 
L 1206.934715 352.897969 
L 1208.272577 352.585929 
L 1209.61044 353.050671 
L 1210.948302 351.544539 
L 1212.286164 353.168951 
L 1213.624026 352.330469 
L 1214.961888 352.602941 
L 1216.29975 352.660888 
L 1218.975475 353.2755 
L 1220.313337 351.485856 
L 1221.651199 353.16698 
L 1222.989061 352.619559 
L 1224.326923 351.54945 
L 1225.664785 353.046412 
L 1227.002647 352.071142 
L 1228.340509 353.092471 
L 1229.678372 351.463996 
L 1231.016234 353.046756 
L 1232.354096 352.287276 
L 1233.691958 352.153937 
L 1235.02982 351.905881 
L 1236.367682 352.714519 
L 1237.705544 352.455066 
L 1239.043407 352.046606 
L 1240.381269 352.215575 
L 1244.394855 352.363128 
L 1245.732717 352.784389 
L 1247.070579 352.857893 
L 1248.408442 351.630524 
L 1249.746304 352.949197 
L 1251.084166 352.430165 
L 1252.422028 349.537725 
L 1253.75989 351.693884 
L 1255.097752 350.937158 
L 1256.435614 351.227978 
L 1257.773477 351.084922 
L 1259.111339 351.265217 
L 1260.449201 351.720285 
L 1261.787063 350.113278 
L 1263.124925 351.563944 
L 1264.462787 350.495616 
L 1265.800649 350.665297 
L 1267.138511 350.494075 
L 1268.476374 350.130132 
L 1269.814236 350.694189 
L 1271.152098 350.005288 
L 1272.48996 349.87345 
L 1273.827822 350.790025 
L 1275.165684 349.720865 
L 1276.503546 349.997437 
L 1279.179271 349.551555 
L 1280.517133 349.672765 
L 1281.854995 349.939181 
L 1283.192857 349.613275 
L 1284.530719 350.125493 
L 1285.868581 349.521985 
L 1287.206444 349.470974 
L 1288.544306 348.905891 
L 1289.882168 347.53826 
L 1291.22003 348.077587 
L 1292.557892 346.897774 
L 1293.895754 346.500267 
L 1295.233616 348.652352 
L 1296.571479 345.896915 
L 1297.909341 347.284959 
L 1299.247203 346.699347 
L 1300.585065 346.327942 
L 1300.585065 346.327942 
" clip-path="url(#p8adcb39dcb)" style="fill: none; stroke: #ffa500; stroke-width: 1.5; stroke-linecap: square"/>
   </g>
   <g id="line2d_21">
    <path d="M 1300.585065 346.327942 
L 1301.922927 346.666987 
L 1303.260789 345.887524 
L 1304.598651 346.48313 
L 1305.936513 346.431044 
L 1307.274376 346.398654 
L 1308.612238 346.496176 
L 1309.9501 346.392372 
L 1311.287962 346.335472 
L 1312.625824 346.466335 
L 1313.963686 346.367339 
L 1315.301548 346.37581 
L 1316.639411 346.381116 
L 1317.977273 346.364905 
" clip-path="url(#p8adcb39dcb)" style="fill: none; stroke: #ff0000; stroke-width: 1.5; stroke-linecap: square"/>
   </g>
   <g id="patch_3">
    <path d="M 39.65 368.3955 
L 39.65 35.7555 
" style="fill: none; stroke: #000000; stroke-width: 0.8; stroke-linejoin: miter; stroke-linecap: square"/>
   </g>
   <g id="patch_4">
    <path d="M 1378.85 368.3955 
L 1378.85 35.7555 
" style="fill: none; stroke: #000000; stroke-width: 0.8; stroke-linejoin: miter; stroke-linecap: square"/>
   </g>
   <g id="patch_5">
    <path d="M 39.65 368.3955 
L 1378.85 368.3955 
" style="fill: none; stroke: #000000; stroke-width: 0.8; stroke-linejoin: miter; stroke-linecap: square"/>
   </g>
   <g id="patch_6">
    <path d="M 39.65 35.7555 
L 1378.85 35.7555 
" style="fill: none; stroke: #000000; stroke-width: 0.8; stroke-linejoin: miter; stroke-linecap: square"/>
   </g>
   <g id="text_19">
    <!-- Daily Confirmed Cases Forecasting - Rwanda -->
    <g transform="translate(574.708437 16.318125)scale(0.12 -0.12)">
     <defs>
      <path id="DejaVuSans-44" d="M 1259 4147 
L 1259 519 
L 2022 519 
Q 2988 519 3436 956 
Q 3884 1394 3884 2338 
Q 3884 3275 3436 3711 
Q 2988 4147 2022 4147 
L 1259 4147 
z
M 628 4666 
L 1925 4666 
Q 3281 4666 3915 4102 
Q 4550 3538 4550 2338 
Q 4550 1131 3912 565 
Q 3275 0 1925 0 
L 628 0 
L 628 4666 
z
" transform="scale(0.015625)"/>
      <path id="DejaVuSans-61" d="M 2194 1759 
Q 1497 1759 1228 1600 
Q 959 1441 959 1056 
Q 959 750 1161 570 
Q 1363 391 1709 391 
Q 2188 391 2477 730 
Q 2766 1069 2766 1631 
L 2766 1759 
L 2194 1759 
z
M 3341 1997 
L 3341 0 
L 2766 0 
L 2766 531 
Q 2569 213 2275 61 
Q 1981 -91 1556 -91 
Q 1019 -91 701 211 
Q 384 513 384 1019 
Q 384 1609 779 1909 
Q 1175 2209 1959 2209 
L 2766 2209 
L 2766 2266 
Q 2766 2663 2505 2880 
Q 2244 3097 1772 3097 
Q 1472 3097 1187 3025 
Q 903 2953 641 2809 
L 641 3341 
Q 956 3463 1253 3523 
Q 1550 3584 1831 3584 
Q 2591 3584 2966 3190 
Q 3341 2797 3341 1997 
z
" transform="scale(0.015625)"/>
      <path id="DejaVuSans-69" d="M 603 3500 
L 1178 3500 
L 1178 0 
L 603 0 
L 603 3500 
z
M 603 4863 
L 1178 4863 
L 1178 4134 
L 603 4134 
L 603 4863 
z
" transform="scale(0.015625)"/>
      <path id="DejaVuSans-6c" d="M 603 4863 
L 1178 4863 
L 1178 0 
L 603 0 
L 603 4863 
z
" transform="scale(0.015625)"/>
      <path id="DejaVuSans-79" d="M 2059 -325 
Q 1816 -950 1584 -1140 
Q 1353 -1331 966 -1331 
L 506 -1331 
L 506 -850 
L 844 -850 
Q 1081 -850 1212 -737 
Q 1344 -625 1503 -206 
L 1606 56 
L 191 3500 
L 800 3500 
L 1894 763 
L 2988 3500 
L 3597 3500 
L 2059 -325 
z
" transform="scale(0.015625)"/>
      <path id="DejaVuSans-20" transform="scale(0.015625)"/>
      <path id="DejaVuSans-43" d="M 4122 4306 
L 4122 3641 
Q 3803 3938 3442 4084 
Q 3081 4231 2675 4231 
Q 1875 4231 1450 3742 
Q 1025 3253 1025 2328 
Q 1025 1406 1450 917 
Q 1875 428 2675 428 
Q 3081 428 3442 575 
Q 3803 722 4122 1019 
L 4122 359 
Q 3791 134 3420 21 
Q 3050 -91 2638 -91 
Q 1578 -91 968 557 
Q 359 1206 359 2328 
Q 359 3453 968 4101 
Q 1578 4750 2638 4750 
Q 3056 4750 3426 4639 
Q 3797 4528 4122 4306 
z
" transform="scale(0.015625)"/>
      <path id="DejaVuSans-6f" d="M 1959 3097 
Q 1497 3097 1228 2736 
Q 959 2375 959 1747 
Q 959 1119 1226 758 
Q 1494 397 1959 397 
Q 2419 397 2687 759 
Q 2956 1122 2956 1747 
Q 2956 2369 2687 2733 
Q 2419 3097 1959 3097 
z
M 1959 3584 
Q 2709 3584 3137 3096 
Q 3566 2609 3566 1747 
Q 3566 888 3137 398 
Q 2709 -91 1959 -91 
Q 1206 -91 779 398 
Q 353 888 353 1747 
Q 353 2609 779 3096 
Q 1206 3584 1959 3584 
z
" transform="scale(0.015625)"/>
      <path id="DejaVuSans-6e" d="M 3513 2113 
L 3513 0 
L 2938 0 
L 2938 2094 
Q 2938 2591 2744 2837 
Q 2550 3084 2163 3084 
Q 1697 3084 1428 2787 
Q 1159 2491 1159 1978 
L 1159 0 
L 581 0 
L 581 3500 
L 1159 3500 
L 1159 2956 
Q 1366 3272 1645 3428 
Q 1925 3584 2291 3584 
Q 2894 3584 3203 3211 
Q 3513 2838 3513 2113 
z
" transform="scale(0.015625)"/>
      <path id="DejaVuSans-66" d="M 2375 4863 
L 2375 4384 
L 1825 4384 
Q 1516 4384 1395 4259 
Q 1275 4134 1275 3809 
L 1275 3500 
L 2222 3500 
L 2222 3053 
L 1275 3053 
L 1275 0 
L 697 0 
L 697 3053 
L 147 3053 
L 147 3500 
L 697 3500 
L 697 3744 
Q 697 4328 969 4595 
Q 1241 4863 1831 4863 
L 2375 4863 
z
" transform="scale(0.015625)"/>
      <path id="DejaVuSans-72" d="M 2631 2963 
Q 2534 3019 2420 3045 
Q 2306 3072 2169 3072 
Q 1681 3072 1420 2755 
Q 1159 2438 1159 1844 
L 1159 0 
L 581 0 
L 581 3500 
L 1159 3500 
L 1159 2956 
Q 1341 3275 1631 3429 
Q 1922 3584 2338 3584 
Q 2397 3584 2469 3576 
Q 2541 3569 2628 3553 
L 2631 2963 
z
" transform="scale(0.015625)"/>
      <path id="DejaVuSans-6d" d="M 3328 2828 
Q 3544 3216 3844 3400 
Q 4144 3584 4550 3584 
Q 5097 3584 5394 3201 
Q 5691 2819 5691 2113 
L 5691 0 
L 5113 0 
L 5113 2094 
Q 5113 2597 4934 2840 
Q 4756 3084 4391 3084 
Q 3944 3084 3684 2787 
Q 3425 2491 3425 1978 
L 3425 0 
L 2847 0 
L 2847 2094 
Q 2847 2600 2669 2842 
Q 2491 3084 2119 3084 
Q 1678 3084 1418 2786 
Q 1159 2488 1159 1978 
L 1159 0 
L 581 0 
L 581 3500 
L 1159 3500 
L 1159 2956 
Q 1356 3278 1631 3431 
Q 1906 3584 2284 3584 
Q 2666 3584 2933 3390 
Q 3200 3197 3328 2828 
z
" transform="scale(0.015625)"/>
      <path id="DejaVuSans-65" d="M 3597 1894 
L 3597 1613 
L 953 1613 
Q 991 1019 1311 708 
Q 1631 397 2203 397 
Q 2534 397 2845 478 
Q 3156 559 3463 722 
L 3463 178 
Q 3153 47 2828 -22 
Q 2503 -91 2169 -91 
Q 1331 -91 842 396 
Q 353 884 353 1716 
Q 353 2575 817 3079 
Q 1281 3584 2069 3584 
Q 2775 3584 3186 3129 
Q 3597 2675 3597 1894 
z
M 3022 2063 
Q 3016 2534 2758 2815 
Q 2500 3097 2075 3097 
Q 1594 3097 1305 2825 
Q 1016 2553 972 2059 
L 3022 2063 
z
" transform="scale(0.015625)"/>
      <path id="DejaVuSans-64" d="M 2906 2969 
L 2906 4863 
L 3481 4863 
L 3481 0 
L 2906 0 
L 2906 525 
Q 2725 213 2448 61 
Q 2172 -91 1784 -91 
Q 1150 -91 751 415 
Q 353 922 353 1747 
Q 353 2572 751 3078 
Q 1150 3584 1784 3584 
Q 2172 3584 2448 3432 
Q 2725 3281 2906 2969 
z
M 947 1747 
Q 947 1113 1208 752 
Q 1469 391 1925 391 
Q 2381 391 2643 752 
Q 2906 1113 2906 1747 
Q 2906 2381 2643 2742 
Q 2381 3103 1925 3103 
Q 1469 3103 1208 2742 
Q 947 2381 947 1747 
z
" transform="scale(0.015625)"/>
      <path id="DejaVuSans-73" d="M 2834 3397 
L 2834 2853 
Q 2591 2978 2328 3040 
Q 2066 3103 1784 3103 
Q 1356 3103 1142 2972 
Q 928 2841 928 2578 
Q 928 2378 1081 2264 
Q 1234 2150 1697 2047 
L 1894 2003 
Q 2506 1872 2764 1633 
Q 3022 1394 3022 966 
Q 3022 478 2636 193 
Q 2250 -91 1575 -91 
Q 1294 -91 989 -36 
Q 684 19 347 128 
L 347 722 
Q 666 556 975 473 
Q 1284 391 1588 391 
Q 1994 391 2212 530 
Q 2431 669 2431 922 
Q 2431 1156 2273 1281 
Q 2116 1406 1581 1522 
L 1381 1569 
Q 847 1681 609 1914 
Q 372 2147 372 2553 
Q 372 3047 722 3315 
Q 1072 3584 1716 3584 
Q 2034 3584 2315 3537 
Q 2597 3491 2834 3397 
z
" transform="scale(0.015625)"/>
      <path id="DejaVuSans-46" d="M 628 4666 
L 3309 4666 
L 3309 4134 
L 1259 4134 
L 1259 2759 
L 3109 2759 
L 3109 2228 
L 1259 2228 
L 1259 0 
L 628 0 
L 628 4666 
z
" transform="scale(0.015625)"/>
      <path id="DejaVuSans-63" d="M 3122 3366 
L 3122 2828 
Q 2878 2963 2633 3030 
Q 2388 3097 2138 3097 
Q 1578 3097 1268 2742 
Q 959 2388 959 1747 
Q 959 1106 1268 751 
Q 1578 397 2138 397 
Q 2388 397 2633 464 
Q 2878 531 3122 666 
L 3122 134 
Q 2881 22 2623 -34 
Q 2366 -91 2075 -91 
Q 1284 -91 818 406 
Q 353 903 353 1747 
Q 353 2603 823 3093 
Q 1294 3584 2113 3584 
Q 2378 3584 2631 3529 
Q 2884 3475 3122 3366 
z
" transform="scale(0.015625)"/>
      <path id="DejaVuSans-74" d="M 1172 4494 
L 1172 3500 
L 2356 3500 
L 2356 3053 
L 1172 3053 
L 1172 1153 
Q 1172 725 1289 603 
Q 1406 481 1766 481 
L 2356 481 
L 2356 0 
L 1766 0 
Q 1100 0 847 248 
Q 594 497 594 1153 
L 594 3053 
L 172 3053 
L 172 3500 
L 594 3500 
L 594 4494 
L 1172 4494 
z
" transform="scale(0.015625)"/>
      <path id="DejaVuSans-67" d="M 2906 1791 
Q 2906 2416 2648 2759 
Q 2391 3103 1925 3103 
Q 1463 3103 1205 2759 
Q 947 2416 947 1791 
Q 947 1169 1205 825 
Q 1463 481 1925 481 
Q 2391 481 2648 825 
Q 2906 1169 2906 1791 
z
M 3481 434 
Q 3481 -459 3084 -895 
Q 2688 -1331 1869 -1331 
Q 1566 -1331 1297 -1286 
Q 1028 -1241 775 -1147 
L 775 -588 
Q 1028 -725 1275 -790 
Q 1522 -856 1778 -856 
Q 2344 -856 2625 -561 
Q 2906 -266 2906 331 
L 2906 616 
Q 2728 306 2450 153 
Q 2172 0 1784 0 
Q 1141 0 747 490 
Q 353 981 353 1791 
Q 353 2603 747 3093 
Q 1141 3584 1784 3584 
Q 2172 3584 2450 3431 
Q 2728 3278 2906 2969 
L 2906 3500 
L 3481 3500 
L 3481 434 
z
" transform="scale(0.015625)"/>
      <path id="DejaVuSans-52" d="M 2841 2188 
Q 3044 2119 3236 1894 
Q 3428 1669 3622 1275 
L 4263 0 
L 3584 0 
L 2988 1197 
Q 2756 1666 2539 1819 
Q 2322 1972 1947 1972 
L 1259 1972 
L 1259 0 
L 628 0 
L 628 4666 
L 2053 4666 
Q 2853 4666 3247 4331 
Q 3641 3997 3641 3322 
Q 3641 2881 3436 2590 
Q 3231 2300 2841 2188 
z
M 1259 4147 
L 1259 2491 
L 2053 2491 
Q 2509 2491 2742 2702 
Q 2975 2913 2975 3322 
Q 2975 3731 2742 3939 
Q 2509 4147 2053 4147 
L 1259 4147 
z
" transform="scale(0.015625)"/>
      <path id="DejaVuSans-77" d="M 269 3500 
L 844 3500 
L 1563 769 
L 2278 3500 
L 2956 3500 
L 3675 769 
L 4391 3500 
L 4966 3500 
L 4050 0 
L 3372 0 
L 2619 2869 
L 1863 0 
L 1184 0 
L 269 3500 
z
" transform="scale(0.015625)"/>
     </defs>
     <use xlink:href="#DejaVuSans-44"/>
     <use xlink:href="#DejaVuSans-61" x="77.001953"/>
     <use xlink:href="#DejaVuSans-69" x="138.28125"/>
     <use xlink:href="#DejaVuSans-6c" x="166.064453"/>
     <use xlink:href="#DejaVuSans-79" x="193.847656"/>
     <use xlink:href="#DejaVuSans-20" x="253.027344"/>
     <use xlink:href="#DejaVuSans-43" x="284.814453"/>
     <use xlink:href="#DejaVuSans-6f" x="354.638672"/>
     <use xlink:href="#DejaVuSans-6e" x="415.820312"/>
     <use xlink:href="#DejaVuSans-66" x="479.199219"/>
     <use xlink:href="#DejaVuSans-69" x="514.404297"/>
     <use xlink:href="#DejaVuSans-72" x="542.1875"/>
     <use xlink:href="#DejaVuSans-6d" x="581.550781"/>
     <use xlink:href="#DejaVuSans-65" x="678.962891"/>
     <use xlink:href="#DejaVuSans-64" x="740.486328"/>
     <use xlink:href="#DejaVuSans-20" x="803.962891"/>
     <use xlink:href="#DejaVuSans-43" x="835.75"/>
     <use xlink:href="#DejaVuSans-61" x="905.574219"/>
     <use xlink:href="#DejaVuSans-73" x="966.853516"/>
     <use xlink:href="#DejaVuSans-65" x="1018.953125"/>
     <use xlink:href="#DejaVuSans-73" x="1080.476562"/>
     <use xlink:href="#DejaVuSans-20" x="1132.576172"/>
     <use xlink:href="#DejaVuSans-46" x="1164.363281"/>
     <use xlink:href="#DejaVuSans-6f" x="1218.257812"/>
     <use xlink:href="#DejaVuSans-72" x="1279.439453"/>
     <use xlink:href="#DejaVuSans-65" x="1318.302734"/>
     <use xlink:href="#DejaVuSans-63" x="1379.826172"/>
     <use xlink:href="#DejaVuSans-61" x="1434.806641"/>
     <use xlink:href="#DejaVuSans-73" x="1496.085938"/>
     <use xlink:href="#DejaVuSans-74" x="1548.185547"/>
     <use xlink:href="#DejaVuSans-69" x="1587.394531"/>
     <use xlink:href="#DejaVuSans-6e" x="1615.177734"/>
     <use xlink:href="#DejaVuSans-67" x="1678.556641"/>
     <use xlink:href="#DejaVuSans-20" x="1742.033203"/>
     <use xlink:href="#DejaVuSans-2d" x="1773.820312"/>
     <use xlink:href="#DejaVuSans-20" x="1809.904297"/>
     <use xlink:href="#DejaVuSans-52" x="1841.691406"/>
     <use xlink:href="#DejaVuSans-77" x="1911.173828"/>
     <use xlink:href="#DejaVuSans-61" x="1992.960938"/>
     <use xlink:href="#DejaVuSans-6e" x="2054.240234"/>
     <use xlink:href="#DejaVuSans-64" x="2117.619141"/>
     <use xlink:href="#DejaVuSans-61" x="2181.095703"/>
    </g>
    <!-- ARIMA (2, 1, 1)x(1, 0, 0, 7) (R2 = 0.933617) -->
    <g transform="translate(577.265938 29.7555)scale(0.12 -0.12)">
     <defs>
      <path id="DejaVuSans-41" d="M 2188 4044 
L 1331 1722 
L 3047 1722 
L 2188 4044 
z
M 1831 4666 
L 2547 4666 
L 4325 0 
L 3669 0 
L 3244 1197 
L 1141 1197 
L 716 0 
L 50 0 
L 1831 4666 
z
" transform="scale(0.015625)"/>
      <path id="DejaVuSans-49" d="M 628 4666 
L 1259 4666 
L 1259 0 
L 628 0 
L 628 4666 
z
" transform="scale(0.015625)"/>
      <path id="DejaVuSans-4d" d="M 628 4666 
L 1569 4666 
L 2759 1491 
L 3956 4666 
L 4897 4666 
L 4897 0 
L 4281 0 
L 4281 4097 
L 3078 897 
L 2444 897 
L 1241 4097 
L 1241 0 
L 628 0 
L 628 4666 
z
" transform="scale(0.015625)"/>
      <path id="DejaVuSans-28" d="M 1984 4856 
Q 1566 4138 1362 3434 
Q 1159 2731 1159 2009 
Q 1159 1288 1364 580 
Q 1569 -128 1984 -844 
L 1484 -844 
Q 1016 -109 783 600 
Q 550 1309 550 2009 
Q 550 2706 781 3412 
Q 1013 4119 1484 4856 
L 1984 4856 
z
" transform="scale(0.015625)"/>
      <path id="DejaVuSans-2c" d="M 750 794 
L 1409 794 
L 1409 256 
L 897 -744 
L 494 -744 
L 750 256 
L 750 794 
z
" transform="scale(0.015625)"/>
      <path id="DejaVuSans-29" d="M 513 4856 
L 1013 4856 
Q 1481 4119 1714 3412 
Q 1947 2706 1947 2009 
Q 1947 1309 1714 600 
Q 1481 -109 1013 -844 
L 513 -844 
Q 928 -128 1133 580 
Q 1338 1288 1338 2009 
Q 1338 2731 1133 3434 
Q 928 4138 513 4856 
z
" transform="scale(0.015625)"/>
      <path id="DejaVuSans-78" d="M 3513 3500 
L 2247 1797 
L 3578 0 
L 2900 0 
L 1881 1375 
L 863 0 
L 184 0 
L 1544 1831 
L 300 3500 
L 978 3500 
L 1906 2253 
L 2834 3500 
L 3513 3500 
z
" transform="scale(0.015625)"/>
      <path id="DejaVuSans-3d" d="M 678 2906 
L 4684 2906 
L 4684 2381 
L 678 2381 
L 678 2906 
z
M 678 1631 
L 4684 1631 
L 4684 1100 
L 678 1100 
L 678 1631 
z
" transform="scale(0.015625)"/>
      <path id="DejaVuSans-2e" d="M 684 794 
L 1344 794 
L 1344 0 
L 684 0 
L 684 794 
z
" transform="scale(0.015625)"/>
      <path id="DejaVuSans-39" d="M 703 97 
L 703 672 
Q 941 559 1184 500 
Q 1428 441 1663 441 
Q 2288 441 2617 861 
Q 2947 1281 2994 2138 
Q 2813 1869 2534 1725 
Q 2256 1581 1919 1581 
Q 1219 1581 811 2004 
Q 403 2428 403 3163 
Q 403 3881 828 4315 
Q 1253 4750 1959 4750 
Q 2769 4750 3195 4129 
Q 3622 3509 3622 2328 
Q 3622 1225 3098 567 
Q 2575 -91 1691 -91 
Q 1453 -91 1209 -44 
Q 966 3 703 97 
z
M 1959 2075 
Q 2384 2075 2632 2365 
Q 2881 2656 2881 3163 
Q 2881 3666 2632 3958 
Q 2384 4250 1959 4250 
Q 1534 4250 1286 3958 
Q 1038 3666 1038 3163 
Q 1038 2656 1286 2365 
Q 1534 2075 1959 2075 
z
" transform="scale(0.015625)"/>
      <path id="DejaVuSans-36" d="M 2113 2584 
Q 1688 2584 1439 2293 
Q 1191 2003 1191 1497 
Q 1191 994 1439 701 
Q 1688 409 2113 409 
Q 2538 409 2786 701 
Q 3034 994 3034 1497 
Q 3034 2003 2786 2293 
Q 2538 2584 2113 2584 
z
M 3366 4563 
L 3366 3988 
Q 3128 4100 2886 4159 
Q 2644 4219 2406 4219 
Q 1781 4219 1451 3797 
Q 1122 3375 1075 2522 
Q 1259 2794 1537 2939 
Q 1816 3084 2150 3084 
Q 2853 3084 3261 2657 
Q 3669 2231 3669 1497 
Q 3669 778 3244 343 
Q 2819 -91 2113 -91 
Q 1303 -91 875 529 
Q 447 1150 447 2328 
Q 447 3434 972 4092 
Q 1497 4750 2381 4750 
Q 2619 4750 2861 4703 
Q 3103 4656 3366 4563 
z
" transform="scale(0.015625)"/>
     </defs>
     <use xlink:href="#DejaVuSans-41"/>
     <use xlink:href="#DejaVuSans-52" x="68.408203"/>
     <use xlink:href="#DejaVuSans-49" x="137.890625"/>
     <use xlink:href="#DejaVuSans-4d" x="167.382812"/>
     <use xlink:href="#DejaVuSans-41" x="253.662109"/>
     <use xlink:href="#DejaVuSans-20" x="322.070312"/>
     <use xlink:href="#DejaVuSans-28" x="353.857422"/>
     <use xlink:href="#DejaVuSans-32" x="392.871094"/>
     <use xlink:href="#DejaVuSans-2c" x="456.494141"/>
     <use xlink:href="#DejaVuSans-20" x="488.28125"/>
     <use xlink:href="#DejaVuSans-31" x="520.068359"/>
     <use xlink:href="#DejaVuSans-2c" x="583.691406"/>
     <use xlink:href="#DejaVuSans-20" x="615.478516"/>
     <use xlink:href="#DejaVuSans-31" x="647.265625"/>
     <use xlink:href="#DejaVuSans-29" x="710.888672"/>
     <use xlink:href="#DejaVuSans-78" x="749.902344"/>
     <use xlink:href="#DejaVuSans-28" x="809.082031"/>
     <use xlink:href="#DejaVuSans-31" x="848.095703"/>
     <use xlink:href="#DejaVuSans-2c" x="911.71875"/>
     <use xlink:href="#DejaVuSans-20" x="943.505859"/>
     <use xlink:href="#DejaVuSans-30" x="975.292969"/>
     <use xlink:href="#DejaVuSans-2c" x="1038.916016"/>
     <use xlink:href="#DejaVuSans-20" x="1070.703125"/>
     <use xlink:href="#DejaVuSans-30" x="1102.490234"/>
     <use xlink:href="#DejaVuSans-2c" x="1166.113281"/>
     <use xlink:href="#DejaVuSans-20" x="1197.900391"/>
     <use xlink:href="#DejaVuSans-37" x="1229.6875"/>
     <use xlink:href="#DejaVuSans-29" x="1293.310547"/>
     <use xlink:href="#DejaVuSans-20" x="1332.324219"/>
     <use xlink:href="#DejaVuSans-28" x="1364.111328"/>
     <use xlink:href="#DejaVuSans-52" x="1403.125"/>
     <use xlink:href="#DejaVuSans-32" x="1472.607422"/>
     <use xlink:href="#DejaVuSans-20" x="1536.230469"/>
     <use xlink:href="#DejaVuSans-3d" x="1568.017578"/>
     <use xlink:href="#DejaVuSans-20" x="1651.806641"/>
     <use xlink:href="#DejaVuSans-30" x="1683.59375"/>
     <use xlink:href="#DejaVuSans-2e" x="1747.216797"/>
     <use xlink:href="#DejaVuSans-39" x="1779.003906"/>
     <use xlink:href="#DejaVuSans-33" x="1842.626953"/>
     <use xlink:href="#DejaVuSans-33" x="1906.25"/>
     <use xlink:href="#DejaVuSans-36" x="1969.873047"/>
     <use xlink:href="#DejaVuSans-31" x="2033.496094"/>
     <use xlink:href="#DejaVuSans-37" x="2097.119141"/>
     <use xlink:href="#DejaVuSans-29" x="2160.742188"/>
    </g>
   </g>
   <g id="legend_1">
    <g id="patch_7">
     <path d="M 1274.770313 87.789875 
L 1371.85 87.789875 
Q 1373.85 87.789875 1373.85 85.789875 
L 1373.85 42.7555 
Q 1373.85 40.7555 1371.85 40.7555 
L 1274.770313 40.7555 
Q 1272.770313 40.7555 1272.770313 42.7555 
L 1272.770313 85.789875 
Q 1272.770313 87.789875 1274.770313 87.789875 
z
" style="fill: #ffffff; opacity: 0.8; stroke: #cccccc; stroke-linejoin: miter"/>
    </g>
    <g id="line2d_22">
     <path d="M 1276.770313 48.853937 
L 1286.770313 48.853937 
L 1296.770313 48.853937 
" style="fill: none; stroke: #0000ff; stroke-width: 1.5; stroke-linecap: square"/>
    </g>
    <g id="text_20">
     <!-- Actual Value -->
     <g transform="translate(1304.770313 52.353937)scale(0.1 -0.1)">
      <defs>
       <path id="DejaVuSans-75" d="M 544 1381 
L 544 3500 
L 1119 3500 
L 1119 1403 
Q 1119 906 1312 657 
Q 1506 409 1894 409 
Q 2359 409 2629 706 
Q 2900 1003 2900 1516 
L 2900 3500 
L 3475 3500 
L 3475 0 
L 2900 0 
L 2900 538 
Q 2691 219 2414 64 
Q 2138 -91 1772 -91 
Q 1169 -91 856 284 
Q 544 659 544 1381 
z
M 1991 3584 
L 1991 3584 
z
" transform="scale(0.015625)"/>
       <path id="DejaVuSans-56" d="M 1831 0 
L 50 4666 
L 709 4666 
L 2188 738 
L 3669 4666 
L 4325 4666 
L 2547 0 
L 1831 0 
z
" transform="scale(0.015625)"/>
      </defs>
      <use xlink:href="#DejaVuSans-41"/>
      <use xlink:href="#DejaVuSans-63" x="66.658203"/>
      <use xlink:href="#DejaVuSans-74" x="121.638672"/>
      <use xlink:href="#DejaVuSans-75" x="160.847656"/>
      <use xlink:href="#DejaVuSans-61" x="224.226562"/>
      <use xlink:href="#DejaVuSans-6c" x="285.505859"/>
      <use xlink:href="#DejaVuSans-20" x="313.289062"/>
      <use xlink:href="#DejaVuSans-56" x="345.076172"/>
      <use xlink:href="#DejaVuSans-61" x="405.734375"/>
      <use xlink:href="#DejaVuSans-6c" x="467.013672"/>
      <use xlink:href="#DejaVuSans-75" x="494.796875"/>
      <use xlink:href="#DejaVuSans-65" x="558.175781"/>
     </g>
    </g>
    <g id="line2d_23">
     <path d="M 1276.770313 63.532062 
L 1286.770313 63.532062 
L 1296.770313 63.532062 
" style="fill: none; stroke: #ffa500; stroke-width: 1.5; stroke-linecap: square"/>
    </g>
    <g id="text_21">
     <!-- Check Value -->
     <g transform="translate(1304.770313 67.032062)scale(0.1 -0.1)">
      <defs>
       <path id="DejaVuSans-68" d="M 3513 2113 
L 3513 0 
L 2938 0 
L 2938 2094 
Q 2938 2591 2744 2837 
Q 2550 3084 2163 3084 
Q 1697 3084 1428 2787 
Q 1159 2491 1159 1978 
L 1159 0 
L 581 0 
L 581 4863 
L 1159 4863 
L 1159 2956 
Q 1366 3272 1645 3428 
Q 1925 3584 2291 3584 
Q 2894 3584 3203 3211 
Q 3513 2838 3513 2113 
z
" transform="scale(0.015625)"/>
       <path id="DejaVuSans-6b" d="M 581 4863 
L 1159 4863 
L 1159 1991 
L 2875 3500 
L 3609 3500 
L 1753 1863 
L 3688 0 
L 2938 0 
L 1159 1709 
L 1159 0 
L 581 0 
L 581 4863 
z
" transform="scale(0.015625)"/>
      </defs>
      <use xlink:href="#DejaVuSans-43"/>
      <use xlink:href="#DejaVuSans-68" x="69.824219"/>
      <use xlink:href="#DejaVuSans-65" x="133.203125"/>
      <use xlink:href="#DejaVuSans-63" x="194.726562"/>
      <use xlink:href="#DejaVuSans-6b" x="249.707031"/>
      <use xlink:href="#DejaVuSans-20" x="307.617188"/>
      <use xlink:href="#DejaVuSans-56" x="339.404297"/>
      <use xlink:href="#DejaVuSans-61" x="400.0625"/>
      <use xlink:href="#DejaVuSans-6c" x="461.341797"/>
      <use xlink:href="#DejaVuSans-75" x="489.125"/>
      <use xlink:href="#DejaVuSans-65" x="552.503906"/>
     </g>
    </g>
    <g id="line2d_24">
     <path d="M 1276.770313 78.210187 
L 1286.770313 78.210187 
L 1296.770313 78.210187 
" style="fill: none; stroke: #ff0000; stroke-width: 1.5; stroke-linecap: square"/>
    </g>
    <g id="text_22">
     <!-- Predict Value -->
     <g transform="translate(1304.770313 81.710187)scale(0.1 -0.1)">
      <defs>
       <path id="DejaVuSans-50" d="M 1259 4147 
L 1259 2394 
L 2053 2394 
Q 2494 2394 2734 2622 
Q 2975 2850 2975 3272 
Q 2975 3691 2734 3919 
Q 2494 4147 2053 4147 
L 1259 4147 
z
M 628 4666 
L 2053 4666 
Q 2838 4666 3239 4311 
Q 3641 3956 3641 3272 
Q 3641 2581 3239 2228 
Q 2838 1875 2053 1875 
L 1259 1875 
L 1259 0 
L 628 0 
L 628 4666 
z
" transform="scale(0.015625)"/>
      </defs>
      <use xlink:href="#DejaVuSans-50"/>
      <use xlink:href="#DejaVuSans-72" x="58.552734"/>
      <use xlink:href="#DejaVuSans-65" x="97.416016"/>
      <use xlink:href="#DejaVuSans-64" x="158.939453"/>
      <use xlink:href="#DejaVuSans-69" x="222.416016"/>
      <use xlink:href="#DejaVuSans-63" x="250.199219"/>
      <use xlink:href="#DejaVuSans-74" x="305.179688"/>
      <use xlink:href="#DejaVuSans-20" x="344.388672"/>
      <use xlink:href="#DejaVuSans-56" x="376.175781"/>
      <use xlink:href="#DejaVuSans-61" x="436.833984"/>
      <use xlink:href="#DejaVuSans-6c" x="498.113281"/>
      <use xlink:href="#DejaVuSans-75" x="525.896484"/>
      <use xlink:href="#DejaVuSans-65" x="589.275391"/>
     </g>
    </g>
   </g>
  </g>
 </g>
 <defs>
  <clipPath id="p8adcb39dcb">
   <rect x="39.65" y="35.7555" width="1339.2" height="332.64"/>
  </clipPath>
 </defs>
</svg>
