<?xml version="1.0" encoding="utf-8" standalone="no"?>
<!DOCTYPE svg PUBLIC "-//W3C//DTD SVG 1.1//EN"
  "http://www.w3.org/Graphics/SVG/1.1/DTD/svg11.dtd">
<svg xmlns:xlink="http://www.w3.org/1999/xlink" width="1398.775pt" height="392.273625pt" viewBox="0 0 1398.775 392.273625" xmlns="http://www.w3.org/2000/svg" version="1.1">
 <metadata>
  <rdf:RDF xmlns:dc="http://purl.org/dc/elements/1.1/" xmlns:cc="http://creativecommons.org/ns#" xmlns:rdf="http://www.w3.org/1999/02/22-rdf-syntax-ns#">
   <cc:Work>
    <dc:type rdf:resource="http://purl.org/dc/dcmitype/StillImage"/>
    <dc:date>2022-07-27T19:54:18.681594</dc:date>
    <dc:format>image/svg+xml</dc:format>
    <dc:creator>
     <cc:Agent>
      <dc:title>Matplotlib v3.5.2, https://matplotlib.org/</dc:title>
     </cc:Agent>
    </dc:creator>
   </cc:Work>
  </rdf:RDF>
 </metadata>
 <defs>
  <style type="text/css">*{stroke-linejoin: round; stroke-linecap: butt}</style>
 </defs>
 <g id="figure_1">
  <g id="patch_1">
   <path d="M 0 392.273625 
L 1398.775 392.273625 
L 1398.775 0 
L 0 0 
z
" style="fill: #ffffff"/>
  </g>
  <g id="axes_1">
   <g id="patch_2">
    <path d="M 52.375 368.3955 
L 1391.575 368.3955 
L 1391.575 35.7555 
L 52.375 35.7555 
z
" style="fill: #ffffff"/>
   </g>
   <g id="matplotlib.axis_1">
    <g id="xtick_1">
     <g id="line2d_1">
      <defs>
       <path id="m4d5dfeec1d" d="M 0 0 
L 0 3.5 
" style="stroke: #000000; stroke-width: 0.8"/>
      </defs>
      <g>
       <use xlink:href="#m4d5dfeec1d" x="84.385658" y="368.3955" style="stroke: #000000; stroke-width: 0.8"/>
      </g>
     </g>
     <g id="text_1">
      <!-- 2020-01 -->
      <g transform="translate(63.494252 382.993937)scale(0.1 -0.1)">
       <defs>
        <path id="DejaVuSans-32" d="M 1228 531 
L 3431 531 
L 3431 0 
L 469 0 
L 469 531 
Q 828 903 1448 1529 
Q 2069 2156 2228 2338 
Q 2531 2678 2651 2914 
Q 2772 3150 2772 3378 
Q 2772 3750 2511 3984 
Q 2250 4219 1831 4219 
Q 1534 4219 1204 4116 
Q 875 4013 500 3803 
L 500 4441 
Q 881 4594 1212 4672 
Q 1544 4750 1819 4750 
Q 2544 4750 2975 4387 
Q 3406 4025 3406 3419 
Q 3406 3131 3298 2873 
Q 3191 2616 2906 2266 
Q 2828 2175 2409 1742 
Q 1991 1309 1228 531 
z
" transform="scale(0.015625)"/>
        <path id="DejaVuSans-30" d="M 2034 4250 
Q 1547 4250 1301 3770 
Q 1056 3291 1056 2328 
Q 1056 1369 1301 889 
Q 1547 409 2034 409 
Q 2525 409 2770 889 
Q 3016 1369 3016 2328 
Q 3016 3291 2770 3770 
Q 2525 4250 2034 4250 
z
M 2034 4750 
Q 2819 4750 3233 4129 
Q 3647 3509 3647 2328 
Q 3647 1150 3233 529 
Q 2819 -91 2034 -91 
Q 1250 -91 836 529 
Q 422 1150 422 2328 
Q 422 3509 836 4129 
Q 1250 4750 2034 4750 
z
" transform="scale(0.015625)"/>
        <path id="DejaVuSans-2d" d="M 313 2009 
L 1997 2009 
L 1997 1497 
L 313 1497 
L 313 2009 
z
" transform="scale(0.015625)"/>
        <path id="DejaVuSans-31" d="M 794 531 
L 1825 531 
L 1825 4091 
L 703 3866 
L 703 4441 
L 1819 4666 
L 2450 4666 
L 2450 531 
L 3481 531 
L 3481 0 
L 794 0 
L 794 531 
z
" transform="scale(0.015625)"/>
       </defs>
       <use xlink:href="#DejaVuSans-32"/>
       <use xlink:href="#DejaVuSans-30" x="63.623047"/>
       <use xlink:href="#DejaVuSans-32" x="127.246094"/>
       <use xlink:href="#DejaVuSans-30" x="190.869141"/>
       <use xlink:href="#DejaVuSans-2d" x="254.492188"/>
       <use xlink:href="#DejaVuSans-30" x="290.576172"/>
       <use xlink:href="#DejaVuSans-31" x="354.199219"/>
      </g>
     </g>
    </g>
    <g id="xtick_2">
     <g id="line2d_2">
      <g>
       <use xlink:href="#m4d5dfeec1d" x="203.769671" y="368.3955" style="stroke: #000000; stroke-width: 0.8"/>
      </g>
     </g>
     <g id="text_2">
      <!-- 2020-04 -->
      <g transform="translate(182.878265 382.993937)scale(0.1 -0.1)">
       <defs>
        <path id="DejaVuSans-34" d="M 2419 4116 
L 825 1625 
L 2419 1625 
L 2419 4116 
z
M 2253 4666 
L 3047 4666 
L 3047 1625 
L 3713 1625 
L 3713 1100 
L 3047 1100 
L 3047 0 
L 2419 0 
L 2419 1100 
L 313 1100 
L 313 1709 
L 2253 4666 
z
" transform="scale(0.015625)"/>
       </defs>
       <use xlink:href="#DejaVuSans-32"/>
       <use xlink:href="#DejaVuSans-30" x="63.623047"/>
       <use xlink:href="#DejaVuSans-32" x="127.246094"/>
       <use xlink:href="#DejaVuSans-30" x="190.869141"/>
       <use xlink:href="#DejaVuSans-2d" x="254.492188"/>
       <use xlink:href="#DejaVuSans-30" x="290.576172"/>
       <use xlink:href="#DejaVuSans-34" x="354.199219"/>
      </g>
     </g>
    </g>
    <g id="xtick_3">
     <g id="line2d_3">
      <g>
       <use xlink:href="#m4d5dfeec1d" x="323.153683" y="368.3955" style="stroke: #000000; stroke-width: 0.8"/>
      </g>
     </g>
     <g id="text_3">
      <!-- 2020-07 -->
      <g transform="translate(302.262277 382.993937)scale(0.1 -0.1)">
       <defs>
        <path id="DejaVuSans-37" d="M 525 4666 
L 3525 4666 
L 3525 4397 
L 1831 0 
L 1172 0 
L 2766 4134 
L 525 4134 
L 525 4666 
z
" transform="scale(0.015625)"/>
       </defs>
       <use xlink:href="#DejaVuSans-32"/>
       <use xlink:href="#DejaVuSans-30" x="63.623047"/>
       <use xlink:href="#DejaVuSans-32" x="127.246094"/>
       <use xlink:href="#DejaVuSans-30" x="190.869141"/>
       <use xlink:href="#DejaVuSans-2d" x="254.492188"/>
       <use xlink:href="#DejaVuSans-30" x="290.576172"/>
       <use xlink:href="#DejaVuSans-37" x="354.199219"/>
      </g>
     </g>
    </g>
    <g id="xtick_4">
     <g id="line2d_4">
      <g>
       <use xlink:href="#m4d5dfeec1d" x="443.849608" y="368.3955" style="stroke: #000000; stroke-width: 0.8"/>
      </g>
     </g>
     <g id="text_4">
      <!-- 2020-10 -->
      <g transform="translate(422.958202 382.993937)scale(0.1 -0.1)">
       <use xlink:href="#DejaVuSans-32"/>
       <use xlink:href="#DejaVuSans-30" x="63.623047"/>
       <use xlink:href="#DejaVuSans-32" x="127.246094"/>
       <use xlink:href="#DejaVuSans-30" x="190.869141"/>
       <use xlink:href="#DejaVuSans-2d" x="254.492188"/>
       <use xlink:href="#DejaVuSans-31" x="290.576172"/>
       <use xlink:href="#DejaVuSans-30" x="354.199219"/>
      </g>
     </g>
    </g>
    <g id="xtick_5">
     <g id="line2d_5">
      <g>
       <use xlink:href="#m4d5dfeec1d" x="564.545533" y="368.3955" style="stroke: #000000; stroke-width: 0.8"/>
      </g>
     </g>
     <g id="text_5">
      <!-- 2021-01 -->
      <g transform="translate(543.654127 382.993937)scale(0.1 -0.1)">
       <use xlink:href="#DejaVuSans-32"/>
       <use xlink:href="#DejaVuSans-30" x="63.623047"/>
       <use xlink:href="#DejaVuSans-32" x="127.246094"/>
       <use xlink:href="#DejaVuSans-31" x="190.869141"/>
       <use xlink:href="#DejaVuSans-2d" x="254.492188"/>
       <use xlink:href="#DejaVuSans-30" x="290.576172"/>
       <use xlink:href="#DejaVuSans-31" x="354.199219"/>
      </g>
     </g>
    </g>
    <g id="xtick_6">
     <g id="line2d_6">
      <g>
       <use xlink:href="#m4d5dfeec1d" x="682.617633" y="368.3955" style="stroke: #000000; stroke-width: 0.8"/>
      </g>
     </g>
     <g id="text_6">
      <!-- 2021-04 -->
      <g transform="translate(661.726227 382.993937)scale(0.1 -0.1)">
       <use xlink:href="#DejaVuSans-32"/>
       <use xlink:href="#DejaVuSans-30" x="63.623047"/>
       <use xlink:href="#DejaVuSans-32" x="127.246094"/>
       <use xlink:href="#DejaVuSans-31" x="190.869141"/>
       <use xlink:href="#DejaVuSans-2d" x="254.492188"/>
       <use xlink:href="#DejaVuSans-30" x="290.576172"/>
       <use xlink:href="#DejaVuSans-34" x="354.199219"/>
      </g>
     </g>
    </g>
    <g id="xtick_7">
     <g id="line2d_7">
      <g>
       <use xlink:href="#m4d5dfeec1d" x="802.001646" y="368.3955" style="stroke: #000000; stroke-width: 0.8"/>
      </g>
     </g>
     <g id="text_7">
      <!-- 2021-07 -->
      <g transform="translate(781.11024 382.993937)scale(0.1 -0.1)">
       <use xlink:href="#DejaVuSans-32"/>
       <use xlink:href="#DejaVuSans-30" x="63.623047"/>
       <use xlink:href="#DejaVuSans-32" x="127.246094"/>
       <use xlink:href="#DejaVuSans-31" x="190.869141"/>
       <use xlink:href="#DejaVuSans-2d" x="254.492188"/>
       <use xlink:href="#DejaVuSans-30" x="290.576172"/>
       <use xlink:href="#DejaVuSans-37" x="354.199219"/>
      </g>
     </g>
    </g>
    <g id="xtick_8">
     <g id="line2d_8">
      <g>
       <use xlink:href="#m4d5dfeec1d" x="922.697571" y="368.3955" style="stroke: #000000; stroke-width: 0.8"/>
      </g>
     </g>
     <g id="text_8">
      <!-- 2021-10 -->
      <g transform="translate(901.806164 382.993937)scale(0.1 -0.1)">
       <use xlink:href="#DejaVuSans-32"/>
       <use xlink:href="#DejaVuSans-30" x="63.623047"/>
       <use xlink:href="#DejaVuSans-32" x="127.246094"/>
       <use xlink:href="#DejaVuSans-31" x="190.869141"/>
       <use xlink:href="#DejaVuSans-2d" x="254.492188"/>
       <use xlink:href="#DejaVuSans-31" x="290.576172"/>
       <use xlink:href="#DejaVuSans-30" x="354.199219"/>
      </g>
     </g>
    </g>
    <g id="xtick_9">
     <g id="line2d_9">
      <g>
       <use xlink:href="#m4d5dfeec1d" x="1043.393495" y="368.3955" style="stroke: #000000; stroke-width: 0.8"/>
      </g>
     </g>
     <g id="text_9">
      <!-- 2022-01 -->
      <g transform="translate(1022.502089 382.993937)scale(0.1 -0.1)">
       <use xlink:href="#DejaVuSans-32"/>
       <use xlink:href="#DejaVuSans-30" x="63.623047"/>
       <use xlink:href="#DejaVuSans-32" x="127.246094"/>
       <use xlink:href="#DejaVuSans-32" x="190.869141"/>
       <use xlink:href="#DejaVuSans-2d" x="254.492188"/>
       <use xlink:href="#DejaVuSans-30" x="290.576172"/>
       <use xlink:href="#DejaVuSans-31" x="354.199219"/>
      </g>
     </g>
    </g>
    <g id="xtick_10">
     <g id="line2d_10">
      <g>
       <use xlink:href="#m4d5dfeec1d" x="1161.465596" y="368.3955" style="stroke: #000000; stroke-width: 0.8"/>
      </g>
     </g>
     <g id="text_10">
      <!-- 2022-04 -->
      <g transform="translate(1140.574189 382.993937)scale(0.1 -0.1)">
       <use xlink:href="#DejaVuSans-32"/>
       <use xlink:href="#DejaVuSans-30" x="63.623047"/>
       <use xlink:href="#DejaVuSans-32" x="127.246094"/>
       <use xlink:href="#DejaVuSans-32" x="190.869141"/>
       <use xlink:href="#DejaVuSans-2d" x="254.492188"/>
       <use xlink:href="#DejaVuSans-30" x="290.576172"/>
       <use xlink:href="#DejaVuSans-34" x="354.199219"/>
      </g>
     </g>
    </g>
    <g id="xtick_11">
     <g id="line2d_11">
      <g>
       <use xlink:href="#m4d5dfeec1d" x="1280.849608" y="368.3955" style="stroke: #000000; stroke-width: 0.8"/>
      </g>
     </g>
     <g id="text_11">
      <!-- 2022-07 -->
      <g transform="translate(1259.958202 382.993937)scale(0.1 -0.1)">
       <use xlink:href="#DejaVuSans-32"/>
       <use xlink:href="#DejaVuSans-30" x="63.623047"/>
       <use xlink:href="#DejaVuSans-32" x="127.246094"/>
       <use xlink:href="#DejaVuSans-32" x="190.869141"/>
       <use xlink:href="#DejaVuSans-2d" x="254.492188"/>
       <use xlink:href="#DejaVuSans-30" x="290.576172"/>
       <use xlink:href="#DejaVuSans-37" x="354.199219"/>
      </g>
     </g>
    </g>
   </g>
   <g id="matplotlib.axis_2">
    <g id="ytick_1">
     <g id="line2d_12">
      <defs>
       <path id="m8a44a98b0e" d="M 0 0 
L -3.5 0 
" style="stroke: #000000; stroke-width: 0.8"/>
      </defs>
      <g>
       <use xlink:href="#m8a44a98b0e" x="52.375" y="353.056185" style="stroke: #000000; stroke-width: 0.8"/>
      </g>
     </g>
     <g id="text_12">
      <!-- 0 -->
      <g transform="translate(39.0125 356.855404)scale(0.1 -0.1)">
       <use xlink:href="#DejaVuSans-30"/>
      </g>
     </g>
    </g>
    <g id="ytick_2">
     <g id="line2d_13">
      <g>
       <use xlink:href="#m8a44a98b0e" x="52.375" y="280.098812" style="stroke: #000000; stroke-width: 0.8"/>
      </g>
     </g>
     <g id="text_13">
      <!-- 100000 -->
      <g transform="translate(7.2 283.898031)scale(0.1 -0.1)">
       <use xlink:href="#DejaVuSans-31"/>
       <use xlink:href="#DejaVuSans-30" x="63.623047"/>
       <use xlink:href="#DejaVuSans-30" x="127.246094"/>
       <use xlink:href="#DejaVuSans-30" x="190.869141"/>
       <use xlink:href="#DejaVuSans-30" x="254.492188"/>
       <use xlink:href="#DejaVuSans-30" x="318.115234"/>
      </g>
     </g>
    </g>
    <g id="ytick_3">
     <g id="line2d_14">
      <g>
       <use xlink:href="#m8a44a98b0e" x="52.375" y="207.141439" style="stroke: #000000; stroke-width: 0.8"/>
      </g>
     </g>
     <g id="text_14">
      <!-- 200000 -->
      <g transform="translate(7.2 210.940657)scale(0.1 -0.1)">
       <use xlink:href="#DejaVuSans-32"/>
       <use xlink:href="#DejaVuSans-30" x="63.623047"/>
       <use xlink:href="#DejaVuSans-30" x="127.246094"/>
       <use xlink:href="#DejaVuSans-30" x="190.869141"/>
       <use xlink:href="#DejaVuSans-30" x="254.492188"/>
       <use xlink:href="#DejaVuSans-30" x="318.115234"/>
      </g>
     </g>
    </g>
    <g id="ytick_4">
     <g id="line2d_15">
      <g>
       <use xlink:href="#m8a44a98b0e" x="52.375" y="134.184065" style="stroke: #000000; stroke-width: 0.8"/>
      </g>
     </g>
     <g id="text_15">
      <!-- 300000 -->
      <g transform="translate(7.2 137.983284)scale(0.1 -0.1)">
       <defs>
        <path id="DejaVuSans-33" d="M 2597 2516 
Q 3050 2419 3304 2112 
Q 3559 1806 3559 1356 
Q 3559 666 3084 287 
Q 2609 -91 1734 -91 
Q 1441 -91 1130 -33 
Q 819 25 488 141 
L 488 750 
Q 750 597 1062 519 
Q 1375 441 1716 441 
Q 2309 441 2620 675 
Q 2931 909 2931 1356 
Q 2931 1769 2642 2001 
Q 2353 2234 1838 2234 
L 1294 2234 
L 1294 2753 
L 1863 2753 
Q 2328 2753 2575 2939 
Q 2822 3125 2822 3475 
Q 2822 3834 2567 4026 
Q 2313 4219 1838 4219 
Q 1578 4219 1281 4162 
Q 984 4106 628 3988 
L 628 4550 
Q 988 4650 1302 4700 
Q 1616 4750 1894 4750 
Q 2613 4750 3031 4423 
Q 3450 4097 3450 3541 
Q 3450 3153 3228 2886 
Q 3006 2619 2597 2516 
z
" transform="scale(0.015625)"/>
       </defs>
       <use xlink:href="#DejaVuSans-33"/>
       <use xlink:href="#DejaVuSans-30" x="63.623047"/>
       <use xlink:href="#DejaVuSans-30" x="127.246094"/>
       <use xlink:href="#DejaVuSans-30" x="190.869141"/>
       <use xlink:href="#DejaVuSans-30" x="254.492188"/>
       <use xlink:href="#DejaVuSans-30" x="318.115234"/>
      </g>
     </g>
    </g>
    <g id="ytick_5">
     <g id="line2d_16">
      <g>
       <use xlink:href="#m8a44a98b0e" x="52.375" y="61.226692" style="stroke: #000000; stroke-width: 0.8"/>
      </g>
     </g>
     <g id="text_16">
      <!-- 400000 -->
      <g transform="translate(7.2 65.025911)scale(0.1 -0.1)">
       <use xlink:href="#DejaVuSans-34"/>
       <use xlink:href="#DejaVuSans-30" x="63.623047"/>
       <use xlink:href="#DejaVuSans-30" x="127.246094"/>
       <use xlink:href="#DejaVuSans-30" x="190.869141"/>
       <use xlink:href="#DejaVuSans-30" x="254.492188"/>
       <use xlink:href="#DejaVuSans-30" x="318.115234"/>
      </g>
     </g>
    </g>
   </g>
   <g id="line2d_17">
    <path d="M 113.247727 353.056185 
L 195.898197 353.005115 
L 198.522022 352.983228 
L 199.833934 353.029191 
L 201.145846 352.890572 
L 202.457759 352.949667 
L 203.769671 352.617711 
L 205.081583 352.658567 
L 206.393495 353.038675 
L 207.705408 352.680455 
L 209.01732 352.687021 
L 210.329232 352.187992 
L 211.641144 352.667322 
L 218.200705 352.502439 
L 219.512618 352.145677 
L 222.136442 352.446991 
L 223.448354 352.247817 
L 224.760266 352.383518 
L 227.384091 351.675102 
L 228.696003 352.382059 
L 230.007915 351.931912 
L 231.319828 352.115035 
L 232.63174 351.810803 
L 233.943652 351.996115 
L 235.255564 351.777242 
L 237.879389 351.917321 
L 239.191301 351.689694 
L 240.503213 351.788186 
L 241.815125 351.742223 
L 243.127038 351.309586 
L 244.43895 351.274566 
L 245.750862 351.009001 
L 247.062774 350.187501 
L 248.374687 350.894458 
L 249.686599 350.439204 
L 250.998511 350.601899 
L 252.310423 350.616491 
L 253.622335 350.785022 
L 254.934248 349.880351 
L 256.24616 350.424613 
L 257.558072 350.485167 
L 260.181897 350.180205 
L 261.493809 350.293289 
L 262.805721 349.507539 
L 264.117633 349.371838 
L 265.429545 349.678259 
L 266.741458 348.571495 
L 268.05337 349.004862 
L 269.365282 348.534287 
L 270.677194 348.264345 
L 271.989107 348.219841 
L 273.301019 347.866727 
L 275.924843 348.793286 
L 277.236755 347.735404 
L 278.548668 347.730297 
L 279.86058 347.14299 
L 281.172492 346.974459 
L 282.484404 346.649069 
L 283.796317 347.393963 
L 285.108229 346.620615 
L 286.420141 346.028201 
L 287.732053 345.841431 
L 289.043966 346.146392 
L 290.355878 345.440895 
L 291.66779 345.130096 
L 292.979702 346.897124 
L 294.291614 345.601401 
L 295.603527 345.425573 
L 299.539263 344.3531 
L 300.851176 344.664628 
L 302.163088 345.273822 
L 303.475 345.049843 
L 304.786912 343.658546 
L 306.098824 343.144196 
L 308.722649 341.818561 
L 310.034561 342.235877 
L 311.346473 342.161461 
L 313.970298 340.710338 
L 315.28221 340.437478 
L 317.906034 338.53329 
L 319.217947 338.85941 
L 320.529859 339.54302 
L 321.841771 339.456201 
L 323.153683 339.077552 
L 325.777508 336.443062 
L 327.08942 334.926278 
L 328.401332 335.365481 
L 329.713245 336.82244 
L 331.025157 336.456194 
L 332.337069 334.90512 
L 333.648981 333.718104 
L 334.960893 333.274523 
L 336.272806 332.185999 
L 337.584718 332.094073 
L 338.89663 332.264793 
L 340.208542 331.58556 
L 341.520455 329.216634 
L 342.832367 327.539344 
L 344.144279 327.337252 
L 345.456191 324.82387 
L 346.768103 323.563167 
L 348.080016 325.965653 
L 349.391928 325.522072 
L 350.70384 319.700074 
L 352.015752 317.080904 
L 354.639577 317.590876 
L 355.951489 316.59136 
L 357.263401 320.621526 
L 358.575313 315.413099 
L 359.887226 316.363004 
L 361.199138 314.547095 
L 362.51105 308.375631 
L 363.822962 313.122967 
L 365.134875 314.409205 
L 366.446787 315.081872 
L 367.758699 314.746998 
L 369.070611 311.994316 
L 370.382524 307.430103 
L 371.694436 308.160406 
L 373.006348 306.072366 
L 374.31826 307.775921 
L 375.630172 313.950304 
L 376.942085 308.579182 
L 378.253997 304.175475 
L 379.565909 305.960012 
L 380.877821 305.829418 
L 382.189734 306.341579 
L 383.501646 310.951755 
L 384.813558 312.916498 
L 386.12547 305.94615 
L 387.437382 302.225324 
L 388.749295 302.788555 
L 390.061207 302.076491 
L 391.373119 302.541229 
L 392.685031 308.254521 
L 393.996944 308.570427 
L 395.308856 311.307058 
L 396.620768 290.541201 
L 397.93268 296.684941 
L 399.244592 297.264223 
L 400.556505 295.594228 
L 401.868417 295.775892 
L 403.180329 302.04366 
L 404.492241 295.888976 
L 405.804154 291.857352 
L 407.116066 292.252781 
L 408.427978 289.997668 
L 409.73989 286.933459 
L 411.051803 286.809431 
L 412.363715 297.74793 
L 413.675627 287.609044 
L 414.987539 283.210444 
L 416.299451 282.615112 
L 417.611364 281.871676 
L 418.923276 284.204853 
L 420.235188 285.883602 
L 421.5471 291.91134 
L 422.859013 287.304812 
L 424.170925 281.635294 
L 425.482837 282.707768 
L 426.794749 284.959962 
L 428.106661 285.49401 
L 429.418574 289.611724 
L 430.730486 298.277601 
L 432.042398 292.248403 
L 433.35431 289.942221 
L 434.666223 290.274906 
L 435.978135 290.778312 
L 437.290047 288.415952 
L 438.601959 293.107112 
L 439.913871 301.556305 
L 441.225784 294.345928 
L 442.537696 289.713864 
L 443.849608 293.607599 
L 445.16152 295.072583 
L 446.473433 297.733339 
L 447.785345 298.745257 
L 449.097257 308.357391 
L 450.409169 300.491127 
L 451.721082 295.767137 
L 453.032994 301.624155 
L 454.344906 299.598859 
L 455.656818 298.788302 
L 456.96873 304.370271 
L 458.280643 312.680116 
L 459.592555 306.721687 
L 460.904467 303.658207 
L 462.216379 306.822368 
L 463.528292 307.667944 
L 464.840204 307.916729 
L 466.152116 312.402878 
L 467.464028 318.91943 
L 468.77594 313.627102 
L 470.087853 312.317517 
L 471.399765 313.39218 
L 472.711677 314.118835 
L 474.023589 316.483384 
L 475.335502 320.11739 
L 476.647414 326.448631 
L 477.959326 321.033005 
L 479.271238 316.664318 
L 480.58315 317.563882 
L 481.895063 317.84112 
L 483.206975 318.793214 
L 484.518887 320.056836 
L 485.830799 325.106215 
L 487.142712 319.311211 
L 488.454624 316.424288 
L 489.766536 318.300752 
L 491.078448 316.31777 
L 492.390361 319.733634 
L 493.702273 319.566562 
L 495.014185 325.279124 
L 496.326097 320.749931 
L 497.638009 318.105955 
L 498.949922 320.313646 
L 500.261834 320.455912 
L 501.573746 323.070705 
L 502.885658 330.769167 
L 504.197571 331.779626 
L 505.509483 324.882236 
L 506.821395 319.805133 
L 509.445219 319.326532 
L 512.069044 320.911896 
L 513.380956 325.350623 
L 514.692868 320.680621 
L 516.004781 320.598179 
L 517.316693 321.62469 
L 518.628605 322.908739 
L 519.940517 322.552707 
L 521.252429 324.769152 
L 522.564342 330.35331 
L 523.876254 326.350868 
L 525.188166 327.119109 
L 526.500078 326.357434 
L 527.811991 326.315849 
L 529.123903 326.783505 
L 530.435815 328.994114 
L 531.747727 333.6736 
L 533.059639 329.65146 
L 534.371552 330.059292 
L 535.683464 331.626416 
L 536.995376 331.146356 
L 538.307288 330.983661 
L 539.619201 333.305895 
L 540.931113 336.958141 
L 542.243025 333.808571 
L 543.554937 335.53912 
L 544.86685 336.356242 
L 546.178762 334.705947 
L 547.490674 333.632014 
L 548.802586 335.300549 
L 550.114498 338.788641 
L 551.426411 335.582894 
L 552.738323 335.026959 
L 554.050235 336.227108 
L 555.362147 336.806389 
L 556.67406 339.38981 
L 557.985972 338.449389 
L 559.297884 341.06783 
L 560.609796 338.064175 
L 561.921708 337.135427 
L 563.233621 338.439175 
L 565.857445 339.794723 
L 567.169357 341.0153 
L 568.48127 341.109415 
L 569.793182 339.859655 
L 571.105094 338.212278 
L 572.417006 339.822447 
L 573.728918 353.056185 
L 575.040831 326.15899 
L 576.352743 341.156108 
L 577.664655 343.875229 
L 578.976567 341.406352 
L 580.28848 340.692829 
L 581.600392 341.682131 
L 582.912304 341.997307 
L 584.224216 342.007521 
L 585.536129 342.996823 
L 586.848041 345.723969 
L 588.159953 342.976394 
L 589.471865 341.934563 
L 590.783777 342.444535 
L 592.09569 342.655382 
L 593.407602 342.222745 
L 594.719514 343.423623 
L 596.031426 346.415605 
L 597.343339 343.798624 
L 598.655251 344.544978 
L 599.967163 339.300072 
L 601.279075 343.511902 
L 602.590987 343.539625 
L 603.9029 344.71278 
L 605.214812 346.756316 
L 606.526724 345.002421 
L 607.838636 343.645414 
L 609.150549 344.003634 
L 610.462461 344.510688 
L 611.774373 344.258256 
L 613.086285 344.424598 
L 614.398197 346.409768 
L 617.022022 343.627904 
L 618.333934 346.264583 
L 619.645846 344.196971 
L 620.957759 344.159763 
L 622.269671 344.557381 
L 623.581583 346.401743 
L 624.893495 344.585834 
L 626.205408 343.658546 
L 627.51732 343.430919 
L 628.829232 342.84726 
L 630.141144 342.649545 
L 631.453056 342.696968 
L 632.764969 345.334377 
L 635.388793 340.84458 
L 638.012618 341.026973 
L 639.32453 340.834366 
L 640.636442 341.740497 
L 641.948354 344.092642 
L 643.260266 342.120604 
L 644.572179 340.356495 
L 645.884091 340.771623 
L 647.196003 339.716659 
L 648.507915 339.373759 
L 649.819828 339.486843 
L 651.13174 341.829505 
L 652.443652 339.981494 
L 653.755564 336.382507 
L 655.067476 336.068061 
L 656.379389 334.902932 
L 657.691301 334.583378 
L 659.003213 333.874962 
L 660.315125 335.187465 
L 661.627038 331.969316 
L 662.93895 326.885646 
L 664.250862 324.073139 
L 665.562774 323.177952 
L 668.186599 318.801969 
L 669.498511 323.351591 
L 672.122335 314.0415 
L 673.434248 309.925245 
L 674.74616 307.634384 
L 676.058072 307.301698 
L 677.369984 303.43058 
L 678.681897 312.046116 
L 679.993809 314.038582 
L 681.305721 300.286117 
L 682.617633 293.620731 
L 683.929545 288.030008 
L 685.241458 285.024164 
L 686.55337 277.502989 
L 687.865282 282.300665 
L 689.177194 268.61824 
L 690.489107 260.554261 
L 691.801019 256.775799 
L 693.112931 246.987838 
L 694.424843 241.519682 
L 695.736755 229.822427 
L 697.048668 235.057848 
L 698.36058 218.543217 
L 702.296317 181.831067 
L 703.608229 162.349989 
L 704.920141 153.297438 
L 706.232053 163.97475 
L 707.543966 137.716661 
L 710.16779 110.165769 
L 711.479702 100.050229 
L 712.791614 97.930817 
L 714.103527 95.523224 
L 715.415439 117.387089 
L 716.727351 89.733327 
L 718.039263 76.323032 
L 719.351176 71.035811 
L 720.663088 59.772652 
L 721.975 66.70725 
L 723.286912 84.529277 
L 724.598824 92.367817 
L 725.910737 74.252502 
L 727.222649 52.157361 
L 728.534561 50.8755 
L 729.846473 60.440212 
L 731.158386 58.742494 
L 733.78221 112.339169 
L 735.094122 98.857376 
L 736.406034 88.420094 
L 737.717947 102.707336 
L 739.029859 115.14365 
L 740.341771 126.034727 
L 741.653683 147.764351 
L 742.965596 160.789431 
L 744.277508 158.016321 
L 745.58942 151.613582 
L 746.901332 163.694593 
L 748.213245 165.337593 
L 749.525157 177.344188 
L 750.837069 190.861001 
L 752.148981 209.748206 
L 753.460893 200.632911 
L 754.772806 198.898715 
L 756.084718 217.089906 
L 757.39663 226.263566 
L 758.708542 232.273065 
L 760.020455 241.625471 
L 761.332367 260.028239 
L 762.644279 256.177548 
L 763.956191 255.180951 
L 765.268103 256.486888 
L 766.580016 265.121393 
L 767.891928 269.549176 
L 770.515752 289.949516 
L 771.827665 285.500576 
L 773.139577 284.868035 
L 774.451489 285.723096 
L 775.763401 291.529773 
L 777.075313 294.081822 
L 779.699138 308.938132 
L 781.01105 307.659189 
L 782.322962 304.022994 
L 783.634875 307.472418 
L 784.946787 308.732392 
L 786.258699 310.576025 
L 787.570611 314.061199 
L 788.882524 321.947161 
L 790.194436 315.95882 
L 791.506348 313.608863 
L 792.81826 315.361299 
L 794.130172 317.527404 
L 795.442085 316.548316 
L 796.753997 319.387817 
L 798.065909 325.649018 
L 799.377821 319.531543 
L 800.689734 317.463201 
L 802.001646 319.045646 
L 803.313558 320.873958 
L 804.62547 321.632715 
L 805.937382 324.022069 
L 807.249295 327.737788 
L 808.561207 321.149737 
L 809.873119 319.574587 
L 811.185031 321.397792 
L 812.496944 321.855235 
L 813.808856 322.774498 
L 816.43268 329.048832 
L 817.744592 324.701302 
L 819.056505 322.608885 
L 820.368417 324.640018 
L 821.680329 325.274747 
L 822.992241 323.029119 
L 824.304154 325.212733 
L 825.616066 331.101123 
L 826.927978 322.403145 
L 828.23989 322.864235 
L 829.551803 327.27159 
L 830.863715 324.532041 
L 832.175627 324.061466 
L 833.487539 324.339433 
L 834.799451 331.395871 
L 836.111364 321.207373 
L 837.423276 321.313162 
L 838.735188 320.787139 
L 840.0471 322.670169 
L 841.359013 322.537386 
L 842.670925 323.775473 
L 843.982837 330.768437 
L 845.294749 321.958105 
L 846.606661 321.697647 
L 847.918574 320.485825 
L 849.230486 324.874211 
L 850.542398 324.551739 
L 851.85431 327.157047 
L 853.166223 332.479288 
L 854.478135 325.074844 
L 855.790047 323.001395 
L 857.101959 323.785687 
L 858.413871 324.845758 
L 859.725784 326.730976 
L 861.037696 329.026215 
L 862.349608 334.695733 
L 863.66152 327.39124 
L 864.973433 326.498972 
L 866.285345 326.374944 
L 867.597257 327.917263 
L 868.909169 330.477337 
L 870.221082 334.764313 
L 871.532994 334.476131 
L 872.844906 325.62932 
L 874.156818 319.376143 
L 875.46873 320.474881 
L 876.780643 318.942047 
L 878.092555 320.164813 
L 879.404467 321.750906 
L 880.716379 330.482444 
L 882.028292 322.439623 
L 883.340204 318.699099 
L 884.652116 319.968557 
L 885.964028 321.963212 
L 887.27594 321.855235 
L 888.587853 324.640747 
L 889.899765 330.277434 
L 891.211677 325.42358 
L 892.523589 321.492637 
L 893.835502 327.540803 
L 895.147414 328.705932 
L 896.459326 332.196943 
L 897.771238 333.172383 
L 899.08315 334.522094 
L 900.395063 333.229289 
L 901.706975 330.753116 
L 903.018887 327.95666 
L 904.330799 327.038127 
L 905.642712 330.605013 
L 906.954624 330.982202 
L 908.266536 334.003367 
L 909.578448 333.383959 
L 910.890361 329.766003 
L 912.202273 330.160702 
L 913.514185 331.449129 
L 914.826097 332.39028 
L 916.138009 334.057356 
L 917.449922 339.343847 
L 918.761834 339.289129 
L 920.073746 335.890045 
L 921.385658 333.556868 
L 922.697571 335.288146 
L 924.009483 336.391262 
L 925.321395 337.881781 
L 926.633307 339.671425 
L 927.945219 339.316123 
L 929.257132 336.691117 
L 930.569044 337.547636 
L 933.192868 339.802749 
L 934.504781 339.827554 
L 935.816693 342.613796 
L 937.128605 341.51214 
L 938.440517 339.203769 
L 939.752429 340.754113 
L 941.064342 341.396867 
L 942.376254 342.735635 
L 945.000078 343.529411 
L 946.311991 342.387628 
L 947.623903 339.592631 
L 948.935815 341.539134 
L 950.247727 341.145164 
L 951.559639 341.451585 
L 952.871552 342.618903 
L 954.183464 343.989043 
L 955.495376 343.242689 
L 956.807288 341.269192 
L 958.119201 342.588261 
L 959.431113 342.613796 
L 960.743025 343.695754 
L 962.054937 343.926299 
L 963.36685 345.451838 
L 964.678762 344.372069 
L 965.990674 343.655628 
L 967.302586 343.769441 
L 968.614498 345.082674 
L 969.926411 345.15782 
L 971.238323 344.682138 
L 972.550235 345.668522 
L 973.862147 344.690893 
L 975.17406 343.505335 
L 979.109796 344.83316 
L 980.421708 345.593375 
L 981.733621 346.588514 
L 983.045533 345.616722 
L 984.357445 344.360396 
L 986.98127 345.540117 
L 988.293182 345.404416 
L 989.605094 346.863563 
L 990.917006 347.526746 
L 992.228918 346.283552 
L 993.540831 346.403202 
L 994.852743 345.359912 
L 996.164655 346.987591 
L 997.476567 346.654905 
L 998.78848 346.994157 
L 1000.100392 347.956465 
L 1001.412304 346.523582 
L 1002.724216 345.931898 
L 1005.348041 346.779662 
L 1006.659953 353.056185 
L 1007.971865 340.506787 
L 1009.283777 348.079033 
L 1010.59569 346.899312 
L 1011.907602 346.18433 
L 1013.219514 346.926307 
L 1014.531426 347.226891 
L 1015.843339 347.309333 
L 1017.155251 347.693818 
L 1018.467163 348.836331 
L 1019.779075 347.960842 
L 1021.090987 347.238564 
L 1022.4029 347.62305 
L 1023.714812 353.056185 
L 1025.026724 347.843381 
L 1026.338636 343.101881 
L 1027.650549 349.170475 
L 1028.962461 348.447468 
L 1030.274373 347.58803 
L 1031.586285 348.20452 
L 1032.898197 347.81128 
L 1034.21011 347.958653 
L 1035.522022 348.291339 
L 1036.833934 348.417555 
L 1038.145846 346.347755 
L 1040.769671 340.825611 
L 1042.081583 336.440143 
L 1043.393495 332.95424 
L 1044.705408 328.433072 
L 1046.01732 325.785449 
L 1047.329232 310.67014 
L 1048.641144 286.717505 
L 1051.264969 249.466929 
L 1052.576881 236.592871 
L 1053.888793 221.935005 
L 1055.200705 230.441835 
L 1056.512618 210.993588 
L 1057.82453 172.547241 
L 1059.136442 160.301346 
L 1060.448354 156.92269 
L 1061.760266 155.19433 
L 1063.072179 164.76123 
L 1064.384091 179.404504 
L 1065.696003 146.608706 
L 1067.007915 121.393179 
L 1068.319828 99.708788 
L 1069.63174 106.676217 
L 1070.943652 109.719269 
L 1072.255564 129.75993 
L 1073.567476 166.377236 
L 1074.879389 144.460841 
L 1076.191301 144.117941 
L 1077.503213 169.780697 
L 1078.815125 181.218225 
L 1080.127038 182.130922 
L 1081.43895 199.905526 
L 1082.750862 231.174327 
L 1084.062774 235.313199 
L 1085.374687 227.253598 
L 1087.998511 259.705767 
L 1089.310423 274.645978 
L 1090.622335 291.862459 
L 1091.934248 303.73919 
L 1093.24616 300.990156 
L 1094.558072 304.113461 
L 1095.869984 310.684731 
L 1097.181897 316.280562 
L 1098.493809 320.315105 
L 1099.805721 328.168236 
L 1101.117633 333.059299 
L 1102.429545 330.720285 
L 1103.741458 330.616686 
L 1105.05337 334.145634 
L 1106.365282 336.808578 
L 1107.677194 338.488057 
L 1108.989107 341.345797 
L 1110.301019 343.276249 
L 1111.612931 342.038163 
L 1114.236755 343.450617 
L 1115.548668 344.666817 
L 1116.86058 345.561274 
L 1118.172492 347.210111 
L 1119.484404 348.011183 
L 1120.796317 347.544985 
L 1122.108229 348.269452 
L 1123.420141 348.389832 
L 1126.043966 349.061039 
L 1127.355878 349.873785 
L 1128.66779 350.142997 
L 1129.979702 349.718385 
L 1131.291614 350.003649 
L 1132.603527 349.996353 
L 1136.539263 351.230062 
L 1137.851176 351.18264 
L 1139.163088 350.957931 
L 1140.475 351.203797 
L 1141.786912 351.211823 
L 1144.410737 351.771406 
L 1145.722649 351.926075 
L 1147.034561 351.902729 
L 1149.658386 351.642271 
L 1150.970298 351.826853 
L 1152.28221 351.845093 
L 1154.906034 352.129627 
L 1162.777508 352.256572 
L 1165.401332 352.476174 
L 1166.713245 352.263868 
L 1169.337069 352.247088 
L 1171.960893 352.287214 
L 1174.584718 352.475444 
L 1175.89663 352.262409 
L 1179.832367 352.344851 
L 1181.144279 352.217175 
L 1182.456191 351.463526 
L 1183.768103 352.146407 
L 1185.080016 351.548156 
L 1186.391928 351.3198 
L 1191.639577 351.202338 
L 1192.951489 353.04816 
L 1194.263401 349.117217 
L 1195.575313 350.646403 
L 1196.887226 350.592415 
L 1198.199138 350.365517 
L 1199.51105 350.631082 
L 1200.822962 350.752921 
L 1202.134875 351.18264 
L 1203.446787 350.717901 
L 1204.758699 350.666831 
L 1207.382524 350.280157 
L 1210.006348 350.716442 
L 1211.31826 351.38692 
L 1212.630172 350.94261 
L 1215.253997 350.983466 
L 1216.565909 350.971063 
L 1219.189734 351.449664 
L 1220.501646 351.911484 
L 1221.813558 351.721795 
L 1223.12547 351.331473 
L 1224.437382 351.408078 
L 1225.749295 351.361385 
L 1228.373119 351.580987 
L 1229.685031 351.834149 
L 1232.308856 351.138865 
L 1236.244592 350.992951 
L 1237.556505 351.081959 
L 1238.868417 351.350442 
L 1240.180329 351.053505 
L 1241.492241 350.348007 
L 1242.804154 350.107978 
L 1244.116066 350.165614 
L 1246.73989 349.759971 
L 1248.051803 350.346548 
L 1249.363715 349.238326 
L 1250.675627 347.774071 
L 1251.987539 347.523098 
L 1253.299451 346.979566 
L 1254.611364 346.794983 
L 1255.923276 347.158311 
L 1257.235188 348.245376 
L 1258.5471 346.619886 
L 1259.859013 344.145901 
L 1261.170925 343.683351 
L 1262.482837 343.414139 
L 1263.794749 343.645414 
L 1265.106661 343.731503 
L 1266.418574 345.816625 
L 1267.730486 344.119636 
L 1269.042398 343.34337 
L 1270.35431 340.408295 
L 1271.666223 341.42678 
L 1272.978135 344.491719 
L 1274.290047 340.600173 
L 1275.601959 344.452322 
L 1276.913871 342.472989 
L 1278.225784 339.326337 
L 1279.537696 340.602362 
L 1280.849608 340.586311 
L 1282.16152 341.307859 
L 1283.473433 341.284513 
L 1284.785345 343.508983 
L 1286.097257 341.267003 
L 1287.409169 339.245354 
L 1290.032994 339.311016 
L 1291.344906 339.736358 
L 1292.656818 340.888354 
L 1293.96873 343.123039 
L 1296.592555 338.3633 
L 1299.216379 338.432609 
L 1300.528292 338.079496 
L 1301.840204 340.700854 
L 1303.152116 341.727364 
L 1304.464028 339.474441 
L 1305.77594 336.239511 
L 1307.087853 336.759697 
L 1308.399765 337.435282 
L 1309.711677 338.261159 
L 1311.023589 340.751195 
L 1312.335502 342.236607 
L 1313.647414 339.695501 
L 1313.647414 339.695501 
" clip-path="url(#p6af2913013)" style="fill: none; stroke: #0000ff; stroke-width: 1.5; stroke-linecap: square"/>
   </g>
   <g id="line2d_18">
    <path d="M 1073.567476 150.238335 
L 1074.879389 131.8411 
L 1076.191301 134.799624 
L 1077.503213 182.565678 
L 1078.815125 190.117036 
L 1080.127038 200.064589 
L 1081.43895 227.853077 
L 1082.750862 221.164377 
L 1084.062774 240.405553 
L 1086.686599 253.760244 
L 1087.998511 263.076977 
L 1090.622335 315.645302 
L 1091.934248 308.115739 
L 1093.24616 296.476586 
L 1094.558072 316.586832 
L 1095.869984 321.553473 
L 1097.181897 326.053086 
L 1098.493809 330.960344 
L 1099.805721 335.218148 
L 1101.117633 330.617384 
L 1102.429545 332.303236 
L 1103.741458 334.406249 
L 1105.05337 337.460839 
L 1106.365282 339.199347 
L 1107.677194 343.407975 
L 1108.989107 344.243332 
L 1110.301019 341.544982 
L 1111.612931 341.96023 
L 1112.924843 345.212589 
L 1114.236755 345.241141 
L 1115.548668 345.857292 
L 1116.86058 347.57567 
L 1118.172492 348.670496 
L 1119.484404 347.427811 
L 1122.108229 349.105819 
L 1123.420141 349.519113 
L 1124.732053 349.624747 
L 1126.043966 350.435039 
L 1127.355878 350.699408 
L 1128.66779 350.150098 
L 1129.979702 350.509195 
L 1131.291614 350.408001 
L 1132.603527 350.561131 
L 1133.915439 351.014877 
L 1135.227351 351.720136 
L 1136.539263 351.807783 
L 1137.851176 351.288778 
L 1139.163088 351.538136 
L 1140.475 351.607884 
L 1144.410737 352.47812 
L 1147.034561 352.16345 
L 1148.346473 352.326365 
L 1149.658386 352.024627 
L 1150.970298 352.449686 
L 1152.28221 352.380486 
L 1153.594122 352.517717 
L 1157.529859 352.506292 
L 1158.841771 352.713766 
L 1160.153683 352.497314 
L 1162.777508 352.74133 
L 1165.401332 352.918016 
L 1166.713245 352.666113 
L 1170.648981 352.69736 
L 1173.272806 352.89839 
L 1175.89663 352.692483 
L 1181.144279 352.706186 
L 1182.456191 351.795012 
L 1183.768103 352.420295 
L 1185.080016 351.943181 
L 1186.391928 351.688041 
L 1189.015752 351.49451 
L 1190.327665 351.060434 
L 1192.951489 353.2755 
L 1194.263401 349.100144 
L 1195.575313 351.025063 
L 1196.887226 350.967104 
L 1198.199138 350.723156 
L 1199.51105 351.087505 
L 1200.822962 352.383839 
L 1202.134875 348.984713 
L 1203.446787 352.316925 
L 1204.758699 351.063515 
L 1206.070611 350.730759 
L 1208.694436 351.034976 
L 1210.006348 351.423054 
L 1211.31826 351.559549 
L 1212.630172 351.348937 
L 1215.253997 351.310198 
L 1217.877821 351.811756 
L 1219.189734 352.337817 
L 1220.501646 352.072154 
L 1221.813558 352.20508 
L 1223.12547 351.714304 
L 1227.061207 351.961241 
L 1228.373119 352.281452 
L 1229.685031 352.112087 
L 1230.996944 351.634305 
L 1234.93268 351.53391 
L 1236.244592 351.468629 
L 1237.556505 351.634065 
L 1238.868417 351.54763 
L 1240.180329 351.216279 
L 1241.492241 350.657239 
L 1242.804154 350.462038 
L 1245.427978 350.3606 
L 1246.73989 350.281513 
L 1248.051803 350.571541 
L 1249.363715 349.088406 
L 1250.675627 347.833395 
L 1251.987539 347.818941 
L 1253.299451 347.066532 
L 1254.611364 346.95641 
L 1255.923276 347.911428 
L 1257.235188 348.00103 
L 1259.859013 344.164369 
L 1261.170925 343.541922 
L 1262.482837 343.571593 
L 1265.106661 344.789086 
L 1266.418574 345.306263 
L 1267.730486 342.948695 
L 1269.042398 343.567271 
L 1270.35431 340.408794 
L 1271.666223 341.961464 
L 1272.978135 345.293053 
L 1274.290047 342.123701 
L 1275.601959 343.902505 
L 1276.913871 342.374624 
L 1278.225784 337.517957 
L 1279.537696 341.821205 
L 1280.849608 343.004621 
L 1282.16152 339.075682 
L 1283.473433 344.390672 
L 1284.785345 342.761247 
L 1286.097257 339.617069 
L 1287.409169 340.461732 
L 1288.721082 339.628287 
L 1290.032994 340.114825 
L 1291.344906 340.075788 
L 1292.656818 342.837076 
L 1293.96873 342.257059 
L 1295.280643 339.836853 
L 1296.592555 338.709141 
L 1297.904467 338.753608 
L 1299.216379 339.060711 
L 1300.528292 339.118192 
L 1301.840204 342.698888 
L 1303.152116 340.642821 
L 1304.464028 338.318295 
L 1305.77594 336.46073 
L 1308.399765 337.619758 
L 1309.711677 340.494342 
L 1311.023589 342.015977 
L 1312.335502 341.431167 
L 1313.647414 338.059635 
L 1313.647414 338.059635 
" clip-path="url(#p6af2913013)" style="fill: none; stroke: #ffa500; stroke-width: 1.5; stroke-linecap: square"/>
   </g>
   <g id="line2d_19">
    <path d="M 1313.647414 338.059635 
L 1314.959326 338.892718 
L 1316.271238 339.863379 
L 1317.58315 340.962455 
L 1318.895063 343.162541 
L 1320.206975 344.736188 
L 1321.518887 343.728588 
L 1322.830799 343.321325 
L 1324.142712 344.52163 
L 1325.454624 345.821992 
L 1326.766536 347.214727 
L 1328.078448 349.326371 
L 1329.390361 351.040219 
L 1330.702273 351.092954 
" clip-path="url(#p6af2913013)" style="fill: none; stroke: #ff0000; stroke-width: 1.5; stroke-linecap: square"/>
   </g>
   <g id="patch_3">
    <path d="M 52.375 368.3955 
L 52.375 35.7555 
" style="fill: none; stroke: #000000; stroke-width: 0.8; stroke-linejoin: miter; stroke-linecap: square"/>
   </g>
   <g id="patch_4">
    <path d="M 1391.575 368.3955 
L 1391.575 35.7555 
" style="fill: none; stroke: #000000; stroke-width: 0.8; stroke-linejoin: miter; stroke-linecap: square"/>
   </g>
   <g id="patch_5">
    <path d="M 52.375 368.3955 
L 1391.575 368.3955 
" style="fill: none; stroke: #000000; stroke-width: 0.8; stroke-linejoin: miter; stroke-linecap: square"/>
   </g>
   <g id="patch_6">
    <path d="M 52.375 35.7555 
L 1391.575 35.7555 
" style="fill: none; stroke: #000000; stroke-width: 0.8; stroke-linejoin: miter; stroke-linecap: square"/>
   </g>
   <g id="text_17">
    <!-- Daily Confirmed Cases Forecasting - India -->
    <g transform="translate(596.749375 16.318125)scale(0.12 -0.12)">
     <defs>
      <path id="DejaVuSans-44" d="M 1259 4147 
L 1259 519 
L 2022 519 
Q 2988 519 3436 956 
Q 3884 1394 3884 2338 
Q 3884 3275 3436 3711 
Q 2988 4147 2022 4147 
L 1259 4147 
z
M 628 4666 
L 1925 4666 
Q 3281 4666 3915 4102 
Q 4550 3538 4550 2338 
Q 4550 1131 3912 565 
Q 3275 0 1925 0 
L 628 0 
L 628 4666 
z
" transform="scale(0.015625)"/>
      <path id="DejaVuSans-61" d="M 2194 1759 
Q 1497 1759 1228 1600 
Q 959 1441 959 1056 
Q 959 750 1161 570 
Q 1363 391 1709 391 
Q 2188 391 2477 730 
Q 2766 1069 2766 1631 
L 2766 1759 
L 2194 1759 
z
M 3341 1997 
L 3341 0 
L 2766 0 
L 2766 531 
Q 2569 213 2275 61 
Q 1981 -91 1556 -91 
Q 1019 -91 701 211 
Q 384 513 384 1019 
Q 384 1609 779 1909 
Q 1175 2209 1959 2209 
L 2766 2209 
L 2766 2266 
Q 2766 2663 2505 2880 
Q 2244 3097 1772 3097 
Q 1472 3097 1187 3025 
Q 903 2953 641 2809 
L 641 3341 
Q 956 3463 1253 3523 
Q 1550 3584 1831 3584 
Q 2591 3584 2966 3190 
Q 3341 2797 3341 1997 
z
" transform="scale(0.015625)"/>
      <path id="DejaVuSans-69" d="M 603 3500 
L 1178 3500 
L 1178 0 
L 603 0 
L 603 3500 
z
M 603 4863 
L 1178 4863 
L 1178 4134 
L 603 4134 
L 603 4863 
z
" transform="scale(0.015625)"/>
      <path id="DejaVuSans-6c" d="M 603 4863 
L 1178 4863 
L 1178 0 
L 603 0 
L 603 4863 
z
" transform="scale(0.015625)"/>
      <path id="DejaVuSans-79" d="M 2059 -325 
Q 1816 -950 1584 -1140 
Q 1353 -1331 966 -1331 
L 506 -1331 
L 506 -850 
L 844 -850 
Q 1081 -850 1212 -737 
Q 1344 -625 1503 -206 
L 1606 56 
L 191 3500 
L 800 3500 
L 1894 763 
L 2988 3500 
L 3597 3500 
L 2059 -325 
z
" transform="scale(0.015625)"/>
      <path id="DejaVuSans-20" transform="scale(0.015625)"/>
      <path id="DejaVuSans-43" d="M 4122 4306 
L 4122 3641 
Q 3803 3938 3442 4084 
Q 3081 4231 2675 4231 
Q 1875 4231 1450 3742 
Q 1025 3253 1025 2328 
Q 1025 1406 1450 917 
Q 1875 428 2675 428 
Q 3081 428 3442 575 
Q 3803 722 4122 1019 
L 4122 359 
Q 3791 134 3420 21 
Q 3050 -91 2638 -91 
Q 1578 -91 968 557 
Q 359 1206 359 2328 
Q 359 3453 968 4101 
Q 1578 4750 2638 4750 
Q 3056 4750 3426 4639 
Q 3797 4528 4122 4306 
z
" transform="scale(0.015625)"/>
      <path id="DejaVuSans-6f" d="M 1959 3097 
Q 1497 3097 1228 2736 
Q 959 2375 959 1747 
Q 959 1119 1226 758 
Q 1494 397 1959 397 
Q 2419 397 2687 759 
Q 2956 1122 2956 1747 
Q 2956 2369 2687 2733 
Q 2419 3097 1959 3097 
z
M 1959 3584 
Q 2709 3584 3137 3096 
Q 3566 2609 3566 1747 
Q 3566 888 3137 398 
Q 2709 -91 1959 -91 
Q 1206 -91 779 398 
Q 353 888 353 1747 
Q 353 2609 779 3096 
Q 1206 3584 1959 3584 
z
" transform="scale(0.015625)"/>
      <path id="DejaVuSans-6e" d="M 3513 2113 
L 3513 0 
L 2938 0 
L 2938 2094 
Q 2938 2591 2744 2837 
Q 2550 3084 2163 3084 
Q 1697 3084 1428 2787 
Q 1159 2491 1159 1978 
L 1159 0 
L 581 0 
L 581 3500 
L 1159 3500 
L 1159 2956 
Q 1366 3272 1645 3428 
Q 1925 3584 2291 3584 
Q 2894 3584 3203 3211 
Q 3513 2838 3513 2113 
z
" transform="scale(0.015625)"/>
      <path id="DejaVuSans-66" d="M 2375 4863 
L 2375 4384 
L 1825 4384 
Q 1516 4384 1395 4259 
Q 1275 4134 1275 3809 
L 1275 3500 
L 2222 3500 
L 2222 3053 
L 1275 3053 
L 1275 0 
L 697 0 
L 697 3053 
L 147 3053 
L 147 3500 
L 697 3500 
L 697 3744 
Q 697 4328 969 4595 
Q 1241 4863 1831 4863 
L 2375 4863 
z
" transform="scale(0.015625)"/>
      <path id="DejaVuSans-72" d="M 2631 2963 
Q 2534 3019 2420 3045 
Q 2306 3072 2169 3072 
Q 1681 3072 1420 2755 
Q 1159 2438 1159 1844 
L 1159 0 
L 581 0 
L 581 3500 
L 1159 3500 
L 1159 2956 
Q 1341 3275 1631 3429 
Q 1922 3584 2338 3584 
Q 2397 3584 2469 3576 
Q 2541 3569 2628 3553 
L 2631 2963 
z
" transform="scale(0.015625)"/>
      <path id="DejaVuSans-6d" d="M 3328 2828 
Q 3544 3216 3844 3400 
Q 4144 3584 4550 3584 
Q 5097 3584 5394 3201 
Q 5691 2819 5691 2113 
L 5691 0 
L 5113 0 
L 5113 2094 
Q 5113 2597 4934 2840 
Q 4756 3084 4391 3084 
Q 3944 3084 3684 2787 
Q 3425 2491 3425 1978 
L 3425 0 
L 2847 0 
L 2847 2094 
Q 2847 2600 2669 2842 
Q 2491 3084 2119 3084 
Q 1678 3084 1418 2786 
Q 1159 2488 1159 1978 
L 1159 0 
L 581 0 
L 581 3500 
L 1159 3500 
L 1159 2956 
Q 1356 3278 1631 3431 
Q 1906 3584 2284 3584 
Q 2666 3584 2933 3390 
Q 3200 3197 3328 2828 
z
" transform="scale(0.015625)"/>
      <path id="DejaVuSans-65" d="M 3597 1894 
L 3597 1613 
L 953 1613 
Q 991 1019 1311 708 
Q 1631 397 2203 397 
Q 2534 397 2845 478 
Q 3156 559 3463 722 
L 3463 178 
Q 3153 47 2828 -22 
Q 2503 -91 2169 -91 
Q 1331 -91 842 396 
Q 353 884 353 1716 
Q 353 2575 817 3079 
Q 1281 3584 2069 3584 
Q 2775 3584 3186 3129 
Q 3597 2675 3597 1894 
z
M 3022 2063 
Q 3016 2534 2758 2815 
Q 2500 3097 2075 3097 
Q 1594 3097 1305 2825 
Q 1016 2553 972 2059 
L 3022 2063 
z
" transform="scale(0.015625)"/>
      <path id="DejaVuSans-64" d="M 2906 2969 
L 2906 4863 
L 3481 4863 
L 3481 0 
L 2906 0 
L 2906 525 
Q 2725 213 2448 61 
Q 2172 -91 1784 -91 
Q 1150 -91 751 415 
Q 353 922 353 1747 
Q 353 2572 751 3078 
Q 1150 3584 1784 3584 
Q 2172 3584 2448 3432 
Q 2725 3281 2906 2969 
z
M 947 1747 
Q 947 1113 1208 752 
Q 1469 391 1925 391 
Q 2381 391 2643 752 
Q 2906 1113 2906 1747 
Q 2906 2381 2643 2742 
Q 2381 3103 1925 3103 
Q 1469 3103 1208 2742 
Q 947 2381 947 1747 
z
" transform="scale(0.015625)"/>
      <path id="DejaVuSans-73" d="M 2834 3397 
L 2834 2853 
Q 2591 2978 2328 3040 
Q 2066 3103 1784 3103 
Q 1356 3103 1142 2972 
Q 928 2841 928 2578 
Q 928 2378 1081 2264 
Q 1234 2150 1697 2047 
L 1894 2003 
Q 2506 1872 2764 1633 
Q 3022 1394 3022 966 
Q 3022 478 2636 193 
Q 2250 -91 1575 -91 
Q 1294 -91 989 -36 
Q 684 19 347 128 
L 347 722 
Q 666 556 975 473 
Q 1284 391 1588 391 
Q 1994 391 2212 530 
Q 2431 669 2431 922 
Q 2431 1156 2273 1281 
Q 2116 1406 1581 1522 
L 1381 1569 
Q 847 1681 609 1914 
Q 372 2147 372 2553 
Q 372 3047 722 3315 
Q 1072 3584 1716 3584 
Q 2034 3584 2315 3537 
Q 2597 3491 2834 3397 
z
" transform="scale(0.015625)"/>
      <path id="DejaVuSans-46" d="M 628 4666 
L 3309 4666 
L 3309 4134 
L 1259 4134 
L 1259 2759 
L 3109 2759 
L 3109 2228 
L 1259 2228 
L 1259 0 
L 628 0 
L 628 4666 
z
" transform="scale(0.015625)"/>
      <path id="DejaVuSans-63" d="M 3122 3366 
L 3122 2828 
Q 2878 2963 2633 3030 
Q 2388 3097 2138 3097 
Q 1578 3097 1268 2742 
Q 959 2388 959 1747 
Q 959 1106 1268 751 
Q 1578 397 2138 397 
Q 2388 397 2633 464 
Q 2878 531 3122 666 
L 3122 134 
Q 2881 22 2623 -34 
Q 2366 -91 2075 -91 
Q 1284 -91 818 406 
Q 353 903 353 1747 
Q 353 2603 823 3093 
Q 1294 3584 2113 3584 
Q 2378 3584 2631 3529 
Q 2884 3475 3122 3366 
z
" transform="scale(0.015625)"/>
      <path id="DejaVuSans-74" d="M 1172 4494 
L 1172 3500 
L 2356 3500 
L 2356 3053 
L 1172 3053 
L 1172 1153 
Q 1172 725 1289 603 
Q 1406 481 1766 481 
L 2356 481 
L 2356 0 
L 1766 0 
Q 1100 0 847 248 
Q 594 497 594 1153 
L 594 3053 
L 172 3053 
L 172 3500 
L 594 3500 
L 594 4494 
L 1172 4494 
z
" transform="scale(0.015625)"/>
      <path id="DejaVuSans-67" d="M 2906 1791 
Q 2906 2416 2648 2759 
Q 2391 3103 1925 3103 
Q 1463 3103 1205 2759 
Q 947 2416 947 1791 
Q 947 1169 1205 825 
Q 1463 481 1925 481 
Q 2391 481 2648 825 
Q 2906 1169 2906 1791 
z
M 3481 434 
Q 3481 -459 3084 -895 
Q 2688 -1331 1869 -1331 
Q 1566 -1331 1297 -1286 
Q 1028 -1241 775 -1147 
L 775 -588 
Q 1028 -725 1275 -790 
Q 1522 -856 1778 -856 
Q 2344 -856 2625 -561 
Q 2906 -266 2906 331 
L 2906 616 
Q 2728 306 2450 153 
Q 2172 0 1784 0 
Q 1141 0 747 490 
Q 353 981 353 1791 
Q 353 2603 747 3093 
Q 1141 3584 1784 3584 
Q 2172 3584 2450 3431 
Q 2728 3278 2906 2969 
L 2906 3500 
L 3481 3500 
L 3481 434 
z
" transform="scale(0.015625)"/>
      <path id="DejaVuSans-49" d="M 628 4666 
L 1259 4666 
L 1259 0 
L 628 0 
L 628 4666 
z
" transform="scale(0.015625)"/>
     </defs>
     <use xlink:href="#DejaVuSans-44"/>
     <use xlink:href="#DejaVuSans-61" x="77.001953"/>
     <use xlink:href="#DejaVuSans-69" x="138.28125"/>
     <use xlink:href="#DejaVuSans-6c" x="166.064453"/>
     <use xlink:href="#DejaVuSans-79" x="193.847656"/>
     <use xlink:href="#DejaVuSans-20" x="253.027344"/>
     <use xlink:href="#DejaVuSans-43" x="284.814453"/>
     <use xlink:href="#DejaVuSans-6f" x="354.638672"/>
     <use xlink:href="#DejaVuSans-6e" x="415.820312"/>
     <use xlink:href="#DejaVuSans-66" x="479.199219"/>
     <use xlink:href="#DejaVuSans-69" x="514.404297"/>
     <use xlink:href="#DejaVuSans-72" x="542.1875"/>
     <use xlink:href="#DejaVuSans-6d" x="581.550781"/>
     <use xlink:href="#DejaVuSans-65" x="678.962891"/>
     <use xlink:href="#DejaVuSans-64" x="740.486328"/>
     <use xlink:href="#DejaVuSans-20" x="803.962891"/>
     <use xlink:href="#DejaVuSans-43" x="835.75"/>
     <use xlink:href="#DejaVuSans-61" x="905.574219"/>
     <use xlink:href="#DejaVuSans-73" x="966.853516"/>
     <use xlink:href="#DejaVuSans-65" x="1018.953125"/>
     <use xlink:href="#DejaVuSans-73" x="1080.476562"/>
     <use xlink:href="#DejaVuSans-20" x="1132.576172"/>
     <use xlink:href="#DejaVuSans-46" x="1164.363281"/>
     <use xlink:href="#DejaVuSans-6f" x="1218.257812"/>
     <use xlink:href="#DejaVuSans-72" x="1279.439453"/>
     <use xlink:href="#DejaVuSans-65" x="1318.302734"/>
     <use xlink:href="#DejaVuSans-63" x="1379.826172"/>
     <use xlink:href="#DejaVuSans-61" x="1434.806641"/>
     <use xlink:href="#DejaVuSans-73" x="1496.085938"/>
     <use xlink:href="#DejaVuSans-74" x="1548.185547"/>
     <use xlink:href="#DejaVuSans-69" x="1587.394531"/>
     <use xlink:href="#DejaVuSans-6e" x="1615.177734"/>
     <use xlink:href="#DejaVuSans-67" x="1678.556641"/>
     <use xlink:href="#DejaVuSans-20" x="1742.033203"/>
     <use xlink:href="#DejaVuSans-2d" x="1773.820312"/>
     <use xlink:href="#DejaVuSans-20" x="1809.904297"/>
     <use xlink:href="#DejaVuSans-49" x="1841.691406"/>
     <use xlink:href="#DejaVuSans-6e" x="1871.183594"/>
     <use xlink:href="#DejaVuSans-64" x="1934.5625"/>
     <use xlink:href="#DejaVuSans-69" x="1998.039062"/>
     <use xlink:href="#DejaVuSans-61" x="2025.822266"/>
    </g>
    <!-- ARIMA (1, 1, 1)x(1, 0, 0, 7) (R2 = 0.985575) -->
    <g transform="translate(589.990937 29.7555)scale(0.12 -0.12)">
     <defs>
      <path id="DejaVuSans-41" d="M 2188 4044 
L 1331 1722 
L 3047 1722 
L 2188 4044 
z
M 1831 4666 
L 2547 4666 
L 4325 0 
L 3669 0 
L 3244 1197 
L 1141 1197 
L 716 0 
L 50 0 
L 1831 4666 
z
" transform="scale(0.015625)"/>
      <path id="DejaVuSans-52" d="M 2841 2188 
Q 3044 2119 3236 1894 
Q 3428 1669 3622 1275 
L 4263 0 
L 3584 0 
L 2988 1197 
Q 2756 1666 2539 1819 
Q 2322 1972 1947 1972 
L 1259 1972 
L 1259 0 
L 628 0 
L 628 4666 
L 2053 4666 
Q 2853 4666 3247 4331 
Q 3641 3997 3641 3322 
Q 3641 2881 3436 2590 
Q 3231 2300 2841 2188 
z
M 1259 4147 
L 1259 2491 
L 2053 2491 
Q 2509 2491 2742 2702 
Q 2975 2913 2975 3322 
Q 2975 3731 2742 3939 
Q 2509 4147 2053 4147 
L 1259 4147 
z
" transform="scale(0.015625)"/>
      <path id="DejaVuSans-4d" d="M 628 4666 
L 1569 4666 
L 2759 1491 
L 3956 4666 
L 4897 4666 
L 4897 0 
L 4281 0 
L 4281 4097 
L 3078 897 
L 2444 897 
L 1241 4097 
L 1241 0 
L 628 0 
L 628 4666 
z
" transform="scale(0.015625)"/>
      <path id="DejaVuSans-28" d="M 1984 4856 
Q 1566 4138 1362 3434 
Q 1159 2731 1159 2009 
Q 1159 1288 1364 580 
Q 1569 -128 1984 -844 
L 1484 -844 
Q 1016 -109 783 600 
Q 550 1309 550 2009 
Q 550 2706 781 3412 
Q 1013 4119 1484 4856 
L 1984 4856 
z
" transform="scale(0.015625)"/>
      <path id="DejaVuSans-2c" d="M 750 794 
L 1409 794 
L 1409 256 
L 897 -744 
L 494 -744 
L 750 256 
L 750 794 
z
" transform="scale(0.015625)"/>
      <path id="DejaVuSans-29" d="M 513 4856 
L 1013 4856 
Q 1481 4119 1714 3412 
Q 1947 2706 1947 2009 
Q 1947 1309 1714 600 
Q 1481 -109 1013 -844 
L 513 -844 
Q 928 -128 1133 580 
Q 1338 1288 1338 2009 
Q 1338 2731 1133 3434 
Q 928 4138 513 4856 
z
" transform="scale(0.015625)"/>
      <path id="DejaVuSans-78" d="M 3513 3500 
L 2247 1797 
L 3578 0 
L 2900 0 
L 1881 1375 
L 863 0 
L 184 0 
L 1544 1831 
L 300 3500 
L 978 3500 
L 1906 2253 
L 2834 3500 
L 3513 3500 
z
" transform="scale(0.015625)"/>
      <path id="DejaVuSans-3d" d="M 678 2906 
L 4684 2906 
L 4684 2381 
L 678 2381 
L 678 2906 
z
M 678 1631 
L 4684 1631 
L 4684 1100 
L 678 1100 
L 678 1631 
z
" transform="scale(0.015625)"/>
      <path id="DejaVuSans-2e" d="M 684 794 
L 1344 794 
L 1344 0 
L 684 0 
L 684 794 
z
" transform="scale(0.015625)"/>
      <path id="DejaVuSans-39" d="M 703 97 
L 703 672 
Q 941 559 1184 500 
Q 1428 441 1663 441 
Q 2288 441 2617 861 
Q 2947 1281 2994 2138 
Q 2813 1869 2534 1725 
Q 2256 1581 1919 1581 
Q 1219 1581 811 2004 
Q 403 2428 403 3163 
Q 403 3881 828 4315 
Q 1253 4750 1959 4750 
Q 2769 4750 3195 4129 
Q 3622 3509 3622 2328 
Q 3622 1225 3098 567 
Q 2575 -91 1691 -91 
Q 1453 -91 1209 -44 
Q 966 3 703 97 
z
M 1959 2075 
Q 2384 2075 2632 2365 
Q 2881 2656 2881 3163 
Q 2881 3666 2632 3958 
Q 2384 4250 1959 4250 
Q 1534 4250 1286 3958 
Q 1038 3666 1038 3163 
Q 1038 2656 1286 2365 
Q 1534 2075 1959 2075 
z
" transform="scale(0.015625)"/>
      <path id="DejaVuSans-38" d="M 2034 2216 
Q 1584 2216 1326 1975 
Q 1069 1734 1069 1313 
Q 1069 891 1326 650 
Q 1584 409 2034 409 
Q 2484 409 2743 651 
Q 3003 894 3003 1313 
Q 3003 1734 2745 1975 
Q 2488 2216 2034 2216 
z
M 1403 2484 
Q 997 2584 770 2862 
Q 544 3141 544 3541 
Q 544 4100 942 4425 
Q 1341 4750 2034 4750 
Q 2731 4750 3128 4425 
Q 3525 4100 3525 3541 
Q 3525 3141 3298 2862 
Q 3072 2584 2669 2484 
Q 3125 2378 3379 2068 
Q 3634 1759 3634 1313 
Q 3634 634 3220 271 
Q 2806 -91 2034 -91 
Q 1263 -91 848 271 
Q 434 634 434 1313 
Q 434 1759 690 2068 
Q 947 2378 1403 2484 
z
M 1172 3481 
Q 1172 3119 1398 2916 
Q 1625 2713 2034 2713 
Q 2441 2713 2670 2916 
Q 2900 3119 2900 3481 
Q 2900 3844 2670 4047 
Q 2441 4250 2034 4250 
Q 1625 4250 1398 4047 
Q 1172 3844 1172 3481 
z
" transform="scale(0.015625)"/>
      <path id="DejaVuSans-35" d="M 691 4666 
L 3169 4666 
L 3169 4134 
L 1269 4134 
L 1269 2991 
Q 1406 3038 1543 3061 
Q 1681 3084 1819 3084 
Q 2600 3084 3056 2656 
Q 3513 2228 3513 1497 
Q 3513 744 3044 326 
Q 2575 -91 1722 -91 
Q 1428 -91 1123 -41 
Q 819 9 494 109 
L 494 744 
Q 775 591 1075 516 
Q 1375 441 1709 441 
Q 2250 441 2565 725 
Q 2881 1009 2881 1497 
Q 2881 1984 2565 2268 
Q 2250 2553 1709 2553 
Q 1456 2553 1204 2497 
Q 953 2441 691 2322 
L 691 4666 
z
" transform="scale(0.015625)"/>
     </defs>
     <use xlink:href="#DejaVuSans-41"/>
     <use xlink:href="#DejaVuSans-52" x="68.408203"/>
     <use xlink:href="#DejaVuSans-49" x="137.890625"/>
     <use xlink:href="#DejaVuSans-4d" x="167.382812"/>
     <use xlink:href="#DejaVuSans-41" x="253.662109"/>
     <use xlink:href="#DejaVuSans-20" x="322.070312"/>
     <use xlink:href="#DejaVuSans-28" x="353.857422"/>
     <use xlink:href="#DejaVuSans-31" x="392.871094"/>
     <use xlink:href="#DejaVuSans-2c" x="456.494141"/>
     <use xlink:href="#DejaVuSans-20" x="488.28125"/>
     <use xlink:href="#DejaVuSans-31" x="520.068359"/>
     <use xlink:href="#DejaVuSans-2c" x="583.691406"/>
     <use xlink:href="#DejaVuSans-20" x="615.478516"/>
     <use xlink:href="#DejaVuSans-31" x="647.265625"/>
     <use xlink:href="#DejaVuSans-29" x="710.888672"/>
     <use xlink:href="#DejaVuSans-78" x="749.902344"/>
     <use xlink:href="#DejaVuSans-28" x="809.082031"/>
     <use xlink:href="#DejaVuSans-31" x="848.095703"/>
     <use xlink:href="#DejaVuSans-2c" x="911.71875"/>
     <use xlink:href="#DejaVuSans-20" x="943.505859"/>
     <use xlink:href="#DejaVuSans-30" x="975.292969"/>
     <use xlink:href="#DejaVuSans-2c" x="1038.916016"/>
     <use xlink:href="#DejaVuSans-20" x="1070.703125"/>
     <use xlink:href="#DejaVuSans-30" x="1102.490234"/>
     <use xlink:href="#DejaVuSans-2c" x="1166.113281"/>
     <use xlink:href="#DejaVuSans-20" x="1197.900391"/>
     <use xlink:href="#DejaVuSans-37" x="1229.6875"/>
     <use xlink:href="#DejaVuSans-29" x="1293.310547"/>
     <use xlink:href="#DejaVuSans-20" x="1332.324219"/>
     <use xlink:href="#DejaVuSans-28" x="1364.111328"/>
     <use xlink:href="#DejaVuSans-52" x="1403.125"/>
     <use xlink:href="#DejaVuSans-32" x="1472.607422"/>
     <use xlink:href="#DejaVuSans-20" x="1536.230469"/>
     <use xlink:href="#DejaVuSans-3d" x="1568.017578"/>
     <use xlink:href="#DejaVuSans-20" x="1651.806641"/>
     <use xlink:href="#DejaVuSans-30" x="1683.59375"/>
     <use xlink:href="#DejaVuSans-2e" x="1747.216797"/>
     <use xlink:href="#DejaVuSans-39" x="1779.003906"/>
     <use xlink:href="#DejaVuSans-38" x="1842.626953"/>
     <use xlink:href="#DejaVuSans-35" x="1906.25"/>
     <use xlink:href="#DejaVuSans-35" x="1969.873047"/>
     <use xlink:href="#DejaVuSans-37" x="2033.496094"/>
     <use xlink:href="#DejaVuSans-35" x="2097.119141"/>
     <use xlink:href="#DejaVuSans-29" x="2160.742188"/>
    </g>
   </g>
   <g id="legend_1">
    <g id="patch_7">
     <path d="M 1287.495312 87.789875 
L 1384.575 87.789875 
Q 1386.575 87.789875 1386.575 85.789875 
L 1386.575 42.7555 
Q 1386.575 40.7555 1384.575 40.7555 
L 1287.495312 40.7555 
Q 1285.495312 40.7555 1285.495312 42.7555 
L 1285.495312 85.789875 
Q 1285.495312 87.789875 1287.495312 87.789875 
z
" style="fill: #ffffff; opacity: 0.8; stroke: #cccccc; stroke-linejoin: miter"/>
    </g>
    <g id="line2d_20">
     <path d="M 1289.495312 48.853937 
L 1299.495312 48.853937 
L 1309.495312 48.853937 
" style="fill: none; stroke: #0000ff; stroke-width: 1.5; stroke-linecap: square"/>
    </g>
    <g id="text_18">
     <!-- Actual Value -->
     <g transform="translate(1317.495312 52.353937)scale(0.1 -0.1)">
      <defs>
       <path id="DejaVuSans-75" d="M 544 1381 
L 544 3500 
L 1119 3500 
L 1119 1403 
Q 1119 906 1312 657 
Q 1506 409 1894 409 
Q 2359 409 2629 706 
Q 2900 1003 2900 1516 
L 2900 3500 
L 3475 3500 
L 3475 0 
L 2900 0 
L 2900 538 
Q 2691 219 2414 64 
Q 2138 -91 1772 -91 
Q 1169 -91 856 284 
Q 544 659 544 1381 
z
M 1991 3584 
L 1991 3584 
z
" transform="scale(0.015625)"/>
       <path id="DejaVuSans-56" d="M 1831 0 
L 50 4666 
L 709 4666 
L 2188 738 
L 3669 4666 
L 4325 4666 
L 2547 0 
L 1831 0 
z
" transform="scale(0.015625)"/>
      </defs>
      <use xlink:href="#DejaVuSans-41"/>
      <use xlink:href="#DejaVuSans-63" x="66.658203"/>
      <use xlink:href="#DejaVuSans-74" x="121.638672"/>
      <use xlink:href="#DejaVuSans-75" x="160.847656"/>
      <use xlink:href="#DejaVuSans-61" x="224.226562"/>
      <use xlink:href="#DejaVuSans-6c" x="285.505859"/>
      <use xlink:href="#DejaVuSans-20" x="313.289062"/>
      <use xlink:href="#DejaVuSans-56" x="345.076172"/>
      <use xlink:href="#DejaVuSans-61" x="405.734375"/>
      <use xlink:href="#DejaVuSans-6c" x="467.013672"/>
      <use xlink:href="#DejaVuSans-75" x="494.796875"/>
      <use xlink:href="#DejaVuSans-65" x="558.175781"/>
     </g>
    </g>
    <g id="line2d_21">
     <path d="M 1289.495312 63.532062 
L 1299.495312 63.532062 
L 1309.495312 63.532062 
" style="fill: none; stroke: #ffa500; stroke-width: 1.5; stroke-linecap: square"/>
    </g>
    <g id="text_19">
     <!-- Check Value -->
     <g transform="translate(1317.495312 67.032062)scale(0.1 -0.1)">
      <defs>
       <path id="DejaVuSans-68" d="M 3513 2113 
L 3513 0 
L 2938 0 
L 2938 2094 
Q 2938 2591 2744 2837 
Q 2550 3084 2163 3084 
Q 1697 3084 1428 2787 
Q 1159 2491 1159 1978 
L 1159 0 
L 581 0 
L 581 4863 
L 1159 4863 
L 1159 2956 
Q 1366 3272 1645 3428 
Q 1925 3584 2291 3584 
Q 2894 3584 3203 3211 
Q 3513 2838 3513 2113 
z
" transform="scale(0.015625)"/>
       <path id="DejaVuSans-6b" d="M 581 4863 
L 1159 4863 
L 1159 1991 
L 2875 3500 
L 3609 3500 
L 1753 1863 
L 3688 0 
L 2938 0 
L 1159 1709 
L 1159 0 
L 581 0 
L 581 4863 
z
" transform="scale(0.015625)"/>
      </defs>
      <use xlink:href="#DejaVuSans-43"/>
      <use xlink:href="#DejaVuSans-68" x="69.824219"/>
      <use xlink:href="#DejaVuSans-65" x="133.203125"/>
      <use xlink:href="#DejaVuSans-63" x="194.726562"/>
      <use xlink:href="#DejaVuSans-6b" x="249.707031"/>
      <use xlink:href="#DejaVuSans-20" x="307.617188"/>
      <use xlink:href="#DejaVuSans-56" x="339.404297"/>
      <use xlink:href="#DejaVuSans-61" x="400.0625"/>
      <use xlink:href="#DejaVuSans-6c" x="461.341797"/>
      <use xlink:href="#DejaVuSans-75" x="489.125"/>
      <use xlink:href="#DejaVuSans-65" x="552.503906"/>
     </g>
    </g>
    <g id="line2d_22">
     <path d="M 1289.495312 78.210187 
L 1299.495312 78.210187 
L 1309.495312 78.210187 
" style="fill: none; stroke: #ff0000; stroke-width: 1.5; stroke-linecap: square"/>
    </g>
    <g id="text_20">
     <!-- Predict Value -->
     <g transform="translate(1317.495312 81.710187)scale(0.1 -0.1)">
      <defs>
       <path id="DejaVuSans-50" d="M 1259 4147 
L 1259 2394 
L 2053 2394 
Q 2494 2394 2734 2622 
Q 2975 2850 2975 3272 
Q 2975 3691 2734 3919 
Q 2494 4147 2053 4147 
L 1259 4147 
z
M 628 4666 
L 2053 4666 
Q 2838 4666 3239 4311 
Q 3641 3956 3641 3272 
Q 3641 2581 3239 2228 
Q 2838 1875 2053 1875 
L 1259 1875 
L 1259 0 
L 628 0 
L 628 4666 
z
" transform="scale(0.015625)"/>
      </defs>
      <use xlink:href="#DejaVuSans-50"/>
      <use xlink:href="#DejaVuSans-72" x="58.552734"/>
      <use xlink:href="#DejaVuSans-65" x="97.416016"/>
      <use xlink:href="#DejaVuSans-64" x="158.939453"/>
      <use xlink:href="#DejaVuSans-69" x="222.416016"/>
      <use xlink:href="#DejaVuSans-63" x="250.199219"/>
      <use xlink:href="#DejaVuSans-74" x="305.179688"/>
      <use xlink:href="#DejaVuSans-20" x="344.388672"/>
      <use xlink:href="#DejaVuSans-56" x="376.175781"/>
      <use xlink:href="#DejaVuSans-61" x="436.833984"/>
      <use xlink:href="#DejaVuSans-6c" x="498.113281"/>
      <use xlink:href="#DejaVuSans-75" x="525.896484"/>
      <use xlink:href="#DejaVuSans-65" x="589.275391"/>
     </g>
    </g>
   </g>
  </g>
 </g>
 <defs>
  <clipPath id="p6af2913013">
   <rect x="52.375" y="35.7555" width="1339.2" height="332.64"/>
  </clipPath>
 </defs>
</svg>
