<?xml version="1.0" encoding="utf-8" standalone="no"?>
<!DOCTYPE svg PUBLIC "-//W3C//DTD SVG 1.1//EN"
  "http://www.w3.org/Graphics/SVG/1.1/DTD/svg11.dtd">
<svg xmlns:xlink="http://www.w3.org/1999/xlink" width="1394.429688pt" height="392.273625pt" viewBox="0 0 1394.429688 392.273625" xmlns="http://www.w3.org/2000/svg" version="1.1">
 <metadata>
  <rdf:RDF xmlns:dc="http://purl.org/dc/elements/1.1/" xmlns:cc="http://creativecommons.org/ns#" xmlns:rdf="http://www.w3.org/1999/02/22-rdf-syntax-ns#">
   <cc:Work>
    <dc:type rdf:resource="http://purl.org/dc/dcmitype/StillImage"/>
    <dc:date>2022-07-04T19:38:34.335255</dc:date>
    <dc:format>image/svg+xml</dc:format>
    <dc:creator>
     <cc:Agent>
      <dc:title>Matplotlib v3.5.2, https://matplotlib.org/</dc:title>
     </cc:Agent>
    </dc:creator>
   </cc:Work>
  </rdf:RDF>
 </metadata>
 <defs>
  <style type="text/css">*{stroke-linejoin: round; stroke-linecap: butt}</style>
 </defs>
 <g id="figure_1">
  <g id="patch_1">
   <path d="M 0 392.273625 
L 1394.429688 392.273625 
L 1394.429688 0 
L 0 0 
z
" style="fill: #ffffff"/>
  </g>
  <g id="axes_1">
   <g id="patch_2">
    <path d="M 48.029688 368.3955 
L 1387.229688 368.3955 
L 1387.229688 35.7555 
L 48.029688 35.7555 
z
" style="fill: #ffffff"/>
   </g>
   <g id="matplotlib.axis_1">
    <g id="xtick_1">
     <g id="line2d_1">
      <defs>
       <path id="m5b68ee6509" d="M 0 0 
L 0 3.5 
" style="stroke: #000000; stroke-width: 0.8"/>
      </defs>
      <g>
       <use xlink:href="#m5b68ee6509" x="79.306835" y="368.3955" style="stroke: #000000; stroke-width: 0.8"/>
      </g>
     </g>
     <g id="text_1">
      <!-- 2020-01 -->
      <g transform="translate(58.415428 382.993937)scale(0.1 -0.1)">
       <defs>
        <path id="DejaVuSans-32" d="M 1228 531 
L 3431 531 
L 3431 0 
L 469 0 
L 469 531 
Q 828 903 1448 1529 
Q 2069 2156 2228 2338 
Q 2531 2678 2651 2914 
Q 2772 3150 2772 3378 
Q 2772 3750 2511 3984 
Q 2250 4219 1831 4219 
Q 1534 4219 1204 4116 
Q 875 4013 500 3803 
L 500 4441 
Q 881 4594 1212 4672 
Q 1544 4750 1819 4750 
Q 2544 4750 2975 4387 
Q 3406 4025 3406 3419 
Q 3406 3131 3298 2873 
Q 3191 2616 2906 2266 
Q 2828 2175 2409 1742 
Q 1991 1309 1228 531 
z
" transform="scale(0.015625)"/>
        <path id="DejaVuSans-30" d="M 2034 4250 
Q 1547 4250 1301 3770 
Q 1056 3291 1056 2328 
Q 1056 1369 1301 889 
Q 1547 409 2034 409 
Q 2525 409 2770 889 
Q 3016 1369 3016 2328 
Q 3016 3291 2770 3770 
Q 2525 4250 2034 4250 
z
M 2034 4750 
Q 2819 4750 3233 4129 
Q 3647 3509 3647 2328 
Q 3647 1150 3233 529 
Q 2819 -91 2034 -91 
Q 1250 -91 836 529 
Q 422 1150 422 2328 
Q 422 3509 836 4129 
Q 1250 4750 2034 4750 
z
" transform="scale(0.015625)"/>
        <path id="DejaVuSans-2d" d="M 313 2009 
L 1997 2009 
L 1997 1497 
L 313 1497 
L 313 2009 
z
" transform="scale(0.015625)"/>
        <path id="DejaVuSans-31" d="M 794 531 
L 1825 531 
L 1825 4091 
L 703 3866 
L 703 4441 
L 1819 4666 
L 2450 4666 
L 2450 531 
L 3481 531 
L 3481 0 
L 794 0 
L 794 531 
z
" transform="scale(0.015625)"/>
       </defs>
       <use xlink:href="#DejaVuSans-32"/>
       <use xlink:href="#DejaVuSans-30" x="63.623047"/>
       <use xlink:href="#DejaVuSans-32" x="127.246094"/>
       <use xlink:href="#DejaVuSans-30" x="190.869141"/>
       <use xlink:href="#DejaVuSans-2d" x="254.492188"/>
       <use xlink:href="#DejaVuSans-30" x="290.576172"/>
       <use xlink:href="#DejaVuSans-31" x="354.199219"/>
      </g>
     </g>
    </g>
    <g id="xtick_2">
     <g id="line2d_2">
      <g>
       <use xlink:href="#m5b68ee6509" x="201.724916" y="368.3955" style="stroke: #000000; stroke-width: 0.8"/>
      </g>
     </g>
     <g id="text_2">
      <!-- 2020-04 -->
      <g transform="translate(180.83351 382.993937)scale(0.1 -0.1)">
       <defs>
        <path id="DejaVuSans-34" d="M 2419 4116 
L 825 1625 
L 2419 1625 
L 2419 4116 
z
M 2253 4666 
L 3047 4666 
L 3047 1625 
L 3713 1625 
L 3713 1100 
L 3047 1100 
L 3047 0 
L 2419 0 
L 2419 1100 
L 313 1100 
L 313 1709 
L 2253 4666 
z
" transform="scale(0.015625)"/>
       </defs>
       <use xlink:href="#DejaVuSans-32"/>
       <use xlink:href="#DejaVuSans-30" x="63.623047"/>
       <use xlink:href="#DejaVuSans-32" x="127.246094"/>
       <use xlink:href="#DejaVuSans-30" x="190.869141"/>
       <use xlink:href="#DejaVuSans-2d" x="254.492188"/>
       <use xlink:href="#DejaVuSans-30" x="290.576172"/>
       <use xlink:href="#DejaVuSans-34" x="354.199219"/>
      </g>
     </g>
    </g>
    <g id="xtick_3">
     <g id="line2d_3">
      <g>
       <use xlink:href="#m5b68ee6509" x="324.142997" y="368.3955" style="stroke: #000000; stroke-width: 0.8"/>
      </g>
     </g>
     <g id="text_3">
      <!-- 2020-07 -->
      <g transform="translate(303.251591 382.993937)scale(0.1 -0.1)">
       <defs>
        <path id="DejaVuSans-37" d="M 525 4666 
L 3525 4666 
L 3525 4397 
L 1831 0 
L 1172 0 
L 2766 4134 
L 525 4134 
L 525 4666 
z
" transform="scale(0.015625)"/>
       </defs>
       <use xlink:href="#DejaVuSans-32"/>
       <use xlink:href="#DejaVuSans-30" x="63.623047"/>
       <use xlink:href="#DejaVuSans-32" x="127.246094"/>
       <use xlink:href="#DejaVuSans-30" x="190.869141"/>
       <use xlink:href="#DejaVuSans-2d" x="254.492188"/>
       <use xlink:href="#DejaVuSans-30" x="290.576172"/>
       <use xlink:href="#DejaVuSans-37" x="354.199219"/>
      </g>
     </g>
    </g>
    <g id="xtick_4">
     <g id="line2d_4">
      <g>
       <use xlink:href="#m5b68ee6509" x="447.906332" y="368.3955" style="stroke: #000000; stroke-width: 0.8"/>
      </g>
     </g>
     <g id="text_4">
      <!-- 2020-10 -->
      <g transform="translate(427.014926 382.993937)scale(0.1 -0.1)">
       <use xlink:href="#DejaVuSans-32"/>
       <use xlink:href="#DejaVuSans-30" x="63.623047"/>
       <use xlink:href="#DejaVuSans-32" x="127.246094"/>
       <use xlink:href="#DejaVuSans-30" x="190.869141"/>
       <use xlink:href="#DejaVuSans-2d" x="254.492188"/>
       <use xlink:href="#DejaVuSans-31" x="290.576172"/>
       <use xlink:href="#DejaVuSans-30" x="354.199219"/>
      </g>
     </g>
    </g>
    <g id="xtick_5">
     <g id="line2d_5">
      <g>
       <use xlink:href="#m5b68ee6509" x="571.669667" y="368.3955" style="stroke: #000000; stroke-width: 0.8"/>
      </g>
     </g>
     <g id="text_5">
      <!-- 2021-01 -->
      <g transform="translate(550.778261 382.993937)scale(0.1 -0.1)">
       <use xlink:href="#DejaVuSans-32"/>
       <use xlink:href="#DejaVuSans-30" x="63.623047"/>
       <use xlink:href="#DejaVuSans-32" x="127.246094"/>
       <use xlink:href="#DejaVuSans-31" x="190.869141"/>
       <use xlink:href="#DejaVuSans-2d" x="254.492188"/>
       <use xlink:href="#DejaVuSans-30" x="290.576172"/>
       <use xlink:href="#DejaVuSans-31" x="354.199219"/>
      </g>
     </g>
    </g>
    <g id="xtick_6">
     <g id="line2d_6">
      <g>
       <use xlink:href="#m5b68ee6509" x="692.742495" y="368.3955" style="stroke: #000000; stroke-width: 0.8"/>
      </g>
     </g>
     <g id="text_6">
      <!-- 2021-04 -->
      <g transform="translate(671.851089 382.993937)scale(0.1 -0.1)">
       <use xlink:href="#DejaVuSans-32"/>
       <use xlink:href="#DejaVuSans-30" x="63.623047"/>
       <use xlink:href="#DejaVuSans-32" x="127.246094"/>
       <use xlink:href="#DejaVuSans-31" x="190.869141"/>
       <use xlink:href="#DejaVuSans-2d" x="254.492188"/>
       <use xlink:href="#DejaVuSans-30" x="290.576172"/>
       <use xlink:href="#DejaVuSans-34" x="354.199219"/>
      </g>
     </g>
    </g>
    <g id="xtick_7">
     <g id="line2d_7">
      <g>
       <use xlink:href="#m5b68ee6509" x="815.160577" y="368.3955" style="stroke: #000000; stroke-width: 0.8"/>
      </g>
     </g>
     <g id="text_7">
      <!-- 2021-07 -->
      <g transform="translate(794.26917 382.993937)scale(0.1 -0.1)">
       <use xlink:href="#DejaVuSans-32"/>
       <use xlink:href="#DejaVuSans-30" x="63.623047"/>
       <use xlink:href="#DejaVuSans-32" x="127.246094"/>
       <use xlink:href="#DejaVuSans-31" x="190.869141"/>
       <use xlink:href="#DejaVuSans-2d" x="254.492188"/>
       <use xlink:href="#DejaVuSans-30" x="290.576172"/>
       <use xlink:href="#DejaVuSans-37" x="354.199219"/>
      </g>
     </g>
    </g>
    <g id="xtick_8">
     <g id="line2d_8">
      <g>
       <use xlink:href="#m5b68ee6509" x="938.923912" y="368.3955" style="stroke: #000000; stroke-width: 0.8"/>
      </g>
     </g>
     <g id="text_8">
      <!-- 2021-10 -->
      <g transform="translate(918.032505 382.993937)scale(0.1 -0.1)">
       <use xlink:href="#DejaVuSans-32"/>
       <use xlink:href="#DejaVuSans-30" x="63.623047"/>
       <use xlink:href="#DejaVuSans-32" x="127.246094"/>
       <use xlink:href="#DejaVuSans-31" x="190.869141"/>
       <use xlink:href="#DejaVuSans-2d" x="254.492188"/>
       <use xlink:href="#DejaVuSans-31" x="290.576172"/>
       <use xlink:href="#DejaVuSans-30" x="354.199219"/>
      </g>
     </g>
    </g>
    <g id="xtick_9">
     <g id="line2d_9">
      <g>
       <use xlink:href="#m5b68ee6509" x="1062.687247" y="368.3955" style="stroke: #000000; stroke-width: 0.8"/>
      </g>
     </g>
     <g id="text_9">
      <!-- 2022-01 -->
      <g transform="translate(1041.79584 382.993937)scale(0.1 -0.1)">
       <use xlink:href="#DejaVuSans-32"/>
       <use xlink:href="#DejaVuSans-30" x="63.623047"/>
       <use xlink:href="#DejaVuSans-32" x="127.246094"/>
       <use xlink:href="#DejaVuSans-32" x="190.869141"/>
       <use xlink:href="#DejaVuSans-2d" x="254.492188"/>
       <use xlink:href="#DejaVuSans-30" x="290.576172"/>
       <use xlink:href="#DejaVuSans-31" x="354.199219"/>
      </g>
     </g>
    </g>
    <g id="xtick_10">
     <g id="line2d_10">
      <g>
       <use xlink:href="#m5b68ee6509" x="1183.760074" y="368.3955" style="stroke: #000000; stroke-width: 0.8"/>
      </g>
     </g>
     <g id="text_10">
      <!-- 2022-04 -->
      <g transform="translate(1162.868668 382.993937)scale(0.1 -0.1)">
       <use xlink:href="#DejaVuSans-32"/>
       <use xlink:href="#DejaVuSans-30" x="63.623047"/>
       <use xlink:href="#DejaVuSans-32" x="127.246094"/>
       <use xlink:href="#DejaVuSans-32" x="190.869141"/>
       <use xlink:href="#DejaVuSans-2d" x="254.492188"/>
       <use xlink:href="#DejaVuSans-30" x="290.576172"/>
       <use xlink:href="#DejaVuSans-34" x="354.199219"/>
      </g>
     </g>
    </g>
    <g id="xtick_11">
     <g id="line2d_11">
      <g>
       <use xlink:href="#m5b68ee6509" x="1306.178156" y="368.3955" style="stroke: #000000; stroke-width: 0.8"/>
      </g>
     </g>
     <g id="text_11">
      <!-- 2022-07 -->
      <g transform="translate(1285.286749 382.993937)scale(0.1 -0.1)">
       <use xlink:href="#DejaVuSans-32"/>
       <use xlink:href="#DejaVuSans-30" x="63.623047"/>
       <use xlink:href="#DejaVuSans-32" x="127.246094"/>
       <use xlink:href="#DejaVuSans-32" x="190.869141"/>
       <use xlink:href="#DejaVuSans-2d" x="254.492188"/>
       <use xlink:href="#DejaVuSans-30" x="290.576172"/>
       <use xlink:href="#DejaVuSans-37" x="354.199219"/>
      </g>
     </g>
    </g>
   </g>
   <g id="matplotlib.axis_2">
    <g id="ytick_1">
     <g id="line2d_12">
      <defs>
       <path id="mae612c79e3" d="M 0 0 
L -3.5 0 
" style="stroke: #000000; stroke-width: 0.8"/>
      </defs>
      <g>
       <use xlink:href="#mae612c79e3" x="48.029688" y="318.424499" style="stroke: #000000; stroke-width: 0.8"/>
      </g>
     </g>
     <g id="text_12">
      <!-- −5000 -->
      <g transform="translate(7.2 322.223718)scale(0.1 -0.1)">
       <defs>
        <path id="DejaVuSans-2212" d="M 678 2272 
L 4684 2272 
L 4684 1741 
L 678 1741 
L 678 2272 
z
" transform="scale(0.015625)"/>
        <path id="DejaVuSans-35" d="M 691 4666 
L 3169 4666 
L 3169 4134 
L 1269 4134 
L 1269 2991 
Q 1406 3038 1543 3061 
Q 1681 3084 1819 3084 
Q 2600 3084 3056 2656 
Q 3513 2228 3513 1497 
Q 3513 744 3044 326 
Q 2575 -91 1722 -91 
Q 1428 -91 1123 -41 
Q 819 9 494 109 
L 494 744 
Q 775 591 1075 516 
Q 1375 441 1709 441 
Q 2250 441 2565 725 
Q 2881 1009 2881 1497 
Q 2881 1984 2565 2268 
Q 2250 2553 1709 2553 
Q 1456 2553 1204 2497 
Q 953 2441 691 2322 
L 691 4666 
z
" transform="scale(0.015625)"/>
       </defs>
       <use xlink:href="#DejaVuSans-2212"/>
       <use xlink:href="#DejaVuSans-35" x="83.789062"/>
       <use xlink:href="#DejaVuSans-30" x="147.412109"/>
       <use xlink:href="#DejaVuSans-30" x="211.035156"/>
       <use xlink:href="#DejaVuSans-30" x="274.658203"/>
      </g>
     </g>
    </g>
    <g id="ytick_2">
     <g id="line2d_13">
      <g>
       <use xlink:href="#mae612c79e3" x="48.029688" y="259.415015" style="stroke: #000000; stroke-width: 0.8"/>
      </g>
     </g>
     <g id="text_13">
      <!-- 0 -->
      <g transform="translate(34.667188 263.214234)scale(0.1 -0.1)">
       <use xlink:href="#DejaVuSans-30"/>
      </g>
     </g>
    </g>
    <g id="ytick_3">
     <g id="line2d_14">
      <g>
       <use xlink:href="#mae612c79e3" x="48.029688" y="200.405532" style="stroke: #000000; stroke-width: 0.8"/>
      </g>
     </g>
     <g id="text_14">
      <!-- 5000 -->
      <g transform="translate(15.579688 204.20475)scale(0.1 -0.1)">
       <use xlink:href="#DejaVuSans-35"/>
       <use xlink:href="#DejaVuSans-30" x="63.623047"/>
       <use xlink:href="#DejaVuSans-30" x="127.246094"/>
       <use xlink:href="#DejaVuSans-30" x="190.869141"/>
      </g>
     </g>
    </g>
    <g id="ytick_4">
     <g id="line2d_15">
      <g>
       <use xlink:href="#mae612c79e3" x="48.029688" y="141.396048" style="stroke: #000000; stroke-width: 0.8"/>
      </g>
     </g>
     <g id="text_15">
      <!-- 10000 -->
      <g transform="translate(9.217188 145.195267)scale(0.1 -0.1)">
       <use xlink:href="#DejaVuSans-31"/>
       <use xlink:href="#DejaVuSans-30" x="63.623047"/>
       <use xlink:href="#DejaVuSans-30" x="127.246094"/>
       <use xlink:href="#DejaVuSans-30" x="190.869141"/>
       <use xlink:href="#DejaVuSans-30" x="254.492188"/>
      </g>
     </g>
    </g>
    <g id="ytick_5">
     <g id="line2d_16">
      <g>
       <use xlink:href="#mae612c79e3" x="48.029688" y="82.386564" style="stroke: #000000; stroke-width: 0.8"/>
      </g>
     </g>
     <g id="text_16">
      <!-- 15000 -->
      <g transform="translate(9.217188 86.185783)scale(0.1 -0.1)">
       <use xlink:href="#DejaVuSans-31"/>
       <use xlink:href="#DejaVuSans-35" x="63.623047"/>
       <use xlink:href="#DejaVuSans-30" x="127.246094"/>
       <use xlink:href="#DejaVuSans-30" x="190.869141"/>
       <use xlink:href="#DejaVuSans-30" x="254.492188"/>
      </g>
     </g>
    </g>
   </g>
   <g id="line2d_17">
    <path d="M 108.902415 259.415015 
L 176.165097 259.415015 
L 177.51035 259.285194 
L 178.855604 259.415015 
L 181.546111 259.167175 
L 184.236619 258.376448 
L 185.581872 257.432297 
L 186.927126 257.774552 
L 188.27238 256.075079 
L 190.962887 258.223024 
L 192.308141 258.341043 
L 193.653394 256.700579 
L 194.998648 257.149051 
L 196.343901 256.724183 
L 197.689155 258.223024 
L 199.034409 258.966543 
L 201.724916 253.419652 
L 203.07017 254.517228 
L 204.415423 256.995626 
L 205.760677 258.270231 
L 207.105931 257.278872 
L 208.451184 258.223024 
L 209.796438 259.415015 
L 211.141692 251.118282 
L 212.486945 253.337038 
L 213.832199 233.49805 
L 215.177452 258.282033 
L 216.522706 256.948419 
L 217.86796 258.671496 
L 219.213213 258.541675 
L 220.558467 256.405532 
L 221.903721 255.083719 
L 223.248974 256.759589 
L 224.594228 252.66433 
L 225.939482 254.151369 
L 227.284735 251.625763 
L 228.629989 256.228503 
L 229.975242 254.080558 
L 231.320496 255.484984 
L 232.66575 123.268335 
L 234.011003 259.415015 
L 235.356257 259.415015 
L 238.046764 247.400684 
L 239.392018 254.493624 
L 240.737272 256.358324 
L 242.082525 242.868756 
L 243.427779 246.102476 
L 244.773033 234.937881 
L 246.118286 231.763171 
L 247.46354 259.415015 
L 248.808793 259.415015 
L 250.154047 278.097418 
L 251.499301 276.881822 
L 252.844554 256.429135 
L 254.189808 253.65569 
L 255.535062 260.00511 
L 256.880315 248.675289 
L 258.225569 258.624288 
L 259.570823 259.226185 
L 260.916076 248.026185 
L 262.26133 244.119757 
L 263.606584 254.470021 
L 264.951837 254.694257 
L 266.297091 252.699736 
L 267.642344 251.118282 
L 268.987598 254.080558 
L 270.332852 253.254425 
L 271.678105 254.3402 
L 273.023359 253.537671 
L 274.368613 252.345679 
L 275.713866 259.415015 
L 277.05912 250.587197 
L 278.404374 255.071917 
L 279.749627 258.234826 
L 281.094881 259.415015 
L 282.440135 253.195416 
L 283.785388 259.415015 
L 285.130642 243.883719 
L 286.475895 252.900368 
L 287.821149 259.415015 
L 289.166403 252.22766 
L 290.511656 245.807428 
L 291.85691 254.788672 
L 293.202164 256.370126 
L 294.547417 253.053793 
L 295.892671 253.242623 
L 297.237925 259.415015 
L 298.583178 243.624077 
L 299.928432 252.593519 
L 301.273685 254.753266 
L 302.618939 252.676132 
L 303.964193 252.086037 
L 305.309446 252.959378 
L 306.6547 252.251264 
L 307.999954 251.932613 
L 309.345207 259.415015 
L 310.690461 248.687091 
L 312.035715 259.415015 
L 313.380968 247.577713 
L 314.726222 259.415015 
L 316.071476 241.558746 
L 317.416729 251.153688 
L 318.761983 250.941253 
L 320.107236 251.377924 
L 321.45249 254.576238 
L 322.797744 250.36296 
L 324.142997 237.876554 
L 325.488251 245.122918 
L 326.833505 245.38256 
L 328.178758 249.05295 
L 329.524012 254.422813 
L 330.869266 254.434615 
L 332.214519 249.206375 
L 333.559773 259.415015 
L 334.905027 247.896364 
L 336.25028 250.008904 
L 337.595534 233.55706 
L 338.940787 251.613962 
L 340.286041 252.463698 
L 341.631295 246.303108 
L 342.976548 250.457376 
L 344.321802 247.18825 
L 345.667056 246.680769 
L 347.012309 248.344836 
L 348.357563 251.968018 
L 349.702817 252.251264 
L 351.04807 240.567386 
L 352.393324 247.141043 
L 353.738578 248.899525 
L 355.083831 248.781506 
L 356.429085 247.766543 
L 357.774338 251.649367 
L 359.119592 253.90353 
L 360.464846 246.220495 
L 361.810099 248.628082 
L 363.155353 245.524183 
L 364.500607 247.790147 
L 365.84586 249.064752 
L 367.191114 259.415015 
L 368.536368 249.867281 
L 369.881621 248.533666 
L 371.226875 248.757903 
L 372.572128 239.694046 
L 373.917382 242.514699 
L 375.262636 240.496575 
L 376.607889 248.946733 
L 377.953143 256.558956 
L 379.298397 249.24178 
L 380.64365 241.157481 
L 381.988904 244.863277 
L 383.334158 246.834193 
L 384.679411 244.320389 
L 386.024665 249.336195 
L 387.369919 256.948419 
L 388.715172 245.370758 
L 390.060426 241.310906 
L 391.405679 247.223656 
L 392.750933 247.93177 
L 394.096187 252.239462 
L 395.44144 251.389726 
L 396.786694 253.278029 
L 398.131948 250.66981 
L 399.477201 241.487934 
L 400.822455 251.507744 
L 402.167709 248.533666 
L 403.512962 250.386564 
L 404.858216 250.658008 
L 406.20347 258.01059 
L 407.548723 253.018387 
L 408.893977 245.866438 
L 410.23923 248.757903 
L 411.584484 249.796469 
L 412.929738 249.147365 
L 414.274991 259.415015 
L 415.620245 353.2755 
L 416.965499 251.566754 
L 418.310752 242.786143 
L 419.656006 247.141043 
L 421.00126 241.405321 
L 422.346513 239.127555 
L 423.691767 234.123551 
L 425.03702 255.673814 
L 426.382274 251.838198 
L 427.727528 236.141675 
L 429.072781 250.776027 
L 430.418035 237.321865 
L 431.763289 241.818387 
L 433.108542 249.9853 
L 434.453796 255.968861 
L 435.79905 248.415648 
L 437.144303 232.87255 
L 438.489557 244.615437 
L 439.834811 243.730295 
L 441.180064 241.641359 
L 442.525318 250.374762 
L 443.870571 256.842202 
L 445.215825 250.162328 
L 446.561079 244.096153 
L 447.906332 241.2755 
L 449.251586 248.203213 
L 451.942093 251.35432 
L 453.287347 255.815437 
L 454.632601 250.953055 
L 455.977854 242.007218 
L 457.323108 241.546944 
L 458.668362 249.938092 
L 460.013615 247.849156 
L 461.358869 256.995626 
L 462.704122 256.08688 
L 464.049376 249.312592 
L 465.39463 248.651685 
L 466.739883 244.343993 
L 468.085137 244.084351 
L 469.430391 250.410168 
L 470.775644 249.182771 
L 472.120898 257.833561 
L 473.466152 251.248103 
L 474.811405 241.594151 
L 476.156659 249.666649 
L 477.501913 237.947365 
L 478.847166 243.553266 
L 480.19242 235.563382 
L 481.537673 253.006585 
L 482.882927 247.447892 
L 484.228181 239.16296 
L 485.573434 242.963171 
L 486.918688 249.442413 
L 488.263942 247.082033 
L 489.609195 247.589515 
L 490.954449 255.071917 
L 492.299703 252.947576 
L 493.644956 243.801106 
L 494.99021 255.284351 
L 496.335463 250.85864 
L 497.680717 247.87276 
L 499.025971 242.64452 
L 500.371224 255.142729 
L 501.716478 254.198577 
L 503.061732 248.569072 
L 504.406985 248.99394 
L 505.752239 245.713013 
L 507.097493 248.167808 
L 509.788 254.918493 
L 511.133254 254.363803 
L 512.478507 245.890042 
L 513.823761 247.660326 
L 515.169014 252.404689 
L 516.514268 247.18825 
L 517.859522 250.36296 
L 519.204775 255.862644 
L 520.550029 253.608482 
L 521.895283 250.044309 
L 523.240536 248.698893 
L 524.58579 242.939567 
L 525.931044 243.187407 
L 527.276297 245.158324 
L 528.621551 252.711538 
L 529.966805 247.754741 
L 531.312058 245.217334 
L 532.657312 247.518703 
L 534.002565 252.357481 
L 535.347819 248.687091 
L 536.693073 252.251264 
L 538.038326 256.511749 
L 539.38358 253.419652 
L 540.728834 253.797312 
L 542.074087 245.831032 
L 543.419341 254.859483 
L 544.764595 250.457376 
L 546.109848 252.499104 
L 547.455102 258.588883 
L 548.800356 257.337881 
L 550.145609 246.373919 
L 551.490863 250.115121 
L 552.836116 250.516385 
L 554.18137 248.592676 
L 555.526624 255.437776 
L 556.871877 258.565279 
L 558.217131 259.001949 
L 559.562385 250.91765 
L 560.907638 248.486459 
L 562.252892 249.761064 
L 564.943399 258.459062 
L 566.288653 254.658851 
L 567.633906 252.711538 
L 568.97916 245.417966 
L 570.324414 247.613119 
L 571.669667 249.194573 
L 573.014921 246.019862 
L 574.360175 258.223024 
L 575.705428 253.915331 
L 577.050682 247.577713 
L 578.395936 244.143361 
L 579.741189 247.518703 
L 581.086443 250.410168 
L 582.431697 245.240937 
L 583.77695 250.905848 
L 585.122204 254.269388 
L 586.467457 246.893203 
L 587.812711 238.7853 
L 589.157965 239.505215 
L 590.503218 249.218177 
L 591.848472 212.891938 
L 593.193726 251.460537 
L 594.538979 257.503108 
L 597.229487 238.797102 
L 598.57474 237.298261 
L 599.919994 247.978977 
L 601.265248 246.739778 
L 602.610501 223.301211 
L 603.955755 256.169494 
L 605.301008 252.581717 
L 606.646262 243.022181 
L 607.991516 230.32334 
L 609.336769 251.307112 
L 610.682023 222.923551 
L 612.027277 247.034826 
L 613.37253 257.550316 
L 614.717784 255.95706 
L 616.063038 246.303108 
L 617.408291 248.215015 
L 618.753545 234.949683 
L 620.098798 239.316385 
L 621.444052 245.642202 
L 622.789306 255.579399 
L 624.134559 245.535985 
L 625.479813 255.95706 
L 626.825067 234.194362 
L 628.17032 244.025342 
L 629.515574 235.693203 
L 630.860828 239.398998 
L 632.206081 253.773709 
L 633.551335 255.02471 
L 634.896589 257.691938 
L 636.241842 240.048103 
L 637.587096 242.70353 
L 638.932349 237.923761 
L 640.277603 240.815226 
L 641.622857 255.933456 
L 642.96811 249.831875 
L 644.313364 224.021127 
L 645.658618 231.208482 
L 647.003871 242.538303 
L 648.349125 238.7853 
L 649.694379 238.077186 
L 651.039632 256.913013 
L 652.384886 255.189936 
L 653.73014 226.995205 
L 655.075393 256.311116 
L 656.420647 243.659483 
L 657.7659 237.310063 
L 659.111154 241.004056 
L 660.456408 258.057797 
L 661.801661 253.561274 
L 663.146915 239.03314 
L 664.492169 246.244099 
L 665.837422 244.556427 
L 667.182676 242.302265 
L 668.52793 241.063066 
L 669.873183 256.14589 
L 671.218437 255.21354 
L 672.563691 227.030611 
L 673.908944 237.805742 
L 675.254198 233.285616 
L 676.599451 244.957692 
L 677.944705 238.997734 
L 679.289959 256.429135 
L 680.635212 250.929452 
L 681.980466 221.212276 
L 683.32572 237.593308 
L 684.670973 226.428714 
L 686.016227 244.686248 
L 687.361481 238.372233 
L 688.706734 251.838198 
L 690.051988 233.439041 
L 691.397241 242.538303 
L 692.742495 240.142518 
L 694.087749 239.941886 
L 695.433002 245.996259 
L 696.778256 229.839462 
L 698.12351 246.480136 
L 699.468763 248.498261 
L 700.814017 236.967808 
L 702.159271 235.634193 
L 703.504524 246.916807 
L 704.849778 233.462644 
L 706.195032 236.519336 
L 707.540285 256.429135 
L 708.885539 253.289831 
L 710.230792 224.59942 
L 711.576046 201.680136 
L 712.9213 253.124604 
L 714.266553 233.533456 
L 715.611807 231.220284 
L 716.957061 259.214383 
L 718.302314 252.440094 
L 719.647568 239.481612 
L 720.992822 229.320179 
L 722.338075 189.6304 
L 723.683329 242.325869 
L 725.028583 252.239462 
L 726.373836 242.738935 
L 727.71909 252.876764 
L 729.064343 231.88119 
L 730.409597 223.690674 
L 731.754851 245.57139 
L 733.100104 227.231243 
L 734.445358 227.431875 
L 735.790612 250.598998 
L 737.135865 221.696153 
L 738.481119 238.10079 
L 739.826373 232.518493 
L 741.171626 240.992254 
L 742.51688 235.421759 
L 743.862134 243.187407 
L 745.207387 238.596469 
L 746.552641 253.101001 
L 747.897894 235.374552 
L 749.243148 245.831032 
L 750.588402 245.028503 
L 751.933655 229.697839 
L 753.278909 252.22766 
L 754.624163 250.66981 
L 755.969416 252.381085 
L 758.659924 231.704162 
L 760.005177 243.293624 
L 761.350431 245.028503 
L 762.695684 247.483298 
L 764.040938 255.319757 
L 765.386192 247.978977 
L 766.731445 246.857797 
L 768.076699 246.456533 
L 769.421953 249.54863 
L 770.767206 240.815226 
L 772.11246 246.432929 
L 773.457714 257.101844 
L 774.802967 239.90648 
L 776.148221 245.547787 
L 777.493475 248.17961 
L 778.838728 248.533666 
L 780.183982 251.271707 
L 781.529235 248.510063 
L 782.874489 254.859483 
L 784.219743 256.511749 
L 785.564996 248.970337 
L 786.91025 234.005532 
L 788.255504 246.456533 
L 789.600757 247.766543 
L 790.946011 249.666649 
L 792.291265 256.995626 
L 793.636518 256.64157 
L 794.981772 238.10079 
L 796.327026 245.713013 
L 797.672279 235.173919 
L 799.017533 245.358956 
L 800.362786 249.324394 
L 801.70804 257.149051 
L 803.053294 253.006585 
L 804.398547 236.625553 
L 805.743801 254.977502 
L 807.089055 226.947997 
L 808.434308 246.102476 
L 809.779562 247.919968 
L 811.124816 242.809747 
L 812.470069 238.808904 
L 813.815323 247.43609 
L 815.160577 247.211854 
L 816.50583 240.307744 
L 817.851084 247.790147 
L 819.196337 259.415015 
L 820.541591 253.431454 
L 821.886845 244.048946 
L 824.577352 249.395205 
L 825.922606 245.311749 
L 827.267859 248.757903 
L 828.613113 255.048313 
L 829.958367 258.612486 
L 831.30362 230.287934 
L 832.648874 249.088356 
L 833.994127 248.026185 
L 835.339381 248.498261 
L 836.684635 240.909641 
L 838.029888 249.383403 
L 839.375142 256.499947 
L 840.720396 240.130716 
L 842.065649 251.519546 
L 843.410903 245.618598 
L 844.756157 248.36844 
L 846.10141 259.415015 
L 847.446664 259.415015 
L 848.791918 233.132191 
L 850.137171 259.415015 
L 851.482425 238.631875 
L 852.827678 248.026185 
L 854.172932 249.135563 
L 855.518186 249.643045 
L 856.863439 256.747787 
L 858.208693 258.187618 
L 859.553947 243.045785 
L 860.8992 254.599841 
L 862.244454 249.277186 
L 863.589708 249.631243 
L 864.934961 251.79099 
L 867.625469 258.459062 
L 868.970722 258.258429 
L 870.315976 250.150526 
L 871.661229 252.109641 
L 873.006483 252.558113 
L 874.351737 253.856322 
L 875.69699 257.101844 
L 877.042244 258.234826 
L 878.387498 251.97982 
L 879.732751 248.828714 
L 881.078005 254.245785 
L 882.423259 249.796469 
L 883.768512 250.929452 
L 885.113766 258.659694 
L 886.459019 258.82492 
L 887.804273 253.891728 
L 889.149527 254.28119 
L 890.49478 254.068756 
L 891.840034 255.166332 
L 893.185288 252.274868 
L 894.530541 258.341043 
L 895.875795 258.6951 
L 897.221049 253.018387 
L 898.566302 254.658851 
L 899.911556 248.144204 
L 901.25681 254.540832 
L 902.602063 256.429135 
L 903.947317 258.647892 
L 905.29257 258.813119 
L 906.637824 255.001106 
L 907.983078 253.230821 
L 909.328331 257.691938 
L 910.673585 257.668335 
L 912.018839 257.208061 
L 913.364092 259.226185 
L 914.709346 259.214383 
L 916.0546 255.484984 
L 917.399853 256.676975 
L 918.745107 256.759589 
L 920.090361 254.056954 
L 921.435614 254.28119 
L 922.780868 259.07276 
L 924.126121 259.214383 
L 925.471375 254.564436 
L 926.816629 257.562117 
L 928.161882 256.228503 
L 929.507136 256.889409 
L 930.85239 254.328398 
L 932.197643 257.621127 
L 933.542897 258.588883 
L 934.888151 253.360642 
L 936.233404 254.989304 
L 937.578658 252.758746 
L 938.923912 254.198577 
L 940.269165 255.803635 
L 941.614419 259.07276 
L 942.959672 258.081401 
L 944.304926 256.464541 
L 945.65018 256.712381 
L 946.995433 257.609325 
L 948.340687 259.415015 
L 949.685941 257.066438 
L 951.031194 258.577081 
L 952.376448 258.529873 
L 953.721702 259.096364 
L 955.066955 248.144204 
L 956.412209 259.415015 
L 957.757462 259.415015 
L 959.102716 253.148208 
L 960.44797 259.415015 
L 961.793223 258.01059 
L 963.138477 254.564436 
L 964.483731 259.415015 
L 965.828984 252.699736 
L 967.174238 254.859483 
L 968.519492 256.240305 
L 969.864745 255.933456 
L 971.209999 258.789515 
L 972.555253 259.415015 
L 973.900506 253.419652 
L 975.24576 256.311116 
L 976.591013 253.502265 
L 979.281521 258.706901 
L 980.626774 248.639884 
L 981.972028 258.848524 
L 983.317282 258.813119 
L 984.662535 255.697418 
L 986.007789 254.859483 
L 987.353043 254.564436 
L 988.698296 259.415015 
L 990.04355 258.282033 
L 991.388804 258.494467 
L 992.734057 254.611643 
L 994.079311 264.218387 
L 995.424564 239.127555 
L 996.769818 254.470021 
L 998.115072 258.305637 
L 999.460325 258.789515 
L 1000.805579 252.959378 
L 1002.150833 254.800474 
L 1003.496086 252.66433 
L 1004.84134 253.608482 
L 1006.186594 255.119125 
L 1007.531847 257.739146 
L 1008.877101 258.482665 
L 1010.222355 254.068756 
L 1011.567608 253.360642 
L 1012.912862 254.316596 
L 1014.258115 255.791833 
L 1015.603369 253.773709 
L 1016.948623 257.231664 
L 1018.293876 258.588883 
L 1019.63913 253.950737 
L 1020.984384 255.225342 
L 1022.329637 254.540832 
L 1023.674891 253.643888 
L 1025.020145 252.522708 
L 1026.365398 257.349683 
L 1027.710652 258.152212 
L 1029.055905 251.507744 
L 1030.401159 250.693414 
L 1031.746413 248.297629 
L 1033.091666 252.062434 
L 1034.43692 250.445574 
L 1035.782174 256.263909 
L 1037.127427 257.868967 
L 1038.472681 252.4755 
L 1039.817935 252.558113 
L 1041.163188 251.661169 
L 1042.508442 250.976659 
L 1043.853696 251.779188 
L 1045.198949 256.39373 
L 1046.544203 257.196259 
L 1047.889456 247.636722 
L 1049.23471 249.749262 
L 1050.579964 246.609957 
L 1051.925217 244.709852 
L 1053.270471 250.988461 
L 1054.615725 256.358324 
L 1055.960978 252.109641 
L 1058.651486 239.387197 
L 1059.996739 243.057586 
L 1061.341993 233.073182 
L 1062.687247 233.427239 
L 1064.0325 251.10648 
L 1065.377754 249.064752 
L 1066.723007 244.839673 
L 1068.068261 225.933034 
L 1069.413515 227.821338 
L 1070.758768 243.659483 
L 1072.104022 224.564014 
L 1073.449276 222.899947 
L 1074.794529 237.557903 
L 1076.139783 149.173498 
L 1077.485037 137.312592 
L 1078.83029 202.848524 
L 1080.175544 149.917017 
L 1081.520797 128.531981 
L 1082.866051 129.2755 
L 1084.211305 206.920179 
L 1085.556558 145.786354 
L 1086.901812 136.415648 
L 1089.592319 181.298261 
L 1090.937573 137.867281 
L 1093.62808 227.715121 
L 1094.973334 167.006164 
L 1096.318588 192.014383 
L 1097.663841 145.939778 
L 1099.009095 143.036512 
L 1100.354348 154.956427 
L 1101.699602 214.284562 
L 1103.044856 232.530295 
L 1104.390109 173.745047 
L 1105.735363 182.443045 
L 1107.080617 178.973287 
L 1108.42587 156.90374 
L 1109.771124 199.496786 
L 1111.116378 226.947997 
L 1112.461631 259.415015 
L 1115.152139 259.415015 
L 1116.497392 114.003846 
L 1117.842646 259.415015 
L 1120.533153 259.415015 
L 1121.878407 50.8755 
L 1123.22366 245.488777 
L 1124.568914 259.415015 
L 1125.914168 157.859694 
L 1127.259421 259.415015 
L 1129.949929 259.415015 
L 1131.295182 130.054425 
L 1132.640436 251.684773 
L 1133.98569 259.415015 
L 1135.330943 174.217123 
L 1136.676197 259.415015 
L 1142.057211 259.415015 
L 1143.402465 194.138724 
L 1144.747719 224.894467 
L 1146.092972 259.415015 
L 1148.78348 259.415015 
L 1150.128733 196.168651 
L 1151.473987 259.415015 
L 1152.81924 233.627871 
L 1154.164494 259.415015 
L 1158.200255 259.415015 
L 1159.545509 193.017544 
L 1160.890762 255.721022 
L 1162.236016 259.415015 
L 1166.271777 259.415015 
L 1167.617031 210.425342 
L 1168.962284 254.670653 
L 1170.307538 259.415015 
L 1171.652791 259.415015 
L 1172.998045 246.881401 
L 1174.343299 235.98825 
L 1175.688552 259.415015 
L 1178.37906 259.415015 
L 1179.724313 236.896996 
L 1181.069567 251.35432 
L 1182.414821 259.415015 
L 1186.450582 259.415015 
L 1187.795835 230.724604 
L 1189.141089 259.415015 
L 1190.486342 259.415015 
L 1191.831596 246.704372 
L 1193.17685 259.415015 
L 1195.867357 259.415015 
L 1197.212611 237.404478 
L 1198.557864 259.415015 
L 1199.903118 255.614805 
L 1201.248372 259.415015 
L 1205.284133 259.415015 
L 1206.629386 244.084351 
L 1207.97464 258.931138 
L 1209.319893 259.415015 
L 1210.665147 256.523551 
L 1212.010401 259.415015 
L 1213.355654 248.99394 
L 1214.700908 259.415015 
L 1216.046162 256.676975 
L 1217.391415 259.415015 
L 1218.736669 259.415015 
L 1220.081923 249.513224 
L 1221.427176 259.415015 
L 1222.77243 252.66433 
L 1224.117683 259.415015 
L 1226.808191 259.415015 
L 1228.153444 256.346522 
L 1229.498698 252.687934 
L 1230.843952 259.415015 
L 1233.534459 259.415015 
L 1234.879713 253.478661 
L 1236.224966 259.214383 
L 1237.57022 259.415015 
L 1238.915474 259.415015 
L 1240.260727 244.993097 
L 1241.605981 259.415015 
L 1242.951234 259.415015 
L 1244.296488 256.181296 
L 1245.641742 259.415015 
L 1246.986995 259.415015 
L 1248.332249 246.822391 
L 1249.677503 259.415015 
L 1251.022756 259.415015 
L 1252.36801 247.731138 
L 1253.713264 257.998788 
L 1255.058517 259.049156 
L 1256.403771 259.415015 
L 1257.749025 244.556427 
L 1259.094278 259.415015 
L 1260.439532 251.672971 
L 1261.784785 259.415015 
L 1263.130039 252.133245 
L 1264.475293 259.415015 
L 1265.820546 248.628082 
L 1267.1658 259.415015 
L 1271.201561 259.415015 
L 1272.546815 175.361907 
L 1273.892068 259.415015 
L 1275.237322 248.734299 
L 1276.582575 244.603635 
L 1277.927829 259.415015 
L 1280.618336 259.415015 
L 1281.96359 219.595416 
L 1283.308844 259.415015 
L 1284.654097 243.789304 
L 1285.999351 259.415015 
L 1287.344605 208.584246 
L 1288.689858 259.415015 
L 1291.380366 259.415015 
L 1292.725619 233.639673 
L 1294.070873 259.415015 
L 1296.76138 259.415015 
L 1298.106634 223.159589 
L 1299.451887 259.415015 
L 1302.142395 259.415015 
L 1303.487648 163.31217 
L 1304.832902 259.415015 
L 1308.868663 259.415015 
L 1308.868663 259.415015 
" clip-path="url(#p42c6ea0cce)" style="fill: none; stroke: #0000ff; stroke-width: 1.5; stroke-linecap: square"/>
   </g>
   <g id="line2d_18">
    <path d="M 1069.413515 236.090089 
L 1070.758768 237.240787 
L 1072.104022 241.13448 
L 1073.449276 237.983761 
L 1074.794529 236.579421 
L 1076.139783 218.571476 
L 1077.485037 208.030869 
L 1078.83029 212.36569 
L 1080.175544 197.719706 
L 1081.520797 187.702639 
L 1082.866051 184.360617 
L 1084.211305 159.298119 
L 1085.556558 153.666973 
L 1086.901812 172.178694 
L 1088.247066 153.542696 
L 1089.592319 150.536071 
L 1090.937573 149.035794 
L 1092.282827 178.517833 
L 1093.62808 165.788855 
L 1094.973334 162.970628 
L 1096.318588 174.2242 
L 1097.663841 177.372608 
L 1099.009095 158.829046 
L 1100.354348 172.885388 
L 1101.699602 192.596693 
L 1103.044856 178.732833 
L 1104.390109 186.015561 
L 1105.735363 170.848118 
L 1107.080617 171.037366 
L 1108.42587 172.896599 
L 1109.771124 195.443637 
L 1111.116378 205.57587 
L 1112.461631 194.231546 
L 1113.806885 205.940291 
L 1115.152139 212.167368 
L 1116.497392 191.67677 
L 1117.842646 214.533472 
L 1120.533153 243.886393 
L 1121.878407 217.420909 
L 1123.22366 221.26955 
L 1124.568914 180.177661 
L 1125.914168 223.439803 
L 1127.259421 228.372693 
L 1128.604675 232.629189 
L 1129.949929 169.869432 
L 1131.295182 226.406279 
L 1132.640436 234.308804 
L 1133.98569 205.399757 
L 1135.330943 233.47561 
L 1136.676197 237.032398 
L 1138.02145 240.101483 
L 1139.366704 201.540469 
L 1140.711958 248.222889 
L 1142.057211 252.220099 
L 1143.402465 217.115286 
L 1144.747719 245.322707 
L 1146.092972 247.255032 
L 1147.438226 248.922398 
L 1148.78348 250.361136 
L 1150.128733 242.93031 
L 1151.473987 224.396183 
L 1152.81924 235.459611 
L 1154.164494 249.741264 
L 1155.509748 251.06772 
L 1156.855001 252.212294 
L 1158.200255 233.052085 
L 1159.545509 247.710424 
L 1160.890762 240.594045 
L 1162.236016 251.389545 
L 1163.58127 252.48999 
L 1166.271777 254.258895 
L 1167.617031 227.096816 
L 1168.962284 250.852614 
L 1170.307538 253.203446 
L 1171.652791 254.055171 
L 1172.998045 253.07151 
L 1174.343299 250.729068 
L 1175.688552 236.313867 
L 1177.033806 253.576317 
L 1178.37906 255.888284 
L 1179.724313 253.284215 
L 1181.069567 249.026866 
L 1182.414821 246.981145 
L 1183.760074 256.148925 
L 1186.450582 256.983204 
L 1187.795835 246.20928 
L 1189.141089 252.625582 
L 1190.486342 256.124368 
L 1191.831596 254.832706 
L 1194.522103 256.003196 
L 1195.867357 247.331369 
L 1197.212611 255.109855 
L 1198.557864 255.700175 
L 1199.903118 251.639351 
L 1201.248372 256.754661 
L 1203.938879 257.434213 
L 1205.284133 250.694115 
L 1206.629386 256.799494 
L 1207.97464 255.881183 
L 1209.319893 257.576339 
L 1210.665147 257.431982 
L 1212.010401 257.703893 
L 1213.355654 256.509592 
L 1214.700908 252.024226 
L 1216.046162 257.391817 
L 1217.391415 257.823381 
L 1218.736669 257.120516 
L 1220.081923 256.99852 
L 1221.427176 254.010117 
L 1222.77243 257.145334 
L 1224.117683 256.584317 
L 1225.462937 257.844694 
L 1226.808191 258.060015 
L 1228.153444 254.670735 
L 1229.498698 257.553182 
L 1230.843952 255.657969 
L 1232.189205 258.323638 
L 1233.534459 258.473287 
L 1236.224966 257.006451 
L 1237.57022 256.171227 
L 1238.915474 258.758999 
L 1240.260727 256.871431 
L 1241.605981 257.220205 
L 1242.951234 255.630063 
L 1244.296488 257.532826 
L 1246.986995 258.068756 
L 1248.332249 251.932401 
L 1249.677503 257.552674 
L 1251.022756 257.808037 
L 1252.36801 255.396163 
L 1253.713264 256.783171 
L 1255.058517 257.093881 
L 1256.403771 253.400631 
L 1257.749025 256.199443 
L 1259.094278 256.64036 
L 1260.439532 252.237205 
L 1261.784785 256.492295 
L 1263.130039 256.229193 
L 1264.475293 256.782579 
L 1265.820546 250.931071 
L 1267.1658 256.827752 
L 1268.511054 254.7162 
L 1269.856307 257.826813 
L 1271.201561 255.724896 
L 1272.546815 247.025283 
L 1273.892068 245.287853 
L 1275.237322 249.196726 
L 1276.582575 248.566925 
L 1277.927829 250.054406 
L 1279.273083 251.337924 
L 1280.618336 225.669386 
L 1281.96359 251.612591 
L 1283.308844 249.27999 
L 1284.654097 247.211243 
L 1285.999351 253.602945 
L 1287.344605 247.43002 
L 1288.689858 249.073392 
L 1290.035112 237.806446 
L 1291.380366 253.454375 
L 1292.725619 245.759654 
L 1294.070873 252.609811 
L 1295.416126 237.350222 
L 1296.76138 256.56844 
L 1298.106634 251.987448 
L 1299.451887 253.005909 
L 1300.797141 245.673695 
L 1302.142395 255.768918 
L 1303.487648 243.09133 
L 1304.832902 245.329619 
L 1306.178156 235.711423 
L 1307.523409 250.511212 
L 1308.868663 251.732094 
L 1308.868663 251.732094 
" clip-path="url(#p42c6ea0cce)" style="fill: none; stroke: #ffa500; stroke-width: 1.5; stroke-linecap: square"/>
   </g>
   <g id="line2d_19">
    <path d="M 1308.868663 251.732094 
L 1310.213917 251.732094 
L 1311.55917 221.117453 
L 1312.904424 251.732094 
L 1314.249677 251.732094 
L 1315.594931 251.732094 
L 1316.940185 251.732094 
L 1318.285438 249.284613 
L 1319.630692 249.284613 
L 1320.975946 239.531975 
L 1322.321199 249.284613 
L 1323.666453 249.284613 
L 1325.011707 249.284613 
L 1326.35696 249.284613 
" clip-path="url(#p42c6ea0cce)" style="fill: none; stroke: #ff0000; stroke-width: 1.5; stroke-linecap: square"/>
   </g>
   <g id="patch_3">
    <path d="M 48.029688 368.3955 
L 48.029688 35.7555 
" style="fill: none; stroke: #000000; stroke-width: 0.8; stroke-linejoin: miter; stroke-linecap: square"/>
   </g>
   <g id="patch_4">
    <path d="M 1387.229688 368.3955 
L 1387.229688 35.7555 
" style="fill: none; stroke: #000000; stroke-width: 0.8; stroke-linejoin: miter; stroke-linecap: square"/>
   </g>
   <g id="patch_5">
    <path d="M 48.029687 368.3955 
L 1387.229687 368.3955 
" style="fill: none; stroke: #000000; stroke-width: 0.8; stroke-linejoin: miter; stroke-linecap: square"/>
   </g>
   <g id="patch_6">
    <path d="M 48.029687 35.7555 
L 1387.229687 35.7555 
" style="fill: none; stroke: #000000; stroke-width: 0.8; stroke-linejoin: miter; stroke-linecap: square"/>
   </g>
   <g id="text_17">
    <!-- Daily Confirmed Cases Forecasting - Ecuador -->
    <g transform="translate(582.612813 16.318125)scale(0.12 -0.12)">
     <defs>
      <path id="DejaVuSans-44" d="M 1259 4147 
L 1259 519 
L 2022 519 
Q 2988 519 3436 956 
Q 3884 1394 3884 2338 
Q 3884 3275 3436 3711 
Q 2988 4147 2022 4147 
L 1259 4147 
z
M 628 4666 
L 1925 4666 
Q 3281 4666 3915 4102 
Q 4550 3538 4550 2338 
Q 4550 1131 3912 565 
Q 3275 0 1925 0 
L 628 0 
L 628 4666 
z
" transform="scale(0.015625)"/>
      <path id="DejaVuSans-61" d="M 2194 1759 
Q 1497 1759 1228 1600 
Q 959 1441 959 1056 
Q 959 750 1161 570 
Q 1363 391 1709 391 
Q 2188 391 2477 730 
Q 2766 1069 2766 1631 
L 2766 1759 
L 2194 1759 
z
M 3341 1997 
L 3341 0 
L 2766 0 
L 2766 531 
Q 2569 213 2275 61 
Q 1981 -91 1556 -91 
Q 1019 -91 701 211 
Q 384 513 384 1019 
Q 384 1609 779 1909 
Q 1175 2209 1959 2209 
L 2766 2209 
L 2766 2266 
Q 2766 2663 2505 2880 
Q 2244 3097 1772 3097 
Q 1472 3097 1187 3025 
Q 903 2953 641 2809 
L 641 3341 
Q 956 3463 1253 3523 
Q 1550 3584 1831 3584 
Q 2591 3584 2966 3190 
Q 3341 2797 3341 1997 
z
" transform="scale(0.015625)"/>
      <path id="DejaVuSans-69" d="M 603 3500 
L 1178 3500 
L 1178 0 
L 603 0 
L 603 3500 
z
M 603 4863 
L 1178 4863 
L 1178 4134 
L 603 4134 
L 603 4863 
z
" transform="scale(0.015625)"/>
      <path id="DejaVuSans-6c" d="M 603 4863 
L 1178 4863 
L 1178 0 
L 603 0 
L 603 4863 
z
" transform="scale(0.015625)"/>
      <path id="DejaVuSans-79" d="M 2059 -325 
Q 1816 -950 1584 -1140 
Q 1353 -1331 966 -1331 
L 506 -1331 
L 506 -850 
L 844 -850 
Q 1081 -850 1212 -737 
Q 1344 -625 1503 -206 
L 1606 56 
L 191 3500 
L 800 3500 
L 1894 763 
L 2988 3500 
L 3597 3500 
L 2059 -325 
z
" transform="scale(0.015625)"/>
      <path id="DejaVuSans-20" transform="scale(0.015625)"/>
      <path id="DejaVuSans-43" d="M 4122 4306 
L 4122 3641 
Q 3803 3938 3442 4084 
Q 3081 4231 2675 4231 
Q 1875 4231 1450 3742 
Q 1025 3253 1025 2328 
Q 1025 1406 1450 917 
Q 1875 428 2675 428 
Q 3081 428 3442 575 
Q 3803 722 4122 1019 
L 4122 359 
Q 3791 134 3420 21 
Q 3050 -91 2638 -91 
Q 1578 -91 968 557 
Q 359 1206 359 2328 
Q 359 3453 968 4101 
Q 1578 4750 2638 4750 
Q 3056 4750 3426 4639 
Q 3797 4528 4122 4306 
z
" transform="scale(0.015625)"/>
      <path id="DejaVuSans-6f" d="M 1959 3097 
Q 1497 3097 1228 2736 
Q 959 2375 959 1747 
Q 959 1119 1226 758 
Q 1494 397 1959 397 
Q 2419 397 2687 759 
Q 2956 1122 2956 1747 
Q 2956 2369 2687 2733 
Q 2419 3097 1959 3097 
z
M 1959 3584 
Q 2709 3584 3137 3096 
Q 3566 2609 3566 1747 
Q 3566 888 3137 398 
Q 2709 -91 1959 -91 
Q 1206 -91 779 398 
Q 353 888 353 1747 
Q 353 2609 779 3096 
Q 1206 3584 1959 3584 
z
" transform="scale(0.015625)"/>
      <path id="DejaVuSans-6e" d="M 3513 2113 
L 3513 0 
L 2938 0 
L 2938 2094 
Q 2938 2591 2744 2837 
Q 2550 3084 2163 3084 
Q 1697 3084 1428 2787 
Q 1159 2491 1159 1978 
L 1159 0 
L 581 0 
L 581 3500 
L 1159 3500 
L 1159 2956 
Q 1366 3272 1645 3428 
Q 1925 3584 2291 3584 
Q 2894 3584 3203 3211 
Q 3513 2838 3513 2113 
z
" transform="scale(0.015625)"/>
      <path id="DejaVuSans-66" d="M 2375 4863 
L 2375 4384 
L 1825 4384 
Q 1516 4384 1395 4259 
Q 1275 4134 1275 3809 
L 1275 3500 
L 2222 3500 
L 2222 3053 
L 1275 3053 
L 1275 0 
L 697 0 
L 697 3053 
L 147 3053 
L 147 3500 
L 697 3500 
L 697 3744 
Q 697 4328 969 4595 
Q 1241 4863 1831 4863 
L 2375 4863 
z
" transform="scale(0.015625)"/>
      <path id="DejaVuSans-72" d="M 2631 2963 
Q 2534 3019 2420 3045 
Q 2306 3072 2169 3072 
Q 1681 3072 1420 2755 
Q 1159 2438 1159 1844 
L 1159 0 
L 581 0 
L 581 3500 
L 1159 3500 
L 1159 2956 
Q 1341 3275 1631 3429 
Q 1922 3584 2338 3584 
Q 2397 3584 2469 3576 
Q 2541 3569 2628 3553 
L 2631 2963 
z
" transform="scale(0.015625)"/>
      <path id="DejaVuSans-6d" d="M 3328 2828 
Q 3544 3216 3844 3400 
Q 4144 3584 4550 3584 
Q 5097 3584 5394 3201 
Q 5691 2819 5691 2113 
L 5691 0 
L 5113 0 
L 5113 2094 
Q 5113 2597 4934 2840 
Q 4756 3084 4391 3084 
Q 3944 3084 3684 2787 
Q 3425 2491 3425 1978 
L 3425 0 
L 2847 0 
L 2847 2094 
Q 2847 2600 2669 2842 
Q 2491 3084 2119 3084 
Q 1678 3084 1418 2786 
Q 1159 2488 1159 1978 
L 1159 0 
L 581 0 
L 581 3500 
L 1159 3500 
L 1159 2956 
Q 1356 3278 1631 3431 
Q 1906 3584 2284 3584 
Q 2666 3584 2933 3390 
Q 3200 3197 3328 2828 
z
" transform="scale(0.015625)"/>
      <path id="DejaVuSans-65" d="M 3597 1894 
L 3597 1613 
L 953 1613 
Q 991 1019 1311 708 
Q 1631 397 2203 397 
Q 2534 397 2845 478 
Q 3156 559 3463 722 
L 3463 178 
Q 3153 47 2828 -22 
Q 2503 -91 2169 -91 
Q 1331 -91 842 396 
Q 353 884 353 1716 
Q 353 2575 817 3079 
Q 1281 3584 2069 3584 
Q 2775 3584 3186 3129 
Q 3597 2675 3597 1894 
z
M 3022 2063 
Q 3016 2534 2758 2815 
Q 2500 3097 2075 3097 
Q 1594 3097 1305 2825 
Q 1016 2553 972 2059 
L 3022 2063 
z
" transform="scale(0.015625)"/>
      <path id="DejaVuSans-64" d="M 2906 2969 
L 2906 4863 
L 3481 4863 
L 3481 0 
L 2906 0 
L 2906 525 
Q 2725 213 2448 61 
Q 2172 -91 1784 -91 
Q 1150 -91 751 415 
Q 353 922 353 1747 
Q 353 2572 751 3078 
Q 1150 3584 1784 3584 
Q 2172 3584 2448 3432 
Q 2725 3281 2906 2969 
z
M 947 1747 
Q 947 1113 1208 752 
Q 1469 391 1925 391 
Q 2381 391 2643 752 
Q 2906 1113 2906 1747 
Q 2906 2381 2643 2742 
Q 2381 3103 1925 3103 
Q 1469 3103 1208 2742 
Q 947 2381 947 1747 
z
" transform="scale(0.015625)"/>
      <path id="DejaVuSans-73" d="M 2834 3397 
L 2834 2853 
Q 2591 2978 2328 3040 
Q 2066 3103 1784 3103 
Q 1356 3103 1142 2972 
Q 928 2841 928 2578 
Q 928 2378 1081 2264 
Q 1234 2150 1697 2047 
L 1894 2003 
Q 2506 1872 2764 1633 
Q 3022 1394 3022 966 
Q 3022 478 2636 193 
Q 2250 -91 1575 -91 
Q 1294 -91 989 -36 
Q 684 19 347 128 
L 347 722 
Q 666 556 975 473 
Q 1284 391 1588 391 
Q 1994 391 2212 530 
Q 2431 669 2431 922 
Q 2431 1156 2273 1281 
Q 2116 1406 1581 1522 
L 1381 1569 
Q 847 1681 609 1914 
Q 372 2147 372 2553 
Q 372 3047 722 3315 
Q 1072 3584 1716 3584 
Q 2034 3584 2315 3537 
Q 2597 3491 2834 3397 
z
" transform="scale(0.015625)"/>
      <path id="DejaVuSans-46" d="M 628 4666 
L 3309 4666 
L 3309 4134 
L 1259 4134 
L 1259 2759 
L 3109 2759 
L 3109 2228 
L 1259 2228 
L 1259 0 
L 628 0 
L 628 4666 
z
" transform="scale(0.015625)"/>
      <path id="DejaVuSans-63" d="M 3122 3366 
L 3122 2828 
Q 2878 2963 2633 3030 
Q 2388 3097 2138 3097 
Q 1578 3097 1268 2742 
Q 959 2388 959 1747 
Q 959 1106 1268 751 
Q 1578 397 2138 397 
Q 2388 397 2633 464 
Q 2878 531 3122 666 
L 3122 134 
Q 2881 22 2623 -34 
Q 2366 -91 2075 -91 
Q 1284 -91 818 406 
Q 353 903 353 1747 
Q 353 2603 823 3093 
Q 1294 3584 2113 3584 
Q 2378 3584 2631 3529 
Q 2884 3475 3122 3366 
z
" transform="scale(0.015625)"/>
      <path id="DejaVuSans-74" d="M 1172 4494 
L 1172 3500 
L 2356 3500 
L 2356 3053 
L 1172 3053 
L 1172 1153 
Q 1172 725 1289 603 
Q 1406 481 1766 481 
L 2356 481 
L 2356 0 
L 1766 0 
Q 1100 0 847 248 
Q 594 497 594 1153 
L 594 3053 
L 172 3053 
L 172 3500 
L 594 3500 
L 594 4494 
L 1172 4494 
z
" transform="scale(0.015625)"/>
      <path id="DejaVuSans-67" d="M 2906 1791 
Q 2906 2416 2648 2759 
Q 2391 3103 1925 3103 
Q 1463 3103 1205 2759 
Q 947 2416 947 1791 
Q 947 1169 1205 825 
Q 1463 481 1925 481 
Q 2391 481 2648 825 
Q 2906 1169 2906 1791 
z
M 3481 434 
Q 3481 -459 3084 -895 
Q 2688 -1331 1869 -1331 
Q 1566 -1331 1297 -1286 
Q 1028 -1241 775 -1147 
L 775 -588 
Q 1028 -725 1275 -790 
Q 1522 -856 1778 -856 
Q 2344 -856 2625 -561 
Q 2906 -266 2906 331 
L 2906 616 
Q 2728 306 2450 153 
Q 2172 0 1784 0 
Q 1141 0 747 490 
Q 353 981 353 1791 
Q 353 2603 747 3093 
Q 1141 3584 1784 3584 
Q 2172 3584 2450 3431 
Q 2728 3278 2906 2969 
L 2906 3500 
L 3481 3500 
L 3481 434 
z
" transform="scale(0.015625)"/>
      <path id="DejaVuSans-45" d="M 628 4666 
L 3578 4666 
L 3578 4134 
L 1259 4134 
L 1259 2753 
L 3481 2753 
L 3481 2222 
L 1259 2222 
L 1259 531 
L 3634 531 
L 3634 0 
L 628 0 
L 628 4666 
z
" transform="scale(0.015625)"/>
      <path id="DejaVuSans-75" d="M 544 1381 
L 544 3500 
L 1119 3500 
L 1119 1403 
Q 1119 906 1312 657 
Q 1506 409 1894 409 
Q 2359 409 2629 706 
Q 2900 1003 2900 1516 
L 2900 3500 
L 3475 3500 
L 3475 0 
L 2900 0 
L 2900 538 
Q 2691 219 2414 64 
Q 2138 -91 1772 -91 
Q 1169 -91 856 284 
Q 544 659 544 1381 
z
M 1991 3584 
L 1991 3584 
z
" transform="scale(0.015625)"/>
     </defs>
     <use xlink:href="#DejaVuSans-44"/>
     <use xlink:href="#DejaVuSans-61" x="77.001953"/>
     <use xlink:href="#DejaVuSans-69" x="138.28125"/>
     <use xlink:href="#DejaVuSans-6c" x="166.064453"/>
     <use xlink:href="#DejaVuSans-79" x="193.847656"/>
     <use xlink:href="#DejaVuSans-20" x="253.027344"/>
     <use xlink:href="#DejaVuSans-43" x="284.814453"/>
     <use xlink:href="#DejaVuSans-6f" x="354.638672"/>
     <use xlink:href="#DejaVuSans-6e" x="415.820312"/>
     <use xlink:href="#DejaVuSans-66" x="479.199219"/>
     <use xlink:href="#DejaVuSans-69" x="514.404297"/>
     <use xlink:href="#DejaVuSans-72" x="542.1875"/>
     <use xlink:href="#DejaVuSans-6d" x="581.550781"/>
     <use xlink:href="#DejaVuSans-65" x="678.962891"/>
     <use xlink:href="#DejaVuSans-64" x="740.486328"/>
     <use xlink:href="#DejaVuSans-20" x="803.962891"/>
     <use xlink:href="#DejaVuSans-43" x="835.75"/>
     <use xlink:href="#DejaVuSans-61" x="905.574219"/>
     <use xlink:href="#DejaVuSans-73" x="966.853516"/>
     <use xlink:href="#DejaVuSans-65" x="1018.953125"/>
     <use xlink:href="#DejaVuSans-73" x="1080.476562"/>
     <use xlink:href="#DejaVuSans-20" x="1132.576172"/>
     <use xlink:href="#DejaVuSans-46" x="1164.363281"/>
     <use xlink:href="#DejaVuSans-6f" x="1218.257812"/>
     <use xlink:href="#DejaVuSans-72" x="1279.439453"/>
     <use xlink:href="#DejaVuSans-65" x="1318.302734"/>
     <use xlink:href="#DejaVuSans-63" x="1379.826172"/>
     <use xlink:href="#DejaVuSans-61" x="1434.806641"/>
     <use xlink:href="#DejaVuSans-73" x="1496.085938"/>
     <use xlink:href="#DejaVuSans-74" x="1548.185547"/>
     <use xlink:href="#DejaVuSans-69" x="1587.394531"/>
     <use xlink:href="#DejaVuSans-6e" x="1615.177734"/>
     <use xlink:href="#DejaVuSans-67" x="1678.556641"/>
     <use xlink:href="#DejaVuSans-20" x="1742.033203"/>
     <use xlink:href="#DejaVuSans-2d" x="1773.820312"/>
     <use xlink:href="#DejaVuSans-20" x="1809.904297"/>
     <use xlink:href="#DejaVuSans-45" x="1841.691406"/>
     <use xlink:href="#DejaVuSans-63" x="1904.875"/>
     <use xlink:href="#DejaVuSans-75" x="1959.855469"/>
     <use xlink:href="#DejaVuSans-61" x="2023.234375"/>
     <use xlink:href="#DejaVuSans-64" x="2084.513672"/>
     <use xlink:href="#DejaVuSans-6f" x="2147.990234"/>
     <use xlink:href="#DejaVuSans-72" x="2209.171875"/>
    </g>
    <!-- ARIMA (0, 1, 1)x(1, 0, 0, 7) (R2 = 0.459598) -->
    <g transform="translate(585.645625 29.7555)scale(0.12 -0.12)">
     <defs>
      <path id="DejaVuSans-41" d="M 2188 4044 
L 1331 1722 
L 3047 1722 
L 2188 4044 
z
M 1831 4666 
L 2547 4666 
L 4325 0 
L 3669 0 
L 3244 1197 
L 1141 1197 
L 716 0 
L 50 0 
L 1831 4666 
z
" transform="scale(0.015625)"/>
      <path id="DejaVuSans-52" d="M 2841 2188 
Q 3044 2119 3236 1894 
Q 3428 1669 3622 1275 
L 4263 0 
L 3584 0 
L 2988 1197 
Q 2756 1666 2539 1819 
Q 2322 1972 1947 1972 
L 1259 1972 
L 1259 0 
L 628 0 
L 628 4666 
L 2053 4666 
Q 2853 4666 3247 4331 
Q 3641 3997 3641 3322 
Q 3641 2881 3436 2590 
Q 3231 2300 2841 2188 
z
M 1259 4147 
L 1259 2491 
L 2053 2491 
Q 2509 2491 2742 2702 
Q 2975 2913 2975 3322 
Q 2975 3731 2742 3939 
Q 2509 4147 2053 4147 
L 1259 4147 
z
" transform="scale(0.015625)"/>
      <path id="DejaVuSans-49" d="M 628 4666 
L 1259 4666 
L 1259 0 
L 628 0 
L 628 4666 
z
" transform="scale(0.015625)"/>
      <path id="DejaVuSans-4d" d="M 628 4666 
L 1569 4666 
L 2759 1491 
L 3956 4666 
L 4897 4666 
L 4897 0 
L 4281 0 
L 4281 4097 
L 3078 897 
L 2444 897 
L 1241 4097 
L 1241 0 
L 628 0 
L 628 4666 
z
" transform="scale(0.015625)"/>
      <path id="DejaVuSans-28" d="M 1984 4856 
Q 1566 4138 1362 3434 
Q 1159 2731 1159 2009 
Q 1159 1288 1364 580 
Q 1569 -128 1984 -844 
L 1484 -844 
Q 1016 -109 783 600 
Q 550 1309 550 2009 
Q 550 2706 781 3412 
Q 1013 4119 1484 4856 
L 1984 4856 
z
" transform="scale(0.015625)"/>
      <path id="DejaVuSans-2c" d="M 750 794 
L 1409 794 
L 1409 256 
L 897 -744 
L 494 -744 
L 750 256 
L 750 794 
z
" transform="scale(0.015625)"/>
      <path id="DejaVuSans-29" d="M 513 4856 
L 1013 4856 
Q 1481 4119 1714 3412 
Q 1947 2706 1947 2009 
Q 1947 1309 1714 600 
Q 1481 -109 1013 -844 
L 513 -844 
Q 928 -128 1133 580 
Q 1338 1288 1338 2009 
Q 1338 2731 1133 3434 
Q 928 4138 513 4856 
z
" transform="scale(0.015625)"/>
      <path id="DejaVuSans-78" d="M 3513 3500 
L 2247 1797 
L 3578 0 
L 2900 0 
L 1881 1375 
L 863 0 
L 184 0 
L 1544 1831 
L 300 3500 
L 978 3500 
L 1906 2253 
L 2834 3500 
L 3513 3500 
z
" transform="scale(0.015625)"/>
      <path id="DejaVuSans-3d" d="M 678 2906 
L 4684 2906 
L 4684 2381 
L 678 2381 
L 678 2906 
z
M 678 1631 
L 4684 1631 
L 4684 1100 
L 678 1100 
L 678 1631 
z
" transform="scale(0.015625)"/>
      <path id="DejaVuSans-2e" d="M 684 794 
L 1344 794 
L 1344 0 
L 684 0 
L 684 794 
z
" transform="scale(0.015625)"/>
      <path id="DejaVuSans-39" d="M 703 97 
L 703 672 
Q 941 559 1184 500 
Q 1428 441 1663 441 
Q 2288 441 2617 861 
Q 2947 1281 2994 2138 
Q 2813 1869 2534 1725 
Q 2256 1581 1919 1581 
Q 1219 1581 811 2004 
Q 403 2428 403 3163 
Q 403 3881 828 4315 
Q 1253 4750 1959 4750 
Q 2769 4750 3195 4129 
Q 3622 3509 3622 2328 
Q 3622 1225 3098 567 
Q 2575 -91 1691 -91 
Q 1453 -91 1209 -44 
Q 966 3 703 97 
z
M 1959 2075 
Q 2384 2075 2632 2365 
Q 2881 2656 2881 3163 
Q 2881 3666 2632 3958 
Q 2384 4250 1959 4250 
Q 1534 4250 1286 3958 
Q 1038 3666 1038 3163 
Q 1038 2656 1286 2365 
Q 1534 2075 1959 2075 
z
" transform="scale(0.015625)"/>
      <path id="DejaVuSans-38" d="M 2034 2216 
Q 1584 2216 1326 1975 
Q 1069 1734 1069 1313 
Q 1069 891 1326 650 
Q 1584 409 2034 409 
Q 2484 409 2743 651 
Q 3003 894 3003 1313 
Q 3003 1734 2745 1975 
Q 2488 2216 2034 2216 
z
M 1403 2484 
Q 997 2584 770 2862 
Q 544 3141 544 3541 
Q 544 4100 942 4425 
Q 1341 4750 2034 4750 
Q 2731 4750 3128 4425 
Q 3525 4100 3525 3541 
Q 3525 3141 3298 2862 
Q 3072 2584 2669 2484 
Q 3125 2378 3379 2068 
Q 3634 1759 3634 1313 
Q 3634 634 3220 271 
Q 2806 -91 2034 -91 
Q 1263 -91 848 271 
Q 434 634 434 1313 
Q 434 1759 690 2068 
Q 947 2378 1403 2484 
z
M 1172 3481 
Q 1172 3119 1398 2916 
Q 1625 2713 2034 2713 
Q 2441 2713 2670 2916 
Q 2900 3119 2900 3481 
Q 2900 3844 2670 4047 
Q 2441 4250 2034 4250 
Q 1625 4250 1398 4047 
Q 1172 3844 1172 3481 
z
" transform="scale(0.015625)"/>
     </defs>
     <use xlink:href="#DejaVuSans-41"/>
     <use xlink:href="#DejaVuSans-52" x="68.408203"/>
     <use xlink:href="#DejaVuSans-49" x="137.890625"/>
     <use xlink:href="#DejaVuSans-4d" x="167.382812"/>
     <use xlink:href="#DejaVuSans-41" x="253.662109"/>
     <use xlink:href="#DejaVuSans-20" x="322.070312"/>
     <use xlink:href="#DejaVuSans-28" x="353.857422"/>
     <use xlink:href="#DejaVuSans-30" x="392.871094"/>
     <use xlink:href="#DejaVuSans-2c" x="456.494141"/>
     <use xlink:href="#DejaVuSans-20" x="488.28125"/>
     <use xlink:href="#DejaVuSans-31" x="520.068359"/>
     <use xlink:href="#DejaVuSans-2c" x="583.691406"/>
     <use xlink:href="#DejaVuSans-20" x="615.478516"/>
     <use xlink:href="#DejaVuSans-31" x="647.265625"/>
     <use xlink:href="#DejaVuSans-29" x="710.888672"/>
     <use xlink:href="#DejaVuSans-78" x="749.902344"/>
     <use xlink:href="#DejaVuSans-28" x="809.082031"/>
     <use xlink:href="#DejaVuSans-31" x="848.095703"/>
     <use xlink:href="#DejaVuSans-2c" x="911.71875"/>
     <use xlink:href="#DejaVuSans-20" x="943.505859"/>
     <use xlink:href="#DejaVuSans-30" x="975.292969"/>
     <use xlink:href="#DejaVuSans-2c" x="1038.916016"/>
     <use xlink:href="#DejaVuSans-20" x="1070.703125"/>
     <use xlink:href="#DejaVuSans-30" x="1102.490234"/>
     <use xlink:href="#DejaVuSans-2c" x="1166.113281"/>
     <use xlink:href="#DejaVuSans-20" x="1197.900391"/>
     <use xlink:href="#DejaVuSans-37" x="1229.6875"/>
     <use xlink:href="#DejaVuSans-29" x="1293.310547"/>
     <use xlink:href="#DejaVuSans-20" x="1332.324219"/>
     <use xlink:href="#DejaVuSans-28" x="1364.111328"/>
     <use xlink:href="#DejaVuSans-52" x="1403.125"/>
     <use xlink:href="#DejaVuSans-32" x="1472.607422"/>
     <use xlink:href="#DejaVuSans-20" x="1536.230469"/>
     <use xlink:href="#DejaVuSans-3d" x="1568.017578"/>
     <use xlink:href="#DejaVuSans-20" x="1651.806641"/>
     <use xlink:href="#DejaVuSans-30" x="1683.59375"/>
     <use xlink:href="#DejaVuSans-2e" x="1747.216797"/>
     <use xlink:href="#DejaVuSans-34" x="1779.003906"/>
     <use xlink:href="#DejaVuSans-35" x="1842.626953"/>
     <use xlink:href="#DejaVuSans-39" x="1906.25"/>
     <use xlink:href="#DejaVuSans-35" x="1969.873047"/>
     <use xlink:href="#DejaVuSans-39" x="2033.496094"/>
     <use xlink:href="#DejaVuSans-38" x="2097.119141"/>
     <use xlink:href="#DejaVuSans-29" x="2160.742188"/>
    </g>
   </g>
   <g id="legend_1">
    <g id="patch_7">
     <path d="M 1283.15 87.789875 
L 1380.229688 87.789875 
Q 1382.229688 87.789875 1382.229688 85.789875 
L 1382.229688 42.7555 
Q 1382.229688 40.7555 1380.229688 40.7555 
L 1283.15 40.7555 
Q 1281.15 40.7555 1281.15 42.7555 
L 1281.15 85.789875 
Q 1281.15 87.789875 1283.15 87.789875 
z
" style="fill: #ffffff; opacity: 0.8; stroke: #cccccc; stroke-linejoin: miter"/>
    </g>
    <g id="line2d_20">
     <path d="M 1285.15 48.853937 
L 1295.15 48.853937 
L 1305.15 48.853937 
" style="fill: none; stroke: #0000ff; stroke-width: 1.5; stroke-linecap: square"/>
    </g>
    <g id="text_18">
     <!-- Actual Value -->
     <g transform="translate(1313.15 52.353937)scale(0.1 -0.1)">
      <defs>
       <path id="DejaVuSans-56" d="M 1831 0 
L 50 4666 
L 709 4666 
L 2188 738 
L 3669 4666 
L 4325 4666 
L 2547 0 
L 1831 0 
z
" transform="scale(0.015625)"/>
      </defs>
      <use xlink:href="#DejaVuSans-41"/>
      <use xlink:href="#DejaVuSans-63" x="66.658203"/>
      <use xlink:href="#DejaVuSans-74" x="121.638672"/>
      <use xlink:href="#DejaVuSans-75" x="160.847656"/>
      <use xlink:href="#DejaVuSans-61" x="224.226562"/>
      <use xlink:href="#DejaVuSans-6c" x="285.505859"/>
      <use xlink:href="#DejaVuSans-20" x="313.289062"/>
      <use xlink:href="#DejaVuSans-56" x="345.076172"/>
      <use xlink:href="#DejaVuSans-61" x="405.734375"/>
      <use xlink:href="#DejaVuSans-6c" x="467.013672"/>
      <use xlink:href="#DejaVuSans-75" x="494.796875"/>
      <use xlink:href="#DejaVuSans-65" x="558.175781"/>
     </g>
    </g>
    <g id="line2d_21">
     <path d="M 1285.15 63.532062 
L 1295.15 63.532062 
L 1305.15 63.532062 
" style="fill: none; stroke: #ffa500; stroke-width: 1.5; stroke-linecap: square"/>
    </g>
    <g id="text_19">
     <!-- Check Value -->
     <g transform="translate(1313.15 67.032062)scale(0.1 -0.1)">
      <defs>
       <path id="DejaVuSans-68" d="M 3513 2113 
L 3513 0 
L 2938 0 
L 2938 2094 
Q 2938 2591 2744 2837 
Q 2550 3084 2163 3084 
Q 1697 3084 1428 2787 
Q 1159 2491 1159 1978 
L 1159 0 
L 581 0 
L 581 4863 
L 1159 4863 
L 1159 2956 
Q 1366 3272 1645 3428 
Q 1925 3584 2291 3584 
Q 2894 3584 3203 3211 
Q 3513 2838 3513 2113 
z
" transform="scale(0.015625)"/>
       <path id="DejaVuSans-6b" d="M 581 4863 
L 1159 4863 
L 1159 1991 
L 2875 3500 
L 3609 3500 
L 1753 1863 
L 3688 0 
L 2938 0 
L 1159 1709 
L 1159 0 
L 581 0 
L 581 4863 
z
" transform="scale(0.015625)"/>
      </defs>
      <use xlink:href="#DejaVuSans-43"/>
      <use xlink:href="#DejaVuSans-68" x="69.824219"/>
      <use xlink:href="#DejaVuSans-65" x="133.203125"/>
      <use xlink:href="#DejaVuSans-63" x="194.726562"/>
      <use xlink:href="#DejaVuSans-6b" x="249.707031"/>
      <use xlink:href="#DejaVuSans-20" x="307.617188"/>
      <use xlink:href="#DejaVuSans-56" x="339.404297"/>
      <use xlink:href="#DejaVuSans-61" x="400.0625"/>
      <use xlink:href="#DejaVuSans-6c" x="461.341797"/>
      <use xlink:href="#DejaVuSans-75" x="489.125"/>
      <use xlink:href="#DejaVuSans-65" x="552.503906"/>
     </g>
    </g>
    <g id="line2d_22">
     <path d="M 1285.15 78.210187 
L 1295.15 78.210187 
L 1305.15 78.210187 
" style="fill: none; stroke: #ff0000; stroke-width: 1.5; stroke-linecap: square"/>
    </g>
    <g id="text_20">
     <!-- Predict Value -->
     <g transform="translate(1313.15 81.710187)scale(0.1 -0.1)">
      <defs>
       <path id="DejaVuSans-50" d="M 1259 4147 
L 1259 2394 
L 2053 2394 
Q 2494 2394 2734 2622 
Q 2975 2850 2975 3272 
Q 2975 3691 2734 3919 
Q 2494 4147 2053 4147 
L 1259 4147 
z
M 628 4666 
L 2053 4666 
Q 2838 4666 3239 4311 
Q 3641 3956 3641 3272 
Q 3641 2581 3239 2228 
Q 2838 1875 2053 1875 
L 1259 1875 
L 1259 0 
L 628 0 
L 628 4666 
z
" transform="scale(0.015625)"/>
      </defs>
      <use xlink:href="#DejaVuSans-50"/>
      <use xlink:href="#DejaVuSans-72" x="58.552734"/>
      <use xlink:href="#DejaVuSans-65" x="97.416016"/>
      <use xlink:href="#DejaVuSans-64" x="158.939453"/>
      <use xlink:href="#DejaVuSans-69" x="222.416016"/>
      <use xlink:href="#DejaVuSans-63" x="250.199219"/>
      <use xlink:href="#DejaVuSans-74" x="305.179688"/>
      <use xlink:href="#DejaVuSans-20" x="344.388672"/>
      <use xlink:href="#DejaVuSans-56" x="376.175781"/>
      <use xlink:href="#DejaVuSans-61" x="436.833984"/>
      <use xlink:href="#DejaVuSans-6c" x="498.113281"/>
      <use xlink:href="#DejaVuSans-75" x="525.896484"/>
      <use xlink:href="#DejaVuSans-65" x="589.275391"/>
     </g>
    </g>
   </g>
  </g>
 </g>
 <defs>
  <clipPath id="p42c6ea0cce">
   <rect x="48.029688" y="35.7555" width="1339.2" height="332.64"/>
  </clipPath>
 </defs>
</svg>
