<?xml version="1.0" encoding="utf-8" standalone="no"?>
<!DOCTYPE svg PUBLIC "-//W3C//DTD SVG 1.1//EN"
  "http://www.w3.org/Graphics/SVG/1.1/DTD/svg11.dtd">
<svg xmlns:xlink="http://www.w3.org/1999/xlink" width="1392.4125pt" height="392.273625pt" viewBox="0 0 1392.4125 392.273625" xmlns="http://www.w3.org/2000/svg" version="1.1">
 <metadata>
  <rdf:RDF xmlns:dc="http://purl.org/dc/elements/1.1/" xmlns:cc="http://creativecommons.org/ns#" xmlns:rdf="http://www.w3.org/1999/02/22-rdf-syntax-ns#">
   <cc:Work>
    <dc:type rdf:resource="http://purl.org/dc/dcmitype/StillImage"/>
    <dc:date>2022-07-15T20:13:38.417086</dc:date>
    <dc:format>image/svg+xml</dc:format>
    <dc:creator>
     <cc:Agent>
      <dc:title>Matplotlib v3.5.2, https://matplotlib.org/</dc:title>
     </cc:Agent>
    </dc:creator>
   </cc:Work>
  </rdf:RDF>
 </metadata>
 <defs>
  <style type="text/css">*{stroke-linejoin: round; stroke-linecap: butt}</style>
 </defs>
 <g id="figure_1">
  <g id="patch_1">
   <path d="M 0 392.273625 
L 1392.4125 392.273625 
L 1392.4125 0 
L 0 0 
z
" style="fill: #ffffff"/>
  </g>
  <g id="axes_1">
   <g id="patch_2">
    <path d="M 46.0125 368.3955 
L 1385.2125 368.3955 
L 1385.2125 35.7555 
L 46.0125 35.7555 
z
" style="fill: #ffffff"/>
   </g>
   <g id="matplotlib.axis_1">
    <g id="xtick_1">
     <g id="line2d_1">
      <defs>
       <path id="mcf66671d91" d="M 0 0 
L 0 3.5 
" style="stroke: #000000; stroke-width: 0.8"/>
      </defs>
      <g>
       <use xlink:href="#mcf66671d91" x="77.645053" y="368.3955" style="stroke: #000000; stroke-width: 0.8"/>
      </g>
     </g>
     <g id="text_1">
      <!-- 2020-01 -->
      <g transform="translate(56.753646 382.993937)scale(0.1 -0.1)">
       <defs>
        <path id="DejaVuSans-32" d="M 1228 531 
L 3431 531 
L 3431 0 
L 469 0 
L 469 531 
Q 828 903 1448 1529 
Q 2069 2156 2228 2338 
Q 2531 2678 2651 2914 
Q 2772 3150 2772 3378 
Q 2772 3750 2511 3984 
Q 2250 4219 1831 4219 
Q 1534 4219 1204 4116 
Q 875 4013 500 3803 
L 500 4441 
Q 881 4594 1212 4672 
Q 1544 4750 1819 4750 
Q 2544 4750 2975 4387 
Q 3406 4025 3406 3419 
Q 3406 3131 3298 2873 
Q 3191 2616 2906 2266 
Q 2828 2175 2409 1742 
Q 1991 1309 1228 531 
z
" transform="scale(0.015625)"/>
        <path id="DejaVuSans-30" d="M 2034 4250 
Q 1547 4250 1301 3770 
Q 1056 3291 1056 2328 
Q 1056 1369 1301 889 
Q 1547 409 2034 409 
Q 2525 409 2770 889 
Q 3016 1369 3016 2328 
Q 3016 3291 2770 3770 
Q 2525 4250 2034 4250 
z
M 2034 4750 
Q 2819 4750 3233 4129 
Q 3647 3509 3647 2328 
Q 3647 1150 3233 529 
Q 2819 -91 2034 -91 
Q 1250 -91 836 529 
Q 422 1150 422 2328 
Q 422 3509 836 4129 
Q 1250 4750 2034 4750 
z
" transform="scale(0.015625)"/>
        <path id="DejaVuSans-2d" d="M 313 2009 
L 1997 2009 
L 1997 1497 
L 313 1497 
L 313 2009 
z
" transform="scale(0.015625)"/>
        <path id="DejaVuSans-31" d="M 794 531 
L 1825 531 
L 1825 4091 
L 703 3866 
L 703 4441 
L 1819 4666 
L 2450 4666 
L 2450 531 
L 3481 531 
L 3481 0 
L 794 0 
L 794 531 
z
" transform="scale(0.015625)"/>
       </defs>
       <use xlink:href="#DejaVuSans-32"/>
       <use xlink:href="#DejaVuSans-30" x="63.623047"/>
       <use xlink:href="#DejaVuSans-32" x="127.246094"/>
       <use xlink:href="#DejaVuSans-30" x="190.869141"/>
       <use xlink:href="#DejaVuSans-2d" x="254.492188"/>
       <use xlink:href="#DejaVuSans-30" x="290.576172"/>
       <use xlink:href="#DejaVuSans-31" x="354.199219"/>
      </g>
     </g>
    </g>
    <g id="xtick_2">
     <g id="line2d_2">
      <g>
       <use xlink:href="#mcf66671d91" x="198.593048" y="368.3955" style="stroke: #000000; stroke-width: 0.8"/>
      </g>
     </g>
     <g id="text_2">
      <!-- 2020-04 -->
      <g transform="translate(177.701642 382.993937)scale(0.1 -0.1)">
       <defs>
        <path id="DejaVuSans-34" d="M 2419 4116 
L 825 1625 
L 2419 1625 
L 2419 4116 
z
M 2253 4666 
L 3047 4666 
L 3047 1625 
L 3713 1625 
L 3713 1100 
L 3047 1100 
L 3047 0 
L 2419 0 
L 2419 1100 
L 313 1100 
L 313 1709 
L 2253 4666 
z
" transform="scale(0.015625)"/>
       </defs>
       <use xlink:href="#DejaVuSans-32"/>
       <use xlink:href="#DejaVuSans-30" x="63.623047"/>
       <use xlink:href="#DejaVuSans-32" x="127.246094"/>
       <use xlink:href="#DejaVuSans-30" x="190.869141"/>
       <use xlink:href="#DejaVuSans-2d" x="254.492188"/>
       <use xlink:href="#DejaVuSans-30" x="290.576172"/>
       <use xlink:href="#DejaVuSans-34" x="354.199219"/>
      </g>
     </g>
    </g>
    <g id="xtick_3">
     <g id="line2d_3">
      <g>
       <use xlink:href="#mcf66671d91" x="319.541043" y="368.3955" style="stroke: #000000; stroke-width: 0.8"/>
      </g>
     </g>
     <g id="text_3">
      <!-- 2020-07 -->
      <g transform="translate(298.649637 382.993937)scale(0.1 -0.1)">
       <defs>
        <path id="DejaVuSans-37" d="M 525 4666 
L 3525 4666 
L 3525 4397 
L 1831 0 
L 1172 0 
L 2766 4134 
L 525 4134 
L 525 4666 
z
" transform="scale(0.015625)"/>
       </defs>
       <use xlink:href="#DejaVuSans-32"/>
       <use xlink:href="#DejaVuSans-30" x="63.623047"/>
       <use xlink:href="#DejaVuSans-32" x="127.246094"/>
       <use xlink:href="#DejaVuSans-30" x="190.869141"/>
       <use xlink:href="#DejaVuSans-2d" x="254.492188"/>
       <use xlink:href="#DejaVuSans-30" x="290.576172"/>
       <use xlink:href="#DejaVuSans-37" x="354.199219"/>
      </g>
     </g>
    </g>
    <g id="xtick_4">
     <g id="line2d_4">
      <g>
       <use xlink:href="#mcf66671d91" x="441.818137" y="368.3955" style="stroke: #000000; stroke-width: 0.8"/>
      </g>
     </g>
     <g id="text_4">
      <!-- 2020-10 -->
      <g transform="translate(420.926731 382.993937)scale(0.1 -0.1)">
       <use xlink:href="#DejaVuSans-32"/>
       <use xlink:href="#DejaVuSans-30" x="63.623047"/>
       <use xlink:href="#DejaVuSans-32" x="127.246094"/>
       <use xlink:href="#DejaVuSans-30" x="190.869141"/>
       <use xlink:href="#DejaVuSans-2d" x="254.492188"/>
       <use xlink:href="#DejaVuSans-31" x="290.576172"/>
       <use xlink:href="#DejaVuSans-30" x="354.199219"/>
      </g>
     </g>
    </g>
    <g id="xtick_5">
     <g id="line2d_5">
      <g>
       <use xlink:href="#mcf66671d91" x="564.095231" y="368.3955" style="stroke: #000000; stroke-width: 0.8"/>
      </g>
     </g>
     <g id="text_5">
      <!-- 2021-01 -->
      <g transform="translate(543.203825 382.993937)scale(0.1 -0.1)">
       <use xlink:href="#DejaVuSans-32"/>
       <use xlink:href="#DejaVuSans-30" x="63.623047"/>
       <use xlink:href="#DejaVuSans-32" x="127.246094"/>
       <use xlink:href="#DejaVuSans-31" x="190.869141"/>
       <use xlink:href="#DejaVuSans-2d" x="254.492188"/>
       <use xlink:href="#DejaVuSans-30" x="290.576172"/>
       <use xlink:href="#DejaVuSans-31" x="354.199219"/>
      </g>
     </g>
    </g>
    <g id="xtick_6">
     <g id="line2d_6">
      <g>
       <use xlink:href="#mcf66671d91" x="683.714128" y="368.3955" style="stroke: #000000; stroke-width: 0.8"/>
      </g>
     </g>
     <g id="text_6">
      <!-- 2021-04 -->
      <g transform="translate(662.822721 382.993937)scale(0.1 -0.1)">
       <use xlink:href="#DejaVuSans-32"/>
       <use xlink:href="#DejaVuSans-30" x="63.623047"/>
       <use xlink:href="#DejaVuSans-32" x="127.246094"/>
       <use xlink:href="#DejaVuSans-31" x="190.869141"/>
       <use xlink:href="#DejaVuSans-2d" x="254.492188"/>
       <use xlink:href="#DejaVuSans-30" x="290.576172"/>
       <use xlink:href="#DejaVuSans-34" x="354.199219"/>
      </g>
     </g>
    </g>
    <g id="xtick_7">
     <g id="line2d_7">
      <g>
       <use xlink:href="#mcf66671d91" x="804.662123" y="368.3955" style="stroke: #000000; stroke-width: 0.8"/>
      </g>
     </g>
     <g id="text_7">
      <!-- 2021-07 -->
      <g transform="translate(783.770717 382.993937)scale(0.1 -0.1)">
       <use xlink:href="#DejaVuSans-32"/>
       <use xlink:href="#DejaVuSans-30" x="63.623047"/>
       <use xlink:href="#DejaVuSans-32" x="127.246094"/>
       <use xlink:href="#DejaVuSans-31" x="190.869141"/>
       <use xlink:href="#DejaVuSans-2d" x="254.492188"/>
       <use xlink:href="#DejaVuSans-30" x="290.576172"/>
       <use xlink:href="#DejaVuSans-37" x="354.199219"/>
      </g>
     </g>
    </g>
    <g id="xtick_8">
     <g id="line2d_8">
      <g>
       <use xlink:href="#mcf66671d91" x="926.939217" y="368.3955" style="stroke: #000000; stroke-width: 0.8"/>
      </g>
     </g>
     <g id="text_8">
      <!-- 2021-10 -->
      <g transform="translate(906.047811 382.993937)scale(0.1 -0.1)">
       <use xlink:href="#DejaVuSans-32"/>
       <use xlink:href="#DejaVuSans-30" x="63.623047"/>
       <use xlink:href="#DejaVuSans-32" x="127.246094"/>
       <use xlink:href="#DejaVuSans-31" x="190.869141"/>
       <use xlink:href="#DejaVuSans-2d" x="254.492188"/>
       <use xlink:href="#DejaVuSans-31" x="290.576172"/>
       <use xlink:href="#DejaVuSans-30" x="354.199219"/>
      </g>
     </g>
    </g>
    <g id="xtick_9">
     <g id="line2d_9">
      <g>
       <use xlink:href="#mcf66671d91" x="1049.216311" y="368.3955" style="stroke: #000000; stroke-width: 0.8"/>
      </g>
     </g>
     <g id="text_9">
      <!-- 2022-01 -->
      <g transform="translate(1028.324905 382.993937)scale(0.1 -0.1)">
       <use xlink:href="#DejaVuSans-32"/>
       <use xlink:href="#DejaVuSans-30" x="63.623047"/>
       <use xlink:href="#DejaVuSans-32" x="127.246094"/>
       <use xlink:href="#DejaVuSans-32" x="190.869141"/>
       <use xlink:href="#DejaVuSans-2d" x="254.492188"/>
       <use xlink:href="#DejaVuSans-30" x="290.576172"/>
       <use xlink:href="#DejaVuSans-31" x="354.199219"/>
      </g>
     </g>
    </g>
    <g id="xtick_10">
     <g id="line2d_10">
      <g>
       <use xlink:href="#mcf66671d91" x="1168.835207" y="368.3955" style="stroke: #000000; stroke-width: 0.8"/>
      </g>
     </g>
     <g id="text_10">
      <!-- 2022-04 -->
      <g transform="translate(1147.943801 382.993937)scale(0.1 -0.1)">
       <use xlink:href="#DejaVuSans-32"/>
       <use xlink:href="#DejaVuSans-30" x="63.623047"/>
       <use xlink:href="#DejaVuSans-32" x="127.246094"/>
       <use xlink:href="#DejaVuSans-32" x="190.869141"/>
       <use xlink:href="#DejaVuSans-2d" x="254.492188"/>
       <use xlink:href="#DejaVuSans-30" x="290.576172"/>
       <use xlink:href="#DejaVuSans-34" x="354.199219"/>
      </g>
     </g>
    </g>
    <g id="xtick_11">
     <g id="line2d_11">
      <g>
       <use xlink:href="#mcf66671d91" x="1289.783203" y="368.3955" style="stroke: #000000; stroke-width: 0.8"/>
      </g>
     </g>
     <g id="text_11">
      <!-- 2022-07 -->
      <g transform="translate(1268.891796 382.993937)scale(0.1 -0.1)">
       <use xlink:href="#DejaVuSans-32"/>
       <use xlink:href="#DejaVuSans-30" x="63.623047"/>
       <use xlink:href="#DejaVuSans-32" x="127.246094"/>
       <use xlink:href="#DejaVuSans-32" x="190.869141"/>
       <use xlink:href="#DejaVuSans-2d" x="254.492188"/>
       <use xlink:href="#DejaVuSans-30" x="290.576172"/>
       <use xlink:href="#DejaVuSans-37" x="354.199219"/>
      </g>
     </g>
    </g>
   </g>
   <g id="matplotlib.axis_2">
    <g id="ytick_1">
     <g id="line2d_12">
      <defs>
       <path id="mdb107f9457" d="M 0 0 
L -3.5 0 
" style="stroke: #000000; stroke-width: 0.8"/>
      </defs>
      <g>
       <use xlink:href="#mdb107f9457" x="46.0125" y="341.610451" style="stroke: #000000; stroke-width: 0.8"/>
      </g>
     </g>
     <g id="text_12">
      <!-- 0 -->
      <g transform="translate(32.65 345.409669)scale(0.1 -0.1)">
       <use xlink:href="#DejaVuSans-30"/>
      </g>
     </g>
    </g>
    <g id="ytick_2">
     <g id="line2d_13">
      <g>
       <use xlink:href="#mdb107f9457" x="46.0125" y="267.902168" style="stroke: #000000; stroke-width: 0.8"/>
      </g>
     </g>
     <g id="text_13">
      <!-- 5000 -->
      <g transform="translate(13.5625 271.701387)scale(0.1 -0.1)">
       <defs>
        <path id="DejaVuSans-35" d="M 691 4666 
L 3169 4666 
L 3169 4134 
L 1269 4134 
L 1269 2991 
Q 1406 3038 1543 3061 
Q 1681 3084 1819 3084 
Q 2600 3084 3056 2656 
Q 3513 2228 3513 1497 
Q 3513 744 3044 326 
Q 2575 -91 1722 -91 
Q 1428 -91 1123 -41 
Q 819 9 494 109 
L 494 744 
Q 775 591 1075 516 
Q 1375 441 1709 441 
Q 2250 441 2565 725 
Q 2881 1009 2881 1497 
Q 2881 1984 2565 2268 
Q 2250 2553 1709 2553 
Q 1456 2553 1204 2497 
Q 953 2441 691 2322 
L 691 4666 
z
" transform="scale(0.015625)"/>
       </defs>
       <use xlink:href="#DejaVuSans-35"/>
       <use xlink:href="#DejaVuSans-30" x="63.623047"/>
       <use xlink:href="#DejaVuSans-30" x="127.246094"/>
       <use xlink:href="#DejaVuSans-30" x="190.869141"/>
      </g>
     </g>
    </g>
    <g id="ytick_3">
     <g id="line2d_14">
      <g>
       <use xlink:href="#mdb107f9457" x="46.0125" y="194.193885" style="stroke: #000000; stroke-width: 0.8"/>
      </g>
     </g>
     <g id="text_14">
      <!-- 10000 -->
      <g transform="translate(7.2 197.993104)scale(0.1 -0.1)">
       <use xlink:href="#DejaVuSans-31"/>
       <use xlink:href="#DejaVuSans-30" x="63.623047"/>
       <use xlink:href="#DejaVuSans-30" x="127.246094"/>
       <use xlink:href="#DejaVuSans-30" x="190.869141"/>
       <use xlink:href="#DejaVuSans-30" x="254.492188"/>
      </g>
     </g>
    </g>
    <g id="ytick_4">
     <g id="line2d_15">
      <g>
       <use xlink:href="#mdb107f9457" x="46.0125" y="120.485602" style="stroke: #000000; stroke-width: 0.8"/>
      </g>
     </g>
     <g id="text_15">
      <!-- 15000 -->
      <g transform="translate(7.2 124.284821)scale(0.1 -0.1)">
       <use xlink:href="#DejaVuSans-31"/>
       <use xlink:href="#DejaVuSans-35" x="63.623047"/>
       <use xlink:href="#DejaVuSans-30" x="127.246094"/>
       <use xlink:href="#DejaVuSans-30" x="190.869141"/>
       <use xlink:href="#DejaVuSans-30" x="254.492188"/>
      </g>
     </g>
    </g>
    <g id="ytick_5">
     <g id="line2d_16">
      <g>
       <use xlink:href="#mdb107f9457" x="46.0125" y="46.777319" style="stroke: #000000; stroke-width: 0.8"/>
      </g>
     </g>
     <g id="text_16">
      <!-- 20000 -->
      <g transform="translate(7.2 50.576538)scale(0.1 -0.1)">
       <use xlink:href="#DejaVuSans-32"/>
       <use xlink:href="#DejaVuSans-30" x="63.623047"/>
       <use xlink:href="#DejaVuSans-30" x="127.246094"/>
       <use xlink:href="#DejaVuSans-30" x="190.869141"/>
       <use xlink:href="#DejaVuSans-30" x="254.492188"/>
      </g>
     </g>
    </g>
   </g>
   <g id="line2d_17">
    <path d="M 106.885227 341.610451 
L 172.011071 341.566226 
L 173.34017 341.374584 
L 175.998367 341.507259 
L 182.643862 341.197684 
L 183.972961 340.681726 
L 185.302059 339.944643 
L 186.631158 341.138718 
L 187.960257 341.610451 
L 189.289356 340.165768 
L 190.618455 339.91516 
L 194.605751 339.91516 
L 195.93485 340.313185 
L 197.263949 338.780053 
L 198.593048 341.610451 
L 199.922147 339.605585 
L 201.251246 339.281269 
L 202.580344 338.691603 
L 203.909443 339.723519 
L 205.238542 338.853761 
L 206.567641 339.959385 
L 207.89674 339.413944 
L 209.225839 337.497528 
L 210.554937 338.30832 
L 211.884036 338.337803 
L 213.213135 337.77762 
L 215.871333 340.549051 
L 217.200432 340.106802 
L 218.529531 339.001177 
L 219.858629 337.703912 
L 221.187728 338.750569 
L 222.516827 340.681726 
L 223.845926 338.750569 
L 225.175025 338.794794 
L 226.504124 339.207561 
L 227.833223 336.524579 
L 229.162321 339.074886 
L 230.49142 338.662119 
L 231.820519 338.057711 
L 233.149618 338.04297 
L 234.478717 341.610451 
L 235.807816 336.347679 
L 237.136914 339.340236 
L 238.466013 338.839019 
L 239.795112 336.156038 
L 241.124211 341.610451 
L 242.45331 340.033093 
L 243.782409 336.804671 
L 245.111508 338.544186 
L 246.440606 339.590844 
L 247.769705 338.632636 
L 249.098804 338.485219 
L 250.427903 339.163336 
L 253.086101 339.148594 
L 254.415199 339.237044 
L 255.744298 339.045402 
L 257.073397 339.399202 
L 258.402496 338.942211 
L 259.731595 339.296011 
L 261.060694 339.841452 
L 262.389793 339.531877 
L 263.718891 339.988868 
L 265.04799 339.56136 
L 266.377089 339.384461 
L 267.706188 337.040537 
L 269.035287 336.465613 
L 270.364386 337.821845 
L 271.693485 337.718653 
L 273.022583 337.468045 
L 274.351682 335.669563 
L 275.680781 335.713788 
L 277.00988 334.431264 
L 278.338979 335.050413 
L 279.668078 336.097071 
L 280.997176 337.807103 
L 282.326275 334.033239 
L 283.655374 335.19783 
L 284.984473 335.433697 
L 286.313572 333.635214 
L 287.642671 335.404213 
L 288.97177 335.28628 
L 290.300868 336.023363 
L 291.629967 331.939924 
L 292.959066 331.335516 
L 294.288165 332.396915 
L 295.617264 329.109526 
L 296.946363 321.576539 
L 298.275461 341.551484 
L 299.60456 333.649956 
L 300.933659 332.249499 
L 302.262758 330.495242 
L 303.591857 328.003902 
L 304.920956 327.63536 
L 306.250055 329.699192 
L 307.579153 330.966975 
L 308.908252 333.32564 
L 310.237351 331.055425 
L 311.56645 326.765603 
L 312.895549 328.814693 
L 314.224648 330.509983 
L 315.553747 326.456028 
L 316.882845 325.40937 
L 318.211944 330.333083 
L 319.541043 328.151318 
L 320.870142 330.200408 
L 322.199241 330.436275 
L 323.52834 327.045694 
L 324.857438 324.421679 
L 326.186537 324.141588 
L 327.515636 327.502685 
L 330.173834 327.384752 
L 331.502933 326.264386 
L 332.832032 325.76317 
L 335.490229 318.9083 
L 336.819328 328.003902 
L 338.148427 324.701771 
L 339.477526 324.952379 
L 340.806625 326.352836 
L 342.135724 329.035818 
L 343.464822 323.817271 
L 346.12302 330.893266 
L 347.452119 330.509983 
L 348.781218 328.180802 
L 350.110317 324.274263 
L 351.439415 328.770468 
L 352.768514 320.500398 
L 354.097613 324.716512 
L 355.426712 330.097217 
L 356.755811 326.190678 
L 358.08491 328.018643 
L 359.414009 325.910586 
L 360.743107 324.996604 
L 362.072206 325.836878 
L 363.401305 326.824569 
L 364.730404 327.340527 
L 366.059503 329.713934 
L 367.388602 324.112104 
L 370.046799 325.527303 
L 371.375898 329.212717 
L 372.704997 328.313476 
L 374.034096 325.836878 
L 375.363195 328.151318 
L 376.692294 325.85162 
L 378.021392 327.517427 
L 379.350491 322.991738 
L 380.67959 322.814839 
L 382.008689 332.721232 
L 383.337788 337.969261 
L 384.666887 327.399494 
L 385.995986 340.121543 
L 387.325084 333.694181 
L 388.654183 325.571528 
L 389.983282 320.677298 
L 391.312381 332.986582 
L 392.64148 328.401926 
L 393.970579 331.276549 
L 395.299677 328.34296 
L 396.628776 332.146307 
L 397.957875 331.09965 
L 399.286974 330.878525 
L 400.616073 328.092352 
L 401.945172 333.207706 
L 403.274271 333.767889 
L 404.603369 329.374876 
L 405.932468 331.556641 
L 408.590666 330.731108 
L 409.919765 333.723664 
L 411.248864 329.389617 
L 412.577962 332.249499 
L 413.907061 331.689316 
L 415.23616 332.544332 
L 416.565259 331.129133 
L 417.894358 331.232324 
L 419.223457 334.84403 
L 420.552556 332.35269 
L 421.881654 332.26424 
L 423.210753 331.704057 
L 424.539852 330.686883 
L 425.868951 330.966975 
L 427.19805 332.735973 
L 428.527149 332.662265 
L 429.856248 334.622905 
L 431.185346 331.202841 
L 432.514445 330.760591 
L 435.172643 331.630349 
L 436.501742 335.02093 
L 437.830841 330.966975 
L 439.159939 333.119256 
L 440.489038 330.672141 
L 441.818137 330.598433 
L 443.147236 332.470624 
L 444.476335 331.423966 
L 445.805434 332.278982 
L 447.134533 332.278982 
L 448.463631 331.541899 
L 449.79273 331.320774 
L 451.121829 330.495242 
L 453.780027 329.448584 
L 455.109126 332.072599 
L 456.438224 334.401781 
L 457.767323 334.328072 
L 459.096422 329.345392 
L 460.425521 330.4805 
L 461.75462 332.544332 
L 463.083719 332.632782 
L 464.412818 332.205274 
L 465.741916 335.183088 
L 467.071015 333.384606 
L 468.400114 331.350258 
L 469.729213 329.935059 
L 471.058312 332.190532 
L 472.387411 332.043116 
L 473.71651 331.512416 
L 475.045608 333.487798 
L 476.374707 331.718799 
L 477.703806 329.448584 
L 479.032905 329.846609 
L 480.362004 329.492809 
L 481.691103 330.8343 
L 483.020201 330.731108 
L 484.3493 333.075032 
L 485.678399 331.630349 
L 487.007498 335.242055 
L 488.336597 333.605731 
L 489.665696 324.023654 
L 490.994795 330.613175 
L 492.323893 326.559219 
L 493.652992 329.758159 
L 494.982091 327.296302 
L 496.31119 324.465904 
L 497.640289 328.534601 
L 498.969388 325.026087 
L 500.298487 329.345392 
L 501.627585 321.797664 
L 502.956684 326.662411 
L 504.285783 326.072745 
L 505.614882 325.217729 
L 506.943981 323.09493 
L 508.27308 323.920463 
L 509.602178 322.623197 
L 510.931277 323.832013 
L 512.260376 328.711501 
L 513.589475 322.859064 
L 514.918574 317.994317 
L 516.247673 315.738843 
L 517.576772 320.131857 
L 518.90587 316.41696 
L 520.234969 322.800097 
L 521.564068 325.733687 
L 522.893167 319.424258 
L 524.222266 311.714371 
L 525.551365 313.896136 
L 526.880463 306.407375 
L 528.209562 307.704641 
L 529.538661 314.898569 
L 530.86776 319.335808 
L 532.196859 313.070604 
L 533.525958 314.913311 
L 534.855057 305.537617 
L 536.184155 306.893849 
L 537.513254 300.245362 
L 538.842353 305.906158 
L 540.171452 317.8469 
L 541.500551 306.702208 
L 542.82965 297.975147 
L 544.158749 292.255384 
L 545.487847 297.164356 
L 546.816946 293.346267 
L 548.146045 300.997187 
L 549.475144 316.564376 
L 550.804243 294.967849 
L 552.133342 296.515723 
L 553.46244 291.297177 
L 554.791539 297.591864 
L 556.120638 311.183672 
L 557.449737 302.795669 
L 558.778836 306.997041 
L 560.107935 274.182114 
L 561.437034 275.788954 
L 562.766132 281.965708 
L 564.095231 298.225755 
L 565.42433 311.670146 
L 566.753429 312.539904 
L 568.082528 304.844759 
L 569.411627 289.424986 
L 570.740725 265.16022 
L 572.069824 280.653701 
L 573.398923 283.439874 
L 574.728022 286.550363 
L 576.057121 305.876675 
L 577.38622 309.812697 
L 578.715319 286.476655 
L 581.373516 299.198705 
L 582.702615 307.601449 
L 584.031714 302.147036 
L 585.360813 315.812552 
L 586.689912 321.827148 
L 588.019011 309.576831 
L 589.348109 308.544915 
L 590.677208 312.495679 
L 592.006307 311.52273 
L 593.335406 311.272121 
L 594.664505 321.075323 
L 595.993604 328.136577 
L 597.322702 316.903434 
L 598.651801 318.525016 
L 599.9809 320.854198 
L 601.309999 320.308757 
L 602.639098 323.920463 
L 603.968197 327.959677 
L 605.297296 330.937491 
L 606.626394 325.424112 
L 607.955493 324.200554 
L 609.284592 325.291437 
L 610.613691 326.898277 
L 611.94279 327.207852 
L 613.271889 332.367432 
L 614.600987 333.310898 
L 615.930086 329.492809 
L 617.259185 328.475635 
L 618.588284 331.173358 
L 619.917383 328.195543 
L 622.575581 334.431264 
L 623.904679 334.239622 
L 625.233778 333.178223 
L 626.562877 334.180656 
L 627.891976 331.173358 
L 629.221075 328.69676 
L 630.550174 331.320774 
L 631.879273 334.475489 
L 633.208371 333.266673 
L 634.53747 331.025941 
L 635.866569 328.401926 
L 637.195668 331.556641 
L 638.524767 335.743271 
L 639.853866 331.821991 
L 641.182964 334.681872 
L 642.512063 334.165914 
L 643.841162 332.780198 
L 645.170261 330.966975 
L 646.49936 333.649956 
L 647.828459 334.799805 
L 649.157558 330.790075 
L 650.486656 336.347679 
L 651.815755 335.684305 
L 653.144854 333.900564 
L 654.473953 333.620473 
L 655.803052 334.622905 
L 657.132151 334.961964 
L 658.46125 335.492663 
L 659.790348 337.51227 
L 661.119447 338.13142 
L 662.448546 335.345247 
L 663.777645 335.124122 
L 665.106744 334.460747 
L 666.435843 331.070166 
L 667.764941 335.050413 
L 669.09404 336.804671 
L 670.423139 338.337803 
L 671.752238 334.917739 
L 673.081337 335.492663 
L 674.410436 334.283847 
L 675.739535 335.153605 
L 677.068633 334.534456 
L 678.397732 336.568804 
L 679.726831 337.984003 
L 681.05593 333.959531 
L 682.385029 335.02093 
L 683.714128 335.006189 
L 685.043226 336.436129 
L 686.372325 338.323061 
L 687.701424 337.128987 
L 689.030523 338.971694 
L 690.359622 336.347679 
L 691.688721 336.244488 
L 693.01782 335.315763 
L 694.346918 335.802238 
L 695.676017 337.497528 
L 698.334215 338.942211 
L 699.663314 336.760446 
L 700.992413 335.787496 
L 702.321512 336.98157 
L 703.65061 335.433697 
L 704.979709 336.480354 
L 706.308808 338.013486 
L 707.637907 338.617894 
L 708.967006 337.556495 
L 710.296105 336.318196 
L 711.625203 336.98157 
L 712.954302 336.215004 
L 714.283401 336.627771 
L 716.941599 338.691603 
L 718.270698 336.185521 
L 719.599797 336.273971 
L 720.928895 336.848896 
L 722.257994 336.332938 
L 723.587093 337.659687 
L 724.916192 337.77762 
L 726.245291 338.735828 
L 727.57439 336.893121 
L 730.232587 335.875946 
L 731.561686 335.743271 
L 732.890785 334.121689 
L 735.548983 337.895553 
L 736.878082 334.829289 
L 738.20718 333.32564 
L 739.536279 333.871081 
L 740.865378 332.942357 
L 742.194477 334.387039 
L 743.523576 336.539321 
L 744.852675 337.659687 
L 746.181774 333.664698 
L 747.510872 333.694181 
L 748.839971 333.075032 
L 750.16907 334.121689 
L 751.498169 334.740839 
L 754.156367 338.146161 
L 755.485465 333.045548 
L 756.814564 331.836732 
L 759.472762 332.514849 
L 760.801861 333.14874 
L 762.13096 336.480354 
L 763.460059 336.878379 
L 764.789157 330.8343 
L 766.118256 331.615608 
L 767.447355 331.276549 
L 768.776454 328.121835 
L 770.105553 329.419101 
L 771.434652 333.856339 
L 772.76375 336.067588 
L 774.092849 328.60831 
L 775.421948 330.1267 
L 776.751047 329.212717 
L 778.080146 328.107093 
L 779.409245 328.962109 
L 780.738344 331.070166 
L 782.067442 334.490231 
L 783.396541 329.109526 
L 784.72564 326.161195 
L 786.054739 327.325785 
L 788.712937 327.193111 
L 790.042036 333.016065 
L 791.371134 334.033239 
L 792.700233 323.80253 
L 794.029332 325.733687 
L 795.358431 323.905721 
L 796.68753 325.49782 
L 798.016629 326.02852 
L 799.345727 329.979284 
L 800.674826 331.792507 
L 802.003925 323.198122 
L 803.333024 323.964688 
L 804.662123 323.846755 
L 805.991222 326.426544 
L 807.320321 322.195689 
L 808.649419 329.920317 
L 809.978518 332.691748 
L 811.307617 322.800097 
L 812.636716 323.596146 
L 813.965815 323.330797 
L 815.294914 324.510129 
L 816.624013 326.559219 
L 817.953111 329.330651 
L 819.28221 330.524725 
L 820.611309 329.006334 
L 821.940408 319.247358 
L 823.269507 323.551921 
L 824.598606 325.58627 
L 825.927704 326.264386 
L 827.256803 330.981716 
L 828.585902 331.468191 
L 829.915001 325.556787 
L 831.2441 324.745996 
L 832.573199 323.18338 
L 833.902298 324.834445 
L 835.231396 325.453595 
L 836.560495 328.844176 
L 837.889594 334.313331 
L 839.218693 325.247212 
L 840.547792 327.325785 
L 841.876891 326.544478 
L 843.205989 328.121835 
L 844.535088 323.994171 
L 845.864187 329.522292 
L 847.193286 336.642512 
L 848.522385 327.871227 
L 849.851484 326.323353 
L 851.180583 329.551776 
L 852.509681 341.610451 
L 853.83878 316.299026 
L 855.167879 327.178369 
L 856.496978 333.900564 
L 857.826077 328.34296 
L 859.155176 327.207852 
L 860.484275 327.517427 
L 861.813373 330.436275 
L 863.142472 329.050559 
L 864.471571 333.310898 
L 865.80067 335.065155 
L 867.129769 331.939924 
L 868.458868 329.256942 
L 869.787966 328.903143 
L 871.117065 331.748282 
L 872.446164 331.423966 
L 873.775263 332.559074 
L 875.104362 335.890688 
L 876.433461 334.534456 
L 877.76256 328.873659 
L 879.091658 333.532023 
L 880.420757 332.043116 
L 881.749856 331.645091 
L 883.078955 334.785064 
L 884.408054 336.141296 
L 885.737153 334.976705 
L 887.066251 331.733541 
L 888.39535 334.519714 
L 889.724449 335.138863 
L 891.053548 335.094638 
L 892.382647 336.819412 
L 893.711746 341.610451 
L 895.040845 331.954666 
L 896.369943 336.745704 
L 897.699042 335.699046 
L 899.028141 336.303454 
L 900.35724 335.418955 
L 901.686339 341.610451 
L 903.015438 338.455736 
L 904.344537 338.323061 
L 905.673635 332.190532 
L 907.002734 336.111813 
L 908.331833 336.834154 
L 909.660932 337.851328 
L 910.990031 337.925037 
L 912.31913 339.369719 
L 913.648228 336.583546 
L 914.977327 336.215004 
L 916.306426 336.834154 
L 917.635525 337.703912 
L 918.964624 337.821845 
L 920.293723 338.883244 
L 921.622822 338.971694 
L 922.95192 338.190386 
L 924.281019 337.748137 
L 925.610118 337.748137 
L 926.939217 338.293578 
L 928.268316 338.264095 
L 930.926513 339.82671 
L 932.255612 337.880812 
L 933.584711 338.499961 
L 934.91381 338.367286 
L 936.242909 338.735828 
L 937.572008 338.323061 
L 938.901107 339.856194 
L 940.230205 340.018352 
L 941.559304 337.925037 
L 944.217502 341.610451 
L 945.546601 335.28628 
L 946.8757 341.610451 
L 948.204799 337.68917 
L 950.862996 341.610451 
L 952.192095 334.829289 
L 953.521194 338.588411 
L 954.850293 338.765311 
L 956.179392 339.399202 
L 957.50849 341.610451 
L 958.837589 337.68917 
L 960.166688 338.440994 
L 961.495787 339.060144 
L 962.824886 339.546619 
L 964.153985 338.647378 
L 965.483084 339.605585 
L 966.812182 339.694035 
L 968.141281 341.610451 
L 969.47038 338.470478 
L 970.799479 339.723519 
L 972.128578 340.372152 
L 973.457677 340.224735 
L 974.786776 339.841452 
L 977.444973 340.047835 
L 978.774072 341.610451 
L 980.103171 335.99388 
L 981.43227 340.151027 
L 982.761369 338.234611 
L 984.090467 338.337803 
L 985.419566 339.133852 
L 986.748665 341.610451 
L 988.077764 337.084762 
L 989.406863 338.101936 
L 990.735962 338.617894 
L 992.065061 341.610451 
L 993.394159 334.740839 
L 994.723258 339.222302 
L 996.052357 339.664552 
L 997.381456 338.455736 
L 998.710555 337.659687 
L 1000.039654 338.632636 
L 1001.368752 337.438562 
L 1002.697851 338.514703 
L 1004.02695 341.610451 
L 1005.356049 338.544186 
L 1008.014247 337.95452 
L 1009.343346 337.409079 
L 1010.672444 337.659687 
L 1012.001543 341.610451 
L 1013.330642 334.092206 
L 1014.659741 341.610451 
L 1015.98884 338.986436 
L 1017.317939 336.716221 
L 1018.647038 333.841598 
L 1019.976136 339.73826 
L 1021.305235 336.362421 
L 1022.634334 338.544186 
L 1023.963433 341.610451 
L 1025.292532 331.925182 
L 1026.621631 341.610451 
L 1027.950729 335.920171 
L 1029.279828 329.035818 
L 1030.608927 341.610451 
L 1031.938026 335.920171 
L 1034.596224 337.895553 
L 1035.925323 324.583837 
L 1037.254421 331.0112 
L 1038.58352 341.610451 
L 1039.912619 316.667568 
L 1041.241718 333.310898 
L 1042.570817 333.14874 
L 1043.899916 321.650248 
L 1045.229014 321.738698 
L 1046.558113 341.610451 
L 1047.887212 269.715392 
L 1049.216311 313.778203 
L 1050.54541 327.207852 
L 1051.874509 321.517573 
L 1053.203608 341.610451 
L 1054.532706 293.567392 
L 1055.861805 209.00925 
L 1057.190904 267.268277 
L 1058.520003 270.791533 
L 1059.849102 281.670875 
L 1061.178201 295.336391 
L 1062.5073 281.09595 
L 1063.836398 245.598041 
L 1065.165497 341.610451 
L 1066.494596 67.356672 
L 1067.823695 210.380224 
L 1069.152794 234.320674 
L 1070.481893 261.003073 
L 1071.810991 171.801309 
L 1073.14009 182.946001 
L 1074.469189 159.53625 
L 1075.798288 165.698263 
L 1077.127387 341.610451 
L 1078.456486 79.312156 
L 1079.785585 341.610451 
L 1081.114683 261.194714 
L 1082.443782 50.8755 
L 1083.772881 219.726434 
L 1085.10198 231.018543 
L 1086.431079 238.359888 
L 1087.760178 275.420413 
L 1089.089276 341.610451 
L 1090.418375 212.532506 
L 1091.747474 341.610451 
L 1093.076573 175.162406 
L 1094.405672 278.103394 
L 1095.734771 341.610451 
L 1097.06387 254.133461 
L 1098.392968 341.610451 
L 1099.722067 270.938949 
L 1101.051166 296.972715 
L 1102.380265 305.876675 
L 1103.709364 310.490814 
L 1105.038463 313.881395 
L 1106.367562 323.876238 
L 1107.69666 341.610451 
L 1109.025759 304.564668 
L 1110.354858 322.033531 
L 1111.683957 323.610888 
L 1113.013056 323.640371 
L 1114.342155 341.610451 
L 1115.671253 317.655259 
L 1117.000352 341.610451 
L 1118.329451 320.78049 
L 1119.65855 330.790075 
L 1120.987649 330.008767 
L 1123.645847 333.605731 
L 1124.974945 336.347679 
L 1126.304044 338.13142 
L 1127.633143 336.377163 
L 1128.962242 338.190386 
L 1130.291341 334.917739 
L 1131.62044 333.915306 
L 1132.949539 335.330505 
L 1134.278637 341.610451 
L 1135.607736 335.079897 
L 1136.936835 335.979138 
L 1138.265934 337.173212 
L 1139.595033 337.040537 
L 1140.924132 337.173212 
L 1142.25323 341.610451 
L 1143.582329 335.536888 
L 1144.911428 339.458169 
L 1146.240527 336.848896 
L 1147.569626 337.187954 
L 1148.898725 336.745704 
L 1150.227824 337.644945 
L 1151.556922 341.610451 
L 1152.886021 334.180656 
L 1154.21512 341.610451 
L 1155.544219 334.239622 
L 1156.873318 335.920171 
L 1162.189713 338.617894 
L 1163.518812 339.767744 
L 1164.847911 336.819412 
L 1167.506109 337.291145 
L 1168.835207 337.261662 
L 1170.164306 341.610451 
L 1171.493405 335.979138 
L 1172.822504 339.782485 
L 1174.151603 336.598287 
L 1175.480702 337.880812 
L 1176.809801 337.969261 
L 1178.138899 336.789929 
L 1179.467998 341.610451 
L 1180.797097 335.315763 
L 1182.126196 341.610451 
L 1183.455295 339.605585 
L 1184.784394 330.288858 
L 1186.113492 336.244488 
L 1187.442591 337.615462 
L 1188.77169 341.610451 
L 1190.100789 336.834154 
L 1191.429888 338.897986 
L 1192.758987 334.549197 
L 1194.088086 333.959531 
L 1195.417184 334.431264 
L 1196.746283 333.620473 
L 1198.075382 334.519714 
L 1199.404481 336.701479 
L 1200.73358 337.674428 
L 1202.062679 330.642658 
L 1203.391777 329.153751 
L 1204.720876 328.726243 
L 1206.049975 327.768035 
L 1207.379074 327.871227 
L 1208.708173 331.291291 
L 1210.037272 333.679439 
L 1211.366371 331.998891 
L 1212.695469 314.515286 
L 1214.024568 310.402364 
L 1215.353667 313.321212 
L 1216.682766 302.220744 
L 1218.011865 317.802675 
L 1219.340964 321.576539 
L 1220.670063 292.859792 
L 1221.999161 292.609184 
L 1223.32826 289.80827 
L 1224.657359 293.72955 
L 1225.986458 296.589432 
L 1227.315557 309.680023 
L 1228.644656 315.090211 
L 1229.973754 341.610451 
L 1231.302853 232.286326 
L 1232.631952 284.973006 
L 1233.961051 291.23821 
L 1235.29015 294.392925 
L 1236.619249 309.665281 
L 1237.948348 315.694618 
L 1239.277446 284.47179 
L 1240.606545 285.223614 
L 1241.935644 283.366166 
L 1243.264743 287.390638 
L 1244.593842 295.77864 
L 1245.922941 310.313914 
L 1247.252039 314.456319 
L 1248.581138 285.312064 
L 1249.910237 290.854927 
L 1251.239336 285.754314 
L 1252.568435 293.021951 
L 1253.897534 296.559948 
L 1255.226633 312.982154 
L 1256.555731 316.667568 
L 1257.88483 289.675595 
L 1259.213929 293.788517 
L 1260.543028 300.437004 
L 1261.872127 303.414819 
L 1263.201226 307.365582 
L 1264.530325 321.13429 
L 1265.859423 325.306179 
L 1267.188522 306.392633 
L 1268.517621 310.947805 
L 1269.84672 312.746287 
L 1271.175819 320.220307 
L 1272.504918 311.34583 
L 1273.834016 324.760737 
L 1275.163115 329.433842 
L 1276.492214 310.947805 
L 1277.821313 312.761029 
L 1279.150412 310.210722 
L 1280.479511 314.692186 
L 1281.80861 318.259667 
L 1283.137708 325.026087 
L 1284.466807 328.844176 
L 1285.795906 312.289296 
L 1287.125005 314.662702 
L 1288.454104 317.67 
L 1289.783203 317.640517 
L 1291.112302 341.610451 
L 1292.4414 308.23534 
L 1293.770499 341.610451 
L 1297.757796 341.610451 
L 1299.086895 231.696659 
L 1300.415993 341.610451 
L 1303.074191 341.610451 
L 1304.40329 251.966437 
L 1305.732389 341.610451 
L 1307.061488 341.610451 
L 1307.061488 341.610451 
" clip-path="url(#p72648f3ac4)" style="fill: none; stroke: #0000ff; stroke-width: 1.5; stroke-linecap: square"/>
   </g>
   <g id="line2d_18">
    <path d="M 1067.823695 294.567632 
L 1069.152794 188.803681 
L 1070.481893 245.97325 
L 1071.810991 213.423561 
L 1073.14009 242.782685 
L 1074.469189 127.210082 
L 1075.798288 176.397114 
L 1077.127387 150.257332 
L 1078.456486 233.591869 
L 1079.785585 203.445853 
L 1081.114683 136.319505 
L 1082.443782 271.043407 
L 1083.772881 180.961165 
L 1085.10198 200.497772 
L 1086.431079 186.825828 
L 1087.760178 249.165221 
L 1089.089276 215.423009 
L 1090.418375 211.672642 
L 1091.747474 234.588996 
L 1093.076573 253.667013 
L 1094.405672 328.8625 
L 1095.734771 231.689771 
L 1097.06387 345.64823 
L 1098.392968 283.448029 
L 1099.722067 292.085533 
L 1101.051166 270.990268 
L 1102.380265 287.313591 
L 1103.709364 321.522157 
L 1105.038463 311.026073 
L 1106.367562 332.90338 
L 1107.69666 301.670747 
L 1109.025759 330.98854 
L 1110.354858 313.430157 
L 1111.683957 325.065521 
L 1113.013056 332.959528 
L 1114.342155 330.695389 
L 1115.671253 344.46874 
L 1117.000352 327.427665 
L 1118.329451 328.451706 
L 1119.65855 332.052735 
L 1120.987649 331.225896 
L 1122.316748 339.194768 
L 1123.645847 330.753476 
L 1124.974945 340.431711 
L 1126.304044 328.622107 
L 1127.633143 336.86978 
L 1128.962242 333.290537 
L 1130.291341 339.35105 
L 1131.62044 339.720171 
L 1132.949539 338.616852 
L 1134.278637 339.853009 
L 1135.607736 337.458522 
L 1136.936835 340.304572 
L 1138.265934 335.343884 
L 1139.595033 337.128754 
L 1140.924132 336.947181 
L 1142.25323 339.110152 
L 1143.582329 338.630473 
L 1144.911428 338.77214 
L 1146.240527 337.187798 
L 1147.569626 339.337766 
L 1148.898725 337.580712 
L 1150.227824 339.300664 
L 1151.556922 337.185961 
L 1152.886021 339.10273 
L 1154.21512 337.894993 
L 1155.544219 337.121588 
L 1156.873318 339.042798 
L 1158.202417 336.242492 
L 1159.531515 338.936833 
L 1160.860614 335.826526 
L 1162.189713 338.20431 
L 1163.518812 335.507688 
L 1164.847911 337.642814 
L 1166.17701 337.2371 
L 1167.506109 337.951214 
L 1168.835207 338.379397 
L 1170.164306 337.647151 
L 1171.493405 339.222167 
L 1172.822504 338.46767 
L 1174.151603 336.974549 
L 1175.480702 338.403062 
L 1176.809801 337.434535 
L 1178.138899 339.698188 
L 1179.467998 337.122134 
L 1180.797097 338.884526 
L 1183.455295 337.108358 
L 1184.784394 340.284689 
L 1186.113492 337.975204 
L 1187.442591 336.704024 
L 1188.77169 336.190235 
L 1190.100789 338.449451 
L 1191.429888 338.399462 
L 1192.758987 335.162434 
L 1194.088086 336.993703 
L 1195.417184 336.228718 
L 1196.746283 338.722128 
L 1198.075382 335.249334 
L 1199.404481 335.421787 
L 1200.73358 333.38572 
L 1202.062679 334.424263 
L 1203.391777 334.363789 
L 1204.720876 332.499911 
L 1206.049975 332.810249 
L 1207.379074 331.729992 
L 1208.708173 330.927386 
L 1210.037272 327.371029 
L 1211.366371 327.554635 
L 1212.695469 329.769724 
L 1214.024568 329.197985 
L 1215.353667 322.077097 
L 1216.682766 322.240318 
L 1218.011865 318.912157 
L 1219.340964 311.567854 
L 1220.670063 312.672376 
L 1221.999161 307.605098 
L 1223.32826 298.70467 
L 1224.657359 296.354995 
L 1225.986458 296.743448 
L 1227.315557 297.750628 
L 1228.644656 289.772509 
L 1229.973754 288.978153 
L 1231.302853 304.559719 
L 1232.631952 309.514163 
L 1233.961051 272.303047 
L 1235.29015 302.301932 
L 1236.619249 293.279874 
L 1237.948348 303.55088 
L 1239.277446 275.211021 
L 1240.606545 289.923038 
L 1241.935644 284.353531 
L 1243.264743 300.00103 
L 1244.593842 293.925212 
L 1245.922941 299.727007 
L 1247.252039 292.685346 
L 1248.581138 290.478734 
L 1249.910237 292.866131 
L 1251.239336 290.554897 
L 1252.568435 298.356426 
L 1253.897534 299.615501 
L 1255.226633 303.283811 
L 1256.555731 291.484632 
L 1257.88483 298.178254 
L 1259.213929 297.106791 
L 1260.543028 295.497264 
L 1261.872127 300.281502 
L 1263.201226 308.716482 
L 1264.530325 310.120182 
L 1265.859423 300.906758 
L 1267.188522 307.159024 
L 1268.517621 310.740532 
L 1269.84672 311.670077 
L 1271.175819 315.283685 
L 1272.504918 322.652474 
L 1273.834016 325.639429 
L 1275.163115 313.025746 
L 1276.492214 319.661808 
L 1277.821313 320.217117 
L 1279.150412 320.181234 
L 1280.479511 317.214272 
L 1281.80861 319.794355 
L 1283.137708 321.890921 
L 1284.466807 315.181951 
L 1285.795906 317.556352 
L 1287.125005 317.869911 
L 1288.454104 317.122548 
L 1289.783203 319.152203 
L 1291.112302 320.884611 
L 1292.4414 327.081691 
L 1293.770499 323.719741 
L 1295.099598 312.554945 
L 1296.428697 329.860003 
L 1297.757796 331.109216 
L 1299.086895 353.2755 
L 1301.745092 300.375416 
L 1303.074191 337.850392 
L 1304.40329 335.55351 
L 1305.732389 322.52125 
L 1307.061488 260.511031 
L 1307.061488 260.511031 
" clip-path="url(#p72648f3ac4)" style="fill: none; stroke: #ffa500; stroke-width: 1.5; stroke-linecap: square"/>
   </g>
   <g id="line2d_19">
    <path d="M 1307.061488 260.511031 
L 1308.390587 338.157167 
L 1309.719685 318.094234 
L 1311.048784 315.040572 
L 1312.377883 300.502304 
L 1313.706982 318.688766 
L 1315.036081 321.919993 
L 1316.36518 290.268552 
L 1317.694278 319.115499 
L 1319.023377 315.446438 
L 1320.352476 314.830758 
L 1321.681575 301.219534 
L 1323.010674 316.082495 
L 1324.339773 316.283411 
" clip-path="url(#p72648f3ac4)" style="fill: none; stroke: #ff0000; stroke-width: 1.5; stroke-linecap: square"/>
   </g>
   <g id="patch_3">
    <path d="M 46.0125 368.3955 
L 46.0125 35.7555 
" style="fill: none; stroke: #000000; stroke-width: 0.8; stroke-linejoin: miter; stroke-linecap: square"/>
   </g>
   <g id="patch_4">
    <path d="M 1385.2125 368.3955 
L 1385.2125 35.7555 
" style="fill: none; stroke: #000000; stroke-width: 0.8; stroke-linejoin: miter; stroke-linecap: square"/>
   </g>
   <g id="patch_5">
    <path d="M 46.0125 368.3955 
L 1385.2125 368.3955 
" style="fill: none; stroke: #000000; stroke-width: 0.8; stroke-linejoin: miter; stroke-linecap: square"/>
   </g>
   <g id="patch_6">
    <path d="M 46.0125 35.7555 
L 1385.2125 35.7555 
" style="fill: none; stroke: #000000; stroke-width: 0.8; stroke-linejoin: miter; stroke-linecap: square"/>
   </g>
   <g id="text_17">
    <!-- Daily Confirmed Cases Forecasting - Panama -->
    <g transform="translate(581.086875 16.318125)scale(0.12 -0.12)">
     <defs>
      <path id="DejaVuSans-44" d="M 1259 4147 
L 1259 519 
L 2022 519 
Q 2988 519 3436 956 
Q 3884 1394 3884 2338 
Q 3884 3275 3436 3711 
Q 2988 4147 2022 4147 
L 1259 4147 
z
M 628 4666 
L 1925 4666 
Q 3281 4666 3915 4102 
Q 4550 3538 4550 2338 
Q 4550 1131 3912 565 
Q 3275 0 1925 0 
L 628 0 
L 628 4666 
z
" transform="scale(0.015625)"/>
      <path id="DejaVuSans-61" d="M 2194 1759 
Q 1497 1759 1228 1600 
Q 959 1441 959 1056 
Q 959 750 1161 570 
Q 1363 391 1709 391 
Q 2188 391 2477 730 
Q 2766 1069 2766 1631 
L 2766 1759 
L 2194 1759 
z
M 3341 1997 
L 3341 0 
L 2766 0 
L 2766 531 
Q 2569 213 2275 61 
Q 1981 -91 1556 -91 
Q 1019 -91 701 211 
Q 384 513 384 1019 
Q 384 1609 779 1909 
Q 1175 2209 1959 2209 
L 2766 2209 
L 2766 2266 
Q 2766 2663 2505 2880 
Q 2244 3097 1772 3097 
Q 1472 3097 1187 3025 
Q 903 2953 641 2809 
L 641 3341 
Q 956 3463 1253 3523 
Q 1550 3584 1831 3584 
Q 2591 3584 2966 3190 
Q 3341 2797 3341 1997 
z
" transform="scale(0.015625)"/>
      <path id="DejaVuSans-69" d="M 603 3500 
L 1178 3500 
L 1178 0 
L 603 0 
L 603 3500 
z
M 603 4863 
L 1178 4863 
L 1178 4134 
L 603 4134 
L 603 4863 
z
" transform="scale(0.015625)"/>
      <path id="DejaVuSans-6c" d="M 603 4863 
L 1178 4863 
L 1178 0 
L 603 0 
L 603 4863 
z
" transform="scale(0.015625)"/>
      <path id="DejaVuSans-79" d="M 2059 -325 
Q 1816 -950 1584 -1140 
Q 1353 -1331 966 -1331 
L 506 -1331 
L 506 -850 
L 844 -850 
Q 1081 -850 1212 -737 
Q 1344 -625 1503 -206 
L 1606 56 
L 191 3500 
L 800 3500 
L 1894 763 
L 2988 3500 
L 3597 3500 
L 2059 -325 
z
" transform="scale(0.015625)"/>
      <path id="DejaVuSans-20" transform="scale(0.015625)"/>
      <path id="DejaVuSans-43" d="M 4122 4306 
L 4122 3641 
Q 3803 3938 3442 4084 
Q 3081 4231 2675 4231 
Q 1875 4231 1450 3742 
Q 1025 3253 1025 2328 
Q 1025 1406 1450 917 
Q 1875 428 2675 428 
Q 3081 428 3442 575 
Q 3803 722 4122 1019 
L 4122 359 
Q 3791 134 3420 21 
Q 3050 -91 2638 -91 
Q 1578 -91 968 557 
Q 359 1206 359 2328 
Q 359 3453 968 4101 
Q 1578 4750 2638 4750 
Q 3056 4750 3426 4639 
Q 3797 4528 4122 4306 
z
" transform="scale(0.015625)"/>
      <path id="DejaVuSans-6f" d="M 1959 3097 
Q 1497 3097 1228 2736 
Q 959 2375 959 1747 
Q 959 1119 1226 758 
Q 1494 397 1959 397 
Q 2419 397 2687 759 
Q 2956 1122 2956 1747 
Q 2956 2369 2687 2733 
Q 2419 3097 1959 3097 
z
M 1959 3584 
Q 2709 3584 3137 3096 
Q 3566 2609 3566 1747 
Q 3566 888 3137 398 
Q 2709 -91 1959 -91 
Q 1206 -91 779 398 
Q 353 888 353 1747 
Q 353 2609 779 3096 
Q 1206 3584 1959 3584 
z
" transform="scale(0.015625)"/>
      <path id="DejaVuSans-6e" d="M 3513 2113 
L 3513 0 
L 2938 0 
L 2938 2094 
Q 2938 2591 2744 2837 
Q 2550 3084 2163 3084 
Q 1697 3084 1428 2787 
Q 1159 2491 1159 1978 
L 1159 0 
L 581 0 
L 581 3500 
L 1159 3500 
L 1159 2956 
Q 1366 3272 1645 3428 
Q 1925 3584 2291 3584 
Q 2894 3584 3203 3211 
Q 3513 2838 3513 2113 
z
" transform="scale(0.015625)"/>
      <path id="DejaVuSans-66" d="M 2375 4863 
L 2375 4384 
L 1825 4384 
Q 1516 4384 1395 4259 
Q 1275 4134 1275 3809 
L 1275 3500 
L 2222 3500 
L 2222 3053 
L 1275 3053 
L 1275 0 
L 697 0 
L 697 3053 
L 147 3053 
L 147 3500 
L 697 3500 
L 697 3744 
Q 697 4328 969 4595 
Q 1241 4863 1831 4863 
L 2375 4863 
z
" transform="scale(0.015625)"/>
      <path id="DejaVuSans-72" d="M 2631 2963 
Q 2534 3019 2420 3045 
Q 2306 3072 2169 3072 
Q 1681 3072 1420 2755 
Q 1159 2438 1159 1844 
L 1159 0 
L 581 0 
L 581 3500 
L 1159 3500 
L 1159 2956 
Q 1341 3275 1631 3429 
Q 1922 3584 2338 3584 
Q 2397 3584 2469 3576 
Q 2541 3569 2628 3553 
L 2631 2963 
z
" transform="scale(0.015625)"/>
      <path id="DejaVuSans-6d" d="M 3328 2828 
Q 3544 3216 3844 3400 
Q 4144 3584 4550 3584 
Q 5097 3584 5394 3201 
Q 5691 2819 5691 2113 
L 5691 0 
L 5113 0 
L 5113 2094 
Q 5113 2597 4934 2840 
Q 4756 3084 4391 3084 
Q 3944 3084 3684 2787 
Q 3425 2491 3425 1978 
L 3425 0 
L 2847 0 
L 2847 2094 
Q 2847 2600 2669 2842 
Q 2491 3084 2119 3084 
Q 1678 3084 1418 2786 
Q 1159 2488 1159 1978 
L 1159 0 
L 581 0 
L 581 3500 
L 1159 3500 
L 1159 2956 
Q 1356 3278 1631 3431 
Q 1906 3584 2284 3584 
Q 2666 3584 2933 3390 
Q 3200 3197 3328 2828 
z
" transform="scale(0.015625)"/>
      <path id="DejaVuSans-65" d="M 3597 1894 
L 3597 1613 
L 953 1613 
Q 991 1019 1311 708 
Q 1631 397 2203 397 
Q 2534 397 2845 478 
Q 3156 559 3463 722 
L 3463 178 
Q 3153 47 2828 -22 
Q 2503 -91 2169 -91 
Q 1331 -91 842 396 
Q 353 884 353 1716 
Q 353 2575 817 3079 
Q 1281 3584 2069 3584 
Q 2775 3584 3186 3129 
Q 3597 2675 3597 1894 
z
M 3022 2063 
Q 3016 2534 2758 2815 
Q 2500 3097 2075 3097 
Q 1594 3097 1305 2825 
Q 1016 2553 972 2059 
L 3022 2063 
z
" transform="scale(0.015625)"/>
      <path id="DejaVuSans-64" d="M 2906 2969 
L 2906 4863 
L 3481 4863 
L 3481 0 
L 2906 0 
L 2906 525 
Q 2725 213 2448 61 
Q 2172 -91 1784 -91 
Q 1150 -91 751 415 
Q 353 922 353 1747 
Q 353 2572 751 3078 
Q 1150 3584 1784 3584 
Q 2172 3584 2448 3432 
Q 2725 3281 2906 2969 
z
M 947 1747 
Q 947 1113 1208 752 
Q 1469 391 1925 391 
Q 2381 391 2643 752 
Q 2906 1113 2906 1747 
Q 2906 2381 2643 2742 
Q 2381 3103 1925 3103 
Q 1469 3103 1208 2742 
Q 947 2381 947 1747 
z
" transform="scale(0.015625)"/>
      <path id="DejaVuSans-73" d="M 2834 3397 
L 2834 2853 
Q 2591 2978 2328 3040 
Q 2066 3103 1784 3103 
Q 1356 3103 1142 2972 
Q 928 2841 928 2578 
Q 928 2378 1081 2264 
Q 1234 2150 1697 2047 
L 1894 2003 
Q 2506 1872 2764 1633 
Q 3022 1394 3022 966 
Q 3022 478 2636 193 
Q 2250 -91 1575 -91 
Q 1294 -91 989 -36 
Q 684 19 347 128 
L 347 722 
Q 666 556 975 473 
Q 1284 391 1588 391 
Q 1994 391 2212 530 
Q 2431 669 2431 922 
Q 2431 1156 2273 1281 
Q 2116 1406 1581 1522 
L 1381 1569 
Q 847 1681 609 1914 
Q 372 2147 372 2553 
Q 372 3047 722 3315 
Q 1072 3584 1716 3584 
Q 2034 3584 2315 3537 
Q 2597 3491 2834 3397 
z
" transform="scale(0.015625)"/>
      <path id="DejaVuSans-46" d="M 628 4666 
L 3309 4666 
L 3309 4134 
L 1259 4134 
L 1259 2759 
L 3109 2759 
L 3109 2228 
L 1259 2228 
L 1259 0 
L 628 0 
L 628 4666 
z
" transform="scale(0.015625)"/>
      <path id="DejaVuSans-63" d="M 3122 3366 
L 3122 2828 
Q 2878 2963 2633 3030 
Q 2388 3097 2138 3097 
Q 1578 3097 1268 2742 
Q 959 2388 959 1747 
Q 959 1106 1268 751 
Q 1578 397 2138 397 
Q 2388 397 2633 464 
Q 2878 531 3122 666 
L 3122 134 
Q 2881 22 2623 -34 
Q 2366 -91 2075 -91 
Q 1284 -91 818 406 
Q 353 903 353 1747 
Q 353 2603 823 3093 
Q 1294 3584 2113 3584 
Q 2378 3584 2631 3529 
Q 2884 3475 3122 3366 
z
" transform="scale(0.015625)"/>
      <path id="DejaVuSans-74" d="M 1172 4494 
L 1172 3500 
L 2356 3500 
L 2356 3053 
L 1172 3053 
L 1172 1153 
Q 1172 725 1289 603 
Q 1406 481 1766 481 
L 2356 481 
L 2356 0 
L 1766 0 
Q 1100 0 847 248 
Q 594 497 594 1153 
L 594 3053 
L 172 3053 
L 172 3500 
L 594 3500 
L 594 4494 
L 1172 4494 
z
" transform="scale(0.015625)"/>
      <path id="DejaVuSans-67" d="M 2906 1791 
Q 2906 2416 2648 2759 
Q 2391 3103 1925 3103 
Q 1463 3103 1205 2759 
Q 947 2416 947 1791 
Q 947 1169 1205 825 
Q 1463 481 1925 481 
Q 2391 481 2648 825 
Q 2906 1169 2906 1791 
z
M 3481 434 
Q 3481 -459 3084 -895 
Q 2688 -1331 1869 -1331 
Q 1566 -1331 1297 -1286 
Q 1028 -1241 775 -1147 
L 775 -588 
Q 1028 -725 1275 -790 
Q 1522 -856 1778 -856 
Q 2344 -856 2625 -561 
Q 2906 -266 2906 331 
L 2906 616 
Q 2728 306 2450 153 
Q 2172 0 1784 0 
Q 1141 0 747 490 
Q 353 981 353 1791 
Q 353 2603 747 3093 
Q 1141 3584 1784 3584 
Q 2172 3584 2450 3431 
Q 2728 3278 2906 2969 
L 2906 3500 
L 3481 3500 
L 3481 434 
z
" transform="scale(0.015625)"/>
      <path id="DejaVuSans-50" d="M 1259 4147 
L 1259 2394 
L 2053 2394 
Q 2494 2394 2734 2622 
Q 2975 2850 2975 3272 
Q 2975 3691 2734 3919 
Q 2494 4147 2053 4147 
L 1259 4147 
z
M 628 4666 
L 2053 4666 
Q 2838 4666 3239 4311 
Q 3641 3956 3641 3272 
Q 3641 2581 3239 2228 
Q 2838 1875 2053 1875 
L 1259 1875 
L 1259 0 
L 628 0 
L 628 4666 
z
" transform="scale(0.015625)"/>
     </defs>
     <use xlink:href="#DejaVuSans-44"/>
     <use xlink:href="#DejaVuSans-61" x="77.001953"/>
     <use xlink:href="#DejaVuSans-69" x="138.28125"/>
     <use xlink:href="#DejaVuSans-6c" x="166.064453"/>
     <use xlink:href="#DejaVuSans-79" x="193.847656"/>
     <use xlink:href="#DejaVuSans-20" x="253.027344"/>
     <use xlink:href="#DejaVuSans-43" x="284.814453"/>
     <use xlink:href="#DejaVuSans-6f" x="354.638672"/>
     <use xlink:href="#DejaVuSans-6e" x="415.820312"/>
     <use xlink:href="#DejaVuSans-66" x="479.199219"/>
     <use xlink:href="#DejaVuSans-69" x="514.404297"/>
     <use xlink:href="#DejaVuSans-72" x="542.1875"/>
     <use xlink:href="#DejaVuSans-6d" x="581.550781"/>
     <use xlink:href="#DejaVuSans-65" x="678.962891"/>
     <use xlink:href="#DejaVuSans-64" x="740.486328"/>
     <use xlink:href="#DejaVuSans-20" x="803.962891"/>
     <use xlink:href="#DejaVuSans-43" x="835.75"/>
     <use xlink:href="#DejaVuSans-61" x="905.574219"/>
     <use xlink:href="#DejaVuSans-73" x="966.853516"/>
     <use xlink:href="#DejaVuSans-65" x="1018.953125"/>
     <use xlink:href="#DejaVuSans-73" x="1080.476562"/>
     <use xlink:href="#DejaVuSans-20" x="1132.576172"/>
     <use xlink:href="#DejaVuSans-46" x="1164.363281"/>
     <use xlink:href="#DejaVuSans-6f" x="1218.257812"/>
     <use xlink:href="#DejaVuSans-72" x="1279.439453"/>
     <use xlink:href="#DejaVuSans-65" x="1318.302734"/>
     <use xlink:href="#DejaVuSans-63" x="1379.826172"/>
     <use xlink:href="#DejaVuSans-61" x="1434.806641"/>
     <use xlink:href="#DejaVuSans-73" x="1496.085938"/>
     <use xlink:href="#DejaVuSans-74" x="1548.185547"/>
     <use xlink:href="#DejaVuSans-69" x="1587.394531"/>
     <use xlink:href="#DejaVuSans-6e" x="1615.177734"/>
     <use xlink:href="#DejaVuSans-67" x="1678.556641"/>
     <use xlink:href="#DejaVuSans-20" x="1742.033203"/>
     <use xlink:href="#DejaVuSans-2d" x="1773.820312"/>
     <use xlink:href="#DejaVuSans-20" x="1809.904297"/>
     <use xlink:href="#DejaVuSans-50" x="1841.691406"/>
     <use xlink:href="#DejaVuSans-61" x="1897.494141"/>
     <use xlink:href="#DejaVuSans-6e" x="1958.773438"/>
     <use xlink:href="#DejaVuSans-61" x="2022.152344"/>
     <use xlink:href="#DejaVuSans-6d" x="2083.431641"/>
     <use xlink:href="#DejaVuSans-61" x="2180.84375"/>
    </g>
    <!-- ARIMA (4, 1, 1)x(1, 0, 1, 7) (R2 = 0.242582) -->
    <g transform="translate(583.628438 29.7555)scale(0.12 -0.12)">
     <defs>
      <path id="DejaVuSans-41" d="M 2188 4044 
L 1331 1722 
L 3047 1722 
L 2188 4044 
z
M 1831 4666 
L 2547 4666 
L 4325 0 
L 3669 0 
L 3244 1197 
L 1141 1197 
L 716 0 
L 50 0 
L 1831 4666 
z
" transform="scale(0.015625)"/>
      <path id="DejaVuSans-52" d="M 2841 2188 
Q 3044 2119 3236 1894 
Q 3428 1669 3622 1275 
L 4263 0 
L 3584 0 
L 2988 1197 
Q 2756 1666 2539 1819 
Q 2322 1972 1947 1972 
L 1259 1972 
L 1259 0 
L 628 0 
L 628 4666 
L 2053 4666 
Q 2853 4666 3247 4331 
Q 3641 3997 3641 3322 
Q 3641 2881 3436 2590 
Q 3231 2300 2841 2188 
z
M 1259 4147 
L 1259 2491 
L 2053 2491 
Q 2509 2491 2742 2702 
Q 2975 2913 2975 3322 
Q 2975 3731 2742 3939 
Q 2509 4147 2053 4147 
L 1259 4147 
z
" transform="scale(0.015625)"/>
      <path id="DejaVuSans-49" d="M 628 4666 
L 1259 4666 
L 1259 0 
L 628 0 
L 628 4666 
z
" transform="scale(0.015625)"/>
      <path id="DejaVuSans-4d" d="M 628 4666 
L 1569 4666 
L 2759 1491 
L 3956 4666 
L 4897 4666 
L 4897 0 
L 4281 0 
L 4281 4097 
L 3078 897 
L 2444 897 
L 1241 4097 
L 1241 0 
L 628 0 
L 628 4666 
z
" transform="scale(0.015625)"/>
      <path id="DejaVuSans-28" d="M 1984 4856 
Q 1566 4138 1362 3434 
Q 1159 2731 1159 2009 
Q 1159 1288 1364 580 
Q 1569 -128 1984 -844 
L 1484 -844 
Q 1016 -109 783 600 
Q 550 1309 550 2009 
Q 550 2706 781 3412 
Q 1013 4119 1484 4856 
L 1984 4856 
z
" transform="scale(0.015625)"/>
      <path id="DejaVuSans-2c" d="M 750 794 
L 1409 794 
L 1409 256 
L 897 -744 
L 494 -744 
L 750 256 
L 750 794 
z
" transform="scale(0.015625)"/>
      <path id="DejaVuSans-29" d="M 513 4856 
L 1013 4856 
Q 1481 4119 1714 3412 
Q 1947 2706 1947 2009 
Q 1947 1309 1714 600 
Q 1481 -109 1013 -844 
L 513 -844 
Q 928 -128 1133 580 
Q 1338 1288 1338 2009 
Q 1338 2731 1133 3434 
Q 928 4138 513 4856 
z
" transform="scale(0.015625)"/>
      <path id="DejaVuSans-78" d="M 3513 3500 
L 2247 1797 
L 3578 0 
L 2900 0 
L 1881 1375 
L 863 0 
L 184 0 
L 1544 1831 
L 300 3500 
L 978 3500 
L 1906 2253 
L 2834 3500 
L 3513 3500 
z
" transform="scale(0.015625)"/>
      <path id="DejaVuSans-3d" d="M 678 2906 
L 4684 2906 
L 4684 2381 
L 678 2381 
L 678 2906 
z
M 678 1631 
L 4684 1631 
L 4684 1100 
L 678 1100 
L 678 1631 
z
" transform="scale(0.015625)"/>
      <path id="DejaVuSans-2e" d="M 684 794 
L 1344 794 
L 1344 0 
L 684 0 
L 684 794 
z
" transform="scale(0.015625)"/>
      <path id="DejaVuSans-38" d="M 2034 2216 
Q 1584 2216 1326 1975 
Q 1069 1734 1069 1313 
Q 1069 891 1326 650 
Q 1584 409 2034 409 
Q 2484 409 2743 651 
Q 3003 894 3003 1313 
Q 3003 1734 2745 1975 
Q 2488 2216 2034 2216 
z
M 1403 2484 
Q 997 2584 770 2862 
Q 544 3141 544 3541 
Q 544 4100 942 4425 
Q 1341 4750 2034 4750 
Q 2731 4750 3128 4425 
Q 3525 4100 3525 3541 
Q 3525 3141 3298 2862 
Q 3072 2584 2669 2484 
Q 3125 2378 3379 2068 
Q 3634 1759 3634 1313 
Q 3634 634 3220 271 
Q 2806 -91 2034 -91 
Q 1263 -91 848 271 
Q 434 634 434 1313 
Q 434 1759 690 2068 
Q 947 2378 1403 2484 
z
M 1172 3481 
Q 1172 3119 1398 2916 
Q 1625 2713 2034 2713 
Q 2441 2713 2670 2916 
Q 2900 3119 2900 3481 
Q 2900 3844 2670 4047 
Q 2441 4250 2034 4250 
Q 1625 4250 1398 4047 
Q 1172 3844 1172 3481 
z
" transform="scale(0.015625)"/>
     </defs>
     <use xlink:href="#DejaVuSans-41"/>
     <use xlink:href="#DejaVuSans-52" x="68.408203"/>
     <use xlink:href="#DejaVuSans-49" x="137.890625"/>
     <use xlink:href="#DejaVuSans-4d" x="167.382812"/>
     <use xlink:href="#DejaVuSans-41" x="253.662109"/>
     <use xlink:href="#DejaVuSans-20" x="322.070312"/>
     <use xlink:href="#DejaVuSans-28" x="353.857422"/>
     <use xlink:href="#DejaVuSans-34" x="392.871094"/>
     <use xlink:href="#DejaVuSans-2c" x="456.494141"/>
     <use xlink:href="#DejaVuSans-20" x="488.28125"/>
     <use xlink:href="#DejaVuSans-31" x="520.068359"/>
     <use xlink:href="#DejaVuSans-2c" x="583.691406"/>
     <use xlink:href="#DejaVuSans-20" x="615.478516"/>
     <use xlink:href="#DejaVuSans-31" x="647.265625"/>
     <use xlink:href="#DejaVuSans-29" x="710.888672"/>
     <use xlink:href="#DejaVuSans-78" x="749.902344"/>
     <use xlink:href="#DejaVuSans-28" x="809.082031"/>
     <use xlink:href="#DejaVuSans-31" x="848.095703"/>
     <use xlink:href="#DejaVuSans-2c" x="911.71875"/>
     <use xlink:href="#DejaVuSans-20" x="943.505859"/>
     <use xlink:href="#DejaVuSans-30" x="975.292969"/>
     <use xlink:href="#DejaVuSans-2c" x="1038.916016"/>
     <use xlink:href="#DejaVuSans-20" x="1070.703125"/>
     <use xlink:href="#DejaVuSans-31" x="1102.490234"/>
     <use xlink:href="#DejaVuSans-2c" x="1166.113281"/>
     <use xlink:href="#DejaVuSans-20" x="1197.900391"/>
     <use xlink:href="#DejaVuSans-37" x="1229.6875"/>
     <use xlink:href="#DejaVuSans-29" x="1293.310547"/>
     <use xlink:href="#DejaVuSans-20" x="1332.324219"/>
     <use xlink:href="#DejaVuSans-28" x="1364.111328"/>
     <use xlink:href="#DejaVuSans-52" x="1403.125"/>
     <use xlink:href="#DejaVuSans-32" x="1472.607422"/>
     <use xlink:href="#DejaVuSans-20" x="1536.230469"/>
     <use xlink:href="#DejaVuSans-3d" x="1568.017578"/>
     <use xlink:href="#DejaVuSans-20" x="1651.806641"/>
     <use xlink:href="#DejaVuSans-30" x="1683.59375"/>
     <use xlink:href="#DejaVuSans-2e" x="1747.216797"/>
     <use xlink:href="#DejaVuSans-32" x="1779.003906"/>
     <use xlink:href="#DejaVuSans-34" x="1842.626953"/>
     <use xlink:href="#DejaVuSans-32" x="1906.25"/>
     <use xlink:href="#DejaVuSans-35" x="1969.873047"/>
     <use xlink:href="#DejaVuSans-38" x="2033.496094"/>
     <use xlink:href="#DejaVuSans-32" x="2097.119141"/>
     <use xlink:href="#DejaVuSans-29" x="2160.742188"/>
    </g>
   </g>
   <g id="legend_1">
    <g id="patch_7">
     <path d="M 1281.132812 87.789875 
L 1378.2125 87.789875 
Q 1380.2125 87.789875 1380.2125 85.789875 
L 1380.2125 42.7555 
Q 1380.2125 40.7555 1378.2125 40.7555 
L 1281.132812 40.7555 
Q 1279.132812 40.7555 1279.132812 42.7555 
L 1279.132812 85.789875 
Q 1279.132812 87.789875 1281.132812 87.789875 
z
" style="fill: #ffffff; opacity: 0.8; stroke: #cccccc; stroke-linejoin: miter"/>
    </g>
    <g id="line2d_20">
     <path d="M 1283.132812 48.853937 
L 1293.132812 48.853937 
L 1303.132812 48.853937 
" style="fill: none; stroke: #0000ff; stroke-width: 1.5; stroke-linecap: square"/>
    </g>
    <g id="text_18">
     <!-- Actual Value -->
     <g transform="translate(1311.132812 52.353937)scale(0.1 -0.1)">
      <defs>
       <path id="DejaVuSans-75" d="M 544 1381 
L 544 3500 
L 1119 3500 
L 1119 1403 
Q 1119 906 1312 657 
Q 1506 409 1894 409 
Q 2359 409 2629 706 
Q 2900 1003 2900 1516 
L 2900 3500 
L 3475 3500 
L 3475 0 
L 2900 0 
L 2900 538 
Q 2691 219 2414 64 
Q 2138 -91 1772 -91 
Q 1169 -91 856 284 
Q 544 659 544 1381 
z
M 1991 3584 
L 1991 3584 
z
" transform="scale(0.015625)"/>
       <path id="DejaVuSans-56" d="M 1831 0 
L 50 4666 
L 709 4666 
L 2188 738 
L 3669 4666 
L 4325 4666 
L 2547 0 
L 1831 0 
z
" transform="scale(0.015625)"/>
      </defs>
      <use xlink:href="#DejaVuSans-41"/>
      <use xlink:href="#DejaVuSans-63" x="66.658203"/>
      <use xlink:href="#DejaVuSans-74" x="121.638672"/>
      <use xlink:href="#DejaVuSans-75" x="160.847656"/>
      <use xlink:href="#DejaVuSans-61" x="224.226562"/>
      <use xlink:href="#DejaVuSans-6c" x="285.505859"/>
      <use xlink:href="#DejaVuSans-20" x="313.289062"/>
      <use xlink:href="#DejaVuSans-56" x="345.076172"/>
      <use xlink:href="#DejaVuSans-61" x="405.734375"/>
      <use xlink:href="#DejaVuSans-6c" x="467.013672"/>
      <use xlink:href="#DejaVuSans-75" x="494.796875"/>
      <use xlink:href="#DejaVuSans-65" x="558.175781"/>
     </g>
    </g>
    <g id="line2d_21">
     <path d="M 1283.132812 63.532062 
L 1293.132812 63.532062 
L 1303.132812 63.532062 
" style="fill: none; stroke: #ffa500; stroke-width: 1.5; stroke-linecap: square"/>
    </g>
    <g id="text_19">
     <!-- Check Value -->
     <g transform="translate(1311.132812 67.032062)scale(0.1 -0.1)">
      <defs>
       <path id="DejaVuSans-68" d="M 3513 2113 
L 3513 0 
L 2938 0 
L 2938 2094 
Q 2938 2591 2744 2837 
Q 2550 3084 2163 3084 
Q 1697 3084 1428 2787 
Q 1159 2491 1159 1978 
L 1159 0 
L 581 0 
L 581 4863 
L 1159 4863 
L 1159 2956 
Q 1366 3272 1645 3428 
Q 1925 3584 2291 3584 
Q 2894 3584 3203 3211 
Q 3513 2838 3513 2113 
z
" transform="scale(0.015625)"/>
       <path id="DejaVuSans-6b" d="M 581 4863 
L 1159 4863 
L 1159 1991 
L 2875 3500 
L 3609 3500 
L 1753 1863 
L 3688 0 
L 2938 0 
L 1159 1709 
L 1159 0 
L 581 0 
L 581 4863 
z
" transform="scale(0.015625)"/>
      </defs>
      <use xlink:href="#DejaVuSans-43"/>
      <use xlink:href="#DejaVuSans-68" x="69.824219"/>
      <use xlink:href="#DejaVuSans-65" x="133.203125"/>
      <use xlink:href="#DejaVuSans-63" x="194.726562"/>
      <use xlink:href="#DejaVuSans-6b" x="249.707031"/>
      <use xlink:href="#DejaVuSans-20" x="307.617188"/>
      <use xlink:href="#DejaVuSans-56" x="339.404297"/>
      <use xlink:href="#DejaVuSans-61" x="400.0625"/>
      <use xlink:href="#DejaVuSans-6c" x="461.341797"/>
      <use xlink:href="#DejaVuSans-75" x="489.125"/>
      <use xlink:href="#DejaVuSans-65" x="552.503906"/>
     </g>
    </g>
    <g id="line2d_22">
     <path d="M 1283.132812 78.210187 
L 1293.132812 78.210187 
L 1303.132812 78.210187 
" style="fill: none; stroke: #ff0000; stroke-width: 1.5; stroke-linecap: square"/>
    </g>
    <g id="text_20">
     <!-- Predict Value -->
     <g transform="translate(1311.132812 81.710187)scale(0.1 -0.1)">
      <use xlink:href="#DejaVuSans-50"/>
      <use xlink:href="#DejaVuSans-72" x="58.552734"/>
      <use xlink:href="#DejaVuSans-65" x="97.416016"/>
      <use xlink:href="#DejaVuSans-64" x="158.939453"/>
      <use xlink:href="#DejaVuSans-69" x="222.416016"/>
      <use xlink:href="#DejaVuSans-63" x="250.199219"/>
      <use xlink:href="#DejaVuSans-74" x="305.179688"/>
      <use xlink:href="#DejaVuSans-20" x="344.388672"/>
      <use xlink:href="#DejaVuSans-56" x="376.175781"/>
      <use xlink:href="#DejaVuSans-61" x="436.833984"/>
      <use xlink:href="#DejaVuSans-6c" x="498.113281"/>
      <use xlink:href="#DejaVuSans-75" x="525.896484"/>
      <use xlink:href="#DejaVuSans-65" x="589.275391"/>
     </g>
    </g>
   </g>
  </g>
 </g>
 <defs>
  <clipPath id="p72648f3ac4">
   <rect x="46.0125" y="35.7555" width="1339.2" height="332.64"/>
  </clipPath>
 </defs>
</svg>
