<?xml version="1.0" encoding="utf-8" standalone="no"?>
<!DOCTYPE svg PUBLIC "-//W3C//DTD SVG 1.1//EN"
  "http://www.w3.org/Graphics/SVG/1.1/DTD/svg11.dtd">
<svg xmlns:xlink="http://www.w3.org/1999/xlink" width="1379.6875pt" height="392.273625pt" viewBox="0 0 1379.6875 392.273625" xmlns="http://www.w3.org/2000/svg" version="1.1">
 <metadata>
  <rdf:RDF xmlns:dc="http://purl.org/dc/elements/1.1/" xmlns:cc="http://creativecommons.org/ns#" xmlns:rdf="http://www.w3.org/1999/02/22-rdf-syntax-ns#">
   <cc:Work>
    <dc:type rdf:resource="http://purl.org/dc/dcmitype/StillImage"/>
    <dc:date>2022-07-17T19:37:37.205778</dc:date>
    <dc:format>image/svg+xml</dc:format>
    <dc:creator>
     <cc:Agent>
      <dc:title>Matplotlib v3.5.2, https://matplotlib.org/</dc:title>
     </cc:Agent>
    </dc:creator>
   </cc:Work>
  </rdf:RDF>
 </metadata>
 <defs>
  <style type="text/css">*{stroke-linejoin: round; stroke-linecap: butt}</style>
 </defs>
 <g id="figure_1">
  <g id="patch_1">
   <path d="M 0 392.273625 
L 1379.6875 392.273625 
L 1379.6875 0 
L 0 0 
z
" style="fill: #ffffff"/>
  </g>
  <g id="axes_1">
   <g id="patch_2">
    <path d="M 33.2875 368.3955 
L 1372.4875 368.3955 
L 1372.4875 35.7555 
L 33.2875 35.7555 
z
" style="fill: #ffffff"/>
   </g>
   <g id="matplotlib.axis_1">
    <g id="xtick_1">
     <g id="line2d_1">
      <defs>
       <path id="m6526b8961b" d="M 0 0 
L 0 3.5 
" style="stroke: #000000; stroke-width: 0.8"/>
      </defs>
      <g>
       <use xlink:href="#m6526b8961b" x="64.983757" y="368.3955" style="stroke: #000000; stroke-width: 0.8"/>
      </g>
     </g>
     <g id="text_1">
      <!-- 2020-01 -->
      <g transform="translate(44.09235 382.993937)scale(0.1 -0.1)">
       <defs>
        <path id="DejaVuSans-32" d="M 1228 531 
L 3431 531 
L 3431 0 
L 469 0 
L 469 531 
Q 828 903 1448 1529 
Q 2069 2156 2228 2338 
Q 2531 2678 2651 2914 
Q 2772 3150 2772 3378 
Q 2772 3750 2511 3984 
Q 2250 4219 1831 4219 
Q 1534 4219 1204 4116 
Q 875 4013 500 3803 
L 500 4441 
Q 881 4594 1212 4672 
Q 1544 4750 1819 4750 
Q 2544 4750 2975 4387 
Q 3406 4025 3406 3419 
Q 3406 3131 3298 2873 
Q 3191 2616 2906 2266 
Q 2828 2175 2409 1742 
Q 1991 1309 1228 531 
z
" transform="scale(0.015625)"/>
        <path id="DejaVuSans-30" d="M 2034 4250 
Q 1547 4250 1301 3770 
Q 1056 3291 1056 2328 
Q 1056 1369 1301 889 
Q 1547 409 2034 409 
Q 2525 409 2770 889 
Q 3016 1369 3016 2328 
Q 3016 3291 2770 3770 
Q 2525 4250 2034 4250 
z
M 2034 4750 
Q 2819 4750 3233 4129 
Q 3647 3509 3647 2328 
Q 3647 1150 3233 529 
Q 2819 -91 2034 -91 
Q 1250 -91 836 529 
Q 422 1150 422 2328 
Q 422 3509 836 4129 
Q 1250 4750 2034 4750 
z
" transform="scale(0.015625)"/>
        <path id="DejaVuSans-2d" d="M 313 2009 
L 1997 2009 
L 1997 1497 
L 313 1497 
L 313 2009 
z
" transform="scale(0.015625)"/>
        <path id="DejaVuSans-31" d="M 794 531 
L 1825 531 
L 1825 4091 
L 703 3866 
L 703 4441 
L 1819 4666 
L 2450 4666 
L 2450 531 
L 3481 531 
L 3481 0 
L 794 0 
L 794 531 
z
" transform="scale(0.015625)"/>
       </defs>
       <use xlink:href="#DejaVuSans-32"/>
       <use xlink:href="#DejaVuSans-30" x="63.623047"/>
       <use xlink:href="#DejaVuSans-32" x="127.246094"/>
       <use xlink:href="#DejaVuSans-30" x="190.869141"/>
       <use xlink:href="#DejaVuSans-2d" x="254.492188"/>
       <use xlink:href="#DejaVuSans-30" x="290.576172"/>
       <use xlink:href="#DejaVuSans-31" x="354.199219"/>
      </g>
     </g>
    </g>
    <g id="xtick_2">
     <g id="line2d_2">
      <g>
       <use xlink:href="#m6526b8961b" x="185.668249" y="368.3955" style="stroke: #000000; stroke-width: 0.8"/>
      </g>
     </g>
     <g id="text_2">
      <!-- 2020-04 -->
      <g transform="translate(164.776842 382.993937)scale(0.1 -0.1)">
       <defs>
        <path id="DejaVuSans-34" d="M 2419 4116 
L 825 1625 
L 2419 1625 
L 2419 4116 
z
M 2253 4666 
L 3047 4666 
L 3047 1625 
L 3713 1625 
L 3713 1100 
L 3047 1100 
L 3047 0 
L 2419 0 
L 2419 1100 
L 313 1100 
L 313 1709 
L 2253 4666 
z
" transform="scale(0.015625)"/>
       </defs>
       <use xlink:href="#DejaVuSans-32"/>
       <use xlink:href="#DejaVuSans-30" x="63.623047"/>
       <use xlink:href="#DejaVuSans-32" x="127.246094"/>
       <use xlink:href="#DejaVuSans-30" x="190.869141"/>
       <use xlink:href="#DejaVuSans-2d" x="254.492188"/>
       <use xlink:href="#DejaVuSans-30" x="290.576172"/>
       <use xlink:href="#DejaVuSans-34" x="354.199219"/>
      </g>
     </g>
    </g>
    <g id="xtick_3">
     <g id="line2d_3">
      <g>
       <use xlink:href="#m6526b8961b" x="306.352741" y="368.3955" style="stroke: #000000; stroke-width: 0.8"/>
      </g>
     </g>
     <g id="text_3">
      <!-- 2020-07 -->
      <g transform="translate(285.461334 382.993937)scale(0.1 -0.1)">
       <defs>
        <path id="DejaVuSans-37" d="M 525 4666 
L 3525 4666 
L 3525 4397 
L 1831 0 
L 1172 0 
L 2766 4134 
L 525 4134 
L 525 4666 
z
" transform="scale(0.015625)"/>
       </defs>
       <use xlink:href="#DejaVuSans-32"/>
       <use xlink:href="#DejaVuSans-30" x="63.623047"/>
       <use xlink:href="#DejaVuSans-32" x="127.246094"/>
       <use xlink:href="#DejaVuSans-30" x="190.869141"/>
       <use xlink:href="#DejaVuSans-2d" x="254.492188"/>
       <use xlink:href="#DejaVuSans-30" x="290.576172"/>
       <use xlink:href="#DejaVuSans-37" x="354.199219"/>
      </g>
     </g>
    </g>
    <g id="xtick_4">
     <g id="line2d_4">
      <g>
       <use xlink:href="#m6526b8961b" x="428.363436" y="368.3955" style="stroke: #000000; stroke-width: 0.8"/>
      </g>
     </g>
     <g id="text_4">
      <!-- 2020-10 -->
      <g transform="translate(407.47203 382.993937)scale(0.1 -0.1)">
       <use xlink:href="#DejaVuSans-32"/>
       <use xlink:href="#DejaVuSans-30" x="63.623047"/>
       <use xlink:href="#DejaVuSans-32" x="127.246094"/>
       <use xlink:href="#DejaVuSans-30" x="190.869141"/>
       <use xlink:href="#DejaVuSans-2d" x="254.492188"/>
       <use xlink:href="#DejaVuSans-31" x="290.576172"/>
       <use xlink:href="#DejaVuSans-30" x="354.199219"/>
      </g>
     </g>
    </g>
    <g id="xtick_5">
     <g id="line2d_5">
      <g>
       <use xlink:href="#m6526b8961b" x="550.374131" y="368.3955" style="stroke: #000000; stroke-width: 0.8"/>
      </g>
     </g>
     <g id="text_5">
      <!-- 2021-01 -->
      <g transform="translate(529.482725 382.993937)scale(0.1 -0.1)">
       <use xlink:href="#DejaVuSans-32"/>
       <use xlink:href="#DejaVuSans-30" x="63.623047"/>
       <use xlink:href="#DejaVuSans-32" x="127.246094"/>
       <use xlink:href="#DejaVuSans-31" x="190.869141"/>
       <use xlink:href="#DejaVuSans-2d" x="254.492188"/>
       <use xlink:href="#DejaVuSans-30" x="290.576172"/>
       <use xlink:href="#DejaVuSans-31" x="354.199219"/>
      </g>
     </g>
    </g>
    <g id="xtick_6">
     <g id="line2d_6">
      <g>
       <use xlink:href="#m6526b8961b" x="669.73242" y="368.3955" style="stroke: #000000; stroke-width: 0.8"/>
      </g>
     </g>
     <g id="text_6">
      <!-- 2021-04 -->
      <g transform="translate(648.841014 382.993937)scale(0.1 -0.1)">
       <use xlink:href="#DejaVuSans-32"/>
       <use xlink:href="#DejaVuSans-30" x="63.623047"/>
       <use xlink:href="#DejaVuSans-32" x="127.246094"/>
       <use xlink:href="#DejaVuSans-31" x="190.869141"/>
       <use xlink:href="#DejaVuSans-2d" x="254.492188"/>
       <use xlink:href="#DejaVuSans-30" x="290.576172"/>
       <use xlink:href="#DejaVuSans-34" x="354.199219"/>
      </g>
     </g>
    </g>
    <g id="xtick_7">
     <g id="line2d_7">
      <g>
       <use xlink:href="#m6526b8961b" x="790.416912" y="368.3955" style="stroke: #000000; stroke-width: 0.8"/>
      </g>
     </g>
     <g id="text_7">
      <!-- 2021-07 -->
      <g transform="translate(769.525506 382.993937)scale(0.1 -0.1)">
       <use xlink:href="#DejaVuSans-32"/>
       <use xlink:href="#DejaVuSans-30" x="63.623047"/>
       <use xlink:href="#DejaVuSans-32" x="127.246094"/>
       <use xlink:href="#DejaVuSans-31" x="190.869141"/>
       <use xlink:href="#DejaVuSans-2d" x="254.492188"/>
       <use xlink:href="#DejaVuSans-30" x="290.576172"/>
       <use xlink:href="#DejaVuSans-37" x="354.199219"/>
      </g>
     </g>
    </g>
    <g id="xtick_8">
     <g id="line2d_8">
      <g>
       <use xlink:href="#m6526b8961b" x="912.427607" y="368.3955" style="stroke: #000000; stroke-width: 0.8"/>
      </g>
     </g>
     <g id="text_8">
      <!-- 2021-10 -->
      <g transform="translate(891.536201 382.993937)scale(0.1 -0.1)">
       <use xlink:href="#DejaVuSans-32"/>
       <use xlink:href="#DejaVuSans-30" x="63.623047"/>
       <use xlink:href="#DejaVuSans-32" x="127.246094"/>
       <use xlink:href="#DejaVuSans-31" x="190.869141"/>
       <use xlink:href="#DejaVuSans-2d" x="254.492188"/>
       <use xlink:href="#DejaVuSans-31" x="290.576172"/>
       <use xlink:href="#DejaVuSans-30" x="354.199219"/>
      </g>
     </g>
    </g>
    <g id="xtick_9">
     <g id="line2d_9">
      <g>
       <use xlink:href="#m6526b8961b" x="1034.438302" y="368.3955" style="stroke: #000000; stroke-width: 0.8"/>
      </g>
     </g>
     <g id="text_9">
      <!-- 2022-01 -->
      <g transform="translate(1013.546896 382.993937)scale(0.1 -0.1)">
       <use xlink:href="#DejaVuSans-32"/>
       <use xlink:href="#DejaVuSans-30" x="63.623047"/>
       <use xlink:href="#DejaVuSans-32" x="127.246094"/>
       <use xlink:href="#DejaVuSans-32" x="190.869141"/>
       <use xlink:href="#DejaVuSans-2d" x="254.492188"/>
       <use xlink:href="#DejaVuSans-30" x="290.576172"/>
       <use xlink:href="#DejaVuSans-31" x="354.199219"/>
      </g>
     </g>
    </g>
    <g id="xtick_10">
     <g id="line2d_10">
      <g>
       <use xlink:href="#m6526b8961b" x="1153.796591" y="368.3955" style="stroke: #000000; stroke-width: 0.8"/>
      </g>
     </g>
     <g id="text_10">
      <!-- 2022-04 -->
      <g transform="translate(1132.905185 382.993937)scale(0.1 -0.1)">
       <use xlink:href="#DejaVuSans-32"/>
       <use xlink:href="#DejaVuSans-30" x="63.623047"/>
       <use xlink:href="#DejaVuSans-32" x="127.246094"/>
       <use xlink:href="#DejaVuSans-32" x="190.869141"/>
       <use xlink:href="#DejaVuSans-2d" x="254.492188"/>
       <use xlink:href="#DejaVuSans-30" x="290.576172"/>
       <use xlink:href="#DejaVuSans-34" x="354.199219"/>
      </g>
     </g>
    </g>
    <g id="xtick_11">
     <g id="line2d_11">
      <g>
       <use xlink:href="#m6526b8961b" x="1274.481083" y="368.3955" style="stroke: #000000; stroke-width: 0.8"/>
      </g>
     </g>
     <g id="text_11">
      <!-- 2022-07 -->
      <g transform="translate(1253.589677 382.993937)scale(0.1 -0.1)">
       <use xlink:href="#DejaVuSans-32"/>
       <use xlink:href="#DejaVuSans-30" x="63.623047"/>
       <use xlink:href="#DejaVuSans-32" x="127.246094"/>
       <use xlink:href="#DejaVuSans-32" x="190.869141"/>
       <use xlink:href="#DejaVuSans-2d" x="254.492188"/>
       <use xlink:href="#DejaVuSans-30" x="290.576172"/>
       <use xlink:href="#DejaVuSans-37" x="354.199219"/>
      </g>
     </g>
    </g>
   </g>
   <g id="matplotlib.axis_2">
    <g id="ytick_1">
     <g id="line2d_12">
      <defs>
       <path id="md5cd5634a8" d="M 0 0 
L -3.5 0 
" style="stroke: #000000; stroke-width: 0.8"/>
      </defs>
      <g>
       <use xlink:href="#md5cd5634a8" x="33.2875" y="347.756565" style="stroke: #000000; stroke-width: 0.8"/>
      </g>
     </g>
     <g id="text_12">
      <!-- 0 -->
      <g transform="translate(19.925 351.555784)scale(0.1 -0.1)">
       <use xlink:href="#DejaVuSans-30"/>
      </g>
     </g>
    </g>
    <g id="ytick_2">
     <g id="line2d_13">
      <g>
       <use xlink:href="#md5cd5634a8" x="33.2875" y="307.474195" style="stroke: #000000; stroke-width: 0.8"/>
      </g>
     </g>
     <g id="text_13">
      <!-- 100 -->
      <g transform="translate(7.2 311.273414)scale(0.1 -0.1)">
       <use xlink:href="#DejaVuSans-31"/>
       <use xlink:href="#DejaVuSans-30" x="63.623047"/>
       <use xlink:href="#DejaVuSans-30" x="127.246094"/>
      </g>
     </g>
    </g>
    <g id="ytick_3">
     <g id="line2d_14">
      <g>
       <use xlink:href="#md5cd5634a8" x="33.2875" y="267.191826" style="stroke: #000000; stroke-width: 0.8"/>
      </g>
     </g>
     <g id="text_14">
      <!-- 200 -->
      <g transform="translate(7.2 270.991044)scale(0.1 -0.1)">
       <use xlink:href="#DejaVuSans-32"/>
       <use xlink:href="#DejaVuSans-30" x="63.623047"/>
       <use xlink:href="#DejaVuSans-30" x="127.246094"/>
      </g>
     </g>
    </g>
    <g id="ytick_4">
     <g id="line2d_15">
      <g>
       <use xlink:href="#md5cd5634a8" x="33.2875" y="226.909456" style="stroke: #000000; stroke-width: 0.8"/>
      </g>
     </g>
     <g id="text_15">
      <!-- 300 -->
      <g transform="translate(7.2 230.708675)scale(0.1 -0.1)">
       <defs>
        <path id="DejaVuSans-33" d="M 2597 2516 
Q 3050 2419 3304 2112 
Q 3559 1806 3559 1356 
Q 3559 666 3084 287 
Q 2609 -91 1734 -91 
Q 1441 -91 1130 -33 
Q 819 25 488 141 
L 488 750 
Q 750 597 1062 519 
Q 1375 441 1716 441 
Q 2309 441 2620 675 
Q 2931 909 2931 1356 
Q 2931 1769 2642 2001 
Q 2353 2234 1838 2234 
L 1294 2234 
L 1294 2753 
L 1863 2753 
Q 2328 2753 2575 2939 
Q 2822 3125 2822 3475 
Q 2822 3834 2567 4026 
Q 2313 4219 1838 4219 
Q 1578 4219 1281 4162 
Q 984 4106 628 3988 
L 628 4550 
Q 988 4650 1302 4700 
Q 1616 4750 1894 4750 
Q 2613 4750 3031 4423 
Q 3450 4097 3450 3541 
Q 3450 3153 3228 2886 
Q 3006 2619 2597 2516 
z
" transform="scale(0.015625)"/>
       </defs>
       <use xlink:href="#DejaVuSans-33"/>
       <use xlink:href="#DejaVuSans-30" x="63.623047"/>
       <use xlink:href="#DejaVuSans-30" x="127.246094"/>
      </g>
     </g>
    </g>
    <g id="ytick_5">
     <g id="line2d_16">
      <g>
       <use xlink:href="#md5cd5634a8" x="33.2875" y="186.627086" style="stroke: #000000; stroke-width: 0.8"/>
      </g>
     </g>
     <g id="text_16">
      <!-- 400 -->
      <g transform="translate(7.2 190.426305)scale(0.1 -0.1)">
       <use xlink:href="#DejaVuSans-34"/>
       <use xlink:href="#DejaVuSans-30" x="63.623047"/>
       <use xlink:href="#DejaVuSans-30" x="127.246094"/>
      </g>
     </g>
    </g>
    <g id="ytick_6">
     <g id="line2d_17">
      <g>
       <use xlink:href="#md5cd5634a8" x="33.2875" y="146.344716" style="stroke: #000000; stroke-width: 0.8"/>
      </g>
     </g>
     <g id="text_17">
      <!-- 500 -->
      <g transform="translate(7.2 150.143935)scale(0.1 -0.1)">
       <defs>
        <path id="DejaVuSans-35" d="M 691 4666 
L 3169 4666 
L 3169 4134 
L 1269 4134 
L 1269 2991 
Q 1406 3038 1543 3061 
Q 1681 3084 1819 3084 
Q 2600 3084 3056 2656 
Q 3513 2228 3513 1497 
Q 3513 744 3044 326 
Q 2575 -91 1722 -91 
Q 1428 -91 1123 -41 
Q 819 9 494 109 
L 494 744 
Q 775 591 1075 516 
Q 1375 441 1709 441 
Q 2250 441 2565 725 
Q 2881 1009 2881 1497 
Q 2881 1984 2565 2268 
Q 2250 2553 1709 2553 
Q 1456 2553 1204 2497 
Q 953 2441 691 2322 
L 691 4666 
z
" transform="scale(0.015625)"/>
       </defs>
       <use xlink:href="#DejaVuSans-35"/>
       <use xlink:href="#DejaVuSans-30" x="63.623047"/>
       <use xlink:href="#DejaVuSans-30" x="127.246094"/>
      </g>
     </g>
    </g>
    <g id="ytick_7">
     <g id="line2d_18">
      <g>
       <use xlink:href="#md5cd5634a8" x="33.2875" y="106.062347" style="stroke: #000000; stroke-width: 0.8"/>
      </g>
     </g>
     <g id="text_18">
      <!-- 600 -->
      <g transform="translate(7.2 109.861565)scale(0.1 -0.1)">
       <defs>
        <path id="DejaVuSans-36" d="M 2113 2584 
Q 1688 2584 1439 2293 
Q 1191 2003 1191 1497 
Q 1191 994 1439 701 
Q 1688 409 2113 409 
Q 2538 409 2786 701 
Q 3034 994 3034 1497 
Q 3034 2003 2786 2293 
Q 2538 2584 2113 2584 
z
M 3366 4563 
L 3366 3988 
Q 3128 4100 2886 4159 
Q 2644 4219 2406 4219 
Q 1781 4219 1451 3797 
Q 1122 3375 1075 2522 
Q 1259 2794 1537 2939 
Q 1816 3084 2150 3084 
Q 2853 3084 3261 2657 
Q 3669 2231 3669 1497 
Q 3669 778 3244 343 
Q 2819 -91 2113 -91 
Q 1303 -91 875 529 
Q 447 1150 447 2328 
Q 447 3434 972 4092 
Q 1497 4750 2381 4750 
Q 2619 4750 2861 4703 
Q 3103 4656 3366 4563 
z
" transform="scale(0.015625)"/>
       </defs>
       <use xlink:href="#DejaVuSans-36"/>
       <use xlink:href="#DejaVuSans-30" x="63.623047"/>
       <use xlink:href="#DejaVuSans-30" x="127.246094"/>
      </g>
     </g>
    </g>
    <g id="ytick_8">
     <g id="line2d_19">
      <g>
       <use xlink:href="#md5cd5634a8" x="33.2875" y="65.779977" style="stroke: #000000; stroke-width: 0.8"/>
      </g>
     </g>
     <g id="text_19">
      <!-- 700 -->
      <g transform="translate(7.2 69.579196)scale(0.1 -0.1)">
       <use xlink:href="#DejaVuSans-37"/>
       <use xlink:href="#DejaVuSans-30" x="63.623047"/>
       <use xlink:href="#DejaVuSans-30" x="127.246094"/>
      </g>
     </g>
    </g>
   </g>
   <g id="line2d_20">
    <path d="M 94.160227 347.756565 
L 168.427607 347.756565 
L 169.75381 346.950918 
L 171.080013 347.756565 
L 173.73242 347.756565 
L 175.058623 345.742447 
L 176.384826 347.756565 
L 177.711029 347.353742 
L 179.037233 347.756565 
L 181.689639 347.756565 
L 183.015842 344.936799 
L 184.342045 347.756565 
L 185.668249 347.756565 
L 186.994452 347.353742 
L 188.320655 347.756565 
L 189.646858 346.950918 
L 190.973061 347.756565 
L 192.299265 346.548094 
L 193.625468 346.548094 
L 194.951671 347.353742 
L 197.604078 346.548094 
L 198.930281 347.756565 
L 200.256484 347.353742 
L 201.582687 347.756565 
L 202.90889 344.131152 
L 204.235094 347.756565 
L 205.561297 347.353742 
L 206.8875 347.756565 
L 208.213703 346.950918 
L 210.86611 347.756565 
L 212.192313 346.548094 
L 213.518516 343.728328 
L 214.844719 347.353742 
L 216.170922 346.14527 
L 217.497126 343.728328 
L 218.823329 347.756565 
L 220.149532 347.756565 
L 221.475735 346.950918 
L 222.801939 346.950918 
L 224.128142 347.756565 
L 225.454345 347.756565 
L 226.780548 345.742447 
L 228.106751 346.14527 
L 229.432955 347.756565 
L 230.759158 346.548094 
L 232.085361 342.922681 
L 233.411564 347.353742 
L 234.737767 344.936799 
L 236.063971 339.297268 
L 237.390174 340.908562 
L 238.716377 345.742447 
L 241.368783 332.852088 
L 242.694987 343.728328 
L 244.02119 341.71421 
L 245.347393 332.046441 
L 246.673596 332.852088 
L 247.999799 328.421028 
L 249.326003 308.279843 
L 250.652206 316.739141 
L 251.978409 322.378672 
L 254.630816 319.156083 
L 255.957019 316.336317 
L 257.283222 326.406909 
L 258.609425 310.293961 
L 259.935628 305.460077 
L 261.261832 303.043135 
L 262.588035 288.944305 
L 263.914238 298.20925 
L 265.240441 290.958424 
L 266.566644 234.563106 
L 267.892848 243.425228 
L 269.219051 306.668548 
L 270.545254 234.563106 
L 271.871457 308.682667 
L 273.19766 333.254912 
L 274.523864 233.354635 
L 275.850067 288.138658 
L 277.17627 242.216756 
L 278.502473 265.580531 
L 279.828676 297.806427 
L 281.15488 293.77819 
L 282.481083 289.347129 
L 283.807286 347.756565 
L 285.133489 257.524057 
L 286.459693 289.749953 
L 287.785896 294.583837 
L 289.112099 305.057253 
L 290.438302 290.958424 
L 291.764505 255.912762 
L 293.090709 321.975849 
L 294.416912 308.682667 
L 295.743115 293.77819 
L 297.069318 345.742447 
L 298.395521 304.251606 
L 299.721725 305.460077 
L 301.047928 301.834664 
L 302.374131 275.651123 
L 303.700334 347.756565 
L 305.026537 297.403603 
L 306.352741 313.113727 
L 307.678944 330.83797 
L 309.005147 321.573025 
L 310.33135 323.18432 
L 311.657553 295.792308 
L 312.983757 321.975849 
L 314.30996 332.046441 
L 315.636163 332.449265 
L 316.962366 323.18432 
L 318.28857 326.004086 
L 319.614773 309.08549 
L 320.940976 333.657736 
L 322.267179 318.350435 
L 324.919586 347.756565 
L 326.245789 305.862901 
L 327.571992 319.156083 
L 328.898195 329.226675 
L 330.224398 336.880325 
L 331.550602 316.336317 
L 332.876805 343.728328 
L 334.203008 332.852088 
L 335.529211 329.226675 
L 336.855414 339.297268 
L 338.181618 335.671854 
L 339.507821 322.378672 
L 340.834024 332.852088 
L 342.160227 340.505739 
L 343.48643 337.685973 
L 344.812634 335.269031 
L 346.138837 344.936799 
L 347.46504 334.06056 
L 348.791243 342.922681 
L 350.117447 330.032323 
L 351.44365 344.533976 
L 352.769853 333.657736 
L 354.096056 339.297268 
L 355.422259 342.922681 
L 356.748463 332.449265 
L 358.074666 340.908562 
L 359.400869 342.922681 
L 360.727072 338.49162 
L 362.053275 341.71421 
L 363.379479 309.891138 
L 364.705682 332.449265 
L 366.031885 336.074678 
L 367.358088 339.297268 
L 368.684291 328.421028 
L 370.010495 340.505739 
L 371.336698 338.088797 
L 372.662901 336.477502 
L 373.989104 328.421028 
L 375.315307 340.102915 
L 376.641511 334.06056 
L 377.967714 334.866207 
L 379.293917 336.477502 
L 380.62012 346.950918 
L 381.946324 343.728328 
L 383.272527 336.074678 
L 384.59873 343.728328 
L 385.924933 342.519857 
L 387.251136 333.657736 
L 388.57734 341.71421 
L 389.903543 347.756565 
L 391.229746 334.06056 
L 392.555949 347.756565 
L 393.882152 320.364554 
L 395.208356 347.756565 
L 396.534559 334.06056 
L 397.860762 347.756565 
L 399.186965 346.950918 
L 400.513168 342.117033 
L 401.839372 326.406909 
L 403.165575 336.477502 
L 404.491778 347.756565 
L 405.817981 339.297268 
L 407.144184 341.71421 
L 408.470388 345.339623 
L 409.796591 335.269031 
L 411.122794 337.283149 
L 412.448997 347.756565 
L 413.775201 330.032323 
L 415.101404 347.756565 
L 416.427607 338.088797 
L 417.75381 347.756565 
L 419.080013 338.894444 
L 420.406217 347.756565 
L 421.73242 332.449265 
L 423.058623 347.756565 
L 424.384826 332.046441 
L 425.711029 340.908562 
L 427.037233 347.756565 
L 428.363436 337.283149 
L 429.689639 347.756565 
L 431.015842 337.283149 
L 432.342045 347.756565 
L 433.668249 336.880325 
L 434.994452 347.756565 
L 436.320655 347.756565 
L 437.646858 340.102915 
L 438.973061 341.311386 
L 440.299265 347.756565 
L 441.625468 345.339623 
L 442.951671 338.894444 
L 444.277874 347.756565 
L 445.604078 345.742447 
L 446.930281 339.297268 
L 448.256484 347.756565 
L 449.582687 340.908562 
L 450.90889 347.756565 
L 453.561297 347.756565 
L 454.8875 327.212557 
L 456.213703 346.548094 
L 457.539906 347.756565 
L 458.86611 339.700091 
L 460.192313 341.311386 
L 461.518516 343.325505 
L 462.844719 347.756565 
L 464.170922 347.756565 
L 465.497126 339.700091 
L 466.823329 344.533976 
L 468.149532 347.756565 
L 473.454345 347.756565 
L 474.780548 329.226675 
L 476.106751 344.131152 
L 477.432955 347.756565 
L 478.759158 340.505739 
L 480.085361 347.756565 
L 481.411564 347.756565 
L 482.737767 343.728328 
L 484.063971 341.71421 
L 485.390174 347.756565 
L 486.716377 341.311386 
L 488.04258 347.756565 
L 489.368783 343.325505 
L 490.694987 344.131152 
L 492.02119 346.548094 
L 493.347393 347.756565 
L 494.673596 340.908562 
L 495.999799 346.548094 
L 497.326003 346.548094 
L 498.652206 347.756565 
L 499.978409 343.728328 
L 501.304612 345.742447 
L 502.630816 340.102915 
L 503.957019 344.533976 
L 505.283222 344.533976 
L 506.609425 347.756565 
L 507.935628 344.533976 
L 509.261832 338.894444 
L 510.588035 346.950918 
L 511.914238 344.936799 
L 513.240441 343.728328 
L 514.566644 334.06056 
L 515.892848 338.49162 
L 517.219051 347.756565 
L 518.545254 336.074678 
L 519.871457 347.756565 
L 521.19766 333.657736 
L 522.523864 347.756565 
L 523.850067 335.269031 
L 525.17627 337.283149 
L 526.502473 340.505739 
L 527.828676 325.198438 
L 529.15488 334.866207 
L 530.481083 347.756565 
L 531.807286 335.671854 
L 533.133489 339.297268 
L 534.459693 337.283149 
L 535.785896 347.756565 
L 537.112099 308.682667 
L 538.438302 334.06056 
L 539.764505 331.240794 
L 541.090709 347.756565 
L 543.743115 347.756565 
L 545.069318 302.640311 
L 546.395521 347.756565 
L 547.721725 331.240794 
L 549.047928 347.756565 
L 550.374131 341.311386 
L 551.700334 347.756565 
L 553.026537 322.781496 
L 554.352741 327.61538 
L 555.678944 347.756565 
L 558.33135 347.756565 
L 559.657553 317.141964 
L 562.30996 347.756565 
L 563.636163 335.269031 
L 564.962366 347.756565 
L 566.28857 301.834664 
L 567.614773 336.074678 
L 568.940976 285.721716 
L 570.267179 321.170201 
L 571.593382 288.944305 
L 572.919586 347.756565 
L 574.245789 319.156083 
L 575.571992 325.601262 
L 576.898195 325.198438 
L 578.224398 347.756565 
L 579.550602 318.753259 
L 580.876805 321.975849 
L 582.203008 347.756565 
L 583.529211 272.428534 
L 584.855414 347.756565 
L 586.181618 347.756565 
L 587.507821 301.029016 
L 588.834024 324.392791 
L 590.160227 318.350435 
L 591.48643 347.756565 
L 592.812634 324.795614 
L 594.138837 314.725022 
L 595.46504 339.700091 
L 596.791243 347.756565 
L 598.117447 321.170201 
L 599.44365 328.421028 
L 600.769853 347.756565 
L 602.096056 306.668548 
L 604.748463 338.894444 
L 606.074666 337.685973 
L 607.400869 347.756565 
L 608.727072 296.597956 
L 610.053275 347.756565 
L 611.379479 328.018204 
L 612.705682 342.117033 
L 614.031885 347.756565 
L 615.358088 347.756565 
L 616.684291 328.421028 
L 618.010495 339.700091 
L 619.336698 333.657736 
L 620.662901 347.756565 
L 621.989104 330.435146 
L 623.315307 347.756565 
L 624.641511 347.756565 
L 625.967714 316.336317 
L 627.293917 347.756565 
L 628.62012 340.505739 
L 629.946324 329.629499 
L 631.272527 332.449265 
L 632.59873 345.742447 
L 633.924933 347.756565 
L 639.229746 347.756565 
L 640.555949 324.392791 
L 641.882152 347.756565 
L 643.208356 332.449265 
L 644.534559 347.756565 
L 647.186965 347.756565 
L 648.513168 334.866207 
L 649.839372 345.742447 
L 651.165575 340.908562 
L 652.491778 346.950918 
L 653.817981 342.922681 
L 655.144184 342.117033 
L 656.470388 347.756565 
L 657.796591 344.533976 
L 659.122794 343.728328 
L 660.448997 347.756565 
L 661.775201 346.14527 
L 663.101404 347.756565 
L 665.75381 347.756565 
L 667.080013 338.894444 
L 668.406217 347.756565 
L 669.73242 346.14527 
L 671.058623 337.283149 
L 672.384826 347.756565 
L 675.037233 347.756565 
L 676.363436 341.71421 
L 677.689639 347.756565 
L 679.015842 347.756565 
L 680.342045 342.519857 
L 681.668249 338.088797 
L 682.994452 347.756565 
L 684.320655 347.756565 
L 685.646858 341.71421 
L 686.973061 347.756565 
L 688.299265 346.950918 
L 689.625468 340.102915 
L 690.951671 344.131152 
L 692.277874 334.463383 
L 693.604078 347.756565 
L 696.256484 347.756565 
L 697.582687 337.283149 
L 698.90889 347.756565 
L 700.235094 347.756565 
L 701.561297 342.117033 
L 702.8875 347.756565 
L 704.213703 331.240794 
L 705.539906 340.505739 
L 706.86611 347.756565 
L 708.192313 332.046441 
L 709.518516 347.756565 
L 710.844719 332.449265 
L 712.170922 347.756565 
L 713.497126 331.240794 
L 714.823329 342.117033 
L 716.149532 341.71421 
L 717.475735 347.756565 
L 721.454345 347.756565 
L 722.780548 341.71421 
L 724.106751 328.421028 
L 725.432955 336.477502 
L 726.759158 342.519857 
L 728.085361 313.516551 
L 729.411564 331.643617 
L 730.737767 320.767378 
L 732.063971 323.587143 
L 733.390174 316.336317 
L 734.716377 347.756565 
L 736.04258 337.283149 
L 737.368783 347.756565 
L 738.694987 303.043135 
L 740.02119 278.873713 
L 741.347393 347.756565 
L 742.673596 294.986661 
L 743.999799 347.756565 
L 745.326003 347.756565 
L 746.652206 311.099609 
L 747.978409 295.389485 
L 749.304612 310.293961 
L 750.630816 261.552294 
L 751.957019 288.944305 
L 753.283222 259.135352 
L 754.609425 296.597956 
L 755.935628 321.573025 
L 757.261832 283.707597 
L 758.588035 286.124539 
L 759.914238 162.457664 
L 761.240441 305.057253 
L 762.566644 347.756565 
L 763.892848 316.336317 
L 765.219051 347.756565 
L 766.545254 347.756565 
L 767.871457 153.595543 
L 769.19766 307.071372 
L 770.523864 347.756565 
L 771.850067 268.400297 
L 773.17627 347.756565 
L 775.828676 347.756565 
L 777.15488 266.386178 
L 778.481083 347.756565 
L 779.807286 129.426121 
L 781.133489 347.756565 
L 782.459693 202.740034 
L 783.785896 347.756565 
L 785.112099 347.756565 
L 786.438302 247.453465 
L 787.764505 295.792308 
L 789.090709 258.732528 
L 790.416912 309.08549 
L 791.743115 347.756565 
L 794.395521 347.756565 
L 795.721725 229.326398 
L 797.047928 285.318892 
L 798.374131 321.573025 
L 799.700334 347.756565 
L 801.026537 328.421028 
L 802.352741 347.756565 
L 806.33135 347.756565 
L 807.657553 285.721716 
L 808.983757 347.756565 
L 812.962366 347.756565 
L 814.28857 278.068066 
L 815.614773 341.311386 
L 816.940976 347.756565 
L 818.267179 321.975849 
L 819.593382 293.375366 
L 820.919586 347.756565 
L 822.245789 347.756565 
L 823.571992 325.601262 
L 824.898195 307.071372 
L 826.224398 314.725022 
L 827.550602 316.739141 
L 828.876805 347.756565 
L 831.529211 347.756565 
L 832.855414 315.530669 
L 834.181618 287.333011 
L 835.507821 347.756565 
L 836.834024 340.102915 
L 838.160227 347.756565 
L 840.812634 347.756565 
L 842.138837 322.378672 
L 843.46504 347.756565 
L 844.791243 347.756565 
L 846.117447 300.223369 
L 847.44365 347.756565 
L 850.096056 347.756565 
L 851.422259 328.018204 
L 852.748463 347.756565 
L 854.074666 347.756565 
L 855.400869 294.181013 
L 856.727072 347.756565 
L 859.379479 347.756565 
L 860.705682 335.671854 
L 862.031885 336.880325 
L 863.358088 347.756565 
L 864.684291 312.710904 
L 866.010495 347.756565 
L 868.662901 347.756565 
L 869.989104 340.908562 
L 871.315307 329.226675 
L 872.641511 339.700091 
L 873.967714 337.685973 
L 875.293917 333.254912 
L 876.62012 347.756565 
L 877.946324 347.756565 
L 879.272527 310.696785 
L 880.59873 337.685973 
L 881.924933 335.671854 
L 883.251136 347.756565 
L 884.57734 332.449265 
L 885.903543 347.756565 
L 887.229746 347.756565 
L 888.555949 341.311386 
L 889.882152 310.293961 
L 892.534559 347.756565 
L 893.860762 342.922681 
L 895.186965 347.756565 
L 896.513168 347.756565 
L 897.839372 332.449265 
L 899.165575 322.378672 
L 900.491778 347.756565 
L 901.817981 338.894444 
L 903.144184 334.463383 
L 904.470388 347.756565 
L 905.796591 347.756565 
L 908.448997 304.65443 
L 909.775201 347.756565 
L 911.101404 347.756565 
L 912.427607 239.396991 
L 913.75381 347.756565 
L 915.080013 347.756565 
L 916.406217 325.198438 
L 917.73242 286.124539 
L 919.058623 255.509938 
L 920.384826 347.756565 
L 921.711029 347.756565 
L 923.037233 336.477502 
L 924.363436 289.749953 
L 925.689639 312.30808 
L 927.015842 323.18432 
L 928.342045 325.198438 
L 929.668249 309.08549 
L 930.994452 347.756565 
L 932.320655 305.057253 
L 933.646858 347.756565 
L 934.973061 303.848782 
L 936.299265 234.160282 
L 937.625468 314.725022 
L 938.951671 347.756565 
L 942.930281 347.756565 
L 944.256484 261.955118 
L 945.582687 347.756565 
L 946.90889 285.721716 
L 948.235094 327.61538 
L 949.561297 347.756565 
L 950.8875 292.569719 
L 952.213703 347.756565 
L 953.539906 347.756565 
L 954.86611 330.032323 
L 956.192313 347.756565 
L 957.518516 336.477502 
L 958.844719 331.240794 
L 960.170922 347.756565 
L 961.497126 347.756565 
L 962.823329 283.304774 
L 964.149532 347.756565 
L 966.801939 347.756565 
L 968.128142 222.881219 
L 969.454345 347.756565 
L 970.780548 347.756565 
L 972.106751 310.696785 
L 973.432955 317.544788 
L 974.759158 347.756565 
L 976.085361 347.756565 
L 977.411564 324.392791 
L 978.737767 347.756565 
L 980.063971 347.756565 
L 981.390174 274.442652 
L 982.716377 347.756565 
L 984.04258 338.088797 
L 985.368783 347.756565 
L 986.694987 326.406909 
L 988.02119 347.756565 
L 989.347393 347.756565 
L 990.673596 288.138658 
L 991.999799 347.756565 
L 993.326003 276.859594 
L 994.652206 347.756565 
L 995.978409 302.640311 
L 997.304612 328.823851 
L 998.630816 347.756565 
L 999.957019 296.195132 
L 1001.283222 347.756565 
L 1002.609425 326.406909 
L 1003.935628 326.406909 
L 1005.261832 347.756565 
L 1007.914238 347.756565 
L 1009.240441 342.117033 
L 1010.566644 304.65443 
L 1011.892848 342.117033 
L 1013.219051 336.477502 
L 1014.545254 347.756565 
L 1015.871457 342.519857 
L 1017.19766 347.756565 
L 1018.523864 346.548094 
L 1019.850067 347.756565 
L 1021.17627 340.505739 
L 1022.502473 346.14527 
L 1023.828676 345.742447 
L 1025.15488 347.756565 
L 1026.481083 347.756565 
L 1027.807286 338.088797 
L 1029.133489 346.950918 
L 1030.459693 344.131152 
L 1031.785896 347.756565 
L 1035.764505 347.756565 
L 1037.090709 319.156083 
L 1038.416912 284.513245 
L 1039.743115 329.226675 
L 1041.069318 329.629499 
L 1042.395521 347.756565 
L 1043.721725 347.756565 
L 1045.047928 206.768271 
L 1046.374131 286.124539 
L 1047.700334 347.756565 
L 1049.026537 347.756565 
L 1050.352741 236.980048 
L 1051.678944 347.756565 
L 1054.33135 347.756565 
L 1055.657553 50.8755 
L 1056.983757 347.756565 
L 1058.30996 262.760765 
L 1059.636163 312.710904 
L 1060.962366 294.181013 
L 1062.28857 306.668548 
L 1063.614773 299.820545 
L 1064.940976 311.502432 
L 1066.267179 347.756565 
L 1067.593382 347.756565 
L 1068.919586 221.269924 
L 1070.245789 347.756565 
L 1072.898195 347.756565 
L 1074.224398 209.990861 
L 1075.550602 305.057253 
L 1076.876805 347.756565 
L 1078.203008 347.756565 
L 1079.529211 238.994167 
L 1080.855414 347.756565 
L 1082.181618 298.612074 
L 1083.507821 300.626193 
L 1084.834024 328.823851 
L 1086.160227 344.131152 
L 1087.48643 340.102915 
L 1088.812634 334.866207 
L 1090.138837 347.756565 
L 1091.46504 335.671854 
L 1092.791243 342.117033 
L 1094.117447 318.753259 
L 1095.44365 321.170201 
L 1096.769853 331.240794 
L 1098.096056 347.756565 
L 1099.422259 347.756565 
L 1100.748463 321.975849 
L 1102.074666 334.06056 
L 1103.400869 336.880325 
L 1104.727072 342.922681 
L 1106.053275 332.852088 
L 1107.379479 347.756565 
L 1108.705682 346.14527 
L 1111.358088 347.756565 
L 1112.684291 347.756565 
L 1114.010495 344.533976 
L 1115.336698 346.548094 
L 1116.662901 336.074678 
L 1117.989104 346.548094 
L 1119.315307 347.756565 
L 1120.641511 347.756565 
L 1123.293917 335.671854 
L 1124.62012 346.548094 
L 1125.946324 345.742447 
L 1127.272527 344.533976 
L 1128.59873 341.71421 
L 1129.924933 347.756565 
L 1131.251136 342.922681 
L 1132.57734 345.742447 
L 1133.903543 347.756565 
L 1137.882152 347.756565 
L 1139.208356 335.269031 
L 1140.534559 346.950918 
L 1141.860762 347.756565 
L 1147.165575 347.756565 
L 1148.491778 340.505739 
L 1149.817981 347.756565 
L 1151.144184 341.311386 
L 1152.470388 346.950918 
L 1153.796591 347.756565 
L 1155.122794 346.950918 
L 1156.448997 347.756565 
L 1157.775201 340.505739 
L 1159.101404 347.756565 
L 1160.427607 344.533976 
L 1161.75381 347.756565 
L 1163.080013 346.548094 
L 1164.406217 344.936799 
L 1165.73242 347.756565 
L 1167.058623 347.353742 
L 1168.384826 347.756565 
L 1171.037233 347.756565 
L 1172.363436 344.533976 
L 1173.689639 347.756565 
L 1176.342045 347.756565 
L 1177.668249 339.297268 
L 1178.994452 347.756565 
L 1180.320655 347.756565 
L 1181.646858 337.685973 
L 1182.973061 347.756565 
L 1185.625468 347.756565 
L 1186.951671 341.71421 
L 1188.277874 347.756565 
L 1189.604078 347.756565 
L 1190.930281 333.657736 
L 1192.256484 347.756565 
L 1193.582687 347.756565 
L 1194.90889 344.936799 
L 1196.235094 347.756565 
L 1197.561297 345.339623 
L 1198.8875 347.756565 
L 1202.86611 347.756565 
L 1204.192313 346.14527 
L 1205.518516 347.756565 
L 1206.844719 347.756565 
L 1208.170922 345.339623 
L 1209.497126 347.756565 
L 1212.149532 347.756565 
L 1213.475735 342.922681 
L 1214.801939 347.756565 
L 1216.128142 347.756565 
L 1217.454345 344.131152 
L 1218.780548 342.922681 
L 1220.106751 347.756565 
L 1222.759158 347.756565 
L 1224.085361 333.657736 
L 1225.411564 347.756565 
L 1229.390174 347.756565 
L 1230.716377 340.102915 
L 1232.04258 347.756565 
L 1233.368783 340.505739 
L 1234.694987 330.435146 
L 1236.02119 342.519857 
L 1237.347393 340.505739 
L 1238.673596 347.756565 
L 1241.326003 347.756565 
L 1242.652206 328.421028 
L 1245.304612 347.756565 
L 1246.630816 331.240794 
L 1247.957019 347.756565 
L 1250.609425 347.756565 
L 1251.935628 335.671854 
L 1253.261832 339.700091 
L 1254.588035 347.756565 
L 1258.566644 347.756565 
L 1259.892848 323.18432 
L 1261.219051 347.756565 
L 1262.545254 303.043135 
L 1263.871457 347.756565 
L 1265.19766 338.894444 
L 1266.523864 326.406909 
L 1267.850067 347.756565 
L 1269.17627 303.848782 
L 1270.502473 323.587143 
L 1271.828676 315.530669 
L 1273.15488 347.756565 
L 1274.481083 326.406909 
L 1275.807286 347.756565 
L 1277.133489 347.756565 
L 1278.459693 317.947612 
L 1279.785896 347.756565 
L 1281.112099 311.502432 
L 1282.438302 347.756565 
L 1286.416912 347.756565 
L 1287.743115 290.958424 
L 1290.395521 347.756565 
L 1291.721725 311.502432 
L 1293.047928 347.756565 
L 1294.374131 334.463383 
L 1294.374131 334.463383 
" clip-path="url(#p060d54acc6)" style="fill: none; stroke: #0000ff; stroke-width: 1.5; stroke-linecap: square"/>
   </g>
   <g id="line2d_21">
    <path d="M 1054.33135 297.051811 
L 1055.657553 343.607071 
L 1056.983757 306.484384 
L 1058.30996 310.910177 
L 1059.636163 278.992483 
L 1060.962366 300.381026 
L 1062.28857 286.260529 
L 1063.614773 258.981237 
L 1064.940976 295.954827 
L 1066.267179 294.565164 
L 1067.593382 297.363837 
L 1068.919586 327.675903 
L 1070.245789 318.89865 
L 1071.571992 315.739409 
L 1072.898195 278.517344 
L 1074.224398 333.549838 
L 1075.550602 321.299123 
L 1076.876805 303.149753 
L 1078.203008 311.410015 
L 1079.529211 329.642267 
L 1080.855414 313.576044 
L 1082.181618 290.534261 
L 1083.507821 310.640766 
L 1084.834024 319.078626 
L 1086.160227 304.676626 
L 1087.48643 312.297918 
L 1088.812634 330.891429 
L 1090.138837 324.287975 
L 1091.46504 302.202186 
L 1092.791243 332.525669 
L 1094.117447 343.172502 
L 1095.44365 332.614127 
L 1096.769853 335.365897 
L 1098.096056 341.839835 
L 1099.422259 331.350626 
L 1100.748463 314.576757 
L 1102.074666 334.785584 
L 1103.400869 339.645906 
L 1104.727072 330.865794 
L 1106.053275 337.270075 
L 1107.379479 344.843052 
L 1108.705682 336.182768 
L 1110.031885 321.200027 
L 1111.358088 338.546846 
L 1112.684291 343.261802 
L 1114.010495 339.31426 
L 1115.336698 345.07632 
L 1116.662901 353.2755 
L 1117.989104 343.277843 
L 1119.315307 332.042686 
L 1120.641511 342.353239 
L 1121.967714 345.663332 
L 1123.293917 342.472318 
L 1124.62012 343.848488 
L 1125.946324 349.46033 
L 1127.272527 342.475122 
L 1128.59873 334.721348 
L 1129.924933 342.414514 
L 1131.251136 343.804091 
L 1132.57734 341.122131 
L 1133.903543 343.720265 
L 1135.229746 348.211042 
L 1136.555949 343.815273 
L 1137.882152 338.324675 
L 1139.208356 345.639831 
L 1140.534559 344.725574 
L 1141.860762 343.545605 
L 1143.186965 343.688517 
L 1144.513168 347.817235 
L 1145.839372 344.684701 
L 1147.165575 338.973957 
L 1148.491778 345.472816 
L 1151.144184 345.159254 
L 1152.470388 344.747243 
L 1153.796591 347.625954 
L 1155.122794 344.295465 
L 1156.448997 339.071975 
L 1157.775201 345.136216 
L 1159.101404 344.202055 
L 1160.427607 344.603524 
L 1161.75381 344.700398 
L 1163.080013 347.169938 
L 1164.406217 345.123019 
L 1165.73242 339.983514 
L 1167.058623 344.628528 
L 1168.384826 344.250198 
L 1169.711029 344.785025 
L 1171.037233 346.0187 
L 1172.363436 347.682462 
L 1173.689639 346.022517 
L 1175.015842 342.156875 
L 1176.342045 345.244434 
L 1177.668249 346.100348 
L 1178.994452 344.979462 
L 1180.320655 345.458495 
L 1181.646858 346.61805 
L 1182.973061 344.549212 
L 1184.299265 341.84513 
L 1185.625468 342.5237 
L 1186.951671 344.537992 
L 1188.277874 344.292111 
L 1189.604078 343.79649 
L 1190.930281 346.714669 
L 1192.256484 344.356903 
L 1193.582687 342.329165 
L 1194.90889 341.80515 
L 1196.235094 343.375056 
L 1197.561297 344.495842 
L 1198.8875 341.942004 
L 1200.213703 345.524163 
L 1201.539906 345.338641 
L 1202.86611 343.571301 
L 1204.192313 345.024377 
L 1206.844719 345.943666 
L 1208.170922 344.346546 
L 1209.497126 346.411994 
L 1210.823329 346.322293 
L 1212.149532 344.216726 
L 1213.475735 345.77402 
L 1214.801939 345.510209 
L 1216.128142 345.554625 
L 1217.454345 344.295525 
L 1218.780548 346.257576 
L 1220.106751 345.51944 
L 1221.432955 343.241139 
L 1222.759158 344.105994 
L 1224.085361 346.306579 
L 1225.411564 343.916982 
L 1226.737767 343.197486 
L 1228.063971 343.486589 
L 1229.390174 344.30713 
L 1230.716377 344.21632 
L 1232.04258 342.762749 
L 1233.368783 345.452098 
L 1234.694987 345.090419 
L 1236.02119 342.611732 
L 1237.347393 343.539781 
L 1238.673596 339.830473 
L 1239.999799 340.164825 
L 1241.326003 339.306445 
L 1242.652206 342.525088 
L 1243.978409 342.564486 
L 1245.304612 341.122566 
L 1246.630816 342.898775 
L 1247.957019 339.978897 
L 1249.283222 341.048447 
L 1250.609425 336.852438 
L 1251.935628 340.490627 
L 1253.261832 342.72755 
L 1254.588035 340.037898 
L 1255.914238 342.699265 
L 1257.240441 342.71133 
L 1258.566644 343.482248 
L 1259.892848 343.025597 
L 1261.219051 340.442928 
L 1262.545254 347.730952 
L 1263.871457 336.05803 
L 1265.19766 341.159154 
L 1266.523864 337.17176 
L 1267.850067 333.585433 
L 1269.17627 338.530987 
L 1270.502473 329.05183 
L 1271.828676 337.347456 
L 1273.15488 327.331154 
L 1274.481083 330.476611 
L 1275.807286 329.790323 
L 1277.133489 326.885871 
L 1278.459693 331.755216 
L 1279.785896 327.046208 
L 1281.112099 341.531558 
L 1282.438302 331.502546 
L 1283.764505 336.865597 
L 1285.090709 337.002496 
L 1286.416912 330.865594 
L 1287.743115 342.872655 
L 1289.069318 331.656757 
L 1290.395521 338.056403 
L 1291.721725 334.376686 
L 1293.047928 330.144097 
L 1294.374131 337.801941 
L 1294.374131 337.801941 
" clip-path="url(#p060d54acc6)" style="fill: none; stroke: #ffa500; stroke-width: 1.5; stroke-linecap: square"/>
   </g>
   <g id="line2d_22">
    <path d="M 1294.374131 337.801941 
L 1295.700334 320.878304 
L 1297.026537 331.305738 
L 1298.352741 328.607731 
L 1299.678944 333.219513 
L 1301.005147 334.507496 
L 1302.33135 335.006292 
L 1303.657553 336.407714 
L 1304.983757 324.484028 
L 1306.30996 331.108481 
L 1307.636163 329.27334 
L 1308.962366 333.156195 
L 1310.28857 334.628235 
L 1311.614773 334.902142 
" clip-path="url(#p060d54acc6)" style="fill: none; stroke: #ff0000; stroke-width: 1.5; stroke-linecap: square"/>
   </g>
   <g id="patch_3">
    <path d="M 33.2875 368.3955 
L 33.2875 35.7555 
" style="fill: none; stroke: #000000; stroke-width: 0.8; stroke-linejoin: miter; stroke-linecap: square"/>
   </g>
   <g id="patch_4">
    <path d="M 1372.4875 368.3955 
L 1372.4875 35.7555 
" style="fill: none; stroke: #000000; stroke-width: 0.8; stroke-linejoin: miter; stroke-linecap: square"/>
   </g>
   <g id="patch_5">
    <path d="M 33.2875 368.3955 
L 1372.4875 368.3955 
" style="fill: none; stroke: #000000; stroke-width: 0.8; stroke-linejoin: miter; stroke-linecap: square"/>
   </g>
   <g id="patch_6">
    <path d="M 33.2875 35.7555 
L 1372.4875 35.7555 
" style="fill: none; stroke: #000000; stroke-width: 0.8; stroke-linejoin: miter; stroke-linecap: square"/>
   </g>
   <g id="text_20">
    <!-- Daily Confirmed Cases Forecasting - Haiti -->
    <g transform="translate(578.512188 16.318125)scale(0.12 -0.12)">
     <defs>
      <path id="DejaVuSans-44" d="M 1259 4147 
L 1259 519 
L 2022 519 
Q 2988 519 3436 956 
Q 3884 1394 3884 2338 
Q 3884 3275 3436 3711 
Q 2988 4147 2022 4147 
L 1259 4147 
z
M 628 4666 
L 1925 4666 
Q 3281 4666 3915 4102 
Q 4550 3538 4550 2338 
Q 4550 1131 3912 565 
Q 3275 0 1925 0 
L 628 0 
L 628 4666 
z
" transform="scale(0.015625)"/>
      <path id="DejaVuSans-61" d="M 2194 1759 
Q 1497 1759 1228 1600 
Q 959 1441 959 1056 
Q 959 750 1161 570 
Q 1363 391 1709 391 
Q 2188 391 2477 730 
Q 2766 1069 2766 1631 
L 2766 1759 
L 2194 1759 
z
M 3341 1997 
L 3341 0 
L 2766 0 
L 2766 531 
Q 2569 213 2275 61 
Q 1981 -91 1556 -91 
Q 1019 -91 701 211 
Q 384 513 384 1019 
Q 384 1609 779 1909 
Q 1175 2209 1959 2209 
L 2766 2209 
L 2766 2266 
Q 2766 2663 2505 2880 
Q 2244 3097 1772 3097 
Q 1472 3097 1187 3025 
Q 903 2953 641 2809 
L 641 3341 
Q 956 3463 1253 3523 
Q 1550 3584 1831 3584 
Q 2591 3584 2966 3190 
Q 3341 2797 3341 1997 
z
" transform="scale(0.015625)"/>
      <path id="DejaVuSans-69" d="M 603 3500 
L 1178 3500 
L 1178 0 
L 603 0 
L 603 3500 
z
M 603 4863 
L 1178 4863 
L 1178 4134 
L 603 4134 
L 603 4863 
z
" transform="scale(0.015625)"/>
      <path id="DejaVuSans-6c" d="M 603 4863 
L 1178 4863 
L 1178 0 
L 603 0 
L 603 4863 
z
" transform="scale(0.015625)"/>
      <path id="DejaVuSans-79" d="M 2059 -325 
Q 1816 -950 1584 -1140 
Q 1353 -1331 966 -1331 
L 506 -1331 
L 506 -850 
L 844 -850 
Q 1081 -850 1212 -737 
Q 1344 -625 1503 -206 
L 1606 56 
L 191 3500 
L 800 3500 
L 1894 763 
L 2988 3500 
L 3597 3500 
L 2059 -325 
z
" transform="scale(0.015625)"/>
      <path id="DejaVuSans-20" transform="scale(0.015625)"/>
      <path id="DejaVuSans-43" d="M 4122 4306 
L 4122 3641 
Q 3803 3938 3442 4084 
Q 3081 4231 2675 4231 
Q 1875 4231 1450 3742 
Q 1025 3253 1025 2328 
Q 1025 1406 1450 917 
Q 1875 428 2675 428 
Q 3081 428 3442 575 
Q 3803 722 4122 1019 
L 4122 359 
Q 3791 134 3420 21 
Q 3050 -91 2638 -91 
Q 1578 -91 968 557 
Q 359 1206 359 2328 
Q 359 3453 968 4101 
Q 1578 4750 2638 4750 
Q 3056 4750 3426 4639 
Q 3797 4528 4122 4306 
z
" transform="scale(0.015625)"/>
      <path id="DejaVuSans-6f" d="M 1959 3097 
Q 1497 3097 1228 2736 
Q 959 2375 959 1747 
Q 959 1119 1226 758 
Q 1494 397 1959 397 
Q 2419 397 2687 759 
Q 2956 1122 2956 1747 
Q 2956 2369 2687 2733 
Q 2419 3097 1959 3097 
z
M 1959 3584 
Q 2709 3584 3137 3096 
Q 3566 2609 3566 1747 
Q 3566 888 3137 398 
Q 2709 -91 1959 -91 
Q 1206 -91 779 398 
Q 353 888 353 1747 
Q 353 2609 779 3096 
Q 1206 3584 1959 3584 
z
" transform="scale(0.015625)"/>
      <path id="DejaVuSans-6e" d="M 3513 2113 
L 3513 0 
L 2938 0 
L 2938 2094 
Q 2938 2591 2744 2837 
Q 2550 3084 2163 3084 
Q 1697 3084 1428 2787 
Q 1159 2491 1159 1978 
L 1159 0 
L 581 0 
L 581 3500 
L 1159 3500 
L 1159 2956 
Q 1366 3272 1645 3428 
Q 1925 3584 2291 3584 
Q 2894 3584 3203 3211 
Q 3513 2838 3513 2113 
z
" transform="scale(0.015625)"/>
      <path id="DejaVuSans-66" d="M 2375 4863 
L 2375 4384 
L 1825 4384 
Q 1516 4384 1395 4259 
Q 1275 4134 1275 3809 
L 1275 3500 
L 2222 3500 
L 2222 3053 
L 1275 3053 
L 1275 0 
L 697 0 
L 697 3053 
L 147 3053 
L 147 3500 
L 697 3500 
L 697 3744 
Q 697 4328 969 4595 
Q 1241 4863 1831 4863 
L 2375 4863 
z
" transform="scale(0.015625)"/>
      <path id="DejaVuSans-72" d="M 2631 2963 
Q 2534 3019 2420 3045 
Q 2306 3072 2169 3072 
Q 1681 3072 1420 2755 
Q 1159 2438 1159 1844 
L 1159 0 
L 581 0 
L 581 3500 
L 1159 3500 
L 1159 2956 
Q 1341 3275 1631 3429 
Q 1922 3584 2338 3584 
Q 2397 3584 2469 3576 
Q 2541 3569 2628 3553 
L 2631 2963 
z
" transform="scale(0.015625)"/>
      <path id="DejaVuSans-6d" d="M 3328 2828 
Q 3544 3216 3844 3400 
Q 4144 3584 4550 3584 
Q 5097 3584 5394 3201 
Q 5691 2819 5691 2113 
L 5691 0 
L 5113 0 
L 5113 2094 
Q 5113 2597 4934 2840 
Q 4756 3084 4391 3084 
Q 3944 3084 3684 2787 
Q 3425 2491 3425 1978 
L 3425 0 
L 2847 0 
L 2847 2094 
Q 2847 2600 2669 2842 
Q 2491 3084 2119 3084 
Q 1678 3084 1418 2786 
Q 1159 2488 1159 1978 
L 1159 0 
L 581 0 
L 581 3500 
L 1159 3500 
L 1159 2956 
Q 1356 3278 1631 3431 
Q 1906 3584 2284 3584 
Q 2666 3584 2933 3390 
Q 3200 3197 3328 2828 
z
" transform="scale(0.015625)"/>
      <path id="DejaVuSans-65" d="M 3597 1894 
L 3597 1613 
L 953 1613 
Q 991 1019 1311 708 
Q 1631 397 2203 397 
Q 2534 397 2845 478 
Q 3156 559 3463 722 
L 3463 178 
Q 3153 47 2828 -22 
Q 2503 -91 2169 -91 
Q 1331 -91 842 396 
Q 353 884 353 1716 
Q 353 2575 817 3079 
Q 1281 3584 2069 3584 
Q 2775 3584 3186 3129 
Q 3597 2675 3597 1894 
z
M 3022 2063 
Q 3016 2534 2758 2815 
Q 2500 3097 2075 3097 
Q 1594 3097 1305 2825 
Q 1016 2553 972 2059 
L 3022 2063 
z
" transform="scale(0.015625)"/>
      <path id="DejaVuSans-64" d="M 2906 2969 
L 2906 4863 
L 3481 4863 
L 3481 0 
L 2906 0 
L 2906 525 
Q 2725 213 2448 61 
Q 2172 -91 1784 -91 
Q 1150 -91 751 415 
Q 353 922 353 1747 
Q 353 2572 751 3078 
Q 1150 3584 1784 3584 
Q 2172 3584 2448 3432 
Q 2725 3281 2906 2969 
z
M 947 1747 
Q 947 1113 1208 752 
Q 1469 391 1925 391 
Q 2381 391 2643 752 
Q 2906 1113 2906 1747 
Q 2906 2381 2643 2742 
Q 2381 3103 1925 3103 
Q 1469 3103 1208 2742 
Q 947 2381 947 1747 
z
" transform="scale(0.015625)"/>
      <path id="DejaVuSans-73" d="M 2834 3397 
L 2834 2853 
Q 2591 2978 2328 3040 
Q 2066 3103 1784 3103 
Q 1356 3103 1142 2972 
Q 928 2841 928 2578 
Q 928 2378 1081 2264 
Q 1234 2150 1697 2047 
L 1894 2003 
Q 2506 1872 2764 1633 
Q 3022 1394 3022 966 
Q 3022 478 2636 193 
Q 2250 -91 1575 -91 
Q 1294 -91 989 -36 
Q 684 19 347 128 
L 347 722 
Q 666 556 975 473 
Q 1284 391 1588 391 
Q 1994 391 2212 530 
Q 2431 669 2431 922 
Q 2431 1156 2273 1281 
Q 2116 1406 1581 1522 
L 1381 1569 
Q 847 1681 609 1914 
Q 372 2147 372 2553 
Q 372 3047 722 3315 
Q 1072 3584 1716 3584 
Q 2034 3584 2315 3537 
Q 2597 3491 2834 3397 
z
" transform="scale(0.015625)"/>
      <path id="DejaVuSans-46" d="M 628 4666 
L 3309 4666 
L 3309 4134 
L 1259 4134 
L 1259 2759 
L 3109 2759 
L 3109 2228 
L 1259 2228 
L 1259 0 
L 628 0 
L 628 4666 
z
" transform="scale(0.015625)"/>
      <path id="DejaVuSans-63" d="M 3122 3366 
L 3122 2828 
Q 2878 2963 2633 3030 
Q 2388 3097 2138 3097 
Q 1578 3097 1268 2742 
Q 959 2388 959 1747 
Q 959 1106 1268 751 
Q 1578 397 2138 397 
Q 2388 397 2633 464 
Q 2878 531 3122 666 
L 3122 134 
Q 2881 22 2623 -34 
Q 2366 -91 2075 -91 
Q 1284 -91 818 406 
Q 353 903 353 1747 
Q 353 2603 823 3093 
Q 1294 3584 2113 3584 
Q 2378 3584 2631 3529 
Q 2884 3475 3122 3366 
z
" transform="scale(0.015625)"/>
      <path id="DejaVuSans-74" d="M 1172 4494 
L 1172 3500 
L 2356 3500 
L 2356 3053 
L 1172 3053 
L 1172 1153 
Q 1172 725 1289 603 
Q 1406 481 1766 481 
L 2356 481 
L 2356 0 
L 1766 0 
Q 1100 0 847 248 
Q 594 497 594 1153 
L 594 3053 
L 172 3053 
L 172 3500 
L 594 3500 
L 594 4494 
L 1172 4494 
z
" transform="scale(0.015625)"/>
      <path id="DejaVuSans-67" d="M 2906 1791 
Q 2906 2416 2648 2759 
Q 2391 3103 1925 3103 
Q 1463 3103 1205 2759 
Q 947 2416 947 1791 
Q 947 1169 1205 825 
Q 1463 481 1925 481 
Q 2391 481 2648 825 
Q 2906 1169 2906 1791 
z
M 3481 434 
Q 3481 -459 3084 -895 
Q 2688 -1331 1869 -1331 
Q 1566 -1331 1297 -1286 
Q 1028 -1241 775 -1147 
L 775 -588 
Q 1028 -725 1275 -790 
Q 1522 -856 1778 -856 
Q 2344 -856 2625 -561 
Q 2906 -266 2906 331 
L 2906 616 
Q 2728 306 2450 153 
Q 2172 0 1784 0 
Q 1141 0 747 490 
Q 353 981 353 1791 
Q 353 2603 747 3093 
Q 1141 3584 1784 3584 
Q 2172 3584 2450 3431 
Q 2728 3278 2906 2969 
L 2906 3500 
L 3481 3500 
L 3481 434 
z
" transform="scale(0.015625)"/>
      <path id="DejaVuSans-48" d="M 628 4666 
L 1259 4666 
L 1259 2753 
L 3553 2753 
L 3553 4666 
L 4184 4666 
L 4184 0 
L 3553 0 
L 3553 2222 
L 1259 2222 
L 1259 0 
L 628 0 
L 628 4666 
z
" transform="scale(0.015625)"/>
     </defs>
     <use xlink:href="#DejaVuSans-44"/>
     <use xlink:href="#DejaVuSans-61" x="77.001953"/>
     <use xlink:href="#DejaVuSans-69" x="138.28125"/>
     <use xlink:href="#DejaVuSans-6c" x="166.064453"/>
     <use xlink:href="#DejaVuSans-79" x="193.847656"/>
     <use xlink:href="#DejaVuSans-20" x="253.027344"/>
     <use xlink:href="#DejaVuSans-43" x="284.814453"/>
     <use xlink:href="#DejaVuSans-6f" x="354.638672"/>
     <use xlink:href="#DejaVuSans-6e" x="415.820312"/>
     <use xlink:href="#DejaVuSans-66" x="479.199219"/>
     <use xlink:href="#DejaVuSans-69" x="514.404297"/>
     <use xlink:href="#DejaVuSans-72" x="542.1875"/>
     <use xlink:href="#DejaVuSans-6d" x="581.550781"/>
     <use xlink:href="#DejaVuSans-65" x="678.962891"/>
     <use xlink:href="#DejaVuSans-64" x="740.486328"/>
     <use xlink:href="#DejaVuSans-20" x="803.962891"/>
     <use xlink:href="#DejaVuSans-43" x="835.75"/>
     <use xlink:href="#DejaVuSans-61" x="905.574219"/>
     <use xlink:href="#DejaVuSans-73" x="966.853516"/>
     <use xlink:href="#DejaVuSans-65" x="1018.953125"/>
     <use xlink:href="#DejaVuSans-73" x="1080.476562"/>
     <use xlink:href="#DejaVuSans-20" x="1132.576172"/>
     <use xlink:href="#DejaVuSans-46" x="1164.363281"/>
     <use xlink:href="#DejaVuSans-6f" x="1218.257812"/>
     <use xlink:href="#DejaVuSans-72" x="1279.439453"/>
     <use xlink:href="#DejaVuSans-65" x="1318.302734"/>
     <use xlink:href="#DejaVuSans-63" x="1379.826172"/>
     <use xlink:href="#DejaVuSans-61" x="1434.806641"/>
     <use xlink:href="#DejaVuSans-73" x="1496.085938"/>
     <use xlink:href="#DejaVuSans-74" x="1548.185547"/>
     <use xlink:href="#DejaVuSans-69" x="1587.394531"/>
     <use xlink:href="#DejaVuSans-6e" x="1615.177734"/>
     <use xlink:href="#DejaVuSans-67" x="1678.556641"/>
     <use xlink:href="#DejaVuSans-20" x="1742.033203"/>
     <use xlink:href="#DejaVuSans-2d" x="1773.820312"/>
     <use xlink:href="#DejaVuSans-20" x="1809.904297"/>
     <use xlink:href="#DejaVuSans-48" x="1841.691406"/>
     <use xlink:href="#DejaVuSans-61" x="1916.886719"/>
     <use xlink:href="#DejaVuSans-69" x="1978.166016"/>
     <use xlink:href="#DejaVuSans-74" x="2005.949219"/>
     <use xlink:href="#DejaVuSans-69" x="2045.158203"/>
    </g>
    <!-- ARIMA (4, 0, 1)x(1, 0, 1, 7) (R2 = -0.077961) -->
    <g transform="translate(568.73875 29.7555)scale(0.12 -0.12)">
     <defs>
      <path id="DejaVuSans-41" d="M 2188 4044 
L 1331 1722 
L 3047 1722 
L 2188 4044 
z
M 1831 4666 
L 2547 4666 
L 4325 0 
L 3669 0 
L 3244 1197 
L 1141 1197 
L 716 0 
L 50 0 
L 1831 4666 
z
" transform="scale(0.015625)"/>
      <path id="DejaVuSans-52" d="M 2841 2188 
Q 3044 2119 3236 1894 
Q 3428 1669 3622 1275 
L 4263 0 
L 3584 0 
L 2988 1197 
Q 2756 1666 2539 1819 
Q 2322 1972 1947 1972 
L 1259 1972 
L 1259 0 
L 628 0 
L 628 4666 
L 2053 4666 
Q 2853 4666 3247 4331 
Q 3641 3997 3641 3322 
Q 3641 2881 3436 2590 
Q 3231 2300 2841 2188 
z
M 1259 4147 
L 1259 2491 
L 2053 2491 
Q 2509 2491 2742 2702 
Q 2975 2913 2975 3322 
Q 2975 3731 2742 3939 
Q 2509 4147 2053 4147 
L 1259 4147 
z
" transform="scale(0.015625)"/>
      <path id="DejaVuSans-49" d="M 628 4666 
L 1259 4666 
L 1259 0 
L 628 0 
L 628 4666 
z
" transform="scale(0.015625)"/>
      <path id="DejaVuSans-4d" d="M 628 4666 
L 1569 4666 
L 2759 1491 
L 3956 4666 
L 4897 4666 
L 4897 0 
L 4281 0 
L 4281 4097 
L 3078 897 
L 2444 897 
L 1241 4097 
L 1241 0 
L 628 0 
L 628 4666 
z
" transform="scale(0.015625)"/>
      <path id="DejaVuSans-28" d="M 1984 4856 
Q 1566 4138 1362 3434 
Q 1159 2731 1159 2009 
Q 1159 1288 1364 580 
Q 1569 -128 1984 -844 
L 1484 -844 
Q 1016 -109 783 600 
Q 550 1309 550 2009 
Q 550 2706 781 3412 
Q 1013 4119 1484 4856 
L 1984 4856 
z
" transform="scale(0.015625)"/>
      <path id="DejaVuSans-2c" d="M 750 794 
L 1409 794 
L 1409 256 
L 897 -744 
L 494 -744 
L 750 256 
L 750 794 
z
" transform="scale(0.015625)"/>
      <path id="DejaVuSans-29" d="M 513 4856 
L 1013 4856 
Q 1481 4119 1714 3412 
Q 1947 2706 1947 2009 
Q 1947 1309 1714 600 
Q 1481 -109 1013 -844 
L 513 -844 
Q 928 -128 1133 580 
Q 1338 1288 1338 2009 
Q 1338 2731 1133 3434 
Q 928 4138 513 4856 
z
" transform="scale(0.015625)"/>
      <path id="DejaVuSans-78" d="M 3513 3500 
L 2247 1797 
L 3578 0 
L 2900 0 
L 1881 1375 
L 863 0 
L 184 0 
L 1544 1831 
L 300 3500 
L 978 3500 
L 1906 2253 
L 2834 3500 
L 3513 3500 
z
" transform="scale(0.015625)"/>
      <path id="DejaVuSans-3d" d="M 678 2906 
L 4684 2906 
L 4684 2381 
L 678 2381 
L 678 2906 
z
M 678 1631 
L 4684 1631 
L 4684 1100 
L 678 1100 
L 678 1631 
z
" transform="scale(0.015625)"/>
      <path id="DejaVuSans-2e" d="M 684 794 
L 1344 794 
L 1344 0 
L 684 0 
L 684 794 
z
" transform="scale(0.015625)"/>
      <path id="DejaVuSans-39" d="M 703 97 
L 703 672 
Q 941 559 1184 500 
Q 1428 441 1663 441 
Q 2288 441 2617 861 
Q 2947 1281 2994 2138 
Q 2813 1869 2534 1725 
Q 2256 1581 1919 1581 
Q 1219 1581 811 2004 
Q 403 2428 403 3163 
Q 403 3881 828 4315 
Q 1253 4750 1959 4750 
Q 2769 4750 3195 4129 
Q 3622 3509 3622 2328 
Q 3622 1225 3098 567 
Q 2575 -91 1691 -91 
Q 1453 -91 1209 -44 
Q 966 3 703 97 
z
M 1959 2075 
Q 2384 2075 2632 2365 
Q 2881 2656 2881 3163 
Q 2881 3666 2632 3958 
Q 2384 4250 1959 4250 
Q 1534 4250 1286 3958 
Q 1038 3666 1038 3163 
Q 1038 2656 1286 2365 
Q 1534 2075 1959 2075 
z
" transform="scale(0.015625)"/>
     </defs>
     <use xlink:href="#DejaVuSans-41"/>
     <use xlink:href="#DejaVuSans-52" x="68.408203"/>
     <use xlink:href="#DejaVuSans-49" x="137.890625"/>
     <use xlink:href="#DejaVuSans-4d" x="167.382812"/>
     <use xlink:href="#DejaVuSans-41" x="253.662109"/>
     <use xlink:href="#DejaVuSans-20" x="322.070312"/>
     <use xlink:href="#DejaVuSans-28" x="353.857422"/>
     <use xlink:href="#DejaVuSans-34" x="392.871094"/>
     <use xlink:href="#DejaVuSans-2c" x="456.494141"/>
     <use xlink:href="#DejaVuSans-20" x="488.28125"/>
     <use xlink:href="#DejaVuSans-30" x="520.068359"/>
     <use xlink:href="#DejaVuSans-2c" x="583.691406"/>
     <use xlink:href="#DejaVuSans-20" x="615.478516"/>
     <use xlink:href="#DejaVuSans-31" x="647.265625"/>
     <use xlink:href="#DejaVuSans-29" x="710.888672"/>
     <use xlink:href="#DejaVuSans-78" x="749.902344"/>
     <use xlink:href="#DejaVuSans-28" x="809.082031"/>
     <use xlink:href="#DejaVuSans-31" x="848.095703"/>
     <use xlink:href="#DejaVuSans-2c" x="911.71875"/>
     <use xlink:href="#DejaVuSans-20" x="943.505859"/>
     <use xlink:href="#DejaVuSans-30" x="975.292969"/>
     <use xlink:href="#DejaVuSans-2c" x="1038.916016"/>
     <use xlink:href="#DejaVuSans-20" x="1070.703125"/>
     <use xlink:href="#DejaVuSans-31" x="1102.490234"/>
     <use xlink:href="#DejaVuSans-2c" x="1166.113281"/>
     <use xlink:href="#DejaVuSans-20" x="1197.900391"/>
     <use xlink:href="#DejaVuSans-37" x="1229.6875"/>
     <use xlink:href="#DejaVuSans-29" x="1293.310547"/>
     <use xlink:href="#DejaVuSans-20" x="1332.324219"/>
     <use xlink:href="#DejaVuSans-28" x="1364.111328"/>
     <use xlink:href="#DejaVuSans-52" x="1403.125"/>
     <use xlink:href="#DejaVuSans-32" x="1472.607422"/>
     <use xlink:href="#DejaVuSans-20" x="1536.230469"/>
     <use xlink:href="#DejaVuSans-3d" x="1568.017578"/>
     <use xlink:href="#DejaVuSans-20" x="1651.806641"/>
     <use xlink:href="#DejaVuSans-2d" x="1683.59375"/>
     <use xlink:href="#DejaVuSans-30" x="1719.677734"/>
     <use xlink:href="#DejaVuSans-2e" x="1783.300781"/>
     <use xlink:href="#DejaVuSans-30" x="1815.087891"/>
     <use xlink:href="#DejaVuSans-37" x="1878.710938"/>
     <use xlink:href="#DejaVuSans-37" x="1942.333984"/>
     <use xlink:href="#DejaVuSans-39" x="2005.957031"/>
     <use xlink:href="#DejaVuSans-36" x="2069.580078"/>
     <use xlink:href="#DejaVuSans-31" x="2133.203125"/>
     <use xlink:href="#DejaVuSans-29" x="2196.826172"/>
    </g>
   </g>
   <g id="legend_1">
    <g id="patch_7">
     <path d="M 1268.407813 87.789875 
L 1365.4875 87.789875 
Q 1367.4875 87.789875 1367.4875 85.789875 
L 1367.4875 42.7555 
Q 1367.4875 40.7555 1365.4875 40.7555 
L 1268.407813 40.7555 
Q 1266.407813 40.7555 1266.407813 42.7555 
L 1266.407813 85.789875 
Q 1266.407813 87.789875 1268.407813 87.789875 
z
" style="fill: #ffffff; opacity: 0.8; stroke: #cccccc; stroke-linejoin: miter"/>
    </g>
    <g id="line2d_23">
     <path d="M 1270.407813 48.853937 
L 1280.407813 48.853937 
L 1290.407813 48.853937 
" style="fill: none; stroke: #0000ff; stroke-width: 1.5; stroke-linecap: square"/>
    </g>
    <g id="text_21">
     <!-- Actual Value -->
     <g transform="translate(1298.407813 52.353937)scale(0.1 -0.1)">
      <defs>
       <path id="DejaVuSans-75" d="M 544 1381 
L 544 3500 
L 1119 3500 
L 1119 1403 
Q 1119 906 1312 657 
Q 1506 409 1894 409 
Q 2359 409 2629 706 
Q 2900 1003 2900 1516 
L 2900 3500 
L 3475 3500 
L 3475 0 
L 2900 0 
L 2900 538 
Q 2691 219 2414 64 
Q 2138 -91 1772 -91 
Q 1169 -91 856 284 
Q 544 659 544 1381 
z
M 1991 3584 
L 1991 3584 
z
" transform="scale(0.015625)"/>
       <path id="DejaVuSans-56" d="M 1831 0 
L 50 4666 
L 709 4666 
L 2188 738 
L 3669 4666 
L 4325 4666 
L 2547 0 
L 1831 0 
z
" transform="scale(0.015625)"/>
      </defs>
      <use xlink:href="#DejaVuSans-41"/>
      <use xlink:href="#DejaVuSans-63" x="66.658203"/>
      <use xlink:href="#DejaVuSans-74" x="121.638672"/>
      <use xlink:href="#DejaVuSans-75" x="160.847656"/>
      <use xlink:href="#DejaVuSans-61" x="224.226562"/>
      <use xlink:href="#DejaVuSans-6c" x="285.505859"/>
      <use xlink:href="#DejaVuSans-20" x="313.289062"/>
      <use xlink:href="#DejaVuSans-56" x="345.076172"/>
      <use xlink:href="#DejaVuSans-61" x="405.734375"/>
      <use xlink:href="#DejaVuSans-6c" x="467.013672"/>
      <use xlink:href="#DejaVuSans-75" x="494.796875"/>
      <use xlink:href="#DejaVuSans-65" x="558.175781"/>
     </g>
    </g>
    <g id="line2d_24">
     <path d="M 1270.407813 63.532062 
L 1280.407813 63.532062 
L 1290.407813 63.532062 
" style="fill: none; stroke: #ffa500; stroke-width: 1.5; stroke-linecap: square"/>
    </g>
    <g id="text_22">
     <!-- Check Value -->
     <g transform="translate(1298.407813 67.032062)scale(0.1 -0.1)">
      <defs>
       <path id="DejaVuSans-68" d="M 3513 2113 
L 3513 0 
L 2938 0 
L 2938 2094 
Q 2938 2591 2744 2837 
Q 2550 3084 2163 3084 
Q 1697 3084 1428 2787 
Q 1159 2491 1159 1978 
L 1159 0 
L 581 0 
L 581 4863 
L 1159 4863 
L 1159 2956 
Q 1366 3272 1645 3428 
Q 1925 3584 2291 3584 
Q 2894 3584 3203 3211 
Q 3513 2838 3513 2113 
z
" transform="scale(0.015625)"/>
       <path id="DejaVuSans-6b" d="M 581 4863 
L 1159 4863 
L 1159 1991 
L 2875 3500 
L 3609 3500 
L 1753 1863 
L 3688 0 
L 2938 0 
L 1159 1709 
L 1159 0 
L 581 0 
L 581 4863 
z
" transform="scale(0.015625)"/>
      </defs>
      <use xlink:href="#DejaVuSans-43"/>
      <use xlink:href="#DejaVuSans-68" x="69.824219"/>
      <use xlink:href="#DejaVuSans-65" x="133.203125"/>
      <use xlink:href="#DejaVuSans-63" x="194.726562"/>
      <use xlink:href="#DejaVuSans-6b" x="249.707031"/>
      <use xlink:href="#DejaVuSans-20" x="307.617188"/>
      <use xlink:href="#DejaVuSans-56" x="339.404297"/>
      <use xlink:href="#DejaVuSans-61" x="400.0625"/>
      <use xlink:href="#DejaVuSans-6c" x="461.341797"/>
      <use xlink:href="#DejaVuSans-75" x="489.125"/>
      <use xlink:href="#DejaVuSans-65" x="552.503906"/>
     </g>
    </g>
    <g id="line2d_25">
     <path d="M 1270.407813 78.210187 
L 1280.407813 78.210187 
L 1290.407813 78.210187 
" style="fill: none; stroke: #ff0000; stroke-width: 1.5; stroke-linecap: square"/>
    </g>
    <g id="text_23">
     <!-- Predict Value -->
     <g transform="translate(1298.407813 81.710187)scale(0.1 -0.1)">
      <defs>
       <path id="DejaVuSans-50" d="M 1259 4147 
L 1259 2394 
L 2053 2394 
Q 2494 2394 2734 2622 
Q 2975 2850 2975 3272 
Q 2975 3691 2734 3919 
Q 2494 4147 2053 4147 
L 1259 4147 
z
M 628 4666 
L 2053 4666 
Q 2838 4666 3239 4311 
Q 3641 3956 3641 3272 
Q 3641 2581 3239 2228 
Q 2838 1875 2053 1875 
L 1259 1875 
L 1259 0 
L 628 0 
L 628 4666 
z
" transform="scale(0.015625)"/>
      </defs>
      <use xlink:href="#DejaVuSans-50"/>
      <use xlink:href="#DejaVuSans-72" x="58.552734"/>
      <use xlink:href="#DejaVuSans-65" x="97.416016"/>
      <use xlink:href="#DejaVuSans-64" x="158.939453"/>
      <use xlink:href="#DejaVuSans-69" x="222.416016"/>
      <use xlink:href="#DejaVuSans-63" x="250.199219"/>
      <use xlink:href="#DejaVuSans-74" x="305.179688"/>
      <use xlink:href="#DejaVuSans-20" x="344.388672"/>
      <use xlink:href="#DejaVuSans-56" x="376.175781"/>
      <use xlink:href="#DejaVuSans-61" x="436.833984"/>
      <use xlink:href="#DejaVuSans-6c" x="498.113281"/>
      <use xlink:href="#DejaVuSans-75" x="525.896484"/>
      <use xlink:href="#DejaVuSans-65" x="589.275391"/>
     </g>
    </g>
   </g>
  </g>
 </g>
 <defs>
  <clipPath id="p060d54acc6">
   <rect x="33.2875" y="35.7555" width="1339.2" height="332.64"/>
  </clipPath>
 </defs>
</svg>
