<?xml version="1.0" encoding="utf-8" standalone="no"?>
<!DOCTYPE svg PUBLIC "-//W3C//DTD SVG 1.1//EN"
  "http://www.w3.org/Graphics/SVG/1.1/DTD/svg11.dtd">
<svg xmlns:xlink="http://www.w3.org/1999/xlink" width="1386.05pt" height="392.273625pt" viewBox="0 0 1386.05 392.273625" xmlns="http://www.w3.org/2000/svg" version="1.1">
 <metadata>
  <rdf:RDF xmlns:dc="http://purl.org/dc/elements/1.1/" xmlns:cc="http://creativecommons.org/ns#" xmlns:rdf="http://www.w3.org/1999/02/22-rdf-syntax-ns#">
   <cc:Work>
    <dc:type rdf:resource="http://purl.org/dc/dcmitype/StillImage"/>
    <dc:date>2022-07-15T19:16:56.443190</dc:date>
    <dc:format>image/svg+xml</dc:format>
    <dc:creator>
     <cc:Agent>
      <dc:title>Matplotlib v3.5.2, https://matplotlib.org/</dc:title>
     </cc:Agent>
    </dc:creator>
   </cc:Work>
  </rdf:RDF>
 </metadata>
 <defs>
  <style type="text/css">*{stroke-linejoin: round; stroke-linecap: butt}</style>
 </defs>
 <g id="figure_1">
  <g id="patch_1">
   <path d="M 0 392.273625 
L 1386.05 392.273625 
L 1386.05 0 
L 0 0 
z
" style="fill: #ffffff"/>
  </g>
  <g id="axes_1">
   <g id="patch_2">
    <path d="M 39.65 368.3955 
L 1378.85 368.3955 
L 1378.85 35.7555 
L 39.65 35.7555 
z
" style="fill: #ffffff"/>
   </g>
   <g id="matplotlib.axis_1">
    <g id="xtick_1">
     <g id="line2d_1">
      <defs>
       <path id="m9f4e4f3af5" d="M 0 0 
L 0 3.5 
" style="stroke: #000000; stroke-width: 0.8"/>
      </defs>
      <g>
       <use xlink:href="#m9f4e4f3af5" x="71.282553" y="368.3955" style="stroke: #000000; stroke-width: 0.8"/>
      </g>
     </g>
     <g id="text_1">
      <!-- 2020-01 -->
      <g transform="translate(50.391146 382.993937)scale(0.1 -0.1)">
       <defs>
        <path id="DejaVuSans-32" d="M 1228 531 
L 3431 531 
L 3431 0 
L 469 0 
L 469 531 
Q 828 903 1448 1529 
Q 2069 2156 2228 2338 
Q 2531 2678 2651 2914 
Q 2772 3150 2772 3378 
Q 2772 3750 2511 3984 
Q 2250 4219 1831 4219 
Q 1534 4219 1204 4116 
Q 875 4013 500 3803 
L 500 4441 
Q 881 4594 1212 4672 
Q 1544 4750 1819 4750 
Q 2544 4750 2975 4387 
Q 3406 4025 3406 3419 
Q 3406 3131 3298 2873 
Q 3191 2616 2906 2266 
Q 2828 2175 2409 1742 
Q 1991 1309 1228 531 
z
" transform="scale(0.015625)"/>
        <path id="DejaVuSans-30" d="M 2034 4250 
Q 1547 4250 1301 3770 
Q 1056 3291 1056 2328 
Q 1056 1369 1301 889 
Q 1547 409 2034 409 
Q 2525 409 2770 889 
Q 3016 1369 3016 2328 
Q 3016 3291 2770 3770 
Q 2525 4250 2034 4250 
z
M 2034 4750 
Q 2819 4750 3233 4129 
Q 3647 3509 3647 2328 
Q 3647 1150 3233 529 
Q 2819 -91 2034 -91 
Q 1250 -91 836 529 
Q 422 1150 422 2328 
Q 422 3509 836 4129 
Q 1250 4750 2034 4750 
z
" transform="scale(0.015625)"/>
        <path id="DejaVuSans-2d" d="M 313 2009 
L 1997 2009 
L 1997 1497 
L 313 1497 
L 313 2009 
z
" transform="scale(0.015625)"/>
        <path id="DejaVuSans-31" d="M 794 531 
L 1825 531 
L 1825 4091 
L 703 3866 
L 703 4441 
L 1819 4666 
L 2450 4666 
L 2450 531 
L 3481 531 
L 3481 0 
L 794 0 
L 794 531 
z
" transform="scale(0.015625)"/>
       </defs>
       <use xlink:href="#DejaVuSans-32"/>
       <use xlink:href="#DejaVuSans-30" x="63.623047"/>
       <use xlink:href="#DejaVuSans-32" x="127.246094"/>
       <use xlink:href="#DejaVuSans-30" x="190.869141"/>
       <use xlink:href="#DejaVuSans-2d" x="254.492188"/>
       <use xlink:href="#DejaVuSans-30" x="290.576172"/>
       <use xlink:href="#DejaVuSans-31" x="354.199219"/>
      </g>
     </g>
    </g>
    <g id="xtick_2">
     <g id="line2d_2">
      <g>
       <use xlink:href="#m9f4e4f3af5" x="192.230548" y="368.3955" style="stroke: #000000; stroke-width: 0.8"/>
      </g>
     </g>
     <g id="text_2">
      <!-- 2020-04 -->
      <g transform="translate(171.339142 382.993937)scale(0.1 -0.1)">
       <defs>
        <path id="DejaVuSans-34" d="M 2419 4116 
L 825 1625 
L 2419 1625 
L 2419 4116 
z
M 2253 4666 
L 3047 4666 
L 3047 1625 
L 3713 1625 
L 3713 1100 
L 3047 1100 
L 3047 0 
L 2419 0 
L 2419 1100 
L 313 1100 
L 313 1709 
L 2253 4666 
z
" transform="scale(0.015625)"/>
       </defs>
       <use xlink:href="#DejaVuSans-32"/>
       <use xlink:href="#DejaVuSans-30" x="63.623047"/>
       <use xlink:href="#DejaVuSans-32" x="127.246094"/>
       <use xlink:href="#DejaVuSans-30" x="190.869141"/>
       <use xlink:href="#DejaVuSans-2d" x="254.492188"/>
       <use xlink:href="#DejaVuSans-30" x="290.576172"/>
       <use xlink:href="#DejaVuSans-34" x="354.199219"/>
      </g>
     </g>
    </g>
    <g id="xtick_3">
     <g id="line2d_3">
      <g>
       <use xlink:href="#m9f4e4f3af5" x="313.178543" y="368.3955" style="stroke: #000000; stroke-width: 0.8"/>
      </g>
     </g>
     <g id="text_3">
      <!-- 2020-07 -->
      <g transform="translate(292.287137 382.993937)scale(0.1 -0.1)">
       <defs>
        <path id="DejaVuSans-37" d="M 525 4666 
L 3525 4666 
L 3525 4397 
L 1831 0 
L 1172 0 
L 2766 4134 
L 525 4134 
L 525 4666 
z
" transform="scale(0.015625)"/>
       </defs>
       <use xlink:href="#DejaVuSans-32"/>
       <use xlink:href="#DejaVuSans-30" x="63.623047"/>
       <use xlink:href="#DejaVuSans-32" x="127.246094"/>
       <use xlink:href="#DejaVuSans-30" x="190.869141"/>
       <use xlink:href="#DejaVuSans-2d" x="254.492188"/>
       <use xlink:href="#DejaVuSans-30" x="290.576172"/>
       <use xlink:href="#DejaVuSans-37" x="354.199219"/>
      </g>
     </g>
    </g>
    <g id="xtick_4">
     <g id="line2d_4">
      <g>
       <use xlink:href="#m9f4e4f3af5" x="435.455637" y="368.3955" style="stroke: #000000; stroke-width: 0.8"/>
      </g>
     </g>
     <g id="text_4">
      <!-- 2020-10 -->
      <g transform="translate(414.564231 382.993937)scale(0.1 -0.1)">
       <use xlink:href="#DejaVuSans-32"/>
       <use xlink:href="#DejaVuSans-30" x="63.623047"/>
       <use xlink:href="#DejaVuSans-32" x="127.246094"/>
       <use xlink:href="#DejaVuSans-30" x="190.869141"/>
       <use xlink:href="#DejaVuSans-2d" x="254.492188"/>
       <use xlink:href="#DejaVuSans-31" x="290.576172"/>
       <use xlink:href="#DejaVuSans-30" x="354.199219"/>
      </g>
     </g>
    </g>
    <g id="xtick_5">
     <g id="line2d_5">
      <g>
       <use xlink:href="#m9f4e4f3af5" x="557.732731" y="368.3955" style="stroke: #000000; stroke-width: 0.8"/>
      </g>
     </g>
     <g id="text_5">
      <!-- 2021-01 -->
      <g transform="translate(536.841325 382.993937)scale(0.1 -0.1)">
       <use xlink:href="#DejaVuSans-32"/>
       <use xlink:href="#DejaVuSans-30" x="63.623047"/>
       <use xlink:href="#DejaVuSans-32" x="127.246094"/>
       <use xlink:href="#DejaVuSans-31" x="190.869141"/>
       <use xlink:href="#DejaVuSans-2d" x="254.492188"/>
       <use xlink:href="#DejaVuSans-30" x="290.576172"/>
       <use xlink:href="#DejaVuSans-31" x="354.199219"/>
      </g>
     </g>
    </g>
    <g id="xtick_6">
     <g id="line2d_6">
      <g>
       <use xlink:href="#m9f4e4f3af5" x="677.351628" y="368.3955" style="stroke: #000000; stroke-width: 0.8"/>
      </g>
     </g>
     <g id="text_6">
      <!-- 2021-04 -->
      <g transform="translate(656.460221 382.993937)scale(0.1 -0.1)">
       <use xlink:href="#DejaVuSans-32"/>
       <use xlink:href="#DejaVuSans-30" x="63.623047"/>
       <use xlink:href="#DejaVuSans-32" x="127.246094"/>
       <use xlink:href="#DejaVuSans-31" x="190.869141"/>
       <use xlink:href="#DejaVuSans-2d" x="254.492188"/>
       <use xlink:href="#DejaVuSans-30" x="290.576172"/>
       <use xlink:href="#DejaVuSans-34" x="354.199219"/>
      </g>
     </g>
    </g>
    <g id="xtick_7">
     <g id="line2d_7">
      <g>
       <use xlink:href="#m9f4e4f3af5" x="798.299623" y="368.3955" style="stroke: #000000; stroke-width: 0.8"/>
      </g>
     </g>
     <g id="text_7">
      <!-- 2021-07 -->
      <g transform="translate(777.408217 382.993937)scale(0.1 -0.1)">
       <use xlink:href="#DejaVuSans-32"/>
       <use xlink:href="#DejaVuSans-30" x="63.623047"/>
       <use xlink:href="#DejaVuSans-32" x="127.246094"/>
       <use xlink:href="#DejaVuSans-31" x="190.869141"/>
       <use xlink:href="#DejaVuSans-2d" x="254.492188"/>
       <use xlink:href="#DejaVuSans-30" x="290.576172"/>
       <use xlink:href="#DejaVuSans-37" x="354.199219"/>
      </g>
     </g>
    </g>
    <g id="xtick_8">
     <g id="line2d_8">
      <g>
       <use xlink:href="#m9f4e4f3af5" x="920.576717" y="368.3955" style="stroke: #000000; stroke-width: 0.8"/>
      </g>
     </g>
     <g id="text_8">
      <!-- 2021-10 -->
      <g transform="translate(899.685311 382.993937)scale(0.1 -0.1)">
       <use xlink:href="#DejaVuSans-32"/>
       <use xlink:href="#DejaVuSans-30" x="63.623047"/>
       <use xlink:href="#DejaVuSans-32" x="127.246094"/>
       <use xlink:href="#DejaVuSans-31" x="190.869141"/>
       <use xlink:href="#DejaVuSans-2d" x="254.492188"/>
       <use xlink:href="#DejaVuSans-31" x="290.576172"/>
       <use xlink:href="#DejaVuSans-30" x="354.199219"/>
      </g>
     </g>
    </g>
    <g id="xtick_9">
     <g id="line2d_9">
      <g>
       <use xlink:href="#m9f4e4f3af5" x="1042.853811" y="368.3955" style="stroke: #000000; stroke-width: 0.8"/>
      </g>
     </g>
     <g id="text_9">
      <!-- 2022-01 -->
      <g transform="translate(1021.962405 382.993937)scale(0.1 -0.1)">
       <use xlink:href="#DejaVuSans-32"/>
       <use xlink:href="#DejaVuSans-30" x="63.623047"/>
       <use xlink:href="#DejaVuSans-32" x="127.246094"/>
       <use xlink:href="#DejaVuSans-32" x="190.869141"/>
       <use xlink:href="#DejaVuSans-2d" x="254.492188"/>
       <use xlink:href="#DejaVuSans-30" x="290.576172"/>
       <use xlink:href="#DejaVuSans-31" x="354.199219"/>
      </g>
     </g>
    </g>
    <g id="xtick_10">
     <g id="line2d_10">
      <g>
       <use xlink:href="#m9f4e4f3af5" x="1162.472707" y="368.3955" style="stroke: #000000; stroke-width: 0.8"/>
      </g>
     </g>
     <g id="text_10">
      <!-- 2022-04 -->
      <g transform="translate(1141.581301 382.993937)scale(0.1 -0.1)">
       <use xlink:href="#DejaVuSans-32"/>
       <use xlink:href="#DejaVuSans-30" x="63.623047"/>
       <use xlink:href="#DejaVuSans-32" x="127.246094"/>
       <use xlink:href="#DejaVuSans-32" x="190.869141"/>
       <use xlink:href="#DejaVuSans-2d" x="254.492188"/>
       <use xlink:href="#DejaVuSans-30" x="290.576172"/>
       <use xlink:href="#DejaVuSans-34" x="354.199219"/>
      </g>
     </g>
    </g>
    <g id="xtick_11">
     <g id="line2d_11">
      <g>
       <use xlink:href="#m9f4e4f3af5" x="1283.420703" y="368.3955" style="stroke: #000000; stroke-width: 0.8"/>
      </g>
     </g>
     <g id="text_11">
      <!-- 2022-07 -->
      <g transform="translate(1262.529296 382.993937)scale(0.1 -0.1)">
       <use xlink:href="#DejaVuSans-32"/>
       <use xlink:href="#DejaVuSans-30" x="63.623047"/>
       <use xlink:href="#DejaVuSans-32" x="127.246094"/>
       <use xlink:href="#DejaVuSans-32" x="190.869141"/>
       <use xlink:href="#DejaVuSans-2d" x="254.492188"/>
       <use xlink:href="#DejaVuSans-30" x="290.576172"/>
       <use xlink:href="#DejaVuSans-37" x="354.199219"/>
      </g>
     </g>
    </g>
   </g>
   <g id="matplotlib.axis_2">
    <g id="ytick_1">
     <g id="line2d_12">
      <defs>
       <path id="mabc5540abf" d="M 0 0 
L -3.5 0 
" style="stroke: #000000; stroke-width: 0.8"/>
      </defs>
      <g>
       <use xlink:href="#mabc5540abf" x="39.65" y="344.173832" style="stroke: #000000; stroke-width: 0.8"/>
      </g>
     </g>
     <g id="text_12">
      <!-- 0 -->
      <g transform="translate(26.2875 347.973051)scale(0.1 -0.1)">
       <use xlink:href="#DejaVuSans-30"/>
      </g>
     </g>
    </g>
    <g id="ytick_2">
     <g id="line2d_13">
      <g>
       <use xlink:href="#mabc5540abf" x="39.65" y="281.089646" style="stroke: #000000; stroke-width: 0.8"/>
      </g>
     </g>
     <g id="text_13">
      <!-- 500 -->
      <g transform="translate(13.5625 284.888865)scale(0.1 -0.1)">
       <defs>
        <path id="DejaVuSans-35" d="M 691 4666 
L 3169 4666 
L 3169 4134 
L 1269 4134 
L 1269 2991 
Q 1406 3038 1543 3061 
Q 1681 3084 1819 3084 
Q 2600 3084 3056 2656 
Q 3513 2228 3513 1497 
Q 3513 744 3044 326 
Q 2575 -91 1722 -91 
Q 1428 -91 1123 -41 
Q 819 9 494 109 
L 494 744 
Q 775 591 1075 516 
Q 1375 441 1709 441 
Q 2250 441 2565 725 
Q 2881 1009 2881 1497 
Q 2881 1984 2565 2268 
Q 2250 2553 1709 2553 
Q 1456 2553 1204 2497 
Q 953 2441 691 2322 
L 691 4666 
z
" transform="scale(0.015625)"/>
       </defs>
       <use xlink:href="#DejaVuSans-35"/>
       <use xlink:href="#DejaVuSans-30" x="63.623047"/>
       <use xlink:href="#DejaVuSans-30" x="127.246094"/>
      </g>
     </g>
    </g>
    <g id="ytick_3">
     <g id="line2d_14">
      <g>
       <use xlink:href="#mabc5540abf" x="39.65" y="218.005461" style="stroke: #000000; stroke-width: 0.8"/>
      </g>
     </g>
     <g id="text_14">
      <!-- 1000 -->
      <g transform="translate(7.2 221.80468)scale(0.1 -0.1)">
       <use xlink:href="#DejaVuSans-31"/>
       <use xlink:href="#DejaVuSans-30" x="63.623047"/>
       <use xlink:href="#DejaVuSans-30" x="127.246094"/>
       <use xlink:href="#DejaVuSans-30" x="190.869141"/>
      </g>
     </g>
    </g>
    <g id="ytick_4">
     <g id="line2d_15">
      <g>
       <use xlink:href="#mabc5540abf" x="39.65" y="154.921275" style="stroke: #000000; stroke-width: 0.8"/>
      </g>
     </g>
     <g id="text_15">
      <!-- 1500 -->
      <g transform="translate(7.2 158.720494)scale(0.1 -0.1)">
       <use xlink:href="#DejaVuSans-31"/>
       <use xlink:href="#DejaVuSans-35" x="63.623047"/>
       <use xlink:href="#DejaVuSans-30" x="127.246094"/>
       <use xlink:href="#DejaVuSans-30" x="190.869141"/>
      </g>
     </g>
    </g>
    <g id="ytick_5">
     <g id="line2d_16">
      <g>
       <use xlink:href="#mabc5540abf" x="39.65" y="91.83709" style="stroke: #000000; stroke-width: 0.8"/>
      </g>
     </g>
     <g id="text_16">
      <!-- 2000 -->
      <g transform="translate(7.2 95.636309)scale(0.1 -0.1)">
       <use xlink:href="#DejaVuSans-32"/>
       <use xlink:href="#DejaVuSans-30" x="63.623047"/>
       <use xlink:href="#DejaVuSans-30" x="127.246094"/>
       <use xlink:href="#DejaVuSans-30" x="190.869141"/>
      </g>
     </g>
    </g>
   </g>
   <g id="line2d_17">
    <path d="M 100.522727 344.173832 
L 156.344879 344.173832 
L 157.673978 344.047663 
L 159.003077 344.173832 
L 174.952263 344.173832 
L 176.281362 344.047663 
L 177.610461 344.173832 
L 184.255955 344.173832 
L 185.585054 344.047663 
L 186.914152 344.173832 
L 188.243251 344.047663 
L 189.57235 344.173832 
L 192.230548 344.173832 
L 193.559647 344.047663 
L 194.888746 344.173832 
L 217.483426 344.173832 
L 218.812525 344.047663 
L 220.141624 344.173832 
L 221.470723 344.047663 
L 222.799821 344.173832 
L 244.065403 344.173832 
L 245.394502 343.921495 
L 246.723601 343.921495 
L 248.052699 343.669158 
L 249.381798 343.54299 
L 250.710897 344.047663 
L 252.039996 344.173832 
L 260.014589 344.173832 
L 261.343688 343.795327 
L 262.672787 344.173832 
L 264.001886 343.795327 
L 265.330985 344.173832 
L 266.660083 344.047663 
L 267.989182 343.795327 
L 269.318281 344.173832 
L 270.64738 343.921495 
L 271.976479 342.912148 
L 273.305578 344.173832 
L 274.634676 343.669158 
L 275.963775 344.173832 
L 277.292874 344.173832 
L 278.621973 344.047663 
L 279.951072 344.173832 
L 281.280171 342.78598 
L 282.60927 344.173832 
L 285.267467 344.173832 
L 286.596566 343.795327 
L 287.925665 344.173832 
L 289.254764 343.669158 
L 290.583863 344.173832 
L 291.912961 344.047663 
L 293.24206 344.173832 
L 295.900258 344.173832 
L 297.229357 344.047663 
L 298.558456 344.173832 
L 301.216653 344.173832 
L 302.545752 343.921495 
L 303.874851 344.173832 
L 306.533049 344.173832 
L 307.862148 343.54299 
L 309.191247 344.047663 
L 310.520345 344.047663 
L 311.849444 344.173832 
L 315.836741 344.173832 
L 318.494938 343.921495 
L 319.824037 344.173832 
L 325.140433 344.173832 
L 326.469532 343.921495 
L 327.79863 343.921495 
L 329.127729 344.173832 
L 331.785927 344.173832 
L 333.115026 343.921495 
L 335.773224 344.173832 
L 337.102322 343.921495 
L 338.431421 344.047663 
L 339.76052 343.921495 
L 341.089619 344.173832 
L 345.076915 344.173832 
L 346.406014 343.795327 
L 347.735113 343.669158 
L 349.064212 344.173832 
L 350.393311 344.173832 
L 351.72241 343.921495 
L 353.051509 344.173832 
L 354.380607 344.047663 
L 355.709706 344.173832 
L 358.367904 343.921495 
L 359.697003 344.173832 
L 361.026102 343.795327 
L 362.3552 344.173832 
L 363.684299 344.173832 
L 365.013398 343.921495 
L 366.342497 344.173832 
L 367.671596 343.795327 
L 369.000695 344.173832 
L 370.329794 342.281306 
L 371.658892 343.54299 
L 372.987991 344.173832 
L 374.31709 343.54299 
L 375.646189 343.795327 
L 376.975288 343.416822 
L 378.304387 344.173832 
L 379.633486 343.416822 
L 380.962584 344.047663 
L 382.291683 344.047663 
L 383.620782 344.173832 
L 384.949881 344.047663 
L 386.27898 342.02897 
L 387.608079 344.173832 
L 388.937177 342.78598 
L 390.266276 342.78598 
L 391.595375 344.173832 
L 392.924474 340.514949 
L 394.253573 344.047663 
L 395.582672 343.921495 
L 396.911771 344.173832 
L 398.240869 344.173832 
L 399.569968 344.047663 
L 400.899067 344.173832 
L 402.228166 344.173832 
L 403.557265 343.54299 
L 404.886364 344.047663 
L 406.215462 344.173832 
L 407.544561 343.669158 
L 408.87366 343.795327 
L 410.202759 343.795327 
L 411.531858 344.047663 
L 412.860957 344.173832 
L 414.190056 344.047663 
L 415.519154 344.173832 
L 416.848253 344.173832 
L 418.177352 343.416822 
L 419.506451 343.290653 
L 420.83555 343.921495 
L 422.164649 344.173832 
L 424.822846 344.173832 
L 426.151945 343.921495 
L 427.481044 344.173832 
L 428.810143 343.164485 
L 430.139242 343.921495 
L 431.468341 343.290653 
L 432.797439 344.047663 
L 434.126538 344.047663 
L 435.455637 344.173832 
L 436.784736 344.047663 
L 438.113835 344.173832 
L 439.442934 342.281306 
L 440.772033 344.047663 
L 442.101131 344.047663 
L 443.43023 343.669158 
L 444.759329 344.173832 
L 446.088428 343.921495 
L 447.417527 344.173832 
L 448.746626 343.795327 
L 450.075724 344.173832 
L 451.404823 343.669158 
L 452.733922 343.795327 
L 454.063021 344.173832 
L 455.39212 344.173832 
L 456.721219 343.038317 
L 458.050318 343.921495 
L 459.379416 343.795327 
L 460.708515 344.047663 
L 462.037614 344.047663 
L 463.366713 343.669158 
L 464.695812 344.173832 
L 466.024911 343.669158 
L 468.683108 344.173832 
L 470.012207 343.795327 
L 471.341306 344.047663 
L 472.670405 344.173832 
L 473.999504 343.921495 
L 475.328603 344.047663 
L 476.657701 343.54299 
L 477.9868 343.921495 
L 479.315899 343.921495 
L 480.644998 344.173832 
L 483.303196 344.173832 
L 484.632295 344.047663 
L 485.961393 344.173832 
L 487.290492 343.54299 
L 488.619591 344.173832 
L 489.94869 344.173832 
L 491.277789 343.54299 
L 492.606888 344.173832 
L 493.935987 343.416822 
L 495.265085 344.173832 
L 496.594184 343.921495 
L 499.252382 344.173832 
L 501.91058 344.173832 
L 503.239678 344.047663 
L 504.568777 343.795327 
L 505.897876 343.669158 
L 507.226975 344.173832 
L 508.556074 344.173832 
L 511.214272 343.416822 
L 512.54337 344.047663 
L 513.872469 344.173832 
L 515.201568 342.407475 
L 516.530667 343.669158 
L 517.859766 344.047663 
L 519.188865 343.795327 
L 520.517963 343.416822 
L 521.847062 343.921495 
L 523.176161 343.669158 
L 524.50526 343.921495 
L 527.163458 344.173832 
L 529.821655 343.921495 
L 531.150754 344.047663 
L 532.479853 344.047663 
L 533.808952 344.173832 
L 535.138051 344.047663 
L 536.46715 344.047663 
L 537.796249 344.173832 
L 539.125347 343.795327 
L 540.454446 344.173832 
L 541.783545 343.795327 
L 543.112644 340.010276 
L 544.441743 344.173832 
L 545.770842 339.127097 
L 547.09994 344.173832 
L 548.429039 336.982235 
L 549.758138 341.524296 
L 551.087237 340.893454 
L 552.416336 344.173832 
L 553.745435 342.533643 
L 555.074534 341.776633 
L 556.403632 342.281306 
L 557.732731 341.776633 
L 559.06183 341.524296 
L 560.390929 343.416822 
L 561.720028 341.902801 
L 563.049127 344.173832 
L 564.378225 341.524296 
L 567.036423 343.669158 
L 568.365522 339.253265 
L 569.694621 343.795327 
L 571.02372 342.659811 
L 572.352819 343.416822 
L 573.681917 343.921495 
L 575.011016 344.047663 
L 577.669214 343.54299 
L 578.998313 344.173832 
L 580.327412 344.047663 
L 581.656511 343.54299 
L 582.985609 343.921495 
L 584.314708 344.173832 
L 585.643807 344.047663 
L 586.972906 343.795327 
L 588.302005 344.047663 
L 589.631104 344.047663 
L 590.960202 344.173832 
L 592.289301 344.173832 
L 593.6184 344.047663 
L 594.947499 344.047663 
L 596.276598 344.173832 
L 597.605697 344.047663 
L 598.934796 344.173832 
L 602.922092 344.173832 
L 604.251191 343.921495 
L 605.58029 344.173832 
L 612.225784 344.173832 
L 613.554883 343.921495 
L 614.883982 344.173832 
L 617.542179 343.921495 
L 618.871278 344.173832 
L 626.845871 344.173832 
L 628.17497 344.047663 
L 629.504069 344.173832 
L 641.465959 344.173832 
L 642.795058 344.047663 
L 644.124156 344.173832 
L 660.073343 344.173832 
L 661.402441 344.047663 
L 662.73154 344.173832 
L 665.389738 344.173832 
L 666.718837 344.047663 
L 668.047936 344.173832 
L 669.377035 344.173832 
L 670.706133 344.047663 
L 672.035232 344.047663 
L 673.364331 344.173832 
L 674.69343 344.173832 
L 676.022529 344.047663 
L 677.351628 342.533643 
L 678.680726 343.795327 
L 680.009825 343.921495 
L 681.338924 344.173832 
L 682.668023 344.173832 
L 683.997122 343.54299 
L 685.326221 343.669158 
L 686.65532 344.173832 
L 687.984418 343.416822 
L 689.313517 343.669158 
L 690.642616 343.164485 
L 691.971715 343.795327 
L 693.300814 343.416822 
L 694.629913 343.921495 
L 695.959012 343.54299 
L 697.28811 343.290653 
L 698.617209 342.78598 
L 699.946308 343.54299 
L 701.275407 343.669158 
L 702.604506 343.54299 
L 703.933605 341.650464 
L 705.262703 343.416822 
L 706.591802 342.155138 
L 709.25 343.669158 
L 710.579099 343.669158 
L 711.908198 340.767286 
L 713.237297 343.416822 
L 715.895494 343.164485 
L 717.224593 340.136444 
L 718.553692 343.54299 
L 719.882791 343.164485 
L 721.21189 342.155138 
L 722.540988 343.038317 
L 723.870087 342.02897 
L 725.199186 340.514949 
L 726.528285 342.659811 
L 727.857384 341.776633 
L 729.186483 341.650464 
L 730.515582 343.416822 
L 731.84468 342.912148 
L 733.173779 343.416822 
L 734.502878 342.533643 
L 735.831977 343.795327 
L 737.161076 343.290653 
L 739.819274 342.533643 
L 741.148372 342.533643 
L 742.477471 342.155138 
L 743.80657 339.631771 
L 745.135669 341.902801 
L 746.464768 343.921495 
L 747.793867 342.02897 
L 749.122965 342.659811 
L 750.452064 339.000929 
L 753.110262 342.659811 
L 754.439361 331.556995 
L 755.76846 343.038317 
L 757.097559 343.164485 
L 758.426657 342.659811 
L 759.755756 343.290653 
L 761.084855 342.281306 
L 762.413954 342.281306 
L 763.743053 342.533643 
L 765.072152 343.54299 
L 766.40125 342.155138 
L 767.730349 341.524296 
L 769.059448 342.281306 
L 770.388547 340.388781 
L 771.717646 341.650464 
L 773.046745 341.776633 
L 774.375844 343.54299 
L 775.704942 342.533643 
L 777.034041 342.155138 
L 778.36314 342.659811 
L 779.692239 340.641117 
L 781.021338 343.290653 
L 783.679536 341.524296 
L 785.008634 342.281306 
L 786.337733 341.145791 
L 787.666832 343.290653 
L 788.995931 339.631771 
L 790.32503 343.290653 
L 791.654129 342.407475 
L 792.983227 341.019623 
L 794.312326 342.912148 
L 795.641425 342.407475 
L 796.970524 341.145791 
L 798.299623 343.669158 
L 799.628722 341.902801 
L 800.957821 342.78598 
L 802.286919 340.893454 
L 803.616018 342.912148 
L 804.945117 339.000929 
L 806.274216 339.253265 
L 807.603315 343.795327 
L 808.932414 343.416822 
L 810.261513 343.164485 
L 811.590611 343.038317 
L 812.91971 342.281306 
L 814.248809 339.884107 
L 815.577908 338.370087 
L 816.907007 342.912148 
L 818.236106 341.902801 
L 819.565204 342.533643 
L 820.894303 342.912148 
L 822.223402 343.416822 
L 823.552501 340.641117 
L 824.8816 344.047663 
L 826.210699 343.921495 
L 827.539798 342.659811 
L 828.868896 342.659811 
L 830.197995 343.669158 
L 831.527094 343.795327 
L 832.856193 342.78598 
L 834.185292 344.047663 
L 835.514391 343.54299 
L 836.843489 343.921495 
L 838.172588 343.290653 
L 839.501687 343.795327 
L 840.830786 343.416822 
L 842.159885 343.164485 
L 843.488984 343.164485 
L 844.818083 343.795327 
L 846.147181 344.047663 
L 847.47628 344.173832 
L 848.805379 344.173832 
L 851.463577 343.669158 
L 852.792676 344.047663 
L 854.121775 343.921495 
L 855.450873 342.533643 
L 856.779972 343.669158 
L 858.109071 344.047663 
L 859.43817 343.416822 
L 860.767269 344.173832 
L 862.096368 344.173832 
L 863.425466 343.795327 
L 864.754565 344.173832 
L 866.083664 343.54299 
L 867.412763 344.173832 
L 868.741862 344.173832 
L 870.070961 343.416822 
L 871.40006 344.173832 
L 872.729158 344.173832 
L 875.387356 343.921495 
L 876.716455 344.173832 
L 878.045554 344.047663 
L 879.374653 344.047663 
L 880.703751 344.173832 
L 901.969333 344.173832 
L 903.298432 344.047663 
L 904.627531 344.173832 
L 905.95663 344.173832 
L 907.285728 343.921495 
L 908.614827 344.173832 
L 915.260322 344.173832 
L 916.58942 344.047663 
L 917.918519 344.047663 
L 919.247618 344.173832 
L 921.905816 344.173832 
L 923.234915 343.290653 
L 924.564013 344.173832 
L 925.893112 343.54299 
L 927.222211 344.173832 
L 935.196804 344.173832 
L 936.525903 343.921495 
L 937.855002 344.047663 
L 939.184101 344.047663 
L 940.5132 344.173832 
L 953.804188 344.173832 
L 955.133287 343.795327 
L 956.462386 344.047663 
L 957.791485 344.173832 
L 963.10788 344.173832 
L 964.436979 344.047663 
L 965.766078 344.173832 
L 967.095177 344.047663 
L 968.424276 344.173832 
L 976.398869 344.173832 
L 977.727967 343.921495 
L 979.057066 344.173832 
L 981.715264 344.173832 
L 983.044363 343.669158 
L 984.373462 344.173832 
L 985.702561 343.795327 
L 987.031659 344.173832 
L 989.689857 344.173832 
L 991.018956 344.047663 
L 992.348055 344.173832 
L 993.677154 344.173832 
L 996.335351 343.921495 
L 997.66445 343.669158 
L 998.993549 344.173832 
L 1004.309944 344.173832 
L 1005.639043 344.047663 
L 1006.968142 344.173832 
L 1009.62634 344.173832 
L 1010.955439 344.047663 
L 1012.284538 343.416822 
L 1013.613636 344.047663 
L 1014.942735 344.173832 
L 1018.930032 344.173832 
L 1020.259131 343.795327 
L 1021.588229 344.173832 
L 1022.917328 343.669158 
L 1024.246427 344.173832 
L 1025.575526 344.047663 
L 1026.904625 344.173832 
L 1028.233724 344.047663 
L 1029.562823 344.047663 
L 1030.891921 344.173832 
L 1033.550119 344.173832 
L 1034.879218 344.047663 
L 1036.208317 344.173832 
L 1044.18291 344.173832 
L 1045.512009 343.669158 
L 1046.841108 343.921495 
L 1048.170206 343.795327 
L 1049.499305 343.921495 
L 1050.828404 333.828025 
L 1052.157503 343.290653 
L 1053.486602 341.524296 
L 1054.815701 341.524296 
L 1056.1448 340.641117 
L 1057.473898 343.290653 
L 1058.802997 339.631771 
L 1060.132096 342.533643 
L 1061.461195 341.902801 
L 1062.790294 341.145791 
L 1064.119393 326.384092 
L 1066.77759 336.729898 
L 1068.106689 333.071015 
L 1069.435788 326.384092 
L 1070.764887 331.683163 
L 1072.093986 332.566342 
L 1073.423085 323.734556 
L 1074.752183 326.51026 
L 1077.410381 327.014933 
L 1078.73948 318.309316 
L 1080.068579 327.014933 
L 1081.397678 329.159796 
L 1082.726776 318.183147 
L 1084.055875 304.8093 
L 1085.384974 320.201841 
L 1086.714073 326.636428 
L 1088.043172 320.454178 
L 1089.372271 317.1738 
L 1090.70137 324.239229 
L 1092.030468 317.930811 
L 1093.359567 324.113061 
L 1094.688666 320.32801 
L 1096.017765 327.645775 
L 1098.675963 314.524265 
L 1100.005062 315.155107 
L 1101.33416 314.271928 
L 1102.663259 312.631739 
L 1103.992358 296.103683 
L 1105.321457 295.472841 
L 1106.650556 277.6831 
L 1107.979655 300.393407 
L 1109.308753 278.440111 
L 1110.637852 339.884107 
L 1111.966951 333.575689 
L 1113.29605 304.05229 
L 1114.625149 281.59432 
L 1115.954248 298.879387 
L 1117.283347 287.271897 
L 1118.612445 296.986861 
L 1119.941544 280.080299 
L 1121.270643 289.29059 
L 1122.599742 293.95882 
L 1123.928841 304.935468 
L 1125.25794 309.603698 
L 1126.587039 302.412101 
L 1127.916137 300.393407 
L 1129.245236 303.673785 
L 1130.574335 288.53358 
L 1133.232533 302.412101 
L 1134.561632 295.094336 
L 1135.89073 283.10834 
L 1137.219829 284.874697 
L 1138.548928 213.968073 
L 1139.878027 245.383997 
L 1141.207126 258.253171 
L 1142.536225 267.715799 
L 1143.865324 269.98683 
L 1145.194422 300.014902 
L 1146.523521 300.771912 
L 1147.85262 296.103683 
L 1149.181719 313.893423 
L 1150.510818 277.304595 
L 1151.839917 261.028875 
L 1153.169015 280.83731 
L 1154.498114 288.028907 
L 1155.827213 303.926122 
L 1157.156312 344.173832 
L 1158.485411 243.743809 
L 1159.81451 207.028813 
L 1161.143609 200.594226 
L 1162.472707 213.211063 
L 1163.801806 228.855941 
L 1165.130905 169.556806 
L 1166.460004 282.35133 
L 1167.789103 190.374588 
L 1169.118202 55.122094 
L 1170.447301 140.790418 
L 1171.776399 107.986641 
L 1173.105498 128.678254 
L 1174.434597 143.187617 
L 1175.763696 264.183085 
L 1177.092795 66.603416 
L 1178.421894 75.309033 
L 1179.750992 107.103463 
L 1181.080091 171.701669 
L 1182.40919 171.701669 
L 1183.738289 218.510134 
L 1185.067388 305.313974 
L 1186.396487 156.435296 
L 1187.725586 216.239104 
L 1189.054684 256.486814 
L 1190.383783 306.070984 
L 1191.712882 251.187742 
L 1194.37108 326.762597 
L 1195.700179 285.631708 
L 1197.029277 310.108372 
L 1198.358376 314.776601 
L 1199.687475 321.715862 
L 1201.016574 330.421479 
L 1202.345673 337.108403 
L 1203.674772 340.641117 
L 1205.003871 340.767286 
L 1206.332969 333.575689 
L 1207.662068 336.099056 
L 1208.991167 340.641117 
L 1210.320266 340.010276 
L 1211.649365 342.407475 
L 1212.978464 342.281306 
L 1214.307563 341.902801 
L 1215.636661 342.912148 
L 1216.96576 342.659811 
L 1218.294859 342.659811 
L 1219.623958 343.921495 
L 1220.953057 343.669158 
L 1222.282156 343.669158 
L 1223.611254 344.173832 
L 1230.256749 344.173832 
L 1231.585848 339.127097 
L 1232.914946 344.173832 
L 1239.560441 344.173832 
L 1240.889539 342.407475 
L 1242.218638 344.173832 
L 1248.864133 344.173832 
L 1250.193231 343.164485 
L 1251.52233 344.173832 
L 1258.167825 344.173832 
L 1259.496923 343.164485 
L 1260.826022 344.173832 
L 1267.471516 344.173832 
L 1268.800615 340.388781 
L 1270.129714 344.173832 
L 1276.775208 344.173832 
L 1278.104307 337.234571 
L 1279.433406 344.173832 
L 1286.0789 344.173832 
L 1287.407999 332.187837 
L 1288.737098 344.173832 
L 1295.382592 344.173832 
L 1296.711691 329.538301 
L 1298.04079 344.173832 
L 1300.698988 344.173832 
L 1300.698988 344.173832 
" clip-path="url(#pf88e81f8f9)" style="fill: none; stroke: #0000ff; stroke-width: 1.5; stroke-linecap: square"/>
   </g>
   <g id="line2d_18">
    <path d="M 1061.461195 342.53923 
L 1062.790294 341.58662 
L 1064.119393 334.40806 
L 1065.448491 332.946745 
L 1066.77759 332.674096 
L 1068.106689 334.189984 
L 1069.435788 330.951433 
L 1070.764887 329.94099 
L 1072.093986 322.237828 
L 1073.423085 325.605925 
L 1074.752183 330.186907 
L 1076.081282 325.996652 
L 1077.410381 322.388799 
L 1078.73948 323.422356 
L 1080.068579 325.667968 
L 1081.397678 323.178509 
L 1082.726776 321.982941 
L 1084.055875 314.032716 
L 1085.384974 316.208105 
L 1086.714073 315.888034 
L 1088.043172 323.14258 
L 1089.372271 323.540904 
L 1090.70137 316.692135 
L 1092.030468 309.066147 
L 1093.359567 325.21796 
L 1094.688666 328.167985 
L 1097.346864 321.005728 
L 1098.675963 320.154776 
L 1100.005062 315.797382 
L 1101.33416 318.248161 
L 1102.663259 312.505079 
L 1103.992358 307.900121 
L 1105.321457 297.869916 
L 1106.650556 282.881115 
L 1107.979655 290.036944 
L 1109.308753 284.331324 
L 1110.637852 309.292416 
L 1111.966951 314.894336 
L 1113.29605 308.723708 
L 1114.625149 291.060594 
L 1115.954248 302.573565 
L 1117.283347 283.060884 
L 1118.612445 325.257758 
L 1119.941544 302.854629 
L 1121.270643 274.601062 
L 1122.599742 272.316937 
L 1123.928841 294.307698 
L 1125.25794 300.369615 
L 1126.587039 308.140208 
L 1127.916137 292.371167 
L 1129.245236 301.181856 
L 1130.574335 301.652529 
L 1131.903434 305.433114 
L 1133.232533 306.817944 
L 1134.561632 294.705745 
L 1135.89073 288.803389 
L 1137.219829 288.364857 
L 1138.548928 242.450724 
L 1139.878027 244.35709 
L 1141.207126 252.4228 
L 1142.536225 251.638144 
L 1143.865324 261.354826 
L 1145.194422 278.152944 
L 1146.523521 250.032923 
L 1147.85262 293.271395 
L 1149.181719 315.536481 
L 1150.510818 302.158817 
L 1151.839917 287.003688 
L 1153.169015 296.930454 
L 1154.498114 290.94512 
L 1155.827213 299.359685 
L 1157.156312 331.125834 
L 1158.485411 265.895307 
L 1159.81451 227.79784 
L 1161.143609 221.281525 
L 1162.472707 209.878966 
L 1163.801806 233.645217 
L 1165.130905 224.702202 
L 1166.460004 190.658498 
L 1167.789103 170.022783 
L 1169.118202 110.598496 
L 1170.447301 135.806659 
L 1171.776399 119.675433 
L 1173.105498 87.12203 
L 1174.434597 186.897697 
L 1175.763696 169.513782 
L 1177.092795 50.8755 
L 1178.421894 112.970215 
L 1179.750992 88.465106 
L 1181.080091 130.442823 
L 1182.40919 180.883376 
L 1183.738289 257.759863 
L 1185.067388 180.535351 
L 1186.396487 176.594917 
L 1187.725586 217.518244 
L 1189.054684 273.78034 
L 1190.383783 291.331176 
L 1191.712882 304.072137 
L 1193.041981 340.645097 
L 1194.37108 255.040827 
L 1195.700179 300.343749 
L 1197.029277 332.492259 
L 1198.358376 347.820838 
L 1199.687475 305.416948 
L 1201.016574 332.473386 
L 1202.345673 353.2755 
L 1203.674772 331.09906 
L 1205.003871 349.783656 
L 1206.332969 338.036507 
L 1207.662068 340.038737 
L 1208.991167 348.934119 
L 1210.320266 344.989417 
L 1211.649365 344.87853 
L 1212.978464 344.566382 
L 1214.307563 337.237122 
L 1215.636661 341.730386 
L 1216.96576 344.665803 
L 1218.294859 342.502377 
L 1219.623958 344.783202 
L 1220.953057 343.637019 
L 1222.282156 343.390292 
L 1223.611254 345.110883 
L 1224.940353 344.158786 
L 1226.269452 344.004537 
L 1227.598551 344.952983 
L 1228.92765 344.216219 
L 1230.256749 344.27202 
L 1231.585848 342.078307 
L 1234.244045 343.404024 
L 1235.573144 343.659112 
L 1236.902243 344.42226 
L 1238.231342 343.952212 
L 1239.560441 341.231246 
L 1240.889539 344.674888 
L 1242.218638 344.60057 
L 1243.547737 344.347794 
L 1244.876836 344.332778 
L 1246.205935 344.082003 
L 1247.535034 344.23977 
L 1248.864133 343.421472 
L 1250.193231 344.061497 
L 1256.838726 344.158152 
L 1258.167825 343.653827 
L 1259.496923 343.935287 
L 1262.155121 344.090645 
L 1266.142418 344.153729 
L 1267.471516 343.635363 
L 1268.800615 342.603657 
L 1270.129714 343.261381 
L 1271.458813 343.627741 
L 1272.787912 343.830261 
L 1274.117011 344.3925 
L 1275.44611 344.034637 
L 1276.775208 342.025789 
L 1278.104307 341.845794 
L 1279.433406 342.875277 
L 1280.762505 343.361622 
L 1282.091604 343.685681 
L 1283.420703 344.484543 
L 1284.749802 343.976065 
L 1286.0789 340.34381 
L 1287.407999 340.214713 
L 1288.737098 341.946155 
L 1290.066197 342.793475 
L 1291.395296 343.336107 
L 1292.724395 344.707045 
L 1294.053493 343.83444 
L 1295.382592 337.567859 
L 1296.711691 340.261945 
L 1298.04079 342.044128 
L 1299.369889 342.80658 
L 1300.698988 343.374052 
L 1300.698988 343.374052 
" clip-path="url(#pf88e81f8f9)" style="fill: none; stroke: #ffa500; stroke-width: 1.5; stroke-linecap: square"/>
   </g>
   <g id="line2d_19">
    <path d="M 1300.698988 343.374052 
L 1302.028087 344.296554 
L 1303.357185 343.682144 
L 1304.686284 335.948032 
L 1306.015383 343.775007 
L 1307.344482 344.012646 
L 1308.673581 343.81213 
L 1310.00268 343.480779 
L 1311.331778 343.924914 
L 1312.660877 343.641775 
L 1313.989976 339.821737 
L 1315.319075 343.683366 
L 1316.648174 343.783241 
L 1317.977273 343.69613 
" clip-path="url(#pf88e81f8f9)" style="fill: none; stroke: #ff0000; stroke-width: 1.5; stroke-linecap: square"/>
   </g>
   <g id="patch_3">
    <path d="M 39.65 368.3955 
L 39.65 35.7555 
" style="fill: none; stroke: #000000; stroke-width: 0.8; stroke-linejoin: miter; stroke-linecap: square"/>
   </g>
   <g id="patch_4">
    <path d="M 1378.85 368.3955 
L 1378.85 35.7555 
" style="fill: none; stroke: #000000; stroke-width: 0.8; stroke-linejoin: miter; stroke-linecap: square"/>
   </g>
   <g id="patch_5">
    <path d="M 39.65 368.3955 
L 1378.85 368.3955 
" style="fill: none; stroke: #000000; stroke-width: 0.8; stroke-linejoin: miter; stroke-linecap: square"/>
   </g>
   <g id="patch_6">
    <path d="M 39.65 35.7555 
L 1378.85 35.7555 
" style="fill: none; stroke: #000000; stroke-width: 0.8; stroke-linejoin: miter; stroke-linecap: square"/>
   </g>
   <g id="text_17">
    <!-- Daily Confirmed Cases Forecasting - Bhutan -->
    <g transform="translate(577.196563 16.318125)scale(0.12 -0.12)">
     <defs>
      <path id="DejaVuSans-44" d="M 1259 4147 
L 1259 519 
L 2022 519 
Q 2988 519 3436 956 
Q 3884 1394 3884 2338 
Q 3884 3275 3436 3711 
Q 2988 4147 2022 4147 
L 1259 4147 
z
M 628 4666 
L 1925 4666 
Q 3281 4666 3915 4102 
Q 4550 3538 4550 2338 
Q 4550 1131 3912 565 
Q 3275 0 1925 0 
L 628 0 
L 628 4666 
z
" transform="scale(0.015625)"/>
      <path id="DejaVuSans-61" d="M 2194 1759 
Q 1497 1759 1228 1600 
Q 959 1441 959 1056 
Q 959 750 1161 570 
Q 1363 391 1709 391 
Q 2188 391 2477 730 
Q 2766 1069 2766 1631 
L 2766 1759 
L 2194 1759 
z
M 3341 1997 
L 3341 0 
L 2766 0 
L 2766 531 
Q 2569 213 2275 61 
Q 1981 -91 1556 -91 
Q 1019 -91 701 211 
Q 384 513 384 1019 
Q 384 1609 779 1909 
Q 1175 2209 1959 2209 
L 2766 2209 
L 2766 2266 
Q 2766 2663 2505 2880 
Q 2244 3097 1772 3097 
Q 1472 3097 1187 3025 
Q 903 2953 641 2809 
L 641 3341 
Q 956 3463 1253 3523 
Q 1550 3584 1831 3584 
Q 2591 3584 2966 3190 
Q 3341 2797 3341 1997 
z
" transform="scale(0.015625)"/>
      <path id="DejaVuSans-69" d="M 603 3500 
L 1178 3500 
L 1178 0 
L 603 0 
L 603 3500 
z
M 603 4863 
L 1178 4863 
L 1178 4134 
L 603 4134 
L 603 4863 
z
" transform="scale(0.015625)"/>
      <path id="DejaVuSans-6c" d="M 603 4863 
L 1178 4863 
L 1178 0 
L 603 0 
L 603 4863 
z
" transform="scale(0.015625)"/>
      <path id="DejaVuSans-79" d="M 2059 -325 
Q 1816 -950 1584 -1140 
Q 1353 -1331 966 -1331 
L 506 -1331 
L 506 -850 
L 844 -850 
Q 1081 -850 1212 -737 
Q 1344 -625 1503 -206 
L 1606 56 
L 191 3500 
L 800 3500 
L 1894 763 
L 2988 3500 
L 3597 3500 
L 2059 -325 
z
" transform="scale(0.015625)"/>
      <path id="DejaVuSans-20" transform="scale(0.015625)"/>
      <path id="DejaVuSans-43" d="M 4122 4306 
L 4122 3641 
Q 3803 3938 3442 4084 
Q 3081 4231 2675 4231 
Q 1875 4231 1450 3742 
Q 1025 3253 1025 2328 
Q 1025 1406 1450 917 
Q 1875 428 2675 428 
Q 3081 428 3442 575 
Q 3803 722 4122 1019 
L 4122 359 
Q 3791 134 3420 21 
Q 3050 -91 2638 -91 
Q 1578 -91 968 557 
Q 359 1206 359 2328 
Q 359 3453 968 4101 
Q 1578 4750 2638 4750 
Q 3056 4750 3426 4639 
Q 3797 4528 4122 4306 
z
" transform="scale(0.015625)"/>
      <path id="DejaVuSans-6f" d="M 1959 3097 
Q 1497 3097 1228 2736 
Q 959 2375 959 1747 
Q 959 1119 1226 758 
Q 1494 397 1959 397 
Q 2419 397 2687 759 
Q 2956 1122 2956 1747 
Q 2956 2369 2687 2733 
Q 2419 3097 1959 3097 
z
M 1959 3584 
Q 2709 3584 3137 3096 
Q 3566 2609 3566 1747 
Q 3566 888 3137 398 
Q 2709 -91 1959 -91 
Q 1206 -91 779 398 
Q 353 888 353 1747 
Q 353 2609 779 3096 
Q 1206 3584 1959 3584 
z
" transform="scale(0.015625)"/>
      <path id="DejaVuSans-6e" d="M 3513 2113 
L 3513 0 
L 2938 0 
L 2938 2094 
Q 2938 2591 2744 2837 
Q 2550 3084 2163 3084 
Q 1697 3084 1428 2787 
Q 1159 2491 1159 1978 
L 1159 0 
L 581 0 
L 581 3500 
L 1159 3500 
L 1159 2956 
Q 1366 3272 1645 3428 
Q 1925 3584 2291 3584 
Q 2894 3584 3203 3211 
Q 3513 2838 3513 2113 
z
" transform="scale(0.015625)"/>
      <path id="DejaVuSans-66" d="M 2375 4863 
L 2375 4384 
L 1825 4384 
Q 1516 4384 1395 4259 
Q 1275 4134 1275 3809 
L 1275 3500 
L 2222 3500 
L 2222 3053 
L 1275 3053 
L 1275 0 
L 697 0 
L 697 3053 
L 147 3053 
L 147 3500 
L 697 3500 
L 697 3744 
Q 697 4328 969 4595 
Q 1241 4863 1831 4863 
L 2375 4863 
z
" transform="scale(0.015625)"/>
      <path id="DejaVuSans-72" d="M 2631 2963 
Q 2534 3019 2420 3045 
Q 2306 3072 2169 3072 
Q 1681 3072 1420 2755 
Q 1159 2438 1159 1844 
L 1159 0 
L 581 0 
L 581 3500 
L 1159 3500 
L 1159 2956 
Q 1341 3275 1631 3429 
Q 1922 3584 2338 3584 
Q 2397 3584 2469 3576 
Q 2541 3569 2628 3553 
L 2631 2963 
z
" transform="scale(0.015625)"/>
      <path id="DejaVuSans-6d" d="M 3328 2828 
Q 3544 3216 3844 3400 
Q 4144 3584 4550 3584 
Q 5097 3584 5394 3201 
Q 5691 2819 5691 2113 
L 5691 0 
L 5113 0 
L 5113 2094 
Q 5113 2597 4934 2840 
Q 4756 3084 4391 3084 
Q 3944 3084 3684 2787 
Q 3425 2491 3425 1978 
L 3425 0 
L 2847 0 
L 2847 2094 
Q 2847 2600 2669 2842 
Q 2491 3084 2119 3084 
Q 1678 3084 1418 2786 
Q 1159 2488 1159 1978 
L 1159 0 
L 581 0 
L 581 3500 
L 1159 3500 
L 1159 2956 
Q 1356 3278 1631 3431 
Q 1906 3584 2284 3584 
Q 2666 3584 2933 3390 
Q 3200 3197 3328 2828 
z
" transform="scale(0.015625)"/>
      <path id="DejaVuSans-65" d="M 3597 1894 
L 3597 1613 
L 953 1613 
Q 991 1019 1311 708 
Q 1631 397 2203 397 
Q 2534 397 2845 478 
Q 3156 559 3463 722 
L 3463 178 
Q 3153 47 2828 -22 
Q 2503 -91 2169 -91 
Q 1331 -91 842 396 
Q 353 884 353 1716 
Q 353 2575 817 3079 
Q 1281 3584 2069 3584 
Q 2775 3584 3186 3129 
Q 3597 2675 3597 1894 
z
M 3022 2063 
Q 3016 2534 2758 2815 
Q 2500 3097 2075 3097 
Q 1594 3097 1305 2825 
Q 1016 2553 972 2059 
L 3022 2063 
z
" transform="scale(0.015625)"/>
      <path id="DejaVuSans-64" d="M 2906 2969 
L 2906 4863 
L 3481 4863 
L 3481 0 
L 2906 0 
L 2906 525 
Q 2725 213 2448 61 
Q 2172 -91 1784 -91 
Q 1150 -91 751 415 
Q 353 922 353 1747 
Q 353 2572 751 3078 
Q 1150 3584 1784 3584 
Q 2172 3584 2448 3432 
Q 2725 3281 2906 2969 
z
M 947 1747 
Q 947 1113 1208 752 
Q 1469 391 1925 391 
Q 2381 391 2643 752 
Q 2906 1113 2906 1747 
Q 2906 2381 2643 2742 
Q 2381 3103 1925 3103 
Q 1469 3103 1208 2742 
Q 947 2381 947 1747 
z
" transform="scale(0.015625)"/>
      <path id="DejaVuSans-73" d="M 2834 3397 
L 2834 2853 
Q 2591 2978 2328 3040 
Q 2066 3103 1784 3103 
Q 1356 3103 1142 2972 
Q 928 2841 928 2578 
Q 928 2378 1081 2264 
Q 1234 2150 1697 2047 
L 1894 2003 
Q 2506 1872 2764 1633 
Q 3022 1394 3022 966 
Q 3022 478 2636 193 
Q 2250 -91 1575 -91 
Q 1294 -91 989 -36 
Q 684 19 347 128 
L 347 722 
Q 666 556 975 473 
Q 1284 391 1588 391 
Q 1994 391 2212 530 
Q 2431 669 2431 922 
Q 2431 1156 2273 1281 
Q 2116 1406 1581 1522 
L 1381 1569 
Q 847 1681 609 1914 
Q 372 2147 372 2553 
Q 372 3047 722 3315 
Q 1072 3584 1716 3584 
Q 2034 3584 2315 3537 
Q 2597 3491 2834 3397 
z
" transform="scale(0.015625)"/>
      <path id="DejaVuSans-46" d="M 628 4666 
L 3309 4666 
L 3309 4134 
L 1259 4134 
L 1259 2759 
L 3109 2759 
L 3109 2228 
L 1259 2228 
L 1259 0 
L 628 0 
L 628 4666 
z
" transform="scale(0.015625)"/>
      <path id="DejaVuSans-63" d="M 3122 3366 
L 3122 2828 
Q 2878 2963 2633 3030 
Q 2388 3097 2138 3097 
Q 1578 3097 1268 2742 
Q 959 2388 959 1747 
Q 959 1106 1268 751 
Q 1578 397 2138 397 
Q 2388 397 2633 464 
Q 2878 531 3122 666 
L 3122 134 
Q 2881 22 2623 -34 
Q 2366 -91 2075 -91 
Q 1284 -91 818 406 
Q 353 903 353 1747 
Q 353 2603 823 3093 
Q 1294 3584 2113 3584 
Q 2378 3584 2631 3529 
Q 2884 3475 3122 3366 
z
" transform="scale(0.015625)"/>
      <path id="DejaVuSans-74" d="M 1172 4494 
L 1172 3500 
L 2356 3500 
L 2356 3053 
L 1172 3053 
L 1172 1153 
Q 1172 725 1289 603 
Q 1406 481 1766 481 
L 2356 481 
L 2356 0 
L 1766 0 
Q 1100 0 847 248 
Q 594 497 594 1153 
L 594 3053 
L 172 3053 
L 172 3500 
L 594 3500 
L 594 4494 
L 1172 4494 
z
" transform="scale(0.015625)"/>
      <path id="DejaVuSans-67" d="M 2906 1791 
Q 2906 2416 2648 2759 
Q 2391 3103 1925 3103 
Q 1463 3103 1205 2759 
Q 947 2416 947 1791 
Q 947 1169 1205 825 
Q 1463 481 1925 481 
Q 2391 481 2648 825 
Q 2906 1169 2906 1791 
z
M 3481 434 
Q 3481 -459 3084 -895 
Q 2688 -1331 1869 -1331 
Q 1566 -1331 1297 -1286 
Q 1028 -1241 775 -1147 
L 775 -588 
Q 1028 -725 1275 -790 
Q 1522 -856 1778 -856 
Q 2344 -856 2625 -561 
Q 2906 -266 2906 331 
L 2906 616 
Q 2728 306 2450 153 
Q 2172 0 1784 0 
Q 1141 0 747 490 
Q 353 981 353 1791 
Q 353 2603 747 3093 
Q 1141 3584 1784 3584 
Q 2172 3584 2450 3431 
Q 2728 3278 2906 2969 
L 2906 3500 
L 3481 3500 
L 3481 434 
z
" transform="scale(0.015625)"/>
      <path id="DejaVuSans-42" d="M 1259 2228 
L 1259 519 
L 2272 519 
Q 2781 519 3026 730 
Q 3272 941 3272 1375 
Q 3272 1813 3026 2020 
Q 2781 2228 2272 2228 
L 1259 2228 
z
M 1259 4147 
L 1259 2741 
L 2194 2741 
Q 2656 2741 2882 2914 
Q 3109 3088 3109 3444 
Q 3109 3797 2882 3972 
Q 2656 4147 2194 4147 
L 1259 4147 
z
M 628 4666 
L 2241 4666 
Q 2963 4666 3353 4366 
Q 3744 4066 3744 3513 
Q 3744 3084 3544 2831 
Q 3344 2578 2956 2516 
Q 3422 2416 3680 2098 
Q 3938 1781 3938 1306 
Q 3938 681 3513 340 
Q 3088 0 2303 0 
L 628 0 
L 628 4666 
z
" transform="scale(0.015625)"/>
      <path id="DejaVuSans-68" d="M 3513 2113 
L 3513 0 
L 2938 0 
L 2938 2094 
Q 2938 2591 2744 2837 
Q 2550 3084 2163 3084 
Q 1697 3084 1428 2787 
Q 1159 2491 1159 1978 
L 1159 0 
L 581 0 
L 581 4863 
L 1159 4863 
L 1159 2956 
Q 1366 3272 1645 3428 
Q 1925 3584 2291 3584 
Q 2894 3584 3203 3211 
Q 3513 2838 3513 2113 
z
" transform="scale(0.015625)"/>
      <path id="DejaVuSans-75" d="M 544 1381 
L 544 3500 
L 1119 3500 
L 1119 1403 
Q 1119 906 1312 657 
Q 1506 409 1894 409 
Q 2359 409 2629 706 
Q 2900 1003 2900 1516 
L 2900 3500 
L 3475 3500 
L 3475 0 
L 2900 0 
L 2900 538 
Q 2691 219 2414 64 
Q 2138 -91 1772 -91 
Q 1169 -91 856 284 
Q 544 659 544 1381 
z
M 1991 3584 
L 1991 3584 
z
" transform="scale(0.015625)"/>
     </defs>
     <use xlink:href="#DejaVuSans-44"/>
     <use xlink:href="#DejaVuSans-61" x="77.001953"/>
     <use xlink:href="#DejaVuSans-69" x="138.28125"/>
     <use xlink:href="#DejaVuSans-6c" x="166.064453"/>
     <use xlink:href="#DejaVuSans-79" x="193.847656"/>
     <use xlink:href="#DejaVuSans-20" x="253.027344"/>
     <use xlink:href="#DejaVuSans-43" x="284.814453"/>
     <use xlink:href="#DejaVuSans-6f" x="354.638672"/>
     <use xlink:href="#DejaVuSans-6e" x="415.820312"/>
     <use xlink:href="#DejaVuSans-66" x="479.199219"/>
     <use xlink:href="#DejaVuSans-69" x="514.404297"/>
     <use xlink:href="#DejaVuSans-72" x="542.1875"/>
     <use xlink:href="#DejaVuSans-6d" x="581.550781"/>
     <use xlink:href="#DejaVuSans-65" x="678.962891"/>
     <use xlink:href="#DejaVuSans-64" x="740.486328"/>
     <use xlink:href="#DejaVuSans-20" x="803.962891"/>
     <use xlink:href="#DejaVuSans-43" x="835.75"/>
     <use xlink:href="#DejaVuSans-61" x="905.574219"/>
     <use xlink:href="#DejaVuSans-73" x="966.853516"/>
     <use xlink:href="#DejaVuSans-65" x="1018.953125"/>
     <use xlink:href="#DejaVuSans-73" x="1080.476562"/>
     <use xlink:href="#DejaVuSans-20" x="1132.576172"/>
     <use xlink:href="#DejaVuSans-46" x="1164.363281"/>
     <use xlink:href="#DejaVuSans-6f" x="1218.257812"/>
     <use xlink:href="#DejaVuSans-72" x="1279.439453"/>
     <use xlink:href="#DejaVuSans-65" x="1318.302734"/>
     <use xlink:href="#DejaVuSans-63" x="1379.826172"/>
     <use xlink:href="#DejaVuSans-61" x="1434.806641"/>
     <use xlink:href="#DejaVuSans-73" x="1496.085938"/>
     <use xlink:href="#DejaVuSans-74" x="1548.185547"/>
     <use xlink:href="#DejaVuSans-69" x="1587.394531"/>
     <use xlink:href="#DejaVuSans-6e" x="1615.177734"/>
     <use xlink:href="#DejaVuSans-67" x="1678.556641"/>
     <use xlink:href="#DejaVuSans-20" x="1742.033203"/>
     <use xlink:href="#DejaVuSans-2d" x="1773.820312"/>
     <use xlink:href="#DejaVuSans-20" x="1809.904297"/>
     <use xlink:href="#DejaVuSans-42" x="1841.691406"/>
     <use xlink:href="#DejaVuSans-68" x="1910.294922"/>
     <use xlink:href="#DejaVuSans-75" x="1973.673828"/>
     <use xlink:href="#DejaVuSans-74" x="2037.052734"/>
     <use xlink:href="#DejaVuSans-61" x="2076.261719"/>
     <use xlink:href="#DejaVuSans-6e" x="2137.541016"/>
    </g>
    <!-- ARIMA (3, 1, 1)x(1, 0, 1, 7) (R2 = 0.881367) -->
    <g transform="translate(577.265938 29.7555)scale(0.12 -0.12)">
     <defs>
      <path id="DejaVuSans-41" d="M 2188 4044 
L 1331 1722 
L 3047 1722 
L 2188 4044 
z
M 1831 4666 
L 2547 4666 
L 4325 0 
L 3669 0 
L 3244 1197 
L 1141 1197 
L 716 0 
L 50 0 
L 1831 4666 
z
" transform="scale(0.015625)"/>
      <path id="DejaVuSans-52" d="M 2841 2188 
Q 3044 2119 3236 1894 
Q 3428 1669 3622 1275 
L 4263 0 
L 3584 0 
L 2988 1197 
Q 2756 1666 2539 1819 
Q 2322 1972 1947 1972 
L 1259 1972 
L 1259 0 
L 628 0 
L 628 4666 
L 2053 4666 
Q 2853 4666 3247 4331 
Q 3641 3997 3641 3322 
Q 3641 2881 3436 2590 
Q 3231 2300 2841 2188 
z
M 1259 4147 
L 1259 2491 
L 2053 2491 
Q 2509 2491 2742 2702 
Q 2975 2913 2975 3322 
Q 2975 3731 2742 3939 
Q 2509 4147 2053 4147 
L 1259 4147 
z
" transform="scale(0.015625)"/>
      <path id="DejaVuSans-49" d="M 628 4666 
L 1259 4666 
L 1259 0 
L 628 0 
L 628 4666 
z
" transform="scale(0.015625)"/>
      <path id="DejaVuSans-4d" d="M 628 4666 
L 1569 4666 
L 2759 1491 
L 3956 4666 
L 4897 4666 
L 4897 0 
L 4281 0 
L 4281 4097 
L 3078 897 
L 2444 897 
L 1241 4097 
L 1241 0 
L 628 0 
L 628 4666 
z
" transform="scale(0.015625)"/>
      <path id="DejaVuSans-28" d="M 1984 4856 
Q 1566 4138 1362 3434 
Q 1159 2731 1159 2009 
Q 1159 1288 1364 580 
Q 1569 -128 1984 -844 
L 1484 -844 
Q 1016 -109 783 600 
Q 550 1309 550 2009 
Q 550 2706 781 3412 
Q 1013 4119 1484 4856 
L 1984 4856 
z
" transform="scale(0.015625)"/>
      <path id="DejaVuSans-33" d="M 2597 2516 
Q 3050 2419 3304 2112 
Q 3559 1806 3559 1356 
Q 3559 666 3084 287 
Q 2609 -91 1734 -91 
Q 1441 -91 1130 -33 
Q 819 25 488 141 
L 488 750 
Q 750 597 1062 519 
Q 1375 441 1716 441 
Q 2309 441 2620 675 
Q 2931 909 2931 1356 
Q 2931 1769 2642 2001 
Q 2353 2234 1838 2234 
L 1294 2234 
L 1294 2753 
L 1863 2753 
Q 2328 2753 2575 2939 
Q 2822 3125 2822 3475 
Q 2822 3834 2567 4026 
Q 2313 4219 1838 4219 
Q 1578 4219 1281 4162 
Q 984 4106 628 3988 
L 628 4550 
Q 988 4650 1302 4700 
Q 1616 4750 1894 4750 
Q 2613 4750 3031 4423 
Q 3450 4097 3450 3541 
Q 3450 3153 3228 2886 
Q 3006 2619 2597 2516 
z
" transform="scale(0.015625)"/>
      <path id="DejaVuSans-2c" d="M 750 794 
L 1409 794 
L 1409 256 
L 897 -744 
L 494 -744 
L 750 256 
L 750 794 
z
" transform="scale(0.015625)"/>
      <path id="DejaVuSans-29" d="M 513 4856 
L 1013 4856 
Q 1481 4119 1714 3412 
Q 1947 2706 1947 2009 
Q 1947 1309 1714 600 
Q 1481 -109 1013 -844 
L 513 -844 
Q 928 -128 1133 580 
Q 1338 1288 1338 2009 
Q 1338 2731 1133 3434 
Q 928 4138 513 4856 
z
" transform="scale(0.015625)"/>
      <path id="DejaVuSans-78" d="M 3513 3500 
L 2247 1797 
L 3578 0 
L 2900 0 
L 1881 1375 
L 863 0 
L 184 0 
L 1544 1831 
L 300 3500 
L 978 3500 
L 1906 2253 
L 2834 3500 
L 3513 3500 
z
" transform="scale(0.015625)"/>
      <path id="DejaVuSans-3d" d="M 678 2906 
L 4684 2906 
L 4684 2381 
L 678 2381 
L 678 2906 
z
M 678 1631 
L 4684 1631 
L 4684 1100 
L 678 1100 
L 678 1631 
z
" transform="scale(0.015625)"/>
      <path id="DejaVuSans-2e" d="M 684 794 
L 1344 794 
L 1344 0 
L 684 0 
L 684 794 
z
" transform="scale(0.015625)"/>
      <path id="DejaVuSans-38" d="M 2034 2216 
Q 1584 2216 1326 1975 
Q 1069 1734 1069 1313 
Q 1069 891 1326 650 
Q 1584 409 2034 409 
Q 2484 409 2743 651 
Q 3003 894 3003 1313 
Q 3003 1734 2745 1975 
Q 2488 2216 2034 2216 
z
M 1403 2484 
Q 997 2584 770 2862 
Q 544 3141 544 3541 
Q 544 4100 942 4425 
Q 1341 4750 2034 4750 
Q 2731 4750 3128 4425 
Q 3525 4100 3525 3541 
Q 3525 3141 3298 2862 
Q 3072 2584 2669 2484 
Q 3125 2378 3379 2068 
Q 3634 1759 3634 1313 
Q 3634 634 3220 271 
Q 2806 -91 2034 -91 
Q 1263 -91 848 271 
Q 434 634 434 1313 
Q 434 1759 690 2068 
Q 947 2378 1403 2484 
z
M 1172 3481 
Q 1172 3119 1398 2916 
Q 1625 2713 2034 2713 
Q 2441 2713 2670 2916 
Q 2900 3119 2900 3481 
Q 2900 3844 2670 4047 
Q 2441 4250 2034 4250 
Q 1625 4250 1398 4047 
Q 1172 3844 1172 3481 
z
" transform="scale(0.015625)"/>
      <path id="DejaVuSans-36" d="M 2113 2584 
Q 1688 2584 1439 2293 
Q 1191 2003 1191 1497 
Q 1191 994 1439 701 
Q 1688 409 2113 409 
Q 2538 409 2786 701 
Q 3034 994 3034 1497 
Q 3034 2003 2786 2293 
Q 2538 2584 2113 2584 
z
M 3366 4563 
L 3366 3988 
Q 3128 4100 2886 4159 
Q 2644 4219 2406 4219 
Q 1781 4219 1451 3797 
Q 1122 3375 1075 2522 
Q 1259 2794 1537 2939 
Q 1816 3084 2150 3084 
Q 2853 3084 3261 2657 
Q 3669 2231 3669 1497 
Q 3669 778 3244 343 
Q 2819 -91 2113 -91 
Q 1303 -91 875 529 
Q 447 1150 447 2328 
Q 447 3434 972 4092 
Q 1497 4750 2381 4750 
Q 2619 4750 2861 4703 
Q 3103 4656 3366 4563 
z
" transform="scale(0.015625)"/>
     </defs>
     <use xlink:href="#DejaVuSans-41"/>
     <use xlink:href="#DejaVuSans-52" x="68.408203"/>
     <use xlink:href="#DejaVuSans-49" x="137.890625"/>
     <use xlink:href="#DejaVuSans-4d" x="167.382812"/>
     <use xlink:href="#DejaVuSans-41" x="253.662109"/>
     <use xlink:href="#DejaVuSans-20" x="322.070312"/>
     <use xlink:href="#DejaVuSans-28" x="353.857422"/>
     <use xlink:href="#DejaVuSans-33" x="392.871094"/>
     <use xlink:href="#DejaVuSans-2c" x="456.494141"/>
     <use xlink:href="#DejaVuSans-20" x="488.28125"/>
     <use xlink:href="#DejaVuSans-31" x="520.068359"/>
     <use xlink:href="#DejaVuSans-2c" x="583.691406"/>
     <use xlink:href="#DejaVuSans-20" x="615.478516"/>
     <use xlink:href="#DejaVuSans-31" x="647.265625"/>
     <use xlink:href="#DejaVuSans-29" x="710.888672"/>
     <use xlink:href="#DejaVuSans-78" x="749.902344"/>
     <use xlink:href="#DejaVuSans-28" x="809.082031"/>
     <use xlink:href="#DejaVuSans-31" x="848.095703"/>
     <use xlink:href="#DejaVuSans-2c" x="911.71875"/>
     <use xlink:href="#DejaVuSans-20" x="943.505859"/>
     <use xlink:href="#DejaVuSans-30" x="975.292969"/>
     <use xlink:href="#DejaVuSans-2c" x="1038.916016"/>
     <use xlink:href="#DejaVuSans-20" x="1070.703125"/>
     <use xlink:href="#DejaVuSans-31" x="1102.490234"/>
     <use xlink:href="#DejaVuSans-2c" x="1166.113281"/>
     <use xlink:href="#DejaVuSans-20" x="1197.900391"/>
     <use xlink:href="#DejaVuSans-37" x="1229.6875"/>
     <use xlink:href="#DejaVuSans-29" x="1293.310547"/>
     <use xlink:href="#DejaVuSans-20" x="1332.324219"/>
     <use xlink:href="#DejaVuSans-28" x="1364.111328"/>
     <use xlink:href="#DejaVuSans-52" x="1403.125"/>
     <use xlink:href="#DejaVuSans-32" x="1472.607422"/>
     <use xlink:href="#DejaVuSans-20" x="1536.230469"/>
     <use xlink:href="#DejaVuSans-3d" x="1568.017578"/>
     <use xlink:href="#DejaVuSans-20" x="1651.806641"/>
     <use xlink:href="#DejaVuSans-30" x="1683.59375"/>
     <use xlink:href="#DejaVuSans-2e" x="1747.216797"/>
     <use xlink:href="#DejaVuSans-38" x="1779.003906"/>
     <use xlink:href="#DejaVuSans-38" x="1842.626953"/>
     <use xlink:href="#DejaVuSans-31" x="1906.25"/>
     <use xlink:href="#DejaVuSans-33" x="1969.873047"/>
     <use xlink:href="#DejaVuSans-36" x="2033.496094"/>
     <use xlink:href="#DejaVuSans-37" x="2097.119141"/>
     <use xlink:href="#DejaVuSans-29" x="2160.742188"/>
    </g>
   </g>
   <g id="legend_1">
    <g id="patch_7">
     <path d="M 1274.770313 87.789875 
L 1371.85 87.789875 
Q 1373.85 87.789875 1373.85 85.789875 
L 1373.85 42.7555 
Q 1373.85 40.7555 1371.85 40.7555 
L 1274.770313 40.7555 
Q 1272.770313 40.7555 1272.770313 42.7555 
L 1272.770313 85.789875 
Q 1272.770313 87.789875 1274.770313 87.789875 
z
" style="fill: #ffffff; opacity: 0.8; stroke: #cccccc; stroke-linejoin: miter"/>
    </g>
    <g id="line2d_20">
     <path d="M 1276.770313 48.853937 
L 1286.770313 48.853937 
L 1296.770313 48.853937 
" style="fill: none; stroke: #0000ff; stroke-width: 1.5; stroke-linecap: square"/>
    </g>
    <g id="text_18">
     <!-- Actual Value -->
     <g transform="translate(1304.770313 52.353937)scale(0.1 -0.1)">
      <defs>
       <path id="DejaVuSans-56" d="M 1831 0 
L 50 4666 
L 709 4666 
L 2188 738 
L 3669 4666 
L 4325 4666 
L 2547 0 
L 1831 0 
z
" transform="scale(0.015625)"/>
      </defs>
      <use xlink:href="#DejaVuSans-41"/>
      <use xlink:href="#DejaVuSans-63" x="66.658203"/>
      <use xlink:href="#DejaVuSans-74" x="121.638672"/>
      <use xlink:href="#DejaVuSans-75" x="160.847656"/>
      <use xlink:href="#DejaVuSans-61" x="224.226562"/>
      <use xlink:href="#DejaVuSans-6c" x="285.505859"/>
      <use xlink:href="#DejaVuSans-20" x="313.289062"/>
      <use xlink:href="#DejaVuSans-56" x="345.076172"/>
      <use xlink:href="#DejaVuSans-61" x="405.734375"/>
      <use xlink:href="#DejaVuSans-6c" x="467.013672"/>
      <use xlink:href="#DejaVuSans-75" x="494.796875"/>
      <use xlink:href="#DejaVuSans-65" x="558.175781"/>
     </g>
    </g>
    <g id="line2d_21">
     <path d="M 1276.770313 63.532062 
L 1286.770313 63.532062 
L 1296.770313 63.532062 
" style="fill: none; stroke: #ffa500; stroke-width: 1.5; stroke-linecap: square"/>
    </g>
    <g id="text_19">
     <!-- Check Value -->
     <g transform="translate(1304.770313 67.032062)scale(0.1 -0.1)">
      <defs>
       <path id="DejaVuSans-6b" d="M 581 4863 
L 1159 4863 
L 1159 1991 
L 2875 3500 
L 3609 3500 
L 1753 1863 
L 3688 0 
L 2938 0 
L 1159 1709 
L 1159 0 
L 581 0 
L 581 4863 
z
" transform="scale(0.015625)"/>
      </defs>
      <use xlink:href="#DejaVuSans-43"/>
      <use xlink:href="#DejaVuSans-68" x="69.824219"/>
      <use xlink:href="#DejaVuSans-65" x="133.203125"/>
      <use xlink:href="#DejaVuSans-63" x="194.726562"/>
      <use xlink:href="#DejaVuSans-6b" x="249.707031"/>
      <use xlink:href="#DejaVuSans-20" x="307.617188"/>
      <use xlink:href="#DejaVuSans-56" x="339.404297"/>
      <use xlink:href="#DejaVuSans-61" x="400.0625"/>
      <use xlink:href="#DejaVuSans-6c" x="461.341797"/>
      <use xlink:href="#DejaVuSans-75" x="489.125"/>
      <use xlink:href="#DejaVuSans-65" x="552.503906"/>
     </g>
    </g>
    <g id="line2d_22">
     <path d="M 1276.770313 78.210187 
L 1286.770313 78.210187 
L 1296.770313 78.210187 
" style="fill: none; stroke: #ff0000; stroke-width: 1.5; stroke-linecap: square"/>
    </g>
    <g id="text_20">
     <!-- Predict Value -->
     <g transform="translate(1304.770313 81.710187)scale(0.1 -0.1)">
      <defs>
       <path id="DejaVuSans-50" d="M 1259 4147 
L 1259 2394 
L 2053 2394 
Q 2494 2394 2734 2622 
Q 2975 2850 2975 3272 
Q 2975 3691 2734 3919 
Q 2494 4147 2053 4147 
L 1259 4147 
z
M 628 4666 
L 2053 4666 
Q 2838 4666 3239 4311 
Q 3641 3956 3641 3272 
Q 3641 2581 3239 2228 
Q 2838 1875 2053 1875 
L 1259 1875 
L 1259 0 
L 628 0 
L 628 4666 
z
" transform="scale(0.015625)"/>
      </defs>
      <use xlink:href="#DejaVuSans-50"/>
      <use xlink:href="#DejaVuSans-72" x="58.552734"/>
      <use xlink:href="#DejaVuSans-65" x="97.416016"/>
      <use xlink:href="#DejaVuSans-64" x="158.939453"/>
      <use xlink:href="#DejaVuSans-69" x="222.416016"/>
      <use xlink:href="#DejaVuSans-63" x="250.199219"/>
      <use xlink:href="#DejaVuSans-74" x="305.179688"/>
      <use xlink:href="#DejaVuSans-20" x="344.388672"/>
      <use xlink:href="#DejaVuSans-56" x="376.175781"/>
      <use xlink:href="#DejaVuSans-61" x="436.833984"/>
      <use xlink:href="#DejaVuSans-6c" x="498.113281"/>
      <use xlink:href="#DejaVuSans-75" x="525.896484"/>
      <use xlink:href="#DejaVuSans-65" x="589.275391"/>
     </g>
    </g>
   </g>
  </g>
 </g>
 <defs>
  <clipPath id="pf88e81f8f9">
   <rect x="39.65" y="35.7555" width="1339.2" height="332.64"/>
  </clipPath>
 </defs>
</svg>
