<?xml version="1.0" encoding="utf-8" standalone="no"?>
<!DOCTYPE svg PUBLIC "-//W3C//DTD SVG 1.1//EN"
  "http://www.w3.org/Graphics/SVG/1.1/DTD/svg11.dtd">
<svg xmlns:xlink="http://www.w3.org/1999/xlink" width="1386.05pt" height="392.273625pt" viewBox="0 0 1386.05 392.273625" xmlns="http://www.w3.org/2000/svg" version="1.1">
 <metadata>
  <rdf:RDF xmlns:dc="http://purl.org/dc/elements/1.1/" xmlns:cc="http://creativecommons.org/ns#" xmlns:rdf="http://www.w3.org/1999/02/22-rdf-syntax-ns#">
   <cc:Work>
    <dc:type rdf:resource="http://purl.org/dc/dcmitype/StillImage"/>
    <dc:date>2022-07-11T19:34:40.071736</dc:date>
    <dc:format>image/svg+xml</dc:format>
    <dc:creator>
     <cc:Agent>
      <dc:title>Matplotlib v3.5.2, https://matplotlib.org/</dc:title>
     </cc:Agent>
    </dc:creator>
   </cc:Work>
  </rdf:RDF>
 </metadata>
 <defs>
  <style type="text/css">*{stroke-linejoin: round; stroke-linecap: butt}</style>
 </defs>
 <g id="figure_1">
  <g id="patch_1">
   <path d="M 0 392.273625 
L 1386.05 392.273625 
L 1386.05 0 
L 0 0 
z
" style="fill: #ffffff"/>
  </g>
  <g id="axes_1">
   <g id="patch_2">
    <path d="M 39.65 368.3955 
L 1378.85 368.3955 
L 1378.85 35.7555 
L 39.65 35.7555 
z
" style="fill: #ffffff"/>
   </g>
   <g id="matplotlib.axis_1">
    <g id="xtick_1">
     <g id="line2d_1">
      <defs>
       <path id="m74a1279d91" d="M 0 0 
L 0 3.5 
" style="stroke: #000000; stroke-width: 0.8"/>
      </defs>
      <g>
       <use xlink:href="#m74a1279d91" x="71.154306" y="368.3955" style="stroke: #000000; stroke-width: 0.8"/>
      </g>
     </g>
     <g id="text_1">
      <!-- 2020-01 -->
      <g transform="translate(50.2629 382.993937)scale(0.1 -0.1)">
       <defs>
        <path id="DejaVuSans-32" d="M 1228 531 
L 3431 531 
L 3431 0 
L 469 0 
L 469 531 
Q 828 903 1448 1529 
Q 2069 2156 2228 2338 
Q 2531 2678 2651 2914 
Q 2772 3150 2772 3378 
Q 2772 3750 2511 3984 
Q 2250 4219 1831 4219 
Q 1534 4219 1204 4116 
Q 875 4013 500 3803 
L 500 4441 
Q 881 4594 1212 4672 
Q 1544 4750 1819 4750 
Q 2544 4750 2975 4387 
Q 3406 4025 3406 3419 
Q 3406 3131 3298 2873 
Q 3191 2616 2906 2266 
Q 2828 2175 2409 1742 
Q 1991 1309 1228 531 
z
" transform="scale(0.015625)"/>
        <path id="DejaVuSans-30" d="M 2034 4250 
Q 1547 4250 1301 3770 
Q 1056 3291 1056 2328 
Q 1056 1369 1301 889 
Q 1547 409 2034 409 
Q 2525 409 2770 889 
Q 3016 1369 3016 2328 
Q 3016 3291 2770 3770 
Q 2525 4250 2034 4250 
z
M 2034 4750 
Q 2819 4750 3233 4129 
Q 3647 3509 3647 2328 
Q 3647 1150 3233 529 
Q 2819 -91 2034 -91 
Q 1250 -91 836 529 
Q 422 1150 422 2328 
Q 422 3509 836 4129 
Q 1250 4750 2034 4750 
z
" transform="scale(0.015625)"/>
        <path id="DejaVuSans-2d" d="M 313 2009 
L 1997 2009 
L 1997 1497 
L 313 1497 
L 313 2009 
z
" transform="scale(0.015625)"/>
        <path id="DejaVuSans-31" d="M 794 531 
L 1825 531 
L 1825 4091 
L 703 3866 
L 703 4441 
L 1819 4666 
L 2450 4666 
L 2450 531 
L 3481 531 
L 3481 0 
L 794 0 
L 794 531 
z
" transform="scale(0.015625)"/>
       </defs>
       <use xlink:href="#DejaVuSans-32"/>
       <use xlink:href="#DejaVuSans-30" x="63.623047"/>
       <use xlink:href="#DejaVuSans-32" x="127.246094"/>
       <use xlink:href="#DejaVuSans-30" x="190.869141"/>
       <use xlink:href="#DejaVuSans-2d" x="254.492188"/>
       <use xlink:href="#DejaVuSans-30" x="290.576172"/>
       <use xlink:href="#DejaVuSans-31" x="354.199219"/>
      </g>
     </g>
    </g>
    <g id="xtick_2">
     <g id="line2d_2">
      <g>
       <use xlink:href="#m74a1279d91" x="192.632775" y="368.3955" style="stroke: #000000; stroke-width: 0.8"/>
      </g>
     </g>
     <g id="text_2">
      <!-- 2020-04 -->
      <g transform="translate(171.741369 382.993937)scale(0.1 -0.1)">
       <defs>
        <path id="DejaVuSans-34" d="M 2419 4116 
L 825 1625 
L 2419 1625 
L 2419 4116 
z
M 2253 4666 
L 3047 4666 
L 3047 1625 
L 3713 1625 
L 3713 1100 
L 3047 1100 
L 3047 0 
L 2419 0 
L 2419 1100 
L 313 1100 
L 313 1709 
L 2253 4666 
z
" transform="scale(0.015625)"/>
       </defs>
       <use xlink:href="#DejaVuSans-32"/>
       <use xlink:href="#DejaVuSans-30" x="63.623047"/>
       <use xlink:href="#DejaVuSans-32" x="127.246094"/>
       <use xlink:href="#DejaVuSans-30" x="190.869141"/>
       <use xlink:href="#DejaVuSans-2d" x="254.492188"/>
       <use xlink:href="#DejaVuSans-30" x="290.576172"/>
       <use xlink:href="#DejaVuSans-34" x="354.199219"/>
      </g>
     </g>
    </g>
    <g id="xtick_3">
     <g id="line2d_3">
      <g>
       <use xlink:href="#m74a1279d91" x="314.111244" y="368.3955" style="stroke: #000000; stroke-width: 0.8"/>
      </g>
     </g>
     <g id="text_3">
      <!-- 2020-07 -->
      <g transform="translate(293.219838 382.993937)scale(0.1 -0.1)">
       <defs>
        <path id="DejaVuSans-37" d="M 525 4666 
L 3525 4666 
L 3525 4397 
L 1831 0 
L 1172 0 
L 2766 4134 
L 525 4134 
L 525 4666 
z
" transform="scale(0.015625)"/>
       </defs>
       <use xlink:href="#DejaVuSans-32"/>
       <use xlink:href="#DejaVuSans-30" x="63.623047"/>
       <use xlink:href="#DejaVuSans-32" x="127.246094"/>
       <use xlink:href="#DejaVuSans-30" x="190.869141"/>
       <use xlink:href="#DejaVuSans-2d" x="254.492188"/>
       <use xlink:href="#DejaVuSans-30" x="290.576172"/>
       <use xlink:href="#DejaVuSans-37" x="354.199219"/>
      </g>
     </g>
    </g>
    <g id="xtick_4">
     <g id="line2d_4">
      <g>
       <use xlink:href="#m74a1279d91" x="436.924641" y="368.3955" style="stroke: #000000; stroke-width: 0.8"/>
      </g>
     </g>
     <g id="text_4">
      <!-- 2020-10 -->
      <g transform="translate(416.033235 382.993937)scale(0.1 -0.1)">
       <use xlink:href="#DejaVuSans-32"/>
       <use xlink:href="#DejaVuSans-30" x="63.623047"/>
       <use xlink:href="#DejaVuSans-32" x="127.246094"/>
       <use xlink:href="#DejaVuSans-30" x="190.869141"/>
       <use xlink:href="#DejaVuSans-2d" x="254.492188"/>
       <use xlink:href="#DejaVuSans-31" x="290.576172"/>
       <use xlink:href="#DejaVuSans-30" x="354.199219"/>
      </g>
     </g>
    </g>
    <g id="xtick_5">
     <g id="line2d_5">
      <g>
       <use xlink:href="#m74a1279d91" x="559.738038" y="368.3955" style="stroke: #000000; stroke-width: 0.8"/>
      </g>
     </g>
     <g id="text_5">
      <!-- 2021-01 -->
      <g transform="translate(538.846632 382.993937)scale(0.1 -0.1)">
       <use xlink:href="#DejaVuSans-32"/>
       <use xlink:href="#DejaVuSans-30" x="63.623047"/>
       <use xlink:href="#DejaVuSans-32" x="127.246094"/>
       <use xlink:href="#DejaVuSans-31" x="190.869141"/>
       <use xlink:href="#DejaVuSans-2d" x="254.492188"/>
       <use xlink:href="#DejaVuSans-30" x="290.576172"/>
       <use xlink:href="#DejaVuSans-31" x="354.199219"/>
      </g>
     </g>
    </g>
    <g id="xtick_6">
     <g id="line2d_6">
      <g>
       <use xlink:href="#m74a1279d91" x="679.881579" y="368.3955" style="stroke: #000000; stroke-width: 0.8"/>
      </g>
     </g>
     <g id="text_6">
      <!-- 2021-04 -->
      <g transform="translate(658.990173 382.993937)scale(0.1 -0.1)">
       <use xlink:href="#DejaVuSans-32"/>
       <use xlink:href="#DejaVuSans-30" x="63.623047"/>
       <use xlink:href="#DejaVuSans-32" x="127.246094"/>
       <use xlink:href="#DejaVuSans-31" x="190.869141"/>
       <use xlink:href="#DejaVuSans-2d" x="254.492188"/>
       <use xlink:href="#DejaVuSans-30" x="290.576172"/>
       <use xlink:href="#DejaVuSans-34" x="354.199219"/>
      </g>
     </g>
    </g>
    <g id="xtick_7">
     <g id="line2d_7">
      <g>
       <use xlink:href="#m74a1279d91" x="801.360048" y="368.3955" style="stroke: #000000; stroke-width: 0.8"/>
      </g>
     </g>
     <g id="text_7">
      <!-- 2021-07 -->
      <g transform="translate(780.468642 382.993937)scale(0.1 -0.1)">
       <use xlink:href="#DejaVuSans-32"/>
       <use xlink:href="#DejaVuSans-30" x="63.623047"/>
       <use xlink:href="#DejaVuSans-32" x="127.246094"/>
       <use xlink:href="#DejaVuSans-31" x="190.869141"/>
       <use xlink:href="#DejaVuSans-2d" x="254.492188"/>
       <use xlink:href="#DejaVuSans-30" x="290.576172"/>
       <use xlink:href="#DejaVuSans-37" x="354.199219"/>
      </g>
     </g>
    </g>
    <g id="xtick_8">
     <g id="line2d_8">
      <g>
       <use xlink:href="#m74a1279d91" x="924.173445" y="368.3955" style="stroke: #000000; stroke-width: 0.8"/>
      </g>
     </g>
     <g id="text_8">
      <!-- 2021-10 -->
      <g transform="translate(903.282039 382.993937)scale(0.1 -0.1)">
       <use xlink:href="#DejaVuSans-32"/>
       <use xlink:href="#DejaVuSans-30" x="63.623047"/>
       <use xlink:href="#DejaVuSans-32" x="127.246094"/>
       <use xlink:href="#DejaVuSans-31" x="190.869141"/>
       <use xlink:href="#DejaVuSans-2d" x="254.492188"/>
       <use xlink:href="#DejaVuSans-31" x="290.576172"/>
       <use xlink:href="#DejaVuSans-30" x="354.199219"/>
      </g>
     </g>
    </g>
    <g id="xtick_9">
     <g id="line2d_9">
      <g>
       <use xlink:href="#m74a1279d91" x="1046.986842" y="368.3955" style="stroke: #000000; stroke-width: 0.8"/>
      </g>
     </g>
     <g id="text_9">
      <!-- 2022-01 -->
      <g transform="translate(1026.095436 382.993937)scale(0.1 -0.1)">
       <use xlink:href="#DejaVuSans-32"/>
       <use xlink:href="#DejaVuSans-30" x="63.623047"/>
       <use xlink:href="#DejaVuSans-32" x="127.246094"/>
       <use xlink:href="#DejaVuSans-32" x="190.869141"/>
       <use xlink:href="#DejaVuSans-2d" x="254.492188"/>
       <use xlink:href="#DejaVuSans-30" x="290.576172"/>
       <use xlink:href="#DejaVuSans-31" x="354.199219"/>
      </g>
     </g>
    </g>
    <g id="xtick_10">
     <g id="line2d_10">
      <g>
       <use xlink:href="#m74a1279d91" x="1167.130383" y="368.3955" style="stroke: #000000; stroke-width: 0.8"/>
      </g>
     </g>
     <g id="text_10">
      <!-- 2022-04 -->
      <g transform="translate(1146.238977 382.993937)scale(0.1 -0.1)">
       <use xlink:href="#DejaVuSans-32"/>
       <use xlink:href="#DejaVuSans-30" x="63.623047"/>
       <use xlink:href="#DejaVuSans-32" x="127.246094"/>
       <use xlink:href="#DejaVuSans-32" x="190.869141"/>
       <use xlink:href="#DejaVuSans-2d" x="254.492188"/>
       <use xlink:href="#DejaVuSans-30" x="290.576172"/>
       <use xlink:href="#DejaVuSans-34" x="354.199219"/>
      </g>
     </g>
    </g>
    <g id="xtick_11">
     <g id="line2d_11">
      <g>
       <use xlink:href="#m74a1279d91" x="1288.608852" y="368.3955" style="stroke: #000000; stroke-width: 0.8"/>
      </g>
     </g>
     <g id="text_11">
      <!-- 2022-07 -->
      <g transform="translate(1267.717445 382.993937)scale(0.1 -0.1)">
       <use xlink:href="#DejaVuSans-32"/>
       <use xlink:href="#DejaVuSans-30" x="63.623047"/>
       <use xlink:href="#DejaVuSans-32" x="127.246094"/>
       <use xlink:href="#DejaVuSans-32" x="190.869141"/>
       <use xlink:href="#DejaVuSans-2d" x="254.492188"/>
       <use xlink:href="#DejaVuSans-30" x="290.576172"/>
       <use xlink:href="#DejaVuSans-37" x="354.199219"/>
      </g>
     </g>
    </g>
   </g>
   <g id="matplotlib.axis_2">
    <g id="ytick_1">
     <g id="line2d_12">
      <defs>
       <path id="mb00086ff53" d="M 0 0 
L -3.5 0 
" style="stroke: #000000; stroke-width: 0.8"/>
      </defs>
      <g>
       <use xlink:href="#mb00086ff53" x="39.65" y="338.155428" style="stroke: #000000; stroke-width: 0.8"/>
      </g>
     </g>
     <g id="text_12">
      <!-- 0 -->
      <g transform="translate(26.2875 341.954647)scale(0.1 -0.1)">
       <use xlink:href="#DejaVuSans-30"/>
      </g>
     </g>
    </g>
    <g id="ytick_2">
     <g id="line2d_13">
      <g>
       <use xlink:href="#mb00086ff53" x="39.65" y="295.22919" style="stroke: #000000; stroke-width: 0.8"/>
      </g>
     </g>
     <g id="text_13">
      <!-- 1000 -->
      <g transform="translate(7.2 299.028409)scale(0.1 -0.1)">
       <use xlink:href="#DejaVuSans-31"/>
       <use xlink:href="#DejaVuSans-30" x="63.623047"/>
       <use xlink:href="#DejaVuSans-30" x="127.246094"/>
       <use xlink:href="#DejaVuSans-30" x="190.869141"/>
      </g>
     </g>
    </g>
    <g id="ytick_3">
     <g id="line2d_14">
      <g>
       <use xlink:href="#mb00086ff53" x="39.65" y="252.302951" style="stroke: #000000; stroke-width: 0.8"/>
      </g>
     </g>
     <g id="text_14">
      <!-- 2000 -->
      <g transform="translate(7.2 256.10217)scale(0.1 -0.1)">
       <use xlink:href="#DejaVuSans-32"/>
       <use xlink:href="#DejaVuSans-30" x="63.623047"/>
       <use xlink:href="#DejaVuSans-30" x="127.246094"/>
       <use xlink:href="#DejaVuSans-30" x="190.869141"/>
      </g>
     </g>
    </g>
    <g id="ytick_4">
     <g id="line2d_15">
      <g>
       <use xlink:href="#mb00086ff53" x="39.65" y="209.376713" style="stroke: #000000; stroke-width: 0.8"/>
      </g>
     </g>
     <g id="text_15">
      <!-- 3000 -->
      <g transform="translate(7.2 213.175932)scale(0.1 -0.1)">
       <defs>
        <path id="DejaVuSans-33" d="M 2597 2516 
Q 3050 2419 3304 2112 
Q 3559 1806 3559 1356 
Q 3559 666 3084 287 
Q 2609 -91 1734 -91 
Q 1441 -91 1130 -33 
Q 819 25 488 141 
L 488 750 
Q 750 597 1062 519 
Q 1375 441 1716 441 
Q 2309 441 2620 675 
Q 2931 909 2931 1356 
Q 2931 1769 2642 2001 
Q 2353 2234 1838 2234 
L 1294 2234 
L 1294 2753 
L 1863 2753 
Q 2328 2753 2575 2939 
Q 2822 3125 2822 3475 
Q 2822 3834 2567 4026 
Q 2313 4219 1838 4219 
Q 1578 4219 1281 4162 
Q 984 4106 628 3988 
L 628 4550 
Q 988 4650 1302 4700 
Q 1616 4750 1894 4750 
Q 2613 4750 3031 4423 
Q 3450 4097 3450 3541 
Q 3450 3153 3228 2886 
Q 3006 2619 2597 2516 
z
" transform="scale(0.015625)"/>
       </defs>
       <use xlink:href="#DejaVuSans-33"/>
       <use xlink:href="#DejaVuSans-30" x="63.623047"/>
       <use xlink:href="#DejaVuSans-30" x="127.246094"/>
       <use xlink:href="#DejaVuSans-30" x="190.869141"/>
      </g>
     </g>
    </g>
    <g id="ytick_5">
     <g id="line2d_16">
      <g>
       <use xlink:href="#mb00086ff53" x="39.65" y="166.450474" style="stroke: #000000; stroke-width: 0.8"/>
      </g>
     </g>
     <g id="text_16">
      <!-- 4000 -->
      <g transform="translate(7.2 170.249693)scale(0.1 -0.1)">
       <use xlink:href="#DejaVuSans-34"/>
       <use xlink:href="#DejaVuSans-30" x="63.623047"/>
       <use xlink:href="#DejaVuSans-30" x="127.246094"/>
       <use xlink:href="#DejaVuSans-30" x="190.869141"/>
      </g>
     </g>
    </g>
    <g id="ytick_6">
     <g id="line2d_17">
      <g>
       <use xlink:href="#mb00086ff53" x="39.65" y="123.524236" style="stroke: #000000; stroke-width: 0.8"/>
      </g>
     </g>
     <g id="text_17">
      <!-- 5000 -->
      <g transform="translate(7.2 127.323455)scale(0.1 -0.1)">
       <defs>
        <path id="DejaVuSans-35" d="M 691 4666 
L 3169 4666 
L 3169 4134 
L 1269 4134 
L 1269 2991 
Q 1406 3038 1543 3061 
Q 1681 3084 1819 3084 
Q 2600 3084 3056 2656 
Q 3513 2228 3513 1497 
Q 3513 744 3044 326 
Q 2575 -91 1722 -91 
Q 1428 -91 1123 -41 
Q 819 9 494 109 
L 494 744 
Q 775 591 1075 516 
Q 1375 441 1709 441 
Q 2250 441 2565 725 
Q 2881 1009 2881 1497 
Q 2881 1984 2565 2268 
Q 2250 2553 1709 2553 
Q 1456 2553 1204 2497 
Q 953 2441 691 2322 
L 691 4666 
z
" transform="scale(0.015625)"/>
       </defs>
       <use xlink:href="#DejaVuSans-35"/>
       <use xlink:href="#DejaVuSans-30" x="63.623047"/>
       <use xlink:href="#DejaVuSans-30" x="127.246094"/>
       <use xlink:href="#DejaVuSans-30" x="190.869141"/>
      </g>
     </g>
    </g>
    <g id="ytick_7">
     <g id="line2d_18">
      <g>
       <use xlink:href="#mb00086ff53" x="39.65" y="80.597998" style="stroke: #000000; stroke-width: 0.8"/>
      </g>
     </g>
     <g id="text_18">
      <!-- 6000 -->
      <g transform="translate(7.2 84.397216)scale(0.1 -0.1)">
       <defs>
        <path id="DejaVuSans-36" d="M 2113 2584 
Q 1688 2584 1439 2293 
Q 1191 2003 1191 1497 
Q 1191 994 1439 701 
Q 1688 409 2113 409 
Q 2538 409 2786 701 
Q 3034 994 3034 1497 
Q 3034 2003 2786 2293 
Q 2538 2584 2113 2584 
z
M 3366 4563 
L 3366 3988 
Q 3128 4100 2886 4159 
Q 2644 4219 2406 4219 
Q 1781 4219 1451 3797 
Q 1122 3375 1075 2522 
Q 1259 2794 1537 2939 
Q 1816 3084 2150 3084 
Q 2853 3084 3261 2657 
Q 3669 2231 3669 1497 
Q 3669 778 3244 343 
Q 2819 -91 2113 -91 
Q 1303 -91 875 529 
Q 447 1150 447 2328 
Q 447 3434 972 4092 
Q 1497 4750 2381 4750 
Q 2619 4750 2861 4703 
Q 3103 4656 3366 4563 
z
" transform="scale(0.015625)"/>
       </defs>
       <use xlink:href="#DejaVuSans-36"/>
       <use xlink:href="#DejaVuSans-30" x="63.623047"/>
       <use xlink:href="#DejaVuSans-30" x="127.246094"/>
       <use xlink:href="#DejaVuSans-30" x="190.869141"/>
      </g>
     </g>
    </g>
    <g id="ytick_8">
     <g id="line2d_19">
      <g>
       <use xlink:href="#mb00086ff53" x="39.65" y="37.671759" style="stroke: #000000; stroke-width: 0.8"/>
      </g>
     </g>
     <g id="text_19">
      <!-- 7000 -->
      <g transform="translate(7.2 41.470978)scale(0.1 -0.1)">
       <use xlink:href="#DejaVuSans-37"/>
       <use xlink:href="#DejaVuSans-30" x="63.623047"/>
       <use xlink:href="#DejaVuSans-30" x="127.246094"/>
       <use xlink:href="#DejaVuSans-30" x="190.869141"/>
      </g>
     </g>
    </g>
   </g>
   <g id="line2d_20">
    <path d="M 100.522727 338.155428 
L 171.273923 338.112502 
L 172.608852 337.983723 
L 173.94378 338.155428 
L 175.278708 338.02665 
L 185.958134 338.02665 
L 187.293062 337.897871 
L 188.62799 338.155428 
L 191.297847 338.069576 
L 192.632775 338.112502 
L 193.967703 337.812018 
L 195.302632 338.02665 
L 196.63756 337.68324 
L 197.972488 338.155428 
L 199.307416 337.769092 
L 200.642344 337.854945 
L 201.977273 337.726166 
L 203.312201 337.812018 
L 204.647129 336.824715 
L 205.982057 337.68324 
L 207.316986 337.382756 
L 208.651914 338.112502 
L 209.986842 337.68324 
L 216.661483 337.211051 
L 217.996411 336.781789 
L 219.33134 337.940797 
L 220.666268 337.211051 
L 222.001196 335.236444 
L 223.336124 336.180821 
L 224.671053 336.3096 
L 226.005981 336.99642 
L 227.340909 336.867641 
L 228.675837 338.155428 
L 230.010766 336.99642 
L 231.345694 336.352526 
L 232.680622 336.223748 
L 234.01555 336.266674 
L 235.350478 337.511535 
L 236.685407 336.99642 
L 238.020335 336.738863 
L 239.355263 336.65301 
L 240.690191 336.695936 
L 242.02512 335.236444 
L 243.360048 335.27937 
L 244.694976 334.506698 
L 246.029904 335.494002 
L 247.364833 334.506698 
L 248.699761 332.016976 
L 250.034689 330.60041 
L 251.369617 332.789649 
L 252.704545 333.00428 
L 254.039474 338.155428 
L 255.374402 331.759419 
L 256.70933 328.66873 
L 258.044258 332.489165 
L 259.379187 327.552647 
L 260.714115 328.239467 
L 262.049043 324.805368 
L 263.383971 322.27272 
L 264.7189 323.732212 
L 266.053828 329.827738 
L 267.388756 329.956517 
L 268.723684 329.441402 
L 270.058612 327.037533 
L 271.393541 332.489165 
L 272.728469 323.217097 
L 274.063397 327.466795 
L 275.398325 327.423869 
L 276.733254 330.686263 
L 278.068182 321.24249 
L 279.40311 323.946843 
L 280.738038 324.977073 
L 282.072967 326.865828 
L 283.407895 318.9674 
L 284.742823 322.530278 
L 286.077751 322.916614 
L 287.412679 323.560507 
L 290.082536 316.305973 
L 291.417464 322.95954 
L 292.752392 319.825925 
L 294.087321 319.525441 
L 295.422249 314.760628 
L 296.757177 311.669939 
L 298.092105 310.63971 
L 299.427033 327.595574 
L 300.761962 321.414195 
L 302.09689 311.369456 
L 303.431818 305.059299 
L 304.766746 326.179008 
L 306.101675 303.814438 
L 307.436603 329.183845 
L 308.771531 313.730399 
L 310.106459 315.275743 
L 311.441388 317.59376 
L 312.776316 308.665103 
L 314.111244 298.87792 
L 315.446172 292.610689 
L 316.7811 285.742491 
L 318.116029 286.300532 
L 319.450957 306.089528 
L 320.785885 307.076832 
L 322.120813 303.170544 
L 323.455742 311.369456 
L 324.79067 284.626409 
L 326.125598 296.903313 
L 327.460526 296.130641 
L 328.795455 305.660266 
L 330.130383 321.542974 
L 331.465311 289.648779 
L 332.800239 286.55809 
L 334.135167 301.024232 
L 335.470096 300.809601 
L 336.805024 156.448661 
L 338.139952 310.897267 
L 339.47488 322.61613 
L 340.809809 287.073205 
L 342.144737 299.264256 
L 343.479665 292.782394 
L 344.814593 291.322902 
L 346.149522 286.257606 
L 347.48445 314.073809 
L 348.819378 327.166311 
L 350.154306 289.133664 
L 351.489234 288.618549 
L 352.824163 285.742491 
L 354.159091 296.817461 
L 355.494019 287.073205 
L 356.828947 324.118548 
L 358.163876 328.024836 
L 359.498804 302.827134 
L 360.833732 289.047812 
L 362.16866 302.52665 
L 363.503589 298.1911 
L 364.838517 298.706215 
L 366.173445 320.298113 
L 367.508373 321.757605 
L 368.843301 296.130641 
L 370.17823 289.949263 
L 371.513158 286.858573 
L 372.848086 289.047812 
L 374.183014 300.165707 
L 375.517943 327.466795 
L 376.852871 321.757605 
L 378.187799 299.393035 
L 379.522727 293.769698 
L 380.857656 290.850714 
L 382.192584 297.032092 
L 383.527512 298.87792 
L 384.86244 323.903917 
L 386.197368 323.345876 
L 387.532297 290.163894 
L 388.867225 292.524837 
L 390.202153 289.133664 
L 391.537081 292.438984 
L 392.87201 305.61734 
L 394.206938 328.153615 
L 395.541866 331.201378 
L 396.876794 302.998839 
L 398.211722 305.917823 
L 399.546651 307.506094 
L 400.881579 308.879734 
L 403.551435 329.484328 
L 404.886364 331.931124 
L 406.221292 299.822297 
L 407.55622 299.478888 
L 408.891148 308.793881 
L 410.226077 307.978283 
L 411.561005 310.2963 
L 412.895933 327.380943 
L 414.230861 326.865828 
L 415.565789 316.177194 
L 416.900718 327.853131 
L 418.235646 306.390012 
L 419.570574 308.965586 
L 420.905502 303.471028 
L 422.240431 325.620967 
L 423.575359 327.98191 
L 424.910287 297.718912 
L 426.245215 302.998839 
L 427.580144 317.078645 
L 428.915072 297.590133 
L 430.25 302.784208 
L 431.584928 321.414195 
L 432.919856 330.815042 
L 434.254785 307.89243 
L 435.589713 304.758815 
L 436.924641 309.695332 
L 438.259569 308.92266 
L 439.594498 309.909963 
L 440.929426 328.926287 
L 442.264354 328.754582 
L 443.599282 308.622176 
L 444.934211 302.354946 
L 446.269139 304.844667 
L 447.604067 318.62399 
L 448.938995 312.013349 
L 450.273923 330.815042 
L 451.608852 333.390616 
L 452.94378 314.374292 
L 454.278708 307.506094 
L 455.613636 309.351922 
L 456.948565 309.566554 
L 458.283493 312.528464 
L 459.618421 323.903917 
L 460.953349 327.896057 
L 462.288278 311.541161 
L 463.623206 329.741886 
L 464.958134 305.660266 
L 466.293062 306.819274 
L 467.62799 306.819274 
L 468.962919 331.501861 
L 470.297847 333.562321 
L 471.632775 309.094365 
L 472.967703 306.003676 
L 474.302632 317.980096 
L 475.63756 314.588923 
L 476.972488 312.399685 
L 478.307416 331.072599 
L 479.642344 338.155428 
L 480.977273 321.886384 
L 482.312201 309.652406 
L 483.647129 308.021209 
L 484.982057 310.124595 
L 486.316986 314.63185 
L 487.651914 329.055066 
L 488.986842 333.948657 
L 490.32177 305.145151 
L 491.656699 308.879734 
L 492.991627 306.733422 
L 494.326555 313.25821 
L 495.661483 312.57139 
L 496.996411 331.029673 
L 498.33134 331.845271 
L 499.666268 308.192914 
L 501.001196 310.210447 
L 502.336124 308.750955 
L 503.671053 308.493398 
L 505.005981 309.824111 
L 506.340909 329.055066 
L 507.675837 334.163288 
L 509.010766 311.240677 
L 510.345694 310.682636 
L 511.680622 308.278766 
L 513.01555 318.9674 
L 514.350478 309.566554 
L 515.685407 330.729189 
L 517.020335 334.249141 
L 518.355263 307.591947 
L 519.690191 308.708029 
L 521.02512 312.700169 
L 522.360048 305.874897 
L 523.694976 314.674776 
L 525.029904 329.656033 
L 526.364833 332.832575 
L 527.699761 303.857364 
L 529.034689 310.081668 
L 530.369617 309.867037 
L 531.704545 305.746118 
L 533.039474 314.202587 
L 534.374402 330.299927 
L 535.70933 332.875501 
L 537.044258 309.094365 
L 538.379187 306.132454 
L 539.714115 312.099202 
L 541.049043 311.240677 
L 542.383971 315.275743 
L 543.7189 330.857968 
L 545.053828 333.776952 
L 546.388756 306.647569 
L 547.723684 310.038742 
L 549.058612 310.768488 
L 550.393541 330.171148 
L 551.728469 334.249141 
L 553.063397 332.231607 
L 554.398325 332.489165 
L 555.733254 301.839831 
L 557.068182 300.423265 
L 558.40311 301.839831 
L 559.738038 328.539951 
L 561.072967 334.721329 
L 562.407895 331.330156 
L 563.742823 330.385779 
L 565.077751 305.402708 
L 566.412679 304.544184 
L 567.747608 300.723748 
L 569.082536 295.658452 
L 570.417464 292.524837 
L 571.752392 333.175985 
L 573.087321 338.155428 
L 574.422249 263.5067 
L 575.757177 295.057485 
L 577.092105 297.332576 
L 578.427033 311.412382 
L 579.761962 293.597993 
L 581.09689 325.706819 
L 582.431818 327.080459 
L 583.766746 289.605853 
L 585.101675 293.211657 
L 586.436603 292.181427 
L 587.771531 314.073809 
L 589.106459 298.062322 
L 590.441388 324.33318 
L 591.776316 328.797508 
L 593.111244 293.984329 
L 594.446172 293.597993 
L 595.7811 291.022419 
L 597.116029 306.347086 
L 598.450957 304.58711 
L 599.785885 321.5859 
L 601.120813 332.66087 
L 602.455742 309.523627 
L 603.79067 309.523627 
L 605.125598 308.149988 
L 606.460526 311.111898 
L 607.795455 310.596783 
L 609.130383 329.570181 
L 610.465311 333.433542 
L 611.800239 306.132454 
L 613.135167 305.831971 
L 614.470096 304.415405 
L 615.805024 305.917823 
L 617.139952 304.329552 
L 618.47488 329.226771 
L 619.809809 333.6911 
L 621.144737 307.248537 
L 622.479665 304.801741 
L 623.814593 306.819274 
L 625.149522 309.60948 
L 626.48445 309.995816 
L 627.819378 327.896057 
L 629.154306 333.047206 
L 630.489234 304.544184 
L 631.824163 308.450471 
L 633.159091 321.92931 
L 634.494019 309.308996 
L 635.828947 315.790858 
L 637.163876 329.269697 
L 638.498804 333.390616 
L 639.833732 305.61734 
L 641.16866 302.140314 
L 642.503589 311.283603 
L 643.838517 302.097388 
L 645.173445 311.498234 
L 646.508373 328.582877 
L 647.843301 329.140918 
L 649.17823 304.114921 
L 650.513158 302.52665 
L 651.848086 305.96075 
L 653.183014 302.483724 
L 654.517943 307.89243 
L 655.852871 329.484328 
L 657.187799 332.446239 
L 658.522727 296.474051 
L 659.857656 297.418428 
L 661.192584 299.607666 
L 663.86244 298.706215 
L 665.197368 327.338016 
L 666.532297 329.226771 
L 667.867225 297.461354 
L 669.202153 289.17659 
L 670.537081 295.272116 
L 671.87201 298.405732 
L 673.206938 298.792068 
L 674.541866 324.118548 
L 675.876794 330.471632 
L 677.211722 326.221934 
L 678.546651 338.155428 
L 679.881579 298.577437 
L 681.216507 326.136082 
L 682.551435 329.441402 
L 683.886364 328.196541 
L 685.221292 329.183845 
L 686.55622 280.634269 
L 687.891148 280.033301 
L 689.226077 269.902709 
L 690.561005 281.020605 
L 691.895933 280.419638 
L 693.230861 319.65422 
L 694.565789 327.938984 
L 695.900718 251.74491 
L 697.235646 260.673568 
L 698.570574 270.890013 
L 699.905502 253.46196 
L 701.240431 267.756397 
L 702.575359 319.825925 
L 703.910287 324.633663 
L 705.245215 267.284209 
L 706.580144 268.228586 
L 707.915072 260.201379 
L 709.25 267.584692 
L 710.584928 272.993398 
L 711.919856 321.371269 
L 713.254785 327.810205 
L 714.589713 291.537533 
L 715.924641 269.645152 
L 717.259569 268.357365 
L 718.594498 277.028465 
L 721.264354 329.269697 
L 722.599282 330.128222 
L 723.934211 285.613712 
L 725.269139 286.9015 
L 726.604067 288.790254 
L 727.938995 284.197147 
L 729.273923 287.201983 
L 730.608852 328.926287 
L 731.94378 329.312623 
L 733.278708 296.860387 
L 734.613636 277.371875 
L 735.948565 290.721935 
L 737.283493 278.788441 
L 738.618421 297.504281 
L 739.953349 327.338016 
L 741.288278 331.330156 
L 742.623206 284.240073 
L 743.958134 293.125804 
L 745.293062 277.457727 
L 746.62799 299.135478 
L 747.962919 297.375502 
L 749.297847 323.217097 
L 750.632775 329.999443 
L 751.967703 287.502467 
L 753.302632 274.968005 
L 754.63756 293.51214 
L 755.972488 269.773931 
L 757.307416 299.178404 
L 758.642344 321.500048 
L 759.977273 329.913591 
L 761.312201 277.371875 
L 762.647129 280.891826 
L 763.982057 275.225563 
L 765.316986 281.449867 
L 766.651914 276.427497 
L 767.986842 313.859177 
L 769.32177 325.406336 
L 770.656699 270.289045 
L 771.991627 259.772117 
L 773.326555 261.532093 
L 774.661483 258.269699 
L 775.996411 259.900896 
L 777.33134 313.60162 
L 778.666268 325.835598 
L 780.001196 263.463773 
L 781.336124 274.968005 
L 782.671053 264.107667 
L 784.005981 274.538743 
L 785.340909 272.134874 
L 786.675837 314.116735 
L 788.010766 323.260024 
L 789.345694 258.355551 
L 790.680622 251.101017 
L 792.01555 253.719517 
L 793.350478 240.326531 
L 794.685407 258.097994 
L 796.020335 306.261233 
L 797.355263 321.757605 
L 798.690191 308.23584 
L 800.02512 299.135478 
L 801.360048 215.601018 
L 802.694976 232.299324 
L 804.029904 240.068973 
L 805.364833 302.827134 
L 806.699761 315.747932 
L 808.034689 218.605854 
L 809.369617 211.35132 
L 810.704545 206.414803 
L 812.039474 211.093763 
L 813.374402 208.990377 
L 814.70933 285.356155 
L 816.044258 311.712865 
L 817.379187 210.964984 
L 818.714115 213.497632 
L 820.049043 220.923871 
L 821.383971 213.841042 
L 822.7189 231.912988 
L 824.053828 308.064135 
L 825.388756 314.63185 
L 826.723684 192.764259 
L 828.058612 205.29872 
L 829.393541 193.751562 
L 830.728469 197.571997 
L 832.063397 195.640317 
L 833.398325 283.553253 
L 834.733254 316.864014 
L 836.068182 224.873085 
L 837.40311 184.694126 
L 838.738038 194.953497 
L 840.072967 192.463775 
L 841.407895 211.265467 
L 842.742823 289.133664 
L 844.077751 311.026046 
L 845.412679 218.434149 
L 846.747608 149.322905 
L 848.082536 163.53149 
L 849.417464 166.536327 
L 850.752392 166.536327 
L 852.087321 295.057485 
L 853.422249 312.22798 
L 854.757177 198.473448 
L 856.092105 139.922059 
L 857.427033 151.082881 
L 858.761962 157.178407 
L 860.09689 159.281793 
L 861.431818 281.964982 
L 862.766746 305.660266 
L 864.101675 174.048419 
L 865.436603 138.548419 
L 866.771531 88.067163 
L 868.106459 113.09316 
L 869.441388 141.553256 
L 870.776316 280.891826 
L 872.111244 305.789045 
L 873.446172 127.087114 
L 874.7811 113.822906 
L 876.116029 118.673571 
L 877.450957 134.084091 
L 878.785885 177.783001 
L 880.120813 282.093761 
L 881.455742 306.390012 
L 882.79067 145.931732 
L 884.125598 111.891225 
L 885.460526 173.833788 
L 886.795455 128.374901 
L 888.130383 228.435963 
L 889.465311 291.838017 
L 890.800239 310.682636 
L 892.135167 165.076835 
L 893.470096 118.373087 
L 894.805024 202.937777 
L 896.139952 132.109484 
L 897.47488 165.849507 
L 898.809809 292.224353 
L 900.144737 306.690496 
L 901.479665 153.615529 
L 902.814593 156.57744 
L 904.149522 290.636082 
L 905.48445 163.53149 
L 906.819378 191.047209 
L 908.154306 302.354946 
L 909.489234 312.22798 
L 910.824163 178.555674 
L 912.159091 156.019399 
L 913.494019 164.862204 
L 914.828947 176.237657 
L 916.163876 217.618551 
L 917.498804 297.117944 
L 918.833732 304.973446 
L 920.16866 211.265467 
L 921.503589 168.382155 
L 922.838517 206.32895 
L 924.173445 211.866435 
L 925.508373 239.038744 
L 926.843301 308.793881 
L 928.17823 321.5859 
L 929.513158 217.790256 
L 930.848086 223.842855 
L 932.183014 226.117946 
L 933.517943 247.795696 
L 934.852871 252.689288 
L 936.187799 308.965586 
L 937.522727 325.92145 
L 938.857656 264.150593 
L 940.192584 265.052044 
L 941.527512 277.54358 
L 942.86244 264.966192 
L 944.197368 279.389408 
L 945.532297 321.757605 
L 946.867225 329.870664 
L 948.202153 264.150593 
L 949.537081 274.882153 
L 950.87201 324.977073 
L 952.206938 265.524233 
L 953.541866 286.386385 
L 954.876794 323.431729 
L 956.211722 335.62278 
L 957.546651 280.205006 
L 958.881579 280.16208 
L 960.216507 283.467401 
L 961.551435 279.045998 
L 962.886364 295.958936 
L 964.221292 330.857968 
L 965.55622 334.506698 
L 966.891148 332.31746 
L 968.226077 304.58711 
L 969.561005 292.396058 
L 972.230861 302.569577 
L 973.565789 327.466795 
L 974.900718 334.506698 
L 976.235646 295.486747 
L 977.570574 305.789045 
L 978.905502 303.385175 
L 980.240431 302.569577 
L 981.575359 312.700169 
L 982.910287 326.350713 
L 984.245215 336.867641 
L 985.580144 314.245514 
L 986.915072 304.544184 
L 988.25 338.155428 
L 989.584928 267.756397 
L 990.919856 308.149988 
L 992.254785 330.471632 
L 993.589713 335.665707 
L 994.924641 296.946239 
L 996.259569 303.170544 
L 997.594498 302.569577 
L 998.929426 317.422055 
L 1000.264354 318.495211 
L 1001.599282 333.218911 
L 1002.934211 337.68324 
L 1004.269139 322.573204 
L 1005.604067 318.752769 
L 1006.938995 325.663893 
L 1008.273923 324.719516 
L 1009.608852 316.606457 
L 1010.94378 324.848294 
L 1012.278708 336.481305 
L 1013.613636 314.803555 
L 1014.948565 320.212261 
L 1016.283493 317.765465 
L 1017.618421 316.005489 
L 1018.953349 324.247327 
L 1020.288278 335.536928 
L 1021.623206 337.812018 
L 1022.958134 325.792672 
L 1024.293062 323.517581 
L 1025.62799 324.032696 
L 1026.962919 327.252164 
L 1028.297847 329.01214 
L 1029.632775 335.193518 
L 1030.967703 335.408149 
L 1032.302632 322.015163 
L 1033.63756 322.143941 
L 1034.972488 324.33318 
L 1036.307416 331.158452 
L 1037.642344 333.948657 
L 1038.977273 336.481305 
L 1040.312201 334.249141 
L 1041.647129 312.528464 
L 1042.982057 302.912987 
L 1044.316986 300.079855 
L 1045.651914 303.943216 
L 1046.986842 328.282394 
L 1048.32177 333.605247 
L 1049.656699 333.476468 
L 1052.326555 255.779977 
L 1053.661483 338.155428 
L 1054.996411 171.472844 
L 1056.33134 250.15664 
L 1057.666268 293.426288 
L 1059.001196 323.431729 
L 1060.336124 247.323508 
L 1061.671053 240.154826 
L 1063.005981 214.871271 
L 1064.340909 225.345274 
L 1065.675837 216.802952 
L 1067.010766 278.187473 
L 1068.345694 321.671753 
L 1069.680622 213.626411 
L 1071.01555 200.834392 
L 1072.350478 201.950474 
L 1073.685407 201.263654 
L 1075.020335 209.591344 
L 1076.355263 303.041765 
L 1077.690191 309.867037 
L 1079.02512 206.371876 
L 1080.360048 181.260027 
L 1081.694976 162.415408 
L 1083.029904 156.405735 
L 1085.699761 283.081064 
L 1087.034689 308.92266 
L 1088.369617 156.877923 
L 1089.704545 171.945033 
L 1091.039474 169.669942 
L 1092.374402 196.327136 
L 1093.70933 153.744308 
L 1095.044258 288.103434 
L 1096.379187 296.044788 
L 1097.714115 165.377319 
L 1099.049043 135.543583 
L 1100.383971 127.859786 
L 1101.7189 154.602833 
L 1103.053828 167.180221 
L 1104.388756 289.262443 
L 1105.723684 301.324716 
L 1107.058612 164.132458 
L 1108.393541 134.556279 
L 1109.728469 144.858577 
L 1111.063397 165.420245 
L 1112.398325 195.683243 
L 1113.733254 295.744305 
L 1115.068182 307.463168 
L 1116.40311 175.336206 
L 1117.738038 150.18143 
L 1119.072967 181.045396 
L 1120.407895 190.489168 
L 1121.742823 222.812626 
L 1123.077751 306.862201 
L 1124.412679 338.155428 
L 1125.747608 174.005492 
L 1127.082536 200.405129 
L 1129.752392 231.483726 
L 1131.087321 226.976471 
L 1132.422249 314.159661 
L 1133.757177 318.495211 
L 1135.092105 215.944427 
L 1136.427033 226.890618 
L 1137.761962 252.174173 
L 1139.09689 237.665104 
L 1140.431818 253.80537 
L 1141.766746 324.376106 
L 1143.101675 322.573204 
L 1144.436603 249.727377 
L 1145.771531 246.593762 
L 1147.106459 229.165709 
L 1148.441388 252.903919 
L 1149.776316 266.683241 
L 1151.111244 322.701983 
L 1152.446172 315.962563 
L 1153.7811 260.845273 
L 1155.116029 251.315648 
L 1156.450957 279.904523 
L 1157.785885 281.87913 
L 1159.120813 294.628223 
L 1160.455742 323.431729 
L 1161.79067 332.059903 
L 1163.125598 277.328948 
L 1164.460526 272.263652 
L 1167.130383 294.928706 
L 1168.465311 301.067158 
L 1169.800239 330.085296 
L 1171.135167 328.883361 
L 1172.470096 294.799928 
L 1173.805024 303.943216 
L 1175.139952 305.231003 
L 1176.47488 305.61734 
L 1177.809809 306.733422 
L 1179.144737 332.789649 
L 1180.479665 334.420846 
L 1181.814593 303.428101 
L 1183.149522 301.539347 
L 1184.48445 327.896057 
L 1185.819378 335.96619 
L 1187.154306 333.218911 
L 1188.489234 335.322297 
L 1189.824163 336.009116 
L 1191.159091 299.092551 
L 1192.494019 299.607666 
L 1193.828947 292.610689 
L 1195.163876 301.067158 
L 1196.498804 294.027255 
L 1197.833732 329.441402 
L 1199.16866 334.678403 
L 1200.503589 311.712865 
L 1201.838517 304.2437 
L 1203.173445 298.234027 
L 1204.508373 300.423265 
L 1205.843301 309.051439 
L 1207.17823 335.365223 
L 1208.513158 337.253977 
L 1209.848086 331.587714 
L 1211.183014 307.849504 
L 1212.517943 312.099202 
L 1213.852871 307.720725 
L 1215.187799 311.970423 
L 1216.522727 334.807182 
L 1217.857656 335.708633 
L 1219.192584 307.978283 
L 1220.527512 338.155428 
L 1221.86244 296.946239 
L 1223.197368 309.738259 
L 1224.532297 314.331366 
L 1225.867225 335.107665 
L 1227.202153 334.377919 
L 1228.537081 308.57925 
L 1229.87201 304.071995 
L 1231.206938 303.084692 
L 1232.541866 299.049625 
L 1233.876794 313.515768 
L 1235.211722 333.00428 
L 1236.546651 334.721329 
L 1237.881579 311.498234 
L 1239.216507 303.041765 
L 1240.551435 311.798718 
L 1241.886364 308.879734 
L 1243.221292 308.321693 
L 1244.55622 334.206214 
L 1245.891148 335.107665 
L 1247.226077 302.397872 
L 1248.561005 298.920846 
L 1249.895933 302.097388 
L 1251.230861 302.140314 
L 1252.565789 296.731608 
L 1253.900718 333.776952 
L 1255.235646 333.605247 
L 1256.570574 289.562926 
L 1257.905502 278.015768 
L 1259.240431 292.696542 
L 1260.575359 338.155428 
L 1261.910287 229.251561 
L 1263.245215 328.926287 
L 1264.580144 331.673566 
L 1265.915072 272.692915 
L 1267.25 246.379131 
L 1268.584928 270.632455 
L 1269.919856 256.509723 
L 1271.254785 262.261839 
L 1272.589713 325.363409 
L 1273.924641 327.509721 
L 1275.259569 338.155428 
L 1276.594498 79.224358 
L 1277.929426 202.250957 
L 1279.264354 202.594367 
L 1280.599282 206.715286 
L 1281.934211 307.377315 
L 1283.269139 311.88457 
L 1284.604067 173.404525 
L 1285.938995 151.769701 
L 1287.273923 120.433547 
L 1288.608852 140.394248 
L 1289.94378 188.943823 
L 1291.278708 273.894849 
L 1292.613636 301.582273 
L 1293.948565 286.9015 
L 1295.283493 117.815046 
L 1296.618421 89.784213 
L 1297.953349 78.838022 
L 1299.288278 93.776353 
L 1300.623206 231.741283 
L 1300.623206 231.741283 
" clip-path="url(#p4c2b748e11)" style="fill: none; stroke: #0000ff; stroke-width: 1.5; stroke-linecap: square"/>
   </g>
   <g id="line2d_21">
    <path d="M 1061.671053 274.359017 
L 1063.005981 182.396963 
L 1064.340909 248.529539 
L 1065.675837 261.349344 
L 1067.010766 284.122868 
L 1068.345694 235.173554 
L 1069.680622 217.646202 
L 1071.01555 214.05173 
L 1072.350478 181.589947 
L 1073.685407 213.940309 
L 1076.355263 289.297858 
L 1077.690191 213.144117 
L 1079.02512 195.156153 
L 1080.360048 190.498118 
L 1081.694976 175.516423 
L 1083.029904 190.727047 
L 1084.364833 264.95859 
L 1085.699761 284.737111 
L 1087.034689 200.213869 
L 1088.369617 161.260455 
L 1089.704545 160.773538 
L 1091.039474 157.175664 
L 1092.374402 209.600278 
L 1093.70933 245.391044 
L 1095.044258 277.32521 
L 1096.379187 169.161394 
L 1097.714115 171.460096 
L 1099.049043 147.779921 
L 1100.383971 156.556357 
L 1101.7189 160.066946 
L 1103.053828 256.963683 
L 1104.388756 275.903463 
L 1105.723684 161.438669 
L 1107.058612 141.022871 
L 1108.393541 130.077142 
L 1109.728469 154.152703 
L 1111.063397 165.991439 
L 1112.398325 274.600465 
L 1113.733254 286.83165 
L 1115.068182 170.090875 
L 1116.40311 146.233199 
L 1117.738038 150.312173 
L 1119.072967 177.797136 
L 1120.407895 197.883332 
L 1121.742823 296.93389 
L 1123.077751 305.418893 
L 1124.412679 196.176797 
L 1125.747608 165.381078 
L 1127.082536 192.970815 
L 1128.417464 210.204555 
L 1129.752392 240.452525 
L 1131.087321 312.712746 
L 1132.422249 334.56002 
L 1133.757177 199.986299 
L 1135.092105 211.738093 
L 1137.761962 247.100331 
L 1139.09689 246.204664 
L 1140.431818 328.365899 
L 1141.766746 339.727809 
L 1143.101675 228.403853 
L 1144.436603 241.325539 
L 1145.771531 261.889005 
L 1147.106459 250.953669 
L 1148.441388 260.6978 
L 1149.776316 337.931515 
L 1151.111244 341.571088 
L 1152.446172 244.51996 
L 1153.7811 252.856223 
L 1155.116029 254.880986 
L 1156.450957 271.383726 
L 1157.785885 279.921696 
L 1159.120813 343.182721 
L 1160.455742 333.173718 
L 1161.79067 269.299026 
L 1163.125598 270.715488 
L 1164.460526 288.061765 
L 1165.795455 289.911759 
L 1167.130383 301.177102 
L 1168.465311 343.493585 
L 1169.800239 343.65902 
L 1171.135167 282.788792 
L 1172.470096 284.870849 
L 1173.805024 302.734478 
L 1175.139952 308.620862 
L 1176.47488 311.39208 
L 1177.809809 343.406764 
L 1179.144737 344.958524 
L 1180.479665 301.542441 
L 1183.149522 311.762916 
L 1184.48445 319.062154 
L 1185.819378 324.968963 
L 1187.154306 353.2755 
L 1188.489234 346.321367 
L 1189.824163 310.52248 
L 1191.159091 312.160101 
L 1192.494019 328.755886 
L 1195.163876 321.82463 
L 1196.498804 331.513127 
L 1197.833732 336.178625 
L 1199.16866 300.822683 
L 1200.503589 302.639844 
L 1201.838517 302.179367 
L 1203.173445 306.241901 
L 1204.508373 301.641836 
L 1205.843301 329.926585 
L 1207.17823 335.6496 
L 1208.513158 308.260116 
L 1209.848086 309.00536 
L 1211.183014 305.695538 
L 1212.517943 310.711213 
L 1213.852871 310.971925 
L 1215.187799 338.125976 
L 1216.522727 339.579604 
L 1217.857656 324.315453 
L 1219.192584 307.25389 
L 1220.527512 318.422835 
L 1221.86244 310.975097 
L 1223.197368 314.075976 
L 1224.532297 332.989587 
L 1225.867225 340.581042 
L 1227.202153 316.392271 
L 1228.537081 322.362649 
L 1229.87201 299.942164 
L 1231.206938 308.827511 
L 1232.541866 311.042767 
L 1233.876794 332.672326 
L 1235.211722 330.623518 
L 1236.546651 310.396955 
L 1237.881579 310.558415 
L 1239.216507 299.278963 
L 1240.551435 304.368306 
L 1241.886364 314.140141 
L 1243.221292 331.068382 
L 1244.55622 331.026411 
L 1245.891148 312.084069 
L 1247.226077 307.019516 
L 1248.561005 304.191594 
L 1249.895933 304.216464 
L 1251.230861 309.227612 
L 1252.565789 326.465652 
L 1253.900718 329.386801 
L 1255.235646 304.889423 
L 1256.570574 297.330879 
L 1257.905502 292.33354 
L 1259.240431 295.194242 
L 1260.575359 309.293458 
L 1261.910287 311.206745 
L 1263.245215 317.049417 
L 1264.580144 288.215229 
L 1265.915072 286.428725 
L 1267.25 272.803103 
L 1268.584928 297.518496 
L 1269.919856 241.147286 
L 1271.254785 310.454355 
L 1272.589713 313.071062 
L 1273.924641 272.62344 
L 1275.259569 264.587089 
L 1276.594498 224.235509 
L 1277.929426 234.323799 
L 1279.264354 216.644222 
L 1280.599282 300.437342 
L 1283.269139 270.536857 
L 1284.604067 106.630849 
L 1285.938995 185.08655 
L 1287.273923 175.656436 
L 1288.608852 173.184256 
L 1289.94378 244.683223 
L 1291.278708 265.037846 
L 1292.613636 192.281746 
L 1293.948565 133.420927 
L 1295.283493 135.585622 
L 1296.618421 129.43443 
L 1297.953349 139.880161 
L 1299.288278 226.355763 
L 1300.623206 253.009387 
L 1300.623206 253.009387 
" clip-path="url(#p4c2b748e11)" style="fill: none; stroke: #ffa500; stroke-width: 1.5; stroke-linecap: square"/>
   </g>
   <g id="line2d_22">
    <path d="M 1300.623206 253.009387 
L 1301.958134 211.349981 
L 1303.293062 91.259292 
L 1304.62799 74.556778 
L 1305.962919 73.576622 
L 1307.297847 91.131045 
L 1308.632775 193.921885 
L 1309.967703 212.557801 
L 1311.302632 173.194924 
L 1312.63756 62.639913 
L 1313.972488 51.688473 
L 1315.307416 50.8755 
L 1316.642344 66.77892 
L 1317.977273 162.731382 
" clip-path="url(#p4c2b748e11)" style="fill: none; stroke: #ff0000; stroke-width: 1.5; stroke-linecap: square"/>
   </g>
   <g id="patch_3">
    <path d="M 39.65 368.3955 
L 39.65 35.7555 
" style="fill: none; stroke: #000000; stroke-width: 0.8; stroke-linejoin: miter; stroke-linecap: square"/>
   </g>
   <g id="patch_4">
    <path d="M 1378.85 368.3955 
L 1378.85 35.7555 
" style="fill: none; stroke: #000000; stroke-width: 0.8; stroke-linejoin: miter; stroke-linecap: square"/>
   </g>
   <g id="patch_5">
    <path d="M 39.65 368.3955 
L 1378.85 368.3955 
" style="fill: none; stroke: #000000; stroke-width: 0.8; stroke-linejoin: miter; stroke-linecap: square"/>
   </g>
   <g id="patch_6">
    <path d="M 39.65 35.7555 
L 1378.85 35.7555 
" style="fill: none; stroke: #000000; stroke-width: 0.8; stroke-linejoin: miter; stroke-linecap: square"/>
   </g>
   <g id="text_20">
    <!-- Daily Confirmed Cases Forecasting - Guatemala -->
    <g transform="translate(565.712188 16.318125)scale(0.12 -0.12)">
     <defs>
      <path id="DejaVuSans-44" d="M 1259 4147 
L 1259 519 
L 2022 519 
Q 2988 519 3436 956 
Q 3884 1394 3884 2338 
Q 3884 3275 3436 3711 
Q 2988 4147 2022 4147 
L 1259 4147 
z
M 628 4666 
L 1925 4666 
Q 3281 4666 3915 4102 
Q 4550 3538 4550 2338 
Q 4550 1131 3912 565 
Q 3275 0 1925 0 
L 628 0 
L 628 4666 
z
" transform="scale(0.015625)"/>
      <path id="DejaVuSans-61" d="M 2194 1759 
Q 1497 1759 1228 1600 
Q 959 1441 959 1056 
Q 959 750 1161 570 
Q 1363 391 1709 391 
Q 2188 391 2477 730 
Q 2766 1069 2766 1631 
L 2766 1759 
L 2194 1759 
z
M 3341 1997 
L 3341 0 
L 2766 0 
L 2766 531 
Q 2569 213 2275 61 
Q 1981 -91 1556 -91 
Q 1019 -91 701 211 
Q 384 513 384 1019 
Q 384 1609 779 1909 
Q 1175 2209 1959 2209 
L 2766 2209 
L 2766 2266 
Q 2766 2663 2505 2880 
Q 2244 3097 1772 3097 
Q 1472 3097 1187 3025 
Q 903 2953 641 2809 
L 641 3341 
Q 956 3463 1253 3523 
Q 1550 3584 1831 3584 
Q 2591 3584 2966 3190 
Q 3341 2797 3341 1997 
z
" transform="scale(0.015625)"/>
      <path id="DejaVuSans-69" d="M 603 3500 
L 1178 3500 
L 1178 0 
L 603 0 
L 603 3500 
z
M 603 4863 
L 1178 4863 
L 1178 4134 
L 603 4134 
L 603 4863 
z
" transform="scale(0.015625)"/>
      <path id="DejaVuSans-6c" d="M 603 4863 
L 1178 4863 
L 1178 0 
L 603 0 
L 603 4863 
z
" transform="scale(0.015625)"/>
      <path id="DejaVuSans-79" d="M 2059 -325 
Q 1816 -950 1584 -1140 
Q 1353 -1331 966 -1331 
L 506 -1331 
L 506 -850 
L 844 -850 
Q 1081 -850 1212 -737 
Q 1344 -625 1503 -206 
L 1606 56 
L 191 3500 
L 800 3500 
L 1894 763 
L 2988 3500 
L 3597 3500 
L 2059 -325 
z
" transform="scale(0.015625)"/>
      <path id="DejaVuSans-20" transform="scale(0.015625)"/>
      <path id="DejaVuSans-43" d="M 4122 4306 
L 4122 3641 
Q 3803 3938 3442 4084 
Q 3081 4231 2675 4231 
Q 1875 4231 1450 3742 
Q 1025 3253 1025 2328 
Q 1025 1406 1450 917 
Q 1875 428 2675 428 
Q 3081 428 3442 575 
Q 3803 722 4122 1019 
L 4122 359 
Q 3791 134 3420 21 
Q 3050 -91 2638 -91 
Q 1578 -91 968 557 
Q 359 1206 359 2328 
Q 359 3453 968 4101 
Q 1578 4750 2638 4750 
Q 3056 4750 3426 4639 
Q 3797 4528 4122 4306 
z
" transform="scale(0.015625)"/>
      <path id="DejaVuSans-6f" d="M 1959 3097 
Q 1497 3097 1228 2736 
Q 959 2375 959 1747 
Q 959 1119 1226 758 
Q 1494 397 1959 397 
Q 2419 397 2687 759 
Q 2956 1122 2956 1747 
Q 2956 2369 2687 2733 
Q 2419 3097 1959 3097 
z
M 1959 3584 
Q 2709 3584 3137 3096 
Q 3566 2609 3566 1747 
Q 3566 888 3137 398 
Q 2709 -91 1959 -91 
Q 1206 -91 779 398 
Q 353 888 353 1747 
Q 353 2609 779 3096 
Q 1206 3584 1959 3584 
z
" transform="scale(0.015625)"/>
      <path id="DejaVuSans-6e" d="M 3513 2113 
L 3513 0 
L 2938 0 
L 2938 2094 
Q 2938 2591 2744 2837 
Q 2550 3084 2163 3084 
Q 1697 3084 1428 2787 
Q 1159 2491 1159 1978 
L 1159 0 
L 581 0 
L 581 3500 
L 1159 3500 
L 1159 2956 
Q 1366 3272 1645 3428 
Q 1925 3584 2291 3584 
Q 2894 3584 3203 3211 
Q 3513 2838 3513 2113 
z
" transform="scale(0.015625)"/>
      <path id="DejaVuSans-66" d="M 2375 4863 
L 2375 4384 
L 1825 4384 
Q 1516 4384 1395 4259 
Q 1275 4134 1275 3809 
L 1275 3500 
L 2222 3500 
L 2222 3053 
L 1275 3053 
L 1275 0 
L 697 0 
L 697 3053 
L 147 3053 
L 147 3500 
L 697 3500 
L 697 3744 
Q 697 4328 969 4595 
Q 1241 4863 1831 4863 
L 2375 4863 
z
" transform="scale(0.015625)"/>
      <path id="DejaVuSans-72" d="M 2631 2963 
Q 2534 3019 2420 3045 
Q 2306 3072 2169 3072 
Q 1681 3072 1420 2755 
Q 1159 2438 1159 1844 
L 1159 0 
L 581 0 
L 581 3500 
L 1159 3500 
L 1159 2956 
Q 1341 3275 1631 3429 
Q 1922 3584 2338 3584 
Q 2397 3584 2469 3576 
Q 2541 3569 2628 3553 
L 2631 2963 
z
" transform="scale(0.015625)"/>
      <path id="DejaVuSans-6d" d="M 3328 2828 
Q 3544 3216 3844 3400 
Q 4144 3584 4550 3584 
Q 5097 3584 5394 3201 
Q 5691 2819 5691 2113 
L 5691 0 
L 5113 0 
L 5113 2094 
Q 5113 2597 4934 2840 
Q 4756 3084 4391 3084 
Q 3944 3084 3684 2787 
Q 3425 2491 3425 1978 
L 3425 0 
L 2847 0 
L 2847 2094 
Q 2847 2600 2669 2842 
Q 2491 3084 2119 3084 
Q 1678 3084 1418 2786 
Q 1159 2488 1159 1978 
L 1159 0 
L 581 0 
L 581 3500 
L 1159 3500 
L 1159 2956 
Q 1356 3278 1631 3431 
Q 1906 3584 2284 3584 
Q 2666 3584 2933 3390 
Q 3200 3197 3328 2828 
z
" transform="scale(0.015625)"/>
      <path id="DejaVuSans-65" d="M 3597 1894 
L 3597 1613 
L 953 1613 
Q 991 1019 1311 708 
Q 1631 397 2203 397 
Q 2534 397 2845 478 
Q 3156 559 3463 722 
L 3463 178 
Q 3153 47 2828 -22 
Q 2503 -91 2169 -91 
Q 1331 -91 842 396 
Q 353 884 353 1716 
Q 353 2575 817 3079 
Q 1281 3584 2069 3584 
Q 2775 3584 3186 3129 
Q 3597 2675 3597 1894 
z
M 3022 2063 
Q 3016 2534 2758 2815 
Q 2500 3097 2075 3097 
Q 1594 3097 1305 2825 
Q 1016 2553 972 2059 
L 3022 2063 
z
" transform="scale(0.015625)"/>
      <path id="DejaVuSans-64" d="M 2906 2969 
L 2906 4863 
L 3481 4863 
L 3481 0 
L 2906 0 
L 2906 525 
Q 2725 213 2448 61 
Q 2172 -91 1784 -91 
Q 1150 -91 751 415 
Q 353 922 353 1747 
Q 353 2572 751 3078 
Q 1150 3584 1784 3584 
Q 2172 3584 2448 3432 
Q 2725 3281 2906 2969 
z
M 947 1747 
Q 947 1113 1208 752 
Q 1469 391 1925 391 
Q 2381 391 2643 752 
Q 2906 1113 2906 1747 
Q 2906 2381 2643 2742 
Q 2381 3103 1925 3103 
Q 1469 3103 1208 2742 
Q 947 2381 947 1747 
z
" transform="scale(0.015625)"/>
      <path id="DejaVuSans-73" d="M 2834 3397 
L 2834 2853 
Q 2591 2978 2328 3040 
Q 2066 3103 1784 3103 
Q 1356 3103 1142 2972 
Q 928 2841 928 2578 
Q 928 2378 1081 2264 
Q 1234 2150 1697 2047 
L 1894 2003 
Q 2506 1872 2764 1633 
Q 3022 1394 3022 966 
Q 3022 478 2636 193 
Q 2250 -91 1575 -91 
Q 1294 -91 989 -36 
Q 684 19 347 128 
L 347 722 
Q 666 556 975 473 
Q 1284 391 1588 391 
Q 1994 391 2212 530 
Q 2431 669 2431 922 
Q 2431 1156 2273 1281 
Q 2116 1406 1581 1522 
L 1381 1569 
Q 847 1681 609 1914 
Q 372 2147 372 2553 
Q 372 3047 722 3315 
Q 1072 3584 1716 3584 
Q 2034 3584 2315 3537 
Q 2597 3491 2834 3397 
z
" transform="scale(0.015625)"/>
      <path id="DejaVuSans-46" d="M 628 4666 
L 3309 4666 
L 3309 4134 
L 1259 4134 
L 1259 2759 
L 3109 2759 
L 3109 2228 
L 1259 2228 
L 1259 0 
L 628 0 
L 628 4666 
z
" transform="scale(0.015625)"/>
      <path id="DejaVuSans-63" d="M 3122 3366 
L 3122 2828 
Q 2878 2963 2633 3030 
Q 2388 3097 2138 3097 
Q 1578 3097 1268 2742 
Q 959 2388 959 1747 
Q 959 1106 1268 751 
Q 1578 397 2138 397 
Q 2388 397 2633 464 
Q 2878 531 3122 666 
L 3122 134 
Q 2881 22 2623 -34 
Q 2366 -91 2075 -91 
Q 1284 -91 818 406 
Q 353 903 353 1747 
Q 353 2603 823 3093 
Q 1294 3584 2113 3584 
Q 2378 3584 2631 3529 
Q 2884 3475 3122 3366 
z
" transform="scale(0.015625)"/>
      <path id="DejaVuSans-74" d="M 1172 4494 
L 1172 3500 
L 2356 3500 
L 2356 3053 
L 1172 3053 
L 1172 1153 
Q 1172 725 1289 603 
Q 1406 481 1766 481 
L 2356 481 
L 2356 0 
L 1766 0 
Q 1100 0 847 248 
Q 594 497 594 1153 
L 594 3053 
L 172 3053 
L 172 3500 
L 594 3500 
L 594 4494 
L 1172 4494 
z
" transform="scale(0.015625)"/>
      <path id="DejaVuSans-67" d="M 2906 1791 
Q 2906 2416 2648 2759 
Q 2391 3103 1925 3103 
Q 1463 3103 1205 2759 
Q 947 2416 947 1791 
Q 947 1169 1205 825 
Q 1463 481 1925 481 
Q 2391 481 2648 825 
Q 2906 1169 2906 1791 
z
M 3481 434 
Q 3481 -459 3084 -895 
Q 2688 -1331 1869 -1331 
Q 1566 -1331 1297 -1286 
Q 1028 -1241 775 -1147 
L 775 -588 
Q 1028 -725 1275 -790 
Q 1522 -856 1778 -856 
Q 2344 -856 2625 -561 
Q 2906 -266 2906 331 
L 2906 616 
Q 2728 306 2450 153 
Q 2172 0 1784 0 
Q 1141 0 747 490 
Q 353 981 353 1791 
Q 353 2603 747 3093 
Q 1141 3584 1784 3584 
Q 2172 3584 2450 3431 
Q 2728 3278 2906 2969 
L 2906 3500 
L 3481 3500 
L 3481 434 
z
" transform="scale(0.015625)"/>
      <path id="DejaVuSans-47" d="M 3809 666 
L 3809 1919 
L 2778 1919 
L 2778 2438 
L 4434 2438 
L 4434 434 
Q 4069 175 3628 42 
Q 3188 -91 2688 -91 
Q 1594 -91 976 548 
Q 359 1188 359 2328 
Q 359 3472 976 4111 
Q 1594 4750 2688 4750 
Q 3144 4750 3555 4637 
Q 3966 4525 4313 4306 
L 4313 3634 
Q 3963 3931 3569 4081 
Q 3175 4231 2741 4231 
Q 1884 4231 1454 3753 
Q 1025 3275 1025 2328 
Q 1025 1384 1454 906 
Q 1884 428 2741 428 
Q 3075 428 3337 486 
Q 3600 544 3809 666 
z
" transform="scale(0.015625)"/>
      <path id="DejaVuSans-75" d="M 544 1381 
L 544 3500 
L 1119 3500 
L 1119 1403 
Q 1119 906 1312 657 
Q 1506 409 1894 409 
Q 2359 409 2629 706 
Q 2900 1003 2900 1516 
L 2900 3500 
L 3475 3500 
L 3475 0 
L 2900 0 
L 2900 538 
Q 2691 219 2414 64 
Q 2138 -91 1772 -91 
Q 1169 -91 856 284 
Q 544 659 544 1381 
z
M 1991 3584 
L 1991 3584 
z
" transform="scale(0.015625)"/>
     </defs>
     <use xlink:href="#DejaVuSans-44"/>
     <use xlink:href="#DejaVuSans-61" x="77.001953"/>
     <use xlink:href="#DejaVuSans-69" x="138.28125"/>
     <use xlink:href="#DejaVuSans-6c" x="166.064453"/>
     <use xlink:href="#DejaVuSans-79" x="193.847656"/>
     <use xlink:href="#DejaVuSans-20" x="253.027344"/>
     <use xlink:href="#DejaVuSans-43" x="284.814453"/>
     <use xlink:href="#DejaVuSans-6f" x="354.638672"/>
     <use xlink:href="#DejaVuSans-6e" x="415.820312"/>
     <use xlink:href="#DejaVuSans-66" x="479.199219"/>
     <use xlink:href="#DejaVuSans-69" x="514.404297"/>
     <use xlink:href="#DejaVuSans-72" x="542.1875"/>
     <use xlink:href="#DejaVuSans-6d" x="581.550781"/>
     <use xlink:href="#DejaVuSans-65" x="678.962891"/>
     <use xlink:href="#DejaVuSans-64" x="740.486328"/>
     <use xlink:href="#DejaVuSans-20" x="803.962891"/>
     <use xlink:href="#DejaVuSans-43" x="835.75"/>
     <use xlink:href="#DejaVuSans-61" x="905.574219"/>
     <use xlink:href="#DejaVuSans-73" x="966.853516"/>
     <use xlink:href="#DejaVuSans-65" x="1018.953125"/>
     <use xlink:href="#DejaVuSans-73" x="1080.476562"/>
     <use xlink:href="#DejaVuSans-20" x="1132.576172"/>
     <use xlink:href="#DejaVuSans-46" x="1164.363281"/>
     <use xlink:href="#DejaVuSans-6f" x="1218.257812"/>
     <use xlink:href="#DejaVuSans-72" x="1279.439453"/>
     <use xlink:href="#DejaVuSans-65" x="1318.302734"/>
     <use xlink:href="#DejaVuSans-63" x="1379.826172"/>
     <use xlink:href="#DejaVuSans-61" x="1434.806641"/>
     <use xlink:href="#DejaVuSans-73" x="1496.085938"/>
     <use xlink:href="#DejaVuSans-74" x="1548.185547"/>
     <use xlink:href="#DejaVuSans-69" x="1587.394531"/>
     <use xlink:href="#DejaVuSans-6e" x="1615.177734"/>
     <use xlink:href="#DejaVuSans-67" x="1678.556641"/>
     <use xlink:href="#DejaVuSans-20" x="1742.033203"/>
     <use xlink:href="#DejaVuSans-2d" x="1773.820312"/>
     <use xlink:href="#DejaVuSans-20" x="1809.904297"/>
     <use xlink:href="#DejaVuSans-47" x="1841.691406"/>
     <use xlink:href="#DejaVuSans-75" x="1919.181641"/>
     <use xlink:href="#DejaVuSans-61" x="1982.560547"/>
     <use xlink:href="#DejaVuSans-74" x="2043.839844"/>
     <use xlink:href="#DejaVuSans-65" x="2083.048828"/>
     <use xlink:href="#DejaVuSans-6d" x="2144.572266"/>
     <use xlink:href="#DejaVuSans-61" x="2241.984375"/>
     <use xlink:href="#DejaVuSans-6c" x="2303.263672"/>
     <use xlink:href="#DejaVuSans-61" x="2331.046875"/>
    </g>
    <!-- ARIMA (4, 1, 1)x(1, 0, 1, 7) (R2 = 0.553975) -->
    <g transform="translate(577.265938 29.7555)scale(0.12 -0.12)">
     <defs>
      <path id="DejaVuSans-41" d="M 2188 4044 
L 1331 1722 
L 3047 1722 
L 2188 4044 
z
M 1831 4666 
L 2547 4666 
L 4325 0 
L 3669 0 
L 3244 1197 
L 1141 1197 
L 716 0 
L 50 0 
L 1831 4666 
z
" transform="scale(0.015625)"/>
      <path id="DejaVuSans-52" d="M 2841 2188 
Q 3044 2119 3236 1894 
Q 3428 1669 3622 1275 
L 4263 0 
L 3584 0 
L 2988 1197 
Q 2756 1666 2539 1819 
Q 2322 1972 1947 1972 
L 1259 1972 
L 1259 0 
L 628 0 
L 628 4666 
L 2053 4666 
Q 2853 4666 3247 4331 
Q 3641 3997 3641 3322 
Q 3641 2881 3436 2590 
Q 3231 2300 2841 2188 
z
M 1259 4147 
L 1259 2491 
L 2053 2491 
Q 2509 2491 2742 2702 
Q 2975 2913 2975 3322 
Q 2975 3731 2742 3939 
Q 2509 4147 2053 4147 
L 1259 4147 
z
" transform="scale(0.015625)"/>
      <path id="DejaVuSans-49" d="M 628 4666 
L 1259 4666 
L 1259 0 
L 628 0 
L 628 4666 
z
" transform="scale(0.015625)"/>
      <path id="DejaVuSans-4d" d="M 628 4666 
L 1569 4666 
L 2759 1491 
L 3956 4666 
L 4897 4666 
L 4897 0 
L 4281 0 
L 4281 4097 
L 3078 897 
L 2444 897 
L 1241 4097 
L 1241 0 
L 628 0 
L 628 4666 
z
" transform="scale(0.015625)"/>
      <path id="DejaVuSans-28" d="M 1984 4856 
Q 1566 4138 1362 3434 
Q 1159 2731 1159 2009 
Q 1159 1288 1364 580 
Q 1569 -128 1984 -844 
L 1484 -844 
Q 1016 -109 783 600 
Q 550 1309 550 2009 
Q 550 2706 781 3412 
Q 1013 4119 1484 4856 
L 1984 4856 
z
" transform="scale(0.015625)"/>
      <path id="DejaVuSans-2c" d="M 750 794 
L 1409 794 
L 1409 256 
L 897 -744 
L 494 -744 
L 750 256 
L 750 794 
z
" transform="scale(0.015625)"/>
      <path id="DejaVuSans-29" d="M 513 4856 
L 1013 4856 
Q 1481 4119 1714 3412 
Q 1947 2706 1947 2009 
Q 1947 1309 1714 600 
Q 1481 -109 1013 -844 
L 513 -844 
Q 928 -128 1133 580 
Q 1338 1288 1338 2009 
Q 1338 2731 1133 3434 
Q 928 4138 513 4856 
z
" transform="scale(0.015625)"/>
      <path id="DejaVuSans-78" d="M 3513 3500 
L 2247 1797 
L 3578 0 
L 2900 0 
L 1881 1375 
L 863 0 
L 184 0 
L 1544 1831 
L 300 3500 
L 978 3500 
L 1906 2253 
L 2834 3500 
L 3513 3500 
z
" transform="scale(0.015625)"/>
      <path id="DejaVuSans-3d" d="M 678 2906 
L 4684 2906 
L 4684 2381 
L 678 2381 
L 678 2906 
z
M 678 1631 
L 4684 1631 
L 4684 1100 
L 678 1100 
L 678 1631 
z
" transform="scale(0.015625)"/>
      <path id="DejaVuSans-2e" d="M 684 794 
L 1344 794 
L 1344 0 
L 684 0 
L 684 794 
z
" transform="scale(0.015625)"/>
      <path id="DejaVuSans-39" d="M 703 97 
L 703 672 
Q 941 559 1184 500 
Q 1428 441 1663 441 
Q 2288 441 2617 861 
Q 2947 1281 2994 2138 
Q 2813 1869 2534 1725 
Q 2256 1581 1919 1581 
Q 1219 1581 811 2004 
Q 403 2428 403 3163 
Q 403 3881 828 4315 
Q 1253 4750 1959 4750 
Q 2769 4750 3195 4129 
Q 3622 3509 3622 2328 
Q 3622 1225 3098 567 
Q 2575 -91 1691 -91 
Q 1453 -91 1209 -44 
Q 966 3 703 97 
z
M 1959 2075 
Q 2384 2075 2632 2365 
Q 2881 2656 2881 3163 
Q 2881 3666 2632 3958 
Q 2384 4250 1959 4250 
Q 1534 4250 1286 3958 
Q 1038 3666 1038 3163 
Q 1038 2656 1286 2365 
Q 1534 2075 1959 2075 
z
" transform="scale(0.015625)"/>
     </defs>
     <use xlink:href="#DejaVuSans-41"/>
     <use xlink:href="#DejaVuSans-52" x="68.408203"/>
     <use xlink:href="#DejaVuSans-49" x="137.890625"/>
     <use xlink:href="#DejaVuSans-4d" x="167.382812"/>
     <use xlink:href="#DejaVuSans-41" x="253.662109"/>
     <use xlink:href="#DejaVuSans-20" x="322.070312"/>
     <use xlink:href="#DejaVuSans-28" x="353.857422"/>
     <use xlink:href="#DejaVuSans-34" x="392.871094"/>
     <use xlink:href="#DejaVuSans-2c" x="456.494141"/>
     <use xlink:href="#DejaVuSans-20" x="488.28125"/>
     <use xlink:href="#DejaVuSans-31" x="520.068359"/>
     <use xlink:href="#DejaVuSans-2c" x="583.691406"/>
     <use xlink:href="#DejaVuSans-20" x="615.478516"/>
     <use xlink:href="#DejaVuSans-31" x="647.265625"/>
     <use xlink:href="#DejaVuSans-29" x="710.888672"/>
     <use xlink:href="#DejaVuSans-78" x="749.902344"/>
     <use xlink:href="#DejaVuSans-28" x="809.082031"/>
     <use xlink:href="#DejaVuSans-31" x="848.095703"/>
     <use xlink:href="#DejaVuSans-2c" x="911.71875"/>
     <use xlink:href="#DejaVuSans-20" x="943.505859"/>
     <use xlink:href="#DejaVuSans-30" x="975.292969"/>
     <use xlink:href="#DejaVuSans-2c" x="1038.916016"/>
     <use xlink:href="#DejaVuSans-20" x="1070.703125"/>
     <use xlink:href="#DejaVuSans-31" x="1102.490234"/>
     <use xlink:href="#DejaVuSans-2c" x="1166.113281"/>
     <use xlink:href="#DejaVuSans-20" x="1197.900391"/>
     <use xlink:href="#DejaVuSans-37" x="1229.6875"/>
     <use xlink:href="#DejaVuSans-29" x="1293.310547"/>
     <use xlink:href="#DejaVuSans-20" x="1332.324219"/>
     <use xlink:href="#DejaVuSans-28" x="1364.111328"/>
     <use xlink:href="#DejaVuSans-52" x="1403.125"/>
     <use xlink:href="#DejaVuSans-32" x="1472.607422"/>
     <use xlink:href="#DejaVuSans-20" x="1536.230469"/>
     <use xlink:href="#DejaVuSans-3d" x="1568.017578"/>
     <use xlink:href="#DejaVuSans-20" x="1651.806641"/>
     <use xlink:href="#DejaVuSans-30" x="1683.59375"/>
     <use xlink:href="#DejaVuSans-2e" x="1747.216797"/>
     <use xlink:href="#DejaVuSans-35" x="1779.003906"/>
     <use xlink:href="#DejaVuSans-35" x="1842.626953"/>
     <use xlink:href="#DejaVuSans-33" x="1906.25"/>
     <use xlink:href="#DejaVuSans-39" x="1969.873047"/>
     <use xlink:href="#DejaVuSans-37" x="2033.496094"/>
     <use xlink:href="#DejaVuSans-35" x="2097.119141"/>
     <use xlink:href="#DejaVuSans-29" x="2160.742188"/>
    </g>
   </g>
   <g id="legend_1">
    <g id="patch_7">
     <path d="M 46.65 87.789875 
L 143.729688 87.789875 
Q 145.729688 87.789875 145.729688 85.789875 
L 145.729688 42.7555 
Q 145.729688 40.7555 143.729688 40.7555 
L 46.65 40.7555 
Q 44.65 40.7555 44.65 42.7555 
L 44.65 85.789875 
Q 44.65 87.789875 46.65 87.789875 
z
" style="fill: #ffffff; opacity: 0.8; stroke: #cccccc; stroke-linejoin: miter"/>
    </g>
    <g id="line2d_23">
     <path d="M 48.65 48.853937 
L 58.65 48.853937 
L 68.65 48.853937 
" style="fill: none; stroke: #0000ff; stroke-width: 1.5; stroke-linecap: square"/>
    </g>
    <g id="text_21">
     <!-- Actual Value -->
     <g transform="translate(76.65 52.353937)scale(0.1 -0.1)">
      <defs>
       <path id="DejaVuSans-56" d="M 1831 0 
L 50 4666 
L 709 4666 
L 2188 738 
L 3669 4666 
L 4325 4666 
L 2547 0 
L 1831 0 
z
" transform="scale(0.015625)"/>
      </defs>
      <use xlink:href="#DejaVuSans-41"/>
      <use xlink:href="#DejaVuSans-63" x="66.658203"/>
      <use xlink:href="#DejaVuSans-74" x="121.638672"/>
      <use xlink:href="#DejaVuSans-75" x="160.847656"/>
      <use xlink:href="#DejaVuSans-61" x="224.226562"/>
      <use xlink:href="#DejaVuSans-6c" x="285.505859"/>
      <use xlink:href="#DejaVuSans-20" x="313.289062"/>
      <use xlink:href="#DejaVuSans-56" x="345.076172"/>
      <use xlink:href="#DejaVuSans-61" x="405.734375"/>
      <use xlink:href="#DejaVuSans-6c" x="467.013672"/>
      <use xlink:href="#DejaVuSans-75" x="494.796875"/>
      <use xlink:href="#DejaVuSans-65" x="558.175781"/>
     </g>
    </g>
    <g id="line2d_24">
     <path d="M 48.65 63.532062 
L 58.65 63.532062 
L 68.65 63.532062 
" style="fill: none; stroke: #ffa500; stroke-width: 1.5; stroke-linecap: square"/>
    </g>
    <g id="text_22">
     <!-- Check Value -->
     <g transform="translate(76.65 67.032062)scale(0.1 -0.1)">
      <defs>
       <path id="DejaVuSans-68" d="M 3513 2113 
L 3513 0 
L 2938 0 
L 2938 2094 
Q 2938 2591 2744 2837 
Q 2550 3084 2163 3084 
Q 1697 3084 1428 2787 
Q 1159 2491 1159 1978 
L 1159 0 
L 581 0 
L 581 4863 
L 1159 4863 
L 1159 2956 
Q 1366 3272 1645 3428 
Q 1925 3584 2291 3584 
Q 2894 3584 3203 3211 
Q 3513 2838 3513 2113 
z
" transform="scale(0.015625)"/>
       <path id="DejaVuSans-6b" d="M 581 4863 
L 1159 4863 
L 1159 1991 
L 2875 3500 
L 3609 3500 
L 1753 1863 
L 3688 0 
L 2938 0 
L 1159 1709 
L 1159 0 
L 581 0 
L 581 4863 
z
" transform="scale(0.015625)"/>
      </defs>
      <use xlink:href="#DejaVuSans-43"/>
      <use xlink:href="#DejaVuSans-68" x="69.824219"/>
      <use xlink:href="#DejaVuSans-65" x="133.203125"/>
      <use xlink:href="#DejaVuSans-63" x="194.726562"/>
      <use xlink:href="#DejaVuSans-6b" x="249.707031"/>
      <use xlink:href="#DejaVuSans-20" x="307.617188"/>
      <use xlink:href="#DejaVuSans-56" x="339.404297"/>
      <use xlink:href="#DejaVuSans-61" x="400.0625"/>
      <use xlink:href="#DejaVuSans-6c" x="461.341797"/>
      <use xlink:href="#DejaVuSans-75" x="489.125"/>
      <use xlink:href="#DejaVuSans-65" x="552.503906"/>
     </g>
    </g>
    <g id="line2d_25">
     <path d="M 48.65 78.210187 
L 58.65 78.210187 
L 68.65 78.210187 
" style="fill: none; stroke: #ff0000; stroke-width: 1.5; stroke-linecap: square"/>
    </g>
    <g id="text_23">
     <!-- Predict Value -->
     <g transform="translate(76.65 81.710187)scale(0.1 -0.1)">
      <defs>
       <path id="DejaVuSans-50" d="M 1259 4147 
L 1259 2394 
L 2053 2394 
Q 2494 2394 2734 2622 
Q 2975 2850 2975 3272 
Q 2975 3691 2734 3919 
Q 2494 4147 2053 4147 
L 1259 4147 
z
M 628 4666 
L 2053 4666 
Q 2838 4666 3239 4311 
Q 3641 3956 3641 3272 
Q 3641 2581 3239 2228 
Q 2838 1875 2053 1875 
L 1259 1875 
L 1259 0 
L 628 0 
L 628 4666 
z
" transform="scale(0.015625)"/>
      </defs>
      <use xlink:href="#DejaVuSans-50"/>
      <use xlink:href="#DejaVuSans-72" x="58.552734"/>
      <use xlink:href="#DejaVuSans-65" x="97.416016"/>
      <use xlink:href="#DejaVuSans-64" x="158.939453"/>
      <use xlink:href="#DejaVuSans-69" x="222.416016"/>
      <use xlink:href="#DejaVuSans-63" x="250.199219"/>
      <use xlink:href="#DejaVuSans-74" x="305.179688"/>
      <use xlink:href="#DejaVuSans-20" x="344.388672"/>
      <use xlink:href="#DejaVuSans-56" x="376.175781"/>
      <use xlink:href="#DejaVuSans-61" x="436.833984"/>
      <use xlink:href="#DejaVuSans-6c" x="498.113281"/>
      <use xlink:href="#DejaVuSans-75" x="525.896484"/>
      <use xlink:href="#DejaVuSans-65" x="589.275391"/>
     </g>
    </g>
   </g>
  </g>
 </g>
 <defs>
  <clipPath id="p4c2b748e11">
   <rect x="39.65" y="35.7555" width="1339.2" height="332.64"/>
  </clipPath>
 </defs>
</svg>
