<?xml version="1.0" encoding="utf-8" standalone="no"?>
<!DOCTYPE svg PUBLIC "-//W3C//DTD SVG 1.1//EN"
  "http://www.w3.org/Graphics/SVG/1.1/DTD/svg11.dtd">
<svg xmlns:xlink="http://www.w3.org/1999/xlink" width="1379.6875pt" height="392.273625pt" viewBox="0 0 1379.6875 392.273625" xmlns="http://www.w3.org/2000/svg" version="1.1">
 <metadata>
  <rdf:RDF xmlns:dc="http://purl.org/dc/elements/1.1/" xmlns:cc="http://creativecommons.org/ns#" xmlns:rdf="http://www.w3.org/1999/02/22-rdf-syntax-ns#">
   <cc:Work>
    <dc:type rdf:resource="http://purl.org/dc/dcmitype/StillImage"/>
    <dc:date>2022-06-25T19:45:51.123653</dc:date>
    <dc:format>image/svg+xml</dc:format>
    <dc:creator>
     <cc:Agent>
      <dc:title>Matplotlib v3.5.2, https://matplotlib.org/</dc:title>
     </cc:Agent>
    </dc:creator>
   </cc:Work>
  </rdf:RDF>
 </metadata>
 <defs>
  <style type="text/css">*{stroke-linejoin: round; stroke-linecap: butt}</style>
 </defs>
 <g id="figure_1">
  <g id="patch_1">
   <path d="M 0 392.273625 
L 1379.6875 392.273625 
L 1379.6875 0 
L 0 0 
z
" style="fill: #ffffff"/>
  </g>
  <g id="axes_1">
   <g id="patch_2">
    <path d="M 33.2875 368.3955 
L 1372.4875 368.3955 
L 1372.4875 35.7555 
L 33.2875 35.7555 
z
" style="fill: #ffffff"/>
   </g>
   <g id="matplotlib.axis_1">
    <g id="xtick_1">
     <g id="line2d_1">
      <defs>
       <path id="m7609dd4ffe" d="M 0 0 
L 0 3.5 
" style="stroke: #000000; stroke-width: 0.8"/>
      </defs>
      <g>
       <use xlink:href="#m7609dd4ffe" x="64.26737" y="368.3955" style="stroke: #000000; stroke-width: 0.8"/>
      </g>
     </g>
     <g id="text_1">
      <!-- 2020-01 -->
      <g transform="translate(43.375964 382.993937)scale(0.1 -0.1)">
       <defs>
        <path id="DejaVuSans-32" d="M 1228 531 
L 3431 531 
L 3431 0 
L 469 0 
L 469 531 
Q 828 903 1448 1529 
Q 2069 2156 2228 2338 
Q 2531 2678 2651 2914 
Q 2772 3150 2772 3378 
Q 2772 3750 2511 3984 
Q 2250 4219 1831 4219 
Q 1534 4219 1204 4116 
Q 875 4013 500 3803 
L 500 4441 
Q 881 4594 1212 4672 
Q 1544 4750 1819 4750 
Q 2544 4750 2975 4387 
Q 3406 4025 3406 3419 
Q 3406 3131 3298 2873 
Q 3191 2616 2906 2266 
Q 2828 2175 2409 1742 
Q 1991 1309 1228 531 
z
" transform="scale(0.015625)"/>
        <path id="DejaVuSans-30" d="M 2034 4250 
Q 1547 4250 1301 3770 
Q 1056 3291 1056 2328 
Q 1056 1369 1301 889 
Q 1547 409 2034 409 
Q 2525 409 2770 889 
Q 3016 1369 3016 2328 
Q 3016 3291 2770 3770 
Q 2525 4250 2034 4250 
z
M 2034 4750 
Q 2819 4750 3233 4129 
Q 3647 3509 3647 2328 
Q 3647 1150 3233 529 
Q 2819 -91 2034 -91 
Q 1250 -91 836 529 
Q 422 1150 422 2328 
Q 422 3509 836 4129 
Q 1250 4750 2034 4750 
z
" transform="scale(0.015625)"/>
        <path id="DejaVuSans-2d" d="M 313 2009 
L 1997 2009 
L 1997 1497 
L 313 1497 
L 313 2009 
z
" transform="scale(0.015625)"/>
        <path id="DejaVuSans-31" d="M 794 531 
L 1825 531 
L 1825 4091 
L 703 3866 
L 703 4441 
L 1819 4666 
L 2450 4666 
L 2450 531 
L 3481 531 
L 3481 0 
L 794 0 
L 794 531 
z
" transform="scale(0.015625)"/>
       </defs>
       <use xlink:href="#DejaVuSans-32"/>
       <use xlink:href="#DejaVuSans-30" x="63.623047"/>
       <use xlink:href="#DejaVuSans-32" x="127.246094"/>
       <use xlink:href="#DejaVuSans-30" x="190.869141"/>
       <use xlink:href="#DejaVuSans-2d" x="254.492188"/>
       <use xlink:href="#DejaVuSans-30" x="290.576172"/>
       <use xlink:href="#DejaVuSans-31" x="354.199219"/>
      </g>
     </g>
    </g>
    <g id="xtick_2">
     <g id="line2d_2">
      <g>
       <use xlink:href="#m7609dd4ffe" x="187.915097" y="368.3955" style="stroke: #000000; stroke-width: 0.8"/>
      </g>
     </g>
     <g id="text_2">
      <!-- 2020-04 -->
      <g transform="translate(167.023691 382.993937)scale(0.1 -0.1)">
       <defs>
        <path id="DejaVuSans-34" d="M 2419 4116 
L 825 1625 
L 2419 1625 
L 2419 4116 
z
M 2253 4666 
L 3047 4666 
L 3047 1625 
L 3713 1625 
L 3713 1100 
L 3047 1100 
L 3047 0 
L 2419 0 
L 2419 1100 
L 313 1100 
L 313 1709 
L 2253 4666 
z
" transform="scale(0.015625)"/>
       </defs>
       <use xlink:href="#DejaVuSans-32"/>
       <use xlink:href="#DejaVuSans-30" x="63.623047"/>
       <use xlink:href="#DejaVuSans-32" x="127.246094"/>
       <use xlink:href="#DejaVuSans-30" x="190.869141"/>
       <use xlink:href="#DejaVuSans-2d" x="254.492188"/>
       <use xlink:href="#DejaVuSans-30" x="290.576172"/>
       <use xlink:href="#DejaVuSans-34" x="354.199219"/>
      </g>
     </g>
    </g>
    <g id="xtick_3">
     <g id="line2d_3">
      <g>
       <use xlink:href="#m7609dd4ffe" x="311.562825" y="368.3955" style="stroke: #000000; stroke-width: 0.8"/>
      </g>
     </g>
     <g id="text_3">
      <!-- 2020-07 -->
      <g transform="translate(290.671418 382.993937)scale(0.1 -0.1)">
       <defs>
        <path id="DejaVuSans-37" d="M 525 4666 
L 3525 4666 
L 3525 4397 
L 1831 0 
L 1172 0 
L 2766 4134 
L 525 4134 
L 525 4666 
z
" transform="scale(0.015625)"/>
       </defs>
       <use xlink:href="#DejaVuSans-32"/>
       <use xlink:href="#DejaVuSans-30" x="63.623047"/>
       <use xlink:href="#DejaVuSans-32" x="127.246094"/>
       <use xlink:href="#DejaVuSans-30" x="190.869141"/>
       <use xlink:href="#DejaVuSans-2d" x="254.492188"/>
       <use xlink:href="#DejaVuSans-30" x="290.576172"/>
       <use xlink:href="#DejaVuSans-37" x="354.199219"/>
      </g>
     </g>
    </g>
    <g id="xtick_4">
     <g id="line2d_4">
      <g>
       <use xlink:href="#m7609dd4ffe" x="436.569318" y="368.3955" style="stroke: #000000; stroke-width: 0.8"/>
      </g>
     </g>
     <g id="text_4">
      <!-- 2020-10 -->
      <g transform="translate(415.677912 382.993937)scale(0.1 -0.1)">
       <use xlink:href="#DejaVuSans-32"/>
       <use xlink:href="#DejaVuSans-30" x="63.623047"/>
       <use xlink:href="#DejaVuSans-32" x="127.246094"/>
       <use xlink:href="#DejaVuSans-30" x="190.869141"/>
       <use xlink:href="#DejaVuSans-2d" x="254.492188"/>
       <use xlink:href="#DejaVuSans-31" x="290.576172"/>
       <use xlink:href="#DejaVuSans-30" x="354.199219"/>
      </g>
     </g>
    </g>
    <g id="xtick_5">
     <g id="line2d_5">
      <g>
       <use xlink:href="#m7609dd4ffe" x="561.575812" y="368.3955" style="stroke: #000000; stroke-width: 0.8"/>
      </g>
     </g>
     <g id="text_5">
      <!-- 2021-01 -->
      <g transform="translate(540.684405 382.993937)scale(0.1 -0.1)">
       <use xlink:href="#DejaVuSans-32"/>
       <use xlink:href="#DejaVuSans-30" x="63.623047"/>
       <use xlink:href="#DejaVuSans-32" x="127.246094"/>
       <use xlink:href="#DejaVuSans-31" x="190.869141"/>
       <use xlink:href="#DejaVuSans-2d" x="254.492188"/>
       <use xlink:href="#DejaVuSans-30" x="290.576172"/>
       <use xlink:href="#DejaVuSans-31" x="354.199219"/>
      </g>
     </g>
    </g>
    <g id="xtick_6">
     <g id="line2d_6">
      <g>
       <use xlink:href="#m7609dd4ffe" x="683.864773" y="368.3955" style="stroke: #000000; stroke-width: 0.8"/>
      </g>
     </g>
     <g id="text_6">
      <!-- 2021-04 -->
      <g transform="translate(662.973366 382.993937)scale(0.1 -0.1)">
       <use xlink:href="#DejaVuSans-32"/>
       <use xlink:href="#DejaVuSans-30" x="63.623047"/>
       <use xlink:href="#DejaVuSans-32" x="127.246094"/>
       <use xlink:href="#DejaVuSans-31" x="190.869141"/>
       <use xlink:href="#DejaVuSans-2d" x="254.492188"/>
       <use xlink:href="#DejaVuSans-30" x="290.576172"/>
       <use xlink:href="#DejaVuSans-34" x="354.199219"/>
      </g>
     </g>
    </g>
    <g id="xtick_7">
     <g id="line2d_7">
      <g>
       <use xlink:href="#m7609dd4ffe" x="807.5125" y="368.3955" style="stroke: #000000; stroke-width: 0.8"/>
      </g>
     </g>
     <g id="text_7">
      <!-- 2021-07 -->
      <g transform="translate(786.621094 382.993937)scale(0.1 -0.1)">
       <use xlink:href="#DejaVuSans-32"/>
       <use xlink:href="#DejaVuSans-30" x="63.623047"/>
       <use xlink:href="#DejaVuSans-32" x="127.246094"/>
       <use xlink:href="#DejaVuSans-31" x="190.869141"/>
       <use xlink:href="#DejaVuSans-2d" x="254.492188"/>
       <use xlink:href="#DejaVuSans-30" x="290.576172"/>
       <use xlink:href="#DejaVuSans-37" x="354.199219"/>
      </g>
     </g>
    </g>
    <g id="xtick_8">
     <g id="line2d_8">
      <g>
       <use xlink:href="#m7609dd4ffe" x="932.518994" y="368.3955" style="stroke: #000000; stroke-width: 0.8"/>
      </g>
     </g>
     <g id="text_8">
      <!-- 2021-10 -->
      <g transform="translate(911.627587 382.993937)scale(0.1 -0.1)">
       <use xlink:href="#DejaVuSans-32"/>
       <use xlink:href="#DejaVuSans-30" x="63.623047"/>
       <use xlink:href="#DejaVuSans-32" x="127.246094"/>
       <use xlink:href="#DejaVuSans-31" x="190.869141"/>
       <use xlink:href="#DejaVuSans-2d" x="254.492188"/>
       <use xlink:href="#DejaVuSans-31" x="290.576172"/>
       <use xlink:href="#DejaVuSans-30" x="354.199219"/>
      </g>
     </g>
    </g>
    <g id="xtick_9">
     <g id="line2d_9">
      <g>
       <use xlink:href="#m7609dd4ffe" x="1057.525487" y="368.3955" style="stroke: #000000; stroke-width: 0.8"/>
      </g>
     </g>
     <g id="text_9">
      <!-- 2022-01 -->
      <g transform="translate(1036.634081 382.993937)scale(0.1 -0.1)">
       <use xlink:href="#DejaVuSans-32"/>
       <use xlink:href="#DejaVuSans-30" x="63.623047"/>
       <use xlink:href="#DejaVuSans-32" x="127.246094"/>
       <use xlink:href="#DejaVuSans-32" x="190.869141"/>
       <use xlink:href="#DejaVuSans-2d" x="254.492188"/>
       <use xlink:href="#DejaVuSans-30" x="290.576172"/>
       <use xlink:href="#DejaVuSans-31" x="354.199219"/>
      </g>
     </g>
    </g>
    <g id="xtick_10">
     <g id="line2d_10">
      <g>
       <use xlink:href="#m7609dd4ffe" x="1179.814448" y="368.3955" style="stroke: #000000; stroke-width: 0.8"/>
      </g>
     </g>
     <g id="text_10">
      <!-- 2022-04 -->
      <g transform="translate(1158.923042 382.993937)scale(0.1 -0.1)">
       <use xlink:href="#DejaVuSans-32"/>
       <use xlink:href="#DejaVuSans-30" x="63.623047"/>
       <use xlink:href="#DejaVuSans-32" x="127.246094"/>
       <use xlink:href="#DejaVuSans-32" x="190.869141"/>
       <use xlink:href="#DejaVuSans-2d" x="254.492188"/>
       <use xlink:href="#DejaVuSans-30" x="290.576172"/>
       <use xlink:href="#DejaVuSans-34" x="354.199219"/>
      </g>
     </g>
    </g>
    <g id="xtick_11">
     <g id="line2d_11">
      <g>
       <use xlink:href="#m7609dd4ffe" x="1303.462175" y="368.3955" style="stroke: #000000; stroke-width: 0.8"/>
      </g>
     </g>
     <g id="text_11">
      <!-- 2022-07 -->
      <g transform="translate(1282.570769 382.993937)scale(0.1 -0.1)">
       <use xlink:href="#DejaVuSans-32"/>
       <use xlink:href="#DejaVuSans-30" x="63.623047"/>
       <use xlink:href="#DejaVuSans-32" x="127.246094"/>
       <use xlink:href="#DejaVuSans-32" x="190.869141"/>
       <use xlink:href="#DejaVuSans-2d" x="254.492188"/>
       <use xlink:href="#DejaVuSans-30" x="290.576172"/>
       <use xlink:href="#DejaVuSans-37" x="354.199219"/>
      </g>
     </g>
    </g>
   </g>
   <g id="matplotlib.axis_2">
    <g id="ytick_1">
     <g id="line2d_12">
      <defs>
       <path id="mf4642a3991" d="M 0 0 
L -3.5 0 
" style="stroke: #000000; stroke-width: 0.8"/>
      </defs>
      <g>
       <use xlink:href="#mf4642a3991" x="33.2875" y="350.698227" style="stroke: #000000; stroke-width: 0.8"/>
      </g>
     </g>
     <g id="text_12">
      <!-- 0 -->
      <g transform="translate(19.925 354.497446)scale(0.1 -0.1)">
       <use xlink:href="#DejaVuSans-30"/>
      </g>
     </g>
    </g>
    <g id="ytick_2">
     <g id="line2d_13">
      <g>
       <use xlink:href="#mf4642a3991" x="33.2875" y="307.743682" style="stroke: #000000; stroke-width: 0.8"/>
      </g>
     </g>
     <g id="text_13">
      <!-- 50 -->
      <g transform="translate(13.5625 311.542901)scale(0.1 -0.1)">
       <defs>
        <path id="DejaVuSans-35" d="M 691 4666 
L 3169 4666 
L 3169 4134 
L 1269 4134 
L 1269 2991 
Q 1406 3038 1543 3061 
Q 1681 3084 1819 3084 
Q 2600 3084 3056 2656 
Q 3513 2228 3513 1497 
Q 3513 744 3044 326 
Q 2575 -91 1722 -91 
Q 1428 -91 1123 -41 
Q 819 9 494 109 
L 494 744 
Q 775 591 1075 516 
Q 1375 441 1709 441 
Q 2250 441 2565 725 
Q 2881 1009 2881 1497 
Q 2881 1984 2565 2268 
Q 2250 2553 1709 2553 
Q 1456 2553 1204 2497 
Q 953 2441 691 2322 
L 691 4666 
z
" transform="scale(0.015625)"/>
       </defs>
       <use xlink:href="#DejaVuSans-35"/>
       <use xlink:href="#DejaVuSans-30" x="63.623047"/>
      </g>
     </g>
    </g>
    <g id="ytick_3">
     <g id="line2d_14">
      <g>
       <use xlink:href="#mf4642a3991" x="33.2875" y="264.789136" style="stroke: #000000; stroke-width: 0.8"/>
      </g>
     </g>
     <g id="text_14">
      <!-- 100 -->
      <g transform="translate(7.2 268.588355)scale(0.1 -0.1)">
       <use xlink:href="#DejaVuSans-31"/>
       <use xlink:href="#DejaVuSans-30" x="63.623047"/>
       <use xlink:href="#DejaVuSans-30" x="127.246094"/>
      </g>
     </g>
    </g>
    <g id="ytick_4">
     <g id="line2d_15">
      <g>
       <use xlink:href="#mf4642a3991" x="33.2875" y="221.834591" style="stroke: #000000; stroke-width: 0.8"/>
      </g>
     </g>
     <g id="text_15">
      <!-- 150 -->
      <g transform="translate(7.2 225.63381)scale(0.1 -0.1)">
       <use xlink:href="#DejaVuSans-31"/>
       <use xlink:href="#DejaVuSans-35" x="63.623047"/>
       <use xlink:href="#DejaVuSans-30" x="127.246094"/>
      </g>
     </g>
    </g>
    <g id="ytick_5">
     <g id="line2d_16">
      <g>
       <use xlink:href="#mf4642a3991" x="33.2875" y="178.880045" style="stroke: #000000; stroke-width: 0.8"/>
      </g>
     </g>
     <g id="text_16">
      <!-- 200 -->
      <g transform="translate(7.2 182.679264)scale(0.1 -0.1)">
       <use xlink:href="#DejaVuSans-32"/>
       <use xlink:href="#DejaVuSans-30" x="63.623047"/>
       <use xlink:href="#DejaVuSans-30" x="127.246094"/>
      </g>
     </g>
    </g>
    <g id="ytick_6">
     <g id="line2d_17">
      <g>
       <use xlink:href="#mf4642a3991" x="33.2875" y="135.9255" style="stroke: #000000; stroke-width: 0.8"/>
      </g>
     </g>
     <g id="text_17">
      <!-- 250 -->
      <g transform="translate(7.2 139.724719)scale(0.1 -0.1)">
       <use xlink:href="#DejaVuSans-32"/>
       <use xlink:href="#DejaVuSans-35" x="63.623047"/>
       <use xlink:href="#DejaVuSans-30" x="127.246094"/>
      </g>
     </g>
    </g>
    <g id="ytick_7">
     <g id="line2d_18">
      <g>
       <use xlink:href="#mf4642a3991" x="33.2875" y="92.970955" style="stroke: #000000; stroke-width: 0.8"/>
      </g>
     </g>
     <g id="text_18">
      <!-- 300 -->
      <g transform="translate(7.2 96.770173)scale(0.1 -0.1)">
       <defs>
        <path id="DejaVuSans-33" d="M 2597 2516 
Q 3050 2419 3304 2112 
Q 3559 1806 3559 1356 
Q 3559 666 3084 287 
Q 2609 -91 1734 -91 
Q 1441 -91 1130 -33 
Q 819 25 488 141 
L 488 750 
Q 750 597 1062 519 
Q 1375 441 1716 441 
Q 2309 441 2620 675 
Q 2931 909 2931 1356 
Q 2931 1769 2642 2001 
Q 2353 2234 1838 2234 
L 1294 2234 
L 1294 2753 
L 1863 2753 
Q 2328 2753 2575 2939 
Q 2822 3125 2822 3475 
Q 2822 3834 2567 4026 
Q 2313 4219 1838 4219 
Q 1578 4219 1281 4162 
Q 984 4106 628 3988 
L 628 4550 
Q 988 4650 1302 4700 
Q 1616 4750 1894 4750 
Q 2613 4750 3031 4423 
Q 3450 4097 3450 3541 
Q 3450 3153 3228 2886 
Q 3006 2619 2597 2516 
z
" transform="scale(0.015625)"/>
       </defs>
       <use xlink:href="#DejaVuSans-33"/>
       <use xlink:href="#DejaVuSans-30" x="63.623047"/>
       <use xlink:href="#DejaVuSans-30" x="127.246094"/>
      </g>
     </g>
    </g>
    <g id="ytick_8">
     <g id="line2d_19">
      <g>
       <use xlink:href="#mf4642a3991" x="33.2875" y="50.016409" style="stroke: #000000; stroke-width: 0.8"/>
      </g>
     </g>
     <g id="text_19">
      <!-- 350 -->
      <g transform="translate(7.2 53.815628)scale(0.1 -0.1)">
       <use xlink:href="#DejaVuSans-33"/>
       <use xlink:href="#DejaVuSans-35" x="63.623047"/>
       <use xlink:href="#DejaVuSans-30" x="127.246094"/>
      </g>
     </g>
    </g>
   </g>
   <g id="line2d_20">
    <path d="M 94.160227 350.698227 
L 148.510877 350.698227 
L 149.869643 349.839136 
L 151.228409 350.698227 
L 158.02224 350.698227 
L 159.381006 348.980045 
L 160.739773 349.839136 
L 162.098539 349.839136 
L 163.457305 348.980045 
L 164.816071 347.261864 
L 166.174838 348.120955 
L 167.533604 346.402773 
L 168.89237 345.543682 
L 170.251136 342.966409 
L 171.609903 348.980045 
L 172.968669 343.8255 
L 174.327435 348.980045 
L 175.686201 348.980045 
L 177.044968 348.120955 
L 178.403734 348.980045 
L 179.7625 347.261864 
L 181.121266 347.261864 
L 182.480032 349.839136 
L 183.838799 349.839136 
L 185.197565 348.980045 
L 186.556331 347.261864 
L 187.915097 347.261864 
L 190.63263 348.980045 
L 191.991396 350.698227 
L 194.708929 350.698227 
L 196.067695 349.839136 
L 197.426461 350.698227 
L 198.785227 349.839136 
L 200.143994 350.698227 
L 201.50276 350.698227 
L 202.861526 349.839136 
L 204.220292 350.698227 
L 208.296591 350.698227 
L 209.655357 349.839136 
L 211.014123 350.698227 
L 217.807955 350.698227 
L 219.166721 349.839136 
L 220.525487 350.698227 
L 297.975162 350.698227 
L 299.333929 351.557318 
L 300.692695 353.2755 
L 302.051461 347.261864 
L 303.410227 350.698227 
L 311.562825 350.698227 
L 312.921591 349.839136 
L 314.280357 350.698227 
L 316.99789 350.698227 
L 318.356656 349.839136 
L 319.715422 350.698227 
L 331.944318 350.698227 
L 333.303084 349.839136 
L 334.661851 349.839136 
L 336.020617 350.698227 
L 346.890747 350.698227 
L 348.249513 349.839136 
L 349.608279 349.839136 
L 350.967045 350.698227 
L 365.913474 350.698227 
L 367.27224 349.839136 
L 372.707305 349.839136 
L 374.066071 350.698227 
L 375.424838 348.120955 
L 376.783604 349.839136 
L 378.14237 349.839136 
L 379.501136 350.698227 
L 380.859903 349.839136 
L 382.218669 350.698227 
L 383.577435 349.839136 
L 384.936201 350.698227 
L 386.294968 348.980045 
L 387.653734 348.980045 
L 389.0125 349.839136 
L 390.371266 349.839136 
L 391.730032 350.698227 
L 393.088799 349.839136 
L 394.447565 350.698227 
L 405.317695 350.698227 
L 406.676461 349.839136 
L 408.035227 350.698227 
L 409.393994 350.698227 
L 410.75276 348.980045 
L 412.111526 350.698227 
L 416.187825 350.698227 
L 417.546591 349.839136 
L 418.905357 350.698227 
L 420.264123 349.839136 
L 425.699188 349.839136 
L 427.057955 350.698227 
L 428.416721 349.839136 
L 429.775487 349.839136 
L 431.134253 350.698227 
L 432.493019 350.698227 
L 433.851786 349.839136 
L 435.210552 350.698227 
L 436.569318 349.839136 
L 437.928084 349.839136 
L 439.286851 348.120955 
L 440.645617 348.120955 
L 442.004383 349.839136 
L 443.363149 348.120955 
L 444.721916 349.839136 
L 446.080682 348.120955 
L 447.439448 348.120955 
L 448.798214 345.543682 
L 450.156981 346.402773 
L 451.515747 350.698227 
L 452.874513 338.670955 
L 454.233279 339.530045 
L 455.592045 343.8255 
L 456.950812 336.093682 
L 458.309578 335.234591 
L 459.668344 345.543682 
L 461.02711 348.980045 
L 462.385877 324.9255 
L 463.744643 324.066409 
L 465.103409 318.911864 
L 466.462175 328.361864 
L 467.820942 330.939136 
L 469.179708 318.911864 
L 470.538474 330.939136 
L 471.89724 328.361864 
L 473.256006 330.939136 
L 474.614773 319.770955 
L 475.973539 327.502773 
L 477.332305 325.784591 
L 478.691071 329.220955 
L 480.049838 331.798227 
L 481.408604 312.039136 
L 482.76737 320.630045 
L 484.126136 317.193682 
L 485.484903 317.193682 
L 486.843669 331.798227 
L 488.202435 337.811864 
L 489.561201 331.798227 
L 490.919968 308.602773 
L 492.278734 320.630045 
L 493.6375 330.939136 
L 494.996266 332.657318 
L 496.355032 329.220955 
L 499.072565 341.248227 
L 500.431331 328.361864 
L 501.790097 320.630045 
L 503.148864 334.3755 
L 504.50763 334.3755 
L 505.866396 336.952773 
L 507.225162 338.670955 
L 508.583929 324.066409 
L 509.942695 326.643682 
L 511.301461 331.798227 
L 512.660227 324.9255 
L 514.018994 336.093682 
L 515.37776 345.543682 
L 516.736526 336.952773 
L 518.095292 341.248227 
L 519.454058 322.348227 
L 522.171591 337.811864 
L 523.530357 336.093682 
L 524.889123 336.093682 
L 526.24789 339.530045 
L 527.606656 347.261864 
L 528.965422 330.939136 
L 530.324188 336.952773 
L 531.682955 332.657318 
L 533.041721 330.939136 
L 534.400487 324.9255 
L 535.759253 327.502773 
L 537.118019 324.066409 
L 538.476786 323.207318 
L 539.835552 316.334591 
L 541.194318 320.630045 
L 542.553084 319.770955 
L 543.911851 309.461864 
L 545.270617 323.207318 
L 546.629383 333.516409 
L 547.988149 314.616409 
L 549.346916 300.011864 
L 550.705682 307.743682 
L 552.064448 321.489136 
L 553.423214 325.784591 
L 554.781981 330.939136 
L 556.140747 325.784591 
L 557.499513 318.052773 
L 558.858279 318.911864 
L 560.217045 324.066409 
L 561.575812 330.080045 
L 562.934578 338.670955 
L 564.293344 330.939136 
L 565.65211 334.3755 
L 567.010877 324.066409 
L 568.369643 324.9255 
L 569.728409 342.107318 
L 571.087175 342.107318 
L 572.445942 339.530045 
L 573.804708 343.8255 
L 575.163474 342.966409 
L 576.52224 336.952773 
L 577.881006 342.966409 
L 579.239773 347.261864 
L 580.598539 349.839136 
L 581.957305 347.261864 
L 583.316071 345.543682 
L 584.674838 345.543682 
L 586.033604 342.107318 
L 587.39237 342.107318 
L 588.751136 336.093682 
L 590.109903 346.402773 
L 591.468669 345.543682 
L 592.827435 346.402773 
L 594.186201 341.248227 
L 595.544968 347.261864 
L 596.903734 336.093682 
L 598.2625 342.966409 
L 599.621266 342.966409 
L 600.980032 348.980045 
L 603.697565 348.980045 
L 605.056331 340.389136 
L 606.415097 348.120955 
L 607.773864 346.402773 
L 609.13263 349.839136 
L 610.491396 348.120955 
L 611.850162 347.261864 
L 613.208929 348.120955 
L 614.567695 346.402773 
L 615.926461 347.261864 
L 617.285227 348.980045 
L 618.643994 348.120955 
L 620.00276 350.698227 
L 621.361526 349.839136 
L 626.796591 349.839136 
L 628.155357 348.980045 
L 629.514123 350.698227 
L 630.87289 349.839136 
L 632.231656 347.261864 
L 633.590422 348.120955 
L 634.949188 345.543682 
L 636.307955 344.684591 
L 637.666721 348.980045 
L 639.025487 349.839136 
L 640.384253 346.402773 
L 641.743019 347.261864 
L 643.101786 349.839136 
L 644.460552 346.402773 
L 645.819318 346.402773 
L 647.178084 348.980045 
L 648.536851 349.839136 
L 649.895617 348.980045 
L 651.254383 348.980045 
L 652.613149 350.698227 
L 653.971916 350.698227 
L 655.330682 344.684591 
L 656.689448 349.839136 
L 658.048214 347.261864 
L 659.406981 345.543682 
L 660.765747 348.120955 
L 662.124513 348.980045 
L 663.483279 348.120955 
L 666.200812 348.120955 
L 667.559578 347.261864 
L 670.27711 348.980045 
L 671.635877 348.120955 
L 672.994643 345.543682 
L 674.353409 348.120955 
L 675.712175 347.261864 
L 677.070942 348.120955 
L 678.429708 344.684591 
L 679.788474 345.543682 
L 681.14724 345.543682 
L 682.506006 347.261864 
L 683.864773 348.120955 
L 685.223539 348.120955 
L 686.582305 344.684591 
L 687.941071 343.8255 
L 689.299838 346.402773 
L 690.658604 346.402773 
L 692.01737 347.261864 
L 693.376136 337.811864 
L 694.734903 336.952773 
L 696.093669 342.107318 
L 697.452435 345.543682 
L 698.811201 344.684591 
L 700.169968 342.966409 
L 701.528734 342.966409 
L 702.8875 340.389136 
L 704.246266 338.670955 
L 705.605032 341.248227 
L 706.963799 342.107318 
L 708.322565 344.684591 
L 709.681331 341.248227 
L 711.040097 341.248227 
L 712.398864 347.261864 
L 713.75763 344.684591 
L 715.116396 337.811864 
L 716.475162 342.966409 
L 717.833929 346.402773 
L 719.192695 336.952773 
L 720.551461 340.389136 
L 721.910227 344.684591 
L 723.268994 342.107318 
L 724.62776 344.684591 
L 725.986526 346.402773 
L 727.345292 349.839136 
L 728.704058 344.684591 
L 730.062825 346.402773 
L 731.421591 347.261864 
L 732.780357 347.261864 
L 734.139123 348.120955 
L 735.49789 348.120955 
L 736.856656 347.261864 
L 738.215422 347.261864 
L 739.574188 349.839136 
L 742.291721 349.839136 
L 743.650487 348.120955 
L 746.368019 348.120955 
L 747.726786 348.980045 
L 749.085552 350.698227 
L 750.444318 349.839136 
L 751.803084 348.120955 
L 754.520617 349.839136 
L 755.879383 348.980045 
L 757.238149 350.698227 
L 758.596916 348.980045 
L 759.955682 348.120955 
L 762.673214 349.839136 
L 764.031981 348.980045 
L 765.390747 348.980045 
L 766.749513 350.698227 
L 768.108279 347.261864 
L 769.467045 348.980045 
L 770.825812 348.980045 
L 772.184578 349.839136 
L 773.543344 349.839136 
L 774.90211 350.698227 
L 776.260877 350.698227 
L 777.619643 349.839136 
L 778.978409 350.698227 
L 780.337175 348.120955 
L 781.695942 349.839136 
L 783.054708 350.698227 
L 785.77224 350.698227 
L 787.131006 349.839136 
L 788.489773 350.698227 
L 789.848539 350.698227 
L 791.207305 348.980045 
L 792.566071 350.698227 
L 795.283604 350.698227 
L 796.64237 348.980045 
L 798.001136 348.980045 
L 799.359903 350.698227 
L 802.077435 350.698227 
L 803.436201 348.980045 
L 804.794968 349.839136 
L 806.153734 348.120955 
L 807.5125 348.980045 
L 808.871266 348.980045 
L 810.230032 348.120955 
L 811.588799 350.698227 
L 812.947565 350.698227 
L 814.306331 348.120955 
L 815.665097 347.261864 
L 818.38263 350.698227 
L 819.741396 348.980045 
L 821.100162 348.980045 
L 822.458929 350.698227 
L 823.817695 348.120955 
L 825.176461 349.839136 
L 826.535227 349.839136 
L 827.893994 346.402773 
L 829.25276 350.698227 
L 830.611526 349.839136 
L 831.970292 347.261864 
L 833.329058 348.980045 
L 834.687825 348.120955 
L 836.046591 349.839136 
L 837.405357 348.120955 
L 838.764123 349.839136 
L 840.12289 349.839136 
L 841.481656 347.261864 
L 842.840422 348.980045 
L 845.557955 348.980045 
L 846.916721 350.698227 
L 848.275487 350.698227 
L 849.634253 348.120955 
L 850.993019 348.980045 
L 852.351786 348.980045 
L 853.710552 349.839136 
L 855.069318 348.980045 
L 856.428084 345.543682 
L 857.786851 350.698227 
L 859.145617 348.980045 
L 860.504383 346.402773 
L 861.863149 340.389136 
L 863.221916 342.107318 
L 864.580682 340.389136 
L 865.939448 343.8255 
L 867.298214 342.107318 
L 868.656981 345.543682 
L 870.015747 338.670955 
L 871.374513 340.389136 
L 872.733279 338.670955 
L 874.092045 342.107318 
L 875.450812 340.389136 
L 876.809578 346.402773 
L 878.168344 345.543682 
L 879.52711 347.261864 
L 880.885877 337.811864 
L 882.244643 347.261864 
L 883.603409 345.543682 
L 884.962175 348.980045 
L 886.320942 347.261864 
L 887.679708 348.120955 
L 889.038474 345.543682 
L 890.39724 345.543682 
L 891.756006 340.389136 
L 893.114773 341.248227 
L 894.473539 340.389136 
L 895.832305 343.8255 
L 897.191071 342.966409 
L 898.549838 340.389136 
L 899.908604 342.966409 
L 901.26737 339.530045 
L 902.626136 345.543682 
L 903.984903 348.120955 
L 905.343669 344.684591 
L 906.702435 348.120955 
L 908.061201 349.839136 
L 909.419968 345.543682 
L 910.778734 347.261864 
L 912.1375 345.543682 
L 913.496266 348.980045 
L 914.855032 345.543682 
L 916.213799 344.684591 
L 917.572565 349.839136 
L 918.931331 343.8255 
L 920.290097 344.684591 
L 921.648864 348.980045 
L 923.00763 349.839136 
L 924.366396 348.980045 
L 925.725162 347.261864 
L 927.083929 349.839136 
L 928.442695 348.980045 
L 929.801461 350.698227 
L 931.160227 349.839136 
L 932.518994 349.839136 
L 933.87776 350.698227 
L 935.236526 349.839136 
L 936.595292 349.839136 
L 937.954058 348.980045 
L 939.312825 350.698227 
L 940.671591 347.261864 
L 942.030357 349.839136 
L 943.389123 350.698227 
L 946.106656 350.698227 
L 947.465422 346.402773 
L 948.824188 347.261864 
L 951.541721 347.261864 
L 952.900487 350.698227 
L 954.259253 350.698227 
L 955.618019 346.402773 
L 956.976786 336.093682 
L 958.335552 347.261864 
L 959.694318 342.966409 
L 961.053084 347.261864 
L 962.411851 350.698227 
L 963.770617 350.698227 
L 965.129383 345.543682 
L 966.488149 336.952773 
L 967.846916 344.684591 
L 969.205682 349.839136 
L 970.564448 342.966409 
L 971.923214 350.698227 
L 974.640747 350.698227 
L 975.999513 330.939136 
L 977.358279 338.670955 
L 978.717045 342.966409 
L 980.075812 333.516409 
L 981.434578 350.698227 
L 982.793344 350.698227 
L 984.15211 342.107318 
L 985.510877 313.757318 
L 986.869643 322.348227 
L 988.228409 327.502773 
L 989.587175 346.402773 
L 990.945942 350.698227 
L 992.304708 350.698227 
L 993.663474 324.066409 
L 995.02224 292.280045 
L 996.381006 300.870955 
L 997.739773 318.052773 
L 999.098539 273.380045 
L 1000.457305 350.698227 
L 1001.816071 339.530045 
L 1003.174838 198.639136 
L 1004.533604 350.698227 
L 1005.89237 286.266409 
L 1007.251136 319.770955 
L 1008.609903 312.039136 
L 1009.968669 350.698227 
L 1011.327435 324.9255 
L 1012.686201 303.448227 
L 1014.044968 251.043682 
L 1015.403734 293.139136 
L 1016.7625 295.716409 
L 1018.121266 305.166409 
L 1019.480032 350.698227 
L 1020.838799 324.066409 
L 1022.197565 309.461864 
L 1023.556331 254.480045 
L 1024.915097 257.057318 
L 1026.273864 293.139136 
L 1027.63263 292.280045 
L 1028.991396 350.698227 
L 1030.350162 324.9255 
L 1031.708929 287.1255 
L 1033.067695 255.339136 
L 1034.426461 316.334591 
L 1035.785227 315.4755 
L 1037.143994 304.307318 
L 1038.50276 350.698227 
L 1039.861526 338.670955 
L 1041.220292 314.616409 
L 1042.579058 246.748227 
L 1043.937825 326.643682 
L 1045.296591 312.898227 
L 1046.655357 350.698227 
L 1048.014123 350.698227 
L 1049.37289 318.052773 
L 1050.731656 333.516409 
L 1052.090422 260.493682 
L 1053.449188 288.843682 
L 1054.807955 350.698227 
L 1056.166721 350.698227 
L 1057.525487 319.770955 
L 1058.884253 315.4755 
L 1060.243019 326.643682 
L 1061.601786 254.480045 
L 1062.960552 300.870955 
L 1064.319318 284.548227 
L 1065.678084 252.761864 
L 1067.036851 350.698227 
L 1068.395617 298.293682 
L 1069.754383 300.870955 
L 1071.113149 257.916409 
L 1072.471916 271.661864 
L 1073.830682 267.366409 
L 1075.189448 344.684591 
L 1076.548214 236.439136 
L 1077.906981 309.461864 
L 1079.265747 295.716409 
L 1080.624513 259.634591 
L 1081.983279 250.184591 
L 1083.342045 193.484591 
L 1084.700812 286.266409 
L 1086.059578 271.661864 
L 1087.418344 350.698227 
L 1088.77711 200.357318 
L 1090.135877 214.961864 
L 1091.494643 200.357318 
L 1092.853409 248.466409 
L 1094.212175 243.311864 
L 1095.570942 191.766409 
L 1096.929708 282.830045 
L 1098.288474 287.1255 
L 1101.006006 229.566409 
L 1102.364773 196.920955 
L 1103.723539 214.102773 
L 1105.082305 267.366409 
L 1106.441071 298.293682 
L 1107.799838 271.661864 
L 1109.158604 185.752773 
L 1110.51737 233.002773 
L 1111.876136 212.384591 
L 1113.234903 215.820955 
L 1114.593669 316.334591 
L 1115.952435 288.843682 
L 1117.311201 210.666409 
L 1118.669968 280.252773 
L 1120.028734 291.420955 
L 1121.3875 246.748227 
L 1122.746266 270.802773 
L 1124.105032 297.434591 
L 1125.463799 243.311864 
L 1126.822565 303.448227 
L 1128.181331 291.420955 
L 1129.540097 260.493682 
L 1130.898864 267.366409 
L 1132.25763 258.7755 
L 1134.975162 301.730045 
L 1136.333929 185.752773 
L 1137.692695 306.884591 
L 1140.410227 203.793682 
L 1141.768994 50.8755 
L 1143.12776 220.116409 
L 1144.486526 265.648227 
L 1145.845292 124.757318 
L 1147.204058 327.502773 
L 1148.562825 136.784591 
L 1149.921591 248.466409 
L 1151.280357 179.739136 
L 1152.639123 147.952773 
L 1153.99789 171.148227 
L 1155.356656 349.839136 
L 1156.715422 188.330045 
L 1158.074188 163.416409 
L 1159.432955 106.716409 
L 1160.791721 250.184591 
L 1162.150487 178.880045 
L 1163.509253 291.420955 
L 1164.868019 225.270955 
L 1166.226786 317.193682 
L 1167.585552 220.116409 
L 1168.944318 254.480045 
L 1170.303084 240.734591 
L 1171.661851 240.734591 
L 1173.020617 281.111864 
L 1174.379383 315.4755 
L 1175.738149 318.911864 
L 1177.096916 256.198227 
L 1178.455682 271.661864 
L 1179.814448 306.884591 
L 1181.173214 350.698227 
L 1185.249513 350.698227 
L 1186.608279 183.1755 
L 1187.967045 283.689136 
L 1189.325812 350.698227 
L 1190.684578 350.698227 
L 1192.043344 303.448227 
L 1193.40211 327.502773 
L 1194.760877 307.743682 
L 1196.119643 324.066409 
L 1197.478409 315.4755 
L 1198.837175 316.334591 
L 1200.195942 325.784591 
L 1201.554708 345.543682 
L 1202.913474 331.798227 
L 1204.27224 348.980045 
L 1205.631006 331.798227 
L 1206.989773 331.798227 
L 1208.348539 337.811864 
L 1209.707305 327.502773 
L 1211.066071 340.389136 
L 1212.424838 348.980045 
L 1213.783604 332.657318 
L 1215.14237 344.684591 
L 1216.501136 324.9255 
L 1217.859903 343.8255 
L 1219.218669 338.670955 
L 1220.577435 350.698227 
L 1221.936201 338.670955 
L 1223.294968 337.811864 
L 1224.653734 341.248227 
L 1226.0125 346.402773 
L 1227.371266 324.9255 
L 1228.730032 346.402773 
L 1230.088799 337.811864 
L 1231.447565 349.839136 
L 1232.806331 341.248227 
L 1234.165097 338.670955 
L 1235.523864 350.698227 
L 1236.88263 330.939136 
L 1238.241396 347.261864 
L 1239.600162 338.670955 
L 1240.958929 350.698227 
L 1242.317695 338.670955 
L 1243.676461 337.811864 
L 1245.035227 349.839136 
L 1246.393994 337.811864 
L 1247.75276 350.698227 
L 1249.111526 350.698227 
L 1250.470292 337.811864 
L 1251.829058 342.107318 
L 1253.187825 341.248227 
L 1254.546591 350.698227 
L 1258.62289 350.698227 
L 1259.981656 320.630045 
L 1261.340422 345.543682 
L 1262.699188 318.052773 
L 1264.057955 346.402773 
L 1265.416721 333.516409 
L 1266.775487 350.698227 
L 1269.493019 350.698227 
L 1270.851786 319.770955 
L 1272.210552 337.811864 
L 1273.569318 344.684591 
L 1274.928084 337.811864 
L 1276.286851 350.698227 
L 1277.645617 350.698227 
L 1279.004383 330.939136 
L 1280.363149 350.698227 
L 1281.721916 329.220955 
L 1283.080682 350.698227 
L 1287.156981 350.698227 
L 1288.515747 305.166409 
L 1289.874513 323.207318 
L 1291.233279 319.770955 
L 1292.592045 346.402773 
L 1293.950812 320.630045 
L 1293.950812 320.630045 
" clip-path="url(#p3790b7744f)" style="fill: none; stroke: #0000ff; stroke-width: 1.5; stroke-linecap: square"/>
   </g>
   <g id="line2d_21">
    <path d="M 1054.807955 324.678623 
L 1056.166721 338.141677 
L 1057.525487 322.546819 
L 1058.884253 320.193407 
L 1060.243019 298.229462 
L 1061.601786 312.007919 
L 1064.319318 322.842334 
L 1065.678084 312.982473 
L 1067.036851 301.361337 
L 1068.395617 300.749067 
L 1069.754383 257.371262 
L 1071.113149 291.178297 
L 1072.471916 293.061934 
L 1073.830682 287.060742 
L 1075.189448 306.521329 
L 1076.548214 293.192843 
L 1077.906981 278.08493 
L 1079.265747 270.677599 
L 1080.624513 269.767922 
L 1083.342045 285.226444 
L 1084.700812 269.926219 
L 1086.059578 273.950995 
L 1087.418344 258.974557 
L 1088.77711 246.926123 
L 1090.135877 244.588947 
L 1091.494643 250.108598 
L 1092.853409 253.423664 
L 1094.212175 245.846452 
L 1095.570942 252.148309 
L 1096.929708 224.193677 
L 1098.288474 217.96502 
L 1099.64724 217.865661 
L 1101.006006 230.831559 
L 1102.364773 254.540679 
L 1103.723539 238.670245 
L 1105.082305 263.36212 
L 1106.441071 242.885572 
L 1107.799838 227.485166 
L 1109.158604 232.468245 
L 1110.51737 228.105361 
L 1111.876136 245.901287 
L 1113.234903 231.70253 
L 1114.593669 259.750539 
L 1115.952435 252.035342 
L 1117.311201 220.747511 
L 1118.669968 241.253299 
L 1120.028734 245.630816 
L 1121.3875 246.129599 
L 1122.746266 276.107172 
L 1124.105032 296.474688 
L 1125.463799 267.609427 
L 1126.822565 261.841137 
L 1128.181331 278.450363 
L 1129.540097 254.995482 
L 1130.898864 272.515222 
L 1132.25763 295.115911 
L 1133.616396 284.256619 
L 1134.975162 280.971764 
L 1136.333929 272.477035 
L 1137.692695 259.907543 
L 1139.051461 266.373615 
L 1140.410227 246.761251 
L 1141.768994 261.1627 
L 1143.12776 240.129533 
L 1144.486526 213.774979 
L 1145.845292 198.610426 
L 1147.204058 189.52363 
L 1148.562825 201.866118 
L 1149.921591 149.429512 
L 1151.280357 228.750684 
L 1152.639123 214.720445 
L 1153.99789 175.371786 
L 1155.356656 232.325433 
L 1156.715422 194.912382 
L 1158.074188 184.881625 
L 1159.432955 190.085634 
L 1160.791721 187.361636 
L 1162.150487 204.719474 
L 1163.509253 191.89564 
L 1164.868019 227.986953 
L 1166.226786 192.027137 
L 1167.585552 217.049635 
L 1168.944318 220.785883 
L 1170.303084 240.573382 
L 1171.661851 264.98617 
L 1173.020617 263.158577 
L 1174.379383 284.637424 
L 1175.738149 251.94916 
L 1177.096916 259.502054 
L 1178.455682 270.940575 
L 1179.814448 276.06205 
L 1181.173214 305.615148 
L 1182.531981 315.542726 
L 1183.890747 336.539675 
L 1185.249513 314.423092 
L 1186.608279 317.495205 
L 1187.967045 312.280314 
L 1189.325812 324.941848 
L 1190.684578 321.811096 
L 1192.043344 325.266496 
L 1193.40211 340.590261 
L 1194.760877 291.359444 
L 1196.119643 303.977954 
L 1197.478409 328.073302 
L 1198.837175 325.599845 
L 1200.195942 335.418265 
L 1201.554708 341.122311 
L 1202.913474 340.567264 
L 1204.27224 306.519591 
L 1205.631006 324.603362 
L 1206.989773 336.686396 
L 1208.348539 343.307943 
L 1209.707305 350.835667 
L 1211.066071 349.312348 
L 1212.424838 352.421477 
L 1213.783604 325.120444 
L 1215.14237 331.360523 
L 1216.501136 343.79107 
L 1217.859903 339.773333 
L 1219.218669 350.549907 
L 1220.577435 349.623826 
L 1221.936201 349.683959 
L 1223.294968 334.334152 
L 1224.653734 336.187289 
L 1226.0125 344.643894 
L 1227.371266 342.947573 
L 1228.730032 348.142598 
L 1230.088799 350.158534 
L 1231.447565 343.719819 
L 1232.806331 338.534539 
L 1234.165097 337.814048 
L 1236.88263 345.538325 
L 1238.241396 346.234714 
L 1239.600162 350.606223 
L 1240.958929 344.911508 
L 1242.317695 340.937674 
L 1243.676461 341.752081 
L 1245.035227 340.490883 
L 1246.393994 345.541534 
L 1247.75276 344.700505 
L 1249.111526 350.576979 
L 1251.829058 341.812212 
L 1253.187825 347.200296 
L 1254.546591 340.753213 
L 1255.905357 347.541463 
L 1257.264123 348.474447 
L 1258.62289 349.153839 
L 1259.981656 348.153364 
L 1261.340422 342.346191 
L 1262.699188 347.440631 
L 1264.057955 336.481507 
L 1265.416721 343.184838 
L 1266.775487 338.554658 
L 1268.134253 336.438793 
L 1269.493019 340.638754 
L 1270.851786 336.22867 
L 1272.210552 342.837081 
L 1273.569318 342.391673 
L 1274.928084 342.472478 
L 1276.286851 343.869926 
L 1277.645617 341.685098 
L 1279.004383 337.909261 
L 1280.363149 337.403494 
L 1281.721916 346.447278 
L 1283.080682 338.538723 
L 1284.439448 349.129127 
L 1285.798214 347.661802 
L 1287.156981 342.90641 
L 1288.515747 344.699522 
L 1289.874513 334.919345 
L 1291.233279 342.563398 
L 1292.592045 332.093485 
L 1293.950812 335.402807 
L 1293.950812 335.402807 
" clip-path="url(#p3790b7744f)" style="fill: none; stroke: #ffa500; stroke-width: 1.5; stroke-linecap: square"/>
   </g>
   <g id="line2d_22">
    <path d="M 1293.950812 335.402807 
L 1295.309578 332.591244 
L 1296.668344 323.651616 
L 1298.02711 325.2113 
L 1299.385877 322.411817 
L 1300.744643 332.279707 
L 1302.103409 326.398343 
L 1303.462175 331.38896 
L 1304.820942 330.889876 
L 1306.179708 321.126592 
L 1307.538474 324.305289 
L 1308.89724 321.487024 
L 1310.256006 329.91833 
L 1311.614773 324.680856 
" clip-path="url(#p3790b7744f)" style="fill: none; stroke: #ff0000; stroke-width: 1.5; stroke-linecap: square"/>
   </g>
   <g id="patch_3">
    <path d="M 33.2875 368.3955 
L 33.2875 35.7555 
" style="fill: none; stroke: #000000; stroke-width: 0.8; stroke-linejoin: miter; stroke-linecap: square"/>
   </g>
   <g id="patch_4">
    <path d="M 1372.4875 368.3955 
L 1372.4875 35.7555 
" style="fill: none; stroke: #000000; stroke-width: 0.8; stroke-linejoin: miter; stroke-linecap: square"/>
   </g>
   <g id="patch_5">
    <path d="M 33.2875 368.3955 
L 1372.4875 368.3955 
" style="fill: none; stroke: #000000; stroke-width: 0.8; stroke-linejoin: miter; stroke-linecap: square"/>
   </g>
   <g id="patch_6">
    <path d="M 33.2875 35.7555 
L 1372.4875 35.7555 
" style="fill: none; stroke: #000000; stroke-width: 0.8; stroke-linejoin: miter; stroke-linecap: square"/>
   </g>
   <g id="text_20">
    <!-- Daily Confirmed Cases Forecasting - Liechtenstein -->
    <g transform="translate(552.098125 16.318125)scale(0.12 -0.12)">
     <defs>
      <path id="DejaVuSans-44" d="M 1259 4147 
L 1259 519 
L 2022 519 
Q 2988 519 3436 956 
Q 3884 1394 3884 2338 
Q 3884 3275 3436 3711 
Q 2988 4147 2022 4147 
L 1259 4147 
z
M 628 4666 
L 1925 4666 
Q 3281 4666 3915 4102 
Q 4550 3538 4550 2338 
Q 4550 1131 3912 565 
Q 3275 0 1925 0 
L 628 0 
L 628 4666 
z
" transform="scale(0.015625)"/>
      <path id="DejaVuSans-61" d="M 2194 1759 
Q 1497 1759 1228 1600 
Q 959 1441 959 1056 
Q 959 750 1161 570 
Q 1363 391 1709 391 
Q 2188 391 2477 730 
Q 2766 1069 2766 1631 
L 2766 1759 
L 2194 1759 
z
M 3341 1997 
L 3341 0 
L 2766 0 
L 2766 531 
Q 2569 213 2275 61 
Q 1981 -91 1556 -91 
Q 1019 -91 701 211 
Q 384 513 384 1019 
Q 384 1609 779 1909 
Q 1175 2209 1959 2209 
L 2766 2209 
L 2766 2266 
Q 2766 2663 2505 2880 
Q 2244 3097 1772 3097 
Q 1472 3097 1187 3025 
Q 903 2953 641 2809 
L 641 3341 
Q 956 3463 1253 3523 
Q 1550 3584 1831 3584 
Q 2591 3584 2966 3190 
Q 3341 2797 3341 1997 
z
" transform="scale(0.015625)"/>
      <path id="DejaVuSans-69" d="M 603 3500 
L 1178 3500 
L 1178 0 
L 603 0 
L 603 3500 
z
M 603 4863 
L 1178 4863 
L 1178 4134 
L 603 4134 
L 603 4863 
z
" transform="scale(0.015625)"/>
      <path id="DejaVuSans-6c" d="M 603 4863 
L 1178 4863 
L 1178 0 
L 603 0 
L 603 4863 
z
" transform="scale(0.015625)"/>
      <path id="DejaVuSans-79" d="M 2059 -325 
Q 1816 -950 1584 -1140 
Q 1353 -1331 966 -1331 
L 506 -1331 
L 506 -850 
L 844 -850 
Q 1081 -850 1212 -737 
Q 1344 -625 1503 -206 
L 1606 56 
L 191 3500 
L 800 3500 
L 1894 763 
L 2988 3500 
L 3597 3500 
L 2059 -325 
z
" transform="scale(0.015625)"/>
      <path id="DejaVuSans-20" transform="scale(0.015625)"/>
      <path id="DejaVuSans-43" d="M 4122 4306 
L 4122 3641 
Q 3803 3938 3442 4084 
Q 3081 4231 2675 4231 
Q 1875 4231 1450 3742 
Q 1025 3253 1025 2328 
Q 1025 1406 1450 917 
Q 1875 428 2675 428 
Q 3081 428 3442 575 
Q 3803 722 4122 1019 
L 4122 359 
Q 3791 134 3420 21 
Q 3050 -91 2638 -91 
Q 1578 -91 968 557 
Q 359 1206 359 2328 
Q 359 3453 968 4101 
Q 1578 4750 2638 4750 
Q 3056 4750 3426 4639 
Q 3797 4528 4122 4306 
z
" transform="scale(0.015625)"/>
      <path id="DejaVuSans-6f" d="M 1959 3097 
Q 1497 3097 1228 2736 
Q 959 2375 959 1747 
Q 959 1119 1226 758 
Q 1494 397 1959 397 
Q 2419 397 2687 759 
Q 2956 1122 2956 1747 
Q 2956 2369 2687 2733 
Q 2419 3097 1959 3097 
z
M 1959 3584 
Q 2709 3584 3137 3096 
Q 3566 2609 3566 1747 
Q 3566 888 3137 398 
Q 2709 -91 1959 -91 
Q 1206 -91 779 398 
Q 353 888 353 1747 
Q 353 2609 779 3096 
Q 1206 3584 1959 3584 
z
" transform="scale(0.015625)"/>
      <path id="DejaVuSans-6e" d="M 3513 2113 
L 3513 0 
L 2938 0 
L 2938 2094 
Q 2938 2591 2744 2837 
Q 2550 3084 2163 3084 
Q 1697 3084 1428 2787 
Q 1159 2491 1159 1978 
L 1159 0 
L 581 0 
L 581 3500 
L 1159 3500 
L 1159 2956 
Q 1366 3272 1645 3428 
Q 1925 3584 2291 3584 
Q 2894 3584 3203 3211 
Q 3513 2838 3513 2113 
z
" transform="scale(0.015625)"/>
      <path id="DejaVuSans-66" d="M 2375 4863 
L 2375 4384 
L 1825 4384 
Q 1516 4384 1395 4259 
Q 1275 4134 1275 3809 
L 1275 3500 
L 2222 3500 
L 2222 3053 
L 1275 3053 
L 1275 0 
L 697 0 
L 697 3053 
L 147 3053 
L 147 3500 
L 697 3500 
L 697 3744 
Q 697 4328 969 4595 
Q 1241 4863 1831 4863 
L 2375 4863 
z
" transform="scale(0.015625)"/>
      <path id="DejaVuSans-72" d="M 2631 2963 
Q 2534 3019 2420 3045 
Q 2306 3072 2169 3072 
Q 1681 3072 1420 2755 
Q 1159 2438 1159 1844 
L 1159 0 
L 581 0 
L 581 3500 
L 1159 3500 
L 1159 2956 
Q 1341 3275 1631 3429 
Q 1922 3584 2338 3584 
Q 2397 3584 2469 3576 
Q 2541 3569 2628 3553 
L 2631 2963 
z
" transform="scale(0.015625)"/>
      <path id="DejaVuSans-6d" d="M 3328 2828 
Q 3544 3216 3844 3400 
Q 4144 3584 4550 3584 
Q 5097 3584 5394 3201 
Q 5691 2819 5691 2113 
L 5691 0 
L 5113 0 
L 5113 2094 
Q 5113 2597 4934 2840 
Q 4756 3084 4391 3084 
Q 3944 3084 3684 2787 
Q 3425 2491 3425 1978 
L 3425 0 
L 2847 0 
L 2847 2094 
Q 2847 2600 2669 2842 
Q 2491 3084 2119 3084 
Q 1678 3084 1418 2786 
Q 1159 2488 1159 1978 
L 1159 0 
L 581 0 
L 581 3500 
L 1159 3500 
L 1159 2956 
Q 1356 3278 1631 3431 
Q 1906 3584 2284 3584 
Q 2666 3584 2933 3390 
Q 3200 3197 3328 2828 
z
" transform="scale(0.015625)"/>
      <path id="DejaVuSans-65" d="M 3597 1894 
L 3597 1613 
L 953 1613 
Q 991 1019 1311 708 
Q 1631 397 2203 397 
Q 2534 397 2845 478 
Q 3156 559 3463 722 
L 3463 178 
Q 3153 47 2828 -22 
Q 2503 -91 2169 -91 
Q 1331 -91 842 396 
Q 353 884 353 1716 
Q 353 2575 817 3079 
Q 1281 3584 2069 3584 
Q 2775 3584 3186 3129 
Q 3597 2675 3597 1894 
z
M 3022 2063 
Q 3016 2534 2758 2815 
Q 2500 3097 2075 3097 
Q 1594 3097 1305 2825 
Q 1016 2553 972 2059 
L 3022 2063 
z
" transform="scale(0.015625)"/>
      <path id="DejaVuSans-64" d="M 2906 2969 
L 2906 4863 
L 3481 4863 
L 3481 0 
L 2906 0 
L 2906 525 
Q 2725 213 2448 61 
Q 2172 -91 1784 -91 
Q 1150 -91 751 415 
Q 353 922 353 1747 
Q 353 2572 751 3078 
Q 1150 3584 1784 3584 
Q 2172 3584 2448 3432 
Q 2725 3281 2906 2969 
z
M 947 1747 
Q 947 1113 1208 752 
Q 1469 391 1925 391 
Q 2381 391 2643 752 
Q 2906 1113 2906 1747 
Q 2906 2381 2643 2742 
Q 2381 3103 1925 3103 
Q 1469 3103 1208 2742 
Q 947 2381 947 1747 
z
" transform="scale(0.015625)"/>
      <path id="DejaVuSans-73" d="M 2834 3397 
L 2834 2853 
Q 2591 2978 2328 3040 
Q 2066 3103 1784 3103 
Q 1356 3103 1142 2972 
Q 928 2841 928 2578 
Q 928 2378 1081 2264 
Q 1234 2150 1697 2047 
L 1894 2003 
Q 2506 1872 2764 1633 
Q 3022 1394 3022 966 
Q 3022 478 2636 193 
Q 2250 -91 1575 -91 
Q 1294 -91 989 -36 
Q 684 19 347 128 
L 347 722 
Q 666 556 975 473 
Q 1284 391 1588 391 
Q 1994 391 2212 530 
Q 2431 669 2431 922 
Q 2431 1156 2273 1281 
Q 2116 1406 1581 1522 
L 1381 1569 
Q 847 1681 609 1914 
Q 372 2147 372 2553 
Q 372 3047 722 3315 
Q 1072 3584 1716 3584 
Q 2034 3584 2315 3537 
Q 2597 3491 2834 3397 
z
" transform="scale(0.015625)"/>
      <path id="DejaVuSans-46" d="M 628 4666 
L 3309 4666 
L 3309 4134 
L 1259 4134 
L 1259 2759 
L 3109 2759 
L 3109 2228 
L 1259 2228 
L 1259 0 
L 628 0 
L 628 4666 
z
" transform="scale(0.015625)"/>
      <path id="DejaVuSans-63" d="M 3122 3366 
L 3122 2828 
Q 2878 2963 2633 3030 
Q 2388 3097 2138 3097 
Q 1578 3097 1268 2742 
Q 959 2388 959 1747 
Q 959 1106 1268 751 
Q 1578 397 2138 397 
Q 2388 397 2633 464 
Q 2878 531 3122 666 
L 3122 134 
Q 2881 22 2623 -34 
Q 2366 -91 2075 -91 
Q 1284 -91 818 406 
Q 353 903 353 1747 
Q 353 2603 823 3093 
Q 1294 3584 2113 3584 
Q 2378 3584 2631 3529 
Q 2884 3475 3122 3366 
z
" transform="scale(0.015625)"/>
      <path id="DejaVuSans-74" d="M 1172 4494 
L 1172 3500 
L 2356 3500 
L 2356 3053 
L 1172 3053 
L 1172 1153 
Q 1172 725 1289 603 
Q 1406 481 1766 481 
L 2356 481 
L 2356 0 
L 1766 0 
Q 1100 0 847 248 
Q 594 497 594 1153 
L 594 3053 
L 172 3053 
L 172 3500 
L 594 3500 
L 594 4494 
L 1172 4494 
z
" transform="scale(0.015625)"/>
      <path id="DejaVuSans-67" d="M 2906 1791 
Q 2906 2416 2648 2759 
Q 2391 3103 1925 3103 
Q 1463 3103 1205 2759 
Q 947 2416 947 1791 
Q 947 1169 1205 825 
Q 1463 481 1925 481 
Q 2391 481 2648 825 
Q 2906 1169 2906 1791 
z
M 3481 434 
Q 3481 -459 3084 -895 
Q 2688 -1331 1869 -1331 
Q 1566 -1331 1297 -1286 
Q 1028 -1241 775 -1147 
L 775 -588 
Q 1028 -725 1275 -790 
Q 1522 -856 1778 -856 
Q 2344 -856 2625 -561 
Q 2906 -266 2906 331 
L 2906 616 
Q 2728 306 2450 153 
Q 2172 0 1784 0 
Q 1141 0 747 490 
Q 353 981 353 1791 
Q 353 2603 747 3093 
Q 1141 3584 1784 3584 
Q 2172 3584 2450 3431 
Q 2728 3278 2906 2969 
L 2906 3500 
L 3481 3500 
L 3481 434 
z
" transform="scale(0.015625)"/>
      <path id="DejaVuSans-4c" d="M 628 4666 
L 1259 4666 
L 1259 531 
L 3531 531 
L 3531 0 
L 628 0 
L 628 4666 
z
" transform="scale(0.015625)"/>
      <path id="DejaVuSans-68" d="M 3513 2113 
L 3513 0 
L 2938 0 
L 2938 2094 
Q 2938 2591 2744 2837 
Q 2550 3084 2163 3084 
Q 1697 3084 1428 2787 
Q 1159 2491 1159 1978 
L 1159 0 
L 581 0 
L 581 4863 
L 1159 4863 
L 1159 2956 
Q 1366 3272 1645 3428 
Q 1925 3584 2291 3584 
Q 2894 3584 3203 3211 
Q 3513 2838 3513 2113 
z
" transform="scale(0.015625)"/>
     </defs>
     <use xlink:href="#DejaVuSans-44"/>
     <use xlink:href="#DejaVuSans-61" x="77.001953"/>
     <use xlink:href="#DejaVuSans-69" x="138.28125"/>
     <use xlink:href="#DejaVuSans-6c" x="166.064453"/>
     <use xlink:href="#DejaVuSans-79" x="193.847656"/>
     <use xlink:href="#DejaVuSans-20" x="253.027344"/>
     <use xlink:href="#DejaVuSans-43" x="284.814453"/>
     <use xlink:href="#DejaVuSans-6f" x="354.638672"/>
     <use xlink:href="#DejaVuSans-6e" x="415.820312"/>
     <use xlink:href="#DejaVuSans-66" x="479.199219"/>
     <use xlink:href="#DejaVuSans-69" x="514.404297"/>
     <use xlink:href="#DejaVuSans-72" x="542.1875"/>
     <use xlink:href="#DejaVuSans-6d" x="581.550781"/>
     <use xlink:href="#DejaVuSans-65" x="678.962891"/>
     <use xlink:href="#DejaVuSans-64" x="740.486328"/>
     <use xlink:href="#DejaVuSans-20" x="803.962891"/>
     <use xlink:href="#DejaVuSans-43" x="835.75"/>
     <use xlink:href="#DejaVuSans-61" x="905.574219"/>
     <use xlink:href="#DejaVuSans-73" x="966.853516"/>
     <use xlink:href="#DejaVuSans-65" x="1018.953125"/>
     <use xlink:href="#DejaVuSans-73" x="1080.476562"/>
     <use xlink:href="#DejaVuSans-20" x="1132.576172"/>
     <use xlink:href="#DejaVuSans-46" x="1164.363281"/>
     <use xlink:href="#DejaVuSans-6f" x="1218.257812"/>
     <use xlink:href="#DejaVuSans-72" x="1279.439453"/>
     <use xlink:href="#DejaVuSans-65" x="1318.302734"/>
     <use xlink:href="#DejaVuSans-63" x="1379.826172"/>
     <use xlink:href="#DejaVuSans-61" x="1434.806641"/>
     <use xlink:href="#DejaVuSans-73" x="1496.085938"/>
     <use xlink:href="#DejaVuSans-74" x="1548.185547"/>
     <use xlink:href="#DejaVuSans-69" x="1587.394531"/>
     <use xlink:href="#DejaVuSans-6e" x="1615.177734"/>
     <use xlink:href="#DejaVuSans-67" x="1678.556641"/>
     <use xlink:href="#DejaVuSans-20" x="1742.033203"/>
     <use xlink:href="#DejaVuSans-2d" x="1773.820312"/>
     <use xlink:href="#DejaVuSans-20" x="1809.904297"/>
     <use xlink:href="#DejaVuSans-4c" x="1841.691406"/>
     <use xlink:href="#DejaVuSans-69" x="1897.404297"/>
     <use xlink:href="#DejaVuSans-65" x="1925.1875"/>
     <use xlink:href="#DejaVuSans-63" x="1986.710938"/>
     <use xlink:href="#DejaVuSans-68" x="2041.691406"/>
     <use xlink:href="#DejaVuSans-74" x="2105.070312"/>
     <use xlink:href="#DejaVuSans-65" x="2144.279297"/>
     <use xlink:href="#DejaVuSans-6e" x="2205.802734"/>
     <use xlink:href="#DejaVuSans-73" x="2269.181641"/>
     <use xlink:href="#DejaVuSans-74" x="2321.28125"/>
     <use xlink:href="#DejaVuSans-65" x="2360.490234"/>
     <use xlink:href="#DejaVuSans-69" x="2422.013672"/>
     <use xlink:href="#DejaVuSans-6e" x="2449.796875"/>
    </g>
    <!-- ARIMA (3, 1, 1)x(1, 0, 1, 7) (R2 = 0.546764) -->
    <g transform="translate(570.903438 29.7555)scale(0.12 -0.12)">
     <defs>
      <path id="DejaVuSans-41" d="M 2188 4044 
L 1331 1722 
L 3047 1722 
L 2188 4044 
z
M 1831 4666 
L 2547 4666 
L 4325 0 
L 3669 0 
L 3244 1197 
L 1141 1197 
L 716 0 
L 50 0 
L 1831 4666 
z
" transform="scale(0.015625)"/>
      <path id="DejaVuSans-52" d="M 2841 2188 
Q 3044 2119 3236 1894 
Q 3428 1669 3622 1275 
L 4263 0 
L 3584 0 
L 2988 1197 
Q 2756 1666 2539 1819 
Q 2322 1972 1947 1972 
L 1259 1972 
L 1259 0 
L 628 0 
L 628 4666 
L 2053 4666 
Q 2853 4666 3247 4331 
Q 3641 3997 3641 3322 
Q 3641 2881 3436 2590 
Q 3231 2300 2841 2188 
z
M 1259 4147 
L 1259 2491 
L 2053 2491 
Q 2509 2491 2742 2702 
Q 2975 2913 2975 3322 
Q 2975 3731 2742 3939 
Q 2509 4147 2053 4147 
L 1259 4147 
z
" transform="scale(0.015625)"/>
      <path id="DejaVuSans-49" d="M 628 4666 
L 1259 4666 
L 1259 0 
L 628 0 
L 628 4666 
z
" transform="scale(0.015625)"/>
      <path id="DejaVuSans-4d" d="M 628 4666 
L 1569 4666 
L 2759 1491 
L 3956 4666 
L 4897 4666 
L 4897 0 
L 4281 0 
L 4281 4097 
L 3078 897 
L 2444 897 
L 1241 4097 
L 1241 0 
L 628 0 
L 628 4666 
z
" transform="scale(0.015625)"/>
      <path id="DejaVuSans-28" d="M 1984 4856 
Q 1566 4138 1362 3434 
Q 1159 2731 1159 2009 
Q 1159 1288 1364 580 
Q 1569 -128 1984 -844 
L 1484 -844 
Q 1016 -109 783 600 
Q 550 1309 550 2009 
Q 550 2706 781 3412 
Q 1013 4119 1484 4856 
L 1984 4856 
z
" transform="scale(0.015625)"/>
      <path id="DejaVuSans-2c" d="M 750 794 
L 1409 794 
L 1409 256 
L 897 -744 
L 494 -744 
L 750 256 
L 750 794 
z
" transform="scale(0.015625)"/>
      <path id="DejaVuSans-29" d="M 513 4856 
L 1013 4856 
Q 1481 4119 1714 3412 
Q 1947 2706 1947 2009 
Q 1947 1309 1714 600 
Q 1481 -109 1013 -844 
L 513 -844 
Q 928 -128 1133 580 
Q 1338 1288 1338 2009 
Q 1338 2731 1133 3434 
Q 928 4138 513 4856 
z
" transform="scale(0.015625)"/>
      <path id="DejaVuSans-78" d="M 3513 3500 
L 2247 1797 
L 3578 0 
L 2900 0 
L 1881 1375 
L 863 0 
L 184 0 
L 1544 1831 
L 300 3500 
L 978 3500 
L 1906 2253 
L 2834 3500 
L 3513 3500 
z
" transform="scale(0.015625)"/>
      <path id="DejaVuSans-3d" d="M 678 2906 
L 4684 2906 
L 4684 2381 
L 678 2381 
L 678 2906 
z
M 678 1631 
L 4684 1631 
L 4684 1100 
L 678 1100 
L 678 1631 
z
" transform="scale(0.015625)"/>
      <path id="DejaVuSans-2e" d="M 684 794 
L 1344 794 
L 1344 0 
L 684 0 
L 684 794 
z
" transform="scale(0.015625)"/>
      <path id="DejaVuSans-36" d="M 2113 2584 
Q 1688 2584 1439 2293 
Q 1191 2003 1191 1497 
Q 1191 994 1439 701 
Q 1688 409 2113 409 
Q 2538 409 2786 701 
Q 3034 994 3034 1497 
Q 3034 2003 2786 2293 
Q 2538 2584 2113 2584 
z
M 3366 4563 
L 3366 3988 
Q 3128 4100 2886 4159 
Q 2644 4219 2406 4219 
Q 1781 4219 1451 3797 
Q 1122 3375 1075 2522 
Q 1259 2794 1537 2939 
Q 1816 3084 2150 3084 
Q 2853 3084 3261 2657 
Q 3669 2231 3669 1497 
Q 3669 778 3244 343 
Q 2819 -91 2113 -91 
Q 1303 -91 875 529 
Q 447 1150 447 2328 
Q 447 3434 972 4092 
Q 1497 4750 2381 4750 
Q 2619 4750 2861 4703 
Q 3103 4656 3366 4563 
z
" transform="scale(0.015625)"/>
     </defs>
     <use xlink:href="#DejaVuSans-41"/>
     <use xlink:href="#DejaVuSans-52" x="68.408203"/>
     <use xlink:href="#DejaVuSans-49" x="137.890625"/>
     <use xlink:href="#DejaVuSans-4d" x="167.382812"/>
     <use xlink:href="#DejaVuSans-41" x="253.662109"/>
     <use xlink:href="#DejaVuSans-20" x="322.070312"/>
     <use xlink:href="#DejaVuSans-28" x="353.857422"/>
     <use xlink:href="#DejaVuSans-33" x="392.871094"/>
     <use xlink:href="#DejaVuSans-2c" x="456.494141"/>
     <use xlink:href="#DejaVuSans-20" x="488.28125"/>
     <use xlink:href="#DejaVuSans-31" x="520.068359"/>
     <use xlink:href="#DejaVuSans-2c" x="583.691406"/>
     <use xlink:href="#DejaVuSans-20" x="615.478516"/>
     <use xlink:href="#DejaVuSans-31" x="647.265625"/>
     <use xlink:href="#DejaVuSans-29" x="710.888672"/>
     <use xlink:href="#DejaVuSans-78" x="749.902344"/>
     <use xlink:href="#DejaVuSans-28" x="809.082031"/>
     <use xlink:href="#DejaVuSans-31" x="848.095703"/>
     <use xlink:href="#DejaVuSans-2c" x="911.71875"/>
     <use xlink:href="#DejaVuSans-20" x="943.505859"/>
     <use xlink:href="#DejaVuSans-30" x="975.292969"/>
     <use xlink:href="#DejaVuSans-2c" x="1038.916016"/>
     <use xlink:href="#DejaVuSans-20" x="1070.703125"/>
     <use xlink:href="#DejaVuSans-31" x="1102.490234"/>
     <use xlink:href="#DejaVuSans-2c" x="1166.113281"/>
     <use xlink:href="#DejaVuSans-20" x="1197.900391"/>
     <use xlink:href="#DejaVuSans-37" x="1229.6875"/>
     <use xlink:href="#DejaVuSans-29" x="1293.310547"/>
     <use xlink:href="#DejaVuSans-20" x="1332.324219"/>
     <use xlink:href="#DejaVuSans-28" x="1364.111328"/>
     <use xlink:href="#DejaVuSans-52" x="1403.125"/>
     <use xlink:href="#DejaVuSans-32" x="1472.607422"/>
     <use xlink:href="#DejaVuSans-20" x="1536.230469"/>
     <use xlink:href="#DejaVuSans-3d" x="1568.017578"/>
     <use xlink:href="#DejaVuSans-20" x="1651.806641"/>
     <use xlink:href="#DejaVuSans-30" x="1683.59375"/>
     <use xlink:href="#DejaVuSans-2e" x="1747.216797"/>
     <use xlink:href="#DejaVuSans-35" x="1779.003906"/>
     <use xlink:href="#DejaVuSans-34" x="1842.626953"/>
     <use xlink:href="#DejaVuSans-36" x="1906.25"/>
     <use xlink:href="#DejaVuSans-37" x="1969.873047"/>
     <use xlink:href="#DejaVuSans-36" x="2033.496094"/>
     <use xlink:href="#DejaVuSans-34" x="2097.119141"/>
     <use xlink:href="#DejaVuSans-29" x="2160.742188"/>
    </g>
   </g>
   <g id="legend_1">
    <g id="patch_7">
     <path d="M 1268.407813 87.789875 
L 1365.4875 87.789875 
Q 1367.4875 87.789875 1367.4875 85.789875 
L 1367.4875 42.7555 
Q 1367.4875 40.7555 1365.4875 40.7555 
L 1268.407813 40.7555 
Q 1266.407813 40.7555 1266.407813 42.7555 
L 1266.407813 85.789875 
Q 1266.407813 87.789875 1268.407813 87.789875 
z
" style="fill: #ffffff; opacity: 0.8; stroke: #cccccc; stroke-linejoin: miter"/>
    </g>
    <g id="line2d_23">
     <path d="M 1270.407813 48.853937 
L 1280.407813 48.853937 
L 1290.407813 48.853937 
" style="fill: none; stroke: #0000ff; stroke-width: 1.5; stroke-linecap: square"/>
    </g>
    <g id="text_21">
     <!-- Actual Value -->
     <g transform="translate(1298.407813 52.353937)scale(0.1 -0.1)">
      <defs>
       <path id="DejaVuSans-75" d="M 544 1381 
L 544 3500 
L 1119 3500 
L 1119 1403 
Q 1119 906 1312 657 
Q 1506 409 1894 409 
Q 2359 409 2629 706 
Q 2900 1003 2900 1516 
L 2900 3500 
L 3475 3500 
L 3475 0 
L 2900 0 
L 2900 538 
Q 2691 219 2414 64 
Q 2138 -91 1772 -91 
Q 1169 -91 856 284 
Q 544 659 544 1381 
z
M 1991 3584 
L 1991 3584 
z
" transform="scale(0.015625)"/>
       <path id="DejaVuSans-56" d="M 1831 0 
L 50 4666 
L 709 4666 
L 2188 738 
L 3669 4666 
L 4325 4666 
L 2547 0 
L 1831 0 
z
" transform="scale(0.015625)"/>
      </defs>
      <use xlink:href="#DejaVuSans-41"/>
      <use xlink:href="#DejaVuSans-63" x="66.658203"/>
      <use xlink:href="#DejaVuSans-74" x="121.638672"/>
      <use xlink:href="#DejaVuSans-75" x="160.847656"/>
      <use xlink:href="#DejaVuSans-61" x="224.226562"/>
      <use xlink:href="#DejaVuSans-6c" x="285.505859"/>
      <use xlink:href="#DejaVuSans-20" x="313.289062"/>
      <use xlink:href="#DejaVuSans-56" x="345.076172"/>
      <use xlink:href="#DejaVuSans-61" x="405.734375"/>
      <use xlink:href="#DejaVuSans-6c" x="467.013672"/>
      <use xlink:href="#DejaVuSans-75" x="494.796875"/>
      <use xlink:href="#DejaVuSans-65" x="558.175781"/>
     </g>
    </g>
    <g id="line2d_24">
     <path d="M 1270.407813 63.532062 
L 1280.407813 63.532062 
L 1290.407813 63.532062 
" style="fill: none; stroke: #ffa500; stroke-width: 1.5; stroke-linecap: square"/>
    </g>
    <g id="text_22">
     <!-- Check Value -->
     <g transform="translate(1298.407813 67.032062)scale(0.1 -0.1)">
      <defs>
       <path id="DejaVuSans-6b" d="M 581 4863 
L 1159 4863 
L 1159 1991 
L 2875 3500 
L 3609 3500 
L 1753 1863 
L 3688 0 
L 2938 0 
L 1159 1709 
L 1159 0 
L 581 0 
L 581 4863 
z
" transform="scale(0.015625)"/>
      </defs>
      <use xlink:href="#DejaVuSans-43"/>
      <use xlink:href="#DejaVuSans-68" x="69.824219"/>
      <use xlink:href="#DejaVuSans-65" x="133.203125"/>
      <use xlink:href="#DejaVuSans-63" x="194.726562"/>
      <use xlink:href="#DejaVuSans-6b" x="249.707031"/>
      <use xlink:href="#DejaVuSans-20" x="307.617188"/>
      <use xlink:href="#DejaVuSans-56" x="339.404297"/>
      <use xlink:href="#DejaVuSans-61" x="400.0625"/>
      <use xlink:href="#DejaVuSans-6c" x="461.341797"/>
      <use xlink:href="#DejaVuSans-75" x="489.125"/>
      <use xlink:href="#DejaVuSans-65" x="552.503906"/>
     </g>
    </g>
    <g id="line2d_25">
     <path d="M 1270.407813 78.210187 
L 1280.407813 78.210187 
L 1290.407813 78.210187 
" style="fill: none; stroke: #ff0000; stroke-width: 1.5; stroke-linecap: square"/>
    </g>
    <g id="text_23">
     <!-- Predict Value -->
     <g transform="translate(1298.407813 81.710187)scale(0.1 -0.1)">
      <defs>
       <path id="DejaVuSans-50" d="M 1259 4147 
L 1259 2394 
L 2053 2394 
Q 2494 2394 2734 2622 
Q 2975 2850 2975 3272 
Q 2975 3691 2734 3919 
Q 2494 4147 2053 4147 
L 1259 4147 
z
M 628 4666 
L 2053 4666 
Q 2838 4666 3239 4311 
Q 3641 3956 3641 3272 
Q 3641 2581 3239 2228 
Q 2838 1875 2053 1875 
L 1259 1875 
L 1259 0 
L 628 0 
L 628 4666 
z
" transform="scale(0.015625)"/>
      </defs>
      <use xlink:href="#DejaVuSans-50"/>
      <use xlink:href="#DejaVuSans-72" x="58.552734"/>
      <use xlink:href="#DejaVuSans-65" x="97.416016"/>
      <use xlink:href="#DejaVuSans-64" x="158.939453"/>
      <use xlink:href="#DejaVuSans-69" x="222.416016"/>
      <use xlink:href="#DejaVuSans-63" x="250.199219"/>
      <use xlink:href="#DejaVuSans-74" x="305.179688"/>
      <use xlink:href="#DejaVuSans-20" x="344.388672"/>
      <use xlink:href="#DejaVuSans-56" x="376.175781"/>
      <use xlink:href="#DejaVuSans-61" x="436.833984"/>
      <use xlink:href="#DejaVuSans-6c" x="498.113281"/>
      <use xlink:href="#DejaVuSans-75" x="525.896484"/>
      <use xlink:href="#DejaVuSans-65" x="589.275391"/>
     </g>
    </g>
   </g>
  </g>
 </g>
 <defs>
  <clipPath id="p3790b7744f">
   <rect x="33.2875" y="35.7555" width="1339.2" height="332.64"/>
  </clipPath>
 </defs>
</svg>
