<?xml version="1.0" encoding="utf-8" standalone="no"?>
<!DOCTYPE svg PUBLIC "-//W3C//DTD SVG 1.1//EN"
  "http://www.w3.org/Graphics/SVG/1.1/DTD/svg11.dtd">
<svg xmlns:xlink="http://www.w3.org/1999/xlink" width="1398.775pt" height="392.273625pt" viewBox="0 0 1398.775 392.273625" xmlns="http://www.w3.org/2000/svg" version="1.1">
 <metadata>
  <rdf:RDF xmlns:dc="http://purl.org/dc/elements/1.1/" xmlns:cc="http://creativecommons.org/ns#" xmlns:rdf="http://www.w3.org/1999/02/22-rdf-syntax-ns#">
   <cc:Work>
    <dc:type rdf:resource="http://purl.org/dc/dcmitype/StillImage"/>
    <dc:date>2022-07-01T20:36:59.320742</dc:date>
    <dc:format>image/svg+xml</dc:format>
    <dc:creator>
     <cc:Agent>
      <dc:title>Matplotlib v3.5.2, https://matplotlib.org/</dc:title>
     </cc:Agent>
    </dc:creator>
   </cc:Work>
  </rdf:RDF>
 </metadata>
 <defs>
  <style type="text/css">*{stroke-linejoin: round; stroke-linecap: butt}</style>
 </defs>
 <g id="figure_1">
  <g id="patch_1">
   <path d="M 0 392.273625 
L 1398.775 392.273625 
L 1398.775 0 
L 0 0 
z
" style="fill: #ffffff"/>
  </g>
  <g id="axes_1">
   <g id="patch_2">
    <path d="M 52.375 368.3955 
L 1391.575 368.3955 
L 1391.575 35.7555 
L 52.375 35.7555 
z
" style="fill: #ffffff"/>
   </g>
   <g id="matplotlib.axis_1">
    <g id="xtick_1">
     <g id="line2d_1">
      <defs>
       <path id="m392dfa0c42" d="M 0 0 
L 0 3.5 
" style="stroke: #000000; stroke-width: 0.8"/>
      </defs>
      <g>
       <use xlink:href="#m392dfa0c42" x="83.553714" y="368.3955" style="stroke: #000000; stroke-width: 0.8"/>
      </g>
     </g>
     <g id="text_1">
      <!-- 2020-01 -->
      <g transform="translate(62.662308 382.993937)scale(0.1 -0.1)">
       <defs>
        <path id="DejaVuSans-32" d="M 1228 531 
L 3431 531 
L 3431 0 
L 469 0 
L 469 531 
Q 828 903 1448 1529 
Q 2069 2156 2228 2338 
Q 2531 2678 2651 2914 
Q 2772 3150 2772 3378 
Q 2772 3750 2511 3984 
Q 2250 4219 1831 4219 
Q 1534 4219 1204 4116 
Q 875 4013 500 3803 
L 500 4441 
Q 881 4594 1212 4672 
Q 1544 4750 1819 4750 
Q 2544 4750 2975 4387 
Q 3406 4025 3406 3419 
Q 3406 3131 3298 2873 
Q 3191 2616 2906 2266 
Q 2828 2175 2409 1742 
Q 1991 1309 1228 531 
z
" transform="scale(0.015625)"/>
        <path id="DejaVuSans-30" d="M 2034 4250 
Q 1547 4250 1301 3770 
Q 1056 3291 1056 2328 
Q 1056 1369 1301 889 
Q 1547 409 2034 409 
Q 2525 409 2770 889 
Q 3016 1369 3016 2328 
Q 3016 3291 2770 3770 
Q 2525 4250 2034 4250 
z
M 2034 4750 
Q 2819 4750 3233 4129 
Q 3647 3509 3647 2328 
Q 3647 1150 3233 529 
Q 2819 -91 2034 -91 
Q 1250 -91 836 529 
Q 422 1150 422 2328 
Q 422 3509 836 4129 
Q 1250 4750 2034 4750 
z
" transform="scale(0.015625)"/>
        <path id="DejaVuSans-2d" d="M 313 2009 
L 1997 2009 
L 1997 1497 
L 313 1497 
L 313 2009 
z
" transform="scale(0.015625)"/>
        <path id="DejaVuSans-31" d="M 794 531 
L 1825 531 
L 1825 4091 
L 703 3866 
L 703 4441 
L 1819 4666 
L 2450 4666 
L 2450 531 
L 3481 531 
L 3481 0 
L 794 0 
L 794 531 
z
" transform="scale(0.015625)"/>
       </defs>
       <use xlink:href="#DejaVuSans-32"/>
       <use xlink:href="#DejaVuSans-30" x="63.623047"/>
       <use xlink:href="#DejaVuSans-32" x="127.246094"/>
       <use xlink:href="#DejaVuSans-30" x="190.869141"/>
       <use xlink:href="#DejaVuSans-2d" x="254.492188"/>
       <use xlink:href="#DejaVuSans-30" x="290.576172"/>
       <use xlink:href="#DejaVuSans-31" x="354.199219"/>
      </g>
     </g>
    </g>
    <g id="xtick_2">
     <g id="line2d_2">
      <g>
       <use xlink:href="#m392dfa0c42" x="206.378951" y="368.3955" style="stroke: #000000; stroke-width: 0.8"/>
      </g>
     </g>
     <g id="text_2">
      <!-- 2020-04 -->
      <g transform="translate(185.487545 382.993937)scale(0.1 -0.1)">
       <defs>
        <path id="DejaVuSans-34" d="M 2419 4116 
L 825 1625 
L 2419 1625 
L 2419 4116 
z
M 2253 4666 
L 3047 4666 
L 3047 1625 
L 3713 1625 
L 3713 1100 
L 3047 1100 
L 3047 0 
L 2419 0 
L 2419 1100 
L 313 1100 
L 313 1709 
L 2253 4666 
z
" transform="scale(0.015625)"/>
       </defs>
       <use xlink:href="#DejaVuSans-32"/>
       <use xlink:href="#DejaVuSans-30" x="63.623047"/>
       <use xlink:href="#DejaVuSans-32" x="127.246094"/>
       <use xlink:href="#DejaVuSans-30" x="190.869141"/>
       <use xlink:href="#DejaVuSans-2d" x="254.492188"/>
       <use xlink:href="#DejaVuSans-30" x="290.576172"/>
       <use xlink:href="#DejaVuSans-34" x="354.199219"/>
      </g>
     </g>
    </g>
    <g id="xtick_3">
     <g id="line2d_3">
      <g>
       <use xlink:href="#m392dfa0c42" x="329.204188" y="368.3955" style="stroke: #000000; stroke-width: 0.8"/>
      </g>
     </g>
     <g id="text_3">
      <!-- 2020-07 -->
      <g transform="translate(308.312781 382.993937)scale(0.1 -0.1)">
       <defs>
        <path id="DejaVuSans-37" d="M 525 4666 
L 3525 4666 
L 3525 4397 
L 1831 0 
L 1172 0 
L 2766 4134 
L 525 4134 
L 525 4666 
z
" transform="scale(0.015625)"/>
       </defs>
       <use xlink:href="#DejaVuSans-32"/>
       <use xlink:href="#DejaVuSans-30" x="63.623047"/>
       <use xlink:href="#DejaVuSans-32" x="127.246094"/>
       <use xlink:href="#DejaVuSans-30" x="190.869141"/>
       <use xlink:href="#DejaVuSans-2d" x="254.492188"/>
       <use xlink:href="#DejaVuSans-30" x="290.576172"/>
       <use xlink:href="#DejaVuSans-37" x="354.199219"/>
      </g>
     </g>
    </g>
    <g id="xtick_4">
     <g id="line2d_4">
      <g>
       <use xlink:href="#m392dfa0c42" x="453.379152" y="368.3955" style="stroke: #000000; stroke-width: 0.8"/>
      </g>
     </g>
     <g id="text_4">
      <!-- 2020-10 -->
      <g transform="translate(432.487746 382.993937)scale(0.1 -0.1)">
       <use xlink:href="#DejaVuSans-32"/>
       <use xlink:href="#DejaVuSans-30" x="63.623047"/>
       <use xlink:href="#DejaVuSans-32" x="127.246094"/>
       <use xlink:href="#DejaVuSans-30" x="190.869141"/>
       <use xlink:href="#DejaVuSans-2d" x="254.492188"/>
       <use xlink:href="#DejaVuSans-31" x="290.576172"/>
       <use xlink:href="#DejaVuSans-30" x="354.199219"/>
      </g>
     </g>
    </g>
    <g id="xtick_5">
     <g id="line2d_5">
      <g>
       <use xlink:href="#m392dfa0c42" x="577.554117" y="368.3955" style="stroke: #000000; stroke-width: 0.8"/>
      </g>
     </g>
     <g id="text_5">
      <!-- 2021-01 -->
      <g transform="translate(556.662711 382.993937)scale(0.1 -0.1)">
       <use xlink:href="#DejaVuSans-32"/>
       <use xlink:href="#DejaVuSans-30" x="63.623047"/>
       <use xlink:href="#DejaVuSans-32" x="127.246094"/>
       <use xlink:href="#DejaVuSans-31" x="190.869141"/>
       <use xlink:href="#DejaVuSans-2d" x="254.492188"/>
       <use xlink:href="#DejaVuSans-30" x="290.576172"/>
       <use xlink:href="#DejaVuSans-31" x="354.199219"/>
      </g>
     </g>
    </g>
    <g id="xtick_6">
     <g id="line2d_6">
      <g>
       <use xlink:href="#m392dfa0c42" x="699.029626" y="368.3955" style="stroke: #000000; stroke-width: 0.8"/>
      </g>
     </g>
     <g id="text_6">
      <!-- 2021-04 -->
      <g transform="translate(678.13822 382.993937)scale(0.1 -0.1)">
       <use xlink:href="#DejaVuSans-32"/>
       <use xlink:href="#DejaVuSans-30" x="63.623047"/>
       <use xlink:href="#DejaVuSans-32" x="127.246094"/>
       <use xlink:href="#DejaVuSans-31" x="190.869141"/>
       <use xlink:href="#DejaVuSans-2d" x="254.492188"/>
       <use xlink:href="#DejaVuSans-30" x="290.576172"/>
       <use xlink:href="#DejaVuSans-34" x="354.199219"/>
      </g>
     </g>
    </g>
    <g id="xtick_7">
     <g id="line2d_7">
      <g>
       <use xlink:href="#m392dfa0c42" x="821.854863" y="368.3955" style="stroke: #000000; stroke-width: 0.8"/>
      </g>
     </g>
     <g id="text_7">
      <!-- 2021-07 -->
      <g transform="translate(800.963457 382.993937)scale(0.1 -0.1)">
       <use xlink:href="#DejaVuSans-32"/>
       <use xlink:href="#DejaVuSans-30" x="63.623047"/>
       <use xlink:href="#DejaVuSans-32" x="127.246094"/>
       <use xlink:href="#DejaVuSans-31" x="190.869141"/>
       <use xlink:href="#DejaVuSans-2d" x="254.492188"/>
       <use xlink:href="#DejaVuSans-30" x="290.576172"/>
       <use xlink:href="#DejaVuSans-37" x="354.199219"/>
      </g>
     </g>
    </g>
    <g id="xtick_8">
     <g id="line2d_8">
      <g>
       <use xlink:href="#m392dfa0c42" x="946.029828" y="368.3955" style="stroke: #000000; stroke-width: 0.8"/>
      </g>
     </g>
     <g id="text_8">
      <!-- 2021-10 -->
      <g transform="translate(925.138421 382.993937)scale(0.1 -0.1)">
       <use xlink:href="#DejaVuSans-32"/>
       <use xlink:href="#DejaVuSans-30" x="63.623047"/>
       <use xlink:href="#DejaVuSans-32" x="127.246094"/>
       <use xlink:href="#DejaVuSans-31" x="190.869141"/>
       <use xlink:href="#DejaVuSans-2d" x="254.492188"/>
       <use xlink:href="#DejaVuSans-31" x="290.576172"/>
       <use xlink:href="#DejaVuSans-30" x="354.199219"/>
      </g>
     </g>
    </g>
    <g id="xtick_9">
     <g id="line2d_9">
      <g>
       <use xlink:href="#m392dfa0c42" x="1070.204792" y="368.3955" style="stroke: #000000; stroke-width: 0.8"/>
      </g>
     </g>
     <g id="text_9">
      <!-- 2022-01 -->
      <g transform="translate(1049.313386 382.993937)scale(0.1 -0.1)">
       <use xlink:href="#DejaVuSans-32"/>
       <use xlink:href="#DejaVuSans-30" x="63.623047"/>
       <use xlink:href="#DejaVuSans-32" x="127.246094"/>
       <use xlink:href="#DejaVuSans-32" x="190.869141"/>
       <use xlink:href="#DejaVuSans-2d" x="254.492188"/>
       <use xlink:href="#DejaVuSans-30" x="290.576172"/>
       <use xlink:href="#DejaVuSans-31" x="354.199219"/>
      </g>
     </g>
    </g>
    <g id="xtick_10">
     <g id="line2d_10">
      <g>
       <use xlink:href="#m392dfa0c42" x="1191.680301" y="368.3955" style="stroke: #000000; stroke-width: 0.8"/>
      </g>
     </g>
     <g id="text_10">
      <!-- 2022-04 -->
      <g transform="translate(1170.788895 382.993937)scale(0.1 -0.1)">
       <use xlink:href="#DejaVuSans-32"/>
       <use xlink:href="#DejaVuSans-30" x="63.623047"/>
       <use xlink:href="#DejaVuSans-32" x="127.246094"/>
       <use xlink:href="#DejaVuSans-32" x="190.869141"/>
       <use xlink:href="#DejaVuSans-2d" x="254.492188"/>
       <use xlink:href="#DejaVuSans-30" x="290.576172"/>
       <use xlink:href="#DejaVuSans-34" x="354.199219"/>
      </g>
     </g>
    </g>
    <g id="xtick_11">
     <g id="line2d_11">
      <g>
       <use xlink:href="#m392dfa0c42" x="1314.505538" y="368.3955" style="stroke: #000000; stroke-width: 0.8"/>
      </g>
     </g>
     <g id="text_11">
      <!-- 2022-07 -->
      <g transform="translate(1293.614132 382.993937)scale(0.1 -0.1)">
       <use xlink:href="#DejaVuSans-32"/>
       <use xlink:href="#DejaVuSans-30" x="63.623047"/>
       <use xlink:href="#DejaVuSans-32" x="127.246094"/>
       <use xlink:href="#DejaVuSans-32" x="190.869141"/>
       <use xlink:href="#DejaVuSans-2d" x="254.492188"/>
       <use xlink:href="#DejaVuSans-30" x="290.576172"/>
       <use xlink:href="#DejaVuSans-37" x="354.199219"/>
      </g>
     </g>
    </g>
   </g>
   <g id="matplotlib.axis_2">
    <g id="ytick_1">
     <g id="line2d_12">
      <defs>
       <path id="m90a8bcdcee" d="M 0 0 
L -3.5 0 
" style="stroke: #000000; stroke-width: 0.8"/>
      </defs>
      <g>
       <use xlink:href="#m90a8bcdcee" x="52.375" y="351.988896" style="stroke: #000000; stroke-width: 0.8"/>
      </g>
     </g>
     <g id="text_12">
      <!-- 0 -->
      <g transform="translate(39.0125 355.788115)scale(0.1 -0.1)">
       <use xlink:href="#DejaVuSans-30"/>
      </g>
     </g>
    </g>
    <g id="ytick_2">
     <g id="line2d_13">
      <g>
       <use xlink:href="#m90a8bcdcee" x="52.375" y="285.695316" style="stroke: #000000; stroke-width: 0.8"/>
      </g>
     </g>
     <g id="text_13">
      <!-- 100000 -->
      <g transform="translate(7.2 289.494535)scale(0.1 -0.1)">
       <use xlink:href="#DejaVuSans-31"/>
       <use xlink:href="#DejaVuSans-30" x="63.623047"/>
       <use xlink:href="#DejaVuSans-30" x="127.246094"/>
       <use xlink:href="#DejaVuSans-30" x="190.869141"/>
       <use xlink:href="#DejaVuSans-30" x="254.492188"/>
       <use xlink:href="#DejaVuSans-30" x="318.115234"/>
      </g>
     </g>
    </g>
    <g id="ytick_3">
     <g id="line2d_14">
      <g>
       <use xlink:href="#m90a8bcdcee" x="52.375" y="219.401736" style="stroke: #000000; stroke-width: 0.8"/>
      </g>
     </g>
     <g id="text_14">
      <!-- 200000 -->
      <g transform="translate(7.2 223.200955)scale(0.1 -0.1)">
       <use xlink:href="#DejaVuSans-32"/>
       <use xlink:href="#DejaVuSans-30" x="63.623047"/>
       <use xlink:href="#DejaVuSans-30" x="127.246094"/>
       <use xlink:href="#DejaVuSans-30" x="190.869141"/>
       <use xlink:href="#DejaVuSans-30" x="254.492188"/>
       <use xlink:href="#DejaVuSans-30" x="318.115234"/>
      </g>
     </g>
    </g>
    <g id="ytick_4">
     <g id="line2d_15">
      <g>
       <use xlink:href="#m90a8bcdcee" x="52.375" y="153.108156" style="stroke: #000000; stroke-width: 0.8"/>
      </g>
     </g>
     <g id="text_15">
      <!-- 300000 -->
      <g transform="translate(7.2 156.907374)scale(0.1 -0.1)">
       <defs>
        <path id="DejaVuSans-33" d="M 2597 2516 
Q 3050 2419 3304 2112 
Q 3559 1806 3559 1356 
Q 3559 666 3084 287 
Q 2609 -91 1734 -91 
Q 1441 -91 1130 -33 
Q 819 25 488 141 
L 488 750 
Q 750 597 1062 519 
Q 1375 441 1716 441 
Q 2309 441 2620 675 
Q 2931 909 2931 1356 
Q 2931 1769 2642 2001 
Q 2353 2234 1838 2234 
L 1294 2234 
L 1294 2753 
L 1863 2753 
Q 2328 2753 2575 2939 
Q 2822 3125 2822 3475 
Q 2822 3834 2567 4026 
Q 2313 4219 1838 4219 
Q 1578 4219 1281 4162 
Q 984 4106 628 3988 
L 628 4550 
Q 988 4650 1302 4700 
Q 1616 4750 1894 4750 
Q 2613 4750 3031 4423 
Q 3450 4097 3450 3541 
Q 3450 3153 3228 2886 
Q 3006 2619 2597 2516 
z
" transform="scale(0.015625)"/>
       </defs>
       <use xlink:href="#DejaVuSans-33"/>
       <use xlink:href="#DejaVuSans-30" x="63.623047"/>
       <use xlink:href="#DejaVuSans-30" x="127.246094"/>
       <use xlink:href="#DejaVuSans-30" x="190.869141"/>
       <use xlink:href="#DejaVuSans-30" x="254.492188"/>
       <use xlink:href="#DejaVuSans-30" x="318.115234"/>
      </g>
     </g>
    </g>
    <g id="ytick_5">
     <g id="line2d_16">
      <g>
       <use xlink:href="#m90a8bcdcee" x="52.375" y="86.814576" style="stroke: #000000; stroke-width: 0.8"/>
      </g>
     </g>
     <g id="text_16">
      <!-- 400000 -->
      <g transform="translate(7.2 90.613794)scale(0.1 -0.1)">
       <use xlink:href="#DejaVuSans-34"/>
       <use xlink:href="#DejaVuSans-30" x="63.623047"/>
       <use xlink:href="#DejaVuSans-30" x="127.246094"/>
       <use xlink:href="#DejaVuSans-30" x="190.869141"/>
       <use xlink:href="#DejaVuSans-30" x="254.492188"/>
       <use xlink:href="#DejaVuSans-30" x="318.115234"/>
      </g>
     </g>
    </g>
   </g>
   <g id="line2d_17">
    <path d="M 113.247727 351.98757 
L 226.624869 351.988233 
L 446.630513 351.988896 
L 491.171533 351.986244 
L 546.510376 351.986244 
L 757.067925 351.938513 
L 758.417653 351.792667 
L 759.767381 351.922602 
L 763.816564 351.851005 
L 766.51602 351.901388 
L 770.565204 351.903377 
L 771.914931 351.639529 
L 773.264659 351.886141 
L 774.614387 351.809903 
L 775.964115 351.962379 
L 777.313843 351.649473 
L 778.663571 351.856972 
L 780.013299 351.773442 
L 781.363027 351.860949 
L 785.41221 351.789352 
L 788.111666 351.849017 
L 805.658128 351.677316 
L 807.007856 351.803274 
L 813.756496 351.847028 
L 815.106224 351.466503 
L 816.455951 351.713778 
L 819.155407 351.742947 
L 821.854863 351.541414 
L 823.204591 351.727699 
L 824.554319 351.200665 
L 825.904047 351.358444 
L 828.603502 351.306735 
L 829.95323 351.296791 
L 832.652686 350.796937 
L 835.352142 350.657721 
L 836.70187 350.539055 
L 838.051597 350.1698 
L 839.401325 350.112788 
L 840.751053 349.304669 
L 842.100781 349.334501 
L 843.450509 348.866468 
L 844.800237 348.778298 
L 846.149965 349.115069 
L 847.499693 348.391143 
L 848.84942 348.31822 
L 851.548876 346.22931 
L 852.898604 346.714579 
L 854.248332 347.838918 
L 855.59806 348.558866 
L 856.947788 344.846426 
L 858.297516 347.667217 
L 859.647243 345.515328 
L 860.996971 346.87302 
L 862.346699 346.063576 
L 863.696427 347.052013 
L 865.046155 351.988896 
L 866.395883 340.749482 
L 867.745611 347.152779 
L 869.095339 347.142835 
L 870.445067 349.128328 
L 871.794794 343.851359 
L 873.144522 345.42318 
L 874.49425 345.801053 
L 875.843978 346.656903 
L 877.193706 346.28367 
L 878.543434 348.657644 
L 879.893162 345.903145 
L 881.24289 345.547812 
L 882.592617 345.637971 
L 883.942345 346.253175 
L 885.292073 345.621398 
L 886.641801 346.155061 
L 887.991529 345.021441 
L 889.341257 344.923989 
L 890.690985 343.079702 
L 892.040713 344.463249 
L 893.39044 345.096352 
L 894.740168 344.821897 
L 896.089896 343.970025 
L 897.439624 344.315414 
L 898.789352 340.435251 
L 900.13908 343.965384 
L 901.488808 343.505969 
L 902.838536 342.559297 
L 904.188263 343.631264 
L 905.537991 344.408888 
L 908.237447 342.096568 
L 909.587175 345.677084 
L 910.936903 343.279908 
L 912.286631 343.714794 
L 913.636359 342.569904 
L 914.986086 343.58287 
L 916.335814 343.755233 
L 917.685542 343.157928 
L 919.03527 344.078746 
L 920.384998 344.01643 
L 921.734726 344.582577 
L 923.084454 345.022767 
L 924.434182 344.971721 
L 925.783909 345.035362 
L 927.133637 344.351213 
L 928.483365 345.775199 
L 929.833093 345.333021 
L 931.182821 346.23395 
L 932.532549 344.237851 
L 933.882277 344.347235 
L 935.232005 345.709568 
L 936.581733 346.329413 
L 937.93146 345.554441 
L 939.281188 345.352246 
L 940.630916 345.782491 
L 941.980644 348.946684 
L 943.330372 346.182904 
L 944.6801 344.459934 
L 946.029828 347.376852 
L 947.379556 348.349378 
L 950.079011 348.420313 
L 951.428739 349.096507 
L 952.778467 349.096507 
L 954.128195 349.237712 
L 955.477923 348.802827 
L 956.827651 349.011651 
L 958.177379 349.650058 
L 959.527106 349.589731 
L 960.876834 350.033898 
L 962.226562 349.694475 
L 963.57629 349.237049 
L 964.926018 349.471729 
L 966.275746 349.85358 
L 970.324929 349.977549 
L 971.674657 349.571832 
L 973.024385 349.578461 
L 974.374113 349.347097 
L 975.723841 349.752814 
L 977.073569 349.307321 
L 978.423297 349.576473 
L 979.773025 349.605642 
L 981.122752 349.064686 
L 982.47248 348.745814 
L 983.822208 348.741173 
L 986.521664 348.330153 
L 989.22112 348.251927 
L 990.570848 347.278074 
L 991.920575 347.626778 
L 993.270303 347.014226 
L 994.620031 347.022844 
L 995.969759 346.920089 
L 997.319487 346.693365 
L 998.669215 346.597239 
L 1000.018943 346.731815 
L 1001.368671 346.578014 
L 1002.718399 346.034407 
L 1004.068126 346.375819 
L 1005.417854 346.568733 
L 1006.767582 346.277041 
L 1008.11731 345.187838 
L 1009.467038 345.459641 
L 1010.816766 345.211703 
L 1012.166494 345.608139 
L 1013.516222 345.670455 
L 1016.215677 345.146736 
L 1017.565405 326.046892 
L 1018.915133 344.158961 
L 1021.614589 343.298471 
L 1022.964317 341.337506 
L 1024.314045 343.413158 
L 1025.663772 342.86027 
L 1027.0135 342.726357 
L 1028.363228 342.371023 
L 1029.712956 342.908001 
L 1031.062684 342.38163 
L 1032.412412 342.709121 
L 1035.111868 342.316 
L 1036.461595 342.813864 
L 1039.161051 341.838686 
L 1040.510779 342.151592 
L 1041.860507 341.288449 
L 1043.210235 342.284842 
L 1044.559963 341.794932 
L 1045.909691 341.899013 
L 1047.259418 341.695492 
L 1048.609146 329.407977 
L 1049.958874 341.888406 
L 1051.308602 341.451531 
L 1052.65833 341.309 
L 1054.008058 342.060106 
L 1055.357786 341.166469 
L 1056.707514 341.013994 
L 1059.406969 341.277842 
L 1060.756697 341.656379 
L 1064.805881 342.416103 
L 1066.155609 342.781381 
L 1067.505337 338.817687 
L 1068.855065 341.040511 
L 1070.204792 342.154243 
L 1071.55452 340.75346 
L 1072.904248 341.424351 
L 1074.253976 337.584627 
L 1075.603704 340.707717 
L 1076.953432 334.857309 
L 1078.30316 341.197627 
L 1079.652888 341.01532 
L 1081.002615 336.621381 
L 1082.352343 342.165513 
L 1083.702071 341.35872 
L 1085.051799 333.233779 
L 1086.401527 340.901295 
L 1087.751255 341.355406 
L 1089.100983 341.131333 
L 1090.450711 341.591411 
L 1091.800438 351.988896 
L 1093.150166 326.411507 
L 1094.499894 341.409104 
L 1095.849622 340.907924 
L 1097.19935 341.425014 
L 1098.549078 341.576163 
L 1101.248534 342.467812 
L 1102.598261 341.552298 
L 1103.947989 341.412418 
L 1105.297717 341.562905 
L 1106.647445 342.091927 
L 1107.997173 341.945419 
L 1109.346901 332.255949 
L 1110.696629 343.586848 
L 1112.046357 344.681355 
L 1113.396084 346.192185 
L 1114.745812 346.286985 
L 1116.09554 344.302818 
L 1117.445268 343.920967 
L 1118.794996 342.633546 
L 1120.144724 340.84163 
L 1121.494452 337.464636 
L 1124.193907 334.731351 
L 1125.543635 334.429715 
L 1126.893363 333.883456 
L 1128.243091 334.501312 
L 1129.592819 332.489965 
L 1130.942547 330.898256 
L 1132.292275 328.960495 
L 1133.642003 327.99062 
L 1134.99173 323.854564 
L 1136.341458 315.640126 
L 1137.691186 320.698326 
L 1139.040914 320.910466 
L 1140.390642 314.765714 
L 1141.74037 297.723623 
L 1143.090098 306.16147 
L 1144.439826 299.75287 
L 1145.789554 286.440456 
L 1147.139281 284.483469 
L 1148.489009 270.792519 
L 1149.838737 276.318752 
L 1151.188465 251.320769 
L 1152.538193 235.212755 
L 1153.887921 236.88269 
L 1155.237649 237.129965 
L 1156.587377 217.956536 
L 1157.937104 254.300002 
L 1159.286832 222.839058 
L 1160.63656 176.20285 
L 1161.986288 207.164604 
L 1163.336016 227.065274 
L 1164.685744 50.8755 
L 1166.035472 213.103183 
L 1167.3852 176.450125 
L 1168.734927 235.656922 
L 1171.434383 117.332825 
L 1172.784111 224.248459 
L 1174.133839 70.420836 
L 1175.483567 241.804325 
L 1176.833295 264.671633 
L 1178.183023 186.816452 
L 1179.53275 258.623007 
L 1180.882478 272.4366 
L 1182.232206 244.924101 
L 1183.581934 247.042844 
L 1184.931662 291.054489 
L 1186.28139 177.387516 
L 1187.631118 277.978743 
L 1188.980846 295.132207 
L 1190.330573 290.76346 
L 1191.680301 294.940619 
L 1193.030029 308.487712 
L 1194.379757 284.338949 
L 1195.729485 319.692653 
L 1197.079213 315.530742 
L 1198.428941 313.257535 
L 1199.778669 292.173525 
L 1201.128396 308.833764 
L 1202.478124 329.356268 
L 1203.827852 333.223172 
L 1205.17758 317.566617 
L 1206.527308 336.871308 
L 1207.877036 335.665428 
L 1209.226764 336.733417 
L 1210.576492 302.9754 
L 1211.92622 336.506693 
L 1213.275947 342.270257 
L 1214.625675 323.302338 
L 1215.975403 343.039263 
L 1217.325131 343.191075 
L 1218.674859 331.720297 
L 1220.024587 344.590532 
L 1221.374315 345.117566 
L 1222.724043 346.146443 
L 1224.07377 346.506417 
L 1225.423498 319.882252 
L 1226.773226 344.489103 
L 1228.122954 347.271445 
L 1230.82241 348.601957 
L 1232.172138 349.524764 
L 1233.521866 349.918547 
L 1234.871593 350.193003 
L 1236.221321 349.94175 
L 1237.571049 349.134957 
L 1240.270505 349.771376 
L 1241.620233 350.484695 
L 1242.969961 350.547011 
L 1244.319689 350.096214 
L 1245.669416 350.160519 
L 1247.019144 347.680476 
L 1248.368872 350.218857 
L 1249.7186 350.732633 
L 1251.068328 350.932176 
L 1252.418056 350.961345 
L 1253.767784 350.805556 
L 1255.117512 350.775061 
L 1256.467239 350.180407 
L 1257.816967 350.936817 
L 1261.866151 351.207295 
L 1264.565607 351.09791 
L 1268.61479 351.250385 
L 1269.964518 351.398883 
L 1271.314246 351.247734 
L 1274.013702 351.294802 
L 1275.36343 350.525134 
L 1276.713158 351.300106 
L 1279.412613 351.534785 
L 1283.461797 351.383636 
L 1284.811525 351.457221 
L 1286.161253 351.351815 
L 1287.510981 350.952727 
L 1288.860709 351.612348 
L 1290.210436 351.579865 
L 1291.560164 351.421423 
L 1294.25962 351.475784 
L 1295.609348 351.005762 
L 1296.959076 351.525504 
L 1299.658532 351.643506 
L 1302.357987 351.361759 
L 1303.707715 351.498323 
L 1305.057443 350.902344 
L 1306.407171 351.553347 
L 1307.756899 351.619641 
L 1313.15581 351.432693 
L 1313.15581 351.432693 
" clip-path="url(#p917620a5c2)" style="fill: none; stroke: #0000ff; stroke-width: 1.5; stroke-linecap: square"/>
   </g>
   <g id="line2d_18">
    <path d="M 1074.253976 340.734196 
L 1075.603704 339.078222 
L 1076.953432 338.17393 
L 1078.30316 338.793077 
L 1079.652888 338.264671 
L 1081.002615 340.497684 
L 1082.352343 338.620342 
L 1083.702071 339.419345 
L 1085.051799 339.513581 
L 1086.401527 338.817921 
L 1087.751255 337.828896 
L 1089.100983 340.771388 
L 1090.450711 341.673812 
L 1091.800438 343.216386 
L 1093.150166 342.098532 
L 1094.499894 340.832031 
L 1095.849622 334.834793 
L 1097.19935 342.078356 
L 1098.549078 341.305325 
L 1099.898806 343.950493 
L 1101.248534 338.232396 
L 1102.598261 341.686467 
L 1103.947989 342.003592 
L 1105.297717 343.125186 
L 1106.647445 341.642725 
L 1107.997173 342.009513 
L 1109.346901 340.881918 
L 1110.696629 338.39979 
L 1112.046357 338.127495 
L 1113.396084 344.271839 
L 1114.745812 345.610753 
L 1116.09554 346.05336 
L 1117.445268 343.074178 
L 1118.794996 344.574367 
L 1120.144724 344.388534 
L 1121.494452 342.998166 
L 1122.84418 339.329658 
L 1124.193907 336.308469 
L 1125.543635 334.895347 
L 1126.893363 333.926925 
L 1128.243091 333.543759 
L 1129.592819 332.693122 
L 1130.942547 332.094856 
L 1132.292275 330.467791 
L 1133.642003 329.281595 
L 1134.99173 327.560456 
L 1136.341458 324.712311 
L 1137.691186 319.897286 
L 1139.040914 317.62131 
L 1140.390642 319.009809 
L 1141.74037 314.61467 
L 1143.090098 305.762211 
L 1144.439826 298.49504 
L 1145.789554 300.106766 
L 1147.139281 292.709589 
L 1149.838737 273.180704 
L 1151.188465 268.168955 
L 1152.538193 259.488175 
L 1153.887921 239.892836 
L 1155.237649 232.434706 
L 1156.587377 229.520503 
L 1157.937104 230.567989 
L 1159.286832 226.525834 
L 1160.63656 223.743864 
L 1161.986288 197.48427 
L 1163.336016 193.672058 
L 1164.685744 189.199117 
L 1166.035472 162.341868 
L 1167.3852 127.994895 
L 1168.734927 189.679842 
L 1170.084655 193.364461 
L 1171.434383 201.463164 
L 1172.784111 127.483782 
L 1174.133839 156.101294 
L 1175.483567 172.090577 
L 1176.833295 186.087468 
L 1178.183023 236.814967 
L 1179.53275 215.980694 
L 1180.882478 232.282808 
L 1182.232206 242.145588 
L 1183.581934 278.517013 
L 1184.931662 273.626306 
L 1186.28139 259.651393 
L 1187.631118 249.363636 
L 1188.980846 240.519893 
L 1190.330573 290.498901 
L 1191.680301 290.10482 
L 1193.030029 302.062406 
L 1194.379757 282.012471 
L 1195.729485 306.09983 
L 1197.079213 313.097467 
L 1198.428941 330.311245 
L 1199.778669 313.375747 
L 1201.128396 307.954356 
L 1202.478124 301.320764 
L 1203.827852 324.71054 
L 1205.17758 332.487144 
L 1206.527308 330.230037 
L 1207.877036 321.846745 
L 1209.226764 335.809852 
L 1210.576492 337.086781 
L 1211.92622 330.406334 
L 1213.275947 320.634446 
L 1214.625675 338.595297 
L 1215.975403 336.900399 
L 1217.325131 335.646018 
L 1218.674859 334.095282 
L 1220.024587 340.105127 
L 1221.374315 342.586489 
L 1222.724043 345.478238 
L 1224.07377 347.071525 
L 1225.423498 344.46215 
L 1226.773226 335.655331 
L 1228.122954 333.723425 
L 1229.472682 347.39098 
L 1230.82241 349.428284 
L 1232.172138 348.757643 
L 1233.521866 343.384079 
L 1234.871593 350.172665 
L 1236.221321 352.522099 
L 1237.571049 353.2755 
L 1238.920777 350.140131 
L 1240.270505 349.7476 
L 1242.969961 350.385971 
L 1244.319689 350.493914 
L 1248.368872 349.267571 
L 1249.7186 349.323145 
L 1251.068328 350.69768 
L 1253.767784 350.860281 
L 1255.117512 350.28789 
L 1256.467239 350.803788 
L 1260.516423 351.094007 
L 1264.565607 351.000804 
L 1267.265062 351.225771 
L 1271.314246 351.313052 
L 1274.013702 351.278831 
L 1275.36343 351.213248 
L 1276.713158 351.02974 
L 1278.062886 350.99355 
L 1279.412613 351.376116 
L 1282.112069 351.471179 
L 1283.461797 351.237351 
L 1286.161253 351.497119 
L 1287.510981 351.479588 
L 1288.860709 351.253681 
L 1290.210436 351.266561 
L 1291.560164 351.552408 
L 1294.25962 351.420368 
L 1295.609348 351.280494 
L 1301.008259 351.583576 
L 1302.357987 351.542635 
L 1303.707715 351.349963 
L 1306.407171 351.352472 
L 1307.756899 351.328101 
L 1309.106627 351.560263 
L 1313.15581 351.350107 
L 1313.15581 351.350107 
" clip-path="url(#p917620a5c2)" style="fill: none; stroke: #ffa500; stroke-width: 1.5; stroke-linecap: square"/>
   </g>
   <g id="line2d_19">
    <path d="M 1313.15581 351.350107 
L 1314.505538 351.486237 
L 1315.855266 351.484547 
L 1317.204994 351.491195 
L 1318.554722 351.463693 
L 1319.90445 351.460544 
L 1321.254178 351.456935 
L 1322.603905 351.434702 
L 1323.953633 351.465668 
L 1325.303361 351.466582 
L 1326.653089 351.466641 
L 1328.002817 351.46112 
L 1329.352545 351.46058 
L 1330.702273 351.459346 
" clip-path="url(#p917620a5c2)" style="fill: none; stroke: #ff0000; stroke-width: 1.5; stroke-linecap: square"/>
   </g>
   <g id="patch_3">
    <path d="M 52.375 368.3955 
L 52.375 35.7555 
" style="fill: none; stroke: #000000; stroke-width: 0.8; stroke-linejoin: miter; stroke-linecap: square"/>
   </g>
   <g id="patch_4">
    <path d="M 1391.575 368.3955 
L 1391.575 35.7555 
" style="fill: none; stroke: #000000; stroke-width: 0.8; stroke-linejoin: miter; stroke-linecap: square"/>
   </g>
   <g id="patch_5">
    <path d="M 52.375 368.3955 
L 1391.575 368.3955 
" style="fill: none; stroke: #000000; stroke-width: 0.8; stroke-linejoin: miter; stroke-linecap: square"/>
   </g>
   <g id="patch_6">
    <path d="M 52.375 35.7555 
L 1391.575 35.7555 
" style="fill: none; stroke: #000000; stroke-width: 0.8; stroke-linejoin: miter; stroke-linecap: square"/>
   </g>
   <g id="text_17">
    <!-- Daily Confirmed Cases Forecasting - Vietnam -->
    <g transform="translate(586.470625 16.318125)scale(0.12 -0.12)">
     <defs>
      <path id="DejaVuSans-44" d="M 1259 4147 
L 1259 519 
L 2022 519 
Q 2988 519 3436 956 
Q 3884 1394 3884 2338 
Q 3884 3275 3436 3711 
Q 2988 4147 2022 4147 
L 1259 4147 
z
M 628 4666 
L 1925 4666 
Q 3281 4666 3915 4102 
Q 4550 3538 4550 2338 
Q 4550 1131 3912 565 
Q 3275 0 1925 0 
L 628 0 
L 628 4666 
z
" transform="scale(0.015625)"/>
      <path id="DejaVuSans-61" d="M 2194 1759 
Q 1497 1759 1228 1600 
Q 959 1441 959 1056 
Q 959 750 1161 570 
Q 1363 391 1709 391 
Q 2188 391 2477 730 
Q 2766 1069 2766 1631 
L 2766 1759 
L 2194 1759 
z
M 3341 1997 
L 3341 0 
L 2766 0 
L 2766 531 
Q 2569 213 2275 61 
Q 1981 -91 1556 -91 
Q 1019 -91 701 211 
Q 384 513 384 1019 
Q 384 1609 779 1909 
Q 1175 2209 1959 2209 
L 2766 2209 
L 2766 2266 
Q 2766 2663 2505 2880 
Q 2244 3097 1772 3097 
Q 1472 3097 1187 3025 
Q 903 2953 641 2809 
L 641 3341 
Q 956 3463 1253 3523 
Q 1550 3584 1831 3584 
Q 2591 3584 2966 3190 
Q 3341 2797 3341 1997 
z
" transform="scale(0.015625)"/>
      <path id="DejaVuSans-69" d="M 603 3500 
L 1178 3500 
L 1178 0 
L 603 0 
L 603 3500 
z
M 603 4863 
L 1178 4863 
L 1178 4134 
L 603 4134 
L 603 4863 
z
" transform="scale(0.015625)"/>
      <path id="DejaVuSans-6c" d="M 603 4863 
L 1178 4863 
L 1178 0 
L 603 0 
L 603 4863 
z
" transform="scale(0.015625)"/>
      <path id="DejaVuSans-79" d="M 2059 -325 
Q 1816 -950 1584 -1140 
Q 1353 -1331 966 -1331 
L 506 -1331 
L 506 -850 
L 844 -850 
Q 1081 -850 1212 -737 
Q 1344 -625 1503 -206 
L 1606 56 
L 191 3500 
L 800 3500 
L 1894 763 
L 2988 3500 
L 3597 3500 
L 2059 -325 
z
" transform="scale(0.015625)"/>
      <path id="DejaVuSans-20" transform="scale(0.015625)"/>
      <path id="DejaVuSans-43" d="M 4122 4306 
L 4122 3641 
Q 3803 3938 3442 4084 
Q 3081 4231 2675 4231 
Q 1875 4231 1450 3742 
Q 1025 3253 1025 2328 
Q 1025 1406 1450 917 
Q 1875 428 2675 428 
Q 3081 428 3442 575 
Q 3803 722 4122 1019 
L 4122 359 
Q 3791 134 3420 21 
Q 3050 -91 2638 -91 
Q 1578 -91 968 557 
Q 359 1206 359 2328 
Q 359 3453 968 4101 
Q 1578 4750 2638 4750 
Q 3056 4750 3426 4639 
Q 3797 4528 4122 4306 
z
" transform="scale(0.015625)"/>
      <path id="DejaVuSans-6f" d="M 1959 3097 
Q 1497 3097 1228 2736 
Q 959 2375 959 1747 
Q 959 1119 1226 758 
Q 1494 397 1959 397 
Q 2419 397 2687 759 
Q 2956 1122 2956 1747 
Q 2956 2369 2687 2733 
Q 2419 3097 1959 3097 
z
M 1959 3584 
Q 2709 3584 3137 3096 
Q 3566 2609 3566 1747 
Q 3566 888 3137 398 
Q 2709 -91 1959 -91 
Q 1206 -91 779 398 
Q 353 888 353 1747 
Q 353 2609 779 3096 
Q 1206 3584 1959 3584 
z
" transform="scale(0.015625)"/>
      <path id="DejaVuSans-6e" d="M 3513 2113 
L 3513 0 
L 2938 0 
L 2938 2094 
Q 2938 2591 2744 2837 
Q 2550 3084 2163 3084 
Q 1697 3084 1428 2787 
Q 1159 2491 1159 1978 
L 1159 0 
L 581 0 
L 581 3500 
L 1159 3500 
L 1159 2956 
Q 1366 3272 1645 3428 
Q 1925 3584 2291 3584 
Q 2894 3584 3203 3211 
Q 3513 2838 3513 2113 
z
" transform="scale(0.015625)"/>
      <path id="DejaVuSans-66" d="M 2375 4863 
L 2375 4384 
L 1825 4384 
Q 1516 4384 1395 4259 
Q 1275 4134 1275 3809 
L 1275 3500 
L 2222 3500 
L 2222 3053 
L 1275 3053 
L 1275 0 
L 697 0 
L 697 3053 
L 147 3053 
L 147 3500 
L 697 3500 
L 697 3744 
Q 697 4328 969 4595 
Q 1241 4863 1831 4863 
L 2375 4863 
z
" transform="scale(0.015625)"/>
      <path id="DejaVuSans-72" d="M 2631 2963 
Q 2534 3019 2420 3045 
Q 2306 3072 2169 3072 
Q 1681 3072 1420 2755 
Q 1159 2438 1159 1844 
L 1159 0 
L 581 0 
L 581 3500 
L 1159 3500 
L 1159 2956 
Q 1341 3275 1631 3429 
Q 1922 3584 2338 3584 
Q 2397 3584 2469 3576 
Q 2541 3569 2628 3553 
L 2631 2963 
z
" transform="scale(0.015625)"/>
      <path id="DejaVuSans-6d" d="M 3328 2828 
Q 3544 3216 3844 3400 
Q 4144 3584 4550 3584 
Q 5097 3584 5394 3201 
Q 5691 2819 5691 2113 
L 5691 0 
L 5113 0 
L 5113 2094 
Q 5113 2597 4934 2840 
Q 4756 3084 4391 3084 
Q 3944 3084 3684 2787 
Q 3425 2491 3425 1978 
L 3425 0 
L 2847 0 
L 2847 2094 
Q 2847 2600 2669 2842 
Q 2491 3084 2119 3084 
Q 1678 3084 1418 2786 
Q 1159 2488 1159 1978 
L 1159 0 
L 581 0 
L 581 3500 
L 1159 3500 
L 1159 2956 
Q 1356 3278 1631 3431 
Q 1906 3584 2284 3584 
Q 2666 3584 2933 3390 
Q 3200 3197 3328 2828 
z
" transform="scale(0.015625)"/>
      <path id="DejaVuSans-65" d="M 3597 1894 
L 3597 1613 
L 953 1613 
Q 991 1019 1311 708 
Q 1631 397 2203 397 
Q 2534 397 2845 478 
Q 3156 559 3463 722 
L 3463 178 
Q 3153 47 2828 -22 
Q 2503 -91 2169 -91 
Q 1331 -91 842 396 
Q 353 884 353 1716 
Q 353 2575 817 3079 
Q 1281 3584 2069 3584 
Q 2775 3584 3186 3129 
Q 3597 2675 3597 1894 
z
M 3022 2063 
Q 3016 2534 2758 2815 
Q 2500 3097 2075 3097 
Q 1594 3097 1305 2825 
Q 1016 2553 972 2059 
L 3022 2063 
z
" transform="scale(0.015625)"/>
      <path id="DejaVuSans-64" d="M 2906 2969 
L 2906 4863 
L 3481 4863 
L 3481 0 
L 2906 0 
L 2906 525 
Q 2725 213 2448 61 
Q 2172 -91 1784 -91 
Q 1150 -91 751 415 
Q 353 922 353 1747 
Q 353 2572 751 3078 
Q 1150 3584 1784 3584 
Q 2172 3584 2448 3432 
Q 2725 3281 2906 2969 
z
M 947 1747 
Q 947 1113 1208 752 
Q 1469 391 1925 391 
Q 2381 391 2643 752 
Q 2906 1113 2906 1747 
Q 2906 2381 2643 2742 
Q 2381 3103 1925 3103 
Q 1469 3103 1208 2742 
Q 947 2381 947 1747 
z
" transform="scale(0.015625)"/>
      <path id="DejaVuSans-73" d="M 2834 3397 
L 2834 2853 
Q 2591 2978 2328 3040 
Q 2066 3103 1784 3103 
Q 1356 3103 1142 2972 
Q 928 2841 928 2578 
Q 928 2378 1081 2264 
Q 1234 2150 1697 2047 
L 1894 2003 
Q 2506 1872 2764 1633 
Q 3022 1394 3022 966 
Q 3022 478 2636 193 
Q 2250 -91 1575 -91 
Q 1294 -91 989 -36 
Q 684 19 347 128 
L 347 722 
Q 666 556 975 473 
Q 1284 391 1588 391 
Q 1994 391 2212 530 
Q 2431 669 2431 922 
Q 2431 1156 2273 1281 
Q 2116 1406 1581 1522 
L 1381 1569 
Q 847 1681 609 1914 
Q 372 2147 372 2553 
Q 372 3047 722 3315 
Q 1072 3584 1716 3584 
Q 2034 3584 2315 3537 
Q 2597 3491 2834 3397 
z
" transform="scale(0.015625)"/>
      <path id="DejaVuSans-46" d="M 628 4666 
L 3309 4666 
L 3309 4134 
L 1259 4134 
L 1259 2759 
L 3109 2759 
L 3109 2228 
L 1259 2228 
L 1259 0 
L 628 0 
L 628 4666 
z
" transform="scale(0.015625)"/>
      <path id="DejaVuSans-63" d="M 3122 3366 
L 3122 2828 
Q 2878 2963 2633 3030 
Q 2388 3097 2138 3097 
Q 1578 3097 1268 2742 
Q 959 2388 959 1747 
Q 959 1106 1268 751 
Q 1578 397 2138 397 
Q 2388 397 2633 464 
Q 2878 531 3122 666 
L 3122 134 
Q 2881 22 2623 -34 
Q 2366 -91 2075 -91 
Q 1284 -91 818 406 
Q 353 903 353 1747 
Q 353 2603 823 3093 
Q 1294 3584 2113 3584 
Q 2378 3584 2631 3529 
Q 2884 3475 3122 3366 
z
" transform="scale(0.015625)"/>
      <path id="DejaVuSans-74" d="M 1172 4494 
L 1172 3500 
L 2356 3500 
L 2356 3053 
L 1172 3053 
L 1172 1153 
Q 1172 725 1289 603 
Q 1406 481 1766 481 
L 2356 481 
L 2356 0 
L 1766 0 
Q 1100 0 847 248 
Q 594 497 594 1153 
L 594 3053 
L 172 3053 
L 172 3500 
L 594 3500 
L 594 4494 
L 1172 4494 
z
" transform="scale(0.015625)"/>
      <path id="DejaVuSans-67" d="M 2906 1791 
Q 2906 2416 2648 2759 
Q 2391 3103 1925 3103 
Q 1463 3103 1205 2759 
Q 947 2416 947 1791 
Q 947 1169 1205 825 
Q 1463 481 1925 481 
Q 2391 481 2648 825 
Q 2906 1169 2906 1791 
z
M 3481 434 
Q 3481 -459 3084 -895 
Q 2688 -1331 1869 -1331 
Q 1566 -1331 1297 -1286 
Q 1028 -1241 775 -1147 
L 775 -588 
Q 1028 -725 1275 -790 
Q 1522 -856 1778 -856 
Q 2344 -856 2625 -561 
Q 2906 -266 2906 331 
L 2906 616 
Q 2728 306 2450 153 
Q 2172 0 1784 0 
Q 1141 0 747 490 
Q 353 981 353 1791 
Q 353 2603 747 3093 
Q 1141 3584 1784 3584 
Q 2172 3584 2450 3431 
Q 2728 3278 2906 2969 
L 2906 3500 
L 3481 3500 
L 3481 434 
z
" transform="scale(0.015625)"/>
      <path id="DejaVuSans-56" d="M 1831 0 
L 50 4666 
L 709 4666 
L 2188 738 
L 3669 4666 
L 4325 4666 
L 2547 0 
L 1831 0 
z
" transform="scale(0.015625)"/>
     </defs>
     <use xlink:href="#DejaVuSans-44"/>
     <use xlink:href="#DejaVuSans-61" x="77.001953"/>
     <use xlink:href="#DejaVuSans-69" x="138.28125"/>
     <use xlink:href="#DejaVuSans-6c" x="166.064453"/>
     <use xlink:href="#DejaVuSans-79" x="193.847656"/>
     <use xlink:href="#DejaVuSans-20" x="253.027344"/>
     <use xlink:href="#DejaVuSans-43" x="284.814453"/>
     <use xlink:href="#DejaVuSans-6f" x="354.638672"/>
     <use xlink:href="#DejaVuSans-6e" x="415.820312"/>
     <use xlink:href="#DejaVuSans-66" x="479.199219"/>
     <use xlink:href="#DejaVuSans-69" x="514.404297"/>
     <use xlink:href="#DejaVuSans-72" x="542.1875"/>
     <use xlink:href="#DejaVuSans-6d" x="581.550781"/>
     <use xlink:href="#DejaVuSans-65" x="678.962891"/>
     <use xlink:href="#DejaVuSans-64" x="740.486328"/>
     <use xlink:href="#DejaVuSans-20" x="803.962891"/>
     <use xlink:href="#DejaVuSans-43" x="835.75"/>
     <use xlink:href="#DejaVuSans-61" x="905.574219"/>
     <use xlink:href="#DejaVuSans-73" x="966.853516"/>
     <use xlink:href="#DejaVuSans-65" x="1018.953125"/>
     <use xlink:href="#DejaVuSans-73" x="1080.476562"/>
     <use xlink:href="#DejaVuSans-20" x="1132.576172"/>
     <use xlink:href="#DejaVuSans-46" x="1164.363281"/>
     <use xlink:href="#DejaVuSans-6f" x="1218.257812"/>
     <use xlink:href="#DejaVuSans-72" x="1279.439453"/>
     <use xlink:href="#DejaVuSans-65" x="1318.302734"/>
     <use xlink:href="#DejaVuSans-63" x="1379.826172"/>
     <use xlink:href="#DejaVuSans-61" x="1434.806641"/>
     <use xlink:href="#DejaVuSans-73" x="1496.085938"/>
     <use xlink:href="#DejaVuSans-74" x="1548.185547"/>
     <use xlink:href="#DejaVuSans-69" x="1587.394531"/>
     <use xlink:href="#DejaVuSans-6e" x="1615.177734"/>
     <use xlink:href="#DejaVuSans-67" x="1678.556641"/>
     <use xlink:href="#DejaVuSans-20" x="1742.033203"/>
     <use xlink:href="#DejaVuSans-2d" x="1773.820312"/>
     <use xlink:href="#DejaVuSans-20" x="1809.904297"/>
     <use xlink:href="#DejaVuSans-56" x="1841.691406"/>
     <use xlink:href="#DejaVuSans-69" x="1907.849609"/>
     <use xlink:href="#DejaVuSans-65" x="1935.632812"/>
     <use xlink:href="#DejaVuSans-74" x="1997.15625"/>
     <use xlink:href="#DejaVuSans-6e" x="2036.365234"/>
     <use xlink:href="#DejaVuSans-61" x="2099.744141"/>
     <use xlink:href="#DejaVuSans-6d" x="2161.023438"/>
    </g>
    <!-- ARIMA (2, 1, 0)x(1, 0, 0, 7) (R2 = 0.818307) -->
    <g transform="translate(589.990937 29.7555)scale(0.12 -0.12)">
     <defs>
      <path id="DejaVuSans-41" d="M 2188 4044 
L 1331 1722 
L 3047 1722 
L 2188 4044 
z
M 1831 4666 
L 2547 4666 
L 4325 0 
L 3669 0 
L 3244 1197 
L 1141 1197 
L 716 0 
L 50 0 
L 1831 4666 
z
" transform="scale(0.015625)"/>
      <path id="DejaVuSans-52" d="M 2841 2188 
Q 3044 2119 3236 1894 
Q 3428 1669 3622 1275 
L 4263 0 
L 3584 0 
L 2988 1197 
Q 2756 1666 2539 1819 
Q 2322 1972 1947 1972 
L 1259 1972 
L 1259 0 
L 628 0 
L 628 4666 
L 2053 4666 
Q 2853 4666 3247 4331 
Q 3641 3997 3641 3322 
Q 3641 2881 3436 2590 
Q 3231 2300 2841 2188 
z
M 1259 4147 
L 1259 2491 
L 2053 2491 
Q 2509 2491 2742 2702 
Q 2975 2913 2975 3322 
Q 2975 3731 2742 3939 
Q 2509 4147 2053 4147 
L 1259 4147 
z
" transform="scale(0.015625)"/>
      <path id="DejaVuSans-49" d="M 628 4666 
L 1259 4666 
L 1259 0 
L 628 0 
L 628 4666 
z
" transform="scale(0.015625)"/>
      <path id="DejaVuSans-4d" d="M 628 4666 
L 1569 4666 
L 2759 1491 
L 3956 4666 
L 4897 4666 
L 4897 0 
L 4281 0 
L 4281 4097 
L 3078 897 
L 2444 897 
L 1241 4097 
L 1241 0 
L 628 0 
L 628 4666 
z
" transform="scale(0.015625)"/>
      <path id="DejaVuSans-28" d="M 1984 4856 
Q 1566 4138 1362 3434 
Q 1159 2731 1159 2009 
Q 1159 1288 1364 580 
Q 1569 -128 1984 -844 
L 1484 -844 
Q 1016 -109 783 600 
Q 550 1309 550 2009 
Q 550 2706 781 3412 
Q 1013 4119 1484 4856 
L 1984 4856 
z
" transform="scale(0.015625)"/>
      <path id="DejaVuSans-2c" d="M 750 794 
L 1409 794 
L 1409 256 
L 897 -744 
L 494 -744 
L 750 256 
L 750 794 
z
" transform="scale(0.015625)"/>
      <path id="DejaVuSans-29" d="M 513 4856 
L 1013 4856 
Q 1481 4119 1714 3412 
Q 1947 2706 1947 2009 
Q 1947 1309 1714 600 
Q 1481 -109 1013 -844 
L 513 -844 
Q 928 -128 1133 580 
Q 1338 1288 1338 2009 
Q 1338 2731 1133 3434 
Q 928 4138 513 4856 
z
" transform="scale(0.015625)"/>
      <path id="DejaVuSans-78" d="M 3513 3500 
L 2247 1797 
L 3578 0 
L 2900 0 
L 1881 1375 
L 863 0 
L 184 0 
L 1544 1831 
L 300 3500 
L 978 3500 
L 1906 2253 
L 2834 3500 
L 3513 3500 
z
" transform="scale(0.015625)"/>
      <path id="DejaVuSans-3d" d="M 678 2906 
L 4684 2906 
L 4684 2381 
L 678 2381 
L 678 2906 
z
M 678 1631 
L 4684 1631 
L 4684 1100 
L 678 1100 
L 678 1631 
z
" transform="scale(0.015625)"/>
      <path id="DejaVuSans-2e" d="M 684 794 
L 1344 794 
L 1344 0 
L 684 0 
L 684 794 
z
" transform="scale(0.015625)"/>
      <path id="DejaVuSans-38" d="M 2034 2216 
Q 1584 2216 1326 1975 
Q 1069 1734 1069 1313 
Q 1069 891 1326 650 
Q 1584 409 2034 409 
Q 2484 409 2743 651 
Q 3003 894 3003 1313 
Q 3003 1734 2745 1975 
Q 2488 2216 2034 2216 
z
M 1403 2484 
Q 997 2584 770 2862 
Q 544 3141 544 3541 
Q 544 4100 942 4425 
Q 1341 4750 2034 4750 
Q 2731 4750 3128 4425 
Q 3525 4100 3525 3541 
Q 3525 3141 3298 2862 
Q 3072 2584 2669 2484 
Q 3125 2378 3379 2068 
Q 3634 1759 3634 1313 
Q 3634 634 3220 271 
Q 2806 -91 2034 -91 
Q 1263 -91 848 271 
Q 434 634 434 1313 
Q 434 1759 690 2068 
Q 947 2378 1403 2484 
z
M 1172 3481 
Q 1172 3119 1398 2916 
Q 1625 2713 2034 2713 
Q 2441 2713 2670 2916 
Q 2900 3119 2900 3481 
Q 2900 3844 2670 4047 
Q 2441 4250 2034 4250 
Q 1625 4250 1398 4047 
Q 1172 3844 1172 3481 
z
" transform="scale(0.015625)"/>
     </defs>
     <use xlink:href="#DejaVuSans-41"/>
     <use xlink:href="#DejaVuSans-52" x="68.408203"/>
     <use xlink:href="#DejaVuSans-49" x="137.890625"/>
     <use xlink:href="#DejaVuSans-4d" x="167.382812"/>
     <use xlink:href="#DejaVuSans-41" x="253.662109"/>
     <use xlink:href="#DejaVuSans-20" x="322.070312"/>
     <use xlink:href="#DejaVuSans-28" x="353.857422"/>
     <use xlink:href="#DejaVuSans-32" x="392.871094"/>
     <use xlink:href="#DejaVuSans-2c" x="456.494141"/>
     <use xlink:href="#DejaVuSans-20" x="488.28125"/>
     <use xlink:href="#DejaVuSans-31" x="520.068359"/>
     <use xlink:href="#DejaVuSans-2c" x="583.691406"/>
     <use xlink:href="#DejaVuSans-20" x="615.478516"/>
     <use xlink:href="#DejaVuSans-30" x="647.265625"/>
     <use xlink:href="#DejaVuSans-29" x="710.888672"/>
     <use xlink:href="#DejaVuSans-78" x="749.902344"/>
     <use xlink:href="#DejaVuSans-28" x="809.082031"/>
     <use xlink:href="#DejaVuSans-31" x="848.095703"/>
     <use xlink:href="#DejaVuSans-2c" x="911.71875"/>
     <use xlink:href="#DejaVuSans-20" x="943.505859"/>
     <use xlink:href="#DejaVuSans-30" x="975.292969"/>
     <use xlink:href="#DejaVuSans-2c" x="1038.916016"/>
     <use xlink:href="#DejaVuSans-20" x="1070.703125"/>
     <use xlink:href="#DejaVuSans-30" x="1102.490234"/>
     <use xlink:href="#DejaVuSans-2c" x="1166.113281"/>
     <use xlink:href="#DejaVuSans-20" x="1197.900391"/>
     <use xlink:href="#DejaVuSans-37" x="1229.6875"/>
     <use xlink:href="#DejaVuSans-29" x="1293.310547"/>
     <use xlink:href="#DejaVuSans-20" x="1332.324219"/>
     <use xlink:href="#DejaVuSans-28" x="1364.111328"/>
     <use xlink:href="#DejaVuSans-52" x="1403.125"/>
     <use xlink:href="#DejaVuSans-32" x="1472.607422"/>
     <use xlink:href="#DejaVuSans-20" x="1536.230469"/>
     <use xlink:href="#DejaVuSans-3d" x="1568.017578"/>
     <use xlink:href="#DejaVuSans-20" x="1651.806641"/>
     <use xlink:href="#DejaVuSans-30" x="1683.59375"/>
     <use xlink:href="#DejaVuSans-2e" x="1747.216797"/>
     <use xlink:href="#DejaVuSans-38" x="1779.003906"/>
     <use xlink:href="#DejaVuSans-31" x="1842.626953"/>
     <use xlink:href="#DejaVuSans-38" x="1906.25"/>
     <use xlink:href="#DejaVuSans-33" x="1969.873047"/>
     <use xlink:href="#DejaVuSans-30" x="2033.496094"/>
     <use xlink:href="#DejaVuSans-37" x="2097.119141"/>
     <use xlink:href="#DejaVuSans-29" x="2160.742188"/>
    </g>
   </g>
   <g id="legend_1">
    <g id="patch_7">
     <path d="M 1287.495312 87.789875 
L 1384.575 87.789875 
Q 1386.575 87.789875 1386.575 85.789875 
L 1386.575 42.7555 
Q 1386.575 40.7555 1384.575 40.7555 
L 1287.495312 40.7555 
Q 1285.495312 40.7555 1285.495312 42.7555 
L 1285.495312 85.789875 
Q 1285.495312 87.789875 1287.495312 87.789875 
z
" style="fill: #ffffff; opacity: 0.8; stroke: #cccccc; stroke-linejoin: miter"/>
    </g>
    <g id="line2d_20">
     <path d="M 1289.495312 48.853937 
L 1299.495312 48.853937 
L 1309.495312 48.853937 
" style="fill: none; stroke: #0000ff; stroke-width: 1.5; stroke-linecap: square"/>
    </g>
    <g id="text_18">
     <!-- Actual Value -->
     <g transform="translate(1317.495312 52.353937)scale(0.1 -0.1)">
      <defs>
       <path id="DejaVuSans-75" d="M 544 1381 
L 544 3500 
L 1119 3500 
L 1119 1403 
Q 1119 906 1312 657 
Q 1506 409 1894 409 
Q 2359 409 2629 706 
Q 2900 1003 2900 1516 
L 2900 3500 
L 3475 3500 
L 3475 0 
L 2900 0 
L 2900 538 
Q 2691 219 2414 64 
Q 2138 -91 1772 -91 
Q 1169 -91 856 284 
Q 544 659 544 1381 
z
M 1991 3584 
L 1991 3584 
z
" transform="scale(0.015625)"/>
      </defs>
      <use xlink:href="#DejaVuSans-41"/>
      <use xlink:href="#DejaVuSans-63" x="66.658203"/>
      <use xlink:href="#DejaVuSans-74" x="121.638672"/>
      <use xlink:href="#DejaVuSans-75" x="160.847656"/>
      <use xlink:href="#DejaVuSans-61" x="224.226562"/>
      <use xlink:href="#DejaVuSans-6c" x="285.505859"/>
      <use xlink:href="#DejaVuSans-20" x="313.289062"/>
      <use xlink:href="#DejaVuSans-56" x="345.076172"/>
      <use xlink:href="#DejaVuSans-61" x="405.734375"/>
      <use xlink:href="#DejaVuSans-6c" x="467.013672"/>
      <use xlink:href="#DejaVuSans-75" x="494.796875"/>
      <use xlink:href="#DejaVuSans-65" x="558.175781"/>
     </g>
    </g>
    <g id="line2d_21">
     <path d="M 1289.495312 63.532062 
L 1299.495312 63.532062 
L 1309.495312 63.532062 
" style="fill: none; stroke: #ffa500; stroke-width: 1.5; stroke-linecap: square"/>
    </g>
    <g id="text_19">
     <!-- Check Value -->
     <g transform="translate(1317.495312 67.032062)scale(0.1 -0.1)">
      <defs>
       <path id="DejaVuSans-68" d="M 3513 2113 
L 3513 0 
L 2938 0 
L 2938 2094 
Q 2938 2591 2744 2837 
Q 2550 3084 2163 3084 
Q 1697 3084 1428 2787 
Q 1159 2491 1159 1978 
L 1159 0 
L 581 0 
L 581 4863 
L 1159 4863 
L 1159 2956 
Q 1366 3272 1645 3428 
Q 1925 3584 2291 3584 
Q 2894 3584 3203 3211 
Q 3513 2838 3513 2113 
z
" transform="scale(0.015625)"/>
       <path id="DejaVuSans-6b" d="M 581 4863 
L 1159 4863 
L 1159 1991 
L 2875 3500 
L 3609 3500 
L 1753 1863 
L 3688 0 
L 2938 0 
L 1159 1709 
L 1159 0 
L 581 0 
L 581 4863 
z
" transform="scale(0.015625)"/>
      </defs>
      <use xlink:href="#DejaVuSans-43"/>
      <use xlink:href="#DejaVuSans-68" x="69.824219"/>
      <use xlink:href="#DejaVuSans-65" x="133.203125"/>
      <use xlink:href="#DejaVuSans-63" x="194.726562"/>
      <use xlink:href="#DejaVuSans-6b" x="249.707031"/>
      <use xlink:href="#DejaVuSans-20" x="307.617188"/>
      <use xlink:href="#DejaVuSans-56" x="339.404297"/>
      <use xlink:href="#DejaVuSans-61" x="400.0625"/>
      <use xlink:href="#DejaVuSans-6c" x="461.341797"/>
      <use xlink:href="#DejaVuSans-75" x="489.125"/>
      <use xlink:href="#DejaVuSans-65" x="552.503906"/>
     </g>
    </g>
    <g id="line2d_22">
     <path d="M 1289.495312 78.210187 
L 1299.495312 78.210187 
L 1309.495312 78.210187 
" style="fill: none; stroke: #ff0000; stroke-width: 1.5; stroke-linecap: square"/>
    </g>
    <g id="text_20">
     <!-- Predict Value -->
     <g transform="translate(1317.495312 81.710187)scale(0.1 -0.1)">
      <defs>
       <path id="DejaVuSans-50" d="M 1259 4147 
L 1259 2394 
L 2053 2394 
Q 2494 2394 2734 2622 
Q 2975 2850 2975 3272 
Q 2975 3691 2734 3919 
Q 2494 4147 2053 4147 
L 1259 4147 
z
M 628 4666 
L 2053 4666 
Q 2838 4666 3239 4311 
Q 3641 3956 3641 3272 
Q 3641 2581 3239 2228 
Q 2838 1875 2053 1875 
L 1259 1875 
L 1259 0 
L 628 0 
L 628 4666 
z
" transform="scale(0.015625)"/>
      </defs>
      <use xlink:href="#DejaVuSans-50"/>
      <use xlink:href="#DejaVuSans-72" x="58.552734"/>
      <use xlink:href="#DejaVuSans-65" x="97.416016"/>
      <use xlink:href="#DejaVuSans-64" x="158.939453"/>
      <use xlink:href="#DejaVuSans-69" x="222.416016"/>
      <use xlink:href="#DejaVuSans-63" x="250.199219"/>
      <use xlink:href="#DejaVuSans-74" x="305.179688"/>
      <use xlink:href="#DejaVuSans-20" x="344.388672"/>
      <use xlink:href="#DejaVuSans-56" x="376.175781"/>
      <use xlink:href="#DejaVuSans-61" x="436.833984"/>
      <use xlink:href="#DejaVuSans-6c" x="498.113281"/>
      <use xlink:href="#DejaVuSans-75" x="525.896484"/>
      <use xlink:href="#DejaVuSans-65" x="589.275391"/>
     </g>
    </g>
   </g>
  </g>
 </g>
 <defs>
  <clipPath id="p917620a5c2">
   <rect x="52.375" y="35.7555" width="1339.2" height="332.64"/>
  </clipPath>
 </defs>
</svg>
