<?xml version="1.0" encoding="utf-8" standalone="no"?>
<!DOCTYPE svg PUBLIC "-//W3C//DTD SVG 1.1//EN"
  "http://www.w3.org/Graphics/SVG/1.1/DTD/svg11.dtd">
<svg xmlns:xlink="http://www.w3.org/1999/xlink" width="1386.05pt" height="392.273625pt" viewBox="0 0 1386.05 392.273625" xmlns="http://www.w3.org/2000/svg" version="1.1">
 <metadata>
  <rdf:RDF xmlns:dc="http://purl.org/dc/elements/1.1/" xmlns:cc="http://creativecommons.org/ns#" xmlns:rdf="http://www.w3.org/1999/02/22-rdf-syntax-ns#">
   <cc:Work>
    <dc:type rdf:resource="http://purl.org/dc/dcmitype/StillImage"/>
    <dc:date>2022-06-26T20:08:27.198042</dc:date>
    <dc:format>image/svg+xml</dc:format>
    <dc:creator>
     <cc:Agent>
      <dc:title>Matplotlib v3.5.2, https://matplotlib.org/</dc:title>
     </cc:Agent>
    </dc:creator>
   </cc:Work>
  </rdf:RDF>
 </metadata>
 <defs>
  <style type="text/css">*{stroke-linejoin: round; stroke-linecap: butt}</style>
 </defs>
 <g id="figure_1">
  <g id="patch_1">
   <path d="M 0 392.273625 
L 1386.05 392.273625 
L 1386.05 0 
L 0 0 
z
" style="fill: #ffffff"/>
  </g>
  <g id="axes_1">
   <g id="patch_2">
    <path d="M 39.65 368.3955 
L 1378.85 368.3955 
L 1378.85 35.7555 
L 39.65 35.7555 
z
" style="fill: #ffffff"/>
   </g>
   <g id="matplotlib.axis_1">
    <g id="xtick_1">
     <g id="line2d_1">
      <defs>
       <path id="m5c48728f8a" d="M 0 0 
L 0 3.5 
" style="stroke: #000000; stroke-width: 0.8"/>
      </defs>
      <g>
       <use xlink:href="#m5c48728f8a" x="70.663196" y="368.3955" style="stroke: #000000; stroke-width: 0.8"/>
      </g>
     </g>
     <g id="text_1">
      <!-- 2020-01 -->
      <g transform="translate(49.771789 382.993937)scale(0.1 -0.1)">
       <defs>
        <path id="DejaVuSans-32" d="M 1228 531 
L 3431 531 
L 3431 0 
L 469 0 
L 469 531 
Q 828 903 1448 1529 
Q 2069 2156 2228 2338 
Q 2531 2678 2651 2914 
Q 2772 3150 2772 3378 
Q 2772 3750 2511 3984 
Q 2250 4219 1831 4219 
Q 1534 4219 1204 4116 
Q 875 4013 500 3803 
L 500 4441 
Q 881 4594 1212 4672 
Q 1544 4750 1819 4750 
Q 2544 4750 2975 4387 
Q 3406 4025 3406 3419 
Q 3406 3131 3298 2873 
Q 3191 2616 2906 2266 
Q 2828 2175 2409 1742 
Q 1991 1309 1228 531 
z
" transform="scale(0.015625)"/>
        <path id="DejaVuSans-30" d="M 2034 4250 
Q 1547 4250 1301 3770 
Q 1056 3291 1056 2328 
Q 1056 1369 1301 889 
Q 1547 409 2034 409 
Q 2525 409 2770 889 
Q 3016 1369 3016 2328 
Q 3016 3291 2770 3770 
Q 2525 4250 2034 4250 
z
M 2034 4750 
Q 2819 4750 3233 4129 
Q 3647 3509 3647 2328 
Q 3647 1150 3233 529 
Q 2819 -91 2034 -91 
Q 1250 -91 836 529 
Q 422 1150 422 2328 
Q 422 3509 836 4129 
Q 1250 4750 2034 4750 
z
" transform="scale(0.015625)"/>
        <path id="DejaVuSans-2d" d="M 313 2009 
L 1997 2009 
L 1997 1497 
L 313 1497 
L 313 2009 
z
" transform="scale(0.015625)"/>
        <path id="DejaVuSans-31" d="M 794 531 
L 1825 531 
L 1825 4091 
L 703 3866 
L 703 4441 
L 1819 4666 
L 2450 4666 
L 2450 531 
L 3481 531 
L 3481 0 
L 794 0 
L 794 531 
z
" transform="scale(0.015625)"/>
       </defs>
       <use xlink:href="#DejaVuSans-32"/>
       <use xlink:href="#DejaVuSans-30" x="63.623047"/>
       <use xlink:href="#DejaVuSans-32" x="127.246094"/>
       <use xlink:href="#DejaVuSans-30" x="190.869141"/>
       <use xlink:href="#DejaVuSans-2d" x="254.492188"/>
       <use xlink:href="#DejaVuSans-30" x="290.576172"/>
       <use xlink:href="#DejaVuSans-31" x="354.199219"/>
      </g>
     </g>
    </g>
    <g id="xtick_2">
     <g id="line2d_2">
      <g>
       <use xlink:href="#m5c48728f8a" x="194.173077" y="368.3955" style="stroke: #000000; stroke-width: 0.8"/>
      </g>
     </g>
     <g id="text_2">
      <!-- 2020-04 -->
      <g transform="translate(173.281671 382.993937)scale(0.1 -0.1)">
       <defs>
        <path id="DejaVuSans-34" d="M 2419 4116 
L 825 1625 
L 2419 1625 
L 2419 4116 
z
M 2253 4666 
L 3047 4666 
L 3047 1625 
L 3713 1625 
L 3713 1100 
L 3047 1100 
L 3047 0 
L 2419 0 
L 2419 1100 
L 313 1100 
L 313 1709 
L 2253 4666 
z
" transform="scale(0.015625)"/>
       </defs>
       <use xlink:href="#DejaVuSans-32"/>
       <use xlink:href="#DejaVuSans-30" x="63.623047"/>
       <use xlink:href="#DejaVuSans-32" x="127.246094"/>
       <use xlink:href="#DejaVuSans-30" x="190.869141"/>
       <use xlink:href="#DejaVuSans-2d" x="254.492188"/>
       <use xlink:href="#DejaVuSans-30" x="290.576172"/>
       <use xlink:href="#DejaVuSans-34" x="354.199219"/>
      </g>
     </g>
    </g>
    <g id="xtick_3">
     <g id="line2d_3">
      <g>
       <use xlink:href="#m5c48728f8a" x="317.682958" y="368.3955" style="stroke: #000000; stroke-width: 0.8"/>
      </g>
     </g>
     <g id="text_3">
      <!-- 2020-07 -->
      <g transform="translate(296.791552 382.993937)scale(0.1 -0.1)">
       <defs>
        <path id="DejaVuSans-37" d="M 525 4666 
L 3525 4666 
L 3525 4397 
L 1831 0 
L 1172 0 
L 2766 4134 
L 525 4134 
L 525 4666 
z
" transform="scale(0.015625)"/>
       </defs>
       <use xlink:href="#DejaVuSans-32"/>
       <use xlink:href="#DejaVuSans-30" x="63.623047"/>
       <use xlink:href="#DejaVuSans-32" x="127.246094"/>
       <use xlink:href="#DejaVuSans-30" x="190.869141"/>
       <use xlink:href="#DejaVuSans-2d" x="254.492188"/>
       <use xlink:href="#DejaVuSans-30" x="290.576172"/>
       <use xlink:href="#DejaVuSans-37" x="354.199219"/>
      </g>
     </g>
    </g>
    <g id="xtick_4">
     <g id="line2d_4">
      <g>
       <use xlink:href="#m5c48728f8a" x="442.550091" y="368.3955" style="stroke: #000000; stroke-width: 0.8"/>
      </g>
     </g>
     <g id="text_4">
      <!-- 2020-10 -->
      <g transform="translate(421.658685 382.993937)scale(0.1 -0.1)">
       <use xlink:href="#DejaVuSans-32"/>
       <use xlink:href="#DejaVuSans-30" x="63.623047"/>
       <use xlink:href="#DejaVuSans-32" x="127.246094"/>
       <use xlink:href="#DejaVuSans-30" x="190.869141"/>
       <use xlink:href="#DejaVuSans-2d" x="254.492188"/>
       <use xlink:href="#DejaVuSans-31" x="290.576172"/>
       <use xlink:href="#DejaVuSans-30" x="354.199219"/>
      </g>
     </g>
    </g>
    <g id="xtick_5">
     <g id="line2d_5">
      <g>
       <use xlink:href="#m5c48728f8a" x="567.417224" y="368.3955" style="stroke: #000000; stroke-width: 0.8"/>
      </g>
     </g>
     <g id="text_5">
      <!-- 2021-01 -->
      <g transform="translate(546.525818 382.993937)scale(0.1 -0.1)">
       <use xlink:href="#DejaVuSans-32"/>
       <use xlink:href="#DejaVuSans-30" x="63.623047"/>
       <use xlink:href="#DejaVuSans-32" x="127.246094"/>
       <use xlink:href="#DejaVuSans-31" x="190.869141"/>
       <use xlink:href="#DejaVuSans-2d" x="254.492188"/>
       <use xlink:href="#DejaVuSans-30" x="290.576172"/>
       <use xlink:href="#DejaVuSans-31" x="354.199219"/>
      </g>
     </g>
    </g>
    <g id="xtick_6">
     <g id="line2d_6">
      <g>
       <use xlink:href="#m5c48728f8a" x="689.569854" y="368.3955" style="stroke: #000000; stroke-width: 0.8"/>
      </g>
     </g>
     <g id="text_6">
      <!-- 2021-04 -->
      <g transform="translate(668.678448 382.993937)scale(0.1 -0.1)">
       <use xlink:href="#DejaVuSans-32"/>
       <use xlink:href="#DejaVuSans-30" x="63.623047"/>
       <use xlink:href="#DejaVuSans-32" x="127.246094"/>
       <use xlink:href="#DejaVuSans-31" x="190.869141"/>
       <use xlink:href="#DejaVuSans-2d" x="254.492188"/>
       <use xlink:href="#DejaVuSans-30" x="290.576172"/>
       <use xlink:href="#DejaVuSans-34" x="354.199219"/>
      </g>
     </g>
    </g>
    <g id="xtick_7">
     <g id="line2d_7">
      <g>
       <use xlink:href="#m5c48728f8a" x="813.079735" y="368.3955" style="stroke: #000000; stroke-width: 0.8"/>
      </g>
     </g>
     <g id="text_7">
      <!-- 2021-07 -->
      <g transform="translate(792.188329 382.993937)scale(0.1 -0.1)">
       <use xlink:href="#DejaVuSans-32"/>
       <use xlink:href="#DejaVuSans-30" x="63.623047"/>
       <use xlink:href="#DejaVuSans-32" x="127.246094"/>
       <use xlink:href="#DejaVuSans-31" x="190.869141"/>
       <use xlink:href="#DejaVuSans-2d" x="254.492188"/>
       <use xlink:href="#DejaVuSans-30" x="290.576172"/>
       <use xlink:href="#DejaVuSans-37" x="354.199219"/>
      </g>
     </g>
    </g>
    <g id="xtick_8">
     <g id="line2d_8">
      <g>
       <use xlink:href="#m5c48728f8a" x="937.946868" y="368.3955" style="stroke: #000000; stroke-width: 0.8"/>
      </g>
     </g>
     <g id="text_8">
      <!-- 2021-10 -->
      <g transform="translate(917.055462 382.993937)scale(0.1 -0.1)">
       <use xlink:href="#DejaVuSans-32"/>
       <use xlink:href="#DejaVuSans-30" x="63.623047"/>
       <use xlink:href="#DejaVuSans-32" x="127.246094"/>
       <use xlink:href="#DejaVuSans-31" x="190.869141"/>
       <use xlink:href="#DejaVuSans-2d" x="254.492188"/>
       <use xlink:href="#DejaVuSans-31" x="290.576172"/>
       <use xlink:href="#DejaVuSans-30" x="354.199219"/>
      </g>
     </g>
    </g>
    <g id="xtick_9">
     <g id="line2d_9">
      <g>
       <use xlink:href="#m5c48728f8a" x="1062.814001" y="368.3955" style="stroke: #000000; stroke-width: 0.8"/>
      </g>
     </g>
     <g id="text_9">
      <!-- 2022-01 -->
      <g transform="translate(1041.922595 382.993937)scale(0.1 -0.1)">
       <use xlink:href="#DejaVuSans-32"/>
       <use xlink:href="#DejaVuSans-30" x="63.623047"/>
       <use xlink:href="#DejaVuSans-32" x="127.246094"/>
       <use xlink:href="#DejaVuSans-32" x="190.869141"/>
       <use xlink:href="#DejaVuSans-2d" x="254.492188"/>
       <use xlink:href="#DejaVuSans-30" x="290.576172"/>
       <use xlink:href="#DejaVuSans-31" x="354.199219"/>
      </g>
     </g>
    </g>
    <g id="xtick_10">
     <g id="line2d_10">
      <g>
       <use xlink:href="#m5c48728f8a" x="1184.966631" y="368.3955" style="stroke: #000000; stroke-width: 0.8"/>
      </g>
     </g>
     <g id="text_10">
      <!-- 2022-04 -->
      <g transform="translate(1164.075225 382.993937)scale(0.1 -0.1)">
       <use xlink:href="#DejaVuSans-32"/>
       <use xlink:href="#DejaVuSans-30" x="63.623047"/>
       <use xlink:href="#DejaVuSans-32" x="127.246094"/>
       <use xlink:href="#DejaVuSans-32" x="190.869141"/>
       <use xlink:href="#DejaVuSans-2d" x="254.492188"/>
       <use xlink:href="#DejaVuSans-30" x="290.576172"/>
       <use xlink:href="#DejaVuSans-34" x="354.199219"/>
      </g>
     </g>
    </g>
    <g id="xtick_11">
     <g id="line2d_11">
      <g>
       <use xlink:href="#m5c48728f8a" x="1308.476513" y="368.3955" style="stroke: #000000; stroke-width: 0.8"/>
      </g>
     </g>
     <g id="text_11">
      <!-- 2022-07 -->
      <g transform="translate(1287.585106 382.993937)scale(0.1 -0.1)">
       <use xlink:href="#DejaVuSans-32"/>
       <use xlink:href="#DejaVuSans-30" x="63.623047"/>
       <use xlink:href="#DejaVuSans-32" x="127.246094"/>
       <use xlink:href="#DejaVuSans-32" x="190.869141"/>
       <use xlink:href="#DejaVuSans-2d" x="254.492188"/>
       <use xlink:href="#DejaVuSans-30" x="290.576172"/>
       <use xlink:href="#DejaVuSans-37" x="354.199219"/>
      </g>
     </g>
    </g>
   </g>
   <g id="matplotlib.axis_2">
    <g id="ytick_1">
     <g id="line2d_12">
      <defs>
       <path id="m18b56ba469" d="M 0 0 
L -3.5 0 
" style="stroke: #000000; stroke-width: 0.8"/>
      </defs>
      <g>
       <use xlink:href="#m18b56ba469" x="39.65" y="337.495481" style="stroke: #000000; stroke-width: 0.8"/>
      </g>
     </g>
     <g id="text_12">
      <!-- 0 -->
      <g transform="translate(26.2875 341.294699)scale(0.1 -0.1)">
       <use xlink:href="#DejaVuSans-30"/>
      </g>
     </g>
    </g>
    <g id="ytick_2">
     <g id="line2d_13">
      <g>
       <use xlink:href="#m18b56ba469" x="39.65" y="283.720625" style="stroke: #000000; stroke-width: 0.8"/>
      </g>
     </g>
     <g id="text_13">
      <!-- 200 -->
      <g transform="translate(13.5625 287.519844)scale(0.1 -0.1)">
       <use xlink:href="#DejaVuSans-32"/>
       <use xlink:href="#DejaVuSans-30" x="63.623047"/>
       <use xlink:href="#DejaVuSans-30" x="127.246094"/>
      </g>
     </g>
    </g>
    <g id="ytick_3">
     <g id="line2d_14">
      <g>
       <use xlink:href="#m18b56ba469" x="39.65" y="229.945769" style="stroke: #000000; stroke-width: 0.8"/>
      </g>
     </g>
     <g id="text_14">
      <!-- 400 -->
      <g transform="translate(13.5625 233.744988)scale(0.1 -0.1)">
       <use xlink:href="#DejaVuSans-34"/>
       <use xlink:href="#DejaVuSans-30" x="63.623047"/>
       <use xlink:href="#DejaVuSans-30" x="127.246094"/>
      </g>
     </g>
    </g>
    <g id="ytick_4">
     <g id="line2d_15">
      <g>
       <use xlink:href="#m18b56ba469" x="39.65" y="176.170914" style="stroke: #000000; stroke-width: 0.8"/>
      </g>
     </g>
     <g id="text_15">
      <!-- 600 -->
      <g transform="translate(13.5625 179.970132)scale(0.1 -0.1)">
       <defs>
        <path id="DejaVuSans-36" d="M 2113 2584 
Q 1688 2584 1439 2293 
Q 1191 2003 1191 1497 
Q 1191 994 1439 701 
Q 1688 409 2113 409 
Q 2538 409 2786 701 
Q 3034 994 3034 1497 
Q 3034 2003 2786 2293 
Q 2538 2584 2113 2584 
z
M 3366 4563 
L 3366 3988 
Q 3128 4100 2886 4159 
Q 2644 4219 2406 4219 
Q 1781 4219 1451 3797 
Q 1122 3375 1075 2522 
Q 1259 2794 1537 2939 
Q 1816 3084 2150 3084 
Q 2853 3084 3261 2657 
Q 3669 2231 3669 1497 
Q 3669 778 3244 343 
Q 2819 -91 2113 -91 
Q 1303 -91 875 529 
Q 447 1150 447 2328 
Q 447 3434 972 4092 
Q 1497 4750 2381 4750 
Q 2619 4750 2861 4703 
Q 3103 4656 3366 4563 
z
" transform="scale(0.015625)"/>
       </defs>
       <use xlink:href="#DejaVuSans-36"/>
       <use xlink:href="#DejaVuSans-30" x="63.623047"/>
       <use xlink:href="#DejaVuSans-30" x="127.246094"/>
      </g>
     </g>
    </g>
    <g id="ytick_5">
     <g id="line2d_16">
      <g>
       <use xlink:href="#m18b56ba469" x="39.65" y="122.396058" style="stroke: #000000; stroke-width: 0.8"/>
      </g>
     </g>
     <g id="text_16">
      <!-- 800 -->
      <g transform="translate(13.5625 126.195277)scale(0.1 -0.1)">
       <defs>
        <path id="DejaVuSans-38" d="M 2034 2216 
Q 1584 2216 1326 1975 
Q 1069 1734 1069 1313 
Q 1069 891 1326 650 
Q 1584 409 2034 409 
Q 2484 409 2743 651 
Q 3003 894 3003 1313 
Q 3003 1734 2745 1975 
Q 2488 2216 2034 2216 
z
M 1403 2484 
Q 997 2584 770 2862 
Q 544 3141 544 3541 
Q 544 4100 942 4425 
Q 1341 4750 2034 4750 
Q 2731 4750 3128 4425 
Q 3525 4100 3525 3541 
Q 3525 3141 3298 2862 
Q 3072 2584 2669 2484 
Q 3125 2378 3379 2068 
Q 3634 1759 3634 1313 
Q 3634 634 3220 271 
Q 2806 -91 2034 -91 
Q 1263 -91 848 271 
Q 434 634 434 1313 
Q 434 1759 690 2068 
Q 947 2378 1403 2484 
z
M 1172 3481 
Q 1172 3119 1398 2916 
Q 1625 2713 2034 2713 
Q 2441 2713 2670 2916 
Q 2900 3119 2900 3481 
Q 2900 3844 2670 4047 
Q 2441 4250 2034 4250 
Q 1625 4250 1398 4047 
Q 1172 3844 1172 3481 
z
" transform="scale(0.015625)"/>
       </defs>
       <use xlink:href="#DejaVuSans-38"/>
       <use xlink:href="#DejaVuSans-30" x="63.623047"/>
       <use xlink:href="#DejaVuSans-30" x="127.246094"/>
      </g>
     </g>
    </g>
    <g id="ytick_6">
     <g id="line2d_17">
      <g>
       <use xlink:href="#m18b56ba469" x="39.65" y="68.621202" style="stroke: #000000; stroke-width: 0.8"/>
      </g>
     </g>
     <g id="text_17">
      <!-- 1000 -->
      <g transform="translate(7.2 72.420421)scale(0.1 -0.1)">
       <use xlink:href="#DejaVuSans-31"/>
       <use xlink:href="#DejaVuSans-30" x="63.623047"/>
       <use xlink:href="#DejaVuSans-30" x="127.246094"/>
       <use xlink:href="#DejaVuSans-30" x="190.869141"/>
      </g>
     </g>
    </g>
   </g>
   <g id="line2d_18">
    <path d="M 100.522727 337.495481 
L 171.099802 337.495481 
L 172.457054 337.226606 
L 173.814305 337.495481 
L 184.672317 337.495481 
L 186.029568 337.226606 
L 187.38682 337.226606 
L 188.744071 337.495481 
L 191.458574 337.495481 
L 192.815825 336.957732 
L 194.173077 337.495481 
L 195.530328 337.495481 
L 196.88758 336.957732 
L 198.244831 337.495481 
L 200.959334 337.495481 
L 202.316586 337.226606 
L 203.673837 336.419984 
L 205.031088 337.495481 
L 206.38834 335.075612 
L 207.745591 337.495481 
L 209.102843 336.419984 
L 210.460094 328.084881 
L 211.817346 337.495481 
L 213.174597 332.117995 
L 214.531849 337.495481 
L 215.8891 327.816007 
L 217.246351 332.386869 
L 218.603603 329.698127 
L 219.960854 317.867658 
L 221.318106 324.320641 
L 222.675357 337.495481 
L 224.032609 326.202761 
L 225.38986 337.495481 
L 226.747112 320.825275 
L 228.104363 325.127264 
L 229.461614 325.665012 
L 230.818866 324.589515 
L 232.176117 322.97627 
L 233.533369 332.386869 
L 234.89062 337.495481 
L 236.247872 318.674281 
L 237.605123 323.782892 
L 238.962375 328.353755 
L 240.319626 316.254413 
L 241.676877 327.278258 
L 243.034129 322.707395 
L 244.39138 337.495481 
L 245.748632 318.943155 
L 247.105883 322.169647 
L 248.463135 328.084881 
L 249.820386 315.716664 
L 251.177638 324.320641 
L 252.534889 320.018653 
L 253.89214 337.495481 
L 255.249392 317.867658 
L 256.606643 320.287527 
L 257.963895 328.353755 
L 259.321146 324.85839 
L 260.678398 318.405407 
L 262.035649 331.849121 
L 263.392901 337.495481 
L 266.107403 337.495481 
L 267.464655 311.952424 
L 268.821906 331.580247 
L 270.179158 332.117995 
L 271.536409 311.414676 
L 272.893661 337.495481 
L 274.250912 313.834544 
L 275.608164 321.363024 
L 276.965415 324.85839 
L 278.322666 319.749778 
L 279.679918 322.169647 
L 281.037169 321.900773 
L 282.394421 337.495481 
L 283.751672 314.641167 
L 285.108924 325.396138 
L 286.466175 328.353755 
L 287.823427 324.589515 
L 289.180678 327.816007 
L 290.537929 321.09415 
L 291.895181 337.495481 
L 293.252432 319.749778 
L 294.609684 327.009384 
L 295.966935 331.042498 
L 297.324187 333.193492 
L 298.681438 327.278258 
L 300.03869 331.311372 
L 301.395941 337.495481 
L 302.753192 327.816007 
L 304.110444 331.042498 
L 305.467695 328.622629 
L 306.824947 337.495481 
L 308.182198 331.311372 
L 309.53945 325.933887 
L 310.896701 337.495481 
L 312.253953 337.495481 
L 313.611204 333.193492 
L 314.968455 334.806738 
L 316.325707 332.117995 
L 317.682958 337.495481 
L 319.04021 332.117995 
L 320.397461 337.495481 
L 321.754713 332.924618 
L 323.111964 327.816007 
L 324.469216 335.075612 
L 325.826467 335.075612 
L 327.183718 334.000115 
L 328.54097 334.806738 
L 329.898221 337.495481 
L 331.255473 334.000115 
L 332.612724 335.344486 
L 333.969976 334.000115 
L 335.327227 336.419984 
L 336.684479 335.613361 
L 338.04173 331.311372 
L 339.398981 337.495481 
L 340.756233 336.151109 
L 343.470736 334.537864 
L 344.827987 336.151109 
L 346.185239 330.504749 
L 347.54249 334.806738 
L 348.899742 337.495481 
L 350.256993 335.613361 
L 351.614244 337.495481 
L 352.971496 332.655744 
L 354.328747 333.193492 
L 355.685999 337.495481 
L 359.757753 337.495481 
L 361.115005 335.344486 
L 362.472256 337.495481 
L 363.829507 337.495481 
L 365.186759 335.613361 
L 366.54401 337.495481 
L 376.04477 337.495481 
L 377.402022 331.311372 
L 378.759273 337.495481 
L 380.116525 335.882235 
L 381.473776 337.226606 
L 382.831028 337.495481 
L 384.188279 335.344486 
L 385.545531 337.495481 
L 386.902782 337.495481 
L 388.260033 336.419984 
L 389.617285 337.495481 
L 390.974536 337.495481 
L 392.331788 335.882235 
L 393.689039 337.495481 
L 396.403542 337.495481 
L 397.760794 328.084881 
L 399.118045 337.495481 
L 404.547051 337.495481 
L 405.904302 331.580247 
L 407.261554 337.495481 
L 408.618805 329.429252 
L 409.976057 337.495481 
L 411.333308 335.075612 
L 412.690559 337.495481 
L 414.047811 337.495481 
L 415.405062 336.151109 
L 416.762314 337.495481 
L 418.119565 334.000115 
L 419.476817 337.495481 
L 420.834068 337.226606 
L 422.19132 337.495481 
L 424.905822 337.495481 
L 426.263074 334.537864 
L 427.620325 326.471635 
L 428.977577 331.311372 
L 430.334828 337.495481 
L 434.406583 337.495481 
L 435.763834 304.423944 
L 437.121085 337.495481 
L 441.19284 337.495481 
L 442.550091 336.151109 
L 443.907343 337.495481 
L 445.264594 337.495481 
L 446.621846 296.62659 
L 447.979097 337.495481 
L 453.408103 337.495481 
L 454.765354 310.070304 
L 456.122606 332.924618 
L 457.479857 337.495481 
L 465.623366 337.495481 
L 466.980617 330.504749 
L 468.337869 337.495481 
L 469.69512 337.495481 
L 471.052372 335.613361 
L 472.409623 337.495481 
L 473.766874 337.495481 
L 475.124126 325.665012 
L 476.481377 337.495481 
L 485.982137 337.495481 
L 487.339389 260.059689 
L 488.69664 337.495481 
L 494.125646 337.495481 
L 495.482898 318.136533 
L 496.840149 337.495481 
L 504.983658 337.495481 
L 506.340909 315.716664 
L 507.698161 337.495481 
L 511.769915 337.495481 
L 513.127166 320.556401 
L 514.484418 337.495481 
L 517.198921 337.495481 
L 518.556172 335.882235 
L 519.913424 337.495481 
L 525.342429 337.495481 
L 526.699681 317.598784 
L 528.056932 337.495481 
L 532.128687 337.495481 
L 533.485938 322.97627 
L 534.843189 337.495481 
L 545.701201 337.495481 
L 547.058452 315.178916 
L 548.415704 337.495481 
L 552.487458 337.495481 
L 553.84471 329.967001 
L 555.201961 337.495481 
L 563.34547 337.495481 
L 564.702721 331.042498 
L 566.059973 337.495481 
L 572.84623 337.495481 
L 574.203481 334.268989 
L 575.560733 337.495481 
L 583.704241 337.495481 
L 585.061493 332.655744 
L 586.418744 337.495481 
L 595.919504 337.495481 
L 597.276756 334.806738 
L 598.634007 337.495481 
L 602.705762 337.495481 
L 604.063013 329.429252 
L 605.420265 337.495481 
L 610.84927 337.495481 
L 612.206522 329.429252 
L 613.563773 337.495481 
L 614.921025 337.495481 
L 616.278276 326.74051 
L 617.635528 335.344486 
L 618.992779 337.495481 
L 620.35003 337.495481 
L 621.707282 317.867658 
L 623.064533 316.523287 
L 624.421785 320.825275 
L 625.779036 332.924618 
L 627.136288 313.027921 
L 628.493539 313.296796 
L 629.850791 310.608053 
L 631.208042 303.348447 
L 632.565293 302.004076 
L 633.922545 337.495481 
L 635.279796 268.394791 
L 636.637048 303.079573 
L 637.994299 275.923271 
L 639.351551 337.495481 
L 640.708802 256.026574 
L 642.066054 300.39083 
L 643.423305 337.495481 
L 644.780556 255.7577 
L 646.137808 265.974923 
L 647.495059 301.197453 
L 648.852311 303.617322 
L 650.209562 281.300756 
L 651.566814 304.423944 
L 652.924065 337.495481 
L 654.281317 286.140494 
L 655.638568 262.210683 
L 656.995819 306.03719 
L 658.353071 300.121956 
L 659.710322 300.928579 
L 661.067574 308.725933 
L 662.424825 337.495481 
L 665.139328 271.890157 
L 666.49658 300.39083 
L 667.853831 308.188184 
L 669.211082 293.668973 
L 670.568334 337.495481 
L 671.925585 250.11134 
L 673.282837 325.933887 
L 674.640088 306.03719 
L 675.99734 302.810699 
L 677.354591 295.819968 
L 678.711843 337.495481 
L 680.069094 258.177569 
L 681.426345 337.495481 
L 682.783597 290.711356 
L 684.140848 300.121956 
L 685.4981 287.215991 
L 686.855351 303.079573 
L 688.212603 308.994807 
L 689.569854 310.339179 
L 690.927106 337.495481 
L 692.284357 336.151109 
L 693.641608 262.479557 
L 694.99886 303.886196 
L 696.356111 318.674281 
L 697.713363 337.495481 
L 699.070614 258.715317 
L 700.427866 337.495481 
L 701.785117 337.495481 
L 703.142369 301.197453 
L 704.49962 294.475596 
L 705.856871 337.495481 
L 707.214123 264.630551 
L 708.571374 337.495481 
L 711.285877 337.495481 
L 712.643129 272.427905 
L 714.00038 271.621282 
L 715.357631 337.495481 
L 716.714883 301.197453 
L 718.072134 337.495481 
L 720.786637 337.495481 
L 722.143889 280.763008 
L 723.50114 299.315333 
L 724.858392 309.80143 
L 726.215643 337.495481 
L 733.0019 337.495481 
L 734.359152 282.107379 
L 735.716403 337.495481 
L 737.073655 271.083534 
L 738.430906 337.495481 
L 739.788157 324.85839 
L 741.145409 337.495481 
L 742.50266 337.495481 
L 743.859912 318.405407 
L 745.217163 337.495481 
L 752.00342 337.495481 
L 753.360672 313.56567 
L 754.717923 337.495481 
L 756.075175 332.386869 
L 757.432426 337.495481 
L 758.789678 329.698127 
L 760.146929 335.075612 
L 761.504181 337.495481 
L 764.218683 337.495481 
L 765.575935 333.462366 
L 766.933186 337.495481 
L 768.290438 335.882235 
L 769.647689 335.613361 
L 771.004941 336.957732 
L 772.362192 336.151109 
L 773.719444 331.042498 
L 775.076695 335.344486 
L 776.433946 337.495481 
L 777.791198 329.429252 
L 779.148449 332.386869 
L 780.505701 332.117995 
L 781.862952 335.344486 
L 783.220204 336.688858 
L 784.577455 337.495481 
L 787.291958 337.495481 
L 788.649209 327.278258 
L 790.006461 337.495481 
L 791.363712 335.882235 
L 792.720964 336.419984 
L 794.078215 333.731241 
L 795.435467 337.495481 
L 796.792718 334.537864 
L 798.14997 337.495481 
L 799.507221 333.462366 
L 800.864472 337.226606 
L 802.221724 337.495481 
L 803.578975 335.613361 
L 804.936227 337.495481 
L 806.293478 332.924618 
L 807.65073 337.495481 
L 809.007981 326.471635 
L 810.365233 337.495481 
L 811.722484 334.000115 
L 813.079735 337.495481 
L 815.794238 337.495481 
L 817.15149 329.160378 
L 818.508741 337.495481 
L 819.865993 332.655744 
L 821.223244 337.495481 
L 825.294998 337.495481 
L 826.65225 326.471635 
L 829.366753 335.344486 
L 830.724004 335.344486 
L 832.081256 336.151109 
L 833.438507 337.495481 
L 834.795759 336.419984 
L 836.15301 327.278258 
L 837.510261 337.495481 
L 838.867513 327.009384 
L 840.224764 337.495481 
L 841.582016 337.495481 
L 842.939267 332.655744 
L 844.296519 331.311372 
L 845.65377 330.235875 
L 847.011022 331.849121 
L 848.368273 325.933887 
L 849.725524 329.698127 
L 851.082776 328.084881 
L 852.440027 337.495481 
L 853.797279 325.396138 
L 855.15453 323.245144 
L 856.511782 326.471635 
L 857.869033 311.414676 
L 859.226285 320.287527 
L 860.583536 316.792161 
L 861.940787 337.495481 
L 863.298039 323.245144 
L 864.65529 316.792161 
L 866.012542 320.287527 
L 867.369793 307.91931 
L 868.727045 320.287527 
L 870.084296 312.759047 
L 871.441548 337.495481 
L 872.798799 318.674281 
L 874.15605 322.97627 
L 875.513302 315.985538 
L 876.870553 337.495481 
L 878.227805 300.928579 
L 879.585056 337.495481 
L 882.299559 337.495481 
L 883.656811 269.739163 
L 885.014062 309.263681 
L 886.371313 337.495481 
L 887.728565 304.15507 
L 889.085816 337.495481 
L 890.443068 337.495481 
L 891.800319 285.333871 
L 893.157571 312.759047 
L 894.514822 311.414676 
L 895.872074 319.480904 
L 897.229325 337.495481 
L 898.586576 293.400099 
L 899.943828 337.495481 
L 901.301079 311.68355 
L 902.658331 308.994807 
L 904.015582 306.574939 
L 905.372834 337.495481 
L 906.730085 337.495481 
L 908.087337 249.842466 
L 909.444588 337.495481 
L 910.801839 310.608053 
L 912.159091 337.495481 
L 913.516342 285.064996 
L 914.873594 337.495481 
L 916.230845 269.739163 
L 917.588097 337.495481 
L 918.945348 337.495481 
L 920.3026 288.022613 
L 921.659851 337.495481 
L 923.017102 275.385522 
L 924.374354 337.495481 
L 925.731605 337.495481 
L 927.088857 243.927232 
L 928.446108 337.495481 
L 929.80336 299.853082 
L 931.160611 337.495481 
L 932.517863 268.394791 
L 933.875114 337.495481 
L 939.30412 337.495481 
L 940.661371 176.977537 
L 942.018623 337.495481 
L 943.375874 337.495481 
L 944.733126 250.649089 
L 946.090377 337.495481 
L 948.80488 337.495481 
L 950.162131 238.280872 
L 951.519383 337.495481 
L 969.163652 337.495481 
L 970.520903 141.486132 
L 971.878154 337.495481 
L 984.093417 337.495481 
L 985.450669 150.627857 
L 986.80792 337.495481 
L 992.236926 337.495481 
L 993.594178 298.777585 
L 994.951429 337.495481 
L 1003.094938 337.495481 
L 1004.452189 302.004076 
L 1005.809441 337.495481 
L 1011.238446 337.495481 
L 1012.595698 324.85839 
L 1013.952949 337.495481 
L 1022.096458 337.495481 
L 1023.453709 328.084881 
L 1024.810961 337.495481 
L 1031.597218 337.495481 
L 1032.954469 331.311372 
L 1034.311721 337.495481 
L 1041.097978 337.495481 
L 1042.45523 311.952424 
L 1043.812481 337.495481 
L 1049.241487 337.495481 
L 1050.598738 239.894118 
L 1051.95599 337.495481 
L 1066.885756 337.495481 
L 1068.243007 141.486132 
L 1069.600258 337.495481 
L 1087.244527 337.495481 
L 1088.601779 321.09415 
L 1089.95903 337.495481 
L 1092.673533 337.495481 
L 1094.030784 50.8755 
L 1095.388036 337.495481 
L 1103.531545 337.495481 
L 1104.888796 154.929846 
L 1106.246047 337.495481 
L 1111.675053 337.495481 
L 1113.032305 300.928579 
L 1114.389556 337.495481 
L 1122.533065 337.495481 
L 1123.890316 322.169647 
L 1125.247568 337.495481 
L 1130.676573 337.495481 
L 1132.033825 323.245144 
L 1133.391076 337.495481 
L 1141.534585 337.495481 
L 1142.891836 327.278258 
L 1144.249088 337.495481 
L 1149.678094 337.495481 
L 1151.035345 324.320641 
L 1152.392597 337.495481 
L 1159.178854 337.495481 
L 1160.536105 334.806738 
L 1161.893357 337.495481 
L 1189.038386 337.495481 
L 1190.395637 321.09415 
L 1191.752888 337.495481 
L 1206.682654 337.495481 
L 1208.039906 333.731241 
L 1209.397157 337.495481 
L 1236.542186 337.495481 
L 1237.899438 333.731241 
L 1239.256689 332.386869 
L 1240.61394 337.495481 
L 1247.400198 337.495481 
L 1248.757449 336.688858 
L 1250.114701 337.495481 
L 1255.543706 337.495481 
L 1256.900958 333.731241 
L 1258.258209 337.495481 
L 1263.687215 337.495481 
L 1265.044466 329.429252 
L 1266.401718 337.495481 
L 1282.688735 337.495481 
L 1284.045987 307.91931 
L 1285.403238 337.495481 
L 1292.189495 337.495481 
L 1293.546747 317.867658 
L 1294.903998 337.495481 
L 1300.333004 337.495481 
L 1300.333004 337.495481 
" clip-path="url(#p0c087c0315)" style="fill: none; stroke: #0000ff; stroke-width: 1.5; stroke-linecap: square"/>
   </g>
   <g id="line2d_19">
    <path d="M 1061.45675 330.726825 
L 1064.171253 332.419533 
L 1066.885756 333.341545 
L 1068.243007 348.207323 
L 1069.600258 331.228899 
L 1070.95751 325.634511 
L 1072.314761 315.75165 
L 1075.029264 319.701273 
L 1076.386516 310.423997 
L 1077.743767 322.123339 
L 1079.101019 324.482772 
L 1081.815521 327.776726 
L 1084.530024 329.542073 
L 1087.244527 330.986757 
L 1088.601779 332.818254 
L 1089.95903 331.929109 
L 1091.316282 331.941844 
L 1092.673533 331.549878 
L 1094.030784 353.2755 
L 1095.388036 328.437244 
L 1096.745287 319.328373 
L 1098.102539 305.718311 
L 1099.45979 308.823636 
L 1100.817042 311.58706 
L 1102.174293 298.062066 
L 1104.888796 332.069363 
L 1106.246047 318.231386 
L 1107.603299 315.202984 
L 1108.96055 307.070392 
L 1110.317802 309.972013 
L 1111.675053 312.596908 
L 1113.032305 307.449275 
L 1114.389556 315.830107 
L 1115.746808 317.57328 
L 1117.104059 317.741409 
L 1118.46131 320.199708 
L 1119.818562 321.849194 
L 1121.175813 321.294039 
L 1122.533065 324.540103 
L 1123.890316 327.073689 
L 1125.247568 326.88463 
L 1126.604819 327.527472 
L 1127.962071 327.616935 
L 1132.033825 330.376192 
L 1134.748328 330.884489 
L 1136.105579 330.741336 
L 1138.820082 332.011799 
L 1140.177334 331.736917 
L 1142.891836 334.201771 
L 1144.249088 333.709325 
L 1145.606339 333.792474 
L 1146.963591 333.571508 
L 1149.678094 334.284272 
L 1151.035345 334.991055 
L 1152.392597 334.632619 
L 1153.749848 334.536018 
L 1155.107099 334.096019 
L 1157.821602 334.742588 
L 1159.178854 334.267488 
L 1160.536105 335.386665 
L 1163.250608 335.564393 
L 1165.965111 335.815983 
L 1167.322362 335.976156 
L 1168.679614 335.970514 
L 1170.036865 336.241018 
L 1175.465871 336.675974 
L 1183.60938 337.046342 
L 1189.038386 337.194689 
L 1190.395637 338.434139 
L 1191.752888 337.009411 
L 1193.11014 336.537641 
L 1194.467391 335.707377 
L 1197.181894 336.032174 
L 1198.539146 335.25344 
L 1199.896397 336.230185 
L 1202.6109 336.556654 
L 1205.325403 336.773864 
L 1206.682654 336.842684 
L 1208.039906 337.182821 
L 1209.397157 336.906198 
L 1213.468912 336.770569 
L 1214.826163 336.839703 
L 1216.183414 336.69149 
L 1217.540666 336.943263 
L 1224.326923 337.187037 
L 1236.542186 337.370334 
L 1237.899438 337.66015 
L 1239.256689 337.715127 
L 1240.61394 337.159381 
L 1241.971192 336.818533 
L 1243.328443 336.596033 
L 1244.685695 336.681813 
L 1246.042946 336.548657 
L 1247.400198 336.528028 
L 1248.757449 336.934628 
L 1255.543706 337.104423 
L 1256.900958 337.374437 
L 1258.258209 337.11706 
L 1262.329964 336.933509 
L 1263.687215 336.987104 
L 1265.044466 337.420291 
L 1266.401718 336.945898 
L 1267.758969 336.760653 
L 1269.116221 336.384138 
L 1271.830724 336.596719 
L 1273.187975 336.230816 
L 1274.545227 336.726635 
L 1278.616981 336.994666 
L 1282.688735 337.124723 
L 1284.045987 339.343426 
L 1285.403238 336.759435 
L 1286.76049 335.895306 
L 1288.117741 334.385988 
L 1290.832244 334.950807 
L 1292.189495 333.537561 
L 1293.546747 336.739734 
L 1294.903998 335.348743 
L 1296.26125 334.985735 
L 1297.618501 334.215223 
L 1300.333004 334.81106 
L 1300.333004 334.81106 
" clip-path="url(#p0c087c0315)" style="fill: none; stroke: #ffa500; stroke-width: 1.5; stroke-linecap: square"/>
   </g>
   <g id="line2d_20">
    <path d="M 1300.333004 334.81106 
L 1301.690255 334.166303 
L 1303.047507 335.424039 
L 1304.404758 335.508144 
L 1305.76201 335.454454 
L 1307.119261 335.447231 
L 1308.476513 335.44844 
L 1309.833764 335.30159 
L 1311.191016 335.265207 
L 1312.548267 335.335304 
L 1313.905518 335.339898 
L 1315.26277 335.336956 
L 1316.620021 335.336569 
L 1317.977273 335.336635 
" clip-path="url(#p0c087c0315)" style="fill: none; stroke: #ff0000; stroke-width: 1.5; stroke-linecap: square"/>
   </g>
   <g id="patch_3">
    <path d="M 39.65 368.3955 
L 39.65 35.7555 
" style="fill: none; stroke: #000000; stroke-width: 0.8; stroke-linejoin: miter; stroke-linecap: square"/>
   </g>
   <g id="patch_4">
    <path d="M 1378.85 368.3955 
L 1378.85 35.7555 
" style="fill: none; stroke: #000000; stroke-width: 0.8; stroke-linejoin: miter; stroke-linecap: square"/>
   </g>
   <g id="patch_5">
    <path d="M 39.65 368.3955 
L 1378.85 368.3955 
" style="fill: none; stroke: #000000; stroke-width: 0.8; stroke-linejoin: miter; stroke-linecap: square"/>
   </g>
   <g id="patch_6">
    <path d="M 39.65 35.7555 
L 1378.85 35.7555 
" style="fill: none; stroke: #000000; stroke-width: 0.8; stroke-linejoin: miter; stroke-linecap: square"/>
   </g>
   <g id="text_18">
    <!-- Daily Confirmed Cases Forecasting - Somalia -->
    <g transform="translate(574.7375 16.318125)scale(0.12 -0.12)">
     <defs>
      <path id="DejaVuSans-44" d="M 1259 4147 
L 1259 519 
L 2022 519 
Q 2988 519 3436 956 
Q 3884 1394 3884 2338 
Q 3884 3275 3436 3711 
Q 2988 4147 2022 4147 
L 1259 4147 
z
M 628 4666 
L 1925 4666 
Q 3281 4666 3915 4102 
Q 4550 3538 4550 2338 
Q 4550 1131 3912 565 
Q 3275 0 1925 0 
L 628 0 
L 628 4666 
z
" transform="scale(0.015625)"/>
      <path id="DejaVuSans-61" d="M 2194 1759 
Q 1497 1759 1228 1600 
Q 959 1441 959 1056 
Q 959 750 1161 570 
Q 1363 391 1709 391 
Q 2188 391 2477 730 
Q 2766 1069 2766 1631 
L 2766 1759 
L 2194 1759 
z
M 3341 1997 
L 3341 0 
L 2766 0 
L 2766 531 
Q 2569 213 2275 61 
Q 1981 -91 1556 -91 
Q 1019 -91 701 211 
Q 384 513 384 1019 
Q 384 1609 779 1909 
Q 1175 2209 1959 2209 
L 2766 2209 
L 2766 2266 
Q 2766 2663 2505 2880 
Q 2244 3097 1772 3097 
Q 1472 3097 1187 3025 
Q 903 2953 641 2809 
L 641 3341 
Q 956 3463 1253 3523 
Q 1550 3584 1831 3584 
Q 2591 3584 2966 3190 
Q 3341 2797 3341 1997 
z
" transform="scale(0.015625)"/>
      <path id="DejaVuSans-69" d="M 603 3500 
L 1178 3500 
L 1178 0 
L 603 0 
L 603 3500 
z
M 603 4863 
L 1178 4863 
L 1178 4134 
L 603 4134 
L 603 4863 
z
" transform="scale(0.015625)"/>
      <path id="DejaVuSans-6c" d="M 603 4863 
L 1178 4863 
L 1178 0 
L 603 0 
L 603 4863 
z
" transform="scale(0.015625)"/>
      <path id="DejaVuSans-79" d="M 2059 -325 
Q 1816 -950 1584 -1140 
Q 1353 -1331 966 -1331 
L 506 -1331 
L 506 -850 
L 844 -850 
Q 1081 -850 1212 -737 
Q 1344 -625 1503 -206 
L 1606 56 
L 191 3500 
L 800 3500 
L 1894 763 
L 2988 3500 
L 3597 3500 
L 2059 -325 
z
" transform="scale(0.015625)"/>
      <path id="DejaVuSans-20" transform="scale(0.015625)"/>
      <path id="DejaVuSans-43" d="M 4122 4306 
L 4122 3641 
Q 3803 3938 3442 4084 
Q 3081 4231 2675 4231 
Q 1875 4231 1450 3742 
Q 1025 3253 1025 2328 
Q 1025 1406 1450 917 
Q 1875 428 2675 428 
Q 3081 428 3442 575 
Q 3803 722 4122 1019 
L 4122 359 
Q 3791 134 3420 21 
Q 3050 -91 2638 -91 
Q 1578 -91 968 557 
Q 359 1206 359 2328 
Q 359 3453 968 4101 
Q 1578 4750 2638 4750 
Q 3056 4750 3426 4639 
Q 3797 4528 4122 4306 
z
" transform="scale(0.015625)"/>
      <path id="DejaVuSans-6f" d="M 1959 3097 
Q 1497 3097 1228 2736 
Q 959 2375 959 1747 
Q 959 1119 1226 758 
Q 1494 397 1959 397 
Q 2419 397 2687 759 
Q 2956 1122 2956 1747 
Q 2956 2369 2687 2733 
Q 2419 3097 1959 3097 
z
M 1959 3584 
Q 2709 3584 3137 3096 
Q 3566 2609 3566 1747 
Q 3566 888 3137 398 
Q 2709 -91 1959 -91 
Q 1206 -91 779 398 
Q 353 888 353 1747 
Q 353 2609 779 3096 
Q 1206 3584 1959 3584 
z
" transform="scale(0.015625)"/>
      <path id="DejaVuSans-6e" d="M 3513 2113 
L 3513 0 
L 2938 0 
L 2938 2094 
Q 2938 2591 2744 2837 
Q 2550 3084 2163 3084 
Q 1697 3084 1428 2787 
Q 1159 2491 1159 1978 
L 1159 0 
L 581 0 
L 581 3500 
L 1159 3500 
L 1159 2956 
Q 1366 3272 1645 3428 
Q 1925 3584 2291 3584 
Q 2894 3584 3203 3211 
Q 3513 2838 3513 2113 
z
" transform="scale(0.015625)"/>
      <path id="DejaVuSans-66" d="M 2375 4863 
L 2375 4384 
L 1825 4384 
Q 1516 4384 1395 4259 
Q 1275 4134 1275 3809 
L 1275 3500 
L 2222 3500 
L 2222 3053 
L 1275 3053 
L 1275 0 
L 697 0 
L 697 3053 
L 147 3053 
L 147 3500 
L 697 3500 
L 697 3744 
Q 697 4328 969 4595 
Q 1241 4863 1831 4863 
L 2375 4863 
z
" transform="scale(0.015625)"/>
      <path id="DejaVuSans-72" d="M 2631 2963 
Q 2534 3019 2420 3045 
Q 2306 3072 2169 3072 
Q 1681 3072 1420 2755 
Q 1159 2438 1159 1844 
L 1159 0 
L 581 0 
L 581 3500 
L 1159 3500 
L 1159 2956 
Q 1341 3275 1631 3429 
Q 1922 3584 2338 3584 
Q 2397 3584 2469 3576 
Q 2541 3569 2628 3553 
L 2631 2963 
z
" transform="scale(0.015625)"/>
      <path id="DejaVuSans-6d" d="M 3328 2828 
Q 3544 3216 3844 3400 
Q 4144 3584 4550 3584 
Q 5097 3584 5394 3201 
Q 5691 2819 5691 2113 
L 5691 0 
L 5113 0 
L 5113 2094 
Q 5113 2597 4934 2840 
Q 4756 3084 4391 3084 
Q 3944 3084 3684 2787 
Q 3425 2491 3425 1978 
L 3425 0 
L 2847 0 
L 2847 2094 
Q 2847 2600 2669 2842 
Q 2491 3084 2119 3084 
Q 1678 3084 1418 2786 
Q 1159 2488 1159 1978 
L 1159 0 
L 581 0 
L 581 3500 
L 1159 3500 
L 1159 2956 
Q 1356 3278 1631 3431 
Q 1906 3584 2284 3584 
Q 2666 3584 2933 3390 
Q 3200 3197 3328 2828 
z
" transform="scale(0.015625)"/>
      <path id="DejaVuSans-65" d="M 3597 1894 
L 3597 1613 
L 953 1613 
Q 991 1019 1311 708 
Q 1631 397 2203 397 
Q 2534 397 2845 478 
Q 3156 559 3463 722 
L 3463 178 
Q 3153 47 2828 -22 
Q 2503 -91 2169 -91 
Q 1331 -91 842 396 
Q 353 884 353 1716 
Q 353 2575 817 3079 
Q 1281 3584 2069 3584 
Q 2775 3584 3186 3129 
Q 3597 2675 3597 1894 
z
M 3022 2063 
Q 3016 2534 2758 2815 
Q 2500 3097 2075 3097 
Q 1594 3097 1305 2825 
Q 1016 2553 972 2059 
L 3022 2063 
z
" transform="scale(0.015625)"/>
      <path id="DejaVuSans-64" d="M 2906 2969 
L 2906 4863 
L 3481 4863 
L 3481 0 
L 2906 0 
L 2906 525 
Q 2725 213 2448 61 
Q 2172 -91 1784 -91 
Q 1150 -91 751 415 
Q 353 922 353 1747 
Q 353 2572 751 3078 
Q 1150 3584 1784 3584 
Q 2172 3584 2448 3432 
Q 2725 3281 2906 2969 
z
M 947 1747 
Q 947 1113 1208 752 
Q 1469 391 1925 391 
Q 2381 391 2643 752 
Q 2906 1113 2906 1747 
Q 2906 2381 2643 2742 
Q 2381 3103 1925 3103 
Q 1469 3103 1208 2742 
Q 947 2381 947 1747 
z
" transform="scale(0.015625)"/>
      <path id="DejaVuSans-73" d="M 2834 3397 
L 2834 2853 
Q 2591 2978 2328 3040 
Q 2066 3103 1784 3103 
Q 1356 3103 1142 2972 
Q 928 2841 928 2578 
Q 928 2378 1081 2264 
Q 1234 2150 1697 2047 
L 1894 2003 
Q 2506 1872 2764 1633 
Q 3022 1394 3022 966 
Q 3022 478 2636 193 
Q 2250 -91 1575 -91 
Q 1294 -91 989 -36 
Q 684 19 347 128 
L 347 722 
Q 666 556 975 473 
Q 1284 391 1588 391 
Q 1994 391 2212 530 
Q 2431 669 2431 922 
Q 2431 1156 2273 1281 
Q 2116 1406 1581 1522 
L 1381 1569 
Q 847 1681 609 1914 
Q 372 2147 372 2553 
Q 372 3047 722 3315 
Q 1072 3584 1716 3584 
Q 2034 3584 2315 3537 
Q 2597 3491 2834 3397 
z
" transform="scale(0.015625)"/>
      <path id="DejaVuSans-46" d="M 628 4666 
L 3309 4666 
L 3309 4134 
L 1259 4134 
L 1259 2759 
L 3109 2759 
L 3109 2228 
L 1259 2228 
L 1259 0 
L 628 0 
L 628 4666 
z
" transform="scale(0.015625)"/>
      <path id="DejaVuSans-63" d="M 3122 3366 
L 3122 2828 
Q 2878 2963 2633 3030 
Q 2388 3097 2138 3097 
Q 1578 3097 1268 2742 
Q 959 2388 959 1747 
Q 959 1106 1268 751 
Q 1578 397 2138 397 
Q 2388 397 2633 464 
Q 2878 531 3122 666 
L 3122 134 
Q 2881 22 2623 -34 
Q 2366 -91 2075 -91 
Q 1284 -91 818 406 
Q 353 903 353 1747 
Q 353 2603 823 3093 
Q 1294 3584 2113 3584 
Q 2378 3584 2631 3529 
Q 2884 3475 3122 3366 
z
" transform="scale(0.015625)"/>
      <path id="DejaVuSans-74" d="M 1172 4494 
L 1172 3500 
L 2356 3500 
L 2356 3053 
L 1172 3053 
L 1172 1153 
Q 1172 725 1289 603 
Q 1406 481 1766 481 
L 2356 481 
L 2356 0 
L 1766 0 
Q 1100 0 847 248 
Q 594 497 594 1153 
L 594 3053 
L 172 3053 
L 172 3500 
L 594 3500 
L 594 4494 
L 1172 4494 
z
" transform="scale(0.015625)"/>
      <path id="DejaVuSans-67" d="M 2906 1791 
Q 2906 2416 2648 2759 
Q 2391 3103 1925 3103 
Q 1463 3103 1205 2759 
Q 947 2416 947 1791 
Q 947 1169 1205 825 
Q 1463 481 1925 481 
Q 2391 481 2648 825 
Q 2906 1169 2906 1791 
z
M 3481 434 
Q 3481 -459 3084 -895 
Q 2688 -1331 1869 -1331 
Q 1566 -1331 1297 -1286 
Q 1028 -1241 775 -1147 
L 775 -588 
Q 1028 -725 1275 -790 
Q 1522 -856 1778 -856 
Q 2344 -856 2625 -561 
Q 2906 -266 2906 331 
L 2906 616 
Q 2728 306 2450 153 
Q 2172 0 1784 0 
Q 1141 0 747 490 
Q 353 981 353 1791 
Q 353 2603 747 3093 
Q 1141 3584 1784 3584 
Q 2172 3584 2450 3431 
Q 2728 3278 2906 2969 
L 2906 3500 
L 3481 3500 
L 3481 434 
z
" transform="scale(0.015625)"/>
      <path id="DejaVuSans-53" d="M 3425 4513 
L 3425 3897 
Q 3066 4069 2747 4153 
Q 2428 4238 2131 4238 
Q 1616 4238 1336 4038 
Q 1056 3838 1056 3469 
Q 1056 3159 1242 3001 
Q 1428 2844 1947 2747 
L 2328 2669 
Q 3034 2534 3370 2195 
Q 3706 1856 3706 1288 
Q 3706 609 3251 259 
Q 2797 -91 1919 -91 
Q 1588 -91 1214 -16 
Q 841 59 441 206 
L 441 856 
Q 825 641 1194 531 
Q 1563 422 1919 422 
Q 2459 422 2753 634 
Q 3047 847 3047 1241 
Q 3047 1584 2836 1778 
Q 2625 1972 2144 2069 
L 1759 2144 
Q 1053 2284 737 2584 
Q 422 2884 422 3419 
Q 422 4038 858 4394 
Q 1294 4750 2059 4750 
Q 2388 4750 2728 4690 
Q 3069 4631 3425 4513 
z
" transform="scale(0.015625)"/>
     </defs>
     <use xlink:href="#DejaVuSans-44"/>
     <use xlink:href="#DejaVuSans-61" x="77.001953"/>
     <use xlink:href="#DejaVuSans-69" x="138.28125"/>
     <use xlink:href="#DejaVuSans-6c" x="166.064453"/>
     <use xlink:href="#DejaVuSans-79" x="193.847656"/>
     <use xlink:href="#DejaVuSans-20" x="253.027344"/>
     <use xlink:href="#DejaVuSans-43" x="284.814453"/>
     <use xlink:href="#DejaVuSans-6f" x="354.638672"/>
     <use xlink:href="#DejaVuSans-6e" x="415.820312"/>
     <use xlink:href="#DejaVuSans-66" x="479.199219"/>
     <use xlink:href="#DejaVuSans-69" x="514.404297"/>
     <use xlink:href="#DejaVuSans-72" x="542.1875"/>
     <use xlink:href="#DejaVuSans-6d" x="581.550781"/>
     <use xlink:href="#DejaVuSans-65" x="678.962891"/>
     <use xlink:href="#DejaVuSans-64" x="740.486328"/>
     <use xlink:href="#DejaVuSans-20" x="803.962891"/>
     <use xlink:href="#DejaVuSans-43" x="835.75"/>
     <use xlink:href="#DejaVuSans-61" x="905.574219"/>
     <use xlink:href="#DejaVuSans-73" x="966.853516"/>
     <use xlink:href="#DejaVuSans-65" x="1018.953125"/>
     <use xlink:href="#DejaVuSans-73" x="1080.476562"/>
     <use xlink:href="#DejaVuSans-20" x="1132.576172"/>
     <use xlink:href="#DejaVuSans-46" x="1164.363281"/>
     <use xlink:href="#DejaVuSans-6f" x="1218.257812"/>
     <use xlink:href="#DejaVuSans-72" x="1279.439453"/>
     <use xlink:href="#DejaVuSans-65" x="1318.302734"/>
     <use xlink:href="#DejaVuSans-63" x="1379.826172"/>
     <use xlink:href="#DejaVuSans-61" x="1434.806641"/>
     <use xlink:href="#DejaVuSans-73" x="1496.085938"/>
     <use xlink:href="#DejaVuSans-74" x="1548.185547"/>
     <use xlink:href="#DejaVuSans-69" x="1587.394531"/>
     <use xlink:href="#DejaVuSans-6e" x="1615.177734"/>
     <use xlink:href="#DejaVuSans-67" x="1678.556641"/>
     <use xlink:href="#DejaVuSans-20" x="1742.033203"/>
     <use xlink:href="#DejaVuSans-2d" x="1773.820312"/>
     <use xlink:href="#DejaVuSans-20" x="1809.904297"/>
     <use xlink:href="#DejaVuSans-53" x="1841.691406"/>
     <use xlink:href="#DejaVuSans-6f" x="1905.167969"/>
     <use xlink:href="#DejaVuSans-6d" x="1966.349609"/>
     <use xlink:href="#DejaVuSans-61" x="2063.761719"/>
     <use xlink:href="#DejaVuSans-6c" x="2125.041016"/>
     <use xlink:href="#DejaVuSans-69" x="2152.824219"/>
     <use xlink:href="#DejaVuSans-61" x="2180.607422"/>
    </g>
    <!-- ARIMA (3, 1, 1)x(1, 0, 0, 7) (R2 = -0.186313) -->
    <g transform="translate(575.10125 29.7555)scale(0.12 -0.12)">
     <defs>
      <path id="DejaVuSans-41" d="M 2188 4044 
L 1331 1722 
L 3047 1722 
L 2188 4044 
z
M 1831 4666 
L 2547 4666 
L 4325 0 
L 3669 0 
L 3244 1197 
L 1141 1197 
L 716 0 
L 50 0 
L 1831 4666 
z
" transform="scale(0.015625)"/>
      <path id="DejaVuSans-52" d="M 2841 2188 
Q 3044 2119 3236 1894 
Q 3428 1669 3622 1275 
L 4263 0 
L 3584 0 
L 2988 1197 
Q 2756 1666 2539 1819 
Q 2322 1972 1947 1972 
L 1259 1972 
L 1259 0 
L 628 0 
L 628 4666 
L 2053 4666 
Q 2853 4666 3247 4331 
Q 3641 3997 3641 3322 
Q 3641 2881 3436 2590 
Q 3231 2300 2841 2188 
z
M 1259 4147 
L 1259 2491 
L 2053 2491 
Q 2509 2491 2742 2702 
Q 2975 2913 2975 3322 
Q 2975 3731 2742 3939 
Q 2509 4147 2053 4147 
L 1259 4147 
z
" transform="scale(0.015625)"/>
      <path id="DejaVuSans-49" d="M 628 4666 
L 1259 4666 
L 1259 0 
L 628 0 
L 628 4666 
z
" transform="scale(0.015625)"/>
      <path id="DejaVuSans-4d" d="M 628 4666 
L 1569 4666 
L 2759 1491 
L 3956 4666 
L 4897 4666 
L 4897 0 
L 4281 0 
L 4281 4097 
L 3078 897 
L 2444 897 
L 1241 4097 
L 1241 0 
L 628 0 
L 628 4666 
z
" transform="scale(0.015625)"/>
      <path id="DejaVuSans-28" d="M 1984 4856 
Q 1566 4138 1362 3434 
Q 1159 2731 1159 2009 
Q 1159 1288 1364 580 
Q 1569 -128 1984 -844 
L 1484 -844 
Q 1016 -109 783 600 
Q 550 1309 550 2009 
Q 550 2706 781 3412 
Q 1013 4119 1484 4856 
L 1984 4856 
z
" transform="scale(0.015625)"/>
      <path id="DejaVuSans-33" d="M 2597 2516 
Q 3050 2419 3304 2112 
Q 3559 1806 3559 1356 
Q 3559 666 3084 287 
Q 2609 -91 1734 -91 
Q 1441 -91 1130 -33 
Q 819 25 488 141 
L 488 750 
Q 750 597 1062 519 
Q 1375 441 1716 441 
Q 2309 441 2620 675 
Q 2931 909 2931 1356 
Q 2931 1769 2642 2001 
Q 2353 2234 1838 2234 
L 1294 2234 
L 1294 2753 
L 1863 2753 
Q 2328 2753 2575 2939 
Q 2822 3125 2822 3475 
Q 2822 3834 2567 4026 
Q 2313 4219 1838 4219 
Q 1578 4219 1281 4162 
Q 984 4106 628 3988 
L 628 4550 
Q 988 4650 1302 4700 
Q 1616 4750 1894 4750 
Q 2613 4750 3031 4423 
Q 3450 4097 3450 3541 
Q 3450 3153 3228 2886 
Q 3006 2619 2597 2516 
z
" transform="scale(0.015625)"/>
      <path id="DejaVuSans-2c" d="M 750 794 
L 1409 794 
L 1409 256 
L 897 -744 
L 494 -744 
L 750 256 
L 750 794 
z
" transform="scale(0.015625)"/>
      <path id="DejaVuSans-29" d="M 513 4856 
L 1013 4856 
Q 1481 4119 1714 3412 
Q 1947 2706 1947 2009 
Q 1947 1309 1714 600 
Q 1481 -109 1013 -844 
L 513 -844 
Q 928 -128 1133 580 
Q 1338 1288 1338 2009 
Q 1338 2731 1133 3434 
Q 928 4138 513 4856 
z
" transform="scale(0.015625)"/>
      <path id="DejaVuSans-78" d="M 3513 3500 
L 2247 1797 
L 3578 0 
L 2900 0 
L 1881 1375 
L 863 0 
L 184 0 
L 1544 1831 
L 300 3500 
L 978 3500 
L 1906 2253 
L 2834 3500 
L 3513 3500 
z
" transform="scale(0.015625)"/>
      <path id="DejaVuSans-3d" d="M 678 2906 
L 4684 2906 
L 4684 2381 
L 678 2381 
L 678 2906 
z
M 678 1631 
L 4684 1631 
L 4684 1100 
L 678 1100 
L 678 1631 
z
" transform="scale(0.015625)"/>
      <path id="DejaVuSans-2e" d="M 684 794 
L 1344 794 
L 1344 0 
L 684 0 
L 684 794 
z
" transform="scale(0.015625)"/>
     </defs>
     <use xlink:href="#DejaVuSans-41"/>
     <use xlink:href="#DejaVuSans-52" x="68.408203"/>
     <use xlink:href="#DejaVuSans-49" x="137.890625"/>
     <use xlink:href="#DejaVuSans-4d" x="167.382812"/>
     <use xlink:href="#DejaVuSans-41" x="253.662109"/>
     <use xlink:href="#DejaVuSans-20" x="322.070312"/>
     <use xlink:href="#DejaVuSans-28" x="353.857422"/>
     <use xlink:href="#DejaVuSans-33" x="392.871094"/>
     <use xlink:href="#DejaVuSans-2c" x="456.494141"/>
     <use xlink:href="#DejaVuSans-20" x="488.28125"/>
     <use xlink:href="#DejaVuSans-31" x="520.068359"/>
     <use xlink:href="#DejaVuSans-2c" x="583.691406"/>
     <use xlink:href="#DejaVuSans-20" x="615.478516"/>
     <use xlink:href="#DejaVuSans-31" x="647.265625"/>
     <use xlink:href="#DejaVuSans-29" x="710.888672"/>
     <use xlink:href="#DejaVuSans-78" x="749.902344"/>
     <use xlink:href="#DejaVuSans-28" x="809.082031"/>
     <use xlink:href="#DejaVuSans-31" x="848.095703"/>
     <use xlink:href="#DejaVuSans-2c" x="911.71875"/>
     <use xlink:href="#DejaVuSans-20" x="943.505859"/>
     <use xlink:href="#DejaVuSans-30" x="975.292969"/>
     <use xlink:href="#DejaVuSans-2c" x="1038.916016"/>
     <use xlink:href="#DejaVuSans-20" x="1070.703125"/>
     <use xlink:href="#DejaVuSans-30" x="1102.490234"/>
     <use xlink:href="#DejaVuSans-2c" x="1166.113281"/>
     <use xlink:href="#DejaVuSans-20" x="1197.900391"/>
     <use xlink:href="#DejaVuSans-37" x="1229.6875"/>
     <use xlink:href="#DejaVuSans-29" x="1293.310547"/>
     <use xlink:href="#DejaVuSans-20" x="1332.324219"/>
     <use xlink:href="#DejaVuSans-28" x="1364.111328"/>
     <use xlink:href="#DejaVuSans-52" x="1403.125"/>
     <use xlink:href="#DejaVuSans-32" x="1472.607422"/>
     <use xlink:href="#DejaVuSans-20" x="1536.230469"/>
     <use xlink:href="#DejaVuSans-3d" x="1568.017578"/>
     <use xlink:href="#DejaVuSans-20" x="1651.806641"/>
     <use xlink:href="#DejaVuSans-2d" x="1683.59375"/>
     <use xlink:href="#DejaVuSans-30" x="1719.677734"/>
     <use xlink:href="#DejaVuSans-2e" x="1783.300781"/>
     <use xlink:href="#DejaVuSans-31" x="1815.087891"/>
     <use xlink:href="#DejaVuSans-38" x="1878.710938"/>
     <use xlink:href="#DejaVuSans-36" x="1942.333984"/>
     <use xlink:href="#DejaVuSans-33" x="2005.957031"/>
     <use xlink:href="#DejaVuSans-31" x="2069.580078"/>
     <use xlink:href="#DejaVuSans-33" x="2133.203125"/>
     <use xlink:href="#DejaVuSans-29" x="2196.826172"/>
    </g>
   </g>
   <g id="legend_1">
    <g id="patch_7">
     <path d="M 1274.770313 87.789875 
L 1371.85 87.789875 
Q 1373.85 87.789875 1373.85 85.789875 
L 1373.85 42.7555 
Q 1373.85 40.7555 1371.85 40.7555 
L 1274.770313 40.7555 
Q 1272.770313 40.7555 1272.770313 42.7555 
L 1272.770313 85.789875 
Q 1272.770313 87.789875 1274.770313 87.789875 
z
" style="fill: #ffffff; opacity: 0.8; stroke: #cccccc; stroke-linejoin: miter"/>
    </g>
    <g id="line2d_21">
     <path d="M 1276.770313 48.853937 
L 1286.770313 48.853937 
L 1296.770313 48.853937 
" style="fill: none; stroke: #0000ff; stroke-width: 1.5; stroke-linecap: square"/>
    </g>
    <g id="text_19">
     <!-- Actual Value -->
     <g transform="translate(1304.770313 52.353937)scale(0.1 -0.1)">
      <defs>
       <path id="DejaVuSans-75" d="M 544 1381 
L 544 3500 
L 1119 3500 
L 1119 1403 
Q 1119 906 1312 657 
Q 1506 409 1894 409 
Q 2359 409 2629 706 
Q 2900 1003 2900 1516 
L 2900 3500 
L 3475 3500 
L 3475 0 
L 2900 0 
L 2900 538 
Q 2691 219 2414 64 
Q 2138 -91 1772 -91 
Q 1169 -91 856 284 
Q 544 659 544 1381 
z
M 1991 3584 
L 1991 3584 
z
" transform="scale(0.015625)"/>
       <path id="DejaVuSans-56" d="M 1831 0 
L 50 4666 
L 709 4666 
L 2188 738 
L 3669 4666 
L 4325 4666 
L 2547 0 
L 1831 0 
z
" transform="scale(0.015625)"/>
      </defs>
      <use xlink:href="#DejaVuSans-41"/>
      <use xlink:href="#DejaVuSans-63" x="66.658203"/>
      <use xlink:href="#DejaVuSans-74" x="121.638672"/>
      <use xlink:href="#DejaVuSans-75" x="160.847656"/>
      <use xlink:href="#DejaVuSans-61" x="224.226562"/>
      <use xlink:href="#DejaVuSans-6c" x="285.505859"/>
      <use xlink:href="#DejaVuSans-20" x="313.289062"/>
      <use xlink:href="#DejaVuSans-56" x="345.076172"/>
      <use xlink:href="#DejaVuSans-61" x="405.734375"/>
      <use xlink:href="#DejaVuSans-6c" x="467.013672"/>
      <use xlink:href="#DejaVuSans-75" x="494.796875"/>
      <use xlink:href="#DejaVuSans-65" x="558.175781"/>
     </g>
    </g>
    <g id="line2d_22">
     <path d="M 1276.770313 63.532062 
L 1286.770313 63.532062 
L 1296.770313 63.532062 
" style="fill: none; stroke: #ffa500; stroke-width: 1.5; stroke-linecap: square"/>
    </g>
    <g id="text_20">
     <!-- Check Value -->
     <g transform="translate(1304.770313 67.032062)scale(0.1 -0.1)">
      <defs>
       <path id="DejaVuSans-68" d="M 3513 2113 
L 3513 0 
L 2938 0 
L 2938 2094 
Q 2938 2591 2744 2837 
Q 2550 3084 2163 3084 
Q 1697 3084 1428 2787 
Q 1159 2491 1159 1978 
L 1159 0 
L 581 0 
L 581 4863 
L 1159 4863 
L 1159 2956 
Q 1366 3272 1645 3428 
Q 1925 3584 2291 3584 
Q 2894 3584 3203 3211 
Q 3513 2838 3513 2113 
z
" transform="scale(0.015625)"/>
       <path id="DejaVuSans-6b" d="M 581 4863 
L 1159 4863 
L 1159 1991 
L 2875 3500 
L 3609 3500 
L 1753 1863 
L 3688 0 
L 2938 0 
L 1159 1709 
L 1159 0 
L 581 0 
L 581 4863 
z
" transform="scale(0.015625)"/>
      </defs>
      <use xlink:href="#DejaVuSans-43"/>
      <use xlink:href="#DejaVuSans-68" x="69.824219"/>
      <use xlink:href="#DejaVuSans-65" x="133.203125"/>
      <use xlink:href="#DejaVuSans-63" x="194.726562"/>
      <use xlink:href="#DejaVuSans-6b" x="249.707031"/>
      <use xlink:href="#DejaVuSans-20" x="307.617188"/>
      <use xlink:href="#DejaVuSans-56" x="339.404297"/>
      <use xlink:href="#DejaVuSans-61" x="400.0625"/>
      <use xlink:href="#DejaVuSans-6c" x="461.341797"/>
      <use xlink:href="#DejaVuSans-75" x="489.125"/>
      <use xlink:href="#DejaVuSans-65" x="552.503906"/>
     </g>
    </g>
    <g id="line2d_23">
     <path d="M 1276.770313 78.210187 
L 1286.770313 78.210187 
L 1296.770313 78.210187 
" style="fill: none; stroke: #ff0000; stroke-width: 1.5; stroke-linecap: square"/>
    </g>
    <g id="text_21">
     <!-- Predict Value -->
     <g transform="translate(1304.770313 81.710187)scale(0.1 -0.1)">
      <defs>
       <path id="DejaVuSans-50" d="M 1259 4147 
L 1259 2394 
L 2053 2394 
Q 2494 2394 2734 2622 
Q 2975 2850 2975 3272 
Q 2975 3691 2734 3919 
Q 2494 4147 2053 4147 
L 1259 4147 
z
M 628 4666 
L 2053 4666 
Q 2838 4666 3239 4311 
Q 3641 3956 3641 3272 
Q 3641 2581 3239 2228 
Q 2838 1875 2053 1875 
L 1259 1875 
L 1259 0 
L 628 0 
L 628 4666 
z
" transform="scale(0.015625)"/>
      </defs>
      <use xlink:href="#DejaVuSans-50"/>
      <use xlink:href="#DejaVuSans-72" x="58.552734"/>
      <use xlink:href="#DejaVuSans-65" x="97.416016"/>
      <use xlink:href="#DejaVuSans-64" x="158.939453"/>
      <use xlink:href="#DejaVuSans-69" x="222.416016"/>
      <use xlink:href="#DejaVuSans-63" x="250.199219"/>
      <use xlink:href="#DejaVuSans-74" x="305.179688"/>
      <use xlink:href="#DejaVuSans-20" x="344.388672"/>
      <use xlink:href="#DejaVuSans-56" x="376.175781"/>
      <use xlink:href="#DejaVuSans-61" x="436.833984"/>
      <use xlink:href="#DejaVuSans-6c" x="498.113281"/>
      <use xlink:href="#DejaVuSans-75" x="525.896484"/>
      <use xlink:href="#DejaVuSans-65" x="589.275391"/>
     </g>
    </g>
   </g>
  </g>
 </g>
 <defs>
  <clipPath id="p0c087c0315">
   <rect x="39.65" y="35.7555" width="1339.2" height="332.64"/>
  </clipPath>
 </defs>
</svg>
