<?xml version="1.0" encoding="utf-8" standalone="no"?>
<!DOCTYPE svg PUBLIC "-//W3C//DTD SVG 1.1//EN"
  "http://www.w3.org/Graphics/SVG/1.1/DTD/svg11.dtd">
<svg xmlns:xlink="http://www.w3.org/1999/xlink" width="1394.429688pt" height="392.273625pt" viewBox="0 0 1394.429688 392.273625" xmlns="http://www.w3.org/2000/svg" version="1.1">
 <metadata>
  <rdf:RDF xmlns:dc="http://purl.org/dc/elements/1.1/" xmlns:cc="http://creativecommons.org/ns#" xmlns:rdf="http://www.w3.org/1999/02/22-rdf-syntax-ns#">
   <cc:Work>
    <dc:type rdf:resource="http://purl.org/dc/dcmitype/StillImage"/>
    <dc:date>2022-06-26T19:28:46.485322</dc:date>
    <dc:format>image/svg+xml</dc:format>
    <dc:creator>
     <cc:Agent>
      <dc:title>Matplotlib v3.5.2, https://matplotlib.org/</dc:title>
     </cc:Agent>
    </dc:creator>
   </cc:Work>
  </rdf:RDF>
 </metadata>
 <defs>
  <style type="text/css">*{stroke-linejoin: round; stroke-linecap: butt}</style>
 </defs>
 <g id="figure_1">
  <g id="patch_1">
   <path d="M 0 392.273625 
L 1394.429688 392.273625 
L 1394.429688 0 
L 0 0 
z
" style="fill: #ffffff"/>
  </g>
  <g id="axes_1">
   <g id="patch_2">
    <path d="M 48.029688 368.3955 
L 1387.229688 368.3955 
L 1387.229688 35.7555 
L 48.029688 35.7555 
z
" style="fill: #ffffff"/>
   </g>
   <g id="matplotlib.axis_1">
    <g id="xtick_1">
     <g id="line2d_1">
      <defs>
       <path id="me861812de6" d="M 0 0 
L 0 3.5 
" style="stroke: #000000; stroke-width: 0.8"/>
      </defs>
      <g>
       <use xlink:href="#me861812de6" x="79.042883" y="368.3955" style="stroke: #000000; stroke-width: 0.8"/>
      </g>
     </g>
     <g id="text_1">
      <!-- 2020-01 -->
      <g transform="translate(58.151477 382.993937)scale(0.1 -0.1)">
       <defs>
        <path id="DejaVuSans-32" d="M 1228 531 
L 3431 531 
L 3431 0 
L 469 0 
L 469 531 
Q 828 903 1448 1529 
Q 2069 2156 2228 2338 
Q 2531 2678 2651 2914 
Q 2772 3150 2772 3378 
Q 2772 3750 2511 3984 
Q 2250 4219 1831 4219 
Q 1534 4219 1204 4116 
Q 875 4013 500 3803 
L 500 4441 
Q 881 4594 1212 4672 
Q 1544 4750 1819 4750 
Q 2544 4750 2975 4387 
Q 3406 4025 3406 3419 
Q 3406 3131 3298 2873 
Q 3191 2616 2906 2266 
Q 2828 2175 2409 1742 
Q 1991 1309 1228 531 
z
" transform="scale(0.015625)"/>
        <path id="DejaVuSans-30" d="M 2034 4250 
Q 1547 4250 1301 3770 
Q 1056 3291 1056 2328 
Q 1056 1369 1301 889 
Q 1547 409 2034 409 
Q 2525 409 2770 889 
Q 3016 1369 3016 2328 
Q 3016 3291 2770 3770 
Q 2525 4250 2034 4250 
z
M 2034 4750 
Q 2819 4750 3233 4129 
Q 3647 3509 3647 2328 
Q 3647 1150 3233 529 
Q 2819 -91 2034 -91 
Q 1250 -91 836 529 
Q 422 1150 422 2328 
Q 422 3509 836 4129 
Q 1250 4750 2034 4750 
z
" transform="scale(0.015625)"/>
        <path id="DejaVuSans-2d" d="M 313 2009 
L 1997 2009 
L 1997 1497 
L 313 1497 
L 313 2009 
z
" transform="scale(0.015625)"/>
        <path id="DejaVuSans-31" d="M 794 531 
L 1825 531 
L 1825 4091 
L 703 3866 
L 703 4441 
L 1819 4666 
L 2450 4666 
L 2450 531 
L 3481 531 
L 3481 0 
L 794 0 
L 794 531 
z
" transform="scale(0.015625)"/>
       </defs>
       <use xlink:href="#DejaVuSans-32"/>
       <use xlink:href="#DejaVuSans-30" x="63.623047"/>
       <use xlink:href="#DejaVuSans-32" x="127.246094"/>
       <use xlink:href="#DejaVuSans-30" x="190.869141"/>
       <use xlink:href="#DejaVuSans-2d" x="254.492188"/>
       <use xlink:href="#DejaVuSans-30" x="290.576172"/>
       <use xlink:href="#DejaVuSans-31" x="354.199219"/>
      </g>
     </g>
    </g>
    <g id="xtick_2">
     <g id="line2d_2">
      <g>
       <use xlink:href="#me861812de6" x="202.552764" y="368.3955" style="stroke: #000000; stroke-width: 0.8"/>
      </g>
     </g>
     <g id="text_2">
      <!-- 2020-04 -->
      <g transform="translate(181.661358 382.993937)scale(0.1 -0.1)">
       <defs>
        <path id="DejaVuSans-34" d="M 2419 4116 
L 825 1625 
L 2419 1625 
L 2419 4116 
z
M 2253 4666 
L 3047 4666 
L 3047 1625 
L 3713 1625 
L 3713 1100 
L 3047 1100 
L 3047 0 
L 2419 0 
L 2419 1100 
L 313 1100 
L 313 1709 
L 2253 4666 
z
" transform="scale(0.015625)"/>
       </defs>
       <use xlink:href="#DejaVuSans-32"/>
       <use xlink:href="#DejaVuSans-30" x="63.623047"/>
       <use xlink:href="#DejaVuSans-32" x="127.246094"/>
       <use xlink:href="#DejaVuSans-30" x="190.869141"/>
       <use xlink:href="#DejaVuSans-2d" x="254.492188"/>
       <use xlink:href="#DejaVuSans-30" x="290.576172"/>
       <use xlink:href="#DejaVuSans-34" x="354.199219"/>
      </g>
     </g>
    </g>
    <g id="xtick_3">
     <g id="line2d_3">
      <g>
       <use xlink:href="#me861812de6" x="326.062646" y="368.3955" style="stroke: #000000; stroke-width: 0.8"/>
      </g>
     </g>
     <g id="text_3">
      <!-- 2020-07 -->
      <g transform="translate(305.17124 382.993937)scale(0.1 -0.1)">
       <defs>
        <path id="DejaVuSans-37" d="M 525 4666 
L 3525 4666 
L 3525 4397 
L 1831 0 
L 1172 0 
L 2766 4134 
L 525 4134 
L 525 4666 
z
" transform="scale(0.015625)"/>
       </defs>
       <use xlink:href="#DejaVuSans-32"/>
       <use xlink:href="#DejaVuSans-30" x="63.623047"/>
       <use xlink:href="#DejaVuSans-32" x="127.246094"/>
       <use xlink:href="#DejaVuSans-30" x="190.869141"/>
       <use xlink:href="#DejaVuSans-2d" x="254.492188"/>
       <use xlink:href="#DejaVuSans-30" x="290.576172"/>
       <use xlink:href="#DejaVuSans-37" x="354.199219"/>
      </g>
     </g>
    </g>
    <g id="xtick_4">
     <g id="line2d_4">
      <g>
       <use xlink:href="#me861812de6" x="450.929779" y="368.3955" style="stroke: #000000; stroke-width: 0.8"/>
      </g>
     </g>
     <g id="text_4">
      <!-- 2020-10 -->
      <g transform="translate(430.038372 382.993937)scale(0.1 -0.1)">
       <use xlink:href="#DejaVuSans-32"/>
       <use xlink:href="#DejaVuSans-30" x="63.623047"/>
       <use xlink:href="#DejaVuSans-32" x="127.246094"/>
       <use xlink:href="#DejaVuSans-30" x="190.869141"/>
       <use xlink:href="#DejaVuSans-2d" x="254.492188"/>
       <use xlink:href="#DejaVuSans-31" x="290.576172"/>
       <use xlink:href="#DejaVuSans-30" x="354.199219"/>
      </g>
     </g>
    </g>
    <g id="xtick_5">
     <g id="line2d_5">
      <g>
       <use xlink:href="#me861812de6" x="575.796912" y="368.3955" style="stroke: #000000; stroke-width: 0.8"/>
      </g>
     </g>
     <g id="text_5">
      <!-- 2021-01 -->
      <g transform="translate(554.905505 382.993937)scale(0.1 -0.1)">
       <use xlink:href="#DejaVuSans-32"/>
       <use xlink:href="#DejaVuSans-30" x="63.623047"/>
       <use xlink:href="#DejaVuSans-32" x="127.246094"/>
       <use xlink:href="#DejaVuSans-31" x="190.869141"/>
       <use xlink:href="#DejaVuSans-2d" x="254.492188"/>
       <use xlink:href="#DejaVuSans-30" x="290.576172"/>
       <use xlink:href="#DejaVuSans-31" x="354.199219"/>
      </g>
     </g>
    </g>
    <g id="xtick_6">
     <g id="line2d_6">
      <g>
       <use xlink:href="#me861812de6" x="697.949542" y="368.3955" style="stroke: #000000; stroke-width: 0.8"/>
      </g>
     </g>
     <g id="text_6">
      <!-- 2021-04 -->
      <g transform="translate(677.058135 382.993937)scale(0.1 -0.1)">
       <use xlink:href="#DejaVuSans-32"/>
       <use xlink:href="#DejaVuSans-30" x="63.623047"/>
       <use xlink:href="#DejaVuSans-32" x="127.246094"/>
       <use xlink:href="#DejaVuSans-31" x="190.869141"/>
       <use xlink:href="#DejaVuSans-2d" x="254.492188"/>
       <use xlink:href="#DejaVuSans-30" x="290.576172"/>
       <use xlink:href="#DejaVuSans-34" x="354.199219"/>
      </g>
     </g>
    </g>
    <g id="xtick_7">
     <g id="line2d_7">
      <g>
       <use xlink:href="#me861812de6" x="821.459423" y="368.3955" style="stroke: #000000; stroke-width: 0.8"/>
      </g>
     </g>
     <g id="text_7">
      <!-- 2021-07 -->
      <g transform="translate(800.568017 382.993937)scale(0.1 -0.1)">
       <use xlink:href="#DejaVuSans-32"/>
       <use xlink:href="#DejaVuSans-30" x="63.623047"/>
       <use xlink:href="#DejaVuSans-32" x="127.246094"/>
       <use xlink:href="#DejaVuSans-31" x="190.869141"/>
       <use xlink:href="#DejaVuSans-2d" x="254.492188"/>
       <use xlink:href="#DejaVuSans-30" x="290.576172"/>
       <use xlink:href="#DejaVuSans-37" x="354.199219"/>
      </g>
     </g>
    </g>
    <g id="xtick_8">
     <g id="line2d_8">
      <g>
       <use xlink:href="#me861812de6" x="946.326556" y="368.3955" style="stroke: #000000; stroke-width: 0.8"/>
      </g>
     </g>
     <g id="text_8">
      <!-- 2021-10 -->
      <g transform="translate(925.43515 382.993937)scale(0.1 -0.1)">
       <use xlink:href="#DejaVuSans-32"/>
       <use xlink:href="#DejaVuSans-30" x="63.623047"/>
       <use xlink:href="#DejaVuSans-32" x="127.246094"/>
       <use xlink:href="#DejaVuSans-31" x="190.869141"/>
       <use xlink:href="#DejaVuSans-2d" x="254.492188"/>
       <use xlink:href="#DejaVuSans-31" x="290.576172"/>
       <use xlink:href="#DejaVuSans-30" x="354.199219"/>
      </g>
     </g>
    </g>
    <g id="xtick_9">
     <g id="line2d_9">
      <g>
       <use xlink:href="#me861812de6" x="1071.193689" y="368.3955" style="stroke: #000000; stroke-width: 0.8"/>
      </g>
     </g>
     <g id="text_9">
      <!-- 2022-01 -->
      <g transform="translate(1050.302282 382.993937)scale(0.1 -0.1)">
       <use xlink:href="#DejaVuSans-32"/>
       <use xlink:href="#DejaVuSans-30" x="63.623047"/>
       <use xlink:href="#DejaVuSans-32" x="127.246094"/>
       <use xlink:href="#DejaVuSans-32" x="190.869141"/>
       <use xlink:href="#DejaVuSans-2d" x="254.492188"/>
       <use xlink:href="#DejaVuSans-30" x="290.576172"/>
       <use xlink:href="#DejaVuSans-31" x="354.199219"/>
      </g>
     </g>
    </g>
    <g id="xtick_10">
     <g id="line2d_10">
      <g>
       <use xlink:href="#me861812de6" x="1193.346319" y="368.3955" style="stroke: #000000; stroke-width: 0.8"/>
      </g>
     </g>
     <g id="text_10">
      <!-- 2022-04 -->
      <g transform="translate(1172.454912 382.993937)scale(0.1 -0.1)">
       <use xlink:href="#DejaVuSans-32"/>
       <use xlink:href="#DejaVuSans-30" x="63.623047"/>
       <use xlink:href="#DejaVuSans-32" x="127.246094"/>
       <use xlink:href="#DejaVuSans-32" x="190.869141"/>
       <use xlink:href="#DejaVuSans-2d" x="254.492188"/>
       <use xlink:href="#DejaVuSans-30" x="290.576172"/>
       <use xlink:href="#DejaVuSans-34" x="354.199219"/>
      </g>
     </g>
    </g>
    <g id="xtick_11">
     <g id="line2d_11">
      <g>
       <use xlink:href="#me861812de6" x="1316.8562" y="368.3955" style="stroke: #000000; stroke-width: 0.8"/>
      </g>
     </g>
     <g id="text_11">
      <!-- 2022-07 -->
      <g transform="translate(1295.964794 382.993937)scale(0.1 -0.1)">
       <use xlink:href="#DejaVuSans-32"/>
       <use xlink:href="#DejaVuSans-30" x="63.623047"/>
       <use xlink:href="#DejaVuSans-32" x="127.246094"/>
       <use xlink:href="#DejaVuSans-32" x="190.869141"/>
       <use xlink:href="#DejaVuSans-2d" x="254.492188"/>
       <use xlink:href="#DejaVuSans-30" x="290.576172"/>
       <use xlink:href="#DejaVuSans-37" x="354.199219"/>
      </g>
     </g>
    </g>
   </g>
   <g id="matplotlib.axis_2">
    <g id="ytick_1">
     <g id="line2d_12">
      <defs>
       <path id="m3cba311937" d="M 0 0 
L -3.5 0 
" style="stroke: #000000; stroke-width: 0.8"/>
      </defs>
      <g>
       <use xlink:href="#m3cba311937" x="48.029688" y="318.424499" style="stroke: #000000; stroke-width: 0.8"/>
      </g>
     </g>
     <g id="text_12">
      <!-- −5000 -->
      <g transform="translate(7.2 322.223718)scale(0.1 -0.1)">
       <defs>
        <path id="DejaVuSans-2212" d="M 678 2272 
L 4684 2272 
L 4684 1741 
L 678 1741 
L 678 2272 
z
" transform="scale(0.015625)"/>
        <path id="DejaVuSans-35" d="M 691 4666 
L 3169 4666 
L 3169 4134 
L 1269 4134 
L 1269 2991 
Q 1406 3038 1543 3061 
Q 1681 3084 1819 3084 
Q 2600 3084 3056 2656 
Q 3513 2228 3513 1497 
Q 3513 744 3044 326 
Q 2575 -91 1722 -91 
Q 1428 -91 1123 -41 
Q 819 9 494 109 
L 494 744 
Q 775 591 1075 516 
Q 1375 441 1709 441 
Q 2250 441 2565 725 
Q 2881 1009 2881 1497 
Q 2881 1984 2565 2268 
Q 2250 2553 1709 2553 
Q 1456 2553 1204 2497 
Q 953 2441 691 2322 
L 691 4666 
z
" transform="scale(0.015625)"/>
       </defs>
       <use xlink:href="#DejaVuSans-2212"/>
       <use xlink:href="#DejaVuSans-35" x="83.789062"/>
       <use xlink:href="#DejaVuSans-30" x="147.412109"/>
       <use xlink:href="#DejaVuSans-30" x="211.035156"/>
       <use xlink:href="#DejaVuSans-30" x="274.658203"/>
      </g>
     </g>
    </g>
    <g id="ytick_2">
     <g id="line2d_13">
      <g>
       <use xlink:href="#m3cba311937" x="48.029688" y="259.415015" style="stroke: #000000; stroke-width: 0.8"/>
      </g>
     </g>
     <g id="text_13">
      <!-- 0 -->
      <g transform="translate(34.667188 263.214234)scale(0.1 -0.1)">
       <use xlink:href="#DejaVuSans-30"/>
      </g>
     </g>
    </g>
    <g id="ytick_3">
     <g id="line2d_14">
      <g>
       <use xlink:href="#m3cba311937" x="48.029688" y="200.405532" style="stroke: #000000; stroke-width: 0.8"/>
      </g>
     </g>
     <g id="text_14">
      <!-- 5000 -->
      <g transform="translate(15.579688 204.20475)scale(0.1 -0.1)">
       <use xlink:href="#DejaVuSans-35"/>
       <use xlink:href="#DejaVuSans-30" x="63.623047"/>
       <use xlink:href="#DejaVuSans-30" x="127.246094"/>
       <use xlink:href="#DejaVuSans-30" x="190.869141"/>
      </g>
     </g>
    </g>
    <g id="ytick_4">
     <g id="line2d_15">
      <g>
       <use xlink:href="#m3cba311937" x="48.029688" y="141.396048" style="stroke: #000000; stroke-width: 0.8"/>
      </g>
     </g>
     <g id="text_15">
      <!-- 10000 -->
      <g transform="translate(9.217188 145.195267)scale(0.1 -0.1)">
       <use xlink:href="#DejaVuSans-31"/>
       <use xlink:href="#DejaVuSans-30" x="63.623047"/>
       <use xlink:href="#DejaVuSans-30" x="127.246094"/>
       <use xlink:href="#DejaVuSans-30" x="190.869141"/>
       <use xlink:href="#DejaVuSans-30" x="254.492188"/>
      </g>
     </g>
    </g>
    <g id="ytick_5">
     <g id="line2d_16">
      <g>
       <use xlink:href="#m3cba311937" x="48.029688" y="82.386564" style="stroke: #000000; stroke-width: 0.8"/>
      </g>
     </g>
     <g id="text_16">
      <!-- 15000 -->
      <g transform="translate(9.217188 86.185783)scale(0.1 -0.1)">
       <use xlink:href="#DejaVuSans-31"/>
       <use xlink:href="#DejaVuSans-35" x="63.623047"/>
       <use xlink:href="#DejaVuSans-30" x="127.246094"/>
       <use xlink:href="#DejaVuSans-30" x="190.869141"/>
       <use xlink:href="#DejaVuSans-30" x="254.492188"/>
      </g>
     </g>
    </g>
   </g>
   <g id="line2d_17">
    <path d="M 108.902415 259.415015 
L 176.764987 259.415015 
L 178.122238 259.285194 
L 179.47949 259.415015 
L 182.193993 259.167175 
L 184.908496 258.376448 
L 186.265747 257.432297 
L 187.622999 257.774552 
L 188.98025 256.075079 
L 191.694753 258.223024 
L 193.052004 258.341043 
L 194.409256 256.700579 
L 195.766507 257.149051 
L 197.123759 256.724183 
L 198.48101 258.223024 
L 199.838262 258.966543 
L 202.552764 253.419652 
L 203.910016 254.517228 
L 205.267267 256.995626 
L 206.624519 258.270231 
L 207.98177 257.278872 
L 209.339022 258.223024 
L 210.696273 259.415015 
L 212.053525 251.118282 
L 213.410776 253.337038 
L 214.768027 233.49805 
L 216.125279 258.282033 
L 217.48253 256.948419 
L 218.839782 258.671496 
L 220.197033 258.541675 
L 221.554285 256.405532 
L 222.911536 255.083719 
L 224.268788 256.759589 
L 225.626039 252.66433 
L 226.98329 254.151369 
L 228.340542 251.625763 
L 229.697793 256.228503 
L 231.055045 254.080558 
L 232.412296 255.484984 
L 233.769548 123.268335 
L 235.126799 259.415015 
L 236.484051 259.415015 
L 239.198553 247.400684 
L 240.555805 254.493624 
L 241.913056 256.358324 
L 243.270308 242.868756 
L 244.627559 246.102476 
L 245.984811 234.937881 
L 247.342062 231.763171 
L 248.699314 259.415015 
L 250.056565 259.415015 
L 251.413816 278.097418 
L 252.771068 276.881822 
L 254.128319 256.429135 
L 255.485571 253.65569 
L 256.842822 260.00511 
L 258.200074 248.675289 
L 259.557325 258.624288 
L 260.914577 259.226185 
L 262.271828 248.026185 
L 263.629079 244.119757 
L 264.986331 254.470021 
L 266.343582 254.694257 
L 267.700834 252.699736 
L 269.058085 251.118282 
L 270.415337 254.080558 
L 271.772588 253.254425 
L 273.12984 254.3402 
L 274.487091 253.537671 
L 275.844342 252.345679 
L 277.201594 259.415015 
L 278.558845 250.587197 
L 279.916097 255.071917 
L 281.273348 258.234826 
L 282.6306 259.415015 
L 283.987851 253.195416 
L 285.345103 259.415015 
L 286.702354 243.883719 
L 288.059605 252.900368 
L 289.416857 259.415015 
L 290.774108 252.22766 
L 292.13136 245.807428 
L 293.488611 254.788672 
L 294.845863 256.370126 
L 296.203114 253.053793 
L 297.560366 253.242623 
L 298.917617 259.415015 
L 300.274868 243.624077 
L 301.63212 252.593519 
L 302.989371 254.753266 
L 304.346623 252.676132 
L 305.703874 252.086037 
L 307.061126 252.959378 
L 308.418377 252.251264 
L 309.775629 251.932613 
L 311.13288 259.415015 
L 312.490131 248.687091 
L 313.847383 259.415015 
L 315.204634 247.577713 
L 316.561886 259.415015 
L 317.919137 241.558746 
L 319.276389 251.153688 
L 320.63364 250.941253 
L 321.990892 251.377924 
L 323.348143 254.576238 
L 324.705394 250.36296 
L 326.062646 237.876554 
L 327.419897 245.122918 
L 328.777149 245.38256 
L 330.1344 249.05295 
L 331.491652 254.422813 
L 332.848903 254.434615 
L 334.206155 249.206375 
L 335.563406 259.415015 
L 336.920657 247.896364 
L 338.277909 250.008904 
L 339.63516 233.55706 
L 340.992412 251.613962 
L 342.349663 252.463698 
L 343.706915 246.303108 
L 345.064166 250.457376 
L 346.421418 247.18825 
L 347.778669 246.680769 
L 349.13592 248.344836 
L 350.493172 251.968018 
L 351.850423 252.251264 
L 353.207675 240.567386 
L 354.564926 247.141043 
L 355.922178 248.899525 
L 357.279429 248.781506 
L 358.636681 247.766543 
L 359.993932 251.649367 
L 361.351183 253.90353 
L 362.708435 246.220495 
L 364.065686 248.628082 
L 365.422938 245.524183 
L 366.780189 247.790147 
L 368.137441 249.064752 
L 369.494692 259.415015 
L 370.851944 249.867281 
L 372.209195 248.533666 
L 373.566446 248.757903 
L 374.923698 239.694046 
L 376.280949 242.514699 
L 377.638201 240.496575 
L 378.995452 248.946733 
L 380.352704 256.558956 
L 381.709955 249.24178 
L 383.067207 241.157481 
L 384.424458 244.863277 
L 385.781709 246.834193 
L 387.138961 244.320389 
L 388.496212 249.336195 
L 389.853464 256.948419 
L 391.210715 245.370758 
L 392.567967 241.310906 
L 393.925218 247.223656 
L 395.28247 247.93177 
L 396.639721 252.239462 
L 397.996972 251.389726 
L 399.354224 253.278029 
L 400.711475 250.66981 
L 402.068727 241.487934 
L 403.425978 251.507744 
L 404.78323 248.533666 
L 406.140481 250.386564 
L 407.497732 250.658008 
L 408.854984 258.01059 
L 410.212235 253.018387 
L 411.569487 245.866438 
L 412.926738 248.757903 
L 414.28399 249.796469 
L 415.641241 249.147365 
L 416.998493 259.415015 
L 418.355744 353.2755 
L 419.712995 251.566754 
L 421.070247 242.786143 
L 422.427498 247.141043 
L 423.78475 241.405321 
L 425.142001 239.127555 
L 426.499253 234.123551 
L 427.856504 255.673814 
L 429.213756 251.838198 
L 430.571007 236.141675 
L 431.928258 250.776027 
L 433.28551 237.321865 
L 434.642761 241.818387 
L 436.000013 249.9853 
L 437.357264 255.968861 
L 438.714516 248.415648 
L 440.071767 232.87255 
L 441.429019 244.615437 
L 442.78627 243.730295 
L 444.143521 241.641359 
L 445.500773 250.374762 
L 446.858024 256.842202 
L 448.215276 250.162328 
L 449.572527 244.096153 
L 450.929779 241.2755 
L 452.28703 248.203213 
L 455.001533 251.35432 
L 456.358784 255.815437 
L 457.716036 250.953055 
L 459.073287 242.007218 
L 460.430539 241.546944 
L 461.78779 249.938092 
L 463.145042 247.849156 
L 464.502293 256.995626 
L 465.859545 256.08688 
L 467.216796 249.312592 
L 468.574047 248.651685 
L 469.931299 244.343993 
L 471.28855 244.084351 
L 472.645802 250.410168 
L 474.003053 249.182771 
L 475.360305 257.833561 
L 476.717556 251.248103 
L 478.074808 241.594151 
L 479.432059 249.666649 
L 480.78931 237.947365 
L 482.146562 243.553266 
L 483.503813 235.563382 
L 484.861065 253.006585 
L 486.218316 247.447892 
L 487.575568 239.16296 
L 488.932819 242.963171 
L 490.290071 249.442413 
L 491.647322 247.082033 
L 493.004573 247.589515 
L 494.361825 255.071917 
L 495.719076 252.947576 
L 497.076328 243.801106 
L 498.433579 255.284351 
L 499.790831 250.85864 
L 501.148082 247.87276 
L 502.505334 242.64452 
L 503.862585 255.142729 
L 505.219836 254.198577 
L 506.577088 248.569072 
L 507.934339 248.99394 
L 509.291591 245.713013 
L 510.648842 248.167808 
L 513.363345 254.918493 
L 514.720597 254.363803 
L 516.077848 245.890042 
L 517.435099 247.660326 
L 518.792351 252.404689 
L 520.149602 247.18825 
L 521.506854 250.36296 
L 522.864105 255.862644 
L 524.221357 253.608482 
L 525.578608 250.044309 
L 526.93586 248.698893 
L 528.293111 242.939567 
L 529.650362 243.187407 
L 531.007614 245.158324 
L 532.364865 252.711538 
L 533.722117 247.754741 
L 535.079368 245.217334 
L 536.43662 247.518703 
L 537.793871 252.357481 
L 539.151123 248.687091 
L 540.508374 252.251264 
L 541.865625 256.511749 
L 543.222877 253.419652 
L 544.580128 253.797312 
L 545.93738 245.831032 
L 547.294631 254.859483 
L 548.651883 250.457376 
L 550.009134 252.499104 
L 551.366386 258.588883 
L 552.723637 257.337881 
L 554.080888 246.373919 
L 555.43814 250.115121 
L 556.795391 250.516385 
L 558.152643 248.592676 
L 559.509894 255.437776 
L 560.867146 258.565279 
L 562.224397 259.001949 
L 563.581649 250.91765 
L 564.9389 248.486459 
L 566.296151 249.761064 
L 569.010654 258.459062 
L 570.367906 254.658851 
L 571.725157 252.711538 
L 573.082409 245.417966 
L 574.43966 247.613119 
L 575.796912 249.194573 
L 577.154163 246.019862 
L 578.511414 258.223024 
L 579.868666 253.915331 
L 581.225917 247.577713 
L 582.583169 244.143361 
L 583.94042 247.518703 
L 585.297672 250.410168 
L 586.654923 245.240937 
L 588.012175 250.905848 
L 589.369426 254.269388 
L 590.726677 246.893203 
L 592.083929 238.7853 
L 593.44118 239.505215 
L 594.798432 249.218177 
L 596.155683 212.891938 
L 597.512935 251.460537 
L 598.870186 257.503108 
L 601.584689 238.797102 
L 602.94194 237.298261 
L 604.299192 247.978977 
L 605.656443 246.739778 
L 607.013695 223.301211 
L 608.370946 256.169494 
L 609.728198 252.581717 
L 611.085449 243.022181 
L 612.442701 230.32334 
L 613.799952 251.307112 
L 615.157203 222.923551 
L 616.514455 247.034826 
L 617.871706 257.550316 
L 619.228958 255.95706 
L 620.586209 246.303108 
L 621.943461 248.215015 
L 623.300712 234.949683 
L 624.657964 239.316385 
L 626.015215 245.642202 
L 627.372466 255.579399 
L 628.729718 245.535985 
L 630.086969 255.95706 
L 631.444221 234.194362 
L 632.801472 244.025342 
L 634.158724 235.693203 
L 635.515975 239.398998 
L 636.873227 253.773709 
L 638.230478 255.02471 
L 639.587729 257.691938 
L 640.944981 240.048103 
L 642.302232 242.70353 
L 643.659484 237.923761 
L 645.016735 240.815226 
L 646.373987 255.933456 
L 647.731238 249.831875 
L 649.08849 224.021127 
L 650.445741 231.208482 
L 651.802992 242.538303 
L 653.160244 238.7853 
L 654.517495 238.077186 
L 655.874747 256.913013 
L 657.231998 255.189936 
L 658.58925 226.995205 
L 659.946501 256.311116 
L 661.303753 243.659483 
L 662.661004 237.310063 
L 664.018255 241.004056 
L 665.375507 258.057797 
L 666.732758 253.561274 
L 668.09001 239.03314 
L 669.447261 246.244099 
L 670.804513 244.556427 
L 672.161764 242.302265 
L 673.519016 241.063066 
L 674.876267 256.14589 
L 676.233518 255.21354 
L 677.59077 227.030611 
L 678.948021 237.805742 
L 680.305273 233.285616 
L 681.662524 244.957692 
L 683.019776 238.997734 
L 684.377027 256.429135 
L 685.734279 250.929452 
L 687.09153 221.212276 
L 688.448781 237.593308 
L 689.806033 226.428714 
L 691.163284 244.686248 
L 692.520536 238.372233 
L 693.877787 251.838198 
L 695.235039 233.439041 
L 696.59229 242.538303 
L 697.949542 240.142518 
L 699.306793 239.941886 
L 700.664044 245.996259 
L 702.021296 229.839462 
L 703.378547 246.480136 
L 704.735799 248.498261 
L 706.09305 236.967808 
L 707.450302 235.634193 
L 708.807553 246.916807 
L 710.164805 233.462644 
L 711.522056 236.519336 
L 712.879307 256.429135 
L 714.236559 253.289831 
L 715.59381 224.59942 
L 716.951062 201.680136 
L 718.308313 253.124604 
L 719.665565 233.533456 
L 721.022816 231.220284 
L 722.380068 259.214383 
L 723.737319 252.440094 
L 725.09457 239.481612 
L 726.451822 229.320179 
L 727.809073 189.6304 
L 729.166325 242.325869 
L 730.523576 252.239462 
L 731.880828 242.738935 
L 733.238079 252.876764 
L 734.595331 231.88119 
L 735.952582 223.690674 
L 737.309833 245.57139 
L 738.667085 227.231243 
L 740.024336 227.431875 
L 741.381588 250.598998 
L 742.738839 221.696153 
L 744.096091 238.10079 
L 745.453342 232.518493 
L 746.810594 240.992254 
L 748.167845 235.421759 
L 749.525096 243.187407 
L 750.882348 238.596469 
L 752.239599 253.101001 
L 753.596851 235.374552 
L 754.954102 245.831032 
L 756.311354 245.028503 
L 757.668605 229.697839 
L 759.025857 252.22766 
L 760.383108 250.66981 
L 761.740359 252.381085 
L 764.454862 231.704162 
L 765.812114 243.293624 
L 767.169365 245.028503 
L 768.526617 247.483298 
L 769.883868 255.319757 
L 771.24112 247.978977 
L 772.598371 246.857797 
L 773.955622 246.456533 
L 775.312874 249.54863 
L 776.670125 240.815226 
L 778.027377 246.432929 
L 779.384628 257.101844 
L 780.74188 239.90648 
L 782.099131 245.547787 
L 783.456383 248.17961 
L 784.813634 248.533666 
L 786.170885 251.271707 
L 787.528137 248.510063 
L 788.885388 254.859483 
L 790.24264 256.511749 
L 791.599891 248.970337 
L 792.957143 234.005532 
L 794.314394 246.456533 
L 795.671646 247.766543 
L 797.028897 249.666649 
L 798.386148 256.995626 
L 799.7434 256.64157 
L 801.100651 238.10079 
L 802.457903 245.713013 
L 803.815154 235.173919 
L 805.172406 245.358956 
L 806.529657 249.324394 
L 807.886909 257.149051 
L 809.24416 253.006585 
L 810.601411 236.625553 
L 811.958663 254.977502 
L 813.315914 226.947997 
L 814.673166 246.102476 
L 816.030417 247.919968 
L 817.387669 242.809747 
L 818.74492 238.808904 
L 820.102172 247.43609 
L 821.459423 247.211854 
L 822.816674 240.307744 
L 824.173926 247.790147 
L 825.531177 259.415015 
L 826.888429 253.431454 
L 828.24568 244.048946 
L 830.960183 249.395205 
L 832.317435 245.311749 
L 833.674686 248.757903 
L 835.031937 255.048313 
L 836.389189 258.612486 
L 837.74644 230.287934 
L 839.103692 249.088356 
L 840.460943 248.026185 
L 841.818195 248.498261 
L 843.175446 240.909641 
L 844.532698 249.383403 
L 845.889949 256.499947 
L 847.2472 240.130716 
L 848.604452 251.519546 
L 849.961703 245.618598 
L 851.318955 248.36844 
L 852.676206 259.415015 
L 854.033458 259.415015 
L 855.390709 233.132191 
L 856.747961 259.415015 
L 858.105212 238.631875 
L 859.462463 248.026185 
L 860.819715 249.135563 
L 862.176966 249.643045 
L 863.534218 256.747787 
L 864.891469 258.187618 
L 866.248721 243.045785 
L 867.605972 254.599841 
L 868.963224 249.277186 
L 870.320475 249.631243 
L 871.677726 251.79099 
L 874.392229 258.459062 
L 875.749481 258.258429 
L 877.106732 250.150526 
L 878.463984 252.109641 
L 879.821235 252.558113 
L 881.178487 253.856322 
L 882.535738 257.101844 
L 883.892989 258.234826 
L 885.250241 251.97982 
L 886.607492 248.828714 
L 887.964744 254.245785 
L 889.321995 249.796469 
L 890.679247 250.929452 
L 892.036498 258.659694 
L 893.39375 258.82492 
L 894.751001 253.891728 
L 896.108252 254.28119 
L 897.465504 254.068756 
L 898.822755 255.166332 
L 900.180007 252.274868 
L 901.537258 258.341043 
L 902.89451 258.6951 
L 904.251761 253.018387 
L 905.609013 254.658851 
L 906.966264 248.144204 
L 908.323515 254.540832 
L 909.680767 256.429135 
L 911.038018 258.647892 
L 912.39527 258.813119 
L 913.752521 255.001106 
L 915.109773 253.230821 
L 916.467024 257.691938 
L 917.824276 257.668335 
L 919.181527 257.208061 
L 920.538778 259.226185 
L 921.89603 259.214383 
L 923.253281 255.484984 
L 924.610533 256.676975 
L 925.967784 256.759589 
L 927.325036 254.056954 
L 928.682287 254.28119 
L 930.039539 259.07276 
L 931.39679 259.214383 
L 932.754041 254.564436 
L 934.111293 257.562117 
L 935.468544 256.228503 
L 936.825796 256.889409 
L 938.183047 254.328398 
L 939.540299 257.621127 
L 940.89755 258.588883 
L 942.254802 253.360642 
L 943.612053 254.989304 
L 944.969304 252.758746 
L 946.326556 254.198577 
L 947.683807 255.803635 
L 949.041059 259.07276 
L 950.39831 258.081401 
L 951.755562 256.464541 
L 953.112813 256.712381 
L 954.470065 257.609325 
L 955.827316 259.415015 
L 957.184567 257.066438 
L 958.541819 258.577081 
L 959.89907 258.529873 
L 961.256322 259.096364 
L 962.613573 248.144204 
L 963.970825 259.415015 
L 965.328076 259.415015 
L 966.685328 253.148208 
L 968.042579 259.415015 
L 969.39983 258.01059 
L 970.757082 254.564436 
L 972.114333 259.415015 
L 973.471585 252.699736 
L 974.828836 254.859483 
L 976.186088 256.240305 
L 977.543339 255.933456 
L 978.900591 258.789515 
L 980.257842 259.415015 
L 981.615093 253.419652 
L 982.972345 256.311116 
L 984.329596 253.502265 
L 987.044099 258.706901 
L 988.401351 248.639884 
L 989.758602 258.848524 
L 991.115854 258.813119 
L 992.473105 255.697418 
L 993.830356 254.859483 
L 995.187608 254.564436 
L 996.544859 259.415015 
L 997.902111 258.282033 
L 999.259362 258.494467 
L 1000.616614 254.611643 
L 1001.973865 264.218387 
L 1003.331117 239.127555 
L 1004.688368 254.470021 
L 1006.045619 258.305637 
L 1007.402871 258.789515 
L 1008.760122 252.959378 
L 1010.117374 254.800474 
L 1011.474625 252.66433 
L 1012.831877 253.608482 
L 1014.189128 255.119125 
L 1015.54638 257.739146 
L 1016.903631 258.482665 
L 1018.260882 254.068756 
L 1019.618134 253.360642 
L 1020.975385 254.316596 
L 1022.332637 255.791833 
L 1023.689888 253.773709 
L 1025.04714 257.231664 
L 1026.404391 258.588883 
L 1027.761643 253.950737 
L 1029.118894 255.225342 
L 1030.476145 254.540832 
L 1031.833397 253.643888 
L 1033.190648 252.522708 
L 1034.5479 257.349683 
L 1035.905151 258.152212 
L 1037.262403 251.507744 
L 1038.619654 250.693414 
L 1039.976905 248.297629 
L 1041.334157 252.062434 
L 1042.691408 250.445574 
L 1044.04866 256.263909 
L 1045.405911 257.868967 
L 1046.763163 252.4755 
L 1048.120414 252.558113 
L 1049.477666 251.661169 
L 1050.834917 250.976659 
L 1052.192168 251.779188 
L 1053.54942 256.39373 
L 1054.906671 257.196259 
L 1056.263923 247.636722 
L 1057.621174 249.749262 
L 1058.978426 246.609957 
L 1060.335677 244.709852 
L 1061.692929 250.988461 
L 1063.05018 256.358324 
L 1064.407431 252.109641 
L 1067.121934 239.387197 
L 1068.479186 243.057586 
L 1069.836437 233.073182 
L 1071.193689 233.427239 
L 1072.55094 251.10648 
L 1073.908192 249.064752 
L 1075.265443 244.839673 
L 1076.622694 225.933034 
L 1077.979946 227.821338 
L 1079.337197 243.659483 
L 1080.694449 224.564014 
L 1082.0517 222.899947 
L 1083.408952 237.557903 
L 1084.766203 149.173498 
L 1086.123455 137.312592 
L 1087.480706 202.848524 
L 1088.837957 149.917017 
L 1090.195209 128.531981 
L 1091.55246 129.2755 
L 1092.909712 206.920179 
L 1094.266963 145.786354 
L 1095.624215 136.415648 
L 1098.338718 181.298261 
L 1099.695969 137.867281 
L 1102.410472 227.715121 
L 1103.767723 167.006164 
L 1105.124975 192.014383 
L 1106.482226 145.939778 
L 1107.839478 143.036512 
L 1109.196729 154.956427 
L 1110.553981 214.284562 
L 1111.911232 232.530295 
L 1113.268483 173.745047 
L 1114.625735 182.443045 
L 1115.982986 178.973287 
L 1117.340238 156.90374 
L 1118.697489 199.496786 
L 1120.054741 226.947997 
L 1121.411992 259.415015 
L 1124.126495 259.415015 
L 1125.483746 114.003846 
L 1126.840998 259.415015 
L 1129.555501 259.415015 
L 1130.912752 50.8755 
L 1132.270004 245.488777 
L 1133.627255 259.415015 
L 1134.984507 157.859694 
L 1136.341758 259.415015 
L 1139.056261 259.415015 
L 1140.413512 130.054425 
L 1141.770764 251.684773 
L 1143.128015 259.415015 
L 1144.485267 174.217123 
L 1145.842518 259.415015 
L 1151.271524 259.415015 
L 1152.628775 194.138724 
L 1153.986027 224.894467 
L 1155.343278 259.415015 
L 1158.057781 259.415015 
L 1159.415033 196.168651 
L 1160.772284 259.415015 
L 1162.129535 233.627871 
L 1163.486787 259.415015 
L 1167.558541 259.415015 
L 1168.915793 193.017544 
L 1170.273044 255.721022 
L 1171.630296 259.415015 
L 1175.70205 259.415015 
L 1177.059301 210.425342 
L 1178.416553 254.670653 
L 1179.773804 259.415015 
L 1181.131056 259.415015 
L 1182.488307 246.881401 
L 1183.845559 235.98825 
L 1185.20281 259.415015 
L 1187.917313 259.415015 
L 1189.274564 236.896996 
L 1190.631816 251.35432 
L 1191.989067 259.415015 
L 1196.060822 259.415015 
L 1197.418073 230.724604 
L 1198.775324 259.415015 
L 1200.132576 259.415015 
L 1201.489827 246.704372 
L 1202.847079 259.415015 
L 1205.561582 259.415015 
L 1206.918833 237.404478 
L 1208.276085 259.415015 
L 1209.633336 255.614805 
L 1210.990587 259.415015 
L 1215.062342 259.415015 
L 1216.419593 244.084351 
L 1217.776845 258.931138 
L 1219.134096 259.415015 
L 1220.491348 256.523551 
L 1221.848599 259.415015 
L 1223.20585 248.99394 
L 1224.563102 259.415015 
L 1225.920353 256.676975 
L 1227.277605 259.415015 
L 1228.634856 259.415015 
L 1229.992108 249.513224 
L 1231.349359 259.415015 
L 1232.706611 252.66433 
L 1234.063862 259.415015 
L 1236.778365 259.415015 
L 1238.135616 256.346522 
L 1239.492868 252.687934 
L 1240.850119 259.415015 
L 1243.564622 259.415015 
L 1244.921874 253.478661 
L 1246.279125 259.214383 
L 1247.636376 259.415015 
L 1248.993628 259.415015 
L 1250.350879 244.993097 
L 1251.708131 259.415015 
L 1253.065382 259.415015 
L 1254.422634 256.181296 
L 1255.779885 259.415015 
L 1257.137137 259.415015 
L 1258.494388 246.822391 
L 1259.851639 259.415015 
L 1261.208891 259.415015 
L 1262.566142 247.731138 
L 1263.923394 257.998788 
L 1265.280645 259.049156 
L 1266.637897 259.415015 
L 1267.995148 244.556427 
L 1269.3524 259.415015 
L 1270.709651 251.672971 
L 1272.066902 259.415015 
L 1273.424154 252.133245 
L 1274.781405 259.415015 
L 1276.138657 248.628082 
L 1277.495908 259.415015 
L 1281.567663 259.415015 
L 1282.924914 175.361907 
L 1284.282165 259.415015 
L 1285.639417 248.734299 
L 1286.996668 244.603635 
L 1288.35392 259.415015 
L 1291.068423 259.415015 
L 1292.425674 219.595416 
L 1293.782926 259.415015 
L 1295.140177 243.789304 
L 1296.497428 259.415015 
L 1297.85468 208.584246 
L 1299.211931 259.415015 
L 1301.926434 259.415015 
L 1303.283686 233.639673 
L 1304.640937 259.415015 
L 1307.35544 259.415015 
L 1308.712691 223.159589 
L 1308.712691 223.159589 
" clip-path="url(#pd9726b51e9)" style="fill: none; stroke: #0000ff; stroke-width: 1.5; stroke-linecap: square"/>
   </g>
   <g id="line2d_18">
    <path d="M 1069.836437 246.258455 
L 1071.193689 246.174357 
L 1072.55094 245.501724 
L 1073.908192 244.01064 
L 1075.265443 242.018162 
L 1076.622694 240.924888 
L 1077.979946 235.847458 
L 1079.337197 237.067914 
L 1080.694449 241.002359 
L 1082.0517 237.780152 
L 1083.408952 236.385262 
L 1084.766203 217.934741 
L 1086.123455 207.127782 
L 1087.480706 211.632743 
L 1088.837957 196.731593 
L 1090.195209 186.53736 
L 1091.55246 183.159002 
L 1092.909712 158.002306 
L 1094.266963 152.445021 
L 1095.624215 171.323439 
L 1096.981466 152.531651 
L 1098.338718 149.704201 
L 1099.695969 148.267993 
L 1101.05322 178.335071 
L 1102.410472 165.599741 
L 1103.767723 162.775 
L 1105.124975 174.280879 
L 1106.482226 177.385663 
L 1107.839478 158.506706 
L 1109.196729 172.780691 
L 1110.553981 192.874621 
L 1111.911232 178.899398 
L 1113.268483 186.239595 
L 1114.625735 170.833878 
L 1115.982986 171.049565 
L 1117.340238 172.892995 
L 1118.697489 195.805145 
L 1120.054741 206.102889 
L 1121.411992 194.68223 
L 1122.769244 206.655376 
L 1124.126495 213.006601 
L 1125.483746 191.865785 
L 1126.840998 215.175561 
L 1129.555501 244.898379 
L 1130.912752 217.42423 
L 1132.270004 221.398244 
L 1133.627255 179.857837 
L 1134.984507 223.666524 
L 1136.341758 228.728604 
L 1137.699009 233.07388 
L 1139.056261 169.508874 
L 1140.413512 226.723052 
L 1141.770764 234.751646 
L 1143.128015 205.472493 
L 1144.485267 233.818201 
L 1145.842518 237.442777 
L 1147.19977 240.554104 
L 1148.557021 201.480644 
L 1149.914272 248.933995 
L 1151.271524 252.912657 
L 1152.628775 217.097049 
L 1153.986027 245.694249 
L 1155.343278 247.637145 
L 1156.70053 249.304923 
L 1158.057781 250.736538 
L 1159.415033 243.009582 
L 1160.772284 224.268202 
L 1162.129535 235.518327 
L 1163.486787 250.041822 
L 1164.844038 251.369091 
L 1166.20129 252.508415 
L 1167.558541 233.077025 
L 1168.915793 247.81388 
L 1170.273044 240.61213 
L 1171.630296 251.59609 
L 1172.987547 252.70327 
L 1175.70205 254.469492 
L 1177.059301 226.806491 
L 1178.416553 250.986325 
L 1179.773804 253.371888 
L 1181.131056 254.227611 
L 1182.488307 253.187368 
L 1183.845559 250.751928 
L 1185.20281 236.169846 
L 1186.560061 253.739232 
L 1187.917313 256.073927 
L 1189.274564 253.358423 
L 1190.631816 249.030083 
L 1191.989067 246.985435 
L 1193.346319 256.305232 
L 1196.060822 257.123583 
L 1197.418073 246.118932 
L 1198.775324 252.667021 
L 1200.132576 256.223713 
L 1201.489827 254.875749 
L 1204.20433 256.070275 
L 1205.561582 247.285603 
L 1206.918833 255.144706 
L 1208.276085 255.749393 
L 1209.633336 251.628654 
L 1210.990587 256.832904 
L 1213.70509 257.512397 
L 1215.062342 250.679088 
L 1216.419593 256.84798 
L 1217.776845 255.916646 
L 1219.134096 257.638339 
L 1220.491348 257.480482 
L 1221.848599 257.754417 
L 1223.20585 256.513911 
L 1224.563102 251.977563 
L 1225.920353 257.434018 
L 1227.277605 257.870678 
L 1228.634856 257.156295 
L 1229.992108 257.007082 
L 1231.349359 253.985207 
L 1232.706611 257.161012 
L 1234.063862 256.596629 
L 1235.421113 257.879276 
L 1236.778365 258.09674 
L 1238.135616 254.653631 
L 1239.492868 257.570557 
L 1240.850119 255.653314 
L 1242.207371 258.364404 
L 1243.564622 258.513173 
L 1246.279125 257.010323 
L 1247.636376 256.17022 
L 1248.993628 258.800497 
L 1250.350879 256.845333 
L 1251.708131 257.209207 
L 1253.065382 255.605914 
L 1254.422634 257.538287 
L 1257.137137 258.087731 
L 1258.494388 251.838627 
L 1259.851639 257.565366 
L 1261.208891 257.827281 
L 1262.566142 255.354131 
L 1263.923394 256.772131 
L 1265.280645 257.094564 
L 1266.637897 253.35955 
L 1267.995148 256.176601 
L 1269.3524 256.635169 
L 1270.709651 252.162162 
L 1272.066902 256.50252 
L 1273.424154 256.222769 
L 1274.781405 256.792861 
L 1276.138657 250.841892 
L 1277.495908 256.850684 
L 1278.85316 254.715469 
L 1280.210411 257.879268 
L 1281.567663 255.746932 
L 1282.924914 246.714003 
L 1284.282165 245.031594 
L 1285.639417 249.036813 
L 1286.996668 248.409063 
L 1288.35392 249.967535 
L 1289.711171 251.305323 
L 1291.068423 225.330029 
L 1292.425674 251.64164 
L 1293.782926 249.29574 
L 1295.140177 247.183064 
L 1296.497428 253.694721 
L 1297.85468 247.30696 
L 1299.211931 249.021492 
L 1300.569183 237.643595 
L 1301.926434 253.576132 
L 1303.283686 245.710714 
L 1304.640937 252.693642 
L 1305.998189 237.242493 
L 1307.35544 256.785094 
L 1308.712691 252.023634 
L 1308.712691 252.023634 
" clip-path="url(#pd9726b51e9)" style="fill: none; stroke: #ffa500; stroke-width: 1.5; stroke-linecap: square"/>
   </g>
   <g id="line2d_19">
    <path d="M 1308.712691 252.023634 
L 1310.069943 252.023634 
L 1311.427194 243.70602 
L 1312.784446 252.023634 
L 1314.141697 252.023634 
L 1315.498949 252.023634 
L 1316.8562 240.324133 
L 1318.213452 249.638461 
L 1319.570703 249.638461 
L 1320.927954 246.954396 
L 1322.285206 249.638461 
L 1323.642457 249.638461 
L 1324.999709 249.638461 
L 1326.35696 245.863072 
" clip-path="url(#pd9726b51e9)" style="fill: none; stroke: #ff0000; stroke-width: 1.5; stroke-linecap: square"/>
   </g>
   <g id="patch_3">
    <path d="M 48.029688 368.3955 
L 48.029688 35.7555 
" style="fill: none; stroke: #000000; stroke-width: 0.8; stroke-linejoin: miter; stroke-linecap: square"/>
   </g>
   <g id="patch_4">
    <path d="M 1387.229688 368.3955 
L 1387.229688 35.7555 
" style="fill: none; stroke: #000000; stroke-width: 0.8; stroke-linejoin: miter; stroke-linecap: square"/>
   </g>
   <g id="patch_5">
    <path d="M 48.029688 368.3955 
L 1387.229687 368.3955 
" style="fill: none; stroke: #000000; stroke-width: 0.8; stroke-linejoin: miter; stroke-linecap: square"/>
   </g>
   <g id="patch_6">
    <path d="M 48.029688 35.7555 
L 1387.229687 35.7555 
" style="fill: none; stroke: #000000; stroke-width: 0.8; stroke-linejoin: miter; stroke-linecap: square"/>
   </g>
   <g id="text_17">
    <!-- Daily Confirmed Cases Forecasting - Ecuador -->
    <g transform="translate(582.612813 16.318125)scale(0.12 -0.12)">
     <defs>
      <path id="DejaVuSans-44" d="M 1259 4147 
L 1259 519 
L 2022 519 
Q 2988 519 3436 956 
Q 3884 1394 3884 2338 
Q 3884 3275 3436 3711 
Q 2988 4147 2022 4147 
L 1259 4147 
z
M 628 4666 
L 1925 4666 
Q 3281 4666 3915 4102 
Q 4550 3538 4550 2338 
Q 4550 1131 3912 565 
Q 3275 0 1925 0 
L 628 0 
L 628 4666 
z
" transform="scale(0.015625)"/>
      <path id="DejaVuSans-61" d="M 2194 1759 
Q 1497 1759 1228 1600 
Q 959 1441 959 1056 
Q 959 750 1161 570 
Q 1363 391 1709 391 
Q 2188 391 2477 730 
Q 2766 1069 2766 1631 
L 2766 1759 
L 2194 1759 
z
M 3341 1997 
L 3341 0 
L 2766 0 
L 2766 531 
Q 2569 213 2275 61 
Q 1981 -91 1556 -91 
Q 1019 -91 701 211 
Q 384 513 384 1019 
Q 384 1609 779 1909 
Q 1175 2209 1959 2209 
L 2766 2209 
L 2766 2266 
Q 2766 2663 2505 2880 
Q 2244 3097 1772 3097 
Q 1472 3097 1187 3025 
Q 903 2953 641 2809 
L 641 3341 
Q 956 3463 1253 3523 
Q 1550 3584 1831 3584 
Q 2591 3584 2966 3190 
Q 3341 2797 3341 1997 
z
" transform="scale(0.015625)"/>
      <path id="DejaVuSans-69" d="M 603 3500 
L 1178 3500 
L 1178 0 
L 603 0 
L 603 3500 
z
M 603 4863 
L 1178 4863 
L 1178 4134 
L 603 4134 
L 603 4863 
z
" transform="scale(0.015625)"/>
      <path id="DejaVuSans-6c" d="M 603 4863 
L 1178 4863 
L 1178 0 
L 603 0 
L 603 4863 
z
" transform="scale(0.015625)"/>
      <path id="DejaVuSans-79" d="M 2059 -325 
Q 1816 -950 1584 -1140 
Q 1353 -1331 966 -1331 
L 506 -1331 
L 506 -850 
L 844 -850 
Q 1081 -850 1212 -737 
Q 1344 -625 1503 -206 
L 1606 56 
L 191 3500 
L 800 3500 
L 1894 763 
L 2988 3500 
L 3597 3500 
L 2059 -325 
z
" transform="scale(0.015625)"/>
      <path id="DejaVuSans-20" transform="scale(0.015625)"/>
      <path id="DejaVuSans-43" d="M 4122 4306 
L 4122 3641 
Q 3803 3938 3442 4084 
Q 3081 4231 2675 4231 
Q 1875 4231 1450 3742 
Q 1025 3253 1025 2328 
Q 1025 1406 1450 917 
Q 1875 428 2675 428 
Q 3081 428 3442 575 
Q 3803 722 4122 1019 
L 4122 359 
Q 3791 134 3420 21 
Q 3050 -91 2638 -91 
Q 1578 -91 968 557 
Q 359 1206 359 2328 
Q 359 3453 968 4101 
Q 1578 4750 2638 4750 
Q 3056 4750 3426 4639 
Q 3797 4528 4122 4306 
z
" transform="scale(0.015625)"/>
      <path id="DejaVuSans-6f" d="M 1959 3097 
Q 1497 3097 1228 2736 
Q 959 2375 959 1747 
Q 959 1119 1226 758 
Q 1494 397 1959 397 
Q 2419 397 2687 759 
Q 2956 1122 2956 1747 
Q 2956 2369 2687 2733 
Q 2419 3097 1959 3097 
z
M 1959 3584 
Q 2709 3584 3137 3096 
Q 3566 2609 3566 1747 
Q 3566 888 3137 398 
Q 2709 -91 1959 -91 
Q 1206 -91 779 398 
Q 353 888 353 1747 
Q 353 2609 779 3096 
Q 1206 3584 1959 3584 
z
" transform="scale(0.015625)"/>
      <path id="DejaVuSans-6e" d="M 3513 2113 
L 3513 0 
L 2938 0 
L 2938 2094 
Q 2938 2591 2744 2837 
Q 2550 3084 2163 3084 
Q 1697 3084 1428 2787 
Q 1159 2491 1159 1978 
L 1159 0 
L 581 0 
L 581 3500 
L 1159 3500 
L 1159 2956 
Q 1366 3272 1645 3428 
Q 1925 3584 2291 3584 
Q 2894 3584 3203 3211 
Q 3513 2838 3513 2113 
z
" transform="scale(0.015625)"/>
      <path id="DejaVuSans-66" d="M 2375 4863 
L 2375 4384 
L 1825 4384 
Q 1516 4384 1395 4259 
Q 1275 4134 1275 3809 
L 1275 3500 
L 2222 3500 
L 2222 3053 
L 1275 3053 
L 1275 0 
L 697 0 
L 697 3053 
L 147 3053 
L 147 3500 
L 697 3500 
L 697 3744 
Q 697 4328 969 4595 
Q 1241 4863 1831 4863 
L 2375 4863 
z
" transform="scale(0.015625)"/>
      <path id="DejaVuSans-72" d="M 2631 2963 
Q 2534 3019 2420 3045 
Q 2306 3072 2169 3072 
Q 1681 3072 1420 2755 
Q 1159 2438 1159 1844 
L 1159 0 
L 581 0 
L 581 3500 
L 1159 3500 
L 1159 2956 
Q 1341 3275 1631 3429 
Q 1922 3584 2338 3584 
Q 2397 3584 2469 3576 
Q 2541 3569 2628 3553 
L 2631 2963 
z
" transform="scale(0.015625)"/>
      <path id="DejaVuSans-6d" d="M 3328 2828 
Q 3544 3216 3844 3400 
Q 4144 3584 4550 3584 
Q 5097 3584 5394 3201 
Q 5691 2819 5691 2113 
L 5691 0 
L 5113 0 
L 5113 2094 
Q 5113 2597 4934 2840 
Q 4756 3084 4391 3084 
Q 3944 3084 3684 2787 
Q 3425 2491 3425 1978 
L 3425 0 
L 2847 0 
L 2847 2094 
Q 2847 2600 2669 2842 
Q 2491 3084 2119 3084 
Q 1678 3084 1418 2786 
Q 1159 2488 1159 1978 
L 1159 0 
L 581 0 
L 581 3500 
L 1159 3500 
L 1159 2956 
Q 1356 3278 1631 3431 
Q 1906 3584 2284 3584 
Q 2666 3584 2933 3390 
Q 3200 3197 3328 2828 
z
" transform="scale(0.015625)"/>
      <path id="DejaVuSans-65" d="M 3597 1894 
L 3597 1613 
L 953 1613 
Q 991 1019 1311 708 
Q 1631 397 2203 397 
Q 2534 397 2845 478 
Q 3156 559 3463 722 
L 3463 178 
Q 3153 47 2828 -22 
Q 2503 -91 2169 -91 
Q 1331 -91 842 396 
Q 353 884 353 1716 
Q 353 2575 817 3079 
Q 1281 3584 2069 3584 
Q 2775 3584 3186 3129 
Q 3597 2675 3597 1894 
z
M 3022 2063 
Q 3016 2534 2758 2815 
Q 2500 3097 2075 3097 
Q 1594 3097 1305 2825 
Q 1016 2553 972 2059 
L 3022 2063 
z
" transform="scale(0.015625)"/>
      <path id="DejaVuSans-64" d="M 2906 2969 
L 2906 4863 
L 3481 4863 
L 3481 0 
L 2906 0 
L 2906 525 
Q 2725 213 2448 61 
Q 2172 -91 1784 -91 
Q 1150 -91 751 415 
Q 353 922 353 1747 
Q 353 2572 751 3078 
Q 1150 3584 1784 3584 
Q 2172 3584 2448 3432 
Q 2725 3281 2906 2969 
z
M 947 1747 
Q 947 1113 1208 752 
Q 1469 391 1925 391 
Q 2381 391 2643 752 
Q 2906 1113 2906 1747 
Q 2906 2381 2643 2742 
Q 2381 3103 1925 3103 
Q 1469 3103 1208 2742 
Q 947 2381 947 1747 
z
" transform="scale(0.015625)"/>
      <path id="DejaVuSans-73" d="M 2834 3397 
L 2834 2853 
Q 2591 2978 2328 3040 
Q 2066 3103 1784 3103 
Q 1356 3103 1142 2972 
Q 928 2841 928 2578 
Q 928 2378 1081 2264 
Q 1234 2150 1697 2047 
L 1894 2003 
Q 2506 1872 2764 1633 
Q 3022 1394 3022 966 
Q 3022 478 2636 193 
Q 2250 -91 1575 -91 
Q 1294 -91 989 -36 
Q 684 19 347 128 
L 347 722 
Q 666 556 975 473 
Q 1284 391 1588 391 
Q 1994 391 2212 530 
Q 2431 669 2431 922 
Q 2431 1156 2273 1281 
Q 2116 1406 1581 1522 
L 1381 1569 
Q 847 1681 609 1914 
Q 372 2147 372 2553 
Q 372 3047 722 3315 
Q 1072 3584 1716 3584 
Q 2034 3584 2315 3537 
Q 2597 3491 2834 3397 
z
" transform="scale(0.015625)"/>
      <path id="DejaVuSans-46" d="M 628 4666 
L 3309 4666 
L 3309 4134 
L 1259 4134 
L 1259 2759 
L 3109 2759 
L 3109 2228 
L 1259 2228 
L 1259 0 
L 628 0 
L 628 4666 
z
" transform="scale(0.015625)"/>
      <path id="DejaVuSans-63" d="M 3122 3366 
L 3122 2828 
Q 2878 2963 2633 3030 
Q 2388 3097 2138 3097 
Q 1578 3097 1268 2742 
Q 959 2388 959 1747 
Q 959 1106 1268 751 
Q 1578 397 2138 397 
Q 2388 397 2633 464 
Q 2878 531 3122 666 
L 3122 134 
Q 2881 22 2623 -34 
Q 2366 -91 2075 -91 
Q 1284 -91 818 406 
Q 353 903 353 1747 
Q 353 2603 823 3093 
Q 1294 3584 2113 3584 
Q 2378 3584 2631 3529 
Q 2884 3475 3122 3366 
z
" transform="scale(0.015625)"/>
      <path id="DejaVuSans-74" d="M 1172 4494 
L 1172 3500 
L 2356 3500 
L 2356 3053 
L 1172 3053 
L 1172 1153 
Q 1172 725 1289 603 
Q 1406 481 1766 481 
L 2356 481 
L 2356 0 
L 1766 0 
Q 1100 0 847 248 
Q 594 497 594 1153 
L 594 3053 
L 172 3053 
L 172 3500 
L 594 3500 
L 594 4494 
L 1172 4494 
z
" transform="scale(0.015625)"/>
      <path id="DejaVuSans-67" d="M 2906 1791 
Q 2906 2416 2648 2759 
Q 2391 3103 1925 3103 
Q 1463 3103 1205 2759 
Q 947 2416 947 1791 
Q 947 1169 1205 825 
Q 1463 481 1925 481 
Q 2391 481 2648 825 
Q 2906 1169 2906 1791 
z
M 3481 434 
Q 3481 -459 3084 -895 
Q 2688 -1331 1869 -1331 
Q 1566 -1331 1297 -1286 
Q 1028 -1241 775 -1147 
L 775 -588 
Q 1028 -725 1275 -790 
Q 1522 -856 1778 -856 
Q 2344 -856 2625 -561 
Q 2906 -266 2906 331 
L 2906 616 
Q 2728 306 2450 153 
Q 2172 0 1784 0 
Q 1141 0 747 490 
Q 353 981 353 1791 
Q 353 2603 747 3093 
Q 1141 3584 1784 3584 
Q 2172 3584 2450 3431 
Q 2728 3278 2906 2969 
L 2906 3500 
L 3481 3500 
L 3481 434 
z
" transform="scale(0.015625)"/>
      <path id="DejaVuSans-45" d="M 628 4666 
L 3578 4666 
L 3578 4134 
L 1259 4134 
L 1259 2753 
L 3481 2753 
L 3481 2222 
L 1259 2222 
L 1259 531 
L 3634 531 
L 3634 0 
L 628 0 
L 628 4666 
z
" transform="scale(0.015625)"/>
      <path id="DejaVuSans-75" d="M 544 1381 
L 544 3500 
L 1119 3500 
L 1119 1403 
Q 1119 906 1312 657 
Q 1506 409 1894 409 
Q 2359 409 2629 706 
Q 2900 1003 2900 1516 
L 2900 3500 
L 3475 3500 
L 3475 0 
L 2900 0 
L 2900 538 
Q 2691 219 2414 64 
Q 2138 -91 1772 -91 
Q 1169 -91 856 284 
Q 544 659 544 1381 
z
M 1991 3584 
L 1991 3584 
z
" transform="scale(0.015625)"/>
     </defs>
     <use xlink:href="#DejaVuSans-44"/>
     <use xlink:href="#DejaVuSans-61" x="77.001953"/>
     <use xlink:href="#DejaVuSans-69" x="138.28125"/>
     <use xlink:href="#DejaVuSans-6c" x="166.064453"/>
     <use xlink:href="#DejaVuSans-79" x="193.847656"/>
     <use xlink:href="#DejaVuSans-20" x="253.027344"/>
     <use xlink:href="#DejaVuSans-43" x="284.814453"/>
     <use xlink:href="#DejaVuSans-6f" x="354.638672"/>
     <use xlink:href="#DejaVuSans-6e" x="415.820312"/>
     <use xlink:href="#DejaVuSans-66" x="479.199219"/>
     <use xlink:href="#DejaVuSans-69" x="514.404297"/>
     <use xlink:href="#DejaVuSans-72" x="542.1875"/>
     <use xlink:href="#DejaVuSans-6d" x="581.550781"/>
     <use xlink:href="#DejaVuSans-65" x="678.962891"/>
     <use xlink:href="#DejaVuSans-64" x="740.486328"/>
     <use xlink:href="#DejaVuSans-20" x="803.962891"/>
     <use xlink:href="#DejaVuSans-43" x="835.75"/>
     <use xlink:href="#DejaVuSans-61" x="905.574219"/>
     <use xlink:href="#DejaVuSans-73" x="966.853516"/>
     <use xlink:href="#DejaVuSans-65" x="1018.953125"/>
     <use xlink:href="#DejaVuSans-73" x="1080.476562"/>
     <use xlink:href="#DejaVuSans-20" x="1132.576172"/>
     <use xlink:href="#DejaVuSans-46" x="1164.363281"/>
     <use xlink:href="#DejaVuSans-6f" x="1218.257812"/>
     <use xlink:href="#DejaVuSans-72" x="1279.439453"/>
     <use xlink:href="#DejaVuSans-65" x="1318.302734"/>
     <use xlink:href="#DejaVuSans-63" x="1379.826172"/>
     <use xlink:href="#DejaVuSans-61" x="1434.806641"/>
     <use xlink:href="#DejaVuSans-73" x="1496.085938"/>
     <use xlink:href="#DejaVuSans-74" x="1548.185547"/>
     <use xlink:href="#DejaVuSans-69" x="1587.394531"/>
     <use xlink:href="#DejaVuSans-6e" x="1615.177734"/>
     <use xlink:href="#DejaVuSans-67" x="1678.556641"/>
     <use xlink:href="#DejaVuSans-20" x="1742.033203"/>
     <use xlink:href="#DejaVuSans-2d" x="1773.820312"/>
     <use xlink:href="#DejaVuSans-20" x="1809.904297"/>
     <use xlink:href="#DejaVuSans-45" x="1841.691406"/>
     <use xlink:href="#DejaVuSans-63" x="1904.875"/>
     <use xlink:href="#DejaVuSans-75" x="1959.855469"/>
     <use xlink:href="#DejaVuSans-61" x="2023.234375"/>
     <use xlink:href="#DejaVuSans-64" x="2084.513672"/>
     <use xlink:href="#DejaVuSans-6f" x="2147.990234"/>
     <use xlink:href="#DejaVuSans-72" x="2209.171875"/>
    </g>
    <!-- ARIMA (0, 1, 1)x(1, 0, 0, 7) (R2 = 0.470679) -->
    <g transform="translate(585.645625 29.7555)scale(0.12 -0.12)">
     <defs>
      <path id="DejaVuSans-41" d="M 2188 4044 
L 1331 1722 
L 3047 1722 
L 2188 4044 
z
M 1831 4666 
L 2547 4666 
L 4325 0 
L 3669 0 
L 3244 1197 
L 1141 1197 
L 716 0 
L 50 0 
L 1831 4666 
z
" transform="scale(0.015625)"/>
      <path id="DejaVuSans-52" d="M 2841 2188 
Q 3044 2119 3236 1894 
Q 3428 1669 3622 1275 
L 4263 0 
L 3584 0 
L 2988 1197 
Q 2756 1666 2539 1819 
Q 2322 1972 1947 1972 
L 1259 1972 
L 1259 0 
L 628 0 
L 628 4666 
L 2053 4666 
Q 2853 4666 3247 4331 
Q 3641 3997 3641 3322 
Q 3641 2881 3436 2590 
Q 3231 2300 2841 2188 
z
M 1259 4147 
L 1259 2491 
L 2053 2491 
Q 2509 2491 2742 2702 
Q 2975 2913 2975 3322 
Q 2975 3731 2742 3939 
Q 2509 4147 2053 4147 
L 1259 4147 
z
" transform="scale(0.015625)"/>
      <path id="DejaVuSans-49" d="M 628 4666 
L 1259 4666 
L 1259 0 
L 628 0 
L 628 4666 
z
" transform="scale(0.015625)"/>
      <path id="DejaVuSans-4d" d="M 628 4666 
L 1569 4666 
L 2759 1491 
L 3956 4666 
L 4897 4666 
L 4897 0 
L 4281 0 
L 4281 4097 
L 3078 897 
L 2444 897 
L 1241 4097 
L 1241 0 
L 628 0 
L 628 4666 
z
" transform="scale(0.015625)"/>
      <path id="DejaVuSans-28" d="M 1984 4856 
Q 1566 4138 1362 3434 
Q 1159 2731 1159 2009 
Q 1159 1288 1364 580 
Q 1569 -128 1984 -844 
L 1484 -844 
Q 1016 -109 783 600 
Q 550 1309 550 2009 
Q 550 2706 781 3412 
Q 1013 4119 1484 4856 
L 1984 4856 
z
" transform="scale(0.015625)"/>
      <path id="DejaVuSans-2c" d="M 750 794 
L 1409 794 
L 1409 256 
L 897 -744 
L 494 -744 
L 750 256 
L 750 794 
z
" transform="scale(0.015625)"/>
      <path id="DejaVuSans-29" d="M 513 4856 
L 1013 4856 
Q 1481 4119 1714 3412 
Q 1947 2706 1947 2009 
Q 1947 1309 1714 600 
Q 1481 -109 1013 -844 
L 513 -844 
Q 928 -128 1133 580 
Q 1338 1288 1338 2009 
Q 1338 2731 1133 3434 
Q 928 4138 513 4856 
z
" transform="scale(0.015625)"/>
      <path id="DejaVuSans-78" d="M 3513 3500 
L 2247 1797 
L 3578 0 
L 2900 0 
L 1881 1375 
L 863 0 
L 184 0 
L 1544 1831 
L 300 3500 
L 978 3500 
L 1906 2253 
L 2834 3500 
L 3513 3500 
z
" transform="scale(0.015625)"/>
      <path id="DejaVuSans-3d" d="M 678 2906 
L 4684 2906 
L 4684 2381 
L 678 2381 
L 678 2906 
z
M 678 1631 
L 4684 1631 
L 4684 1100 
L 678 1100 
L 678 1631 
z
" transform="scale(0.015625)"/>
      <path id="DejaVuSans-2e" d="M 684 794 
L 1344 794 
L 1344 0 
L 684 0 
L 684 794 
z
" transform="scale(0.015625)"/>
      <path id="DejaVuSans-36" d="M 2113 2584 
Q 1688 2584 1439 2293 
Q 1191 2003 1191 1497 
Q 1191 994 1439 701 
Q 1688 409 2113 409 
Q 2538 409 2786 701 
Q 3034 994 3034 1497 
Q 3034 2003 2786 2293 
Q 2538 2584 2113 2584 
z
M 3366 4563 
L 3366 3988 
Q 3128 4100 2886 4159 
Q 2644 4219 2406 4219 
Q 1781 4219 1451 3797 
Q 1122 3375 1075 2522 
Q 1259 2794 1537 2939 
Q 1816 3084 2150 3084 
Q 2853 3084 3261 2657 
Q 3669 2231 3669 1497 
Q 3669 778 3244 343 
Q 2819 -91 2113 -91 
Q 1303 -91 875 529 
Q 447 1150 447 2328 
Q 447 3434 972 4092 
Q 1497 4750 2381 4750 
Q 2619 4750 2861 4703 
Q 3103 4656 3366 4563 
z
" transform="scale(0.015625)"/>
      <path id="DejaVuSans-39" d="M 703 97 
L 703 672 
Q 941 559 1184 500 
Q 1428 441 1663 441 
Q 2288 441 2617 861 
Q 2947 1281 2994 2138 
Q 2813 1869 2534 1725 
Q 2256 1581 1919 1581 
Q 1219 1581 811 2004 
Q 403 2428 403 3163 
Q 403 3881 828 4315 
Q 1253 4750 1959 4750 
Q 2769 4750 3195 4129 
Q 3622 3509 3622 2328 
Q 3622 1225 3098 567 
Q 2575 -91 1691 -91 
Q 1453 -91 1209 -44 
Q 966 3 703 97 
z
M 1959 2075 
Q 2384 2075 2632 2365 
Q 2881 2656 2881 3163 
Q 2881 3666 2632 3958 
Q 2384 4250 1959 4250 
Q 1534 4250 1286 3958 
Q 1038 3666 1038 3163 
Q 1038 2656 1286 2365 
Q 1534 2075 1959 2075 
z
" transform="scale(0.015625)"/>
     </defs>
     <use xlink:href="#DejaVuSans-41"/>
     <use xlink:href="#DejaVuSans-52" x="68.408203"/>
     <use xlink:href="#DejaVuSans-49" x="137.890625"/>
     <use xlink:href="#DejaVuSans-4d" x="167.382812"/>
     <use xlink:href="#DejaVuSans-41" x="253.662109"/>
     <use xlink:href="#DejaVuSans-20" x="322.070312"/>
     <use xlink:href="#DejaVuSans-28" x="353.857422"/>
     <use xlink:href="#DejaVuSans-30" x="392.871094"/>
     <use xlink:href="#DejaVuSans-2c" x="456.494141"/>
     <use xlink:href="#DejaVuSans-20" x="488.28125"/>
     <use xlink:href="#DejaVuSans-31" x="520.068359"/>
     <use xlink:href="#DejaVuSans-2c" x="583.691406"/>
     <use xlink:href="#DejaVuSans-20" x="615.478516"/>
     <use xlink:href="#DejaVuSans-31" x="647.265625"/>
     <use xlink:href="#DejaVuSans-29" x="710.888672"/>
     <use xlink:href="#DejaVuSans-78" x="749.902344"/>
     <use xlink:href="#DejaVuSans-28" x="809.082031"/>
     <use xlink:href="#DejaVuSans-31" x="848.095703"/>
     <use xlink:href="#DejaVuSans-2c" x="911.71875"/>
     <use xlink:href="#DejaVuSans-20" x="943.505859"/>
     <use xlink:href="#DejaVuSans-30" x="975.292969"/>
     <use xlink:href="#DejaVuSans-2c" x="1038.916016"/>
     <use xlink:href="#DejaVuSans-20" x="1070.703125"/>
     <use xlink:href="#DejaVuSans-30" x="1102.490234"/>
     <use xlink:href="#DejaVuSans-2c" x="1166.113281"/>
     <use xlink:href="#DejaVuSans-20" x="1197.900391"/>
     <use xlink:href="#DejaVuSans-37" x="1229.6875"/>
     <use xlink:href="#DejaVuSans-29" x="1293.310547"/>
     <use xlink:href="#DejaVuSans-20" x="1332.324219"/>
     <use xlink:href="#DejaVuSans-28" x="1364.111328"/>
     <use xlink:href="#DejaVuSans-52" x="1403.125"/>
     <use xlink:href="#DejaVuSans-32" x="1472.607422"/>
     <use xlink:href="#DejaVuSans-20" x="1536.230469"/>
     <use xlink:href="#DejaVuSans-3d" x="1568.017578"/>
     <use xlink:href="#DejaVuSans-20" x="1651.806641"/>
     <use xlink:href="#DejaVuSans-30" x="1683.59375"/>
     <use xlink:href="#DejaVuSans-2e" x="1747.216797"/>
     <use xlink:href="#DejaVuSans-34" x="1779.003906"/>
     <use xlink:href="#DejaVuSans-37" x="1842.626953"/>
     <use xlink:href="#DejaVuSans-30" x="1906.25"/>
     <use xlink:href="#DejaVuSans-36" x="1969.873047"/>
     <use xlink:href="#DejaVuSans-37" x="2033.496094"/>
     <use xlink:href="#DejaVuSans-39" x="2097.119141"/>
     <use xlink:href="#DejaVuSans-29" x="2160.742188"/>
    </g>
   </g>
   <g id="legend_1">
    <g id="patch_7">
     <path d="M 1283.15 87.789875 
L 1380.229688 87.789875 
Q 1382.229688 87.789875 1382.229688 85.789875 
L 1382.229688 42.7555 
Q 1382.229688 40.7555 1380.229688 40.7555 
L 1283.15 40.7555 
Q 1281.15 40.7555 1281.15 42.7555 
L 1281.15 85.789875 
Q 1281.15 87.789875 1283.15 87.789875 
z
" style="fill: #ffffff; opacity: 0.8; stroke: #cccccc; stroke-linejoin: miter"/>
    </g>
    <g id="line2d_20">
     <path d="M 1285.15 48.853937 
L 1295.15 48.853937 
L 1305.15 48.853937 
" style="fill: none; stroke: #0000ff; stroke-width: 1.5; stroke-linecap: square"/>
    </g>
    <g id="text_18">
     <!-- Actual Value -->
     <g transform="translate(1313.15 52.353937)scale(0.1 -0.1)">
      <defs>
       <path id="DejaVuSans-56" d="M 1831 0 
L 50 4666 
L 709 4666 
L 2188 738 
L 3669 4666 
L 4325 4666 
L 2547 0 
L 1831 0 
z
" transform="scale(0.015625)"/>
      </defs>
      <use xlink:href="#DejaVuSans-41"/>
      <use xlink:href="#DejaVuSans-63" x="66.658203"/>
      <use xlink:href="#DejaVuSans-74" x="121.638672"/>
      <use xlink:href="#DejaVuSans-75" x="160.847656"/>
      <use xlink:href="#DejaVuSans-61" x="224.226562"/>
      <use xlink:href="#DejaVuSans-6c" x="285.505859"/>
      <use xlink:href="#DejaVuSans-20" x="313.289062"/>
      <use xlink:href="#DejaVuSans-56" x="345.076172"/>
      <use xlink:href="#DejaVuSans-61" x="405.734375"/>
      <use xlink:href="#DejaVuSans-6c" x="467.013672"/>
      <use xlink:href="#DejaVuSans-75" x="494.796875"/>
      <use xlink:href="#DejaVuSans-65" x="558.175781"/>
     </g>
    </g>
    <g id="line2d_21">
     <path d="M 1285.15 63.532062 
L 1295.15 63.532062 
L 1305.15 63.532062 
" style="fill: none; stroke: #ffa500; stroke-width: 1.5; stroke-linecap: square"/>
    </g>
    <g id="text_19">
     <!-- Check Value -->
     <g transform="translate(1313.15 67.032062)scale(0.1 -0.1)">
      <defs>
       <path id="DejaVuSans-68" d="M 3513 2113 
L 3513 0 
L 2938 0 
L 2938 2094 
Q 2938 2591 2744 2837 
Q 2550 3084 2163 3084 
Q 1697 3084 1428 2787 
Q 1159 2491 1159 1978 
L 1159 0 
L 581 0 
L 581 4863 
L 1159 4863 
L 1159 2956 
Q 1366 3272 1645 3428 
Q 1925 3584 2291 3584 
Q 2894 3584 3203 3211 
Q 3513 2838 3513 2113 
z
" transform="scale(0.015625)"/>
       <path id="DejaVuSans-6b" d="M 581 4863 
L 1159 4863 
L 1159 1991 
L 2875 3500 
L 3609 3500 
L 1753 1863 
L 3688 0 
L 2938 0 
L 1159 1709 
L 1159 0 
L 581 0 
L 581 4863 
z
" transform="scale(0.015625)"/>
      </defs>
      <use xlink:href="#DejaVuSans-43"/>
      <use xlink:href="#DejaVuSans-68" x="69.824219"/>
      <use xlink:href="#DejaVuSans-65" x="133.203125"/>
      <use xlink:href="#DejaVuSans-63" x="194.726562"/>
      <use xlink:href="#DejaVuSans-6b" x="249.707031"/>
      <use xlink:href="#DejaVuSans-20" x="307.617188"/>
      <use xlink:href="#DejaVuSans-56" x="339.404297"/>
      <use xlink:href="#DejaVuSans-61" x="400.0625"/>
      <use xlink:href="#DejaVuSans-6c" x="461.341797"/>
      <use xlink:href="#DejaVuSans-75" x="489.125"/>
      <use xlink:href="#DejaVuSans-65" x="552.503906"/>
     </g>
    </g>
    <g id="line2d_22">
     <path d="M 1285.15 78.210187 
L 1295.15 78.210187 
L 1305.15 78.210187 
" style="fill: none; stroke: #ff0000; stroke-width: 1.5; stroke-linecap: square"/>
    </g>
    <g id="text_20">
     <!-- Predict Value -->
     <g transform="translate(1313.15 81.710187)scale(0.1 -0.1)">
      <defs>
       <path id="DejaVuSans-50" d="M 1259 4147 
L 1259 2394 
L 2053 2394 
Q 2494 2394 2734 2622 
Q 2975 2850 2975 3272 
Q 2975 3691 2734 3919 
Q 2494 4147 2053 4147 
L 1259 4147 
z
M 628 4666 
L 2053 4666 
Q 2838 4666 3239 4311 
Q 3641 3956 3641 3272 
Q 3641 2581 3239 2228 
Q 2838 1875 2053 1875 
L 1259 1875 
L 1259 0 
L 628 0 
L 628 4666 
z
" transform="scale(0.015625)"/>
      </defs>
      <use xlink:href="#DejaVuSans-50"/>
      <use xlink:href="#DejaVuSans-72" x="58.552734"/>
      <use xlink:href="#DejaVuSans-65" x="97.416016"/>
      <use xlink:href="#DejaVuSans-64" x="158.939453"/>
      <use xlink:href="#DejaVuSans-69" x="222.416016"/>
      <use xlink:href="#DejaVuSans-63" x="250.199219"/>
      <use xlink:href="#DejaVuSans-74" x="305.179688"/>
      <use xlink:href="#DejaVuSans-20" x="344.388672"/>
      <use xlink:href="#DejaVuSans-56" x="376.175781"/>
      <use xlink:href="#DejaVuSans-61" x="436.833984"/>
      <use xlink:href="#DejaVuSans-6c" x="498.113281"/>
      <use xlink:href="#DejaVuSans-75" x="525.896484"/>
      <use xlink:href="#DejaVuSans-65" x="589.275391"/>
     </g>
    </g>
   </g>
  </g>
 </g>
 <defs>
  <clipPath id="pd9726b51e9">
   <rect x="48.029688" y="35.7555" width="1339.2" height="332.64"/>
  </clipPath>
 </defs>
</svg>
