<?xml version="1.0" encoding="utf-8" standalone="no"?>
<!DOCTYPE svg PUBLIC "-//W3C//DTD SVG 1.1//EN"
  "http://www.w3.org/Graphics/SVG/1.1/DTD/svg11.dtd">
<svg xmlns:xlink="http://www.w3.org/1999/xlink" width="1386.05pt" height="392.273625pt" viewBox="0 0 1386.05 392.273625" xmlns="http://www.w3.org/2000/svg" version="1.1">
 <metadata>
  <rdf:RDF xmlns:dc="http://purl.org/dc/elements/1.1/" xmlns:cc="http://creativecommons.org/ns#" xmlns:rdf="http://www.w3.org/1999/02/22-rdf-syntax-ns#">
   <cc:Work>
    <dc:type rdf:resource="http://purl.org/dc/dcmitype/StillImage"/>
    <dc:date>2022-07-31T19:24:55.508008</dc:date>
    <dc:format>image/svg+xml</dc:format>
    <dc:creator>
     <cc:Agent>
      <dc:title>Matplotlib v3.5.2, https://matplotlib.org/</dc:title>
     </cc:Agent>
    </dc:creator>
   </cc:Work>
  </rdf:RDF>
 </metadata>
 <defs>
  <style type="text/css">*{stroke-linejoin: round; stroke-linecap: butt}</style>
 </defs>
 <g id="figure_1">
  <g id="patch_1">
   <path d="M 0 392.273625 
L 1386.05 392.273625 
L 1386.05 0 
L 0 0 
z
" style="fill: #ffffff"/>
  </g>
  <g id="axes_1">
   <g id="patch_2">
    <path d="M 39.65 368.3955 
L 1378.85 368.3955 
L 1378.85 35.7555 
L 39.65 35.7555 
z
" style="fill: #ffffff"/>
   </g>
   <g id="matplotlib.axis_1">
    <g id="xtick_1">
     <g id="line2d_1">
      <defs>
       <path id="md9d5dd4998" d="M 0 0 
L 0 3.5 
" style="stroke: #000000; stroke-width: 0.8"/>
      </defs>
      <g>
       <use xlink:href="#md9d5dd4998" x="71.78453" y="368.3955" style="stroke: #000000; stroke-width: 0.8"/>
      </g>
     </g>
     <g id="text_1">
      <!-- 2020-01 -->
      <g transform="translate(50.893124 382.993937)scale(0.1 -0.1)">
       <defs>
        <path id="DejaVuSans-32" d="M 1228 531 
L 3431 531 
L 3431 0 
L 469 0 
L 469 531 
Q 828 903 1448 1529 
Q 2069 2156 2228 2338 
Q 2531 2678 2651 2914 
Q 2772 3150 2772 3378 
Q 2772 3750 2511 3984 
Q 2250 4219 1831 4219 
Q 1534 4219 1204 4116 
Q 875 4013 500 3803 
L 500 4441 
Q 881 4594 1212 4672 
Q 1544 4750 1819 4750 
Q 2544 4750 2975 4387 
Q 3406 4025 3406 3419 
Q 3406 3131 3298 2873 
Q 3191 2616 2906 2266 
Q 2828 2175 2409 1742 
Q 1991 1309 1228 531 
z
" transform="scale(0.015625)"/>
        <path id="DejaVuSans-30" d="M 2034 4250 
Q 1547 4250 1301 3770 
Q 1056 3291 1056 2328 
Q 1056 1369 1301 889 
Q 1547 409 2034 409 
Q 2525 409 2770 889 
Q 3016 1369 3016 2328 
Q 3016 3291 2770 3770 
Q 2525 4250 2034 4250 
z
M 2034 4750 
Q 2819 4750 3233 4129 
Q 3647 3509 3647 2328 
Q 3647 1150 3233 529 
Q 2819 -91 2034 -91 
Q 1250 -91 836 529 
Q 422 1150 422 2328 
Q 422 3509 836 4129 
Q 1250 4750 2034 4750 
z
" transform="scale(0.015625)"/>
        <path id="DejaVuSans-2d" d="M 313 2009 
L 1997 2009 
L 1997 1497 
L 313 1497 
L 313 2009 
z
" transform="scale(0.015625)"/>
        <path id="DejaVuSans-31" d="M 794 531 
L 1825 531 
L 1825 4091 
L 703 3866 
L 703 4441 
L 1819 4666 
L 2450 4666 
L 2450 531 
L 3481 531 
L 3481 0 
L 794 0 
L 794 531 
z
" transform="scale(0.015625)"/>
       </defs>
       <use xlink:href="#DejaVuSans-32"/>
       <use xlink:href="#DejaVuSans-30" x="63.623047"/>
       <use xlink:href="#DejaVuSans-32" x="127.246094"/>
       <use xlink:href="#DejaVuSans-30" x="190.869141"/>
       <use xlink:href="#DejaVuSans-2d" x="254.492188"/>
       <use xlink:href="#DejaVuSans-30" x="290.576172"/>
       <use xlink:href="#DejaVuSans-31" x="354.199219"/>
      </g>
     </g>
    </g>
    <g id="xtick_2">
     <g id="line2d_2">
      <g>
       <use xlink:href="#md9d5dd4998" x="190.656165" y="368.3955" style="stroke: #000000; stroke-width: 0.8"/>
      </g>
     </g>
     <g id="text_2">
      <!-- 2020-04 -->
      <g transform="translate(169.764758 382.993937)scale(0.1 -0.1)">
       <defs>
        <path id="DejaVuSans-34" d="M 2419 4116 
L 825 1625 
L 2419 1625 
L 2419 4116 
z
M 2253 4666 
L 3047 4666 
L 3047 1625 
L 3713 1625 
L 3713 1100 
L 3047 1100 
L 3047 0 
L 2419 0 
L 2419 1100 
L 313 1100 
L 313 1709 
L 2253 4666 
z
" transform="scale(0.015625)"/>
       </defs>
       <use xlink:href="#DejaVuSans-32"/>
       <use xlink:href="#DejaVuSans-30" x="63.623047"/>
       <use xlink:href="#DejaVuSans-32" x="127.246094"/>
       <use xlink:href="#DejaVuSans-30" x="190.869141"/>
       <use xlink:href="#DejaVuSans-2d" x="254.492188"/>
       <use xlink:href="#DejaVuSans-30" x="290.576172"/>
       <use xlink:href="#DejaVuSans-34" x="354.199219"/>
      </g>
     </g>
    </g>
    <g id="xtick_3">
     <g id="line2d_3">
      <g>
       <use xlink:href="#md9d5dd4998" x="309.527799" y="368.3955" style="stroke: #000000; stroke-width: 0.8"/>
      </g>
     </g>
     <g id="text_3">
      <!-- 2020-07 -->
      <g transform="translate(288.636393 382.993937)scale(0.1 -0.1)">
       <defs>
        <path id="DejaVuSans-37" d="M 525 4666 
L 3525 4666 
L 3525 4397 
L 1831 0 
L 1172 0 
L 2766 4134 
L 525 4134 
L 525 4666 
z
" transform="scale(0.015625)"/>
       </defs>
       <use xlink:href="#DejaVuSans-32"/>
       <use xlink:href="#DejaVuSans-30" x="63.623047"/>
       <use xlink:href="#DejaVuSans-32" x="127.246094"/>
       <use xlink:href="#DejaVuSans-30" x="190.869141"/>
       <use xlink:href="#DejaVuSans-2d" x="254.492188"/>
       <use xlink:href="#DejaVuSans-30" x="290.576172"/>
       <use xlink:href="#DejaVuSans-37" x="354.199219"/>
      </g>
     </g>
    </g>
    <g id="xtick_4">
     <g id="line2d_4">
      <g>
       <use xlink:href="#md9d5dd4998" x="429.705716" y="368.3955" style="stroke: #000000; stroke-width: 0.8"/>
      </g>
     </g>
     <g id="text_4">
      <!-- 2020-10 -->
      <g transform="translate(408.81431 382.993937)scale(0.1 -0.1)">
       <use xlink:href="#DejaVuSans-32"/>
       <use xlink:href="#DejaVuSans-30" x="63.623047"/>
       <use xlink:href="#DejaVuSans-32" x="127.246094"/>
       <use xlink:href="#DejaVuSans-30" x="190.869141"/>
       <use xlink:href="#DejaVuSans-2d" x="254.492188"/>
       <use xlink:href="#DejaVuSans-31" x="290.576172"/>
       <use xlink:href="#DejaVuSans-30" x="354.199219"/>
      </g>
     </g>
    </g>
    <g id="xtick_5">
     <g id="line2d_5">
      <g>
       <use xlink:href="#md9d5dd4998" x="549.883632" y="368.3955" style="stroke: #000000; stroke-width: 0.8"/>
      </g>
     </g>
     <g id="text_5">
      <!-- 2021-01 -->
      <g transform="translate(528.992226 382.993937)scale(0.1 -0.1)">
       <use xlink:href="#DejaVuSans-32"/>
       <use xlink:href="#DejaVuSans-30" x="63.623047"/>
       <use xlink:href="#DejaVuSans-32" x="127.246094"/>
       <use xlink:href="#DejaVuSans-31" x="190.869141"/>
       <use xlink:href="#DejaVuSans-2d" x="254.492188"/>
       <use xlink:href="#DejaVuSans-30" x="290.576172"/>
       <use xlink:href="#DejaVuSans-31" x="354.199219"/>
      </g>
     </g>
    </g>
    <g id="xtick_6">
     <g id="line2d_6">
      <g>
       <use xlink:href="#md9d5dd4998" x="667.448986" y="368.3955" style="stroke: #000000; stroke-width: 0.8"/>
      </g>
     </g>
     <g id="text_6">
      <!-- 2021-04 -->
      <g transform="translate(646.557579 382.993937)scale(0.1 -0.1)">
       <use xlink:href="#DejaVuSans-32"/>
       <use xlink:href="#DejaVuSans-30" x="63.623047"/>
       <use xlink:href="#DejaVuSans-32" x="127.246094"/>
       <use xlink:href="#DejaVuSans-31" x="190.869141"/>
       <use xlink:href="#DejaVuSans-2d" x="254.492188"/>
       <use xlink:href="#DejaVuSans-30" x="290.576172"/>
       <use xlink:href="#DejaVuSans-34" x="354.199219"/>
      </g>
     </g>
    </g>
    <g id="xtick_7">
     <g id="line2d_7">
      <g>
       <use xlink:href="#md9d5dd4998" x="786.32062" y="368.3955" style="stroke: #000000; stroke-width: 0.8"/>
      </g>
     </g>
     <g id="text_7">
      <!-- 2021-07 -->
      <g transform="translate(765.429214 382.993937)scale(0.1 -0.1)">
       <use xlink:href="#DejaVuSans-32"/>
       <use xlink:href="#DejaVuSans-30" x="63.623047"/>
       <use xlink:href="#DejaVuSans-32" x="127.246094"/>
       <use xlink:href="#DejaVuSans-31" x="190.869141"/>
       <use xlink:href="#DejaVuSans-2d" x="254.492188"/>
       <use xlink:href="#DejaVuSans-30" x="290.576172"/>
       <use xlink:href="#DejaVuSans-37" x="354.199219"/>
      </g>
     </g>
    </g>
    <g id="xtick_8">
     <g id="line2d_8">
      <g>
       <use xlink:href="#md9d5dd4998" x="906.498537" y="368.3955" style="stroke: #000000; stroke-width: 0.8"/>
      </g>
     </g>
     <g id="text_8">
      <!-- 2021-10 -->
      <g transform="translate(885.607131 382.993937)scale(0.1 -0.1)">
       <use xlink:href="#DejaVuSans-32"/>
       <use xlink:href="#DejaVuSans-30" x="63.623047"/>
       <use xlink:href="#DejaVuSans-32" x="127.246094"/>
       <use xlink:href="#DejaVuSans-31" x="190.869141"/>
       <use xlink:href="#DejaVuSans-2d" x="254.492188"/>
       <use xlink:href="#DejaVuSans-31" x="290.576172"/>
       <use xlink:href="#DejaVuSans-30" x="354.199219"/>
      </g>
     </g>
    </g>
    <g id="xtick_9">
     <g id="line2d_9">
      <g>
       <use xlink:href="#md9d5dd4998" x="1026.676453" y="368.3955" style="stroke: #000000; stroke-width: 0.8"/>
      </g>
     </g>
     <g id="text_9">
      <!-- 2022-01 -->
      <g transform="translate(1005.785047 382.993937)scale(0.1 -0.1)">
       <use xlink:href="#DejaVuSans-32"/>
       <use xlink:href="#DejaVuSans-30" x="63.623047"/>
       <use xlink:href="#DejaVuSans-32" x="127.246094"/>
       <use xlink:href="#DejaVuSans-32" x="190.869141"/>
       <use xlink:href="#DejaVuSans-2d" x="254.492188"/>
       <use xlink:href="#DejaVuSans-30" x="290.576172"/>
       <use xlink:href="#DejaVuSans-31" x="354.199219"/>
      </g>
     </g>
    </g>
    <g id="xtick_10">
     <g id="line2d_10">
      <g>
       <use xlink:href="#md9d5dd4998" x="1144.241806" y="368.3955" style="stroke: #000000; stroke-width: 0.8"/>
      </g>
     </g>
     <g id="text_10">
      <!-- 2022-04 -->
      <g transform="translate(1123.3504 382.993937)scale(0.1 -0.1)">
       <use xlink:href="#DejaVuSans-32"/>
       <use xlink:href="#DejaVuSans-30" x="63.623047"/>
       <use xlink:href="#DejaVuSans-32" x="127.246094"/>
       <use xlink:href="#DejaVuSans-32" x="190.869141"/>
       <use xlink:href="#DejaVuSans-2d" x="254.492188"/>
       <use xlink:href="#DejaVuSans-30" x="290.576172"/>
       <use xlink:href="#DejaVuSans-34" x="354.199219"/>
      </g>
     </g>
    </g>
    <g id="xtick_11">
     <g id="line2d_11">
      <g>
       <use xlink:href="#md9d5dd4998" x="1263.113441" y="368.3955" style="stroke: #000000; stroke-width: 0.8"/>
      </g>
     </g>
     <g id="text_11">
      <!-- 2022-07 -->
      <g transform="translate(1242.222035 382.993937)scale(0.1 -0.1)">
       <use xlink:href="#DejaVuSans-32"/>
       <use xlink:href="#DejaVuSans-30" x="63.623047"/>
       <use xlink:href="#DejaVuSans-32" x="127.246094"/>
       <use xlink:href="#DejaVuSans-32" x="190.869141"/>
       <use xlink:href="#DejaVuSans-2d" x="254.492188"/>
       <use xlink:href="#DejaVuSans-30" x="290.576172"/>
       <use xlink:href="#DejaVuSans-37" x="354.199219"/>
      </g>
     </g>
    </g>
   </g>
   <g id="matplotlib.axis_2">
    <g id="ytick_1">
     <g id="line2d_12">
      <defs>
       <path id="mdf03e21b59" d="M 0 0 
L -3.5 0 
" style="stroke: #000000; stroke-width: 0.8"/>
      </defs>
      <g>
       <use xlink:href="#mdf03e21b59" x="39.65" y="351.124195" style="stroke: #000000; stroke-width: 0.8"/>
      </g>
     </g>
     <g id="text_12">
      <!-- 0 -->
      <g transform="translate(26.2875 354.923414)scale(0.1 -0.1)">
       <use xlink:href="#DejaVuSans-30"/>
      </g>
     </g>
    </g>
    <g id="ytick_2">
     <g id="line2d_13">
      <g>
       <use xlink:href="#mdf03e21b59" x="39.65" y="293.217022" style="stroke: #000000; stroke-width: 0.8"/>
      </g>
     </g>
     <g id="text_13">
      <!-- 1000 -->
      <g transform="translate(7.2 297.01624)scale(0.1 -0.1)">
       <use xlink:href="#DejaVuSans-31"/>
       <use xlink:href="#DejaVuSans-30" x="63.623047"/>
       <use xlink:href="#DejaVuSans-30" x="127.246094"/>
       <use xlink:href="#DejaVuSans-30" x="190.869141"/>
      </g>
     </g>
    </g>
    <g id="ytick_3">
     <g id="line2d_14">
      <g>
       <use xlink:href="#mdf03e21b59" x="39.65" y="235.309848" style="stroke: #000000; stroke-width: 0.8"/>
      </g>
     </g>
     <g id="text_14">
      <!-- 2000 -->
      <g transform="translate(7.2 239.109067)scale(0.1 -0.1)">
       <use xlink:href="#DejaVuSans-32"/>
       <use xlink:href="#DejaVuSans-30" x="63.623047"/>
       <use xlink:href="#DejaVuSans-30" x="127.246094"/>
       <use xlink:href="#DejaVuSans-30" x="190.869141"/>
      </g>
     </g>
    </g>
    <g id="ytick_4">
     <g id="line2d_15">
      <g>
       <use xlink:href="#mdf03e21b59" x="39.65" y="177.402674" style="stroke: #000000; stroke-width: 0.8"/>
      </g>
     </g>
     <g id="text_15">
      <!-- 3000 -->
      <g transform="translate(7.2 181.201893)scale(0.1 -0.1)">
       <defs>
        <path id="DejaVuSans-33" d="M 2597 2516 
Q 3050 2419 3304 2112 
Q 3559 1806 3559 1356 
Q 3559 666 3084 287 
Q 2609 -91 1734 -91 
Q 1441 -91 1130 -33 
Q 819 25 488 141 
L 488 750 
Q 750 597 1062 519 
Q 1375 441 1716 441 
Q 2309 441 2620 675 
Q 2931 909 2931 1356 
Q 2931 1769 2642 2001 
Q 2353 2234 1838 2234 
L 1294 2234 
L 1294 2753 
L 1863 2753 
Q 2328 2753 2575 2939 
Q 2822 3125 2822 3475 
Q 2822 3834 2567 4026 
Q 2313 4219 1838 4219 
Q 1578 4219 1281 4162 
Q 984 4106 628 3988 
L 628 4550 
Q 988 4650 1302 4700 
Q 1616 4750 1894 4750 
Q 2613 4750 3031 4423 
Q 3450 4097 3450 3541 
Q 3450 3153 3228 2886 
Q 3006 2619 2597 2516 
z
" transform="scale(0.015625)"/>
       </defs>
       <use xlink:href="#DejaVuSans-33"/>
       <use xlink:href="#DejaVuSans-30" x="63.623047"/>
       <use xlink:href="#DejaVuSans-30" x="127.246094"/>
       <use xlink:href="#DejaVuSans-30" x="190.869141"/>
      </g>
     </g>
    </g>
    <g id="ytick_5">
     <g id="line2d_16">
      <g>
       <use xlink:href="#mdf03e21b59" x="39.65" y="119.495501" style="stroke: #000000; stroke-width: 0.8"/>
      </g>
     </g>
     <g id="text_16">
      <!-- 4000 -->
      <g transform="translate(7.2 123.294719)scale(0.1 -0.1)">
       <use xlink:href="#DejaVuSans-34"/>
       <use xlink:href="#DejaVuSans-30" x="63.623047"/>
       <use xlink:href="#DejaVuSans-30" x="127.246094"/>
       <use xlink:href="#DejaVuSans-30" x="190.869141"/>
      </g>
     </g>
    </g>
    <g id="ytick_6">
     <g id="line2d_17">
      <g>
       <use xlink:href="#mdf03e21b59" x="39.65" y="61.588327" style="stroke: #000000; stroke-width: 0.8"/>
      </g>
     </g>
     <g id="text_17">
      <!-- 5000 -->
      <g transform="translate(7.2 65.387546)scale(0.1 -0.1)">
       <defs>
        <path id="DejaVuSans-35" d="M 691 4666 
L 3169 4666 
L 3169 4134 
L 1269 4134 
L 1269 2991 
Q 1406 3038 1543 3061 
Q 1681 3084 1819 3084 
Q 2600 3084 3056 2656 
Q 3513 2228 3513 1497 
Q 3513 744 3044 326 
Q 2575 -91 1722 -91 
Q 1428 -91 1123 -41 
Q 819 9 494 109 
L 494 744 
Q 775 591 1075 516 
Q 1375 441 1709 441 
Q 2250 441 2565 725 
Q 2881 1009 2881 1497 
Q 2881 1984 2565 2268 
Q 2250 2553 1709 2553 
Q 1456 2553 1204 2497 
Q 953 2441 691 2322 
L 691 4666 
z
" transform="scale(0.015625)"/>
       </defs>
       <use xlink:href="#DejaVuSans-35"/>
       <use xlink:href="#DejaVuSans-30" x="63.623047"/>
       <use xlink:href="#DejaVuSans-30" x="127.246094"/>
       <use xlink:href="#DejaVuSans-30" x="190.869141"/>
      </g>
     </g>
    </g>
   </g>
   <g id="line2d_18">
    <path d="M 100.522727 351.124195 
L 168.449376 351.124195 
L 169.755657 350.892567 
L 171.061939 351.124195 
L 172.368221 351.066288 
L 173.674503 351.124195 
L 174.980784 350.950474 
L 176.287066 351.124195 
L 177.593348 351.008381 
L 178.899629 351.124195 
L 180.205911 351.066288 
L 182.818474 351.124195 
L 184.124756 350.892567 
L 185.431038 351.124195 
L 186.73732 350.834659 
L 188.043601 351.008381 
L 190.656165 350.950474 
L 191.962446 351.124195 
L 193.268728 350.776752 
L 194.57501 350.950474 
L 195.881291 350.834659 
L 197.187573 351.066288 
L 198.493855 350.660938 
L 199.800137 350.950474 
L 201.106418 351.066288 
L 202.4127 350.603031 
L 203.718982 350.892567 
L 205.025263 351.008381 
L 206.331545 350.950474 
L 207.637827 350.660938 
L 208.944108 350.950474 
L 210.25039 350.718845 
L 211.556672 350.892567 
L 212.862954 350.603031 
L 214.169235 350.950474 
L 218.08808 351.008381 
L 219.394362 351.124195 
L 220.700644 351.066288 
L 222.006925 350.834659 
L 223.313207 351.066288 
L 225.925771 351.008381 
L 227.232052 350.892567 
L 228.538334 351.066288 
L 229.844616 351.008381 
L 231.150897 351.124195 
L 235.069742 350.834659 
L 237.682306 349.444887 
L 238.988588 350.950474 
L 241.601151 349.444887 
L 242.907433 350.487216 
L 244.213714 350.487216 
L 245.519996 351.008381 
L 248.13256 350.255588 
L 249.438841 350.023959 
L 250.745123 350.487216 
L 252.051405 349.097444 
L 253.357686 350.371402 
L 254.663968 349.734423 
L 255.97025 350.545124 
L 257.276531 349.155351 
L 259.889095 346.028364 
L 261.195377 346.896972 
L 262.501658 348.460465 
L 263.80794 349.38698 
L 265.114222 345.333478 
L 266.420503 343.190912 
L 267.726785 345.623014 
L 269.033067 344.812313 
L 270.339348 346.202086 
L 271.64563 346.086271 
L 272.951912 342.901377 
L 274.258194 342.438119 
L 275.564475 341.337883 
L 278.177039 346.144178 
L 279.48332 343.24882 
L 280.789602 340.700904 
L 282.095884 341.279976 
L 283.402165 341.627419 
L 284.708447 336.936938 
L 286.014729 336.589495 
L 287.321011 340.758811 
L 288.627292 340.932533 
L 289.933574 344.812313 
L 291.239856 343.65417 
L 292.546137 339.832296 
L 293.852419 344.406963 
L 295.158701 328.019233 
L 296.464982 347.476043 
L 297.771264 343.538356 
L 299.077546 340.411368 
L 300.383828 340.353461 
L 301.690109 342.959284 
L 302.996391 336.647402 
L 304.302673 342.727655 
L 305.608954 344.233242 
L 306.915236 342.032769 
L 308.221518 351.124195 
L 317.36549 351.124195 
L 318.671771 297.386338 
L 319.978053 339.600668 
L 321.284335 342.611841 
L 322.590616 334.794372 
L 323.896898 341.974862 
L 325.20318 339.195317 
L 326.509462 339.369039 
L 327.815743 338.847874 
L 329.122025 334.099486 
L 330.428307 332.130642 
L 331.734588 331.204128 
L 333.04087 330.509241 
L 334.347152 310.357545 
L 335.653433 301.03449 
L 336.959715 324.950153 
L 338.265997 327.440161 
L 339.572279 307.114743 
L 340.87856 318.985714 
L 342.184842 309.43103 
L 343.491124 317.595942 
L 344.797405 313.310811 
L 346.103687 315.800819 
L 347.409969 304.50892 
L 348.71625 298.139131 
L 350.022532 323.965731 
L 351.328814 310.183824 
L 352.635096 317.364313 
L 353.941377 317.074777 
L 355.247659 324.544803 
L 356.553941 318.464549 
L 357.860222 319.159435 
L 359.166504 304.740549 
L 360.472786 318.406642 
L 361.779067 306.36195 
L 363.085349 317.306406 
L 364.391631 296.517731 
L 365.697913 288.237005 
L 367.004194 291.016549 
L 368.310476 255.461544 
L 369.616758 294.259351 
L 370.923039 266.579722 
L 372.229321 270.864853 
L 373.535603 273.760211 
L 374.841885 248.165241 
L 376.148166 245.211975 
L 377.454448 271.907182 
L 378.76073 256.272245 
L 380.067011 265.884836 
L 381.373293 261.657612 
L 382.679575 262.352498 
L 383.985856 282.446287 
L 385.292138 250.771063 
L 386.59842 263.452734 
L 387.904702 266.116464 
L 389.210983 292.695857 
L 390.517265 283.199081 
L 391.823547 287.136768 
L 393.129828 304.566828 
L 394.43611 275.671148 
L 395.742392 296.11238 
L 397.048673 281.288144 
L 398.354955 294.606794 
L 399.661237 285.341646 
L 400.967519 298.081224 
L 402.2738 300.281697 
L 403.580082 305.435435 
L 404.886364 320.954558 
L 406.192645 327.208533 
L 407.498927 323.039216 
L 408.805209 310.589174 
L 410.11149 308.388701 
L 411.417772 311.226153 
L 412.724054 316.264077 
L 414.030336 315.453376 
L 415.336617 311.226153 
L 416.642899 299.644718 
L 417.949181 309.83638 
L 419.255462 312.847553 
L 420.561744 316.148262 
L 421.868026 322.981309 
L 423.174307 320.607115 
L 424.480589 314.526862 
L 425.786871 315.685005 
L 427.093153 314.063604 
L 428.399434 305.724971 
L 429.705716 308.851959 
L 431.011998 299.586811 
L 432.318279 300.62914 
L 433.624561 295.591216 
L 434.930843 315.337562 
L 436.237124 318.348735 
L 437.543406 299.470996 
L 438.849688 298.891925 
L 440.15597 301.03449 
L 441.462251 306.709393 
L 442.768533 300.976583 
L 444.074815 302.424262 
L 445.381096 317.42222 
L 446.687378 309.894288 
L 447.99366 308.330794 
L 449.299941 312.615925 
L 450.606223 316.379891 
L 451.912505 310.415452 
L 453.218787 309.257309 
L 454.525068 314.642676 
L 455.83135 314.75849 
L 457.137632 317.82757 
L 458.443913 320.08595 
L 459.750195 314.700583 
L 461.056477 323.039216 
L 462.362758 330.045984 
L 463.66904 321.53363 
L 464.975322 316.264077 
L 466.281604 323.270845 
L 467.587885 322.865495 
L 468.894167 329.119469 
L 470.200449 327.150625 
L 471.50673 330.33552 
L 472.813012 318.696178 
L 474.119294 329.177376 
L 475.425575 321.591537 
L 476.731857 330.567149 
L 478.038139 324.776431 
L 479.344421 323.676195 
L 480.650702 333.346693 
L 481.956984 331.14622 
L 483.263266 327.961326 
L 484.569547 320.954558 
L 485.875829 321.649444 
L 487.182111 318.464549 
L 488.488393 328.019233 
L 489.794674 331.667385 
L 491.100956 331.493663 
L 492.407238 320.259672 
L 493.713519 322.228516 
L 495.019801 324.950153 
L 496.326083 323.734102 
L 497.632364 326.050389 
L 498.938646 326.918997 
L 500.244928 328.656212 
L 501.55121 321.128279 
L 502.857491 318.696178 
L 504.163773 306.593579 
L 505.470055 322.633866 
L 506.776336 316.148262 
L 509.3889 323.328752 
L 510.695181 326.224111 
L 512.001463 316.669427 
L 513.307745 321.475722 
L 514.614027 313.54244 
L 515.920308 318.985714 
L 517.22659 325.645039 
L 518.532872 320.375486 
L 519.839153 318.232921 
L 521.145435 320.665022 
L 522.451717 326.687368 
L 523.757998 321.302001 
L 525.06428 323.792009 
L 526.370562 323.734102 
L 527.676844 333.752043 
L 528.983125 324.255267 
L 530.289407 323.618288 
L 531.595689 319.622693 
L 532.90197 323.965731 
L 534.208252 324.660617 
L 535.514534 328.135047 
L 536.820815 334.331115 
L 539.433379 327.382254 
L 540.739661 323.270845 
L 542.045942 320.259672 
L 543.352224 325.00806 
L 544.658506 334.852279 
L 545.964787 337.052752 
L 547.271069 324.023638 
L 548.577351 327.498068 
L 549.883632 328.656212 
L 551.189914 328.135047 
L 552.496196 317.943385 
L 553.802478 333.925765 
L 555.108759 332.478085 
L 556.415041 319.564786 
L 559.027604 331.14622 
L 560.333886 338.384617 
L 561.640168 320.780836 
L 562.946449 333.752043 
L 564.252731 329.351098 
L 565.559013 324.313174 
L 566.865295 324.081545 
L 568.171576 327.729697 
L 569.477858 325.297596 
L 570.78414 326.629461 
L 572.090421 330.798777 
L 573.396703 340.642997 
L 574.702985 333.346693 
L 576.009266 334.215301 
L 577.315548 318.985714 
L 578.62183 326.976904 
L 579.928112 323.965731 
L 581.234393 329.988077 
L 582.540675 325.81876 
L 583.846957 323.560381 
L 585.153238 319.333157 
L 586.45952 306.477764 
L 587.765802 313.137089 
L 589.072083 314.700583 
L 590.378365 308.62033 
L 591.684647 323.502473 
L 592.990929 319.448971 
L 594.29721 307.751722 
L 595.603492 309.083587 
L 596.909774 318.117106 
L 598.216055 299.876347 
L 599.522337 313.137089 
L 600.828619 318.001292 
L 602.134901 311.573596 
L 603.441182 315.627098 
L 604.747464 311.399874 
L 606.053746 342.090676 
L 607.360027 270.749038 
L 608.666309 308.678237 
L 609.972591 312.615925 
L 611.278872 303.756127 
L 612.585154 300.687047 
L 613.891436 302.655891 
L 615.197718 302.424262 
L 616.503999 296.170287 
L 617.810281 308.562423 
L 619.116563 309.662659 
L 620.422844 294.548887 
L 621.729126 300.281697 
L 623.035408 296.980988 
L 624.341689 292.869579 
L 625.647971 292.116785 
L 626.954253 299.007739 
L 628.260535 302.424262 
L 629.566816 283.893967 
L 630.873098 294.375165 
L 632.17938 286.326068 
L 633.485661 295.764937 
L 634.791943 286.90514 
L 636.098225 293.506558 
L 637.404506 281.519773 
L 638.710788 261.773426 
L 640.01707 273.99184 
L 641.323352 272.312532 
L 642.629633 265.247857 
L 643.935915 269.301359 
L 645.242197 284.473038 
L 646.548478 264.842507 
L 647.85476 252.450371 
L 649.161042 232.009139 
L 650.467323 235.657291 
L 651.773605 248.165241 
L 653.079887 251.292228 
L 654.386169 262.120869 
L 655.69245 253.145257 
L 656.998732 236.410084 
L 658.305014 238.263114 
L 659.611295 229.692852 
L 660.917577 225.291907 
L 662.223859 248.686405 
L 663.53014 236.352177 
L 664.836422 236.69962 
L 666.142704 231.37216 
L 667.448986 213.768379 
L 668.755267 214.868616 
L 670.061549 235.48357 
L 671.367831 242.374523 
L 672.674112 227.318658 
L 673.980394 232.182861 
L 675.286676 225.870979 
L 676.592957 228.30308 
L 677.899239 243.938017 
L 679.205521 250.42362 
L 680.511803 250.307806 
L 681.818084 238.321021 
L 683.124366 260.325747 
L 684.430648 241.505916 
L 685.736929 226.681679 
L 687.043211 236.873342 
L 688.349493 252.160836 
L 689.655774 247.35454 
L 690.962056 258.298996 
L 692.268338 262.873663 
L 693.57462 274.165562 
L 694.880901 263.973899 
L 696.187183 275.671148 
L 697.493465 254.824566 
L 698.799746 274.455097 
L 700.106028 302.424262 
L 701.41231 297.617967 
L 702.718591 279.087671 
L 705.331155 291.827249 
L 706.637437 315.221748 
L 707.943718 332.478085 
L 710.556282 319.796414 
L 711.862563 305.667064 
L 713.168845 312.731739 
L 714.475127 306.072414 
L 717.08769 323.039216 
L 718.393972 326.918997 
L 721.006535 310.87871 
L 722.312817 316.785241 
L 723.619099 324.892246 
L 724.92538 326.86109 
L 726.231662 326.108296 
L 727.537944 329.003655 
L 728.844226 324.834338 
L 730.150507 322.34433 
L 731.456789 325.760853 
L 732.763071 323.039216 
L 734.069352 329.061562 
L 735.375634 334.157393 
L 736.681916 333.4046 
L 737.988197 334.794372 
L 739.294479 328.07714 
L 740.600761 331.030406 
L 741.907043 326.976904 
L 743.213324 336.299959 
L 744.519606 342.727655 
L 747.132169 336.705309 
L 748.438451 336.879031 
L 749.744733 336.705309 
L 751.051014 331.030406 
L 752.357296 341.106254 
L 753.663578 344.812313 
L 754.96986 344.754406 
L 756.276141 342.380212 
L 757.582423 338.210896 
L 758.888705 334.910187 
L 760.194986 338.73206 
L 761.501268 343.24882 
L 762.80755 341.916955 
L 764.113831 341.916955 
L 765.420113 343.364634 
L 766.726395 344.117427 
L 768.032677 341.048347 
L 769.338958 343.943706 
L 770.64524 343.190912 
L 771.951522 341.974862 
L 773.257803 343.943706 
L 774.564085 346.896972 
L 775.870367 344.696499 
L 777.176648 345.391385 
L 778.48293 341.39579 
L 781.095494 347.997208 
L 782.401775 348.865815 
L 783.708057 347.476043 
L 785.014339 343.190912 
L 786.32062 346.72325 
L 787.626902 346.896972 
L 788.933184 348.518372 
L 790.239465 347.244415 
L 791.545747 347.186507 
L 792.852029 345.623014 
L 794.158311 346.202086 
L 795.464592 344.406963 
L 796.770874 346.954879 
L 798.077156 344.580685 
L 799.383437 346.086271 
L 800.689719 347.302322 
L 801.996001 346.781157 
L 803.302282 344.986035 
L 804.608564 343.885799 
L 805.914846 345.738828 
L 807.221128 346.549529 
L 809.833691 346.259993 
L 811.139973 345.507199 
L 812.446254 346.375807 
L 813.752536 342.669748 
L 815.058818 343.712077 
L 816.365099 338.789967 
L 817.671381 345.507199 
L 818.977663 341.048347 
L 821.590226 337.631824 
L 822.896508 323.560381 
L 824.20279 328.250862 
L 825.509071 331.377849 
L 826.815353 339.542761 
L 828.121635 335.605073 
L 829.427917 324.081545 
L 830.734198 321.53363 
L 832.04048 311.341967 
L 833.346762 317.306406 
L 834.653043 317.248499 
L 835.959325 326.571554 
L 837.265607 325.645039 
L 838.571888 300.050068 
L 839.87817 300.571233 
L 841.184452 299.123553 
L 842.490734 294.664701 
L 843.797015 314.700583 
L 845.103297 322.981309 
L 846.409579 311.28406 
L 847.71586 301.555655 
L 849.022142 294.085629 
L 850.328424 297.386338 
L 851.634705 292.869579 
L 852.940987 276.887199 
L 854.247269 305.667064 
L 855.553551 297.444245 
L 856.859832 277.813713 
L 858.166114 229.808667 
L 859.472396 257.256667 
L 860.778677 266.695536 
L 862.084959 240.753122 
L 863.391241 290.900735 
L 864.697522 310.994524 
L 866.003804 274.455097 
L 867.310086 280.651165 
L 868.616368 255.982709 
L 869.922649 272.717882 
L 871.228931 286.268161 
L 872.535213 263.33692 
L 873.841494 282.214659 
L 875.147776 270.169967 
L 876.454058 262.584127 
L 877.760339 272.833697 
L 879.066621 273.876026 
L 880.372903 302.192634 
L 881.679185 323.792009 
L 882.985466 315.742912 
L 884.291748 254.766658 
L 885.59803 253.434793 
L 886.904311 254.477122 
L 888.210593 249.265477 
L 889.516875 263.74227 
L 890.823156 295.649123 
L 892.129438 308.446608 
L 893.43572 259.920397 
L 894.742002 264.900414 
L 896.048283 261.715519 
L 897.354565 272.833697 
L 898.660847 282.38838 
L 899.967128 300.802861 
L 901.27341 316.901056 
L 902.579692 304.856364 
L 903.885973 280.593258 
L 905.192255 272.833697 
L 906.498537 269.47508 
L 907.804819 299.702625 
L 909.1111 310.762895 
L 910.417382 318.580364 
L 911.723664 294.780515 
L 913.029945 285.45746 
L 914.336227 283.604431 
L 915.642509 297.791688 
L 916.94879 315.916634 
L 918.255072 325.471317 
L 919.561354 320.722929 
L 920.867636 302.366355 
L 922.173917 297.328431 
L 923.480199 306.072414 
L 924.786481 305.087992 
L 926.092762 328.308769 
L 927.399044 321.707351 
L 928.705326 336.763216 
L 930.011607 328.772026 
L 931.317889 315.105933 
L 932.624171 320.780836 
L 933.930453 315.221748 
L 936.543016 336.821123 
L 937.849298 331.609478 
L 939.155579 318.232921 
L 940.461861 323.792009 
L 941.768143 328.772026 
L 943.074425 323.444566 
L 944.380706 328.887841 
L 945.686988 339.13741 
L 946.99327 339.253225 
L 948.299551 327.729697 
L 949.605833 332.535993 
L 950.912115 332.188549 
L 952.218396 330.33552 
L 953.524678 334.968094 
L 954.83096 342.553934 
L 956.137242 341.916955 
L 957.443523 335.026001 
L 958.749805 338.963689 
L 960.056087 336.705309 
L 961.362368 337.226474 
L 962.66865 333.752043 
L 963.974932 340.932533 
L 965.281213 342.032769 
L 966.587495 335.778794 
L 967.893777 339.948111 
L 969.200059 337.805545 
L 970.50634 339.542761 
L 974.425185 343.480448 
L 975.731467 340.121832 
L 977.037749 340.121832 
L 978.34403 341.048347 
L 979.650312 341.164161 
L 980.956594 344.233242 
L 982.262876 346.202086 
L 983.569157 346.259993 
L 984.875439 340.121832 
L 986.181721 343.24882 
L 987.488002 343.538356 
L 988.794284 342.843469 
L 990.100566 342.785562 
L 991.406847 343.885799 
L 992.713129 344.233242 
L 994.019411 343.712077 
L 996.631974 344.001613 
L 997.938256 342.032769 
L 999.244538 343.480448 
L 1000.550819 344.46487 
L 1001.857101 343.885799 
L 1003.163383 332.362271 
L 1004.469664 333.983672 
L 1005.775946 319.738507 
L 1007.082228 315.395469 
L 1008.38851 305.319621 
L 1009.694791 318.406642 
L 1011.001073 311.68941 
L 1012.307355 216.605831 
L 1013.613636 177.865932 
L 1016.2262 86.31469 
L 1017.532481 60.835534 
L 1018.838763 180.529662 
L 1020.145045 243.185224 
L 1021.451327 50.8755 
L 1022.757608 78.960479 
L 1024.06389 61.704141 
L 1025.370172 67.436952 
L 1026.676453 119.611315 
L 1027.982735 217.011181 
L 1029.289017 227.202844 
L 1030.595298 118.858522 
L 1031.90158 132.292986 
L 1033.207862 152.039332 
L 1034.514144 225.870979 
L 1035.820425 284.415131 
L 1037.126707 305.667064 
L 1038.432989 226.971215 
L 1039.73927 208.672548 
L 1041.045552 219.732818 
L 1042.351834 227.724008 
L 1043.658115 268.432751 
L 1044.964397 251.350135 
L 1046.270679 290.727013 
L 1047.576961 300.107975 
L 1048.883242 276.829291 
L 1050.189524 323.734102 
L 1051.495806 313.889883 
L 1052.802087 313.484532 
L 1054.108369 323.270845 
L 1055.414651 329.466912 
L 1056.720933 327.555976 
L 1058.027214 320.259672 
L 1059.333496 326.918997 
L 1060.639778 324.718524 
L 1061.946059 324.371081 
L 1063.252341 329.640634 
L 1064.558623 340.932533 
L 1065.864904 337.92136 
L 1067.171186 332.651807 
L 1068.477468 332.883436 
L 1069.78375 331.783199 
L 1071.090031 341.685326 
L 1072.396313 341.511604 
L 1073.702595 346.259993 
L 1075.008876 343.133005 
L 1076.315158 341.685326 
L 1077.62144 341.80114 
L 1078.927721 342.322305 
L 1080.234003 343.306727 
L 1081.540285 344.696499 
L 1082.846567 345.391385 
L 1084.152848 346.665343 
L 1085.45913 344.406963 
L 1086.765412 341.337883 
L 1088.071693 344.46487 
L 1089.377975 336.126237 
L 1090.684257 348.228837 
L 1091.990538 347.591858 
L 1093.29682 349.155351 
L 1094.603102 348.402558 
L 1095.909384 347.1286 
L 1097.215665 347.1286 
L 1098.521947 348.692094 
L 1099.828229 350.023959 
L 1101.13451 348.286744 
L 1102.440792 348.055115 
L 1103.747074 348.634187 
L 1105.053355 350.19768 
L 1106.359637 347.418136 
L 1107.665919 348.518372 
L 1108.972201 349.097444 
L 1110.278482 349.039537 
L 1111.584764 348.750001 
L 1112.891046 348.807908 
L 1114.197327 348.344651 
L 1115.503609 348.865815 
L 1116.809891 350.023959 
L 1119.422454 350.313495 
L 1120.728736 348.923723 
L 1122.035018 347.1286 
L 1123.341299 348.923723 
L 1124.647581 347.418136 
L 1125.953863 349.618609 
L 1127.260144 349.850237 
L 1128.566426 350.313495 
L 1129.872708 350.313495 
L 1131.178989 349.676516 
L 1132.485271 349.444887 
L 1133.791553 349.908145 
L 1135.097835 347.649765 
L 1136.404116 350.718845 
L 1137.710398 350.545124 
L 1139.01668 349.097444 
L 1140.322961 349.79233 
L 1141.629243 349.676516 
L 1142.935525 347.997208 
L 1144.241806 349.618609 
L 1145.548088 349.850237 
L 1146.85437 350.371402 
L 1149.466933 349.039537 
L 1150.773215 348.98163 
L 1152.079497 347.476043 
L 1153.385778 349.618609 
L 1154.69206 349.966052 
L 1155.998342 349.676516 
L 1157.304623 348.460465 
L 1158.610905 350.429309 
L 1159.917187 348.634187 
L 1161.223469 350.313495 
L 1162.52975 347.244415 
L 1163.836032 349.560702 
L 1165.142314 350.313495 
L 1167.754877 350.139773 
L 1169.061159 348.402558 
L 1170.36744 348.98163 
L 1171.673722 350.19768 
L 1172.980004 350.429309 
L 1174.286286 350.139773 
L 1175.592567 350.660938 
L 1176.898849 349.618609 
L 1179.511412 349.79233 
L 1180.817694 349.097444 
L 1182.123976 350.081866 
L 1183.430258 350.371402 
L 1184.736539 350.776752 
L 1187.349103 348.923723 
L 1188.655384 348.865815 
L 1189.961666 350.081866 
L 1191.267948 349.618609 
L 1192.574229 350.545124 
L 1193.880511 349.966052 
L 1195.186793 348.923723 
L 1196.493075 349.097444 
L 1197.799356 350.081866 
L 1199.105638 348.344651 
L 1200.41192 348.923723 
L 1201.718201 350.429309 
L 1203.024483 348.692094 
L 1204.330765 348.286744 
L 1205.637046 348.286744 
L 1206.943328 347.881394 
L 1208.24961 346.375807 
L 1209.555892 344.406963 
L 1210.862173 349.38698 
L 1212.168455 348.228837 
L 1213.474737 345.101849 
L 1216.0873 339.484853 
L 1217.393582 341.337883 
L 1218.699863 340.469275 
L 1220.006145 351.124195 
L 1221.312427 338.674153 
L 1222.618709 333.983672 
L 1223.92499 325.355503 
L 1225.231272 325.239689 
L 1226.537554 331.204128 
L 1227.843835 308.504515 
L 1229.150117 333.925765 
L 1230.456399 333.230879 
L 1231.76268 325.471317 
L 1233.068962 314.411047 
L 1234.375244 315.916634 
L 1235.681526 308.504515 
L 1236.987807 304.682642 
L 1238.294089 326.86109 
L 1239.600371 320.954558 
L 1240.906652 295.185866 
L 1242.212934 306.246136 
L 1243.519216 304.393106 
L 1244.825497 301.555655 
L 1246.131779 301.845191 
L 1247.438061 328.019233 
L 1248.744343 328.07714 
L 1250.050624 321.53363 
L 1251.356906 309.02568 
L 1252.663188 316.437798 
L 1253.969469 324.60271 
L 1255.275751 328.772026 
L 1256.582033 338.789967 
L 1257.888314 336.47368 
L 1259.194596 326.513646 
L 1260.500878 332.304364 
L 1261.80716 334.273208 
L 1263.113441 334.852279 
L 1264.419723 336.647402 
L 1265.726005 346.144178 
L 1267.032286 341.80114 
L 1268.338568 342.206491 
L 1269.64485 340.121832 
L 1270.951131 340.411368 
L 1273.563695 344.522777 
L 1274.869977 346.839064 
L 1276.176258 344.406963 
L 1277.48254 347.012786 
L 1278.788822 343.133005 
L 1280.095103 344.117427 
L 1281.401385 344.812313 
L 1282.707667 344.986035 
L 1285.32023 351.124195 
L 1286.626512 339.600668 
L 1287.932794 343.943706 
L 1289.239075 345.391385 
L 1290.545357 343.364634 
L 1291.851639 346.086271 
L 1293.15792 349.38698 
L 1294.464202 346.781157 
L 1295.770484 346.3179 
L 1297.076766 347.53395 
L 1298.383047 347.244415 
L 1299.689329 346.549529 
L 1300.995611 347.1286 
L 1300.995611 347.1286 
" clip-path="url(#pe1bb3b22b1)" style="fill: none; stroke: #0000ff; stroke-width: 1.5; stroke-linecap: square"/>
   </g>
   <g id="line2d_19">
    <path d="M 1061.946059 334.739562 
L 1063.252341 327.622575 
L 1064.558623 332.6586 
L 1065.864904 334.771423 
L 1067.171186 327.920849 
L 1068.477468 332.587996 
L 1069.78375 332.10004 
L 1072.396313 345.686467 
L 1073.702595 345.97836 
L 1075.008876 341.016054 
L 1076.315158 343.42373 
L 1077.62144 341.468823 
L 1078.927721 346.79114 
L 1080.234003 344.066955 
L 1081.540285 345.266027 
L 1082.846567 343.691007 
L 1084.152848 346.140197 
L 1085.45913 343.828385 
L 1086.765412 342.535843 
L 1088.071693 343.598983 
L 1089.377975 338.091415 
L 1090.684257 347.626512 
L 1091.990538 347.231851 
L 1093.29682 347.181987 
L 1094.603102 346.478664 
L 1095.909384 348.0542 
L 1097.215665 343.575106 
L 1098.521947 353.2755 
L 1099.828229 349.439246 
L 1101.13451 349.257535 
L 1102.440792 348.69039 
L 1103.747074 348.76483 
L 1105.053355 349.500054 
L 1106.359637 349.522832 
L 1107.665919 347.833979 
L 1108.972201 348.414855 
L 1110.278482 348.494078 
L 1111.584764 348.782972 
L 1112.891046 349.518368 
L 1114.197327 347.42005 
L 1115.503609 348.652796 
L 1116.809891 350.197498 
L 1118.116172 350.039874 
L 1119.422454 350.146161 
L 1120.728736 349.086711 
L 1122.035018 347.281995 
L 1123.341299 349.619342 
L 1124.647581 348.253692 
L 1125.953863 349.474029 
L 1127.260144 349.623351 
L 1129.872708 349.148322 
L 1131.178989 350.385353 
L 1132.485271 348.595915 
L 1133.791553 350.630492 
L 1135.097835 348.257862 
L 1136.404116 350.89664 
L 1137.710398 350.510532 
L 1139.01668 349.325328 
L 1140.322961 349.51431 
L 1141.629243 350.150483 
L 1142.935525 347.053581 
L 1144.241806 350.845691 
L 1145.548088 349.534081 
L 1146.85437 349.505332 
L 1148.160652 349.911189 
L 1149.466933 349.248603 
L 1150.773215 348.220818 
L 1152.079497 348.937335 
L 1153.385778 349.264422 
L 1154.69206 350.015965 
L 1155.998342 349.5365 
L 1157.304623 348.278722 
L 1158.610905 350.13024 
L 1159.917187 348.221684 
L 1161.223469 350.653527 
L 1162.52975 347.934994 
L 1163.836032 349.51531 
L 1165.142314 349.438328 
L 1166.448595 350.940983 
L 1167.754877 349.289828 
L 1169.061159 349.631782 
L 1170.36744 347.673279 
L 1171.673722 350.820424 
L 1172.980004 350.50818 
L 1175.592567 350.266983 
L 1176.898849 349.179584 
L 1178.205131 349.687523 
L 1179.511412 350.819091 
L 1180.817694 349.195019 
L 1182.123976 349.919463 
L 1183.430258 350.383016 
L 1186.042821 350.06676 
L 1188.655384 348.475281 
L 1189.961666 350.401126 
L 1191.267948 349.73334 
L 1192.574229 350.565366 
L 1195.186793 348.64458 
L 1196.493075 349.121965 
L 1197.799356 350.635976 
L 1199.105638 348.233645 
L 1200.41192 349.510079 
L 1201.718201 349.895019 
L 1203.024483 348.362324 
L 1204.330765 348.727198 
L 1205.637046 348.926636 
L 1206.943328 347.098144 
L 1208.24961 347.137138 
L 1209.555892 345.74695 
L 1210.862173 348.417517 
L 1212.168455 347.650146 
L 1214.781018 343.143029 
L 1216.0873 340.586691 
L 1217.393582 340.898208 
L 1218.699863 342.703406 
L 1220.006145 349.037081 
L 1221.312427 337.883571 
L 1222.618709 335.077191 
L 1223.92499 327.34327 
L 1225.231272 328.607223 
L 1226.537554 331.320337 
L 1227.843835 317.190031 
L 1229.150117 328.553329 
L 1230.456399 328.4131 
L 1231.76268 320.805102 
L 1233.068962 316.409388 
L 1234.375244 319.87373 
L 1235.681526 300.615334 
L 1236.987807 316.435498 
L 1238.294089 325.935163 
L 1239.600371 316.797118 
L 1240.906652 296.178514 
L 1242.212934 308.880799 
L 1243.519216 300.144256 
L 1244.825497 303.299563 
L 1246.131779 308.946981 
L 1247.438061 320.862976 
L 1248.744343 312.007816 
L 1250.050624 323.962871 
L 1251.356906 309.17006 
L 1252.663188 317.450296 
L 1253.969469 322.062228 
L 1255.275751 335.796182 
L 1256.582033 337.726031 
L 1257.888314 336.580499 
L 1259.194596 320.744973 
L 1260.500878 335.654465 
L 1261.80716 336.736515 
L 1263.113441 337.087757 
L 1264.419723 338.514342 
L 1265.726005 343.26006 
L 1267.032286 335.84038 
L 1268.338568 346.213903 
L 1269.64485 339.993122 
L 1270.951131 340.200609 
L 1272.257413 342.272173 
L 1273.563695 347.664346 
L 1274.869977 344.928021 
L 1276.176258 346.399282 
L 1277.48254 344.244464 
L 1278.788822 343.547953 
L 1280.095103 345.431166 
L 1281.401385 345.848633 
L 1282.707667 345.009822 
L 1284.013948 346.868445 
L 1285.32023 350.34899 
L 1286.626512 340.075608 
L 1287.932794 345.281019 
L 1289.239075 345.059201 
L 1290.545357 343.286646 
L 1291.851639 347.230931 
L 1293.15792 350.211438 
L 1294.464202 341.350943 
L 1295.770484 348.151804 
L 1297.076766 347.488446 
L 1298.383047 346.276361 
L 1299.689329 347.931281 
L 1300.995611 348.347719 
L 1300.995611 348.347719 
" clip-path="url(#pe1bb3b22b1)" style="fill: none; stroke: #ffa500; stroke-width: 1.5; stroke-linecap: square"/>
   </g>
   <g id="line2d_20">
    <path d="M 1300.995611 348.347719 
L 1302.301892 346.684282 
L 1303.608174 348.377881 
L 1304.914456 348.166583 
L 1306.220737 347.839964 
L 1307.527019 347.818865 
L 1308.833301 347.638207 
L 1310.139583 347.858809 
L 1311.445864 347.672575 
L 1312.752146 347.919534 
L 1314.058428 347.889073 
L 1315.364709 347.84203 
L 1316.670991 347.838661 
L 1317.977273 347.813482 
" clip-path="url(#pe1bb3b22b1)" style="fill: none; stroke: #ff0000; stroke-width: 1.5; stroke-linecap: square"/>
   </g>
   <g id="patch_3">
    <path d="M 39.65 368.3955 
L 39.65 35.7555 
" style="fill: none; stroke: #000000; stroke-width: 0.8; stroke-linejoin: miter; stroke-linecap: square"/>
   </g>
   <g id="patch_4">
    <path d="M 1378.85 368.3955 
L 1378.85 35.7555 
" style="fill: none; stroke: #000000; stroke-width: 0.8; stroke-linejoin: miter; stroke-linecap: square"/>
   </g>
   <g id="patch_5">
    <path d="M 39.65 368.3955 
L 1378.85 368.3955 
" style="fill: none; stroke: #000000; stroke-width: 0.8; stroke-linejoin: miter; stroke-linecap: square"/>
   </g>
   <g id="patch_6">
    <path d="M 39.65 35.7555 
L 1378.85 35.7555 
" style="fill: none; stroke: #000000; stroke-width: 0.8; stroke-linejoin: miter; stroke-linecap: square"/>
   </g>
   <g id="text_18">
    <!-- Daily Confirmed Cases Forecasting - Ethiopia -->
    <g transform="translate(574.312813 16.318125)scale(0.12 -0.12)">
     <defs>
      <path id="DejaVuSans-44" d="M 1259 4147 
L 1259 519 
L 2022 519 
Q 2988 519 3436 956 
Q 3884 1394 3884 2338 
Q 3884 3275 3436 3711 
Q 2988 4147 2022 4147 
L 1259 4147 
z
M 628 4666 
L 1925 4666 
Q 3281 4666 3915 4102 
Q 4550 3538 4550 2338 
Q 4550 1131 3912 565 
Q 3275 0 1925 0 
L 628 0 
L 628 4666 
z
" transform="scale(0.015625)"/>
      <path id="DejaVuSans-61" d="M 2194 1759 
Q 1497 1759 1228 1600 
Q 959 1441 959 1056 
Q 959 750 1161 570 
Q 1363 391 1709 391 
Q 2188 391 2477 730 
Q 2766 1069 2766 1631 
L 2766 1759 
L 2194 1759 
z
M 3341 1997 
L 3341 0 
L 2766 0 
L 2766 531 
Q 2569 213 2275 61 
Q 1981 -91 1556 -91 
Q 1019 -91 701 211 
Q 384 513 384 1019 
Q 384 1609 779 1909 
Q 1175 2209 1959 2209 
L 2766 2209 
L 2766 2266 
Q 2766 2663 2505 2880 
Q 2244 3097 1772 3097 
Q 1472 3097 1187 3025 
Q 903 2953 641 2809 
L 641 3341 
Q 956 3463 1253 3523 
Q 1550 3584 1831 3584 
Q 2591 3584 2966 3190 
Q 3341 2797 3341 1997 
z
" transform="scale(0.015625)"/>
      <path id="DejaVuSans-69" d="M 603 3500 
L 1178 3500 
L 1178 0 
L 603 0 
L 603 3500 
z
M 603 4863 
L 1178 4863 
L 1178 4134 
L 603 4134 
L 603 4863 
z
" transform="scale(0.015625)"/>
      <path id="DejaVuSans-6c" d="M 603 4863 
L 1178 4863 
L 1178 0 
L 603 0 
L 603 4863 
z
" transform="scale(0.015625)"/>
      <path id="DejaVuSans-79" d="M 2059 -325 
Q 1816 -950 1584 -1140 
Q 1353 -1331 966 -1331 
L 506 -1331 
L 506 -850 
L 844 -850 
Q 1081 -850 1212 -737 
Q 1344 -625 1503 -206 
L 1606 56 
L 191 3500 
L 800 3500 
L 1894 763 
L 2988 3500 
L 3597 3500 
L 2059 -325 
z
" transform="scale(0.015625)"/>
      <path id="DejaVuSans-20" transform="scale(0.015625)"/>
      <path id="DejaVuSans-43" d="M 4122 4306 
L 4122 3641 
Q 3803 3938 3442 4084 
Q 3081 4231 2675 4231 
Q 1875 4231 1450 3742 
Q 1025 3253 1025 2328 
Q 1025 1406 1450 917 
Q 1875 428 2675 428 
Q 3081 428 3442 575 
Q 3803 722 4122 1019 
L 4122 359 
Q 3791 134 3420 21 
Q 3050 -91 2638 -91 
Q 1578 -91 968 557 
Q 359 1206 359 2328 
Q 359 3453 968 4101 
Q 1578 4750 2638 4750 
Q 3056 4750 3426 4639 
Q 3797 4528 4122 4306 
z
" transform="scale(0.015625)"/>
      <path id="DejaVuSans-6f" d="M 1959 3097 
Q 1497 3097 1228 2736 
Q 959 2375 959 1747 
Q 959 1119 1226 758 
Q 1494 397 1959 397 
Q 2419 397 2687 759 
Q 2956 1122 2956 1747 
Q 2956 2369 2687 2733 
Q 2419 3097 1959 3097 
z
M 1959 3584 
Q 2709 3584 3137 3096 
Q 3566 2609 3566 1747 
Q 3566 888 3137 398 
Q 2709 -91 1959 -91 
Q 1206 -91 779 398 
Q 353 888 353 1747 
Q 353 2609 779 3096 
Q 1206 3584 1959 3584 
z
" transform="scale(0.015625)"/>
      <path id="DejaVuSans-6e" d="M 3513 2113 
L 3513 0 
L 2938 0 
L 2938 2094 
Q 2938 2591 2744 2837 
Q 2550 3084 2163 3084 
Q 1697 3084 1428 2787 
Q 1159 2491 1159 1978 
L 1159 0 
L 581 0 
L 581 3500 
L 1159 3500 
L 1159 2956 
Q 1366 3272 1645 3428 
Q 1925 3584 2291 3584 
Q 2894 3584 3203 3211 
Q 3513 2838 3513 2113 
z
" transform="scale(0.015625)"/>
      <path id="DejaVuSans-66" d="M 2375 4863 
L 2375 4384 
L 1825 4384 
Q 1516 4384 1395 4259 
Q 1275 4134 1275 3809 
L 1275 3500 
L 2222 3500 
L 2222 3053 
L 1275 3053 
L 1275 0 
L 697 0 
L 697 3053 
L 147 3053 
L 147 3500 
L 697 3500 
L 697 3744 
Q 697 4328 969 4595 
Q 1241 4863 1831 4863 
L 2375 4863 
z
" transform="scale(0.015625)"/>
      <path id="DejaVuSans-72" d="M 2631 2963 
Q 2534 3019 2420 3045 
Q 2306 3072 2169 3072 
Q 1681 3072 1420 2755 
Q 1159 2438 1159 1844 
L 1159 0 
L 581 0 
L 581 3500 
L 1159 3500 
L 1159 2956 
Q 1341 3275 1631 3429 
Q 1922 3584 2338 3584 
Q 2397 3584 2469 3576 
Q 2541 3569 2628 3553 
L 2631 2963 
z
" transform="scale(0.015625)"/>
      <path id="DejaVuSans-6d" d="M 3328 2828 
Q 3544 3216 3844 3400 
Q 4144 3584 4550 3584 
Q 5097 3584 5394 3201 
Q 5691 2819 5691 2113 
L 5691 0 
L 5113 0 
L 5113 2094 
Q 5113 2597 4934 2840 
Q 4756 3084 4391 3084 
Q 3944 3084 3684 2787 
Q 3425 2491 3425 1978 
L 3425 0 
L 2847 0 
L 2847 2094 
Q 2847 2600 2669 2842 
Q 2491 3084 2119 3084 
Q 1678 3084 1418 2786 
Q 1159 2488 1159 1978 
L 1159 0 
L 581 0 
L 581 3500 
L 1159 3500 
L 1159 2956 
Q 1356 3278 1631 3431 
Q 1906 3584 2284 3584 
Q 2666 3584 2933 3390 
Q 3200 3197 3328 2828 
z
" transform="scale(0.015625)"/>
      <path id="DejaVuSans-65" d="M 3597 1894 
L 3597 1613 
L 953 1613 
Q 991 1019 1311 708 
Q 1631 397 2203 397 
Q 2534 397 2845 478 
Q 3156 559 3463 722 
L 3463 178 
Q 3153 47 2828 -22 
Q 2503 -91 2169 -91 
Q 1331 -91 842 396 
Q 353 884 353 1716 
Q 353 2575 817 3079 
Q 1281 3584 2069 3584 
Q 2775 3584 3186 3129 
Q 3597 2675 3597 1894 
z
M 3022 2063 
Q 3016 2534 2758 2815 
Q 2500 3097 2075 3097 
Q 1594 3097 1305 2825 
Q 1016 2553 972 2059 
L 3022 2063 
z
" transform="scale(0.015625)"/>
      <path id="DejaVuSans-64" d="M 2906 2969 
L 2906 4863 
L 3481 4863 
L 3481 0 
L 2906 0 
L 2906 525 
Q 2725 213 2448 61 
Q 2172 -91 1784 -91 
Q 1150 -91 751 415 
Q 353 922 353 1747 
Q 353 2572 751 3078 
Q 1150 3584 1784 3584 
Q 2172 3584 2448 3432 
Q 2725 3281 2906 2969 
z
M 947 1747 
Q 947 1113 1208 752 
Q 1469 391 1925 391 
Q 2381 391 2643 752 
Q 2906 1113 2906 1747 
Q 2906 2381 2643 2742 
Q 2381 3103 1925 3103 
Q 1469 3103 1208 2742 
Q 947 2381 947 1747 
z
" transform="scale(0.015625)"/>
      <path id="DejaVuSans-73" d="M 2834 3397 
L 2834 2853 
Q 2591 2978 2328 3040 
Q 2066 3103 1784 3103 
Q 1356 3103 1142 2972 
Q 928 2841 928 2578 
Q 928 2378 1081 2264 
Q 1234 2150 1697 2047 
L 1894 2003 
Q 2506 1872 2764 1633 
Q 3022 1394 3022 966 
Q 3022 478 2636 193 
Q 2250 -91 1575 -91 
Q 1294 -91 989 -36 
Q 684 19 347 128 
L 347 722 
Q 666 556 975 473 
Q 1284 391 1588 391 
Q 1994 391 2212 530 
Q 2431 669 2431 922 
Q 2431 1156 2273 1281 
Q 2116 1406 1581 1522 
L 1381 1569 
Q 847 1681 609 1914 
Q 372 2147 372 2553 
Q 372 3047 722 3315 
Q 1072 3584 1716 3584 
Q 2034 3584 2315 3537 
Q 2597 3491 2834 3397 
z
" transform="scale(0.015625)"/>
      <path id="DejaVuSans-46" d="M 628 4666 
L 3309 4666 
L 3309 4134 
L 1259 4134 
L 1259 2759 
L 3109 2759 
L 3109 2228 
L 1259 2228 
L 1259 0 
L 628 0 
L 628 4666 
z
" transform="scale(0.015625)"/>
      <path id="DejaVuSans-63" d="M 3122 3366 
L 3122 2828 
Q 2878 2963 2633 3030 
Q 2388 3097 2138 3097 
Q 1578 3097 1268 2742 
Q 959 2388 959 1747 
Q 959 1106 1268 751 
Q 1578 397 2138 397 
Q 2388 397 2633 464 
Q 2878 531 3122 666 
L 3122 134 
Q 2881 22 2623 -34 
Q 2366 -91 2075 -91 
Q 1284 -91 818 406 
Q 353 903 353 1747 
Q 353 2603 823 3093 
Q 1294 3584 2113 3584 
Q 2378 3584 2631 3529 
Q 2884 3475 3122 3366 
z
" transform="scale(0.015625)"/>
      <path id="DejaVuSans-74" d="M 1172 4494 
L 1172 3500 
L 2356 3500 
L 2356 3053 
L 1172 3053 
L 1172 1153 
Q 1172 725 1289 603 
Q 1406 481 1766 481 
L 2356 481 
L 2356 0 
L 1766 0 
Q 1100 0 847 248 
Q 594 497 594 1153 
L 594 3053 
L 172 3053 
L 172 3500 
L 594 3500 
L 594 4494 
L 1172 4494 
z
" transform="scale(0.015625)"/>
      <path id="DejaVuSans-67" d="M 2906 1791 
Q 2906 2416 2648 2759 
Q 2391 3103 1925 3103 
Q 1463 3103 1205 2759 
Q 947 2416 947 1791 
Q 947 1169 1205 825 
Q 1463 481 1925 481 
Q 2391 481 2648 825 
Q 2906 1169 2906 1791 
z
M 3481 434 
Q 3481 -459 3084 -895 
Q 2688 -1331 1869 -1331 
Q 1566 -1331 1297 -1286 
Q 1028 -1241 775 -1147 
L 775 -588 
Q 1028 -725 1275 -790 
Q 1522 -856 1778 -856 
Q 2344 -856 2625 -561 
Q 2906 -266 2906 331 
L 2906 616 
Q 2728 306 2450 153 
Q 2172 0 1784 0 
Q 1141 0 747 490 
Q 353 981 353 1791 
Q 353 2603 747 3093 
Q 1141 3584 1784 3584 
Q 2172 3584 2450 3431 
Q 2728 3278 2906 2969 
L 2906 3500 
L 3481 3500 
L 3481 434 
z
" transform="scale(0.015625)"/>
      <path id="DejaVuSans-45" d="M 628 4666 
L 3578 4666 
L 3578 4134 
L 1259 4134 
L 1259 2753 
L 3481 2753 
L 3481 2222 
L 1259 2222 
L 1259 531 
L 3634 531 
L 3634 0 
L 628 0 
L 628 4666 
z
" transform="scale(0.015625)"/>
      <path id="DejaVuSans-68" d="M 3513 2113 
L 3513 0 
L 2938 0 
L 2938 2094 
Q 2938 2591 2744 2837 
Q 2550 3084 2163 3084 
Q 1697 3084 1428 2787 
Q 1159 2491 1159 1978 
L 1159 0 
L 581 0 
L 581 4863 
L 1159 4863 
L 1159 2956 
Q 1366 3272 1645 3428 
Q 1925 3584 2291 3584 
Q 2894 3584 3203 3211 
Q 3513 2838 3513 2113 
z
" transform="scale(0.015625)"/>
      <path id="DejaVuSans-70" d="M 1159 525 
L 1159 -1331 
L 581 -1331 
L 581 3500 
L 1159 3500 
L 1159 2969 
Q 1341 3281 1617 3432 
Q 1894 3584 2278 3584 
Q 2916 3584 3314 3078 
Q 3713 2572 3713 1747 
Q 3713 922 3314 415 
Q 2916 -91 2278 -91 
Q 1894 -91 1617 61 
Q 1341 213 1159 525 
z
M 3116 1747 
Q 3116 2381 2855 2742 
Q 2594 3103 2138 3103 
Q 1681 3103 1420 2742 
Q 1159 2381 1159 1747 
Q 1159 1113 1420 752 
Q 1681 391 2138 391 
Q 2594 391 2855 752 
Q 3116 1113 3116 1747 
z
" transform="scale(0.015625)"/>
     </defs>
     <use xlink:href="#DejaVuSans-44"/>
     <use xlink:href="#DejaVuSans-61" x="77.001953"/>
     <use xlink:href="#DejaVuSans-69" x="138.28125"/>
     <use xlink:href="#DejaVuSans-6c" x="166.064453"/>
     <use xlink:href="#DejaVuSans-79" x="193.847656"/>
     <use xlink:href="#DejaVuSans-20" x="253.027344"/>
     <use xlink:href="#DejaVuSans-43" x="284.814453"/>
     <use xlink:href="#DejaVuSans-6f" x="354.638672"/>
     <use xlink:href="#DejaVuSans-6e" x="415.820312"/>
     <use xlink:href="#DejaVuSans-66" x="479.199219"/>
     <use xlink:href="#DejaVuSans-69" x="514.404297"/>
     <use xlink:href="#DejaVuSans-72" x="542.1875"/>
     <use xlink:href="#DejaVuSans-6d" x="581.550781"/>
     <use xlink:href="#DejaVuSans-65" x="678.962891"/>
     <use xlink:href="#DejaVuSans-64" x="740.486328"/>
     <use xlink:href="#DejaVuSans-20" x="803.962891"/>
     <use xlink:href="#DejaVuSans-43" x="835.75"/>
     <use xlink:href="#DejaVuSans-61" x="905.574219"/>
     <use xlink:href="#DejaVuSans-73" x="966.853516"/>
     <use xlink:href="#DejaVuSans-65" x="1018.953125"/>
     <use xlink:href="#DejaVuSans-73" x="1080.476562"/>
     <use xlink:href="#DejaVuSans-20" x="1132.576172"/>
     <use xlink:href="#DejaVuSans-46" x="1164.363281"/>
     <use xlink:href="#DejaVuSans-6f" x="1218.257812"/>
     <use xlink:href="#DejaVuSans-72" x="1279.439453"/>
     <use xlink:href="#DejaVuSans-65" x="1318.302734"/>
     <use xlink:href="#DejaVuSans-63" x="1379.826172"/>
     <use xlink:href="#DejaVuSans-61" x="1434.806641"/>
     <use xlink:href="#DejaVuSans-73" x="1496.085938"/>
     <use xlink:href="#DejaVuSans-74" x="1548.185547"/>
     <use xlink:href="#DejaVuSans-69" x="1587.394531"/>
     <use xlink:href="#DejaVuSans-6e" x="1615.177734"/>
     <use xlink:href="#DejaVuSans-67" x="1678.556641"/>
     <use xlink:href="#DejaVuSans-20" x="1742.033203"/>
     <use xlink:href="#DejaVuSans-2d" x="1773.820312"/>
     <use xlink:href="#DejaVuSans-20" x="1809.904297"/>
     <use xlink:href="#DejaVuSans-45" x="1841.691406"/>
     <use xlink:href="#DejaVuSans-74" x="1904.875"/>
     <use xlink:href="#DejaVuSans-68" x="1944.083984"/>
     <use xlink:href="#DejaVuSans-69" x="2007.462891"/>
     <use xlink:href="#DejaVuSans-6f" x="2035.246094"/>
     <use xlink:href="#DejaVuSans-70" x="2096.427734"/>
     <use xlink:href="#DejaVuSans-69" x="2159.904297"/>
     <use xlink:href="#DejaVuSans-61" x="2187.6875"/>
    </g>
    <!-- ARIMA (2, 1, 1)x(1, 0, 1, 7) (R2 = 0.943358) -->
    <g transform="translate(577.265938 29.7555)scale(0.12 -0.12)">
     <defs>
      <path id="DejaVuSans-41" d="M 2188 4044 
L 1331 1722 
L 3047 1722 
L 2188 4044 
z
M 1831 4666 
L 2547 4666 
L 4325 0 
L 3669 0 
L 3244 1197 
L 1141 1197 
L 716 0 
L 50 0 
L 1831 4666 
z
" transform="scale(0.015625)"/>
      <path id="DejaVuSans-52" d="M 2841 2188 
Q 3044 2119 3236 1894 
Q 3428 1669 3622 1275 
L 4263 0 
L 3584 0 
L 2988 1197 
Q 2756 1666 2539 1819 
Q 2322 1972 1947 1972 
L 1259 1972 
L 1259 0 
L 628 0 
L 628 4666 
L 2053 4666 
Q 2853 4666 3247 4331 
Q 3641 3997 3641 3322 
Q 3641 2881 3436 2590 
Q 3231 2300 2841 2188 
z
M 1259 4147 
L 1259 2491 
L 2053 2491 
Q 2509 2491 2742 2702 
Q 2975 2913 2975 3322 
Q 2975 3731 2742 3939 
Q 2509 4147 2053 4147 
L 1259 4147 
z
" transform="scale(0.015625)"/>
      <path id="DejaVuSans-49" d="M 628 4666 
L 1259 4666 
L 1259 0 
L 628 0 
L 628 4666 
z
" transform="scale(0.015625)"/>
      <path id="DejaVuSans-4d" d="M 628 4666 
L 1569 4666 
L 2759 1491 
L 3956 4666 
L 4897 4666 
L 4897 0 
L 4281 0 
L 4281 4097 
L 3078 897 
L 2444 897 
L 1241 4097 
L 1241 0 
L 628 0 
L 628 4666 
z
" transform="scale(0.015625)"/>
      <path id="DejaVuSans-28" d="M 1984 4856 
Q 1566 4138 1362 3434 
Q 1159 2731 1159 2009 
Q 1159 1288 1364 580 
Q 1569 -128 1984 -844 
L 1484 -844 
Q 1016 -109 783 600 
Q 550 1309 550 2009 
Q 550 2706 781 3412 
Q 1013 4119 1484 4856 
L 1984 4856 
z
" transform="scale(0.015625)"/>
      <path id="DejaVuSans-2c" d="M 750 794 
L 1409 794 
L 1409 256 
L 897 -744 
L 494 -744 
L 750 256 
L 750 794 
z
" transform="scale(0.015625)"/>
      <path id="DejaVuSans-29" d="M 513 4856 
L 1013 4856 
Q 1481 4119 1714 3412 
Q 1947 2706 1947 2009 
Q 1947 1309 1714 600 
Q 1481 -109 1013 -844 
L 513 -844 
Q 928 -128 1133 580 
Q 1338 1288 1338 2009 
Q 1338 2731 1133 3434 
Q 928 4138 513 4856 
z
" transform="scale(0.015625)"/>
      <path id="DejaVuSans-78" d="M 3513 3500 
L 2247 1797 
L 3578 0 
L 2900 0 
L 1881 1375 
L 863 0 
L 184 0 
L 1544 1831 
L 300 3500 
L 978 3500 
L 1906 2253 
L 2834 3500 
L 3513 3500 
z
" transform="scale(0.015625)"/>
      <path id="DejaVuSans-3d" d="M 678 2906 
L 4684 2906 
L 4684 2381 
L 678 2381 
L 678 2906 
z
M 678 1631 
L 4684 1631 
L 4684 1100 
L 678 1100 
L 678 1631 
z
" transform="scale(0.015625)"/>
      <path id="DejaVuSans-2e" d="M 684 794 
L 1344 794 
L 1344 0 
L 684 0 
L 684 794 
z
" transform="scale(0.015625)"/>
      <path id="DejaVuSans-39" d="M 703 97 
L 703 672 
Q 941 559 1184 500 
Q 1428 441 1663 441 
Q 2288 441 2617 861 
Q 2947 1281 2994 2138 
Q 2813 1869 2534 1725 
Q 2256 1581 1919 1581 
Q 1219 1581 811 2004 
Q 403 2428 403 3163 
Q 403 3881 828 4315 
Q 1253 4750 1959 4750 
Q 2769 4750 3195 4129 
Q 3622 3509 3622 2328 
Q 3622 1225 3098 567 
Q 2575 -91 1691 -91 
Q 1453 -91 1209 -44 
Q 966 3 703 97 
z
M 1959 2075 
Q 2384 2075 2632 2365 
Q 2881 2656 2881 3163 
Q 2881 3666 2632 3958 
Q 2384 4250 1959 4250 
Q 1534 4250 1286 3958 
Q 1038 3666 1038 3163 
Q 1038 2656 1286 2365 
Q 1534 2075 1959 2075 
z
" transform="scale(0.015625)"/>
      <path id="DejaVuSans-38" d="M 2034 2216 
Q 1584 2216 1326 1975 
Q 1069 1734 1069 1313 
Q 1069 891 1326 650 
Q 1584 409 2034 409 
Q 2484 409 2743 651 
Q 3003 894 3003 1313 
Q 3003 1734 2745 1975 
Q 2488 2216 2034 2216 
z
M 1403 2484 
Q 997 2584 770 2862 
Q 544 3141 544 3541 
Q 544 4100 942 4425 
Q 1341 4750 2034 4750 
Q 2731 4750 3128 4425 
Q 3525 4100 3525 3541 
Q 3525 3141 3298 2862 
Q 3072 2584 2669 2484 
Q 3125 2378 3379 2068 
Q 3634 1759 3634 1313 
Q 3634 634 3220 271 
Q 2806 -91 2034 -91 
Q 1263 -91 848 271 
Q 434 634 434 1313 
Q 434 1759 690 2068 
Q 947 2378 1403 2484 
z
M 1172 3481 
Q 1172 3119 1398 2916 
Q 1625 2713 2034 2713 
Q 2441 2713 2670 2916 
Q 2900 3119 2900 3481 
Q 2900 3844 2670 4047 
Q 2441 4250 2034 4250 
Q 1625 4250 1398 4047 
Q 1172 3844 1172 3481 
z
" transform="scale(0.015625)"/>
     </defs>
     <use xlink:href="#DejaVuSans-41"/>
     <use xlink:href="#DejaVuSans-52" x="68.408203"/>
     <use xlink:href="#DejaVuSans-49" x="137.890625"/>
     <use xlink:href="#DejaVuSans-4d" x="167.382812"/>
     <use xlink:href="#DejaVuSans-41" x="253.662109"/>
     <use xlink:href="#DejaVuSans-20" x="322.070312"/>
     <use xlink:href="#DejaVuSans-28" x="353.857422"/>
     <use xlink:href="#DejaVuSans-32" x="392.871094"/>
     <use xlink:href="#DejaVuSans-2c" x="456.494141"/>
     <use xlink:href="#DejaVuSans-20" x="488.28125"/>
     <use xlink:href="#DejaVuSans-31" x="520.068359"/>
     <use xlink:href="#DejaVuSans-2c" x="583.691406"/>
     <use xlink:href="#DejaVuSans-20" x="615.478516"/>
     <use xlink:href="#DejaVuSans-31" x="647.265625"/>
     <use xlink:href="#DejaVuSans-29" x="710.888672"/>
     <use xlink:href="#DejaVuSans-78" x="749.902344"/>
     <use xlink:href="#DejaVuSans-28" x="809.082031"/>
     <use xlink:href="#DejaVuSans-31" x="848.095703"/>
     <use xlink:href="#DejaVuSans-2c" x="911.71875"/>
     <use xlink:href="#DejaVuSans-20" x="943.505859"/>
     <use xlink:href="#DejaVuSans-30" x="975.292969"/>
     <use xlink:href="#DejaVuSans-2c" x="1038.916016"/>
     <use xlink:href="#DejaVuSans-20" x="1070.703125"/>
     <use xlink:href="#DejaVuSans-31" x="1102.490234"/>
     <use xlink:href="#DejaVuSans-2c" x="1166.113281"/>
     <use xlink:href="#DejaVuSans-20" x="1197.900391"/>
     <use xlink:href="#DejaVuSans-37" x="1229.6875"/>
     <use xlink:href="#DejaVuSans-29" x="1293.310547"/>
     <use xlink:href="#DejaVuSans-20" x="1332.324219"/>
     <use xlink:href="#DejaVuSans-28" x="1364.111328"/>
     <use xlink:href="#DejaVuSans-52" x="1403.125"/>
     <use xlink:href="#DejaVuSans-32" x="1472.607422"/>
     <use xlink:href="#DejaVuSans-20" x="1536.230469"/>
     <use xlink:href="#DejaVuSans-3d" x="1568.017578"/>
     <use xlink:href="#DejaVuSans-20" x="1651.806641"/>
     <use xlink:href="#DejaVuSans-30" x="1683.59375"/>
     <use xlink:href="#DejaVuSans-2e" x="1747.216797"/>
     <use xlink:href="#DejaVuSans-39" x="1779.003906"/>
     <use xlink:href="#DejaVuSans-34" x="1842.626953"/>
     <use xlink:href="#DejaVuSans-33" x="1906.25"/>
     <use xlink:href="#DejaVuSans-33" x="1969.873047"/>
     <use xlink:href="#DejaVuSans-35" x="2033.496094"/>
     <use xlink:href="#DejaVuSans-38" x="2097.119141"/>
     <use xlink:href="#DejaVuSans-29" x="2160.742188"/>
    </g>
   </g>
   <g id="legend_1">
    <g id="patch_7">
     <path d="M 1274.770313 87.789875 
L 1371.85 87.789875 
Q 1373.85 87.789875 1373.85 85.789875 
L 1373.85 42.7555 
Q 1373.85 40.7555 1371.85 40.7555 
L 1274.770313 40.7555 
Q 1272.770313 40.7555 1272.770313 42.7555 
L 1272.770313 85.789875 
Q 1272.770313 87.789875 1274.770313 87.789875 
z
" style="fill: #ffffff; opacity: 0.8; stroke: #cccccc; stroke-linejoin: miter"/>
    </g>
    <g id="line2d_21">
     <path d="M 1276.770313 48.853937 
L 1286.770313 48.853937 
L 1296.770313 48.853937 
" style="fill: none; stroke: #0000ff; stroke-width: 1.5; stroke-linecap: square"/>
    </g>
    <g id="text_19">
     <!-- Actual Value -->
     <g transform="translate(1304.770313 52.353937)scale(0.1 -0.1)">
      <defs>
       <path id="DejaVuSans-75" d="M 544 1381 
L 544 3500 
L 1119 3500 
L 1119 1403 
Q 1119 906 1312 657 
Q 1506 409 1894 409 
Q 2359 409 2629 706 
Q 2900 1003 2900 1516 
L 2900 3500 
L 3475 3500 
L 3475 0 
L 2900 0 
L 2900 538 
Q 2691 219 2414 64 
Q 2138 -91 1772 -91 
Q 1169 -91 856 284 
Q 544 659 544 1381 
z
M 1991 3584 
L 1991 3584 
z
" transform="scale(0.015625)"/>
       <path id="DejaVuSans-56" d="M 1831 0 
L 50 4666 
L 709 4666 
L 2188 738 
L 3669 4666 
L 4325 4666 
L 2547 0 
L 1831 0 
z
" transform="scale(0.015625)"/>
      </defs>
      <use xlink:href="#DejaVuSans-41"/>
      <use xlink:href="#DejaVuSans-63" x="66.658203"/>
      <use xlink:href="#DejaVuSans-74" x="121.638672"/>
      <use xlink:href="#DejaVuSans-75" x="160.847656"/>
      <use xlink:href="#DejaVuSans-61" x="224.226562"/>
      <use xlink:href="#DejaVuSans-6c" x="285.505859"/>
      <use xlink:href="#DejaVuSans-20" x="313.289062"/>
      <use xlink:href="#DejaVuSans-56" x="345.076172"/>
      <use xlink:href="#DejaVuSans-61" x="405.734375"/>
      <use xlink:href="#DejaVuSans-6c" x="467.013672"/>
      <use xlink:href="#DejaVuSans-75" x="494.796875"/>
      <use xlink:href="#DejaVuSans-65" x="558.175781"/>
     </g>
    </g>
    <g id="line2d_22">
     <path d="M 1276.770313 63.532062 
L 1286.770313 63.532062 
L 1296.770313 63.532062 
" style="fill: none; stroke: #ffa500; stroke-width: 1.5; stroke-linecap: square"/>
    </g>
    <g id="text_20">
     <!-- Check Value -->
     <g transform="translate(1304.770313 67.032062)scale(0.1 -0.1)">
      <defs>
       <path id="DejaVuSans-6b" d="M 581 4863 
L 1159 4863 
L 1159 1991 
L 2875 3500 
L 3609 3500 
L 1753 1863 
L 3688 0 
L 2938 0 
L 1159 1709 
L 1159 0 
L 581 0 
L 581 4863 
z
" transform="scale(0.015625)"/>
      </defs>
      <use xlink:href="#DejaVuSans-43"/>
      <use xlink:href="#DejaVuSans-68" x="69.824219"/>
      <use xlink:href="#DejaVuSans-65" x="133.203125"/>
      <use xlink:href="#DejaVuSans-63" x="194.726562"/>
      <use xlink:href="#DejaVuSans-6b" x="249.707031"/>
      <use xlink:href="#DejaVuSans-20" x="307.617188"/>
      <use xlink:href="#DejaVuSans-56" x="339.404297"/>
      <use xlink:href="#DejaVuSans-61" x="400.0625"/>
      <use xlink:href="#DejaVuSans-6c" x="461.341797"/>
      <use xlink:href="#DejaVuSans-75" x="489.125"/>
      <use xlink:href="#DejaVuSans-65" x="552.503906"/>
     </g>
    </g>
    <g id="line2d_23">
     <path d="M 1276.770313 78.210187 
L 1286.770313 78.210187 
L 1296.770313 78.210187 
" style="fill: none; stroke: #ff0000; stroke-width: 1.5; stroke-linecap: square"/>
    </g>
    <g id="text_21">
     <!-- Predict Value -->
     <g transform="translate(1304.770313 81.710187)scale(0.1 -0.1)">
      <defs>
       <path id="DejaVuSans-50" d="M 1259 4147 
L 1259 2394 
L 2053 2394 
Q 2494 2394 2734 2622 
Q 2975 2850 2975 3272 
Q 2975 3691 2734 3919 
Q 2494 4147 2053 4147 
L 1259 4147 
z
M 628 4666 
L 2053 4666 
Q 2838 4666 3239 4311 
Q 3641 3956 3641 3272 
Q 3641 2581 3239 2228 
Q 2838 1875 2053 1875 
L 1259 1875 
L 1259 0 
L 628 0 
L 628 4666 
z
" transform="scale(0.015625)"/>
      </defs>
      <use xlink:href="#DejaVuSans-50"/>
      <use xlink:href="#DejaVuSans-72" x="58.552734"/>
      <use xlink:href="#DejaVuSans-65" x="97.416016"/>
      <use xlink:href="#DejaVuSans-64" x="158.939453"/>
      <use xlink:href="#DejaVuSans-69" x="222.416016"/>
      <use xlink:href="#DejaVuSans-63" x="250.199219"/>
      <use xlink:href="#DejaVuSans-74" x="305.179688"/>
      <use xlink:href="#DejaVuSans-20" x="344.388672"/>
      <use xlink:href="#DejaVuSans-56" x="376.175781"/>
      <use xlink:href="#DejaVuSans-61" x="436.833984"/>
      <use xlink:href="#DejaVuSans-6c" x="498.113281"/>
      <use xlink:href="#DejaVuSans-75" x="525.896484"/>
      <use xlink:href="#DejaVuSans-65" x="589.275391"/>
     </g>
    </g>
   </g>
  </g>
 </g>
 <defs>
  <clipPath id="pe1bb3b22b1">
   <rect x="39.65" y="35.7555" width="1339.2" height="332.64"/>
  </clipPath>
 </defs>
</svg>
