<?xml version="1.0" encoding="utf-8" standalone="no"?>
<!DOCTYPE svg PUBLIC "-//W3C//DTD SVG 1.1//EN"
  "http://www.w3.org/Graphics/SVG/1.1/DTD/svg11.dtd">
<svg xmlns:xlink="http://www.w3.org/1999/xlink" width="1386.05pt" height="392.273625pt" viewBox="0 0 1386.05 392.273625" xmlns="http://www.w3.org/2000/svg" version="1.1">
 <metadata>
  <rdf:RDF xmlns:dc="http://purl.org/dc/elements/1.1/" xmlns:cc="http://creativecommons.org/ns#" xmlns:rdf="http://www.w3.org/1999/02/22-rdf-syntax-ns#">
   <cc:Work>
    <dc:type rdf:resource="http://purl.org/dc/dcmitype/StillImage"/>
    <dc:date>2022-06-22T19:49:41.960362</dc:date>
    <dc:format>image/svg+xml</dc:format>
    <dc:creator>
     <cc:Agent>
      <dc:title>Matplotlib v3.5.2, https://matplotlib.org/</dc:title>
     </cc:Agent>
    </dc:creator>
   </cc:Work>
  </rdf:RDF>
 </metadata>
 <defs>
  <style type="text/css">*{stroke-linejoin: round; stroke-linecap: butt}</style>
 </defs>
 <g id="figure_1">
  <g id="patch_1">
   <path d="M 0 392.273625 
L 1386.05 392.273625 
L 1386.05 0 
L 0 0 
z
" style="fill: #ffffff"/>
  </g>
  <g id="axes_1">
   <g id="patch_2">
    <path d="M 39.65 368.3955 
L 1378.85 368.3955 
L 1378.85 35.7555 
L 39.65 35.7555 
z
" style="fill: #ffffff"/>
   </g>
   <g id="matplotlib.axis_1">
    <g id="xtick_1">
     <g id="line2d_1">
      <defs>
       <path id="m88114f8161" d="M 0 0 
L 0 3.5 
" style="stroke: #000000; stroke-width: 0.8"/>
      </defs>
      <g>
       <use xlink:href="#m88114f8161" x="70.529446" y="368.3955" style="stroke: #000000; stroke-width: 0.8"/>
      </g>
     </g>
     <g id="text_1">
      <!-- 2020-01 -->
      <g transform="translate(49.63804 382.993937)scale(0.1 -0.1)">
       <defs>
        <path id="DejaVuSans-32" d="M 1228 531 
L 3431 531 
L 3431 0 
L 469 0 
L 469 531 
Q 828 903 1448 1529 
Q 2069 2156 2228 2338 
Q 2531 2678 2651 2914 
Q 2772 3150 2772 3378 
Q 2772 3750 2511 3984 
Q 2250 4219 1831 4219 
Q 1534 4219 1204 4116 
Q 875 4013 500 3803 
L 500 4441 
Q 881 4594 1212 4672 
Q 1544 4750 1819 4750 
Q 2544 4750 2975 4387 
Q 3406 4025 3406 3419 
Q 3406 3131 3298 2873 
Q 3191 2616 2906 2266 
Q 2828 2175 2409 1742 
Q 1991 1309 1228 531 
z
" transform="scale(0.015625)"/>
        <path id="DejaVuSans-30" d="M 2034 4250 
Q 1547 4250 1301 3770 
Q 1056 3291 1056 2328 
Q 1056 1369 1301 889 
Q 1547 409 2034 409 
Q 2525 409 2770 889 
Q 3016 1369 3016 2328 
Q 3016 3291 2770 3770 
Q 2525 4250 2034 4250 
z
M 2034 4750 
Q 2819 4750 3233 4129 
Q 3647 3509 3647 2328 
Q 3647 1150 3233 529 
Q 2819 -91 2034 -91 
Q 1250 -91 836 529 
Q 422 1150 422 2328 
Q 422 3509 836 4129 
Q 1250 4750 2034 4750 
z
" transform="scale(0.015625)"/>
        <path id="DejaVuSans-2d" d="M 313 2009 
L 1997 2009 
L 1997 1497 
L 313 1497 
L 313 2009 
z
" transform="scale(0.015625)"/>
        <path id="DejaVuSans-31" d="M 794 531 
L 1825 531 
L 1825 4091 
L 703 3866 
L 703 4441 
L 1819 4666 
L 2450 4666 
L 2450 531 
L 3481 531 
L 3481 0 
L 794 0 
L 794 531 
z
" transform="scale(0.015625)"/>
       </defs>
       <use xlink:href="#DejaVuSans-32"/>
       <use xlink:href="#DejaVuSans-30" x="63.623047"/>
       <use xlink:href="#DejaVuSans-32" x="127.246094"/>
       <use xlink:href="#DejaVuSans-30" x="190.869141"/>
       <use xlink:href="#DejaVuSans-2d" x="254.492188"/>
       <use xlink:href="#DejaVuSans-30" x="290.576172"/>
       <use xlink:href="#DejaVuSans-31" x="354.199219"/>
      </g>
     </g>
    </g>
    <g id="xtick_2">
     <g id="line2d_2">
      <g>
       <use xlink:href="#m88114f8161" x="194.592563" y="368.3955" style="stroke: #000000; stroke-width: 0.8"/>
      </g>
     </g>
     <g id="text_2">
      <!-- 2020-04 -->
      <g transform="translate(173.701157 382.993937)scale(0.1 -0.1)">
       <defs>
        <path id="DejaVuSans-34" d="M 2419 4116 
L 825 1625 
L 2419 1625 
L 2419 4116 
z
M 2253 4666 
L 3047 4666 
L 3047 1625 
L 3713 1625 
L 3713 1100 
L 3047 1100 
L 3047 0 
L 2419 0 
L 2419 1100 
L 313 1100 
L 313 1709 
L 2253 4666 
z
" transform="scale(0.015625)"/>
       </defs>
       <use xlink:href="#DejaVuSans-32"/>
       <use xlink:href="#DejaVuSans-30" x="63.623047"/>
       <use xlink:href="#DejaVuSans-32" x="127.246094"/>
       <use xlink:href="#DejaVuSans-30" x="190.869141"/>
       <use xlink:href="#DejaVuSans-2d" x="254.492188"/>
       <use xlink:href="#DejaVuSans-30" x="290.576172"/>
       <use xlink:href="#DejaVuSans-34" x="354.199219"/>
      </g>
     </g>
    </g>
    <g id="xtick_3">
     <g id="line2d_3">
      <g>
       <use xlink:href="#m88114f8161" x="318.655681" y="368.3955" style="stroke: #000000; stroke-width: 0.8"/>
      </g>
     </g>
     <g id="text_3">
      <!-- 2020-07 -->
      <g transform="translate(297.764274 382.993937)scale(0.1 -0.1)">
       <defs>
        <path id="DejaVuSans-37" d="M 525 4666 
L 3525 4666 
L 3525 4397 
L 1831 0 
L 1172 0 
L 2766 4134 
L 525 4134 
L 525 4666 
z
" transform="scale(0.015625)"/>
       </defs>
       <use xlink:href="#DejaVuSans-32"/>
       <use xlink:href="#DejaVuSans-30" x="63.623047"/>
       <use xlink:href="#DejaVuSans-32" x="127.246094"/>
       <use xlink:href="#DejaVuSans-30" x="190.869141"/>
       <use xlink:href="#DejaVuSans-2d" x="254.492188"/>
       <use xlink:href="#DejaVuSans-30" x="290.576172"/>
       <use xlink:href="#DejaVuSans-37" x="354.199219"/>
      </g>
     </g>
    </g>
    <g id="xtick_4">
     <g id="line2d_4">
      <g>
       <use xlink:href="#m88114f8161" x="444.082129" y="368.3955" style="stroke: #000000; stroke-width: 0.8"/>
      </g>
     </g>
     <g id="text_4">
      <!-- 2020-10 -->
      <g transform="translate(423.190722 382.993937)scale(0.1 -0.1)">
       <use xlink:href="#DejaVuSans-32"/>
       <use xlink:href="#DejaVuSans-30" x="63.623047"/>
       <use xlink:href="#DejaVuSans-32" x="127.246094"/>
       <use xlink:href="#DejaVuSans-30" x="190.869141"/>
       <use xlink:href="#DejaVuSans-2d" x="254.492188"/>
       <use xlink:href="#DejaVuSans-31" x="290.576172"/>
       <use xlink:href="#DejaVuSans-30" x="354.199219"/>
      </g>
     </g>
    </g>
    <g id="xtick_5">
     <g id="line2d_5">
      <g>
       <use xlink:href="#m88114f8161" x="569.508577" y="368.3955" style="stroke: #000000; stroke-width: 0.8"/>
      </g>
     </g>
     <g id="text_5">
      <!-- 2021-01 -->
      <g transform="translate(548.617171 382.993937)scale(0.1 -0.1)">
       <use xlink:href="#DejaVuSans-32"/>
       <use xlink:href="#DejaVuSans-30" x="63.623047"/>
       <use xlink:href="#DejaVuSans-32" x="127.246094"/>
       <use xlink:href="#DejaVuSans-31" x="190.869141"/>
       <use xlink:href="#DejaVuSans-2d" x="254.492188"/>
       <use xlink:href="#DejaVuSans-30" x="290.576172"/>
       <use xlink:href="#DejaVuSans-31" x="354.199219"/>
      </g>
     </g>
    </g>
    <g id="xtick_6">
     <g id="line2d_6">
      <g>
       <use xlink:href="#m88114f8161" x="692.208363" y="368.3955" style="stroke: #000000; stroke-width: 0.8"/>
      </g>
     </g>
     <g id="text_6">
      <!-- 2021-04 -->
      <g transform="translate(671.316957 382.993937)scale(0.1 -0.1)">
       <use xlink:href="#DejaVuSans-32"/>
       <use xlink:href="#DejaVuSans-30" x="63.623047"/>
       <use xlink:href="#DejaVuSans-32" x="127.246094"/>
       <use xlink:href="#DejaVuSans-31" x="190.869141"/>
       <use xlink:href="#DejaVuSans-2d" x="254.492188"/>
       <use xlink:href="#DejaVuSans-30" x="290.576172"/>
       <use xlink:href="#DejaVuSans-34" x="354.199219"/>
      </g>
     </g>
    </g>
    <g id="xtick_7">
     <g id="line2d_7">
      <g>
       <use xlink:href="#m88114f8161" x="816.27148" y="368.3955" style="stroke: #000000; stroke-width: 0.8"/>
      </g>
     </g>
     <g id="text_7">
      <!-- 2021-07 -->
      <g transform="translate(795.380074 382.993937)scale(0.1 -0.1)">
       <use xlink:href="#DejaVuSans-32"/>
       <use xlink:href="#DejaVuSans-30" x="63.623047"/>
       <use xlink:href="#DejaVuSans-32" x="127.246094"/>
       <use xlink:href="#DejaVuSans-31" x="190.869141"/>
       <use xlink:href="#DejaVuSans-2d" x="254.492188"/>
       <use xlink:href="#DejaVuSans-30" x="290.576172"/>
       <use xlink:href="#DejaVuSans-37" x="354.199219"/>
      </g>
     </g>
    </g>
    <g id="xtick_8">
     <g id="line2d_8">
      <g>
       <use xlink:href="#m88114f8161" x="941.697928" y="368.3955" style="stroke: #000000; stroke-width: 0.8"/>
      </g>
     </g>
     <g id="text_8">
      <!-- 2021-10 -->
      <g transform="translate(920.806522 382.993937)scale(0.1 -0.1)">
       <use xlink:href="#DejaVuSans-32"/>
       <use xlink:href="#DejaVuSans-30" x="63.623047"/>
       <use xlink:href="#DejaVuSans-32" x="127.246094"/>
       <use xlink:href="#DejaVuSans-31" x="190.869141"/>
       <use xlink:href="#DejaVuSans-2d" x="254.492188"/>
       <use xlink:href="#DejaVuSans-31" x="290.576172"/>
       <use xlink:href="#DejaVuSans-30" x="354.199219"/>
      </g>
     </g>
    </g>
    <g id="xtick_9">
     <g id="line2d_9">
      <g>
       <use xlink:href="#m88114f8161" x="1067.124376" y="368.3955" style="stroke: #000000; stroke-width: 0.8"/>
      </g>
     </g>
     <g id="text_9">
      <!-- 2022-01 -->
      <g transform="translate(1046.23297 382.993937)scale(0.1 -0.1)">
       <use xlink:href="#DejaVuSans-32"/>
       <use xlink:href="#DejaVuSans-30" x="63.623047"/>
       <use xlink:href="#DejaVuSans-32" x="127.246094"/>
       <use xlink:href="#DejaVuSans-32" x="190.869141"/>
       <use xlink:href="#DejaVuSans-2d" x="254.492188"/>
       <use xlink:href="#DejaVuSans-30" x="290.576172"/>
       <use xlink:href="#DejaVuSans-31" x="354.199219"/>
      </g>
     </g>
    </g>
    <g id="xtick_10">
     <g id="line2d_10">
      <g>
       <use xlink:href="#m88114f8161" x="1189.824163" y="368.3955" style="stroke: #000000; stroke-width: 0.8"/>
      </g>
     </g>
     <g id="text_10">
      <!-- 2022-04 -->
      <g transform="translate(1168.932756 382.993937)scale(0.1 -0.1)">
       <use xlink:href="#DejaVuSans-32"/>
       <use xlink:href="#DejaVuSans-30" x="63.623047"/>
       <use xlink:href="#DejaVuSans-32" x="127.246094"/>
       <use xlink:href="#DejaVuSans-32" x="190.869141"/>
       <use xlink:href="#DejaVuSans-2d" x="254.492188"/>
       <use xlink:href="#DejaVuSans-30" x="290.576172"/>
       <use xlink:href="#DejaVuSans-34" x="354.199219"/>
      </g>
     </g>
    </g>
    <g id="xtick_11">
     <g id="line2d_11">
      <g>
       <use xlink:href="#m88114f8161" x="1313.88728" y="368.3955" style="stroke: #000000; stroke-width: 0.8"/>
      </g>
     </g>
     <g id="text_11">
      <!-- 2022-07 -->
      <g transform="translate(1292.995874 382.993937)scale(0.1 -0.1)">
       <use xlink:href="#DejaVuSans-32"/>
       <use xlink:href="#DejaVuSans-30" x="63.623047"/>
       <use xlink:href="#DejaVuSans-32" x="127.246094"/>
       <use xlink:href="#DejaVuSans-32" x="190.869141"/>
       <use xlink:href="#DejaVuSans-2d" x="254.492188"/>
       <use xlink:href="#DejaVuSans-30" x="290.576172"/>
       <use xlink:href="#DejaVuSans-37" x="354.199219"/>
      </g>
     </g>
    </g>
   </g>
   <g id="matplotlib.axis_2">
    <g id="ytick_1">
     <g id="line2d_12">
      <defs>
       <path id="m8a3e5e5ab5" d="M 0 0 
L -3.5 0 
" style="stroke: #000000; stroke-width: 0.8"/>
      </defs>
      <g>
       <use xlink:href="#m8a3e5e5ab5" x="39.65" y="346.34715" style="stroke: #000000; stroke-width: 0.8"/>
      </g>
     </g>
     <g id="text_12">
      <!-- 0 -->
      <g transform="translate(26.2875 350.146369)scale(0.1 -0.1)">
       <use xlink:href="#DejaVuSans-30"/>
      </g>
     </g>
    </g>
    <g id="ytick_2">
     <g id="line2d_13">
      <g>
       <use xlink:href="#m8a3e5e5ab5" x="39.65" y="294.290834" style="stroke: #000000; stroke-width: 0.8"/>
      </g>
     </g>
     <g id="text_13">
      <!-- 500 -->
      <g transform="translate(13.5625 298.090053)scale(0.1 -0.1)">
       <defs>
        <path id="DejaVuSans-35" d="M 691 4666 
L 3169 4666 
L 3169 4134 
L 1269 4134 
L 1269 2991 
Q 1406 3038 1543 3061 
Q 1681 3084 1819 3084 
Q 2600 3084 3056 2656 
Q 3513 2228 3513 1497 
Q 3513 744 3044 326 
Q 2575 -91 1722 -91 
Q 1428 -91 1123 -41 
Q 819 9 494 109 
L 494 744 
Q 775 591 1075 516 
Q 1375 441 1709 441 
Q 2250 441 2565 725 
Q 2881 1009 2881 1497 
Q 2881 1984 2565 2268 
Q 2250 2553 1709 2553 
Q 1456 2553 1204 2497 
Q 953 2441 691 2322 
L 691 4666 
z
" transform="scale(0.015625)"/>
       </defs>
       <use xlink:href="#DejaVuSans-35"/>
       <use xlink:href="#DejaVuSans-30" x="63.623047"/>
       <use xlink:href="#DejaVuSans-30" x="127.246094"/>
      </g>
     </g>
    </g>
    <g id="ytick_3">
     <g id="line2d_14">
      <g>
       <use xlink:href="#m8a3e5e5ab5" x="39.65" y="242.234518" style="stroke: #000000; stroke-width: 0.8"/>
      </g>
     </g>
     <g id="text_14">
      <!-- 1000 -->
      <g transform="translate(7.2 246.033737)scale(0.1 -0.1)">
       <use xlink:href="#DejaVuSans-31"/>
       <use xlink:href="#DejaVuSans-30" x="63.623047"/>
       <use xlink:href="#DejaVuSans-30" x="127.246094"/>
       <use xlink:href="#DejaVuSans-30" x="190.869141"/>
      </g>
     </g>
    </g>
    <g id="ytick_4">
     <g id="line2d_15">
      <g>
       <use xlink:href="#m8a3e5e5ab5" x="39.65" y="190.178202" style="stroke: #000000; stroke-width: 0.8"/>
      </g>
     </g>
     <g id="text_15">
      <!-- 1500 -->
      <g transform="translate(7.2 193.977421)scale(0.1 -0.1)">
       <use xlink:href="#DejaVuSans-31"/>
       <use xlink:href="#DejaVuSans-35" x="63.623047"/>
       <use xlink:href="#DejaVuSans-30" x="127.246094"/>
       <use xlink:href="#DejaVuSans-30" x="190.869141"/>
      </g>
     </g>
    </g>
    <g id="ytick_5">
     <g id="line2d_16">
      <g>
       <use xlink:href="#m8a3e5e5ab5" x="39.65" y="138.121886" style="stroke: #000000; stroke-width: 0.8"/>
      </g>
     </g>
     <g id="text_16">
      <!-- 2000 -->
      <g transform="translate(7.2 141.921105)scale(0.1 -0.1)">
       <use xlink:href="#DejaVuSans-32"/>
       <use xlink:href="#DejaVuSans-30" x="63.623047"/>
       <use xlink:href="#DejaVuSans-30" x="127.246094"/>
       <use xlink:href="#DejaVuSans-30" x="190.869141"/>
      </g>
     </g>
    </g>
    <g id="ytick_6">
     <g id="line2d_17">
      <g>
       <use xlink:href="#m8a3e5e5ab5" x="39.65" y="86.06557" style="stroke: #000000; stroke-width: 0.8"/>
      </g>
     </g>
     <g id="text_17">
      <!-- 2500 -->
      <g transform="translate(7.2 89.864788)scale(0.1 -0.1)">
       <use xlink:href="#DejaVuSans-32"/>
       <use xlink:href="#DejaVuSans-35" x="63.623047"/>
       <use xlink:href="#DejaVuSans-30" x="127.246094"/>
       <use xlink:href="#DejaVuSans-30" x="190.869141"/>
      </g>
     </g>
    </g>
   </g>
   <g id="line2d_18">
    <path d="M 100.522727 346.34715 
L 160.509289 346.34715 
L 161.87262 345.9307 
L 163.235951 346.34715 
L 164.599282 346.138925 
L 165.962613 346.138925 
L 167.325944 346.34715 
L 171.415937 346.034812 
L 172.779268 346.34715 
L 186.412578 346.34715 
L 187.775909 346.034812 
L 189.13924 346.34715 
L 190.50257 346.243038 
L 191.865901 346.34715 
L 194.592563 346.243038 
L 197.319225 346.34715 
L 212.315866 346.34715 
L 215.042528 346.034812 
L 216.405859 346.034812 
L 217.76919 345.618362 
L 219.132521 344.577235 
L 220.495852 344.577235 
L 221.859183 344.889573 
L 223.222513 346.034812 
L 224.585844 344.056672 
L 225.949175 344.160785 
L 227.312506 341.349744 
L 228.675837 342.494983 
L 230.039168 345.097799 
L 231.402499 343.848447 
L 232.76583 343.431997 
L 234.129161 326.56575 
L 235.492492 343.95256 
L 236.855823 343.431997 
L 238.219154 345.514249 
L 239.582485 344.889573 
L 240.945816 343.015546 
L 242.309147 341.766194 
L 243.672478 343.119659 
L 245.035809 336.352338 
L 246.39914 341.557969 
L 247.762471 341.662082 
L 249.125802 339.892167 
L 250.489133 345.618362 
L 251.852464 341.037406 
L 253.215795 343.536109 
L 254.579126 341.245631 
L 255.942456 341.453857 
L 257.305787 344.681348 
L 258.669118 345.097799 
L 260.032449 342.494983 
L 261.39578 341.870307 
L 262.759111 343.223771 
L 264.122442 340.308618 
L 265.485773 342.286758 
L 266.849104 340.308618 
L 268.212435 343.848447 
L 269.575766 341.870307 
L 270.939097 344.36901 
L 272.302428 340.516843 
L 273.665759 338.226365 
L 275.02909 337.914027 
L 276.392421 335.831774 
L 279.119083 345.097799 
L 280.482414 345.410137 
L 281.845745 344.056672 
L 283.209076 345.201911 
L 284.572407 344.473123 
L 285.935738 346.138925 
L 287.299069 344.993686 
L 288.662399 343.640222 
L 291.389061 344.889573 
L 292.752392 343.536109 
L 294.115723 345.306024 
L 295.479054 344.056672 
L 296.842385 343.223771 
L 298.205716 343.327884 
L 299.569047 343.640222 
L 300.932378 344.577235 
L 302.295709 344.993686 
L 303.65904 342.494983 
L 305.022371 344.681348 
L 306.385702 344.889573 
L 307.749033 344.160785 
L 309.112364 343.95256 
L 310.475695 344.681348 
L 311.839026 345.722474 
L 313.202357 344.056672 
L 314.565688 344.36901 
L 315.929019 344.993686 
L 317.29235 343.848447 
L 320.019012 344.473123 
L 321.382342 345.306024 
L 322.745673 343.744334 
L 324.109004 342.911433 
L 325.472335 343.95256 
L 326.835666 345.306024 
L 328.198997 344.681348 
L 329.562328 342.599095 
L 330.925659 339.683942 
L 332.28899 341.453857 
L 333.652321 339.371604 
L 335.015652 343.119659 
L 336.378983 342.286758 
L 337.742314 343.223771 
L 339.105645 339.267491 
L 340.468976 344.889573 
L 341.832307 344.577235 
L 343.195638 342.599095 
L 344.558969 342.911433 
L 345.9223 341.662082 
L 347.285631 340.204505 
L 348.648962 344.577235 
L 350.012293 340.620955 
L 351.375624 338.330478 
L 352.738954 341.141519 
L 354.102285 339.371604 
L 355.465616 332.08372 
L 356.828947 339.99628 
L 358.192278 330.52203 
L 359.555609 338.642815 
L 360.91894 330.10558 
L 362.282271 323.962934 
L 363.645602 332.916621 
L 365.008933 330.417918 
L 366.372264 330.938481 
L 367.735595 337.393464 
L 369.098926 337.081126 
L 370.462257 332.916621 
L 371.825588 331.459044 
L 373.188919 334.270085 
L 374.55225 339.475717 
L 375.915581 331.459044 
L 377.278912 333.020733 
L 378.642243 338.226365 
L 380.005574 335.207099 
L 381.368905 335.311211 
L 382.732236 333.437184 
L 384.095567 328.648003 
L 385.458897 331.146706 
L 386.822228 331.250819 
L 388.185559 326.1493 
L 389.54889 336.352338 
L 390.912221 333.957747 
L 392.275552 332.50017 
L 393.638883 332.291945 
L 395.002214 327.815102 
L 396.365545 335.519436 
L 397.728876 331.771382 
L 399.092207 334.998873 
L 400.455538 337.081126 
L 401.818869 332.08372 
L 403.1822 325.628736 
L 404.545531 332.08372 
L 405.908862 331.667269 
L 407.272193 338.01814 
L 408.635524 333.333071 
L 409.998855 336.144112 
L 411.362186 337.705802 
L 412.725517 338.642815 
L 414.088848 336.664675 
L 415.452179 339.475717 
L 416.81551 336.977013 
L 418.17884 339.892167 
L 419.542171 333.749522 
L 420.905502 339.059266 
L 423.632164 336.04 
L 424.995495 339.371604 
L 427.722157 337.914027 
L 429.085488 338.538703 
L 430.448819 341.557969 
L 431.81215 341.349744 
L 433.175481 339.371604 
L 434.538812 340.725068 
L 435.902143 338.538703 
L 437.265474 343.119659 
L 438.628805 340.829181 
L 439.992136 340.204505 
L 441.355467 342.494983 
L 442.718798 336.248225 
L 444.082129 339.788054 
L 445.44546 341.766194 
L 446.808791 339.371604 
L 448.172122 339.579829 
L 449.535453 342.494983 
L 450.898783 340.725068 
L 452.262114 342.703208 
L 453.625445 337.393464 
L 454.988776 339.475717 
L 457.715438 342.703208 
L 459.078769 341.245631 
L 460.4421 341.141519 
L 461.805431 339.163379 
L 463.168762 341.037406 
L 464.532093 342.078532 
L 465.895424 343.848447 
L 467.258755 343.015546 
L 468.622086 344.056672 
L 469.985417 342.286758 
L 471.348748 341.662082 
L 472.712079 341.97442 
L 474.07541 342.911433 
L 475.438741 343.223771 
L 476.802072 337.601689 
L 478.165403 343.536109 
L 479.528734 342.703208 
L 480.892065 343.848447 
L 483.618726 343.536109 
L 484.982057 344.681348 
L 486.345388 341.97442 
L 487.708719 342.599095 
L 489.07205 340.204505 
L 490.435381 343.640222 
L 491.798712 338.955153 
L 493.162043 342.286758 
L 494.525374 343.223771 
L 495.888705 343.848447 
L 498.615367 344.160785 
L 499.978698 343.327884 
L 501.342029 343.640222 
L 502.70536 343.536109 
L 504.068691 341.97442 
L 505.432022 341.141519 
L 506.795353 334.894761 
L 508.158684 342.078532 
L 509.522015 343.327884 
L 510.885346 339.267491 
L 512.248677 336.560563 
L 513.612008 343.015546 
L 514.975338 343.223771 
L 516.338669 330.730255 
L 517.702 340.933293 
L 520.428662 342.703208 
L 521.791993 341.766194 
L 523.155324 344.889573 
L 524.518655 341.453857 
L 525.881986 344.577235 
L 527.245317 342.39087 
L 528.608648 344.160785 
L 529.971979 342.599095 
L 531.33531 342.494983 
L 532.698641 344.681348 
L 534.061972 342.286758 
L 535.425303 344.785461 
L 536.788634 342.703208 
L 538.151965 343.640222 
L 539.515296 342.807321 
L 540.878627 344.473123 
L 542.241958 344.056672 
L 543.605289 344.264898 
L 544.96862 345.201911 
L 546.331951 344.993686 
L 547.695281 345.306024 
L 549.058612 344.681348 
L 550.421943 343.640222 
L 551.785274 343.223771 
L 554.511936 345.514249 
L 555.875267 343.95256 
L 557.238598 344.993686 
L 558.601929 344.160785 
L 559.96526 343.744334 
L 561.328591 342.703208 
L 564.055253 344.681348 
L 566.781915 341.453857 
L 568.145246 344.36901 
L 569.508577 341.453857 
L 570.871908 343.223771 
L 572.235239 342.911433 
L 573.59857 343.640222 
L 574.961901 342.494983 
L 576.325232 342.494983 
L 577.688563 344.160785 
L 579.051894 340.933293 
L 580.415224 343.744334 
L 581.778555 341.766194 
L 583.141886 341.141519 
L 584.505217 340.204505 
L 585.868548 340.204505 
L 587.231879 341.349744 
L 589.958541 341.037406 
L 591.321872 337.289351 
L 594.048534 341.037406 
L 595.411865 338.122252 
L 596.775196 340.829181 
L 598.138527 339.579829 
L 599.501858 340.620955 
L 600.865189 335.102986 
L 602.22852 334.998873 
L 603.591851 331.250819 
L 604.955182 331.459044 
L 606.318513 335.311211 
L 607.681844 334.06186 
L 609.045175 333.645409 
L 610.408506 335.415324 
L 611.771837 323.962934 
L 613.135167 336.04 
L 614.498498 333.749522 
L 615.861829 332.396058 
L 617.22516 332.08372 
L 618.588491 334.998873 
L 619.951822 333.124846 
L 621.315153 333.228959 
L 622.678484 326.357525 
L 624.041815 335.935887 
L 625.405146 326.982201 
L 626.768477 333.853634 
L 628.131808 324.58761 
L 629.495139 334.686535 
L 630.85847 333.333071 
L 632.221801 332.916621 
L 633.585132 331.563156 
L 634.948463 334.270085 
L 636.311794 333.124846 
L 637.675125 331.250819 
L 639.038456 330.001467 
L 640.401787 329.585016 
L 641.765118 335.102986 
L 643.128449 333.437184 
L 644.491779 327.190426 
L 645.85511 332.50017 
L 647.218441 334.06186 
L 648.581772 325.941074 
L 649.945103 326.982201 
L 651.308434 329.168566 
L 652.671765 332.187832 
L 654.035096 328.960341 
L 655.398427 334.06186 
L 656.761758 336.144112 
L 658.125089 332.708395 
L 659.48842 333.333071 
L 660.851751 334.374198 
L 662.215082 334.894761 
L 663.578413 333.437184 
L 664.941744 334.47831 
L 666.305075 336.560563 
L 667.668406 336.352338 
L 669.031737 336.560563 
L 670.395068 330.417918 
L 671.758399 331.563156 
L 673.12173 326.982201 
L 674.485061 331.250819 
L 675.848392 337.914027 
L 677.211722 331.771382 
L 678.575053 330.834368 
L 679.938384 333.020733 
L 681.301715 331.875494 
L 682.665046 329.480904 
L 684.028377 331.146706 
L 685.391708 329.064453 
L 686.755039 333.749522 
L 688.11837 331.042593 
L 689.481701 328.960341 
L 690.845032 321.256006 
L 692.208363 315.113361 
L 693.571694 328.752115 
L 694.935025 335.623549 
L 696.298356 332.604283 
L 697.661687 333.333071 
L 699.025018 331.250819 
L 700.388349 331.979607 
L 701.75168 334.582423 
L 703.115011 332.604283 
L 704.478342 337.185239 
L 705.841673 336.664675 
L 707.205004 337.601689 
L 708.568335 340.308618 
L 709.931665 337.497576 
L 711.294996 336.45645 
L 712.658327 337.809914 
L 714.021658 333.437184 
L 715.384989 325.212286 
L 716.74832 330.001467 
L 718.111651 329.480904 
L 719.474982 320.006654 
L 720.838313 329.272679 
L 722.201644 313.135221 
L 723.564975 323.650596 
L 724.928306 320.006654 
L 726.291637 312.198207 
L 727.654968 306.159674 
L 729.018299 298.038889 
L 730.38163 313.239333 
L 731.744961 297.934776 
L 733.108292 304.493872 
L 734.471623 293.457933 
L 735.834954 285.44126 
L 737.198285 283.775458 
L 738.561616 269.928478 
L 739.924947 273.15597 
L 741.288278 266.596874 
L 742.651608 284.920697 
L 744.014939 232.760268 
L 745.37827 220.995541 
L 746.741601 190.074089 
L 748.104932 182.682092 
L 749.468263 219.746189 
L 750.831594 193.613919 
L 752.194925 241.50573 
L 753.558256 269.19969 
L 754.921587 197.153748 
L 756.284918 193.822144 
L 757.648249 222.765456 
L 759.01158 117.924035 
L 760.374911 179.454601 
L 761.738242 142.286391 
L 763.101573 184.035557 
L 764.464904 198.81955 
L 765.828235 241.818067 
L 767.191566 211.104841 
L 768.554897 211.104841 
L 769.918228 252.541669 
L 771.281559 235.779535 
L 772.64489 265.139297 
L 774.008221 272.427181 
L 775.371551 266.388649 
L 776.734882 273.051857 
L 778.098213 278.882165 
L 779.461544 301.370493 
L 780.824875 284.920697 
L 782.188206 303.452746 
L 783.551537 288.876977 
L 784.914868 307.825476 
L 786.278199 310.844743 
L 787.64153 312.71877 
L 789.004861 315.633924 
L 790.368192 320.735443 
L 791.731523 323.025921 
L 793.094854 307.617251 
L 794.458185 323.025921 
L 795.821516 321.256006 
L 797.184847 323.650596 
L 798.548178 331.563156 
L 799.911509 324.379385 
L 801.27484 326.878088 
L 802.638171 320.006654 
L 804.001502 331.250819 
L 805.364833 328.439777 
L 806.728163 324.275272 
L 808.091494 318.65319 
L 809.454825 330.730255 
L 810.818156 322.088907 
L 812.181487 330.209692 
L 813.544818 327.815102 
L 814.908149 331.979607 
L 816.27148 332.50017 
L 817.634811 331.459044 
L 818.998142 330.730255 
L 820.361473 333.124846 
L 821.724804 332.916621 
L 823.088135 335.415324 
L 824.451466 331.875494 
L 825.814797 333.437184 
L 827.178128 340.620955 
L 828.541459 336.977013 
L 829.90479 338.226365 
L 831.268121 336.872901 
L 832.631452 328.648003 
L 833.994783 338.746928 
L 835.358114 323.754709 
L 836.721445 334.47831 
L 838.084776 338.01814 
L 839.448106 339.788054 
L 840.811437 331.771382 
L 842.174768 328.752115 
L 843.538099 331.354931 
L 844.90143 333.645409 
L 846.264761 336.768788 
L 847.628092 337.914027 
L 848.991423 333.541296 
L 850.354754 336.144112 
L 851.718085 335.415324 
L 853.081416 331.667269 
L 854.444747 335.102986 
L 855.808078 335.207099 
L 857.171409 333.541296 
L 858.53474 334.374198 
L 859.898071 337.393464 
L 861.261402 333.333071 
L 862.624733 332.08372 
L 863.988064 335.519436 
L 865.351395 332.708395 
L 866.714726 334.582423 
L 868.078057 334.582423 
L 869.441388 335.102986 
L 870.804719 334.47831 
L 872.168049 334.686535 
L 873.53138 333.333071 
L 874.894711 334.790648 
L 876.258042 338.642815 
L 877.621373 332.08372 
L 878.984704 330.52203 
L 881.711366 335.311211 
L 883.074697 332.396058 
L 884.438028 336.45645 
L 885.801359 334.894761 
L 887.16469 336.45645 
L 888.528021 335.102986 
L 889.891352 330.626143 
L 891.254683 334.894761 
L 892.618014 335.102986 
L 893.981345 335.623549 
L 895.344676 331.875494 
L 896.708007 334.582423 
L 898.071338 328.752115 
L 899.434669 330.52203 
L 900.798 326.669863 
L 902.161331 328.335665 
L 903.524662 327.710989 
L 904.887992 330.001467 
L 906.251323 328.752115 
L 907.614654 333.853634 
L 908.977985 329.168566 
L 910.341316 335.935887 
L 911.704647 334.790648 
L 913.067978 335.623549 
L 914.431309 335.311211 
L 915.79464 331.979607 
L 917.157971 333.020733 
L 918.521302 333.853634 
L 919.884633 336.768788 
L 921.247964 337.393464 
L 922.611295 337.601689 
L 923.974626 329.480904 
L 925.337957 337.809914 
L 926.701288 338.122252 
L 928.064619 323.442371 
L 929.42795 331.563156 
L 930.791281 337.393464 
L 932.154612 339.99628 
L 933.517943 333.228959 
L 934.881274 338.851041 
L 936.244604 333.645409 
L 937.607935 336.45645 
L 938.971266 331.667269 
L 940.334597 337.081126 
L 941.697928 340.41273 
L 943.061259 335.415324 
L 944.42459 346.34715 
L 945.787921 332.187832 
L 947.151252 336.872901 
L 949.877914 339.059266 
L 951.241245 341.557969 
L 952.604576 338.955153 
L 953.967907 337.705802 
L 955.331238 338.642815 
L 956.694569 334.894761 
L 958.0579 335.311211 
L 959.421231 336.560563 
L 960.784562 341.662082 
L 962.147893 334.790648 
L 963.511224 338.330478 
L 964.874555 341.557969 
L 966.237886 334.582423 
L 967.601217 336.45645 
L 968.964547 332.708395 
L 970.327878 340.620955 
L 971.691209 322.921808 
L 973.05454 336.768788 
L 974.417871 330.834368 
L 975.781202 334.374198 
L 977.144533 328.335665 
L 978.507864 333.020733 
L 979.871195 346.34715 
L 981.234526 346.34715 
L 982.597857 330.626143 
L 983.961188 317.507951 
L 985.324519 331.459044 
L 986.68785 323.546484 
L 988.051181 334.998873 
L 989.414512 332.812508 
L 990.777843 333.957747 
L 992.141174 327.398651 
L 993.504505 330.834368 
L 994.867836 329.689129 
L 996.231167 332.916621 
L 997.594498 334.998873 
L 998.957829 329.168566 
L 1000.32116 327.190426 
L 1001.68449 333.124846 
L 1003.047821 329.793242 
L 1004.411152 334.06186 
L 1005.774483 330.834368 
L 1007.137814 338.642815 
L 1008.501145 333.437184 
L 1009.864476 332.08372 
L 1011.227807 333.437184 
L 1012.591138 336.352338 
L 1013.954469 333.541296 
L 1015.3178 335.727662 
L 1016.681131 338.43459 
L 1018.044462 330.52203 
L 1019.407793 338.43459 
L 1020.771124 334.47831 
L 1022.134455 338.122252 
L 1023.497786 335.207099 
L 1024.861117 335.935887 
L 1026.224448 331.459044 
L 1027.587779 335.935887 
L 1028.95111 335.727662 
L 1030.314441 334.270085 
L 1031.677772 330.001467 
L 1033.041103 332.50017 
L 1034.404433 333.020733 
L 1035.767764 333.333071 
L 1037.131095 336.768788 
L 1038.494426 323.650596 
L 1039.857757 340.620955 
L 1041.221088 333.124846 
L 1042.584419 333.437184 
L 1043.94775 329.480904 
L 1045.311081 336.248225 
L 1046.674412 335.519436 
L 1048.037743 332.708395 
L 1049.401074 336.664675 
L 1050.764405 335.935887 
L 1052.127736 333.749522 
L 1053.491067 333.749522 
L 1054.854398 331.250819 
L 1056.217729 333.853634 
L 1057.58106 328.856228 
L 1058.944391 332.604283 
L 1060.307722 328.856228 
L 1061.671053 326.56575 
L 1063.034384 325.732849 
L 1064.397715 333.853634 
L 1065.761046 329.689129 
L 1067.124376 326.461637 
L 1068.487707 329.585016 
L 1069.851038 321.151893 
L 1071.214369 322.60947 
L 1072.5777 323.025921 
L 1073.941031 314.69691 
L 1075.304362 317.091501 
L 1076.667693 311.261193 
L 1078.031024 306.367899 
L 1079.394355 299.080015 
L 1080.757686 284.608359 
L 1082.121017 290.542779 
L 1083.484348 261.391242 
L 1084.847679 245.670235 
L 1086.21101 247.023699 
L 1087.574341 220.474978 
L 1088.937672 198.507212 
L 1090.301003 180.391614 
L 1091.664334 123.858455 
L 1093.027665 117.403472 
L 1094.390996 169.668013 
L 1095.754327 101.786577 
L 1097.117658 87.731372 
L 1098.480988 64.514255 
L 1099.844319 74.717293 
L 1101.20765 53.478316 
L 1102.570981 86.169682 
L 1103.934312 85.024443 
L 1105.297643 66.388282 
L 1106.660974 50.8755 
L 1108.024305 59.620961 
L 1109.387636 119.381612 
L 1110.750967 123.337892 
L 1112.114298 155.404583 
L 1113.477629 142.806954 
L 1114.84096 180.912178 
L 1116.204291 163.421255 
L 1117.567622 182.265642 
L 1118.930953 189.969977 
L 1120.294284 232.239705 
L 1121.657615 199.964789 
L 1123.020946 243.692095 
L 1124.384277 228.908101 
L 1125.747608 239.111139 
L 1127.110939 240.672829 
L 1128.47427 238.382351 
L 1129.837601 236.404211 
L 1131.200931 262.536481 
L 1132.564262 283.150782 
L 1133.927593 278.882165 
L 1135.290924 258.476089 
L 1136.654255 278.049264 
L 1138.017586 263.473495 
L 1139.380917 245.253784 
L 1140.744248 280.964417 
L 1142.107579 293.562046 
L 1143.47091 292.520919 
L 1144.834241 295.956636 
L 1146.197572 288.044076 
L 1147.560903 298.143002 
L 1148.924234 298.559452 
L 1150.287565 290.646892 
L 1151.650896 315.321586 
L 1153.014227 312.71877 
L 1154.377558 314.488685 
L 1155.740889 295.540186 
L 1157.10422 317.924402 
L 1158.467551 312.094094 
L 1159.830882 312.510545 
L 1161.194213 328.439777 
L 1162.557544 325.108173 
L 1163.920874 316.050374 
L 1165.284205 346.34715 
L 1183.007508 346.34715 
L 1184.370839 102.515366 
L 1185.73417 346.34715 
L 1192.550825 346.34715 
L 1193.914156 277.11225 
L 1195.277487 346.34715 
L 1202.094141 346.34715 
L 1203.457472 278.153376 
L 1204.820803 346.34715 
L 1213.000789 346.34715 
L 1214.36412 287.731738 
L 1215.727451 346.34715 
L 1221.180775 346.34715 
L 1222.544106 316.362712 
L 1223.907437 346.34715 
L 1234.814084 346.34715 
L 1236.177415 321.047781 
L 1237.540746 346.34715 
L 1240.267408 346.34715 
L 1241.630739 339.163379 
L 1242.99407 346.34715 
L 1249.810725 346.34715 
L 1251.174056 338.330478 
L 1252.537387 346.34715 
L 1259.354042 346.34715 
L 1260.717372 335.727662 
L 1262.080703 346.34715 
L 1268.897358 346.34715 
L 1270.260689 336.872901 
L 1271.62402 346.34715 
L 1278.440675 346.34715 
L 1279.804006 337.601689 
L 1281.167337 346.34715 
L 1287.983992 346.34715 
L 1289.347323 331.563156 
L 1290.710654 346.34715 
L 1297.527308 346.34715 
L 1298.890639 304.181534 
L 1300.25397 346.34715 
L 1300.25397 346.34715 
" clip-path="url(#pf1c4b8ed75)" style="fill: none; stroke: #0000ff; stroke-width: 1.5; stroke-linecap: square"/>
   </g>
   <g id="line2d_19">
    <path d="M 1060.307722 330.132822 
L 1061.671053 327.825369 
L 1063.034384 326.36634 
L 1064.397715 329.360211 
L 1065.761046 329.668762 
L 1068.487707 328.341922 
L 1069.851038 323.757611 
L 1071.214369 323.266037 
L 1072.5777 324.009719 
L 1073.941031 319.677213 
L 1075.304362 316.139221 
L 1076.667693 314.579319 
L 1078.031024 307.922858 
L 1079.394355 303.998788 
L 1080.757686 293.683274 
L 1082.121017 288.658922 
L 1083.484348 275.603041 
L 1084.847679 259.182089 
L 1086.21101 247.601693 
L 1087.574341 232.192341 
L 1088.937672 211.070097 
L 1090.301003 194.574225 
L 1091.664334 151.515399 
L 1093.027665 125.060188 
L 1094.390996 138.430393 
L 1095.754327 120.814845 
L 1097.117658 99.896821 
L 1098.480988 71.921285 
L 1099.844319 54.08849 
L 1101.20765 53.149386 
L 1102.570981 80.904812 
L 1103.934312 69.384215 
L 1105.297643 64.665196 
L 1106.660974 53.07257 
L 1108.024305 54.896162 
L 1109.387636 80.278079 
L 1110.750967 112.896264 
L 1112.114298 141.066603 
L 1113.477629 138.673635 
L 1114.84096 156.144744 
L 1116.204291 163.454305 
L 1117.567622 191.926798 
L 1118.930953 191.992477 
L 1120.294284 219.29819 
L 1121.657615 210.945281 
L 1123.020946 235.437383 
L 1124.384277 229.282145 
L 1125.747608 239.604364 
L 1127.110939 243.155162 
L 1128.47427 251.003609 
L 1129.837601 237.866461 
L 1131.200931 255.845976 
L 1132.564262 268.587107 
L 1133.927593 277.872882 
L 1136.654255 269.772448 
L 1138.017586 268.724195 
L 1139.380917 262.921924 
L 1140.744248 276.220227 
L 1142.107579 280.437229 
L 1143.47091 287.143892 
L 1144.834241 294.561106 
L 1146.197572 291.218438 
L 1147.560903 286.641765 
L 1148.924234 303.838284 
L 1150.287565 300.844436 
L 1151.650896 308.41751 
L 1153.014227 309.007591 
L 1154.377558 313.571872 
L 1155.740889 306.366427 
L 1157.10422 311.606916 
L 1158.467551 308.317036 
L 1159.830882 319.526354 
L 1161.194213 321.41041 
L 1162.557544 325.590989 
L 1163.920874 316.330547 
L 1165.284205 335.093563 
L 1166.647536 340.215767 
L 1168.010867 346.941388 
L 1169.374198 350.270909 
L 1170.737529 347.873685 
L 1172.10086 344.320615 
L 1173.464191 352.910729 
L 1174.827522 350.275187 
L 1176.190853 348.078697 
L 1177.554184 346.389899 
L 1178.917515 346.305729 
L 1180.280846 346.387285 
L 1181.644177 346.308263 
L 1183.007508 346.38483 
L 1184.370839 239.103965 
L 1185.73417 261.05009 
L 1187.097501 297.537484 
L 1188.460832 341.423992 
L 1189.824163 351.117373 
L 1191.187494 341.725111 
L 1192.550825 286.166146 
L 1193.914156 339.996109 
L 1195.277487 348.950448 
L 1196.640817 341.357967 
L 1198.004148 350.201518 
L 1199.367479 342.612517 
L 1200.73081 349.96577 
L 1202.094141 324.481188 
L 1203.457472 327.833681 
L 1204.820803 325.615263 
L 1206.184134 339.567999 
L 1207.547465 342.243755 
L 1208.910796 350.323076 
L 1210.274127 342.494734 
L 1211.637458 331.996226 
L 1213.000789 350.681294 
L 1214.36412 330.408507 
L 1215.727451 326.055678 
L 1217.090782 338.279572 
L 1218.454113 341.611622 
L 1219.817444 350.935572 
L 1221.180775 341.901265 
L 1222.544106 321.927855 
L 1223.907437 338.513868 
L 1225.270768 349.833178 
L 1226.634099 344.928305 
L 1227.99743 351.050598 
L 1229.36076 341.789813 
L 1230.724091 342.811625 
L 1232.087422 345.564539 
L 1233.450753 353.2755 
L 1234.814084 343.920805 
L 1236.177415 339.277398 
L 1237.540746 333.565459 
L 1238.904077 345.092138 
L 1240.267408 342.145316 
L 1241.630739 347.259934 
L 1242.99407 339.888253 
L 1244.357401 342.023517 
L 1245.720732 345.447308 
L 1247.084063 352.425019 
L 1248.447394 344.075057 
L 1249.810725 348.080376 
L 1251.174056 340.134797 
L 1252.537387 347.623977 
L 1253.900718 341.815 
L 1255.264049 349.429696 
L 1256.62738 343.360362 
L 1257.990711 349.241156 
L 1259.354042 341.417179 
L 1260.717372 345.329716 
L 1262.080703 340.74209 
L 1263.444034 347.198926 
L 1264.807365 343.702925 
L 1266.170696 348.909234 
L 1267.534027 343.864656 
L 1268.897358 345.936445 
L 1270.260689 341.089067 
L 1271.62402 346.275284 
L 1272.987351 342.827167 
L 1274.350682 348.331941 
L 1275.714013 344.424016 
L 1277.077344 348.210543 
L 1278.440675 342.029255 
L 1279.804006 345.356046 
L 1281.167337 342.47072 
L 1282.530668 346.742724 
L 1283.893999 344.629052 
L 1285.25733 348.011877 
L 1286.620661 344.734137 
L 1287.983992 345.590929 
L 1289.347323 339.352308 
L 1290.710654 343.452203 
L 1292.073985 342.431984 
L 1293.437315 347.471343 
L 1294.800646 345.25788 
L 1296.163977 347.402583 
L 1297.527308 341.404076 
L 1298.890639 330.522586 
L 1300.25397 332.002601 
L 1300.25397 332.002601 
" clip-path="url(#pf1c4b8ed75)" style="fill: none; stroke: #ffa500; stroke-width: 1.5; stroke-linecap: square"/>
   </g>
   <g id="line2d_20">
    <path d="M 1300.25397 332.002601 
L 1301.617301 333.320032 
L 1302.980632 333.92059 
L 1304.343963 335.081671 
L 1305.707294 332.571559 
L 1307.070625 324.225442 
L 1308.433956 332.713072 
L 1309.797287 331.430512 
L 1311.160618 329.346131 
L 1312.523949 331.904829 
L 1313.88728 329.836695 
L 1315.250611 331.518365 
L 1316.613942 326.991473 
L 1317.977273 331.521074 
" clip-path="url(#pf1c4b8ed75)" style="fill: none; stroke: #ff0000; stroke-width: 1.5; stroke-linecap: square"/>
   </g>
   <g id="patch_3">
    <path d="M 39.65 368.3955 
L 39.65 35.7555 
" style="fill: none; stroke: #000000; stroke-width: 0.8; stroke-linejoin: miter; stroke-linecap: square"/>
   </g>
   <g id="patch_4">
    <path d="M 1378.85 368.3955 
L 1378.85 35.7555 
" style="fill: none; stroke: #000000; stroke-width: 0.8; stroke-linejoin: miter; stroke-linecap: square"/>
   </g>
   <g id="patch_5">
    <path d="M 39.65 368.3955 
L 1378.85 368.3955 
" style="fill: none; stroke: #000000; stroke-width: 0.8; stroke-linejoin: miter; stroke-linecap: square"/>
   </g>
   <g id="patch_6">
    <path d="M 39.65 35.7555 
L 1378.85 35.7555 
" style="fill: none; stroke: #000000; stroke-width: 0.8; stroke-linejoin: miter; stroke-linecap: square"/>
   </g>
   <g id="text_18">
    <!-- Daily Confirmed Cases Forecasting - Maldives -->
    <g transform="translate(572.384375 16.318125)scale(0.12 -0.12)">
     <defs>
      <path id="DejaVuSans-44" d="M 1259 4147 
L 1259 519 
L 2022 519 
Q 2988 519 3436 956 
Q 3884 1394 3884 2338 
Q 3884 3275 3436 3711 
Q 2988 4147 2022 4147 
L 1259 4147 
z
M 628 4666 
L 1925 4666 
Q 3281 4666 3915 4102 
Q 4550 3538 4550 2338 
Q 4550 1131 3912 565 
Q 3275 0 1925 0 
L 628 0 
L 628 4666 
z
" transform="scale(0.015625)"/>
      <path id="DejaVuSans-61" d="M 2194 1759 
Q 1497 1759 1228 1600 
Q 959 1441 959 1056 
Q 959 750 1161 570 
Q 1363 391 1709 391 
Q 2188 391 2477 730 
Q 2766 1069 2766 1631 
L 2766 1759 
L 2194 1759 
z
M 3341 1997 
L 3341 0 
L 2766 0 
L 2766 531 
Q 2569 213 2275 61 
Q 1981 -91 1556 -91 
Q 1019 -91 701 211 
Q 384 513 384 1019 
Q 384 1609 779 1909 
Q 1175 2209 1959 2209 
L 2766 2209 
L 2766 2266 
Q 2766 2663 2505 2880 
Q 2244 3097 1772 3097 
Q 1472 3097 1187 3025 
Q 903 2953 641 2809 
L 641 3341 
Q 956 3463 1253 3523 
Q 1550 3584 1831 3584 
Q 2591 3584 2966 3190 
Q 3341 2797 3341 1997 
z
" transform="scale(0.015625)"/>
      <path id="DejaVuSans-69" d="M 603 3500 
L 1178 3500 
L 1178 0 
L 603 0 
L 603 3500 
z
M 603 4863 
L 1178 4863 
L 1178 4134 
L 603 4134 
L 603 4863 
z
" transform="scale(0.015625)"/>
      <path id="DejaVuSans-6c" d="M 603 4863 
L 1178 4863 
L 1178 0 
L 603 0 
L 603 4863 
z
" transform="scale(0.015625)"/>
      <path id="DejaVuSans-79" d="M 2059 -325 
Q 1816 -950 1584 -1140 
Q 1353 -1331 966 -1331 
L 506 -1331 
L 506 -850 
L 844 -850 
Q 1081 -850 1212 -737 
Q 1344 -625 1503 -206 
L 1606 56 
L 191 3500 
L 800 3500 
L 1894 763 
L 2988 3500 
L 3597 3500 
L 2059 -325 
z
" transform="scale(0.015625)"/>
      <path id="DejaVuSans-20" transform="scale(0.015625)"/>
      <path id="DejaVuSans-43" d="M 4122 4306 
L 4122 3641 
Q 3803 3938 3442 4084 
Q 3081 4231 2675 4231 
Q 1875 4231 1450 3742 
Q 1025 3253 1025 2328 
Q 1025 1406 1450 917 
Q 1875 428 2675 428 
Q 3081 428 3442 575 
Q 3803 722 4122 1019 
L 4122 359 
Q 3791 134 3420 21 
Q 3050 -91 2638 -91 
Q 1578 -91 968 557 
Q 359 1206 359 2328 
Q 359 3453 968 4101 
Q 1578 4750 2638 4750 
Q 3056 4750 3426 4639 
Q 3797 4528 4122 4306 
z
" transform="scale(0.015625)"/>
      <path id="DejaVuSans-6f" d="M 1959 3097 
Q 1497 3097 1228 2736 
Q 959 2375 959 1747 
Q 959 1119 1226 758 
Q 1494 397 1959 397 
Q 2419 397 2687 759 
Q 2956 1122 2956 1747 
Q 2956 2369 2687 2733 
Q 2419 3097 1959 3097 
z
M 1959 3584 
Q 2709 3584 3137 3096 
Q 3566 2609 3566 1747 
Q 3566 888 3137 398 
Q 2709 -91 1959 -91 
Q 1206 -91 779 398 
Q 353 888 353 1747 
Q 353 2609 779 3096 
Q 1206 3584 1959 3584 
z
" transform="scale(0.015625)"/>
      <path id="DejaVuSans-6e" d="M 3513 2113 
L 3513 0 
L 2938 0 
L 2938 2094 
Q 2938 2591 2744 2837 
Q 2550 3084 2163 3084 
Q 1697 3084 1428 2787 
Q 1159 2491 1159 1978 
L 1159 0 
L 581 0 
L 581 3500 
L 1159 3500 
L 1159 2956 
Q 1366 3272 1645 3428 
Q 1925 3584 2291 3584 
Q 2894 3584 3203 3211 
Q 3513 2838 3513 2113 
z
" transform="scale(0.015625)"/>
      <path id="DejaVuSans-66" d="M 2375 4863 
L 2375 4384 
L 1825 4384 
Q 1516 4384 1395 4259 
Q 1275 4134 1275 3809 
L 1275 3500 
L 2222 3500 
L 2222 3053 
L 1275 3053 
L 1275 0 
L 697 0 
L 697 3053 
L 147 3053 
L 147 3500 
L 697 3500 
L 697 3744 
Q 697 4328 969 4595 
Q 1241 4863 1831 4863 
L 2375 4863 
z
" transform="scale(0.015625)"/>
      <path id="DejaVuSans-72" d="M 2631 2963 
Q 2534 3019 2420 3045 
Q 2306 3072 2169 3072 
Q 1681 3072 1420 2755 
Q 1159 2438 1159 1844 
L 1159 0 
L 581 0 
L 581 3500 
L 1159 3500 
L 1159 2956 
Q 1341 3275 1631 3429 
Q 1922 3584 2338 3584 
Q 2397 3584 2469 3576 
Q 2541 3569 2628 3553 
L 2631 2963 
z
" transform="scale(0.015625)"/>
      <path id="DejaVuSans-6d" d="M 3328 2828 
Q 3544 3216 3844 3400 
Q 4144 3584 4550 3584 
Q 5097 3584 5394 3201 
Q 5691 2819 5691 2113 
L 5691 0 
L 5113 0 
L 5113 2094 
Q 5113 2597 4934 2840 
Q 4756 3084 4391 3084 
Q 3944 3084 3684 2787 
Q 3425 2491 3425 1978 
L 3425 0 
L 2847 0 
L 2847 2094 
Q 2847 2600 2669 2842 
Q 2491 3084 2119 3084 
Q 1678 3084 1418 2786 
Q 1159 2488 1159 1978 
L 1159 0 
L 581 0 
L 581 3500 
L 1159 3500 
L 1159 2956 
Q 1356 3278 1631 3431 
Q 1906 3584 2284 3584 
Q 2666 3584 2933 3390 
Q 3200 3197 3328 2828 
z
" transform="scale(0.015625)"/>
      <path id="DejaVuSans-65" d="M 3597 1894 
L 3597 1613 
L 953 1613 
Q 991 1019 1311 708 
Q 1631 397 2203 397 
Q 2534 397 2845 478 
Q 3156 559 3463 722 
L 3463 178 
Q 3153 47 2828 -22 
Q 2503 -91 2169 -91 
Q 1331 -91 842 396 
Q 353 884 353 1716 
Q 353 2575 817 3079 
Q 1281 3584 2069 3584 
Q 2775 3584 3186 3129 
Q 3597 2675 3597 1894 
z
M 3022 2063 
Q 3016 2534 2758 2815 
Q 2500 3097 2075 3097 
Q 1594 3097 1305 2825 
Q 1016 2553 972 2059 
L 3022 2063 
z
" transform="scale(0.015625)"/>
      <path id="DejaVuSans-64" d="M 2906 2969 
L 2906 4863 
L 3481 4863 
L 3481 0 
L 2906 0 
L 2906 525 
Q 2725 213 2448 61 
Q 2172 -91 1784 -91 
Q 1150 -91 751 415 
Q 353 922 353 1747 
Q 353 2572 751 3078 
Q 1150 3584 1784 3584 
Q 2172 3584 2448 3432 
Q 2725 3281 2906 2969 
z
M 947 1747 
Q 947 1113 1208 752 
Q 1469 391 1925 391 
Q 2381 391 2643 752 
Q 2906 1113 2906 1747 
Q 2906 2381 2643 2742 
Q 2381 3103 1925 3103 
Q 1469 3103 1208 2742 
Q 947 2381 947 1747 
z
" transform="scale(0.015625)"/>
      <path id="DejaVuSans-73" d="M 2834 3397 
L 2834 2853 
Q 2591 2978 2328 3040 
Q 2066 3103 1784 3103 
Q 1356 3103 1142 2972 
Q 928 2841 928 2578 
Q 928 2378 1081 2264 
Q 1234 2150 1697 2047 
L 1894 2003 
Q 2506 1872 2764 1633 
Q 3022 1394 3022 966 
Q 3022 478 2636 193 
Q 2250 -91 1575 -91 
Q 1294 -91 989 -36 
Q 684 19 347 128 
L 347 722 
Q 666 556 975 473 
Q 1284 391 1588 391 
Q 1994 391 2212 530 
Q 2431 669 2431 922 
Q 2431 1156 2273 1281 
Q 2116 1406 1581 1522 
L 1381 1569 
Q 847 1681 609 1914 
Q 372 2147 372 2553 
Q 372 3047 722 3315 
Q 1072 3584 1716 3584 
Q 2034 3584 2315 3537 
Q 2597 3491 2834 3397 
z
" transform="scale(0.015625)"/>
      <path id="DejaVuSans-46" d="M 628 4666 
L 3309 4666 
L 3309 4134 
L 1259 4134 
L 1259 2759 
L 3109 2759 
L 3109 2228 
L 1259 2228 
L 1259 0 
L 628 0 
L 628 4666 
z
" transform="scale(0.015625)"/>
      <path id="DejaVuSans-63" d="M 3122 3366 
L 3122 2828 
Q 2878 2963 2633 3030 
Q 2388 3097 2138 3097 
Q 1578 3097 1268 2742 
Q 959 2388 959 1747 
Q 959 1106 1268 751 
Q 1578 397 2138 397 
Q 2388 397 2633 464 
Q 2878 531 3122 666 
L 3122 134 
Q 2881 22 2623 -34 
Q 2366 -91 2075 -91 
Q 1284 -91 818 406 
Q 353 903 353 1747 
Q 353 2603 823 3093 
Q 1294 3584 2113 3584 
Q 2378 3584 2631 3529 
Q 2884 3475 3122 3366 
z
" transform="scale(0.015625)"/>
      <path id="DejaVuSans-74" d="M 1172 4494 
L 1172 3500 
L 2356 3500 
L 2356 3053 
L 1172 3053 
L 1172 1153 
Q 1172 725 1289 603 
Q 1406 481 1766 481 
L 2356 481 
L 2356 0 
L 1766 0 
Q 1100 0 847 248 
Q 594 497 594 1153 
L 594 3053 
L 172 3053 
L 172 3500 
L 594 3500 
L 594 4494 
L 1172 4494 
z
" transform="scale(0.015625)"/>
      <path id="DejaVuSans-67" d="M 2906 1791 
Q 2906 2416 2648 2759 
Q 2391 3103 1925 3103 
Q 1463 3103 1205 2759 
Q 947 2416 947 1791 
Q 947 1169 1205 825 
Q 1463 481 1925 481 
Q 2391 481 2648 825 
Q 2906 1169 2906 1791 
z
M 3481 434 
Q 3481 -459 3084 -895 
Q 2688 -1331 1869 -1331 
Q 1566 -1331 1297 -1286 
Q 1028 -1241 775 -1147 
L 775 -588 
Q 1028 -725 1275 -790 
Q 1522 -856 1778 -856 
Q 2344 -856 2625 -561 
Q 2906 -266 2906 331 
L 2906 616 
Q 2728 306 2450 153 
Q 2172 0 1784 0 
Q 1141 0 747 490 
Q 353 981 353 1791 
Q 353 2603 747 3093 
Q 1141 3584 1784 3584 
Q 2172 3584 2450 3431 
Q 2728 3278 2906 2969 
L 2906 3500 
L 3481 3500 
L 3481 434 
z
" transform="scale(0.015625)"/>
      <path id="DejaVuSans-4d" d="M 628 4666 
L 1569 4666 
L 2759 1491 
L 3956 4666 
L 4897 4666 
L 4897 0 
L 4281 0 
L 4281 4097 
L 3078 897 
L 2444 897 
L 1241 4097 
L 1241 0 
L 628 0 
L 628 4666 
z
" transform="scale(0.015625)"/>
      <path id="DejaVuSans-76" d="M 191 3500 
L 800 3500 
L 1894 563 
L 2988 3500 
L 3597 3500 
L 2284 0 
L 1503 0 
L 191 3500 
z
" transform="scale(0.015625)"/>
     </defs>
     <use xlink:href="#DejaVuSans-44"/>
     <use xlink:href="#DejaVuSans-61" x="77.001953"/>
     <use xlink:href="#DejaVuSans-69" x="138.28125"/>
     <use xlink:href="#DejaVuSans-6c" x="166.064453"/>
     <use xlink:href="#DejaVuSans-79" x="193.847656"/>
     <use xlink:href="#DejaVuSans-20" x="253.027344"/>
     <use xlink:href="#DejaVuSans-43" x="284.814453"/>
     <use xlink:href="#DejaVuSans-6f" x="354.638672"/>
     <use xlink:href="#DejaVuSans-6e" x="415.820312"/>
     <use xlink:href="#DejaVuSans-66" x="479.199219"/>
     <use xlink:href="#DejaVuSans-69" x="514.404297"/>
     <use xlink:href="#DejaVuSans-72" x="542.1875"/>
     <use xlink:href="#DejaVuSans-6d" x="581.550781"/>
     <use xlink:href="#DejaVuSans-65" x="678.962891"/>
     <use xlink:href="#DejaVuSans-64" x="740.486328"/>
     <use xlink:href="#DejaVuSans-20" x="803.962891"/>
     <use xlink:href="#DejaVuSans-43" x="835.75"/>
     <use xlink:href="#DejaVuSans-61" x="905.574219"/>
     <use xlink:href="#DejaVuSans-73" x="966.853516"/>
     <use xlink:href="#DejaVuSans-65" x="1018.953125"/>
     <use xlink:href="#DejaVuSans-73" x="1080.476562"/>
     <use xlink:href="#DejaVuSans-20" x="1132.576172"/>
     <use xlink:href="#DejaVuSans-46" x="1164.363281"/>
     <use xlink:href="#DejaVuSans-6f" x="1218.257812"/>
     <use xlink:href="#DejaVuSans-72" x="1279.439453"/>
     <use xlink:href="#DejaVuSans-65" x="1318.302734"/>
     <use xlink:href="#DejaVuSans-63" x="1379.826172"/>
     <use xlink:href="#DejaVuSans-61" x="1434.806641"/>
     <use xlink:href="#DejaVuSans-73" x="1496.085938"/>
     <use xlink:href="#DejaVuSans-74" x="1548.185547"/>
     <use xlink:href="#DejaVuSans-69" x="1587.394531"/>
     <use xlink:href="#DejaVuSans-6e" x="1615.177734"/>
     <use xlink:href="#DejaVuSans-67" x="1678.556641"/>
     <use xlink:href="#DejaVuSans-20" x="1742.033203"/>
     <use xlink:href="#DejaVuSans-2d" x="1773.820312"/>
     <use xlink:href="#DejaVuSans-20" x="1809.904297"/>
     <use xlink:href="#DejaVuSans-4d" x="1841.691406"/>
     <use xlink:href="#DejaVuSans-61" x="1927.970703"/>
     <use xlink:href="#DejaVuSans-6c" x="1989.25"/>
     <use xlink:href="#DejaVuSans-64" x="2017.033203"/>
     <use xlink:href="#DejaVuSans-69" x="2080.509766"/>
     <use xlink:href="#DejaVuSans-76" x="2108.292969"/>
     <use xlink:href="#DejaVuSans-65" x="2167.472656"/>
     <use xlink:href="#DejaVuSans-73" x="2228.996094"/>
    </g>
    <!-- ARIMA (3, 1, 1)x(1, 0, 0, 7) (R2 = 0.951134) -->
    <g transform="translate(577.265938 29.7555)scale(0.12 -0.12)">
     <defs>
      <path id="DejaVuSans-41" d="M 2188 4044 
L 1331 1722 
L 3047 1722 
L 2188 4044 
z
M 1831 4666 
L 2547 4666 
L 4325 0 
L 3669 0 
L 3244 1197 
L 1141 1197 
L 716 0 
L 50 0 
L 1831 4666 
z
" transform="scale(0.015625)"/>
      <path id="DejaVuSans-52" d="M 2841 2188 
Q 3044 2119 3236 1894 
Q 3428 1669 3622 1275 
L 4263 0 
L 3584 0 
L 2988 1197 
Q 2756 1666 2539 1819 
Q 2322 1972 1947 1972 
L 1259 1972 
L 1259 0 
L 628 0 
L 628 4666 
L 2053 4666 
Q 2853 4666 3247 4331 
Q 3641 3997 3641 3322 
Q 3641 2881 3436 2590 
Q 3231 2300 2841 2188 
z
M 1259 4147 
L 1259 2491 
L 2053 2491 
Q 2509 2491 2742 2702 
Q 2975 2913 2975 3322 
Q 2975 3731 2742 3939 
Q 2509 4147 2053 4147 
L 1259 4147 
z
" transform="scale(0.015625)"/>
      <path id="DejaVuSans-49" d="M 628 4666 
L 1259 4666 
L 1259 0 
L 628 0 
L 628 4666 
z
" transform="scale(0.015625)"/>
      <path id="DejaVuSans-28" d="M 1984 4856 
Q 1566 4138 1362 3434 
Q 1159 2731 1159 2009 
Q 1159 1288 1364 580 
Q 1569 -128 1984 -844 
L 1484 -844 
Q 1016 -109 783 600 
Q 550 1309 550 2009 
Q 550 2706 781 3412 
Q 1013 4119 1484 4856 
L 1984 4856 
z
" transform="scale(0.015625)"/>
      <path id="DejaVuSans-33" d="M 2597 2516 
Q 3050 2419 3304 2112 
Q 3559 1806 3559 1356 
Q 3559 666 3084 287 
Q 2609 -91 1734 -91 
Q 1441 -91 1130 -33 
Q 819 25 488 141 
L 488 750 
Q 750 597 1062 519 
Q 1375 441 1716 441 
Q 2309 441 2620 675 
Q 2931 909 2931 1356 
Q 2931 1769 2642 2001 
Q 2353 2234 1838 2234 
L 1294 2234 
L 1294 2753 
L 1863 2753 
Q 2328 2753 2575 2939 
Q 2822 3125 2822 3475 
Q 2822 3834 2567 4026 
Q 2313 4219 1838 4219 
Q 1578 4219 1281 4162 
Q 984 4106 628 3988 
L 628 4550 
Q 988 4650 1302 4700 
Q 1616 4750 1894 4750 
Q 2613 4750 3031 4423 
Q 3450 4097 3450 3541 
Q 3450 3153 3228 2886 
Q 3006 2619 2597 2516 
z
" transform="scale(0.015625)"/>
      <path id="DejaVuSans-2c" d="M 750 794 
L 1409 794 
L 1409 256 
L 897 -744 
L 494 -744 
L 750 256 
L 750 794 
z
" transform="scale(0.015625)"/>
      <path id="DejaVuSans-29" d="M 513 4856 
L 1013 4856 
Q 1481 4119 1714 3412 
Q 1947 2706 1947 2009 
Q 1947 1309 1714 600 
Q 1481 -109 1013 -844 
L 513 -844 
Q 928 -128 1133 580 
Q 1338 1288 1338 2009 
Q 1338 2731 1133 3434 
Q 928 4138 513 4856 
z
" transform="scale(0.015625)"/>
      <path id="DejaVuSans-78" d="M 3513 3500 
L 2247 1797 
L 3578 0 
L 2900 0 
L 1881 1375 
L 863 0 
L 184 0 
L 1544 1831 
L 300 3500 
L 978 3500 
L 1906 2253 
L 2834 3500 
L 3513 3500 
z
" transform="scale(0.015625)"/>
      <path id="DejaVuSans-3d" d="M 678 2906 
L 4684 2906 
L 4684 2381 
L 678 2381 
L 678 2906 
z
M 678 1631 
L 4684 1631 
L 4684 1100 
L 678 1100 
L 678 1631 
z
" transform="scale(0.015625)"/>
      <path id="DejaVuSans-2e" d="M 684 794 
L 1344 794 
L 1344 0 
L 684 0 
L 684 794 
z
" transform="scale(0.015625)"/>
      <path id="DejaVuSans-39" d="M 703 97 
L 703 672 
Q 941 559 1184 500 
Q 1428 441 1663 441 
Q 2288 441 2617 861 
Q 2947 1281 2994 2138 
Q 2813 1869 2534 1725 
Q 2256 1581 1919 1581 
Q 1219 1581 811 2004 
Q 403 2428 403 3163 
Q 403 3881 828 4315 
Q 1253 4750 1959 4750 
Q 2769 4750 3195 4129 
Q 3622 3509 3622 2328 
Q 3622 1225 3098 567 
Q 2575 -91 1691 -91 
Q 1453 -91 1209 -44 
Q 966 3 703 97 
z
M 1959 2075 
Q 2384 2075 2632 2365 
Q 2881 2656 2881 3163 
Q 2881 3666 2632 3958 
Q 2384 4250 1959 4250 
Q 1534 4250 1286 3958 
Q 1038 3666 1038 3163 
Q 1038 2656 1286 2365 
Q 1534 2075 1959 2075 
z
" transform="scale(0.015625)"/>
     </defs>
     <use xlink:href="#DejaVuSans-41"/>
     <use xlink:href="#DejaVuSans-52" x="68.408203"/>
     <use xlink:href="#DejaVuSans-49" x="137.890625"/>
     <use xlink:href="#DejaVuSans-4d" x="167.382812"/>
     <use xlink:href="#DejaVuSans-41" x="253.662109"/>
     <use xlink:href="#DejaVuSans-20" x="322.070312"/>
     <use xlink:href="#DejaVuSans-28" x="353.857422"/>
     <use xlink:href="#DejaVuSans-33" x="392.871094"/>
     <use xlink:href="#DejaVuSans-2c" x="456.494141"/>
     <use xlink:href="#DejaVuSans-20" x="488.28125"/>
     <use xlink:href="#DejaVuSans-31" x="520.068359"/>
     <use xlink:href="#DejaVuSans-2c" x="583.691406"/>
     <use xlink:href="#DejaVuSans-20" x="615.478516"/>
     <use xlink:href="#DejaVuSans-31" x="647.265625"/>
     <use xlink:href="#DejaVuSans-29" x="710.888672"/>
     <use xlink:href="#DejaVuSans-78" x="749.902344"/>
     <use xlink:href="#DejaVuSans-28" x="809.082031"/>
     <use xlink:href="#DejaVuSans-31" x="848.095703"/>
     <use xlink:href="#DejaVuSans-2c" x="911.71875"/>
     <use xlink:href="#DejaVuSans-20" x="943.505859"/>
     <use xlink:href="#DejaVuSans-30" x="975.292969"/>
     <use xlink:href="#DejaVuSans-2c" x="1038.916016"/>
     <use xlink:href="#DejaVuSans-20" x="1070.703125"/>
     <use xlink:href="#DejaVuSans-30" x="1102.490234"/>
     <use xlink:href="#DejaVuSans-2c" x="1166.113281"/>
     <use xlink:href="#DejaVuSans-20" x="1197.900391"/>
     <use xlink:href="#DejaVuSans-37" x="1229.6875"/>
     <use xlink:href="#DejaVuSans-29" x="1293.310547"/>
     <use xlink:href="#DejaVuSans-20" x="1332.324219"/>
     <use xlink:href="#DejaVuSans-28" x="1364.111328"/>
     <use xlink:href="#DejaVuSans-52" x="1403.125"/>
     <use xlink:href="#DejaVuSans-32" x="1472.607422"/>
     <use xlink:href="#DejaVuSans-20" x="1536.230469"/>
     <use xlink:href="#DejaVuSans-3d" x="1568.017578"/>
     <use xlink:href="#DejaVuSans-20" x="1651.806641"/>
     <use xlink:href="#DejaVuSans-30" x="1683.59375"/>
     <use xlink:href="#DejaVuSans-2e" x="1747.216797"/>
     <use xlink:href="#DejaVuSans-39" x="1779.003906"/>
     <use xlink:href="#DejaVuSans-35" x="1842.626953"/>
     <use xlink:href="#DejaVuSans-31" x="1906.25"/>
     <use xlink:href="#DejaVuSans-31" x="1969.873047"/>
     <use xlink:href="#DejaVuSans-33" x="2033.496094"/>
     <use xlink:href="#DejaVuSans-34" x="2097.119141"/>
     <use xlink:href="#DejaVuSans-29" x="2160.742188"/>
    </g>
   </g>
   <g id="legend_1">
    <g id="patch_7">
     <path d="M 1274.770313 87.789875 
L 1371.85 87.789875 
Q 1373.85 87.789875 1373.85 85.789875 
L 1373.85 42.7555 
Q 1373.85 40.7555 1371.85 40.7555 
L 1274.770313 40.7555 
Q 1272.770313 40.7555 1272.770313 42.7555 
L 1272.770313 85.789875 
Q 1272.770313 87.789875 1274.770313 87.789875 
z
" style="fill: #ffffff; opacity: 0.8; stroke: #cccccc; stroke-linejoin: miter"/>
    </g>
    <g id="line2d_21">
     <path d="M 1276.770313 48.853937 
L 1286.770313 48.853937 
L 1296.770313 48.853937 
" style="fill: none; stroke: #0000ff; stroke-width: 1.5; stroke-linecap: square"/>
    </g>
    <g id="text_19">
     <!-- Actual Value -->
     <g transform="translate(1304.770313 52.353937)scale(0.1 -0.1)">
      <defs>
       <path id="DejaVuSans-75" d="M 544 1381 
L 544 3500 
L 1119 3500 
L 1119 1403 
Q 1119 906 1312 657 
Q 1506 409 1894 409 
Q 2359 409 2629 706 
Q 2900 1003 2900 1516 
L 2900 3500 
L 3475 3500 
L 3475 0 
L 2900 0 
L 2900 538 
Q 2691 219 2414 64 
Q 2138 -91 1772 -91 
Q 1169 -91 856 284 
Q 544 659 544 1381 
z
M 1991 3584 
L 1991 3584 
z
" transform="scale(0.015625)"/>
       <path id="DejaVuSans-56" d="M 1831 0 
L 50 4666 
L 709 4666 
L 2188 738 
L 3669 4666 
L 4325 4666 
L 2547 0 
L 1831 0 
z
" transform="scale(0.015625)"/>
      </defs>
      <use xlink:href="#DejaVuSans-41"/>
      <use xlink:href="#DejaVuSans-63" x="66.658203"/>
      <use xlink:href="#DejaVuSans-74" x="121.638672"/>
      <use xlink:href="#DejaVuSans-75" x="160.847656"/>
      <use xlink:href="#DejaVuSans-61" x="224.226562"/>
      <use xlink:href="#DejaVuSans-6c" x="285.505859"/>
      <use xlink:href="#DejaVuSans-20" x="313.289062"/>
      <use xlink:href="#DejaVuSans-56" x="345.076172"/>
      <use xlink:href="#DejaVuSans-61" x="405.734375"/>
      <use xlink:href="#DejaVuSans-6c" x="467.013672"/>
      <use xlink:href="#DejaVuSans-75" x="494.796875"/>
      <use xlink:href="#DejaVuSans-65" x="558.175781"/>
     </g>
    </g>
    <g id="line2d_22">
     <path d="M 1276.770313 63.532062 
L 1286.770313 63.532062 
L 1296.770313 63.532062 
" style="fill: none; stroke: #ffa500; stroke-width: 1.5; stroke-linecap: square"/>
    </g>
    <g id="text_20">
     <!-- Check Value -->
     <g transform="translate(1304.770313 67.032062)scale(0.1 -0.1)">
      <defs>
       <path id="DejaVuSans-68" d="M 3513 2113 
L 3513 0 
L 2938 0 
L 2938 2094 
Q 2938 2591 2744 2837 
Q 2550 3084 2163 3084 
Q 1697 3084 1428 2787 
Q 1159 2491 1159 1978 
L 1159 0 
L 581 0 
L 581 4863 
L 1159 4863 
L 1159 2956 
Q 1366 3272 1645 3428 
Q 1925 3584 2291 3584 
Q 2894 3584 3203 3211 
Q 3513 2838 3513 2113 
z
" transform="scale(0.015625)"/>
       <path id="DejaVuSans-6b" d="M 581 4863 
L 1159 4863 
L 1159 1991 
L 2875 3500 
L 3609 3500 
L 1753 1863 
L 3688 0 
L 2938 0 
L 1159 1709 
L 1159 0 
L 581 0 
L 581 4863 
z
" transform="scale(0.015625)"/>
      </defs>
      <use xlink:href="#DejaVuSans-43"/>
      <use xlink:href="#DejaVuSans-68" x="69.824219"/>
      <use xlink:href="#DejaVuSans-65" x="133.203125"/>
      <use xlink:href="#DejaVuSans-63" x="194.726562"/>
      <use xlink:href="#DejaVuSans-6b" x="249.707031"/>
      <use xlink:href="#DejaVuSans-20" x="307.617188"/>
      <use xlink:href="#DejaVuSans-56" x="339.404297"/>
      <use xlink:href="#DejaVuSans-61" x="400.0625"/>
      <use xlink:href="#DejaVuSans-6c" x="461.341797"/>
      <use xlink:href="#DejaVuSans-75" x="489.125"/>
      <use xlink:href="#DejaVuSans-65" x="552.503906"/>
     </g>
    </g>
    <g id="line2d_23">
     <path d="M 1276.770313 78.210187 
L 1286.770313 78.210187 
L 1296.770313 78.210187 
" style="fill: none; stroke: #ff0000; stroke-width: 1.5; stroke-linecap: square"/>
    </g>
    <g id="text_21">
     <!-- Predict Value -->
     <g transform="translate(1304.770313 81.710187)scale(0.1 -0.1)">
      <defs>
       <path id="DejaVuSans-50" d="M 1259 4147 
L 1259 2394 
L 2053 2394 
Q 2494 2394 2734 2622 
Q 2975 2850 2975 3272 
Q 2975 3691 2734 3919 
Q 2494 4147 2053 4147 
L 1259 4147 
z
M 628 4666 
L 2053 4666 
Q 2838 4666 3239 4311 
Q 3641 3956 3641 3272 
Q 3641 2581 3239 2228 
Q 2838 1875 2053 1875 
L 1259 1875 
L 1259 0 
L 628 0 
L 628 4666 
z
" transform="scale(0.015625)"/>
      </defs>
      <use xlink:href="#DejaVuSans-50"/>
      <use xlink:href="#DejaVuSans-72" x="58.552734"/>
      <use xlink:href="#DejaVuSans-65" x="97.416016"/>
      <use xlink:href="#DejaVuSans-64" x="158.939453"/>
      <use xlink:href="#DejaVuSans-69" x="222.416016"/>
      <use xlink:href="#DejaVuSans-63" x="250.199219"/>
      <use xlink:href="#DejaVuSans-74" x="305.179688"/>
      <use xlink:href="#DejaVuSans-20" x="344.388672"/>
      <use xlink:href="#DejaVuSans-56" x="376.175781"/>
      <use xlink:href="#DejaVuSans-61" x="436.833984"/>
      <use xlink:href="#DejaVuSans-6c" x="498.113281"/>
      <use xlink:href="#DejaVuSans-75" x="525.896484"/>
      <use xlink:href="#DejaVuSans-65" x="589.275391"/>
     </g>
    </g>
   </g>
  </g>
 </g>
 <defs>
  <clipPath id="pf1c4b8ed75">
   <rect x="39.65" y="35.7555" width="1339.2" height="332.64"/>
  </clipPath>
 </defs>
</svg>
