<?xml version="1.0" encoding="utf-8" standalone="no"?>
<!DOCTYPE svg PUBLIC "-//W3C//DTD SVG 1.1//EN"
  "http://www.w3.org/Graphics/SVG/1.1/DTD/svg11.dtd">
<svg xmlns:xlink="http://www.w3.org/1999/xlink" width="1379.6875pt" height="392.273625pt" viewBox="0 0 1379.6875 392.273625" xmlns="http://www.w3.org/2000/svg" version="1.1">
 <metadata>
  <rdf:RDF xmlns:dc="http://purl.org/dc/elements/1.1/" xmlns:cc="http://creativecommons.org/ns#" xmlns:rdf="http://www.w3.org/1999/02/22-rdf-syntax-ns#">
   <cc:Work>
    <dc:type rdf:resource="http://purl.org/dc/dcmitype/StillImage"/>
    <dc:date>2022-07-30T19:54:21.858753</dc:date>
    <dc:format>image/svg+xml</dc:format>
    <dc:creator>
     <cc:Agent>
      <dc:title>Matplotlib v3.5.2, https://matplotlib.org/</dc:title>
     </cc:Agent>
    </dc:creator>
   </cc:Work>
  </rdf:RDF>
 </metadata>
 <defs>
  <style type="text/css">*{stroke-linejoin: round; stroke-linecap: butt}</style>
 </defs>
 <g id="figure_1">
  <g id="patch_1">
   <path d="M 0 392.273625 
L 1379.6875 392.273625 
L 1379.6875 0 
L 0 0 
z
" style="fill: #ffffff"/>
  </g>
  <g id="axes_1">
   <g id="patch_2">
    <path d="M 33.2875 368.3955 
L 1372.4875 368.3955 
L 1372.4875 35.7555 
L 33.2875 35.7555 
z
" style="fill: #ffffff"/>
   </g>
   <g id="matplotlib.axis_1">
    <g id="xtick_1">
     <g id="line2d_1">
      <defs>
       <path id="m348dcbcbef" d="M 0 0 
L 0 3.5 
" style="stroke: #000000; stroke-width: 0.8"/>
      </defs>
      <g>
       <use xlink:href="#m348dcbcbef" x="65.391162" y="368.3955" style="stroke: #000000; stroke-width: 0.8"/>
      </g>
     </g>
     <g id="text_1">
      <!-- 2020-01 -->
      <g transform="translate(44.499756 382.993937)scale(0.1 -0.1)">
       <defs>
        <path id="DejaVuSans-32" d="M 1228 531 
L 3431 531 
L 3431 0 
L 469 0 
L 469 531 
Q 828 903 1448 1529 
Q 2069 2156 2228 2338 
Q 2531 2678 2651 2914 
Q 2772 3150 2772 3378 
Q 2772 3750 2511 3984 
Q 2250 4219 1831 4219 
Q 1534 4219 1204 4116 
Q 875 4013 500 3803 
L 500 4441 
Q 881 4594 1212 4672 
Q 1544 4750 1819 4750 
Q 2544 4750 2975 4387 
Q 3406 4025 3406 3419 
Q 3406 3131 3298 2873 
Q 3191 2616 2906 2266 
Q 2828 2175 2409 1742 
Q 1991 1309 1228 531 
z
" transform="scale(0.015625)"/>
        <path id="DejaVuSans-30" d="M 2034 4250 
Q 1547 4250 1301 3770 
Q 1056 3291 1056 2328 
Q 1056 1369 1301 889 
Q 1547 409 2034 409 
Q 2525 409 2770 889 
Q 3016 1369 3016 2328 
Q 3016 3291 2770 3770 
Q 2525 4250 2034 4250 
z
M 2034 4750 
Q 2819 4750 3233 4129 
Q 3647 3509 3647 2328 
Q 3647 1150 3233 529 
Q 2819 -91 2034 -91 
Q 1250 -91 836 529 
Q 422 1150 422 2328 
Q 422 3509 836 4129 
Q 1250 4750 2034 4750 
z
" transform="scale(0.015625)"/>
        <path id="DejaVuSans-2d" d="M 313 2009 
L 1997 2009 
L 1997 1497 
L 313 1497 
L 313 2009 
z
" transform="scale(0.015625)"/>
        <path id="DejaVuSans-31" d="M 794 531 
L 1825 531 
L 1825 4091 
L 703 3866 
L 703 4441 
L 1819 4666 
L 2450 4666 
L 2450 531 
L 3481 531 
L 3481 0 
L 794 0 
L 794 531 
z
" transform="scale(0.015625)"/>
       </defs>
       <use xlink:href="#DejaVuSans-32"/>
       <use xlink:href="#DejaVuSans-30" x="63.623047"/>
       <use xlink:href="#DejaVuSans-32" x="127.246094"/>
       <use xlink:href="#DejaVuSans-30" x="190.869141"/>
       <use xlink:href="#DejaVuSans-2d" x="254.492188"/>
       <use xlink:href="#DejaVuSans-30" x="290.576172"/>
       <use xlink:href="#DejaVuSans-31" x="354.199219"/>
      </g>
     </g>
    </g>
    <g id="xtick_2">
     <g id="line2d_2">
      <g>
       <use xlink:href="#m348dcbcbef" x="184.390478" y="368.3955" style="stroke: #000000; stroke-width: 0.8"/>
      </g>
     </g>
     <g id="text_2">
      <!-- 2020-04 -->
      <g transform="translate(163.499072 382.993937)scale(0.1 -0.1)">
       <defs>
        <path id="DejaVuSans-34" d="M 2419 4116 
L 825 1625 
L 2419 1625 
L 2419 4116 
z
M 2253 4666 
L 3047 4666 
L 3047 1625 
L 3713 1625 
L 3713 1100 
L 3047 1100 
L 3047 0 
L 2419 0 
L 2419 1100 
L 313 1100 
L 313 1709 
L 2253 4666 
z
" transform="scale(0.015625)"/>
       </defs>
       <use xlink:href="#DejaVuSans-32"/>
       <use xlink:href="#DejaVuSans-30" x="63.623047"/>
       <use xlink:href="#DejaVuSans-32" x="127.246094"/>
       <use xlink:href="#DejaVuSans-30" x="190.869141"/>
       <use xlink:href="#DejaVuSans-2d" x="254.492188"/>
       <use xlink:href="#DejaVuSans-30" x="290.576172"/>
       <use xlink:href="#DejaVuSans-34" x="354.199219"/>
      </g>
     </g>
    </g>
    <g id="xtick_3">
     <g id="line2d_3">
      <g>
       <use xlink:href="#m348dcbcbef" x="303.389795" y="368.3955" style="stroke: #000000; stroke-width: 0.8"/>
      </g>
     </g>
     <g id="text_3">
      <!-- 2020-07 -->
      <g transform="translate(282.498388 382.993937)scale(0.1 -0.1)">
       <defs>
        <path id="DejaVuSans-37" d="M 525 4666 
L 3525 4666 
L 3525 4397 
L 1831 0 
L 1172 0 
L 2766 4134 
L 525 4134 
L 525 4666 
z
" transform="scale(0.015625)"/>
       </defs>
       <use xlink:href="#DejaVuSans-32"/>
       <use xlink:href="#DejaVuSans-30" x="63.623047"/>
       <use xlink:href="#DejaVuSans-32" x="127.246094"/>
       <use xlink:href="#DejaVuSans-30" x="190.869141"/>
       <use xlink:href="#DejaVuSans-2d" x="254.492188"/>
       <use xlink:href="#DejaVuSans-30" x="290.576172"/>
       <use xlink:href="#DejaVuSans-37" x="354.199219"/>
      </g>
     </g>
    </g>
    <g id="xtick_4">
     <g id="line2d_4">
      <g>
       <use xlink:href="#m348dcbcbef" x="423.696796" y="368.3955" style="stroke: #000000; stroke-width: 0.8"/>
      </g>
     </g>
     <g id="text_4">
      <!-- 2020-10 -->
      <g transform="translate(402.80539 382.993937)scale(0.1 -0.1)">
       <use xlink:href="#DejaVuSans-32"/>
       <use xlink:href="#DejaVuSans-30" x="63.623047"/>
       <use xlink:href="#DejaVuSans-32" x="127.246094"/>
       <use xlink:href="#DejaVuSans-30" x="190.869141"/>
       <use xlink:href="#DejaVuSans-2d" x="254.492188"/>
       <use xlink:href="#DejaVuSans-31" x="290.576172"/>
       <use xlink:href="#DejaVuSans-30" x="354.199219"/>
      </g>
     </g>
    </g>
    <g id="xtick_5">
     <g id="line2d_5">
      <g>
       <use xlink:href="#m348dcbcbef" x="544.003797" y="368.3955" style="stroke: #000000; stroke-width: 0.8"/>
      </g>
     </g>
     <g id="text_5">
      <!-- 2021-01 -->
      <g transform="translate(523.112391 382.993937)scale(0.1 -0.1)">
       <use xlink:href="#DejaVuSans-32"/>
       <use xlink:href="#DejaVuSans-30" x="63.623047"/>
       <use xlink:href="#DejaVuSans-32" x="127.246094"/>
       <use xlink:href="#DejaVuSans-31" x="190.869141"/>
       <use xlink:href="#DejaVuSans-2d" x="254.492188"/>
       <use xlink:href="#DejaVuSans-30" x="290.576172"/>
       <use xlink:href="#DejaVuSans-31" x="354.199219"/>
      </g>
     </g>
    </g>
    <g id="xtick_6">
     <g id="line2d_6">
      <g>
       <use xlink:href="#m348dcbcbef" x="661.695429" y="368.3955" style="stroke: #000000; stroke-width: 0.8"/>
      </g>
     </g>
     <g id="text_6">
      <!-- 2021-04 -->
      <g transform="translate(640.804023 382.993937)scale(0.1 -0.1)">
       <use xlink:href="#DejaVuSans-32"/>
       <use xlink:href="#DejaVuSans-30" x="63.623047"/>
       <use xlink:href="#DejaVuSans-32" x="127.246094"/>
       <use xlink:href="#DejaVuSans-31" x="190.869141"/>
       <use xlink:href="#DejaVuSans-2d" x="254.492188"/>
       <use xlink:href="#DejaVuSans-30" x="290.576172"/>
       <use xlink:href="#DejaVuSans-34" x="354.199219"/>
      </g>
     </g>
    </g>
    <g id="xtick_7">
     <g id="line2d_7">
      <g>
       <use xlink:href="#m348dcbcbef" x="780.694745" y="368.3955" style="stroke: #000000; stroke-width: 0.8"/>
      </g>
     </g>
     <g id="text_7">
      <!-- 2021-07 -->
      <g transform="translate(759.803339 382.993937)scale(0.1 -0.1)">
       <use xlink:href="#DejaVuSans-32"/>
       <use xlink:href="#DejaVuSans-30" x="63.623047"/>
       <use xlink:href="#DejaVuSans-32" x="127.246094"/>
       <use xlink:href="#DejaVuSans-31" x="190.869141"/>
       <use xlink:href="#DejaVuSans-2d" x="254.492188"/>
       <use xlink:href="#DejaVuSans-30" x="290.576172"/>
       <use xlink:href="#DejaVuSans-37" x="354.199219"/>
      </g>
     </g>
    </g>
    <g id="xtick_8">
     <g id="line2d_8">
      <g>
       <use xlink:href="#m348dcbcbef" x="901.001747" y="368.3955" style="stroke: #000000; stroke-width: 0.8"/>
      </g>
     </g>
     <g id="text_8">
      <!-- 2021-10 -->
      <g transform="translate(880.11034 382.993937)scale(0.1 -0.1)">
       <use xlink:href="#DejaVuSans-32"/>
       <use xlink:href="#DejaVuSans-30" x="63.623047"/>
       <use xlink:href="#DejaVuSans-32" x="127.246094"/>
       <use xlink:href="#DejaVuSans-31" x="190.869141"/>
       <use xlink:href="#DejaVuSans-2d" x="254.492188"/>
       <use xlink:href="#DejaVuSans-31" x="290.576172"/>
       <use xlink:href="#DejaVuSans-30" x="354.199219"/>
      </g>
     </g>
    </g>
    <g id="xtick_9">
     <g id="line2d_9">
      <g>
       <use xlink:href="#m348dcbcbef" x="1021.308748" y="368.3955" style="stroke: #000000; stroke-width: 0.8"/>
      </g>
     </g>
     <g id="text_9">
      <!-- 2022-01 -->
      <g transform="translate(1000.417342 382.993937)scale(0.1 -0.1)">
       <use xlink:href="#DejaVuSans-32"/>
       <use xlink:href="#DejaVuSans-30" x="63.623047"/>
       <use xlink:href="#DejaVuSans-32" x="127.246094"/>
       <use xlink:href="#DejaVuSans-32" x="190.869141"/>
       <use xlink:href="#DejaVuSans-2d" x="254.492188"/>
       <use xlink:href="#DejaVuSans-30" x="290.576172"/>
       <use xlink:href="#DejaVuSans-31" x="354.199219"/>
      </g>
     </g>
    </g>
    <g id="xtick_10">
     <g id="line2d_10">
      <g>
       <use xlink:href="#m348dcbcbef" x="1139.00038" y="368.3955" style="stroke: #000000; stroke-width: 0.8"/>
      </g>
     </g>
     <g id="text_10">
      <!-- 2022-04 -->
      <g transform="translate(1118.108973 382.993937)scale(0.1 -0.1)">
       <use xlink:href="#DejaVuSans-32"/>
       <use xlink:href="#DejaVuSans-30" x="63.623047"/>
       <use xlink:href="#DejaVuSans-32" x="127.246094"/>
       <use xlink:href="#DejaVuSans-32" x="190.869141"/>
       <use xlink:href="#DejaVuSans-2d" x="254.492188"/>
       <use xlink:href="#DejaVuSans-30" x="290.576172"/>
       <use xlink:href="#DejaVuSans-34" x="354.199219"/>
      </g>
     </g>
    </g>
    <g id="xtick_11">
     <g id="line2d_11">
      <g>
       <use xlink:href="#m348dcbcbef" x="1257.999696" y="368.3955" style="stroke: #000000; stroke-width: 0.8"/>
      </g>
     </g>
     <g id="text_11">
      <!-- 2022-07 -->
      <g transform="translate(1237.10829 382.993937)scale(0.1 -0.1)">
       <use xlink:href="#DejaVuSans-32"/>
       <use xlink:href="#DejaVuSans-30" x="63.623047"/>
       <use xlink:href="#DejaVuSans-32" x="127.246094"/>
       <use xlink:href="#DejaVuSans-32" x="190.869141"/>
       <use xlink:href="#DejaVuSans-2d" x="254.492188"/>
       <use xlink:href="#DejaVuSans-30" x="290.576172"/>
       <use xlink:href="#DejaVuSans-37" x="354.199219"/>
      </g>
     </g>
    </g>
   </g>
   <g id="matplotlib.axis_2">
    <g id="ytick_1">
     <g id="line2d_12">
      <defs>
       <path id="m508aac93ba" d="M 0 0 
L -3.5 0 
" style="stroke: #000000; stroke-width: 0.8"/>
      </defs>
      <g>
       <use xlink:href="#m508aac93ba" x="33.2875" y="353.2755" style="stroke: #000000; stroke-width: 0.8"/>
      </g>
     </g>
     <g id="text_12">
      <!-- 0 -->
      <g transform="translate(19.925 357.074719)scale(0.1 -0.1)">
       <use xlink:href="#DejaVuSans-30"/>
      </g>
     </g>
    </g>
    <g id="ytick_2">
     <g id="line2d_13">
      <g>
       <use xlink:href="#m508aac93ba" x="33.2875" y="311.391843" style="stroke: #000000; stroke-width: 0.8"/>
      </g>
     </g>
     <g id="text_13">
      <!-- 100 -->
      <g transform="translate(7.2 315.191062)scale(0.1 -0.1)">
       <use xlink:href="#DejaVuSans-31"/>
       <use xlink:href="#DejaVuSans-30" x="63.623047"/>
       <use xlink:href="#DejaVuSans-30" x="127.246094"/>
      </g>
     </g>
    </g>
    <g id="ytick_3">
     <g id="line2d_14">
      <g>
       <use xlink:href="#m508aac93ba" x="33.2875" y="269.508187" style="stroke: #000000; stroke-width: 0.8"/>
      </g>
     </g>
     <g id="text_14">
      <!-- 200 -->
      <g transform="translate(7.2 273.307406)scale(0.1 -0.1)">
       <use xlink:href="#DejaVuSans-32"/>
       <use xlink:href="#DejaVuSans-30" x="63.623047"/>
       <use xlink:href="#DejaVuSans-30" x="127.246094"/>
      </g>
     </g>
    </g>
    <g id="ytick_4">
     <g id="line2d_15">
      <g>
       <use xlink:href="#m508aac93ba" x="33.2875" y="227.62453" style="stroke: #000000; stroke-width: 0.8"/>
      </g>
     </g>
     <g id="text_15">
      <!-- 300 -->
      <g transform="translate(7.2 231.423749)scale(0.1 -0.1)">
       <defs>
        <path id="DejaVuSans-33" d="M 2597 2516 
Q 3050 2419 3304 2112 
Q 3559 1806 3559 1356 
Q 3559 666 3084 287 
Q 2609 -91 1734 -91 
Q 1441 -91 1130 -33 
Q 819 25 488 141 
L 488 750 
Q 750 597 1062 519 
Q 1375 441 1716 441 
Q 2309 441 2620 675 
Q 2931 909 2931 1356 
Q 2931 1769 2642 2001 
Q 2353 2234 1838 2234 
L 1294 2234 
L 1294 2753 
L 1863 2753 
Q 2328 2753 2575 2939 
Q 2822 3125 2822 3475 
Q 2822 3834 2567 4026 
Q 2313 4219 1838 4219 
Q 1578 4219 1281 4162 
Q 984 4106 628 3988 
L 628 4550 
Q 988 4650 1302 4700 
Q 1616 4750 1894 4750 
Q 2613 4750 3031 4423 
Q 3450 4097 3450 3541 
Q 3450 3153 3228 2886 
Q 3006 2619 2597 2516 
z
" transform="scale(0.015625)"/>
       </defs>
       <use xlink:href="#DejaVuSans-33"/>
       <use xlink:href="#DejaVuSans-30" x="63.623047"/>
       <use xlink:href="#DejaVuSans-30" x="127.246094"/>
      </g>
     </g>
    </g>
    <g id="ytick_5">
     <g id="line2d_16">
      <g>
       <use xlink:href="#m508aac93ba" x="33.2875" y="185.740874" style="stroke: #000000; stroke-width: 0.8"/>
      </g>
     </g>
     <g id="text_16">
      <!-- 400 -->
      <g transform="translate(7.2 189.540093)scale(0.1 -0.1)">
       <use xlink:href="#DejaVuSans-34"/>
       <use xlink:href="#DejaVuSans-30" x="63.623047"/>
       <use xlink:href="#DejaVuSans-30" x="127.246094"/>
      </g>
     </g>
    </g>
    <g id="ytick_6">
     <g id="line2d_17">
      <g>
       <use xlink:href="#m508aac93ba" x="33.2875" y="143.857217" style="stroke: #000000; stroke-width: 0.8"/>
      </g>
     </g>
     <g id="text_17">
      <!-- 500 -->
      <g transform="translate(7.2 147.656436)scale(0.1 -0.1)">
       <defs>
        <path id="DejaVuSans-35" d="M 691 4666 
L 3169 4666 
L 3169 4134 
L 1269 4134 
L 1269 2991 
Q 1406 3038 1543 3061 
Q 1681 3084 1819 3084 
Q 2600 3084 3056 2656 
Q 3513 2228 3513 1497 
Q 3513 744 3044 326 
Q 2575 -91 1722 -91 
Q 1428 -91 1123 -41 
Q 819 9 494 109 
L 494 744 
Q 775 591 1075 516 
Q 1375 441 1709 441 
Q 2250 441 2565 725 
Q 2881 1009 2881 1497 
Q 2881 1984 2565 2268 
Q 2250 2553 1709 2553 
Q 1456 2553 1204 2497 
Q 953 2441 691 2322 
L 691 4666 
z
" transform="scale(0.015625)"/>
       </defs>
       <use xlink:href="#DejaVuSans-35"/>
       <use xlink:href="#DejaVuSans-30" x="63.623047"/>
       <use xlink:href="#DejaVuSans-30" x="127.246094"/>
      </g>
     </g>
    </g>
    <g id="ytick_7">
     <g id="line2d_18">
      <g>
       <use xlink:href="#m508aac93ba" x="33.2875" y="101.973561" style="stroke: #000000; stroke-width: 0.8"/>
      </g>
     </g>
     <g id="text_18">
      <!-- 600 -->
      <g transform="translate(7.2 105.77278)scale(0.1 -0.1)">
       <defs>
        <path id="DejaVuSans-36" d="M 2113 2584 
Q 1688 2584 1439 2293 
Q 1191 2003 1191 1497 
Q 1191 994 1439 701 
Q 1688 409 2113 409 
Q 2538 409 2786 701 
Q 3034 994 3034 1497 
Q 3034 2003 2786 2293 
Q 2538 2584 2113 2584 
z
M 3366 4563 
L 3366 3988 
Q 3128 4100 2886 4159 
Q 2644 4219 2406 4219 
Q 1781 4219 1451 3797 
Q 1122 3375 1075 2522 
Q 1259 2794 1537 2939 
Q 1816 3084 2150 3084 
Q 2853 3084 3261 2657 
Q 3669 2231 3669 1497 
Q 3669 778 3244 343 
Q 2819 -91 2113 -91 
Q 1303 -91 875 529 
Q 447 1150 447 2328 
Q 447 3434 972 4092 
Q 1497 4750 2381 4750 
Q 2619 4750 2861 4703 
Q 3103 4656 3366 4563 
z
" transform="scale(0.015625)"/>
       </defs>
       <use xlink:href="#DejaVuSans-36"/>
       <use xlink:href="#DejaVuSans-30" x="63.623047"/>
       <use xlink:href="#DejaVuSans-30" x="127.246094"/>
      </g>
     </g>
    </g>
    <g id="ytick_8">
     <g id="line2d_19">
      <g>
       <use xlink:href="#m508aac93ba" x="33.2875" y="60.089904" style="stroke: #000000; stroke-width: 0.8"/>
      </g>
     </g>
     <g id="text_19">
      <!-- 700 -->
      <g transform="translate(7.2 63.889123)scale(0.1 -0.1)">
       <use xlink:href="#DejaVuSans-37"/>
       <use xlink:href="#DejaVuSans-30" x="63.623047"/>
       <use xlink:href="#DejaVuSans-30" x="127.246094"/>
      </g>
     </g>
    </g>
   </g>
   <g id="line2d_20">
    <path d="M 94.160227 353.2755 
L 159.544467 353.2755 
L 160.852152 352.856663 
L 162.159837 352.856663 
L 163.467521 353.2755 
L 171.31363 353.2755 
L 172.621315 352.856663 
L 173.929 353.2755 
L 179.159739 353.2755 
L 180.467424 350.762481 
L 181.775109 353.2755 
L 183.082793 351.600154 
L 184.390478 353.2755 
L 187.005848 353.2755 
L 188.313533 352.856663 
L 189.621217 353.2755 
L 194.851957 353.2755 
L 196.159641 352.856663 
L 197.467326 353.2755 
L 219.697968 353.2755 
L 221.005653 352.437827 
L 222.313337 353.2755 
L 224.928707 353.2755 
L 226.236392 352.856663 
L 227.544077 353.2755 
L 266.77462 353.2755 
L 268.082305 352.856663 
L 269.38999 353.2755 
L 304.697479 353.2755 
L 306.005164 352.01899 
L 307.312849 353.2755 
L 321.697382 353.2755 
L 323.005067 352.856663 
L 324.312751 353.2755 
L 330.851175 353.2755 
L 332.15886 352.856663 
L 333.466545 353.2755 
L 340.004969 353.2755 
L 341.312654 352.856663 
L 342.620339 353.2755 
L 364.85098 353.2755 
L 366.158665 352.856663 
L 367.46635 353.2755 
L 393.620046 353.2755 
L 394.92773 352.856663 
L 396.235415 353.2755 
L 431.542905 353.2755 
L 432.85059 352.856663 
L 434.158274 353.2755 
L 435.465959 352.856663 
L 436.773644 353.2755 
L 439.389014 353.2755 
L 440.696698 352.437827 
L 442.004383 353.2755 
L 443.312068 352.856663 
L 444.619753 352.856663 
L 445.927438 353.2755 
L 447.235122 352.01899 
L 448.542807 353.2755 
L 452.465861 350.762481 
L 455.081231 352.437827 
L 456.388916 349.505971 
L 457.696601 352.437827 
L 459.004285 352.437827 
L 460.31197 349.505971 
L 461.619655 352.437827 
L 462.92734 353.2755 
L 464.235025 350.762481 
L 465.542709 353.2755 
L 466.850394 347.830625 
L 468.158079 349.924807 
L 469.465764 352.856663 
L 470.773449 351.600154 
L 472.081133 347.830625 
L 473.388818 349.924807 
L 474.696503 349.087134 
L 476.004188 350.343644 
L 477.311873 353.2755 
L 478.619557 353.2755 
L 479.927242 349.924807 
L 481.234927 351.600154 
L 482.542612 352.437827 
L 483.850297 349.505971 
L 486.465666 351.181317 
L 487.773351 344.898769 
L 489.081036 353.2755 
L 490.388721 352.856663 
L 491.696405 346.574115 
L 493.00409 352.01899 
L 494.311775 352.01899 
L 495.61946 349.505971 
L 496.927145 352.01899 
L 498.234829 349.924807 
L 499.542514 350.762481 
L 500.850199 351.181317 
L 502.157884 352.437827 
L 503.465569 353.2755 
L 504.773253 352.437827 
L 507.388623 353.2755 
L 508.696308 352.01899 
L 510.003993 353.2755 
L 511.311677 351.181317 
L 512.619362 353.2755 
L 515.234732 353.2755 
L 516.542417 351.600154 
L 517.850101 353.2755 
L 519.157786 352.856663 
L 520.465471 352.01899 
L 521.773156 353.2755 
L 523.08084 353.2755 
L 524.388525 352.856663 
L 525.69621 352.856663 
L 527.003895 352.437827 
L 528.31158 351.181317 
L 529.619264 353.2755 
L 530.926949 346.574115 
L 532.234634 352.437827 
L 533.542319 353.2755 
L 537.465373 353.2755 
L 538.773058 342.385749 
L 540.080743 353.2755 
L 541.388428 349.505971 
L 542.696112 347.830625 
L 544.003797 353.2755 
L 546.619167 353.2755 
L 547.926852 350.343644 
L 549.234536 344.898769 
L 550.542221 352.437827 
L 551.849906 352.856663 
L 553.157591 348.249461 
L 554.465276 335.265528 
L 555.77296 353.2755 
L 557.080645 343.223422 
L 558.38833 341.548076 
L 559.696015 348.249461 
L 561.0037 336.103201 
L 562.311384 339.453893 
L 563.619069 338.61622 
L 564.926754 353.2755 
L 566.234439 349.087134 
L 567.542124 338.61622 
L 568.849808 329.401816 
L 570.157493 351.181317 
L 571.465178 337.778547 
L 572.772863 346.992952 
L 574.080548 336.522037 
L 575.388232 321.443921 
L 576.695917 338.61622 
L 579.311287 328.145306 
L 580.618972 283.74863 
L 581.926656 353.2755 
L 583.234341 353.2755 
L 584.542026 262.806802 
L 585.849711 328.564143 
L 587.157396 349.505971 
L 588.46508 321.025084 
L 589.772765 353.2755 
L 591.08045 245.634503 
L 592.388135 353.2755 
L 593.69582 263.644475 
L 595.003504 353.2755 
L 596.311189 353.2755 
L 597.618874 190.766913 
L 598.926559 323.119267 
L 600.234243 353.2755 
L 601.541928 339.87273 
L 602.849613 353.2755 
L 604.157298 340.710403 
L 605.464983 341.966913 
L 606.772667 334.846691 
L 608.080352 353.2755 
L 609.388037 252.754724 
L 610.695722 261.969129 
L 612.003407 329.401816 
L 613.311091 350.343644 
L 614.618776 350.343644 
L 615.926461 353.2755 
L 617.234146 266.576331 
L 618.541831 353.2755 
L 619.849515 339.035057 
L 621.1572 353.2755 
L 622.464885 190.348076 
L 623.77257 343.223422 
L 625.080255 348.668298 
L 626.387939 353.2755 
L 627.695624 341.12924 
L 629.003309 343.642259 
L 630.310994 351.181317 
L 631.618679 340.291566 
L 632.926363 336.940874 
L 634.234048 342.804586 
L 635.541733 343.642259 
L 636.849418 353.2755 
L 638.157103 335.684364 
L 639.464787 344.061096 
L 640.772472 346.574115 
L 642.080157 347.411788 
L 643.387842 347.411788 
L 644.695527 346.574115 
L 646.003211 353.2755 
L 647.310896 349.924807 
L 648.618581 348.668298 
L 649.926266 346.155278 
L 651.233951 348.249461 
L 652.541635 348.668298 
L 653.84932 345.317605 
L 655.157005 353.2755 
L 656.46469 353.2755 
L 657.772375 348.668298 
L 659.080059 342.385749 
L 660.387744 349.087134 
L 661.695429 350.343644 
L 663.003114 344.898769 
L 664.310799 349.924807 
L 665.618483 353.2755 
L 666.926168 353.2755 
L 668.233853 343.223422 
L 669.541538 350.343644 
L 670.849222 349.924807 
L 672.156907 346.155278 
L 673.464592 345.736442 
L 674.772277 352.856663 
L 676.079962 350.343644 
L 677.387646 353.2755 
L 680.003016 353.2755 
L 681.310701 335.265528 
L 682.618386 352.01899 
L 683.92607 353.2755 
L 685.233755 345.736442 
L 686.54144 353.2755 
L 687.849125 342.804586 
L 689.15681 348.668298 
L 690.464494 353.2755 
L 691.772179 349.924807 
L 693.079864 343.642259 
L 694.387549 346.574115 
L 695.695234 350.762481 
L 697.002918 353.2755 
L 698.310603 342.385749 
L 699.618288 345.736442 
L 700.925973 349.924807 
L 702.233658 353.2755 
L 703.541342 353.2755 
L 704.849027 347.830625 
L 706.156712 348.249461 
L 707.464397 344.061096 
L 708.772082 353.2755 
L 710.079766 333.590181 
L 711.387451 353.2755 
L 712.695136 338.197384 
L 714.002821 349.087134 
L 715.310506 342.804586 
L 716.61819 353.2755 
L 717.925875 326.888796 
L 719.23356 340.710403 
L 720.541245 353.2755 
L 721.84893 353.2755 
L 723.156614 331.077162 
L 725.771984 346.155278 
L 727.079669 348.249461 
L 728.387354 353.2755 
L 729.695038 349.087134 
L 731.002723 353.2755 
L 732.310408 343.642259 
L 733.618093 348.249461 
L 734.925778 344.061096 
L 736.233462 339.453893 
L 737.541147 353.2755 
L 738.848832 345.736442 
L 740.156517 347.411788 
L 741.464201 351.181317 
L 742.771886 353.2755 
L 744.079571 340.710403 
L 745.387256 350.762481 
L 746.694941 353.2755 
L 748.002625 342.804586 
L 749.31031 351.181317 
L 750.617995 349.087134 
L 751.92568 349.924807 
L 753.233365 351.600154 
L 754.541049 349.924807 
L 755.848734 348.668298 
L 757.156419 353.2755 
L 758.464104 352.856663 
L 759.771789 350.762481 
L 761.079473 352.437827 
L 762.387158 353.2755 
L 763.694843 345.736442 
L 765.002528 351.181317 
L 766.310213 351.181317 
L 767.617897 352.437827 
L 768.925582 349.505971 
L 770.233267 348.668298 
L 771.540952 353.2755 
L 772.848637 343.223422 
L 774.156321 350.343644 
L 775.464006 349.505971 
L 776.771691 350.762481 
L 778.079376 349.924807 
L 779.387061 351.600154 
L 780.694745 350.762481 
L 782.00243 353.2755 
L 783.310115 353.2755 
L 784.6178 343.223422 
L 785.925485 353.2755 
L 787.233169 342.385749 
L 788.540854 348.668298 
L 789.848539 348.668298 
L 791.156224 350.762481 
L 792.463909 345.317605 
L 793.771593 353.2755 
L 795.079278 346.155278 
L 796.386963 347.411788 
L 797.694648 349.505971 
L 799.002333 346.574115 
L 800.310017 350.343644 
L 801.617702 349.924807 
L 802.925387 349.087134 
L 804.233072 352.856663 
L 805.540757 352.01899 
L 806.848441 348.249461 
L 808.156126 353.2755 
L 809.463811 344.898769 
L 810.771496 353.2755 
L 812.07918 351.600154 
L 813.386865 349.505971 
L 814.69455 353.2755 
L 816.002235 349.924807 
L 817.30992 340.710403 
L 818.617604 347.411788 
L 819.925289 341.12924 
L 821.232974 353.2755 
L 822.540659 344.061096 
L 823.848344 344.898769 
L 825.156028 345.317605 
L 826.463713 346.155278 
L 827.771398 342.804586 
L 829.079083 325.632287 
L 830.386768 328.982979 
L 831.694452 321.443921 
L 833.002137 338.197384 
L 834.309822 339.453893 
L 835.617507 298.826747 
L 836.925192 318.930902 
L 838.232876 314.323699 
L 839.540561 320.187411 
L 840.848246 307.622314 
L 842.155931 353.2755 
L 843.463616 310.135334 
L 844.7713 236.420098 
L 846.078985 312.229517 
L 847.38667 353.2755 
L 848.694355 287.936996 
L 850.00204 302.596276 
L 851.309724 353.2755 
L 852.617409 225.949184 
L 853.925094 279.141428 
L 855.232779 353.2755 
L 856.540464 212.127578 
L 857.848148 327.72647 
L 859.155833 334.846691 
L 860.463518 326.46996 
L 861.771203 310.135334 
L 864.386572 208.776885 
L 865.694257 295.476054 
L 867.001942 301.339766 
L 868.309627 335.684364 
L 869.617312 325.21345 
L 870.924996 324.375777 
L 872.232681 321.443921 
L 873.540366 353.2755 
L 874.848051 301.339766 
L 876.155736 229.299877 
L 877.46342 353.2755 
L 878.771105 291.287688 
L 880.07879 306.784641 
L 881.386475 296.732564 
L 882.69416 300.083256 
L 884.001844 330.239489 
L 885.309529 302.596276 
L 886.617214 317.674392 
L 887.924899 345.317605 
L 889.232583 310.135334 
L 890.540268 300.920929 
L 893.155638 314.742536 
L 894.463323 315.161373 
L 895.771007 316.836719 
L 897.078692 315.999046 
L 898.386377 295.057217 
L 899.694062 353.2755 
L 901.001747 305.528132 
L 902.309431 326.888796 
L 903.617116 329.401816 
L 904.924801 353.2755 
L 906.232486 346.574115 
L 907.540171 345.736442 
L 908.847855 308.878824 
L 910.15554 307.622314 
L 911.463225 341.548076 
L 912.77091 353.2755 
L 914.078595 333.590181 
L 915.386279 337.778547 
L 916.693964 336.103201 
L 918.001649 339.035057 
L 919.309334 353.2755 
L 920.617019 321.025084 
L 921.924703 344.061096 
L 923.232388 350.762481 
L 924.540073 334.009018 
L 925.847758 339.453893 
L 927.155443 345.736442 
L 928.463127 330.658325 
L 929.770812 342.385749 
L 931.078497 346.992952 
L 932.386182 350.343644 
L 933.693867 339.87273 
L 935.001551 344.479932 
L 936.309236 340.291566 
L 937.616921 345.317605 
L 938.924606 343.642259 
L 940.232291 353.2755 
L 941.539975 347.411788 
L 942.84766 347.830625 
L 945.46303 338.61622 
L 946.770715 341.548076 
L 948.078399 346.992952 
L 949.386084 353.2755 
L 950.693769 328.145306 
L 952.001454 353.2755 
L 953.309139 349.505971 
L 954.616823 341.548076 
L 955.924508 343.642259 
L 957.232193 345.317605 
L 958.539878 349.924807 
L 959.847562 352.437827 
L 961.155247 350.343644 
L 962.462932 350.343644 
L 963.770617 344.479932 
L 965.078302 344.061096 
L 966.385986 353.2755 
L 967.693671 349.087134 
L 970.309041 353.2755 
L 971.616726 345.736442 
L 972.92441 353.2755 
L 974.232095 341.966913 
L 975.53978 353.2755 
L 976.847465 343.642259 
L 978.15515 348.249461 
L 979.462834 348.668298 
L 980.770519 346.155278 
L 982.078204 353.2755 
L 983.385889 349.087134 
L 984.693574 353.2755 
L 987.308943 347.411788 
L 988.616628 351.600154 
L 989.924313 346.992952 
L 991.231998 353.2755 
L 992.539682 345.317605 
L 993.847367 353.2755 
L 995.155052 353.2755 
L 996.462737 348.249461 
L 997.770422 350.343644 
L 999.078106 349.087134 
L 1000.385791 348.249461 
L 1001.693476 349.505971 
L 1003.001161 353.2755 
L 1004.308846 347.830625 
L 1005.61653 346.155278 
L 1006.924215 348.668298 
L 1008.2319 339.87273 
L 1009.539585 346.574115 
L 1010.84727 343.642259 
L 1012.154954 341.966913 
L 1013.462639 341.966913 
L 1014.770324 346.155278 
L 1016.078009 337.359711 
L 1017.385694 331.077162 
L 1018.693378 326.888796 
L 1020.001063 312.648353 
L 1021.308748 323.95694 
L 1022.616433 314.742536 
L 1023.924118 318.093229 
L 1025.231802 326.051123 
L 1026.539487 314.323699 
L 1027.847172 245.215666 
L 1029.154857 277.047245 
L 1030.462541 252.754724 
L 1031.770226 261.131456 
L 1033.077911 258.1996 
L 1034.385596 239.770791 
L 1035.693281 116.632841 
L 1037.000965 115.376331 
L 1038.30865 158.935334 
L 1039.616335 353.2755 
L 1040.92402 235.582425 
L 1042.231705 235.582425 
L 1043.539389 296.732564 
L 1044.847074 267.414004 
L 1046.154759 164.380209 
L 1047.462444 175.688796 
L 1048.770129 50.8755 
L 1050.077813 264.482148 
L 1051.385498 321.862758 
L 1052.693183 264.482148 
L 1054.000868 259.037273 
L 1055.308553 259.037273 
L 1056.616237 353.2755 
L 1057.923922 193.698769 
L 1059.231607 306.784641 
L 1060.539292 339.453893 
L 1061.846977 353.2755 
L 1063.154661 295.057217 
L 1064.462346 220.085472 
L 1065.770031 353.2755 
L 1067.077716 305.528132 
L 1068.385401 353.2755 
L 1069.693085 344.061096 
L 1071.00077 255.68658 
L 1072.308455 326.888796 
L 1073.61614 335.684364 
L 1074.923825 328.564143 
L 1076.231509 353.2755 
L 1077.539194 304.690458 
L 1078.846879 322.700431 
L 1080.154564 329.820652 
L 1081.462249 314.742536 
L 1082.769933 287.518159 
L 1084.077618 335.684364 
L 1085.385303 353.2755 
L 1086.692988 353.2755 
L 1088.000673 321.025084 
L 1089.308357 343.642259 
L 1090.616042 342.385749 
L 1091.923727 339.453893 
L 1093.231412 344.061096 
L 1094.539097 353.2755 
L 1095.846781 345.736442 
L 1097.154466 341.966913 
L 1098.462151 345.736442 
L 1099.769836 346.155278 
L 1101.077521 351.600154 
L 1102.385205 353.2755 
L 1103.69289 353.2755 
L 1105.000575 334.009018 
L 1106.30826 346.574115 
L 1107.615944 347.830625 
L 1108.923629 352.01899 
L 1110.231314 348.668298 
L 1111.538999 348.668298 
L 1112.846684 353.2755 
L 1114.154368 347.411788 
L 1115.462053 350.762481 
L 1116.769738 352.01899 
L 1118.077423 350.762481 
L 1119.385108 349.924807 
L 1120.692792 349.924807 
L 1122.000477 353.2755 
L 1123.308162 350.762481 
L 1124.615847 350.343644 
L 1125.923532 352.856663 
L 1127.231216 347.830625 
L 1128.538901 352.437827 
L 1129.846586 348.249461 
L 1131.154271 353.2755 
L 1132.461956 349.087134 
L 1133.76964 348.249461 
L 1135.077325 350.762481 
L 1136.38501 350.762481 
L 1137.692695 353.2755 
L 1139.00038 350.762481 
L 1140.308064 353.2755 
L 1141.615749 351.181317 
L 1142.923434 352.856663 
L 1144.231119 348.249461 
L 1145.538804 347.411788 
L 1146.846488 350.343644 
L 1148.154173 348.249461 
L 1149.461858 345.317605 
L 1150.769543 349.924807 
L 1152.077228 349.924807 
L 1153.384912 353.2755 
L 1154.692597 353.2755 
L 1156.000282 351.181317 
L 1157.307967 353.2755 
L 1158.615652 334.846691 
L 1159.923336 353.2755 
L 1161.231021 353.2755 
L 1162.538706 346.155278 
L 1163.846391 332.333672 
L 1165.154076 353.2755 
L 1166.46176 336.522037 
L 1167.769445 337.359711 
L 1169.07713 353.2755 
L 1170.384815 334.009018 
L 1171.6925 353.2755 
L 1173.000184 353.2755 
L 1174.307869 321.443921 
L 1175.615554 339.453893 
L 1176.923239 353.2755 
L 1178.230923 353.2755 
L 1179.538608 326.051123 
L 1180.846293 343.642259 
L 1182.153978 329.820652 
L 1183.461663 322.281594 
L 1184.769347 343.642259 
L 1186.077032 353.2755 
L 1187.384717 316.417882 
L 1190.000087 344.898769 
L 1191.307771 277.884918 
L 1192.615456 353.2755 
L 1193.923141 275.371899 
L 1195.230826 353.2755 
L 1196.538511 310.135334 
L 1197.846195 299.245583 
L 1199.15388 303.852785 
L 1200.461565 294.219544 
L 1201.76925 300.920929 
L 1203.076935 314.323699 
L 1204.384619 353.2755 
L 1205.692304 318.093229 
L 1206.999989 312.648353 
L 1208.307674 320.606248 
L 1209.615359 276.628409 
L 1210.923043 353.2755 
L 1212.230728 259.874946 
L 1213.538413 353.2755 
L 1214.846098 330.239489 
L 1216.153783 353.2755 
L 1217.461467 353.2755 
L 1218.769152 276.209572 
L 1220.076837 311.391843 
L 1221.384522 302.177439 
L 1222.692207 314.323699 
L 1223.999891 353.2755 
L 1225.307576 305.528132 
L 1226.615261 341.548076 
L 1227.922946 346.574115 
L 1229.230631 325.632287 
L 1230.538315 295.894891 
L 1231.846 353.2755 
L 1233.153685 317.674392 
L 1234.46137 334.009018 
L 1235.769055 334.427855 
L 1237.076739 328.564143 
L 1238.384424 346.574115 
L 1239.692109 353.2755 
L 1240.999794 345.736442 
L 1242.307479 353.2755 
L 1243.615163 336.103201 
L 1244.922848 346.155278 
L 1246.230533 338.197384 
L 1247.538218 353.2755 
L 1248.845902 324.375777 
L 1250.153587 342.385749 
L 1251.461272 342.385749 
L 1252.768957 339.453893 
L 1254.076642 347.411788 
L 1255.384326 337.359711 
L 1256.692011 353.2755 
L 1257.999696 341.966913 
L 1259.307381 334.427855 
L 1260.615066 353.2755 
L 1261.92275 353.2755 
L 1263.230435 336.940874 
L 1264.53812 353.2755 
L 1265.845805 323.538104 
L 1267.15349 333.171345 
L 1268.461174 353.2755 
L 1269.768859 353.2755 
L 1271.076544 317.674392 
L 1272.384229 353.2755 
L 1273.691914 323.538104 
L 1274.999598 353.2755 
L 1276.307283 329.820652 
L 1277.614968 353.2755 
L 1280.230338 353.2755 
L 1281.538022 324.375777 
L 1282.845707 353.2755 
L 1284.153392 342.385749 
L 1285.461077 313.486026 
L 1286.768762 353.2755 
L 1288.076446 353.2755 
L 1289.384131 310.973007 
L 1290.691816 353.2755 
L 1291.999501 353.2755 
L 1293.307186 316.417882 
L 1294.61487 353.2755 
L 1294.61487 353.2755 
" clip-path="url(#pc289e1b368)" style="fill: none; stroke: #0000ff; stroke-width: 1.5; stroke-linecap: square"/>
   </g>
   <g id="line2d_21">
    <path d="M 1055.308553 243.727253 
L 1056.616237 266.274016 
L 1057.923922 251.336881 
L 1059.231607 262.748908 
L 1061.846977 293.918579 
L 1063.154661 294.152929 
L 1064.462346 278.908674 
L 1065.770031 294.214544 
L 1067.077716 296.543059 
L 1068.385401 308.219494 
L 1069.693085 315.596263 
L 1071.00077 303.265902 
L 1072.308455 308.127867 
L 1073.61614 313.799431 
L 1074.923825 316.838242 
L 1076.231509 324.337607 
L 1077.539194 320.293913 
L 1078.846879 320.789212 
L 1080.154564 322.648025 
L 1081.462249 321.020951 
L 1082.769933 314.125546 
L 1084.077618 318.562692 
L 1085.385303 325.707137 
L 1086.692988 331.381143 
L 1088.000673 329.249702 
L 1089.308357 332.211918 
L 1090.616042 334.305854 
L 1091.923727 335.365402 
L 1093.231412 337.155113 
L 1094.539097 340.472944 
L 1095.846781 341.556255 
L 1097.154466 341.640775 
L 1099.769836 343.239391 
L 1102.385205 346.671595 
L 1103.69289 348.030783 
L 1105.000575 345.144882 
L 1106.30826 345.439041 
L 1107.615944 345.931267 
L 1108.923629 347.184217 
L 1111.538999 347.732245 
L 1112.846684 348.873135 
L 1114.154368 348.572367 
L 1115.462053 349.023127 
L 1116.769738 349.639723 
L 1118.077423 349.870804 
L 1120.692792 349.890746 
L 1122.000477 350.587382 
L 1124.615847 350.565838 
L 1125.923532 351.037326 
L 1127.231216 350.377336 
L 1128.538901 350.801418 
L 1129.846586 350.276185 
L 1131.154271 350.893491 
L 1133.76964 350.054049 
L 1136.38501 350.315652 
L 1137.692695 350.924836 
L 1139.00038 350.891421 
L 1140.308064 351.382102 
L 1141.615749 351.340777 
L 1142.923434 351.652771 
L 1145.538804 350.223619 
L 1146.846488 350.248322 
L 1148.154173 349.836925 
L 1149.461858 348.906777 
L 1152.077228 349.282707 
L 1153.384912 350.104487 
L 1154.692597 350.757132 
L 1156.000282 350.844436 
L 1157.307967 351.344787 
L 1158.615652 347.949218 
L 1159.923336 349.045451 
L 1161.231021 349.916062 
L 1162.538706 349.142033 
L 1163.846391 345.682606 
L 1165.154076 347.245344 
L 1166.46176 345.038318 
L 1167.769445 343.457939 
L 1169.07713 345.478548 
L 1170.384815 343.117937 
L 1171.6925 345.208525 
L 1173.000184 346.868836 
L 1174.307869 341.635986 
L 1175.615554 341.186877 
L 1176.923239 343.674907 
L 1178.230923 345.650861 
L 1179.538608 341.616925 
L 1180.846293 342.03377 
L 1182.153978 339.520117 
L 1183.461663 335.972156 
L 1184.769347 337.550785 
L 1186.077032 340.78718 
L 1187.384717 335.771593 
L 1188.692402 334.632998 
L 1190.000087 336.745856 
L 1191.307771 324.631344 
L 1192.615456 330.526764 
L 1193.923141 319.17502 
L 1195.230826 326.193439 
L 1196.538511 322.888426 
L 1197.846195 318.022355 
L 1199.15388 315.106033 
L 1200.461565 310.807263 
L 1201.76925 308.772499 
L 1203.076935 309.915024 
L 1204.384619 318.839296 
L 1205.692304 318.685744 
L 1206.999989 317.443153 
L 1208.307674 318.094168 
L 1209.615359 309.559858 
L 1210.923043 318.55723 
L 1212.230728 306.479487 
L 1213.538413 316.110847 
L 1214.846098 319.018745 
L 1216.153783 326.069328 
L 1217.461467 331.668789 
L 1218.769152 320.254404 
L 1220.076837 318.430349 
L 1221.384522 315.085243 
L 1222.692207 314.928505 
L 1223.999891 322.820924 
L 1225.307576 319.261793 
L 1227.922946 328.525921 
L 1229.230631 327.930365 
L 1230.538315 321.336957 
L 1231.846 327.910415 
L 1233.153685 325.803679 
L 1234.46137 327.492468 
L 1235.769055 328.91988 
L 1237.076739 328.846664 
L 1238.384424 332.495254 
L 1239.692109 336.772158 
L 1240.999794 338.617149 
L 1242.307479 341.63407 
L 1243.615163 340.495729 
L 1244.922848 341.660554 
L 1246.230533 340.947779 
L 1247.538218 343.485019 
L 1248.845902 339.552035 
L 1251.461272 340.598445 
L 1252.768957 340.362878 
L 1254.076642 341.813655 
L 1255.384326 340.896963 
L 1256.692011 343.444662 
L 1257.999696 343.140518 
L 1259.307381 341.347314 
L 1260.615066 343.802323 
L 1261.92275 345.752053 
L 1263.230435 343.938573 
L 1264.53812 345.86026 
L 1265.845805 341.266007 
L 1267.15349 339.599997 
L 1268.461174 342.414632 
L 1269.768859 344.649971 
L 1271.076544 339.09797 
L 1272.384229 342.01593 
L 1273.691914 338.212901 
L 1274.999598 341.313022 
L 1276.307283 338.947711 
L 1277.614968 341.896596 
L 1278.922653 344.238555 
L 1280.230338 346.098501 
L 1281.538022 341.627621 
L 1282.845707 344.024939 
L 1284.153392 343.687568 
L 1285.461077 337.471612 
L 1286.768762 340.724303 
L 1288.076446 343.307538 
L 1289.384131 336.652579 
L 1290.691816 340.07384 
L 1291.999501 342.79095 
L 1293.307186 337.362955 
L 1294.61487 340.638009 
L 1294.61487 340.638009 
" clip-path="url(#pc289e1b368)" style="fill: none; stroke: #ffa500; stroke-width: 1.5; stroke-linecap: square"/>
   </g>
   <g id="line2d_22">
    <path d="M 1294.61487 340.638009 
L 1295.922555 340.638009 
L 1297.23024 340.638009 
L 1298.537925 340.638009 
L 1299.84561 340.638009 
L 1301.153294 340.638009 
L 1302.460979 340.638009 
L 1303.768664 340.638009 
L 1305.076349 340.638009 
L 1306.384034 340.638009 
L 1307.691718 340.638009 
L 1308.999403 340.638009 
L 1310.307088 340.638009 
L 1311.614773 340.638009 
" clip-path="url(#pc289e1b368)" style="fill: none; stroke: #ff0000; stroke-width: 1.5; stroke-linecap: square"/>
   </g>
   <g id="patch_3">
    <path d="M 33.2875 368.3955 
L 33.2875 35.7555 
" style="fill: none; stroke: #000000; stroke-width: 0.8; stroke-linejoin: miter; stroke-linecap: square"/>
   </g>
   <g id="patch_4">
    <path d="M 1372.4875 368.3955 
L 1372.4875 35.7555 
" style="fill: none; stroke: #000000; stroke-width: 0.8; stroke-linejoin: miter; stroke-linecap: square"/>
   </g>
   <g id="patch_5">
    <path d="M 33.2875 368.3955 
L 1372.4875 368.3955 
" style="fill: none; stroke: #000000; stroke-width: 0.8; stroke-linejoin: miter; stroke-linecap: square"/>
   </g>
   <g id="patch_6">
    <path d="M 33.2875 35.7555 
L 1372.4875 35.7555 
" style="fill: none; stroke: #000000; stroke-width: 0.8; stroke-linejoin: miter; stroke-linecap: square"/>
   </g>
   <g id="text_20">
    <!-- Daily Confirmed Cases Forecasting - Saint Lucia -->
    <g transform="translate(559.489375 16.318125)scale(0.12 -0.12)">
     <defs>
      <path id="DejaVuSans-44" d="M 1259 4147 
L 1259 519 
L 2022 519 
Q 2988 519 3436 956 
Q 3884 1394 3884 2338 
Q 3884 3275 3436 3711 
Q 2988 4147 2022 4147 
L 1259 4147 
z
M 628 4666 
L 1925 4666 
Q 3281 4666 3915 4102 
Q 4550 3538 4550 2338 
Q 4550 1131 3912 565 
Q 3275 0 1925 0 
L 628 0 
L 628 4666 
z
" transform="scale(0.015625)"/>
      <path id="DejaVuSans-61" d="M 2194 1759 
Q 1497 1759 1228 1600 
Q 959 1441 959 1056 
Q 959 750 1161 570 
Q 1363 391 1709 391 
Q 2188 391 2477 730 
Q 2766 1069 2766 1631 
L 2766 1759 
L 2194 1759 
z
M 3341 1997 
L 3341 0 
L 2766 0 
L 2766 531 
Q 2569 213 2275 61 
Q 1981 -91 1556 -91 
Q 1019 -91 701 211 
Q 384 513 384 1019 
Q 384 1609 779 1909 
Q 1175 2209 1959 2209 
L 2766 2209 
L 2766 2266 
Q 2766 2663 2505 2880 
Q 2244 3097 1772 3097 
Q 1472 3097 1187 3025 
Q 903 2953 641 2809 
L 641 3341 
Q 956 3463 1253 3523 
Q 1550 3584 1831 3584 
Q 2591 3584 2966 3190 
Q 3341 2797 3341 1997 
z
" transform="scale(0.015625)"/>
      <path id="DejaVuSans-69" d="M 603 3500 
L 1178 3500 
L 1178 0 
L 603 0 
L 603 3500 
z
M 603 4863 
L 1178 4863 
L 1178 4134 
L 603 4134 
L 603 4863 
z
" transform="scale(0.015625)"/>
      <path id="DejaVuSans-6c" d="M 603 4863 
L 1178 4863 
L 1178 0 
L 603 0 
L 603 4863 
z
" transform="scale(0.015625)"/>
      <path id="DejaVuSans-79" d="M 2059 -325 
Q 1816 -950 1584 -1140 
Q 1353 -1331 966 -1331 
L 506 -1331 
L 506 -850 
L 844 -850 
Q 1081 -850 1212 -737 
Q 1344 -625 1503 -206 
L 1606 56 
L 191 3500 
L 800 3500 
L 1894 763 
L 2988 3500 
L 3597 3500 
L 2059 -325 
z
" transform="scale(0.015625)"/>
      <path id="DejaVuSans-20" transform="scale(0.015625)"/>
      <path id="DejaVuSans-43" d="M 4122 4306 
L 4122 3641 
Q 3803 3938 3442 4084 
Q 3081 4231 2675 4231 
Q 1875 4231 1450 3742 
Q 1025 3253 1025 2328 
Q 1025 1406 1450 917 
Q 1875 428 2675 428 
Q 3081 428 3442 575 
Q 3803 722 4122 1019 
L 4122 359 
Q 3791 134 3420 21 
Q 3050 -91 2638 -91 
Q 1578 -91 968 557 
Q 359 1206 359 2328 
Q 359 3453 968 4101 
Q 1578 4750 2638 4750 
Q 3056 4750 3426 4639 
Q 3797 4528 4122 4306 
z
" transform="scale(0.015625)"/>
      <path id="DejaVuSans-6f" d="M 1959 3097 
Q 1497 3097 1228 2736 
Q 959 2375 959 1747 
Q 959 1119 1226 758 
Q 1494 397 1959 397 
Q 2419 397 2687 759 
Q 2956 1122 2956 1747 
Q 2956 2369 2687 2733 
Q 2419 3097 1959 3097 
z
M 1959 3584 
Q 2709 3584 3137 3096 
Q 3566 2609 3566 1747 
Q 3566 888 3137 398 
Q 2709 -91 1959 -91 
Q 1206 -91 779 398 
Q 353 888 353 1747 
Q 353 2609 779 3096 
Q 1206 3584 1959 3584 
z
" transform="scale(0.015625)"/>
      <path id="DejaVuSans-6e" d="M 3513 2113 
L 3513 0 
L 2938 0 
L 2938 2094 
Q 2938 2591 2744 2837 
Q 2550 3084 2163 3084 
Q 1697 3084 1428 2787 
Q 1159 2491 1159 1978 
L 1159 0 
L 581 0 
L 581 3500 
L 1159 3500 
L 1159 2956 
Q 1366 3272 1645 3428 
Q 1925 3584 2291 3584 
Q 2894 3584 3203 3211 
Q 3513 2838 3513 2113 
z
" transform="scale(0.015625)"/>
      <path id="DejaVuSans-66" d="M 2375 4863 
L 2375 4384 
L 1825 4384 
Q 1516 4384 1395 4259 
Q 1275 4134 1275 3809 
L 1275 3500 
L 2222 3500 
L 2222 3053 
L 1275 3053 
L 1275 0 
L 697 0 
L 697 3053 
L 147 3053 
L 147 3500 
L 697 3500 
L 697 3744 
Q 697 4328 969 4595 
Q 1241 4863 1831 4863 
L 2375 4863 
z
" transform="scale(0.015625)"/>
      <path id="DejaVuSans-72" d="M 2631 2963 
Q 2534 3019 2420 3045 
Q 2306 3072 2169 3072 
Q 1681 3072 1420 2755 
Q 1159 2438 1159 1844 
L 1159 0 
L 581 0 
L 581 3500 
L 1159 3500 
L 1159 2956 
Q 1341 3275 1631 3429 
Q 1922 3584 2338 3584 
Q 2397 3584 2469 3576 
Q 2541 3569 2628 3553 
L 2631 2963 
z
" transform="scale(0.015625)"/>
      <path id="DejaVuSans-6d" d="M 3328 2828 
Q 3544 3216 3844 3400 
Q 4144 3584 4550 3584 
Q 5097 3584 5394 3201 
Q 5691 2819 5691 2113 
L 5691 0 
L 5113 0 
L 5113 2094 
Q 5113 2597 4934 2840 
Q 4756 3084 4391 3084 
Q 3944 3084 3684 2787 
Q 3425 2491 3425 1978 
L 3425 0 
L 2847 0 
L 2847 2094 
Q 2847 2600 2669 2842 
Q 2491 3084 2119 3084 
Q 1678 3084 1418 2786 
Q 1159 2488 1159 1978 
L 1159 0 
L 581 0 
L 581 3500 
L 1159 3500 
L 1159 2956 
Q 1356 3278 1631 3431 
Q 1906 3584 2284 3584 
Q 2666 3584 2933 3390 
Q 3200 3197 3328 2828 
z
" transform="scale(0.015625)"/>
      <path id="DejaVuSans-65" d="M 3597 1894 
L 3597 1613 
L 953 1613 
Q 991 1019 1311 708 
Q 1631 397 2203 397 
Q 2534 397 2845 478 
Q 3156 559 3463 722 
L 3463 178 
Q 3153 47 2828 -22 
Q 2503 -91 2169 -91 
Q 1331 -91 842 396 
Q 353 884 353 1716 
Q 353 2575 817 3079 
Q 1281 3584 2069 3584 
Q 2775 3584 3186 3129 
Q 3597 2675 3597 1894 
z
M 3022 2063 
Q 3016 2534 2758 2815 
Q 2500 3097 2075 3097 
Q 1594 3097 1305 2825 
Q 1016 2553 972 2059 
L 3022 2063 
z
" transform="scale(0.015625)"/>
      <path id="DejaVuSans-64" d="M 2906 2969 
L 2906 4863 
L 3481 4863 
L 3481 0 
L 2906 0 
L 2906 525 
Q 2725 213 2448 61 
Q 2172 -91 1784 -91 
Q 1150 -91 751 415 
Q 353 922 353 1747 
Q 353 2572 751 3078 
Q 1150 3584 1784 3584 
Q 2172 3584 2448 3432 
Q 2725 3281 2906 2969 
z
M 947 1747 
Q 947 1113 1208 752 
Q 1469 391 1925 391 
Q 2381 391 2643 752 
Q 2906 1113 2906 1747 
Q 2906 2381 2643 2742 
Q 2381 3103 1925 3103 
Q 1469 3103 1208 2742 
Q 947 2381 947 1747 
z
" transform="scale(0.015625)"/>
      <path id="DejaVuSans-73" d="M 2834 3397 
L 2834 2853 
Q 2591 2978 2328 3040 
Q 2066 3103 1784 3103 
Q 1356 3103 1142 2972 
Q 928 2841 928 2578 
Q 928 2378 1081 2264 
Q 1234 2150 1697 2047 
L 1894 2003 
Q 2506 1872 2764 1633 
Q 3022 1394 3022 966 
Q 3022 478 2636 193 
Q 2250 -91 1575 -91 
Q 1294 -91 989 -36 
Q 684 19 347 128 
L 347 722 
Q 666 556 975 473 
Q 1284 391 1588 391 
Q 1994 391 2212 530 
Q 2431 669 2431 922 
Q 2431 1156 2273 1281 
Q 2116 1406 1581 1522 
L 1381 1569 
Q 847 1681 609 1914 
Q 372 2147 372 2553 
Q 372 3047 722 3315 
Q 1072 3584 1716 3584 
Q 2034 3584 2315 3537 
Q 2597 3491 2834 3397 
z
" transform="scale(0.015625)"/>
      <path id="DejaVuSans-46" d="M 628 4666 
L 3309 4666 
L 3309 4134 
L 1259 4134 
L 1259 2759 
L 3109 2759 
L 3109 2228 
L 1259 2228 
L 1259 0 
L 628 0 
L 628 4666 
z
" transform="scale(0.015625)"/>
      <path id="DejaVuSans-63" d="M 3122 3366 
L 3122 2828 
Q 2878 2963 2633 3030 
Q 2388 3097 2138 3097 
Q 1578 3097 1268 2742 
Q 959 2388 959 1747 
Q 959 1106 1268 751 
Q 1578 397 2138 397 
Q 2388 397 2633 464 
Q 2878 531 3122 666 
L 3122 134 
Q 2881 22 2623 -34 
Q 2366 -91 2075 -91 
Q 1284 -91 818 406 
Q 353 903 353 1747 
Q 353 2603 823 3093 
Q 1294 3584 2113 3584 
Q 2378 3584 2631 3529 
Q 2884 3475 3122 3366 
z
" transform="scale(0.015625)"/>
      <path id="DejaVuSans-74" d="M 1172 4494 
L 1172 3500 
L 2356 3500 
L 2356 3053 
L 1172 3053 
L 1172 1153 
Q 1172 725 1289 603 
Q 1406 481 1766 481 
L 2356 481 
L 2356 0 
L 1766 0 
Q 1100 0 847 248 
Q 594 497 594 1153 
L 594 3053 
L 172 3053 
L 172 3500 
L 594 3500 
L 594 4494 
L 1172 4494 
z
" transform="scale(0.015625)"/>
      <path id="DejaVuSans-67" d="M 2906 1791 
Q 2906 2416 2648 2759 
Q 2391 3103 1925 3103 
Q 1463 3103 1205 2759 
Q 947 2416 947 1791 
Q 947 1169 1205 825 
Q 1463 481 1925 481 
Q 2391 481 2648 825 
Q 2906 1169 2906 1791 
z
M 3481 434 
Q 3481 -459 3084 -895 
Q 2688 -1331 1869 -1331 
Q 1566 -1331 1297 -1286 
Q 1028 -1241 775 -1147 
L 775 -588 
Q 1028 -725 1275 -790 
Q 1522 -856 1778 -856 
Q 2344 -856 2625 -561 
Q 2906 -266 2906 331 
L 2906 616 
Q 2728 306 2450 153 
Q 2172 0 1784 0 
Q 1141 0 747 490 
Q 353 981 353 1791 
Q 353 2603 747 3093 
Q 1141 3584 1784 3584 
Q 2172 3584 2450 3431 
Q 2728 3278 2906 2969 
L 2906 3500 
L 3481 3500 
L 3481 434 
z
" transform="scale(0.015625)"/>
      <path id="DejaVuSans-53" d="M 3425 4513 
L 3425 3897 
Q 3066 4069 2747 4153 
Q 2428 4238 2131 4238 
Q 1616 4238 1336 4038 
Q 1056 3838 1056 3469 
Q 1056 3159 1242 3001 
Q 1428 2844 1947 2747 
L 2328 2669 
Q 3034 2534 3370 2195 
Q 3706 1856 3706 1288 
Q 3706 609 3251 259 
Q 2797 -91 1919 -91 
Q 1588 -91 1214 -16 
Q 841 59 441 206 
L 441 856 
Q 825 641 1194 531 
Q 1563 422 1919 422 
Q 2459 422 2753 634 
Q 3047 847 3047 1241 
Q 3047 1584 2836 1778 
Q 2625 1972 2144 2069 
L 1759 2144 
Q 1053 2284 737 2584 
Q 422 2884 422 3419 
Q 422 4038 858 4394 
Q 1294 4750 2059 4750 
Q 2388 4750 2728 4690 
Q 3069 4631 3425 4513 
z
" transform="scale(0.015625)"/>
      <path id="DejaVuSans-4c" d="M 628 4666 
L 1259 4666 
L 1259 531 
L 3531 531 
L 3531 0 
L 628 0 
L 628 4666 
z
" transform="scale(0.015625)"/>
      <path id="DejaVuSans-75" d="M 544 1381 
L 544 3500 
L 1119 3500 
L 1119 1403 
Q 1119 906 1312 657 
Q 1506 409 1894 409 
Q 2359 409 2629 706 
Q 2900 1003 2900 1516 
L 2900 3500 
L 3475 3500 
L 3475 0 
L 2900 0 
L 2900 538 
Q 2691 219 2414 64 
Q 2138 -91 1772 -91 
Q 1169 -91 856 284 
Q 544 659 544 1381 
z
M 1991 3584 
L 1991 3584 
z
" transform="scale(0.015625)"/>
     </defs>
     <use xlink:href="#DejaVuSans-44"/>
     <use xlink:href="#DejaVuSans-61" x="77.001953"/>
     <use xlink:href="#DejaVuSans-69" x="138.28125"/>
     <use xlink:href="#DejaVuSans-6c" x="166.064453"/>
     <use xlink:href="#DejaVuSans-79" x="193.847656"/>
     <use xlink:href="#DejaVuSans-20" x="253.027344"/>
     <use xlink:href="#DejaVuSans-43" x="284.814453"/>
     <use xlink:href="#DejaVuSans-6f" x="354.638672"/>
     <use xlink:href="#DejaVuSans-6e" x="415.820312"/>
     <use xlink:href="#DejaVuSans-66" x="479.199219"/>
     <use xlink:href="#DejaVuSans-69" x="514.404297"/>
     <use xlink:href="#DejaVuSans-72" x="542.1875"/>
     <use xlink:href="#DejaVuSans-6d" x="581.550781"/>
     <use xlink:href="#DejaVuSans-65" x="678.962891"/>
     <use xlink:href="#DejaVuSans-64" x="740.486328"/>
     <use xlink:href="#DejaVuSans-20" x="803.962891"/>
     <use xlink:href="#DejaVuSans-43" x="835.75"/>
     <use xlink:href="#DejaVuSans-61" x="905.574219"/>
     <use xlink:href="#DejaVuSans-73" x="966.853516"/>
     <use xlink:href="#DejaVuSans-65" x="1018.953125"/>
     <use xlink:href="#DejaVuSans-73" x="1080.476562"/>
     <use xlink:href="#DejaVuSans-20" x="1132.576172"/>
     <use xlink:href="#DejaVuSans-46" x="1164.363281"/>
     <use xlink:href="#DejaVuSans-6f" x="1218.257812"/>
     <use xlink:href="#DejaVuSans-72" x="1279.439453"/>
     <use xlink:href="#DejaVuSans-65" x="1318.302734"/>
     <use xlink:href="#DejaVuSans-63" x="1379.826172"/>
     <use xlink:href="#DejaVuSans-61" x="1434.806641"/>
     <use xlink:href="#DejaVuSans-73" x="1496.085938"/>
     <use xlink:href="#DejaVuSans-74" x="1548.185547"/>
     <use xlink:href="#DejaVuSans-69" x="1587.394531"/>
     <use xlink:href="#DejaVuSans-6e" x="1615.177734"/>
     <use xlink:href="#DejaVuSans-67" x="1678.556641"/>
     <use xlink:href="#DejaVuSans-20" x="1742.033203"/>
     <use xlink:href="#DejaVuSans-2d" x="1773.820312"/>
     <use xlink:href="#DejaVuSans-20" x="1809.904297"/>
     <use xlink:href="#DejaVuSans-53" x="1841.691406"/>
     <use xlink:href="#DejaVuSans-61" x="1905.167969"/>
     <use xlink:href="#DejaVuSans-69" x="1966.447266"/>
     <use xlink:href="#DejaVuSans-6e" x="1994.230469"/>
     <use xlink:href="#DejaVuSans-74" x="2057.609375"/>
     <use xlink:href="#DejaVuSans-20" x="2096.818359"/>
     <use xlink:href="#DejaVuSans-4c" x="2128.605469"/>
     <use xlink:href="#DejaVuSans-75" x="2182.568359"/>
     <use xlink:href="#DejaVuSans-63" x="2245.947266"/>
     <use xlink:href="#DejaVuSans-69" x="2300.927734"/>
     <use xlink:href="#DejaVuSans-61" x="2328.710938"/>
    </g>
    <!-- ARIMA (0, 1, 1)x(0, 0, 0, 7) (R2 = 0.421931) -->
    <g transform="translate(570.903438 29.7555)scale(0.12 -0.12)">
     <defs>
      <path id="DejaVuSans-41" d="M 2188 4044 
L 1331 1722 
L 3047 1722 
L 2188 4044 
z
M 1831 4666 
L 2547 4666 
L 4325 0 
L 3669 0 
L 3244 1197 
L 1141 1197 
L 716 0 
L 50 0 
L 1831 4666 
z
" transform="scale(0.015625)"/>
      <path id="DejaVuSans-52" d="M 2841 2188 
Q 3044 2119 3236 1894 
Q 3428 1669 3622 1275 
L 4263 0 
L 3584 0 
L 2988 1197 
Q 2756 1666 2539 1819 
Q 2322 1972 1947 1972 
L 1259 1972 
L 1259 0 
L 628 0 
L 628 4666 
L 2053 4666 
Q 2853 4666 3247 4331 
Q 3641 3997 3641 3322 
Q 3641 2881 3436 2590 
Q 3231 2300 2841 2188 
z
M 1259 4147 
L 1259 2491 
L 2053 2491 
Q 2509 2491 2742 2702 
Q 2975 2913 2975 3322 
Q 2975 3731 2742 3939 
Q 2509 4147 2053 4147 
L 1259 4147 
z
" transform="scale(0.015625)"/>
      <path id="DejaVuSans-49" d="M 628 4666 
L 1259 4666 
L 1259 0 
L 628 0 
L 628 4666 
z
" transform="scale(0.015625)"/>
      <path id="DejaVuSans-4d" d="M 628 4666 
L 1569 4666 
L 2759 1491 
L 3956 4666 
L 4897 4666 
L 4897 0 
L 4281 0 
L 4281 4097 
L 3078 897 
L 2444 897 
L 1241 4097 
L 1241 0 
L 628 0 
L 628 4666 
z
" transform="scale(0.015625)"/>
      <path id="DejaVuSans-28" d="M 1984 4856 
Q 1566 4138 1362 3434 
Q 1159 2731 1159 2009 
Q 1159 1288 1364 580 
Q 1569 -128 1984 -844 
L 1484 -844 
Q 1016 -109 783 600 
Q 550 1309 550 2009 
Q 550 2706 781 3412 
Q 1013 4119 1484 4856 
L 1984 4856 
z
" transform="scale(0.015625)"/>
      <path id="DejaVuSans-2c" d="M 750 794 
L 1409 794 
L 1409 256 
L 897 -744 
L 494 -744 
L 750 256 
L 750 794 
z
" transform="scale(0.015625)"/>
      <path id="DejaVuSans-29" d="M 513 4856 
L 1013 4856 
Q 1481 4119 1714 3412 
Q 1947 2706 1947 2009 
Q 1947 1309 1714 600 
Q 1481 -109 1013 -844 
L 513 -844 
Q 928 -128 1133 580 
Q 1338 1288 1338 2009 
Q 1338 2731 1133 3434 
Q 928 4138 513 4856 
z
" transform="scale(0.015625)"/>
      <path id="DejaVuSans-78" d="M 3513 3500 
L 2247 1797 
L 3578 0 
L 2900 0 
L 1881 1375 
L 863 0 
L 184 0 
L 1544 1831 
L 300 3500 
L 978 3500 
L 1906 2253 
L 2834 3500 
L 3513 3500 
z
" transform="scale(0.015625)"/>
      <path id="DejaVuSans-3d" d="M 678 2906 
L 4684 2906 
L 4684 2381 
L 678 2381 
L 678 2906 
z
M 678 1631 
L 4684 1631 
L 4684 1100 
L 678 1100 
L 678 1631 
z
" transform="scale(0.015625)"/>
      <path id="DejaVuSans-2e" d="M 684 794 
L 1344 794 
L 1344 0 
L 684 0 
L 684 794 
z
" transform="scale(0.015625)"/>
      <path id="DejaVuSans-39" d="M 703 97 
L 703 672 
Q 941 559 1184 500 
Q 1428 441 1663 441 
Q 2288 441 2617 861 
Q 2947 1281 2994 2138 
Q 2813 1869 2534 1725 
Q 2256 1581 1919 1581 
Q 1219 1581 811 2004 
Q 403 2428 403 3163 
Q 403 3881 828 4315 
Q 1253 4750 1959 4750 
Q 2769 4750 3195 4129 
Q 3622 3509 3622 2328 
Q 3622 1225 3098 567 
Q 2575 -91 1691 -91 
Q 1453 -91 1209 -44 
Q 966 3 703 97 
z
M 1959 2075 
Q 2384 2075 2632 2365 
Q 2881 2656 2881 3163 
Q 2881 3666 2632 3958 
Q 2384 4250 1959 4250 
Q 1534 4250 1286 3958 
Q 1038 3666 1038 3163 
Q 1038 2656 1286 2365 
Q 1534 2075 1959 2075 
z
" transform="scale(0.015625)"/>
     </defs>
     <use xlink:href="#DejaVuSans-41"/>
     <use xlink:href="#DejaVuSans-52" x="68.408203"/>
     <use xlink:href="#DejaVuSans-49" x="137.890625"/>
     <use xlink:href="#DejaVuSans-4d" x="167.382812"/>
     <use xlink:href="#DejaVuSans-41" x="253.662109"/>
     <use xlink:href="#DejaVuSans-20" x="322.070312"/>
     <use xlink:href="#DejaVuSans-28" x="353.857422"/>
     <use xlink:href="#DejaVuSans-30" x="392.871094"/>
     <use xlink:href="#DejaVuSans-2c" x="456.494141"/>
     <use xlink:href="#DejaVuSans-20" x="488.28125"/>
     <use xlink:href="#DejaVuSans-31" x="520.068359"/>
     <use xlink:href="#DejaVuSans-2c" x="583.691406"/>
     <use xlink:href="#DejaVuSans-20" x="615.478516"/>
     <use xlink:href="#DejaVuSans-31" x="647.265625"/>
     <use xlink:href="#DejaVuSans-29" x="710.888672"/>
     <use xlink:href="#DejaVuSans-78" x="749.902344"/>
     <use xlink:href="#DejaVuSans-28" x="809.082031"/>
     <use xlink:href="#DejaVuSans-30" x="848.095703"/>
     <use xlink:href="#DejaVuSans-2c" x="911.71875"/>
     <use xlink:href="#DejaVuSans-20" x="943.505859"/>
     <use xlink:href="#DejaVuSans-30" x="975.292969"/>
     <use xlink:href="#DejaVuSans-2c" x="1038.916016"/>
     <use xlink:href="#DejaVuSans-20" x="1070.703125"/>
     <use xlink:href="#DejaVuSans-30" x="1102.490234"/>
     <use xlink:href="#DejaVuSans-2c" x="1166.113281"/>
     <use xlink:href="#DejaVuSans-20" x="1197.900391"/>
     <use xlink:href="#DejaVuSans-37" x="1229.6875"/>
     <use xlink:href="#DejaVuSans-29" x="1293.310547"/>
     <use xlink:href="#DejaVuSans-20" x="1332.324219"/>
     <use xlink:href="#DejaVuSans-28" x="1364.111328"/>
     <use xlink:href="#DejaVuSans-52" x="1403.125"/>
     <use xlink:href="#DejaVuSans-32" x="1472.607422"/>
     <use xlink:href="#DejaVuSans-20" x="1536.230469"/>
     <use xlink:href="#DejaVuSans-3d" x="1568.017578"/>
     <use xlink:href="#DejaVuSans-20" x="1651.806641"/>
     <use xlink:href="#DejaVuSans-30" x="1683.59375"/>
     <use xlink:href="#DejaVuSans-2e" x="1747.216797"/>
     <use xlink:href="#DejaVuSans-34" x="1779.003906"/>
     <use xlink:href="#DejaVuSans-32" x="1842.626953"/>
     <use xlink:href="#DejaVuSans-31" x="1906.25"/>
     <use xlink:href="#DejaVuSans-39" x="1969.873047"/>
     <use xlink:href="#DejaVuSans-33" x="2033.496094"/>
     <use xlink:href="#DejaVuSans-31" x="2097.119141"/>
     <use xlink:href="#DejaVuSans-29" x="2160.742188"/>
    </g>
   </g>
   <g id="legend_1">
    <g id="patch_7">
     <path d="M 1268.407813 87.789875 
L 1365.4875 87.789875 
Q 1367.4875 87.789875 1367.4875 85.789875 
L 1367.4875 42.7555 
Q 1367.4875 40.7555 1365.4875 40.7555 
L 1268.407813 40.7555 
Q 1266.407813 40.7555 1266.407813 42.7555 
L 1266.407813 85.789875 
Q 1266.407813 87.789875 1268.407813 87.789875 
z
" style="fill: #ffffff; opacity: 0.8; stroke: #cccccc; stroke-linejoin: miter"/>
    </g>
    <g id="line2d_23">
     <path d="M 1270.407813 48.853937 
L 1280.407813 48.853937 
L 1290.407813 48.853937 
" style="fill: none; stroke: #0000ff; stroke-width: 1.5; stroke-linecap: square"/>
    </g>
    <g id="text_21">
     <!-- Actual Value -->
     <g transform="translate(1298.407813 52.353937)scale(0.1 -0.1)">
      <defs>
       <path id="DejaVuSans-56" d="M 1831 0 
L 50 4666 
L 709 4666 
L 2188 738 
L 3669 4666 
L 4325 4666 
L 2547 0 
L 1831 0 
z
" transform="scale(0.015625)"/>
      </defs>
      <use xlink:href="#DejaVuSans-41"/>
      <use xlink:href="#DejaVuSans-63" x="66.658203"/>
      <use xlink:href="#DejaVuSans-74" x="121.638672"/>
      <use xlink:href="#DejaVuSans-75" x="160.847656"/>
      <use xlink:href="#DejaVuSans-61" x="224.226562"/>
      <use xlink:href="#DejaVuSans-6c" x="285.505859"/>
      <use xlink:href="#DejaVuSans-20" x="313.289062"/>
      <use xlink:href="#DejaVuSans-56" x="345.076172"/>
      <use xlink:href="#DejaVuSans-61" x="405.734375"/>
      <use xlink:href="#DejaVuSans-6c" x="467.013672"/>
      <use xlink:href="#DejaVuSans-75" x="494.796875"/>
      <use xlink:href="#DejaVuSans-65" x="558.175781"/>
     </g>
    </g>
    <g id="line2d_24">
     <path d="M 1270.407813 63.532062 
L 1280.407813 63.532062 
L 1290.407813 63.532062 
" style="fill: none; stroke: #ffa500; stroke-width: 1.5; stroke-linecap: square"/>
    </g>
    <g id="text_22">
     <!-- Check Value -->
     <g transform="translate(1298.407813 67.032062)scale(0.1 -0.1)">
      <defs>
       <path id="DejaVuSans-68" d="M 3513 2113 
L 3513 0 
L 2938 0 
L 2938 2094 
Q 2938 2591 2744 2837 
Q 2550 3084 2163 3084 
Q 1697 3084 1428 2787 
Q 1159 2491 1159 1978 
L 1159 0 
L 581 0 
L 581 4863 
L 1159 4863 
L 1159 2956 
Q 1366 3272 1645 3428 
Q 1925 3584 2291 3584 
Q 2894 3584 3203 3211 
Q 3513 2838 3513 2113 
z
" transform="scale(0.015625)"/>
       <path id="DejaVuSans-6b" d="M 581 4863 
L 1159 4863 
L 1159 1991 
L 2875 3500 
L 3609 3500 
L 1753 1863 
L 3688 0 
L 2938 0 
L 1159 1709 
L 1159 0 
L 581 0 
L 581 4863 
z
" transform="scale(0.015625)"/>
      </defs>
      <use xlink:href="#DejaVuSans-43"/>
      <use xlink:href="#DejaVuSans-68" x="69.824219"/>
      <use xlink:href="#DejaVuSans-65" x="133.203125"/>
      <use xlink:href="#DejaVuSans-63" x="194.726562"/>
      <use xlink:href="#DejaVuSans-6b" x="249.707031"/>
      <use xlink:href="#DejaVuSans-20" x="307.617188"/>
      <use xlink:href="#DejaVuSans-56" x="339.404297"/>
      <use xlink:href="#DejaVuSans-61" x="400.0625"/>
      <use xlink:href="#DejaVuSans-6c" x="461.341797"/>
      <use xlink:href="#DejaVuSans-75" x="489.125"/>
      <use xlink:href="#DejaVuSans-65" x="552.503906"/>
     </g>
    </g>
    <g id="line2d_25">
     <path d="M 1270.407813 78.210187 
L 1280.407813 78.210187 
L 1290.407813 78.210187 
" style="fill: none; stroke: #ff0000; stroke-width: 1.5; stroke-linecap: square"/>
    </g>
    <g id="text_23">
     <!-- Predict Value -->
     <g transform="translate(1298.407813 81.710187)scale(0.1 -0.1)">
      <defs>
       <path id="DejaVuSans-50" d="M 1259 4147 
L 1259 2394 
L 2053 2394 
Q 2494 2394 2734 2622 
Q 2975 2850 2975 3272 
Q 2975 3691 2734 3919 
Q 2494 4147 2053 4147 
L 1259 4147 
z
M 628 4666 
L 2053 4666 
Q 2838 4666 3239 4311 
Q 3641 3956 3641 3272 
Q 3641 2581 3239 2228 
Q 2838 1875 2053 1875 
L 1259 1875 
L 1259 0 
L 628 0 
L 628 4666 
z
" transform="scale(0.015625)"/>
      </defs>
      <use xlink:href="#DejaVuSans-50"/>
      <use xlink:href="#DejaVuSans-72" x="58.552734"/>
      <use xlink:href="#DejaVuSans-65" x="97.416016"/>
      <use xlink:href="#DejaVuSans-64" x="158.939453"/>
      <use xlink:href="#DejaVuSans-69" x="222.416016"/>
      <use xlink:href="#DejaVuSans-63" x="250.199219"/>
      <use xlink:href="#DejaVuSans-74" x="305.179688"/>
      <use xlink:href="#DejaVuSans-20" x="344.388672"/>
      <use xlink:href="#DejaVuSans-56" x="376.175781"/>
      <use xlink:href="#DejaVuSans-61" x="436.833984"/>
      <use xlink:href="#DejaVuSans-6c" x="498.113281"/>
      <use xlink:href="#DejaVuSans-75" x="525.896484"/>
      <use xlink:href="#DejaVuSans-65" x="589.275391"/>
     </g>
    </g>
   </g>
  </g>
 </g>
 <defs>
  <clipPath id="pc289e1b368">
   <rect x="33.2875" y="35.7555" width="1339.2" height="332.64"/>
  </clipPath>
 </defs>
</svg>
