<?xml version="1.0" encoding="utf-8" standalone="no"?>
<!DOCTYPE svg PUBLIC "-//W3C//DTD SVG 1.1//EN"
  "http://www.w3.org/Graphics/SVG/1.1/DTD/svg11.dtd">
<svg xmlns:xlink="http://www.w3.org/1999/xlink" width="1398.775pt" height="392.273625pt" viewBox="0 0 1398.775 392.273625" xmlns="http://www.w3.org/2000/svg" version="1.1">
 <metadata>
  <rdf:RDF xmlns:dc="http://purl.org/dc/elements/1.1/" xmlns:cc="http://creativecommons.org/ns#" xmlns:rdf="http://www.w3.org/1999/02/22-rdf-syntax-ns#">
   <cc:Work>
    <dc:type rdf:resource="http://purl.org/dc/dcmitype/StillImage"/>
    <dc:date>2022-06-23T20:03:58.434111</dc:date>
    <dc:format>image/svg+xml</dc:format>
    <dc:creator>
     <cc:Agent>
      <dc:title>Matplotlib v3.5.2, https://matplotlib.org/</dc:title>
     </cc:Agent>
    </dc:creator>
   </cc:Work>
  </rdf:RDF>
 </metadata>
 <defs>
  <style type="text/css">*{stroke-linejoin: round; stroke-linecap: butt}</style>
 </defs>
 <g id="figure_1">
  <g id="patch_1">
   <path d="M 0 392.273625 
L 1398.775 392.273625 
L 1398.775 0 
L 0 0 
z
" style="fill: #ffffff"/>
  </g>
  <g id="axes_1">
   <g id="patch_2">
    <path d="M 52.375 368.3955 
L 1391.575 368.3955 
L 1391.575 35.7555 
L 52.375 35.7555 
z
" style="fill: #ffffff"/>
   </g>
   <g id="matplotlib.axis_1">
    <g id="xtick_1">
     <g id="line2d_1">
      <defs>
       <path id="mcd270e5bc9" d="M 0 0 
L 0 3.5 
" style="stroke: #000000; stroke-width: 0.8"/>
      </defs>
      <g>
       <use xlink:href="#mcd270e5bc9" x="83.287996" y="368.3955" style="stroke: #000000; stroke-width: 0.8"/>
      </g>
     </g>
     <g id="text_1">
      <!-- 2020-01 -->
      <g transform="translate(62.396589 382.993937)scale(0.1 -0.1)">
       <defs>
        <path id="DejaVuSans-32" d="M 1228 531 
L 3431 531 
L 3431 0 
L 469 0 
L 469 531 
Q 828 903 1448 1529 
Q 2069 2156 2228 2338 
Q 2531 2678 2651 2914 
Q 2772 3150 2772 3378 
Q 2772 3750 2511 3984 
Q 2250 4219 1831 4219 
Q 1534 4219 1204 4116 
Q 875 4013 500 3803 
L 500 4441 
Q 881 4594 1212 4672 
Q 1544 4750 1819 4750 
Q 2544 4750 2975 4387 
Q 3406 4025 3406 3419 
Q 3406 3131 3298 2873 
Q 3191 2616 2906 2266 
Q 2828 2175 2409 1742 
Q 1991 1309 1228 531 
z
" transform="scale(0.015625)"/>
        <path id="DejaVuSans-30" d="M 2034 4250 
Q 1547 4250 1301 3770 
Q 1056 3291 1056 2328 
Q 1056 1369 1301 889 
Q 1547 409 2034 409 
Q 2525 409 2770 889 
Q 3016 1369 3016 2328 
Q 3016 3291 2770 3770 
Q 2525 4250 2034 4250 
z
M 2034 4750 
Q 2819 4750 3233 4129 
Q 3647 3509 3647 2328 
Q 3647 1150 3233 529 
Q 2819 -91 2034 -91 
Q 1250 -91 836 529 
Q 422 1150 422 2328 
Q 422 3509 836 4129 
Q 1250 4750 2034 4750 
z
" transform="scale(0.015625)"/>
        <path id="DejaVuSans-2d" d="M 313 2009 
L 1997 2009 
L 1997 1497 
L 313 1497 
L 313 2009 
z
" transform="scale(0.015625)"/>
        <path id="DejaVuSans-31" d="M 794 531 
L 1825 531 
L 1825 4091 
L 703 3866 
L 703 4441 
L 1819 4666 
L 2450 4666 
L 2450 531 
L 3481 531 
L 3481 0 
L 794 0 
L 794 531 
z
" transform="scale(0.015625)"/>
       </defs>
       <use xlink:href="#DejaVuSans-32"/>
       <use xlink:href="#DejaVuSans-30" x="63.623047"/>
       <use xlink:href="#DejaVuSans-32" x="127.246094"/>
       <use xlink:href="#DejaVuSans-30" x="190.869141"/>
       <use xlink:href="#DejaVuSans-2d" x="254.492188"/>
       <use xlink:href="#DejaVuSans-30" x="290.576172"/>
       <use xlink:href="#DejaVuSans-31" x="354.199219"/>
      </g>
     </g>
    </g>
    <g id="xtick_2">
     <g id="line2d_2">
      <g>
       <use xlink:href="#mcd270e5bc9" x="207.21234" y="368.3955" style="stroke: #000000; stroke-width: 0.8"/>
      </g>
     </g>
     <g id="text_2">
      <!-- 2020-04 -->
      <g transform="translate(186.320934 382.993937)scale(0.1 -0.1)">
       <defs>
        <path id="DejaVuSans-34" d="M 2419 4116 
L 825 1625 
L 2419 1625 
L 2419 4116 
z
M 2253 4666 
L 3047 4666 
L 3047 1625 
L 3713 1625 
L 3713 1100 
L 3047 1100 
L 3047 0 
L 2419 0 
L 2419 1100 
L 313 1100 
L 313 1709 
L 2253 4666 
z
" transform="scale(0.015625)"/>
       </defs>
       <use xlink:href="#DejaVuSans-32"/>
       <use xlink:href="#DejaVuSans-30" x="63.623047"/>
       <use xlink:href="#DejaVuSans-32" x="127.246094"/>
       <use xlink:href="#DejaVuSans-30" x="190.869141"/>
       <use xlink:href="#DejaVuSans-2d" x="254.492188"/>
       <use xlink:href="#DejaVuSans-30" x="290.576172"/>
       <use xlink:href="#DejaVuSans-34" x="354.199219"/>
      </g>
     </g>
    </g>
    <g id="xtick_3">
     <g id="line2d_3">
      <g>
       <use xlink:href="#mcd270e5bc9" x="331.136684" y="368.3955" style="stroke: #000000; stroke-width: 0.8"/>
      </g>
     </g>
     <g id="text_3">
      <!-- 2020-07 -->
      <g transform="translate(310.245278 382.993937)scale(0.1 -0.1)">
       <defs>
        <path id="DejaVuSans-37" d="M 525 4666 
L 3525 4666 
L 3525 4397 
L 1831 0 
L 1172 0 
L 2766 4134 
L 525 4134 
L 525 4666 
z
" transform="scale(0.015625)"/>
       </defs>
       <use xlink:href="#DejaVuSans-32"/>
       <use xlink:href="#DejaVuSans-30" x="63.623047"/>
       <use xlink:href="#DejaVuSans-32" x="127.246094"/>
       <use xlink:href="#DejaVuSans-30" x="190.869141"/>
       <use xlink:href="#DejaVuSans-2d" x="254.492188"/>
       <use xlink:href="#DejaVuSans-30" x="290.576172"/>
       <use xlink:href="#DejaVuSans-37" x="354.199219"/>
      </g>
     </g>
    </g>
    <g id="xtick_4">
     <g id="line2d_4">
      <g>
       <use xlink:href="#mcd270e5bc9" x="456.422834" y="368.3955" style="stroke: #000000; stroke-width: 0.8"/>
      </g>
     </g>
     <g id="text_4">
      <!-- 2020-10 -->
      <g transform="translate(435.531428 382.993937)scale(0.1 -0.1)">
       <use xlink:href="#DejaVuSans-32"/>
       <use xlink:href="#DejaVuSans-30" x="63.623047"/>
       <use xlink:href="#DejaVuSans-32" x="127.246094"/>
       <use xlink:href="#DejaVuSans-30" x="190.869141"/>
       <use xlink:href="#DejaVuSans-2d" x="254.492188"/>
       <use xlink:href="#DejaVuSans-31" x="290.576172"/>
       <use xlink:href="#DejaVuSans-30" x="354.199219"/>
      </g>
     </g>
    </g>
    <g id="xtick_5">
     <g id="line2d_5">
      <g>
       <use xlink:href="#mcd270e5bc9" x="581.708984" y="368.3955" style="stroke: #000000; stroke-width: 0.8"/>
      </g>
     </g>
     <g id="text_5">
      <!-- 2021-01 -->
      <g transform="translate(560.817578 382.993937)scale(0.1 -0.1)">
       <use xlink:href="#DejaVuSans-32"/>
       <use xlink:href="#DejaVuSans-30" x="63.623047"/>
       <use xlink:href="#DejaVuSans-32" x="127.246094"/>
       <use xlink:href="#DejaVuSans-31" x="190.869141"/>
       <use xlink:href="#DejaVuSans-2d" x="254.492188"/>
       <use xlink:href="#DejaVuSans-30" x="290.576172"/>
       <use xlink:href="#DejaVuSans-31" x="354.199219"/>
      </g>
     </g>
    </g>
    <g id="xtick_6">
     <g id="line2d_6">
      <g>
       <use xlink:href="#mcd270e5bc9" x="704.271522" y="368.3955" style="stroke: #000000; stroke-width: 0.8"/>
      </g>
     </g>
     <g id="text_6">
      <!-- 2021-04 -->
      <g transform="translate(683.380116 382.993937)scale(0.1 -0.1)">
       <use xlink:href="#DejaVuSans-32"/>
       <use xlink:href="#DejaVuSans-30" x="63.623047"/>
       <use xlink:href="#DejaVuSans-32" x="127.246094"/>
       <use xlink:href="#DejaVuSans-31" x="190.869141"/>
       <use xlink:href="#DejaVuSans-2d" x="254.492188"/>
       <use xlink:href="#DejaVuSans-30" x="290.576172"/>
       <use xlink:href="#DejaVuSans-34" x="354.199219"/>
      </g>
     </g>
    </g>
    <g id="xtick_7">
     <g id="line2d_7">
      <g>
       <use xlink:href="#mcd270e5bc9" x="828.195866" y="368.3955" style="stroke: #000000; stroke-width: 0.8"/>
      </g>
     </g>
     <g id="text_7">
      <!-- 2021-07 -->
      <g transform="translate(807.30446 382.993937)scale(0.1 -0.1)">
       <use xlink:href="#DejaVuSans-32"/>
       <use xlink:href="#DejaVuSans-30" x="63.623047"/>
       <use xlink:href="#DejaVuSans-32" x="127.246094"/>
       <use xlink:href="#DejaVuSans-31" x="190.869141"/>
       <use xlink:href="#DejaVuSans-2d" x="254.492188"/>
       <use xlink:href="#DejaVuSans-30" x="290.576172"/>
       <use xlink:href="#DejaVuSans-37" x="354.199219"/>
      </g>
     </g>
    </g>
    <g id="xtick_8">
     <g id="line2d_8">
      <g>
       <use xlink:href="#mcd270e5bc9" x="953.482016" y="368.3955" style="stroke: #000000; stroke-width: 0.8"/>
      </g>
     </g>
     <g id="text_8">
      <!-- 2021-10 -->
      <g transform="translate(932.59061 382.993937)scale(0.1 -0.1)">
       <use xlink:href="#DejaVuSans-32"/>
       <use xlink:href="#DejaVuSans-30" x="63.623047"/>
       <use xlink:href="#DejaVuSans-32" x="127.246094"/>
       <use xlink:href="#DejaVuSans-31" x="190.869141"/>
       <use xlink:href="#DejaVuSans-2d" x="254.492188"/>
       <use xlink:href="#DejaVuSans-31" x="290.576172"/>
       <use xlink:href="#DejaVuSans-30" x="354.199219"/>
      </g>
     </g>
    </g>
    <g id="xtick_9">
     <g id="line2d_9">
      <g>
       <use xlink:href="#mcd270e5bc9" x="1078.768167" y="368.3955" style="stroke: #000000; stroke-width: 0.8"/>
      </g>
     </g>
     <g id="text_9">
      <!-- 2022-01 -->
      <g transform="translate(1057.87676 382.993937)scale(0.1 -0.1)">
       <use xlink:href="#DejaVuSans-32"/>
       <use xlink:href="#DejaVuSans-30" x="63.623047"/>
       <use xlink:href="#DejaVuSans-32" x="127.246094"/>
       <use xlink:href="#DejaVuSans-32" x="190.869141"/>
       <use xlink:href="#DejaVuSans-2d" x="254.492188"/>
       <use xlink:href="#DejaVuSans-30" x="290.576172"/>
       <use xlink:href="#DejaVuSans-31" x="354.199219"/>
      </g>
     </g>
    </g>
    <g id="xtick_10">
     <g id="line2d_10">
      <g>
       <use xlink:href="#mcd270e5bc9" x="1201.330705" y="368.3955" style="stroke: #000000; stroke-width: 0.8"/>
      </g>
     </g>
     <g id="text_10">
      <!-- 2022-04 -->
      <g transform="translate(1180.439298 382.993937)scale(0.1 -0.1)">
       <use xlink:href="#DejaVuSans-32"/>
       <use xlink:href="#DejaVuSans-30" x="63.623047"/>
       <use xlink:href="#DejaVuSans-32" x="127.246094"/>
       <use xlink:href="#DejaVuSans-32" x="190.869141"/>
       <use xlink:href="#DejaVuSans-2d" x="254.492188"/>
       <use xlink:href="#DejaVuSans-30" x="290.576172"/>
       <use xlink:href="#DejaVuSans-34" x="354.199219"/>
      </g>
     </g>
    </g>
    <g id="xtick_11">
     <g id="line2d_11">
      <g>
       <use xlink:href="#mcd270e5bc9" x="1325.255049" y="368.3955" style="stroke: #000000; stroke-width: 0.8"/>
      </g>
     </g>
     <g id="text_11">
      <!-- 2022-07 -->
      <g transform="translate(1304.363643 382.993937)scale(0.1 -0.1)">
       <use xlink:href="#DejaVuSans-32"/>
       <use xlink:href="#DejaVuSans-30" x="63.623047"/>
       <use xlink:href="#DejaVuSans-32" x="127.246094"/>
       <use xlink:href="#DejaVuSans-32" x="190.869141"/>
       <use xlink:href="#DejaVuSans-2d" x="254.492188"/>
       <use xlink:href="#DejaVuSans-30" x="290.576172"/>
       <use xlink:href="#DejaVuSans-37" x="354.199219"/>
      </g>
     </g>
    </g>
   </g>
   <g id="matplotlib.axis_2">
    <g id="ytick_1">
     <g id="line2d_12">
      <defs>
       <path id="mb4bc1cc259" d="M 0 0 
L -3.5 0 
" style="stroke: #000000; stroke-width: 0.8"/>
      </defs>
      <g>
       <use xlink:href="#mb4bc1cc259" x="52.375" y="340.568273" style="stroke: #000000; stroke-width: 0.8"/>
      </g>
     </g>
     <g id="text_12">
      <!-- 0 -->
      <g transform="translate(39.0125 344.367492)scale(0.1 -0.1)">
       <use xlink:href="#DejaVuSans-30"/>
      </g>
     </g>
    </g>
    <g id="ytick_2">
     <g id="line2d_13">
      <g>
       <use xlink:href="#mb4bc1cc259" x="52.375" y="298.881361" style="stroke: #000000; stroke-width: 0.8"/>
      </g>
     </g>
     <g id="text_13">
      <!-- 20000 -->
      <g transform="translate(13.5625 302.68058)scale(0.1 -0.1)">
       <use xlink:href="#DejaVuSans-32"/>
       <use xlink:href="#DejaVuSans-30" x="63.623047"/>
       <use xlink:href="#DejaVuSans-30" x="127.246094"/>
       <use xlink:href="#DejaVuSans-30" x="190.869141"/>
       <use xlink:href="#DejaVuSans-30" x="254.492188"/>
      </g>
     </g>
    </g>
    <g id="ytick_3">
     <g id="line2d_14">
      <g>
       <use xlink:href="#mb4bc1cc259" x="52.375" y="257.194449" style="stroke: #000000; stroke-width: 0.8"/>
      </g>
     </g>
     <g id="text_14">
      <!-- 40000 -->
      <g transform="translate(13.5625 260.993668)scale(0.1 -0.1)">
       <use xlink:href="#DejaVuSans-34"/>
       <use xlink:href="#DejaVuSans-30" x="63.623047"/>
       <use xlink:href="#DejaVuSans-30" x="127.246094"/>
       <use xlink:href="#DejaVuSans-30" x="190.869141"/>
       <use xlink:href="#DejaVuSans-30" x="254.492188"/>
      </g>
     </g>
    </g>
    <g id="ytick_4">
     <g id="line2d_15">
      <g>
       <use xlink:href="#mb4bc1cc259" x="52.375" y="215.507537" style="stroke: #000000; stroke-width: 0.8"/>
      </g>
     </g>
     <g id="text_15">
      <!-- 60000 -->
      <g transform="translate(13.5625 219.306756)scale(0.1 -0.1)">
       <defs>
        <path id="DejaVuSans-36" d="M 2113 2584 
Q 1688 2584 1439 2293 
Q 1191 2003 1191 1497 
Q 1191 994 1439 701 
Q 1688 409 2113 409 
Q 2538 409 2786 701 
Q 3034 994 3034 1497 
Q 3034 2003 2786 2293 
Q 2538 2584 2113 2584 
z
M 3366 4563 
L 3366 3988 
Q 3128 4100 2886 4159 
Q 2644 4219 2406 4219 
Q 1781 4219 1451 3797 
Q 1122 3375 1075 2522 
Q 1259 2794 1537 2939 
Q 1816 3084 2150 3084 
Q 2853 3084 3261 2657 
Q 3669 2231 3669 1497 
Q 3669 778 3244 343 
Q 2819 -91 2113 -91 
Q 1303 -91 875 529 
Q 447 1150 447 2328 
Q 447 3434 972 4092 
Q 1497 4750 2381 4750 
Q 2619 4750 2861 4703 
Q 3103 4656 3366 4563 
z
" transform="scale(0.015625)"/>
       </defs>
       <use xlink:href="#DejaVuSans-36"/>
       <use xlink:href="#DejaVuSans-30" x="63.623047"/>
       <use xlink:href="#DejaVuSans-30" x="127.246094"/>
       <use xlink:href="#DejaVuSans-30" x="190.869141"/>
       <use xlink:href="#DejaVuSans-30" x="254.492188"/>
      </g>
     </g>
    </g>
    <g id="ytick_5">
     <g id="line2d_16">
      <g>
       <use xlink:href="#mb4bc1cc259" x="52.375" y="173.820625" style="stroke: #000000; stroke-width: 0.8"/>
      </g>
     </g>
     <g id="text_16">
      <!-- 80000 -->
      <g transform="translate(13.5625 177.619844)scale(0.1 -0.1)">
       <defs>
        <path id="DejaVuSans-38" d="M 2034 2216 
Q 1584 2216 1326 1975 
Q 1069 1734 1069 1313 
Q 1069 891 1326 650 
Q 1584 409 2034 409 
Q 2484 409 2743 651 
Q 3003 894 3003 1313 
Q 3003 1734 2745 1975 
Q 2488 2216 2034 2216 
z
M 1403 2484 
Q 997 2584 770 2862 
Q 544 3141 544 3541 
Q 544 4100 942 4425 
Q 1341 4750 2034 4750 
Q 2731 4750 3128 4425 
Q 3525 4100 3525 3541 
Q 3525 3141 3298 2862 
Q 3072 2584 2669 2484 
Q 3125 2378 3379 2068 
Q 3634 1759 3634 1313 
Q 3634 634 3220 271 
Q 2806 -91 2034 -91 
Q 1263 -91 848 271 
Q 434 634 434 1313 
Q 434 1759 690 2068 
Q 947 2378 1403 2484 
z
M 1172 3481 
Q 1172 3119 1398 2916 
Q 1625 2713 2034 2713 
Q 2441 2713 2670 2916 
Q 2900 3119 2900 3481 
Q 2900 3844 2670 4047 
Q 2441 4250 2034 4250 
Q 1625 4250 1398 4047 
Q 1172 3844 1172 3481 
z
" transform="scale(0.015625)"/>
       </defs>
       <use xlink:href="#DejaVuSans-38"/>
       <use xlink:href="#DejaVuSans-30" x="63.623047"/>
       <use xlink:href="#DejaVuSans-30" x="127.246094"/>
       <use xlink:href="#DejaVuSans-30" x="190.869141"/>
       <use xlink:href="#DejaVuSans-30" x="254.492188"/>
      </g>
     </g>
    </g>
    <g id="ytick_6">
     <g id="line2d_17">
      <g>
       <use xlink:href="#mb4bc1cc259" x="52.375" y="132.133713" style="stroke: #000000; stroke-width: 0.8"/>
      </g>
     </g>
     <g id="text_17">
      <!-- 100000 -->
      <g transform="translate(7.2 135.932932)scale(0.1 -0.1)">
       <use xlink:href="#DejaVuSans-31"/>
       <use xlink:href="#DejaVuSans-30" x="63.623047"/>
       <use xlink:href="#DejaVuSans-30" x="127.246094"/>
       <use xlink:href="#DejaVuSans-30" x="190.869141"/>
       <use xlink:href="#DejaVuSans-30" x="254.492188"/>
       <use xlink:href="#DejaVuSans-30" x="318.115234"/>
      </g>
     </g>
    </g>
    <g id="ytick_7">
     <g id="line2d_18">
      <g>
       <use xlink:href="#mb4bc1cc259" x="52.375" y="90.446801" style="stroke: #000000; stroke-width: 0.8"/>
      </g>
     </g>
     <g id="text_18">
      <!-- 120000 -->
      <g transform="translate(7.2 94.24602)scale(0.1 -0.1)">
       <use xlink:href="#DejaVuSans-31"/>
       <use xlink:href="#DejaVuSans-32" x="63.623047"/>
       <use xlink:href="#DejaVuSans-30" x="127.246094"/>
       <use xlink:href="#DejaVuSans-30" x="190.869141"/>
       <use xlink:href="#DejaVuSans-30" x="254.492188"/>
       <use xlink:href="#DejaVuSans-30" x="318.115234"/>
      </g>
     </g>
    </g>
    <g id="ytick_8">
     <g id="line2d_19">
      <g>
       <use xlink:href="#mb4bc1cc259" x="52.375" y="48.759889" style="stroke: #000000; stroke-width: 0.8"/>
      </g>
     </g>
     <g id="text_19">
      <!-- 140000 -->
      <g transform="translate(7.2 52.559108)scale(0.1 -0.1)">
       <use xlink:href="#DejaVuSans-31"/>
       <use xlink:href="#DejaVuSans-34" x="63.623047"/>
       <use xlink:href="#DejaVuSans-30" x="127.246094"/>
       <use xlink:href="#DejaVuSans-30" x="190.869141"/>
       <use xlink:href="#DejaVuSans-30" x="254.492188"/>
       <use xlink:href="#DejaVuSans-30" x="318.115234"/>
      </g>
     </g>
    </g>
   </g>
   <g id="line2d_20">
    <path d="M 113.247727 340.568273 
L 170.443578 340.516164 
L 171.805384 340.445297 
L 174.528996 340.472393 
L 175.890802 340.357754 
L 177.252608 340.364007 
L 178.614414 340.159741 
L 184.061638 340.424453 
L 196.317892 340.088874 
L 197.679698 339.913789 
L 199.041504 339.97215 
L 200.40331 339.807487 
L 203.126922 339.984656 
L 204.488728 339.701185 
L 209.935952 339.315581 
L 211.297758 339.824162 
L 212.659564 339.859596 
L 214.02137 339.757463 
L 215.383176 339.030026 
L 216.744982 339.203027 
L 218.106788 339.22387 
L 219.468594 339.62198 
L 220.8304 339.744957 
L 222.192206 339.601137 
L 223.554012 339.657414 
L 224.915818 339.569872 
L 226.277624 339.309328 
L 229.001236 339.134243 
L 231.724847 339.759547 
L 233.086653 339.60739 
L 234.448459 339.094641 
L 238.533877 338.944568 
L 239.895683 339.582378 
L 241.257489 339.942969 
L 242.619295 339.394787 
L 243.981101 339.021689 
L 245.342907 338.904965 
L 246.704713 339.244714 
L 248.066519 339.459401 
L 249.428325 339.945054 
L 250.790131 340.024259 
L 253.513743 339.198858 
L 256.237355 338.927893 
L 257.599161 339.109231 
L 260.322773 339.988825 
L 261.684579 339.619896 
L 263.046385 338.996677 
L 265.769997 339.192605 
L 267.131803 339.134243 
L 268.493609 339.822077 
L 269.855415 340.028428 
L 271.217221 339.66992 
L 272.579027 339.178015 
L 273.940833 338.884122 
L 275.302639 339.296822 
L 278.026251 339.728282 
L 279.388057 340.130561 
L 282.111669 339.013351 
L 283.473475 338.900797 
L 286.197087 338.957074 
L 287.558893 339.667836 
L 288.920699 340.015922 
L 290.282505 339.217617 
L 291.644311 338.690278 
L 293.006117 338.388048 
L 294.367923 338.402638 
L 295.729728 338.179613 
L 298.45334 339.605305 
L 301.176952 338.617326 
L 302.538758 337.573068 
L 303.900564 337.87113 
L 305.26237 337.781503 
L 306.624176 338.396385 
L 307.985982 339.697017 
L 309.347788 339.142581 
L 310.709594 338.02954 
L 312.0714 337.531382 
L 313.433206 337.450092 
L 314.795012 338.039962 
L 316.156818 339.105062 
L 317.518624 339.899198 
L 321.604042 337.029054 
L 322.965848 337.898226 
L 324.327654 338.060805 
L 325.68946 338.98417 
L 327.051266 339.692848 
L 328.413072 339.052954 
L 329.774878 338.890375 
L 331.136684 339.142581 
L 333.860296 339.111316 
L 335.222102 339.797065 
L 337.945714 340.045102 
L 339.30752 339.988825 
L 340.669326 339.44898 
L 342.031132 339.870017 
L 343.392938 339.782475 
L 344.754744 339.913789 
L 346.11655 340.347332 
L 347.478356 340.213934 
L 348.840162 339.911704 
L 354.287386 340.151404 
L 355.649192 340.338995 
L 357.010998 340.295224 
L 359.73461 339.949222 
L 361.096415 340.109717 
L 362.458221 340.022175 
L 365.181833 340.480731 
L 366.543639 340.420285 
L 367.905445 339.978403 
L 370.629057 339.938801 
L 371.990863 340.030512 
L 373.352669 339.936716 
L 374.714475 340.489068 
L 378.799893 339.682426 
L 382.885311 340.026343 
L 384.247117 340.416116 
L 385.608923 340.159741 
L 386.970729 339.699101 
L 388.332535 339.642824 
L 389.694341 339.81374 
L 391.056147 339.851258 
L 393.779759 340.436959 
L 397.865177 339.836668 
L 400.588789 339.947138 
L 403.312401 340.449465 
L 404.674207 340.188922 
L 407.397819 340.055524 
L 410.121431 340.568273 
L 412.845043 340.568273 
L 414.206849 339.690764 
L 415.568655 340.272296 
L 416.930461 340.545345 
L 418.292267 340.157657 
L 419.654073 340.034681 
L 421.015879 340.568273 
L 422.377685 340.568273 
L 423.739491 339.373943 
L 425.101297 340.257706 
L 426.463103 340.207681 
L 427.824908 339.913789 
L 429.186714 339.920042 
L 430.54852 340.568273 
L 433.272132 340.568273 
L 434.633938 338.817423 
L 435.995744 340.088874 
L 438.719356 339.834583 
L 440.081162 340.568273 
L 442.804774 340.568273 
L 444.16658 338.069143 
L 445.528386 339.901283 
L 446.890192 339.457317 
L 448.251998 339.246798 
L 449.613804 340.568273 
L 452.337416 340.568273 
L 453.699222 337.352128 
L 455.061028 339.740788 
L 456.422834 339.000845 
L 457.78464 339.17593 
L 459.146446 340.568273 
L 461.870058 340.568273 
L 463.231864 336.687222 
L 464.59367 339.459401 
L 465.955476 338.786158 
L 467.317282 338.652759 
L 468.679088 340.568273 
L 471.4027 340.568273 
L 472.764506 335.97646 
L 474.126312 339.155087 
L 475.488118 338.327602 
L 476.849924 338.915387 
L 478.21173 340.568273 
L 480.935342 340.568273 
L 482.297148 333.940054 
L 483.658954 338.536036 
L 485.02076 337.204139 
L 486.382566 337.181211 
L 487.744372 340.568273 
L 490.467984 340.568273 
L 491.82979 329.748435 
L 493.191595 336.132786 
L 494.553401 333.785813 
L 495.915207 333.923379 
L 497.277013 340.568273 
L 500.000625 340.568273 
L 501.362431 319.355888 
L 502.724237 333.902536 
L 504.086043 332.160023 
L 505.447849 330.778102 
L 506.809655 340.568273 
L 509.533267 340.568273 
L 510.895073 307.679384 
L 512.256879 331.257501 
L 513.618685 330.859391 
L 514.980491 328.083043 
L 516.342297 340.568273 
L 519.065909 340.568273 
L 520.427715 309.128004 
L 521.789521 332.2163 
L 523.151327 330.961524 
L 524.513133 325.477611 
L 525.874939 340.568273 
L 528.598551 340.568273 
L 529.960357 304.582046 
L 531.322163 330.242425 
L 534.045775 326.448916 
L 535.407581 340.568273 
L 538.131193 340.568273 
L 539.492999 303.823345 
L 540.854805 329.312807 
L 542.216611 327.051292 
L 543.578417 327.501511 
L 544.940223 340.568273 
L 547.663835 340.568273 
L 549.025641 301.340889 
L 550.387447 325.850709 
L 551.749253 324.028991 
L 553.111059 325.206646 
L 554.472865 340.568273 
L 557.196477 340.568273 
L 558.558282 296.940835 
L 559.920088 324.818958 
L 561.281894 322.0572 
L 562.6437 320.446001 
L 564.005506 340.568273 
L 566.729118 340.568273 
L 568.090924 294.047764 
L 569.45273 326.792833 
L 570.814536 340.568273 
L 576.26176 340.568273 
L 577.623566 272.858306 
L 578.985372 322.130152 
L 580.347178 340.568273 
L 585.794402 340.568273 
L 587.156208 273.10009 
L 588.518014 340.568273 
L 589.87982 314.438917 
L 591.241626 325.588081 
L 592.603432 340.568273 
L 595.327044 340.568273 
L 596.68885 304.311081 
L 598.050656 329.444121 
L 599.412462 326.853279 
L 600.774268 330.765596 
L 602.136074 340.568273 
L 604.859686 340.568273 
L 606.221492 320.185457 
L 607.583298 330.76768 
L 608.945104 330.17781 
L 610.30691 331.784841 
L 611.668716 340.568273 
L 614.392328 340.568273 
L 615.754134 321.552788 
L 617.11594 331.849455 
L 618.477746 332.053721 
L 619.839552 335.565844 
L 621.201358 340.568273 
L 623.924969 340.568273 
L 625.286775 320.456422 
L 626.648581 331.584744 
L 628.010387 332.735302 
L 629.372193 333.50651 
L 630.733999 340.568273 
L 633.457611 340.568273 
L 634.819417 323.660062 
L 636.181223 332.084987 
L 637.543029 331.536804 
L 638.904835 332.576892 
L 640.266641 340.568273 
L 642.990253 340.568273 
L 644.352059 320.854532 
L 645.713865 331.745238 
L 647.075671 330.313293 
L 648.437477 331.930745 
L 649.799283 340.568273 
L 652.522895 340.568273 
L 653.884701 317.780123 
L 655.246507 329.373253 
L 656.608313 330.156967 
L 657.970119 330.471703 
L 659.331925 340.568273 
L 662.055537 340.568273 
L 663.417343 315.964658 
L 664.779149 327.689102 
L 666.140955 330.484209 
L 667.502761 330.4988 
L 668.864567 340.568273 
L 671.588179 340.568273 
L 672.949985 317.611291 
L 674.311791 328.2352 
L 675.673597 329.521241 
L 677.035403 329.448289 
L 678.397209 340.568273 
L 681.120821 340.568273 
L 682.482627 313.967855 
L 683.844433 326.434326 
L 685.206239 327.08881 
L 686.568045 328.614551 
L 687.929851 340.568273 
L 690.653462 340.568273 
L 692.015268 311.256121 
L 693.377074 324.625114 
L 694.73888 324.506306 
L 696.100686 327.378534 
L 697.462492 340.568273 
L 700.186104 340.568273 
L 701.54791 306.328728 
L 702.909716 322.974312 
L 704.271522 323.257783 
L 705.633328 340.568273 
L 709.718746 340.568273 
L 711.080552 295.12537 
L 712.442358 326.365542 
L 713.804164 324.264522 
L 715.16597 324.368739 
L 716.527776 340.568273 
L 719.251388 340.568273 
L 720.613194 300.74685 
L 721.975 322.061369 
L 723.336806 325.779841 
L 724.698612 324.606354 
L 726.060418 340.568273 
L 728.78403 340.568273 
L 730.145836 305.776376 
L 731.507642 324.914838 
L 732.869448 324.443776 
L 734.231254 327.505679 
L 735.59306 340.568273 
L 738.316672 340.568273 
L 739.678478 309.488596 
L 741.040284 325.423418 
L 742.40209 325.648527 
L 743.763896 328.216441 
L 745.125702 340.568273 
L 747.849314 340.568273 
L 749.21112 309.407306 
L 750.572926 325.892396 
L 751.934732 326.965834 
L 753.296538 328.747949 
L 754.658344 340.568273 
L 757.381955 340.568273 
L 758.743761 311.779292 
L 760.105567 327.374365 
L 761.467373 340.568273 
L 762.829179 321.408968 
L 764.190985 340.568273 
L 766.914597 340.568273 
L 768.276403 319.689383 
L 769.638209 330.940681 
L 771.000015 333.45857 
L 772.361821 333.965066 
L 773.723627 340.568273 
L 776.447239 340.568273 
L 777.809045 327.991332 
L 779.170851 334.873841 
L 781.894463 340.568273 
L 788.703493 340.568273 
L 790.065299 322.809649 
L 791.427105 338.340108 
L 792.788911 340.568273 
L 795.512523 340.568273 
L 796.874329 335.000986 
L 798.236135 338.14001 
L 799.597941 338.836182 
L 800.959747 339.052954 
L 802.321553 340.568273 
L 805.045165 340.568273 
L 806.406971 338.108745 
L 807.768777 340.568273 
L 814.577807 340.568273 
L 815.939613 333.527354 
L 817.301419 339.517763 
L 818.663225 339.78039 
L 820.025031 340.568273 
L 824.110448 340.568273 
L 825.472254 338.802832 
L 826.83406 340.05344 
L 828.195866 339.394787 
L 829.557672 339.886692 
L 830.919478 340.568273 
L 833.64309 340.568273 
L 835.004896 338.796579 
L 836.366702 339.832499 
L 837.728508 340.099295 
L 839.090314 340.084705 
L 840.45212 340.568273 
L 843.175732 340.568273 
L 844.537538 339.173846 
L 845.899344 339.803318 
L 848.622956 339.809571 
L 849.984762 340.568273 
L 852.708374 340.568273 
L 854.07018 338.500602 
L 855.431986 339.569872 
L 856.793792 339.3531 
L 858.155598 339.613643 
L 859.517404 340.568273 
L 862.241016 340.568273 
L 863.602822 337.743985 
L 864.964628 339.232208 
L 867.68824 339.263473 
L 869.050046 340.568273 
L 871.773658 340.568273 
L 873.135464 336.69139 
L 874.49727 338.631916 
L 877.220882 338.807001 
L 878.582688 340.568273 
L 881.3063 340.568273 
L 882.668106 335.809712 
L 884.029912 337.992022 
L 885.391718 338.369288 
L 886.753523 338.410975 
L 888.115329 340.568273 
L 890.838941 340.568273 
L 892.200747 334.709178 
L 893.562553 337.816937 
L 894.924359 337.883636 
L 896.286165 338.446409 
L 897.647971 340.568273 
L 900.371583 340.568273 
L 901.733389 334.786298 
L 903.095195 337.921154 
L 904.457001 337.418827 
L 905.818807 337.912817 
L 907.180613 340.568273 
L 909.904225 340.568273 
L 911.266031 333.481498 
L 912.627837 338.267156 
L 913.989643 338.037878 
L 915.351449 337.662695 
L 916.713255 340.568273 
L 919.436867 340.568273 
L 920.798673 334.473647 
L 922.160479 337.001958 
L 923.522285 337.702298 
L 924.884091 337.479273 
L 926.245897 340.568273 
L 928.969509 340.568273 
L 930.331315 332.947906 
L 931.693121 338.281746 
L 933.054927 338.060805 
L 934.416733 338.465168 
L 935.778539 340.568273 
L 938.502151 340.568273 
L 939.863957 336.428763 
L 941.225763 338.669434 
L 942.587569 338.980002 
L 943.949375 338.971664 
L 945.311181 340.568273 
L 948.034793 340.568273 
L 949.396599 336.887319 
L 950.758405 338.788242 
L 952.12021 338.77782 
L 953.482016 338.965411 
L 954.843822 340.568273 
L 957.567434 340.568273 
L 958.92924 336.651788 
L 960.291046 339.08005 
L 961.652852 338.827845 
L 963.014658 339.027942 
L 964.376464 340.568273 
L 967.100076 340.568273 
L 968.461882 336.94568 
L 969.823688 338.68194 
L 972.5473 339.173846 
L 973.909106 340.568273 
L 976.632718 340.568273 
L 977.994524 337.104091 
L 979.35633 338.886206 
L 982.079942 338.896628 
L 983.441748 340.568273 
L 986.16536 340.568273 
L 987.527166 335.826387 
L 988.888972 337.944082 
L 990.250778 338.709037 
L 991.612584 338.296336 
L 992.97439 340.568273 
L 995.698002 340.568273 
L 997.059808 334.813395 
L 998.421614 338.167107 
L 999.78342 338.809085 
L 1001.145226 338.848688 
L 1002.507032 340.568273 
L 1005.230644 340.568273 
L 1006.59245 336.195316 
L 1007.954256 337.804431 
L 1009.316062 338.454747 
L 1010.677868 338.611073 
L 1012.039674 340.568273 
L 1014.763286 340.568273 
L 1016.125092 335.103119 
L 1017.486897 337.87113 
L 1020.210509 338.217131 
L 1021.572315 340.568273 
L 1024.295927 340.568273 
L 1025.657733 332.595651 
L 1027.019539 336.241172 
L 1028.381345 336.291196 
L 1029.743151 336.066087 
L 1031.104957 340.568273 
L 1033.828569 340.568273 
L 1035.190375 328.039272 
L 1036.552181 335.067685 
L 1039.275793 335.961869 
L 1040.637599 340.568273 
L 1043.361211 340.568273 
L 1044.723017 325.119104 
L 1046.084823 333.616981 
L 1047.446629 333.975488 
L 1048.808435 333.977572 
L 1050.170241 340.568273 
L 1052.893853 340.568273 
L 1054.255659 320.825352 
L 1055.617465 332.139179 
L 1056.979271 332.185035 
L 1058.341077 331.959926 
L 1059.702883 340.568273 
L 1062.426495 340.568273 
L 1063.788301 314.136687 
L 1065.150107 330.796861 
L 1066.511913 330.023569 
L 1067.873719 340.568273 
L 1071.959137 340.568273 
L 1073.320943 296.282182 
L 1074.682749 321.594475 
L 1076.044555 317.388266 
L 1077.406361 340.568273 
L 1081.491779 340.568273 
L 1082.853585 251.006027 
L 1084.21539 304.063044 
L 1085.577196 340.568273 
L 1086.939002 254.311799 
L 1088.300808 340.568273 
L 1091.02442 340.568273 
L 1092.386226 193.328016 
L 1093.748032 294.839815 
L 1095.109838 287.277809 
L 1096.471644 287.279894 
L 1097.83345 340.568273 
L 1100.557062 340.568273 
L 1101.918868 137.869832 
L 1103.280674 251.514607 
L 1104.64248 254.330558 
L 1106.004286 252.410876 
L 1107.366092 340.568273 
L 1110.089704 340.568273 
L 1111.45151 50.8755 
L 1112.813316 235.319242 
L 1114.175122 253.461386 
L 1115.536928 225.554083 
L 1116.898734 340.568273 
L 1119.622346 340.568273 
L 1120.984152 104.090927 
L 1122.345958 258.851504 
L 1123.707764 264.404201 
L 1125.06957 281.937716 
L 1126.431376 340.568273 
L 1129.154988 340.568273 
L 1130.516794 201.604952 
L 1131.8786 302.670701 
L 1133.240406 305.201097 
L 1134.602212 324.466703 
L 1135.964018 340.568273 
L 1138.68763 340.568273 
L 1140.049436 316.075128 
L 1141.411242 329.350325 
L 1142.773048 332.028709 
L 1144.134854 331.613924 
L 1145.49666 340.568273 
L 1148.220272 340.568273 
L 1149.582077 322.832576 
L 1150.943883 333.44398 
L 1152.305689 334.175585 
L 1153.667495 333.706607 
L 1155.029301 340.568273 
L 1157.752913 340.568273 
L 1159.114719 325.89448 
L 1160.476525 333.727451 
L 1161.838331 335.415771 
L 1163.200137 336.337052 
L 1164.561943 340.568273 
L 1167.285555 340.568273 
L 1168.647361 330.52798 
L 1170.009167 336.047327 
L 1171.370973 336.093183 
L 1172.732779 337.48761 
L 1174.094585 340.568273 
L 1176.818197 340.568273 
L 1178.180003 332.904134 
L 1179.541809 336.78727 
L 1180.903615 337.152031 
L 1182.265421 336.441269 
L 1183.627227 340.568273 
L 1189.074451 340.568273 
L 1190.436257 327.960067 
L 1191.798063 340.568273 
L 1198.607093 340.568273 
L 1199.968899 327.820415 
L 1201.330705 340.568273 
L 1208.139735 340.568273 
L 1209.501541 331.964094 
L 1210.863347 340.568273 
L 1217.672376 340.568273 
L 1219.034182 332.197541 
L 1220.395988 340.568273 
L 1227.205018 340.568273 
L 1228.566824 335.582518 
L 1229.92863 340.568273 
L 1236.73766 340.568273 
L 1238.099466 335.296963 
L 1239.461272 340.568273 
L 1246.270302 340.568273 
L 1247.632108 336.03899 
L 1248.993914 340.568273 
L 1255.802944 340.568273 
L 1257.16475 336.808114 
L 1258.526556 340.568273 
L 1265.335586 340.568273 
L 1266.697392 336.997789 
L 1268.059198 340.568273 
L 1273.506422 340.568273 
L 1274.868228 337.773166 
L 1276.230034 340.568273 
L 1284.400869 340.568273 
L 1285.762675 337.612671 
L 1287.124481 340.568273 
L 1293.933511 340.568273 
L 1295.295317 337.308357 
L 1296.657123 340.568273 
L 1303.466153 340.568273 
L 1304.827959 336.560077 
L 1306.189765 340.568273 
L 1312.998795 340.568273 
L 1312.998795 340.568273 
" clip-path="url(#p2743c02cb3)" style="fill: none; stroke: #0000ff; stroke-width: 1.5; stroke-linecap: square"/>
   </g>
   <g id="line2d_21">
    <path d="M 1073.320943 328.674071 
L 1074.682749 326.859431 
L 1076.044555 337.356828 
L 1077.406361 335.380684 
L 1080.129973 336.697431 
L 1081.491779 295.4997 
L 1082.853585 312.759028 
L 1084.21539 307.165742 
L 1085.577196 333.76642 
L 1086.939002 323.709191 
L 1088.300808 326.005172 
L 1089.662614 327.988471 
L 1091.02442 243.291152 
L 1093.748032 331.029362 
L 1095.109838 222.163573 
L 1096.471644 326.722193 
L 1097.83345 328.607844 
L 1099.195256 330.236694 
L 1100.557062 195.219994 
L 1101.918868 283.976232 
L 1103.280674 257.861563 
L 1104.64248 289.934152 
L 1106.004286 313.821511 
L 1107.366092 317.464062 
L 1108.727898 320.610546 
L 1110.089704 141.045618 
L 1111.45151 224.612878 
L 1112.813316 236.064848 
L 1114.175122 226.001859 
L 1115.536928 314.814816 
L 1116.898734 318.322092 
L 1118.26054 321.351724 
L 1119.622346 59.43904 
L 1120.984152 240.335499 
L 1122.345958 259.873115 
L 1123.707764 233.384914 
L 1125.06957 339.800697 
L 1127.793182 339.995528 
L 1129.154988 160.744468 
L 1130.516794 283.132938 
L 1131.8786 286.586871 
L 1133.240406 317.195985 
L 1134.602212 351.824144 
L 1135.964018 350.291245 
L 1137.325824 348.967106 
L 1138.68763 249.996478 
L 1140.049436 334.445003 
L 1141.411242 336.314528 
L 1142.773048 348.277289 
L 1144.134854 353.2755 
L 1145.49666 351.544946 
L 1146.858466 350.05007 
L 1148.220272 352.462238 
L 1149.582077 339.325593 
L 1150.943883 340.692596 
L 1152.305689 335.375131 
L 1153.667495 342.807856 
L 1156.391107 342.23939 
L 1157.752913 321.115181 
L 1159.114719 336.44671 
L 1160.476525 336.204284 
L 1161.838331 336.976569 
L 1163.200137 342.097878 
L 1165.923749 341.709624 
L 1167.285555 331.844302 
L 1168.647361 335.732948 
L 1170.009167 337.613009 
L 1171.370973 338.1524 
L 1172.732779 341.12022 
L 1175.456391 340.980122 
L 1176.818197 332.828871 
L 1178.180003 337.690849 
L 1179.541809 337.037645 
L 1180.903615 338.367979 
L 1182.265421 340.564414 
L 1184.989033 340.565393 
L 1186.350839 334.602557 
L 1187.712645 338.199053 
L 1189.074451 339.09508 
L 1190.436257 336.372273 
L 1191.798063 340.755892 
L 1194.521675 340.708269 
L 1195.883481 342.575461 
L 1197.245287 341.421474 
L 1198.607093 327.101406 
L 1199.968899 341.603425 
L 1201.330705 340.256602 
L 1204.054317 340.335713 
L 1205.416123 339.770733 
L 1206.777929 340.157905 
L 1208.139735 330.528864 
L 1209.501541 340.345916 
L 1210.863347 340.757626 
L 1213.586959 340.709564 
L 1214.948764 340.879051 
L 1216.31057 340.748616 
L 1217.672376 334.218206 
L 1219.034182 340.468901 
L 1220.395988 340.361783 
L 1225.843212 340.429608 
L 1227.205018 333.196686 
L 1228.566824 340.767074 
L 1234.014048 340.722442 
L 1235.375854 340.69263 
L 1236.73766 337.424527 
L 1238.099466 340.387953 
L 1244.908496 340.472456 
L 1246.270302 335.651289 
L 1247.632108 340.537671 
L 1254.441138 340.556431 
L 1255.802944 337.049832 
L 1257.16475 340.525326 
L 1263.97378 340.546708 
L 1265.335586 337.477396 
L 1266.697392 340.484265 
L 1273.506422 340.528157 
L 1274.868228 337.153766 
L 1276.230034 340.617995 
L 1281.677257 340.595819 
L 1283.039063 337.483452 
L 1284.400869 341.960898 
L 1285.762675 340.42003 
L 1291.209899 340.485779 
L 1292.571705 341.480315 
L 1293.933511 336.78557 
L 1295.295317 340.443995 
L 1300.742541 340.499064 
L 1302.104347 340.197457 
L 1303.466153 338.068094 
L 1304.827959 340.35362 
L 1311.636989 340.563424 
L 1312.998795 336.795799 
L 1312.998795 336.795799 
" clip-path="url(#p2743c02cb3)" style="fill: none; stroke: #ffa500; stroke-width: 1.5; stroke-linecap: square"/>
   </g>
   <g id="line2d_22">
    <path d="M 1312.998795 336.795799 
L 1314.360601 340.465699 
L 1315.722407 340.465698 
L 1317.084213 340.465698 
L 1318.446019 340.465698 
L 1319.807825 340.465698 
L 1321.169631 340.434577 
L 1322.531437 337.430897 
L 1323.893243 340.351618 
L 1325.255049 340.351617 
L 1326.616855 340.351617 
L 1327.978661 340.351617 
L 1329.340467 340.351617 
L 1330.702273 340.326849 
" clip-path="url(#p2743c02cb3)" style="fill: none; stroke: #ff0000; stroke-width: 1.5; stroke-linecap: square"/>
   </g>
   <g id="patch_3">
    <path d="M 52.375 368.3955 
L 52.375 35.7555 
" style="fill: none; stroke: #000000; stroke-width: 0.8; stroke-linejoin: miter; stroke-linecap: square"/>
   </g>
   <g id="patch_4">
    <path d="M 1391.575 368.3955 
L 1391.575 35.7555 
" style="fill: none; stroke: #000000; stroke-width: 0.8; stroke-linejoin: miter; stroke-linecap: square"/>
   </g>
   <g id="patch_5">
    <path d="M 52.375 368.3955 
L 1391.575 368.3955 
" style="fill: none; stroke: #000000; stroke-width: 0.8; stroke-linejoin: miter; stroke-linecap: square"/>
   </g>
   <g id="patch_6">
    <path d="M 52.375 35.7555 
L 1391.575 35.7555 
" style="fill: none; stroke: #000000; stroke-width: 0.8; stroke-linejoin: miter; stroke-linecap: square"/>
   </g>
   <g id="text_20">
    <!-- Daily Confirmed Cases Forecasting - Sweden -->
    <g transform="translate(587.763438 16.318125)scale(0.12 -0.12)">
     <defs>
      <path id="DejaVuSans-44" d="M 1259 4147 
L 1259 519 
L 2022 519 
Q 2988 519 3436 956 
Q 3884 1394 3884 2338 
Q 3884 3275 3436 3711 
Q 2988 4147 2022 4147 
L 1259 4147 
z
M 628 4666 
L 1925 4666 
Q 3281 4666 3915 4102 
Q 4550 3538 4550 2338 
Q 4550 1131 3912 565 
Q 3275 0 1925 0 
L 628 0 
L 628 4666 
z
" transform="scale(0.015625)"/>
      <path id="DejaVuSans-61" d="M 2194 1759 
Q 1497 1759 1228 1600 
Q 959 1441 959 1056 
Q 959 750 1161 570 
Q 1363 391 1709 391 
Q 2188 391 2477 730 
Q 2766 1069 2766 1631 
L 2766 1759 
L 2194 1759 
z
M 3341 1997 
L 3341 0 
L 2766 0 
L 2766 531 
Q 2569 213 2275 61 
Q 1981 -91 1556 -91 
Q 1019 -91 701 211 
Q 384 513 384 1019 
Q 384 1609 779 1909 
Q 1175 2209 1959 2209 
L 2766 2209 
L 2766 2266 
Q 2766 2663 2505 2880 
Q 2244 3097 1772 3097 
Q 1472 3097 1187 3025 
Q 903 2953 641 2809 
L 641 3341 
Q 956 3463 1253 3523 
Q 1550 3584 1831 3584 
Q 2591 3584 2966 3190 
Q 3341 2797 3341 1997 
z
" transform="scale(0.015625)"/>
      <path id="DejaVuSans-69" d="M 603 3500 
L 1178 3500 
L 1178 0 
L 603 0 
L 603 3500 
z
M 603 4863 
L 1178 4863 
L 1178 4134 
L 603 4134 
L 603 4863 
z
" transform="scale(0.015625)"/>
      <path id="DejaVuSans-6c" d="M 603 4863 
L 1178 4863 
L 1178 0 
L 603 0 
L 603 4863 
z
" transform="scale(0.015625)"/>
      <path id="DejaVuSans-79" d="M 2059 -325 
Q 1816 -950 1584 -1140 
Q 1353 -1331 966 -1331 
L 506 -1331 
L 506 -850 
L 844 -850 
Q 1081 -850 1212 -737 
Q 1344 -625 1503 -206 
L 1606 56 
L 191 3500 
L 800 3500 
L 1894 763 
L 2988 3500 
L 3597 3500 
L 2059 -325 
z
" transform="scale(0.015625)"/>
      <path id="DejaVuSans-20" transform="scale(0.015625)"/>
      <path id="DejaVuSans-43" d="M 4122 4306 
L 4122 3641 
Q 3803 3938 3442 4084 
Q 3081 4231 2675 4231 
Q 1875 4231 1450 3742 
Q 1025 3253 1025 2328 
Q 1025 1406 1450 917 
Q 1875 428 2675 428 
Q 3081 428 3442 575 
Q 3803 722 4122 1019 
L 4122 359 
Q 3791 134 3420 21 
Q 3050 -91 2638 -91 
Q 1578 -91 968 557 
Q 359 1206 359 2328 
Q 359 3453 968 4101 
Q 1578 4750 2638 4750 
Q 3056 4750 3426 4639 
Q 3797 4528 4122 4306 
z
" transform="scale(0.015625)"/>
      <path id="DejaVuSans-6f" d="M 1959 3097 
Q 1497 3097 1228 2736 
Q 959 2375 959 1747 
Q 959 1119 1226 758 
Q 1494 397 1959 397 
Q 2419 397 2687 759 
Q 2956 1122 2956 1747 
Q 2956 2369 2687 2733 
Q 2419 3097 1959 3097 
z
M 1959 3584 
Q 2709 3584 3137 3096 
Q 3566 2609 3566 1747 
Q 3566 888 3137 398 
Q 2709 -91 1959 -91 
Q 1206 -91 779 398 
Q 353 888 353 1747 
Q 353 2609 779 3096 
Q 1206 3584 1959 3584 
z
" transform="scale(0.015625)"/>
      <path id="DejaVuSans-6e" d="M 3513 2113 
L 3513 0 
L 2938 0 
L 2938 2094 
Q 2938 2591 2744 2837 
Q 2550 3084 2163 3084 
Q 1697 3084 1428 2787 
Q 1159 2491 1159 1978 
L 1159 0 
L 581 0 
L 581 3500 
L 1159 3500 
L 1159 2956 
Q 1366 3272 1645 3428 
Q 1925 3584 2291 3584 
Q 2894 3584 3203 3211 
Q 3513 2838 3513 2113 
z
" transform="scale(0.015625)"/>
      <path id="DejaVuSans-66" d="M 2375 4863 
L 2375 4384 
L 1825 4384 
Q 1516 4384 1395 4259 
Q 1275 4134 1275 3809 
L 1275 3500 
L 2222 3500 
L 2222 3053 
L 1275 3053 
L 1275 0 
L 697 0 
L 697 3053 
L 147 3053 
L 147 3500 
L 697 3500 
L 697 3744 
Q 697 4328 969 4595 
Q 1241 4863 1831 4863 
L 2375 4863 
z
" transform="scale(0.015625)"/>
      <path id="DejaVuSans-72" d="M 2631 2963 
Q 2534 3019 2420 3045 
Q 2306 3072 2169 3072 
Q 1681 3072 1420 2755 
Q 1159 2438 1159 1844 
L 1159 0 
L 581 0 
L 581 3500 
L 1159 3500 
L 1159 2956 
Q 1341 3275 1631 3429 
Q 1922 3584 2338 3584 
Q 2397 3584 2469 3576 
Q 2541 3569 2628 3553 
L 2631 2963 
z
" transform="scale(0.015625)"/>
      <path id="DejaVuSans-6d" d="M 3328 2828 
Q 3544 3216 3844 3400 
Q 4144 3584 4550 3584 
Q 5097 3584 5394 3201 
Q 5691 2819 5691 2113 
L 5691 0 
L 5113 0 
L 5113 2094 
Q 5113 2597 4934 2840 
Q 4756 3084 4391 3084 
Q 3944 3084 3684 2787 
Q 3425 2491 3425 1978 
L 3425 0 
L 2847 0 
L 2847 2094 
Q 2847 2600 2669 2842 
Q 2491 3084 2119 3084 
Q 1678 3084 1418 2786 
Q 1159 2488 1159 1978 
L 1159 0 
L 581 0 
L 581 3500 
L 1159 3500 
L 1159 2956 
Q 1356 3278 1631 3431 
Q 1906 3584 2284 3584 
Q 2666 3584 2933 3390 
Q 3200 3197 3328 2828 
z
" transform="scale(0.015625)"/>
      <path id="DejaVuSans-65" d="M 3597 1894 
L 3597 1613 
L 953 1613 
Q 991 1019 1311 708 
Q 1631 397 2203 397 
Q 2534 397 2845 478 
Q 3156 559 3463 722 
L 3463 178 
Q 3153 47 2828 -22 
Q 2503 -91 2169 -91 
Q 1331 -91 842 396 
Q 353 884 353 1716 
Q 353 2575 817 3079 
Q 1281 3584 2069 3584 
Q 2775 3584 3186 3129 
Q 3597 2675 3597 1894 
z
M 3022 2063 
Q 3016 2534 2758 2815 
Q 2500 3097 2075 3097 
Q 1594 3097 1305 2825 
Q 1016 2553 972 2059 
L 3022 2063 
z
" transform="scale(0.015625)"/>
      <path id="DejaVuSans-64" d="M 2906 2969 
L 2906 4863 
L 3481 4863 
L 3481 0 
L 2906 0 
L 2906 525 
Q 2725 213 2448 61 
Q 2172 -91 1784 -91 
Q 1150 -91 751 415 
Q 353 922 353 1747 
Q 353 2572 751 3078 
Q 1150 3584 1784 3584 
Q 2172 3584 2448 3432 
Q 2725 3281 2906 2969 
z
M 947 1747 
Q 947 1113 1208 752 
Q 1469 391 1925 391 
Q 2381 391 2643 752 
Q 2906 1113 2906 1747 
Q 2906 2381 2643 2742 
Q 2381 3103 1925 3103 
Q 1469 3103 1208 2742 
Q 947 2381 947 1747 
z
" transform="scale(0.015625)"/>
      <path id="DejaVuSans-73" d="M 2834 3397 
L 2834 2853 
Q 2591 2978 2328 3040 
Q 2066 3103 1784 3103 
Q 1356 3103 1142 2972 
Q 928 2841 928 2578 
Q 928 2378 1081 2264 
Q 1234 2150 1697 2047 
L 1894 2003 
Q 2506 1872 2764 1633 
Q 3022 1394 3022 966 
Q 3022 478 2636 193 
Q 2250 -91 1575 -91 
Q 1294 -91 989 -36 
Q 684 19 347 128 
L 347 722 
Q 666 556 975 473 
Q 1284 391 1588 391 
Q 1994 391 2212 530 
Q 2431 669 2431 922 
Q 2431 1156 2273 1281 
Q 2116 1406 1581 1522 
L 1381 1569 
Q 847 1681 609 1914 
Q 372 2147 372 2553 
Q 372 3047 722 3315 
Q 1072 3584 1716 3584 
Q 2034 3584 2315 3537 
Q 2597 3491 2834 3397 
z
" transform="scale(0.015625)"/>
      <path id="DejaVuSans-46" d="M 628 4666 
L 3309 4666 
L 3309 4134 
L 1259 4134 
L 1259 2759 
L 3109 2759 
L 3109 2228 
L 1259 2228 
L 1259 0 
L 628 0 
L 628 4666 
z
" transform="scale(0.015625)"/>
      <path id="DejaVuSans-63" d="M 3122 3366 
L 3122 2828 
Q 2878 2963 2633 3030 
Q 2388 3097 2138 3097 
Q 1578 3097 1268 2742 
Q 959 2388 959 1747 
Q 959 1106 1268 751 
Q 1578 397 2138 397 
Q 2388 397 2633 464 
Q 2878 531 3122 666 
L 3122 134 
Q 2881 22 2623 -34 
Q 2366 -91 2075 -91 
Q 1284 -91 818 406 
Q 353 903 353 1747 
Q 353 2603 823 3093 
Q 1294 3584 2113 3584 
Q 2378 3584 2631 3529 
Q 2884 3475 3122 3366 
z
" transform="scale(0.015625)"/>
      <path id="DejaVuSans-74" d="M 1172 4494 
L 1172 3500 
L 2356 3500 
L 2356 3053 
L 1172 3053 
L 1172 1153 
Q 1172 725 1289 603 
Q 1406 481 1766 481 
L 2356 481 
L 2356 0 
L 1766 0 
Q 1100 0 847 248 
Q 594 497 594 1153 
L 594 3053 
L 172 3053 
L 172 3500 
L 594 3500 
L 594 4494 
L 1172 4494 
z
" transform="scale(0.015625)"/>
      <path id="DejaVuSans-67" d="M 2906 1791 
Q 2906 2416 2648 2759 
Q 2391 3103 1925 3103 
Q 1463 3103 1205 2759 
Q 947 2416 947 1791 
Q 947 1169 1205 825 
Q 1463 481 1925 481 
Q 2391 481 2648 825 
Q 2906 1169 2906 1791 
z
M 3481 434 
Q 3481 -459 3084 -895 
Q 2688 -1331 1869 -1331 
Q 1566 -1331 1297 -1286 
Q 1028 -1241 775 -1147 
L 775 -588 
Q 1028 -725 1275 -790 
Q 1522 -856 1778 -856 
Q 2344 -856 2625 -561 
Q 2906 -266 2906 331 
L 2906 616 
Q 2728 306 2450 153 
Q 2172 0 1784 0 
Q 1141 0 747 490 
Q 353 981 353 1791 
Q 353 2603 747 3093 
Q 1141 3584 1784 3584 
Q 2172 3584 2450 3431 
Q 2728 3278 2906 2969 
L 2906 3500 
L 3481 3500 
L 3481 434 
z
" transform="scale(0.015625)"/>
      <path id="DejaVuSans-53" d="M 3425 4513 
L 3425 3897 
Q 3066 4069 2747 4153 
Q 2428 4238 2131 4238 
Q 1616 4238 1336 4038 
Q 1056 3838 1056 3469 
Q 1056 3159 1242 3001 
Q 1428 2844 1947 2747 
L 2328 2669 
Q 3034 2534 3370 2195 
Q 3706 1856 3706 1288 
Q 3706 609 3251 259 
Q 2797 -91 1919 -91 
Q 1588 -91 1214 -16 
Q 841 59 441 206 
L 441 856 
Q 825 641 1194 531 
Q 1563 422 1919 422 
Q 2459 422 2753 634 
Q 3047 847 3047 1241 
Q 3047 1584 2836 1778 
Q 2625 1972 2144 2069 
L 1759 2144 
Q 1053 2284 737 2584 
Q 422 2884 422 3419 
Q 422 4038 858 4394 
Q 1294 4750 2059 4750 
Q 2388 4750 2728 4690 
Q 3069 4631 3425 4513 
z
" transform="scale(0.015625)"/>
      <path id="DejaVuSans-77" d="M 269 3500 
L 844 3500 
L 1563 769 
L 2278 3500 
L 2956 3500 
L 3675 769 
L 4391 3500 
L 4966 3500 
L 4050 0 
L 3372 0 
L 2619 2869 
L 1863 0 
L 1184 0 
L 269 3500 
z
" transform="scale(0.015625)"/>
     </defs>
     <use xlink:href="#DejaVuSans-44"/>
     <use xlink:href="#DejaVuSans-61" x="77.001953"/>
     <use xlink:href="#DejaVuSans-69" x="138.28125"/>
     <use xlink:href="#DejaVuSans-6c" x="166.064453"/>
     <use xlink:href="#DejaVuSans-79" x="193.847656"/>
     <use xlink:href="#DejaVuSans-20" x="253.027344"/>
     <use xlink:href="#DejaVuSans-43" x="284.814453"/>
     <use xlink:href="#DejaVuSans-6f" x="354.638672"/>
     <use xlink:href="#DejaVuSans-6e" x="415.820312"/>
     <use xlink:href="#DejaVuSans-66" x="479.199219"/>
     <use xlink:href="#DejaVuSans-69" x="514.404297"/>
     <use xlink:href="#DejaVuSans-72" x="542.1875"/>
     <use xlink:href="#DejaVuSans-6d" x="581.550781"/>
     <use xlink:href="#DejaVuSans-65" x="678.962891"/>
     <use xlink:href="#DejaVuSans-64" x="740.486328"/>
     <use xlink:href="#DejaVuSans-20" x="803.962891"/>
     <use xlink:href="#DejaVuSans-43" x="835.75"/>
     <use xlink:href="#DejaVuSans-61" x="905.574219"/>
     <use xlink:href="#DejaVuSans-73" x="966.853516"/>
     <use xlink:href="#DejaVuSans-65" x="1018.953125"/>
     <use xlink:href="#DejaVuSans-73" x="1080.476562"/>
     <use xlink:href="#DejaVuSans-20" x="1132.576172"/>
     <use xlink:href="#DejaVuSans-46" x="1164.363281"/>
     <use xlink:href="#DejaVuSans-6f" x="1218.257812"/>
     <use xlink:href="#DejaVuSans-72" x="1279.439453"/>
     <use xlink:href="#DejaVuSans-65" x="1318.302734"/>
     <use xlink:href="#DejaVuSans-63" x="1379.826172"/>
     <use xlink:href="#DejaVuSans-61" x="1434.806641"/>
     <use xlink:href="#DejaVuSans-73" x="1496.085938"/>
     <use xlink:href="#DejaVuSans-74" x="1548.185547"/>
     <use xlink:href="#DejaVuSans-69" x="1587.394531"/>
     <use xlink:href="#DejaVuSans-6e" x="1615.177734"/>
     <use xlink:href="#DejaVuSans-67" x="1678.556641"/>
     <use xlink:href="#DejaVuSans-20" x="1742.033203"/>
     <use xlink:href="#DejaVuSans-2d" x="1773.820312"/>
     <use xlink:href="#DejaVuSans-20" x="1809.904297"/>
     <use xlink:href="#DejaVuSans-53" x="1841.691406"/>
     <use xlink:href="#DejaVuSans-77" x="1905.167969"/>
     <use xlink:href="#DejaVuSans-65" x="1986.955078"/>
     <use xlink:href="#DejaVuSans-64" x="2048.478516"/>
     <use xlink:href="#DejaVuSans-65" x="2111.955078"/>
     <use xlink:href="#DejaVuSans-6e" x="2173.478516"/>
    </g>
    <!-- ARIMA (0, 1, 1)x(1, 0, 1, 7) (R2 = -0.113129) -->
    <g transform="translate(587.82625 29.7555)scale(0.12 -0.12)">
     <defs>
      <path id="DejaVuSans-41" d="M 2188 4044 
L 1331 1722 
L 3047 1722 
L 2188 4044 
z
M 1831 4666 
L 2547 4666 
L 4325 0 
L 3669 0 
L 3244 1197 
L 1141 1197 
L 716 0 
L 50 0 
L 1831 4666 
z
" transform="scale(0.015625)"/>
      <path id="DejaVuSans-52" d="M 2841 2188 
Q 3044 2119 3236 1894 
Q 3428 1669 3622 1275 
L 4263 0 
L 3584 0 
L 2988 1197 
Q 2756 1666 2539 1819 
Q 2322 1972 1947 1972 
L 1259 1972 
L 1259 0 
L 628 0 
L 628 4666 
L 2053 4666 
Q 2853 4666 3247 4331 
Q 3641 3997 3641 3322 
Q 3641 2881 3436 2590 
Q 3231 2300 2841 2188 
z
M 1259 4147 
L 1259 2491 
L 2053 2491 
Q 2509 2491 2742 2702 
Q 2975 2913 2975 3322 
Q 2975 3731 2742 3939 
Q 2509 4147 2053 4147 
L 1259 4147 
z
" transform="scale(0.015625)"/>
      <path id="DejaVuSans-49" d="M 628 4666 
L 1259 4666 
L 1259 0 
L 628 0 
L 628 4666 
z
" transform="scale(0.015625)"/>
      <path id="DejaVuSans-4d" d="M 628 4666 
L 1569 4666 
L 2759 1491 
L 3956 4666 
L 4897 4666 
L 4897 0 
L 4281 0 
L 4281 4097 
L 3078 897 
L 2444 897 
L 1241 4097 
L 1241 0 
L 628 0 
L 628 4666 
z
" transform="scale(0.015625)"/>
      <path id="DejaVuSans-28" d="M 1984 4856 
Q 1566 4138 1362 3434 
Q 1159 2731 1159 2009 
Q 1159 1288 1364 580 
Q 1569 -128 1984 -844 
L 1484 -844 
Q 1016 -109 783 600 
Q 550 1309 550 2009 
Q 550 2706 781 3412 
Q 1013 4119 1484 4856 
L 1984 4856 
z
" transform="scale(0.015625)"/>
      <path id="DejaVuSans-2c" d="M 750 794 
L 1409 794 
L 1409 256 
L 897 -744 
L 494 -744 
L 750 256 
L 750 794 
z
" transform="scale(0.015625)"/>
      <path id="DejaVuSans-29" d="M 513 4856 
L 1013 4856 
Q 1481 4119 1714 3412 
Q 1947 2706 1947 2009 
Q 1947 1309 1714 600 
Q 1481 -109 1013 -844 
L 513 -844 
Q 928 -128 1133 580 
Q 1338 1288 1338 2009 
Q 1338 2731 1133 3434 
Q 928 4138 513 4856 
z
" transform="scale(0.015625)"/>
      <path id="DejaVuSans-78" d="M 3513 3500 
L 2247 1797 
L 3578 0 
L 2900 0 
L 1881 1375 
L 863 0 
L 184 0 
L 1544 1831 
L 300 3500 
L 978 3500 
L 1906 2253 
L 2834 3500 
L 3513 3500 
z
" transform="scale(0.015625)"/>
      <path id="DejaVuSans-3d" d="M 678 2906 
L 4684 2906 
L 4684 2381 
L 678 2381 
L 678 2906 
z
M 678 1631 
L 4684 1631 
L 4684 1100 
L 678 1100 
L 678 1631 
z
" transform="scale(0.015625)"/>
      <path id="DejaVuSans-2e" d="M 684 794 
L 1344 794 
L 1344 0 
L 684 0 
L 684 794 
z
" transform="scale(0.015625)"/>
      <path id="DejaVuSans-33" d="M 2597 2516 
Q 3050 2419 3304 2112 
Q 3559 1806 3559 1356 
Q 3559 666 3084 287 
Q 2609 -91 1734 -91 
Q 1441 -91 1130 -33 
Q 819 25 488 141 
L 488 750 
Q 750 597 1062 519 
Q 1375 441 1716 441 
Q 2309 441 2620 675 
Q 2931 909 2931 1356 
Q 2931 1769 2642 2001 
Q 2353 2234 1838 2234 
L 1294 2234 
L 1294 2753 
L 1863 2753 
Q 2328 2753 2575 2939 
Q 2822 3125 2822 3475 
Q 2822 3834 2567 4026 
Q 2313 4219 1838 4219 
Q 1578 4219 1281 4162 
Q 984 4106 628 3988 
L 628 4550 
Q 988 4650 1302 4700 
Q 1616 4750 1894 4750 
Q 2613 4750 3031 4423 
Q 3450 4097 3450 3541 
Q 3450 3153 3228 2886 
Q 3006 2619 2597 2516 
z
" transform="scale(0.015625)"/>
      <path id="DejaVuSans-39" d="M 703 97 
L 703 672 
Q 941 559 1184 500 
Q 1428 441 1663 441 
Q 2288 441 2617 861 
Q 2947 1281 2994 2138 
Q 2813 1869 2534 1725 
Q 2256 1581 1919 1581 
Q 1219 1581 811 2004 
Q 403 2428 403 3163 
Q 403 3881 828 4315 
Q 1253 4750 1959 4750 
Q 2769 4750 3195 4129 
Q 3622 3509 3622 2328 
Q 3622 1225 3098 567 
Q 2575 -91 1691 -91 
Q 1453 -91 1209 -44 
Q 966 3 703 97 
z
M 1959 2075 
Q 2384 2075 2632 2365 
Q 2881 2656 2881 3163 
Q 2881 3666 2632 3958 
Q 2384 4250 1959 4250 
Q 1534 4250 1286 3958 
Q 1038 3666 1038 3163 
Q 1038 2656 1286 2365 
Q 1534 2075 1959 2075 
z
" transform="scale(0.015625)"/>
     </defs>
     <use xlink:href="#DejaVuSans-41"/>
     <use xlink:href="#DejaVuSans-52" x="68.408203"/>
     <use xlink:href="#DejaVuSans-49" x="137.890625"/>
     <use xlink:href="#DejaVuSans-4d" x="167.382812"/>
     <use xlink:href="#DejaVuSans-41" x="253.662109"/>
     <use xlink:href="#DejaVuSans-20" x="322.070312"/>
     <use xlink:href="#DejaVuSans-28" x="353.857422"/>
     <use xlink:href="#DejaVuSans-30" x="392.871094"/>
     <use xlink:href="#DejaVuSans-2c" x="456.494141"/>
     <use xlink:href="#DejaVuSans-20" x="488.28125"/>
     <use xlink:href="#DejaVuSans-31" x="520.068359"/>
     <use xlink:href="#DejaVuSans-2c" x="583.691406"/>
     <use xlink:href="#DejaVuSans-20" x="615.478516"/>
     <use xlink:href="#DejaVuSans-31" x="647.265625"/>
     <use xlink:href="#DejaVuSans-29" x="710.888672"/>
     <use xlink:href="#DejaVuSans-78" x="749.902344"/>
     <use xlink:href="#DejaVuSans-28" x="809.082031"/>
     <use xlink:href="#DejaVuSans-31" x="848.095703"/>
     <use xlink:href="#DejaVuSans-2c" x="911.71875"/>
     <use xlink:href="#DejaVuSans-20" x="943.505859"/>
     <use xlink:href="#DejaVuSans-30" x="975.292969"/>
     <use xlink:href="#DejaVuSans-2c" x="1038.916016"/>
     <use xlink:href="#DejaVuSans-20" x="1070.703125"/>
     <use xlink:href="#DejaVuSans-31" x="1102.490234"/>
     <use xlink:href="#DejaVuSans-2c" x="1166.113281"/>
     <use xlink:href="#DejaVuSans-20" x="1197.900391"/>
     <use xlink:href="#DejaVuSans-37" x="1229.6875"/>
     <use xlink:href="#DejaVuSans-29" x="1293.310547"/>
     <use xlink:href="#DejaVuSans-20" x="1332.324219"/>
     <use xlink:href="#DejaVuSans-28" x="1364.111328"/>
     <use xlink:href="#DejaVuSans-52" x="1403.125"/>
     <use xlink:href="#DejaVuSans-32" x="1472.607422"/>
     <use xlink:href="#DejaVuSans-20" x="1536.230469"/>
     <use xlink:href="#DejaVuSans-3d" x="1568.017578"/>
     <use xlink:href="#DejaVuSans-20" x="1651.806641"/>
     <use xlink:href="#DejaVuSans-2d" x="1683.59375"/>
     <use xlink:href="#DejaVuSans-30" x="1719.677734"/>
     <use xlink:href="#DejaVuSans-2e" x="1783.300781"/>
     <use xlink:href="#DejaVuSans-31" x="1815.087891"/>
     <use xlink:href="#DejaVuSans-31" x="1878.710938"/>
     <use xlink:href="#DejaVuSans-33" x="1942.333984"/>
     <use xlink:href="#DejaVuSans-31" x="2005.957031"/>
     <use xlink:href="#DejaVuSans-32" x="2069.580078"/>
     <use xlink:href="#DejaVuSans-39" x="2133.203125"/>
     <use xlink:href="#DejaVuSans-29" x="2196.826172"/>
    </g>
   </g>
   <g id="legend_1">
    <g id="patch_7">
     <path d="M 1287.495312 87.789875 
L 1384.575 87.789875 
Q 1386.575 87.789875 1386.575 85.789875 
L 1386.575 42.7555 
Q 1386.575 40.7555 1384.575 40.7555 
L 1287.495312 40.7555 
Q 1285.495312 40.7555 1285.495312 42.7555 
L 1285.495312 85.789875 
Q 1285.495312 87.789875 1287.495312 87.789875 
z
" style="fill: #ffffff; opacity: 0.8; stroke: #cccccc; stroke-linejoin: miter"/>
    </g>
    <g id="line2d_23">
     <path d="M 1289.495312 48.853937 
L 1299.495312 48.853937 
L 1309.495312 48.853937 
" style="fill: none; stroke: #0000ff; stroke-width: 1.5; stroke-linecap: square"/>
    </g>
    <g id="text_21">
     <!-- Actual Value -->
     <g transform="translate(1317.495312 52.353937)scale(0.1 -0.1)">
      <defs>
       <path id="DejaVuSans-75" d="M 544 1381 
L 544 3500 
L 1119 3500 
L 1119 1403 
Q 1119 906 1312 657 
Q 1506 409 1894 409 
Q 2359 409 2629 706 
Q 2900 1003 2900 1516 
L 2900 3500 
L 3475 3500 
L 3475 0 
L 2900 0 
L 2900 538 
Q 2691 219 2414 64 
Q 2138 -91 1772 -91 
Q 1169 -91 856 284 
Q 544 659 544 1381 
z
M 1991 3584 
L 1991 3584 
z
" transform="scale(0.015625)"/>
       <path id="DejaVuSans-56" d="M 1831 0 
L 50 4666 
L 709 4666 
L 2188 738 
L 3669 4666 
L 4325 4666 
L 2547 0 
L 1831 0 
z
" transform="scale(0.015625)"/>
      </defs>
      <use xlink:href="#DejaVuSans-41"/>
      <use xlink:href="#DejaVuSans-63" x="66.658203"/>
      <use xlink:href="#DejaVuSans-74" x="121.638672"/>
      <use xlink:href="#DejaVuSans-75" x="160.847656"/>
      <use xlink:href="#DejaVuSans-61" x="224.226562"/>
      <use xlink:href="#DejaVuSans-6c" x="285.505859"/>
      <use xlink:href="#DejaVuSans-20" x="313.289062"/>
      <use xlink:href="#DejaVuSans-56" x="345.076172"/>
      <use xlink:href="#DejaVuSans-61" x="405.734375"/>
      <use xlink:href="#DejaVuSans-6c" x="467.013672"/>
      <use xlink:href="#DejaVuSans-75" x="494.796875"/>
      <use xlink:href="#DejaVuSans-65" x="558.175781"/>
     </g>
    </g>
    <g id="line2d_24">
     <path d="M 1289.495312 63.532062 
L 1299.495312 63.532062 
L 1309.495312 63.532062 
" style="fill: none; stroke: #ffa500; stroke-width: 1.5; stroke-linecap: square"/>
    </g>
    <g id="text_22">
     <!-- Check Value -->
     <g transform="translate(1317.495312 67.032062)scale(0.1 -0.1)">
      <defs>
       <path id="DejaVuSans-68" d="M 3513 2113 
L 3513 0 
L 2938 0 
L 2938 2094 
Q 2938 2591 2744 2837 
Q 2550 3084 2163 3084 
Q 1697 3084 1428 2787 
Q 1159 2491 1159 1978 
L 1159 0 
L 581 0 
L 581 4863 
L 1159 4863 
L 1159 2956 
Q 1366 3272 1645 3428 
Q 1925 3584 2291 3584 
Q 2894 3584 3203 3211 
Q 3513 2838 3513 2113 
z
" transform="scale(0.015625)"/>
       <path id="DejaVuSans-6b" d="M 581 4863 
L 1159 4863 
L 1159 1991 
L 2875 3500 
L 3609 3500 
L 1753 1863 
L 3688 0 
L 2938 0 
L 1159 1709 
L 1159 0 
L 581 0 
L 581 4863 
z
" transform="scale(0.015625)"/>
      </defs>
      <use xlink:href="#DejaVuSans-43"/>
      <use xlink:href="#DejaVuSans-68" x="69.824219"/>
      <use xlink:href="#DejaVuSans-65" x="133.203125"/>
      <use xlink:href="#DejaVuSans-63" x="194.726562"/>
      <use xlink:href="#DejaVuSans-6b" x="249.707031"/>
      <use xlink:href="#DejaVuSans-20" x="307.617188"/>
      <use xlink:href="#DejaVuSans-56" x="339.404297"/>
      <use xlink:href="#DejaVuSans-61" x="400.0625"/>
      <use xlink:href="#DejaVuSans-6c" x="461.341797"/>
      <use xlink:href="#DejaVuSans-75" x="489.125"/>
      <use xlink:href="#DejaVuSans-65" x="552.503906"/>
     </g>
    </g>
    <g id="line2d_25">
     <path d="M 1289.495312 78.210187 
L 1299.495312 78.210187 
L 1309.495312 78.210187 
" style="fill: none; stroke: #ff0000; stroke-width: 1.5; stroke-linecap: square"/>
    </g>
    <g id="text_23">
     <!-- Predict Value -->
     <g transform="translate(1317.495312 81.710187)scale(0.1 -0.1)">
      <defs>
       <path id="DejaVuSans-50" d="M 1259 4147 
L 1259 2394 
L 2053 2394 
Q 2494 2394 2734 2622 
Q 2975 2850 2975 3272 
Q 2975 3691 2734 3919 
Q 2494 4147 2053 4147 
L 1259 4147 
z
M 628 4666 
L 2053 4666 
Q 2838 4666 3239 4311 
Q 3641 3956 3641 3272 
Q 3641 2581 3239 2228 
Q 2838 1875 2053 1875 
L 1259 1875 
L 1259 0 
L 628 0 
L 628 4666 
z
" transform="scale(0.015625)"/>
      </defs>
      <use xlink:href="#DejaVuSans-50"/>
      <use xlink:href="#DejaVuSans-72" x="58.552734"/>
      <use xlink:href="#DejaVuSans-65" x="97.416016"/>
      <use xlink:href="#DejaVuSans-64" x="158.939453"/>
      <use xlink:href="#DejaVuSans-69" x="222.416016"/>
      <use xlink:href="#DejaVuSans-63" x="250.199219"/>
      <use xlink:href="#DejaVuSans-74" x="305.179688"/>
      <use xlink:href="#DejaVuSans-20" x="344.388672"/>
      <use xlink:href="#DejaVuSans-56" x="376.175781"/>
      <use xlink:href="#DejaVuSans-61" x="436.833984"/>
      <use xlink:href="#DejaVuSans-6c" x="498.113281"/>
      <use xlink:href="#DejaVuSans-75" x="525.896484"/>
      <use xlink:href="#DejaVuSans-65" x="589.275391"/>
     </g>
    </g>
   </g>
  </g>
 </g>
 <defs>
  <clipPath id="p2743c02cb3">
   <rect x="52.375" y="35.7555" width="1339.2" height="332.64"/>
  </clipPath>
 </defs>
</svg>
