<?xml version="1.0" encoding="utf-8" standalone="no"?>
<!DOCTYPE svg PUBLIC "-//W3C//DTD SVG 1.1//EN"
  "http://www.w3.org/Graphics/SVG/1.1/DTD/svg11.dtd">
<svg xmlns:xlink="http://www.w3.org/1999/xlink" width="1392.4125pt" height="392.273625pt" viewBox="0 0 1392.4125 392.273625" xmlns="http://www.w3.org/2000/svg" version="1.1">
 <metadata>
  <rdf:RDF xmlns:dc="http://purl.org/dc/elements/1.1/" xmlns:cc="http://creativecommons.org/ns#" xmlns:rdf="http://www.w3.org/1999/02/22-rdf-syntax-ns#">
   <cc:Work>
    <dc:type rdf:resource="http://purl.org/dc/dcmitype/StillImage"/>
    <dc:date>2022-07-26T20:20:03.049449</dc:date>
    <dc:format>image/svg+xml</dc:format>
    <dc:creator>
     <cc:Agent>
      <dc:title>Matplotlib v3.5.2, https://matplotlib.org/</dc:title>
     </cc:Agent>
    </dc:creator>
   </cc:Work>
  </rdf:RDF>
 </metadata>
 <defs>
  <style type="text/css">*{stroke-linejoin: round; stroke-linecap: butt}</style>
 </defs>
 <g id="figure_1">
  <g id="patch_1">
   <path d="M 0 392.273625 
L 1392.4125 392.273625 
L 1392.4125 0 
L 0 0 
z
" style="fill: #ffffff"/>
  </g>
  <g id="axes_1">
   <g id="patch_2">
    <path d="M 46.0125 368.3955 
L 1385.2125 368.3955 
L 1385.2125 35.7555 
L 46.0125 35.7555 
z
" style="fill: #ffffff"/>
   </g>
   <g id="matplotlib.axis_1">
    <g id="xtick_1">
     <g id="line2d_1">
      <defs>
       <path id="m279f94dacc" d="M 0 0 
L 0 3.5 
" style="stroke: #000000; stroke-width: 0.8"/>
      </defs>
      <g>
       <use xlink:href="#m279f94dacc" x="77.992023" y="368.3955" style="stroke: #000000; stroke-width: 0.8"/>
      </g>
     </g>
     <g id="text_1">
      <!-- 2020-01 -->
      <g transform="translate(57.100617 382.993937)scale(0.1 -0.1)">
       <defs>
        <path id="DejaVuSans-32" d="M 1228 531 
L 3431 531 
L 3431 0 
L 469 0 
L 469 531 
Q 828 903 1448 1529 
Q 2069 2156 2228 2338 
Q 2531 2678 2651 2914 
Q 2772 3150 2772 3378 
Q 2772 3750 2511 3984 
Q 2250 4219 1831 4219 
Q 1534 4219 1204 4116 
Q 875 4013 500 3803 
L 500 4441 
Q 881 4594 1212 4672 
Q 1544 4750 1819 4750 
Q 2544 4750 2975 4387 
Q 3406 4025 3406 3419 
Q 3406 3131 3298 2873 
Q 3191 2616 2906 2266 
Q 2828 2175 2409 1742 
Q 1991 1309 1228 531 
z
" transform="scale(0.015625)"/>
        <path id="DejaVuSans-30" d="M 2034 4250 
Q 1547 4250 1301 3770 
Q 1056 3291 1056 2328 
Q 1056 1369 1301 889 
Q 1547 409 2034 409 
Q 2525 409 2770 889 
Q 3016 1369 3016 2328 
Q 3016 3291 2770 3770 
Q 2525 4250 2034 4250 
z
M 2034 4750 
Q 2819 4750 3233 4129 
Q 3647 3509 3647 2328 
Q 3647 1150 3233 529 
Q 2819 -91 2034 -91 
Q 1250 -91 836 529 
Q 422 1150 422 2328 
Q 422 3509 836 4129 
Q 1250 4750 2034 4750 
z
" transform="scale(0.015625)"/>
        <path id="DejaVuSans-2d" d="M 313 2009 
L 1997 2009 
L 1997 1497 
L 313 1497 
L 313 2009 
z
" transform="scale(0.015625)"/>
        <path id="DejaVuSans-31" d="M 794 531 
L 1825 531 
L 1825 4091 
L 703 3866 
L 703 4441 
L 1819 4666 
L 2450 4666 
L 2450 531 
L 3481 531 
L 3481 0 
L 794 0 
L 794 531 
z
" transform="scale(0.015625)"/>
       </defs>
       <use xlink:href="#DejaVuSans-32"/>
       <use xlink:href="#DejaVuSans-30" x="63.623047"/>
       <use xlink:href="#DejaVuSans-32" x="127.246094"/>
       <use xlink:href="#DejaVuSans-30" x="190.869141"/>
       <use xlink:href="#DejaVuSans-2d" x="254.492188"/>
       <use xlink:href="#DejaVuSans-30" x="290.576172"/>
       <use xlink:href="#DejaVuSans-31" x="354.199219"/>
      </g>
     </g>
    </g>
    <g id="xtick_2">
     <g id="line2d_2">
      <g>
       <use xlink:href="#m279f94dacc" x="197.504821" y="368.3955" style="stroke: #000000; stroke-width: 0.8"/>
      </g>
     </g>
     <g id="text_2">
      <!-- 2020-04 -->
      <g transform="translate(176.613415 382.993937)scale(0.1 -0.1)">
       <defs>
        <path id="DejaVuSans-34" d="M 2419 4116 
L 825 1625 
L 2419 1625 
L 2419 4116 
z
M 2253 4666 
L 3047 4666 
L 3047 1625 
L 3713 1625 
L 3713 1100 
L 3047 1100 
L 3047 0 
L 2419 0 
L 2419 1100 
L 313 1100 
L 313 1709 
L 2253 4666 
z
" transform="scale(0.015625)"/>
       </defs>
       <use xlink:href="#DejaVuSans-32"/>
       <use xlink:href="#DejaVuSans-30" x="63.623047"/>
       <use xlink:href="#DejaVuSans-32" x="127.246094"/>
       <use xlink:href="#DejaVuSans-30" x="190.869141"/>
       <use xlink:href="#DejaVuSans-2d" x="254.492188"/>
       <use xlink:href="#DejaVuSans-30" x="290.576172"/>
       <use xlink:href="#DejaVuSans-34" x="354.199219"/>
      </g>
     </g>
    </g>
    <g id="xtick_3">
     <g id="line2d_3">
      <g>
       <use xlink:href="#m279f94dacc" x="317.017619" y="368.3955" style="stroke: #000000; stroke-width: 0.8"/>
      </g>
     </g>
     <g id="text_3">
      <!-- 2020-07 -->
      <g transform="translate(296.126213 382.993937)scale(0.1 -0.1)">
       <defs>
        <path id="DejaVuSans-37" d="M 525 4666 
L 3525 4666 
L 3525 4397 
L 1831 0 
L 1172 0 
L 2766 4134 
L 525 4134 
L 525 4666 
z
" transform="scale(0.015625)"/>
       </defs>
       <use xlink:href="#DejaVuSans-32"/>
       <use xlink:href="#DejaVuSans-30" x="63.623047"/>
       <use xlink:href="#DejaVuSans-32" x="127.246094"/>
       <use xlink:href="#DejaVuSans-30" x="190.869141"/>
       <use xlink:href="#DejaVuSans-2d" x="254.492188"/>
       <use xlink:href="#DejaVuSans-30" x="290.576172"/>
       <use xlink:href="#DejaVuSans-37" x="354.199219"/>
      </g>
     </g>
    </g>
    <g id="xtick_4">
     <g id="line2d_4">
      <g>
       <use xlink:href="#m279f94dacc" x="437.843744" y="368.3955" style="stroke: #000000; stroke-width: 0.8"/>
      </g>
     </g>
     <g id="text_4">
      <!-- 2020-10 -->
      <g transform="translate(416.952338 382.993937)scale(0.1 -0.1)">
       <use xlink:href="#DejaVuSans-32"/>
       <use xlink:href="#DejaVuSans-30" x="63.623047"/>
       <use xlink:href="#DejaVuSans-32" x="127.246094"/>
       <use xlink:href="#DejaVuSans-30" x="190.869141"/>
       <use xlink:href="#DejaVuSans-2d" x="254.492188"/>
       <use xlink:href="#DejaVuSans-31" x="290.576172"/>
       <use xlink:href="#DejaVuSans-30" x="354.199219"/>
      </g>
     </g>
    </g>
    <g id="xtick_5">
     <g id="line2d_5">
      <g>
       <use xlink:href="#m279f94dacc" x="558.66987" y="368.3955" style="stroke: #000000; stroke-width: 0.8"/>
      </g>
     </g>
     <g id="text_5">
      <!-- 2021-01 -->
      <g transform="translate(537.778464 382.993937)scale(0.1 -0.1)">
       <use xlink:href="#DejaVuSans-32"/>
       <use xlink:href="#DejaVuSans-30" x="63.623047"/>
       <use xlink:href="#DejaVuSans-32" x="127.246094"/>
       <use xlink:href="#DejaVuSans-31" x="190.869141"/>
       <use xlink:href="#DejaVuSans-2d" x="254.492188"/>
       <use xlink:href="#DejaVuSans-30" x="290.576172"/>
       <use xlink:href="#DejaVuSans-31" x="354.199219"/>
      </g>
     </g>
    </g>
    <g id="xtick_6">
     <g id="line2d_6">
      <g>
       <use xlink:href="#m279f94dacc" x="676.86934" y="368.3955" style="stroke: #000000; stroke-width: 0.8"/>
      </g>
     </g>
     <g id="text_6">
      <!-- 2021-04 -->
      <g transform="translate(655.977934 382.993937)scale(0.1 -0.1)">
       <use xlink:href="#DejaVuSans-32"/>
       <use xlink:href="#DejaVuSans-30" x="63.623047"/>
       <use xlink:href="#DejaVuSans-32" x="127.246094"/>
       <use xlink:href="#DejaVuSans-31" x="190.869141"/>
       <use xlink:href="#DejaVuSans-2d" x="254.492188"/>
       <use xlink:href="#DejaVuSans-30" x="290.576172"/>
       <use xlink:href="#DejaVuSans-34" x="354.199219"/>
      </g>
     </g>
    </g>
    <g id="xtick_7">
     <g id="line2d_7">
      <g>
       <use xlink:href="#m279f94dacc" x="796.382138" y="368.3955" style="stroke: #000000; stroke-width: 0.8"/>
      </g>
     </g>
     <g id="text_7">
      <!-- 2021-07 -->
      <g transform="translate(775.490732 382.993937)scale(0.1 -0.1)">
       <use xlink:href="#DejaVuSans-32"/>
       <use xlink:href="#DejaVuSans-30" x="63.623047"/>
       <use xlink:href="#DejaVuSans-32" x="127.246094"/>
       <use xlink:href="#DejaVuSans-31" x="190.869141"/>
       <use xlink:href="#DejaVuSans-2d" x="254.492188"/>
       <use xlink:href="#DejaVuSans-30" x="290.576172"/>
       <use xlink:href="#DejaVuSans-37" x="354.199219"/>
      </g>
     </g>
    </g>
    <g id="xtick_8">
     <g id="line2d_8">
      <g>
       <use xlink:href="#m279f94dacc" x="917.208263" y="368.3955" style="stroke: #000000; stroke-width: 0.8"/>
      </g>
     </g>
     <g id="text_8">
      <!-- 2021-10 -->
      <g transform="translate(896.316857 382.993937)scale(0.1 -0.1)">
       <use xlink:href="#DejaVuSans-32"/>
       <use xlink:href="#DejaVuSans-30" x="63.623047"/>
       <use xlink:href="#DejaVuSans-32" x="127.246094"/>
       <use xlink:href="#DejaVuSans-31" x="190.869141"/>
       <use xlink:href="#DejaVuSans-2d" x="254.492188"/>
       <use xlink:href="#DejaVuSans-31" x="290.576172"/>
       <use xlink:href="#DejaVuSans-30" x="354.199219"/>
      </g>
     </g>
    </g>
    <g id="xtick_9">
     <g id="line2d_9">
      <g>
       <use xlink:href="#m279f94dacc" x="1038.034389" y="368.3955" style="stroke: #000000; stroke-width: 0.8"/>
      </g>
     </g>
     <g id="text_9">
      <!-- 2022-01 -->
      <g transform="translate(1017.142983 382.993937)scale(0.1 -0.1)">
       <use xlink:href="#DejaVuSans-32"/>
       <use xlink:href="#DejaVuSans-30" x="63.623047"/>
       <use xlink:href="#DejaVuSans-32" x="127.246094"/>
       <use xlink:href="#DejaVuSans-32" x="190.869141"/>
       <use xlink:href="#DejaVuSans-2d" x="254.492188"/>
       <use xlink:href="#DejaVuSans-30" x="290.576172"/>
       <use xlink:href="#DejaVuSans-31" x="354.199219"/>
      </g>
     </g>
    </g>
    <g id="xtick_10">
     <g id="line2d_10">
      <g>
       <use xlink:href="#m279f94dacc" x="1156.233859" y="368.3955" style="stroke: #000000; stroke-width: 0.8"/>
      </g>
     </g>
     <g id="text_10">
      <!-- 2022-04 -->
      <g transform="translate(1135.342453 382.993937)scale(0.1 -0.1)">
       <use xlink:href="#DejaVuSans-32"/>
       <use xlink:href="#DejaVuSans-30" x="63.623047"/>
       <use xlink:href="#DejaVuSans-32" x="127.246094"/>
       <use xlink:href="#DejaVuSans-32" x="190.869141"/>
       <use xlink:href="#DejaVuSans-2d" x="254.492188"/>
       <use xlink:href="#DejaVuSans-30" x="290.576172"/>
       <use xlink:href="#DejaVuSans-34" x="354.199219"/>
      </g>
     </g>
    </g>
    <g id="xtick_11">
     <g id="line2d_11">
      <g>
       <use xlink:href="#m279f94dacc" x="1275.746657" y="368.3955" style="stroke: #000000; stroke-width: 0.8"/>
      </g>
     </g>
     <g id="text_11">
      <!-- 2022-07 -->
      <g transform="translate(1254.855251 382.993937)scale(0.1 -0.1)">
       <use xlink:href="#DejaVuSans-32"/>
       <use xlink:href="#DejaVuSans-30" x="63.623047"/>
       <use xlink:href="#DejaVuSans-32" x="127.246094"/>
       <use xlink:href="#DejaVuSans-32" x="190.869141"/>
       <use xlink:href="#DejaVuSans-2d" x="254.492188"/>
       <use xlink:href="#DejaVuSans-30" x="290.576172"/>
       <use xlink:href="#DejaVuSans-37" x="354.199219"/>
      </g>
     </g>
    </g>
   </g>
   <g id="matplotlib.axis_2">
    <g id="ytick_1">
     <g id="line2d_12">
      <defs>
       <path id="m259835cc0d" d="M 0 0 
L -3.5 0 
" style="stroke: #000000; stroke-width: 0.8"/>
      </defs>
      <g>
       <use xlink:href="#m259835cc0d" x="46.0125" y="344.249985" style="stroke: #000000; stroke-width: 0.8"/>
      </g>
     </g>
     <g id="text_12">
      <!-- 0 -->
      <g transform="translate(32.65 348.049204)scale(0.1 -0.1)">
       <use xlink:href="#DejaVuSans-30"/>
      </g>
     </g>
    </g>
    <g id="ytick_2">
     <g id="line2d_13">
      <g>
       <use xlink:href="#m259835cc0d" x="46.0125" y="292.788" style="stroke: #000000; stroke-width: 0.8"/>
      </g>
     </g>
     <g id="text_13">
      <!-- 5000 -->
      <g transform="translate(13.5625 296.587219)scale(0.1 -0.1)">
       <defs>
        <path id="DejaVuSans-35" d="M 691 4666 
L 3169 4666 
L 3169 4134 
L 1269 4134 
L 1269 2991 
Q 1406 3038 1543 3061 
Q 1681 3084 1819 3084 
Q 2600 3084 3056 2656 
Q 3513 2228 3513 1497 
Q 3513 744 3044 326 
Q 2575 -91 1722 -91 
Q 1428 -91 1123 -41 
Q 819 9 494 109 
L 494 744 
Q 775 591 1075 516 
Q 1375 441 1709 441 
Q 2250 441 2565 725 
Q 2881 1009 2881 1497 
Q 2881 1984 2565 2268 
Q 2250 2553 1709 2553 
Q 1456 2553 1204 2497 
Q 953 2441 691 2322 
L 691 4666 
z
" transform="scale(0.015625)"/>
       </defs>
       <use xlink:href="#DejaVuSans-35"/>
       <use xlink:href="#DejaVuSans-30" x="63.623047"/>
       <use xlink:href="#DejaVuSans-30" x="127.246094"/>
       <use xlink:href="#DejaVuSans-30" x="190.869141"/>
      </g>
     </g>
    </g>
    <g id="ytick_3">
     <g id="line2d_14">
      <g>
       <use xlink:href="#m259835cc0d" x="46.0125" y="241.326015" style="stroke: #000000; stroke-width: 0.8"/>
      </g>
     </g>
     <g id="text_14">
      <!-- 10000 -->
      <g transform="translate(7.2 245.125233)scale(0.1 -0.1)">
       <use xlink:href="#DejaVuSans-31"/>
       <use xlink:href="#DejaVuSans-30" x="63.623047"/>
       <use xlink:href="#DejaVuSans-30" x="127.246094"/>
       <use xlink:href="#DejaVuSans-30" x="190.869141"/>
       <use xlink:href="#DejaVuSans-30" x="254.492188"/>
      </g>
     </g>
    </g>
    <g id="ytick_4">
     <g id="line2d_15">
      <g>
       <use xlink:href="#m259835cc0d" x="46.0125" y="189.86403" style="stroke: #000000; stroke-width: 0.8"/>
      </g>
     </g>
     <g id="text_15">
      <!-- 15000 -->
      <g transform="translate(7.2 193.663248)scale(0.1 -0.1)">
       <use xlink:href="#DejaVuSans-31"/>
       <use xlink:href="#DejaVuSans-35" x="63.623047"/>
       <use xlink:href="#DejaVuSans-30" x="127.246094"/>
       <use xlink:href="#DejaVuSans-30" x="190.869141"/>
       <use xlink:href="#DejaVuSans-30" x="254.492188"/>
      </g>
     </g>
    </g>
    <g id="ytick_5">
     <g id="line2d_16">
      <g>
       <use xlink:href="#m259835cc0d" x="46.0125" y="138.402044" style="stroke: #000000; stroke-width: 0.8"/>
      </g>
     </g>
     <g id="text_16">
      <!-- 20000 -->
      <g transform="translate(7.2 142.201263)scale(0.1 -0.1)">
       <use xlink:href="#DejaVuSans-32"/>
       <use xlink:href="#DejaVuSans-30" x="63.623047"/>
       <use xlink:href="#DejaVuSans-30" x="127.246094"/>
       <use xlink:href="#DejaVuSans-30" x="190.869141"/>
       <use xlink:href="#DejaVuSans-30" x="254.492188"/>
      </g>
     </g>
    </g>
    <g id="ytick_6">
     <g id="line2d_17">
      <g>
       <use xlink:href="#m259835cc0d" x="46.0125" y="86.940059" style="stroke: #000000; stroke-width: 0.8"/>
      </g>
     </g>
     <g id="text_17">
      <!-- 25000 -->
      <g transform="translate(7.2 90.739278)scale(0.1 -0.1)">
       <use xlink:href="#DejaVuSans-32"/>
       <use xlink:href="#DejaVuSans-35" x="63.623047"/>
       <use xlink:href="#DejaVuSans-30" x="127.246094"/>
       <use xlink:href="#DejaVuSans-30" x="190.869141"/>
       <use xlink:href="#DejaVuSans-30" x="254.492188"/>
      </g>
     </g>
    </g>
   </g>
   <g id="line2d_18">
    <path d="M 106.885227 344.249985 
L 171.238272 344.219108 
L 173.864927 344.136769 
L 183.058219 344.105891 
L 184.371547 343.827997 
L 185.684874 344.177938 
L 186.998202 344.054429 
L 189.624857 344.147061 
L 190.938184 343.807412 
L 192.251511 344.01326 
L 196.191494 343.97209 
L 197.504821 343.869166 
L 200.131476 344.002968 
L 202.758131 344.105891 
L 204.071459 343.745658 
L 205.384786 343.766242 
L 206.698113 343.210453 
L 208.011441 344.054429 
L 211.951423 344.105891 
L 213.264751 343.97209 
L 214.578078 343.570687 
L 215.891406 343.961798 
L 217.204733 343.076652 
L 219.831388 343.838289 
L 221.144715 343.508932 
L 222.458043 344.126476 
L 225.084698 343.786827 
L 226.398025 343.416301 
L 227.711353 343.889751 
L 229.02468 344.116184 
L 231.651335 344.2294 
L 246.097937 344.147061 
L 247.411264 344.249985 
L 256.604556 344.116184 
L 257.917884 344.239693 
L 299.944362 344.239693 
L 301.25769 344.105891 
L 306.511 344.239693 
L 307.824327 344.064722 
L 309.137654 344.01326 
L 310.450982 344.116184 
L 313.077637 344.177938 
L 315.704292 344.2294 
L 317.017619 344.044137 
L 318.330947 344.116184 
L 320.957602 343.951506 
L 323.584256 344.239693 
L 324.897584 344.2294 
L 327.524239 343.704488 
L 328.837566 344.054429 
L 330.150894 344.01326 
L 332.777549 344.239693 
L 338.030858 344.105891 
L 341.970841 344.239693 
L 343.284168 343.827997 
L 348.537478 344.01326 
L 349.850805 343.858874 
L 351.164133 344.2294 
L 353.790788 343.827997 
L 355.104115 344.044137 
L 356.417443 343.97209 
L 357.73077 343.786827 
L 359.044098 344.177938 
L 361.670752 344.105891 
L 362.98408 343.745658 
L 364.297407 343.601564 
L 365.610735 343.807412 
L 366.924062 343.807412 
L 368.23739 343.941213 
L 369.550717 344.219108 
L 370.864045 344.085307 
L 372.177372 343.478055 
L 373.490699 343.745658 
L 374.804027 343.611856 
L 377.430682 343.766242 
L 378.744009 344.198523 
L 380.057337 344.095599 
L 381.370664 343.220745 
L 382.683992 343.426593 
L 383.997319 342.98402 
L 385.310647 343.313377 
L 386.623974 343.838289 
L 387.937301 343.550102 
L 389.250629 343.961798 
L 390.563956 343.385424 
L 393.190611 343.200161 
L 394.503939 343.076652 
L 395.817266 343.900044 
L 397.130594 343.827997 
L 398.443921 343.508932 
L 399.757248 343.704488 
L 401.070576 343.004605 
L 402.383903 342.839927 
L 403.697231 341.923903 
L 405.010558 343.344254 
L 406.323886 344.023552 
L 408.950541 342.592909 
L 411.577195 342.335599 
L 412.890523 342.181213 
L 414.20385 343.436886 
L 415.517178 343.75595 
L 416.830505 342.315014 
L 418.143833 343.303085 
L 422.083815 341.26519 
L 423.397143 342.901681 
L 424.71047 343.436886 
L 426.023797 342.448816 
L 427.337125 340.771155 
L 428.650452 340.544722 
L 429.96378 339.937471 
L 431.277107 338.568582 
L 432.590435 339.330219 
L 433.903762 341.5225 
L 435.21709 341.872441 
L 436.530417 338.414196 
L 437.843744 336.046945 
L 439.157072 337.261447 
L 440.470399 337.004138 
L 441.783727 335.830804 
L 443.097054 340.616769 
L 444.410382 340.956418 
L 445.723709 335.223553 
L 448.350364 332.063787 
L 449.663692 324.828232 
L 450.977019 333.401799 
L 452.290346 339.062617 
L 453.603674 338.373026 
L 454.917001 328.873144 
L 456.230329 324.076887 
L 457.543656 322.522735 
L 458.856984 323.716653 
L 460.170311 328.121799 
L 461.483639 335.398524 
L 462.796966 336.28367 
L 464.110293 321.195016 
L 465.423621 325.970688 
L 466.736948 316.23408 
L 468.050276 313.280162 
L 469.363603 312.271507 
L 470.676931 330.334664 
L 471.990258 332.598992 
L 473.303586 312.127414 
L 474.616913 313.26987 
L 475.930241 307.176771 
L 477.243568 312.703788 
L 478.556895 310.727648 
L 479.870223 320.99946 
L 481.18355 312.775835 
L 482.496878 310.140981 
L 483.810205 323.212325 
L 486.43686 314.340279 
L 487.750188 320.917121 
L 489.063515 336.839459 
L 490.376842 321.55525 
L 491.69017 321.627296 
L 493.003497 316.542852 
L 494.316825 321.637589 
L 495.630152 324.395951 
L 496.94348 330.880161 
L 498.256807 338.671506 
L 499.570135 327.658641 
L 500.883462 328.451156 
L 502.196789 322.563904 
L 503.510117 317.613262 
L 504.823444 318.80718 
L 506.136772 330.808115 
L 507.450099 341.285775 
L 508.763427 324.642969 
L 510.076754 316.409051 
L 511.390082 316.604607 
L 512.703409 316.295835 
L 514.016737 320.433378 
L 515.330064 328.47174 
L 516.643391 340.380044 
L 517.956719 313.671273 
L 519.270046 306.78566 
L 520.583374 306.734198 
L 521.896701 308.658876 
L 523.210029 309.976303 
L 524.523356 327.411623 
L 525.836684 337.240863 
L 527.150011 301.917356 
L 528.463338 287.394784 
L 529.776666 288.351977 
L 531.089993 289.967883 
L 532.403321 279.747533 
L 533.716648 311.417238 
L 535.029976 338.033377 
L 536.343303 290.667766 
L 537.656631 264.967651 
L 538.969958 276.361334 
L 540.283286 263.609054 
L 541.596613 277.122972 
L 542.90994 312.528817 
L 544.223268 326.598524 
L 545.536595 243.868237 
L 546.849923 249.405546 
L 548.16325 268.559697 
L 549.476578 292.129286 
L 550.789905 332.084372 
L 552.103233 333.072442 
L 553.41656 335.264722 
L 554.729887 255.241335 
L 556.043215 243.971161 
L 557.356542 221.616074 
L 558.66987 236.426834 
L 559.983197 320.30987 
L 561.296525 326.289752 
L 562.609852 334.904489 
L 563.92318 237.754553 
L 565.236507 230.210226 
L 566.549835 311.674548 
L 567.863162 258.915721 
L 569.176489 261.879932 
L 571.803144 325.878056 
L 573.116472 285.542152 
L 574.429799 276.268703 
L 575.743127 287.096304 
L 577.056454 292.561567 
L 578.369782 300.805777 
L 579.683109 326.742618 
L 580.996436 316.522267 
L 582.309764 289.762035 
L 583.623091 291.202971 
L 584.936419 294.928818 
L 586.249746 293.940748 
L 587.563074 299.045777 
L 588.876401 257.588002 
L 590.189729 299.539812 
L 591.503056 299.704491 
L 592.816383 288.23876 
L 594.129711 305.529987 
L 595.443038 296.174198 
L 596.756366 293.837824 
L 598.069693 276.917124 
L 599.383021 310.192443 
L 600.696348 290.348702 
L 602.009676 277.54496 
L 603.323003 296.390339 
L 604.636331 287.096304 
L 605.949658 289.813497 
L 607.262985 271.79151 
L 608.576313 302.339344 
L 609.88964 289.134199 
L 611.202968 280.272445 
L 612.516295 287.950573 
L 613.829623 293.765778 
L 615.14295 285.861217 
L 616.456278 279.603439 
L 617.769605 308.319227 
L 620.39626 283.226363 
L 621.709587 289.175369 
L 623.022915 291.449988 
L 624.336242 279.624024 
L 625.64957 272.388469 
L 626.962897 307.835484 
L 628.276225 288.310807 
L 629.589552 278.049287 
L 630.90288 288.177006 
L 632.216207 290.163439 
L 633.529534 280.622387 
L 634.842862 272.748703 
L 636.156189 308.597122 
L 637.469517 290.091392 
L 638.782844 281.435486 
L 640.096172 289.803205 
L 641.409499 294.609754 
L 642.722827 289.031275 
L 644.036154 290.626596 
L 645.349481 316.522267 
L 646.662809 294.661216 
L 647.976136 286.159696 
L 649.289464 303.584724 
L 650.602791 301.413029 
L 651.916119 295.340514 
L 653.229446 295.844842 
L 654.542774 320.556887 
L 655.856101 305.02566 
L 657.169429 295.659579 
L 658.482756 307.289987 
L 659.796083 310.346829 
L 661.109411 304.840397 
L 662.422738 307.032677 
L 663.736066 324.015132 
L 665.049393 312.837589 
L 666.362721 308.298642 
L 668.989376 317.119226 
L 670.302703 311.365777 
L 671.61603 312.055367 
L 672.929358 328.708466 
L 674.242685 316.522267 
L 675.556013 312.703788 
L 676.86934 318.045542 
L 678.182668 317.201566 
L 679.495995 330.139109 
L 680.809323 317.73677 
L 682.12265 336.97326 
L 683.435977 334.245775 
L 684.749305 317.078057 
L 686.062632 318.066127 
L 687.37596 326.454431 
L 688.689287 323.49022 
L 690.002615 323.860747 
L 691.315942 335.594079 
L 692.62927 325.888349 
L 693.942597 326.114781 
L 695.255925 328.574664 
L 696.569252 330.766945 
L 697.882579 327.926243 
L 699.195907 327.318992 
L 700.509234 336.75712 
L 701.822562 329.120161 
L 703.135889 329.727413 
L 704.449217 330.509635 
L 705.762544 333.463553 
L 707.075872 328.440863 
L 708.389199 330.159693 
L 709.702526 337.127646 
L 711.015854 332.002033 
L 712.329181 331.981448 
L 713.642509 333.27829 
L 714.955836 333.926711 
L 716.269164 332.362266 
L 717.582491 333.79291 
L 718.895819 337.796652 
L 720.209146 334.678056 
L 721.522474 333.031272 
L 722.835801 336.890921 
L 724.149128 336.520395 
L 725.462456 335.686711 
L 726.775783 340.627061 
L 728.089111 336.932091 
L 729.402438 336.180746 
L 730.715766 337.323202 
L 732.029093 338.0025 
L 733.342421 338.486243 
L 734.655748 337.96133 
L 735.969075 340.390336 
L 737.282403 340.27712 
L 738.59573 338.578874 
L 739.909058 339.391974 
L 741.222385 339.566944 
L 742.535713 341.059342 
L 743.84904 340.153611 
L 746.475695 342.109166 
L 747.789023 340.174196 
L 749.10235 340.163903 
L 750.415677 341.059342 
L 751.729005 341.646009 
L 753.042332 340.977003 
L 754.35566 341.965073 
L 755.668987 342.634079 
L 756.982315 340.596184 
L 758.295642 341.594547 
L 759.60897 341.594547 
L 760.922297 341.913611 
L 762.235624 341.656301 
L 763.548952 342.500278 
L 764.862279 343.200161 
L 766.175607 341.748933 
L 767.488934 341.769517 
L 768.802262 342.541447 
L 770.115589 342.644371 
L 771.428917 342.448816 
L 772.742244 343.231038 
L 774.055571 343.53981 
L 775.368899 342.942851 
L 779.308881 343.416301 
L 780.622209 343.189868 
L 781.935536 343.725073 
L 783.248864 343.817704 
L 784.562191 343.035482 
L 785.875519 343.580979 
L 789.815501 343.488348 
L 792.442156 343.869166 
L 793.755483 343.436886 
L 795.068811 343.663318 
L 796.382138 343.683903 
L 797.695466 343.961798 
L 799.008793 343.900044 
L 800.32212 343.951506 
L 801.635448 344.126476 
L 802.948775 344.002968 
L 804.262103 343.673611 
L 806.888758 343.735365 
L 808.202085 343.653026 
L 810.82874 344.095599 
L 812.142068 343.827997 
L 813.455395 343.920628 
L 817.395377 343.75595 
L 818.708705 343.869166 
L 820.022032 344.136769 
L 821.33536 343.71478 
L 823.962015 343.735365 
L 825.275342 343.560394 
L 826.588669 343.704488 
L 827.901997 343.653026 
L 829.215324 344.054429 
L 830.528652 343.49864 
L 831.841979 343.220745 
L 833.155307 343.53981 
L 834.468634 343.632441 
L 835.781962 343.364839 
L 837.095289 343.550102 
L 838.408617 344.023552 
L 839.721944 343.488348 
L 841.035271 343.138406 
L 842.348599 343.580979 
L 843.661926 343.364839 
L 847.601909 343.910336 
L 848.915236 343.02519 
L 850.228564 343.251623 
L 852.855218 343.375131 
L 854.168546 342.932558 
L 855.481873 343.272207 
L 856.795201 343.961798 
L 858.108528 343.02519 
L 859.421856 342.839927 
L 862.048511 342.994313 
L 863.361838 342.757587 
L 864.675165 342.932558 
L 865.988493 343.725073 
L 867.30182 342.572324 
L 868.615148 343.117821 
L 869.928475 342.098874 
L 871.241803 342.675248 
L 872.55513 342.315014 
L 875.181785 343.426593 
L 876.495113 341.913611 
L 877.80844 341.079927 
L 879.121767 341.882734 
L 880.435095 340.297705 
L 881.748422 339.361096 
L 883.06175 341.254897 
L 884.375077 342.304722 
L 885.688405 339.062617 
L 887.001732 338.156886 
L 888.31506 337.48788 
L 889.628387 338.465658 
L 890.941714 337.01443 
L 892.255042 338.877354 
L 893.568369 342.160628 
L 894.881697 336.366009 
L 896.195024 333.638524 
L 897.508352 339.494898 
L 898.821679 330.921331 
L 901.448334 334.822149 
L 902.761662 341.04905 
L 904.074989 331.405074 
L 905.388316 328.790805 
L 906.701644 331.199226 
L 908.014971 332.671038 
L 909.328299 329.871506 
L 911.954954 340.143319 
L 913.268281 327.689518 
L 914.581609 325.116419 
L 915.894936 325.898641 
L 917.208263 327.668933 
L 918.521591 326.485308 
L 919.834918 331.374196 
L 921.148246 338.156886 
L 922.461573 324.838524 
L 923.774901 318.642501 
L 925.088228 324.365074 
L 926.401556 321.977238 
L 927.714883 320.773027 
L 929.028211 329.727413 
L 930.341538 336.417471 
L 931.654865 321.483203 
L 932.968193 313.774197 
L 934.28152 319.723203 
L 935.594848 319.28063 
L 936.908175 318.333729 
L 938.221503 321.905191 
L 939.53483 332.053495 
L 940.848158 313.465426 
L 942.161485 300.023555 
L 943.474812 303.162736 
L 944.78814 298.829637 
L 946.101467 298.850222 
L 947.414795 303.975835 
L 948.728122 325.054665 
L 950.04145 297.676888 
L 951.354777 281.692796 
L 952.668105 279.706363 
L 953.981432 281.363439 
L 955.294759 275.609989 
L 956.608087 292.170456 
L 957.921414 312.158291 
L 959.234742 310.902619 
L 960.548069 259.317125 
L 961.861397 252.987301 
L 963.174724 254.438529 
L 964.488052 255.467768 
L 967.114707 293.848117 
L 968.428034 259.008353 
L 969.741361 247.501453 
L 971.054689 250.548002 
L 972.368016 247.295605 
L 973.681344 242.447886 
L 974.994671 265.327885 
L 976.307999 285.840632 
L 977.621326 237.044378 
L 978.934654 231.373267 
L 980.247981 254.129757 
L 981.561308 233.617009 
L 982.874636 211.117829 
L 984.187963 245.607652 
L 985.501291 268.477358 
L 986.814618 230.230811 
L 988.127946 207.711046 
L 989.441273 208.997596 
L 990.754601 219.763443 
L 992.067928 222.161571 
L 993.381256 251.031745 
L 994.694583 265.595487 
L 996.00791 236.869407 
L 997.321238 217.015373 
L 998.634565 242.59198 
L 999.947893 163.741926 
L 1001.26122 222.861454 
L 1002.574548 256.023558 
L 1003.887875 296.503555 
L 1005.201203 247.707301 
L 1006.51453 233.874319 
L 1007.827857 241.634787 
L 1009.141185 262.579815 
L 1010.454512 268.302387 
L 1011.76784 282.845544 
L 1013.081167 314.237355 
L 1014.394495 275.733498 
L 1015.707822 276.834784 
L 1017.02115 260.58309 
L 1018.334477 286.77724 
L 1019.647805 293.621684 
L 1020.961132 302.442268 
L 1022.274459 324.920863 
L 1023.587787 291.06917 
L 1024.901114 316.378174 
L 1026.214442 267.900984 
L 1027.527769 287.127181 
L 1028.841097 331.158056 
L 1030.154424 337.457003 
L 1031.467752 327.329284 
L 1032.781079 285.428936 
L 1034.094406 279.274083 
L 1035.407734 304.284607 
L 1036.721061 305.951976 
L 1038.034389 310.573262 
L 1039.347716 339.144956 
L 1040.661044 326.660278 
L 1041.974371 296.74028 
L 1043.287699 297.059345 
L 1044.601026 305.28297 
L 1045.914353 328.657004 
L 1047.227681 306.950338 
L 1048.541008 317.77794 
L 1049.854336 330.869869 
L 1051.167663 309.23525 
L 1052.480991 304.161099 
L 1053.794318 308.113379 
L 1055.107646 321.575834 
L 1056.420973 317.633846 
L 1057.734301 307.886946 
L 1059.047628 326.835249 
L 1060.360955 326.27946 
L 1061.674283 234.687419 
L 1062.98761 271.101919 
L 1064.300938 259.955253 
L 1065.614265 266.501218 
L 1066.927593 258.030575 
L 1068.24092 331.086009 
L 1069.554248 197.418649 
L 1070.867575 175.434089 
L 1072.180902 167.972101 
L 1073.49423 169.001341 
L 1074.807557 160.962979 
L 1076.120885 187.80555 
L 1077.434212 270.227066 
L 1078.74754 100.299591 
L 1080.060867 94.278538 
L 1081.374195 110.972806 
L 1082.687522 134.460056 
L 1084.00085 70.472224 
L 1085.314177 153.36719 
L 1086.627504 211.611864 
L 1087.940832 81.052808 
L 1089.254159 118.095145 
L 1090.567487 53.633862 
L 1091.880814 93.300761 
L 1093.194142 103.38731 
L 1094.507469 176.936779 
L 1095.820797 221.471981 
L 1097.134124 122.685554 
L 1098.447451 50.8755 
L 1099.760779 108.029181 
L 1101.074106 124.919004 
L 1102.387434 123.498653 
L 1103.700761 192.087187 
L 1105.014089 247.27502 
L 1106.327416 183.884147 
L 1107.640744 70.32813 
L 1108.954071 147.541693 
L 1110.267398 214.658414 
L 1111.580726 154.283213 
L 1112.894053 242.849289 
L 1114.207381 271.31806 
L 1115.520708 185.366252 
L 1116.834036 180.899352 
L 1118.147363 199.281573 
L 1119.460691 205.477596 
L 1120.774018 216.984496 
L 1122.087346 268.292095 
L 1123.400673 291.120632 
L 1124.714 201.669409 
L 1126.027328 196.471748 
L 1127.340655 193.188474 
L 1128.653983 216.933034 
L 1129.96731 228.861922 
L 1131.280638 256.208821 
L 1132.593965 297.079929 
L 1133.907293 214.257011 
L 1135.22062 203.738181 
L 1136.533947 208.369759 
L 1137.847275 231.743793 
L 1139.160602 232.114319 
L 1140.47393 265.574902 
L 1141.787257 304.490455 
L 1143.100585 227.554787 
L 1144.413912 218.76508 
L 1145.72724 227.987068 
L 1147.040567 247.069172 
L 1148.353895 254.304727 
L 1150.980549 307.403204 
L 1152.293877 259.059815 
L 1153.607204 261.437359 
L 1154.920532 257.49537 
L 1156.233859 272.573732 
L 1157.547187 276.98917 
L 1158.860514 307.598759 
L 1160.173842 322.605074 
L 1161.487169 277.225896 
L 1162.800496 281.908936 
L 1164.113824 290.081099 
L 1165.427151 300.795485 
L 1166.740479 304.222853 
L 1168.053806 319.362969 
L 1169.367134 330.911038 
L 1170.680461 304.130221 
L 1171.993789 312.518525 
L 1173.307116 344.249985 
L 1174.620444 282.56765 
L 1175.933771 333.576769 
L 1177.247098 334.873611 
L 1178.560426 344.249985 
L 1179.873753 320.52601 
L 1181.187081 352.319224 
L 1182.500408 277.514083 
L 1183.813736 316.594314 
L 1185.127063 324.931156 
L 1186.440391 331.30215 
L 1187.753718 338.352442 
L 1189.067045 325.5487 
L 1190.380373 305.560865 
L 1191.6937 330.242033 
L 1193.007028 344.249985 
L 1198.260338 344.249985 
L 1199.573665 288.27993 
L 1200.886992 336.232208 
L 1202.20032 337.549635 
L 1203.513647 337.848114 
L 1204.826975 341.22402 
L 1206.140302 343.107529 
L 1207.45363 337.74519 
L 1208.766957 337.724605 
L 1210.080285 338.908231 
L 1211.393612 340.359459 
L 1212.70694 344.249985 
L 1214.020267 337.148231 
L 1215.333594 343.45747 
L 1216.646922 339.54636 
L 1217.960249 340.503553 
L 1219.273577 344.249985 
L 1220.586904 337.981915 
L 1221.900232 344.249985 
L 1223.213559 344.249985 
L 1224.526887 339.474313 
L 1225.840214 340.946126 
L 1227.153541 341.646009 
L 1228.466869 344.249985 
L 1229.780196 339.340512 
L 1231.093524 342.140044 
L 1232.406851 343.138406 
L 1233.720179 343.776535 
L 1235.033506 341.99595 
L 1240.286816 342.387061 
L 1241.600143 343.24133 
L 1242.913471 343.591272 
L 1244.226798 341.573962 
L 1245.540126 341.882734 
L 1246.853453 341.553377 
L 1248.166781 342.006242 
L 1249.480108 342.140044 
L 1250.793436 344.249985 
L 1252.106763 342.757587 
L 1253.42009 341.018172 
L 1254.733418 341.450453 
L 1256.046745 341.759225 
L 1257.360073 341.903319 
L 1258.6734 341.625424 
L 1259.986728 344.249985 
L 1261.300055 342.067997 
L 1262.613383 339.577237 
L 1263.92671 339.834547 
L 1265.240038 339.968348 
L 1266.553365 339.886009 
L 1267.866692 338.928816 
L 1269.18002 341.851857 
L 1270.493347 342.757587 
L 1271.806675 336.75712 
L 1273.120002 337.292325 
L 1274.43333 336.551272 
L 1275.746657 344.249985 
L 1280.999967 344.249985 
L 1282.313294 313.413964 
L 1283.626622 334.286945 
L 1284.939949 334.245775 
L 1286.253277 332.413728 
L 1287.566604 339.741915 
L 1288.879932 342.201798 
L 1290.193259 331.394781 
L 1291.506586 332.177003 
L 1292.819914 333.165073 
L 1294.133241 333.000395 
L 1295.446569 330.169986 
L 1296.759896 338.136301 
L 1298.073224 341.77981 
L 1299.386551 327.967413 
L 1300.699879 328.183553 
L 1302.013206 329.490688 
L 1303.326534 330.128816 
L 1304.639861 329.809752 
L 1305.953188 335.944021 
L 1307.266516 341.244605 
L 1307.266516 341.244605 
" clip-path="url(#p4ac7fc70cd)" style="fill: none; stroke: #0000ff; stroke-width: 1.5; stroke-linecap: square"/>
   </g>
   <g id="line2d_19">
    <path d="M 1068.24092 287.934958 
L 1069.554248 202.449653 
L 1070.867575 224.040027 
L 1072.180902 202.62586 
L 1073.49423 198.35776 
L 1074.807557 174.282809 
L 1076.120885 221.613429 
L 1077.434212 157.347133 
L 1078.74754 108.486516 
L 1080.060867 112.243731 
L 1081.374195 112.978132 
L 1082.687522 116.9113 
L 1084.00085 108.675158 
L 1085.314177 184.670375 
L 1086.627504 74.296392 
L 1087.940832 65.923159 
L 1089.254159 90.904012 
L 1090.567487 92.028039 
L 1091.880814 62.507464 
L 1094.507469 187.94377 
L 1095.820797 87.582482 
L 1097.134124 116.918021 
L 1098.447451 66.750879 
L 1099.760779 114.668438 
L 1101.074106 107.765364 
L 1102.387434 167.286808 
L 1103.700761 209.151041 
L 1105.014089 138.864643 
L 1106.327416 118.447593 
L 1107.640744 124.228356 
L 1108.954071 155.412438 
L 1110.267398 170.215448 
L 1111.580726 215.992134 
L 1112.894053 266.245675 
L 1114.207381 208.610563 
L 1115.520708 133.082768 
L 1116.834036 197.106602 
L 1118.147363 236.074559 
L 1119.460691 193.742143 
L 1120.774018 267.208256 
L 1122.087346 295.819671 
L 1123.400673 229.285437 
L 1124.714 195.247631 
L 1126.027328 223.743491 
L 1127.340655 228.349561 
L 1128.653983 222.30534 
L 1129.96731 269.359271 
L 1131.280638 284.877193 
L 1132.593965 220.425228 
L 1133.907293 207.428317 
L 1135.22062 213.330055 
L 1136.533947 228.835448 
L 1137.847275 236.114746 
L 1139.160602 262.604867 
L 1140.47393 292.078822 
L 1141.787257 230.197219 
L 1143.100585 220.199606 
L 1144.413912 224.480258 
L 1145.72724 244.039169 
L 1147.040567 247.095008 
L 1149.667222 306.213783 
L 1150.980549 245.523665 
L 1152.293877 242.889652 
L 1153.607204 254.530236 
L 1154.920532 270.521598 
L 1156.233859 276.42673 
L 1157.547187 299.717141 
L 1158.860514 326.796174 
L 1160.173842 279.990595 
L 1161.487169 278.677545 
L 1162.800496 279.530316 
L 1164.113824 295.811464 
L 1165.427151 300.098303 
L 1166.740479 324.64427 
L 1168.053806 338.620456 
L 1169.367134 299.481547 
L 1170.680461 303.699952 
L 1171.993789 310.001796 
L 1173.307116 329.401343 
L 1174.620444 315.244605 
L 1175.933771 341.871406 
L 1177.247098 348.387066 
L 1178.560426 323.135695 
L 1179.873753 324.346314 
L 1181.187081 353.2755 
L 1182.500408 296.052531 
L 1183.813736 337.861668 
L 1185.127063 334.768428 
L 1186.440391 343.63308 
L 1187.753718 316.623233 
L 1189.067045 340.836094 
L 1190.380373 293.163099 
L 1191.6937 319.93261 
L 1193.007028 336.508189 
L 1194.320355 343.477033 
L 1195.633683 349.315615 
L 1196.94701 338.297185 
L 1198.260338 336.453125 
L 1199.573665 322.973364 
L 1200.886992 341.48266 
L 1202.20032 340.631952 
L 1203.513647 341.645392 
L 1204.826975 341.054489 
L 1206.140302 339.442337 
L 1207.45363 306.571093 
L 1208.766957 343.563228 
L 1210.080285 343.847277 
L 1211.393612 345.745531 
L 1212.70694 348.240076 
L 1214.020267 347.961839 
L 1215.333594 342.154962 
L 1216.646922 331.036275 
L 1217.960249 342.460384 
L 1220.586904 344.740425 
L 1221.900232 342.165487 
L 1223.213559 347.190392 
L 1224.526887 340.990485 
L 1225.840214 338.793907 
L 1227.153541 344.054985 
L 1228.466869 341.129964 
L 1229.780196 344.425813 
L 1231.093524 343.089179 
L 1232.406851 341.9739 
L 1233.720179 342.173235 
L 1235.033506 341.500669 
L 1236.346834 344.440723 
L 1237.660161 340.290106 
L 1238.973489 344.027574 
L 1240.286816 343.494342 
L 1241.600143 343.479438 
L 1242.913471 342.329844 
L 1244.226798 342.172719 
L 1245.540126 342.925359 
L 1246.853453 341.477045 
L 1248.166781 342.604752 
L 1249.480108 342.854159 
L 1250.793436 343.492384 
L 1252.106763 341.679079 
L 1253.42009 341.80143 
L 1256.046745 341.800124 
L 1257.360073 342.059357 
L 1258.6734 343.176711 
L 1259.986728 342.790515 
L 1261.300055 341.120851 
L 1265.240038 340.74385 
L 1266.553365 340.335696 
L 1267.866692 341.623239 
L 1269.18002 340.293959 
L 1270.493347 339.207581 
L 1271.806675 338.451467 
L 1273.120002 338.454344 
L 1274.43333 337.907352 
L 1275.746657 339.553943 
L 1277.059985 342.40793 
L 1278.373312 342.913952 
L 1279.686639 339.70201 
L 1280.999967 342.028671 
L 1282.313294 332.535224 
L 1283.626622 339.484166 
L 1284.939949 336.316286 
L 1286.253277 335.713616 
L 1287.566604 335.389835 
L 1288.879932 336.551967 
L 1290.193259 317.833472 
L 1291.506586 334.373831 
L 1292.819914 334.433079 
L 1294.133241 333.78132 
L 1296.759896 339.51265 
L 1299.386551 326.72232 
L 1300.699879 331.431447 
L 1302.013206 330.991114 
L 1303.326534 329.138129 
L 1304.639861 334.574889 
L 1305.953188 337.412039 
L 1307.266516 329.052039 
L 1307.266516 329.052039 
" clip-path="url(#p4ac7fc70cd)" style="fill: none; stroke: #ffa500; stroke-width: 1.5; stroke-linecap: square"/>
   </g>
   <g id="line2d_20">
    <path d="M 1307.266516 329.052039 
L 1308.579843 327.640113 
L 1309.893171 329.785671 
L 1311.206498 330.360906 
L 1312.519826 329.81158 
L 1313.833153 334.705132 
L 1315.146481 338.253569 
L 1316.459808 328.809396 
L 1317.773135 327.69948 
L 1319.086463 329.434025 
L 1320.39979 329.87116 
L 1321.713118 329.35206 
L 1323.026445 333.506087 
L 1324.339773 336.514105 
" clip-path="url(#p4ac7fc70cd)" style="fill: none; stroke: #ff0000; stroke-width: 1.5; stroke-linecap: square"/>
   </g>
   <g id="patch_3">
    <path d="M 46.0125 368.3955 
L 46.0125 35.7555 
" style="fill: none; stroke: #000000; stroke-width: 0.8; stroke-linejoin: miter; stroke-linecap: square"/>
   </g>
   <g id="patch_4">
    <path d="M 1385.2125 368.3955 
L 1385.2125 35.7555 
" style="fill: none; stroke: #000000; stroke-width: 0.8; stroke-linejoin: miter; stroke-linecap: square"/>
   </g>
   <g id="patch_5">
    <path d="M 46.0125 368.3955 
L 1385.2125 368.3955 
" style="fill: none; stroke: #000000; stroke-width: 0.8; stroke-linejoin: miter; stroke-linecap: square"/>
   </g>
   <g id="patch_6">
    <path d="M 46.0125 35.7555 
L 1385.2125 35.7555 
" style="fill: none; stroke: #000000; stroke-width: 0.8; stroke-linejoin: miter; stroke-linecap: square"/>
   </g>
   <g id="text_18">
    <!-- Daily Confirmed Cases Forecasting - Slovakia -->
    <g transform="translate(579.91875 16.318125)scale(0.12 -0.12)">
     <defs>
      <path id="DejaVuSans-44" d="M 1259 4147 
L 1259 519 
L 2022 519 
Q 2988 519 3436 956 
Q 3884 1394 3884 2338 
Q 3884 3275 3436 3711 
Q 2988 4147 2022 4147 
L 1259 4147 
z
M 628 4666 
L 1925 4666 
Q 3281 4666 3915 4102 
Q 4550 3538 4550 2338 
Q 4550 1131 3912 565 
Q 3275 0 1925 0 
L 628 0 
L 628 4666 
z
" transform="scale(0.015625)"/>
      <path id="DejaVuSans-61" d="M 2194 1759 
Q 1497 1759 1228 1600 
Q 959 1441 959 1056 
Q 959 750 1161 570 
Q 1363 391 1709 391 
Q 2188 391 2477 730 
Q 2766 1069 2766 1631 
L 2766 1759 
L 2194 1759 
z
M 3341 1997 
L 3341 0 
L 2766 0 
L 2766 531 
Q 2569 213 2275 61 
Q 1981 -91 1556 -91 
Q 1019 -91 701 211 
Q 384 513 384 1019 
Q 384 1609 779 1909 
Q 1175 2209 1959 2209 
L 2766 2209 
L 2766 2266 
Q 2766 2663 2505 2880 
Q 2244 3097 1772 3097 
Q 1472 3097 1187 3025 
Q 903 2953 641 2809 
L 641 3341 
Q 956 3463 1253 3523 
Q 1550 3584 1831 3584 
Q 2591 3584 2966 3190 
Q 3341 2797 3341 1997 
z
" transform="scale(0.015625)"/>
      <path id="DejaVuSans-69" d="M 603 3500 
L 1178 3500 
L 1178 0 
L 603 0 
L 603 3500 
z
M 603 4863 
L 1178 4863 
L 1178 4134 
L 603 4134 
L 603 4863 
z
" transform="scale(0.015625)"/>
      <path id="DejaVuSans-6c" d="M 603 4863 
L 1178 4863 
L 1178 0 
L 603 0 
L 603 4863 
z
" transform="scale(0.015625)"/>
      <path id="DejaVuSans-79" d="M 2059 -325 
Q 1816 -950 1584 -1140 
Q 1353 -1331 966 -1331 
L 506 -1331 
L 506 -850 
L 844 -850 
Q 1081 -850 1212 -737 
Q 1344 -625 1503 -206 
L 1606 56 
L 191 3500 
L 800 3500 
L 1894 763 
L 2988 3500 
L 3597 3500 
L 2059 -325 
z
" transform="scale(0.015625)"/>
      <path id="DejaVuSans-20" transform="scale(0.015625)"/>
      <path id="DejaVuSans-43" d="M 4122 4306 
L 4122 3641 
Q 3803 3938 3442 4084 
Q 3081 4231 2675 4231 
Q 1875 4231 1450 3742 
Q 1025 3253 1025 2328 
Q 1025 1406 1450 917 
Q 1875 428 2675 428 
Q 3081 428 3442 575 
Q 3803 722 4122 1019 
L 4122 359 
Q 3791 134 3420 21 
Q 3050 -91 2638 -91 
Q 1578 -91 968 557 
Q 359 1206 359 2328 
Q 359 3453 968 4101 
Q 1578 4750 2638 4750 
Q 3056 4750 3426 4639 
Q 3797 4528 4122 4306 
z
" transform="scale(0.015625)"/>
      <path id="DejaVuSans-6f" d="M 1959 3097 
Q 1497 3097 1228 2736 
Q 959 2375 959 1747 
Q 959 1119 1226 758 
Q 1494 397 1959 397 
Q 2419 397 2687 759 
Q 2956 1122 2956 1747 
Q 2956 2369 2687 2733 
Q 2419 3097 1959 3097 
z
M 1959 3584 
Q 2709 3584 3137 3096 
Q 3566 2609 3566 1747 
Q 3566 888 3137 398 
Q 2709 -91 1959 -91 
Q 1206 -91 779 398 
Q 353 888 353 1747 
Q 353 2609 779 3096 
Q 1206 3584 1959 3584 
z
" transform="scale(0.015625)"/>
      <path id="DejaVuSans-6e" d="M 3513 2113 
L 3513 0 
L 2938 0 
L 2938 2094 
Q 2938 2591 2744 2837 
Q 2550 3084 2163 3084 
Q 1697 3084 1428 2787 
Q 1159 2491 1159 1978 
L 1159 0 
L 581 0 
L 581 3500 
L 1159 3500 
L 1159 2956 
Q 1366 3272 1645 3428 
Q 1925 3584 2291 3584 
Q 2894 3584 3203 3211 
Q 3513 2838 3513 2113 
z
" transform="scale(0.015625)"/>
      <path id="DejaVuSans-66" d="M 2375 4863 
L 2375 4384 
L 1825 4384 
Q 1516 4384 1395 4259 
Q 1275 4134 1275 3809 
L 1275 3500 
L 2222 3500 
L 2222 3053 
L 1275 3053 
L 1275 0 
L 697 0 
L 697 3053 
L 147 3053 
L 147 3500 
L 697 3500 
L 697 3744 
Q 697 4328 969 4595 
Q 1241 4863 1831 4863 
L 2375 4863 
z
" transform="scale(0.015625)"/>
      <path id="DejaVuSans-72" d="M 2631 2963 
Q 2534 3019 2420 3045 
Q 2306 3072 2169 3072 
Q 1681 3072 1420 2755 
Q 1159 2438 1159 1844 
L 1159 0 
L 581 0 
L 581 3500 
L 1159 3500 
L 1159 2956 
Q 1341 3275 1631 3429 
Q 1922 3584 2338 3584 
Q 2397 3584 2469 3576 
Q 2541 3569 2628 3553 
L 2631 2963 
z
" transform="scale(0.015625)"/>
      <path id="DejaVuSans-6d" d="M 3328 2828 
Q 3544 3216 3844 3400 
Q 4144 3584 4550 3584 
Q 5097 3584 5394 3201 
Q 5691 2819 5691 2113 
L 5691 0 
L 5113 0 
L 5113 2094 
Q 5113 2597 4934 2840 
Q 4756 3084 4391 3084 
Q 3944 3084 3684 2787 
Q 3425 2491 3425 1978 
L 3425 0 
L 2847 0 
L 2847 2094 
Q 2847 2600 2669 2842 
Q 2491 3084 2119 3084 
Q 1678 3084 1418 2786 
Q 1159 2488 1159 1978 
L 1159 0 
L 581 0 
L 581 3500 
L 1159 3500 
L 1159 2956 
Q 1356 3278 1631 3431 
Q 1906 3584 2284 3584 
Q 2666 3584 2933 3390 
Q 3200 3197 3328 2828 
z
" transform="scale(0.015625)"/>
      <path id="DejaVuSans-65" d="M 3597 1894 
L 3597 1613 
L 953 1613 
Q 991 1019 1311 708 
Q 1631 397 2203 397 
Q 2534 397 2845 478 
Q 3156 559 3463 722 
L 3463 178 
Q 3153 47 2828 -22 
Q 2503 -91 2169 -91 
Q 1331 -91 842 396 
Q 353 884 353 1716 
Q 353 2575 817 3079 
Q 1281 3584 2069 3584 
Q 2775 3584 3186 3129 
Q 3597 2675 3597 1894 
z
M 3022 2063 
Q 3016 2534 2758 2815 
Q 2500 3097 2075 3097 
Q 1594 3097 1305 2825 
Q 1016 2553 972 2059 
L 3022 2063 
z
" transform="scale(0.015625)"/>
      <path id="DejaVuSans-64" d="M 2906 2969 
L 2906 4863 
L 3481 4863 
L 3481 0 
L 2906 0 
L 2906 525 
Q 2725 213 2448 61 
Q 2172 -91 1784 -91 
Q 1150 -91 751 415 
Q 353 922 353 1747 
Q 353 2572 751 3078 
Q 1150 3584 1784 3584 
Q 2172 3584 2448 3432 
Q 2725 3281 2906 2969 
z
M 947 1747 
Q 947 1113 1208 752 
Q 1469 391 1925 391 
Q 2381 391 2643 752 
Q 2906 1113 2906 1747 
Q 2906 2381 2643 2742 
Q 2381 3103 1925 3103 
Q 1469 3103 1208 2742 
Q 947 2381 947 1747 
z
" transform="scale(0.015625)"/>
      <path id="DejaVuSans-73" d="M 2834 3397 
L 2834 2853 
Q 2591 2978 2328 3040 
Q 2066 3103 1784 3103 
Q 1356 3103 1142 2972 
Q 928 2841 928 2578 
Q 928 2378 1081 2264 
Q 1234 2150 1697 2047 
L 1894 2003 
Q 2506 1872 2764 1633 
Q 3022 1394 3022 966 
Q 3022 478 2636 193 
Q 2250 -91 1575 -91 
Q 1294 -91 989 -36 
Q 684 19 347 128 
L 347 722 
Q 666 556 975 473 
Q 1284 391 1588 391 
Q 1994 391 2212 530 
Q 2431 669 2431 922 
Q 2431 1156 2273 1281 
Q 2116 1406 1581 1522 
L 1381 1569 
Q 847 1681 609 1914 
Q 372 2147 372 2553 
Q 372 3047 722 3315 
Q 1072 3584 1716 3584 
Q 2034 3584 2315 3537 
Q 2597 3491 2834 3397 
z
" transform="scale(0.015625)"/>
      <path id="DejaVuSans-46" d="M 628 4666 
L 3309 4666 
L 3309 4134 
L 1259 4134 
L 1259 2759 
L 3109 2759 
L 3109 2228 
L 1259 2228 
L 1259 0 
L 628 0 
L 628 4666 
z
" transform="scale(0.015625)"/>
      <path id="DejaVuSans-63" d="M 3122 3366 
L 3122 2828 
Q 2878 2963 2633 3030 
Q 2388 3097 2138 3097 
Q 1578 3097 1268 2742 
Q 959 2388 959 1747 
Q 959 1106 1268 751 
Q 1578 397 2138 397 
Q 2388 397 2633 464 
Q 2878 531 3122 666 
L 3122 134 
Q 2881 22 2623 -34 
Q 2366 -91 2075 -91 
Q 1284 -91 818 406 
Q 353 903 353 1747 
Q 353 2603 823 3093 
Q 1294 3584 2113 3584 
Q 2378 3584 2631 3529 
Q 2884 3475 3122 3366 
z
" transform="scale(0.015625)"/>
      <path id="DejaVuSans-74" d="M 1172 4494 
L 1172 3500 
L 2356 3500 
L 2356 3053 
L 1172 3053 
L 1172 1153 
Q 1172 725 1289 603 
Q 1406 481 1766 481 
L 2356 481 
L 2356 0 
L 1766 0 
Q 1100 0 847 248 
Q 594 497 594 1153 
L 594 3053 
L 172 3053 
L 172 3500 
L 594 3500 
L 594 4494 
L 1172 4494 
z
" transform="scale(0.015625)"/>
      <path id="DejaVuSans-67" d="M 2906 1791 
Q 2906 2416 2648 2759 
Q 2391 3103 1925 3103 
Q 1463 3103 1205 2759 
Q 947 2416 947 1791 
Q 947 1169 1205 825 
Q 1463 481 1925 481 
Q 2391 481 2648 825 
Q 2906 1169 2906 1791 
z
M 3481 434 
Q 3481 -459 3084 -895 
Q 2688 -1331 1869 -1331 
Q 1566 -1331 1297 -1286 
Q 1028 -1241 775 -1147 
L 775 -588 
Q 1028 -725 1275 -790 
Q 1522 -856 1778 -856 
Q 2344 -856 2625 -561 
Q 2906 -266 2906 331 
L 2906 616 
Q 2728 306 2450 153 
Q 2172 0 1784 0 
Q 1141 0 747 490 
Q 353 981 353 1791 
Q 353 2603 747 3093 
Q 1141 3584 1784 3584 
Q 2172 3584 2450 3431 
Q 2728 3278 2906 2969 
L 2906 3500 
L 3481 3500 
L 3481 434 
z
" transform="scale(0.015625)"/>
      <path id="DejaVuSans-53" d="M 3425 4513 
L 3425 3897 
Q 3066 4069 2747 4153 
Q 2428 4238 2131 4238 
Q 1616 4238 1336 4038 
Q 1056 3838 1056 3469 
Q 1056 3159 1242 3001 
Q 1428 2844 1947 2747 
L 2328 2669 
Q 3034 2534 3370 2195 
Q 3706 1856 3706 1288 
Q 3706 609 3251 259 
Q 2797 -91 1919 -91 
Q 1588 -91 1214 -16 
Q 841 59 441 206 
L 441 856 
Q 825 641 1194 531 
Q 1563 422 1919 422 
Q 2459 422 2753 634 
Q 3047 847 3047 1241 
Q 3047 1584 2836 1778 
Q 2625 1972 2144 2069 
L 1759 2144 
Q 1053 2284 737 2584 
Q 422 2884 422 3419 
Q 422 4038 858 4394 
Q 1294 4750 2059 4750 
Q 2388 4750 2728 4690 
Q 3069 4631 3425 4513 
z
" transform="scale(0.015625)"/>
      <path id="DejaVuSans-76" d="M 191 3500 
L 800 3500 
L 1894 563 
L 2988 3500 
L 3597 3500 
L 2284 0 
L 1503 0 
L 191 3500 
z
" transform="scale(0.015625)"/>
      <path id="DejaVuSans-6b" d="M 581 4863 
L 1159 4863 
L 1159 1991 
L 2875 3500 
L 3609 3500 
L 1753 1863 
L 3688 0 
L 2938 0 
L 1159 1709 
L 1159 0 
L 581 0 
L 581 4863 
z
" transform="scale(0.015625)"/>
     </defs>
     <use xlink:href="#DejaVuSans-44"/>
     <use xlink:href="#DejaVuSans-61" x="77.001953"/>
     <use xlink:href="#DejaVuSans-69" x="138.28125"/>
     <use xlink:href="#DejaVuSans-6c" x="166.064453"/>
     <use xlink:href="#DejaVuSans-79" x="193.847656"/>
     <use xlink:href="#DejaVuSans-20" x="253.027344"/>
     <use xlink:href="#DejaVuSans-43" x="284.814453"/>
     <use xlink:href="#DejaVuSans-6f" x="354.638672"/>
     <use xlink:href="#DejaVuSans-6e" x="415.820312"/>
     <use xlink:href="#DejaVuSans-66" x="479.199219"/>
     <use xlink:href="#DejaVuSans-69" x="514.404297"/>
     <use xlink:href="#DejaVuSans-72" x="542.1875"/>
     <use xlink:href="#DejaVuSans-6d" x="581.550781"/>
     <use xlink:href="#DejaVuSans-65" x="678.962891"/>
     <use xlink:href="#DejaVuSans-64" x="740.486328"/>
     <use xlink:href="#DejaVuSans-20" x="803.962891"/>
     <use xlink:href="#DejaVuSans-43" x="835.75"/>
     <use xlink:href="#DejaVuSans-61" x="905.574219"/>
     <use xlink:href="#DejaVuSans-73" x="966.853516"/>
     <use xlink:href="#DejaVuSans-65" x="1018.953125"/>
     <use xlink:href="#DejaVuSans-73" x="1080.476562"/>
     <use xlink:href="#DejaVuSans-20" x="1132.576172"/>
     <use xlink:href="#DejaVuSans-46" x="1164.363281"/>
     <use xlink:href="#DejaVuSans-6f" x="1218.257812"/>
     <use xlink:href="#DejaVuSans-72" x="1279.439453"/>
     <use xlink:href="#DejaVuSans-65" x="1318.302734"/>
     <use xlink:href="#DejaVuSans-63" x="1379.826172"/>
     <use xlink:href="#DejaVuSans-61" x="1434.806641"/>
     <use xlink:href="#DejaVuSans-73" x="1496.085938"/>
     <use xlink:href="#DejaVuSans-74" x="1548.185547"/>
     <use xlink:href="#DejaVuSans-69" x="1587.394531"/>
     <use xlink:href="#DejaVuSans-6e" x="1615.177734"/>
     <use xlink:href="#DejaVuSans-67" x="1678.556641"/>
     <use xlink:href="#DejaVuSans-20" x="1742.033203"/>
     <use xlink:href="#DejaVuSans-2d" x="1773.820312"/>
     <use xlink:href="#DejaVuSans-20" x="1809.904297"/>
     <use xlink:href="#DejaVuSans-53" x="1841.691406"/>
     <use xlink:href="#DejaVuSans-6c" x="1905.167969"/>
     <use xlink:href="#DejaVuSans-6f" x="1932.951172"/>
     <use xlink:href="#DejaVuSans-76" x="1994.132812"/>
     <use xlink:href="#DejaVuSans-61" x="2053.3125"/>
     <use xlink:href="#DejaVuSans-6b" x="2114.591797"/>
     <use xlink:href="#DejaVuSans-69" x="2172.501953"/>
     <use xlink:href="#DejaVuSans-61" x="2200.285156"/>
    </g>
    <!-- ARIMA (4, 1, 1)x(1, 0, 1, 7) (R2 = 0.875157) -->
    <g transform="translate(583.628438 29.7555)scale(0.12 -0.12)">
     <defs>
      <path id="DejaVuSans-41" d="M 2188 4044 
L 1331 1722 
L 3047 1722 
L 2188 4044 
z
M 1831 4666 
L 2547 4666 
L 4325 0 
L 3669 0 
L 3244 1197 
L 1141 1197 
L 716 0 
L 50 0 
L 1831 4666 
z
" transform="scale(0.015625)"/>
      <path id="DejaVuSans-52" d="M 2841 2188 
Q 3044 2119 3236 1894 
Q 3428 1669 3622 1275 
L 4263 0 
L 3584 0 
L 2988 1197 
Q 2756 1666 2539 1819 
Q 2322 1972 1947 1972 
L 1259 1972 
L 1259 0 
L 628 0 
L 628 4666 
L 2053 4666 
Q 2853 4666 3247 4331 
Q 3641 3997 3641 3322 
Q 3641 2881 3436 2590 
Q 3231 2300 2841 2188 
z
M 1259 4147 
L 1259 2491 
L 2053 2491 
Q 2509 2491 2742 2702 
Q 2975 2913 2975 3322 
Q 2975 3731 2742 3939 
Q 2509 4147 2053 4147 
L 1259 4147 
z
" transform="scale(0.015625)"/>
      <path id="DejaVuSans-49" d="M 628 4666 
L 1259 4666 
L 1259 0 
L 628 0 
L 628 4666 
z
" transform="scale(0.015625)"/>
      <path id="DejaVuSans-4d" d="M 628 4666 
L 1569 4666 
L 2759 1491 
L 3956 4666 
L 4897 4666 
L 4897 0 
L 4281 0 
L 4281 4097 
L 3078 897 
L 2444 897 
L 1241 4097 
L 1241 0 
L 628 0 
L 628 4666 
z
" transform="scale(0.015625)"/>
      <path id="DejaVuSans-28" d="M 1984 4856 
Q 1566 4138 1362 3434 
Q 1159 2731 1159 2009 
Q 1159 1288 1364 580 
Q 1569 -128 1984 -844 
L 1484 -844 
Q 1016 -109 783 600 
Q 550 1309 550 2009 
Q 550 2706 781 3412 
Q 1013 4119 1484 4856 
L 1984 4856 
z
" transform="scale(0.015625)"/>
      <path id="DejaVuSans-2c" d="M 750 794 
L 1409 794 
L 1409 256 
L 897 -744 
L 494 -744 
L 750 256 
L 750 794 
z
" transform="scale(0.015625)"/>
      <path id="DejaVuSans-29" d="M 513 4856 
L 1013 4856 
Q 1481 4119 1714 3412 
Q 1947 2706 1947 2009 
Q 1947 1309 1714 600 
Q 1481 -109 1013 -844 
L 513 -844 
Q 928 -128 1133 580 
Q 1338 1288 1338 2009 
Q 1338 2731 1133 3434 
Q 928 4138 513 4856 
z
" transform="scale(0.015625)"/>
      <path id="DejaVuSans-78" d="M 3513 3500 
L 2247 1797 
L 3578 0 
L 2900 0 
L 1881 1375 
L 863 0 
L 184 0 
L 1544 1831 
L 300 3500 
L 978 3500 
L 1906 2253 
L 2834 3500 
L 3513 3500 
z
" transform="scale(0.015625)"/>
      <path id="DejaVuSans-3d" d="M 678 2906 
L 4684 2906 
L 4684 2381 
L 678 2381 
L 678 2906 
z
M 678 1631 
L 4684 1631 
L 4684 1100 
L 678 1100 
L 678 1631 
z
" transform="scale(0.015625)"/>
      <path id="DejaVuSans-2e" d="M 684 794 
L 1344 794 
L 1344 0 
L 684 0 
L 684 794 
z
" transform="scale(0.015625)"/>
      <path id="DejaVuSans-38" d="M 2034 2216 
Q 1584 2216 1326 1975 
Q 1069 1734 1069 1313 
Q 1069 891 1326 650 
Q 1584 409 2034 409 
Q 2484 409 2743 651 
Q 3003 894 3003 1313 
Q 3003 1734 2745 1975 
Q 2488 2216 2034 2216 
z
M 1403 2484 
Q 997 2584 770 2862 
Q 544 3141 544 3541 
Q 544 4100 942 4425 
Q 1341 4750 2034 4750 
Q 2731 4750 3128 4425 
Q 3525 4100 3525 3541 
Q 3525 3141 3298 2862 
Q 3072 2584 2669 2484 
Q 3125 2378 3379 2068 
Q 3634 1759 3634 1313 
Q 3634 634 3220 271 
Q 2806 -91 2034 -91 
Q 1263 -91 848 271 
Q 434 634 434 1313 
Q 434 1759 690 2068 
Q 947 2378 1403 2484 
z
M 1172 3481 
Q 1172 3119 1398 2916 
Q 1625 2713 2034 2713 
Q 2441 2713 2670 2916 
Q 2900 3119 2900 3481 
Q 2900 3844 2670 4047 
Q 2441 4250 2034 4250 
Q 1625 4250 1398 4047 
Q 1172 3844 1172 3481 
z
" transform="scale(0.015625)"/>
     </defs>
     <use xlink:href="#DejaVuSans-41"/>
     <use xlink:href="#DejaVuSans-52" x="68.408203"/>
     <use xlink:href="#DejaVuSans-49" x="137.890625"/>
     <use xlink:href="#DejaVuSans-4d" x="167.382812"/>
     <use xlink:href="#DejaVuSans-41" x="253.662109"/>
     <use xlink:href="#DejaVuSans-20" x="322.070312"/>
     <use xlink:href="#DejaVuSans-28" x="353.857422"/>
     <use xlink:href="#DejaVuSans-34" x="392.871094"/>
     <use xlink:href="#DejaVuSans-2c" x="456.494141"/>
     <use xlink:href="#DejaVuSans-20" x="488.28125"/>
     <use xlink:href="#DejaVuSans-31" x="520.068359"/>
     <use xlink:href="#DejaVuSans-2c" x="583.691406"/>
     <use xlink:href="#DejaVuSans-20" x="615.478516"/>
     <use xlink:href="#DejaVuSans-31" x="647.265625"/>
     <use xlink:href="#DejaVuSans-29" x="710.888672"/>
     <use xlink:href="#DejaVuSans-78" x="749.902344"/>
     <use xlink:href="#DejaVuSans-28" x="809.082031"/>
     <use xlink:href="#DejaVuSans-31" x="848.095703"/>
     <use xlink:href="#DejaVuSans-2c" x="911.71875"/>
     <use xlink:href="#DejaVuSans-20" x="943.505859"/>
     <use xlink:href="#DejaVuSans-30" x="975.292969"/>
     <use xlink:href="#DejaVuSans-2c" x="1038.916016"/>
     <use xlink:href="#DejaVuSans-20" x="1070.703125"/>
     <use xlink:href="#DejaVuSans-31" x="1102.490234"/>
     <use xlink:href="#DejaVuSans-2c" x="1166.113281"/>
     <use xlink:href="#DejaVuSans-20" x="1197.900391"/>
     <use xlink:href="#DejaVuSans-37" x="1229.6875"/>
     <use xlink:href="#DejaVuSans-29" x="1293.310547"/>
     <use xlink:href="#DejaVuSans-20" x="1332.324219"/>
     <use xlink:href="#DejaVuSans-28" x="1364.111328"/>
     <use xlink:href="#DejaVuSans-52" x="1403.125"/>
     <use xlink:href="#DejaVuSans-32" x="1472.607422"/>
     <use xlink:href="#DejaVuSans-20" x="1536.230469"/>
     <use xlink:href="#DejaVuSans-3d" x="1568.017578"/>
     <use xlink:href="#DejaVuSans-20" x="1651.806641"/>
     <use xlink:href="#DejaVuSans-30" x="1683.59375"/>
     <use xlink:href="#DejaVuSans-2e" x="1747.216797"/>
     <use xlink:href="#DejaVuSans-38" x="1779.003906"/>
     <use xlink:href="#DejaVuSans-37" x="1842.626953"/>
     <use xlink:href="#DejaVuSans-35" x="1906.25"/>
     <use xlink:href="#DejaVuSans-31" x="1969.873047"/>
     <use xlink:href="#DejaVuSans-35" x="2033.496094"/>
     <use xlink:href="#DejaVuSans-37" x="2097.119141"/>
     <use xlink:href="#DejaVuSans-29" x="2160.742188"/>
    </g>
   </g>
   <g id="legend_1">
    <g id="patch_7">
     <path d="M 1281.132812 87.789875 
L 1378.2125 87.789875 
Q 1380.2125 87.789875 1380.2125 85.789875 
L 1380.2125 42.7555 
Q 1380.2125 40.7555 1378.2125 40.7555 
L 1281.132812 40.7555 
Q 1279.132812 40.7555 1279.132812 42.7555 
L 1279.132812 85.789875 
Q 1279.132812 87.789875 1281.132812 87.789875 
z
" style="fill: #ffffff; opacity: 0.8; stroke: #cccccc; stroke-linejoin: miter"/>
    </g>
    <g id="line2d_21">
     <path d="M 1283.132812 48.853937 
L 1293.132812 48.853937 
L 1303.132812 48.853937 
" style="fill: none; stroke: #0000ff; stroke-width: 1.5; stroke-linecap: square"/>
    </g>
    <g id="text_19">
     <!-- Actual Value -->
     <g transform="translate(1311.132812 52.353937)scale(0.1 -0.1)">
      <defs>
       <path id="DejaVuSans-75" d="M 544 1381 
L 544 3500 
L 1119 3500 
L 1119 1403 
Q 1119 906 1312 657 
Q 1506 409 1894 409 
Q 2359 409 2629 706 
Q 2900 1003 2900 1516 
L 2900 3500 
L 3475 3500 
L 3475 0 
L 2900 0 
L 2900 538 
Q 2691 219 2414 64 
Q 2138 -91 1772 -91 
Q 1169 -91 856 284 
Q 544 659 544 1381 
z
M 1991 3584 
L 1991 3584 
z
" transform="scale(0.015625)"/>
       <path id="DejaVuSans-56" d="M 1831 0 
L 50 4666 
L 709 4666 
L 2188 738 
L 3669 4666 
L 4325 4666 
L 2547 0 
L 1831 0 
z
" transform="scale(0.015625)"/>
      </defs>
      <use xlink:href="#DejaVuSans-41"/>
      <use xlink:href="#DejaVuSans-63" x="66.658203"/>
      <use xlink:href="#DejaVuSans-74" x="121.638672"/>
      <use xlink:href="#DejaVuSans-75" x="160.847656"/>
      <use xlink:href="#DejaVuSans-61" x="224.226562"/>
      <use xlink:href="#DejaVuSans-6c" x="285.505859"/>
      <use xlink:href="#DejaVuSans-20" x="313.289062"/>
      <use xlink:href="#DejaVuSans-56" x="345.076172"/>
      <use xlink:href="#DejaVuSans-61" x="405.734375"/>
      <use xlink:href="#DejaVuSans-6c" x="467.013672"/>
      <use xlink:href="#DejaVuSans-75" x="494.796875"/>
      <use xlink:href="#DejaVuSans-65" x="558.175781"/>
     </g>
    </g>
    <g id="line2d_22">
     <path d="M 1283.132812 63.532062 
L 1293.132812 63.532062 
L 1303.132812 63.532062 
" style="fill: none; stroke: #ffa500; stroke-width: 1.5; stroke-linecap: square"/>
    </g>
    <g id="text_20">
     <!-- Check Value -->
     <g transform="translate(1311.132812 67.032062)scale(0.1 -0.1)">
      <defs>
       <path id="DejaVuSans-68" d="M 3513 2113 
L 3513 0 
L 2938 0 
L 2938 2094 
Q 2938 2591 2744 2837 
Q 2550 3084 2163 3084 
Q 1697 3084 1428 2787 
Q 1159 2491 1159 1978 
L 1159 0 
L 581 0 
L 581 4863 
L 1159 4863 
L 1159 2956 
Q 1366 3272 1645 3428 
Q 1925 3584 2291 3584 
Q 2894 3584 3203 3211 
Q 3513 2838 3513 2113 
z
" transform="scale(0.015625)"/>
      </defs>
      <use xlink:href="#DejaVuSans-43"/>
      <use xlink:href="#DejaVuSans-68" x="69.824219"/>
      <use xlink:href="#DejaVuSans-65" x="133.203125"/>
      <use xlink:href="#DejaVuSans-63" x="194.726562"/>
      <use xlink:href="#DejaVuSans-6b" x="249.707031"/>
      <use xlink:href="#DejaVuSans-20" x="307.617188"/>
      <use xlink:href="#DejaVuSans-56" x="339.404297"/>
      <use xlink:href="#DejaVuSans-61" x="400.0625"/>
      <use xlink:href="#DejaVuSans-6c" x="461.341797"/>
      <use xlink:href="#DejaVuSans-75" x="489.125"/>
      <use xlink:href="#DejaVuSans-65" x="552.503906"/>
     </g>
    </g>
    <g id="line2d_23">
     <path d="M 1283.132812 78.210187 
L 1293.132812 78.210187 
L 1303.132812 78.210187 
" style="fill: none; stroke: #ff0000; stroke-width: 1.5; stroke-linecap: square"/>
    </g>
    <g id="text_21">
     <!-- Predict Value -->
     <g transform="translate(1311.132812 81.710187)scale(0.1 -0.1)">
      <defs>
       <path id="DejaVuSans-50" d="M 1259 4147 
L 1259 2394 
L 2053 2394 
Q 2494 2394 2734 2622 
Q 2975 2850 2975 3272 
Q 2975 3691 2734 3919 
Q 2494 4147 2053 4147 
L 1259 4147 
z
M 628 4666 
L 2053 4666 
Q 2838 4666 3239 4311 
Q 3641 3956 3641 3272 
Q 3641 2581 3239 2228 
Q 2838 1875 2053 1875 
L 1259 1875 
L 1259 0 
L 628 0 
L 628 4666 
z
" transform="scale(0.015625)"/>
      </defs>
      <use xlink:href="#DejaVuSans-50"/>
      <use xlink:href="#DejaVuSans-72" x="58.552734"/>
      <use xlink:href="#DejaVuSans-65" x="97.416016"/>
      <use xlink:href="#DejaVuSans-64" x="158.939453"/>
      <use xlink:href="#DejaVuSans-69" x="222.416016"/>
      <use xlink:href="#DejaVuSans-63" x="250.199219"/>
      <use xlink:href="#DejaVuSans-74" x="305.179688"/>
      <use xlink:href="#DejaVuSans-20" x="344.388672"/>
      <use xlink:href="#DejaVuSans-56" x="376.175781"/>
      <use xlink:href="#DejaVuSans-61" x="436.833984"/>
      <use xlink:href="#DejaVuSans-6c" x="498.113281"/>
      <use xlink:href="#DejaVuSans-75" x="525.896484"/>
      <use xlink:href="#DejaVuSans-65" x="589.275391"/>
     </g>
    </g>
   </g>
  </g>
 </g>
 <defs>
  <clipPath id="p4ac7fc70cd">
   <rect x="46.0125" y="35.7555" width="1339.2" height="332.64"/>
  </clipPath>
 </defs>
</svg>
