<?xml version="1.0" encoding="utf-8" standalone="no"?>
<!DOCTYPE svg PUBLIC "-//W3C//DTD SVG 1.1//EN"
  "http://www.w3.org/Graphics/SVG/1.1/DTD/svg11.dtd">
<svg xmlns:xlink="http://www.w3.org/1999/xlink" width="1392.4125pt" height="392.273625pt" viewBox="0 0 1392.4125 392.273625" xmlns="http://www.w3.org/2000/svg" version="1.1">
 <metadata>
  <rdf:RDF xmlns:dc="http://purl.org/dc/elements/1.1/" xmlns:cc="http://creativecommons.org/ns#" xmlns:rdf="http://www.w3.org/1999/02/22-rdf-syntax-ns#">
   <cc:Work>
    <dc:type rdf:resource="http://purl.org/dc/dcmitype/StillImage"/>
    <dc:date>2022-06-25T19:57:32.974424</dc:date>
    <dc:format>image/svg+xml</dc:format>
    <dc:creator>
     <cc:Agent>
      <dc:title>Matplotlib v3.5.2, https://matplotlib.org/</dc:title>
     </cc:Agent>
    </dc:creator>
   </cc:Work>
  </rdf:RDF>
 </metadata>
 <defs>
  <style type="text/css">*{stroke-linejoin: round; stroke-linecap: butt}</style>
 </defs>
 <g id="figure_1">
  <g id="patch_1">
   <path d="M 0 392.273625 
L 1392.4125 392.273625 
L 1392.4125 0 
L 0 0 
z
" style="fill: #ffffff"/>
  </g>
  <g id="axes_1">
   <g id="patch_2">
    <path d="M 46.0125 368.3955 
L 1385.2125 368.3955 
L 1385.2125 35.7555 
L 46.0125 35.7555 
z
" style="fill: #ffffff"/>
   </g>
   <g id="matplotlib.axis_1">
    <g id="xtick_1">
     <g id="line2d_1">
      <defs>
       <path id="me2ee30693c" d="M 0 0 
L 0 3.5 
" style="stroke: #000000; stroke-width: 0.8"/>
      </defs>
      <g>
       <use xlink:href="#me2ee30693c" x="76.99237" y="368.3955" style="stroke: #000000; stroke-width: 0.8"/>
      </g>
     </g>
     <g id="text_1">
      <!-- 2020-01 -->
      <g transform="translate(56.100964 382.993937)scale(0.1 -0.1)">
       <defs>
        <path id="DejaVuSans-32" d="M 1228 531 
L 3431 531 
L 3431 0 
L 469 0 
L 469 531 
Q 828 903 1448 1529 
Q 2069 2156 2228 2338 
Q 2531 2678 2651 2914 
Q 2772 3150 2772 3378 
Q 2772 3750 2511 3984 
Q 2250 4219 1831 4219 
Q 1534 4219 1204 4116 
Q 875 4013 500 3803 
L 500 4441 
Q 881 4594 1212 4672 
Q 1544 4750 1819 4750 
Q 2544 4750 2975 4387 
Q 3406 4025 3406 3419 
Q 3406 3131 3298 2873 
Q 3191 2616 2906 2266 
Q 2828 2175 2409 1742 
Q 1991 1309 1228 531 
z
" transform="scale(0.015625)"/>
        <path id="DejaVuSans-30" d="M 2034 4250 
Q 1547 4250 1301 3770 
Q 1056 3291 1056 2328 
Q 1056 1369 1301 889 
Q 1547 409 2034 409 
Q 2525 409 2770 889 
Q 3016 1369 3016 2328 
Q 3016 3291 2770 3770 
Q 2525 4250 2034 4250 
z
M 2034 4750 
Q 2819 4750 3233 4129 
Q 3647 3509 3647 2328 
Q 3647 1150 3233 529 
Q 2819 -91 2034 -91 
Q 1250 -91 836 529 
Q 422 1150 422 2328 
Q 422 3509 836 4129 
Q 1250 4750 2034 4750 
z
" transform="scale(0.015625)"/>
        <path id="DejaVuSans-2d" d="M 313 2009 
L 1997 2009 
L 1997 1497 
L 313 1497 
L 313 2009 
z
" transform="scale(0.015625)"/>
        <path id="DejaVuSans-31" d="M 794 531 
L 1825 531 
L 1825 4091 
L 703 3866 
L 703 4441 
L 1819 4666 
L 2450 4666 
L 2450 531 
L 3481 531 
L 3481 0 
L 794 0 
L 794 531 
z
" transform="scale(0.015625)"/>
       </defs>
       <use xlink:href="#DejaVuSans-32"/>
       <use xlink:href="#DejaVuSans-30" x="63.623047"/>
       <use xlink:href="#DejaVuSans-32" x="127.246094"/>
       <use xlink:href="#DejaVuSans-30" x="190.869141"/>
       <use xlink:href="#DejaVuSans-2d" x="254.492188"/>
       <use xlink:href="#DejaVuSans-30" x="290.576172"/>
       <use xlink:href="#DejaVuSans-31" x="354.199219"/>
      </g>
     </g>
    </g>
    <g id="xtick_2">
     <g id="line2d_2">
      <g>
       <use xlink:href="#me2ee30693c" x="200.640097" y="368.3955" style="stroke: #000000; stroke-width: 0.8"/>
      </g>
     </g>
     <g id="text_2">
      <!-- 2020-04 -->
      <g transform="translate(179.748691 382.993937)scale(0.1 -0.1)">
       <defs>
        <path id="DejaVuSans-34" d="M 2419 4116 
L 825 1625 
L 2419 1625 
L 2419 4116 
z
M 2253 4666 
L 3047 4666 
L 3047 1625 
L 3713 1625 
L 3713 1100 
L 3047 1100 
L 3047 0 
L 2419 0 
L 2419 1100 
L 313 1100 
L 313 1709 
L 2253 4666 
z
" transform="scale(0.015625)"/>
       </defs>
       <use xlink:href="#DejaVuSans-32"/>
       <use xlink:href="#DejaVuSans-30" x="63.623047"/>
       <use xlink:href="#DejaVuSans-32" x="127.246094"/>
       <use xlink:href="#DejaVuSans-30" x="190.869141"/>
       <use xlink:href="#DejaVuSans-2d" x="254.492188"/>
       <use xlink:href="#DejaVuSans-30" x="290.576172"/>
       <use xlink:href="#DejaVuSans-34" x="354.199219"/>
      </g>
     </g>
    </g>
    <g id="xtick_3">
     <g id="line2d_3">
      <g>
       <use xlink:href="#me2ee30693c" x="324.287825" y="368.3955" style="stroke: #000000; stroke-width: 0.8"/>
      </g>
     </g>
     <g id="text_3">
      <!-- 2020-07 -->
      <g transform="translate(303.396418 382.993937)scale(0.1 -0.1)">
       <defs>
        <path id="DejaVuSans-37" d="M 525 4666 
L 3525 4666 
L 3525 4397 
L 1831 0 
L 1172 0 
L 2766 4134 
L 525 4134 
L 525 4666 
z
" transform="scale(0.015625)"/>
       </defs>
       <use xlink:href="#DejaVuSans-32"/>
       <use xlink:href="#DejaVuSans-30" x="63.623047"/>
       <use xlink:href="#DejaVuSans-32" x="127.246094"/>
       <use xlink:href="#DejaVuSans-30" x="190.869141"/>
       <use xlink:href="#DejaVuSans-2d" x="254.492188"/>
       <use xlink:href="#DejaVuSans-30" x="290.576172"/>
       <use xlink:href="#DejaVuSans-37" x="354.199219"/>
      </g>
     </g>
    </g>
    <g id="xtick_4">
     <g id="line2d_4">
      <g>
       <use xlink:href="#me2ee30693c" x="449.294318" y="368.3955" style="stroke: #000000; stroke-width: 0.8"/>
      </g>
     </g>
     <g id="text_4">
      <!-- 2020-10 -->
      <g transform="translate(428.402912 382.993937)scale(0.1 -0.1)">
       <use xlink:href="#DejaVuSans-32"/>
       <use xlink:href="#DejaVuSans-30" x="63.623047"/>
       <use xlink:href="#DejaVuSans-32" x="127.246094"/>
       <use xlink:href="#DejaVuSans-30" x="190.869141"/>
       <use xlink:href="#DejaVuSans-2d" x="254.492188"/>
       <use xlink:href="#DejaVuSans-31" x="290.576172"/>
       <use xlink:href="#DejaVuSans-30" x="354.199219"/>
      </g>
     </g>
    </g>
    <g id="xtick_5">
     <g id="line2d_5">
      <g>
       <use xlink:href="#me2ee30693c" x="574.300812" y="368.3955" style="stroke: #000000; stroke-width: 0.8"/>
      </g>
     </g>
     <g id="text_5">
      <!-- 2021-01 -->
      <g transform="translate(553.409405 382.993937)scale(0.1 -0.1)">
       <use xlink:href="#DejaVuSans-32"/>
       <use xlink:href="#DejaVuSans-30" x="63.623047"/>
       <use xlink:href="#DejaVuSans-32" x="127.246094"/>
       <use xlink:href="#DejaVuSans-31" x="190.869141"/>
       <use xlink:href="#DejaVuSans-2d" x="254.492188"/>
       <use xlink:href="#DejaVuSans-30" x="290.576172"/>
       <use xlink:href="#DejaVuSans-31" x="354.199219"/>
      </g>
     </g>
    </g>
    <g id="xtick_6">
     <g id="line2d_6">
      <g>
       <use xlink:href="#me2ee30693c" x="696.589773" y="368.3955" style="stroke: #000000; stroke-width: 0.8"/>
      </g>
     </g>
     <g id="text_6">
      <!-- 2021-04 -->
      <g transform="translate(675.698366 382.993937)scale(0.1 -0.1)">
       <use xlink:href="#DejaVuSans-32"/>
       <use xlink:href="#DejaVuSans-30" x="63.623047"/>
       <use xlink:href="#DejaVuSans-32" x="127.246094"/>
       <use xlink:href="#DejaVuSans-31" x="190.869141"/>
       <use xlink:href="#DejaVuSans-2d" x="254.492188"/>
       <use xlink:href="#DejaVuSans-30" x="290.576172"/>
       <use xlink:href="#DejaVuSans-34" x="354.199219"/>
      </g>
     </g>
    </g>
    <g id="xtick_7">
     <g id="line2d_7">
      <g>
       <use xlink:href="#me2ee30693c" x="820.2375" y="368.3955" style="stroke: #000000; stroke-width: 0.8"/>
      </g>
     </g>
     <g id="text_7">
      <!-- 2021-07 -->
      <g transform="translate(799.346094 382.993937)scale(0.1 -0.1)">
       <use xlink:href="#DejaVuSans-32"/>
       <use xlink:href="#DejaVuSans-30" x="63.623047"/>
       <use xlink:href="#DejaVuSans-32" x="127.246094"/>
       <use xlink:href="#DejaVuSans-31" x="190.869141"/>
       <use xlink:href="#DejaVuSans-2d" x="254.492188"/>
       <use xlink:href="#DejaVuSans-30" x="290.576172"/>
       <use xlink:href="#DejaVuSans-37" x="354.199219"/>
      </g>
     </g>
    </g>
    <g id="xtick_8">
     <g id="line2d_8">
      <g>
       <use xlink:href="#me2ee30693c" x="945.243994" y="368.3955" style="stroke: #000000; stroke-width: 0.8"/>
      </g>
     </g>
     <g id="text_8">
      <!-- 2021-10 -->
      <g transform="translate(924.352587 382.993937)scale(0.1 -0.1)">
       <use xlink:href="#DejaVuSans-32"/>
       <use xlink:href="#DejaVuSans-30" x="63.623047"/>
       <use xlink:href="#DejaVuSans-32" x="127.246094"/>
       <use xlink:href="#DejaVuSans-31" x="190.869141"/>
       <use xlink:href="#DejaVuSans-2d" x="254.492188"/>
       <use xlink:href="#DejaVuSans-31" x="290.576172"/>
       <use xlink:href="#DejaVuSans-30" x="354.199219"/>
      </g>
     </g>
    </g>
    <g id="xtick_9">
     <g id="line2d_9">
      <g>
       <use xlink:href="#me2ee30693c" x="1070.250487" y="368.3955" style="stroke: #000000; stroke-width: 0.8"/>
      </g>
     </g>
     <g id="text_9">
      <!-- 2022-01 -->
      <g transform="translate(1049.359081 382.993937)scale(0.1 -0.1)">
       <use xlink:href="#DejaVuSans-32"/>
       <use xlink:href="#DejaVuSans-30" x="63.623047"/>
       <use xlink:href="#DejaVuSans-32" x="127.246094"/>
       <use xlink:href="#DejaVuSans-32" x="190.869141"/>
       <use xlink:href="#DejaVuSans-2d" x="254.492188"/>
       <use xlink:href="#DejaVuSans-30" x="290.576172"/>
       <use xlink:href="#DejaVuSans-31" x="354.199219"/>
      </g>
     </g>
    </g>
    <g id="xtick_10">
     <g id="line2d_10">
      <g>
       <use xlink:href="#me2ee30693c" x="1192.539448" y="368.3955" style="stroke: #000000; stroke-width: 0.8"/>
      </g>
     </g>
     <g id="text_10">
      <!-- 2022-04 -->
      <g transform="translate(1171.648042 382.993937)scale(0.1 -0.1)">
       <use xlink:href="#DejaVuSans-32"/>
       <use xlink:href="#DejaVuSans-30" x="63.623047"/>
       <use xlink:href="#DejaVuSans-32" x="127.246094"/>
       <use xlink:href="#DejaVuSans-32" x="190.869141"/>
       <use xlink:href="#DejaVuSans-2d" x="254.492188"/>
       <use xlink:href="#DejaVuSans-30" x="290.576172"/>
       <use xlink:href="#DejaVuSans-34" x="354.199219"/>
      </g>
     </g>
    </g>
    <g id="xtick_11">
     <g id="line2d_11">
      <g>
       <use xlink:href="#me2ee30693c" x="1316.187175" y="368.3955" style="stroke: #000000; stroke-width: 0.8"/>
      </g>
     </g>
     <g id="text_11">
      <!-- 2022-07 -->
      <g transform="translate(1295.295769 382.993937)scale(0.1 -0.1)">
       <use xlink:href="#DejaVuSans-32"/>
       <use xlink:href="#DejaVuSans-30" x="63.623047"/>
       <use xlink:href="#DejaVuSans-32" x="127.246094"/>
       <use xlink:href="#DejaVuSans-32" x="190.869141"/>
       <use xlink:href="#DejaVuSans-2d" x="254.492188"/>
       <use xlink:href="#DejaVuSans-30" x="290.576172"/>
       <use xlink:href="#DejaVuSans-37" x="354.199219"/>
      </g>
     </g>
    </g>
   </g>
   <g id="matplotlib.axis_2">
    <g id="ytick_1">
     <g id="line2d_12">
      <defs>
       <path id="mbe9645052f" d="M 0 0 
L -3.5 0 
" style="stroke: #000000; stroke-width: 0.8"/>
      </defs>
      <g>
       <use xlink:href="#mbe9645052f" x="46.0125" y="352.646818" style="stroke: #000000; stroke-width: 0.8"/>
      </g>
     </g>
     <g id="text_12">
      <!-- 0 -->
      <g transform="translate(32.65 356.446037)scale(0.1 -0.1)">
       <use xlink:href="#DejaVuSans-30"/>
      </g>
     </g>
    </g>
    <g id="ytick_2">
     <g id="line2d_13">
      <g>
       <use xlink:href="#mbe9645052f" x="46.0125" y="313.59824" style="stroke: #000000; stroke-width: 0.8"/>
      </g>
     </g>
     <g id="text_13">
      <!-- 10000 -->
      <g transform="translate(7.2 317.397458)scale(0.1 -0.1)">
       <use xlink:href="#DejaVuSans-31"/>
       <use xlink:href="#DejaVuSans-30" x="63.623047"/>
       <use xlink:href="#DejaVuSans-30" x="127.246094"/>
       <use xlink:href="#DejaVuSans-30" x="190.869141"/>
       <use xlink:href="#DejaVuSans-30" x="254.492188"/>
      </g>
     </g>
    </g>
    <g id="ytick_3">
     <g id="line2d_14">
      <g>
       <use xlink:href="#mbe9645052f" x="46.0125" y="274.549661" style="stroke: #000000; stroke-width: 0.8"/>
      </g>
     </g>
     <g id="text_14">
      <!-- 20000 -->
      <g transform="translate(7.2 278.34888)scale(0.1 -0.1)">
       <use xlink:href="#DejaVuSans-32"/>
       <use xlink:href="#DejaVuSans-30" x="63.623047"/>
       <use xlink:href="#DejaVuSans-30" x="127.246094"/>
       <use xlink:href="#DejaVuSans-30" x="190.869141"/>
       <use xlink:href="#DejaVuSans-30" x="254.492188"/>
      </g>
     </g>
    </g>
    <g id="ytick_4">
     <g id="line2d_15">
      <g>
       <use xlink:href="#mbe9645052f" x="46.0125" y="235.501083" style="stroke: #000000; stroke-width: 0.8"/>
      </g>
     </g>
     <g id="text_15">
      <!-- 30000 -->
      <g transform="translate(7.2 239.300302)scale(0.1 -0.1)">
       <defs>
        <path id="DejaVuSans-33" d="M 2597 2516 
Q 3050 2419 3304 2112 
Q 3559 1806 3559 1356 
Q 3559 666 3084 287 
Q 2609 -91 1734 -91 
Q 1441 -91 1130 -33 
Q 819 25 488 141 
L 488 750 
Q 750 597 1062 519 
Q 1375 441 1716 441 
Q 2309 441 2620 675 
Q 2931 909 2931 1356 
Q 2931 1769 2642 2001 
Q 2353 2234 1838 2234 
L 1294 2234 
L 1294 2753 
L 1863 2753 
Q 2328 2753 2575 2939 
Q 2822 3125 2822 3475 
Q 2822 3834 2567 4026 
Q 2313 4219 1838 4219 
Q 1578 4219 1281 4162 
Q 984 4106 628 3988 
L 628 4550 
Q 988 4650 1302 4700 
Q 1616 4750 1894 4750 
Q 2613 4750 3031 4423 
Q 3450 4097 3450 3541 
Q 3450 3153 3228 2886 
Q 3006 2619 2597 2516 
z
" transform="scale(0.015625)"/>
       </defs>
       <use xlink:href="#DejaVuSans-33"/>
       <use xlink:href="#DejaVuSans-30" x="63.623047"/>
       <use xlink:href="#DejaVuSans-30" x="127.246094"/>
       <use xlink:href="#DejaVuSans-30" x="190.869141"/>
       <use xlink:href="#DejaVuSans-30" x="254.492188"/>
      </g>
     </g>
    </g>
    <g id="ytick_5">
     <g id="line2d_16">
      <g>
       <use xlink:href="#mbe9645052f" x="46.0125" y="196.452505" style="stroke: #000000; stroke-width: 0.8"/>
      </g>
     </g>
     <g id="text_16">
      <!-- 40000 -->
      <g transform="translate(7.2 200.251723)scale(0.1 -0.1)">
       <use xlink:href="#DejaVuSans-34"/>
       <use xlink:href="#DejaVuSans-30" x="63.623047"/>
       <use xlink:href="#DejaVuSans-30" x="127.246094"/>
       <use xlink:href="#DejaVuSans-30" x="190.869141"/>
       <use xlink:href="#DejaVuSans-30" x="254.492188"/>
      </g>
     </g>
    </g>
    <g id="ytick_6">
     <g id="line2d_17">
      <g>
       <use xlink:href="#mbe9645052f" x="46.0125" y="157.403926" style="stroke: #000000; stroke-width: 0.8"/>
      </g>
     </g>
     <g id="text_17">
      <!-- 50000 -->
      <g transform="translate(7.2 161.203145)scale(0.1 -0.1)">
       <defs>
        <path id="DejaVuSans-35" d="M 691 4666 
L 3169 4666 
L 3169 4134 
L 1269 4134 
L 1269 2991 
Q 1406 3038 1543 3061 
Q 1681 3084 1819 3084 
Q 2600 3084 3056 2656 
Q 3513 2228 3513 1497 
Q 3513 744 3044 326 
Q 2575 -91 1722 -91 
Q 1428 -91 1123 -41 
Q 819 9 494 109 
L 494 744 
Q 775 591 1075 516 
Q 1375 441 1709 441 
Q 2250 441 2565 725 
Q 2881 1009 2881 1497 
Q 2881 1984 2565 2268 
Q 2250 2553 1709 2553 
Q 1456 2553 1204 2497 
Q 953 2441 691 2322 
L 691 4666 
z
" transform="scale(0.015625)"/>
       </defs>
       <use xlink:href="#DejaVuSans-35"/>
       <use xlink:href="#DejaVuSans-30" x="63.623047"/>
       <use xlink:href="#DejaVuSans-30" x="127.246094"/>
       <use xlink:href="#DejaVuSans-30" x="190.869141"/>
       <use xlink:href="#DejaVuSans-30" x="254.492188"/>
      </g>
     </g>
    </g>
    <g id="ytick_7">
     <g id="line2d_18">
      <g>
       <use xlink:href="#mbe9645052f" x="46.0125" y="118.355348" style="stroke: #000000; stroke-width: 0.8"/>
      </g>
     </g>
     <g id="text_18">
      <!-- 60000 -->
      <g transform="translate(7.2 122.154567)scale(0.1 -0.1)">
       <defs>
        <path id="DejaVuSans-36" d="M 2113 2584 
Q 1688 2584 1439 2293 
Q 1191 2003 1191 1497 
Q 1191 994 1439 701 
Q 1688 409 2113 409 
Q 2538 409 2786 701 
Q 3034 994 3034 1497 
Q 3034 2003 2786 2293 
Q 2538 2584 2113 2584 
z
M 3366 4563 
L 3366 3988 
Q 3128 4100 2886 4159 
Q 2644 4219 2406 4219 
Q 1781 4219 1451 3797 
Q 1122 3375 1075 2522 
Q 1259 2794 1537 2939 
Q 1816 3084 2150 3084 
Q 2853 3084 3261 2657 
Q 3669 2231 3669 1497 
Q 3669 778 3244 343 
Q 2819 -91 2113 -91 
Q 1303 -91 875 529 
Q 447 1150 447 2328 
Q 447 3434 972 4092 
Q 1497 4750 2381 4750 
Q 2619 4750 2861 4703 
Q 3103 4656 3366 4563 
z
" transform="scale(0.015625)"/>
       </defs>
       <use xlink:href="#DejaVuSans-36"/>
       <use xlink:href="#DejaVuSans-30" x="63.623047"/>
       <use xlink:href="#DejaVuSans-30" x="127.246094"/>
       <use xlink:href="#DejaVuSans-30" x="190.869141"/>
       <use xlink:href="#DejaVuSans-30" x="254.492188"/>
      </g>
     </g>
    </g>
    <g id="ytick_8">
     <g id="line2d_19">
      <g>
       <use xlink:href="#mbe9645052f" x="46.0125" y="79.30677" style="stroke: #000000; stroke-width: 0.8"/>
      </g>
     </g>
     <g id="text_19">
      <!-- 70000 -->
      <g transform="translate(7.2 83.105989)scale(0.1 -0.1)">
       <use xlink:href="#DejaVuSans-37"/>
       <use xlink:href="#DejaVuSans-30" x="63.623047"/>
       <use xlink:href="#DejaVuSans-30" x="127.246094"/>
       <use xlink:href="#DejaVuSans-30" x="190.869141"/>
       <use xlink:href="#DejaVuSans-30" x="254.492188"/>
      </g>
     </g>
    </g>
    <g id="ytick_9">
     <g id="line2d_20">
      <g>
       <use xlink:href="#mbe9645052f" x="46.0125" y="40.258192" style="stroke: #000000; stroke-width: 0.8"/>
      </g>
     </g>
     <g id="text_20">
      <!-- 80000 -->
      <g transform="translate(7.2 44.05741)scale(0.1 -0.1)">
       <defs>
        <path id="DejaVuSans-38" d="M 2034 2216 
Q 1584 2216 1326 1975 
Q 1069 1734 1069 1313 
Q 1069 891 1326 650 
Q 1584 409 2034 409 
Q 2484 409 2743 651 
Q 3003 894 3003 1313 
Q 3003 1734 2745 1975 
Q 2488 2216 2034 2216 
z
M 1403 2484 
Q 997 2584 770 2862 
Q 544 3141 544 3541 
Q 544 4100 942 4425 
Q 1341 4750 2034 4750 
Q 2731 4750 3128 4425 
Q 3525 4100 3525 3541 
Q 3525 3141 3298 2862 
Q 3072 2584 2669 2484 
Q 3125 2378 3379 2068 
Q 3634 1759 3634 1313 
Q 3634 634 3220 271 
Q 2806 -91 2034 -91 
Q 1263 -91 848 271 
Q 434 634 434 1313 
Q 434 1759 690 2068 
Q 947 2378 1403 2484 
z
M 1172 3481 
Q 1172 3119 1398 2916 
Q 1625 2713 2034 2713 
Q 2441 2713 2670 2916 
Q 2900 3119 2900 3481 
Q 2900 3844 2670 4047 
Q 2441 4250 2034 4250 
Q 1625 4250 1398 4047 
Q 1172 3844 1172 3481 
z
" transform="scale(0.015625)"/>
       </defs>
       <use xlink:href="#DejaVuSans-38"/>
       <use xlink:href="#DejaVuSans-30" x="63.623047"/>
       <use xlink:href="#DejaVuSans-30" x="127.246094"/>
       <use xlink:href="#DejaVuSans-30" x="190.869141"/>
       <use xlink:href="#DejaVuSans-30" x="254.492188"/>
      </g>
     </g>
    </g>
   </g>
   <g id="line2d_21">
    <path d="M 106.885227 352.646818 
L 173.464773 352.646818 
L 174.823539 352.43986 
L 178.899838 352.311 
L 180.258604 352.18995 
L 181.61737 352.646818 
L 182.976136 351.330881 
L 184.334903 351.729176 
L 185.693669 351.631555 
L 187.052435 351.397263 
L 188.411201 350.850583 
L 189.769968 351.467551 
L 191.128734 350.175043 
L 192.4875 350.503051 
L 195.205032 349.124636 
L 196.563799 349.55417 
L 197.922565 350.905251 
L 199.281331 348.60529 
L 200.640097 349.491693 
L 201.998864 349.589314 
L 203.35763 349.319879 
L 204.716396 350.155519 
L 206.075162 349.702555 
L 207.433929 350.881822 
L 208.792695 349.866559 
L 210.151461 349.917322 
L 211.510227 349.464359 
L 212.868994 346.727053 
L 214.22776 350.635816 
L 215.586526 350.311713 
L 216.945292 351.284023 
L 218.304058 350.639721 
L 221.021591 349.718175 
L 222.380357 351.940039 
L 223.739123 350.057897 
L 225.09789 350.612387 
L 226.456656 350.081326 
L 227.815422 350.631911 
L 229.174188 350.292189 
L 230.532955 351.198116 
L 231.891721 350.913061 
L 233.250487 350.323427 
L 234.609253 350.803725 
L 235.968019 352.010326 
L 237.326786 351.494885 
L 238.685552 351.932229 
L 240.044318 350.538195 
L 241.403084 351.451931 
L 242.761851 353.2755 
L 244.120617 352.287571 
L 245.479383 351.701842 
L 246.838149 351.951753 
L 248.196916 350.772486 
L 249.555682 350.565529 
L 250.914448 350.487432 
L 252.273214 352.107948 
L 253.631981 351.963468 
L 254.990747 352.264142 
L 256.349513 351.733081 
L 259.067045 351.916609 
L 260.425812 351.615935 
L 261.784578 351.760415 
L 263.143344 351.76432 
L 264.50211 351.971277 
L 265.860877 351.776035 
L 268.578409 351.662794 
L 269.937175 351.522219 
L 271.295942 351.588601 
L 272.654708 352.053279 
L 274.013474 352.002516 
L 278.089773 351.459741 
L 279.448539 351.280118 
L 280.807305 351.643269 
L 282.166071 351.487075 
L 283.524838 351.865846 
L 284.883604 351.885371 
L 286.24237 351.21764 
L 287.601136 351.35431 
L 288.959903 351.174686 
L 290.318669 351.155162 
L 291.677435 351.311357 
L 293.036201 351.897085 
L 294.394968 351.002873 
L 295.753734 351.49879 
L 297.1125 351.436312 
L 298.471266 351.592506 
L 299.830032 351.541743 
L 301.188799 351.760415 
L 302.547565 351.295737 
L 303.906331 351.475361 
L 305.265097 351.334786 
L 306.623864 351.018492 
L 307.98263 351.182496 
L 309.341396 351.174686 
L 310.700162 351.506599 
L 312.058929 351.63546 
L 313.417695 351.299642 
L 314.776461 351.213735 
L 316.135227 351.432407 
L 317.493994 350.885727 
L 318.85276 351.385549 
L 320.211526 350.862298 
L 321.570292 351.608126 
L 322.929058 351.752605 
L 324.287825 351.424597 
L 325.646591 351.366025 
L 328.364123 351.034112 
L 331.081656 351.740891 
L 332.440422 351.526124 
L 333.799188 350.916966 
L 336.516721 351.077065 
L 337.875487 350.530385 
L 339.234253 351.510504 
L 340.593019 351.451931 
L 341.951786 351.736986 
L 343.310552 351.182496 
L 346.028084 351.428502 
L 347.386851 351.424597 
L 348.745617 351.686223 
L 350.104383 352.119662 
L 351.463149 352.150901 
L 352.821916 351.662794 
L 354.180682 351.752605 
L 355.539448 351.424597 
L 360.974513 352.213379 
L 362.333279 351.854132 
L 363.692045 351.651079 
L 365.050812 351.850227 
L 366.409578 351.717462 
L 367.768344 352.049375 
L 369.12711 352.232903 
L 370.485877 352.209474 
L 374.562175 351.514409 
L 375.920942 351.920514 
L 377.279708 352.135282 
L 378.638474 352.033755 
L 379.99724 352.178235 
L 381.356006 351.561267 
L 382.714773 351.377739 
L 384.073539 351.729176 
L 385.432305 351.873656 
L 386.791071 352.17433 
L 388.149838 352.131377 
L 389.508604 351.811178 
L 392.226136 351.510504 
L 393.584903 351.791654 
L 394.943669 351.705747 
L 396.302435 352.080614 
L 397.661201 352.16652 
L 399.019968 351.897085 
L 400.378734 351.233259 
L 401.7375 351.08878 
L 403.096266 351.08097 
L 405.813799 351.397263 
L 407.172565 351.694033 
L 408.531331 351.744796 
L 409.890097 351.123923 
L 411.248864 351.014587 
L 412.60763 351.061446 
L 413.966396 350.749057 
L 415.325162 351.416788 
L 416.683929 351.674508 
L 418.042695 351.131733 
L 419.401461 350.12428 
L 420.760227 350.362476 
L 422.118994 349.964181 
L 423.47776 350.706104 
L 424.836526 350.018849 
L 426.195292 350.25314 
L 427.554058 350.987253 
L 430.271591 349.640077 
L 431.630357 349.601029 
L 432.989123 349.331594 
L 434.34789 350.491336 
L 435.706656 350.214091 
L 437.065422 350.838869 
L 438.424188 349.515122 
L 439.782955 349.948561 
L 441.141721 349.136351 
L 442.500487 349.194924 
L 445.218019 350.987253 
L 446.576786 349.960276 
L 447.935552 349.42531 
L 450.653084 349.179304 
L 452.011851 348.88644 
L 453.370617 349.116826 
L 454.729383 349.780652 
L 456.088149 350.979444 
L 457.446916 348.960632 
L 458.805682 347.65641 
L 460.164448 347.203446 
L 461.523214 346.219422 
L 462.881981 348.390523 
L 464.240747 347.76965 
L 465.599513 347.92975 
L 466.958279 344.555952 
L 468.317045 344.442712 
L 469.675812 342.462949 
L 471.034578 344.239659 
L 472.393344 345.399402 
L 473.75211 345.03625 
L 475.110877 345.321305 
L 476.469643 342.748003 
L 477.828409 339.877933 
L 479.187175 341.326635 
L 480.545942 338.319895 
L 481.904708 342.583999 
L 483.263474 343.091631 
L 484.62224 339.764692 
L 485.981006 337.183581 
L 487.339773 336.152698 
L 488.698539 334.4658 
L 490.057305 337.000053 
L 491.416071 340.690143 
L 492.774838 342.861244 
L 494.133604 342.509807 
L 495.49237 323.372099 
L 496.851136 335.426395 
L 499.568669 326.718562 
L 500.927435 330.06112 
L 502.286201 336.65252 
L 503.644968 337.741976 
L 505.003734 333.376345 
L 506.3625 329.846353 
L 507.721266 326.667799 
L 509.080032 326.866947 
L 510.438799 329.081001 
L 511.797565 319.959253 
L 513.156331 335.262391 
L 514.515097 329.6433 
L 515.873864 325.336242 
L 517.23263 327.308195 
L 518.591396 327.374578 
L 519.950162 333.950359 
L 521.308929 336.855573 
L 522.667695 337.34368 
L 524.026461 331.99012 
L 525.385227 327.72211 
L 526.743994 331.388772 
L 528.10276 333.63797 
L 530.820292 339.909172 
L 532.179058 343.271254 
L 533.537825 339.432779 
L 534.896591 337.917694 
L 537.614123 328.877948 
L 538.97289 337.675593 
L 540.331656 342.505902 
L 541.690422 341.303206 
L 543.049188 336.648615 
L 544.407955 340.408993 
L 545.766721 332.81014 
L 547.125487 335.41468 
L 548.484253 336.855573 
L 549.843019 344.07956 
L 551.201786 342.345803 
L 552.560552 334.215889 
L 553.919318 335.777832 
L 555.278084 335.715354 
L 557.995617 339.628022 
L 559.354383 344.450521 
L 560.713149 343.134584 
L 562.071916 334.676662 
L 564.789448 336.457277 
L 566.148214 347.90632 
L 567.506981 346.488857 
L 568.865747 344.47395 
L 570.224513 339.620212 
L 571.583279 329.026333 
L 572.942045 322.864467 
L 574.300812 325.504151 
L 575.659578 339.991174 
L 577.018344 339.432779 
L 578.37711 335.586494 
L 579.735877 333.294342 
L 581.094643 313.492808 
L 582.453409 313.883294 
L 583.812175 312.910985 
L 585.170942 315.636575 
L 587.888474 330.763995 
L 589.24724 324.301455 
L 590.606006 311.427139 
L 591.964773 310.872649 
L 593.323539 311.009319 
L 594.682305 309.900339 
L 596.041071 312.094869 
L 597.399838 326.476461 
L 598.758604 311.821529 
L 600.11737 295.452365 
L 601.476136 299.759423 
L 602.834903 298.029571 
L 604.193669 292.773633 
L 605.552435 306.877979 
L 606.911201 325.613487 
L 608.269968 310.611023 
L 609.628734 293.788896 
L 610.9875 288.482194 
L 612.346266 301.102695 
L 613.705032 304.089911 
L 615.063799 315.558478 
L 616.422565 329.979118 
L 617.781331 331.013906 
L 619.140097 317.178994 
L 620.498864 321.743773 
L 621.85763 325.640821 
L 623.216396 328.70223 
L 624.575162 338.948577 
L 625.933929 342.865149 
L 627.292695 342.56057 
L 628.651461 335.516207 
L 630.010227 339.057913 
L 631.368994 341.502354 
L 632.72776 341.494544 
L 634.086526 346.098371 
L 635.445292 347.558788 
L 636.804058 346.781721 
L 638.162825 343.571928 
L 639.521591 345.055774 
L 640.880357 345.071394 
L 643.59789 348.015657 
L 644.956656 350.503051 
L 647.674188 346.867628 
L 649.032955 348.117183 
L 650.391721 348.636529 
L 651.750487 348.464715 
L 654.468019 351.108304 
L 657.185552 348.823962 
L 658.544318 349.405786 
L 659.903084 348.941108 
L 661.261851 348.714626 
L 663.979383 351.221545 
L 665.338149 349.339403 
L 666.696916 350.139899 
L 668.055682 350.198472 
L 669.414448 350.393715 
L 672.131981 350.53429 
L 673.490747 351.647174 
L 674.849513 351.147352 
L 676.208279 350.018849 
L 677.567045 350.752962 
L 678.925812 350.428859 
L 680.284578 350.862298 
L 681.643344 350.889632 
L 683.00211 351.678413 
L 684.360877 350.95211 
L 685.719643 350.401525 
L 687.078409 350.995063 
L 688.437175 350.741247 
L 689.795942 351.303547 
L 691.154708 351.221545 
L 692.513474 351.440217 
L 693.87224 351.131733 
L 695.231006 350.233616 
L 697.948539 350.506956 
L 699.307305 351.553458 
L 700.666071 351.89318 
L 702.024838 352.025945 
L 703.383604 349.233972 
L 704.74237 350.057897 
L 706.101136 350.296093 
L 707.459903 349.936847 
L 708.818669 350.299998 
L 710.177435 350.436668 
L 711.536201 351.588601 
L 712.894968 351.053636 
L 714.253734 349.975895 
L 715.6125 350.690484 
L 716.971266 350.487432 
L 718.330032 350.112565 
L 721.047565 351.787749 
L 723.765097 350.264855 
L 725.123864 350.163328 
L 726.48263 350.67096 
L 727.841396 350.432764 
L 729.200162 350.780296 
L 730.558929 351.881466 
L 731.917695 351.268403 
L 733.276461 350.413239 
L 734.635227 350.811535 
L 737.35276 350.874012 
L 740.070292 351.943943 
L 741.429058 351.639365 
L 742.787825 351.135638 
L 745.505357 351.174686 
L 746.864123 351.061446 
L 748.22289 351.381644 
L 749.581656 352.02985 
L 750.940422 351.600316 
L 752.299188 350.752962 
L 753.657955 350.9443 
L 756.375487 350.81544 
L 759.093019 351.869751 
L 760.451786 351.139543 
L 761.810552 350.651436 
L 763.169318 350.885727 
L 764.528084 350.464002 
L 765.886851 350.604577 
L 767.245617 351.034112 
L 768.604383 351.705747 
L 769.963149 351.182496 
L 771.321916 350.327332 
L 772.680682 350.413239 
L 775.398214 350.268759 
L 776.756981 350.909156 
L 779.474513 350.909156 
L 780.833279 349.819701 
L 782.192045 349.643982 
L 783.550812 350.967729 
L 784.909578 350.409334 
L 786.268344 350.257045 
L 787.62711 351.131733 
L 788.985877 350.311713 
L 790.344643 349.171494 
L 791.703409 349.093397 
L 793.062175 350.620197 
L 794.420942 349.565885 
L 797.138474 350.206282 
L 799.856006 347.37526 
L 801.214773 347.832128 
L 802.573539 347.578312 
L 803.932305 348.027371 
L 805.291071 348.972347 
L 806.649838 349.694745 
L 808.008604 348.663863 
L 809.36737 346.801246 
L 812.084903 346.383426 
L 813.443669 346.524001 
L 814.802435 346.805151 
L 816.161201 349.124636 
L 817.519968 345.828936 
L 818.878734 343.423544 
L 820.2375 343.083821 
L 821.596266 343.134584 
L 822.955032 342.474663 
L 825.672565 346.855914 
L 827.031331 344.173276 
L 828.390097 339.81936 
L 829.748864 339.881838 
L 831.10763 340.174702 
L 832.466396 340.299657 
L 833.825162 343.575833 
L 835.183929 345.688361 
L 836.542695 342.298945 
L 837.901461 336.429943 
L 839.260227 338.429231 
L 840.618994 338.796287 
L 841.97776 338.288656 
L 843.336526 339.913077 
L 844.695292 345.403307 
L 846.054058 342.080273 
L 847.412825 335.55916 
L 848.771591 338.503423 
L 850.130357 337.831787 
L 851.489123 339.385921 
L 852.84789 342.396566 
L 854.206656 346.359997 
L 855.565422 343.603167 
L 856.924188 339.167249 
L 859.641721 342.513712 
L 861.000487 342.533236 
L 862.359253 343.642216 
L 863.718019 348.000037 
L 865.076786 344.540333 
L 866.435552 340.139558 
L 867.794318 342.56838 
L 869.153084 343.364971 
L 870.511851 342.412186 
L 871.870617 344.90739 
L 873.229383 348.374903 
L 874.588149 343.931175 
L 875.946916 341.135297 
L 877.305682 342.072463 
L 878.664448 342.501997 
L 880.023214 342.607428 
L 881.381981 343.989748 
L 882.740747 348.214804 
L 884.099513 344.376329 
L 885.458279 340.998627 
L 886.817045 342.673811 
L 888.175812 342.857339 
L 889.534578 342.197418 
L 890.893344 344.399758 
L 892.25211 348.249948 
L 893.610877 343.817934 
L 894.969643 340.690143 
L 896.328409 342.681621 
L 897.687175 343.392305 
L 899.045942 343.376685 
L 900.404708 345.688361 
L 901.763474 348.46081 
L 903.12224 345.196349 
L 904.481006 346.535715 
L 905.839773 341.59607 
L 907.198539 345.532167 
L 908.557305 345.957796 
L 911.274838 350.057897 
L 913.99237 345.703981 
L 915.351136 347.148778 
L 918.068669 347.871177 
L 919.427435 349.089492 
L 920.786201 350.858393 
L 922.144968 348.515478 
L 923.503734 347.77746 
L 924.8625 348.499859 
L 926.221266 348.652148 
L 927.580032 348.980156 
L 928.938799 350.003229 
L 930.297565 351.584697 
L 931.656331 349.601029 
L 933.015097 349.16759 
L 934.373864 349.191019 
L 935.73263 349.690841 
L 937.091396 349.862654 
L 938.450162 350.307808 
L 939.808929 351.748701 
L 941.167695 350.303903 
L 942.526461 349.69865 
L 943.885227 349.722079 
L 945.243994 349.929037 
L 946.60276 349.952466 
L 949.320292 351.89318 
L 950.679058 349.796272 
L 952.037825 350.694389 
L 953.396591 349.792367 
L 954.755357 349.362832 
L 956.114123 349.897798 
L 958.831656 351.369929 
L 960.190422 349.839225 
L 961.549188 349.413596 
L 962.907955 349.612743 
L 964.266721 349.655697 
L 968.343019 351.510504 
L 969.701786 349.397976 
L 971.060552 349.027015 
L 972.419318 349.269116 
L 973.778084 349.0153 
L 975.136851 349.198828 
L 977.854383 351.424597 
L 979.213149 349.409691 
L 980.571916 348.87863 
L 981.930682 349.179304 
L 983.289448 349.351118 
L 984.648214 349.089492 
L 986.006981 349.667411 
L 987.365747 350.729533 
L 988.724513 350.889632 
L 990.083279 348.453001 
L 991.442045 347.250304 
L 994.159578 347.972703 
L 995.518344 348.652148 
L 996.87711 350.428859 
L 998.235877 348.031276 
L 999.594643 346.188183 
L 1000.953409 346.879343 
L 1002.312175 345.809412 
L 1003.670942 345.555596 
L 1005.029708 346.855914 
L 1006.388474 348.843486 
L 1007.74724 346.035894 
L 1009.106006 342.779242 
L 1010.464773 343.282969 
L 1013.182305 343.536785 
L 1014.541071 342.888578 
L 1015.899838 346.887153 
L 1017.258604 342.650382 
L 1018.61737 337.913789 
L 1019.976136 340.346516 
L 1021.334903 340.131749 
L 1022.693669 339.510876 
L 1024.052435 341.334445 
L 1025.411201 346.262375 
L 1026.769968 341.295396 
L 1028.128734 334.411132 
L 1029.4875 341.33054 
L 1030.846266 342.748003 
L 1032.205032 330.588276 
L 1033.563799 337.863026 
L 1034.922565 343.993653 
L 1036.281331 339.303919 
L 1037.640097 332.005739 
L 1038.998864 338.636188 
L 1040.35763 338.03484 
L 1041.716396 331.666017 
L 1044.433929 343.610977 
L 1045.792695 338.624473 
L 1047.151461 329.998642 
L 1048.510227 332.587563 
L 1049.868994 334.512658 
L 1051.22776 332.880428 
L 1052.586526 335.988694 
L 1053.945292 341.900649 
L 1056.662825 317.749103 
L 1058.021591 311.454473 
L 1059.380357 302.106243 
L 1060.739123 313.535762 
L 1062.09789 338.073888 
L 1063.456656 327.913448 
L 1064.815422 285.592599 
L 1066.174188 247.735003 
L 1067.532955 240.737497 
L 1068.891721 232.263956 
L 1070.250487 261.702679 
L 1071.609253 309.380993 
L 1072.968019 311.434948 
L 1074.326786 251.760911 
L 1075.685552 198.131594 
L 1077.044318 200.068403 
L 1078.403084 201.396055 
L 1079.761851 213.46597 
L 1081.120617 249.484379 
L 1082.479383 273.721831 
L 1083.838149 222.458858 
L 1085.196916 192.762414 
L 1086.555682 195.929254 
L 1087.914448 196.101068 
L 1089.273214 203.73116 
L 1090.631981 226.633151 
L 1091.990747 267.064049 
L 1093.349513 181.89129 
L 1094.708279 147.450444 
L 1096.067045 132.31131 
L 1097.425812 124.095489 
L 1098.784578 125.653527 
L 1101.50211 224.731485 
L 1102.860877 127.50443 
L 1104.219643 96.574051 
L 1105.578409 96.074229 
L 1106.937175 103.388028 
L 1108.295942 121.502664 
L 1109.654708 175.620088 
L 1111.013474 50.8755 
L 1112.37224 239.519182 
L 1113.731006 142.940333 
L 1115.089773 128.097968 
L 1116.448539 144.471037 
L 1117.807305 157.321924 
L 1119.166071 180.477731 
L 1120.524838 223.997372 
L 1121.883604 282.714719 
L 1123.24237 224.368333 
L 1124.601136 211.169914 
L 1125.959903 237.113789 
L 1127.318669 251.885866 
L 1128.677435 271.183674 
L 1130.036201 286.537575 
L 1131.394968 317.940442 
L 1132.753734 276.752001 
L 1134.1125 269.258579 
L 1135.471266 283.128634 
L 1136.830032 287.259974 
L 1138.188799 293.449173 
L 1139.547565 313.367853 
L 1140.906331 328.643657 
L 1142.265097 296.795636 
L 1143.623864 276.744191 
L 1144.98263 303.230842 
L 1146.341396 307.768287 
L 1147.700162 311.399805 
L 1149.058929 322.712178 
L 1150.417695 335.680211 
L 1151.776461 306.522637 
L 1153.135227 311.770766 
L 1155.85276 291.375694 
L 1157.211526 293.523365 
L 1159.929058 329.50663 
L 1161.287825 289.368597 
L 1162.646591 291.594366 
L 1164.005357 299.181504 
L 1165.364123 300.450583 
L 1166.72289 302.145292 
L 1169.440422 333.481776 
L 1170.799188 295.057975 
L 1172.157955 292.964971 
L 1173.516721 299.353318 
L 1174.875487 302.844261 
L 1176.234253 305.89005 
L 1177.593019 319.240759 
L 1178.951786 335.289725 
L 1180.310552 295.276647 
L 1181.669318 294.155952 
L 1183.028084 302.426441 
L 1184.386851 308.232965 
L 1185.745617 306.261012 
L 1187.104383 322.669224 
L 1188.463149 337.06253 
L 1189.821916 303.016075 
L 1191.180682 302.367868 
L 1192.539448 307.049793 
L 1193.898214 309.416137 
L 1195.256981 314.308924 
L 1197.974513 339.108676 
L 1199.333279 310.146345 
L 1200.692045 308.600022 
L 1202.050812 313.305375 
L 1203.409578 312.340875 
L 1204.768344 314.176159 
L 1206.12711 324.418601 
L 1207.485877 338.073888 
L 1208.844643 305.066125 
L 1210.203409 303.660376 
L 1211.562175 307.54571 
L 1212.920942 306.713975 
L 1214.279708 332.642231 
L 1215.638474 322.782465 
L 1216.99724 339.850599 
L 1218.356006 301.610326 
L 1219.714773 297.178312 
L 1221.073539 307.358277 
L 1222.432305 307.069317 
L 1223.791071 315.10942 
L 1225.149838 325.531485 
L 1226.508604 338.101222 
L 1227.86737 333.973788 
L 1229.226136 296.627727 
L 1230.584903 295.917043 
L 1233.302435 299.564181 
L 1236.019968 334.223699 
L 1237.378734 299.521227 
L 1238.7375 287.892561 
L 1240.096266 291.516269 
L 1241.455032 283.940844 
L 1242.813799 285.233352 
L 1244.172565 299.782853 
L 1245.531331 324.000781 
L 1246.890097 263.065474 
L 1248.248864 244.642355 
L 1249.60763 243.404515 
L 1250.966396 236.457773 
L 1253.683929 277.439256 
L 1255.042695 317.108707 
L 1256.401461 202.024737 
L 1257.760227 218.225992 
L 1259.118994 228.234143 
L 1260.47776 352.646818 
L 1261.836526 352.646818 
L 1263.195292 232.529486 
L 1264.554058 135.837397 
L 1265.912825 214.024365 
L 1267.271591 352.646818 
L 1268.630357 111.584325 
L 1269.989123 352.646818 
L 1271.34789 352.646818 
L 1274.065422 153.819267 
L 1275.424188 219.003059 
L 1276.782955 228.105282 
L 1278.141721 249.58981 
L 1279.500487 352.646818 
L 1282.218019 352.646818 
L 1283.576786 76.569465 
L 1284.935552 162.277189 
L 1286.294318 352.646818 
L 1287.653084 266.173741 
L 1289.011851 352.646818 
L 1291.729383 352.646818 
L 1293.088149 84.714998 
L 1294.446916 274.389562 
L 1295.805682 352.646818 
L 1299.881981 352.646818 
L 1301.240747 130.971944 
L 1302.599513 282.222707 
L 1303.958279 292.621343 
L 1306.675812 307.514471 
L 1306.675812 307.514471 
" clip-path="url(#pd7f84ca1bb)" style="fill: none; stroke: #0000ff; stroke-width: 1.5; stroke-linecap: square"/>
   </g>
   <g id="line2d_22">
    <path d="M 1067.532955 278.7433 
L 1068.891721 276.642531 
L 1070.250487 287.629032 
L 1071.609253 285.922863 
L 1072.968019 266.927963 
L 1074.326786 242.997987 
L 1075.685552 230.892354 
L 1077.044318 220.526461 
L 1078.403084 233.48669 
L 1079.761851 256.479006 
L 1081.120617 256.349513 
L 1083.838149 195.515964 
L 1085.196916 196.095595 
L 1086.555682 196.807281 
L 1087.914448 203.424561 
L 1089.273214 223.612409 
L 1090.631981 237.711217 
L 1093.349513 191.880384 
L 1094.708279 185.535646 
L 1096.067045 175.910662 
L 1097.425812 170.711724 
L 1098.784578 175.282852 
L 1100.143344 197.77569 
L 1101.50211 155.093159 
L 1102.860877 130.804191 
L 1104.219643 116.090569 
L 1105.578409 107.842652 
L 1106.937175 107.899887 
L 1108.295942 137.801534 
L 1109.654708 172.669461 
L 1111.013474 96.081396 
L 1112.37224 104.991219 
L 1115.089773 118.736264 
L 1116.448539 133.561376 
L 1117.807305 168.14903 
L 1119.166071 100.677002 
L 1120.524838 228.639553 
L 1121.883604 184.534935 
L 1123.24237 183.514323 
L 1125.959903 212.095165 
L 1127.318669 232.305157 
L 1128.677435 263.730549 
L 1130.036201 300.715095 
L 1131.394968 271.249497 
L 1132.753734 264.877465 
L 1134.1125 280.17851 
L 1135.471266 288.973917 
L 1136.830032 299.447045 
L 1138.188799 306.93337 
L 1139.547565 325.660653 
L 1140.906331 303.183929 
L 1142.265097 297.828841 
L 1143.623864 301.730313 
L 1144.98263 304.313512 
L 1146.341396 308.403843 
L 1147.700162 320.084225 
L 1149.058929 329.102339 
L 1150.417695 312.502852 
L 1151.776461 300.203213 
L 1153.135227 317.12018 
L 1154.493994 316.812851 
L 1155.85276 314.196722 
L 1157.211526 316.743742 
L 1158.570292 322.961762 
L 1159.929058 307.860024 
L 1161.287825 307.416056 
L 1162.646591 298.81461 
L 1164.005357 293.193893 
L 1165.364123 295.719675 
L 1166.72289 306.719108 
L 1168.081656 318.95868 
L 1169.440422 299.176771 
L 1170.799188 299.668559 
L 1172.157955 302.684896 
L 1173.516721 302.785738 
L 1174.875487 303.743654 
L 1176.234253 312.669451 
L 1177.593019 322.850847 
L 1178.951786 303.646411 
L 1180.310552 300.947891 
L 1181.669318 303.278049 
L 1183.028084 305.07371 
L 1184.386851 307.353113 
L 1185.745617 314.615791 
L 1187.104383 325.056973 
L 1188.463149 304.885096 
L 1189.821916 303.917342 
L 1191.180682 308.256985 
L 1192.539448 311.281954 
L 1193.898214 309.838989 
L 1196.615747 329.058818 
L 1197.974513 311.864686 
L 1199.333279 311.188541 
L 1200.692045 313.332646 
L 1202.050812 314.650291 
L 1203.409578 316.963231 
L 1204.768344 323.172085 
L 1206.12711 330.543241 
L 1207.485877 315.730676 
L 1208.844643 312.918587 
L 1210.203409 313.85762 
L 1211.562175 312.165708 
L 1212.920942 312.19579 
L 1214.279708 321.655006 
L 1215.638474 329.493308 
L 1216.99724 312.935885 
L 1218.356006 310.081641 
L 1219.714773 309.896585 
L 1221.073539 308.968099 
L 1222.432305 323.113439 
L 1223.791071 316.140626 
L 1225.149838 327.395724 
L 1226.508604 307.97728 
L 1227.86737 310.248147 
L 1229.226136 313.450392 
L 1230.584903 310.086552 
L 1231.943669 312.337658 
L 1233.302435 315.829909 
L 1234.661201 323.157569 
L 1236.019968 322.871756 
L 1237.378734 297.733045 
L 1238.7375 295.538532 
L 1240.096266 295.860251 
L 1241.455032 294.665411 
L 1244.172565 311.735042 
L 1245.531331 294.578955 
L 1246.890097 282.323624 
L 1248.248864 277.466837 
L 1249.60763 267.011467 
L 1250.966396 262.153494 
L 1252.325162 269.407418 
L 1253.683929 284.410552 
L 1255.042695 256.323912 
L 1256.401461 236.10931 
L 1257.760227 232.151191 
L 1259.118994 227.553014 
L 1260.47776 262.0749 
L 1261.836526 289.848572 
L 1263.195292 301.552216 
L 1264.554058 206.961538 
L 1265.912825 217.306913 
L 1267.271591 247.619584 
L 1268.630357 292.312044 
L 1269.989123 303.331726 
L 1271.34789 245.201301 
L 1272.706656 192.203128 
L 1274.065422 228.893827 
L 1275.424188 304.567911 
L 1276.782955 155.865003 
L 1278.141721 307.720715 
L 1279.500487 315.926122 
L 1280.859253 265.779607 
L 1282.218019 227.367377 
L 1283.576786 236.25862 
L 1284.935552 227.834006 
L 1286.294318 262.638502 
L 1287.653084 320.886069 
L 1289.011851 326.686926 
L 1290.370617 331.4283 
L 1291.729383 180.995169 
L 1293.088149 211.315146 
L 1294.446916 329.238924 
L 1295.805682 285.181606 
L 1297.164448 345.836198 
L 1298.523214 347.080105 
L 1299.881981 348.096822 
L 1301.240747 158.684904 
L 1302.599513 287.26336 
L 1303.958279 331.982457 
L 1305.317045 326.162068 
L 1306.675812 322.756228 
L 1306.675812 322.756228 
" clip-path="url(#pd7f84ca1bb)" style="fill: none; stroke: #ffa500; stroke-width: 1.5; stroke-linecap: square"/>
   </g>
   <g id="line2d_23">
    <path d="M 1306.675812 322.756228 
L 1308.034578 322.756228 
L 1309.393344 198.854997 
L 1310.75211 283.393923 
L 1312.110877 289.206056 
L 1313.469643 293.394371 
L 1314.828409 297.530305 
L 1316.187175 306.049414 
L 1317.545942 306.049414 
L 1318.904708 236.797023 
L 1320.263474 284.048553 
L 1321.62224 287.297141 
L 1322.981006 289.638126 
L 1324.339773 291.949833 
" clip-path="url(#pd7f84ca1bb)" style="fill: none; stroke: #ff0000; stroke-width: 1.5; stroke-linecap: square"/>
   </g>
   <g id="patch_3">
    <path d="M 46.0125 368.3955 
L 46.0125 35.7555 
" style="fill: none; stroke: #000000; stroke-width: 0.8; stroke-linejoin: miter; stroke-linecap: square"/>
   </g>
   <g id="patch_4">
    <path d="M 1385.2125 368.3955 
L 1385.2125 35.7555 
" style="fill: none; stroke: #000000; stroke-width: 0.8; stroke-linejoin: miter; stroke-linecap: square"/>
   </g>
   <g id="patch_5">
    <path d="M 46.0125 368.3955 
L 1385.2125 368.3955 
" style="fill: none; stroke: #000000; stroke-width: 0.8; stroke-linejoin: miter; stroke-linecap: square"/>
   </g>
   <g id="patch_6">
    <path d="M 46.0125 35.7555 
L 1385.2125 35.7555 
" style="fill: none; stroke: #000000; stroke-width: 0.8; stroke-linejoin: miter; stroke-linecap: square"/>
   </g>
   <g id="text_21">
    <!-- Daily Confirmed Cases Forecasting - Portugal -->
    <g transform="translate(580.266563 16.318125)scale(0.12 -0.12)">
     <defs>
      <path id="DejaVuSans-44" d="M 1259 4147 
L 1259 519 
L 2022 519 
Q 2988 519 3436 956 
Q 3884 1394 3884 2338 
Q 3884 3275 3436 3711 
Q 2988 4147 2022 4147 
L 1259 4147 
z
M 628 4666 
L 1925 4666 
Q 3281 4666 3915 4102 
Q 4550 3538 4550 2338 
Q 4550 1131 3912 565 
Q 3275 0 1925 0 
L 628 0 
L 628 4666 
z
" transform="scale(0.015625)"/>
      <path id="DejaVuSans-61" d="M 2194 1759 
Q 1497 1759 1228 1600 
Q 959 1441 959 1056 
Q 959 750 1161 570 
Q 1363 391 1709 391 
Q 2188 391 2477 730 
Q 2766 1069 2766 1631 
L 2766 1759 
L 2194 1759 
z
M 3341 1997 
L 3341 0 
L 2766 0 
L 2766 531 
Q 2569 213 2275 61 
Q 1981 -91 1556 -91 
Q 1019 -91 701 211 
Q 384 513 384 1019 
Q 384 1609 779 1909 
Q 1175 2209 1959 2209 
L 2766 2209 
L 2766 2266 
Q 2766 2663 2505 2880 
Q 2244 3097 1772 3097 
Q 1472 3097 1187 3025 
Q 903 2953 641 2809 
L 641 3341 
Q 956 3463 1253 3523 
Q 1550 3584 1831 3584 
Q 2591 3584 2966 3190 
Q 3341 2797 3341 1997 
z
" transform="scale(0.015625)"/>
      <path id="DejaVuSans-69" d="M 603 3500 
L 1178 3500 
L 1178 0 
L 603 0 
L 603 3500 
z
M 603 4863 
L 1178 4863 
L 1178 4134 
L 603 4134 
L 603 4863 
z
" transform="scale(0.015625)"/>
      <path id="DejaVuSans-6c" d="M 603 4863 
L 1178 4863 
L 1178 0 
L 603 0 
L 603 4863 
z
" transform="scale(0.015625)"/>
      <path id="DejaVuSans-79" d="M 2059 -325 
Q 1816 -950 1584 -1140 
Q 1353 -1331 966 -1331 
L 506 -1331 
L 506 -850 
L 844 -850 
Q 1081 -850 1212 -737 
Q 1344 -625 1503 -206 
L 1606 56 
L 191 3500 
L 800 3500 
L 1894 763 
L 2988 3500 
L 3597 3500 
L 2059 -325 
z
" transform="scale(0.015625)"/>
      <path id="DejaVuSans-20" transform="scale(0.015625)"/>
      <path id="DejaVuSans-43" d="M 4122 4306 
L 4122 3641 
Q 3803 3938 3442 4084 
Q 3081 4231 2675 4231 
Q 1875 4231 1450 3742 
Q 1025 3253 1025 2328 
Q 1025 1406 1450 917 
Q 1875 428 2675 428 
Q 3081 428 3442 575 
Q 3803 722 4122 1019 
L 4122 359 
Q 3791 134 3420 21 
Q 3050 -91 2638 -91 
Q 1578 -91 968 557 
Q 359 1206 359 2328 
Q 359 3453 968 4101 
Q 1578 4750 2638 4750 
Q 3056 4750 3426 4639 
Q 3797 4528 4122 4306 
z
" transform="scale(0.015625)"/>
      <path id="DejaVuSans-6f" d="M 1959 3097 
Q 1497 3097 1228 2736 
Q 959 2375 959 1747 
Q 959 1119 1226 758 
Q 1494 397 1959 397 
Q 2419 397 2687 759 
Q 2956 1122 2956 1747 
Q 2956 2369 2687 2733 
Q 2419 3097 1959 3097 
z
M 1959 3584 
Q 2709 3584 3137 3096 
Q 3566 2609 3566 1747 
Q 3566 888 3137 398 
Q 2709 -91 1959 -91 
Q 1206 -91 779 398 
Q 353 888 353 1747 
Q 353 2609 779 3096 
Q 1206 3584 1959 3584 
z
" transform="scale(0.015625)"/>
      <path id="DejaVuSans-6e" d="M 3513 2113 
L 3513 0 
L 2938 0 
L 2938 2094 
Q 2938 2591 2744 2837 
Q 2550 3084 2163 3084 
Q 1697 3084 1428 2787 
Q 1159 2491 1159 1978 
L 1159 0 
L 581 0 
L 581 3500 
L 1159 3500 
L 1159 2956 
Q 1366 3272 1645 3428 
Q 1925 3584 2291 3584 
Q 2894 3584 3203 3211 
Q 3513 2838 3513 2113 
z
" transform="scale(0.015625)"/>
      <path id="DejaVuSans-66" d="M 2375 4863 
L 2375 4384 
L 1825 4384 
Q 1516 4384 1395 4259 
Q 1275 4134 1275 3809 
L 1275 3500 
L 2222 3500 
L 2222 3053 
L 1275 3053 
L 1275 0 
L 697 0 
L 697 3053 
L 147 3053 
L 147 3500 
L 697 3500 
L 697 3744 
Q 697 4328 969 4595 
Q 1241 4863 1831 4863 
L 2375 4863 
z
" transform="scale(0.015625)"/>
      <path id="DejaVuSans-72" d="M 2631 2963 
Q 2534 3019 2420 3045 
Q 2306 3072 2169 3072 
Q 1681 3072 1420 2755 
Q 1159 2438 1159 1844 
L 1159 0 
L 581 0 
L 581 3500 
L 1159 3500 
L 1159 2956 
Q 1341 3275 1631 3429 
Q 1922 3584 2338 3584 
Q 2397 3584 2469 3576 
Q 2541 3569 2628 3553 
L 2631 2963 
z
" transform="scale(0.015625)"/>
      <path id="DejaVuSans-6d" d="M 3328 2828 
Q 3544 3216 3844 3400 
Q 4144 3584 4550 3584 
Q 5097 3584 5394 3201 
Q 5691 2819 5691 2113 
L 5691 0 
L 5113 0 
L 5113 2094 
Q 5113 2597 4934 2840 
Q 4756 3084 4391 3084 
Q 3944 3084 3684 2787 
Q 3425 2491 3425 1978 
L 3425 0 
L 2847 0 
L 2847 2094 
Q 2847 2600 2669 2842 
Q 2491 3084 2119 3084 
Q 1678 3084 1418 2786 
Q 1159 2488 1159 1978 
L 1159 0 
L 581 0 
L 581 3500 
L 1159 3500 
L 1159 2956 
Q 1356 3278 1631 3431 
Q 1906 3584 2284 3584 
Q 2666 3584 2933 3390 
Q 3200 3197 3328 2828 
z
" transform="scale(0.015625)"/>
      <path id="DejaVuSans-65" d="M 3597 1894 
L 3597 1613 
L 953 1613 
Q 991 1019 1311 708 
Q 1631 397 2203 397 
Q 2534 397 2845 478 
Q 3156 559 3463 722 
L 3463 178 
Q 3153 47 2828 -22 
Q 2503 -91 2169 -91 
Q 1331 -91 842 396 
Q 353 884 353 1716 
Q 353 2575 817 3079 
Q 1281 3584 2069 3584 
Q 2775 3584 3186 3129 
Q 3597 2675 3597 1894 
z
M 3022 2063 
Q 3016 2534 2758 2815 
Q 2500 3097 2075 3097 
Q 1594 3097 1305 2825 
Q 1016 2553 972 2059 
L 3022 2063 
z
" transform="scale(0.015625)"/>
      <path id="DejaVuSans-64" d="M 2906 2969 
L 2906 4863 
L 3481 4863 
L 3481 0 
L 2906 0 
L 2906 525 
Q 2725 213 2448 61 
Q 2172 -91 1784 -91 
Q 1150 -91 751 415 
Q 353 922 353 1747 
Q 353 2572 751 3078 
Q 1150 3584 1784 3584 
Q 2172 3584 2448 3432 
Q 2725 3281 2906 2969 
z
M 947 1747 
Q 947 1113 1208 752 
Q 1469 391 1925 391 
Q 2381 391 2643 752 
Q 2906 1113 2906 1747 
Q 2906 2381 2643 2742 
Q 2381 3103 1925 3103 
Q 1469 3103 1208 2742 
Q 947 2381 947 1747 
z
" transform="scale(0.015625)"/>
      <path id="DejaVuSans-73" d="M 2834 3397 
L 2834 2853 
Q 2591 2978 2328 3040 
Q 2066 3103 1784 3103 
Q 1356 3103 1142 2972 
Q 928 2841 928 2578 
Q 928 2378 1081 2264 
Q 1234 2150 1697 2047 
L 1894 2003 
Q 2506 1872 2764 1633 
Q 3022 1394 3022 966 
Q 3022 478 2636 193 
Q 2250 -91 1575 -91 
Q 1294 -91 989 -36 
Q 684 19 347 128 
L 347 722 
Q 666 556 975 473 
Q 1284 391 1588 391 
Q 1994 391 2212 530 
Q 2431 669 2431 922 
Q 2431 1156 2273 1281 
Q 2116 1406 1581 1522 
L 1381 1569 
Q 847 1681 609 1914 
Q 372 2147 372 2553 
Q 372 3047 722 3315 
Q 1072 3584 1716 3584 
Q 2034 3584 2315 3537 
Q 2597 3491 2834 3397 
z
" transform="scale(0.015625)"/>
      <path id="DejaVuSans-46" d="M 628 4666 
L 3309 4666 
L 3309 4134 
L 1259 4134 
L 1259 2759 
L 3109 2759 
L 3109 2228 
L 1259 2228 
L 1259 0 
L 628 0 
L 628 4666 
z
" transform="scale(0.015625)"/>
      <path id="DejaVuSans-63" d="M 3122 3366 
L 3122 2828 
Q 2878 2963 2633 3030 
Q 2388 3097 2138 3097 
Q 1578 3097 1268 2742 
Q 959 2388 959 1747 
Q 959 1106 1268 751 
Q 1578 397 2138 397 
Q 2388 397 2633 464 
Q 2878 531 3122 666 
L 3122 134 
Q 2881 22 2623 -34 
Q 2366 -91 2075 -91 
Q 1284 -91 818 406 
Q 353 903 353 1747 
Q 353 2603 823 3093 
Q 1294 3584 2113 3584 
Q 2378 3584 2631 3529 
Q 2884 3475 3122 3366 
z
" transform="scale(0.015625)"/>
      <path id="DejaVuSans-74" d="M 1172 4494 
L 1172 3500 
L 2356 3500 
L 2356 3053 
L 1172 3053 
L 1172 1153 
Q 1172 725 1289 603 
Q 1406 481 1766 481 
L 2356 481 
L 2356 0 
L 1766 0 
Q 1100 0 847 248 
Q 594 497 594 1153 
L 594 3053 
L 172 3053 
L 172 3500 
L 594 3500 
L 594 4494 
L 1172 4494 
z
" transform="scale(0.015625)"/>
      <path id="DejaVuSans-67" d="M 2906 1791 
Q 2906 2416 2648 2759 
Q 2391 3103 1925 3103 
Q 1463 3103 1205 2759 
Q 947 2416 947 1791 
Q 947 1169 1205 825 
Q 1463 481 1925 481 
Q 2391 481 2648 825 
Q 2906 1169 2906 1791 
z
M 3481 434 
Q 3481 -459 3084 -895 
Q 2688 -1331 1869 -1331 
Q 1566 -1331 1297 -1286 
Q 1028 -1241 775 -1147 
L 775 -588 
Q 1028 -725 1275 -790 
Q 1522 -856 1778 -856 
Q 2344 -856 2625 -561 
Q 2906 -266 2906 331 
L 2906 616 
Q 2728 306 2450 153 
Q 2172 0 1784 0 
Q 1141 0 747 490 
Q 353 981 353 1791 
Q 353 2603 747 3093 
Q 1141 3584 1784 3584 
Q 2172 3584 2450 3431 
Q 2728 3278 2906 2969 
L 2906 3500 
L 3481 3500 
L 3481 434 
z
" transform="scale(0.015625)"/>
      <path id="DejaVuSans-50" d="M 1259 4147 
L 1259 2394 
L 2053 2394 
Q 2494 2394 2734 2622 
Q 2975 2850 2975 3272 
Q 2975 3691 2734 3919 
Q 2494 4147 2053 4147 
L 1259 4147 
z
M 628 4666 
L 2053 4666 
Q 2838 4666 3239 4311 
Q 3641 3956 3641 3272 
Q 3641 2581 3239 2228 
Q 2838 1875 2053 1875 
L 1259 1875 
L 1259 0 
L 628 0 
L 628 4666 
z
" transform="scale(0.015625)"/>
      <path id="DejaVuSans-75" d="M 544 1381 
L 544 3500 
L 1119 3500 
L 1119 1403 
Q 1119 906 1312 657 
Q 1506 409 1894 409 
Q 2359 409 2629 706 
Q 2900 1003 2900 1516 
L 2900 3500 
L 3475 3500 
L 3475 0 
L 2900 0 
L 2900 538 
Q 2691 219 2414 64 
Q 2138 -91 1772 -91 
Q 1169 -91 856 284 
Q 544 659 544 1381 
z
M 1991 3584 
L 1991 3584 
z
" transform="scale(0.015625)"/>
     </defs>
     <use xlink:href="#DejaVuSans-44"/>
     <use xlink:href="#DejaVuSans-61" x="77.001953"/>
     <use xlink:href="#DejaVuSans-69" x="138.28125"/>
     <use xlink:href="#DejaVuSans-6c" x="166.064453"/>
     <use xlink:href="#DejaVuSans-79" x="193.847656"/>
     <use xlink:href="#DejaVuSans-20" x="253.027344"/>
     <use xlink:href="#DejaVuSans-43" x="284.814453"/>
     <use xlink:href="#DejaVuSans-6f" x="354.638672"/>
     <use xlink:href="#DejaVuSans-6e" x="415.820312"/>
     <use xlink:href="#DejaVuSans-66" x="479.199219"/>
     <use xlink:href="#DejaVuSans-69" x="514.404297"/>
     <use xlink:href="#DejaVuSans-72" x="542.1875"/>
     <use xlink:href="#DejaVuSans-6d" x="581.550781"/>
     <use xlink:href="#DejaVuSans-65" x="678.962891"/>
     <use xlink:href="#DejaVuSans-64" x="740.486328"/>
     <use xlink:href="#DejaVuSans-20" x="803.962891"/>
     <use xlink:href="#DejaVuSans-43" x="835.75"/>
     <use xlink:href="#DejaVuSans-61" x="905.574219"/>
     <use xlink:href="#DejaVuSans-73" x="966.853516"/>
     <use xlink:href="#DejaVuSans-65" x="1018.953125"/>
     <use xlink:href="#DejaVuSans-73" x="1080.476562"/>
     <use xlink:href="#DejaVuSans-20" x="1132.576172"/>
     <use xlink:href="#DejaVuSans-46" x="1164.363281"/>
     <use xlink:href="#DejaVuSans-6f" x="1218.257812"/>
     <use xlink:href="#DejaVuSans-72" x="1279.439453"/>
     <use xlink:href="#DejaVuSans-65" x="1318.302734"/>
     <use xlink:href="#DejaVuSans-63" x="1379.826172"/>
     <use xlink:href="#DejaVuSans-61" x="1434.806641"/>
     <use xlink:href="#DejaVuSans-73" x="1496.085938"/>
     <use xlink:href="#DejaVuSans-74" x="1548.185547"/>
     <use xlink:href="#DejaVuSans-69" x="1587.394531"/>
     <use xlink:href="#DejaVuSans-6e" x="1615.177734"/>
     <use xlink:href="#DejaVuSans-67" x="1678.556641"/>
     <use xlink:href="#DejaVuSans-20" x="1742.033203"/>
     <use xlink:href="#DejaVuSans-2d" x="1773.820312"/>
     <use xlink:href="#DejaVuSans-20" x="1809.904297"/>
     <use xlink:href="#DejaVuSans-50" x="1841.691406"/>
     <use xlink:href="#DejaVuSans-6f" x="1898.369141"/>
     <use xlink:href="#DejaVuSans-72" x="1959.550781"/>
     <use xlink:href="#DejaVuSans-74" x="2000.664062"/>
     <use xlink:href="#DejaVuSans-75" x="2039.873047"/>
     <use xlink:href="#DejaVuSans-67" x="2103.251953"/>
     <use xlink:href="#DejaVuSans-61" x="2166.728516"/>
     <use xlink:href="#DejaVuSans-6c" x="2228.007812"/>
    </g>
    <!-- ARIMA (0, 1, 1)x(1, 0, 0, 7) (R2 = 0.619329) -->
    <g transform="translate(583.628438 29.7555)scale(0.12 -0.12)">
     <defs>
      <path id="DejaVuSans-41" d="M 2188 4044 
L 1331 1722 
L 3047 1722 
L 2188 4044 
z
M 1831 4666 
L 2547 4666 
L 4325 0 
L 3669 0 
L 3244 1197 
L 1141 1197 
L 716 0 
L 50 0 
L 1831 4666 
z
" transform="scale(0.015625)"/>
      <path id="DejaVuSans-52" d="M 2841 2188 
Q 3044 2119 3236 1894 
Q 3428 1669 3622 1275 
L 4263 0 
L 3584 0 
L 2988 1197 
Q 2756 1666 2539 1819 
Q 2322 1972 1947 1972 
L 1259 1972 
L 1259 0 
L 628 0 
L 628 4666 
L 2053 4666 
Q 2853 4666 3247 4331 
Q 3641 3997 3641 3322 
Q 3641 2881 3436 2590 
Q 3231 2300 2841 2188 
z
M 1259 4147 
L 1259 2491 
L 2053 2491 
Q 2509 2491 2742 2702 
Q 2975 2913 2975 3322 
Q 2975 3731 2742 3939 
Q 2509 4147 2053 4147 
L 1259 4147 
z
" transform="scale(0.015625)"/>
      <path id="DejaVuSans-49" d="M 628 4666 
L 1259 4666 
L 1259 0 
L 628 0 
L 628 4666 
z
" transform="scale(0.015625)"/>
      <path id="DejaVuSans-4d" d="M 628 4666 
L 1569 4666 
L 2759 1491 
L 3956 4666 
L 4897 4666 
L 4897 0 
L 4281 0 
L 4281 4097 
L 3078 897 
L 2444 897 
L 1241 4097 
L 1241 0 
L 628 0 
L 628 4666 
z
" transform="scale(0.015625)"/>
      <path id="DejaVuSans-28" d="M 1984 4856 
Q 1566 4138 1362 3434 
Q 1159 2731 1159 2009 
Q 1159 1288 1364 580 
Q 1569 -128 1984 -844 
L 1484 -844 
Q 1016 -109 783 600 
Q 550 1309 550 2009 
Q 550 2706 781 3412 
Q 1013 4119 1484 4856 
L 1984 4856 
z
" transform="scale(0.015625)"/>
      <path id="DejaVuSans-2c" d="M 750 794 
L 1409 794 
L 1409 256 
L 897 -744 
L 494 -744 
L 750 256 
L 750 794 
z
" transform="scale(0.015625)"/>
      <path id="DejaVuSans-29" d="M 513 4856 
L 1013 4856 
Q 1481 4119 1714 3412 
Q 1947 2706 1947 2009 
Q 1947 1309 1714 600 
Q 1481 -109 1013 -844 
L 513 -844 
Q 928 -128 1133 580 
Q 1338 1288 1338 2009 
Q 1338 2731 1133 3434 
Q 928 4138 513 4856 
z
" transform="scale(0.015625)"/>
      <path id="DejaVuSans-78" d="M 3513 3500 
L 2247 1797 
L 3578 0 
L 2900 0 
L 1881 1375 
L 863 0 
L 184 0 
L 1544 1831 
L 300 3500 
L 978 3500 
L 1906 2253 
L 2834 3500 
L 3513 3500 
z
" transform="scale(0.015625)"/>
      <path id="DejaVuSans-3d" d="M 678 2906 
L 4684 2906 
L 4684 2381 
L 678 2381 
L 678 2906 
z
M 678 1631 
L 4684 1631 
L 4684 1100 
L 678 1100 
L 678 1631 
z
" transform="scale(0.015625)"/>
      <path id="DejaVuSans-2e" d="M 684 794 
L 1344 794 
L 1344 0 
L 684 0 
L 684 794 
z
" transform="scale(0.015625)"/>
      <path id="DejaVuSans-39" d="M 703 97 
L 703 672 
Q 941 559 1184 500 
Q 1428 441 1663 441 
Q 2288 441 2617 861 
Q 2947 1281 2994 2138 
Q 2813 1869 2534 1725 
Q 2256 1581 1919 1581 
Q 1219 1581 811 2004 
Q 403 2428 403 3163 
Q 403 3881 828 4315 
Q 1253 4750 1959 4750 
Q 2769 4750 3195 4129 
Q 3622 3509 3622 2328 
Q 3622 1225 3098 567 
Q 2575 -91 1691 -91 
Q 1453 -91 1209 -44 
Q 966 3 703 97 
z
M 1959 2075 
Q 2384 2075 2632 2365 
Q 2881 2656 2881 3163 
Q 2881 3666 2632 3958 
Q 2384 4250 1959 4250 
Q 1534 4250 1286 3958 
Q 1038 3666 1038 3163 
Q 1038 2656 1286 2365 
Q 1534 2075 1959 2075 
z
" transform="scale(0.015625)"/>
     </defs>
     <use xlink:href="#DejaVuSans-41"/>
     <use xlink:href="#DejaVuSans-52" x="68.408203"/>
     <use xlink:href="#DejaVuSans-49" x="137.890625"/>
     <use xlink:href="#DejaVuSans-4d" x="167.382812"/>
     <use xlink:href="#DejaVuSans-41" x="253.662109"/>
     <use xlink:href="#DejaVuSans-20" x="322.070312"/>
     <use xlink:href="#DejaVuSans-28" x="353.857422"/>
     <use xlink:href="#DejaVuSans-30" x="392.871094"/>
     <use xlink:href="#DejaVuSans-2c" x="456.494141"/>
     <use xlink:href="#DejaVuSans-20" x="488.28125"/>
     <use xlink:href="#DejaVuSans-31" x="520.068359"/>
     <use xlink:href="#DejaVuSans-2c" x="583.691406"/>
     <use xlink:href="#DejaVuSans-20" x="615.478516"/>
     <use xlink:href="#DejaVuSans-31" x="647.265625"/>
     <use xlink:href="#DejaVuSans-29" x="710.888672"/>
     <use xlink:href="#DejaVuSans-78" x="749.902344"/>
     <use xlink:href="#DejaVuSans-28" x="809.082031"/>
     <use xlink:href="#DejaVuSans-31" x="848.095703"/>
     <use xlink:href="#DejaVuSans-2c" x="911.71875"/>
     <use xlink:href="#DejaVuSans-20" x="943.505859"/>
     <use xlink:href="#DejaVuSans-30" x="975.292969"/>
     <use xlink:href="#DejaVuSans-2c" x="1038.916016"/>
     <use xlink:href="#DejaVuSans-20" x="1070.703125"/>
     <use xlink:href="#DejaVuSans-30" x="1102.490234"/>
     <use xlink:href="#DejaVuSans-2c" x="1166.113281"/>
     <use xlink:href="#DejaVuSans-20" x="1197.900391"/>
     <use xlink:href="#DejaVuSans-37" x="1229.6875"/>
     <use xlink:href="#DejaVuSans-29" x="1293.310547"/>
     <use xlink:href="#DejaVuSans-20" x="1332.324219"/>
     <use xlink:href="#DejaVuSans-28" x="1364.111328"/>
     <use xlink:href="#DejaVuSans-52" x="1403.125"/>
     <use xlink:href="#DejaVuSans-32" x="1472.607422"/>
     <use xlink:href="#DejaVuSans-20" x="1536.230469"/>
     <use xlink:href="#DejaVuSans-3d" x="1568.017578"/>
     <use xlink:href="#DejaVuSans-20" x="1651.806641"/>
     <use xlink:href="#DejaVuSans-30" x="1683.59375"/>
     <use xlink:href="#DejaVuSans-2e" x="1747.216797"/>
     <use xlink:href="#DejaVuSans-36" x="1779.003906"/>
     <use xlink:href="#DejaVuSans-31" x="1842.626953"/>
     <use xlink:href="#DejaVuSans-39" x="1906.25"/>
     <use xlink:href="#DejaVuSans-33" x="1969.873047"/>
     <use xlink:href="#DejaVuSans-32" x="2033.496094"/>
     <use xlink:href="#DejaVuSans-39" x="2097.119141"/>
     <use xlink:href="#DejaVuSans-29" x="2160.742188"/>
    </g>
   </g>
   <g id="legend_1">
    <g id="patch_7">
     <path d="M 53.0125 87.789875 
L 150.092188 87.789875 
Q 152.092188 87.789875 152.092188 85.789875 
L 152.092188 42.7555 
Q 152.092188 40.7555 150.092188 40.7555 
L 53.0125 40.7555 
Q 51.0125 40.7555 51.0125 42.7555 
L 51.0125 85.789875 
Q 51.0125 87.789875 53.0125 87.789875 
z
" style="fill: #ffffff; opacity: 0.8; stroke: #cccccc; stroke-linejoin: miter"/>
    </g>
    <g id="line2d_24">
     <path d="M 55.0125 48.853937 
L 65.0125 48.853937 
L 75.0125 48.853937 
" style="fill: none; stroke: #0000ff; stroke-width: 1.5; stroke-linecap: square"/>
    </g>
    <g id="text_22">
     <!-- Actual Value -->
     <g transform="translate(83.0125 52.353937)scale(0.1 -0.1)">
      <defs>
       <path id="DejaVuSans-56" d="M 1831 0 
L 50 4666 
L 709 4666 
L 2188 738 
L 3669 4666 
L 4325 4666 
L 2547 0 
L 1831 0 
z
" transform="scale(0.015625)"/>
      </defs>
      <use xlink:href="#DejaVuSans-41"/>
      <use xlink:href="#DejaVuSans-63" x="66.658203"/>
      <use xlink:href="#DejaVuSans-74" x="121.638672"/>
      <use xlink:href="#DejaVuSans-75" x="160.847656"/>
      <use xlink:href="#DejaVuSans-61" x="224.226562"/>
      <use xlink:href="#DejaVuSans-6c" x="285.505859"/>
      <use xlink:href="#DejaVuSans-20" x="313.289062"/>
      <use xlink:href="#DejaVuSans-56" x="345.076172"/>
      <use xlink:href="#DejaVuSans-61" x="405.734375"/>
      <use xlink:href="#DejaVuSans-6c" x="467.013672"/>
      <use xlink:href="#DejaVuSans-75" x="494.796875"/>
      <use xlink:href="#DejaVuSans-65" x="558.175781"/>
     </g>
    </g>
    <g id="line2d_25">
     <path d="M 55.0125 63.532062 
L 65.0125 63.532062 
L 75.0125 63.532062 
" style="fill: none; stroke: #ffa500; stroke-width: 1.5; stroke-linecap: square"/>
    </g>
    <g id="text_23">
     <!-- Check Value -->
     <g transform="translate(83.0125 67.032062)scale(0.1 -0.1)">
      <defs>
       <path id="DejaVuSans-68" d="M 3513 2113 
L 3513 0 
L 2938 0 
L 2938 2094 
Q 2938 2591 2744 2837 
Q 2550 3084 2163 3084 
Q 1697 3084 1428 2787 
Q 1159 2491 1159 1978 
L 1159 0 
L 581 0 
L 581 4863 
L 1159 4863 
L 1159 2956 
Q 1366 3272 1645 3428 
Q 1925 3584 2291 3584 
Q 2894 3584 3203 3211 
Q 3513 2838 3513 2113 
z
" transform="scale(0.015625)"/>
       <path id="DejaVuSans-6b" d="M 581 4863 
L 1159 4863 
L 1159 1991 
L 2875 3500 
L 3609 3500 
L 1753 1863 
L 3688 0 
L 2938 0 
L 1159 1709 
L 1159 0 
L 581 0 
L 581 4863 
z
" transform="scale(0.015625)"/>
      </defs>
      <use xlink:href="#DejaVuSans-43"/>
      <use xlink:href="#DejaVuSans-68" x="69.824219"/>
      <use xlink:href="#DejaVuSans-65" x="133.203125"/>
      <use xlink:href="#DejaVuSans-63" x="194.726562"/>
      <use xlink:href="#DejaVuSans-6b" x="249.707031"/>
      <use xlink:href="#DejaVuSans-20" x="307.617188"/>
      <use xlink:href="#DejaVuSans-56" x="339.404297"/>
      <use xlink:href="#DejaVuSans-61" x="400.0625"/>
      <use xlink:href="#DejaVuSans-6c" x="461.341797"/>
      <use xlink:href="#DejaVuSans-75" x="489.125"/>
      <use xlink:href="#DejaVuSans-65" x="552.503906"/>
     </g>
    </g>
    <g id="line2d_26">
     <path d="M 55.0125 78.210187 
L 65.0125 78.210187 
L 75.0125 78.210187 
" style="fill: none; stroke: #ff0000; stroke-width: 1.5; stroke-linecap: square"/>
    </g>
    <g id="text_24">
     <!-- Predict Value -->
     <g transform="translate(83.0125 81.710187)scale(0.1 -0.1)">
      <use xlink:href="#DejaVuSans-50"/>
      <use xlink:href="#DejaVuSans-72" x="58.552734"/>
      <use xlink:href="#DejaVuSans-65" x="97.416016"/>
      <use xlink:href="#DejaVuSans-64" x="158.939453"/>
      <use xlink:href="#DejaVuSans-69" x="222.416016"/>
      <use xlink:href="#DejaVuSans-63" x="250.199219"/>
      <use xlink:href="#DejaVuSans-74" x="305.179688"/>
      <use xlink:href="#DejaVuSans-20" x="344.388672"/>
      <use xlink:href="#DejaVuSans-56" x="376.175781"/>
      <use xlink:href="#DejaVuSans-61" x="436.833984"/>
      <use xlink:href="#DejaVuSans-6c" x="498.113281"/>
      <use xlink:href="#DejaVuSans-75" x="525.896484"/>
      <use xlink:href="#DejaVuSans-65" x="589.275391"/>
     </g>
    </g>
   </g>
  </g>
 </g>
 <defs>
  <clipPath id="pd7f84ca1bb">
   <rect x="46.0125" y="35.7555" width="1339.2" height="332.64"/>
  </clipPath>
 </defs>
</svg>
