<?xml version="1.0" encoding="utf-8" standalone="no"?>
<!DOCTYPE svg PUBLIC "-//W3C//DTD SVG 1.1//EN"
  "http://www.w3.org/Graphics/SVG/1.1/DTD/svg11.dtd">
<svg xmlns:xlink="http://www.w3.org/1999/xlink" width="1386.05pt" height="392.273625pt" viewBox="0 0 1386.05 392.273625" xmlns="http://www.w3.org/2000/svg" version="1.1">
 <metadata>
  <rdf:RDF xmlns:dc="http://purl.org/dc/elements/1.1/" xmlns:cc="http://creativecommons.org/ns#" xmlns:rdf="http://www.w3.org/1999/02/22-rdf-syntax-ns#">
   <cc:Work>
    <dc:type rdf:resource="http://purl.org/dc/dcmitype/StillImage"/>
    <dc:date>2022-07-08T19:47:27.963493</dc:date>
    <dc:format>image/svg+xml</dc:format>
    <dc:creator>
     <cc:Agent>
      <dc:title>Matplotlib v3.5.2, https://matplotlib.org/</dc:title>
     </cc:Agent>
    </dc:creator>
   </cc:Work>
  </rdf:RDF>
 </metadata>
 <defs>
  <style type="text/css">*{stroke-linejoin: round; stroke-linecap: butt}</style>
 </defs>
 <g id="figure_1">
  <g id="patch_1">
   <path d="M 0 392.273625 
L 1386.05 392.273625 
L 1386.05 0 
L 0 0 
z
" style="fill: #ffffff"/>
  </g>
  <g id="axes_1">
   <g id="patch_2">
    <path d="M 39.65 368.3955 
L 1378.85 368.3955 
L 1378.85 35.7555 
L 39.65 35.7555 
z
" style="fill: #ffffff"/>
   </g>
   <g id="matplotlib.axis_1">
    <g id="xtick_1">
     <g id="line2d_1">
      <defs>
       <path id="mfb995d9b82" d="M 0 0 
L 0 3.5 
" style="stroke: #000000; stroke-width: 0.8"/>
      </defs>
      <g>
       <use xlink:href="#mfb995d9b82" x="72.427622" y="368.3955" style="stroke: #000000; stroke-width: 0.8"/>
      </g>
     </g>
     <g id="text_1">
      <!-- 2020-01 -->
      <g transform="translate(51.536216 382.993937)scale(0.1 -0.1)">
       <defs>
        <path id="DejaVuSans-32" d="M 1228 531 
L 3431 531 
L 3431 0 
L 469 0 
L 469 531 
Q 828 903 1448 1529 
Q 2069 2156 2228 2338 
Q 2531 2678 2651 2914 
Q 2772 3150 2772 3378 
Q 2772 3750 2511 3984 
Q 2250 4219 1831 4219 
Q 1534 4219 1204 4116 
Q 875 4013 500 3803 
L 500 4441 
Q 881 4594 1212 4672 
Q 1544 4750 1819 4750 
Q 2544 4750 2975 4387 
Q 3406 4025 3406 3419 
Q 3406 3131 3298 2873 
Q 3191 2616 2906 2266 
Q 2828 2175 2409 1742 
Q 1991 1309 1228 531 
z
" transform="scale(0.015625)"/>
        <path id="DejaVuSans-30" d="M 2034 4250 
Q 1547 4250 1301 3770 
Q 1056 3291 1056 2328 
Q 1056 1369 1301 889 
Q 1547 409 2034 409 
Q 2525 409 2770 889 
Q 3016 1369 3016 2328 
Q 3016 3291 2770 3770 
Q 2525 4250 2034 4250 
z
M 2034 4750 
Q 2819 4750 3233 4129 
Q 3647 3509 3647 2328 
Q 3647 1150 3233 529 
Q 2819 -91 2034 -91 
Q 1250 -91 836 529 
Q 422 1150 422 2328 
Q 422 3509 836 4129 
Q 1250 4750 2034 4750 
z
" transform="scale(0.015625)"/>
        <path id="DejaVuSans-2d" d="M 313 2009 
L 1997 2009 
L 1997 1497 
L 313 1497 
L 313 2009 
z
" transform="scale(0.015625)"/>
        <path id="DejaVuSans-31" d="M 794 531 
L 1825 531 
L 1825 4091 
L 703 3866 
L 703 4441 
L 1819 4666 
L 2450 4666 
L 2450 531 
L 3481 531 
L 3481 0 
L 794 0 
L 794 531 
z
" transform="scale(0.015625)"/>
       </defs>
       <use xlink:href="#DejaVuSans-32"/>
       <use xlink:href="#DejaVuSans-30" x="63.623047"/>
       <use xlink:href="#DejaVuSans-32" x="127.246094"/>
       <use xlink:href="#DejaVuSans-30" x="190.869141"/>
       <use xlink:href="#DejaVuSans-2d" x="254.492188"/>
       <use xlink:href="#DejaVuSans-30" x="290.576172"/>
       <use xlink:href="#DejaVuSans-31" x="354.199219"/>
      </g>
     </g>
    </g>
    <g id="xtick_2">
     <g id="line2d_2">
      <g>
       <use xlink:href="#mfb995d9b82" x="194.173077" y="368.3955" style="stroke: #000000; stroke-width: 0.8"/>
      </g>
     </g>
     <g id="text_2">
      <!-- 2020-04 -->
      <g transform="translate(173.281671 382.993937)scale(0.1 -0.1)">
       <defs>
        <path id="DejaVuSans-34" d="M 2419 4116 
L 825 1625 
L 2419 1625 
L 2419 4116 
z
M 2253 4666 
L 3047 4666 
L 3047 1625 
L 3713 1625 
L 3713 1100 
L 3047 1100 
L 3047 0 
L 2419 0 
L 2419 1100 
L 313 1100 
L 313 1709 
L 2253 4666 
z
" transform="scale(0.015625)"/>
       </defs>
       <use xlink:href="#DejaVuSans-32"/>
       <use xlink:href="#DejaVuSans-30" x="63.623047"/>
       <use xlink:href="#DejaVuSans-32" x="127.246094"/>
       <use xlink:href="#DejaVuSans-30" x="190.869141"/>
       <use xlink:href="#DejaVuSans-2d" x="254.492188"/>
       <use xlink:href="#DejaVuSans-30" x="290.576172"/>
       <use xlink:href="#DejaVuSans-34" x="354.199219"/>
      </g>
     </g>
    </g>
    <g id="xtick_3">
     <g id="line2d_3">
      <g>
       <use xlink:href="#mfb995d9b82" x="315.918531" y="368.3955" style="stroke: #000000; stroke-width: 0.8"/>
      </g>
     </g>
     <g id="text_3">
      <!-- 2020-07 -->
      <g transform="translate(295.027125 382.993937)scale(0.1 -0.1)">
       <defs>
        <path id="DejaVuSans-37" d="M 525 4666 
L 3525 4666 
L 3525 4397 
L 1831 0 
L 1172 0 
L 2766 4134 
L 525 4134 
L 525 4666 
z
" transform="scale(0.015625)"/>
       </defs>
       <use xlink:href="#DejaVuSans-32"/>
       <use xlink:href="#DejaVuSans-30" x="63.623047"/>
       <use xlink:href="#DejaVuSans-32" x="127.246094"/>
       <use xlink:href="#DejaVuSans-30" x="190.869141"/>
       <use xlink:href="#DejaVuSans-2d" x="254.492188"/>
       <use xlink:href="#DejaVuSans-30" x="290.576172"/>
       <use xlink:href="#DejaVuSans-37" x="354.199219"/>
      </g>
     </g>
    </g>
    <g id="xtick_4">
     <g id="line2d_4">
      <g>
       <use xlink:href="#mfb995d9b82" x="439.001848" y="368.3955" style="stroke: #000000; stroke-width: 0.8"/>
      </g>
     </g>
     <g id="text_4">
      <!-- 2020-10 -->
      <g transform="translate(418.110442 382.993937)scale(0.1 -0.1)">
       <use xlink:href="#DejaVuSans-32"/>
       <use xlink:href="#DejaVuSans-30" x="63.623047"/>
       <use xlink:href="#DejaVuSans-32" x="127.246094"/>
       <use xlink:href="#DejaVuSans-30" x="190.869141"/>
       <use xlink:href="#DejaVuSans-2d" x="254.492188"/>
       <use xlink:href="#DejaVuSans-31" x="290.576172"/>
       <use xlink:href="#DejaVuSans-30" x="354.199219"/>
      </g>
     </g>
    </g>
    <g id="xtick_5">
     <g id="line2d_5">
      <g>
       <use xlink:href="#mfb995d9b82" x="562.085165" y="368.3955" style="stroke: #000000; stroke-width: 0.8"/>
      </g>
     </g>
     <g id="text_5">
      <!-- 2021-01 -->
      <g transform="translate(541.193759 382.993937)scale(0.1 -0.1)">
       <use xlink:href="#DejaVuSans-32"/>
       <use xlink:href="#DejaVuSans-30" x="63.623047"/>
       <use xlink:href="#DejaVuSans-32" x="127.246094"/>
       <use xlink:href="#DejaVuSans-31" x="190.869141"/>
       <use xlink:href="#DejaVuSans-2d" x="254.492188"/>
       <use xlink:href="#DejaVuSans-30" x="290.576172"/>
       <use xlink:href="#DejaVuSans-31" x="354.199219"/>
      </g>
     </g>
    </g>
    <g id="xtick_6">
     <g id="line2d_6">
      <g>
       <use xlink:href="#mfb995d9b82" x="682.492757" y="368.3955" style="stroke: #000000; stroke-width: 0.8"/>
      </g>
     </g>
     <g id="text_6">
      <!-- 2021-04 -->
      <g transform="translate(661.601351 382.993937)scale(0.1 -0.1)">
       <use xlink:href="#DejaVuSans-32"/>
       <use xlink:href="#DejaVuSans-30" x="63.623047"/>
       <use xlink:href="#DejaVuSans-32" x="127.246094"/>
       <use xlink:href="#DejaVuSans-31" x="190.869141"/>
       <use xlink:href="#DejaVuSans-2d" x="254.492188"/>
       <use xlink:href="#DejaVuSans-30" x="290.576172"/>
       <use xlink:href="#DejaVuSans-34" x="354.199219"/>
      </g>
     </g>
    </g>
    <g id="xtick_7">
     <g id="line2d_7">
      <g>
       <use xlink:href="#mfb995d9b82" x="804.238212" y="368.3955" style="stroke: #000000; stroke-width: 0.8"/>
      </g>
     </g>
     <g id="text_7">
      <!-- 2021-07 -->
      <g transform="translate(783.346806 382.993937)scale(0.1 -0.1)">
       <use xlink:href="#DejaVuSans-32"/>
       <use xlink:href="#DejaVuSans-30" x="63.623047"/>
       <use xlink:href="#DejaVuSans-32" x="127.246094"/>
       <use xlink:href="#DejaVuSans-31" x="190.869141"/>
       <use xlink:href="#DejaVuSans-2d" x="254.492188"/>
       <use xlink:href="#DejaVuSans-30" x="290.576172"/>
       <use xlink:href="#DejaVuSans-37" x="354.199219"/>
      </g>
     </g>
    </g>
    <g id="xtick_8">
     <g id="line2d_8">
      <g>
       <use xlink:href="#mfb995d9b82" x="927.321528" y="368.3955" style="stroke: #000000; stroke-width: 0.8"/>
      </g>
     </g>
     <g id="text_8">
      <!-- 2021-10 -->
      <g transform="translate(906.430122 382.993937)scale(0.1 -0.1)">
       <use xlink:href="#DejaVuSans-32"/>
       <use xlink:href="#DejaVuSans-30" x="63.623047"/>
       <use xlink:href="#DejaVuSans-32" x="127.246094"/>
       <use xlink:href="#DejaVuSans-31" x="190.869141"/>
       <use xlink:href="#DejaVuSans-2d" x="254.492188"/>
       <use xlink:href="#DejaVuSans-31" x="290.576172"/>
       <use xlink:href="#DejaVuSans-30" x="354.199219"/>
      </g>
     </g>
    </g>
    <g id="xtick_9">
     <g id="line2d_9">
      <g>
       <use xlink:href="#mfb995d9b82" x="1050.404845" y="368.3955" style="stroke: #000000; stroke-width: 0.8"/>
      </g>
     </g>
     <g id="text_9">
      <!-- 2022-01 -->
      <g transform="translate(1029.513439 382.993937)scale(0.1 -0.1)">
       <use xlink:href="#DejaVuSans-32"/>
       <use xlink:href="#DejaVuSans-30" x="63.623047"/>
       <use xlink:href="#DejaVuSans-32" x="127.246094"/>
       <use xlink:href="#DejaVuSans-32" x="190.869141"/>
       <use xlink:href="#DejaVuSans-2d" x="254.492188"/>
       <use xlink:href="#DejaVuSans-30" x="290.576172"/>
       <use xlink:href="#DejaVuSans-31" x="354.199219"/>
      </g>
     </g>
    </g>
    <g id="xtick_10">
     <g id="line2d_10">
      <g>
       <use xlink:href="#mfb995d9b82" x="1170.812438" y="368.3955" style="stroke: #000000; stroke-width: 0.8"/>
      </g>
     </g>
     <g id="text_10">
      <!-- 2022-04 -->
      <g transform="translate(1149.921031 382.993937)scale(0.1 -0.1)">
       <use xlink:href="#DejaVuSans-32"/>
       <use xlink:href="#DejaVuSans-30" x="63.623047"/>
       <use xlink:href="#DejaVuSans-32" x="127.246094"/>
       <use xlink:href="#DejaVuSans-32" x="190.869141"/>
       <use xlink:href="#DejaVuSans-2d" x="254.492188"/>
       <use xlink:href="#DejaVuSans-30" x="290.576172"/>
       <use xlink:href="#DejaVuSans-34" x="354.199219"/>
      </g>
     </g>
    </g>
    <g id="xtick_11">
     <g id="line2d_11">
      <g>
       <use xlink:href="#mfb995d9b82" x="1292.557892" y="368.3955" style="stroke: #000000; stroke-width: 0.8"/>
      </g>
     </g>
     <g id="text_11">
      <!-- 2022-07 -->
      <g transform="translate(1271.666486 382.993937)scale(0.1 -0.1)">
       <use xlink:href="#DejaVuSans-32"/>
       <use xlink:href="#DejaVuSans-30" x="63.623047"/>
       <use xlink:href="#DejaVuSans-32" x="127.246094"/>
       <use xlink:href="#DejaVuSans-32" x="190.869141"/>
       <use xlink:href="#DejaVuSans-2d" x="254.492188"/>
       <use xlink:href="#DejaVuSans-30" x="290.576172"/>
       <use xlink:href="#DejaVuSans-37" x="354.199219"/>
      </g>
     </g>
    </g>
   </g>
   <g id="matplotlib.axis_2">
    <g id="ytick_1">
     <g id="line2d_12">
      <defs>
       <path id="mf9f1390cf9" d="M 0 0 
L -3.5 0 
" style="stroke: #000000; stroke-width: 0.8"/>
      </defs>
      <g>
       <use xlink:href="#mf9f1390cf9" x="39.65" y="353.2755" style="stroke: #000000; stroke-width: 0.8"/>
      </g>
     </g>
     <g id="text_12">
      <!-- 0 -->
      <g transform="translate(26.2875 357.074719)scale(0.1 -0.1)">
       <use xlink:href="#DejaVuSans-30"/>
      </g>
     </g>
    </g>
    <g id="ytick_2">
     <g id="line2d_13">
      <g>
       <use xlink:href="#mf9f1390cf9" x="39.65" y="313.387114" style="stroke: #000000; stroke-width: 0.8"/>
      </g>
     </g>
     <g id="text_13">
      <!-- 1000 -->
      <g transform="translate(7.2 317.186332)scale(0.1 -0.1)">
       <use xlink:href="#DejaVuSans-31"/>
       <use xlink:href="#DejaVuSans-30" x="63.623047"/>
       <use xlink:href="#DejaVuSans-30" x="127.246094"/>
       <use xlink:href="#DejaVuSans-30" x="190.869141"/>
      </g>
     </g>
    </g>
    <g id="ytick_3">
     <g id="line2d_14">
      <g>
       <use xlink:href="#mf9f1390cf9" x="39.65" y="273.498727" style="stroke: #000000; stroke-width: 0.8"/>
      </g>
     </g>
     <g id="text_14">
      <!-- 2000 -->
      <g transform="translate(7.2 277.297946)scale(0.1 -0.1)">
       <use xlink:href="#DejaVuSans-32"/>
       <use xlink:href="#DejaVuSans-30" x="63.623047"/>
       <use xlink:href="#DejaVuSans-30" x="127.246094"/>
       <use xlink:href="#DejaVuSans-30" x="190.869141"/>
      </g>
     </g>
    </g>
    <g id="ytick_4">
     <g id="line2d_15">
      <g>
       <use xlink:href="#mf9f1390cf9" x="39.65" y="233.610341" style="stroke: #000000; stroke-width: 0.8"/>
      </g>
     </g>
     <g id="text_15">
      <!-- 3000 -->
      <g transform="translate(7.2 237.409559)scale(0.1 -0.1)">
       <defs>
        <path id="DejaVuSans-33" d="M 2597 2516 
Q 3050 2419 3304 2112 
Q 3559 1806 3559 1356 
Q 3559 666 3084 287 
Q 2609 -91 1734 -91 
Q 1441 -91 1130 -33 
Q 819 25 488 141 
L 488 750 
Q 750 597 1062 519 
Q 1375 441 1716 441 
Q 2309 441 2620 675 
Q 2931 909 2931 1356 
Q 2931 1769 2642 2001 
Q 2353 2234 1838 2234 
L 1294 2234 
L 1294 2753 
L 1863 2753 
Q 2328 2753 2575 2939 
Q 2822 3125 2822 3475 
Q 2822 3834 2567 4026 
Q 2313 4219 1838 4219 
Q 1578 4219 1281 4162 
Q 984 4106 628 3988 
L 628 4550 
Q 988 4650 1302 4700 
Q 1616 4750 1894 4750 
Q 2613 4750 3031 4423 
Q 3450 4097 3450 3541 
Q 3450 3153 3228 2886 
Q 3006 2619 2597 2516 
z
" transform="scale(0.015625)"/>
       </defs>
       <use xlink:href="#DejaVuSans-33"/>
       <use xlink:href="#DejaVuSans-30" x="63.623047"/>
       <use xlink:href="#DejaVuSans-30" x="127.246094"/>
       <use xlink:href="#DejaVuSans-30" x="190.869141"/>
      </g>
     </g>
    </g>
    <g id="ytick_5">
     <g id="line2d_16">
      <g>
       <use xlink:href="#mf9f1390cf9" x="39.65" y="193.721954" style="stroke: #000000; stroke-width: 0.8"/>
      </g>
     </g>
     <g id="text_16">
      <!-- 4000 -->
      <g transform="translate(7.2 197.521173)scale(0.1 -0.1)">
       <use xlink:href="#DejaVuSans-34"/>
       <use xlink:href="#DejaVuSans-30" x="63.623047"/>
       <use xlink:href="#DejaVuSans-30" x="127.246094"/>
       <use xlink:href="#DejaVuSans-30" x="190.869141"/>
      </g>
     </g>
    </g>
    <g id="ytick_6">
     <g id="line2d_17">
      <g>
       <use xlink:href="#mf9f1390cf9" x="39.65" y="153.833568" style="stroke: #000000; stroke-width: 0.8"/>
      </g>
     </g>
     <g id="text_17">
      <!-- 5000 -->
      <g transform="translate(7.2 157.632786)scale(0.1 -0.1)">
       <defs>
        <path id="DejaVuSans-35" d="M 691 4666 
L 3169 4666 
L 3169 4134 
L 1269 4134 
L 1269 2991 
Q 1406 3038 1543 3061 
Q 1681 3084 1819 3084 
Q 2600 3084 3056 2656 
Q 3513 2228 3513 1497 
Q 3513 744 3044 326 
Q 2575 -91 1722 -91 
Q 1428 -91 1123 -41 
Q 819 9 494 109 
L 494 744 
Q 775 591 1075 516 
Q 1375 441 1709 441 
Q 2250 441 2565 725 
Q 2881 1009 2881 1497 
Q 2881 1984 2565 2268 
Q 2250 2553 1709 2553 
Q 1456 2553 1204 2497 
Q 953 2441 691 2322 
L 691 4666 
z
" transform="scale(0.015625)"/>
       </defs>
       <use xlink:href="#DejaVuSans-35"/>
       <use xlink:href="#DejaVuSans-30" x="63.623047"/>
       <use xlink:href="#DejaVuSans-30" x="127.246094"/>
       <use xlink:href="#DejaVuSans-30" x="190.869141"/>
      </g>
     </g>
    </g>
    <g id="ytick_7">
     <g id="line2d_18">
      <g>
       <use xlink:href="#mf9f1390cf9" x="39.65" y="113.945181" style="stroke: #000000; stroke-width: 0.8"/>
      </g>
     </g>
     <g id="text_18">
      <!-- 6000 -->
      <g transform="translate(7.2 117.7444)scale(0.1 -0.1)">
       <defs>
        <path id="DejaVuSans-36" d="M 2113 2584 
Q 1688 2584 1439 2293 
Q 1191 2003 1191 1497 
Q 1191 994 1439 701 
Q 1688 409 2113 409 
Q 2538 409 2786 701 
Q 3034 994 3034 1497 
Q 3034 2003 2786 2293 
Q 2538 2584 2113 2584 
z
M 3366 4563 
L 3366 3988 
Q 3128 4100 2886 4159 
Q 2644 4219 2406 4219 
Q 1781 4219 1451 3797 
Q 1122 3375 1075 2522 
Q 1259 2794 1537 2939 
Q 1816 3084 2150 3084 
Q 2853 3084 3261 2657 
Q 3669 2231 3669 1497 
Q 3669 778 3244 343 
Q 2819 -91 2113 -91 
Q 1303 -91 875 529 
Q 447 1150 447 2328 
Q 447 3434 972 4092 
Q 1497 4750 2381 4750 
Q 2619 4750 2861 4703 
Q 3103 4656 3366 4563 
z
" transform="scale(0.015625)"/>
       </defs>
       <use xlink:href="#DejaVuSans-36"/>
       <use xlink:href="#DejaVuSans-30" x="63.623047"/>
       <use xlink:href="#DejaVuSans-30" x="127.246094"/>
       <use xlink:href="#DejaVuSans-30" x="190.869141"/>
      </g>
     </g>
    </g>
    <g id="ytick_8">
     <g id="line2d_19">
      <g>
       <use xlink:href="#mf9f1390cf9" x="39.65" y="74.056795" style="stroke: #000000; stroke-width: 0.8"/>
      </g>
     </g>
     <g id="text_19">
      <!-- 7000 -->
      <g transform="translate(7.2 77.856014)scale(0.1 -0.1)">
       <use xlink:href="#DejaVuSans-37"/>
       <use xlink:href="#DejaVuSans-30" x="63.623047"/>
       <use xlink:href="#DejaVuSans-30" x="127.246094"/>
       <use xlink:href="#DejaVuSans-30" x="190.869141"/>
      </g>
     </g>
    </g>
   </g>
   <g id="line2d_20">
    <path d="M 100.522727 353.2755 
L 172.767283 353.2755 
L 174.105145 353.076058 
L 178.118731 353.03617 
L 179.456593 353.155835 
L 192.835215 353.155835 
L 194.173077 353.03617 
L 198.186663 352.996281 
L 202.20025 352.717063 
L 203.538112 352.717063 
L 204.875974 352.03896 
L 206.213836 352.03896 
L 207.551698 351.79963 
L 208.88956 351.360857 
L 211.565285 351.241192 
L 212.903147 350.922085 
L 214.241009 350.922085 
L 215.578871 350.363648 
L 218.254595 350.044541 
L 220.93032 349.32655 
L 223.606044 349.246773 
L 224.943906 349.246773 
L 226.281768 348.608559 
L 228.957493 348.32934 
L 231.633217 347.651238 
L 234.308941 347.651238 
L 235.646803 347.212465 
L 238.322527 346.973135 
L 239.66039 346.654028 
L 240.998252 346.494474 
L 242.336114 346.175367 
L 245.011838 345.337711 
L 246.3497 345.337711 
L 250.363287 344.819162 
L 253.039011 344.699497 
L 261.066184 343.782064 
L 262.404046 343.702287 
L 263.741908 343.343292 
L 265.07977 343.103961 
L 266.417632 342.705078 
L 270.431219 342.665189 
L 273.106943 342.38597 
L 277.120529 341.468538 
L 278.458392 340.870212 
L 281.134116 340.471328 
L 285.147702 338.955569 
L 287.823427 337.998248 
L 290.499151 336.921262 
L 291.837013 336.482489 
L 293.174875 335.48528 
L 294.512737 335.006619 
L 295.850599 333.411084 
L 297.188462 332.972311 
L 298.526324 332.693093 
L 299.864186 331.655995 
L 301.202048 330.100347 
L 302.53991 329.30258 
L 305.215634 327.348049 
L 306.553497 327.268272 
L 307.891359 326.869388 
L 309.229221 326.111509 
L 310.567083 325.991844 
L 311.904945 325.991844 
L 313.242807 322.641219 
L 314.580669 322.561442 
L 315.918531 322.162559 
L 317.256394 321.205237 
L 319.932118 320.048474 
L 321.26998 320.048474 
L 322.607842 318.41305 
L 323.945704 317.734948 
L 325.283566 316.69785 
L 326.621429 316.338854 
L 327.959291 315.102314 
L 329.297153 314.862984 
L 330.635015 313.46689 
L 333.310739 312.429792 
L 334.648601 311.871355 
L 335.986464 311.153364 
L 337.324326 310.594926 
L 338.662188 310.594926 
L 340.00005 309.876936 
L 341.337912 309.75727 
L 342.675774 309.119056 
L 344.013636 309.079168 
L 345.351499 308.839837 
L 346.689361 308.720172 
L 348.027223 308.002181 
L 349.365085 308.002181 
L 350.702947 306.925195 
L 352.040809 306.725753 
L 353.378671 306.725753 
L 354.716533 306.247092 
L 356.054396 306.167316 
L 358.73012 305.848209 
L 360.067982 305.130218 
L 361.405844 304.850999 
L 362.743706 304.771222 
L 368.095155 304.053231 
L 370.770879 303.813901 
L 372.108741 303.813901 
L 373.446603 303.33524 
L 376.122328 303.255463 
L 377.46019 303.135798 
L 378.798052 303.135798 
L 380.135914 302.338031 
L 381.473776 302.338031 
L 382.811638 302.138589 
L 385.487363 302.018923 
L 389.500949 301.979035 
L 390.838811 301.819481 
L 394.852398 301.819481 
L 396.19026 301.300932 
L 401.541708 301.221156 
L 405.555295 301.181267 
L 406.893157 301.181267 
L 408.231019 300.981825 
L 417.596054 300.981825 
L 418.933916 300.343611 
L 420.271778 300.343611 
L 421.60964 300.104281 
L 430.974675 299.904839 
L 437.663986 299.864951 
L 439.001848 299.705397 
L 441.677572 299.705397 
L 443.015435 299.545843 
L 444.353297 299.505955 
L 445.691159 299.266625 
L 448.366883 299.266625 
L 449.704745 299.027294 
L 451.042607 299.027294 
L 452.38047 298.907629 
L 453.718332 298.628411 
L 459.06978 298.548634 
L 460.407642 298.349192 
L 461.745504 298.349192 
L 465.759091 298.069973 
L 468.434815 298.030085 
L 469.772677 297.710978 
L 472.448402 297.631201 
L 473.786264 296.793545 
L 475.124126 296.67388 
L 476.461988 296.67388 
L 477.79985 296.394661 
L 483.151299 296.394661 
L 484.489161 295.995777 
L 488.502747 295.995777 
L 491.178472 295.517116 
L 492.516334 295.517116 
L 493.854196 294.998567 
L 495.192058 294.998567 
L 496.52992 294.719349 
L 497.867782 293.801916 
L 501.881369 292.96426 
L 503.219231 292.96426 
L 504.557093 292.764818 
L 505.894955 291.887273 
L 507.232817 291.887273 
L 508.570679 291.288947 
L 512.584266 291.288947 
L 513.922128 290.331626 
L 515.25999 289.813077 
L 516.597852 289.653524 
L 517.935714 289.653524 
L 519.273576 289.533858 
L 524.625025 289.533858 
L 525.962887 286.941113 
L 527.300749 286.422564 
L 536.665784 286.422564 
L 538.003646 282.633168 
L 543.355095 282.633168 
L 544.692957 282.314061 
L 546.030819 282.314061 
L 547.368681 281.955065 
L 548.706543 281.955065 
L 550.044406 281.556181 
L 576.801648 281.476404 
L 578.13951 278.444887 
L 580.815235 278.404999 
L 583.490959 278.006115 
L 584.828821 278.006115 
L 586.166683 277.647119 
L 590.18027 277.447677 
L 591.518132 276.929128 
L 594.193856 276.929128 
L 595.531718 276.410579 
L 598.207443 276.051584 
L 599.545305 276.051584 
L 600.883167 275.931919 
L 603.558891 275.931919 
L 604.896753 275.732477 
L 610.248202 275.692588 
L 611.586064 275.253816 
L 616.937512 275.253816 
L 618.275375 274.735267 
L 622.288961 274.735267 
L 623.626823 274.097053 
L 627.64041 274.097053 
L 628.978272 273.977388 
L 631.653996 273.977388 
L 632.991858 273.658281 
L 635.667582 273.41895 
L 637.005445 273.139732 
L 647.708342 272.820625 
L 649.046204 272.541406 
L 655.735514 272.461629 
L 657.073377 272.302076 
L 662.424825 272.302076 
L 663.762687 271.823415 
L 670.451998 271.823415 
L 673.127722 271.424531 
L 685.168482 271.384643 
L 686.506344 271.065536 
L 690.51993 271.065536 
L 691.857792 270.866094 
L 698.547103 270.866094 
L 699.884965 270.666652 
L 705.236414 270.666652 
L 706.574276 270.307656 
L 709.25 270.307656 
L 710.587862 270.068326 
L 714.601449 270.068326 
L 715.939311 269.629554 
L 721.290759 269.549777 
L 725.304346 269.549777 
L 726.642208 269.111005 
L 727.98007 269.111005 
L 729.317932 268.991339 
L 733.331518 268.951451 
L 736.007243 268.791897 
L 737.345105 268.791897 
L 738.682967 268.512679 
L 740.020829 268.512679 
L 741.358691 268.393014 
L 744.034416 268.353125 
L 746.71014 268.273348 
L 748.048002 267.834576 
L 754.737313 267.834576 
L 756.075175 267.076697 
L 757.413037 266.558148 
L 758.750899 266.558148 
L 760.088761 266.358706 
L 762.764486 266.358706 
L 764.102348 265.880045 
L 765.44021 265.122166 
L 766.778072 264.76317 
L 768.115934 264.76317 
L 769.453796 263.486742 
L 772.12952 263.486742 
L 773.467383 261.931095 
L 774.805245 261.931095 
L 776.143107 258.261363 
L 777.480969 258.261363 
L 778.818831 254.192748 
L 782.832418 254.192748 
L 784.17028 252.15844 
L 785.508142 244.420093 
L 786.846004 244.420093 
L 788.183866 242.904335 
L 789.521728 242.904335 
L 790.85959 233.809783 
L 792.197453 229.262507 
L 793.535315 229.262507 
L 794.873177 223.039918 
L 796.211039 223.039918 
L 797.548901 212.509384 
L 798.886763 212.509384 
L 800.224625 204.252488 
L 801.562488 201.938962 
L 802.90035 197.710793 
L 804.238212 190.012334 
L 806.913936 172.979993 
L 809.58966 172.979993 
L 810.927522 157.104415 
L 812.265385 157.104415 
L 813.603247 154.072898 
L 816.278971 154.072898 
L 817.616833 149.764952 
L 820.292557 145.257565 
L 821.63042 145.257565 
L 822.968282 142.824373 
L 824.306144 141.627721 
L 825.644006 141.627721 
L 826.981868 141.268726 
L 828.31973 138.037767 
L 830.995455 138.037767 
L 832.333317 137.71866 
L 847.0498 137.71866 
L 848.387662 135.524798 
L 857.752697 135.445022 
L 859.090559 134.607365 
L 863.104146 134.607365 
L 864.442008 133.729821 
L 865.77987 133.729821 
L 867.117732 133.570267 
L 868.455594 133.570267 
L 869.793457 133.171384 
L 872.469181 133.171384 
L 873.807043 132.812388 
L 877.820629 132.812388 
L 879.158492 132.373616 
L 883.172078 132.373616 
L 884.50994 130.139866 
L 888.523526 130.139866 
L 889.861389 124.834711 
L 907.253596 124.834711 
L 908.591459 117.774466 
L 911.267183 117.774466 
L 912.605045 117.335694 
L 917.956494 117.335694 
L 919.294356 122.241966 
L 923.307942 122.162189 
L 925.983666 121.962747 
L 940.70015 121.88297 
L 946.051598 121.803193 
L 948.727323 121.803193 
L 950.065185 121.64364 
L 952.740909 121.603751 
L 954.078771 121.484086 
L 967.457393 121.444198 
L 968.795255 121.324533 
L 979.498152 121.244756 
L 983.511738 121.204868 
L 999.566084 121.164979 
L 1002.241808 121.085202 
L 1006.255395 121.005426 
L 1010.268981 120.965537 
L 1014.282567 120.965537 
L 1015.62043 120.766095 
L 1016.958292 120.766095 
L 1018.296154 120.64643 
L 1019.634016 120.64643 
L 1020.971878 120.526765 
L 1023.647602 120.526765 
L 1024.985465 120.16777 
L 1033.012637 120.16777 
L 1034.3505 117.295806 
L 1035.688362 116.777257 
L 1042.377672 116.777257 
L 1043.715534 104.850629 
L 1045.053397 104.850629 
L 1046.391259 102.85621 
L 1053.080569 102.85621 
L 1054.418432 97.830273 
L 1055.756294 80.000164 
L 1062.445604 80.000164 
L 1063.783467 71.902822 
L 1065.121329 71.902822 
L 1066.459191 69.2303 
L 1074.486364 69.2303 
L 1075.824226 65.76001 
L 1079.837812 65.76001 
L 1081.175674 64.363917 
L 1085.189261 64.363917 
L 1086.527123 63.925145 
L 1089.202847 63.925145 
L 1090.540709 63.207154 
L 1094.554296 63.207154 
L 1095.892158 63.0476 
L 1098.567882 63.0476 
L 1099.905744 60.255413 
L 1102.581469 60.255413 
L 1103.919331 59.776752 
L 1126.662987 59.696976 
L 1128.000849 58.739654 
L 1138.703746 58.739654 
L 1142.717333 58.420547 
L 1145.393057 58.420547 
L 1146.730919 58.221105 
L 1164.123127 58.221105 
L 1165.460989 58.10144 
L 1193.556094 58.021663 
L 1194.893956 56.825012 
L 1224.326923 56.745235 
L 1225.664785 56.067133 
L 1233.691958 56.027244 
L 1235.02982 55.907579 
L 1263.124925 55.867691 
L 1264.462787 55.748025 
L 1271.152098 55.708137 
L 1272.48996 54.551374 
L 1276.503546 54.551374 
L 1277.841409 54.39182 
L 1289.882168 54.39182 
L 1291.22003 54.232267 
L 1296.571479 54.232267 
L 1297.909341 54.112602 
L 1300.585065 54.112602 
L 1300.585065 54.112602 
" clip-path="url(#pe640e41b39)" style="fill: none; stroke: #0000ff; stroke-width: 1.5; stroke-linecap: square"/>
   </g>
   <g id="line2d_21">
    <path d="M 1061.107742 79.165919 
L 1062.445604 79.042092 
L 1063.783467 68.312057 
L 1065.121329 71.213851 
L 1066.459191 68.853833 
L 1067.797053 67.676104 
L 1069.134915 69.471147 
L 1070.472777 68.365585 
L 1071.810639 67.464043 
L 1074.486364 68.886506 
L 1075.824226 65.717013 
L 1078.49995 65.576765 
L 1079.837812 64.980354 
L 1081.175674 63.624436 
L 1082.513536 63.793125 
L 1083.851399 63.467806 
L 1085.189261 64.087485 
L 1089.202847 63.629136 
L 1090.540709 62.790015 
L 1091.878571 62.924321 
L 1093.216434 62.821776 
L 1095.892158 62.964375 
L 1097.23002 62.932766 
L 1098.567882 62.739572 
L 1099.905744 59.896817 
L 1101.243606 59.806728 
L 1102.581469 59.851799 
L 1103.919331 59.082402 
L 1105.257193 59.606566 
L 1106.595055 59.615636 
L 1107.932917 59.02738 
L 1109.270779 59.615502 
L 1121.311538 59.536486 
L 1123.987263 59.561261 
L 1126.662987 59.504956 
L 1128.000849 58.543402 
L 1132.014436 58.427771 
L 1133.352298 58.599597 
L 1134.69016 58.598734 
L 1136.028022 58.420386 
L 1137.365884 58.606842 
L 1138.703746 58.616514 
L 1142.717333 58.248721 
L 1145.393057 58.1845 
L 1148.068781 58.043529 
L 1158.771678 58.072243 
L 1164.123127 58.064568 
L 1166.798851 57.946239 
L 1190.88037 57.87964 
L 1193.556094 57.880484 
L 1194.893956 56.616472 
L 1198.907542 56.458208 
L 1200.245405 56.682943 
L 1201.583267 56.677833 
L 1202.921129 56.481643 
L 1204.258991 56.610602 
L 1210.948302 56.601522 
L 1212.286164 56.52552 
L 1214.961888 56.611584 
L 1224.326923 56.605836 
L 1225.664785 55.888417 
L 1229.678372 55.797529 
L 1232.354096 55.881346 
L 1235.02982 55.758314 
L 1249.746304 55.764808 
L 1253.75989 55.724089 
L 1268.476374 55.58125 
L 1271.152098 55.560192 
L 1272.48996 54.320606 
L 1277.841409 54.237011 
L 1279.179271 54.233063 
L 1280.517133 54.043079 
L 1281.854995 54.225032 
L 1285.868581 54.260019 
L 1289.882168 54.189686 
L 1292.557892 54.080319 
L 1296.571479 54.090294 
L 1299.247203 53.911664 
L 1300.585065 53.965173 
L 1300.585065 53.965173 
" clip-path="url(#pe640e41b39)" style="fill: none; stroke: #ffa500; stroke-width: 1.5; stroke-linecap: square"/>
   </g>
   <g id="line2d_22">
    <path d="M 1300.585065 53.965173 
L 1301.922927 53.797409 
L 1303.260789 53.633564 
L 1304.598651 53.459162 
L 1305.936513 53.229147 
L 1307.274376 53.012886 
L 1308.612238 52.777418 
L 1309.9501 52.526534 
L 1311.287962 52.264043 
L 1312.625824 51.999598 
L 1313.963686 51.730249 
L 1315.301548 51.443868 
L 1316.639411 51.164179 
L 1317.977273 50.8755 
" clip-path="url(#pe640e41b39)" style="fill: none; stroke: #ff0000; stroke-width: 1.5; stroke-linecap: square"/>
   </g>
   <g id="patch_3">
    <path d="M 39.65 368.3955 
L 39.65 35.7555 
" style="fill: none; stroke: #000000; stroke-width: 0.8; stroke-linejoin: miter; stroke-linecap: square"/>
   </g>
   <g id="patch_4">
    <path d="M 1378.85 368.3955 
L 1378.85 35.7555 
" style="fill: none; stroke: #000000; stroke-width: 0.8; stroke-linejoin: miter; stroke-linecap: square"/>
   </g>
   <g id="patch_5">
    <path d="M 39.65 368.3955 
L 1378.85 368.3955 
" style="fill: none; stroke: #000000; stroke-width: 0.8; stroke-linejoin: miter; stroke-linecap: square"/>
   </g>
   <g id="patch_6">
    <path d="M 39.65 35.7555 
L 1378.85 35.7555 
" style="fill: none; stroke: #000000; stroke-width: 0.8; stroke-linejoin: miter; stroke-linecap: square"/>
   </g>
   <g id="text_20">
    <!-- Accumulative Confirmed Cases Forecasting - Liberia -->
    <g transform="translate(552.9575 16.318125)scale(0.12 -0.12)">
     <defs>
      <path id="DejaVuSans-41" d="M 2188 4044 
L 1331 1722 
L 3047 1722 
L 2188 4044 
z
M 1831 4666 
L 2547 4666 
L 4325 0 
L 3669 0 
L 3244 1197 
L 1141 1197 
L 716 0 
L 50 0 
L 1831 4666 
z
" transform="scale(0.015625)"/>
      <path id="DejaVuSans-63" d="M 3122 3366 
L 3122 2828 
Q 2878 2963 2633 3030 
Q 2388 3097 2138 3097 
Q 1578 3097 1268 2742 
Q 959 2388 959 1747 
Q 959 1106 1268 751 
Q 1578 397 2138 397 
Q 2388 397 2633 464 
Q 2878 531 3122 666 
L 3122 134 
Q 2881 22 2623 -34 
Q 2366 -91 2075 -91 
Q 1284 -91 818 406 
Q 353 903 353 1747 
Q 353 2603 823 3093 
Q 1294 3584 2113 3584 
Q 2378 3584 2631 3529 
Q 2884 3475 3122 3366 
z
" transform="scale(0.015625)"/>
      <path id="DejaVuSans-75" d="M 544 1381 
L 544 3500 
L 1119 3500 
L 1119 1403 
Q 1119 906 1312 657 
Q 1506 409 1894 409 
Q 2359 409 2629 706 
Q 2900 1003 2900 1516 
L 2900 3500 
L 3475 3500 
L 3475 0 
L 2900 0 
L 2900 538 
Q 2691 219 2414 64 
Q 2138 -91 1772 -91 
Q 1169 -91 856 284 
Q 544 659 544 1381 
z
M 1991 3584 
L 1991 3584 
z
" transform="scale(0.015625)"/>
      <path id="DejaVuSans-6d" d="M 3328 2828 
Q 3544 3216 3844 3400 
Q 4144 3584 4550 3584 
Q 5097 3584 5394 3201 
Q 5691 2819 5691 2113 
L 5691 0 
L 5113 0 
L 5113 2094 
Q 5113 2597 4934 2840 
Q 4756 3084 4391 3084 
Q 3944 3084 3684 2787 
Q 3425 2491 3425 1978 
L 3425 0 
L 2847 0 
L 2847 2094 
Q 2847 2600 2669 2842 
Q 2491 3084 2119 3084 
Q 1678 3084 1418 2786 
Q 1159 2488 1159 1978 
L 1159 0 
L 581 0 
L 581 3500 
L 1159 3500 
L 1159 2956 
Q 1356 3278 1631 3431 
Q 1906 3584 2284 3584 
Q 2666 3584 2933 3390 
Q 3200 3197 3328 2828 
z
" transform="scale(0.015625)"/>
      <path id="DejaVuSans-6c" d="M 603 4863 
L 1178 4863 
L 1178 0 
L 603 0 
L 603 4863 
z
" transform="scale(0.015625)"/>
      <path id="DejaVuSans-61" d="M 2194 1759 
Q 1497 1759 1228 1600 
Q 959 1441 959 1056 
Q 959 750 1161 570 
Q 1363 391 1709 391 
Q 2188 391 2477 730 
Q 2766 1069 2766 1631 
L 2766 1759 
L 2194 1759 
z
M 3341 1997 
L 3341 0 
L 2766 0 
L 2766 531 
Q 2569 213 2275 61 
Q 1981 -91 1556 -91 
Q 1019 -91 701 211 
Q 384 513 384 1019 
Q 384 1609 779 1909 
Q 1175 2209 1959 2209 
L 2766 2209 
L 2766 2266 
Q 2766 2663 2505 2880 
Q 2244 3097 1772 3097 
Q 1472 3097 1187 3025 
Q 903 2953 641 2809 
L 641 3341 
Q 956 3463 1253 3523 
Q 1550 3584 1831 3584 
Q 2591 3584 2966 3190 
Q 3341 2797 3341 1997 
z
" transform="scale(0.015625)"/>
      <path id="DejaVuSans-74" d="M 1172 4494 
L 1172 3500 
L 2356 3500 
L 2356 3053 
L 1172 3053 
L 1172 1153 
Q 1172 725 1289 603 
Q 1406 481 1766 481 
L 2356 481 
L 2356 0 
L 1766 0 
Q 1100 0 847 248 
Q 594 497 594 1153 
L 594 3053 
L 172 3053 
L 172 3500 
L 594 3500 
L 594 4494 
L 1172 4494 
z
" transform="scale(0.015625)"/>
      <path id="DejaVuSans-69" d="M 603 3500 
L 1178 3500 
L 1178 0 
L 603 0 
L 603 3500 
z
M 603 4863 
L 1178 4863 
L 1178 4134 
L 603 4134 
L 603 4863 
z
" transform="scale(0.015625)"/>
      <path id="DejaVuSans-76" d="M 191 3500 
L 800 3500 
L 1894 563 
L 2988 3500 
L 3597 3500 
L 2284 0 
L 1503 0 
L 191 3500 
z
" transform="scale(0.015625)"/>
      <path id="DejaVuSans-65" d="M 3597 1894 
L 3597 1613 
L 953 1613 
Q 991 1019 1311 708 
Q 1631 397 2203 397 
Q 2534 397 2845 478 
Q 3156 559 3463 722 
L 3463 178 
Q 3153 47 2828 -22 
Q 2503 -91 2169 -91 
Q 1331 -91 842 396 
Q 353 884 353 1716 
Q 353 2575 817 3079 
Q 1281 3584 2069 3584 
Q 2775 3584 3186 3129 
Q 3597 2675 3597 1894 
z
M 3022 2063 
Q 3016 2534 2758 2815 
Q 2500 3097 2075 3097 
Q 1594 3097 1305 2825 
Q 1016 2553 972 2059 
L 3022 2063 
z
" transform="scale(0.015625)"/>
      <path id="DejaVuSans-20" transform="scale(0.015625)"/>
      <path id="DejaVuSans-43" d="M 4122 4306 
L 4122 3641 
Q 3803 3938 3442 4084 
Q 3081 4231 2675 4231 
Q 1875 4231 1450 3742 
Q 1025 3253 1025 2328 
Q 1025 1406 1450 917 
Q 1875 428 2675 428 
Q 3081 428 3442 575 
Q 3803 722 4122 1019 
L 4122 359 
Q 3791 134 3420 21 
Q 3050 -91 2638 -91 
Q 1578 -91 968 557 
Q 359 1206 359 2328 
Q 359 3453 968 4101 
Q 1578 4750 2638 4750 
Q 3056 4750 3426 4639 
Q 3797 4528 4122 4306 
z
" transform="scale(0.015625)"/>
      <path id="DejaVuSans-6f" d="M 1959 3097 
Q 1497 3097 1228 2736 
Q 959 2375 959 1747 
Q 959 1119 1226 758 
Q 1494 397 1959 397 
Q 2419 397 2687 759 
Q 2956 1122 2956 1747 
Q 2956 2369 2687 2733 
Q 2419 3097 1959 3097 
z
M 1959 3584 
Q 2709 3584 3137 3096 
Q 3566 2609 3566 1747 
Q 3566 888 3137 398 
Q 2709 -91 1959 -91 
Q 1206 -91 779 398 
Q 353 888 353 1747 
Q 353 2609 779 3096 
Q 1206 3584 1959 3584 
z
" transform="scale(0.015625)"/>
      <path id="DejaVuSans-6e" d="M 3513 2113 
L 3513 0 
L 2938 0 
L 2938 2094 
Q 2938 2591 2744 2837 
Q 2550 3084 2163 3084 
Q 1697 3084 1428 2787 
Q 1159 2491 1159 1978 
L 1159 0 
L 581 0 
L 581 3500 
L 1159 3500 
L 1159 2956 
Q 1366 3272 1645 3428 
Q 1925 3584 2291 3584 
Q 2894 3584 3203 3211 
Q 3513 2838 3513 2113 
z
" transform="scale(0.015625)"/>
      <path id="DejaVuSans-66" d="M 2375 4863 
L 2375 4384 
L 1825 4384 
Q 1516 4384 1395 4259 
Q 1275 4134 1275 3809 
L 1275 3500 
L 2222 3500 
L 2222 3053 
L 1275 3053 
L 1275 0 
L 697 0 
L 697 3053 
L 147 3053 
L 147 3500 
L 697 3500 
L 697 3744 
Q 697 4328 969 4595 
Q 1241 4863 1831 4863 
L 2375 4863 
z
" transform="scale(0.015625)"/>
      <path id="DejaVuSans-72" d="M 2631 2963 
Q 2534 3019 2420 3045 
Q 2306 3072 2169 3072 
Q 1681 3072 1420 2755 
Q 1159 2438 1159 1844 
L 1159 0 
L 581 0 
L 581 3500 
L 1159 3500 
L 1159 2956 
Q 1341 3275 1631 3429 
Q 1922 3584 2338 3584 
Q 2397 3584 2469 3576 
Q 2541 3569 2628 3553 
L 2631 2963 
z
" transform="scale(0.015625)"/>
      <path id="DejaVuSans-64" d="M 2906 2969 
L 2906 4863 
L 3481 4863 
L 3481 0 
L 2906 0 
L 2906 525 
Q 2725 213 2448 61 
Q 2172 -91 1784 -91 
Q 1150 -91 751 415 
Q 353 922 353 1747 
Q 353 2572 751 3078 
Q 1150 3584 1784 3584 
Q 2172 3584 2448 3432 
Q 2725 3281 2906 2969 
z
M 947 1747 
Q 947 1113 1208 752 
Q 1469 391 1925 391 
Q 2381 391 2643 752 
Q 2906 1113 2906 1747 
Q 2906 2381 2643 2742 
Q 2381 3103 1925 3103 
Q 1469 3103 1208 2742 
Q 947 2381 947 1747 
z
" transform="scale(0.015625)"/>
      <path id="DejaVuSans-73" d="M 2834 3397 
L 2834 2853 
Q 2591 2978 2328 3040 
Q 2066 3103 1784 3103 
Q 1356 3103 1142 2972 
Q 928 2841 928 2578 
Q 928 2378 1081 2264 
Q 1234 2150 1697 2047 
L 1894 2003 
Q 2506 1872 2764 1633 
Q 3022 1394 3022 966 
Q 3022 478 2636 193 
Q 2250 -91 1575 -91 
Q 1294 -91 989 -36 
Q 684 19 347 128 
L 347 722 
Q 666 556 975 473 
Q 1284 391 1588 391 
Q 1994 391 2212 530 
Q 2431 669 2431 922 
Q 2431 1156 2273 1281 
Q 2116 1406 1581 1522 
L 1381 1569 
Q 847 1681 609 1914 
Q 372 2147 372 2553 
Q 372 3047 722 3315 
Q 1072 3584 1716 3584 
Q 2034 3584 2315 3537 
Q 2597 3491 2834 3397 
z
" transform="scale(0.015625)"/>
      <path id="DejaVuSans-46" d="M 628 4666 
L 3309 4666 
L 3309 4134 
L 1259 4134 
L 1259 2759 
L 3109 2759 
L 3109 2228 
L 1259 2228 
L 1259 0 
L 628 0 
L 628 4666 
z
" transform="scale(0.015625)"/>
      <path id="DejaVuSans-67" d="M 2906 1791 
Q 2906 2416 2648 2759 
Q 2391 3103 1925 3103 
Q 1463 3103 1205 2759 
Q 947 2416 947 1791 
Q 947 1169 1205 825 
Q 1463 481 1925 481 
Q 2391 481 2648 825 
Q 2906 1169 2906 1791 
z
M 3481 434 
Q 3481 -459 3084 -895 
Q 2688 -1331 1869 -1331 
Q 1566 -1331 1297 -1286 
Q 1028 -1241 775 -1147 
L 775 -588 
Q 1028 -725 1275 -790 
Q 1522 -856 1778 -856 
Q 2344 -856 2625 -561 
Q 2906 -266 2906 331 
L 2906 616 
Q 2728 306 2450 153 
Q 2172 0 1784 0 
Q 1141 0 747 490 
Q 353 981 353 1791 
Q 353 2603 747 3093 
Q 1141 3584 1784 3584 
Q 2172 3584 2450 3431 
Q 2728 3278 2906 2969 
L 2906 3500 
L 3481 3500 
L 3481 434 
z
" transform="scale(0.015625)"/>
      <path id="DejaVuSans-4c" d="M 628 4666 
L 1259 4666 
L 1259 531 
L 3531 531 
L 3531 0 
L 628 0 
L 628 4666 
z
" transform="scale(0.015625)"/>
      <path id="DejaVuSans-62" d="M 3116 1747 
Q 3116 2381 2855 2742 
Q 2594 3103 2138 3103 
Q 1681 3103 1420 2742 
Q 1159 2381 1159 1747 
Q 1159 1113 1420 752 
Q 1681 391 2138 391 
Q 2594 391 2855 752 
Q 3116 1113 3116 1747 
z
M 1159 2969 
Q 1341 3281 1617 3432 
Q 1894 3584 2278 3584 
Q 2916 3584 3314 3078 
Q 3713 2572 3713 1747 
Q 3713 922 3314 415 
Q 2916 -91 2278 -91 
Q 1894 -91 1617 61 
Q 1341 213 1159 525 
L 1159 0 
L 581 0 
L 581 4863 
L 1159 4863 
L 1159 2969 
z
" transform="scale(0.015625)"/>
     </defs>
     <use xlink:href="#DejaVuSans-41"/>
     <use xlink:href="#DejaVuSans-63" x="66.658203"/>
     <use xlink:href="#DejaVuSans-63" x="121.638672"/>
     <use xlink:href="#DejaVuSans-75" x="176.619141"/>
     <use xlink:href="#DejaVuSans-6d" x="239.998047"/>
     <use xlink:href="#DejaVuSans-75" x="337.410156"/>
     <use xlink:href="#DejaVuSans-6c" x="400.789062"/>
     <use xlink:href="#DejaVuSans-61" x="428.572266"/>
     <use xlink:href="#DejaVuSans-74" x="489.851562"/>
     <use xlink:href="#DejaVuSans-69" x="529.060547"/>
     <use xlink:href="#DejaVuSans-76" x="556.84375"/>
     <use xlink:href="#DejaVuSans-65" x="616.023438"/>
     <use xlink:href="#DejaVuSans-20" x="677.546875"/>
     <use xlink:href="#DejaVuSans-43" x="709.333984"/>
     <use xlink:href="#DejaVuSans-6f" x="779.158203"/>
     <use xlink:href="#DejaVuSans-6e" x="840.339844"/>
     <use xlink:href="#DejaVuSans-66" x="903.71875"/>
     <use xlink:href="#DejaVuSans-69" x="938.923828"/>
     <use xlink:href="#DejaVuSans-72" x="966.707031"/>
     <use xlink:href="#DejaVuSans-6d" x="1006.070312"/>
     <use xlink:href="#DejaVuSans-65" x="1103.482422"/>
     <use xlink:href="#DejaVuSans-64" x="1165.005859"/>
     <use xlink:href="#DejaVuSans-20" x="1228.482422"/>
     <use xlink:href="#DejaVuSans-43" x="1260.269531"/>
     <use xlink:href="#DejaVuSans-61" x="1330.09375"/>
     <use xlink:href="#DejaVuSans-73" x="1391.373047"/>
     <use xlink:href="#DejaVuSans-65" x="1443.472656"/>
     <use xlink:href="#DejaVuSans-73" x="1504.996094"/>
     <use xlink:href="#DejaVuSans-20" x="1557.095703"/>
     <use xlink:href="#DejaVuSans-46" x="1588.882812"/>
     <use xlink:href="#DejaVuSans-6f" x="1642.777344"/>
     <use xlink:href="#DejaVuSans-72" x="1703.958984"/>
     <use xlink:href="#DejaVuSans-65" x="1742.822266"/>
     <use xlink:href="#DejaVuSans-63" x="1804.345703"/>
     <use xlink:href="#DejaVuSans-61" x="1859.326172"/>
     <use xlink:href="#DejaVuSans-73" x="1920.605469"/>
     <use xlink:href="#DejaVuSans-74" x="1972.705078"/>
     <use xlink:href="#DejaVuSans-69" x="2011.914062"/>
     <use xlink:href="#DejaVuSans-6e" x="2039.697266"/>
     <use xlink:href="#DejaVuSans-67" x="2103.076172"/>
     <use xlink:href="#DejaVuSans-20" x="2166.552734"/>
     <use xlink:href="#DejaVuSans-2d" x="2198.339844"/>
     <use xlink:href="#DejaVuSans-20" x="2234.423828"/>
     <use xlink:href="#DejaVuSans-4c" x="2266.210938"/>
     <use xlink:href="#DejaVuSans-69" x="2321.923828"/>
     <use xlink:href="#DejaVuSans-62" x="2349.707031"/>
     <use xlink:href="#DejaVuSans-65" x="2413.183594"/>
     <use xlink:href="#DejaVuSans-72" x="2474.707031"/>
     <use xlink:href="#DejaVuSans-69" x="2515.820312"/>
     <use xlink:href="#DejaVuSans-61" x="2543.603516"/>
    </g>
    <!-- ARIMA (4, 1, 0)x(1, 0, 1, 7) (R2 = 0.990709) -->
    <g transform="translate(577.265938 29.7555)scale(0.12 -0.12)">
     <defs>
      <path id="DejaVuSans-52" d="M 2841 2188 
Q 3044 2119 3236 1894 
Q 3428 1669 3622 1275 
L 4263 0 
L 3584 0 
L 2988 1197 
Q 2756 1666 2539 1819 
Q 2322 1972 1947 1972 
L 1259 1972 
L 1259 0 
L 628 0 
L 628 4666 
L 2053 4666 
Q 2853 4666 3247 4331 
Q 3641 3997 3641 3322 
Q 3641 2881 3436 2590 
Q 3231 2300 2841 2188 
z
M 1259 4147 
L 1259 2491 
L 2053 2491 
Q 2509 2491 2742 2702 
Q 2975 2913 2975 3322 
Q 2975 3731 2742 3939 
Q 2509 4147 2053 4147 
L 1259 4147 
z
" transform="scale(0.015625)"/>
      <path id="DejaVuSans-49" d="M 628 4666 
L 1259 4666 
L 1259 0 
L 628 0 
L 628 4666 
z
" transform="scale(0.015625)"/>
      <path id="DejaVuSans-4d" d="M 628 4666 
L 1569 4666 
L 2759 1491 
L 3956 4666 
L 4897 4666 
L 4897 0 
L 4281 0 
L 4281 4097 
L 3078 897 
L 2444 897 
L 1241 4097 
L 1241 0 
L 628 0 
L 628 4666 
z
" transform="scale(0.015625)"/>
      <path id="DejaVuSans-28" d="M 1984 4856 
Q 1566 4138 1362 3434 
Q 1159 2731 1159 2009 
Q 1159 1288 1364 580 
Q 1569 -128 1984 -844 
L 1484 -844 
Q 1016 -109 783 600 
Q 550 1309 550 2009 
Q 550 2706 781 3412 
Q 1013 4119 1484 4856 
L 1984 4856 
z
" transform="scale(0.015625)"/>
      <path id="DejaVuSans-2c" d="M 750 794 
L 1409 794 
L 1409 256 
L 897 -744 
L 494 -744 
L 750 256 
L 750 794 
z
" transform="scale(0.015625)"/>
      <path id="DejaVuSans-29" d="M 513 4856 
L 1013 4856 
Q 1481 4119 1714 3412 
Q 1947 2706 1947 2009 
Q 1947 1309 1714 600 
Q 1481 -109 1013 -844 
L 513 -844 
Q 928 -128 1133 580 
Q 1338 1288 1338 2009 
Q 1338 2731 1133 3434 
Q 928 4138 513 4856 
z
" transform="scale(0.015625)"/>
      <path id="DejaVuSans-78" d="M 3513 3500 
L 2247 1797 
L 3578 0 
L 2900 0 
L 1881 1375 
L 863 0 
L 184 0 
L 1544 1831 
L 300 3500 
L 978 3500 
L 1906 2253 
L 2834 3500 
L 3513 3500 
z
" transform="scale(0.015625)"/>
      <path id="DejaVuSans-3d" d="M 678 2906 
L 4684 2906 
L 4684 2381 
L 678 2381 
L 678 2906 
z
M 678 1631 
L 4684 1631 
L 4684 1100 
L 678 1100 
L 678 1631 
z
" transform="scale(0.015625)"/>
      <path id="DejaVuSans-2e" d="M 684 794 
L 1344 794 
L 1344 0 
L 684 0 
L 684 794 
z
" transform="scale(0.015625)"/>
      <path id="DejaVuSans-39" d="M 703 97 
L 703 672 
Q 941 559 1184 500 
Q 1428 441 1663 441 
Q 2288 441 2617 861 
Q 2947 1281 2994 2138 
Q 2813 1869 2534 1725 
Q 2256 1581 1919 1581 
Q 1219 1581 811 2004 
Q 403 2428 403 3163 
Q 403 3881 828 4315 
Q 1253 4750 1959 4750 
Q 2769 4750 3195 4129 
Q 3622 3509 3622 2328 
Q 3622 1225 3098 567 
Q 2575 -91 1691 -91 
Q 1453 -91 1209 -44 
Q 966 3 703 97 
z
M 1959 2075 
Q 2384 2075 2632 2365 
Q 2881 2656 2881 3163 
Q 2881 3666 2632 3958 
Q 2384 4250 1959 4250 
Q 1534 4250 1286 3958 
Q 1038 3666 1038 3163 
Q 1038 2656 1286 2365 
Q 1534 2075 1959 2075 
z
" transform="scale(0.015625)"/>
     </defs>
     <use xlink:href="#DejaVuSans-41"/>
     <use xlink:href="#DejaVuSans-52" x="68.408203"/>
     <use xlink:href="#DejaVuSans-49" x="137.890625"/>
     <use xlink:href="#DejaVuSans-4d" x="167.382812"/>
     <use xlink:href="#DejaVuSans-41" x="253.662109"/>
     <use xlink:href="#DejaVuSans-20" x="322.070312"/>
     <use xlink:href="#DejaVuSans-28" x="353.857422"/>
     <use xlink:href="#DejaVuSans-34" x="392.871094"/>
     <use xlink:href="#DejaVuSans-2c" x="456.494141"/>
     <use xlink:href="#DejaVuSans-20" x="488.28125"/>
     <use xlink:href="#DejaVuSans-31" x="520.068359"/>
     <use xlink:href="#DejaVuSans-2c" x="583.691406"/>
     <use xlink:href="#DejaVuSans-20" x="615.478516"/>
     <use xlink:href="#DejaVuSans-30" x="647.265625"/>
     <use xlink:href="#DejaVuSans-29" x="710.888672"/>
     <use xlink:href="#DejaVuSans-78" x="749.902344"/>
     <use xlink:href="#DejaVuSans-28" x="809.082031"/>
     <use xlink:href="#DejaVuSans-31" x="848.095703"/>
     <use xlink:href="#DejaVuSans-2c" x="911.71875"/>
     <use xlink:href="#DejaVuSans-20" x="943.505859"/>
     <use xlink:href="#DejaVuSans-30" x="975.292969"/>
     <use xlink:href="#DejaVuSans-2c" x="1038.916016"/>
     <use xlink:href="#DejaVuSans-20" x="1070.703125"/>
     <use xlink:href="#DejaVuSans-31" x="1102.490234"/>
     <use xlink:href="#DejaVuSans-2c" x="1166.113281"/>
     <use xlink:href="#DejaVuSans-20" x="1197.900391"/>
     <use xlink:href="#DejaVuSans-37" x="1229.6875"/>
     <use xlink:href="#DejaVuSans-29" x="1293.310547"/>
     <use xlink:href="#DejaVuSans-20" x="1332.324219"/>
     <use xlink:href="#DejaVuSans-28" x="1364.111328"/>
     <use xlink:href="#DejaVuSans-52" x="1403.125"/>
     <use xlink:href="#DejaVuSans-32" x="1472.607422"/>
     <use xlink:href="#DejaVuSans-20" x="1536.230469"/>
     <use xlink:href="#DejaVuSans-3d" x="1568.017578"/>
     <use xlink:href="#DejaVuSans-20" x="1651.806641"/>
     <use xlink:href="#DejaVuSans-30" x="1683.59375"/>
     <use xlink:href="#DejaVuSans-2e" x="1747.216797"/>
     <use xlink:href="#DejaVuSans-39" x="1779.003906"/>
     <use xlink:href="#DejaVuSans-39" x="1842.626953"/>
     <use xlink:href="#DejaVuSans-30" x="1906.25"/>
     <use xlink:href="#DejaVuSans-37" x="1969.873047"/>
     <use xlink:href="#DejaVuSans-30" x="2033.496094"/>
     <use xlink:href="#DejaVuSans-39" x="2097.119141"/>
     <use xlink:href="#DejaVuSans-29" x="2160.742188"/>
    </g>
   </g>
   <g id="legend_1">
    <g id="patch_7">
     <path d="M 46.65 87.789875 
L 143.729688 87.789875 
Q 145.729688 87.789875 145.729688 85.789875 
L 145.729688 42.7555 
Q 145.729688 40.7555 143.729688 40.7555 
L 46.65 40.7555 
Q 44.65 40.7555 44.65 42.7555 
L 44.65 85.789875 
Q 44.65 87.789875 46.65 87.789875 
z
" style="fill: #ffffff; opacity: 0.8; stroke: #cccccc; stroke-linejoin: miter"/>
    </g>
    <g id="line2d_23">
     <path d="M 48.65 48.853937 
L 58.65 48.853937 
L 68.65 48.853937 
" style="fill: none; stroke: #0000ff; stroke-width: 1.5; stroke-linecap: square"/>
    </g>
    <g id="text_21">
     <!-- Actual Value -->
     <g transform="translate(76.65 52.353937)scale(0.1 -0.1)">
      <defs>
       <path id="DejaVuSans-56" d="M 1831 0 
L 50 4666 
L 709 4666 
L 2188 738 
L 3669 4666 
L 4325 4666 
L 2547 0 
L 1831 0 
z
" transform="scale(0.015625)"/>
      </defs>
      <use xlink:href="#DejaVuSans-41"/>
      <use xlink:href="#DejaVuSans-63" x="66.658203"/>
      <use xlink:href="#DejaVuSans-74" x="121.638672"/>
      <use xlink:href="#DejaVuSans-75" x="160.847656"/>
      <use xlink:href="#DejaVuSans-61" x="224.226562"/>
      <use xlink:href="#DejaVuSans-6c" x="285.505859"/>
      <use xlink:href="#DejaVuSans-20" x="313.289062"/>
      <use xlink:href="#DejaVuSans-56" x="345.076172"/>
      <use xlink:href="#DejaVuSans-61" x="405.734375"/>
      <use xlink:href="#DejaVuSans-6c" x="467.013672"/>
      <use xlink:href="#DejaVuSans-75" x="494.796875"/>
      <use xlink:href="#DejaVuSans-65" x="558.175781"/>
     </g>
    </g>
    <g id="line2d_24">
     <path d="M 48.65 63.532062 
L 58.65 63.532062 
L 68.65 63.532062 
" style="fill: none; stroke: #ffa500; stroke-width: 1.5; stroke-linecap: square"/>
    </g>
    <g id="text_22">
     <!-- Check Value -->
     <g transform="translate(76.65 67.032062)scale(0.1 -0.1)">
      <defs>
       <path id="DejaVuSans-68" d="M 3513 2113 
L 3513 0 
L 2938 0 
L 2938 2094 
Q 2938 2591 2744 2837 
Q 2550 3084 2163 3084 
Q 1697 3084 1428 2787 
Q 1159 2491 1159 1978 
L 1159 0 
L 581 0 
L 581 4863 
L 1159 4863 
L 1159 2956 
Q 1366 3272 1645 3428 
Q 1925 3584 2291 3584 
Q 2894 3584 3203 3211 
Q 3513 2838 3513 2113 
z
" transform="scale(0.015625)"/>
       <path id="DejaVuSans-6b" d="M 581 4863 
L 1159 4863 
L 1159 1991 
L 2875 3500 
L 3609 3500 
L 1753 1863 
L 3688 0 
L 2938 0 
L 1159 1709 
L 1159 0 
L 581 0 
L 581 4863 
z
" transform="scale(0.015625)"/>
      </defs>
      <use xlink:href="#DejaVuSans-43"/>
      <use xlink:href="#DejaVuSans-68" x="69.824219"/>
      <use xlink:href="#DejaVuSans-65" x="133.203125"/>
      <use xlink:href="#DejaVuSans-63" x="194.726562"/>
      <use xlink:href="#DejaVuSans-6b" x="249.707031"/>
      <use xlink:href="#DejaVuSans-20" x="307.617188"/>
      <use xlink:href="#DejaVuSans-56" x="339.404297"/>
      <use xlink:href="#DejaVuSans-61" x="400.0625"/>
      <use xlink:href="#DejaVuSans-6c" x="461.341797"/>
      <use xlink:href="#DejaVuSans-75" x="489.125"/>
      <use xlink:href="#DejaVuSans-65" x="552.503906"/>
     </g>
    </g>
    <g id="line2d_25">
     <path d="M 48.65 78.210187 
L 58.65 78.210187 
L 68.65 78.210187 
" style="fill: none; stroke: #ff0000; stroke-width: 1.5; stroke-linecap: square"/>
    </g>
    <g id="text_23">
     <!-- Predict Value -->
     <g transform="translate(76.65 81.710187)scale(0.1 -0.1)">
      <defs>
       <path id="DejaVuSans-50" d="M 1259 4147 
L 1259 2394 
L 2053 2394 
Q 2494 2394 2734 2622 
Q 2975 2850 2975 3272 
Q 2975 3691 2734 3919 
Q 2494 4147 2053 4147 
L 1259 4147 
z
M 628 4666 
L 2053 4666 
Q 2838 4666 3239 4311 
Q 3641 3956 3641 3272 
Q 3641 2581 3239 2228 
Q 2838 1875 2053 1875 
L 1259 1875 
L 1259 0 
L 628 0 
L 628 4666 
z
" transform="scale(0.015625)"/>
      </defs>
      <use xlink:href="#DejaVuSans-50"/>
      <use xlink:href="#DejaVuSans-72" x="58.552734"/>
      <use xlink:href="#DejaVuSans-65" x="97.416016"/>
      <use xlink:href="#DejaVuSans-64" x="158.939453"/>
      <use xlink:href="#DejaVuSans-69" x="222.416016"/>
      <use xlink:href="#DejaVuSans-63" x="250.199219"/>
      <use xlink:href="#DejaVuSans-74" x="305.179688"/>
      <use xlink:href="#DejaVuSans-20" x="344.388672"/>
      <use xlink:href="#DejaVuSans-56" x="376.175781"/>
      <use xlink:href="#DejaVuSans-61" x="436.833984"/>
      <use xlink:href="#DejaVuSans-6c" x="498.113281"/>
      <use xlink:href="#DejaVuSans-75" x="525.896484"/>
      <use xlink:href="#DejaVuSans-65" x="589.275391"/>
     </g>
    </g>
   </g>
  </g>
 </g>
 <defs>
  <clipPath id="pe640e41b39">
   <rect x="39.65" y="35.7555" width="1339.2" height="332.64"/>
  </clipPath>
 </defs>
</svg>
