<?xml version="1.0" encoding="utf-8" standalone="no"?>
<!DOCTYPE svg PUBLIC "-//W3C//DTD SVG 1.1//EN"
  "http://www.w3.org/Graphics/SVG/1.1/DTD/svg11.dtd">
<svg xmlns:xlink="http://www.w3.org/1999/xlink" width="1388.067188pt" height="392.273625pt" viewBox="0 0 1388.067188 392.273625" xmlns="http://www.w3.org/2000/svg" version="1.1">
 <metadata>
  <rdf:RDF xmlns:dc="http://purl.org/dc/elements/1.1/" xmlns:cc="http://creativecommons.org/ns#" xmlns:rdf="http://www.w3.org/1999/02/22-rdf-syntax-ns#">
   <cc:Work>
    <dc:type rdf:resource="http://purl.org/dc/dcmitype/StillImage"/>
    <dc:date>2022-07-27T19:45:48.729404</dc:date>
    <dc:format>image/svg+xml</dc:format>
    <dc:creator>
     <cc:Agent>
      <dc:title>Matplotlib v3.5.2, https://matplotlib.org/</dc:title>
     </cc:Agent>
    </dc:creator>
   </cc:Work>
  </rdf:RDF>
 </metadata>
 <defs>
  <style type="text/css">*{stroke-linejoin: round; stroke-linecap: butt}</style>
 </defs>
 <g id="figure_1">
  <g id="patch_1">
   <path d="M 0 392.273625 
L 1388.067188 392.273625 
L 1388.067188 0 
L 0 0 
z
" style="fill: #ffffff"/>
  </g>
  <g id="axes_1">
   <g id="patch_2">
    <path d="M 41.667188 368.3955 
L 1380.867188 368.3955 
L 1380.867188 35.7555 
L 41.667188 35.7555 
z
" style="fill: #ffffff"/>
   </g>
   <g id="matplotlib.axis_1">
    <g id="xtick_1">
     <g id="line2d_1">
      <defs>
       <path id="mc0fd9d0c83" d="M 0 0 
L 0 3.5 
" style="stroke: #000000; stroke-width: 0.8"/>
      </defs>
      <g>
       <use xlink:href="#mc0fd9d0c83" x="73.677846" y="368.3955" style="stroke: #000000; stroke-width: 0.8"/>
      </g>
     </g>
     <g id="text_1">
      <!-- 2020-01 -->
      <g transform="translate(52.78644 382.993937)scale(0.1 -0.1)">
       <defs>
        <path id="DejaVuSans-32" d="M 1228 531 
L 3431 531 
L 3431 0 
L 469 0 
L 469 531 
Q 828 903 1448 1529 
Q 2069 2156 2228 2338 
Q 2531 2678 2651 2914 
Q 2772 3150 2772 3378 
Q 2772 3750 2511 3984 
Q 2250 4219 1831 4219 
Q 1534 4219 1204 4116 
Q 875 4013 500 3803 
L 500 4441 
Q 881 4594 1212 4672 
Q 1544 4750 1819 4750 
Q 2544 4750 2975 4387 
Q 3406 4025 3406 3419 
Q 3406 3131 3298 2873 
Q 3191 2616 2906 2266 
Q 2828 2175 2409 1742 
Q 1991 1309 1228 531 
z
" transform="scale(0.015625)"/>
        <path id="DejaVuSans-30" d="M 2034 4250 
Q 1547 4250 1301 3770 
Q 1056 3291 1056 2328 
Q 1056 1369 1301 889 
Q 1547 409 2034 409 
Q 2525 409 2770 889 
Q 3016 1369 3016 2328 
Q 3016 3291 2770 3770 
Q 2525 4250 2034 4250 
z
M 2034 4750 
Q 2819 4750 3233 4129 
Q 3647 3509 3647 2328 
Q 3647 1150 3233 529 
Q 2819 -91 2034 -91 
Q 1250 -91 836 529 
Q 422 1150 422 2328 
Q 422 3509 836 4129 
Q 1250 4750 2034 4750 
z
" transform="scale(0.015625)"/>
        <path id="DejaVuSans-2d" d="M 313 2009 
L 1997 2009 
L 1997 1497 
L 313 1497 
L 313 2009 
z
" transform="scale(0.015625)"/>
        <path id="DejaVuSans-31" d="M 794 531 
L 1825 531 
L 1825 4091 
L 703 3866 
L 703 4441 
L 1819 4666 
L 2450 4666 
L 2450 531 
L 3481 531 
L 3481 0 
L 794 0 
L 794 531 
z
" transform="scale(0.015625)"/>
       </defs>
       <use xlink:href="#DejaVuSans-32"/>
       <use xlink:href="#DejaVuSans-30" x="63.623047"/>
       <use xlink:href="#DejaVuSans-32" x="127.246094"/>
       <use xlink:href="#DejaVuSans-30" x="190.869141"/>
       <use xlink:href="#DejaVuSans-2d" x="254.492188"/>
       <use xlink:href="#DejaVuSans-30" x="290.576172"/>
       <use xlink:href="#DejaVuSans-31" x="354.199219"/>
      </g>
     </g>
    </g>
    <g id="xtick_2">
     <g id="line2d_2">
      <g>
       <use xlink:href="#mc0fd9d0c83" x="193.061858" y="368.3955" style="stroke: #000000; stroke-width: 0.8"/>
      </g>
     </g>
     <g id="text_2">
      <!-- 2020-04 -->
      <g transform="translate(172.170452 382.993937)scale(0.1 -0.1)">
       <defs>
        <path id="DejaVuSans-34" d="M 2419 4116 
L 825 1625 
L 2419 1625 
L 2419 4116 
z
M 2253 4666 
L 3047 4666 
L 3047 1625 
L 3713 1625 
L 3713 1100 
L 3047 1100 
L 3047 0 
L 2419 0 
L 2419 1100 
L 313 1100 
L 313 1709 
L 2253 4666 
z
" transform="scale(0.015625)"/>
       </defs>
       <use xlink:href="#DejaVuSans-32"/>
       <use xlink:href="#DejaVuSans-30" x="63.623047"/>
       <use xlink:href="#DejaVuSans-32" x="127.246094"/>
       <use xlink:href="#DejaVuSans-30" x="190.869141"/>
       <use xlink:href="#DejaVuSans-2d" x="254.492188"/>
       <use xlink:href="#DejaVuSans-30" x="290.576172"/>
       <use xlink:href="#DejaVuSans-34" x="354.199219"/>
      </g>
     </g>
    </g>
    <g id="xtick_3">
     <g id="line2d_3">
      <g>
       <use xlink:href="#mc0fd9d0c83" x="312.445871" y="368.3955" style="stroke: #000000; stroke-width: 0.8"/>
      </g>
     </g>
     <g id="text_3">
      <!-- 2020-07 -->
      <g transform="translate(291.554465 382.993937)scale(0.1 -0.1)">
       <defs>
        <path id="DejaVuSans-37" d="M 525 4666 
L 3525 4666 
L 3525 4397 
L 1831 0 
L 1172 0 
L 2766 4134 
L 525 4134 
L 525 4666 
z
" transform="scale(0.015625)"/>
       </defs>
       <use xlink:href="#DejaVuSans-32"/>
       <use xlink:href="#DejaVuSans-30" x="63.623047"/>
       <use xlink:href="#DejaVuSans-32" x="127.246094"/>
       <use xlink:href="#DejaVuSans-30" x="190.869141"/>
       <use xlink:href="#DejaVuSans-2d" x="254.492188"/>
       <use xlink:href="#DejaVuSans-30" x="290.576172"/>
       <use xlink:href="#DejaVuSans-37" x="354.199219"/>
      </g>
     </g>
    </g>
    <g id="xtick_4">
     <g id="line2d_4">
      <g>
       <use xlink:href="#mc0fd9d0c83" x="433.141796" y="368.3955" style="stroke: #000000; stroke-width: 0.8"/>
      </g>
     </g>
     <g id="text_4">
      <!-- 2020-10 -->
      <g transform="translate(412.250389 382.993937)scale(0.1 -0.1)">
       <use xlink:href="#DejaVuSans-32"/>
       <use xlink:href="#DejaVuSans-30" x="63.623047"/>
       <use xlink:href="#DejaVuSans-32" x="127.246094"/>
       <use xlink:href="#DejaVuSans-30" x="190.869141"/>
       <use xlink:href="#DejaVuSans-2d" x="254.492188"/>
       <use xlink:href="#DejaVuSans-31" x="290.576172"/>
       <use xlink:href="#DejaVuSans-30" x="354.199219"/>
      </g>
     </g>
    </g>
    <g id="xtick_5">
     <g id="line2d_5">
      <g>
       <use xlink:href="#mc0fd9d0c83" x="553.83772" y="368.3955" style="stroke: #000000; stroke-width: 0.8"/>
      </g>
     </g>
     <g id="text_5">
      <!-- 2021-01 -->
      <g transform="translate(532.946314 382.993937)scale(0.1 -0.1)">
       <use xlink:href="#DejaVuSans-32"/>
       <use xlink:href="#DejaVuSans-30" x="63.623047"/>
       <use xlink:href="#DejaVuSans-32" x="127.246094"/>
       <use xlink:href="#DejaVuSans-31" x="190.869141"/>
       <use xlink:href="#DejaVuSans-2d" x="254.492188"/>
       <use xlink:href="#DejaVuSans-30" x="290.576172"/>
       <use xlink:href="#DejaVuSans-31" x="354.199219"/>
      </g>
     </g>
    </g>
    <g id="xtick_6">
     <g id="line2d_6">
      <g>
       <use xlink:href="#mc0fd9d0c83" x="671.909821" y="368.3955" style="stroke: #000000; stroke-width: 0.8"/>
      </g>
     </g>
     <g id="text_6">
      <!-- 2021-04 -->
      <g transform="translate(651.018414 382.993937)scale(0.1 -0.1)">
       <use xlink:href="#DejaVuSans-32"/>
       <use xlink:href="#DejaVuSans-30" x="63.623047"/>
       <use xlink:href="#DejaVuSans-32" x="127.246094"/>
       <use xlink:href="#DejaVuSans-31" x="190.869141"/>
       <use xlink:href="#DejaVuSans-2d" x="254.492188"/>
       <use xlink:href="#DejaVuSans-30" x="290.576172"/>
       <use xlink:href="#DejaVuSans-34" x="354.199219"/>
      </g>
     </g>
    </g>
    <g id="xtick_7">
     <g id="line2d_7">
      <g>
       <use xlink:href="#mc0fd9d0c83" x="791.293833" y="368.3955" style="stroke: #000000; stroke-width: 0.8"/>
      </g>
     </g>
     <g id="text_7">
      <!-- 2021-07 -->
      <g transform="translate(770.402427 382.993937)scale(0.1 -0.1)">
       <use xlink:href="#DejaVuSans-32"/>
       <use xlink:href="#DejaVuSans-30" x="63.623047"/>
       <use xlink:href="#DejaVuSans-32" x="127.246094"/>
       <use xlink:href="#DejaVuSans-31" x="190.869141"/>
       <use xlink:href="#DejaVuSans-2d" x="254.492188"/>
       <use xlink:href="#DejaVuSans-30" x="290.576172"/>
       <use xlink:href="#DejaVuSans-37" x="354.199219"/>
      </g>
     </g>
    </g>
    <g id="xtick_8">
     <g id="line2d_8">
      <g>
       <use xlink:href="#mc0fd9d0c83" x="911.989758" y="368.3955" style="stroke: #000000; stroke-width: 0.8"/>
      </g>
     </g>
     <g id="text_8">
      <!-- 2021-10 -->
      <g transform="translate(891.098352 382.993937)scale(0.1 -0.1)">
       <use xlink:href="#DejaVuSans-32"/>
       <use xlink:href="#DejaVuSans-30" x="63.623047"/>
       <use xlink:href="#DejaVuSans-32" x="127.246094"/>
       <use xlink:href="#DejaVuSans-31" x="190.869141"/>
       <use xlink:href="#DejaVuSans-2d" x="254.492188"/>
       <use xlink:href="#DejaVuSans-31" x="290.576172"/>
       <use xlink:href="#DejaVuSans-30" x="354.199219"/>
      </g>
     </g>
    </g>
    <g id="xtick_9">
     <g id="line2d_9">
      <g>
       <use xlink:href="#mc0fd9d0c83" x="1032.685683" y="368.3955" style="stroke: #000000; stroke-width: 0.8"/>
      </g>
     </g>
     <g id="text_9">
      <!-- 2022-01 -->
      <g transform="translate(1011.794277 382.993937)scale(0.1 -0.1)">
       <use xlink:href="#DejaVuSans-32"/>
       <use xlink:href="#DejaVuSans-30" x="63.623047"/>
       <use xlink:href="#DejaVuSans-32" x="127.246094"/>
       <use xlink:href="#DejaVuSans-32" x="190.869141"/>
       <use xlink:href="#DejaVuSans-2d" x="254.492188"/>
       <use xlink:href="#DejaVuSans-30" x="290.576172"/>
       <use xlink:href="#DejaVuSans-31" x="354.199219"/>
      </g>
     </g>
    </g>
    <g id="xtick_10">
     <g id="line2d_10">
      <g>
       <use xlink:href="#mc0fd9d0c83" x="1150.757783" y="368.3955" style="stroke: #000000; stroke-width: 0.8"/>
      </g>
     </g>
     <g id="text_10">
      <!-- 2022-04 -->
      <g transform="translate(1129.866377 382.993937)scale(0.1 -0.1)">
       <use xlink:href="#DejaVuSans-32"/>
       <use xlink:href="#DejaVuSans-30" x="63.623047"/>
       <use xlink:href="#DejaVuSans-32" x="127.246094"/>
       <use xlink:href="#DejaVuSans-32" x="190.869141"/>
       <use xlink:href="#DejaVuSans-2d" x="254.492188"/>
       <use xlink:href="#DejaVuSans-30" x="290.576172"/>
       <use xlink:href="#DejaVuSans-34" x="354.199219"/>
      </g>
     </g>
    </g>
    <g id="xtick_11">
     <g id="line2d_11">
      <g>
       <use xlink:href="#mc0fd9d0c83" x="1270.141796" y="368.3955" style="stroke: #000000; stroke-width: 0.8"/>
      </g>
     </g>
     <g id="text_11">
      <!-- 2022-07 -->
      <g transform="translate(1249.250389 382.993937)scale(0.1 -0.1)">
       <use xlink:href="#DejaVuSans-32"/>
       <use xlink:href="#DejaVuSans-30" x="63.623047"/>
       <use xlink:href="#DejaVuSans-32" x="127.246094"/>
       <use xlink:href="#DejaVuSans-32" x="190.869141"/>
       <use xlink:href="#DejaVuSans-2d" x="254.492188"/>
       <use xlink:href="#DejaVuSans-30" x="290.576172"/>
       <use xlink:href="#DejaVuSans-37" x="354.199219"/>
      </g>
     </g>
    </g>
   </g>
   <g id="matplotlib.axis_2">
    <g id="ytick_1">
     <g id="line2d_12">
      <defs>
       <path id="m3672a47e37" d="M 0 0 
L -3.5 0 
" style="stroke: #000000; stroke-width: 0.8"/>
      </defs>
      <g>
       <use xlink:href="#m3672a47e37" x="41.667188" y="353.2755" style="stroke: #000000; stroke-width: 0.8"/>
      </g>
     </g>
     <g id="text_12">
      <!-- −100 -->
      <g transform="translate(7.2 357.074719)scale(0.1 -0.1)">
       <defs>
        <path id="DejaVuSans-2212" d="M 678 2272 
L 4684 2272 
L 4684 1741 
L 678 1741 
L 678 2272 
z
" transform="scale(0.015625)"/>
       </defs>
       <use xlink:href="#DejaVuSans-2212"/>
       <use xlink:href="#DejaVuSans-31" x="83.789062"/>
       <use xlink:href="#DejaVuSans-30" x="147.412109"/>
       <use xlink:href="#DejaVuSans-30" x="211.035156"/>
      </g>
     </g>
    </g>
    <g id="ytick_2">
     <g id="line2d_13">
      <g>
       <use xlink:href="#m3672a47e37" x="41.667188" y="309.258033" style="stroke: #000000; stroke-width: 0.8"/>
      </g>
     </g>
     <g id="text_13">
      <!-- 0 -->
      <g transform="translate(28.304688 313.057252)scale(0.1 -0.1)">
       <use xlink:href="#DejaVuSans-30"/>
      </g>
     </g>
    </g>
    <g id="ytick_3">
     <g id="line2d_14">
      <g>
       <use xlink:href="#m3672a47e37" x="41.667188" y="265.240566" style="stroke: #000000; stroke-width: 0.8"/>
      </g>
     </g>
     <g id="text_14">
      <!-- 100 -->
      <g transform="translate(15.579688 269.039784)scale(0.1 -0.1)">
       <use xlink:href="#DejaVuSans-31"/>
       <use xlink:href="#DejaVuSans-30" x="63.623047"/>
       <use xlink:href="#DejaVuSans-30" x="127.246094"/>
      </g>
     </g>
    </g>
    <g id="ytick_4">
     <g id="line2d_15">
      <g>
       <use xlink:href="#m3672a47e37" x="41.667188" y="221.223098" style="stroke: #000000; stroke-width: 0.8"/>
      </g>
     </g>
     <g id="text_15">
      <!-- 200 -->
      <g transform="translate(15.579688 225.022317)scale(0.1 -0.1)">
       <use xlink:href="#DejaVuSans-32"/>
       <use xlink:href="#DejaVuSans-30" x="63.623047"/>
       <use xlink:href="#DejaVuSans-30" x="127.246094"/>
      </g>
     </g>
    </g>
    <g id="ytick_5">
     <g id="line2d_16">
      <g>
       <use xlink:href="#m3672a47e37" x="41.667188" y="177.205631" style="stroke: #000000; stroke-width: 0.8"/>
      </g>
     </g>
     <g id="text_16">
      <!-- 300 -->
      <g transform="translate(15.579688 181.00485)scale(0.1 -0.1)">
       <defs>
        <path id="DejaVuSans-33" d="M 2597 2516 
Q 3050 2419 3304 2112 
Q 3559 1806 3559 1356 
Q 3559 666 3084 287 
Q 2609 -91 1734 -91 
Q 1441 -91 1130 -33 
Q 819 25 488 141 
L 488 750 
Q 750 597 1062 519 
Q 1375 441 1716 441 
Q 2309 441 2620 675 
Q 2931 909 2931 1356 
Q 2931 1769 2642 2001 
Q 2353 2234 1838 2234 
L 1294 2234 
L 1294 2753 
L 1863 2753 
Q 2328 2753 2575 2939 
Q 2822 3125 2822 3475 
Q 2822 3834 2567 4026 
Q 2313 4219 1838 4219 
Q 1578 4219 1281 4162 
Q 984 4106 628 3988 
L 628 4550 
Q 988 4650 1302 4700 
Q 1616 4750 1894 4750 
Q 2613 4750 3031 4423 
Q 3450 4097 3450 3541 
Q 3450 3153 3228 2886 
Q 3006 2619 2597 2516 
z
" transform="scale(0.015625)"/>
       </defs>
       <use xlink:href="#DejaVuSans-33"/>
       <use xlink:href="#DejaVuSans-30" x="63.623047"/>
       <use xlink:href="#DejaVuSans-30" x="127.246094"/>
      </g>
     </g>
    </g>
    <g id="ytick_6">
     <g id="line2d_17">
      <g>
       <use xlink:href="#m3672a47e37" x="41.667188" y="133.188164" style="stroke: #000000; stroke-width: 0.8"/>
      </g>
     </g>
     <g id="text_17">
      <!-- 400 -->
      <g transform="translate(15.579688 136.987383)scale(0.1 -0.1)">
       <use xlink:href="#DejaVuSans-34"/>
       <use xlink:href="#DejaVuSans-30" x="63.623047"/>
       <use xlink:href="#DejaVuSans-30" x="127.246094"/>
      </g>
     </g>
    </g>
    <g id="ytick_7">
     <g id="line2d_18">
      <g>
       <use xlink:href="#m3672a47e37" x="41.667188" y="89.170697" style="stroke: #000000; stroke-width: 0.8"/>
      </g>
     </g>
     <g id="text_18">
      <!-- 500 -->
      <g transform="translate(15.579688 92.969915)scale(0.1 -0.1)">
       <defs>
        <path id="DejaVuSans-35" d="M 691 4666 
L 3169 4666 
L 3169 4134 
L 1269 4134 
L 1269 2991 
Q 1406 3038 1543 3061 
Q 1681 3084 1819 3084 
Q 2600 3084 3056 2656 
Q 3513 2228 3513 1497 
Q 3513 744 3044 326 
Q 2575 -91 1722 -91 
Q 1428 -91 1123 -41 
Q 819 9 494 109 
L 494 744 
Q 775 591 1075 516 
Q 1375 441 1709 441 
Q 2250 441 2565 725 
Q 2881 1009 2881 1497 
Q 2881 1984 2565 2268 
Q 2250 2553 1709 2553 
Q 1456 2553 1204 2497 
Q 953 2441 691 2322 
L 691 4666 
z
" transform="scale(0.015625)"/>
       </defs>
       <use xlink:href="#DejaVuSans-35"/>
       <use xlink:href="#DejaVuSans-30" x="63.623047"/>
       <use xlink:href="#DejaVuSans-30" x="127.246094"/>
      </g>
     </g>
    </g>
    <g id="ytick_8">
     <g id="line2d_19">
      <g>
       <use xlink:href="#m3672a47e37" x="41.667188" y="45.153229" style="stroke: #000000; stroke-width: 0.8"/>
      </g>
     </g>
     <g id="text_19">
      <!-- 600 -->
      <g transform="translate(15.579688 48.952448)scale(0.1 -0.1)">
       <defs>
        <path id="DejaVuSans-36" d="M 2113 2584 
Q 1688 2584 1439 2293 
Q 1191 2003 1191 1497 
Q 1191 994 1439 701 
Q 1688 409 2113 409 
Q 2538 409 2786 701 
Q 3034 994 3034 1497 
Q 3034 2003 2786 2293 
Q 2538 2584 2113 2584 
z
M 3366 4563 
L 3366 3988 
Q 3128 4100 2886 4159 
Q 2644 4219 2406 4219 
Q 1781 4219 1451 3797 
Q 1122 3375 1075 2522 
Q 1259 2794 1537 2939 
Q 1816 3084 2150 3084 
Q 2853 3084 3261 2657 
Q 3669 2231 3669 1497 
Q 3669 778 3244 343 
Q 2819 -91 2113 -91 
Q 1303 -91 875 529 
Q 447 1150 447 2328 
Q 447 3434 972 4092 
Q 1497 4750 2381 4750 
Q 2619 4750 2861 4703 
Q 3103 4656 3366 4563 
z
" transform="scale(0.015625)"/>
       </defs>
       <use xlink:href="#DejaVuSans-36"/>
       <use xlink:href="#DejaVuSans-30" x="63.623047"/>
       <use xlink:href="#DejaVuSans-30" x="127.246094"/>
      </g>
     </g>
    </g>
   </g>
   <g id="line2d_20">
    <path d="M 102.539915 309.258033 
L 172.071263 309.258033 
L 173.383175 308.817858 
L 174.695087 309.258033 
L 179.942736 309.258033 
L 181.254648 308.817858 
L 182.566561 308.817858 
L 183.878473 309.258033 
L 187.814209 309.258033 
L 189.126122 308.817858 
L 190.438034 309.258033 
L 204.869068 309.258033 
L 206.180981 307.057159 
L 207.492893 309.258033 
L 215.364366 309.258033 
L 216.676278 308.817858 
L 217.988191 309.258033 
L 229.795401 309.258033 
L 231.107313 308.817858 
L 232.419225 308.817858 
L 233.731137 307.057159 
L 235.04305 309.258033 
L 238.978786 309.258033 
L 241.602611 308.377683 
L 242.914523 309.258033 
L 244.226435 309.258033 
L 245.538347 308.377683 
L 246.85026 309.258033 
L 248.162172 308.817858 
L 249.474084 309.258033 
L 253.409821 309.258033 
L 254.721733 308.817858 
L 256.033645 309.258033 
L 258.65747 309.258033 
L 259.969382 308.817858 
L 261.281294 309.258033 
L 274.400416 309.258033 
L 275.712329 308.817858 
L 277.024241 309.258033 
L 280.959977 309.258033 
L 282.27189 308.377683 
L 283.583802 309.258033 
L 290.143363 309.258033 
L 292.767187 307.497334 
L 294.0791 309.258033 
L 295.391012 308.377683 
L 296.702924 309.258033 
L 298.014836 308.817858 
L 299.326749 309.258033 
L 300.638661 307.497334 
L 301.950573 308.817858 
L 303.262485 309.258033 
L 304.574398 308.817858 
L 305.88631 309.258033 
L 307.198222 308.817858 
L 308.510134 308.817858 
L 309.822046 308.377683 
L 311.133959 308.377683 
L 312.445871 309.258033 
L 313.757783 306.616985 
L 315.069695 309.258033 
L 316.381608 308.377683 
L 317.69352 309.258033 
L 319.005432 307.497334 
L 320.317344 309.258033 
L 321.629256 309.258033 
L 322.941169 308.377683 
L 325.564993 309.258033 
L 330.812642 309.258033 
L 332.124554 303.095587 
L 333.436466 309.258033 
L 334.748379 302.655413 
L 336.060291 309.258033 
L 337.372203 300.894714 
L 338.684115 309.258033 
L 339.996028 294.292094 
L 341.30794 298.693841 
L 342.619852 289.009998 
L 343.931764 282.407378 
L 345.243677 309.258033 
L 346.555589 287.689474 
L 347.867501 309.258033 
L 349.179413 309.258033 
L 350.491325 275.364583 
L 351.803238 267.441439 
L 353.11515 309.258033 
L 355.738974 309.258033 
L 357.050887 233.107814 
L 358.362799 252.915675 
L 359.674711 249.394277 
L 360.986623 241.030959 
L 362.298535 309.258033 
L 363.610448 245.432705 
L 364.92236 309.258033 
L 366.234272 260.398644 
L 367.546184 251.595151 
L 368.858097 274.484234 
L 370.170009 279.76633 
L 371.481921 280.206504 
L 372.793833 228.706068 
L 374.105745 309.258033 
L 375.417658 201.855413 
L 376.72957 233.547989 
L 378.041482 259.518295 
L 379.353394 293.411745 
L 380.665307 309.258033 
L 381.977219 200.094714 
L 383.289131 353.2755 
L 384.601043 264.800391 
L 385.912956 299.57419 
L 387.224868 293.851919 
L 388.53678 285.4886 
L 389.848692 266.120915 
L 391.160604 279.326155 
L 392.472517 309.258033 
L 393.784429 280.206504 
L 395.096341 292.531395 
L 396.408253 294.292094 
L 397.720166 300.894714 
L 399.032078 296.052793 
L 400.34399 288.569823 
L 401.655902 309.258033 
L 402.967814 274.924408 
L 404.279727 301.334889 
L 405.591639 292.97157 
L 406.903551 295.172443 
L 408.215463 303.095587 
L 409.527376 296.492967 
L 410.839288 309.258033 
L 412.1512 299.134015 
L 413.463112 303.975937 
L 414.775024 294.732269 
L 416.086937 303.975937 
L 417.398849 300.894714 
L 418.710761 299.57419 
L 420.022673 309.258033 
L 421.334586 303.095587 
L 422.646498 308.377683 
L 423.95841 304.856286 
L 425.270322 307.937509 
L 426.582235 309.258033 
L 427.894147 303.095587 
L 429.206059 309.258033 
L 430.517971 304.856286 
L 431.829883 309.258033 
L 433.141796 307.057159 
L 434.453708 308.817858 
L 435.76562 307.057159 
L 437.077532 307.497334 
L 438.389445 309.258033 
L 439.701357 300.894714 
L 441.013269 309.258033 
L 442.325181 307.497334 
L 443.637093 307.497334 
L 444.949006 306.17681 
L 446.260918 307.497334 
L 447.57283 307.497334 
L 448.884742 309.258033 
L 450.196655 306.616985 
L 451.508567 308.377683 
L 452.820479 307.057159 
L 454.132391 309.258033 
L 456.756216 309.258033 
L 458.068128 306.616985 
L 459.38004 308.377683 
L 460.691952 308.377683 
L 462.003865 309.258033 
L 463.315777 309.258033 
L 464.627689 308.817858 
L 465.939601 307.057159 
L 467.251514 308.817858 
L 468.563426 309.258033 
L 469.875338 309.258033 
L 471.18725 307.497334 
L 473.811075 309.258033 
L 475.122987 309.258033 
L 476.434899 306.17681 
L 477.746811 308.817858 
L 479.058724 308.817858 
L 480.370636 307.937509 
L 481.682548 309.258033 
L 482.99446 309.258033 
L 484.306372 303.975937 
L 485.618285 309.258033 
L 486.930197 308.817858 
L 488.242109 309.258033 
L 489.554021 308.817858 
L 490.865934 307.497334 
L 492.177846 309.258033 
L 493.489758 307.937509 
L 494.80167 309.258033 
L 497.425495 309.258033 
L 498.737407 308.817858 
L 500.049319 300.454539 
L 501.361231 309.258033 
L 503.985056 309.258033 
L 505.296968 308.817858 
L 506.60888 308.817858 
L 507.920793 307.937509 
L 509.232705 309.258033 
L 510.544617 307.937509 
L 511.856529 305.736635 
L 513.168441 308.817858 
L 514.480354 299.57419 
L 515.792266 308.377683 
L 517.104178 308.817858 
L 518.41609 308.377683 
L 519.728003 309.258033 
L 521.039915 309.258033 
L 522.351827 306.616985 
L 523.663739 309.258033 
L 526.287564 308.377683 
L 527.599476 309.258033 
L 528.911388 307.937509 
L 530.2233 309.258033 
L 531.535213 307.937509 
L 532.847125 308.817858 
L 534.159037 309.258033 
L 539.406686 309.258033 
L 540.718598 307.057159 
L 542.03051 309.258033 
L 545.966247 309.258033 
L 547.278159 308.377683 
L 548.590072 309.258033 
L 549.901984 307.497334 
L 551.213896 309.258033 
L 552.525808 309.258033 
L 553.83772 307.937509 
L 555.149633 309.258033 
L 557.773457 309.258033 
L 559.085369 303.975937 
L 560.397282 309.258033 
L 561.709194 300.014365 
L 563.021106 307.057159 
L 564.333018 307.937509 
L 565.64493 302.215238 
L 566.956843 309.258033 
L 568.268755 300.894714 
L 569.580667 305.296461 
L 570.892579 305.736635 
L 573.516404 309.258033 
L 574.828316 303.535762 
L 576.140228 299.134015 
L 577.45214 307.057159 
L 578.764053 309.258033 
L 580.075965 303.975937 
L 581.387877 305.736635 
L 582.699789 309.258033 
L 584.011702 303.095587 
L 585.323614 293.411745 
L 586.635526 307.497334 
L 587.947438 306.17681 
L 589.259351 309.258033 
L 590.571263 309.258033 
L 591.883175 278.005631 
L 593.195087 309.258033 
L 594.506999 287.689474 
L 595.818912 309.258033 
L 597.130824 289.450172 
L 598.442736 309.258033 
L 599.754648 309.258033 
L 601.066561 285.928775 
L 602.378473 309.258033 
L 603.690385 280.646679 
L 605.002297 309.258033 
L 610.249946 309.258033 
L 611.561858 259.958469 
L 612.873771 309.258033 
L 614.185683 285.048426 
L 615.497595 309.258033 
L 616.809507 291.210871 
L 618.121419 294.732269 
L 619.433332 304.416111 
L 620.745244 309.258033 
L 622.057156 309.258033 
L 623.369068 283.727902 
L 624.680981 296.933142 
L 625.992893 295.612618 
L 627.304805 300.454539 
L 628.616717 309.258033 
L 629.92863 300.014365 
L 631.240542 309.258033 
L 632.552454 309.258033 
L 633.864366 299.134015 
L 635.176278 298.693841 
L 636.488191 309.258033 
L 639.112015 309.258033 
L 640.423927 294.732269 
L 641.73584 309.258033 
L 644.359664 309.258033 
L 645.671576 244.552356 
L 646.983488 289.009998 
L 648.295401 309.258033 
L 649.607313 294.292094 
L 650.919225 309.258033 
L 652.231137 280.206504 
L 653.54305 292.97157 
L 654.854962 295.612618 
L 656.166874 309.258033 
L 657.478786 264.360216 
L 658.790698 309.258033 
L 660.102611 309.258033 
L 661.414523 288.129648 
L 662.726435 309.258033 
L 664.038347 281.967203 
L 665.35026 309.258033 
L 666.662172 293.411745 
L 667.974084 300.894714 
L 669.285996 297.373317 
L 670.597909 303.975937 
L 671.909821 309.258033 
L 673.221733 309.258033 
L 674.533645 289.009998 
L 675.845557 309.258033 
L 677.15747 309.258033 
L 678.469382 283.287727 
L 679.781294 309.258033 
L 682.405119 309.258033 
L 683.717031 292.531395 
L 685.028943 309.258033 
L 687.652767 309.258033 
L 688.96468 274.044059 
L 690.276592 303.975937 
L 691.588504 297.813491 
L 692.900416 309.258033 
L 695.524241 309.258033 
L 696.836153 281.086854 
L 698.148065 307.497334 
L 699.459977 295.172443 
L 700.77189 309.258033 
L 702.083802 292.97157 
L 703.395714 309.258033 
L 704.707626 309.258033 
L 706.019539 298.253666 
L 707.331451 307.937509 
L 708.643363 308.377683 
L 709.955275 304.416111 
L 711.267187 309.258033 
L 712.5791 307.937509 
L 713.891012 309.258033 
L 715.202924 303.535762 
L 716.514836 309.258033 
L 717.826749 304.416111 
L 719.138661 309.258033 
L 720.450573 309.258033 
L 721.762485 307.497334 
L 723.074398 309.258033 
L 724.38631 307.057159 
L 725.698222 309.258033 
L 727.010134 309.258033 
L 728.322046 306.616985 
L 729.633959 309.258033 
L 730.945871 309.258033 
L 732.257783 301.775063 
L 733.569695 309.258033 
L 734.881608 305.296461 
L 736.19352 308.377683 
L 737.505432 309.258033 
L 740.129256 309.258033 
L 741.441169 304.856286 
L 742.753081 309.258033 
L 744.064993 309.258033 
L 745.376905 303.975937 
L 746.688818 309.258033 
L 749.312642 309.258033 
L 750.624554 307.937509 
L 751.936466 309.258033 
L 753.248379 309.258033 
L 755.872203 307.497334 
L 757.184115 309.258033 
L 758.496028 309.258033 
L 759.80794 307.937509 
L 761.119852 309.258033 
L 763.743677 309.258033 
L 765.055589 306.616985 
L 766.367501 309.258033 
L 767.679413 309.258033 
L 768.991325 305.736635 
L 770.303238 309.258033 
L 771.61515 305.736635 
L 772.927062 309.258033 
L 776.862799 309.258033 
L 778.174711 300.014365 
L 779.486623 309.258033 
L 780.798535 309.258033 
L 782.110448 305.296461 
L 783.42236 304.416111 
L 784.734272 307.497334 
L 786.046184 309.258033 
L 787.358097 309.258033 
L 788.670009 304.856286 
L 789.981921 309.258033 
L 795.22957 309.258033 
L 796.541482 292.97157 
L 797.853394 309.258033 
L 799.165307 309.258033 
L 800.477219 279.76633 
L 801.789131 309.258033 
L 803.101043 265.68074 
L 804.412956 309.258033 
L 805.724868 289.009998 
L 807.03678 271.403011 
L 808.348692 262.159343 
L 809.660604 270.082487 
L 810.972517 309.258033 
L 812.284429 309.258033 
L 813.596341 172.803884 
L 814.908253 309.258033 
L 817.532078 309.258033 
L 818.84399 203.175937 
L 820.155902 309.258033 
L 821.467814 233.547989 
L 822.779727 309.258033 
L 825.403551 309.258033 
L 826.715463 143.752356 
L 828.027376 309.258033 
L 833.275024 309.258033 
L 834.586937 50.8755 
L 835.898849 267.001264 
L 837.210761 259.518295 
L 838.522673 309.258033 
L 839.834586 266.120915 
L 841.146498 309.258033 
L 843.770322 309.258033 
L 845.082235 169.722662 
L 846.394147 309.258033 
L 849.017971 309.258033 
L 850.329883 188.209998 
L 851.641796 309.258033 
L 852.953708 309.258033 
L 854.26562 255.116548 
L 855.577532 309.258033 
L 856.889445 289.009998 
L 858.201357 309.258033 
L 859.513269 276.244932 
L 860.825181 295.612618 
L 862.137093 309.258033 
L 863.449006 309.258033 
L 864.760918 281.527028 
L 866.07283 309.258033 
L 867.384742 309.258033 
L 868.696655 268.321788 
L 870.008567 277.565456 
L 871.320479 309.258033 
L 872.632391 301.775063 
L 873.944303 309.258033 
L 875.256216 300.014365 
L 876.568128 309.258033 
L 877.88004 309.258033 
L 879.191952 285.928775 
L 880.503865 309.258033 
L 881.815777 309.258033 
L 883.127689 295.612618 
L 884.439601 309.258033 
L 885.751514 309.258033 
L 887.063426 296.933142 
L 888.375338 309.258033 
L 889.68725 309.258033 
L 890.999162 300.894714 
L 892.311075 309.258033 
L 894.934899 309.258033 
L 896.246811 300.014365 
L 897.558724 309.258033 
L 898.870636 303.975937 
L 900.182548 309.258033 
L 901.49446 308.817858 
L 902.806372 304.856286 
L 904.118285 309.258033 
L 905.430197 300.894714 
L 906.742109 309.258033 
L 908.054021 309.258033 
L 909.365934 307.497334 
L 910.677846 309.258033 
L 911.989758 308.817858 
L 913.30167 309.258033 
L 917.237407 309.258033 
L 918.549319 307.497334 
L 919.861231 309.258033 
L 922.485056 309.258033 
L 923.796968 308.377683 
L 925.10888 309.258033 
L 926.420793 308.377683 
L 927.732705 309.258033 
L 929.044617 309.258033 
L 930.356529 307.937509 
L 931.668441 309.258033 
L 938.228003 309.258033 
L 939.539915 304.856286 
L 940.851827 309.258033 
L 943.475651 309.258033 
L 944.787564 307.937509 
L 946.099476 307.497334 
L 947.411388 309.258033 
L 948.7233 308.377683 
L 950.035213 309.258033 
L 951.347125 309.258033 
L 952.659037 308.377683 
L 953.970949 306.616985 
L 955.282861 309.258033 
L 961.842423 309.258033 
L 963.154335 306.616985 
L 964.466247 308.817858 
L 965.778159 309.258033 
L 971.025808 309.258033 
L 972.33772 306.616985 
L 973.649633 309.258033 
L 977.585369 309.258033 
L 978.897282 308.377683 
L 980.209194 309.258033 
L 982.833018 309.258033 
L 984.14493 308.817858 
L 985.456843 309.258033 
L 992.016404 309.258033 
L 993.328316 307.937509 
L 994.640228 309.258033 
L 997.264053 309.258033 
L 998.575965 306.616985 
L 999.887877 309.258033 
L 1005.135526 309.258033 
L 1006.447438 293.411745 
L 1007.759351 309.258033 
L 1009.071263 304.416111 
L 1010.383175 309.258033 
L 1011.695087 309.258033 
L 1013.006999 306.616985 
L 1014.318912 309.258033 
L 1016.942736 309.258033 
L 1018.254648 297.373317 
L 1019.566561 309.258033 
L 1020.878473 305.296461 
L 1022.190385 309.258033 
L 1024.814209 309.258033 
L 1026.126122 287.689474 
L 1027.438034 309.258033 
L 1030.061858 309.258033 
L 1031.373771 294.292094 
L 1032.685683 309.258033 
L 1035.309507 309.258033 
L 1036.621419 218.58205 
L 1037.933332 309.258033 
L 1039.245244 126.145369 
L 1040.557156 309.258033 
L 1044.492893 309.258033 
L 1045.804805 164.000391 
L 1047.116717 309.258033 
L 1052.364366 309.258033 
L 1053.676278 111.17943 
L 1054.988191 309.258033 
L 1068.107313 309.258033 
L 1069.419225 190.410871 
L 1070.731137 309.258033 
L 1072.04305 309.258033 
L 1073.354962 300.014365 
L 1074.666874 309.258033 
L 1075.978786 309.258033 
L 1077.290698 301.775063 
L 1078.602611 309.258033 
L 1082.538347 309.258033 
L 1083.85026 295.612618 
L 1085.162172 309.258033 
L 1091.721733 309.258033 
L 1093.033645 303.535762 
L 1094.345557 309.258033 
L 1107.46468 309.258033 
L 1108.776592 302.655413 
L 1110.088504 309.258033 
L 1111.400416 309.258033 
L 1112.712329 305.296461 
L 1114.024241 309.258033 
L 1117.959977 309.258033 
L 1119.27189 302.655413 
L 1120.583802 309.258033 
L 1125.831451 309.258033 
L 1127.143363 304.856286 
L 1128.455275 309.258033 
L 1131.0791 309.258033 
L 1132.391012 307.057159 
L 1133.702924 309.258033 
L 1140.262485 309.258033 
L 1141.574398 305.736635 
L 1142.88631 309.258033 
L 1145.510134 309.258033 
L 1146.822046 308.377683 
L 1148.133959 309.258033 
L 1153.381608 309.258033 
L 1154.69352 308.817858 
L 1156.005432 308.817858 
L 1157.317344 309.258033 
L 1166.50073 309.258033 
L 1167.812642 307.497334 
L 1169.124554 309.258033 
L 1174.372203 309.258033 
L 1175.684115 308.817858 
L 1176.996028 309.258033 
L 1199.298535 309.258033 
L 1200.610448 308.817858 
L 1201.92236 309.258033 
L 1204.546184 309.258033 
L 1205.858097 307.937509 
L 1207.170009 309.258033 
L 1218.977219 309.258033 
L 1220.289131 307.937509 
L 1221.601043 309.258033 
L 1275.389445 309.258033 
L 1276.701357 306.17681 
L 1278.013269 309.258033 
L 1292.444303 309.258033 
L 1293.756216 300.894714 
L 1295.068128 309.258033 
L 1301.627689 309.258033 
L 1302.939601 287.249299 
L 1302.939601 287.249299 
" clip-path="url(#p89b58de3d5)" style="fill: none; stroke: #0000ff; stroke-width: 1.5; stroke-linecap: square"/>
   </g>
   <g id="line2d_21">
    <path d="M 1062.859664 292.620452 
L 1064.171576 297.189541 
L 1065.483488 298.60154 
L 1066.795401 299.829492 
L 1068.107313 300.897386 
L 1069.419225 312.436028 
L 1070.731137 289.477966 
L 1072.04305 291.895132 
L 1073.354962 294.82245 
L 1074.666874 294.802107 
L 1075.978786 296.525297 
L 1077.290698 290.531237 
L 1078.602611 297.770264 
L 1079.914523 300.643487 
L 1081.226435 300.970562 
L 1082.538347 302.385046 
L 1083.85026 304.457552 
L 1085.162172 301.838509 
L 1086.474084 303.045513 
L 1087.785996 303.790983 
L 1090.409821 304.822159 
L 1091.721733 304.302317 
L 1093.033645 306.029239 
L 1094.345557 305.387799 
L 1096.969382 306.02983 
L 1099.593206 306.515397 
L 1100.905119 306.318894 
L 1102.217031 306.847554 
L 1104.840855 307.198196 
L 1107.46468 307.399032 
L 1108.776592 308.069714 
L 1110.088504 306.820048 
L 1111.400416 306.976757 
L 1112.712329 307.466704 
L 1114.024241 306.793032 
L 1115.336153 306.953262 
L 1116.648065 306.639236 
L 1117.959977 307.173315 
L 1119.27189 307.958802 
L 1120.583802 306.451571 
L 1121.895714 306.86859 
L 1124.519539 307.194304 
L 1127.143363 307.335679 
L 1128.455275 306.949988 
L 1129.767187 307.175144 
L 1131.0791 307.285568 
L 1132.391012 307.578078 
L 1133.702924 307.221486 
L 1135.014836 307.023622 
L 1136.326749 307.389663 
L 1138.950573 307.593342 
L 1140.262485 307.498132 
L 1141.574398 307.998758 
L 1142.88631 307.367096 
L 1146.822046 307.669954 
L 1149.445871 307.369837 
L 1150.757783 307.643578 
L 1153.381608 307.775477 
L 1166.50073 307.935731 
L 1167.812642 308.1042 
L 1169.124554 307.761929 
L 1174.372203 307.873373 
L 1176.996028 307.85015 
L 1182.243677 307.938811 
L 1186.179413 307.970735 
L 1205.858097 308.101799 
L 1207.170009 307.84274 
L 1213.72957 307.84484 
L 1216.353394 307.966703 
L 1218.977219 307.980253 
L 1220.289131 308.103623 
L 1221.601043 307.844326 
L 1226.848692 307.920504 
L 1228.160604 307.843099 
L 1230.784429 307.965386 
L 1259.646498 308.01967 
L 1275.389445 308.021813 
L 1276.701357 308.29695 
L 1278.013269 307.680858 
L 1283.260918 307.827001 
L 1284.57283 307.640885 
L 1285.884742 307.855709 
L 1289.820479 307.942868 
L 1292.444303 307.962227 
L 1293.756216 308.716683 
L 1295.068128 307.051092 
L 1300.315777 307.466782 
L 1301.627689 306.964923 
L 1302.939601 309.515701 
L 1302.939601 309.515701 
" clip-path="url(#p89b58de3d5)" style="fill: none; stroke: #ffa500; stroke-width: 1.5; stroke-linecap: square"/>
   </g>
   <g id="line2d_22">
    <path d="M 1302.939601 309.515701 
L 1304.251514 305.26124 
L 1305.563426 306.026468 
L 1306.875338 305.822385 
L 1308.18725 305.80724 
L 1309.499162 305.756985 
L 1310.811075 304.203679 
L 1312.122987 305.690313 
L 1313.434899 305.35725 
L 1314.746811 305.369888 
L 1316.058724 305.317025 
L 1317.370636 305.278151 
L 1318.682548 305.237859 
L 1319.99446 305.095325 
" clip-path="url(#p89b58de3d5)" style="fill: none; stroke: #ff0000; stroke-width: 1.5; stroke-linecap: square"/>
   </g>
   <g id="patch_3">
    <path d="M 41.667188 368.3955 
L 41.667188 35.7555 
" style="fill: none; stroke: #000000; stroke-width: 0.8; stroke-linejoin: miter; stroke-linecap: square"/>
   </g>
   <g id="patch_4">
    <path d="M 1380.867188 368.3955 
L 1380.867188 35.7555 
" style="fill: none; stroke: #000000; stroke-width: 0.8; stroke-linejoin: miter; stroke-linecap: square"/>
   </g>
   <g id="patch_5">
    <path d="M 41.667187 368.3955 
L 1380.867187 368.3955 
" style="fill: none; stroke: #000000; stroke-width: 0.8; stroke-linejoin: miter; stroke-linecap: square"/>
   </g>
   <g id="patch_6">
    <path d="M 41.667187 35.7555 
L 1380.867187 35.7555 
" style="fill: none; stroke: #000000; stroke-width: 0.8; stroke-linejoin: miter; stroke-linecap: square"/>
   </g>
   <g id="text_20">
    <!-- Daily Confirmed Cases Forecasting - Gambia -->
    <g transform="translate(577.44375 16.318125)scale(0.12 -0.12)">
     <defs>
      <path id="DejaVuSans-44" d="M 1259 4147 
L 1259 519 
L 2022 519 
Q 2988 519 3436 956 
Q 3884 1394 3884 2338 
Q 3884 3275 3436 3711 
Q 2988 4147 2022 4147 
L 1259 4147 
z
M 628 4666 
L 1925 4666 
Q 3281 4666 3915 4102 
Q 4550 3538 4550 2338 
Q 4550 1131 3912 565 
Q 3275 0 1925 0 
L 628 0 
L 628 4666 
z
" transform="scale(0.015625)"/>
      <path id="DejaVuSans-61" d="M 2194 1759 
Q 1497 1759 1228 1600 
Q 959 1441 959 1056 
Q 959 750 1161 570 
Q 1363 391 1709 391 
Q 2188 391 2477 730 
Q 2766 1069 2766 1631 
L 2766 1759 
L 2194 1759 
z
M 3341 1997 
L 3341 0 
L 2766 0 
L 2766 531 
Q 2569 213 2275 61 
Q 1981 -91 1556 -91 
Q 1019 -91 701 211 
Q 384 513 384 1019 
Q 384 1609 779 1909 
Q 1175 2209 1959 2209 
L 2766 2209 
L 2766 2266 
Q 2766 2663 2505 2880 
Q 2244 3097 1772 3097 
Q 1472 3097 1187 3025 
Q 903 2953 641 2809 
L 641 3341 
Q 956 3463 1253 3523 
Q 1550 3584 1831 3584 
Q 2591 3584 2966 3190 
Q 3341 2797 3341 1997 
z
" transform="scale(0.015625)"/>
      <path id="DejaVuSans-69" d="M 603 3500 
L 1178 3500 
L 1178 0 
L 603 0 
L 603 3500 
z
M 603 4863 
L 1178 4863 
L 1178 4134 
L 603 4134 
L 603 4863 
z
" transform="scale(0.015625)"/>
      <path id="DejaVuSans-6c" d="M 603 4863 
L 1178 4863 
L 1178 0 
L 603 0 
L 603 4863 
z
" transform="scale(0.015625)"/>
      <path id="DejaVuSans-79" d="M 2059 -325 
Q 1816 -950 1584 -1140 
Q 1353 -1331 966 -1331 
L 506 -1331 
L 506 -850 
L 844 -850 
Q 1081 -850 1212 -737 
Q 1344 -625 1503 -206 
L 1606 56 
L 191 3500 
L 800 3500 
L 1894 763 
L 2988 3500 
L 3597 3500 
L 2059 -325 
z
" transform="scale(0.015625)"/>
      <path id="DejaVuSans-20" transform="scale(0.015625)"/>
      <path id="DejaVuSans-43" d="M 4122 4306 
L 4122 3641 
Q 3803 3938 3442 4084 
Q 3081 4231 2675 4231 
Q 1875 4231 1450 3742 
Q 1025 3253 1025 2328 
Q 1025 1406 1450 917 
Q 1875 428 2675 428 
Q 3081 428 3442 575 
Q 3803 722 4122 1019 
L 4122 359 
Q 3791 134 3420 21 
Q 3050 -91 2638 -91 
Q 1578 -91 968 557 
Q 359 1206 359 2328 
Q 359 3453 968 4101 
Q 1578 4750 2638 4750 
Q 3056 4750 3426 4639 
Q 3797 4528 4122 4306 
z
" transform="scale(0.015625)"/>
      <path id="DejaVuSans-6f" d="M 1959 3097 
Q 1497 3097 1228 2736 
Q 959 2375 959 1747 
Q 959 1119 1226 758 
Q 1494 397 1959 397 
Q 2419 397 2687 759 
Q 2956 1122 2956 1747 
Q 2956 2369 2687 2733 
Q 2419 3097 1959 3097 
z
M 1959 3584 
Q 2709 3584 3137 3096 
Q 3566 2609 3566 1747 
Q 3566 888 3137 398 
Q 2709 -91 1959 -91 
Q 1206 -91 779 398 
Q 353 888 353 1747 
Q 353 2609 779 3096 
Q 1206 3584 1959 3584 
z
" transform="scale(0.015625)"/>
      <path id="DejaVuSans-6e" d="M 3513 2113 
L 3513 0 
L 2938 0 
L 2938 2094 
Q 2938 2591 2744 2837 
Q 2550 3084 2163 3084 
Q 1697 3084 1428 2787 
Q 1159 2491 1159 1978 
L 1159 0 
L 581 0 
L 581 3500 
L 1159 3500 
L 1159 2956 
Q 1366 3272 1645 3428 
Q 1925 3584 2291 3584 
Q 2894 3584 3203 3211 
Q 3513 2838 3513 2113 
z
" transform="scale(0.015625)"/>
      <path id="DejaVuSans-66" d="M 2375 4863 
L 2375 4384 
L 1825 4384 
Q 1516 4384 1395 4259 
Q 1275 4134 1275 3809 
L 1275 3500 
L 2222 3500 
L 2222 3053 
L 1275 3053 
L 1275 0 
L 697 0 
L 697 3053 
L 147 3053 
L 147 3500 
L 697 3500 
L 697 3744 
Q 697 4328 969 4595 
Q 1241 4863 1831 4863 
L 2375 4863 
z
" transform="scale(0.015625)"/>
      <path id="DejaVuSans-72" d="M 2631 2963 
Q 2534 3019 2420 3045 
Q 2306 3072 2169 3072 
Q 1681 3072 1420 2755 
Q 1159 2438 1159 1844 
L 1159 0 
L 581 0 
L 581 3500 
L 1159 3500 
L 1159 2956 
Q 1341 3275 1631 3429 
Q 1922 3584 2338 3584 
Q 2397 3584 2469 3576 
Q 2541 3569 2628 3553 
L 2631 2963 
z
" transform="scale(0.015625)"/>
      <path id="DejaVuSans-6d" d="M 3328 2828 
Q 3544 3216 3844 3400 
Q 4144 3584 4550 3584 
Q 5097 3584 5394 3201 
Q 5691 2819 5691 2113 
L 5691 0 
L 5113 0 
L 5113 2094 
Q 5113 2597 4934 2840 
Q 4756 3084 4391 3084 
Q 3944 3084 3684 2787 
Q 3425 2491 3425 1978 
L 3425 0 
L 2847 0 
L 2847 2094 
Q 2847 2600 2669 2842 
Q 2491 3084 2119 3084 
Q 1678 3084 1418 2786 
Q 1159 2488 1159 1978 
L 1159 0 
L 581 0 
L 581 3500 
L 1159 3500 
L 1159 2956 
Q 1356 3278 1631 3431 
Q 1906 3584 2284 3584 
Q 2666 3584 2933 3390 
Q 3200 3197 3328 2828 
z
" transform="scale(0.015625)"/>
      <path id="DejaVuSans-65" d="M 3597 1894 
L 3597 1613 
L 953 1613 
Q 991 1019 1311 708 
Q 1631 397 2203 397 
Q 2534 397 2845 478 
Q 3156 559 3463 722 
L 3463 178 
Q 3153 47 2828 -22 
Q 2503 -91 2169 -91 
Q 1331 -91 842 396 
Q 353 884 353 1716 
Q 353 2575 817 3079 
Q 1281 3584 2069 3584 
Q 2775 3584 3186 3129 
Q 3597 2675 3597 1894 
z
M 3022 2063 
Q 3016 2534 2758 2815 
Q 2500 3097 2075 3097 
Q 1594 3097 1305 2825 
Q 1016 2553 972 2059 
L 3022 2063 
z
" transform="scale(0.015625)"/>
      <path id="DejaVuSans-64" d="M 2906 2969 
L 2906 4863 
L 3481 4863 
L 3481 0 
L 2906 0 
L 2906 525 
Q 2725 213 2448 61 
Q 2172 -91 1784 -91 
Q 1150 -91 751 415 
Q 353 922 353 1747 
Q 353 2572 751 3078 
Q 1150 3584 1784 3584 
Q 2172 3584 2448 3432 
Q 2725 3281 2906 2969 
z
M 947 1747 
Q 947 1113 1208 752 
Q 1469 391 1925 391 
Q 2381 391 2643 752 
Q 2906 1113 2906 1747 
Q 2906 2381 2643 2742 
Q 2381 3103 1925 3103 
Q 1469 3103 1208 2742 
Q 947 2381 947 1747 
z
" transform="scale(0.015625)"/>
      <path id="DejaVuSans-73" d="M 2834 3397 
L 2834 2853 
Q 2591 2978 2328 3040 
Q 2066 3103 1784 3103 
Q 1356 3103 1142 2972 
Q 928 2841 928 2578 
Q 928 2378 1081 2264 
Q 1234 2150 1697 2047 
L 1894 2003 
Q 2506 1872 2764 1633 
Q 3022 1394 3022 966 
Q 3022 478 2636 193 
Q 2250 -91 1575 -91 
Q 1294 -91 989 -36 
Q 684 19 347 128 
L 347 722 
Q 666 556 975 473 
Q 1284 391 1588 391 
Q 1994 391 2212 530 
Q 2431 669 2431 922 
Q 2431 1156 2273 1281 
Q 2116 1406 1581 1522 
L 1381 1569 
Q 847 1681 609 1914 
Q 372 2147 372 2553 
Q 372 3047 722 3315 
Q 1072 3584 1716 3584 
Q 2034 3584 2315 3537 
Q 2597 3491 2834 3397 
z
" transform="scale(0.015625)"/>
      <path id="DejaVuSans-46" d="M 628 4666 
L 3309 4666 
L 3309 4134 
L 1259 4134 
L 1259 2759 
L 3109 2759 
L 3109 2228 
L 1259 2228 
L 1259 0 
L 628 0 
L 628 4666 
z
" transform="scale(0.015625)"/>
      <path id="DejaVuSans-63" d="M 3122 3366 
L 3122 2828 
Q 2878 2963 2633 3030 
Q 2388 3097 2138 3097 
Q 1578 3097 1268 2742 
Q 959 2388 959 1747 
Q 959 1106 1268 751 
Q 1578 397 2138 397 
Q 2388 397 2633 464 
Q 2878 531 3122 666 
L 3122 134 
Q 2881 22 2623 -34 
Q 2366 -91 2075 -91 
Q 1284 -91 818 406 
Q 353 903 353 1747 
Q 353 2603 823 3093 
Q 1294 3584 2113 3584 
Q 2378 3584 2631 3529 
Q 2884 3475 3122 3366 
z
" transform="scale(0.015625)"/>
      <path id="DejaVuSans-74" d="M 1172 4494 
L 1172 3500 
L 2356 3500 
L 2356 3053 
L 1172 3053 
L 1172 1153 
Q 1172 725 1289 603 
Q 1406 481 1766 481 
L 2356 481 
L 2356 0 
L 1766 0 
Q 1100 0 847 248 
Q 594 497 594 1153 
L 594 3053 
L 172 3053 
L 172 3500 
L 594 3500 
L 594 4494 
L 1172 4494 
z
" transform="scale(0.015625)"/>
      <path id="DejaVuSans-67" d="M 2906 1791 
Q 2906 2416 2648 2759 
Q 2391 3103 1925 3103 
Q 1463 3103 1205 2759 
Q 947 2416 947 1791 
Q 947 1169 1205 825 
Q 1463 481 1925 481 
Q 2391 481 2648 825 
Q 2906 1169 2906 1791 
z
M 3481 434 
Q 3481 -459 3084 -895 
Q 2688 -1331 1869 -1331 
Q 1566 -1331 1297 -1286 
Q 1028 -1241 775 -1147 
L 775 -588 
Q 1028 -725 1275 -790 
Q 1522 -856 1778 -856 
Q 2344 -856 2625 -561 
Q 2906 -266 2906 331 
L 2906 616 
Q 2728 306 2450 153 
Q 2172 0 1784 0 
Q 1141 0 747 490 
Q 353 981 353 1791 
Q 353 2603 747 3093 
Q 1141 3584 1784 3584 
Q 2172 3584 2450 3431 
Q 2728 3278 2906 2969 
L 2906 3500 
L 3481 3500 
L 3481 434 
z
" transform="scale(0.015625)"/>
      <path id="DejaVuSans-47" d="M 3809 666 
L 3809 1919 
L 2778 1919 
L 2778 2438 
L 4434 2438 
L 4434 434 
Q 4069 175 3628 42 
Q 3188 -91 2688 -91 
Q 1594 -91 976 548 
Q 359 1188 359 2328 
Q 359 3472 976 4111 
Q 1594 4750 2688 4750 
Q 3144 4750 3555 4637 
Q 3966 4525 4313 4306 
L 4313 3634 
Q 3963 3931 3569 4081 
Q 3175 4231 2741 4231 
Q 1884 4231 1454 3753 
Q 1025 3275 1025 2328 
Q 1025 1384 1454 906 
Q 1884 428 2741 428 
Q 3075 428 3337 486 
Q 3600 544 3809 666 
z
" transform="scale(0.015625)"/>
      <path id="DejaVuSans-62" d="M 3116 1747 
Q 3116 2381 2855 2742 
Q 2594 3103 2138 3103 
Q 1681 3103 1420 2742 
Q 1159 2381 1159 1747 
Q 1159 1113 1420 752 
Q 1681 391 2138 391 
Q 2594 391 2855 752 
Q 3116 1113 3116 1747 
z
M 1159 2969 
Q 1341 3281 1617 3432 
Q 1894 3584 2278 3584 
Q 2916 3584 3314 3078 
Q 3713 2572 3713 1747 
Q 3713 922 3314 415 
Q 2916 -91 2278 -91 
Q 1894 -91 1617 61 
Q 1341 213 1159 525 
L 1159 0 
L 581 0 
L 581 4863 
L 1159 4863 
L 1159 2969 
z
" transform="scale(0.015625)"/>
     </defs>
     <use xlink:href="#DejaVuSans-44"/>
     <use xlink:href="#DejaVuSans-61" x="77.001953"/>
     <use xlink:href="#DejaVuSans-69" x="138.28125"/>
     <use xlink:href="#DejaVuSans-6c" x="166.064453"/>
     <use xlink:href="#DejaVuSans-79" x="193.847656"/>
     <use xlink:href="#DejaVuSans-20" x="253.027344"/>
     <use xlink:href="#DejaVuSans-43" x="284.814453"/>
     <use xlink:href="#DejaVuSans-6f" x="354.638672"/>
     <use xlink:href="#DejaVuSans-6e" x="415.820312"/>
     <use xlink:href="#DejaVuSans-66" x="479.199219"/>
     <use xlink:href="#DejaVuSans-69" x="514.404297"/>
     <use xlink:href="#DejaVuSans-72" x="542.1875"/>
     <use xlink:href="#DejaVuSans-6d" x="581.550781"/>
     <use xlink:href="#DejaVuSans-65" x="678.962891"/>
     <use xlink:href="#DejaVuSans-64" x="740.486328"/>
     <use xlink:href="#DejaVuSans-20" x="803.962891"/>
     <use xlink:href="#DejaVuSans-43" x="835.75"/>
     <use xlink:href="#DejaVuSans-61" x="905.574219"/>
     <use xlink:href="#DejaVuSans-73" x="966.853516"/>
     <use xlink:href="#DejaVuSans-65" x="1018.953125"/>
     <use xlink:href="#DejaVuSans-73" x="1080.476562"/>
     <use xlink:href="#DejaVuSans-20" x="1132.576172"/>
     <use xlink:href="#DejaVuSans-46" x="1164.363281"/>
     <use xlink:href="#DejaVuSans-6f" x="1218.257812"/>
     <use xlink:href="#DejaVuSans-72" x="1279.439453"/>
     <use xlink:href="#DejaVuSans-65" x="1318.302734"/>
     <use xlink:href="#DejaVuSans-63" x="1379.826172"/>
     <use xlink:href="#DejaVuSans-61" x="1434.806641"/>
     <use xlink:href="#DejaVuSans-73" x="1496.085938"/>
     <use xlink:href="#DejaVuSans-74" x="1548.185547"/>
     <use xlink:href="#DejaVuSans-69" x="1587.394531"/>
     <use xlink:href="#DejaVuSans-6e" x="1615.177734"/>
     <use xlink:href="#DejaVuSans-67" x="1678.556641"/>
     <use xlink:href="#DejaVuSans-20" x="1742.033203"/>
     <use xlink:href="#DejaVuSans-2d" x="1773.820312"/>
     <use xlink:href="#DejaVuSans-20" x="1809.904297"/>
     <use xlink:href="#DejaVuSans-47" x="1841.691406"/>
     <use xlink:href="#DejaVuSans-61" x="1919.181641"/>
     <use xlink:href="#DejaVuSans-6d" x="1980.460938"/>
     <use xlink:href="#DejaVuSans-62" x="2077.873047"/>
     <use xlink:href="#DejaVuSans-69" x="2141.349609"/>
     <use xlink:href="#DejaVuSans-61" x="2169.132812"/>
    </g>
    <!-- ARIMA (2, 0, 1)x(1, 0, 0, 7) (R2 = -0.235401) -->
    <g transform="translate(577.118438 29.7555)scale(0.12 -0.12)">
     <defs>
      <path id="DejaVuSans-41" d="M 2188 4044 
L 1331 1722 
L 3047 1722 
L 2188 4044 
z
M 1831 4666 
L 2547 4666 
L 4325 0 
L 3669 0 
L 3244 1197 
L 1141 1197 
L 716 0 
L 50 0 
L 1831 4666 
z
" transform="scale(0.015625)"/>
      <path id="DejaVuSans-52" d="M 2841 2188 
Q 3044 2119 3236 1894 
Q 3428 1669 3622 1275 
L 4263 0 
L 3584 0 
L 2988 1197 
Q 2756 1666 2539 1819 
Q 2322 1972 1947 1972 
L 1259 1972 
L 1259 0 
L 628 0 
L 628 4666 
L 2053 4666 
Q 2853 4666 3247 4331 
Q 3641 3997 3641 3322 
Q 3641 2881 3436 2590 
Q 3231 2300 2841 2188 
z
M 1259 4147 
L 1259 2491 
L 2053 2491 
Q 2509 2491 2742 2702 
Q 2975 2913 2975 3322 
Q 2975 3731 2742 3939 
Q 2509 4147 2053 4147 
L 1259 4147 
z
" transform="scale(0.015625)"/>
      <path id="DejaVuSans-49" d="M 628 4666 
L 1259 4666 
L 1259 0 
L 628 0 
L 628 4666 
z
" transform="scale(0.015625)"/>
      <path id="DejaVuSans-4d" d="M 628 4666 
L 1569 4666 
L 2759 1491 
L 3956 4666 
L 4897 4666 
L 4897 0 
L 4281 0 
L 4281 4097 
L 3078 897 
L 2444 897 
L 1241 4097 
L 1241 0 
L 628 0 
L 628 4666 
z
" transform="scale(0.015625)"/>
      <path id="DejaVuSans-28" d="M 1984 4856 
Q 1566 4138 1362 3434 
Q 1159 2731 1159 2009 
Q 1159 1288 1364 580 
Q 1569 -128 1984 -844 
L 1484 -844 
Q 1016 -109 783 600 
Q 550 1309 550 2009 
Q 550 2706 781 3412 
Q 1013 4119 1484 4856 
L 1984 4856 
z
" transform="scale(0.015625)"/>
      <path id="DejaVuSans-2c" d="M 750 794 
L 1409 794 
L 1409 256 
L 897 -744 
L 494 -744 
L 750 256 
L 750 794 
z
" transform="scale(0.015625)"/>
      <path id="DejaVuSans-29" d="M 513 4856 
L 1013 4856 
Q 1481 4119 1714 3412 
Q 1947 2706 1947 2009 
Q 1947 1309 1714 600 
Q 1481 -109 1013 -844 
L 513 -844 
Q 928 -128 1133 580 
Q 1338 1288 1338 2009 
Q 1338 2731 1133 3434 
Q 928 4138 513 4856 
z
" transform="scale(0.015625)"/>
      <path id="DejaVuSans-78" d="M 3513 3500 
L 2247 1797 
L 3578 0 
L 2900 0 
L 1881 1375 
L 863 0 
L 184 0 
L 1544 1831 
L 300 3500 
L 978 3500 
L 1906 2253 
L 2834 3500 
L 3513 3500 
z
" transform="scale(0.015625)"/>
      <path id="DejaVuSans-3d" d="M 678 2906 
L 4684 2906 
L 4684 2381 
L 678 2381 
L 678 2906 
z
M 678 1631 
L 4684 1631 
L 4684 1100 
L 678 1100 
L 678 1631 
z
" transform="scale(0.015625)"/>
      <path id="DejaVuSans-2e" d="M 684 794 
L 1344 794 
L 1344 0 
L 684 0 
L 684 794 
z
" transform="scale(0.015625)"/>
     </defs>
     <use xlink:href="#DejaVuSans-41"/>
     <use xlink:href="#DejaVuSans-52" x="68.408203"/>
     <use xlink:href="#DejaVuSans-49" x="137.890625"/>
     <use xlink:href="#DejaVuSans-4d" x="167.382812"/>
     <use xlink:href="#DejaVuSans-41" x="253.662109"/>
     <use xlink:href="#DejaVuSans-20" x="322.070312"/>
     <use xlink:href="#DejaVuSans-28" x="353.857422"/>
     <use xlink:href="#DejaVuSans-32" x="392.871094"/>
     <use xlink:href="#DejaVuSans-2c" x="456.494141"/>
     <use xlink:href="#DejaVuSans-20" x="488.28125"/>
     <use xlink:href="#DejaVuSans-30" x="520.068359"/>
     <use xlink:href="#DejaVuSans-2c" x="583.691406"/>
     <use xlink:href="#DejaVuSans-20" x="615.478516"/>
     <use xlink:href="#DejaVuSans-31" x="647.265625"/>
     <use xlink:href="#DejaVuSans-29" x="710.888672"/>
     <use xlink:href="#DejaVuSans-78" x="749.902344"/>
     <use xlink:href="#DejaVuSans-28" x="809.082031"/>
     <use xlink:href="#DejaVuSans-31" x="848.095703"/>
     <use xlink:href="#DejaVuSans-2c" x="911.71875"/>
     <use xlink:href="#DejaVuSans-20" x="943.505859"/>
     <use xlink:href="#DejaVuSans-30" x="975.292969"/>
     <use xlink:href="#DejaVuSans-2c" x="1038.916016"/>
     <use xlink:href="#DejaVuSans-20" x="1070.703125"/>
     <use xlink:href="#DejaVuSans-30" x="1102.490234"/>
     <use xlink:href="#DejaVuSans-2c" x="1166.113281"/>
     <use xlink:href="#DejaVuSans-20" x="1197.900391"/>
     <use xlink:href="#DejaVuSans-37" x="1229.6875"/>
     <use xlink:href="#DejaVuSans-29" x="1293.310547"/>
     <use xlink:href="#DejaVuSans-20" x="1332.324219"/>
     <use xlink:href="#DejaVuSans-28" x="1364.111328"/>
     <use xlink:href="#DejaVuSans-52" x="1403.125"/>
     <use xlink:href="#DejaVuSans-32" x="1472.607422"/>
     <use xlink:href="#DejaVuSans-20" x="1536.230469"/>
     <use xlink:href="#DejaVuSans-3d" x="1568.017578"/>
     <use xlink:href="#DejaVuSans-20" x="1651.806641"/>
     <use xlink:href="#DejaVuSans-2d" x="1683.59375"/>
     <use xlink:href="#DejaVuSans-30" x="1719.677734"/>
     <use xlink:href="#DejaVuSans-2e" x="1783.300781"/>
     <use xlink:href="#DejaVuSans-32" x="1815.087891"/>
     <use xlink:href="#DejaVuSans-33" x="1878.710938"/>
     <use xlink:href="#DejaVuSans-35" x="1942.333984"/>
     <use xlink:href="#DejaVuSans-34" x="2005.957031"/>
     <use xlink:href="#DejaVuSans-30" x="2069.580078"/>
     <use xlink:href="#DejaVuSans-31" x="2133.203125"/>
     <use xlink:href="#DejaVuSans-29" x="2196.826172"/>
    </g>
   </g>
   <g id="legend_1">
    <g id="patch_7">
     <path d="M 1276.7875 87.789875 
L 1373.867188 87.789875 
Q 1375.867188 87.789875 1375.867188 85.789875 
L 1375.867188 42.7555 
Q 1375.867188 40.7555 1373.867188 40.7555 
L 1276.7875 40.7555 
Q 1274.7875 40.7555 1274.7875 42.7555 
L 1274.7875 85.789875 
Q 1274.7875 87.789875 1276.7875 87.789875 
z
" style="fill: #ffffff; opacity: 0.8; stroke: #cccccc; stroke-linejoin: miter"/>
    </g>
    <g id="line2d_23">
     <path d="M 1278.7875 48.853937 
L 1288.7875 48.853937 
L 1298.7875 48.853937 
" style="fill: none; stroke: #0000ff; stroke-width: 1.5; stroke-linecap: square"/>
    </g>
    <g id="text_21">
     <!-- Actual Value -->
     <g transform="translate(1306.7875 52.353937)scale(0.1 -0.1)">
      <defs>
       <path id="DejaVuSans-75" d="M 544 1381 
L 544 3500 
L 1119 3500 
L 1119 1403 
Q 1119 906 1312 657 
Q 1506 409 1894 409 
Q 2359 409 2629 706 
Q 2900 1003 2900 1516 
L 2900 3500 
L 3475 3500 
L 3475 0 
L 2900 0 
L 2900 538 
Q 2691 219 2414 64 
Q 2138 -91 1772 -91 
Q 1169 -91 856 284 
Q 544 659 544 1381 
z
M 1991 3584 
L 1991 3584 
z
" transform="scale(0.015625)"/>
       <path id="DejaVuSans-56" d="M 1831 0 
L 50 4666 
L 709 4666 
L 2188 738 
L 3669 4666 
L 4325 4666 
L 2547 0 
L 1831 0 
z
" transform="scale(0.015625)"/>
      </defs>
      <use xlink:href="#DejaVuSans-41"/>
      <use xlink:href="#DejaVuSans-63" x="66.658203"/>
      <use xlink:href="#DejaVuSans-74" x="121.638672"/>
      <use xlink:href="#DejaVuSans-75" x="160.847656"/>
      <use xlink:href="#DejaVuSans-61" x="224.226562"/>
      <use xlink:href="#DejaVuSans-6c" x="285.505859"/>
      <use xlink:href="#DejaVuSans-20" x="313.289062"/>
      <use xlink:href="#DejaVuSans-56" x="345.076172"/>
      <use xlink:href="#DejaVuSans-61" x="405.734375"/>
      <use xlink:href="#DejaVuSans-6c" x="467.013672"/>
      <use xlink:href="#DejaVuSans-75" x="494.796875"/>
      <use xlink:href="#DejaVuSans-65" x="558.175781"/>
     </g>
    </g>
    <g id="line2d_24">
     <path d="M 1278.7875 63.532062 
L 1288.7875 63.532062 
L 1298.7875 63.532062 
" style="fill: none; stroke: #ffa500; stroke-width: 1.5; stroke-linecap: square"/>
    </g>
    <g id="text_22">
     <!-- Check Value -->
     <g transform="translate(1306.7875 67.032062)scale(0.1 -0.1)">
      <defs>
       <path id="DejaVuSans-68" d="M 3513 2113 
L 3513 0 
L 2938 0 
L 2938 2094 
Q 2938 2591 2744 2837 
Q 2550 3084 2163 3084 
Q 1697 3084 1428 2787 
Q 1159 2491 1159 1978 
L 1159 0 
L 581 0 
L 581 4863 
L 1159 4863 
L 1159 2956 
Q 1366 3272 1645 3428 
Q 1925 3584 2291 3584 
Q 2894 3584 3203 3211 
Q 3513 2838 3513 2113 
z
" transform="scale(0.015625)"/>
       <path id="DejaVuSans-6b" d="M 581 4863 
L 1159 4863 
L 1159 1991 
L 2875 3500 
L 3609 3500 
L 1753 1863 
L 3688 0 
L 2938 0 
L 1159 1709 
L 1159 0 
L 581 0 
L 581 4863 
z
" transform="scale(0.015625)"/>
      </defs>
      <use xlink:href="#DejaVuSans-43"/>
      <use xlink:href="#DejaVuSans-68" x="69.824219"/>
      <use xlink:href="#DejaVuSans-65" x="133.203125"/>
      <use xlink:href="#DejaVuSans-63" x="194.726562"/>
      <use xlink:href="#DejaVuSans-6b" x="249.707031"/>
      <use xlink:href="#DejaVuSans-20" x="307.617188"/>
      <use xlink:href="#DejaVuSans-56" x="339.404297"/>
      <use xlink:href="#DejaVuSans-61" x="400.0625"/>
      <use xlink:href="#DejaVuSans-6c" x="461.341797"/>
      <use xlink:href="#DejaVuSans-75" x="489.125"/>
      <use xlink:href="#DejaVuSans-65" x="552.503906"/>
     </g>
    </g>
    <g id="line2d_25">
     <path d="M 1278.7875 78.210187 
L 1288.7875 78.210187 
L 1298.7875 78.210187 
" style="fill: none; stroke: #ff0000; stroke-width: 1.5; stroke-linecap: square"/>
    </g>
    <g id="text_23">
     <!-- Predict Value -->
     <g transform="translate(1306.7875 81.710187)scale(0.1 -0.1)">
      <defs>
       <path id="DejaVuSans-50" d="M 1259 4147 
L 1259 2394 
L 2053 2394 
Q 2494 2394 2734 2622 
Q 2975 2850 2975 3272 
Q 2975 3691 2734 3919 
Q 2494 4147 2053 4147 
L 1259 4147 
z
M 628 4666 
L 2053 4666 
Q 2838 4666 3239 4311 
Q 3641 3956 3641 3272 
Q 3641 2581 3239 2228 
Q 2838 1875 2053 1875 
L 1259 1875 
L 1259 0 
L 628 0 
L 628 4666 
z
" transform="scale(0.015625)"/>
      </defs>
      <use xlink:href="#DejaVuSans-50"/>
      <use xlink:href="#DejaVuSans-72" x="58.552734"/>
      <use xlink:href="#DejaVuSans-65" x="97.416016"/>
      <use xlink:href="#DejaVuSans-64" x="158.939453"/>
      <use xlink:href="#DejaVuSans-69" x="222.416016"/>
      <use xlink:href="#DejaVuSans-63" x="250.199219"/>
      <use xlink:href="#DejaVuSans-74" x="305.179688"/>
      <use xlink:href="#DejaVuSans-20" x="344.388672"/>
      <use xlink:href="#DejaVuSans-56" x="376.175781"/>
      <use xlink:href="#DejaVuSans-61" x="436.833984"/>
      <use xlink:href="#DejaVuSans-6c" x="498.113281"/>
      <use xlink:href="#DejaVuSans-75" x="525.896484"/>
      <use xlink:href="#DejaVuSans-65" x="589.275391"/>
     </g>
    </g>
   </g>
  </g>
 </g>
 <defs>
  <clipPath id="p89b58de3d5">
   <rect x="41.667188" y="35.7555" width="1339.2" height="332.64"/>
  </clipPath>
 </defs>
</svg>
