<?xml version="1.0" encoding="utf-8" standalone="no"?>
<!DOCTYPE svg PUBLIC "-//W3C//DTD SVG 1.1//EN"
  "http://www.w3.org/Graphics/SVG/1.1/DTD/svg11.dtd">
<svg xmlns:xlink="http://www.w3.org/1999/xlink" width="1392.4125pt" height="392.273625pt" viewBox="0 0 1392.4125 392.273625" xmlns="http://www.w3.org/2000/svg" version="1.1">
 <metadata>
  <rdf:RDF xmlns:dc="http://purl.org/dc/elements/1.1/" xmlns:cc="http://creativecommons.org/ns#" xmlns:rdf="http://www.w3.org/1999/02/22-rdf-syntax-ns#">
   <cc:Work>
    <dc:type rdf:resource="http://purl.org/dc/dcmitype/StillImage"/>
    <dc:date>2022-07-08T19:27:14.920165</dc:date>
    <dc:format>image/svg+xml</dc:format>
    <dc:creator>
     <cc:Agent>
      <dc:title>Matplotlib v3.5.2, https://matplotlib.org/</dc:title>
     </cc:Agent>
    </dc:creator>
   </cc:Work>
  </rdf:RDF>
 </metadata>
 <defs>
  <style type="text/css">*{stroke-linejoin: round; stroke-linecap: butt}</style>
 </defs>
 <g id="figure_1">
  <g id="patch_1">
   <path d="M 0 392.273625 
L 1392.4125 392.273625 
L 1392.4125 0 
L 0 0 
z
" style="fill: #ffffff"/>
  </g>
  <g id="axes_1">
   <g id="patch_2">
    <path d="M 46.0125 368.3955 
L 1385.2125 368.3955 
L 1385.2125 35.7555 
L 46.0125 35.7555 
z
" style="fill: #ffffff"/>
   </g>
   <g id="matplotlib.axis_1">
    <g id="xtick_1">
     <g id="line2d_1">
      <defs>
       <path id="m3e0d0d4154" d="M 0 0 
L 0 3.5 
" style="stroke: #000000; stroke-width: 0.8"/>
      </defs>
      <g>
       <use xlink:href="#m3e0d0d4154" x="77.419881" y="368.3955" style="stroke: #000000; stroke-width: 0.8"/>
      </g>
     </g>
     <g id="text_1">
      <!-- 2020-01 -->
      <g transform="translate(56.528474 382.993937)scale(0.1 -0.1)">
       <defs>
        <path id="DejaVuSans-32" d="M 1228 531 
L 3431 531 
L 3431 0 
L 469 0 
L 469 531 
Q 828 903 1448 1529 
Q 2069 2156 2228 2338 
Q 2531 2678 2651 2914 
Q 2772 3150 2772 3378 
Q 2772 3750 2511 3984 
Q 2250 4219 1831 4219 
Q 1534 4219 1204 4116 
Q 875 4013 500 3803 
L 500 4441 
Q 881 4594 1212 4672 
Q 1544 4750 1819 4750 
Q 2544 4750 2975 4387 
Q 3406 4025 3406 3419 
Q 3406 3131 3298 2873 
Q 3191 2616 2906 2266 
Q 2828 2175 2409 1742 
Q 1991 1309 1228 531 
z
" transform="scale(0.015625)"/>
        <path id="DejaVuSans-30" d="M 2034 4250 
Q 1547 4250 1301 3770 
Q 1056 3291 1056 2328 
Q 1056 1369 1301 889 
Q 1547 409 2034 409 
Q 2525 409 2770 889 
Q 3016 1369 3016 2328 
Q 3016 3291 2770 3770 
Q 2525 4250 2034 4250 
z
M 2034 4750 
Q 2819 4750 3233 4129 
Q 3647 3509 3647 2328 
Q 3647 1150 3233 529 
Q 2819 -91 2034 -91 
Q 1250 -91 836 529 
Q 422 1150 422 2328 
Q 422 3509 836 4129 
Q 1250 4750 2034 4750 
z
" transform="scale(0.015625)"/>
        <path id="DejaVuSans-2d" d="M 313 2009 
L 1997 2009 
L 1997 1497 
L 313 1497 
L 313 2009 
z
" transform="scale(0.015625)"/>
        <path id="DejaVuSans-31" d="M 794 531 
L 1825 531 
L 1825 4091 
L 703 3866 
L 703 4441 
L 1819 4666 
L 2450 4666 
L 2450 531 
L 3481 531 
L 3481 0 
L 794 0 
L 794 531 
z
" transform="scale(0.015625)"/>
       </defs>
       <use xlink:href="#DejaVuSans-32"/>
       <use xlink:href="#DejaVuSans-30" x="63.623047"/>
       <use xlink:href="#DejaVuSans-32" x="127.246094"/>
       <use xlink:href="#DejaVuSans-30" x="190.869141"/>
       <use xlink:href="#DejaVuSans-2d" x="254.492188"/>
       <use xlink:href="#DejaVuSans-30" x="290.576172"/>
       <use xlink:href="#DejaVuSans-31" x="354.199219"/>
      </g>
     </g>
    </g>
    <g id="xtick_2">
     <g id="line2d_2">
      <g>
       <use xlink:href="#m3e0d0d4154" x="199.299269" y="368.3955" style="stroke: #000000; stroke-width: 0.8"/>
      </g>
     </g>
     <g id="text_2">
      <!-- 2020-04 -->
      <g transform="translate(178.407862 382.993937)scale(0.1 -0.1)">
       <defs>
        <path id="DejaVuSans-34" d="M 2419 4116 
L 825 1625 
L 2419 1625 
L 2419 4116 
z
M 2253 4666 
L 3047 4666 
L 3047 1625 
L 3713 1625 
L 3713 1100 
L 3047 1100 
L 3047 0 
L 2419 0 
L 2419 1100 
L 313 1100 
L 313 1709 
L 2253 4666 
z
" transform="scale(0.015625)"/>
       </defs>
       <use xlink:href="#DejaVuSans-32"/>
       <use xlink:href="#DejaVuSans-30" x="63.623047"/>
       <use xlink:href="#DejaVuSans-32" x="127.246094"/>
       <use xlink:href="#DejaVuSans-30" x="190.869141"/>
       <use xlink:href="#DejaVuSans-2d" x="254.492188"/>
       <use xlink:href="#DejaVuSans-30" x="290.576172"/>
       <use xlink:href="#DejaVuSans-34" x="354.199219"/>
      </g>
     </g>
    </g>
    <g id="xtick_3">
     <g id="line2d_3">
      <g>
       <use xlink:href="#m3e0d0d4154" x="321.178657" y="368.3955" style="stroke: #000000; stroke-width: 0.8"/>
      </g>
     </g>
     <g id="text_3">
      <!-- 2020-07 -->
      <g transform="translate(300.28725 382.993937)scale(0.1 -0.1)">
       <defs>
        <path id="DejaVuSans-37" d="M 525 4666 
L 3525 4666 
L 3525 4397 
L 1831 0 
L 1172 0 
L 2766 4134 
L 525 4134 
L 525 4666 
z
" transform="scale(0.015625)"/>
       </defs>
       <use xlink:href="#DejaVuSans-32"/>
       <use xlink:href="#DejaVuSans-30" x="63.623047"/>
       <use xlink:href="#DejaVuSans-32" x="127.246094"/>
       <use xlink:href="#DejaVuSans-30" x="190.869141"/>
       <use xlink:href="#DejaVuSans-2d" x="254.492188"/>
       <use xlink:href="#DejaVuSans-30" x="290.576172"/>
       <use xlink:href="#DejaVuSans-37" x="354.199219"/>
      </g>
     </g>
    </g>
    <g id="xtick_4">
     <g id="line2d_4">
      <g>
       <use xlink:href="#m3e0d0d4154" x="444.397378" y="368.3955" style="stroke: #000000; stroke-width: 0.8"/>
      </g>
     </g>
     <g id="text_4">
      <!-- 2020-10 -->
      <g transform="translate(423.505972 382.993937)scale(0.1 -0.1)">
       <use xlink:href="#DejaVuSans-32"/>
       <use xlink:href="#DejaVuSans-30" x="63.623047"/>
       <use xlink:href="#DejaVuSans-32" x="127.246094"/>
       <use xlink:href="#DejaVuSans-30" x="190.869141"/>
       <use xlink:href="#DejaVuSans-2d" x="254.492188"/>
       <use xlink:href="#DejaVuSans-31" x="290.576172"/>
       <use xlink:href="#DejaVuSans-30" x="354.199219"/>
      </g>
     </g>
    </g>
    <g id="xtick_5">
     <g id="line2d_5">
      <g>
       <use xlink:href="#m3e0d0d4154" x="567.6161" y="368.3955" style="stroke: #000000; stroke-width: 0.8"/>
      </g>
     </g>
     <g id="text_5">
      <!-- 2021-01 -->
      <g transform="translate(546.724694 382.993937)scale(0.1 -0.1)">
       <use xlink:href="#DejaVuSans-32"/>
       <use xlink:href="#DejaVuSans-30" x="63.623047"/>
       <use xlink:href="#DejaVuSans-32" x="127.246094"/>
       <use xlink:href="#DejaVuSans-31" x="190.869141"/>
       <use xlink:href="#DejaVuSans-2d" x="254.492188"/>
       <use xlink:href="#DejaVuSans-30" x="290.576172"/>
       <use xlink:href="#DejaVuSans-31" x="354.199219"/>
      </g>
     </g>
    </g>
    <g id="xtick_6">
     <g id="line2d_6">
      <g>
       <use xlink:href="#m3e0d0d4154" x="688.156154" y="368.3955" style="stroke: #000000; stroke-width: 0.8"/>
      </g>
     </g>
     <g id="text_6">
      <!-- 2021-04 -->
      <g transform="translate(667.264748 382.993937)scale(0.1 -0.1)">
       <use xlink:href="#DejaVuSans-32"/>
       <use xlink:href="#DejaVuSans-30" x="63.623047"/>
       <use xlink:href="#DejaVuSans-32" x="127.246094"/>
       <use xlink:href="#DejaVuSans-31" x="190.869141"/>
       <use xlink:href="#DejaVuSans-2d" x="254.492188"/>
       <use xlink:href="#DejaVuSans-30" x="290.576172"/>
       <use xlink:href="#DejaVuSans-34" x="354.199219"/>
      </g>
     </g>
    </g>
    <g id="xtick_7">
     <g id="line2d_7">
      <g>
       <use xlink:href="#m3e0d0d4154" x="810.035542" y="368.3955" style="stroke: #000000; stroke-width: 0.8"/>
      </g>
     </g>
     <g id="text_7">
      <!-- 2021-07 -->
      <g transform="translate(789.144136 382.993937)scale(0.1 -0.1)">
       <use xlink:href="#DejaVuSans-32"/>
       <use xlink:href="#DejaVuSans-30" x="63.623047"/>
       <use xlink:href="#DejaVuSans-32" x="127.246094"/>
       <use xlink:href="#DejaVuSans-31" x="190.869141"/>
       <use xlink:href="#DejaVuSans-2d" x="254.492188"/>
       <use xlink:href="#DejaVuSans-30" x="290.576172"/>
       <use xlink:href="#DejaVuSans-37" x="354.199219"/>
      </g>
     </g>
    </g>
    <g id="xtick_8">
     <g id="line2d_8">
      <g>
       <use xlink:href="#m3e0d0d4154" x="933.254264" y="368.3955" style="stroke: #000000; stroke-width: 0.8"/>
      </g>
     </g>
     <g id="text_8">
      <!-- 2021-10 -->
      <g transform="translate(912.362858 382.993937)scale(0.1 -0.1)">
       <use xlink:href="#DejaVuSans-32"/>
       <use xlink:href="#DejaVuSans-30" x="63.623047"/>
       <use xlink:href="#DejaVuSans-32" x="127.246094"/>
       <use xlink:href="#DejaVuSans-31" x="190.869141"/>
       <use xlink:href="#DejaVuSans-2d" x="254.492188"/>
       <use xlink:href="#DejaVuSans-31" x="290.576172"/>
       <use xlink:href="#DejaVuSans-30" x="354.199219"/>
      </g>
     </g>
    </g>
    <g id="xtick_9">
     <g id="line2d_9">
      <g>
       <use xlink:href="#m3e0d0d4154" x="1056.472986" y="368.3955" style="stroke: #000000; stroke-width: 0.8"/>
      </g>
     </g>
     <g id="text_9">
      <!-- 2022-01 -->
      <g transform="translate(1035.58158 382.993937)scale(0.1 -0.1)">
       <use xlink:href="#DejaVuSans-32"/>
       <use xlink:href="#DejaVuSans-30" x="63.623047"/>
       <use xlink:href="#DejaVuSans-32" x="127.246094"/>
       <use xlink:href="#DejaVuSans-32" x="190.869141"/>
       <use xlink:href="#DejaVuSans-2d" x="254.492188"/>
       <use xlink:href="#DejaVuSans-30" x="290.576172"/>
       <use xlink:href="#DejaVuSans-31" x="354.199219"/>
      </g>
     </g>
    </g>
    <g id="xtick_10">
     <g id="line2d_10">
      <g>
       <use xlink:href="#m3e0d0d4154" x="1177.01304" y="368.3955" style="stroke: #000000; stroke-width: 0.8"/>
      </g>
     </g>
     <g id="text_10">
      <!-- 2022-04 -->
      <g transform="translate(1156.121634 382.993937)scale(0.1 -0.1)">
       <use xlink:href="#DejaVuSans-32"/>
       <use xlink:href="#DejaVuSans-30" x="63.623047"/>
       <use xlink:href="#DejaVuSans-32" x="127.246094"/>
       <use xlink:href="#DejaVuSans-32" x="190.869141"/>
       <use xlink:href="#DejaVuSans-2d" x="254.492188"/>
       <use xlink:href="#DejaVuSans-30" x="290.576172"/>
       <use xlink:href="#DejaVuSans-34" x="354.199219"/>
      </g>
     </g>
    </g>
    <g id="xtick_11">
     <g id="line2d_11">
      <g>
       <use xlink:href="#m3e0d0d4154" x="1298.892428" y="368.3955" style="stroke: #000000; stroke-width: 0.8"/>
      </g>
     </g>
     <g id="text_11">
      <!-- 2022-07 -->
      <g transform="translate(1278.001022 382.993937)scale(0.1 -0.1)">
       <use xlink:href="#DejaVuSans-32"/>
       <use xlink:href="#DejaVuSans-30" x="63.623047"/>
       <use xlink:href="#DejaVuSans-32" x="127.246094"/>
       <use xlink:href="#DejaVuSans-32" x="190.869141"/>
       <use xlink:href="#DejaVuSans-2d" x="254.492188"/>
       <use xlink:href="#DejaVuSans-30" x="290.576172"/>
       <use xlink:href="#DejaVuSans-37" x="354.199219"/>
      </g>
     </g>
    </g>
   </g>
   <g id="matplotlib.axis_2">
    <g id="ytick_1">
     <g id="line2d_12">
      <defs>
       <path id="me4af6ecf85" d="M 0 0 
L -3.5 0 
" style="stroke: #000000; stroke-width: 0.8"/>
      </defs>
      <g>
       <use xlink:href="#me4af6ecf85" x="46.0125" y="342.790274" style="stroke: #000000; stroke-width: 0.8"/>
      </g>
     </g>
     <g id="text_12">
      <!-- 0 -->
      <g transform="translate(32.65 346.589493)scale(0.1 -0.1)">
       <use xlink:href="#DejaVuSans-30"/>
      </g>
     </g>
    </g>
    <g id="ytick_2">
     <g id="line2d_13">
      <g>
       <use xlink:href="#me4af6ecf85" x="46.0125" y="290.390343" style="stroke: #000000; stroke-width: 0.8"/>
      </g>
     </g>
     <g id="text_13">
      <!-- 10000 -->
      <g transform="translate(7.2 294.189562)scale(0.1 -0.1)">
       <use xlink:href="#DejaVuSans-31"/>
       <use xlink:href="#DejaVuSans-30" x="63.623047"/>
       <use xlink:href="#DejaVuSans-30" x="127.246094"/>
       <use xlink:href="#DejaVuSans-30" x="190.869141"/>
       <use xlink:href="#DejaVuSans-30" x="254.492188"/>
      </g>
     </g>
    </g>
    <g id="ytick_3">
     <g id="line2d_14">
      <g>
       <use xlink:href="#me4af6ecf85" x="46.0125" y="237.990412" style="stroke: #000000; stroke-width: 0.8"/>
      </g>
     </g>
     <g id="text_14">
      <!-- 20000 -->
      <g transform="translate(7.2 241.789631)scale(0.1 -0.1)">
       <use xlink:href="#DejaVuSans-32"/>
       <use xlink:href="#DejaVuSans-30" x="63.623047"/>
       <use xlink:href="#DejaVuSans-30" x="127.246094"/>
       <use xlink:href="#DejaVuSans-30" x="190.869141"/>
       <use xlink:href="#DejaVuSans-30" x="254.492188"/>
      </g>
     </g>
    </g>
    <g id="ytick_4">
     <g id="line2d_15">
      <g>
       <use xlink:href="#me4af6ecf85" x="46.0125" y="185.590482" style="stroke: #000000; stroke-width: 0.8"/>
      </g>
     </g>
     <g id="text_15">
      <!-- 30000 -->
      <g transform="translate(7.2 189.389701)scale(0.1 -0.1)">
       <defs>
        <path id="DejaVuSans-33" d="M 2597 2516 
Q 3050 2419 3304 2112 
Q 3559 1806 3559 1356 
Q 3559 666 3084 287 
Q 2609 -91 1734 -91 
Q 1441 -91 1130 -33 
Q 819 25 488 141 
L 488 750 
Q 750 597 1062 519 
Q 1375 441 1716 441 
Q 2309 441 2620 675 
Q 2931 909 2931 1356 
Q 2931 1769 2642 2001 
Q 2353 2234 1838 2234 
L 1294 2234 
L 1294 2753 
L 1863 2753 
Q 2328 2753 2575 2939 
Q 2822 3125 2822 3475 
Q 2822 3834 2567 4026 
Q 2313 4219 1838 4219 
Q 1578 4219 1281 4162 
Q 984 4106 628 3988 
L 628 4550 
Q 988 4650 1302 4700 
Q 1616 4750 1894 4750 
Q 2613 4750 3031 4423 
Q 3450 4097 3450 3541 
Q 3450 3153 3228 2886 
Q 3006 2619 2597 2516 
z
" transform="scale(0.015625)"/>
       </defs>
       <use xlink:href="#DejaVuSans-33"/>
       <use xlink:href="#DejaVuSans-30" x="63.623047"/>
       <use xlink:href="#DejaVuSans-30" x="127.246094"/>
       <use xlink:href="#DejaVuSans-30" x="190.869141"/>
       <use xlink:href="#DejaVuSans-30" x="254.492188"/>
      </g>
     </g>
    </g>
    <g id="ytick_5">
     <g id="line2d_16">
      <g>
       <use xlink:href="#me4af6ecf85" x="46.0125" y="133.190551" style="stroke: #000000; stroke-width: 0.8"/>
      </g>
     </g>
     <g id="text_16">
      <!-- 40000 -->
      <g transform="translate(7.2 136.98977)scale(0.1 -0.1)">
       <use xlink:href="#DejaVuSans-34"/>
       <use xlink:href="#DejaVuSans-30" x="63.623047"/>
       <use xlink:href="#DejaVuSans-30" x="127.246094"/>
       <use xlink:href="#DejaVuSans-30" x="190.869141"/>
       <use xlink:href="#DejaVuSans-30" x="254.492188"/>
      </g>
     </g>
    </g>
    <g id="ytick_6">
     <g id="line2d_17">
      <g>
       <use xlink:href="#me4af6ecf85" x="46.0125" y="80.79062" style="stroke: #000000; stroke-width: 0.8"/>
      </g>
     </g>
     <g id="text_17">
      <!-- 50000 -->
      <g transform="translate(7.2 84.589839)scale(0.1 -0.1)">
       <defs>
        <path id="DejaVuSans-35" d="M 691 4666 
L 3169 4666 
L 3169 4134 
L 1269 4134 
L 1269 2991 
Q 1406 3038 1543 3061 
Q 1681 3084 1819 3084 
Q 2600 3084 3056 2656 
Q 3513 2228 3513 1497 
Q 3513 744 3044 326 
Q 2575 -91 1722 -91 
Q 1428 -91 1123 -41 
Q 819 9 494 109 
L 494 744 
Q 775 591 1075 516 
Q 1375 441 1709 441 
Q 2250 441 2565 725 
Q 2881 1009 2881 1497 
Q 2881 1984 2565 2268 
Q 2250 2553 1709 2553 
Q 1456 2553 1204 2497 
Q 953 2441 691 2322 
L 691 4666 
z
" transform="scale(0.015625)"/>
       </defs>
       <use xlink:href="#DejaVuSans-35"/>
       <use xlink:href="#DejaVuSans-30" x="63.623047"/>
       <use xlink:href="#DejaVuSans-30" x="127.246094"/>
       <use xlink:href="#DejaVuSans-30" x="190.869141"/>
       <use xlink:href="#DejaVuSans-30" x="254.492188"/>
      </g>
     </g>
    </g>
   </g>
   <g id="line2d_18">
    <path d="M 106.885227 342.790274 
L 167.155254 342.722154 
L 168.494588 342.502074 
L 169.833922 341.888995 
L 173.851924 341.810395 
L 175.191258 342.622594 
L 177.869926 342.486354 
L 179.20926 342.308195 
L 181.887928 342.219115 
L 183.227261 342.203395 
L 184.566595 342.355354 
L 185.905929 342.297715 
L 187.245263 342.486354 
L 188.584597 342.025235 
L 191.263265 341.946635 
L 192.602599 341.862795 
L 193.941933 341.920435 
L 195.281267 341.752755 
L 196.620601 341.789435 
L 197.959935 341.302116 
L 199.299269 341.475036 
L 200.638603 341.307356 
L 201.977937 340.835756 
L 204.656604 341.260196 
L 205.995938 341.144916 
L 207.335272 340.741437 
L 208.674606 341.055836 
L 210.01394 341.569355 
L 211.353274 341.826115 
L 215.371276 342.035715 
L 216.71061 341.778955 
L 218.049944 341.899475 
L 219.389278 341.752755 
L 222.067946 341.904715 
L 224.746613 342.103835 
L 227.425281 341.653195 
L 228.764615 341.936155 
L 230.103949 342.072395 
L 231.443283 341.558875 
L 232.782617 342.109075 
L 234.121951 342.145755 
L 235.461285 341.988555 
L 239.479287 341.988555 
L 240.818621 342.287235 
L 244.836622 341.999035 
L 246.175956 342.177195 
L 247.51529 342.030475 
L 248.854624 342.082875 
L 250.193958 342.261035 
L 251.533292 342.213875 
L 254.21196 342.381554 
L 255.551294 342.392034 
L 256.890628 342.549234 
L 258.229962 342.381554 
L 262.247964 342.575434 
L 263.587297 342.392034 
L 270.283967 342.412994 
L 271.623301 342.648794 
L 274.301969 342.512554 
L 275.641303 342.622594 
L 276.980637 342.365834 
L 278.319971 342.580674 
L 285.01664 342.580674 
L 286.355974 342.454914 
L 290.373976 342.716914 
L 291.71331 342.585914 
L 293.052644 342.711674 
L 294.391978 342.690714 
L 295.731312 342.454914 
L 297.070646 342.580674 
L 298.40998 342.507314 
L 299.749314 342.664514 
L 305.106649 342.543994 
L 306.445983 342.790274 
L 307.785317 342.790274 
L 309.124651 342.077635 
L 310.463985 342.612114 
L 311.803319 342.507314 
L 313.142653 342.680234 
L 314.481987 342.585914 
L 315.821321 342.790274 
L 317.160655 342.790274 
L 318.499989 342.392034 
L 319.839323 342.701194 
L 322.517991 342.680234 
L 326.535992 342.785034 
L 327.875326 342.549234 
L 329.21466 342.737874 
L 335.91133 342.790274 
L 337.250664 342.313435 
L 338.589998 342.664514 
L 342.608 342.533514 
L 343.947333 342.790274 
L 345.286667 342.774554 
L 346.626001 342.323914 
L 347.965335 342.580674 
L 351.983337 342.538754 
L 353.322671 342.785034 
L 354.662005 342.674994 
L 356.001339 342.213875 
L 357.340673 342.601634 
L 360.019341 342.287235 
L 361.358675 342.454914 
L 362.698009 342.790274 
L 364.037342 342.790274 
L 365.376676 341.705595 
L 366.71601 342.376314 
L 368.055344 342.130035 
L 370.734012 341.946635 
L 372.073346 342.769314 
L 373.41268 342.748354 
L 374.752014 340.820036 
L 376.091348 341.972835 
L 377.430682 342.098595 
L 378.770016 341.915195 
L 380.10935 341.909955 
L 381.448684 342.219115 
L 382.788018 342.077635 
L 386.806019 342.318674 
L 388.145353 342.177195 
L 389.484687 342.412994 
L 390.824021 342.203395 
L 392.163355 342.381554 
L 393.502689 342.234835 
L 396.181357 342.491594 
L 397.520691 342.318674 
L 398.860025 342.407754 
L 400.199359 342.376314 
L 401.538693 342.203395 
L 402.878027 342.297715 
L 405.556694 342.208635 
L 406.896028 341.847075 
L 410.91403 342.019995 
L 412.253364 341.585075 
L 414.932032 341.469796 
L 416.271366 341.129196 
L 417.6107 341.254956 
L 418.950034 340.992956 
L 422.968036 341.013916 
L 424.307369 342.790274 
L 425.646703 338.47776 
L 426.986037 340.406077 
L 428.325371 339.698678 
L 429.664705 340.316997 
L 431.004039 340.584237 
L 433.682707 339.850638 
L 435.022041 339.840158 
L 436.361375 339.221839 
L 437.700709 339.536238 
L 439.040043 340.568517 
L 440.379377 340.510877 
L 441.718711 340.720477 
L 443.058045 339.971158 
L 444.397378 340.678557 
L 445.736712 339.981638 
L 447.076046 340.846236 
L 449.754714 340.809556 
L 451.094048 341.102996 
L 452.433382 341.045356 
L 453.772716 340.447997 
L 455.11205 340.259357 
L 456.451384 340.463717 
L 457.790718 341.008676 
L 459.130052 340.751917 
L 460.469386 341.270676 
L 461.80872 340.206957 
L 463.148054 340.526597 
L 464.487387 340.589477 
L 465.826721 340.165037 
L 467.166055 340.416557 
L 468.505389 340.421797 
L 471.184057 339.489078 
L 472.523391 338.792159 
L 473.862725 338.28912 
L 475.202059 338.655919 
L 476.541393 337.83848 
L 477.880727 337.256841 
L 479.220061 338.865519 
L 480.559395 337.461201 
L 481.898729 338.28388 
L 483.238063 336.549442 
L 484.577396 336.884802 
L 485.91673 337.82276 
L 487.256064 337.8542 
L 488.595398 335.700563 
L 489.934732 337.88564 
L 491.274066 336.381762 
L 492.6134 335.312804 
L 493.952734 337.288281 
L 495.292068 338.11096 
L 496.631402 338.750239 
L 497.970736 337.204441 
L 499.31007 337.581721 
L 501.988738 337.356401 
L 503.328072 337.141561 
L 504.667405 337.241121 
L 506.006739 336.528482 
L 508.685407 336.203603 
L 510.024741 335.994003 
L 511.364075 336.203603 
L 512.703409 336.114523 
L 514.042743 338.33104 
L 515.382077 336.664722 
L 516.721411 335.627203 
L 518.060745 336.591362 
L 519.400079 336.549442 
L 520.739413 335.857763 
L 522.078747 334.207165 
L 523.418081 337.560761 
L 524.757414 336.869082 
L 526.096748 335.097964 
L 527.436082 334.479645 
L 528.775416 334.369605 
L 530.11475 334.390565 
L 531.454084 331.702449 
L 532.793418 333.625526 
L 534.132752 332.069248 
L 535.472086 331.498089 
L 536.81142 329.360172 
L 538.150754 326.378616 
L 539.490088 326.672055 
L 540.829422 324.151619 
L 542.168756 328.930492 
L 543.50809 325.304417 
L 544.847423 327.101735 
L 546.186757 323.433739 
L 547.526091 321.641662 
L 548.865425 319.168385 
L 550.204759 325.550697 
L 551.544093 327.934894 
L 552.883427 325.996096 
L 554.222761 329.449252 
L 555.562095 325.482577 
L 556.901429 327.730534 
L 558.240763 327.075535 
L 559.580097 333.159167 
L 560.919431 331.325169 
L 562.258765 329.784611 
L 564.937432 328.181173 
L 566.276766 330.979329 
L 567.6161 329.947051 
L 568.955434 334.327685 
L 570.294768 336.628042 
L 571.634102 331.901568 
L 572.973436 332.326008 
L 574.31277 331.105089 
L 575.652104 333.127727 
L 576.991438 334.076165 
L 578.330772 333.646486 
L 579.670106 336.261243 
L 581.00944 336.297922 
L 582.348774 337.152041 
L 583.688108 335.669123 
L 585.027441 342.785034 
L 586.366775 331.461409 
L 587.706109 338.17908 
L 589.045443 338.13192 
L 591.724111 338.991279 
L 593.063445 338.13716 
L 594.402779 338.807879 
L 595.742113 338.739759 
L 597.081447 338.18432 
L 599.760115 339.515278 
L 601.099449 339.363318 
L 602.438783 339.688198 
L 603.778117 339.289958 
L 605.11745 340.400837 
L 606.456784 340.531837 
L 607.796118 340.814796 
L 609.135452 340.233157 
L 610.474786 340.709997 
L 611.81412 340.563277 
L 613.153454 339.887318 
L 614.492788 340.495157 
L 615.832122 340.626157 
L 617.171456 340.505637 
L 618.51079 340.537077 
L 619.850124 340.867196 
L 621.189458 340.327477 
L 622.528792 340.285557 
L 623.868126 340.547557 
L 625.207459 341.354516 
L 626.546793 341.244476 
L 627.886127 340.500397 
L 629.225461 340.772877 
L 630.564795 340.620917 
L 631.904129 340.337957 
L 633.243463 339.897798 
L 634.582797 340.358917 
L 635.922131 340.191237 
L 637.261465 340.432277 
L 638.600799 340.018318 
L 639.940133 340.049757 
L 641.279467 339.630558 
L 642.618801 340.013078 
L 643.958135 340.065477 
L 645.297468 340.364157 
L 649.31547 339.782518 
L 650.654804 340.060237 
L 651.994138 339.572918 
L 653.333472 340.725717 
L 654.672806 340.102157 
L 656.01214 340.552797 
L 657.351474 340.028798 
L 658.690808 332.273608 
L 660.030142 338.2734 
L 661.369476 339.410478 
L 662.70881 339.578158 
L 664.048144 339.950198 
L 665.387477 339.583398 
L 666.726811 338.750239 
L 669.405479 338.671639 
L 670.744813 338.37296 
L 672.084147 339.698678 
L 673.423481 339.347598 
L 674.762815 336.125003 
L 676.102149 341.459316 
L 677.441483 353.2755 
L 678.780817 338.52492 
L 680.120151 338.655919 
L 681.459485 340.610437 
L 682.798819 337.738921 
L 684.138153 339.232319 
L 685.477486 336.449882 
L 686.81682 339.117039 
L 688.156154 339.321398 
L 690.834822 338.886479 
L 693.51349 340.280317 
L 694.852824 340.065477 
L 697.531492 339.033199 
L 698.870826 339.132759 
L 700.21016 338.834079 
L 701.549494 339.169439 
L 702.888828 340.096917 
L 704.228162 339.840158 
L 705.567495 339.310918 
L 706.906829 338.608759 
L 708.246163 339.242799 
L 709.585497 338.996519 
L 710.924831 338.0638 
L 712.264165 338.907439 
L 713.603499 339.164199 
L 716.282167 338.11096 
L 717.621501 339.111799 
L 718.960835 339.923998 
L 720.300169 339.583398 
L 721.639503 339.101319 
L 722.978837 339.520518 
L 724.318171 338.41488 
L 725.657505 338.760719 
L 726.996838 342.785034 
L 728.336172 334.977444 
L 729.675506 338.2472 
L 731.01484 338.802639 
L 732.354174 338.545879 
L 733.693508 342.774554 
L 735.032842 332.310288 
L 736.372176 337.429761 
L 737.71151 339.242799 
L 739.050844 338.21052 
L 740.390178 337.9066 
L 741.729512 337.93804 
L 743.068846 336.261243 
L 744.40818 335.690083 
L 745.747514 337.80704 
L 747.086847 337.157281 
L 749.765515 338.40964 
L 751.104849 337.99044 
L 752.444183 337.073441 
L 755.122851 335.705803 
L 756.462185 338.844559 
L 759.140853 337.89088 
L 760.480187 338.619239 
L 761.819521 337.152041 
L 763.158855 336.895282 
L 764.498189 337.534561 
L 765.837523 337.319721 
L 767.176856 337.770361 
L 768.51619 338.36772 
L 769.855524 338.01664 
L 771.194858 337.78084 
L 772.534192 337.361641 
L 773.873526 337.89088 
L 775.21286 339.661998 
L 776.552194 338.31008 
L 777.891528 340.379877 
L 779.230862 340.799077 
L 780.570196 338.02712 
L 781.90953 340.290797 
L 783.248864 340.599957 
L 784.588198 340.489917 
L 785.927532 341.134436 
L 787.266865 341.543156 
L 788.606199 341.600795 
L 789.945533 340.940556 
L 791.284867 341.050596 
L 792.624201 341.716075 
L 793.963535 341.511716 
L 796.642203 341.999035 
L 797.981537 341.967595 
L 799.320871 341.616515 
L 800.660205 341.883755 
L 801.999539 341.626995 
L 806.017541 341.999035 
L 808.696208 341.003436 
L 810.035542 340.290797 
L 811.374876 341.082036 
L 812.71421 340.432277 
L 815.392878 341.003436 
L 816.732212 339.903038 
L 818.071546 339.127519 
L 819.41088 339.268999 
L 820.750214 339.861118 
L 822.089548 339.955438 
L 823.428882 339.462878 
L 826.10755 337.157281 
L 827.446883 336.449882 
L 828.786217 336.774762 
L 830.125551 337.691761 
L 831.464885 337.340681 
L 832.804219 339.379038 
L 834.143553 338.31008 
L 835.482887 338.44108 
L 836.822221 338.28912 
L 838.161555 338.51968 
L 839.500889 339.080359 
L 840.840223 338.781679 
L 842.179557 339.399998 
L 843.518891 338.744999 
L 844.858225 339.813958 
L 846.197559 335.973043 
L 847.536892 338.2996 
L 848.876226 337.089161 
L 850.21556 338.907439 
L 851.554894 338.08476 
L 852.894228 338.676879 
L 854.233562 338.49348 
L 855.572896 337.9066 
L 856.91223 337.82276 
L 858.251564 338.21052 
L 859.590898 337.79132 
L 860.930232 338.45156 
L 862.269566 337.8542 
L 863.6089 337.503121 
L 864.948234 336.628042 
L 867.626901 337.256841 
L 868.966235 337.9328 
L 870.305569 338.33628 
L 871.644903 337.738921 
L 872.984237 338.10048 
L 874.323571 336.455122 
L 875.662905 337.560761 
L 877.002239 337.89612 
L 878.341573 337.414041 
L 879.680907 339.017479 
L 881.020241 338.687359 
L 882.359575 335.742483 
L 883.698909 337.592201 
L 885.038243 337.618401 
L 887.71691 338.1948 
L 889.056244 338.902199 
L 890.395578 338.797399 
L 891.734912 338.36248 
L 893.074246 338.42012 
L 894.41358 339.127519 
L 895.752914 339.137999 
L 897.092248 340.463717 
L 898.431582 339.410478 
L 899.770916 340.348437 
L 901.11025 340.379877 
L 903.788918 339.667238 
L 905.128252 339.819198 
L 906.467586 340.709997 
L 907.806919 340.489917 
L 909.146253 341.401676 
L 910.485587 340.468957 
L 911.824921 340.699517 
L 913.164255 341.087276 
L 915.842923 341.003436 
L 917.182257 341.427876 
L 918.521591 341.344036 
L 919.860925 340.767637 
L 922.539593 340.893396 
L 923.878927 340.662837 
L 925.218261 340.825276 
L 926.557595 340.840996 
L 927.896928 341.019156 
L 929.236262 340.296037 
L 930.575596 339.829678 
L 931.91493 340.447997 
L 934.593598 340.390357 
L 935.932932 340.788597 
L 937.272266 340.799077 
L 938.6116 340.165037 
L 939.950934 339.761558 
L 941.290268 339.557198 
L 942.629602 339.064639 
L 945.30827 339.939718 
L 946.647604 339.724878 
L 947.986937 339.625318 
L 949.326271 338.572079 
L 950.665605 338.713559 
L 952.004939 339.027959 
L 953.344273 338.844559 
L 954.683607 339.599118 
L 956.022941 338.849799 
L 957.362275 338.650679 
L 958.701609 336.821922 
L 960.040943 335.857763 
L 961.380277 335.857763 
L 962.719611 335.711043 
L 964.058945 335.312804 
L 965.398279 335.318044 
L 966.737613 335.569563 
L 968.076946 332.614207 
L 969.41628 332.273608 
L 973.434282 334.432485 
L 974.773616 334.746885 
L 976.11295 331.943488 
L 977.452284 331.917288 
L 978.791618 328.537493 
L 980.130952 330.64397 
L 981.470286 331.550489 
L 982.80962 329.978491 
L 984.148954 330.37673 
L 985.488288 328.820452 
L 986.827622 326.520095 
L 988.166955 331.519049 
L 989.506289 318.722986 
L 990.845623 326.687775 
L 992.184957 325.713136 
L 993.524291 323.16126 
L 994.863625 321.929861 
L 996.202959 322.039901 
L 997.542293 321.416342 
L 998.881627 321.180542 
L 1000.220961 322.70538 
L 1001.560295 324.895698 
L 1002.899629 322.8259 
L 1004.238963 320.059184 
L 1005.578297 319.288905 
L 1006.917631 319.508985 
L 1008.256964 320.949983 
L 1009.596298 323.17174 
L 1010.935632 319.802424 
L 1012.274966 319.220785 
L 1013.6143 320.672263 
L 1014.953634 315.63663 
L 1016.292968 317.491587 
L 1017.632302 318.450506 
L 1018.971636 320.127304 
L 1020.31097 326.305256 
L 1021.650304 304.926084 
L 1022.989638 308.929439 
L 1025.668306 305.633483 
L 1027.00764 307.88144 
L 1028.346973 313.210513 
L 1029.686307 310.805356 
L 1031.025641 301.472929 
L 1032.364975 298.889612 
L 1033.704309 296.604975 
L 1035.043643 290.290783 
L 1036.382977 283.117233 
L 1037.722311 297.757773 
L 1039.061645 299.256411 
L 1040.400979 289.960664 
L 1041.740313 234.663017 
L 1043.079647 271.007609 
L 1044.418981 276.237122 
L 1045.758315 283.552152 
L 1047.097649 342.633074 
L 1048.436982 342.769314 
L 1049.776316 126.881599 
L 1051.11565 273.983925 
L 1052.454984 219.571837 
L 1053.794318 228.600345 
L 1055.133652 244.823363 
L 1056.472986 231.691941 
L 1057.81232 300.985609 
L 1059.151654 293.628659 
L 1060.490988 208.877011 
L 1061.830322 192.077593 
L 1063.169656 206.576654 
L 1064.50899 244.005925 
L 1065.848324 274.188285 
L 1067.187658 234.856897 
L 1068.526991 264.766777 
L 1069.866325 221.526354 
L 1071.205659 209.43769 
L 1072.544993 202.562819 
L 1073.884327 217.01472 
L 1075.223661 209.44817 
L 1077.902329 189.001717 
L 1079.241663 159.458636 
L 1080.580997 135.192228 
L 1081.920331 128.642237 
L 1083.259665 90.007768 
L 1084.598999 149.890409 
L 1085.938333 119.901929 
L 1087.277667 126.84492 
L 1088.617 92.800685 
L 1089.956334 92.659205 
L 1091.295668 70.305394 
L 1092.635002 60.726687 
L 1093.974336 120.682688 
L 1095.31367 150.393448 
L 1096.653004 187.398279 
L 1097.992338 98.585637 
L 1099.331672 50.8755 
L 1100.671006 110.506621 
L 1103.349674 137.434946 
L 1104.689008 145.714135 
L 1106.028342 158.054318 
L 1107.367676 74.177749 
L 1108.707009 53.836096 
L 1110.046343 57.509331 
L 1112.725011 106.629026 
L 1114.064345 140.379822 
L 1115.403679 186.465561 
L 1116.743013 112.466379 
L 1118.082347 114.599056 
L 1119.421681 129.795036 
L 1120.761015 153.118245 
L 1122.100349 168.277545 
L 1123.439683 203.186379 
L 1124.779017 191.359714 
L 1126.118351 182.739926 
L 1127.457685 186.140681 
L 1128.797018 208.976571 
L 1130.136352 221.133355 
L 1131.475686 251.829234 
L 1132.81502 253.181152 
L 1134.154354 255.869269 
L 1136.833022 234.086618 
L 1138.172356 342.690714 
L 1139.51169 166.349227 
L 1140.851024 260.338983 
L 1142.190358 286.056869 
L 1143.529692 278.710399 
L 1144.869026 261.622781 
L 1146.20836 253.893791 
L 1147.547694 267.722133 
L 1148.887027 270.30545 
L 1150.226361 305.633483 
L 1151.565695 307.9024 
L 1152.905029 301.315729 
L 1154.244363 290.584223 
L 1155.583697 292.5335 
L 1156.923031 299.088732 
L 1158.262365 304.920844 
L 1159.601699 309.505838 
L 1160.941033 316.674148 
L 1162.280367 315.37987 
L 1163.619701 303.930485 
L 1164.959035 309.820237 
L 1166.298369 314.447151 
L 1167.637703 313.069033 
L 1168.977036 320.143024 
L 1170.31637 325.189137 
L 1171.655704 325.121017 
L 1172.995038 319.231265 
L 1174.334372 319.676664 
L 1175.673706 322.191861 
L 1177.01304 327.070295 
L 1178.352374 327.845814 
L 1179.691708 331.891088 
L 1181.031042 330.91645 
L 1182.370376 325.168177 
L 1183.70971 325.948936 
L 1185.049044 328.396013 
L 1186.388378 328.747092 
L 1187.727712 329.915611 
L 1189.067045 333.767006 
L 1190.406379 333.332086 
L 1191.745713 328.731372 
L 1193.085047 330.96361 
L 1194.424381 330.95313 
L 1195.763715 335.208004 
L 1197.103049 335.401884 
L 1198.442383 334.369605 
L 1199.781717 342.790274 
L 1201.121051 326.991695 
L 1202.460385 330.47105 
L 1203.799719 332.090208 
L 1205.139053 334.228125 
L 1206.478387 335.716283 
L 1207.817721 337.524081 
L 1209.157054 337.639361 
L 1210.496388 335.014124 
L 1211.835722 336.465602 
L 1213.175056 337.089161 
L 1214.51439 337.86468 
L 1215.853724 337.89612 
L 1217.193058 339.274239 
L 1218.532392 338.703079 
L 1219.871726 337.586961 
L 1221.21106 337.749401 
L 1222.550394 338.221 
L 1225.229062 337.97472 
L 1226.568396 339.777278 
L 1227.90773 339.740598 
L 1229.247063 337.534561 
L 1230.586397 338.33628 
L 1231.925731 338.902199 
L 1233.265065 338.781679 
L 1234.604399 340.552797 
L 1237.283067 339.803478 
L 1238.622401 338.582559 
L 1241.301069 339.310918 
L 1242.640403 342.790274 
L 1246.658405 342.790274 
L 1247.997739 329.402092 
L 1249.337072 339.787758 
L 1250.676406 340.044518 
L 1252.01574 341.186836 
L 1253.355074 340.337957 
L 1254.694408 342.790274 
L 1256.033742 338.566839 
L 1257.373076 339.059399 
L 1260.051744 339.693438 
L 1261.391078 339.934478 
L 1262.730412 342.790274 
L 1265.40908 342.790274 
L 1266.748414 332.378408 
L 1268.087748 338.04284 
L 1270.766415 338.02712 
L 1272.105749 342.790274 
L 1273.445083 342.790274 
L 1274.784417 330.072811 
L 1276.123751 336.717122 
L 1277.463085 336.476082 
L 1278.802419 336.387002 
L 1280.141753 336.533722 
L 1281.481087 342.790274 
L 1282.820421 342.790274 
L 1284.159755 325.854616 
L 1285.499089 331.571449 
L 1288.177757 333.536446 
L 1289.51709 335.181804 
L 1290.856424 342.790274 
L 1292.195758 342.790274 
L 1293.535092 325.566417 
L 1294.874426 327.950613 
L 1296.21376 330.56537 
L 1297.553094 331.440449 
L 1298.892428 333.410686 
L 1300.231762 342.790274 
L 1301.571096 342.790274 
L 1302.91043 322.170901 
L 1304.249764 327.589054 
L 1305.589098 328.254533 
L 1306.928432 328.789012 
L 1306.928432 328.789012 
" clip-path="url(#pe1b3479790)" style="fill: none; stroke: #0000ff; stroke-width: 1.5; stroke-linecap: square"/>
   </g>
   <g id="line2d_19">
    <path d="M 1067.187658 222.251849 
L 1068.526991 233.207075 
L 1069.866325 220.538289 
L 1071.205659 221.29666 
L 1072.544993 225.789241 
L 1073.884327 233.509141 
L 1075.223661 225.545144 
L 1076.562995 203.819319 
L 1079.241663 169.102746 
L 1080.580997 158.392405 
L 1081.920331 157.816821 
L 1083.259665 138.706089 
L 1084.598999 140.5985 
L 1085.938333 123.525258 
L 1087.277667 110.676729 
L 1088.617 94.207302 
L 1089.956334 92.856494 
L 1091.295668 81.935215 
L 1092.635002 90.963644 
L 1093.974336 93.30963 
L 1095.31367 109.08877 
L 1096.653004 120.441319 
L 1097.992338 106.705202 
L 1099.331672 81.538859 
L 1100.671006 87.707972 
L 1102.01034 123.938261 
L 1103.349674 130.690335 
L 1104.689008 141.922244 
L 1106.028342 117.713196 
L 1107.367676 87.93182 
L 1108.707009 86.31645 
L 1110.046343 76.97716 
L 1111.385677 95.87457 
L 1112.725011 102.732367 
L 1114.064345 122.279964 
L 1115.403679 107.890825 
L 1116.743013 96.236435 
L 1119.421681 122.878289 
L 1120.761015 149.003553 
L 1122.100349 165.310313 
L 1123.439683 192.893044 
L 1124.779017 153.577004 
L 1126.118351 156.434348 
L 1127.457685 174.43742 
L 1130.136352 217.166883 
L 1131.475686 242.957645 
L 1132.81502 252.299 
L 1134.154354 228.618595 
L 1135.493688 230.653574 
L 1136.833022 241.575341 
L 1138.172356 285.117744 
L 1139.51169 258.010465 
L 1140.851024 267.208083 
L 1142.190358 277.834316 
L 1143.529692 260.811197 
L 1144.869026 256.552123 
L 1146.20836 286.234402 
L 1147.547694 244.167292 
L 1148.887027 283.436148 
L 1150.226361 302.06133 
L 1151.565695 304.802624 
L 1152.905029 289.40639 
L 1154.244363 285.35652 
L 1155.583697 309.155656 
L 1156.923031 285.154703 
L 1158.262365 317.988952 
L 1159.601699 321.951752 
L 1160.941033 319.001399 
L 1162.280367 306.881333 
L 1163.619701 303.648186 
L 1164.959035 319.907141 
L 1166.298369 307.206578 
L 1167.637703 325.642498 
L 1168.977036 329.45823 
L 1170.31637 327.010523 
L 1171.655704 317.300329 
L 1172.995038 318.020204 
L 1174.334372 328.000278 
L 1175.673706 319.260223 
L 1177.01304 333.310033 
L 1178.352374 335.946224 
L 1179.691708 333.942545 
L 1181.031042 326.174066 
L 1182.370376 325.945404 
L 1183.70971 332.082781 
L 1185.049044 327.935375 
L 1186.388378 335.090136 
L 1187.727712 336.893187 
L 1189.067045 335.225978 
L 1190.406379 329.27185 
L 1191.745713 329.330859 
L 1193.085047 334.091897 
L 1194.424381 331.378428 
L 1195.763715 337.051219 
L 1197.103049 339.492074 
L 1201.121051 332.852087 
L 1202.460385 334.491083 
L 1203.799719 333.665106 
L 1205.139053 336.466641 
L 1206.478387 337.750673 
L 1207.817721 339.334134 
L 1209.157054 332.640103 
L 1210.496388 334.652469 
L 1211.835722 337.119103 
L 1213.175056 337.603579 
L 1214.51439 339.573682 
L 1217.193058 340.955187 
L 1218.532392 335.950351 
L 1219.871726 337.551287 
L 1221.21106 338.843785 
L 1222.550394 339.092417 
L 1223.889728 339.87503 
L 1225.229062 340.305801 
L 1226.568396 340.582275 
L 1227.90773 337.532775 
L 1229.247063 338.175076 
L 1230.586397 339.059875 
L 1231.925731 339.259345 
L 1233.265065 339.710244 
L 1234.604399 341.06379 
L 1235.943733 341.033936 
L 1237.283067 338.463482 
L 1239.961735 339.620461 
L 1241.301069 339.63152 
L 1242.640403 341.506399 
L 1243.979737 342.505947 
L 1245.319071 342.658217 
L 1246.658405 341.155039 
L 1247.997739 337.434499 
L 1250.676406 340.045521 
L 1252.01574 340.89638 
L 1253.355074 341.02235 
L 1254.694408 341.669448 
L 1256.033742 336.596052 
L 1257.373076 340.069373 
L 1258.71241 340.162323 
L 1260.051744 340.767141 
L 1261.391078 340.544209 
L 1262.730412 342.079597 
L 1264.069746 341.374346 
L 1265.40908 339.620219 
L 1266.748414 338.702703 
L 1268.087748 338.726577 
L 1270.766415 339.338799 
L 1272.105749 340.987673 
L 1273.445083 341.050878 
L 1274.784417 333.483941 
L 1276.123751 336.869504 
L 1277.463085 336.8718 
L 1278.802419 337.001854 
L 1280.141753 338.333665 
L 1281.481087 340.151914 
L 1282.820421 337.82473 
L 1284.159755 332.945466 
L 1285.499089 333.738392 
L 1286.838423 333.373954 
L 1288.177757 333.638402 
L 1289.51709 336.493558 
L 1290.856424 338.848441 
L 1292.195758 334.423987 
L 1293.535092 332.219954 
L 1294.874426 331.694 
L 1296.21376 331.560031 
L 1297.553094 332.014004 
L 1298.892428 335.611683 
L 1300.231762 338.21155 
L 1301.571096 332.432461 
L 1302.91043 329.911234 
L 1304.249764 330.266746 
L 1305.589098 329.913073 
L 1306.928432 330.260095 
L 1306.928432 330.260095 
" clip-path="url(#pe1b3479790)" style="fill: none; stroke: #ffa500; stroke-width: 1.5; stroke-linecap: square"/>
   </g>
   <g id="line2d_20">
    <path d="M 1306.928432 330.260095 
L 1308.267766 334.243745 
L 1309.607099 334.289831 
L 1310.946433 325.194674 
L 1312.285767 327.067895 
L 1313.625101 327.908792 
L 1314.964435 328.235601 
L 1316.303769 329.007361 
L 1317.643103 332.273835 
L 1318.982437 332.308019 
L 1320.321771 324.838285 
L 1321.661105 326.372338 
L 1323.000439 327.058971 
L 1324.339773 327.323596 
" clip-path="url(#pe1b3479790)" style="fill: none; stroke: #ff0000; stroke-width: 1.5; stroke-linecap: square"/>
   </g>
   <g id="patch_3">
    <path d="M 46.0125 368.3955 
L 46.0125 35.7555 
" style="fill: none; stroke: #000000; stroke-width: 0.8; stroke-linejoin: miter; stroke-linecap: square"/>
   </g>
   <g id="patch_4">
    <path d="M 1385.2125 368.3955 
L 1385.2125 35.7555 
" style="fill: none; stroke: #000000; stroke-width: 0.8; stroke-linejoin: miter; stroke-linecap: square"/>
   </g>
   <g id="patch_5">
    <path d="M 46.0125 368.3955 
L 1385.2125 368.3955 
" style="fill: none; stroke: #000000; stroke-width: 0.8; stroke-linejoin: miter; stroke-linecap: square"/>
   </g>
   <g id="patch_6">
    <path d="M 46.0125 35.7555 
L 1385.2125 35.7555 
" style="fill: none; stroke: #000000; stroke-width: 0.8; stroke-linejoin: miter; stroke-linecap: square"/>
   </g>
   <g id="text_18">
    <!-- Daily Confirmed Cases Forecasting - Denmark -->
    <g transform="translate(577.535625 16.318125)scale(0.12 -0.12)">
     <defs>
      <path id="DejaVuSans-44" d="M 1259 4147 
L 1259 519 
L 2022 519 
Q 2988 519 3436 956 
Q 3884 1394 3884 2338 
Q 3884 3275 3436 3711 
Q 2988 4147 2022 4147 
L 1259 4147 
z
M 628 4666 
L 1925 4666 
Q 3281 4666 3915 4102 
Q 4550 3538 4550 2338 
Q 4550 1131 3912 565 
Q 3275 0 1925 0 
L 628 0 
L 628 4666 
z
" transform="scale(0.015625)"/>
      <path id="DejaVuSans-61" d="M 2194 1759 
Q 1497 1759 1228 1600 
Q 959 1441 959 1056 
Q 959 750 1161 570 
Q 1363 391 1709 391 
Q 2188 391 2477 730 
Q 2766 1069 2766 1631 
L 2766 1759 
L 2194 1759 
z
M 3341 1997 
L 3341 0 
L 2766 0 
L 2766 531 
Q 2569 213 2275 61 
Q 1981 -91 1556 -91 
Q 1019 -91 701 211 
Q 384 513 384 1019 
Q 384 1609 779 1909 
Q 1175 2209 1959 2209 
L 2766 2209 
L 2766 2266 
Q 2766 2663 2505 2880 
Q 2244 3097 1772 3097 
Q 1472 3097 1187 3025 
Q 903 2953 641 2809 
L 641 3341 
Q 956 3463 1253 3523 
Q 1550 3584 1831 3584 
Q 2591 3584 2966 3190 
Q 3341 2797 3341 1997 
z
" transform="scale(0.015625)"/>
      <path id="DejaVuSans-69" d="M 603 3500 
L 1178 3500 
L 1178 0 
L 603 0 
L 603 3500 
z
M 603 4863 
L 1178 4863 
L 1178 4134 
L 603 4134 
L 603 4863 
z
" transform="scale(0.015625)"/>
      <path id="DejaVuSans-6c" d="M 603 4863 
L 1178 4863 
L 1178 0 
L 603 0 
L 603 4863 
z
" transform="scale(0.015625)"/>
      <path id="DejaVuSans-79" d="M 2059 -325 
Q 1816 -950 1584 -1140 
Q 1353 -1331 966 -1331 
L 506 -1331 
L 506 -850 
L 844 -850 
Q 1081 -850 1212 -737 
Q 1344 -625 1503 -206 
L 1606 56 
L 191 3500 
L 800 3500 
L 1894 763 
L 2988 3500 
L 3597 3500 
L 2059 -325 
z
" transform="scale(0.015625)"/>
      <path id="DejaVuSans-20" transform="scale(0.015625)"/>
      <path id="DejaVuSans-43" d="M 4122 4306 
L 4122 3641 
Q 3803 3938 3442 4084 
Q 3081 4231 2675 4231 
Q 1875 4231 1450 3742 
Q 1025 3253 1025 2328 
Q 1025 1406 1450 917 
Q 1875 428 2675 428 
Q 3081 428 3442 575 
Q 3803 722 4122 1019 
L 4122 359 
Q 3791 134 3420 21 
Q 3050 -91 2638 -91 
Q 1578 -91 968 557 
Q 359 1206 359 2328 
Q 359 3453 968 4101 
Q 1578 4750 2638 4750 
Q 3056 4750 3426 4639 
Q 3797 4528 4122 4306 
z
" transform="scale(0.015625)"/>
      <path id="DejaVuSans-6f" d="M 1959 3097 
Q 1497 3097 1228 2736 
Q 959 2375 959 1747 
Q 959 1119 1226 758 
Q 1494 397 1959 397 
Q 2419 397 2687 759 
Q 2956 1122 2956 1747 
Q 2956 2369 2687 2733 
Q 2419 3097 1959 3097 
z
M 1959 3584 
Q 2709 3584 3137 3096 
Q 3566 2609 3566 1747 
Q 3566 888 3137 398 
Q 2709 -91 1959 -91 
Q 1206 -91 779 398 
Q 353 888 353 1747 
Q 353 2609 779 3096 
Q 1206 3584 1959 3584 
z
" transform="scale(0.015625)"/>
      <path id="DejaVuSans-6e" d="M 3513 2113 
L 3513 0 
L 2938 0 
L 2938 2094 
Q 2938 2591 2744 2837 
Q 2550 3084 2163 3084 
Q 1697 3084 1428 2787 
Q 1159 2491 1159 1978 
L 1159 0 
L 581 0 
L 581 3500 
L 1159 3500 
L 1159 2956 
Q 1366 3272 1645 3428 
Q 1925 3584 2291 3584 
Q 2894 3584 3203 3211 
Q 3513 2838 3513 2113 
z
" transform="scale(0.015625)"/>
      <path id="DejaVuSans-66" d="M 2375 4863 
L 2375 4384 
L 1825 4384 
Q 1516 4384 1395 4259 
Q 1275 4134 1275 3809 
L 1275 3500 
L 2222 3500 
L 2222 3053 
L 1275 3053 
L 1275 0 
L 697 0 
L 697 3053 
L 147 3053 
L 147 3500 
L 697 3500 
L 697 3744 
Q 697 4328 969 4595 
Q 1241 4863 1831 4863 
L 2375 4863 
z
" transform="scale(0.015625)"/>
      <path id="DejaVuSans-72" d="M 2631 2963 
Q 2534 3019 2420 3045 
Q 2306 3072 2169 3072 
Q 1681 3072 1420 2755 
Q 1159 2438 1159 1844 
L 1159 0 
L 581 0 
L 581 3500 
L 1159 3500 
L 1159 2956 
Q 1341 3275 1631 3429 
Q 1922 3584 2338 3584 
Q 2397 3584 2469 3576 
Q 2541 3569 2628 3553 
L 2631 2963 
z
" transform="scale(0.015625)"/>
      <path id="DejaVuSans-6d" d="M 3328 2828 
Q 3544 3216 3844 3400 
Q 4144 3584 4550 3584 
Q 5097 3584 5394 3201 
Q 5691 2819 5691 2113 
L 5691 0 
L 5113 0 
L 5113 2094 
Q 5113 2597 4934 2840 
Q 4756 3084 4391 3084 
Q 3944 3084 3684 2787 
Q 3425 2491 3425 1978 
L 3425 0 
L 2847 0 
L 2847 2094 
Q 2847 2600 2669 2842 
Q 2491 3084 2119 3084 
Q 1678 3084 1418 2786 
Q 1159 2488 1159 1978 
L 1159 0 
L 581 0 
L 581 3500 
L 1159 3500 
L 1159 2956 
Q 1356 3278 1631 3431 
Q 1906 3584 2284 3584 
Q 2666 3584 2933 3390 
Q 3200 3197 3328 2828 
z
" transform="scale(0.015625)"/>
      <path id="DejaVuSans-65" d="M 3597 1894 
L 3597 1613 
L 953 1613 
Q 991 1019 1311 708 
Q 1631 397 2203 397 
Q 2534 397 2845 478 
Q 3156 559 3463 722 
L 3463 178 
Q 3153 47 2828 -22 
Q 2503 -91 2169 -91 
Q 1331 -91 842 396 
Q 353 884 353 1716 
Q 353 2575 817 3079 
Q 1281 3584 2069 3584 
Q 2775 3584 3186 3129 
Q 3597 2675 3597 1894 
z
M 3022 2063 
Q 3016 2534 2758 2815 
Q 2500 3097 2075 3097 
Q 1594 3097 1305 2825 
Q 1016 2553 972 2059 
L 3022 2063 
z
" transform="scale(0.015625)"/>
      <path id="DejaVuSans-64" d="M 2906 2969 
L 2906 4863 
L 3481 4863 
L 3481 0 
L 2906 0 
L 2906 525 
Q 2725 213 2448 61 
Q 2172 -91 1784 -91 
Q 1150 -91 751 415 
Q 353 922 353 1747 
Q 353 2572 751 3078 
Q 1150 3584 1784 3584 
Q 2172 3584 2448 3432 
Q 2725 3281 2906 2969 
z
M 947 1747 
Q 947 1113 1208 752 
Q 1469 391 1925 391 
Q 2381 391 2643 752 
Q 2906 1113 2906 1747 
Q 2906 2381 2643 2742 
Q 2381 3103 1925 3103 
Q 1469 3103 1208 2742 
Q 947 2381 947 1747 
z
" transform="scale(0.015625)"/>
      <path id="DejaVuSans-73" d="M 2834 3397 
L 2834 2853 
Q 2591 2978 2328 3040 
Q 2066 3103 1784 3103 
Q 1356 3103 1142 2972 
Q 928 2841 928 2578 
Q 928 2378 1081 2264 
Q 1234 2150 1697 2047 
L 1894 2003 
Q 2506 1872 2764 1633 
Q 3022 1394 3022 966 
Q 3022 478 2636 193 
Q 2250 -91 1575 -91 
Q 1294 -91 989 -36 
Q 684 19 347 128 
L 347 722 
Q 666 556 975 473 
Q 1284 391 1588 391 
Q 1994 391 2212 530 
Q 2431 669 2431 922 
Q 2431 1156 2273 1281 
Q 2116 1406 1581 1522 
L 1381 1569 
Q 847 1681 609 1914 
Q 372 2147 372 2553 
Q 372 3047 722 3315 
Q 1072 3584 1716 3584 
Q 2034 3584 2315 3537 
Q 2597 3491 2834 3397 
z
" transform="scale(0.015625)"/>
      <path id="DejaVuSans-46" d="M 628 4666 
L 3309 4666 
L 3309 4134 
L 1259 4134 
L 1259 2759 
L 3109 2759 
L 3109 2228 
L 1259 2228 
L 1259 0 
L 628 0 
L 628 4666 
z
" transform="scale(0.015625)"/>
      <path id="DejaVuSans-63" d="M 3122 3366 
L 3122 2828 
Q 2878 2963 2633 3030 
Q 2388 3097 2138 3097 
Q 1578 3097 1268 2742 
Q 959 2388 959 1747 
Q 959 1106 1268 751 
Q 1578 397 2138 397 
Q 2388 397 2633 464 
Q 2878 531 3122 666 
L 3122 134 
Q 2881 22 2623 -34 
Q 2366 -91 2075 -91 
Q 1284 -91 818 406 
Q 353 903 353 1747 
Q 353 2603 823 3093 
Q 1294 3584 2113 3584 
Q 2378 3584 2631 3529 
Q 2884 3475 3122 3366 
z
" transform="scale(0.015625)"/>
      <path id="DejaVuSans-74" d="M 1172 4494 
L 1172 3500 
L 2356 3500 
L 2356 3053 
L 1172 3053 
L 1172 1153 
Q 1172 725 1289 603 
Q 1406 481 1766 481 
L 2356 481 
L 2356 0 
L 1766 0 
Q 1100 0 847 248 
Q 594 497 594 1153 
L 594 3053 
L 172 3053 
L 172 3500 
L 594 3500 
L 594 4494 
L 1172 4494 
z
" transform="scale(0.015625)"/>
      <path id="DejaVuSans-67" d="M 2906 1791 
Q 2906 2416 2648 2759 
Q 2391 3103 1925 3103 
Q 1463 3103 1205 2759 
Q 947 2416 947 1791 
Q 947 1169 1205 825 
Q 1463 481 1925 481 
Q 2391 481 2648 825 
Q 2906 1169 2906 1791 
z
M 3481 434 
Q 3481 -459 3084 -895 
Q 2688 -1331 1869 -1331 
Q 1566 -1331 1297 -1286 
Q 1028 -1241 775 -1147 
L 775 -588 
Q 1028 -725 1275 -790 
Q 1522 -856 1778 -856 
Q 2344 -856 2625 -561 
Q 2906 -266 2906 331 
L 2906 616 
Q 2728 306 2450 153 
Q 2172 0 1784 0 
Q 1141 0 747 490 
Q 353 981 353 1791 
Q 353 2603 747 3093 
Q 1141 3584 1784 3584 
Q 2172 3584 2450 3431 
Q 2728 3278 2906 2969 
L 2906 3500 
L 3481 3500 
L 3481 434 
z
" transform="scale(0.015625)"/>
      <path id="DejaVuSans-6b" d="M 581 4863 
L 1159 4863 
L 1159 1991 
L 2875 3500 
L 3609 3500 
L 1753 1863 
L 3688 0 
L 2938 0 
L 1159 1709 
L 1159 0 
L 581 0 
L 581 4863 
z
" transform="scale(0.015625)"/>
     </defs>
     <use xlink:href="#DejaVuSans-44"/>
     <use xlink:href="#DejaVuSans-61" x="77.001953"/>
     <use xlink:href="#DejaVuSans-69" x="138.28125"/>
     <use xlink:href="#DejaVuSans-6c" x="166.064453"/>
     <use xlink:href="#DejaVuSans-79" x="193.847656"/>
     <use xlink:href="#DejaVuSans-20" x="253.027344"/>
     <use xlink:href="#DejaVuSans-43" x="284.814453"/>
     <use xlink:href="#DejaVuSans-6f" x="354.638672"/>
     <use xlink:href="#DejaVuSans-6e" x="415.820312"/>
     <use xlink:href="#DejaVuSans-66" x="479.199219"/>
     <use xlink:href="#DejaVuSans-69" x="514.404297"/>
     <use xlink:href="#DejaVuSans-72" x="542.1875"/>
     <use xlink:href="#DejaVuSans-6d" x="581.550781"/>
     <use xlink:href="#DejaVuSans-65" x="678.962891"/>
     <use xlink:href="#DejaVuSans-64" x="740.486328"/>
     <use xlink:href="#DejaVuSans-20" x="803.962891"/>
     <use xlink:href="#DejaVuSans-43" x="835.75"/>
     <use xlink:href="#DejaVuSans-61" x="905.574219"/>
     <use xlink:href="#DejaVuSans-73" x="966.853516"/>
     <use xlink:href="#DejaVuSans-65" x="1018.953125"/>
     <use xlink:href="#DejaVuSans-73" x="1080.476562"/>
     <use xlink:href="#DejaVuSans-20" x="1132.576172"/>
     <use xlink:href="#DejaVuSans-46" x="1164.363281"/>
     <use xlink:href="#DejaVuSans-6f" x="1218.257812"/>
     <use xlink:href="#DejaVuSans-72" x="1279.439453"/>
     <use xlink:href="#DejaVuSans-65" x="1318.302734"/>
     <use xlink:href="#DejaVuSans-63" x="1379.826172"/>
     <use xlink:href="#DejaVuSans-61" x="1434.806641"/>
     <use xlink:href="#DejaVuSans-73" x="1496.085938"/>
     <use xlink:href="#DejaVuSans-74" x="1548.185547"/>
     <use xlink:href="#DejaVuSans-69" x="1587.394531"/>
     <use xlink:href="#DejaVuSans-6e" x="1615.177734"/>
     <use xlink:href="#DejaVuSans-67" x="1678.556641"/>
     <use xlink:href="#DejaVuSans-20" x="1742.033203"/>
     <use xlink:href="#DejaVuSans-2d" x="1773.820312"/>
     <use xlink:href="#DejaVuSans-20" x="1809.904297"/>
     <use xlink:href="#DejaVuSans-44" x="1841.691406"/>
     <use xlink:href="#DejaVuSans-65" x="1918.693359"/>
     <use xlink:href="#DejaVuSans-6e" x="1980.216797"/>
     <use xlink:href="#DejaVuSans-6d" x="2043.595703"/>
     <use xlink:href="#DejaVuSans-61" x="2141.007812"/>
     <use xlink:href="#DejaVuSans-72" x="2202.287109"/>
     <use xlink:href="#DejaVuSans-6b" x="2243.400391"/>
    </g>
    <!-- ARIMA (0, 1, 1)x(1, 0, 1, 7) (R2 = 0.965238) -->
    <g transform="translate(583.628438 29.7555)scale(0.12 -0.12)">
     <defs>
      <path id="DejaVuSans-41" d="M 2188 4044 
L 1331 1722 
L 3047 1722 
L 2188 4044 
z
M 1831 4666 
L 2547 4666 
L 4325 0 
L 3669 0 
L 3244 1197 
L 1141 1197 
L 716 0 
L 50 0 
L 1831 4666 
z
" transform="scale(0.015625)"/>
      <path id="DejaVuSans-52" d="M 2841 2188 
Q 3044 2119 3236 1894 
Q 3428 1669 3622 1275 
L 4263 0 
L 3584 0 
L 2988 1197 
Q 2756 1666 2539 1819 
Q 2322 1972 1947 1972 
L 1259 1972 
L 1259 0 
L 628 0 
L 628 4666 
L 2053 4666 
Q 2853 4666 3247 4331 
Q 3641 3997 3641 3322 
Q 3641 2881 3436 2590 
Q 3231 2300 2841 2188 
z
M 1259 4147 
L 1259 2491 
L 2053 2491 
Q 2509 2491 2742 2702 
Q 2975 2913 2975 3322 
Q 2975 3731 2742 3939 
Q 2509 4147 2053 4147 
L 1259 4147 
z
" transform="scale(0.015625)"/>
      <path id="DejaVuSans-49" d="M 628 4666 
L 1259 4666 
L 1259 0 
L 628 0 
L 628 4666 
z
" transform="scale(0.015625)"/>
      <path id="DejaVuSans-4d" d="M 628 4666 
L 1569 4666 
L 2759 1491 
L 3956 4666 
L 4897 4666 
L 4897 0 
L 4281 0 
L 4281 4097 
L 3078 897 
L 2444 897 
L 1241 4097 
L 1241 0 
L 628 0 
L 628 4666 
z
" transform="scale(0.015625)"/>
      <path id="DejaVuSans-28" d="M 1984 4856 
Q 1566 4138 1362 3434 
Q 1159 2731 1159 2009 
Q 1159 1288 1364 580 
Q 1569 -128 1984 -844 
L 1484 -844 
Q 1016 -109 783 600 
Q 550 1309 550 2009 
Q 550 2706 781 3412 
Q 1013 4119 1484 4856 
L 1984 4856 
z
" transform="scale(0.015625)"/>
      <path id="DejaVuSans-2c" d="M 750 794 
L 1409 794 
L 1409 256 
L 897 -744 
L 494 -744 
L 750 256 
L 750 794 
z
" transform="scale(0.015625)"/>
      <path id="DejaVuSans-29" d="M 513 4856 
L 1013 4856 
Q 1481 4119 1714 3412 
Q 1947 2706 1947 2009 
Q 1947 1309 1714 600 
Q 1481 -109 1013 -844 
L 513 -844 
Q 928 -128 1133 580 
Q 1338 1288 1338 2009 
Q 1338 2731 1133 3434 
Q 928 4138 513 4856 
z
" transform="scale(0.015625)"/>
      <path id="DejaVuSans-78" d="M 3513 3500 
L 2247 1797 
L 3578 0 
L 2900 0 
L 1881 1375 
L 863 0 
L 184 0 
L 1544 1831 
L 300 3500 
L 978 3500 
L 1906 2253 
L 2834 3500 
L 3513 3500 
z
" transform="scale(0.015625)"/>
      <path id="DejaVuSans-3d" d="M 678 2906 
L 4684 2906 
L 4684 2381 
L 678 2381 
L 678 2906 
z
M 678 1631 
L 4684 1631 
L 4684 1100 
L 678 1100 
L 678 1631 
z
" transform="scale(0.015625)"/>
      <path id="DejaVuSans-2e" d="M 684 794 
L 1344 794 
L 1344 0 
L 684 0 
L 684 794 
z
" transform="scale(0.015625)"/>
      <path id="DejaVuSans-39" d="M 703 97 
L 703 672 
Q 941 559 1184 500 
Q 1428 441 1663 441 
Q 2288 441 2617 861 
Q 2947 1281 2994 2138 
Q 2813 1869 2534 1725 
Q 2256 1581 1919 1581 
Q 1219 1581 811 2004 
Q 403 2428 403 3163 
Q 403 3881 828 4315 
Q 1253 4750 1959 4750 
Q 2769 4750 3195 4129 
Q 3622 3509 3622 2328 
Q 3622 1225 3098 567 
Q 2575 -91 1691 -91 
Q 1453 -91 1209 -44 
Q 966 3 703 97 
z
M 1959 2075 
Q 2384 2075 2632 2365 
Q 2881 2656 2881 3163 
Q 2881 3666 2632 3958 
Q 2384 4250 1959 4250 
Q 1534 4250 1286 3958 
Q 1038 3666 1038 3163 
Q 1038 2656 1286 2365 
Q 1534 2075 1959 2075 
z
" transform="scale(0.015625)"/>
      <path id="DejaVuSans-36" d="M 2113 2584 
Q 1688 2584 1439 2293 
Q 1191 2003 1191 1497 
Q 1191 994 1439 701 
Q 1688 409 2113 409 
Q 2538 409 2786 701 
Q 3034 994 3034 1497 
Q 3034 2003 2786 2293 
Q 2538 2584 2113 2584 
z
M 3366 4563 
L 3366 3988 
Q 3128 4100 2886 4159 
Q 2644 4219 2406 4219 
Q 1781 4219 1451 3797 
Q 1122 3375 1075 2522 
Q 1259 2794 1537 2939 
Q 1816 3084 2150 3084 
Q 2853 3084 3261 2657 
Q 3669 2231 3669 1497 
Q 3669 778 3244 343 
Q 2819 -91 2113 -91 
Q 1303 -91 875 529 
Q 447 1150 447 2328 
Q 447 3434 972 4092 
Q 1497 4750 2381 4750 
Q 2619 4750 2861 4703 
Q 3103 4656 3366 4563 
z
" transform="scale(0.015625)"/>
      <path id="DejaVuSans-38" d="M 2034 2216 
Q 1584 2216 1326 1975 
Q 1069 1734 1069 1313 
Q 1069 891 1326 650 
Q 1584 409 2034 409 
Q 2484 409 2743 651 
Q 3003 894 3003 1313 
Q 3003 1734 2745 1975 
Q 2488 2216 2034 2216 
z
M 1403 2484 
Q 997 2584 770 2862 
Q 544 3141 544 3541 
Q 544 4100 942 4425 
Q 1341 4750 2034 4750 
Q 2731 4750 3128 4425 
Q 3525 4100 3525 3541 
Q 3525 3141 3298 2862 
Q 3072 2584 2669 2484 
Q 3125 2378 3379 2068 
Q 3634 1759 3634 1313 
Q 3634 634 3220 271 
Q 2806 -91 2034 -91 
Q 1263 -91 848 271 
Q 434 634 434 1313 
Q 434 1759 690 2068 
Q 947 2378 1403 2484 
z
M 1172 3481 
Q 1172 3119 1398 2916 
Q 1625 2713 2034 2713 
Q 2441 2713 2670 2916 
Q 2900 3119 2900 3481 
Q 2900 3844 2670 4047 
Q 2441 4250 2034 4250 
Q 1625 4250 1398 4047 
Q 1172 3844 1172 3481 
z
" transform="scale(0.015625)"/>
     </defs>
     <use xlink:href="#DejaVuSans-41"/>
     <use xlink:href="#DejaVuSans-52" x="68.408203"/>
     <use xlink:href="#DejaVuSans-49" x="137.890625"/>
     <use xlink:href="#DejaVuSans-4d" x="167.382812"/>
     <use xlink:href="#DejaVuSans-41" x="253.662109"/>
     <use xlink:href="#DejaVuSans-20" x="322.070312"/>
     <use xlink:href="#DejaVuSans-28" x="353.857422"/>
     <use xlink:href="#DejaVuSans-30" x="392.871094"/>
     <use xlink:href="#DejaVuSans-2c" x="456.494141"/>
     <use xlink:href="#DejaVuSans-20" x="488.28125"/>
     <use xlink:href="#DejaVuSans-31" x="520.068359"/>
     <use xlink:href="#DejaVuSans-2c" x="583.691406"/>
     <use xlink:href="#DejaVuSans-20" x="615.478516"/>
     <use xlink:href="#DejaVuSans-31" x="647.265625"/>
     <use xlink:href="#DejaVuSans-29" x="710.888672"/>
     <use xlink:href="#DejaVuSans-78" x="749.902344"/>
     <use xlink:href="#DejaVuSans-28" x="809.082031"/>
     <use xlink:href="#DejaVuSans-31" x="848.095703"/>
     <use xlink:href="#DejaVuSans-2c" x="911.71875"/>
     <use xlink:href="#DejaVuSans-20" x="943.505859"/>
     <use xlink:href="#DejaVuSans-30" x="975.292969"/>
     <use xlink:href="#DejaVuSans-2c" x="1038.916016"/>
     <use xlink:href="#DejaVuSans-20" x="1070.703125"/>
     <use xlink:href="#DejaVuSans-31" x="1102.490234"/>
     <use xlink:href="#DejaVuSans-2c" x="1166.113281"/>
     <use xlink:href="#DejaVuSans-20" x="1197.900391"/>
     <use xlink:href="#DejaVuSans-37" x="1229.6875"/>
     <use xlink:href="#DejaVuSans-29" x="1293.310547"/>
     <use xlink:href="#DejaVuSans-20" x="1332.324219"/>
     <use xlink:href="#DejaVuSans-28" x="1364.111328"/>
     <use xlink:href="#DejaVuSans-52" x="1403.125"/>
     <use xlink:href="#DejaVuSans-32" x="1472.607422"/>
     <use xlink:href="#DejaVuSans-20" x="1536.230469"/>
     <use xlink:href="#DejaVuSans-3d" x="1568.017578"/>
     <use xlink:href="#DejaVuSans-20" x="1651.806641"/>
     <use xlink:href="#DejaVuSans-30" x="1683.59375"/>
     <use xlink:href="#DejaVuSans-2e" x="1747.216797"/>
     <use xlink:href="#DejaVuSans-39" x="1779.003906"/>
     <use xlink:href="#DejaVuSans-36" x="1842.626953"/>
     <use xlink:href="#DejaVuSans-35" x="1906.25"/>
     <use xlink:href="#DejaVuSans-32" x="1969.873047"/>
     <use xlink:href="#DejaVuSans-33" x="2033.496094"/>
     <use xlink:href="#DejaVuSans-38" x="2097.119141"/>
     <use xlink:href="#DejaVuSans-29" x="2160.742188"/>
    </g>
   </g>
   <g id="legend_1">
    <g id="patch_7">
     <path d="M 1281.132812 87.789875 
L 1378.2125 87.789875 
Q 1380.2125 87.789875 1380.2125 85.789875 
L 1380.2125 42.7555 
Q 1380.2125 40.7555 1378.2125 40.7555 
L 1281.132812 40.7555 
Q 1279.132812 40.7555 1279.132812 42.7555 
L 1279.132812 85.789875 
Q 1279.132812 87.789875 1281.132812 87.789875 
z
" style="fill: #ffffff; opacity: 0.8; stroke: #cccccc; stroke-linejoin: miter"/>
    </g>
    <g id="line2d_21">
     <path d="M 1283.132812 48.853937 
L 1293.132812 48.853937 
L 1303.132812 48.853937 
" style="fill: none; stroke: #0000ff; stroke-width: 1.5; stroke-linecap: square"/>
    </g>
    <g id="text_19">
     <!-- Actual Value -->
     <g transform="translate(1311.132812 52.353937)scale(0.1 -0.1)">
      <defs>
       <path id="DejaVuSans-75" d="M 544 1381 
L 544 3500 
L 1119 3500 
L 1119 1403 
Q 1119 906 1312 657 
Q 1506 409 1894 409 
Q 2359 409 2629 706 
Q 2900 1003 2900 1516 
L 2900 3500 
L 3475 3500 
L 3475 0 
L 2900 0 
L 2900 538 
Q 2691 219 2414 64 
Q 2138 -91 1772 -91 
Q 1169 -91 856 284 
Q 544 659 544 1381 
z
M 1991 3584 
L 1991 3584 
z
" transform="scale(0.015625)"/>
       <path id="DejaVuSans-56" d="M 1831 0 
L 50 4666 
L 709 4666 
L 2188 738 
L 3669 4666 
L 4325 4666 
L 2547 0 
L 1831 0 
z
" transform="scale(0.015625)"/>
      </defs>
      <use xlink:href="#DejaVuSans-41"/>
      <use xlink:href="#DejaVuSans-63" x="66.658203"/>
      <use xlink:href="#DejaVuSans-74" x="121.638672"/>
      <use xlink:href="#DejaVuSans-75" x="160.847656"/>
      <use xlink:href="#DejaVuSans-61" x="224.226562"/>
      <use xlink:href="#DejaVuSans-6c" x="285.505859"/>
      <use xlink:href="#DejaVuSans-20" x="313.289062"/>
      <use xlink:href="#DejaVuSans-56" x="345.076172"/>
      <use xlink:href="#DejaVuSans-61" x="405.734375"/>
      <use xlink:href="#DejaVuSans-6c" x="467.013672"/>
      <use xlink:href="#DejaVuSans-75" x="494.796875"/>
      <use xlink:href="#DejaVuSans-65" x="558.175781"/>
     </g>
    </g>
    <g id="line2d_22">
     <path d="M 1283.132812 63.532062 
L 1293.132812 63.532062 
L 1303.132812 63.532062 
" style="fill: none; stroke: #ffa500; stroke-width: 1.5; stroke-linecap: square"/>
    </g>
    <g id="text_20">
     <!-- Check Value -->
     <g transform="translate(1311.132812 67.032062)scale(0.1 -0.1)">
      <defs>
       <path id="DejaVuSans-68" d="M 3513 2113 
L 3513 0 
L 2938 0 
L 2938 2094 
Q 2938 2591 2744 2837 
Q 2550 3084 2163 3084 
Q 1697 3084 1428 2787 
Q 1159 2491 1159 1978 
L 1159 0 
L 581 0 
L 581 4863 
L 1159 4863 
L 1159 2956 
Q 1366 3272 1645 3428 
Q 1925 3584 2291 3584 
Q 2894 3584 3203 3211 
Q 3513 2838 3513 2113 
z
" transform="scale(0.015625)"/>
      </defs>
      <use xlink:href="#DejaVuSans-43"/>
      <use xlink:href="#DejaVuSans-68" x="69.824219"/>
      <use xlink:href="#DejaVuSans-65" x="133.203125"/>
      <use xlink:href="#DejaVuSans-63" x="194.726562"/>
      <use xlink:href="#DejaVuSans-6b" x="249.707031"/>
      <use xlink:href="#DejaVuSans-20" x="307.617188"/>
      <use xlink:href="#DejaVuSans-56" x="339.404297"/>
      <use xlink:href="#DejaVuSans-61" x="400.0625"/>
      <use xlink:href="#DejaVuSans-6c" x="461.341797"/>
      <use xlink:href="#DejaVuSans-75" x="489.125"/>
      <use xlink:href="#DejaVuSans-65" x="552.503906"/>
     </g>
    </g>
    <g id="line2d_23">
     <path d="M 1283.132812 78.210187 
L 1293.132812 78.210187 
L 1303.132812 78.210187 
" style="fill: none; stroke: #ff0000; stroke-width: 1.5; stroke-linecap: square"/>
    </g>
    <g id="text_21">
     <!-- Predict Value -->
     <g transform="translate(1311.132812 81.710187)scale(0.1 -0.1)">
      <defs>
       <path id="DejaVuSans-50" d="M 1259 4147 
L 1259 2394 
L 2053 2394 
Q 2494 2394 2734 2622 
Q 2975 2850 2975 3272 
Q 2975 3691 2734 3919 
Q 2494 4147 2053 4147 
L 1259 4147 
z
M 628 4666 
L 2053 4666 
Q 2838 4666 3239 4311 
Q 3641 3956 3641 3272 
Q 3641 2581 3239 2228 
Q 2838 1875 2053 1875 
L 1259 1875 
L 1259 0 
L 628 0 
L 628 4666 
z
" transform="scale(0.015625)"/>
      </defs>
      <use xlink:href="#DejaVuSans-50"/>
      <use xlink:href="#DejaVuSans-72" x="58.552734"/>
      <use xlink:href="#DejaVuSans-65" x="97.416016"/>
      <use xlink:href="#DejaVuSans-64" x="158.939453"/>
      <use xlink:href="#DejaVuSans-69" x="222.416016"/>
      <use xlink:href="#DejaVuSans-63" x="250.199219"/>
      <use xlink:href="#DejaVuSans-74" x="305.179688"/>
      <use xlink:href="#DejaVuSans-20" x="344.388672"/>
      <use xlink:href="#DejaVuSans-56" x="376.175781"/>
      <use xlink:href="#DejaVuSans-61" x="436.833984"/>
      <use xlink:href="#DejaVuSans-6c" x="498.113281"/>
      <use xlink:href="#DejaVuSans-75" x="525.896484"/>
      <use xlink:href="#DejaVuSans-65" x="589.275391"/>
     </g>
    </g>
   </g>
  </g>
 </g>
 <defs>
  <clipPath id="pe1b3479790">
   <rect x="46.0125" y="35.7555" width="1339.2" height="332.64"/>
  </clipPath>
 </defs>
</svg>
