<?xml version="1.0" encoding="utf-8" standalone="no"?>
<!DOCTYPE svg PUBLIC "-//W3C//DTD SVG 1.1//EN"
  "http://www.w3.org/Graphics/SVG/1.1/DTD/svg11.dtd">
<svg xmlns:xlink="http://www.w3.org/1999/xlink" width="1392.4125pt" height="392.273625pt" viewBox="0 0 1392.4125 392.273625" xmlns="http://www.w3.org/2000/svg" version="1.1">
 <metadata>
  <rdf:RDF xmlns:dc="http://purl.org/dc/elements/1.1/" xmlns:cc="http://creativecommons.org/ns#" xmlns:rdf="http://www.w3.org/1999/02/22-rdf-syntax-ns#">
   <cc:Work>
    <dc:type rdf:resource="http://purl.org/dc/dcmitype/StillImage"/>
    <dc:date>2022-07-31T19:28:00.833592</dc:date>
    <dc:format>image/svg+xml</dc:format>
    <dc:creator>
     <cc:Agent>
      <dc:title>Matplotlib v3.5.2, https://matplotlib.org/</dc:title>
     </cc:Agent>
    </dc:creator>
   </cc:Work>
  </rdf:RDF>
 </metadata>
 <defs>
  <style type="text/css">*{stroke-linejoin: round; stroke-linecap: butt}</style>
 </defs>
 <g id="figure_1">
  <g id="patch_1">
   <path d="M 0 392.273625 
L 1392.4125 392.273625 
L 1392.4125 0 
L 0 0 
z
" style="fill: #ffffff"/>
  </g>
  <g id="axes_1">
   <g id="patch_2">
    <path d="M 46.0125 368.3955 
L 1385.2125 368.3955 
L 1385.2125 35.7555 
L 46.0125 35.7555 
z
" style="fill: #ffffff"/>
   </g>
   <g id="matplotlib.axis_1">
    <g id="xtick_1">
     <g id="line2d_1">
      <defs>
       <path id="m550ea5e482" d="M 0 0 
L 0 3.5 
" style="stroke: #000000; stroke-width: 0.8"/>
      </defs>
      <g>
       <use xlink:href="#m550ea5e482" x="78.14703" y="368.3955" style="stroke: #000000; stroke-width: 0.8"/>
      </g>
     </g>
     <g id="text_1">
      <!-- 2020-01 -->
      <g transform="translate(57.255624 382.993937)scale(0.1 -0.1)">
       <defs>
        <path id="DejaVuSans-32" d="M 1228 531 
L 3431 531 
L 3431 0 
L 469 0 
L 469 531 
Q 828 903 1448 1529 
Q 2069 2156 2228 2338 
Q 2531 2678 2651 2914 
Q 2772 3150 2772 3378 
Q 2772 3750 2511 3984 
Q 2250 4219 1831 4219 
Q 1534 4219 1204 4116 
Q 875 4013 500 3803 
L 500 4441 
Q 881 4594 1212 4672 
Q 1544 4750 1819 4750 
Q 2544 4750 2975 4387 
Q 3406 4025 3406 3419 
Q 3406 3131 3298 2873 
Q 3191 2616 2906 2266 
Q 2828 2175 2409 1742 
Q 1991 1309 1228 531 
z
" transform="scale(0.015625)"/>
        <path id="DejaVuSans-30" d="M 2034 4250 
Q 1547 4250 1301 3770 
Q 1056 3291 1056 2328 
Q 1056 1369 1301 889 
Q 1547 409 2034 409 
Q 2525 409 2770 889 
Q 3016 1369 3016 2328 
Q 3016 3291 2770 3770 
Q 2525 4250 2034 4250 
z
M 2034 4750 
Q 2819 4750 3233 4129 
Q 3647 3509 3647 2328 
Q 3647 1150 3233 529 
Q 2819 -91 2034 -91 
Q 1250 -91 836 529 
Q 422 1150 422 2328 
Q 422 3509 836 4129 
Q 1250 4750 2034 4750 
z
" transform="scale(0.015625)"/>
        <path id="DejaVuSans-2d" d="M 313 2009 
L 1997 2009 
L 1997 1497 
L 313 1497 
L 313 2009 
z
" transform="scale(0.015625)"/>
        <path id="DejaVuSans-31" d="M 794 531 
L 1825 531 
L 1825 4091 
L 703 3866 
L 703 4441 
L 1819 4666 
L 2450 4666 
L 2450 531 
L 3481 531 
L 3481 0 
L 794 0 
L 794 531 
z
" transform="scale(0.015625)"/>
       </defs>
       <use xlink:href="#DejaVuSans-32"/>
       <use xlink:href="#DejaVuSans-30" x="63.623047"/>
       <use xlink:href="#DejaVuSans-32" x="127.246094"/>
       <use xlink:href="#DejaVuSans-30" x="190.869141"/>
       <use xlink:href="#DejaVuSans-2d" x="254.492188"/>
       <use xlink:href="#DejaVuSans-30" x="290.576172"/>
       <use xlink:href="#DejaVuSans-31" x="354.199219"/>
      </g>
     </g>
    </g>
    <g id="xtick_2">
     <g id="line2d_2">
      <g>
       <use xlink:href="#m550ea5e482" x="197.018665" y="368.3955" style="stroke: #000000; stroke-width: 0.8"/>
      </g>
     </g>
     <g id="text_2">
      <!-- 2020-04 -->
      <g transform="translate(176.127258 382.993937)scale(0.1 -0.1)">
       <defs>
        <path id="DejaVuSans-34" d="M 2419 4116 
L 825 1625 
L 2419 1625 
L 2419 4116 
z
M 2253 4666 
L 3047 4666 
L 3047 1625 
L 3713 1625 
L 3713 1100 
L 3047 1100 
L 3047 0 
L 2419 0 
L 2419 1100 
L 313 1100 
L 313 1709 
L 2253 4666 
z
" transform="scale(0.015625)"/>
       </defs>
       <use xlink:href="#DejaVuSans-32"/>
       <use xlink:href="#DejaVuSans-30" x="63.623047"/>
       <use xlink:href="#DejaVuSans-32" x="127.246094"/>
       <use xlink:href="#DejaVuSans-30" x="190.869141"/>
       <use xlink:href="#DejaVuSans-2d" x="254.492188"/>
       <use xlink:href="#DejaVuSans-30" x="290.576172"/>
       <use xlink:href="#DejaVuSans-34" x="354.199219"/>
      </g>
     </g>
    </g>
    <g id="xtick_3">
     <g id="line2d_3">
      <g>
       <use xlink:href="#m550ea5e482" x="315.890299" y="368.3955" style="stroke: #000000; stroke-width: 0.8"/>
      </g>
     </g>
     <g id="text_3">
      <!-- 2020-07 -->
      <g transform="translate(294.998893 382.993937)scale(0.1 -0.1)">
       <defs>
        <path id="DejaVuSans-37" d="M 525 4666 
L 3525 4666 
L 3525 4397 
L 1831 0 
L 1172 0 
L 2766 4134 
L 525 4134 
L 525 4666 
z
" transform="scale(0.015625)"/>
       </defs>
       <use xlink:href="#DejaVuSans-32"/>
       <use xlink:href="#DejaVuSans-30" x="63.623047"/>
       <use xlink:href="#DejaVuSans-32" x="127.246094"/>
       <use xlink:href="#DejaVuSans-30" x="190.869141"/>
       <use xlink:href="#DejaVuSans-2d" x="254.492188"/>
       <use xlink:href="#DejaVuSans-30" x="290.576172"/>
       <use xlink:href="#DejaVuSans-37" x="354.199219"/>
      </g>
     </g>
    </g>
    <g id="xtick_4">
     <g id="line2d_4">
      <g>
       <use xlink:href="#m550ea5e482" x="436.068216" y="368.3955" style="stroke: #000000; stroke-width: 0.8"/>
      </g>
     </g>
     <g id="text_4">
      <!-- 2020-10 -->
      <g transform="translate(415.17681 382.993937)scale(0.1 -0.1)">
       <use xlink:href="#DejaVuSans-32"/>
       <use xlink:href="#DejaVuSans-30" x="63.623047"/>
       <use xlink:href="#DejaVuSans-32" x="127.246094"/>
       <use xlink:href="#DejaVuSans-30" x="190.869141"/>
       <use xlink:href="#DejaVuSans-2d" x="254.492188"/>
       <use xlink:href="#DejaVuSans-31" x="290.576172"/>
       <use xlink:href="#DejaVuSans-30" x="354.199219"/>
      </g>
     </g>
    </g>
    <g id="xtick_5">
     <g id="line2d_5">
      <g>
       <use xlink:href="#m550ea5e482" x="556.246132" y="368.3955" style="stroke: #000000; stroke-width: 0.8"/>
      </g>
     </g>
     <g id="text_5">
      <!-- 2021-01 -->
      <g transform="translate(535.354726 382.993937)scale(0.1 -0.1)">
       <use xlink:href="#DejaVuSans-32"/>
       <use xlink:href="#DejaVuSans-30" x="63.623047"/>
       <use xlink:href="#DejaVuSans-32" x="127.246094"/>
       <use xlink:href="#DejaVuSans-31" x="190.869141"/>
       <use xlink:href="#DejaVuSans-2d" x="254.492188"/>
       <use xlink:href="#DejaVuSans-30" x="290.576172"/>
       <use xlink:href="#DejaVuSans-31" x="354.199219"/>
      </g>
     </g>
    </g>
    <g id="xtick_6">
     <g id="line2d_6">
      <g>
       <use xlink:href="#m550ea5e482" x="673.811486" y="368.3955" style="stroke: #000000; stroke-width: 0.8"/>
      </g>
     </g>
     <g id="text_6">
      <!-- 2021-04 -->
      <g transform="translate(652.920079 382.993937)scale(0.1 -0.1)">
       <use xlink:href="#DejaVuSans-32"/>
       <use xlink:href="#DejaVuSans-30" x="63.623047"/>
       <use xlink:href="#DejaVuSans-32" x="127.246094"/>
       <use xlink:href="#DejaVuSans-31" x="190.869141"/>
       <use xlink:href="#DejaVuSans-2d" x="254.492188"/>
       <use xlink:href="#DejaVuSans-30" x="290.576172"/>
       <use xlink:href="#DejaVuSans-34" x="354.199219"/>
      </g>
     </g>
    </g>
    <g id="xtick_7">
     <g id="line2d_7">
      <g>
       <use xlink:href="#m550ea5e482" x="792.68312" y="368.3955" style="stroke: #000000; stroke-width: 0.8"/>
      </g>
     </g>
     <g id="text_7">
      <!-- 2021-07 -->
      <g transform="translate(771.791714 382.993937)scale(0.1 -0.1)">
       <use xlink:href="#DejaVuSans-32"/>
       <use xlink:href="#DejaVuSans-30" x="63.623047"/>
       <use xlink:href="#DejaVuSans-32" x="127.246094"/>
       <use xlink:href="#DejaVuSans-31" x="190.869141"/>
       <use xlink:href="#DejaVuSans-2d" x="254.492188"/>
       <use xlink:href="#DejaVuSans-30" x="290.576172"/>
       <use xlink:href="#DejaVuSans-37" x="354.199219"/>
      </g>
     </g>
    </g>
    <g id="xtick_8">
     <g id="line2d_8">
      <g>
       <use xlink:href="#m550ea5e482" x="912.861037" y="368.3955" style="stroke: #000000; stroke-width: 0.8"/>
      </g>
     </g>
     <g id="text_8">
      <!-- 2021-10 -->
      <g transform="translate(891.969631 382.993937)scale(0.1 -0.1)">
       <use xlink:href="#DejaVuSans-32"/>
       <use xlink:href="#DejaVuSans-30" x="63.623047"/>
       <use xlink:href="#DejaVuSans-32" x="127.246094"/>
       <use xlink:href="#DejaVuSans-31" x="190.869141"/>
       <use xlink:href="#DejaVuSans-2d" x="254.492188"/>
       <use xlink:href="#DejaVuSans-31" x="290.576172"/>
       <use xlink:href="#DejaVuSans-30" x="354.199219"/>
      </g>
     </g>
    </g>
    <g id="xtick_9">
     <g id="line2d_9">
      <g>
       <use xlink:href="#m550ea5e482" x="1033.038953" y="368.3955" style="stroke: #000000; stroke-width: 0.8"/>
      </g>
     </g>
     <g id="text_9">
      <!-- 2022-01 -->
      <g transform="translate(1012.147547 382.993937)scale(0.1 -0.1)">
       <use xlink:href="#DejaVuSans-32"/>
       <use xlink:href="#DejaVuSans-30" x="63.623047"/>
       <use xlink:href="#DejaVuSans-32" x="127.246094"/>
       <use xlink:href="#DejaVuSans-32" x="190.869141"/>
       <use xlink:href="#DejaVuSans-2d" x="254.492188"/>
       <use xlink:href="#DejaVuSans-30" x="290.576172"/>
       <use xlink:href="#DejaVuSans-31" x="354.199219"/>
      </g>
     </g>
    </g>
    <g id="xtick_10">
     <g id="line2d_10">
      <g>
       <use xlink:href="#m550ea5e482" x="1150.604306" y="368.3955" style="stroke: #000000; stroke-width: 0.8"/>
      </g>
     </g>
     <g id="text_10">
      <!-- 2022-04 -->
      <g transform="translate(1129.7129 382.993937)scale(0.1 -0.1)">
       <use xlink:href="#DejaVuSans-32"/>
       <use xlink:href="#DejaVuSans-30" x="63.623047"/>
       <use xlink:href="#DejaVuSans-32" x="127.246094"/>
       <use xlink:href="#DejaVuSans-32" x="190.869141"/>
       <use xlink:href="#DejaVuSans-2d" x="254.492188"/>
       <use xlink:href="#DejaVuSans-30" x="290.576172"/>
       <use xlink:href="#DejaVuSans-34" x="354.199219"/>
      </g>
     </g>
    </g>
    <g id="xtick_11">
     <g id="line2d_11">
      <g>
       <use xlink:href="#m550ea5e482" x="1269.475941" y="368.3955" style="stroke: #000000; stroke-width: 0.8"/>
      </g>
     </g>
     <g id="text_11">
      <!-- 2022-07 -->
      <g transform="translate(1248.584535 382.993937)scale(0.1 -0.1)">
       <use xlink:href="#DejaVuSans-32"/>
       <use xlink:href="#DejaVuSans-30" x="63.623047"/>
       <use xlink:href="#DejaVuSans-32" x="127.246094"/>
       <use xlink:href="#DejaVuSans-32" x="190.869141"/>
       <use xlink:href="#DejaVuSans-2d" x="254.492188"/>
       <use xlink:href="#DejaVuSans-30" x="290.576172"/>
       <use xlink:href="#DejaVuSans-37" x="354.199219"/>
      </g>
     </g>
    </g>
   </g>
   <g id="matplotlib.axis_2">
    <g id="ytick_1">
     <g id="line2d_12">
      <defs>
       <path id="m957025cacb" d="M 0 0 
L -3.5 0 
" style="stroke: #000000; stroke-width: 0.8"/>
      </defs>
      <g>
       <use xlink:href="#m957025cacb" x="46.0125" y="343.432649" style="stroke: #000000; stroke-width: 0.8"/>
      </g>
     </g>
     <g id="text_12">
      <!-- 0 -->
      <g transform="translate(32.65 347.231868)scale(0.1 -0.1)">
       <use xlink:href="#DejaVuSans-30"/>
      </g>
     </g>
    </g>
    <g id="ytick_2">
     <g id="line2d_13">
      <g>
       <use xlink:href="#m957025cacb" x="46.0125" y="284.603542" style="stroke: #000000; stroke-width: 0.8"/>
      </g>
     </g>
     <g id="text_13">
      <!-- 2000 -->
      <g transform="translate(13.5625 288.402761)scale(0.1 -0.1)">
       <use xlink:href="#DejaVuSans-32"/>
       <use xlink:href="#DejaVuSans-30" x="63.623047"/>
       <use xlink:href="#DejaVuSans-30" x="127.246094"/>
       <use xlink:href="#DejaVuSans-30" x="190.869141"/>
      </g>
     </g>
    </g>
    <g id="ytick_3">
     <g id="line2d_14">
      <g>
       <use xlink:href="#m957025cacb" x="46.0125" y="225.774435" style="stroke: #000000; stroke-width: 0.8"/>
      </g>
     </g>
     <g id="text_14">
      <!-- 4000 -->
      <g transform="translate(13.5625 229.573654)scale(0.1 -0.1)">
       <use xlink:href="#DejaVuSans-34"/>
       <use xlink:href="#DejaVuSans-30" x="63.623047"/>
       <use xlink:href="#DejaVuSans-30" x="127.246094"/>
       <use xlink:href="#DejaVuSans-30" x="190.869141"/>
      </g>
     </g>
    </g>
    <g id="ytick_4">
     <g id="line2d_15">
      <g>
       <use xlink:href="#m957025cacb" x="46.0125" y="166.945328" style="stroke: #000000; stroke-width: 0.8"/>
      </g>
     </g>
     <g id="text_15">
      <!-- 6000 -->
      <g transform="translate(13.5625 170.744547)scale(0.1 -0.1)">
       <defs>
        <path id="DejaVuSans-36" d="M 2113 2584 
Q 1688 2584 1439 2293 
Q 1191 2003 1191 1497 
Q 1191 994 1439 701 
Q 1688 409 2113 409 
Q 2538 409 2786 701 
Q 3034 994 3034 1497 
Q 3034 2003 2786 2293 
Q 2538 2584 2113 2584 
z
M 3366 4563 
L 3366 3988 
Q 3128 4100 2886 4159 
Q 2644 4219 2406 4219 
Q 1781 4219 1451 3797 
Q 1122 3375 1075 2522 
Q 1259 2794 1537 2939 
Q 1816 3084 2150 3084 
Q 2853 3084 3261 2657 
Q 3669 2231 3669 1497 
Q 3669 778 3244 343 
Q 2819 -91 2113 -91 
Q 1303 -91 875 529 
Q 447 1150 447 2328 
Q 447 3434 972 4092 
Q 1497 4750 2381 4750 
Q 2619 4750 2861 4703 
Q 3103 4656 3366 4563 
z
" transform="scale(0.015625)"/>
       </defs>
       <use xlink:href="#DejaVuSans-36"/>
       <use xlink:href="#DejaVuSans-30" x="63.623047"/>
       <use xlink:href="#DejaVuSans-30" x="127.246094"/>
       <use xlink:href="#DejaVuSans-30" x="190.869141"/>
      </g>
     </g>
    </g>
    <g id="ytick_5">
     <g id="line2d_16">
      <g>
       <use xlink:href="#m957025cacb" x="46.0125" y="108.116221" style="stroke: #000000; stroke-width: 0.8"/>
      </g>
     </g>
     <g id="text_16">
      <!-- 8000 -->
      <g transform="translate(13.5625 111.91544)scale(0.1 -0.1)">
       <defs>
        <path id="DejaVuSans-38" d="M 2034 2216 
Q 1584 2216 1326 1975 
Q 1069 1734 1069 1313 
Q 1069 891 1326 650 
Q 1584 409 2034 409 
Q 2484 409 2743 651 
Q 3003 894 3003 1313 
Q 3003 1734 2745 1975 
Q 2488 2216 2034 2216 
z
M 1403 2484 
Q 997 2584 770 2862 
Q 544 3141 544 3541 
Q 544 4100 942 4425 
Q 1341 4750 2034 4750 
Q 2731 4750 3128 4425 
Q 3525 4100 3525 3541 
Q 3525 3141 3298 2862 
Q 3072 2584 2669 2484 
Q 3125 2378 3379 2068 
Q 3634 1759 3634 1313 
Q 3634 634 3220 271 
Q 2806 -91 2034 -91 
Q 1263 -91 848 271 
Q 434 634 434 1313 
Q 434 1759 690 2068 
Q 947 2378 1403 2484 
z
M 1172 3481 
Q 1172 3119 1398 2916 
Q 1625 2713 2034 2713 
Q 2441 2713 2670 2916 
Q 2900 3119 2900 3481 
Q 2900 3844 2670 4047 
Q 2441 4250 2034 4250 
Q 1625 4250 1398 4047 
Q 1172 3844 1172 3481 
z
" transform="scale(0.015625)"/>
       </defs>
       <use xlink:href="#DejaVuSans-38"/>
       <use xlink:href="#DejaVuSans-30" x="63.623047"/>
       <use xlink:href="#DejaVuSans-30" x="127.246094"/>
       <use xlink:href="#DejaVuSans-30" x="190.869141"/>
      </g>
     </g>
    </g>
    <g id="ytick_6">
     <g id="line2d_17">
      <g>
       <use xlink:href="#m957025cacb" x="46.0125" y="49.287114" style="stroke: #000000; stroke-width: 0.8"/>
      </g>
     </g>
     <g id="text_17">
      <!-- 10000 -->
      <g transform="translate(7.2 53.086333)scale(0.1 -0.1)">
       <use xlink:href="#DejaVuSans-31"/>
       <use xlink:href="#DejaVuSans-30" x="63.623047"/>
       <use xlink:href="#DejaVuSans-30" x="127.246094"/>
       <use xlink:href="#DejaVuSans-30" x="190.869141"/>
       <use xlink:href="#DejaVuSans-30" x="254.492188"/>
      </g>
     </g>
    </g>
   </g>
   <g id="line2d_18">
    <path d="M 106.885227 343.432649 
L 176.118157 343.403235 
L 177.424439 343.314991 
L 178.730721 343.432649 
L 181.343284 343.344406 
L 182.649566 343.285576 
L 185.262129 343.403235 
L 190.487256 343.344406 
L 191.793538 343.256162 
L 193.09982 343.432649 
L 195.712383 343.37382 
L 197.018665 343.403235 
L 198.324946 343.197333 
L 199.631228 343.344406 
L 200.93751 343.109089 
L 202.243791 343.432649 
L 203.550073 343.167918 
L 204.856355 343.226747 
L 206.162637 343.138504 
L 207.468918 343.197333 
L 208.7752 342.520798 
L 210.081482 343.109089 
L 211.387763 342.903187 
L 212.694045 343.403235 
L 214.000327 343.109089 
L 220.531735 342.785529 
L 221.838017 342.491384 
L 223.144299 343.285576 
L 224.45058 342.785529 
L 225.756862 341.43246 
L 227.063144 342.07958 
L 228.369425 342.167823 
L 229.675707 342.638456 
L 230.981989 342.550213 
L 232.288271 343.432649 
L 233.594552 342.638456 
L 234.900834 342.197238 
L 236.207116 342.108994 
L 237.513397 342.138409 
L 238.819679 342.991431 
L 240.125961 342.638456 
L 241.432242 342.461969 
L 244.044806 342.432554 
L 245.351088 341.43246 
L 246.657369 341.461874 
L 247.963651 340.932412 
L 249.269933 341.608947 
L 250.576214 340.932412 
L 251.882496 339.226368 
L 253.188778 338.255688 
L 254.49506 339.75583 
L 255.801341 339.902903 
L 257.107623 343.432649 
L 258.413905 339.049881 
L 259.720186 336.932033 
L 261.026468 339.549928 
L 262.33275 336.167255 
L 263.639031 336.637887 
L 264.945313 334.284723 
L 266.251595 332.549264 
L 267.557877 333.549359 
L 268.864158 337.726226 
L 270.17044 337.81447 
L 271.476722 337.461495 
L 272.783003 335.81428 
L 274.089285 339.549928 
L 275.395567 333.196385 
L 276.701848 336.108425 
L 278.00813 336.079011 
L 279.314412 338.314517 
L 280.620694 331.843315 
L 281.926975 333.696432 
L 283.233257 334.402381 
L 284.539539 335.696622 
L 285.84582 330.284344 
L 287.152102 332.725752 
L 288.458384 332.990483 
L 289.764665 333.431701 
L 292.377229 328.460642 
L 293.683511 333.019897 
L 294.989792 330.872635 
L 296.296074 330.666733 
L 297.602356 327.401718 
L 298.908637 325.28387 
L 300.214919 324.57792 
L 301.521201 336.196669 
L 302.827482 331.960973 
L 304.133764 325.077968 
L 305.440046 320.754028 
L 306.746328 335.225989 
L 308.052609 319.901006 
L 309.358891 337.285008 
L 310.665173 326.695768 
L 311.971454 327.754692 
L 313.277736 329.343078 
L 314.584018 323.224851 
L 315.890299 316.518333 
L 317.196581 312.223808 
L 318.502863 307.517479 
L 319.809145 307.899869 
L 321.115426 321.459978 
L 322.421708 322.136513 
L 323.72799 319.459788 
L 325.034271 325.077968 
L 326.340553 306.752701 
L 327.646835 315.165263 
L 328.953116 314.635801 
L 330.259398 321.165832 
L 331.56568 332.049217 
L 332.871962 310.194204 
L 334.178243 308.076356 
L 335.484525 317.98906 
L 336.790807 317.841988 
L 338.097088 218.920844 
L 339.40337 324.754408 
L 340.709652 332.784581 
L 342.015933 308.429331 
L 343.322215 316.783064 
L 344.628497 312.341466 
L 345.934779 311.341371 
L 347.24106 307.870454 
L 348.547342 326.931085 
L 349.853624 335.902524 
L 351.159905 309.841229 
L 352.466187 309.488254 
L 353.772469 307.517479 
L 355.07875 315.106434 
L 356.385032 308.429331 
L 357.691314 333.81409 
L 358.997596 336.490815 
L 360.303877 319.224472 
L 361.610159 309.7824 
L 362.916441 319.01857 
L 364.222722 316.0477 
L 365.529004 316.400675 
L 366.835286 331.196195 
L 368.141567 332.19629 
L 369.447849 314.635801 
L 370.754131 310.400106 
L 372.060413 308.282258 
L 373.366694 309.7824 
L 374.672976 317.400769 
L 375.979258 336.108425 
L 377.285539 332.19629 
L 378.591821 316.871307 
L 379.898103 313.018001 
L 381.204385 311.017811 
L 382.510666 315.253507 
L 383.816948 316.518333 
L 385.12323 333.667017 
L 386.429511 333.284628 
L 387.735793 310.547178 
L 389.042075 312.164979 
L 390.348356 309.841229 
L 391.654638 312.10615 
L 392.96092 321.136418 
L 394.267202 336.579058 
L 395.573483 338.667492 
L 396.879765 319.34213 
L 398.186047 321.34232 
L 399.492328 322.430658 
L 400.79861 323.371924 
L 403.411173 337.490909 
L 404.717455 339.167539 
L 406.023737 317.165453 
L 407.330019 316.930137 
L 408.6363 323.313095 
L 409.942582 322.754218 
L 411.248864 324.342604 
L 412.555145 336.049596 
L 413.861427 335.696622 
L 415.167709 328.372398 
L 416.47399 336.373156 
L 417.780272 321.66588 
L 419.086554 323.430753 
L 420.392836 319.66569 
L 421.699117 334.8436 
L 423.005399 336.4614 
L 424.311681 315.72414 
L 425.617962 319.34213 
L 426.924244 328.990103 
L 428.230526 315.635896 
L 429.536807 319.195057 
L 430.843089 331.960973 
L 432.149371 338.402761 
L 433.455653 322.695389 
L 434.761934 320.548127 
L 436.068216 323.9308 
L 437.374498 323.401338 
L 438.680779 324.077873 
L 439.987061 337.10852 
L 441.293343 336.990862 
L 442.599624 323.195436 
L 443.905906 318.900912 
L 445.212188 320.606956 
L 446.51847 330.049027 
L 447.824751 325.519186 
L 449.131033 338.402761 
L 450.437315 340.167634 
L 451.743596 327.136987 
L 453.049878 322.430658 
L 454.35616 323.695484 
L 455.662441 323.842557 
L 456.968723 325.872161 
L 458.275005 333.667017 
L 459.581287 336.402571 
L 460.887568 325.195626 
L 462.19385 337.667397 
L 463.500132 321.165832 
L 464.806413 321.960025 
L 466.112695 321.960025 
L 467.418977 338.873393 
L 468.725258 340.285292 
L 470.03154 323.518997 
L 471.337822 321.401149 
L 472.644104 329.607809 
L 473.950385 327.284059 
L 475.256667 325.783917 
L 476.562949 338.579248 
L 477.86923 343.432649 
L 479.175512 332.284533 
L 480.481794 323.901386 
L 481.788075 322.783633 
L 483.094357 324.224946 
L 484.400639 327.313474 
L 485.706921 337.196764 
L 487.013202 340.550023 
L 488.319484 320.812858 
L 489.625766 323.371924 
L 490.932047 321.901196 
L 492.238329 326.372208 
L 493.544611 325.901575 
L 494.850893 338.549833 
L 496.157174 339.10871 
L 497.463456 322.901291 
L 498.769738 324.283775 
L 500.076019 323.28368 
L 501.382301 323.107193 
L 502.688583 324.019044 
L 503.994864 337.196764 
L 505.301146 340.697096 
L 506.607428 324.989724 
L 507.91371 324.607335 
L 509.219991 322.96012 
L 510.526273 330.284344 
L 511.832555 323.842557 
L 513.138836 338.343931 
L 514.445118 340.755925 
L 515.7514 322.489487 
L 517.057681 323.254266 
L 518.363963 325.989819 
L 519.670245 321.312905 
L 520.976527 327.342888 
L 522.282808 337.608568 
L 523.58909 339.785245 
L 524.895372 319.930421 
L 526.201653 324.195531 
L 527.507935 324.048458 
L 528.814217 321.224661 
L 530.120498 327.019328 
L 531.42678 338.049786 
L 532.733062 339.814659 
L 534.039344 323.518997 
L 535.345625 321.489392 
L 536.651907 325.578015 
L 537.958189 324.989724 
L 539.26447 327.754692 
L 540.570752 338.432175 
L 541.877034 340.432365 
L 543.183315 321.842367 
L 544.489597 324.166117 
L 545.795879 324.666164 
L 547.102161 337.961542 
L 548.408442 340.755925 
L 549.714724 339.373441 
L 551.021006 339.549928 
L 552.327287 318.547937 
L 553.633569 317.577257 
L 554.939851 318.547937 
L 556.246132 336.843789 
L 557.552414 341.079485 
L 558.858696 338.755735 
L 560.164978 338.108615 
L 561.471259 320.989345 
L 562.777541 320.401054 
L 564.083823 317.783159 
L 565.390104 314.312241 
L 566.696386 312.164979 
L 568.002668 340.020561 
L 569.308949 343.432649 
L 570.615231 292.280741 
L 571.921513 313.900438 
L 573.227795 315.459409 
L 574.534076 325.107382 
L 575.840358 312.900343 
L 577.14664 334.902429 
L 578.452921 335.843694 
L 579.759203 310.164789 
L 581.065485 312.635612 
L 582.371766 311.929662 
L 583.678048 326.931085 
L 584.98433 315.959456 
L 586.290612 333.961163 
L 587.596893 337.020277 
L 588.903175 313.165074 
L 590.209457 312.900343 
L 591.515738 311.135469 
L 592.82202 321.636465 
L 594.128302 320.430468 
L 595.434583 332.078632 
L 596.740865 339.667586 
L 598.047147 323.813142 
L 599.353429 323.813142 
L 600.65971 322.871876 
L 601.965992 324.901481 
L 603.272274 324.548506 
L 604.578555 337.549739 
L 605.884837 340.197048 
L 607.191119 321.489392 
L 608.497401 321.28349 
L 609.803682 320.31281 
L 611.109964 321.34232 
L 612.416246 320.253981 
L 613.722527 337.314422 
L 615.028809 340.373536 
L 616.335091 322.254171 
L 617.641372 320.577541 
L 618.947654 321.960025 
L 620.253936 323.871971 
L 621.560218 324.136702 
L 622.866499 336.402571 
L 624.172781 339.932317 
L 625.479063 320.401054 
L 626.785344 323.077778 
L 628.091626 332.313948 
L 629.397908 323.666069 
L 630.704189 328.107667 
L 632.010471 337.343837 
L 633.316753 340.167634 
L 634.623035 321.136418 
L 635.929316 318.753839 
L 637.235598 325.019139 
L 638.54188 318.724424 
L 639.848161 325.166212 
L 641.154443 336.873204 
L 642.460725 337.255593 
L 643.767006 320.106908 
L 645.073288 319.01857 
L 646.37957 321.371734 
L 647.685852 318.989155 
L 648.992133 322.695389 
L 650.298415 337.490909 
L 651.604697 339.520514 
L 652.910978 314.871118 
L 654.21726 315.518238 
L 655.523542 317.01838 
L 658.136105 316.400675 
L 659.442387 336.020182 
L 660.748669 337.314422 
L 662.05495 315.547653 
L 663.361232 309.870644 
L 664.667514 314.04751 
L 665.973795 316.194773 
L 667.280077 316.459504 
L 668.586359 333.81409 
L 669.89264 338.167444 
L 671.198922 335.255403 
L 672.505204 343.432649 
L 673.811486 316.312431 
L 675.117767 335.196574 
L 676.424049 337.461495 
L 677.730331 336.608473 
L 679.036612 337.285008 
L 680.342894 304.017148 
L 681.649176 303.605344 
L 682.955457 296.663509 
L 684.261739 304.281879 
L 685.568021 303.870075 
L 686.874303 330.754977 
L 688.180584 336.431986 
L 689.486866 284.221153 
L 690.793148 290.33938 
L 692.099429 297.340044 
L 693.405711 285.397735 
L 694.711993 295.192781 
L 696.018274 330.872635 
L 697.324556 334.167065 
L 698.630838 294.869221 
L 699.93712 295.516342 
L 701.243401 290.01582 
L 702.549683 295.075123 
L 703.855965 298.781357 
L 705.162246 331.931559 
L 706.468528 336.343742 
L 707.77481 311.488444 
L 709.081091 296.487022 
L 710.387373 295.604585 
L 711.693655 301.546325 
L 714.306218 337.343837 
L 715.6125 337.932128 
L 716.918782 307.429236 
L 718.225063 308.311672 
L 719.531345 309.605913 
L 720.837627 306.458555 
L 722.143909 308.517574 
L 723.45019 337.10852 
L 724.756472 337.373251 
L 726.062754 315.135849 
L 727.369035 301.781641 
L 728.675317 310.929568 
L 729.981599 302.752322 
L 731.28788 315.577067 
L 732.594162 336.020182 
L 733.900444 338.755735 
L 735.206726 306.48797 
L 736.513007 312.576783 
L 737.819289 301.840471 
L 739.125571 316.69482 
L 740.431852 315.488823 
L 741.738134 333.196385 
L 743.044416 337.843884 
L 744.350697 308.723476 
L 745.656979 300.134426 
L 746.963261 312.841514 
L 748.269543 296.575265 
L 749.575824 316.724235 
L 750.882106 332.019802 
L 752.188388 337.785055 
L 753.494669 301.781641 
L 754.800951 304.193635 
L 756.107233 300.310914 
L 757.413514 304.576024 
L 758.719796 301.134521 
L 760.026078 326.784012 
L 761.33236 334.696527 
L 762.638641 296.92824 
L 763.944923 289.721675 
L 765.251205 290.927671 
L 766.557486 288.692165 
L 767.863768 289.809918 
L 769.17005 326.607525 
L 770.476331 334.990672 
L 771.782613 292.251326 
L 773.088895 300.134426 
L 774.395177 292.692544 
L 775.701458 299.840281 
L 777.00774 298.193066 
L 778.314022 326.960499 
L 779.620303 333.225799 
L 780.926585 288.750994 
L 782.232867 283.779935 
L 783.539148 285.574222 
L 784.84543 276.396882 
L 786.151712 288.574507 
L 787.457994 321.577636 
L 788.764275 332.19629 
L 790.070557 322.930705 
L 791.376839 316.69482 
L 792.68312 259.454099 
L 793.989402 270.89636 
L 795.295684 276.220394 
L 796.601965 319.224472 
L 797.908247 328.078252 
L 799.214529 261.513118 
L 800.520811 256.542058 
L 801.827092 253.159385 
L 803.133374 256.365571 
L 804.439656 254.924258 
L 805.745937 307.252748 
L 807.052219 325.313284 
L 808.358501 256.277327 
L 809.664782 258.012786 
L 810.971064 263.101504 
L 812.277346 258.248102 
L 813.583628 270.631629 
L 814.889909 322.813047 
L 816.196191 327.313474 
L 817.502473 243.805556 
L 818.808754 252.394606 
L 820.115036 244.482091 
L 821.421318 247.099986 
L 822.727599 245.776332 
L 824.033881 306.017337 
L 825.340163 328.843031 
L 826.646445 265.807643 
L 827.952726 238.27562 
L 829.259008 245.305699 
L 830.56529 243.599655 
L 831.871571 256.483229 
L 833.177853 309.841229 
L 834.484135 324.842651 
L 835.790417 261.395459 
L 837.096698 214.038028 
L 838.40298 223.774246 
L 839.709262 225.833264 
L 841.015543 225.833264 
L 842.321825 313.900438 
L 843.628107 325.666259 
L 844.934388 247.717692 
L 846.24067 207.596241 
L 847.546952 215.244025 
L 848.853234 219.420892 
L 850.159515 220.862205 
L 851.465797 304.928999 
L 852.772079 321.165832 
L 854.07836 230.980811 
L 855.384642 206.654975 
L 856.690924 172.06346 
L 857.997205 189.212145 
L 859.303487 208.713994 
L 860.609769 304.193635 
L 861.916051 321.254076 
L 863.222332 198.80129 
L 864.528614 189.712193 
L 865.834896 193.036037 
L 867.141177 203.595862 
L 868.447459 233.539877 
L 869.753741 305.017242 
L 871.060022 321.66588 
L 872.366304 211.714279 
L 873.672586 188.388538 
L 874.978868 230.833738 
L 876.285149 199.683726 
L 877.591431 268.24905 
L 878.897713 311.694346 
L 880.203994 324.607335 
L 881.510276 224.833169 
L 882.816558 192.830135 
L 884.122839 250.776806 
L 885.429121 202.242792 
L 886.735403 225.362631 
L 888.041685 311.959077 
L 889.347966 321.871782 
L 890.654248 216.979484 
L 891.96053 219.009088 
L 893.266811 310.870739 
L 894.573093 223.774246 
L 895.879375 242.628974 
L 897.185656 318.900912 
L 898.491938 325.666259 
L 899.79822 234.069339 
L 901.104502 218.626699 
L 902.410783 224.686097 
L 903.717065 232.480953 
L 905.023347 260.836583 
L 906.329628 315.312336 
L 907.63591 320.695199 
L 908.942192 256.483229 
L 910.248473 227.09809 
L 911.554755 253.100555 
L 912.861037 256.895033 
L 914.167319 275.514445 
L 915.4736 323.313095 
L 916.779882 332.078632 
L 918.086164 260.954241 
L 919.392445 265.101693 
L 920.698727 266.660665 
L 922.005009 281.515014 
L 923.31129 284.868273 
L 924.617572 323.430753 
L 925.923854 335.049501 
L 927.230136 292.721959 
L 928.536417 293.339665 
L 929.842699 301.8993 
L 931.148981 293.280836 
L 932.455262 303.164125 
L 933.761544 332.19629 
L 935.067826 337.75564 
L 936.374107 292.721959 
L 937.680389 300.075597 
L 938.986671 334.402381 
L 940.292953 293.663225 
L 941.599234 307.958698 
L 942.905516 333.343457 
L 944.211798 341.697191 
L 945.518079 303.723002 
L 946.824361 303.693587 
L 948.130643 305.958508 
L 949.436925 302.928809 
L 950.743206 314.518143 
L 952.049488 338.432175 
L 953.35577 340.932412 
L 954.662051 339.43227 
L 955.968333 320.430468 
L 957.274615 312.076735 
L 959.887178 319.047984 
L 961.19346 336.108425 
L 962.499742 340.932412 
L 963.806023 314.194583 
L 965.112305 321.254076 
L 966.418587 319.606861 
L 967.724868 319.047984 
L 969.03115 325.989819 
L 970.337432 335.343647 
L 971.643713 342.550213 
L 972.949995 327.048743 
L 974.256277 320.401054 
L 975.562559 343.432649 
L 976.86884 295.192781 
L 978.175122 322.871876 
L 979.481404 338.167444 
L 980.787685 341.726605 
L 982.093967 315.194678 
L 983.400249 319.459788 
L 984.70653 319.047984 
L 986.012812 329.22542 
L 987.319094 329.960784 
L 988.625376 340.049976 
L 989.931657 343.109089 
L 991.237939 332.755166 
L 992.544221 330.137271 
L 993.850502 334.873014 
L 995.156784 334.225894 
L 996.463066 328.666543 
L 997.769347 334.314138 
L 999.075629 342.285482 
L 1000.381911 327.431132 
L 1001.688193 331.137366 
L 1002.994474 329.460736 
L 1004.300756 328.25474 
L 1005.607038 333.902334 
L 1006.913319 341.638361 
L 1008.219601 343.197333 
L 1009.525883 334.961258 
L 1010.832164 333.402286 
L 1012.138446 333.755261 
L 1013.444728 335.961353 
L 1014.75101 337.167349 
L 1016.057291 341.403045 
L 1017.363573 341.550118 
L 1018.669855 332.372777 
L 1019.976136 332.461021 
L 1021.282418 333.961163 
L 1022.5887 338.638077 
L 1025.201263 342.285482 
L 1026.507545 340.755925 
L 1027.813827 325.872161 
L 1029.120108 319.283301 
L 1030.42639 317.34194 
L 1031.732672 319.98925 
L 1033.038953 336.667302 
L 1034.345235 340.314707 
L 1035.651517 340.226463 
L 1038.26408 286.986121 
L 1039.570362 343.432649 
L 1040.876644 229.215938 
L 1042.182925 283.132815 
L 1043.489207 312.782684 
L 1044.795489 333.343457 
L 1046.10177 281.191454 
L 1047.408052 276.279224 
L 1048.714334 258.954052 
L 1050.020615 266.131203 
L 1051.326897 260.277706 
L 1052.633179 302.340518 
L 1053.939461 332.137461 
L 1055.245742 258.10103 
L 1056.552024 249.335493 
L 1057.858306 250.100271 
L 1059.164587 249.629638 
L 1060.470869 255.336061 
L 1061.777151 319.371544 
L 1063.083433 324.048458 
L 1064.389714 253.12997 
L 1065.695996 235.922456 
L 1067.002278 223.009467 
L 1068.308559 218.89143 
L 1070.921123 305.693777 
L 1072.227404 323.401338 
L 1073.533686 219.21499 
L 1074.839968 229.539498 
L 1076.14625 227.980527 
L 1077.452531 246.246964 
L 1078.758813 217.067727 
L 1080.065095 309.13528 
L 1081.371376 314.576972 
L 1082.677658 225.039071 
L 1083.98394 204.595957 
L 1085.290221 199.330752 
L 1086.596503 217.656018 
L 1087.902785 226.274483 
L 1089.209067 309.929473 
L 1090.515348 318.194962 
L 1091.82163 224.186049 
L 1093.127912 203.919422 
L 1094.434193 210.978915 
L 1095.740475 225.068486 
L 1097.046757 245.805746 
L 1098.353038 314.37107 
L 1099.65932 322.401243 
L 1100.965602 231.863248 
L 1102.271884 214.626319 
L 1103.578165 235.775383 
L 1104.884447 242.246585 
L 1106.190729 264.395744 
L 1107.49701 321.98944 
L 1108.803292 343.432649 
L 1110.109574 230.951397 
L 1111.415855 249.041347 
L 1114.028419 270.337484 
L 1115.334701 267.248956 
L 1116.640982 326.989914 
L 1117.947264 329.960784 
L 1119.253546 259.689415 
L 1120.559827 267.190127 
L 1121.866109 284.515299 
L 1123.172391 274.573179 
L 1124.478672 285.633052 
L 1125.784954 333.990578 
L 1127.091236 332.755166 
L 1128.397518 282.838669 
L 1129.703799 280.691407 
L 1131.010081 268.749098 
L 1132.316363 285.015346 
L 1133.622644 294.457418 
L 1134.928926 332.84341 
L 1136.235208 328.225325 
L 1137.541489 290.457038 
L 1138.847771 283.927007 
L 1140.154053 303.5171 
L 1141.460335 304.87017 
L 1142.766616 313.606292 
L 1144.072898 333.343457 
L 1145.37918 339.255783 
L 1146.685461 301.752227 
L 1147.991743 298.28131 
L 1150.604306 313.812194 
L 1151.910588 318.018475 
L 1153.21687 337.902713 
L 1154.523152 337.079106 
L 1155.829433 313.72395 
L 1157.135715 319.98925 
L 1158.441997 320.871687 
L 1159.748278 321.136418 
L 1161.05456 321.901196 
L 1162.360842 339.75583 
L 1163.667123 340.873583 
L 1164.973405 319.636275 
L 1166.279687 318.342035 
L 1167.585969 336.402571 
L 1168.89225 341.932507 
L 1170.198532 340.049976 
L 1171.504814 341.491289 
L 1172.811095 341.961922 
L 1174.117377 316.665406 
L 1175.423659 317.01838 
L 1176.72994 312.223808 
L 1178.036222 318.018475 
L 1179.342504 313.194488 
L 1180.648786 337.461495 
L 1181.955067 341.05007 
L 1183.261349 325.313284 
L 1184.567631 320.195152 
L 1185.873912 316.077114 
L 1187.180194 317.577257 
L 1188.486476 323.489582 
L 1189.792758 341.520703 
L 1191.099039 342.814944 
L 1192.405321 338.932223 
L 1193.711603 322.665974 
L 1195.017884 325.578015 
L 1196.324166 322.577731 
L 1197.630448 325.489772 
L 1198.936729 341.138314 
L 1200.243011 341.75602 
L 1201.549293 322.754218 
L 1202.855575 343.432649 
L 1204.161856 315.194678 
L 1205.468138 323.960215 
L 1206.77442 327.107572 
L 1208.080701 341.344216 
L 1209.386983 340.844169 
L 1210.693265 323.166022 
L 1211.999546 320.077494 
L 1213.305828 319.400959 
L 1214.61211 316.635991 
L 1215.918392 326.548696 
L 1217.224673 339.902903 
L 1218.530955 341.079485 
L 1219.837237 325.166212 
L 1221.143518 319.371544 
L 1222.4498 325.372113 
L 1223.756082 323.371924 
L 1225.062363 322.989535 
L 1226.368645 340.72651 
L 1227.674927 341.344216 
L 1228.981209 318.930326 
L 1230.28749 316.547747 
L 1231.593772 318.724424 
L 1232.900054 318.753839 
L 1234.206335 315.047605 
L 1235.512617 340.432365 
L 1236.818899 340.314707 
L 1238.12518 310.135375 
L 1239.431462 302.22286 
L 1240.737744 312.282637 
L 1242.044026 343.432649 
L 1243.350307 268.807927 
L 1244.656589 337.10852 
L 1245.962871 338.991052 
L 1247.269152 298.575455 
L 1248.575434 280.544334 
L 1249.881716 297.163557 
L 1251.187997 287.486168 
L 1252.494279 291.427719 
L 1253.800561 334.667112 
L 1255.106843 336.13784 
L 1256.413124 343.432649 
L 1257.719406 166.004062 
L 1259.025688 250.306173 
L 1260.331969 250.541489 
L 1261.638251 253.365286 
L 1262.944533 322.342414 
L 1264.250814 325.430942 
L 1265.557096 230.539593 
L 1266.863378 215.714658 
L 1268.16966 194.242034 
L 1269.475941 207.919801 
L 1270.782223 241.187661 
L 1272.088505 299.399063 
L 1273.394786 318.37145 
L 1274.701068 308.311672 
L 1276.00735 192.447746 
L 1277.313631 173.240043 
L 1278.619913 165.739331 
L 1279.926195 175.975596 
L 1281.232477 270.513971 
L 1282.538758 305.870264 
L 1283.84504 148.67889 
L 1285.151322 115.558103 
L 1286.457603 122.70584 
L 1287.763885 139.942768 
L 1289.070167 188.447367 
L 1290.376448 294.339759 
L 1291.68273 320.842272 
L 1292.989012 166.592354 
L 1294.295294 145.678606 
L 1295.601575 157.209111 
L 1296.907857 158.091548 
L 1298.214139 206.802048 
L 1299.52042 301.987543 
L 1300.826702 317.6655 
L 1302.132984 186.094203 
L 1303.439266 198.889533 
L 1304.745547 343.432649 
L 1306.051829 50.8755 
L 1307.358111 239.805177 
L 1307.358111 239.805177 
" clip-path="url(#pb26f878f9e)" style="fill: none; stroke: #0000ff; stroke-width: 1.5; stroke-linecap: square"/>
   </g>
   <g id="line2d_19">
    <path d="M 1068.308559 240.562459 
L 1069.614841 290.875499 
L 1070.921123 305.077956 
L 1072.227404 247.527607 
L 1073.533686 226.870308 
L 1074.839968 221.831345 
L 1076.14625 217.410157 
L 1078.758813 285.50648 
L 1080.065095 303.028837 
L 1081.371376 224.068623 
L 1082.677658 229.248174 
L 1083.98394 216.786903 
L 1085.290221 222.265428 
L 1086.596503 217.406352 
L 1087.902785 286.721913 
L 1089.209067 298.958157 
L 1090.515348 220.923923 
L 1091.82163 209.676101 
L 1093.127912 203.494477 
L 1094.434193 218.411041 
L 1095.740475 223.782222 
L 1097.046757 300.02123 
L 1098.353038 309.507714 
L 1099.65932 229.089085 
L 1100.965602 213.283517 
L 1102.271884 216.427268 
L 1103.578165 233.058715 
L 1104.884447 247.744504 
L 1106.190729 316.54957 
L 1107.49701 323.655851 
L 1108.803292 246.230229 
L 1110.109574 227.665254 
L 1111.415855 244.538373 
L 1112.722137 255.239482 
L 1114.028419 277.316269 
L 1115.334701 330.020243 
L 1116.640982 344.559244 
L 1117.947264 248.939681 
L 1119.253546 255.984651 
L 1121.866109 281.013753 
L 1123.172391 282.915252 
L 1124.478672 338.602656 
L 1125.784954 345.217533 
L 1127.091236 269.300326 
L 1128.397518 276.465385 
L 1129.703799 291.423373 
L 1131.010081 286.108677 
L 1132.316363 291.57621 
L 1133.622644 341.504037 
L 1134.928926 344.253203 
L 1136.235208 281.96461 
L 1137.541489 284.464534 
L 1138.847771 284.414877 
L 1140.154053 296.083935 
L 1141.460335 304.254941 
L 1142.766616 346.856062 
L 1144.072898 341.469944 
L 1145.37918 298.557467 
L 1146.685461 296.39101 
L 1147.991743 308.503408 
L 1149.298025 311.01079 
L 1150.604306 318.986721 
L 1151.910588 345.840466 
L 1153.21687 347.153137 
L 1154.523152 307.260931 
L 1155.829433 305.712209 
L 1157.135715 316.965564 
L 1158.441997 323.549542 
L 1159.748278 327.262946 
L 1161.05456 347.386726 
L 1162.360842 347.562963 
L 1163.667123 319.035861 
L 1164.973405 321.483609 
L 1166.279687 324.790702 
L 1168.89225 333.500009 
L 1170.198532 353.2755 
L 1171.504814 350.87207 
L 1172.811095 326.711969 
L 1174.117377 325.78778 
L 1175.423659 336.701137 
L 1176.72994 335.866191 
L 1178.036222 332.518571 
L 1179.342504 336.952183 
L 1180.648786 338.518173 
L 1181.955067 315.544979 
L 1183.261349 317.453556 
L 1184.567631 318.341644 
L 1185.873912 322.505204 
L 1187.180194 318.746352 
L 1188.486476 336.612983 
L 1189.792758 340.234942 
L 1191.099039 323.169642 
L 1192.405321 322.621585 
L 1193.711603 321.311187 
L 1195.017884 324.932652 
L 1196.324166 325.758685 
L 1197.630448 343.375799 
L 1198.936729 344.194072 
L 1200.243011 334.978499 
L 1201.549293 322.872404 
L 1202.855575 327.545737 
L 1204.161856 324.966947 
L 1205.468138 327.641901 
L 1206.77442 340.061972 
L 1208.080701 344.001201 
L 1209.386983 328.476532 
L 1210.693265 334.467463 
L 1211.999546 317.288648 
L 1213.305828 322.193641 
L 1214.61211 324.132993 
L 1215.918392 338.761159 
L 1217.224673 337.714502 
L 1218.530955 323.852598 
L 1219.837237 324.660151 
L 1221.143518 317.500992 
L 1222.4498 319.256934 
L 1223.756082 326.57443 
L 1225.062363 339.124453 
L 1226.368645 339.006536 
L 1227.674927 325.25015 
L 1228.981209 322.103003 
L 1230.28749 321.184334 
L 1231.593772 319.89777 
L 1232.900054 322.690465 
L 1234.206335 335.699453 
L 1235.512617 336.876334 
L 1236.818899 319.530069 
L 1238.12518 315.894963 
L 1239.431462 313.795624 
L 1240.737744 313.388301 
L 1242.044026 318.887629 
L 1243.350307 329.48036 
L 1244.656589 329.682315 
L 1245.962871 306.062354 
L 1247.269152 305.667396 
L 1248.575434 301.921925 
L 1249.881716 317.660648 
L 1251.187997 273.668908 
L 1252.494279 321.671346 
L 1253.800561 323.951589 
L 1255.106843 296.768712 
L 1256.413124 289.498125 
L 1257.719406 279.212977 
L 1259.025688 275.218628 
L 1260.331969 254.684002 
L 1261.638251 308.686262 
L 1264.250814 297.891444 
L 1265.557096 184.615487 
L 1266.863378 237.396637 
L 1268.16966 231.57435 
L 1269.475941 229.390286 
L 1270.782223 277.068067 
L 1272.088505 289.466693 
L 1273.394786 238.272121 
L 1274.701068 199.316088 
L 1276.00735 207.287143 
L 1277.313631 207.761959 
L 1278.619913 213.912908 
L 1279.926195 266.733928 
L 1281.232477 279.917364 
L 1282.538758 257.244288 
L 1283.84504 155.18538 
L 1285.151322 136.570135 
L 1286.457603 132.198052 
L 1287.763885 155.807555 
L 1289.070167 226.968889 
L 1290.376448 260.664032 
L 1291.68273 175.263639 
L 1292.989012 120.500306 
L 1294.295294 124.853875 
L 1295.601575 141.618169 
L 1296.907857 181.204462 
L 1298.214139 268.777457 
L 1299.52042 298.259499 
L 1300.826702 182.300291 
L 1302.132984 150.049069 
L 1303.439266 165.563184 
L 1304.745547 203.587702 
L 1306.051829 215.959138 
L 1307.358111 301.240895 
L 1307.358111 301.240895 
" clip-path="url(#pb26f878f9e)" style="fill: none; stroke: #ffa500; stroke-width: 1.5; stroke-linecap: square"/>
   </g>
   <g id="line2d_20">
    <path d="M 1307.358111 301.240895 
L 1308.664392 311.875018 
L 1309.970674 218.670904 
L 1311.276956 196.610285 
L 1312.583237 278.764341 
L 1313.889519 125.063752 
L 1315.195801 239.060055 
L 1316.502083 308.35547 
L 1317.808364 321.074336 
L 1319.114646 222.789222 
L 1320.420928 208.686248 
L 1321.727209 284.704061 
L 1323.033491 140.118497 
L 1324.339773 248.195842 
" clip-path="url(#pb26f878f9e)" style="fill: none; stroke: #ff0000; stroke-width: 1.5; stroke-linecap: square"/>
   </g>
   <g id="patch_3">
    <path d="M 46.0125 368.3955 
L 46.0125 35.7555 
" style="fill: none; stroke: #000000; stroke-width: 0.8; stroke-linejoin: miter; stroke-linecap: square"/>
   </g>
   <g id="patch_4">
    <path d="M 1385.2125 368.3955 
L 1385.2125 35.7555 
" style="fill: none; stroke: #000000; stroke-width: 0.8; stroke-linejoin: miter; stroke-linecap: square"/>
   </g>
   <g id="patch_5">
    <path d="M 46.0125 368.3955 
L 1385.2125 368.3955 
" style="fill: none; stroke: #000000; stroke-width: 0.8; stroke-linejoin: miter; stroke-linecap: square"/>
   </g>
   <g id="patch_6">
    <path d="M 46.0125 35.7555 
L 1385.2125 35.7555 
" style="fill: none; stroke: #000000; stroke-width: 0.8; stroke-linejoin: miter; stroke-linecap: square"/>
   </g>
   <g id="text_18">
    <!-- Daily Confirmed Cases Forecasting - Guatemala -->
    <g transform="translate(572.074688 16.318125)scale(0.12 -0.12)">
     <defs>
      <path id="DejaVuSans-44" d="M 1259 4147 
L 1259 519 
L 2022 519 
Q 2988 519 3436 956 
Q 3884 1394 3884 2338 
Q 3884 3275 3436 3711 
Q 2988 4147 2022 4147 
L 1259 4147 
z
M 628 4666 
L 1925 4666 
Q 3281 4666 3915 4102 
Q 4550 3538 4550 2338 
Q 4550 1131 3912 565 
Q 3275 0 1925 0 
L 628 0 
L 628 4666 
z
" transform="scale(0.015625)"/>
      <path id="DejaVuSans-61" d="M 2194 1759 
Q 1497 1759 1228 1600 
Q 959 1441 959 1056 
Q 959 750 1161 570 
Q 1363 391 1709 391 
Q 2188 391 2477 730 
Q 2766 1069 2766 1631 
L 2766 1759 
L 2194 1759 
z
M 3341 1997 
L 3341 0 
L 2766 0 
L 2766 531 
Q 2569 213 2275 61 
Q 1981 -91 1556 -91 
Q 1019 -91 701 211 
Q 384 513 384 1019 
Q 384 1609 779 1909 
Q 1175 2209 1959 2209 
L 2766 2209 
L 2766 2266 
Q 2766 2663 2505 2880 
Q 2244 3097 1772 3097 
Q 1472 3097 1187 3025 
Q 903 2953 641 2809 
L 641 3341 
Q 956 3463 1253 3523 
Q 1550 3584 1831 3584 
Q 2591 3584 2966 3190 
Q 3341 2797 3341 1997 
z
" transform="scale(0.015625)"/>
      <path id="DejaVuSans-69" d="M 603 3500 
L 1178 3500 
L 1178 0 
L 603 0 
L 603 3500 
z
M 603 4863 
L 1178 4863 
L 1178 4134 
L 603 4134 
L 603 4863 
z
" transform="scale(0.015625)"/>
      <path id="DejaVuSans-6c" d="M 603 4863 
L 1178 4863 
L 1178 0 
L 603 0 
L 603 4863 
z
" transform="scale(0.015625)"/>
      <path id="DejaVuSans-79" d="M 2059 -325 
Q 1816 -950 1584 -1140 
Q 1353 -1331 966 -1331 
L 506 -1331 
L 506 -850 
L 844 -850 
Q 1081 -850 1212 -737 
Q 1344 -625 1503 -206 
L 1606 56 
L 191 3500 
L 800 3500 
L 1894 763 
L 2988 3500 
L 3597 3500 
L 2059 -325 
z
" transform="scale(0.015625)"/>
      <path id="DejaVuSans-20" transform="scale(0.015625)"/>
      <path id="DejaVuSans-43" d="M 4122 4306 
L 4122 3641 
Q 3803 3938 3442 4084 
Q 3081 4231 2675 4231 
Q 1875 4231 1450 3742 
Q 1025 3253 1025 2328 
Q 1025 1406 1450 917 
Q 1875 428 2675 428 
Q 3081 428 3442 575 
Q 3803 722 4122 1019 
L 4122 359 
Q 3791 134 3420 21 
Q 3050 -91 2638 -91 
Q 1578 -91 968 557 
Q 359 1206 359 2328 
Q 359 3453 968 4101 
Q 1578 4750 2638 4750 
Q 3056 4750 3426 4639 
Q 3797 4528 4122 4306 
z
" transform="scale(0.015625)"/>
      <path id="DejaVuSans-6f" d="M 1959 3097 
Q 1497 3097 1228 2736 
Q 959 2375 959 1747 
Q 959 1119 1226 758 
Q 1494 397 1959 397 
Q 2419 397 2687 759 
Q 2956 1122 2956 1747 
Q 2956 2369 2687 2733 
Q 2419 3097 1959 3097 
z
M 1959 3584 
Q 2709 3584 3137 3096 
Q 3566 2609 3566 1747 
Q 3566 888 3137 398 
Q 2709 -91 1959 -91 
Q 1206 -91 779 398 
Q 353 888 353 1747 
Q 353 2609 779 3096 
Q 1206 3584 1959 3584 
z
" transform="scale(0.015625)"/>
      <path id="DejaVuSans-6e" d="M 3513 2113 
L 3513 0 
L 2938 0 
L 2938 2094 
Q 2938 2591 2744 2837 
Q 2550 3084 2163 3084 
Q 1697 3084 1428 2787 
Q 1159 2491 1159 1978 
L 1159 0 
L 581 0 
L 581 3500 
L 1159 3500 
L 1159 2956 
Q 1366 3272 1645 3428 
Q 1925 3584 2291 3584 
Q 2894 3584 3203 3211 
Q 3513 2838 3513 2113 
z
" transform="scale(0.015625)"/>
      <path id="DejaVuSans-66" d="M 2375 4863 
L 2375 4384 
L 1825 4384 
Q 1516 4384 1395 4259 
Q 1275 4134 1275 3809 
L 1275 3500 
L 2222 3500 
L 2222 3053 
L 1275 3053 
L 1275 0 
L 697 0 
L 697 3053 
L 147 3053 
L 147 3500 
L 697 3500 
L 697 3744 
Q 697 4328 969 4595 
Q 1241 4863 1831 4863 
L 2375 4863 
z
" transform="scale(0.015625)"/>
      <path id="DejaVuSans-72" d="M 2631 2963 
Q 2534 3019 2420 3045 
Q 2306 3072 2169 3072 
Q 1681 3072 1420 2755 
Q 1159 2438 1159 1844 
L 1159 0 
L 581 0 
L 581 3500 
L 1159 3500 
L 1159 2956 
Q 1341 3275 1631 3429 
Q 1922 3584 2338 3584 
Q 2397 3584 2469 3576 
Q 2541 3569 2628 3553 
L 2631 2963 
z
" transform="scale(0.015625)"/>
      <path id="DejaVuSans-6d" d="M 3328 2828 
Q 3544 3216 3844 3400 
Q 4144 3584 4550 3584 
Q 5097 3584 5394 3201 
Q 5691 2819 5691 2113 
L 5691 0 
L 5113 0 
L 5113 2094 
Q 5113 2597 4934 2840 
Q 4756 3084 4391 3084 
Q 3944 3084 3684 2787 
Q 3425 2491 3425 1978 
L 3425 0 
L 2847 0 
L 2847 2094 
Q 2847 2600 2669 2842 
Q 2491 3084 2119 3084 
Q 1678 3084 1418 2786 
Q 1159 2488 1159 1978 
L 1159 0 
L 581 0 
L 581 3500 
L 1159 3500 
L 1159 2956 
Q 1356 3278 1631 3431 
Q 1906 3584 2284 3584 
Q 2666 3584 2933 3390 
Q 3200 3197 3328 2828 
z
" transform="scale(0.015625)"/>
      <path id="DejaVuSans-65" d="M 3597 1894 
L 3597 1613 
L 953 1613 
Q 991 1019 1311 708 
Q 1631 397 2203 397 
Q 2534 397 2845 478 
Q 3156 559 3463 722 
L 3463 178 
Q 3153 47 2828 -22 
Q 2503 -91 2169 -91 
Q 1331 -91 842 396 
Q 353 884 353 1716 
Q 353 2575 817 3079 
Q 1281 3584 2069 3584 
Q 2775 3584 3186 3129 
Q 3597 2675 3597 1894 
z
M 3022 2063 
Q 3016 2534 2758 2815 
Q 2500 3097 2075 3097 
Q 1594 3097 1305 2825 
Q 1016 2553 972 2059 
L 3022 2063 
z
" transform="scale(0.015625)"/>
      <path id="DejaVuSans-64" d="M 2906 2969 
L 2906 4863 
L 3481 4863 
L 3481 0 
L 2906 0 
L 2906 525 
Q 2725 213 2448 61 
Q 2172 -91 1784 -91 
Q 1150 -91 751 415 
Q 353 922 353 1747 
Q 353 2572 751 3078 
Q 1150 3584 1784 3584 
Q 2172 3584 2448 3432 
Q 2725 3281 2906 2969 
z
M 947 1747 
Q 947 1113 1208 752 
Q 1469 391 1925 391 
Q 2381 391 2643 752 
Q 2906 1113 2906 1747 
Q 2906 2381 2643 2742 
Q 2381 3103 1925 3103 
Q 1469 3103 1208 2742 
Q 947 2381 947 1747 
z
" transform="scale(0.015625)"/>
      <path id="DejaVuSans-73" d="M 2834 3397 
L 2834 2853 
Q 2591 2978 2328 3040 
Q 2066 3103 1784 3103 
Q 1356 3103 1142 2972 
Q 928 2841 928 2578 
Q 928 2378 1081 2264 
Q 1234 2150 1697 2047 
L 1894 2003 
Q 2506 1872 2764 1633 
Q 3022 1394 3022 966 
Q 3022 478 2636 193 
Q 2250 -91 1575 -91 
Q 1294 -91 989 -36 
Q 684 19 347 128 
L 347 722 
Q 666 556 975 473 
Q 1284 391 1588 391 
Q 1994 391 2212 530 
Q 2431 669 2431 922 
Q 2431 1156 2273 1281 
Q 2116 1406 1581 1522 
L 1381 1569 
Q 847 1681 609 1914 
Q 372 2147 372 2553 
Q 372 3047 722 3315 
Q 1072 3584 1716 3584 
Q 2034 3584 2315 3537 
Q 2597 3491 2834 3397 
z
" transform="scale(0.015625)"/>
      <path id="DejaVuSans-46" d="M 628 4666 
L 3309 4666 
L 3309 4134 
L 1259 4134 
L 1259 2759 
L 3109 2759 
L 3109 2228 
L 1259 2228 
L 1259 0 
L 628 0 
L 628 4666 
z
" transform="scale(0.015625)"/>
      <path id="DejaVuSans-63" d="M 3122 3366 
L 3122 2828 
Q 2878 2963 2633 3030 
Q 2388 3097 2138 3097 
Q 1578 3097 1268 2742 
Q 959 2388 959 1747 
Q 959 1106 1268 751 
Q 1578 397 2138 397 
Q 2388 397 2633 464 
Q 2878 531 3122 666 
L 3122 134 
Q 2881 22 2623 -34 
Q 2366 -91 2075 -91 
Q 1284 -91 818 406 
Q 353 903 353 1747 
Q 353 2603 823 3093 
Q 1294 3584 2113 3584 
Q 2378 3584 2631 3529 
Q 2884 3475 3122 3366 
z
" transform="scale(0.015625)"/>
      <path id="DejaVuSans-74" d="M 1172 4494 
L 1172 3500 
L 2356 3500 
L 2356 3053 
L 1172 3053 
L 1172 1153 
Q 1172 725 1289 603 
Q 1406 481 1766 481 
L 2356 481 
L 2356 0 
L 1766 0 
Q 1100 0 847 248 
Q 594 497 594 1153 
L 594 3053 
L 172 3053 
L 172 3500 
L 594 3500 
L 594 4494 
L 1172 4494 
z
" transform="scale(0.015625)"/>
      <path id="DejaVuSans-67" d="M 2906 1791 
Q 2906 2416 2648 2759 
Q 2391 3103 1925 3103 
Q 1463 3103 1205 2759 
Q 947 2416 947 1791 
Q 947 1169 1205 825 
Q 1463 481 1925 481 
Q 2391 481 2648 825 
Q 2906 1169 2906 1791 
z
M 3481 434 
Q 3481 -459 3084 -895 
Q 2688 -1331 1869 -1331 
Q 1566 -1331 1297 -1286 
Q 1028 -1241 775 -1147 
L 775 -588 
Q 1028 -725 1275 -790 
Q 1522 -856 1778 -856 
Q 2344 -856 2625 -561 
Q 2906 -266 2906 331 
L 2906 616 
Q 2728 306 2450 153 
Q 2172 0 1784 0 
Q 1141 0 747 490 
Q 353 981 353 1791 
Q 353 2603 747 3093 
Q 1141 3584 1784 3584 
Q 2172 3584 2450 3431 
Q 2728 3278 2906 2969 
L 2906 3500 
L 3481 3500 
L 3481 434 
z
" transform="scale(0.015625)"/>
      <path id="DejaVuSans-47" d="M 3809 666 
L 3809 1919 
L 2778 1919 
L 2778 2438 
L 4434 2438 
L 4434 434 
Q 4069 175 3628 42 
Q 3188 -91 2688 -91 
Q 1594 -91 976 548 
Q 359 1188 359 2328 
Q 359 3472 976 4111 
Q 1594 4750 2688 4750 
Q 3144 4750 3555 4637 
Q 3966 4525 4313 4306 
L 4313 3634 
Q 3963 3931 3569 4081 
Q 3175 4231 2741 4231 
Q 1884 4231 1454 3753 
Q 1025 3275 1025 2328 
Q 1025 1384 1454 906 
Q 1884 428 2741 428 
Q 3075 428 3337 486 
Q 3600 544 3809 666 
z
" transform="scale(0.015625)"/>
      <path id="DejaVuSans-75" d="M 544 1381 
L 544 3500 
L 1119 3500 
L 1119 1403 
Q 1119 906 1312 657 
Q 1506 409 1894 409 
Q 2359 409 2629 706 
Q 2900 1003 2900 1516 
L 2900 3500 
L 3475 3500 
L 3475 0 
L 2900 0 
L 2900 538 
Q 2691 219 2414 64 
Q 2138 -91 1772 -91 
Q 1169 -91 856 284 
Q 544 659 544 1381 
z
M 1991 3584 
L 1991 3584 
z
" transform="scale(0.015625)"/>
     </defs>
     <use xlink:href="#DejaVuSans-44"/>
     <use xlink:href="#DejaVuSans-61" x="77.001953"/>
     <use xlink:href="#DejaVuSans-69" x="138.28125"/>
     <use xlink:href="#DejaVuSans-6c" x="166.064453"/>
     <use xlink:href="#DejaVuSans-79" x="193.847656"/>
     <use xlink:href="#DejaVuSans-20" x="253.027344"/>
     <use xlink:href="#DejaVuSans-43" x="284.814453"/>
     <use xlink:href="#DejaVuSans-6f" x="354.638672"/>
     <use xlink:href="#DejaVuSans-6e" x="415.820312"/>
     <use xlink:href="#DejaVuSans-66" x="479.199219"/>
     <use xlink:href="#DejaVuSans-69" x="514.404297"/>
     <use xlink:href="#DejaVuSans-72" x="542.1875"/>
     <use xlink:href="#DejaVuSans-6d" x="581.550781"/>
     <use xlink:href="#DejaVuSans-65" x="678.962891"/>
     <use xlink:href="#DejaVuSans-64" x="740.486328"/>
     <use xlink:href="#DejaVuSans-20" x="803.962891"/>
     <use xlink:href="#DejaVuSans-43" x="835.75"/>
     <use xlink:href="#DejaVuSans-61" x="905.574219"/>
     <use xlink:href="#DejaVuSans-73" x="966.853516"/>
     <use xlink:href="#DejaVuSans-65" x="1018.953125"/>
     <use xlink:href="#DejaVuSans-73" x="1080.476562"/>
     <use xlink:href="#DejaVuSans-20" x="1132.576172"/>
     <use xlink:href="#DejaVuSans-46" x="1164.363281"/>
     <use xlink:href="#DejaVuSans-6f" x="1218.257812"/>
     <use xlink:href="#DejaVuSans-72" x="1279.439453"/>
     <use xlink:href="#DejaVuSans-65" x="1318.302734"/>
     <use xlink:href="#DejaVuSans-63" x="1379.826172"/>
     <use xlink:href="#DejaVuSans-61" x="1434.806641"/>
     <use xlink:href="#DejaVuSans-73" x="1496.085938"/>
     <use xlink:href="#DejaVuSans-74" x="1548.185547"/>
     <use xlink:href="#DejaVuSans-69" x="1587.394531"/>
     <use xlink:href="#DejaVuSans-6e" x="1615.177734"/>
     <use xlink:href="#DejaVuSans-67" x="1678.556641"/>
     <use xlink:href="#DejaVuSans-20" x="1742.033203"/>
     <use xlink:href="#DejaVuSans-2d" x="1773.820312"/>
     <use xlink:href="#DejaVuSans-20" x="1809.904297"/>
     <use xlink:href="#DejaVuSans-47" x="1841.691406"/>
     <use xlink:href="#DejaVuSans-75" x="1919.181641"/>
     <use xlink:href="#DejaVuSans-61" x="1982.560547"/>
     <use xlink:href="#DejaVuSans-74" x="2043.839844"/>
     <use xlink:href="#DejaVuSans-65" x="2083.048828"/>
     <use xlink:href="#DejaVuSans-6d" x="2144.572266"/>
     <use xlink:href="#DejaVuSans-61" x="2241.984375"/>
     <use xlink:href="#DejaVuSans-6c" x="2303.263672"/>
     <use xlink:href="#DejaVuSans-61" x="2331.046875"/>
    </g>
    <!-- ARIMA (4, 1, 1)x(1, 0, 1, 7) (R2 = 0.569326) -->
    <g transform="translate(583.628438 29.7555)scale(0.12 -0.12)">
     <defs>
      <path id="DejaVuSans-41" d="M 2188 4044 
L 1331 1722 
L 3047 1722 
L 2188 4044 
z
M 1831 4666 
L 2547 4666 
L 4325 0 
L 3669 0 
L 3244 1197 
L 1141 1197 
L 716 0 
L 50 0 
L 1831 4666 
z
" transform="scale(0.015625)"/>
      <path id="DejaVuSans-52" d="M 2841 2188 
Q 3044 2119 3236 1894 
Q 3428 1669 3622 1275 
L 4263 0 
L 3584 0 
L 2988 1197 
Q 2756 1666 2539 1819 
Q 2322 1972 1947 1972 
L 1259 1972 
L 1259 0 
L 628 0 
L 628 4666 
L 2053 4666 
Q 2853 4666 3247 4331 
Q 3641 3997 3641 3322 
Q 3641 2881 3436 2590 
Q 3231 2300 2841 2188 
z
M 1259 4147 
L 1259 2491 
L 2053 2491 
Q 2509 2491 2742 2702 
Q 2975 2913 2975 3322 
Q 2975 3731 2742 3939 
Q 2509 4147 2053 4147 
L 1259 4147 
z
" transform="scale(0.015625)"/>
      <path id="DejaVuSans-49" d="M 628 4666 
L 1259 4666 
L 1259 0 
L 628 0 
L 628 4666 
z
" transform="scale(0.015625)"/>
      <path id="DejaVuSans-4d" d="M 628 4666 
L 1569 4666 
L 2759 1491 
L 3956 4666 
L 4897 4666 
L 4897 0 
L 4281 0 
L 4281 4097 
L 3078 897 
L 2444 897 
L 1241 4097 
L 1241 0 
L 628 0 
L 628 4666 
z
" transform="scale(0.015625)"/>
      <path id="DejaVuSans-28" d="M 1984 4856 
Q 1566 4138 1362 3434 
Q 1159 2731 1159 2009 
Q 1159 1288 1364 580 
Q 1569 -128 1984 -844 
L 1484 -844 
Q 1016 -109 783 600 
Q 550 1309 550 2009 
Q 550 2706 781 3412 
Q 1013 4119 1484 4856 
L 1984 4856 
z
" transform="scale(0.015625)"/>
      <path id="DejaVuSans-2c" d="M 750 794 
L 1409 794 
L 1409 256 
L 897 -744 
L 494 -744 
L 750 256 
L 750 794 
z
" transform="scale(0.015625)"/>
      <path id="DejaVuSans-29" d="M 513 4856 
L 1013 4856 
Q 1481 4119 1714 3412 
Q 1947 2706 1947 2009 
Q 1947 1309 1714 600 
Q 1481 -109 1013 -844 
L 513 -844 
Q 928 -128 1133 580 
Q 1338 1288 1338 2009 
Q 1338 2731 1133 3434 
Q 928 4138 513 4856 
z
" transform="scale(0.015625)"/>
      <path id="DejaVuSans-78" d="M 3513 3500 
L 2247 1797 
L 3578 0 
L 2900 0 
L 1881 1375 
L 863 0 
L 184 0 
L 1544 1831 
L 300 3500 
L 978 3500 
L 1906 2253 
L 2834 3500 
L 3513 3500 
z
" transform="scale(0.015625)"/>
      <path id="DejaVuSans-3d" d="M 678 2906 
L 4684 2906 
L 4684 2381 
L 678 2381 
L 678 2906 
z
M 678 1631 
L 4684 1631 
L 4684 1100 
L 678 1100 
L 678 1631 
z
" transform="scale(0.015625)"/>
      <path id="DejaVuSans-2e" d="M 684 794 
L 1344 794 
L 1344 0 
L 684 0 
L 684 794 
z
" transform="scale(0.015625)"/>
      <path id="DejaVuSans-35" d="M 691 4666 
L 3169 4666 
L 3169 4134 
L 1269 4134 
L 1269 2991 
Q 1406 3038 1543 3061 
Q 1681 3084 1819 3084 
Q 2600 3084 3056 2656 
Q 3513 2228 3513 1497 
Q 3513 744 3044 326 
Q 2575 -91 1722 -91 
Q 1428 -91 1123 -41 
Q 819 9 494 109 
L 494 744 
Q 775 591 1075 516 
Q 1375 441 1709 441 
Q 2250 441 2565 725 
Q 2881 1009 2881 1497 
Q 2881 1984 2565 2268 
Q 2250 2553 1709 2553 
Q 1456 2553 1204 2497 
Q 953 2441 691 2322 
L 691 4666 
z
" transform="scale(0.015625)"/>
      <path id="DejaVuSans-39" d="M 703 97 
L 703 672 
Q 941 559 1184 500 
Q 1428 441 1663 441 
Q 2288 441 2617 861 
Q 2947 1281 2994 2138 
Q 2813 1869 2534 1725 
Q 2256 1581 1919 1581 
Q 1219 1581 811 2004 
Q 403 2428 403 3163 
Q 403 3881 828 4315 
Q 1253 4750 1959 4750 
Q 2769 4750 3195 4129 
Q 3622 3509 3622 2328 
Q 3622 1225 3098 567 
Q 2575 -91 1691 -91 
Q 1453 -91 1209 -44 
Q 966 3 703 97 
z
M 1959 2075 
Q 2384 2075 2632 2365 
Q 2881 2656 2881 3163 
Q 2881 3666 2632 3958 
Q 2384 4250 1959 4250 
Q 1534 4250 1286 3958 
Q 1038 3666 1038 3163 
Q 1038 2656 1286 2365 
Q 1534 2075 1959 2075 
z
" transform="scale(0.015625)"/>
      <path id="DejaVuSans-33" d="M 2597 2516 
Q 3050 2419 3304 2112 
Q 3559 1806 3559 1356 
Q 3559 666 3084 287 
Q 2609 -91 1734 -91 
Q 1441 -91 1130 -33 
Q 819 25 488 141 
L 488 750 
Q 750 597 1062 519 
Q 1375 441 1716 441 
Q 2309 441 2620 675 
Q 2931 909 2931 1356 
Q 2931 1769 2642 2001 
Q 2353 2234 1838 2234 
L 1294 2234 
L 1294 2753 
L 1863 2753 
Q 2328 2753 2575 2939 
Q 2822 3125 2822 3475 
Q 2822 3834 2567 4026 
Q 2313 4219 1838 4219 
Q 1578 4219 1281 4162 
Q 984 4106 628 3988 
L 628 4550 
Q 988 4650 1302 4700 
Q 1616 4750 1894 4750 
Q 2613 4750 3031 4423 
Q 3450 4097 3450 3541 
Q 3450 3153 3228 2886 
Q 3006 2619 2597 2516 
z
" transform="scale(0.015625)"/>
     </defs>
     <use xlink:href="#DejaVuSans-41"/>
     <use xlink:href="#DejaVuSans-52" x="68.408203"/>
     <use xlink:href="#DejaVuSans-49" x="137.890625"/>
     <use xlink:href="#DejaVuSans-4d" x="167.382812"/>
     <use xlink:href="#DejaVuSans-41" x="253.662109"/>
     <use xlink:href="#DejaVuSans-20" x="322.070312"/>
     <use xlink:href="#DejaVuSans-28" x="353.857422"/>
     <use xlink:href="#DejaVuSans-34" x="392.871094"/>
     <use xlink:href="#DejaVuSans-2c" x="456.494141"/>
     <use xlink:href="#DejaVuSans-20" x="488.28125"/>
     <use xlink:href="#DejaVuSans-31" x="520.068359"/>
     <use xlink:href="#DejaVuSans-2c" x="583.691406"/>
     <use xlink:href="#DejaVuSans-20" x="615.478516"/>
     <use xlink:href="#DejaVuSans-31" x="647.265625"/>
     <use xlink:href="#DejaVuSans-29" x="710.888672"/>
     <use xlink:href="#DejaVuSans-78" x="749.902344"/>
     <use xlink:href="#DejaVuSans-28" x="809.082031"/>
     <use xlink:href="#DejaVuSans-31" x="848.095703"/>
     <use xlink:href="#DejaVuSans-2c" x="911.71875"/>
     <use xlink:href="#DejaVuSans-20" x="943.505859"/>
     <use xlink:href="#DejaVuSans-30" x="975.292969"/>
     <use xlink:href="#DejaVuSans-2c" x="1038.916016"/>
     <use xlink:href="#DejaVuSans-20" x="1070.703125"/>
     <use xlink:href="#DejaVuSans-31" x="1102.490234"/>
     <use xlink:href="#DejaVuSans-2c" x="1166.113281"/>
     <use xlink:href="#DejaVuSans-20" x="1197.900391"/>
     <use xlink:href="#DejaVuSans-37" x="1229.6875"/>
     <use xlink:href="#DejaVuSans-29" x="1293.310547"/>
     <use xlink:href="#DejaVuSans-20" x="1332.324219"/>
     <use xlink:href="#DejaVuSans-28" x="1364.111328"/>
     <use xlink:href="#DejaVuSans-52" x="1403.125"/>
     <use xlink:href="#DejaVuSans-32" x="1472.607422"/>
     <use xlink:href="#DejaVuSans-20" x="1536.230469"/>
     <use xlink:href="#DejaVuSans-3d" x="1568.017578"/>
     <use xlink:href="#DejaVuSans-20" x="1651.806641"/>
     <use xlink:href="#DejaVuSans-30" x="1683.59375"/>
     <use xlink:href="#DejaVuSans-2e" x="1747.216797"/>
     <use xlink:href="#DejaVuSans-35" x="1779.003906"/>
     <use xlink:href="#DejaVuSans-36" x="1842.626953"/>
     <use xlink:href="#DejaVuSans-39" x="1906.25"/>
     <use xlink:href="#DejaVuSans-33" x="1969.873047"/>
     <use xlink:href="#DejaVuSans-32" x="2033.496094"/>
     <use xlink:href="#DejaVuSans-36" x="2097.119141"/>
     <use xlink:href="#DejaVuSans-29" x="2160.742188"/>
    </g>
   </g>
   <g id="legend_1">
    <g id="patch_7">
     <path d="M 53.0125 87.789875 
L 150.092188 87.789875 
Q 152.092188 87.789875 152.092188 85.789875 
L 152.092188 42.7555 
Q 152.092188 40.7555 150.092188 40.7555 
L 53.0125 40.7555 
Q 51.0125 40.7555 51.0125 42.7555 
L 51.0125 85.789875 
Q 51.0125 87.789875 53.0125 87.789875 
z
" style="fill: #ffffff; opacity: 0.8; stroke: #cccccc; stroke-linejoin: miter"/>
    </g>
    <g id="line2d_21">
     <path d="M 55.0125 48.853937 
L 65.0125 48.853937 
L 75.0125 48.853937 
" style="fill: none; stroke: #0000ff; stroke-width: 1.5; stroke-linecap: square"/>
    </g>
    <g id="text_19">
     <!-- Actual Value -->
     <g transform="translate(83.0125 52.353937)scale(0.1 -0.1)">
      <defs>
       <path id="DejaVuSans-56" d="M 1831 0 
L 50 4666 
L 709 4666 
L 2188 738 
L 3669 4666 
L 4325 4666 
L 2547 0 
L 1831 0 
z
" transform="scale(0.015625)"/>
      </defs>
      <use xlink:href="#DejaVuSans-41"/>
      <use xlink:href="#DejaVuSans-63" x="66.658203"/>
      <use xlink:href="#DejaVuSans-74" x="121.638672"/>
      <use xlink:href="#DejaVuSans-75" x="160.847656"/>
      <use xlink:href="#DejaVuSans-61" x="224.226562"/>
      <use xlink:href="#DejaVuSans-6c" x="285.505859"/>
      <use xlink:href="#DejaVuSans-20" x="313.289062"/>
      <use xlink:href="#DejaVuSans-56" x="345.076172"/>
      <use xlink:href="#DejaVuSans-61" x="405.734375"/>
      <use xlink:href="#DejaVuSans-6c" x="467.013672"/>
      <use xlink:href="#DejaVuSans-75" x="494.796875"/>
      <use xlink:href="#DejaVuSans-65" x="558.175781"/>
     </g>
    </g>
    <g id="line2d_22">
     <path d="M 55.0125 63.532062 
L 65.0125 63.532062 
L 75.0125 63.532062 
" style="fill: none; stroke: #ffa500; stroke-width: 1.5; stroke-linecap: square"/>
    </g>
    <g id="text_20">
     <!-- Check Value -->
     <g transform="translate(83.0125 67.032062)scale(0.1 -0.1)">
      <defs>
       <path id="DejaVuSans-68" d="M 3513 2113 
L 3513 0 
L 2938 0 
L 2938 2094 
Q 2938 2591 2744 2837 
Q 2550 3084 2163 3084 
Q 1697 3084 1428 2787 
Q 1159 2491 1159 1978 
L 1159 0 
L 581 0 
L 581 4863 
L 1159 4863 
L 1159 2956 
Q 1366 3272 1645 3428 
Q 1925 3584 2291 3584 
Q 2894 3584 3203 3211 
Q 3513 2838 3513 2113 
z
" transform="scale(0.015625)"/>
       <path id="DejaVuSans-6b" d="M 581 4863 
L 1159 4863 
L 1159 1991 
L 2875 3500 
L 3609 3500 
L 1753 1863 
L 3688 0 
L 2938 0 
L 1159 1709 
L 1159 0 
L 581 0 
L 581 4863 
z
" transform="scale(0.015625)"/>
      </defs>
      <use xlink:href="#DejaVuSans-43"/>
      <use xlink:href="#DejaVuSans-68" x="69.824219"/>
      <use xlink:href="#DejaVuSans-65" x="133.203125"/>
      <use xlink:href="#DejaVuSans-63" x="194.726562"/>
      <use xlink:href="#DejaVuSans-6b" x="249.707031"/>
      <use xlink:href="#DejaVuSans-20" x="307.617188"/>
      <use xlink:href="#DejaVuSans-56" x="339.404297"/>
      <use xlink:href="#DejaVuSans-61" x="400.0625"/>
      <use xlink:href="#DejaVuSans-6c" x="461.341797"/>
      <use xlink:href="#DejaVuSans-75" x="489.125"/>
      <use xlink:href="#DejaVuSans-65" x="552.503906"/>
     </g>
    </g>
    <g id="line2d_23">
     <path d="M 55.0125 78.210187 
L 65.0125 78.210187 
L 75.0125 78.210187 
" style="fill: none; stroke: #ff0000; stroke-width: 1.5; stroke-linecap: square"/>
    </g>
    <g id="text_21">
     <!-- Predict Value -->
     <g transform="translate(83.0125 81.710187)scale(0.1 -0.1)">
      <defs>
       <path id="DejaVuSans-50" d="M 1259 4147 
L 1259 2394 
L 2053 2394 
Q 2494 2394 2734 2622 
Q 2975 2850 2975 3272 
Q 2975 3691 2734 3919 
Q 2494 4147 2053 4147 
L 1259 4147 
z
M 628 4666 
L 2053 4666 
Q 2838 4666 3239 4311 
Q 3641 3956 3641 3272 
Q 3641 2581 3239 2228 
Q 2838 1875 2053 1875 
L 1259 1875 
L 1259 0 
L 628 0 
L 628 4666 
z
" transform="scale(0.015625)"/>
      </defs>
      <use xlink:href="#DejaVuSans-50"/>
      <use xlink:href="#DejaVuSans-72" x="58.552734"/>
      <use xlink:href="#DejaVuSans-65" x="97.416016"/>
      <use xlink:href="#DejaVuSans-64" x="158.939453"/>
      <use xlink:href="#DejaVuSans-69" x="222.416016"/>
      <use xlink:href="#DejaVuSans-63" x="250.199219"/>
      <use xlink:href="#DejaVuSans-74" x="305.179688"/>
      <use xlink:href="#DejaVuSans-20" x="344.388672"/>
      <use xlink:href="#DejaVuSans-56" x="376.175781"/>
      <use xlink:href="#DejaVuSans-61" x="436.833984"/>
      <use xlink:href="#DejaVuSans-6c" x="498.113281"/>
      <use xlink:href="#DejaVuSans-75" x="525.896484"/>
      <use xlink:href="#DejaVuSans-65" x="589.275391"/>
     </g>
    </g>
   </g>
  </g>
 </g>
 <defs>
  <clipPath id="pb26f878f9e">
   <rect x="46.0125" y="35.7555" width="1339.2" height="332.64"/>
  </clipPath>
 </defs>
</svg>
