<?xml version="1.0" encoding="utf-8" standalone="no"?>
<!DOCTYPE svg PUBLIC "-//W3C//DTD SVG 1.1//EN"
  "http://www.w3.org/Graphics/SVG/1.1/DTD/svg11.dtd">
<svg xmlns:xlink="http://www.w3.org/1999/xlink" width="1392.4125pt" height="392.273625pt" viewBox="0 0 1392.4125 392.273625" xmlns="http://www.w3.org/2000/svg" version="1.1">
 <metadata>
  <rdf:RDF xmlns:dc="http://purl.org/dc/elements/1.1/" xmlns:cc="http://creativecommons.org/ns#" xmlns:rdf="http://www.w3.org/1999/02/22-rdf-syntax-ns#">
   <cc:Work>
    <dc:type rdf:resource="http://purl.org/dc/dcmitype/StillImage"/>
    <dc:date>2022-07-11T19:30:32.913713</dc:date>
    <dc:format>image/svg+xml</dc:format>
    <dc:creator>
     <cc:Agent>
      <dc:title>Matplotlib v3.5.2, https://matplotlib.org/</dc:title>
     </cc:Agent>
    </dc:creator>
   </cc:Work>
  </rdf:RDF>
 </metadata>
 <defs>
  <style type="text/css">*{stroke-linejoin: round; stroke-linecap: butt}</style>
 </defs>
 <g id="figure_1">
  <g id="patch_1">
   <path d="M 0 392.273625 
L 1392.4125 392.273625 
L 1392.4125 0 
L 0 0 
z
" style="fill: #ffffff"/>
  </g>
  <g id="axes_1">
   <g id="patch_2">
    <path d="M 46.0125 368.3955 
L 1385.2125 368.3955 
L 1385.2125 35.7555 
L 46.0125 35.7555 
z
" style="fill: #ffffff"/>
   </g>
   <g id="matplotlib.axis_1">
    <g id="xtick_1">
     <g id="line2d_1">
      <defs>
       <path id="mc4b555cfef" d="M 0 0 
L 0 3.5 
" style="stroke: #000000; stroke-width: 0.8"/>
      </defs>
      <g>
       <use xlink:href="#mc4b555cfef" x="77.516806" y="368.3955" style="stroke: #000000; stroke-width: 0.8"/>
      </g>
     </g>
     <g id="text_1">
      <!-- 2020-01 -->
      <g transform="translate(56.6254 382.993937)scale(0.1 -0.1)">
       <defs>
        <path id="DejaVuSans-32" d="M 1228 531 
L 3431 531 
L 3431 0 
L 469 0 
L 469 531 
Q 828 903 1448 1529 
Q 2069 2156 2228 2338 
Q 2531 2678 2651 2914 
Q 2772 3150 2772 3378 
Q 2772 3750 2511 3984 
Q 2250 4219 1831 4219 
Q 1534 4219 1204 4116 
Q 875 4013 500 3803 
L 500 4441 
Q 881 4594 1212 4672 
Q 1544 4750 1819 4750 
Q 2544 4750 2975 4387 
Q 3406 4025 3406 3419 
Q 3406 3131 3298 2873 
Q 3191 2616 2906 2266 
Q 2828 2175 2409 1742 
Q 1991 1309 1228 531 
z
" transform="scale(0.015625)"/>
        <path id="DejaVuSans-30" d="M 2034 4250 
Q 1547 4250 1301 3770 
Q 1056 3291 1056 2328 
Q 1056 1369 1301 889 
Q 1547 409 2034 409 
Q 2525 409 2770 889 
Q 3016 1369 3016 2328 
Q 3016 3291 2770 3770 
Q 2525 4250 2034 4250 
z
M 2034 4750 
Q 2819 4750 3233 4129 
Q 3647 3509 3647 2328 
Q 3647 1150 3233 529 
Q 2819 -91 2034 -91 
Q 1250 -91 836 529 
Q 422 1150 422 2328 
Q 422 3509 836 4129 
Q 1250 4750 2034 4750 
z
" transform="scale(0.015625)"/>
        <path id="DejaVuSans-2d" d="M 313 2009 
L 1997 2009 
L 1997 1497 
L 313 1497 
L 313 2009 
z
" transform="scale(0.015625)"/>
        <path id="DejaVuSans-31" d="M 794 531 
L 1825 531 
L 1825 4091 
L 703 3866 
L 703 4441 
L 1819 4666 
L 2450 4666 
L 2450 531 
L 3481 531 
L 3481 0 
L 794 0 
L 794 531 
z
" transform="scale(0.015625)"/>
       </defs>
       <use xlink:href="#DejaVuSans-32"/>
       <use xlink:href="#DejaVuSans-30" x="63.623047"/>
       <use xlink:href="#DejaVuSans-32" x="127.246094"/>
       <use xlink:href="#DejaVuSans-30" x="190.869141"/>
       <use xlink:href="#DejaVuSans-2d" x="254.492188"/>
       <use xlink:href="#DejaVuSans-30" x="290.576172"/>
       <use xlink:href="#DejaVuSans-31" x="354.199219"/>
      </g>
     </g>
    </g>
    <g id="xtick_2">
     <g id="line2d_2">
      <g>
       <use xlink:href="#mc4b555cfef" x="198.995275" y="368.3955" style="stroke: #000000; stroke-width: 0.8"/>
      </g>
     </g>
     <g id="text_2">
      <!-- 2020-04 -->
      <g transform="translate(178.103869 382.993937)scale(0.1 -0.1)">
       <defs>
        <path id="DejaVuSans-34" d="M 2419 4116 
L 825 1625 
L 2419 1625 
L 2419 4116 
z
M 2253 4666 
L 3047 4666 
L 3047 1625 
L 3713 1625 
L 3713 1100 
L 3047 1100 
L 3047 0 
L 2419 0 
L 2419 1100 
L 313 1100 
L 313 1709 
L 2253 4666 
z
" transform="scale(0.015625)"/>
       </defs>
       <use xlink:href="#DejaVuSans-32"/>
       <use xlink:href="#DejaVuSans-30" x="63.623047"/>
       <use xlink:href="#DejaVuSans-32" x="127.246094"/>
       <use xlink:href="#DejaVuSans-30" x="190.869141"/>
       <use xlink:href="#DejaVuSans-2d" x="254.492188"/>
       <use xlink:href="#DejaVuSans-30" x="290.576172"/>
       <use xlink:href="#DejaVuSans-34" x="354.199219"/>
      </g>
     </g>
    </g>
    <g id="xtick_3">
     <g id="line2d_3">
      <g>
       <use xlink:href="#mc4b555cfef" x="320.473744" y="368.3955" style="stroke: #000000; stroke-width: 0.8"/>
      </g>
     </g>
     <g id="text_3">
      <!-- 2020-07 -->
      <g transform="translate(299.582338 382.993937)scale(0.1 -0.1)">
       <defs>
        <path id="DejaVuSans-37" d="M 525 4666 
L 3525 4666 
L 3525 4397 
L 1831 0 
L 1172 0 
L 2766 4134 
L 525 4134 
L 525 4666 
z
" transform="scale(0.015625)"/>
       </defs>
       <use xlink:href="#DejaVuSans-32"/>
       <use xlink:href="#DejaVuSans-30" x="63.623047"/>
       <use xlink:href="#DejaVuSans-32" x="127.246094"/>
       <use xlink:href="#DejaVuSans-30" x="190.869141"/>
       <use xlink:href="#DejaVuSans-2d" x="254.492188"/>
       <use xlink:href="#DejaVuSans-30" x="290.576172"/>
       <use xlink:href="#DejaVuSans-37" x="354.199219"/>
      </g>
     </g>
    </g>
    <g id="xtick_4">
     <g id="line2d_4">
      <g>
       <use xlink:href="#mc4b555cfef" x="443.287141" y="368.3955" style="stroke: #000000; stroke-width: 0.8"/>
      </g>
     </g>
     <g id="text_4">
      <!-- 2020-10 -->
      <g transform="translate(422.395735 382.993937)scale(0.1 -0.1)">
       <use xlink:href="#DejaVuSans-32"/>
       <use xlink:href="#DejaVuSans-30" x="63.623047"/>
       <use xlink:href="#DejaVuSans-32" x="127.246094"/>
       <use xlink:href="#DejaVuSans-30" x="190.869141"/>
       <use xlink:href="#DejaVuSans-2d" x="254.492188"/>
       <use xlink:href="#DejaVuSans-31" x="290.576172"/>
       <use xlink:href="#DejaVuSans-30" x="354.199219"/>
      </g>
     </g>
    </g>
    <g id="xtick_5">
     <g id="line2d_5">
      <g>
       <use xlink:href="#mc4b555cfef" x="566.100538" y="368.3955" style="stroke: #000000; stroke-width: 0.8"/>
      </g>
     </g>
     <g id="text_5">
      <!-- 2021-01 -->
      <g transform="translate(545.209132 382.993937)scale(0.1 -0.1)">
       <use xlink:href="#DejaVuSans-32"/>
       <use xlink:href="#DejaVuSans-30" x="63.623047"/>
       <use xlink:href="#DejaVuSans-32" x="127.246094"/>
       <use xlink:href="#DejaVuSans-31" x="190.869141"/>
       <use xlink:href="#DejaVuSans-2d" x="254.492188"/>
       <use xlink:href="#DejaVuSans-30" x="290.576172"/>
       <use xlink:href="#DejaVuSans-31" x="354.199219"/>
      </g>
     </g>
    </g>
    <g id="xtick_6">
     <g id="line2d_6">
      <g>
       <use xlink:href="#mc4b555cfef" x="686.244079" y="368.3955" style="stroke: #000000; stroke-width: 0.8"/>
      </g>
     </g>
     <g id="text_6">
      <!-- 2021-04 -->
      <g transform="translate(665.352673 382.993937)scale(0.1 -0.1)">
       <use xlink:href="#DejaVuSans-32"/>
       <use xlink:href="#DejaVuSans-30" x="63.623047"/>
       <use xlink:href="#DejaVuSans-32" x="127.246094"/>
       <use xlink:href="#DejaVuSans-31" x="190.869141"/>
       <use xlink:href="#DejaVuSans-2d" x="254.492188"/>
       <use xlink:href="#DejaVuSans-30" x="290.576172"/>
       <use xlink:href="#DejaVuSans-34" x="354.199219"/>
      </g>
     </g>
    </g>
    <g id="xtick_7">
     <g id="line2d_7">
      <g>
       <use xlink:href="#mc4b555cfef" x="807.722548" y="368.3955" style="stroke: #000000; stroke-width: 0.8"/>
      </g>
     </g>
     <g id="text_7">
      <!-- 2021-07 -->
      <g transform="translate(786.831142 382.993937)scale(0.1 -0.1)">
       <use xlink:href="#DejaVuSans-32"/>
       <use xlink:href="#DejaVuSans-30" x="63.623047"/>
       <use xlink:href="#DejaVuSans-32" x="127.246094"/>
       <use xlink:href="#DejaVuSans-31" x="190.869141"/>
       <use xlink:href="#DejaVuSans-2d" x="254.492188"/>
       <use xlink:href="#DejaVuSans-30" x="290.576172"/>
       <use xlink:href="#DejaVuSans-37" x="354.199219"/>
      </g>
     </g>
    </g>
    <g id="xtick_8">
     <g id="line2d_8">
      <g>
       <use xlink:href="#mc4b555cfef" x="930.535945" y="368.3955" style="stroke: #000000; stroke-width: 0.8"/>
      </g>
     </g>
     <g id="text_8">
      <!-- 2021-10 -->
      <g transform="translate(909.644539 382.993937)scale(0.1 -0.1)">
       <use xlink:href="#DejaVuSans-32"/>
       <use xlink:href="#DejaVuSans-30" x="63.623047"/>
       <use xlink:href="#DejaVuSans-32" x="127.246094"/>
       <use xlink:href="#DejaVuSans-31" x="190.869141"/>
       <use xlink:href="#DejaVuSans-2d" x="254.492188"/>
       <use xlink:href="#DejaVuSans-31" x="290.576172"/>
       <use xlink:href="#DejaVuSans-30" x="354.199219"/>
      </g>
     </g>
    </g>
    <g id="xtick_9">
     <g id="line2d_9">
      <g>
       <use xlink:href="#mc4b555cfef" x="1053.349342" y="368.3955" style="stroke: #000000; stroke-width: 0.8"/>
      </g>
     </g>
     <g id="text_9">
      <!-- 2022-01 -->
      <g transform="translate(1032.457936 382.993937)scale(0.1 -0.1)">
       <use xlink:href="#DejaVuSans-32"/>
       <use xlink:href="#DejaVuSans-30" x="63.623047"/>
       <use xlink:href="#DejaVuSans-32" x="127.246094"/>
       <use xlink:href="#DejaVuSans-32" x="190.869141"/>
       <use xlink:href="#DejaVuSans-2d" x="254.492188"/>
       <use xlink:href="#DejaVuSans-30" x="290.576172"/>
       <use xlink:href="#DejaVuSans-31" x="354.199219"/>
      </g>
     </g>
    </g>
    <g id="xtick_10">
     <g id="line2d_10">
      <g>
       <use xlink:href="#mc4b555cfef" x="1173.492883" y="368.3955" style="stroke: #000000; stroke-width: 0.8"/>
      </g>
     </g>
     <g id="text_10">
      <!-- 2022-04 -->
      <g transform="translate(1152.601477 382.993937)scale(0.1 -0.1)">
       <use xlink:href="#DejaVuSans-32"/>
       <use xlink:href="#DejaVuSans-30" x="63.623047"/>
       <use xlink:href="#DejaVuSans-32" x="127.246094"/>
       <use xlink:href="#DejaVuSans-32" x="190.869141"/>
       <use xlink:href="#DejaVuSans-2d" x="254.492188"/>
       <use xlink:href="#DejaVuSans-30" x="290.576172"/>
       <use xlink:href="#DejaVuSans-34" x="354.199219"/>
      </g>
     </g>
    </g>
    <g id="xtick_11">
     <g id="line2d_11">
      <g>
       <use xlink:href="#mc4b555cfef" x="1294.971352" y="368.3955" style="stroke: #000000; stroke-width: 0.8"/>
      </g>
     </g>
     <g id="text_11">
      <!-- 2022-07 -->
      <g transform="translate(1274.079945 382.993937)scale(0.1 -0.1)">
       <use xlink:href="#DejaVuSans-32"/>
       <use xlink:href="#DejaVuSans-30" x="63.623047"/>
       <use xlink:href="#DejaVuSans-32" x="127.246094"/>
       <use xlink:href="#DejaVuSans-32" x="190.869141"/>
       <use xlink:href="#DejaVuSans-2d" x="254.492188"/>
       <use xlink:href="#DejaVuSans-30" x="290.576172"/>
       <use xlink:href="#DejaVuSans-37" x="354.199219"/>
      </g>
     </g>
    </g>
   </g>
   <g id="matplotlib.axis_2">
    <g id="ytick_1">
     <g id="line2d_12">
      <defs>
       <path id="m26d7c0546c" d="M 0 0 
L -3.5 0 
" style="stroke: #000000; stroke-width: 0.8"/>
      </defs>
      <g>
       <use xlink:href="#m26d7c0546c" x="46.0125" y="351.154339" style="stroke: #000000; stroke-width: 0.8"/>
      </g>
     </g>
     <g id="text_12">
      <!-- 0 -->
      <g transform="translate(32.65 354.953558)scale(0.1 -0.1)">
       <use xlink:href="#DejaVuSans-30"/>
      </g>
     </g>
    </g>
    <g id="ytick_2">
     <g id="line2d_13">
      <g>
       <use xlink:href="#m26d7c0546c" x="46.0125" y="292.147709" style="stroke: #000000; stroke-width: 0.8"/>
      </g>
     </g>
     <g id="text_13">
      <!-- 10000 -->
      <g transform="translate(7.2 295.946928)scale(0.1 -0.1)">
       <use xlink:href="#DejaVuSans-31"/>
       <use xlink:href="#DejaVuSans-30" x="63.623047"/>
       <use xlink:href="#DejaVuSans-30" x="127.246094"/>
       <use xlink:href="#DejaVuSans-30" x="190.869141"/>
       <use xlink:href="#DejaVuSans-30" x="254.492188"/>
      </g>
     </g>
    </g>
    <g id="ytick_3">
     <g id="line2d_14">
      <g>
       <use xlink:href="#m26d7c0546c" x="46.0125" y="233.141079" style="stroke: #000000; stroke-width: 0.8"/>
      </g>
     </g>
     <g id="text_14">
      <!-- 20000 -->
      <g transform="translate(7.2 236.940298)scale(0.1 -0.1)">
       <use xlink:href="#DejaVuSans-32"/>
       <use xlink:href="#DejaVuSans-30" x="63.623047"/>
       <use xlink:href="#DejaVuSans-30" x="127.246094"/>
       <use xlink:href="#DejaVuSans-30" x="190.869141"/>
       <use xlink:href="#DejaVuSans-30" x="254.492188"/>
      </g>
     </g>
    </g>
    <g id="ytick_4">
     <g id="line2d_15">
      <g>
       <use xlink:href="#m26d7c0546c" x="46.0125" y="174.134449" style="stroke: #000000; stroke-width: 0.8"/>
      </g>
     </g>
     <g id="text_15">
      <!-- 30000 -->
      <g transform="translate(7.2 177.933668)scale(0.1 -0.1)">
       <defs>
        <path id="DejaVuSans-33" d="M 2597 2516 
Q 3050 2419 3304 2112 
Q 3559 1806 3559 1356 
Q 3559 666 3084 287 
Q 2609 -91 1734 -91 
Q 1441 -91 1130 -33 
Q 819 25 488 141 
L 488 750 
Q 750 597 1062 519 
Q 1375 441 1716 441 
Q 2309 441 2620 675 
Q 2931 909 2931 1356 
Q 2931 1769 2642 2001 
Q 2353 2234 1838 2234 
L 1294 2234 
L 1294 2753 
L 1863 2753 
Q 2328 2753 2575 2939 
Q 2822 3125 2822 3475 
Q 2822 3834 2567 4026 
Q 2313 4219 1838 4219 
Q 1578 4219 1281 4162 
Q 984 4106 628 3988 
L 628 4550 
Q 988 4650 1302 4700 
Q 1616 4750 1894 4750 
Q 2613 4750 3031 4423 
Q 3450 4097 3450 3541 
Q 3450 3153 3228 2886 
Q 3006 2619 2597 2516 
z
" transform="scale(0.015625)"/>
       </defs>
       <use xlink:href="#DejaVuSans-33"/>
       <use xlink:href="#DejaVuSans-30" x="63.623047"/>
       <use xlink:href="#DejaVuSans-30" x="127.246094"/>
       <use xlink:href="#DejaVuSans-30" x="190.869141"/>
       <use xlink:href="#DejaVuSans-30" x="254.492188"/>
      </g>
     </g>
    </g>
    <g id="ytick_5">
     <g id="line2d_16">
      <g>
       <use xlink:href="#m26d7c0546c" x="46.0125" y="115.127819" style="stroke: #000000; stroke-width: 0.8"/>
      </g>
     </g>
     <g id="text_16">
      <!-- 40000 -->
      <g transform="translate(7.2 118.927038)scale(0.1 -0.1)">
       <use xlink:href="#DejaVuSans-34"/>
       <use xlink:href="#DejaVuSans-30" x="63.623047"/>
       <use xlink:href="#DejaVuSans-30" x="127.246094"/>
       <use xlink:href="#DejaVuSans-30" x="190.869141"/>
       <use xlink:href="#DejaVuSans-30" x="254.492188"/>
      </g>
     </g>
    </g>
    <g id="ytick_6">
     <g id="line2d_17">
      <g>
       <use xlink:href="#m26d7c0546c" x="46.0125" y="56.121189" style="stroke: #000000; stroke-width: 0.8"/>
      </g>
     </g>
     <g id="text_17">
      <!-- 50000 -->
      <g transform="translate(7.2 59.920408)scale(0.1 -0.1)">
       <defs>
        <path id="DejaVuSans-35" d="M 691 4666 
L 3169 4666 
L 3169 4134 
L 1269 4134 
L 1269 2991 
Q 1406 3038 1543 3061 
Q 1681 3084 1819 3084 
Q 2600 3084 3056 2656 
Q 3513 2228 3513 1497 
Q 3513 744 3044 326 
Q 2575 -91 1722 -91 
Q 1428 -91 1123 -41 
Q 819 9 494 109 
L 494 744 
Q 775 591 1075 516 
Q 1375 441 1709 441 
Q 2250 441 2565 725 
Q 2881 1009 2881 1497 
Q 2881 1984 2565 2268 
Q 2250 2553 1709 2553 
Q 1456 2553 1204 2497 
Q 953 2441 691 2322 
L 691 4666 
z
" transform="scale(0.015625)"/>
       </defs>
       <use xlink:href="#DejaVuSans-35"/>
       <use xlink:href="#DejaVuSans-30" x="63.623047"/>
       <use xlink:href="#DejaVuSans-30" x="127.246094"/>
       <use xlink:href="#DejaVuSans-30" x="190.869141"/>
       <use xlink:href="#DejaVuSans-30" x="254.492188"/>
      </g>
     </g>
    </g>
   </g>
   <g id="line2d_18">
    <path d="M 106.885227 351.154339 
L 169.626854 351.054028 
L 172.296711 350.705888 
L 176.301495 350.98322 
L 177.636423 350.841604 
L 180.30628 350.877008 
L 181.641208 350.623279 
L 182.976136 350.570173 
L 186.980921 350.694087 
L 193.655562 350.593776 
L 196.325419 350.741292 
L 197.660347 350.393153 
L 198.995275 350.416756 
L 203.00006 349.980107 
L 204.334988 350.676385 
L 205.669916 350.434458 
L 207.004844 349.9211 
L 208.339773 349.974206 
L 209.674701 350.340047 
L 211.009629 350.222034 
L 212.344557 350.735392 
L 215.014414 350.682286 
L 216.349342 350.463961 
L 217.68427 350.121723 
L 219.019199 350.387253 
L 221.689055 350.416756 
L 223.023983 350.823902 
L 224.358911 350.758994 
L 225.69384 350.310544 
L 227.028768 350.493465 
L 228.363696 350.422657 
L 231.033553 350.611478 
L 233.703409 350.72359 
L 235.038337 350.428557 
L 236.373266 350.334147 
L 240.37805 350.871107 
L 243.047907 350.794398 
L 244.382835 350.369551 
L 245.717763 350.416756 
L 247.052691 350.593776 
L 248.38762 350.517067 
L 252.392404 350.98912 
L 253.727333 350.611478 
L 255.062261 350.758994 
L 256.397189 350.694087 
L 257.732117 350.859306 
L 259.067045 350.829802 
L 260.401974 351.006822 
L 265.741687 350.90061 
L 267.076615 351.024524 
L 268.411543 350.965518 
L 271.0814 351.036326 
L 272.416328 350.888809 
L 275.086184 351.083531 
L 276.421112 350.977319 
L 280.425897 351.083531 
L 284.430682 351.006822 
L 287.100538 351.07763 
L 364.526376 351.095332 
L 365.861304 350.947816 
L 367.196232 351.024524 
L 369.866089 351.024524 
L 372.535945 351.101233 
L 373.870873 350.947816 
L 375.205801 351.065829 
L 377.875658 350.995021 
L 381.880443 351.07173 
L 383.215371 350.90061 
L 384.550299 350.995021 
L 387.220156 350.877008 
L 389.890012 351.006822 
L 392.559868 351.089432 
L 399.23451 350.947816 
L 401.904366 351.048127 
L 403.239294 350.871107 
L 405.909151 351.000922 
L 408.579007 350.906511 
L 409.913935 351.024524 
L 415.253648 350.829802 
L 424.598146 350.8121 
L 425.933074 350.652782 
L 429.937859 350.71769 
L 431.272787 350.446259 
L 435.277572 350.576074 
L 436.6125 350.399054 
L 437.947428 350.71769 
L 439.282356 350.735392 
L 440.617285 350.422657 
L 441.952213 350.36365 
L 444.622069 350.027312 
L 447.291926 350.104021 
L 448.626854 350.281041 
L 449.961782 349.437246 
L 452.631639 349.348736 
L 455.301495 349.820789 
L 456.636423 350.499365 
L 457.971352 350.375451 
L 459.30628 349.643769 
L 460.641208 349.980107 
L 464.645993 350.00371 
L 465.980921 350.54067 
L 467.315849 350.393153 
L 468.650778 349.720478 
L 469.985706 350.168928 
L 472.655562 349.838491 
L 473.99049 350.00961 
L 475.325419 350.522968 
L 476.660347 350.422657 
L 477.995275 349.64967 
L 479.330203 349.773584 
L 482.00006 349.761782 
L 483.334988 349.856193 
L 484.669916 350.440359 
L 486.004844 350.263339 
L 487.339773 349.460849 
L 490.009629 349.891597 
L 491.344557 349.867994 
L 492.679486 349.997809 
L 494.014414 350.399054 
L 495.349342 350.375451 
L 496.68427 349.543458 
L 498.019199 349.938802 
L 499.354127 349.413643 
L 502.023983 349.572961 
L 503.358911 350.298743 
L 504.69384 350.092219 
L 506.028768 348.835378 
L 508.698624 348.929789 
L 510.033553 348.333822 
L 511.368481 348.628855 
L 512.703409 349.56116 
L 514.038337 349.578862 
L 515.373266 348.180405 
L 516.708194 348.375127 
L 518.043122 347.501828 
L 519.37805 348.145001 
L 520.712978 348.463636 
L 522.047907 349.478551 
L 523.382835 349.425445 
L 524.717763 347.637544 
L 526.052691 348.558047 
L 527.38762 348.233511 
L 530.057476 348.363325 
L 531.392404 349.679173 
L 532.727333 349.484451 
L 534.062261 347.69065 
L 535.397189 348.333822 
L 536.732117 348.428233 
L 538.067045 348.752769 
L 539.401974 348.516742 
L 540.736902 349.685074 
L 542.07183 349.525756 
L 543.406758 348.422332 
L 544.741687 349.0301 
L 546.076615 349.077305 
L 547.411543 349.236623 
L 548.746471 348.829478 
L 550.0814 350.027312 
L 551.416328 349.714577 
L 552.751256 348.94159 
L 555.421112 349.519855 
L 556.756041 350.340047 
L 560.760825 350.027312 
L 562.095754 348.58755 
L 563.430682 349.336935 
L 564.76561 349.64967 
L 566.100538 349.65557 
L 567.435467 350.399054 
L 568.770395 349.944703 
L 570.105323 350.157127 
L 571.440251 348.811776 
L 572.775179 349.608365 
L 574.110108 349.927001 
L 575.445036 349.195319 
L 576.779964 349.667372 
L 578.114892 350.015511 
L 579.449821 350.045014 
L 580.784749 348.876683 
L 582.119677 349.803087 
L 583.454605 349.631968 
L 584.789533 349.690974 
L 586.124462 349.584762 
L 587.45939 350.145325 
L 588.794318 349.986008 
L 590.129246 348.516742 
L 591.464175 349.136312 
L 592.799103 348.75867 
L 595.468959 349.024199 
L 596.803888 350.163027 
L 598.138816 349.696875 
L 599.473744 347.584438 
L 600.808672 348.811776 
L 602.1436 348.900286 
L 603.478529 348.58755 
L 604.813457 348.917988 
L 606.148385 349.773584 
L 607.483313 349.537557 
L 608.818242 348.009285 
L 610.15317 348.817676 
L 611.488098 348.552146 
L 612.823026 348.959292 
L 614.157955 348.994696 
L 615.492883 349.755882 
L 616.827811 349.596564 
L 618.162739 348.434133 
L 619.497667 348.953392 
L 620.832596 348.894385 
L 622.167524 349.024199 
L 623.502452 348.693762 
L 624.83738 349.508054 
L 626.172309 349.496253 
L 627.507237 347.51363 
L 628.842165 348.127299 
L 630.177093 347.891272 
L 631.512022 347.531332 
L 632.84695 347.77916 
L 634.181878 349.277928 
L 635.516806 349.059603 
L 636.851734 347.478226 
L 638.186663 347.466424 
L 639.521591 347.619842 
L 640.856519 347.442822 
L 642.191447 347.094683 
L 643.526376 348.76457 
L 644.861304 348.664259 
L 646.196232 346.014861 
L 647.53116 346.693438 
L 648.866089 346.829153 
L 650.201017 347.389716 
L 651.535945 347.436921 
L 652.870873 348.599352 
L 654.205801 348.817676 
L 655.54073 346.233186 
L 656.875658 346.604928 
L 658.210586 346.303994 
L 659.545514 346.551822 
L 660.880443 346.386603 
L 662.215371 348.233511 
L 663.550299 348.58755 
L 664.885227 345.890947 
L 666.220156 346.62853 
L 667.555084 346.770146 
L 670.22494 346.758345 
L 671.559868 348.770471 
L 672.894797 348.67606 
L 674.229725 346.62263 
L 675.564653 347.006173 
L 676.899581 347.053378 
L 678.23451 347.578537 
L 679.569438 347.094683 
L 680.904366 349.077305 
L 682.239294 348.94159 
L 683.574222 347.289405 
L 684.909151 347.77916 
L 686.244079 347.908974 
L 687.579007 348.286617 
L 688.913935 349.024199 
L 690.248864 349.242524 
L 691.583792 349.254325 
L 692.91872 349.0301 
L 694.253648 347.944378 
L 695.588577 348.640656 
L 696.923505 348.752769 
L 698.258433 349.077305 
L 699.593361 349.814888 
L 700.928289 349.73818 
L 702.263218 348.799974 
L 703.598146 349.248425 
L 704.933074 349.124511 
L 706.268002 349.537557 
L 707.602931 349.590663 
L 708.937859 350.139425 
L 710.272787 350.233835 
L 711.607715 349.466749 
L 712.942644 349.466749 
L 714.277572 349.779484 
L 715.6125 349.643769 
L 716.947428 349.64967 
L 718.282356 350.245637 
L 719.617285 350.328246 
L 720.952213 349.726378 
L 722.287141 349.803087 
L 723.622069 349.537557 
L 724.956998 349.968306 
L 726.291926 349.991908 
L 727.626854 350.511167 
L 728.961782 350.357749 
L 730.296711 349.289729 
L 731.631639 349.938802 
L 732.966567 349.590663 
L 735.636423 349.891597 
L 736.971352 350.36365 
L 738.30628 350.387253 
L 739.641208 349.637868 
L 740.976136 349.885696 
L 742.311065 349.643769 
L 743.645993 350.227935 
L 744.980921 349.685074 
L 746.315849 350.18663 
L 747.650778 350.36365 
L 748.985706 349.478551 
L 750.320634 349.873895 
L 751.655562 349.791286 
L 752.99049 349.873895 
L 755.660347 350.517067 
L 756.995275 350.605577 
L 758.330203 350.045014 
L 759.665132 350.251537 
L 763.669916 350.357749 
L 765.004844 350.776696 
L 766.339773 350.688186 
L 767.674701 350.263339 
L 769.009629 350.440359 
L 773.014414 350.552471 
L 774.349342 350.776696 
L 775.68427 350.800299 
L 777.019199 350.334147 
L 779.689055 350.676385 
L 785.028768 350.871107 
L 786.363696 350.605577 
L 789.033553 350.776696 
L 790.368481 350.617378 
L 793.038337 350.818001 
L 801.047907 350.00371 
L 802.382835 350.381352 
L 803.717763 350.45216 
L 805.052691 349.797186 
L 806.38762 349.614266 
L 807.722548 349.997809 
L 809.057476 349.962405 
L 813.062261 350.517067 
L 814.397189 349.720478 
L 819.736902 349.336935 
L 821.07183 350.27514 
L 822.406758 350.210233 
L 823.741687 349.20712 
L 825.076615 349.136312 
L 826.411543 348.900286 
L 827.746471 348.900286 
L 829.0814 349.059603 
L 830.416328 349.938802 
L 831.751256 349.685074 
L 833.086184 348.67606 
L 834.421112 348.652458 
L 835.756041 348.392829 
L 837.090969 348.280716 
L 838.425897 348.333822 
L 839.760825 349.378239 
L 841.095754 349.083206 
L 842.430682 346.610828 
L 843.76561 346.876358 
L 845.100538 346.374802 
L 846.435467 346.599027 
L 847.770395 347.047477 
L 849.105323 348.746868 
L 850.440251 348.339723 
L 851.775179 345.885047 
L 854.445036 346.528219 
L 855.779964 345.985358 
L 858.449821 348.292517 
L 859.784749 347.985683 
L 861.119677 345.041252 
L 862.454605 346.280391 
L 863.789533 345.708027 
L 865.124462 346.498716 
L 866.45939 346.787848 
L 867.794318 348.640656 
L 869.129246 348.528544 
L 870.464175 346.62263 
L 875.803888 347.289405 
L 877.138816 348.805875 
L 878.473744 348.463636 
L 879.808672 347.130087 
L 881.1436 347.560835 
L 882.478529 347.029775 
L 883.813457 347.554934 
L 885.148385 347.000272 
L 886.483313 348.563948 
L 887.818242 348.416431 
L 889.15317 346.764246 
L 890.488098 347.318908 
L 893.157955 347.318908 
L 894.492883 348.085994 
L 895.827811 349.171716 
L 897.162739 349.112709 
L 898.497667 347.726054 
L 901.167524 348.310219 
L 902.502452 348.445934 
L 903.83738 348.22761 
L 905.172309 349.213021 
L 906.507237 349.484451 
L 907.842165 348.009285 
L 909.177093 348.322021 
L 913.181878 348.858981 
L 914.516806 349.73818 
L 915.851734 349.47265 
L 917.186663 348.268915 
L 921.191447 348.322021 
L 922.526376 348.652458 
L 923.861304 349.390041 
L 925.196232 349.059603 
L 926.53116 347.118285 
L 927.866089 347.360213 
L 929.201017 347.206795 
L 930.535945 347.507729 
L 931.870873 348.021087 
L 933.205801 349.059603 
L 934.54073 348.894385 
L 935.875658 346.770146 
L 937.210586 346.852755 
L 938.545514 346.752444 
L 939.880443 347.549034 
L 941.215371 347.637544 
L 942.550299 348.646557 
L 943.885227 348.799974 
L 945.220156 347.076981 
L 946.555084 347.554934 
L 947.890012 347.389716 
L 949.22494 347.861769 
L 950.559868 347.838166 
L 951.894797 349.124511 
L 953.229725 349.272027 
L 954.564653 347.254001 
L 955.899581 347.908974 
L 957.23451 348.109597 
L 958.569438 347.478226 
L 959.904366 347.731954 
L 961.239294 348.947491 
L 962.574222 348.858981 
L 963.909151 346.475113 
L 965.244079 347.141888 
L 967.913935 347.672948 
L 969.248864 347.289405 
L 970.583792 348.76457 
L 971.91872 348.563948 
L 973.253648 345.412994 
L 974.588577 346.699338 
L 977.258433 346.422007 
L 978.593361 346.185981 
L 979.928289 348.121398 
L 981.263218 348.156802 
L 982.598146 344.533795 
L 983.933074 346.239087 
L 985.268002 345.442497 
L 986.602931 345.64312 
L 987.937859 345.572312 
L 989.272787 347.507729 
L 990.607715 347.78506 
L 991.942644 343.766709 
L 993.277572 344.079444 
L 994.6125 344.250563 
L 997.282356 343.636894 
L 998.617285 346.976669 
L 999.952213 347.171391 
L 1001.287141 342.763596 
L 1003.956998 343.749007 
L 1006.626854 343.483477 
L 1007.961782 346.469212 
L 1009.296711 346.492815 
L 1010.631639 341.11141 
L 1011.966567 342.734093 
L 1014.636423 342.492166 
L 1015.971352 342.132225 
L 1017.30628 345.418894 
L 1018.641208 345.235974 
L 1019.976136 344.799325 
L 1021.311065 339.795563 
L 1022.645993 340.92849 
L 1023.980921 341.076006 
L 1025.315849 340.515443 
L 1026.650778 344.521994 
L 1027.985706 343.666397 
L 1029.320634 337.252377 
L 1030.655562 340.338424 
L 1031.99049 338.768847 
L 1033.325419 339.412019 
L 1034.660347 338.338099 
L 1035.995275 341.630669 
L 1037.330203 340.804576 
L 1038.665132 333.216323 
L 1040.00006 332.455138 
L 1042.669916 328.118151 
L 1044.004844 337.730331 
L 1045.339773 335.381867 
L 1046.674701 331.682151 
L 1048.009629 311.867725 
L 1049.344557 310.599082 
L 1050.679486 307.577943 
L 1052.014414 307.931982 
L 1053.349342 310.610883 
L 1054.68427 327.539886 
L 1056.019199 321.786739 
L 1057.354127 294.950524 
L 1058.689055 292.24212 
L 1060.023983 293.75859 
L 1061.358911 307.896578 
L 1062.69384 297.906756 
L 1064.028768 316.930493 
L 1065.363696 311.968036 
L 1066.698624 288.920046 
L 1068.033553 296.797431 
L 1069.368481 298.47322 
L 1070.703409 302.326353 
L 1072.038337 303.376671 
L 1073.373266 317.508758 
L 1074.708194 314.275195 
L 1076.043122 291.398325 
L 1077.37805 297.080663 
L 1078.712978 300.927895 
L 1080.047907 303.665803 
L 1081.382835 308.103102 
L 1082.717763 325.380243 
L 1084.052691 324.034892 
L 1085.38762 308.858387 
L 1086.722548 331.133389 
L 1088.057476 314.151281 
L 1089.392404 323.031779 
L 1090.727333 351.154339 
L 1092.062261 351.154339 
L 1093.397189 265.954666 
L 1094.732117 332.012588 
L 1096.067045 303.72481 
L 1097.401974 311.100638 
L 1098.736902 310.13293 
L 1100.07183 351.154339 
L 1101.406758 351.154339 
L 1102.741687 233.742947 
L 1104.076615 307.064585 
L 1105.411543 324.483342 
L 1106.746471 275.596349 
L 1108.0814 289.870053 
L 1109.416328 351.154339 
L 1110.751256 351.154339 
L 1112.086184 277.927111 
L 1113.421112 325.038004 
L 1114.756041 316.00999 
L 1116.090969 304.226366 
L 1117.425897 325.616269 
L 1118.760825 351.154339 
L 1120.095754 351.154339 
L 1121.430682 246.883723 
L 1122.76561 334.951118 
L 1124.100538 325.993912 
L 1125.435467 304.356181 
L 1126.770395 350.735392 
L 1128.105323 351.154339 
L 1129.440251 351.154339 
L 1130.775179 350.98912 
L 1132.110108 234.993887 
L 1133.445036 344.569199 
L 1134.779964 315.579242 
L 1136.114892 308.758075 
L 1137.449821 351.154339 
L 1138.784749 351.154339 
L 1140.119677 219.162408 
L 1141.454605 351.154339 
L 1142.789533 298.579432 
L 1144.124462 291.846775 
L 1145.45939 226.302211 
L 1146.794318 351.154339 
L 1148.129246 351.154339 
L 1149.464175 192.733339 
L 1150.799103 315.101288 
L 1152.134031 283.904483 
L 1153.468959 325.810991 
L 1154.803888 331.092085 
L 1156.138816 351.154339 
L 1157.473744 351.154339 
L 1158.808672 199.477797 
L 1160.1436 349.932902 
L 1161.478529 296.207365 
L 1162.813457 277.38425 
L 1164.148385 288.164761 
L 1165.483313 351.154339 
L 1166.818242 351.154339 
L 1168.15317 264.03695 
L 1169.488098 319.6566 
L 1170.823026 296.16016 
L 1172.157955 294.856113 
L 1173.492883 316.045394 
L 1174.827811 351.154339 
L 1176.162739 351.154339 
L 1177.497667 282.057575 
L 1178.832596 313.095063 
L 1180.167524 317.579566 
L 1181.502452 308.575155 
L 1182.83738 351.154339 
L 1189.512022 351.154339 
L 1190.84695 180.678284 
L 1192.181878 351.154339 
L 1198.856519 351.154339 
L 1200.191447 50.8755 
L 1201.526376 351.154339 
L 1208.201017 351.154339 
L 1209.535945 218.147494 
L 1210.870873 351.154339 
L 1217.545514 351.154339 
L 1218.880443 175.586012 
L 1220.215371 351.154339 
L 1226.890012 351.154339 
L 1228.22494 251.002386 
L 1229.559868 351.154339 
L 1236.23451 351.154339 
L 1237.569438 283.385224 
L 1238.904366 351.154339 
L 1245.579007 351.154339 
L 1246.913935 286.435867 
L 1248.248864 351.154339 
L 1254.923505 351.154339 
L 1256.258433 274.339508 
L 1257.593361 351.154339 
L 1264.268002 351.154339 
L 1265.602931 295.912332 
L 1266.937859 351.154339 
L 1273.6125 351.154339 
L 1274.947428 287.610099 
L 1276.282356 351.154339 
L 1282.956998 351.154339 
L 1284.291926 302.444366 
L 1285.626854 351.154339 
L 1292.301495 351.154339 
L 1293.636423 280.269674 
L 1294.971352 351.154339 
L 1301.645993 351.154339 
L 1302.980921 275.183303 
L 1304.315849 351.154339 
L 1306.985706 351.154339 
L 1306.985706 351.154339 
" clip-path="url(#p5a299641b9)" style="fill: none; stroke: #0000ff; stroke-width: 1.5; stroke-linecap: square"/>
   </g>
   <g id="line2d_19">
    <path d="M 1068.033553 293.523572 
L 1069.368481 302.365321 
L 1070.703409 297.150909 
L 1072.038337 311.838955 
L 1073.373266 307.976832 
L 1074.708194 288.780733 
L 1076.043122 293.206295 
L 1077.37805 294.516821 
L 1078.712978 299.550028 
L 1080.047907 298.981965 
L 1081.382835 311.998661 
L 1082.717763 309.596244 
L 1084.052691 291.082176 
L 1085.38762 296.651707 
L 1086.722548 301.110827 
L 1089.392404 308.200289 
L 1090.727333 324.410616 
L 1092.062261 324.148531 
L 1093.397189 306.578698 
L 1094.732117 322.750828 
L 1096.067045 312.135553 
L 1097.401974 318.299888 
L 1098.736902 335.681323 
L 1100.07183 340.313638 
L 1101.406758 288.540953 
L 1102.741687 321.924773 
L 1104.076615 307.97736 
L 1105.411543 310.707739 
L 1106.746471 309.977506 
L 1108.0814 338.778719 
L 1109.416328 340.475769 
L 1110.751256 255.213495 
L 1112.086184 310.98327 
L 1113.421112 318.729769 
L 1114.756041 289.325685 
L 1116.090969 299.108129 
L 1117.425897 345.99406 
L 1118.760825 346.553614 
L 1120.095754 278.72145 
L 1121.430682 320.67352 
L 1122.76561 317.844592 
L 1124.100538 303.093093 
L 1125.435467 318.650475 
L 1126.770395 348.336921 
L 1128.105323 348.565905 
L 1129.440251 266.577847 
L 1130.775179 336.58288 
L 1132.110108 324.814767 
L 1133.445036 308.523908 
L 1134.779964 341.380329 
L 1136.114892 347.584503 
L 1137.449821 347.796238 
L 1138.784749 325.406911 
L 1140.119677 267.123968 
L 1141.454605 336.513459 
L 1142.789533 312.126964 
L 1144.124462 315.796941 
L 1145.45939 339.084464 
L 1146.794318 339.727135 
L 1148.129246 253.770472 
L 1149.464175 316.533943 
L 1150.799103 302.21749 
L 1152.134031 291.030891 
L 1153.468959 254.237387 
L 1154.803888 341.970427 
L 1156.138816 342.457263 
L 1157.473744 222.754961 
L 1158.808672 314.106385 
L 1160.1436 293.094772 
L 1161.478529 315.984932 
L 1162.813457 306.610175 
L 1164.148385 340.758956 
L 1165.483313 341.308263 
L 1166.818242 216.581045 
L 1168.15317 336.031716 
L 1169.488098 296.190751 
L 1170.823026 290.945063 
L 1172.157955 295.70806 
L 1173.492883 344.747506 
L 1174.827811 345.086995 
L 1176.162739 258.087803 
L 1177.497667 325.219193 
L 1178.832596 299.610448 
L 1180.167524 298.327507 
L 1181.502452 313.01934 
L 1182.83738 349.530228 
L 1184.172309 349.618417 
L 1185.507237 283.731884 
L 1186.842165 324.198837 
L 1188.177093 321.516178 
L 1189.512022 316.981955 
L 1190.84695 339.628222 
L 1192.181878 349.67622 
L 1193.516806 349.756717 
L 1194.851734 331.785151 
L 1196.186663 342.906543 
L 1197.521591 342.220577 
L 1198.856519 237.202499 
L 1200.191447 339.394857 
L 1201.526376 342.597861 
L 1202.861304 343.050144 
L 1204.196232 338.541216 
L 1205.53116 341.97001 
L 1206.866089 342.148307 
L 1208.201017 130.889286 
L 1209.535945 348.984781 
L 1210.870873 349.808092 
L 1212.205801 349.881654 
L 1213.54073 348.600582 
L 1214.875658 349.493578 
L 1216.210586 349.499682 
L 1217.545514 210.660235 
L 1218.880443 348.23546 
L 1220.215371 348.584907 
L 1221.550299 348.722716 
L 1222.885227 348.483749 
L 1224.220156 348.833698 
L 1225.555084 348.935465 
L 1226.890012 204.122824 
L 1228.22494 351.652879 
L 1230.894797 351.657531 
L 1232.229725 351.532852 
L 1234.899581 351.547007 
L 1236.23451 250.884922 
L 1237.569438 353.2755 
L 1244.244079 352.786555 
L 1245.579007 283.897166 
L 1246.913935 352.849806 
L 1253.588577 352.461678 
L 1254.923505 294.15731 
L 1256.258433 351.360491 
L 1262.933074 351.324554 
L 1264.268002 288.604149 
L 1265.602931 351.70592 
L 1272.277572 351.588319 
L 1273.6125 300.767843 
L 1274.947428 350.880311 
L 1281.622069 350.957928 
L 1282.956998 298.373677 
L 1284.291926 351.187812 
L 1290.966567 351.192721 
L 1292.301495 307.138894 
L 1293.636423 349.785105 
L 1300.311065 350.121683 
L 1301.645993 294.95641 
L 1302.980921 349.143038 
L 1306.985706 349.451718 
L 1306.985706 349.451718 
" clip-path="url(#p5a299641b9)" style="fill: none; stroke: #ffa500; stroke-width: 1.5; stroke-linecap: square"/>
   </g>
   <g id="line2d_20">
    <path d="M 1306.985706 349.451718 
L 1308.320634 349.454569 
L 1309.655562 349.457417 
L 1310.99049 288.084995 
L 1312.325419 349.463116 
L 1313.660347 349.465966 
L 1314.995275 349.468814 
L 1316.330203 348.434735 
L 1317.665132 348.439321 
L 1319.00006 348.443904 
L 1320.334988 294.279018 
L 1321.669916 348.453073 
L 1323.004844 348.457657 
L 1324.339773 348.462241 
" clip-path="url(#p5a299641b9)" style="fill: none; stroke: #ff0000; stroke-width: 1.5; stroke-linecap: square"/>
   </g>
   <g id="patch_3">
    <path d="M 46.0125 368.3955 
L 46.0125 35.7555 
" style="fill: none; stroke: #000000; stroke-width: 0.8; stroke-linejoin: miter; stroke-linecap: square"/>
   </g>
   <g id="patch_4">
    <path d="M 1385.2125 368.3955 
L 1385.2125 35.7555 
" style="fill: none; stroke: #000000; stroke-width: 0.8; stroke-linejoin: miter; stroke-linecap: square"/>
   </g>
   <g id="patch_5">
    <path d="M 46.0125 368.3955 
L 1385.2125 368.3955 
" style="fill: none; stroke: #000000; stroke-width: 0.8; stroke-linejoin: miter; stroke-linecap: square"/>
   </g>
   <g id="patch_6">
    <path d="M 46.0125 35.7555 
L 1385.2125 35.7555 
" style="fill: none; stroke: #000000; stroke-width: 0.8; stroke-linejoin: miter; stroke-linecap: square"/>
   </g>
   <g id="text_18">
    <!-- Daily Confirmed Cases Forecasting - Finland -->
    <g transform="translate(583.671563 16.318125)scale(0.12 -0.12)">
     <defs>
      <path id="DejaVuSans-44" d="M 1259 4147 
L 1259 519 
L 2022 519 
Q 2988 519 3436 956 
Q 3884 1394 3884 2338 
Q 3884 3275 3436 3711 
Q 2988 4147 2022 4147 
L 1259 4147 
z
M 628 4666 
L 1925 4666 
Q 3281 4666 3915 4102 
Q 4550 3538 4550 2338 
Q 4550 1131 3912 565 
Q 3275 0 1925 0 
L 628 0 
L 628 4666 
z
" transform="scale(0.015625)"/>
      <path id="DejaVuSans-61" d="M 2194 1759 
Q 1497 1759 1228 1600 
Q 959 1441 959 1056 
Q 959 750 1161 570 
Q 1363 391 1709 391 
Q 2188 391 2477 730 
Q 2766 1069 2766 1631 
L 2766 1759 
L 2194 1759 
z
M 3341 1997 
L 3341 0 
L 2766 0 
L 2766 531 
Q 2569 213 2275 61 
Q 1981 -91 1556 -91 
Q 1019 -91 701 211 
Q 384 513 384 1019 
Q 384 1609 779 1909 
Q 1175 2209 1959 2209 
L 2766 2209 
L 2766 2266 
Q 2766 2663 2505 2880 
Q 2244 3097 1772 3097 
Q 1472 3097 1187 3025 
Q 903 2953 641 2809 
L 641 3341 
Q 956 3463 1253 3523 
Q 1550 3584 1831 3584 
Q 2591 3584 2966 3190 
Q 3341 2797 3341 1997 
z
" transform="scale(0.015625)"/>
      <path id="DejaVuSans-69" d="M 603 3500 
L 1178 3500 
L 1178 0 
L 603 0 
L 603 3500 
z
M 603 4863 
L 1178 4863 
L 1178 4134 
L 603 4134 
L 603 4863 
z
" transform="scale(0.015625)"/>
      <path id="DejaVuSans-6c" d="M 603 4863 
L 1178 4863 
L 1178 0 
L 603 0 
L 603 4863 
z
" transform="scale(0.015625)"/>
      <path id="DejaVuSans-79" d="M 2059 -325 
Q 1816 -950 1584 -1140 
Q 1353 -1331 966 -1331 
L 506 -1331 
L 506 -850 
L 844 -850 
Q 1081 -850 1212 -737 
Q 1344 -625 1503 -206 
L 1606 56 
L 191 3500 
L 800 3500 
L 1894 763 
L 2988 3500 
L 3597 3500 
L 2059 -325 
z
" transform="scale(0.015625)"/>
      <path id="DejaVuSans-20" transform="scale(0.015625)"/>
      <path id="DejaVuSans-43" d="M 4122 4306 
L 4122 3641 
Q 3803 3938 3442 4084 
Q 3081 4231 2675 4231 
Q 1875 4231 1450 3742 
Q 1025 3253 1025 2328 
Q 1025 1406 1450 917 
Q 1875 428 2675 428 
Q 3081 428 3442 575 
Q 3803 722 4122 1019 
L 4122 359 
Q 3791 134 3420 21 
Q 3050 -91 2638 -91 
Q 1578 -91 968 557 
Q 359 1206 359 2328 
Q 359 3453 968 4101 
Q 1578 4750 2638 4750 
Q 3056 4750 3426 4639 
Q 3797 4528 4122 4306 
z
" transform="scale(0.015625)"/>
      <path id="DejaVuSans-6f" d="M 1959 3097 
Q 1497 3097 1228 2736 
Q 959 2375 959 1747 
Q 959 1119 1226 758 
Q 1494 397 1959 397 
Q 2419 397 2687 759 
Q 2956 1122 2956 1747 
Q 2956 2369 2687 2733 
Q 2419 3097 1959 3097 
z
M 1959 3584 
Q 2709 3584 3137 3096 
Q 3566 2609 3566 1747 
Q 3566 888 3137 398 
Q 2709 -91 1959 -91 
Q 1206 -91 779 398 
Q 353 888 353 1747 
Q 353 2609 779 3096 
Q 1206 3584 1959 3584 
z
" transform="scale(0.015625)"/>
      <path id="DejaVuSans-6e" d="M 3513 2113 
L 3513 0 
L 2938 0 
L 2938 2094 
Q 2938 2591 2744 2837 
Q 2550 3084 2163 3084 
Q 1697 3084 1428 2787 
Q 1159 2491 1159 1978 
L 1159 0 
L 581 0 
L 581 3500 
L 1159 3500 
L 1159 2956 
Q 1366 3272 1645 3428 
Q 1925 3584 2291 3584 
Q 2894 3584 3203 3211 
Q 3513 2838 3513 2113 
z
" transform="scale(0.015625)"/>
      <path id="DejaVuSans-66" d="M 2375 4863 
L 2375 4384 
L 1825 4384 
Q 1516 4384 1395 4259 
Q 1275 4134 1275 3809 
L 1275 3500 
L 2222 3500 
L 2222 3053 
L 1275 3053 
L 1275 0 
L 697 0 
L 697 3053 
L 147 3053 
L 147 3500 
L 697 3500 
L 697 3744 
Q 697 4328 969 4595 
Q 1241 4863 1831 4863 
L 2375 4863 
z
" transform="scale(0.015625)"/>
      <path id="DejaVuSans-72" d="M 2631 2963 
Q 2534 3019 2420 3045 
Q 2306 3072 2169 3072 
Q 1681 3072 1420 2755 
Q 1159 2438 1159 1844 
L 1159 0 
L 581 0 
L 581 3500 
L 1159 3500 
L 1159 2956 
Q 1341 3275 1631 3429 
Q 1922 3584 2338 3584 
Q 2397 3584 2469 3576 
Q 2541 3569 2628 3553 
L 2631 2963 
z
" transform="scale(0.015625)"/>
      <path id="DejaVuSans-6d" d="M 3328 2828 
Q 3544 3216 3844 3400 
Q 4144 3584 4550 3584 
Q 5097 3584 5394 3201 
Q 5691 2819 5691 2113 
L 5691 0 
L 5113 0 
L 5113 2094 
Q 5113 2597 4934 2840 
Q 4756 3084 4391 3084 
Q 3944 3084 3684 2787 
Q 3425 2491 3425 1978 
L 3425 0 
L 2847 0 
L 2847 2094 
Q 2847 2600 2669 2842 
Q 2491 3084 2119 3084 
Q 1678 3084 1418 2786 
Q 1159 2488 1159 1978 
L 1159 0 
L 581 0 
L 581 3500 
L 1159 3500 
L 1159 2956 
Q 1356 3278 1631 3431 
Q 1906 3584 2284 3584 
Q 2666 3584 2933 3390 
Q 3200 3197 3328 2828 
z
" transform="scale(0.015625)"/>
      <path id="DejaVuSans-65" d="M 3597 1894 
L 3597 1613 
L 953 1613 
Q 991 1019 1311 708 
Q 1631 397 2203 397 
Q 2534 397 2845 478 
Q 3156 559 3463 722 
L 3463 178 
Q 3153 47 2828 -22 
Q 2503 -91 2169 -91 
Q 1331 -91 842 396 
Q 353 884 353 1716 
Q 353 2575 817 3079 
Q 1281 3584 2069 3584 
Q 2775 3584 3186 3129 
Q 3597 2675 3597 1894 
z
M 3022 2063 
Q 3016 2534 2758 2815 
Q 2500 3097 2075 3097 
Q 1594 3097 1305 2825 
Q 1016 2553 972 2059 
L 3022 2063 
z
" transform="scale(0.015625)"/>
      <path id="DejaVuSans-64" d="M 2906 2969 
L 2906 4863 
L 3481 4863 
L 3481 0 
L 2906 0 
L 2906 525 
Q 2725 213 2448 61 
Q 2172 -91 1784 -91 
Q 1150 -91 751 415 
Q 353 922 353 1747 
Q 353 2572 751 3078 
Q 1150 3584 1784 3584 
Q 2172 3584 2448 3432 
Q 2725 3281 2906 2969 
z
M 947 1747 
Q 947 1113 1208 752 
Q 1469 391 1925 391 
Q 2381 391 2643 752 
Q 2906 1113 2906 1747 
Q 2906 2381 2643 2742 
Q 2381 3103 1925 3103 
Q 1469 3103 1208 2742 
Q 947 2381 947 1747 
z
" transform="scale(0.015625)"/>
      <path id="DejaVuSans-73" d="M 2834 3397 
L 2834 2853 
Q 2591 2978 2328 3040 
Q 2066 3103 1784 3103 
Q 1356 3103 1142 2972 
Q 928 2841 928 2578 
Q 928 2378 1081 2264 
Q 1234 2150 1697 2047 
L 1894 2003 
Q 2506 1872 2764 1633 
Q 3022 1394 3022 966 
Q 3022 478 2636 193 
Q 2250 -91 1575 -91 
Q 1294 -91 989 -36 
Q 684 19 347 128 
L 347 722 
Q 666 556 975 473 
Q 1284 391 1588 391 
Q 1994 391 2212 530 
Q 2431 669 2431 922 
Q 2431 1156 2273 1281 
Q 2116 1406 1581 1522 
L 1381 1569 
Q 847 1681 609 1914 
Q 372 2147 372 2553 
Q 372 3047 722 3315 
Q 1072 3584 1716 3584 
Q 2034 3584 2315 3537 
Q 2597 3491 2834 3397 
z
" transform="scale(0.015625)"/>
      <path id="DejaVuSans-46" d="M 628 4666 
L 3309 4666 
L 3309 4134 
L 1259 4134 
L 1259 2759 
L 3109 2759 
L 3109 2228 
L 1259 2228 
L 1259 0 
L 628 0 
L 628 4666 
z
" transform="scale(0.015625)"/>
      <path id="DejaVuSans-63" d="M 3122 3366 
L 3122 2828 
Q 2878 2963 2633 3030 
Q 2388 3097 2138 3097 
Q 1578 3097 1268 2742 
Q 959 2388 959 1747 
Q 959 1106 1268 751 
Q 1578 397 2138 397 
Q 2388 397 2633 464 
Q 2878 531 3122 666 
L 3122 134 
Q 2881 22 2623 -34 
Q 2366 -91 2075 -91 
Q 1284 -91 818 406 
Q 353 903 353 1747 
Q 353 2603 823 3093 
Q 1294 3584 2113 3584 
Q 2378 3584 2631 3529 
Q 2884 3475 3122 3366 
z
" transform="scale(0.015625)"/>
      <path id="DejaVuSans-74" d="M 1172 4494 
L 1172 3500 
L 2356 3500 
L 2356 3053 
L 1172 3053 
L 1172 1153 
Q 1172 725 1289 603 
Q 1406 481 1766 481 
L 2356 481 
L 2356 0 
L 1766 0 
Q 1100 0 847 248 
Q 594 497 594 1153 
L 594 3053 
L 172 3053 
L 172 3500 
L 594 3500 
L 594 4494 
L 1172 4494 
z
" transform="scale(0.015625)"/>
      <path id="DejaVuSans-67" d="M 2906 1791 
Q 2906 2416 2648 2759 
Q 2391 3103 1925 3103 
Q 1463 3103 1205 2759 
Q 947 2416 947 1791 
Q 947 1169 1205 825 
Q 1463 481 1925 481 
Q 2391 481 2648 825 
Q 2906 1169 2906 1791 
z
M 3481 434 
Q 3481 -459 3084 -895 
Q 2688 -1331 1869 -1331 
Q 1566 -1331 1297 -1286 
Q 1028 -1241 775 -1147 
L 775 -588 
Q 1028 -725 1275 -790 
Q 1522 -856 1778 -856 
Q 2344 -856 2625 -561 
Q 2906 -266 2906 331 
L 2906 616 
Q 2728 306 2450 153 
Q 2172 0 1784 0 
Q 1141 0 747 490 
Q 353 981 353 1791 
Q 353 2603 747 3093 
Q 1141 3584 1784 3584 
Q 2172 3584 2450 3431 
Q 2728 3278 2906 2969 
L 2906 3500 
L 3481 3500 
L 3481 434 
z
" transform="scale(0.015625)"/>
     </defs>
     <use xlink:href="#DejaVuSans-44"/>
     <use xlink:href="#DejaVuSans-61" x="77.001953"/>
     <use xlink:href="#DejaVuSans-69" x="138.28125"/>
     <use xlink:href="#DejaVuSans-6c" x="166.064453"/>
     <use xlink:href="#DejaVuSans-79" x="193.847656"/>
     <use xlink:href="#DejaVuSans-20" x="253.027344"/>
     <use xlink:href="#DejaVuSans-43" x="284.814453"/>
     <use xlink:href="#DejaVuSans-6f" x="354.638672"/>
     <use xlink:href="#DejaVuSans-6e" x="415.820312"/>
     <use xlink:href="#DejaVuSans-66" x="479.199219"/>
     <use xlink:href="#DejaVuSans-69" x="514.404297"/>
     <use xlink:href="#DejaVuSans-72" x="542.1875"/>
     <use xlink:href="#DejaVuSans-6d" x="581.550781"/>
     <use xlink:href="#DejaVuSans-65" x="678.962891"/>
     <use xlink:href="#DejaVuSans-64" x="740.486328"/>
     <use xlink:href="#DejaVuSans-20" x="803.962891"/>
     <use xlink:href="#DejaVuSans-43" x="835.75"/>
     <use xlink:href="#DejaVuSans-61" x="905.574219"/>
     <use xlink:href="#DejaVuSans-73" x="966.853516"/>
     <use xlink:href="#DejaVuSans-65" x="1018.953125"/>
     <use xlink:href="#DejaVuSans-73" x="1080.476562"/>
     <use xlink:href="#DejaVuSans-20" x="1132.576172"/>
     <use xlink:href="#DejaVuSans-46" x="1164.363281"/>
     <use xlink:href="#DejaVuSans-6f" x="1218.257812"/>
     <use xlink:href="#DejaVuSans-72" x="1279.439453"/>
     <use xlink:href="#DejaVuSans-65" x="1318.302734"/>
     <use xlink:href="#DejaVuSans-63" x="1379.826172"/>
     <use xlink:href="#DejaVuSans-61" x="1434.806641"/>
     <use xlink:href="#DejaVuSans-73" x="1496.085938"/>
     <use xlink:href="#DejaVuSans-74" x="1548.185547"/>
     <use xlink:href="#DejaVuSans-69" x="1587.394531"/>
     <use xlink:href="#DejaVuSans-6e" x="1615.177734"/>
     <use xlink:href="#DejaVuSans-67" x="1678.556641"/>
     <use xlink:href="#DejaVuSans-20" x="1742.033203"/>
     <use xlink:href="#DejaVuSans-2d" x="1773.820312"/>
     <use xlink:href="#DejaVuSans-20" x="1809.904297"/>
     <use xlink:href="#DejaVuSans-46" x="1841.691406"/>
     <use xlink:href="#DejaVuSans-69" x="1891.960938"/>
     <use xlink:href="#DejaVuSans-6e" x="1919.744141"/>
     <use xlink:href="#DejaVuSans-6c" x="1983.123047"/>
     <use xlink:href="#DejaVuSans-61" x="2010.90625"/>
     <use xlink:href="#DejaVuSans-6e" x="2072.185547"/>
     <use xlink:href="#DejaVuSans-64" x="2135.564453"/>
    </g>
    <!-- ARIMA (0, 1, 1)x(1, 0, 1, 7) (R2 = -0.597743) -->
    <g transform="translate(581.46375 29.7555)scale(0.12 -0.12)">
     <defs>
      <path id="DejaVuSans-41" d="M 2188 4044 
L 1331 1722 
L 3047 1722 
L 2188 4044 
z
M 1831 4666 
L 2547 4666 
L 4325 0 
L 3669 0 
L 3244 1197 
L 1141 1197 
L 716 0 
L 50 0 
L 1831 4666 
z
" transform="scale(0.015625)"/>
      <path id="DejaVuSans-52" d="M 2841 2188 
Q 3044 2119 3236 1894 
Q 3428 1669 3622 1275 
L 4263 0 
L 3584 0 
L 2988 1197 
Q 2756 1666 2539 1819 
Q 2322 1972 1947 1972 
L 1259 1972 
L 1259 0 
L 628 0 
L 628 4666 
L 2053 4666 
Q 2853 4666 3247 4331 
Q 3641 3997 3641 3322 
Q 3641 2881 3436 2590 
Q 3231 2300 2841 2188 
z
M 1259 4147 
L 1259 2491 
L 2053 2491 
Q 2509 2491 2742 2702 
Q 2975 2913 2975 3322 
Q 2975 3731 2742 3939 
Q 2509 4147 2053 4147 
L 1259 4147 
z
" transform="scale(0.015625)"/>
      <path id="DejaVuSans-49" d="M 628 4666 
L 1259 4666 
L 1259 0 
L 628 0 
L 628 4666 
z
" transform="scale(0.015625)"/>
      <path id="DejaVuSans-4d" d="M 628 4666 
L 1569 4666 
L 2759 1491 
L 3956 4666 
L 4897 4666 
L 4897 0 
L 4281 0 
L 4281 4097 
L 3078 897 
L 2444 897 
L 1241 4097 
L 1241 0 
L 628 0 
L 628 4666 
z
" transform="scale(0.015625)"/>
      <path id="DejaVuSans-28" d="M 1984 4856 
Q 1566 4138 1362 3434 
Q 1159 2731 1159 2009 
Q 1159 1288 1364 580 
Q 1569 -128 1984 -844 
L 1484 -844 
Q 1016 -109 783 600 
Q 550 1309 550 2009 
Q 550 2706 781 3412 
Q 1013 4119 1484 4856 
L 1984 4856 
z
" transform="scale(0.015625)"/>
      <path id="DejaVuSans-2c" d="M 750 794 
L 1409 794 
L 1409 256 
L 897 -744 
L 494 -744 
L 750 256 
L 750 794 
z
" transform="scale(0.015625)"/>
      <path id="DejaVuSans-29" d="M 513 4856 
L 1013 4856 
Q 1481 4119 1714 3412 
Q 1947 2706 1947 2009 
Q 1947 1309 1714 600 
Q 1481 -109 1013 -844 
L 513 -844 
Q 928 -128 1133 580 
Q 1338 1288 1338 2009 
Q 1338 2731 1133 3434 
Q 928 4138 513 4856 
z
" transform="scale(0.015625)"/>
      <path id="DejaVuSans-78" d="M 3513 3500 
L 2247 1797 
L 3578 0 
L 2900 0 
L 1881 1375 
L 863 0 
L 184 0 
L 1544 1831 
L 300 3500 
L 978 3500 
L 1906 2253 
L 2834 3500 
L 3513 3500 
z
" transform="scale(0.015625)"/>
      <path id="DejaVuSans-3d" d="M 678 2906 
L 4684 2906 
L 4684 2381 
L 678 2381 
L 678 2906 
z
M 678 1631 
L 4684 1631 
L 4684 1100 
L 678 1100 
L 678 1631 
z
" transform="scale(0.015625)"/>
      <path id="DejaVuSans-2e" d="M 684 794 
L 1344 794 
L 1344 0 
L 684 0 
L 684 794 
z
" transform="scale(0.015625)"/>
      <path id="DejaVuSans-39" d="M 703 97 
L 703 672 
Q 941 559 1184 500 
Q 1428 441 1663 441 
Q 2288 441 2617 861 
Q 2947 1281 2994 2138 
Q 2813 1869 2534 1725 
Q 2256 1581 1919 1581 
Q 1219 1581 811 2004 
Q 403 2428 403 3163 
Q 403 3881 828 4315 
Q 1253 4750 1959 4750 
Q 2769 4750 3195 4129 
Q 3622 3509 3622 2328 
Q 3622 1225 3098 567 
Q 2575 -91 1691 -91 
Q 1453 -91 1209 -44 
Q 966 3 703 97 
z
M 1959 2075 
Q 2384 2075 2632 2365 
Q 2881 2656 2881 3163 
Q 2881 3666 2632 3958 
Q 2384 4250 1959 4250 
Q 1534 4250 1286 3958 
Q 1038 3666 1038 3163 
Q 1038 2656 1286 2365 
Q 1534 2075 1959 2075 
z
" transform="scale(0.015625)"/>
     </defs>
     <use xlink:href="#DejaVuSans-41"/>
     <use xlink:href="#DejaVuSans-52" x="68.408203"/>
     <use xlink:href="#DejaVuSans-49" x="137.890625"/>
     <use xlink:href="#DejaVuSans-4d" x="167.382812"/>
     <use xlink:href="#DejaVuSans-41" x="253.662109"/>
     <use xlink:href="#DejaVuSans-20" x="322.070312"/>
     <use xlink:href="#DejaVuSans-28" x="353.857422"/>
     <use xlink:href="#DejaVuSans-30" x="392.871094"/>
     <use xlink:href="#DejaVuSans-2c" x="456.494141"/>
     <use xlink:href="#DejaVuSans-20" x="488.28125"/>
     <use xlink:href="#DejaVuSans-31" x="520.068359"/>
     <use xlink:href="#DejaVuSans-2c" x="583.691406"/>
     <use xlink:href="#DejaVuSans-20" x="615.478516"/>
     <use xlink:href="#DejaVuSans-31" x="647.265625"/>
     <use xlink:href="#DejaVuSans-29" x="710.888672"/>
     <use xlink:href="#DejaVuSans-78" x="749.902344"/>
     <use xlink:href="#DejaVuSans-28" x="809.082031"/>
     <use xlink:href="#DejaVuSans-31" x="848.095703"/>
     <use xlink:href="#DejaVuSans-2c" x="911.71875"/>
     <use xlink:href="#DejaVuSans-20" x="943.505859"/>
     <use xlink:href="#DejaVuSans-30" x="975.292969"/>
     <use xlink:href="#DejaVuSans-2c" x="1038.916016"/>
     <use xlink:href="#DejaVuSans-20" x="1070.703125"/>
     <use xlink:href="#DejaVuSans-31" x="1102.490234"/>
     <use xlink:href="#DejaVuSans-2c" x="1166.113281"/>
     <use xlink:href="#DejaVuSans-20" x="1197.900391"/>
     <use xlink:href="#DejaVuSans-37" x="1229.6875"/>
     <use xlink:href="#DejaVuSans-29" x="1293.310547"/>
     <use xlink:href="#DejaVuSans-20" x="1332.324219"/>
     <use xlink:href="#DejaVuSans-28" x="1364.111328"/>
     <use xlink:href="#DejaVuSans-52" x="1403.125"/>
     <use xlink:href="#DejaVuSans-32" x="1472.607422"/>
     <use xlink:href="#DejaVuSans-20" x="1536.230469"/>
     <use xlink:href="#DejaVuSans-3d" x="1568.017578"/>
     <use xlink:href="#DejaVuSans-20" x="1651.806641"/>
     <use xlink:href="#DejaVuSans-2d" x="1683.59375"/>
     <use xlink:href="#DejaVuSans-30" x="1719.677734"/>
     <use xlink:href="#DejaVuSans-2e" x="1783.300781"/>
     <use xlink:href="#DejaVuSans-35" x="1815.087891"/>
     <use xlink:href="#DejaVuSans-39" x="1878.710938"/>
     <use xlink:href="#DejaVuSans-37" x="1942.333984"/>
     <use xlink:href="#DejaVuSans-37" x="2005.957031"/>
     <use xlink:href="#DejaVuSans-34" x="2069.580078"/>
     <use xlink:href="#DejaVuSans-33" x="2133.203125"/>
     <use xlink:href="#DejaVuSans-29" x="2196.826172"/>
    </g>
   </g>
   <g id="legend_1">
    <g id="patch_7">
     <path d="M 1281.132812 87.789875 
L 1378.2125 87.789875 
Q 1380.2125 87.789875 1380.2125 85.789875 
L 1380.2125 42.7555 
Q 1380.2125 40.7555 1378.2125 40.7555 
L 1281.132812 40.7555 
Q 1279.132812 40.7555 1279.132812 42.7555 
L 1279.132812 85.789875 
Q 1279.132812 87.789875 1281.132812 87.789875 
z
" style="fill: #ffffff; opacity: 0.8; stroke: #cccccc; stroke-linejoin: miter"/>
    </g>
    <g id="line2d_21">
     <path d="M 1283.132812 48.853937 
L 1293.132812 48.853937 
L 1303.132812 48.853937 
" style="fill: none; stroke: #0000ff; stroke-width: 1.5; stroke-linecap: square"/>
    </g>
    <g id="text_19">
     <!-- Actual Value -->
     <g transform="translate(1311.132812 52.353937)scale(0.1 -0.1)">
      <defs>
       <path id="DejaVuSans-75" d="M 544 1381 
L 544 3500 
L 1119 3500 
L 1119 1403 
Q 1119 906 1312 657 
Q 1506 409 1894 409 
Q 2359 409 2629 706 
Q 2900 1003 2900 1516 
L 2900 3500 
L 3475 3500 
L 3475 0 
L 2900 0 
L 2900 538 
Q 2691 219 2414 64 
Q 2138 -91 1772 -91 
Q 1169 -91 856 284 
Q 544 659 544 1381 
z
M 1991 3584 
L 1991 3584 
z
" transform="scale(0.015625)"/>
       <path id="DejaVuSans-56" d="M 1831 0 
L 50 4666 
L 709 4666 
L 2188 738 
L 3669 4666 
L 4325 4666 
L 2547 0 
L 1831 0 
z
" transform="scale(0.015625)"/>
      </defs>
      <use xlink:href="#DejaVuSans-41"/>
      <use xlink:href="#DejaVuSans-63" x="66.658203"/>
      <use xlink:href="#DejaVuSans-74" x="121.638672"/>
      <use xlink:href="#DejaVuSans-75" x="160.847656"/>
      <use xlink:href="#DejaVuSans-61" x="224.226562"/>
      <use xlink:href="#DejaVuSans-6c" x="285.505859"/>
      <use xlink:href="#DejaVuSans-20" x="313.289062"/>
      <use xlink:href="#DejaVuSans-56" x="345.076172"/>
      <use xlink:href="#DejaVuSans-61" x="405.734375"/>
      <use xlink:href="#DejaVuSans-6c" x="467.013672"/>
      <use xlink:href="#DejaVuSans-75" x="494.796875"/>
      <use xlink:href="#DejaVuSans-65" x="558.175781"/>
     </g>
    </g>
    <g id="line2d_22">
     <path d="M 1283.132812 63.532062 
L 1293.132812 63.532062 
L 1303.132812 63.532062 
" style="fill: none; stroke: #ffa500; stroke-width: 1.5; stroke-linecap: square"/>
    </g>
    <g id="text_20">
     <!-- Check Value -->
     <g transform="translate(1311.132812 67.032062)scale(0.1 -0.1)">
      <defs>
       <path id="DejaVuSans-68" d="M 3513 2113 
L 3513 0 
L 2938 0 
L 2938 2094 
Q 2938 2591 2744 2837 
Q 2550 3084 2163 3084 
Q 1697 3084 1428 2787 
Q 1159 2491 1159 1978 
L 1159 0 
L 581 0 
L 581 4863 
L 1159 4863 
L 1159 2956 
Q 1366 3272 1645 3428 
Q 1925 3584 2291 3584 
Q 2894 3584 3203 3211 
Q 3513 2838 3513 2113 
z
" transform="scale(0.015625)"/>
       <path id="DejaVuSans-6b" d="M 581 4863 
L 1159 4863 
L 1159 1991 
L 2875 3500 
L 3609 3500 
L 1753 1863 
L 3688 0 
L 2938 0 
L 1159 1709 
L 1159 0 
L 581 0 
L 581 4863 
z
" transform="scale(0.015625)"/>
      </defs>
      <use xlink:href="#DejaVuSans-43"/>
      <use xlink:href="#DejaVuSans-68" x="69.824219"/>
      <use xlink:href="#DejaVuSans-65" x="133.203125"/>
      <use xlink:href="#DejaVuSans-63" x="194.726562"/>
      <use xlink:href="#DejaVuSans-6b" x="249.707031"/>
      <use xlink:href="#DejaVuSans-20" x="307.617188"/>
      <use xlink:href="#DejaVuSans-56" x="339.404297"/>
      <use xlink:href="#DejaVuSans-61" x="400.0625"/>
      <use xlink:href="#DejaVuSans-6c" x="461.341797"/>
      <use xlink:href="#DejaVuSans-75" x="489.125"/>
      <use xlink:href="#DejaVuSans-65" x="552.503906"/>
     </g>
    </g>
    <g id="line2d_23">
     <path d="M 1283.132812 78.210187 
L 1293.132812 78.210187 
L 1303.132812 78.210187 
" style="fill: none; stroke: #ff0000; stroke-width: 1.5; stroke-linecap: square"/>
    </g>
    <g id="text_21">
     <!-- Predict Value -->
     <g transform="translate(1311.132812 81.710187)scale(0.1 -0.1)">
      <defs>
       <path id="DejaVuSans-50" d="M 1259 4147 
L 1259 2394 
L 2053 2394 
Q 2494 2394 2734 2622 
Q 2975 2850 2975 3272 
Q 2975 3691 2734 3919 
Q 2494 4147 2053 4147 
L 1259 4147 
z
M 628 4666 
L 2053 4666 
Q 2838 4666 3239 4311 
Q 3641 3956 3641 3272 
Q 3641 2581 3239 2228 
Q 2838 1875 2053 1875 
L 1259 1875 
L 1259 0 
L 628 0 
L 628 4666 
z
" transform="scale(0.015625)"/>
      </defs>
      <use xlink:href="#DejaVuSans-50"/>
      <use xlink:href="#DejaVuSans-72" x="58.552734"/>
      <use xlink:href="#DejaVuSans-65" x="97.416016"/>
      <use xlink:href="#DejaVuSans-64" x="158.939453"/>
      <use xlink:href="#DejaVuSans-69" x="222.416016"/>
      <use xlink:href="#DejaVuSans-63" x="250.199219"/>
      <use xlink:href="#DejaVuSans-74" x="305.179688"/>
      <use xlink:href="#DejaVuSans-20" x="344.388672"/>
      <use xlink:href="#DejaVuSans-56" x="376.175781"/>
      <use xlink:href="#DejaVuSans-61" x="436.833984"/>
      <use xlink:href="#DejaVuSans-6c" x="498.113281"/>
      <use xlink:href="#DejaVuSans-75" x="525.896484"/>
      <use xlink:href="#DejaVuSans-65" x="589.275391"/>
     </g>
    </g>
   </g>
  </g>
 </g>
 <defs>
  <clipPath id="p5a299641b9">
   <rect x="46.0125" y="35.7555" width="1339.2" height="332.64"/>
  </clipPath>
 </defs>
</svg>
