<?xml version="1.0" encoding="utf-8" standalone="no"?>
<!DOCTYPE svg PUBLIC "-//W3C//DTD SVG 1.1//EN"
  "http://www.w3.org/Graphics/SVG/1.1/DTD/svg11.dtd">
<svg xmlns:xlink="http://www.w3.org/1999/xlink" width="1392.4125pt" height="392.273625pt" viewBox="0 0 1392.4125 392.273625" xmlns="http://www.w3.org/2000/svg" version="1.1">
 <metadata>
  <rdf:RDF xmlns:dc="http://purl.org/dc/elements/1.1/" xmlns:cc="http://creativecommons.org/ns#" xmlns:rdf="http://www.w3.org/1999/02/22-rdf-syntax-ns#">
   <cc:Work>
    <dc:type rdf:resource="http://purl.org/dc/dcmitype/StillImage"/>
    <dc:date>2022-07-13T19:58:19.790931</dc:date>
    <dc:format>image/svg+xml</dc:format>
    <dc:creator>
     <cc:Agent>
      <dc:title>Matplotlib v3.5.2, https://matplotlib.org/</dc:title>
     </cc:Agent>
    </dc:creator>
   </cc:Work>
  </rdf:RDF>
 </metadata>
 <defs>
  <style type="text/css">*{stroke-linejoin: round; stroke-linecap: butt}</style>
 </defs>
 <g id="figure_1">
  <g id="patch_1">
   <path d="M 0 392.273625 
L 1392.4125 392.273625 
L 1392.4125 0 
L 0 0 
z
" style="fill: #ffffff"/>
  </g>
  <g id="axes_1">
   <g id="patch_2">
    <path d="M 46.0125 368.3955 
L 1385.2125 368.3955 
L 1385.2125 35.7555 
L 46.0125 35.7555 
z
" style="fill: #ffffff"/>
   </g>
   <g id="matplotlib.axis_1">
    <g id="xtick_1">
     <g id="line2d_1">
      <defs>
       <path id="m4a65ef938f" d="M 0 0 
L 0 3.5 
" style="stroke: #000000; stroke-width: 0.8"/>
      </defs>
      <g>
       <use xlink:href="#m4a65ef938f" x="77.58107" y="368.3955" style="stroke: #000000; stroke-width: 0.8"/>
      </g>
     </g>
     <g id="text_1">
      <!-- 2020-01 -->
      <g transform="translate(56.689663 382.993937)scale(0.1 -0.1)">
       <defs>
        <path id="DejaVuSans-32" d="M 1228 531 
L 3431 531 
L 3431 0 
L 469 0 
L 469 531 
Q 828 903 1448 1529 
Q 2069 2156 2228 2338 
Q 2531 2678 2651 2914 
Q 2772 3150 2772 3378 
Q 2772 3750 2511 3984 
Q 2250 4219 1831 4219 
Q 1534 4219 1204 4116 
Q 875 4013 500 3803 
L 500 4441 
Q 881 4594 1212 4672 
Q 1544 4750 1819 4750 
Q 2544 4750 2975 4387 
Q 3406 4025 3406 3419 
Q 3406 3131 3298 2873 
Q 3191 2616 2906 2266 
Q 2828 2175 2409 1742 
Q 1991 1309 1228 531 
z
" transform="scale(0.015625)"/>
        <path id="DejaVuSans-30" d="M 2034 4250 
Q 1547 4250 1301 3770 
Q 1056 3291 1056 2328 
Q 1056 1369 1301 889 
Q 1547 409 2034 409 
Q 2525 409 2770 889 
Q 3016 1369 3016 2328 
Q 3016 3291 2770 3770 
Q 2525 4250 2034 4250 
z
M 2034 4750 
Q 2819 4750 3233 4129 
Q 3647 3509 3647 2328 
Q 3647 1150 3233 529 
Q 2819 -91 2034 -91 
Q 1250 -91 836 529 
Q 422 1150 422 2328 
Q 422 3509 836 4129 
Q 1250 4750 2034 4750 
z
" transform="scale(0.015625)"/>
        <path id="DejaVuSans-2d" d="M 313 2009 
L 1997 2009 
L 1997 1497 
L 313 1497 
L 313 2009 
z
" transform="scale(0.015625)"/>
        <path id="DejaVuSans-31" d="M 794 531 
L 1825 531 
L 1825 4091 
L 703 3866 
L 703 4441 
L 1819 4666 
L 2450 4666 
L 2450 531 
L 3481 531 
L 3481 0 
L 794 0 
L 794 531 
z
" transform="scale(0.015625)"/>
       </defs>
       <use xlink:href="#DejaVuSans-32"/>
       <use xlink:href="#DejaVuSans-30" x="63.623047"/>
       <use xlink:href="#DejaVuSans-32" x="127.246094"/>
       <use xlink:href="#DejaVuSans-30" x="190.869141"/>
       <use xlink:href="#DejaVuSans-2d" x="254.492188"/>
       <use xlink:href="#DejaVuSans-30" x="290.576172"/>
       <use xlink:href="#DejaVuSans-31" x="354.199219"/>
      </g>
     </g>
    </g>
    <g id="xtick_2">
     <g id="line2d_2">
      <g>
       <use xlink:href="#m4a65ef938f" x="198.793721" y="368.3955" style="stroke: #000000; stroke-width: 0.8"/>
      </g>
     </g>
     <g id="text_2">
      <!-- 2020-04 -->
      <g transform="translate(177.902315 382.993937)scale(0.1 -0.1)">
       <defs>
        <path id="DejaVuSans-34" d="M 2419 4116 
L 825 1625 
L 2419 1625 
L 2419 4116 
z
M 2253 4666 
L 3047 4666 
L 3047 1625 
L 3713 1625 
L 3713 1100 
L 3047 1100 
L 3047 0 
L 2419 0 
L 2419 1100 
L 313 1100 
L 313 1709 
L 2253 4666 
z
" transform="scale(0.015625)"/>
       </defs>
       <use xlink:href="#DejaVuSans-32"/>
       <use xlink:href="#DejaVuSans-30" x="63.623047"/>
       <use xlink:href="#DejaVuSans-32" x="127.246094"/>
       <use xlink:href="#DejaVuSans-30" x="190.869141"/>
       <use xlink:href="#DejaVuSans-2d" x="254.492188"/>
       <use xlink:href="#DejaVuSans-30" x="290.576172"/>
       <use xlink:href="#DejaVuSans-34" x="354.199219"/>
      </g>
     </g>
    </g>
    <g id="xtick_3">
     <g id="line2d_3">
      <g>
       <use xlink:href="#m4a65ef938f" x="320.006373" y="368.3955" style="stroke: #000000; stroke-width: 0.8"/>
      </g>
     </g>
     <g id="text_3">
      <!-- 2020-07 -->
      <g transform="translate(299.114967 382.993937)scale(0.1 -0.1)">
       <defs>
        <path id="DejaVuSans-37" d="M 525 4666 
L 3525 4666 
L 3525 4397 
L 1831 0 
L 1172 0 
L 2766 4134 
L 525 4134 
L 525 4666 
z
" transform="scale(0.015625)"/>
       </defs>
       <use xlink:href="#DejaVuSans-32"/>
       <use xlink:href="#DejaVuSans-30" x="63.623047"/>
       <use xlink:href="#DejaVuSans-32" x="127.246094"/>
       <use xlink:href="#DejaVuSans-30" x="190.869141"/>
       <use xlink:href="#DejaVuSans-2d" x="254.492188"/>
       <use xlink:href="#DejaVuSans-30" x="290.576172"/>
       <use xlink:href="#DejaVuSans-37" x="354.199219"/>
      </g>
     </g>
    </g>
    <g id="xtick_4">
     <g id="line2d_4">
      <g>
       <use xlink:href="#m4a65ef938f" x="442.551032" y="368.3955" style="stroke: #000000; stroke-width: 0.8"/>
      </g>
     </g>
     <g id="text_4">
      <!-- 2020-10 -->
      <g transform="translate(421.659626 382.993937)scale(0.1 -0.1)">
       <use xlink:href="#DejaVuSans-32"/>
       <use xlink:href="#DejaVuSans-30" x="63.623047"/>
       <use xlink:href="#DejaVuSans-32" x="127.246094"/>
       <use xlink:href="#DejaVuSans-30" x="190.869141"/>
       <use xlink:href="#DejaVuSans-2d" x="254.492188"/>
       <use xlink:href="#DejaVuSans-31" x="290.576172"/>
       <use xlink:href="#DejaVuSans-30" x="354.199219"/>
      </g>
     </g>
    </g>
    <g id="xtick_5">
     <g id="line2d_5">
      <g>
       <use xlink:href="#m4a65ef938f" x="565.095691" y="368.3955" style="stroke: #000000; stroke-width: 0.8"/>
      </g>
     </g>
     <g id="text_5">
      <!-- 2021-01 -->
      <g transform="translate(544.204285 382.993937)scale(0.1 -0.1)">
       <use xlink:href="#DejaVuSans-32"/>
       <use xlink:href="#DejaVuSans-30" x="63.623047"/>
       <use xlink:href="#DejaVuSans-32" x="127.246094"/>
       <use xlink:href="#DejaVuSans-31" x="190.869141"/>
       <use xlink:href="#DejaVuSans-2d" x="254.492188"/>
       <use xlink:href="#DejaVuSans-30" x="290.576172"/>
       <use xlink:href="#DejaVuSans-31" x="354.199219"/>
      </g>
     </g>
    </g>
    <g id="xtick_6">
     <g id="line2d_6">
      <g>
       <use xlink:href="#m4a65ef938f" x="684.976335" y="368.3955" style="stroke: #000000; stroke-width: 0.8"/>
      </g>
     </g>
     <g id="text_6">
      <!-- 2021-04 -->
      <g transform="translate(664.084929 382.993937)scale(0.1 -0.1)">
       <use xlink:href="#DejaVuSans-32"/>
       <use xlink:href="#DejaVuSans-30" x="63.623047"/>
       <use xlink:href="#DejaVuSans-32" x="127.246094"/>
       <use xlink:href="#DejaVuSans-31" x="190.869141"/>
       <use xlink:href="#DejaVuSans-2d" x="254.492188"/>
       <use xlink:href="#DejaVuSans-30" x="290.576172"/>
       <use xlink:href="#DejaVuSans-34" x="354.199219"/>
      </g>
     </g>
    </g>
    <g id="xtick_7">
     <g id="line2d_7">
      <g>
       <use xlink:href="#m4a65ef938f" x="806.188987" y="368.3955" style="stroke: #000000; stroke-width: 0.8"/>
      </g>
     </g>
     <g id="text_7">
      <!-- 2021-07 -->
      <g transform="translate(785.297581 382.993937)scale(0.1 -0.1)">
       <use xlink:href="#DejaVuSans-32"/>
       <use xlink:href="#DejaVuSans-30" x="63.623047"/>
       <use xlink:href="#DejaVuSans-32" x="127.246094"/>
       <use xlink:href="#DejaVuSans-31" x="190.869141"/>
       <use xlink:href="#DejaVuSans-2d" x="254.492188"/>
       <use xlink:href="#DejaVuSans-30" x="290.576172"/>
       <use xlink:href="#DejaVuSans-37" x="354.199219"/>
      </g>
     </g>
    </g>
    <g id="xtick_8">
     <g id="line2d_8">
      <g>
       <use xlink:href="#m4a65ef938f" x="928.733646" y="368.3955" style="stroke: #000000; stroke-width: 0.8"/>
      </g>
     </g>
     <g id="text_8">
      <!-- 2021-10 -->
      <g transform="translate(907.84224 382.993937)scale(0.1 -0.1)">
       <use xlink:href="#DejaVuSans-32"/>
       <use xlink:href="#DejaVuSans-30" x="63.623047"/>
       <use xlink:href="#DejaVuSans-32" x="127.246094"/>
       <use xlink:href="#DejaVuSans-31" x="190.869141"/>
       <use xlink:href="#DejaVuSans-2d" x="254.492188"/>
       <use xlink:href="#DejaVuSans-31" x="290.576172"/>
       <use xlink:href="#DejaVuSans-30" x="354.199219"/>
      </g>
     </g>
    </g>
    <g id="xtick_9">
     <g id="line2d_9">
      <g>
       <use xlink:href="#m4a65ef938f" x="1051.278305" y="368.3955" style="stroke: #000000; stroke-width: 0.8"/>
      </g>
     </g>
     <g id="text_9">
      <!-- 2022-01 -->
      <g transform="translate(1030.386898 382.993937)scale(0.1 -0.1)">
       <use xlink:href="#DejaVuSans-32"/>
       <use xlink:href="#DejaVuSans-30" x="63.623047"/>
       <use xlink:href="#DejaVuSans-32" x="127.246094"/>
       <use xlink:href="#DejaVuSans-32" x="190.869141"/>
       <use xlink:href="#DejaVuSans-2d" x="254.492188"/>
       <use xlink:href="#DejaVuSans-30" x="290.576172"/>
       <use xlink:href="#DejaVuSans-31" x="354.199219"/>
      </g>
     </g>
    </g>
    <g id="xtick_10">
     <g id="line2d_10">
      <g>
       <use xlink:href="#m4a65ef938f" x="1171.158949" y="368.3955" style="stroke: #000000; stroke-width: 0.8"/>
      </g>
     </g>
     <g id="text_10">
      <!-- 2022-04 -->
      <g transform="translate(1150.267543 382.993937)scale(0.1 -0.1)">
       <use xlink:href="#DejaVuSans-32"/>
       <use xlink:href="#DejaVuSans-30" x="63.623047"/>
       <use xlink:href="#DejaVuSans-32" x="127.246094"/>
       <use xlink:href="#DejaVuSans-32" x="190.869141"/>
       <use xlink:href="#DejaVuSans-2d" x="254.492188"/>
       <use xlink:href="#DejaVuSans-30" x="290.576172"/>
       <use xlink:href="#DejaVuSans-34" x="354.199219"/>
      </g>
     </g>
    </g>
    <g id="xtick_11">
     <g id="line2d_11">
      <g>
       <use xlink:href="#m4a65ef938f" x="1292.371601" y="368.3955" style="stroke: #000000; stroke-width: 0.8"/>
      </g>
     </g>
     <g id="text_11">
      <!-- 2022-07 -->
      <g transform="translate(1271.480195 382.993937)scale(0.1 -0.1)">
       <use xlink:href="#DejaVuSans-32"/>
       <use xlink:href="#DejaVuSans-30" x="63.623047"/>
       <use xlink:href="#DejaVuSans-32" x="127.246094"/>
       <use xlink:href="#DejaVuSans-32" x="190.869141"/>
       <use xlink:href="#DejaVuSans-2d" x="254.492188"/>
       <use xlink:href="#DejaVuSans-30" x="290.576172"/>
       <use xlink:href="#DejaVuSans-37" x="354.199219"/>
      </g>
     </g>
    </g>
   </g>
   <g id="matplotlib.axis_2">
    <g id="ytick_1">
     <g id="line2d_12">
      <defs>
       <path id="md635fd4172" d="M 0 0 
L -3.5 0 
" style="stroke: #000000; stroke-width: 0.8"/>
      </defs>
      <g>
       <use xlink:href="#md635fd4172" x="46.0125" y="352.440208" style="stroke: #000000; stroke-width: 0.8"/>
      </g>
     </g>
     <g id="text_12">
      <!-- 0 -->
      <g transform="translate(32.65 356.239427)scale(0.1 -0.1)">
       <use xlink:href="#DejaVuSans-30"/>
      </g>
     </g>
    </g>
    <g id="ytick_2">
     <g id="line2d_13">
      <g>
       <use xlink:href="#md635fd4172" x="46.0125" y="302.483328" style="stroke: #000000; stroke-width: 0.8"/>
      </g>
     </g>
     <g id="text_13">
      <!-- 2000 -->
      <g transform="translate(13.5625 306.282546)scale(0.1 -0.1)">
       <use xlink:href="#DejaVuSans-32"/>
       <use xlink:href="#DejaVuSans-30" x="63.623047"/>
       <use xlink:href="#DejaVuSans-30" x="127.246094"/>
       <use xlink:href="#DejaVuSans-30" x="190.869141"/>
      </g>
     </g>
    </g>
    <g id="ytick_3">
     <g id="line2d_14">
      <g>
       <use xlink:href="#md635fd4172" x="46.0125" y="252.526447" style="stroke: #000000; stroke-width: 0.8"/>
      </g>
     </g>
     <g id="text_14">
      <!-- 4000 -->
      <g transform="translate(13.5625 256.325666)scale(0.1 -0.1)">
       <use xlink:href="#DejaVuSans-34"/>
       <use xlink:href="#DejaVuSans-30" x="63.623047"/>
       <use xlink:href="#DejaVuSans-30" x="127.246094"/>
       <use xlink:href="#DejaVuSans-30" x="190.869141"/>
      </g>
     </g>
    </g>
    <g id="ytick_4">
     <g id="line2d_15">
      <g>
       <use xlink:href="#md635fd4172" x="46.0125" y="202.569567" style="stroke: #000000; stroke-width: 0.8"/>
      </g>
     </g>
     <g id="text_15">
      <!-- 6000 -->
      <g transform="translate(13.5625 206.368786)scale(0.1 -0.1)">
       <defs>
        <path id="DejaVuSans-36" d="M 2113 2584 
Q 1688 2584 1439 2293 
Q 1191 2003 1191 1497 
Q 1191 994 1439 701 
Q 1688 409 2113 409 
Q 2538 409 2786 701 
Q 3034 994 3034 1497 
Q 3034 2003 2786 2293 
Q 2538 2584 2113 2584 
z
M 3366 4563 
L 3366 3988 
Q 3128 4100 2886 4159 
Q 2644 4219 2406 4219 
Q 1781 4219 1451 3797 
Q 1122 3375 1075 2522 
Q 1259 2794 1537 2939 
Q 1816 3084 2150 3084 
Q 2853 3084 3261 2657 
Q 3669 2231 3669 1497 
Q 3669 778 3244 343 
Q 2819 -91 2113 -91 
Q 1303 -91 875 529 
Q 447 1150 447 2328 
Q 447 3434 972 4092 
Q 1497 4750 2381 4750 
Q 2619 4750 2861 4703 
Q 3103 4656 3366 4563 
z
" transform="scale(0.015625)"/>
       </defs>
       <use xlink:href="#DejaVuSans-36"/>
       <use xlink:href="#DejaVuSans-30" x="63.623047"/>
       <use xlink:href="#DejaVuSans-30" x="127.246094"/>
       <use xlink:href="#DejaVuSans-30" x="190.869141"/>
      </g>
     </g>
    </g>
    <g id="ytick_5">
     <g id="line2d_16">
      <g>
       <use xlink:href="#md635fd4172" x="46.0125" y="152.612687" style="stroke: #000000; stroke-width: 0.8"/>
      </g>
     </g>
     <g id="text_16">
      <!-- 8000 -->
      <g transform="translate(13.5625 156.411905)scale(0.1 -0.1)">
       <defs>
        <path id="DejaVuSans-38" d="M 2034 2216 
Q 1584 2216 1326 1975 
Q 1069 1734 1069 1313 
Q 1069 891 1326 650 
Q 1584 409 2034 409 
Q 2484 409 2743 651 
Q 3003 894 3003 1313 
Q 3003 1734 2745 1975 
Q 2488 2216 2034 2216 
z
M 1403 2484 
Q 997 2584 770 2862 
Q 544 3141 544 3541 
Q 544 4100 942 4425 
Q 1341 4750 2034 4750 
Q 2731 4750 3128 4425 
Q 3525 4100 3525 3541 
Q 3525 3141 3298 2862 
Q 3072 2584 2669 2484 
Q 3125 2378 3379 2068 
Q 3634 1759 3634 1313 
Q 3634 634 3220 271 
Q 2806 -91 2034 -91 
Q 1263 -91 848 271 
Q 434 634 434 1313 
Q 434 1759 690 2068 
Q 947 2378 1403 2484 
z
M 1172 3481 
Q 1172 3119 1398 2916 
Q 1625 2713 2034 2713 
Q 2441 2713 2670 2916 
Q 2900 3119 2900 3481 
Q 2900 3844 2670 4047 
Q 2441 4250 2034 4250 
Q 1625 4250 1398 4047 
Q 1172 3844 1172 3481 
z
" transform="scale(0.015625)"/>
       </defs>
       <use xlink:href="#DejaVuSans-38"/>
       <use xlink:href="#DejaVuSans-30" x="63.623047"/>
       <use xlink:href="#DejaVuSans-30" x="127.246094"/>
       <use xlink:href="#DejaVuSans-30" x="190.869141"/>
      </g>
     </g>
    </g>
    <g id="ytick_6">
     <g id="line2d_17">
      <g>
       <use xlink:href="#md635fd4172" x="46.0125" y="102.655806" style="stroke: #000000; stroke-width: 0.8"/>
      </g>
     </g>
     <g id="text_17">
      <!-- 10000 -->
      <g transform="translate(7.2 106.455025)scale(0.1 -0.1)">
       <use xlink:href="#DejaVuSans-31"/>
       <use xlink:href="#DejaVuSans-30" x="63.623047"/>
       <use xlink:href="#DejaVuSans-30" x="127.246094"/>
       <use xlink:href="#DejaVuSans-30" x="190.869141"/>
       <use xlink:href="#DejaVuSans-30" x="254.492188"/>
      </g>
     </g>
    </g>
    <g id="ytick_7">
     <g id="line2d_18">
      <g>
       <use xlink:href="#md635fd4172" x="46.0125" y="52.698926" style="stroke: #000000; stroke-width: 0.8"/>
      </g>
     </g>
     <g id="text_18">
      <!-- 12000 -->
      <g transform="translate(7.2 56.498145)scale(0.1 -0.1)">
       <use xlink:href="#DejaVuSans-31"/>
       <use xlink:href="#DejaVuSans-32" x="63.623047"/>
       <use xlink:href="#DejaVuSans-30" x="127.246094"/>
       <use xlink:href="#DejaVuSans-30" x="190.869141"/>
       <use xlink:href="#DejaVuSans-30" x="254.492188"/>
      </g>
     </g>
    </g>
   </g>
   <g id="line2d_19">
    <path d="M 106.885227 352.440208 
L 166.82555 352.440208 
L 168.157557 352.190424 
L 169.489564 352.365273 
L 170.821571 352.41523 
L 172.153578 352.24038 
L 173.485585 352.365273 
L 174.817593 351.890682 
L 176.1496 350.366997 
L 177.481607 349.942364 
L 178.813614 350.866566 
L 180.145621 348.56855 
L 181.477628 351.266221 
L 182.809635 346.720145 
L 184.141643 351.2912 
L 185.47365 349.967342 
L 188.137664 350.16717 
L 189.469671 348.993183 
L 190.801678 348.143916 
L 192.133686 349.392838 
L 193.465693 349.892407 
L 194.7977 349.442795 
L 196.129707 346.919973 
L 197.461714 347.944089 
L 198.793721 344.871741 
L 200.125729 345.820921 
L 201.457736 349.143054 
L 202.789743 343.972517 
L 204.12175 337.228338 
L 205.453757 345.721008 
L 206.785764 346.745124 
L 208.117772 346.79508 
L 209.449779 347.294649 
L 210.781786 344.547021 
L 212.113793 346.96993 
L 213.4458 345.795943 
L 214.777807 343.92256 
L 216.109815 338.80198 
L 217.441822 339.051764 
L 218.773829 349.792493 
L 220.105836 337.128424 
L 221.437843 334.705515 
L 222.76985 350.691717 
L 224.101857 323.789937 
L 225.433865 339.676225 
L 226.765872 325.488471 
L 228.097879 332.832132 
L 229.429886 332.882089 
L 230.761893 337.328252 
L 232.0939 337.777864 
L 233.425908 335.030235 
L 234.757915 329.634892 
L 236.089922 320.168063 
L 237.421929 320.043171 
L 238.753936 327.736531 
L 240.085943 327.936358 
L 241.417951 331.033685 
L 242.749958 324.764096 
L 244.081965 301.883845 
L 245.413972 338.177519 
L 246.745979 307.703822 
L 248.077986 294.964817 
L 249.409994 312.524661 
L 250.742001 308.802873 
L 252.074008 296.113825 
L 253.406015 328.410949 
L 254.738022 340.200772 
L 256.070029 277.230125 
L 257.402037 352.440208 
L 258.734044 318.669357 
L 260.066051 303.132767 
L 261.398058 306.4549 
L 262.730065 304.181862 
L 264.062072 297.662489 
L 265.394079 287.421328 
L 266.726087 308.902787 
L 268.058094 298.386863 
L 270.722108 318.569443 
L 272.054115 316.321384 
L 273.386122 300.584966 
L 274.71813 282.475597 
L 276.050137 291.767577 
L 277.382144 276.530728 
L 278.714151 278.404111 
L 280.046158 254.075111 
L 281.378165 250.902849 
L 282.710173 232.518717 
L 284.04218 252.901124 
L 285.374187 234.192272 
L 286.706194 228.547145 
L 288.038201 234.342143 
L 289.370208 236.390375 
L 290.702216 217.931308 
L 292.034223 206.715988 
L 293.36623 192.653126 
L 294.698237 352.440208 
L 296.030244 190.779743 
L 297.362251 50.8755 
L 298.694259 241.460998 
L 300.026266 206.591096 
L 301.358273 218.605726 
L 302.69028 228.9468 
L 304.022287 187.482589 
L 305.354294 228.771951 
L 306.686301 240.761602 
L 308.018309 253.875283 
L 309.350316 255.224119 
L 310.682323 251.427396 
L 312.01433 283.125037 
L 313.346337 274.057863 
L 314.678344 250.728 
L 316.010352 263.591896 
L 317.342359 281.876115 
L 318.674366 249.204315 
L 320.006373 244.058756 
L 321.33838 250.353323 
L 322.670387 352.440208 
L 325.334402 189.206102 
L 326.666409 285.223226 
L 327.998416 278.004456 
L 329.330423 268.537627 
L 330.66243 283.724519 
L 331.994438 283.699541 
L 333.326445 289.46956 
L 334.658452 283.674562 
L 335.990459 303.007875 
L 337.322466 298.361885 
L 338.654473 298.861454 
L 339.986481 352.440208 
L 341.318488 252.451512 
L 342.650495 312.999251 
L 343.982502 312.799423 
L 345.314509 327.137048 
L 346.646516 319.168926 
L 347.978523 308.403218 
L 349.310531 322.241274 
L 350.642538 315.297267 
L 351.974545 321.81664 
L 353.306552 352.440208 
L 354.638559 323.065562 
L 355.970566 329.060388 
L 357.302574 325.888126 
L 358.634581 324.614226 
L 359.966588 329.884677 
L 361.298595 352.440208 
L 362.630602 317.620262 
L 363.962609 333.406637 
L 365.294617 352.440208 
L 366.626624 335.579761 
L 369.290638 332.907068 
L 370.622645 331.408361 
L 371.954652 336.603877 
L 373.28666 338.976829 
L 374.618667 339.176656 
L 375.950674 334.205947 
L 377.282681 333.631443 
L 378.614688 336.803704 
L 379.946695 333.781313 
L 381.278703 323.26539 
L 382.61071 352.440208 
L 383.942717 337.02851 
L 385.274724 337.128424 
L 386.606731 339.626268 
L 387.938738 336.703791 
L 389.270745 337.802842 
L 390.602753 325.288644 
L 391.93476 352.440208 
L 393.266767 341.19991 
L 394.598774 340.4006 
L 395.930781 341.324802 
L 397.262788 342.074155 
L 398.594796 344.472086 
L 401.25881 347.1198 
L 402.590817 344.946676 
L 403.922824 330.833857 
L 405.254831 340.000945 
L 406.586839 339.626268 
L 407.918846 352.440208 
L 409.250853 330.509138 
L 410.58286 344.197323 
L 411.914867 341.799392 
L 413.246874 343.173207 
L 414.578882 343.92256 
L 415.910889 337.852799 
L 417.242896 339.301548 
L 418.574903 338.976829 
L 419.90691 342.348918 
L 421.238917 335.829545 
L 422.570925 338.826958 
L 423.902932 333.656421 
L 425.234939 336.329114 
L 427.898953 336.628855 
L 430.562967 339.151678 
L 431.894975 332.482434 
L 433.226982 332.507413 
L 434.558989 338.302411 
L 435.890996 335.105171 
L 437.223003 338.302411 
L 438.55501 335.579761 
L 439.887018 333.781313 
L 441.219025 338.876915 
L 442.551032 336.828683 
L 443.883039 338.627131 
L 445.215046 336.653834 
L 446.547053 352.440208 
L 447.879061 324.689161 
L 449.211068 336.853661 
L 450.543075 337.877777 
L 451.875082 335.929459 
L 453.207089 335.679675 
L 454.539096 335.804567 
L 455.871104 342.823509 
L 457.203111 339.176656 
L 458.535118 337.078467 
L 459.867125 333.581486 
L 461.199132 335.979416 
L 462.531139 338.077605 
L 463.863147 338.277432 
L 465.195154 341.624543 
L 466.527161 337.902756 
L 467.859168 334.705515 
L 469.191175 334.056076 
L 470.523182 334.056076 
L 471.855189 331.283469 
L 473.187197 331.658146 
L 474.519204 334.780451 
L 475.851211 333.131874 
L 477.183218 331.832995 
L 478.515225 329.759784 
L 479.847232 325.513449 
L 481.17924 332.282607 
L 482.511247 328.036272 
L 483.843254 324.38942 
L 485.175261 323.290368 
L 486.507268 319.643516 
L 487.839275 319.918279 
L 489.171283 318.069874 
L 490.50329 314.922591 
L 491.835297 316.571168 
L 493.167304 311.225782 
L 494.499311 311.550501 
L 495.831318 309.777032 
L 497.163326 307.279188 
L 498.495333 294.889882 
L 499.82734 298.361885 
L 501.159347 291.417879 
L 502.491354 299.286087 
L 503.823361 301.234406 
L 506.487376 288.820121 
L 507.819383 284.049239 
L 509.15139 281.426503 
L 510.483397 285.872665 
L 511.815404 283.599627 
L 513.147411 278.653896 
L 514.479419 277.280082 
L 515.811426 269.861485 
L 517.143433 274.682324 
L 518.47544 276.380858 
L 519.807447 281.776201 
L 521.139454 281.526416 
L 522.471462 291.043202 
L 523.803469 281.776201 
L 525.135476 265.040646 
L 526.467483 270.960536 
L 527.79949 274.532453 
L 529.131497 269.811528 
L 530.463505 257.647028 
L 531.795512 280.377408 
L 533.127519 278.42909 
L 534.459526 274.057863 
L 535.791533 276.330901 
L 537.12354 284.274045 
L 538.455548 268.287843 
L 539.787555 293.441132 
L 541.119562 291.018224 
L 542.451569 284.224088 
L 543.783576 288.870078 
L 545.115583 278.204284 
L 546.447591 273.033747 
L 547.779598 287.121587 
L 549.111605 310.476429 
L 550.443612 309.876946 
L 551.775619 298.936389 
L 553.107626 296.088847 
L 554.439633 298.686605 
L 555.771641 295.988933 
L 557.103648 306.155158 
L 558.435655 303.132767 
L 559.767662 308.078498 
L 561.099669 298.611669 
L 562.431676 290.618569 
L 563.763684 290.91831 
L 565.095691 297.887295 
L 566.427698 295.689192 
L 567.759705 305.106064 
L 569.091712 303.807185 
L 570.423719 299.535872 
L 571.755727 290.468698 
L 573.087734 291.617706 
L 574.419741 302.308479 
L 575.751748 280.02771 
L 577.083755 305.555676 
L 578.415762 292.292124 
L 579.74777 299.41098 
L 581.079777 275.081979 
L 582.411784 292.067318 
L 583.743791 291.692642 
L 585.075798 289.46956 
L 586.407805 304.481603 
L 587.739813 307.479016 
L 589.07182 308.178412 
L 590.403827 293.416154 
L 591.735834 308.85283 
L 593.067841 304.306754 
L 594.399848 312.624574 
L 595.731855 311.750329 
L 597.063863 305.65559 
L 598.39587 313.398906 
L 599.727877 304.731387 
L 601.059884 311.375652 
L 602.391891 297.912273 
L 603.723898 312.499682 
L 605.055906 312.100027 
L 606.387913 321.966511 
L 607.71992 317.870047 
L 609.051927 314.77272 
L 610.383934 319.918279 
L 611.715941 320.317934 
L 613.047949 318.819228 
L 614.379956 326.537566 
L 615.711963 327.26194 
L 617.04397 325.66332 
L 618.375977 314.922591 
L 619.707984 320.717589 
L 621.039992 320.917416 
L 622.371999 317.370478 
L 623.704006 326.262803 
L 625.036013 352.440208 
L 626.36802 304.68143 
L 627.700027 320.667632 
L 629.032035 321.34205 
L 630.364042 318.969098 
L 631.696049 319.268839 
L 633.028056 323.465217 
L 634.360063 326.212846 
L 635.69207 322.565994 
L 637.024077 318.444551 
L 638.356085 313.948432 
L 639.688092 319.593559 
L 641.020099 323.065562 
L 642.352106 317.670219 
L 643.684113 323.390282 
L 645.01612 317.770133 
L 646.348128 314.497957 
L 647.680135 312.999251 
L 649.012142 309.627162 
L 650.344149 307.978584 
L 651.676156 312.674531 
L 653.008163 318.644378 
L 654.340171 307.828714 
L 657.004185 284.973441 
L 658.336192 294.040615 
L 659.668199 285.897643 
L 661.000206 296.163782 
L 662.332214 289.719345 
L 663.664221 293.715895 
L 664.996228 265.14056 
L 666.328235 266.289568 
L 667.660242 255.623774 
L 668.992249 260.844268 
L 670.324257 260.794311 
L 671.656264 270.760709 
L 672.988271 269.986377 
L 674.320278 253.875283 
L 675.652285 243.334381 
L 676.984292 240.836537 
L 678.316299 233.367984 
L 679.648307 239.412766 
L 680.980314 250.428258 
L 682.312321 233.617768 
L 683.644328 228.197447 
L 684.976335 221.703052 
L 686.308342 234.467035 
L 687.64035 227.048438 
L 688.972357 244.458411 
L 690.304364 253.700434 
L 691.636371 252.426534 
L 692.968378 219.3301 
L 694.300385 219.754734 
L 695.632393 224.076004 
L 696.9644 226.299085 
L 698.296407 237.939038 
L 699.628414 244.583303 
L 700.960421 239.962292 
L 702.292428 217.681523 
L 703.624436 218.455855 
L 704.956443 228.14749 
L 706.28845 199.397305 
L 707.620457 223.751284 
L 708.952464 216.432601 
L 710.284471 215.083766 
L 711.616479 206.141484 
L 712.948486 205.816764 
L 714.280493 204.867584 
L 715.6125 212.28618 
L 716.944507 231.919234 
L 718.276514 240.361947 
L 719.608521 220.254303 
L 720.940529 215.558356 
L 722.272536 224.750422 
L 723.604543 235.141453 
L 724.93655 242.185373 
L 726.268557 247.20604 
L 727.600564 268.088016 
L 728.932572 352.440208 
L 731.596586 140.248359 
L 732.928593 249.803797 
L 735.592607 266.339525 
L 736.924615 275.406699 
L 738.256622 280.477322 
L 739.588629 270.885601 
L 740.920636 289.569474 
L 742.252643 314.198216 
L 744.916658 271.709889 
L 746.248665 288.345531 
L 747.580672 271.110407 
L 748.912679 247.35591 
L 750.244686 275.756397 
L 751.576693 252.351598 
L 752.908701 275.406699 
L 754.240708 276.330901 
L 755.572715 296.163782 
L 756.904722 284.398937 
L 758.236729 284.34898 
L 759.568736 290.44372 
L 760.900743 291.118137 
L 762.232751 285.073355 
L 763.564758 299.56085 
L 764.896765 308.20339 
L 766.228772 306.404943 
L 767.560779 301.783931 
L 768.892786 305.156021 
L 770.224794 304.406668 
L 771.556801 311.750329 
L 772.888808 315.222332 
L 774.220815 317.895025 
L 775.552822 324.514312 
L 776.884829 319.8933 
L 778.216837 319.8933 
L 779.548844 322.61595 
L 780.880851 321.491921 
L 782.212858 326.987177 
L 783.544865 331.508275 
L 784.876872 326.512587 
L 786.20888 324.489333 
L 787.540887 326.387695 
L 788.872894 327.686574 
L 790.204901 352.440208 
L 791.536908 303.557401 
L 792.868915 335.879502 
L 794.200923 329.210259 
L 795.53293 325.038859 
L 796.864937 326.412673 
L 798.196944 329.085366 
L 799.528951 329.934633 
L 800.860958 329.609914 
L 802.192965 334.081054 
L 803.524973 327.986315 
L 804.85698 326.537566 
L 806.188987 320.54274 
L 807.520994 317.470392 
L 808.853001 321.766683 
L 810.185008 318.794249 
L 811.517016 331.708103 
L 812.849023 314.547914 
L 814.18103 311.825264 
L 815.513037 306.404943 
L 816.845044 306.779619 
L 818.177051 302.982896 
L 819.509059 307.279188 
L 820.841066 308.103477 
L 822.173073 302.982896 
L 823.50508 288.870078 
L 824.837087 294.315378 
L 826.169094 278.778788 
L 827.501102 287.321414 
L 828.833109 291.193073 
L 830.165116 298.861454 
L 831.497123 288.020811 
L 832.82913 298.536734 
L 834.161137 316.845931 
L 835.493145 352.440208 
L 836.825152 236.040677 
L 838.157159 258.721101 
L 839.489166 270.960536 
L 840.821173 249.554013 
L 842.15318 240.112163 
L 843.485187 239.113025 
L 844.817195 228.796929 
L 846.149202 226.898568 
L 847.481209 231.094946 
L 848.813216 262.967435 
L 850.145223 234.492014 
L 851.47723 211.037258 
L 852.809238 233.917509 
L 854.141245 234.54197 
L 855.473252 241.161257 
L 856.805259 251.52731 
L 858.137266 255.423946 
L 859.469273 231.144903 
L 860.801281 229.196584 
L 862.133288 237.064793 
L 863.465295 232.893393 
L 864.797302 259.745217 
L 866.129309 260.794311 
L 867.461316 271.984652 
L 868.793324 253.175887 
L 870.125331 243.209489 
L 871.457338 271.53504 
L 872.789345 275.406699 
L 874.121352 256.473041 
L 875.453359 258.221532 
L 876.785367 250.653064 
L 878.117374 247.555738 
L 879.449381 238.71337 
L 880.781388 254.274938 
L 882.113395 246.756428 
L 883.445402 254.799485 
L 884.777409 257.522135 
L 886.109417 256.572955 
L 887.441424 263.292155 
L 888.773431 250.802935 
L 890.105438 256.997588 
L 891.437445 352.440208 
L 892.769452 159.431801 
L 894.10146 262.193104 
L 895.433467 269.6117 
L 896.765474 254.974334 
L 898.097481 250.977784 
L 899.429488 260.294742 
L 900.761495 265.515236 
L 902.093503 273.683186 
L 903.42551 277.804629 
L 904.757517 288.145703 
L 906.089524 284.324002 
L 907.421531 277.205146 
L 908.753538 279.303335 
L 910.085546 289.694366 
L 911.417553 287.995832 
L 912.74956 298.311928 
L 914.081567 305.056107 
L 915.413574 294.165507 
L 916.745581 293.566025 
L 918.077589 296.663351 
L 919.409596 300.984621 
L 920.741603 307.978584 
L 922.07361 308.553089 
L 923.405617 317.470392 
L 924.737624 313.473841 
L 926.069631 308.927765 
L 927.401639 317.195629 
L 928.733646 310.876084 
L 930.065653 311.075911 
L 931.39766 315.222332 
L 932.729667 319.768408 
L 934.061674 322.166339 
L 935.393682 316.146534 
L 936.725689 329.659871 
L 938.057696 328.585798 
L 939.389703 331.783038 
L 940.72171 328.86056 
L 942.053717 335.230063 
L 943.385725 326.937221 
L 944.717732 327.062113 
L 946.049739 325.313622 
L 947.381746 330.134461 
L 948.713753 334.455731 
L 952.709775 338.602152 
L 954.041782 336.903618 
L 955.373789 338.277432 
L 956.705796 338.652109 
L 958.037803 337.67795 
L 959.369811 335.005257 
L 960.701818 338.15254 
L 962.033825 339.551333 
L 963.365832 334.830408 
L 964.697839 335.954437 
L 966.029846 336.004394 
L 967.361853 334.131011 
L 968.693861 340.4006 
L 970.025868 341.025061 
L 971.357875 338.427303 
L 972.689882 337.952713 
L 974.021889 339.576311 
L 975.353896 338.277432 
L 976.685904 340.675363 
L 978.017911 341.224888 
L 979.349918 342.448832 
L 980.681925 338.602152 
L 982.013932 336.528942 
L 983.345939 342.673638 
L 984.677947 346.670188 
L 986.009954 352.440208 
L 987.341961 339.876053 
L 988.673968 347.044865 
L 990.005975 345.696029 
L 991.337982 340.950125 
L 992.66999 341.99922 
L 994.001997 344.472086 
L 995.334004 344.621956 
L 996.666011 344.372172 
L 997.998018 344.571999 
L 999.330025 343.697754 
L 1000.662033 343.373034 
L 1001.99404 346.145641 
L 1003.326047 342.174069 
L 1004.658054 344.871741 
L 1005.990061 348.044003 
L 1007.322068 340.575449 
L 1008.654075 342.099134 
L 1009.986083 343.023336 
L 1011.31809 342.673638 
L 1012.650097 341.6745 
L 1013.982104 343.148228 
L 1015.314111 344.047452 
L 1016.646118 346.64521 
L 1017.978126 344.696892 
L 1019.310133 343.697754 
L 1020.64214 344.621956 
L 1021.974147 342.573724 
L 1023.306154 345.246417 
L 1024.638161 346.345469 
L 1025.970169 346.195598 
L 1027.302176 343.198185 
L 1028.634183 344.921697 
L 1029.96619 345.52118 
L 1031.298197 352.440208 
L 1032.630204 337.02851 
L 1033.962212 343.472948 
L 1035.294219 345.696029 
L 1036.626226 344.696892 
L 1037.958233 343.472948 
L 1039.29024 344.39715 
L 1040.622247 343.622819 
L 1041.954255 343.472948 
L 1043.286262 345.571137 
L 1044.618269 344.547021 
L 1045.950276 343.747711 
L 1047.282283 340.4006 
L 1048.61429 339.576311 
L 1051.278305 337.603015 
L 1052.610312 334.755472 
L 1053.942319 336.703791 
L 1055.274326 330.009569 
L 1056.606333 325.3386 
L 1057.93834 320.143085 
L 1059.270348 318.844206 
L 1060.602355 313.1741 
L 1061.934362 311.25076 
L 1063.266369 315.796836 
L 1064.598376 300.634923 
L 1065.930383 277.030297 
L 1067.262391 263.342112 
L 1068.594398 245.382613 
L 1069.926405 251.852029 
L 1071.258412 244.033778 
L 1072.590419 226.69874 
L 1073.922426 215.758183 
L 1075.254434 182.386987 
L 1076.586441 160.655744 
L 1077.918448 189.081209 
L 1079.250455 162.953761 
L 1080.582462 172.720331 
L 1081.914469 193.777156 
L 1083.246477 222.652233 
L 1084.578484 164.127748 
L 1085.910491 148.041632 
L 1087.242498 153.536889 
L 1088.574505 153.661781 
L 1089.906512 176.392162 
L 1091.238519 219.380057 
L 1092.570527 201.39558 
L 1093.902534 206.316333 
L 1095.234541 192.578191 
L 1096.566548 199.147521 
L 1097.898555 228.222425 
L 1099.230562 269.062175 
L 1100.56257 282.525554 
L 1101.894577 246.256859 
L 1103.226584 254.674593 
L 1104.558591 265.065624 
L 1105.890598 277.030297 
L 1107.222605 272.359329 
L 1108.554613 288.420466 
L 1109.88662 287.571199 
L 1111.218627 290.868353 
L 1112.550634 280.752085 
L 1113.882641 292.491952 
L 1115.214648 302.907961 
L 1116.546656 311.375652 
L 1117.878663 318.469529 
L 1119.21067 328.435927 
L 1120.542677 321.66677 
L 1121.874684 316.096578 
L 1123.206691 324.414398 
L 1124.538699 322.291231 
L 1125.870706 331.283469 
L 1128.53472 330.933771 
L 1129.866727 333.331701 
L 1131.198734 333.256766 
L 1132.530741 328.635755 
L 1133.862749 332.55737 
L 1135.194756 333.581486 
L 1136.526763 333.556507 
L 1137.85877 342.998358 
L 1139.190777 333.50655 
L 1140.522784 336.478985 
L 1141.854792 334.380796 
L 1143.186799 338.177519 
L 1144.518806 337.228338 
L 1145.850813 340.900169 
L 1147.18282 340.625406 
L 1149.846835 339.60129 
L 1151.178842 347.869153 
L 1152.510849 335.055214 
L 1153.842856 343.073293 
L 1156.50687 346.745124 
L 1157.838878 341.374759 
L 1159.170885 347.194736 
L 1160.502892 344.222301 
L 1161.834899 347.719283 
L 1163.166906 344.696892 
L 1164.498913 347.794218 
L 1165.830921 345.721008 
L 1167.162928 347.594391 
L 1168.494935 346.345469 
L 1169.826942 347.944089 
L 1171.158949 347.244692 
L 1172.490956 345.321353 
L 1173.822963 348.593528 
L 1175.154971 348.56855 
L 1176.486978 348.743399 
L 1177.818985 348.193873 
L 1179.150992 348.918248 
L 1180.482999 346.495339 
L 1181.815006 350.042278 
L 1183.147014 349.992321 
L 1184.479021 350.891545 
L 1185.811028 349.917386 
L 1187.143035 349.36786 
L 1188.475042 352.440208 
L 1189.807049 347.469498 
L 1191.139057 350.017299 
L 1192.471064 350.49189 
L 1193.803071 350.317041 
L 1195.135078 350.566825 
L 1196.467085 349.867429 
L 1197.799092 350.441933 
L 1199.1311 350.391976 
L 1200.463107 352.440208 
L 1201.795114 347.319628 
L 1203.127121 352.440208 
L 1220.443214 352.440208 
L 1221.775221 330.534116 
L 1223.107228 352.440208 
L 1225.771243 352.440208 
L 1227.10325 344.097409 
L 1228.435257 352.440208 
L 1229.767264 350.342019 
L 1231.099271 352.440208 
L 1232.431279 346.944951 
L 1233.763286 350.217127 
L 1236.4273 350.691717 
L 1237.759307 352.040553 
L 1239.091314 349.69258 
L 1240.423322 352.440208 
L 1241.755329 348.618507 
L 1243.087336 350.541847 
L 1244.419343 350.466911 
L 1245.75135 350.192148 
L 1247.083357 351.191286 
L 1248.415365 351.241243 
L 1249.747372 351.091372 
L 1251.079379 350.791631 
L 1252.411386 350.766652 
L 1255.0754 352.440208 
L 1256.407407 352.440208 
L 1257.739415 347.244692 
L 1259.071422 351.191286 
L 1260.403429 350.841588 
L 1261.735436 350.217127 
L 1263.067443 352.440208 
L 1264.39945 348.818334 
L 1265.731458 350.766652 
L 1267.063465 350.092235 
L 1268.395472 352.41523 
L 1269.727479 348.368722 
L 1271.059486 348.843313 
L 1272.391493 349.992321 
L 1273.723501 348.668464 
L 1275.055508 348.643485 
L 1276.387515 348.168895 
L 1277.719522 349.617644 
L 1279.051529 347.344606 
L 1280.383536 345.745986 
L 1281.715544 344.72187 
L 1283.047551 341.574587 
L 1284.379558 352.440208 
L 1285.711565 332.757197 
L 1287.043572 344.122387 
L 1288.375579 338.926872 
L 1289.707587 336.429028 
L 1291.039594 335.105171 
L 1292.371601 352.440208 
L 1293.703608 315.771858 
L 1295.035615 335.579761 
L 1296.367622 336.129287 
L 1297.69963 352.440208 
L 1299.031637 310.551364 
L 1300.363644 335.130149 
L 1301.695651 334.15599 
L 1303.027658 352.440208 
L 1304.359665 330.63403 
L 1305.691672 346.070706 
L 1307.02368 346.545296 
L 1307.02368 346.545296 
" clip-path="url(#padd917da3e)" style="fill: none; stroke: #0000ff; stroke-width: 1.5; stroke-linecap: square"/>
   </g>
   <g id="line2d_20">
    <path d="M 1067.262391 284.883803 
L 1068.594398 269.512694 
L 1071.258412 256.723843 
L 1073.922426 230.881585 
L 1076.586441 191.453673 
L 1077.918448 190.484468 
L 1079.250455 179.73723 
L 1080.582462 176.051652 
L 1081.914469 180.09714 
L 1083.246477 190.729571 
L 1084.578484 178.028552 
L 1085.910491 168.461581 
L 1087.242498 160.594677 
L 1088.574505 158.43956 
L 1089.906512 166.075471 
L 1091.238519 186.383781 
L 1092.570527 183.09299 
L 1093.902534 187.978952 
L 1095.234541 191.140226 
L 1096.566548 192.337815 
L 1097.898555 207.745613 
L 1099.230562 234.762438 
L 1100.56257 251.193295 
L 1101.894577 243.538877 
L 1103.226584 243.793325 
L 1107.222605 271.915679 
L 1108.554613 282.475692 
L 1109.88662 280.360285 
L 1111.218627 280.751004 
L 1112.550634 278.949594 
L 1115.214648 292.834079 
L 1116.546656 304.864128 
L 1117.878663 313.009161 
L 1119.21067 316.082927 
L 1120.542677 314.740724 
L 1121.874684 314.996255 
L 1123.206691 320.991418 
L 1124.538699 322.631546 
L 1125.870706 330.20299 
L 1127.202713 333.691444 
L 1128.53472 330.242078 
L 1129.866727 328.443783 
L 1131.198734 330.775371 
L 1132.530741 331.639316 
L 1133.862749 333.618166 
L 1135.194756 336.752097 
L 1136.526763 337.853963 
L 1137.85877 338.193753 
L 1139.190777 334.376191 
L 1140.522784 335.141483 
L 1141.854792 336.396379 
L 1144.518806 340.17692 
L 1145.850813 342.916338 
L 1147.18282 340.124378 
L 1148.514827 338.879749 
L 1149.846835 338.953174 
L 1151.178842 343.648247 
L 1152.510849 341.339191 
L 1153.842856 343.921251 
L 1155.174863 346.020117 
L 1156.50687 344.836274 
L 1157.838878 342.632077 
L 1159.170885 344.903281 
L 1160.502892 344.538507 
L 1161.834899 347.013065 
L 1163.166906 347.727937 
L 1164.498913 349.177634 
L 1165.830921 346.394342 
L 1167.162928 346.679619 
L 1168.494935 346.72563 
L 1171.158949 348.015297 
L 1172.490956 348.429817 
L 1173.822963 349.326553 
L 1175.154971 348.12599 
L 1176.486978 348.129618 
L 1179.150992 348.702675 
L 1180.482999 348.206232 
L 1181.815006 350.173318 
L 1183.147014 350.705705 
L 1184.479021 350.126165 
L 1185.811028 349.8415 
L 1187.143035 349.923146 
L 1188.475042 350.698068 
L 1189.807049 350.059943 
L 1191.139057 350.970683 
L 1192.471064 351.30614 
L 1193.803071 350.393058 
L 1195.135078 350.257549 
L 1196.467085 350.573601 
L 1197.799092 349.97615 
L 1199.1311 350.744404 
L 1200.463107 352.070782 
L 1201.795114 350.687073 
L 1204.459128 351.290407 
L 1205.791135 352.090682 
L 1207.123143 351.819483 
L 1208.45515 352.672341 
L 1209.787157 352.635681 
L 1211.119164 353.2755 
L 1212.451171 352.702352 
L 1213.783178 352.459144 
L 1215.115185 352.725381 
L 1216.447193 352.335091 
L 1217.7792 352.822943 
L 1219.111207 352.717742 
L 1220.443214 353.12684 
L 1221.775221 344.687852 
L 1223.107228 347.411625 
L 1224.439236 349.443119 
L 1225.771243 350.331668 
L 1227.10325 348.378723 
L 1228.435257 349.885945 
L 1229.767264 348.452418 
L 1231.099271 351.73611 
L 1232.431279 349.911326 
L 1233.763286 350.163639 
L 1235.095293 349.359828 
L 1236.4273 350.826351 
L 1237.759307 351.098976 
L 1239.091314 349.625664 
L 1240.423322 351.471762 
L 1241.755329 350.669487 
L 1243.087336 350.741809 
L 1244.419343 350.022886 
L 1245.75135 350.909348 
L 1248.415365 350.441943 
L 1249.747372 350.923578 
L 1251.079379 351.219713 
L 1252.411386 351.132959 
L 1253.743393 350.813274 
L 1255.0754 352.088664 
L 1256.407407 351.98235 
L 1257.739415 349.922169 
L 1259.071422 350.534039 
L 1260.403429 350.891152 
L 1261.735436 350.771056 
L 1263.067443 351.124698 
L 1264.39945 350.772007 
L 1265.731458 350.135308 
L 1267.063465 350.236342 
L 1268.395472 351.106932 
L 1269.727479 350.227152 
L 1271.059486 350.011965 
L 1272.391493 349.496246 
L 1273.723501 349.720038 
L 1275.055508 348.811003 
L 1277.719522 348.833035 
L 1279.051529 348.418243 
L 1280.383536 347.754066 
L 1281.715544 346.163487 
L 1283.047551 344.863734 
L 1284.379558 347.216194 
L 1285.711565 342.278416 
L 1287.043572 342.525545 
L 1288.375579 341.160736 
L 1289.707587 339.565067 
L 1291.039594 337.307451 
L 1292.371601 344.075581 
L 1293.703608 331.681418 
L 1295.035615 334.368372 
L 1296.367622 334.239075 
L 1297.69963 340.621572 
L 1299.031637 329.621289 
L 1300.363644 332.736103 
L 1301.695651 330.856229 
L 1303.027658 339.031747 
L 1304.359665 336.923055 
L 1305.691672 341.171987 
L 1307.02368 339.185976 
L 1307.02368 339.185976 
" clip-path="url(#padd917da3e)" style="fill: none; stroke: #ffa500; stroke-width: 1.5; stroke-linecap: square"/>
   </g>
   <g id="line2d_21">
    <path d="M 1307.02368 339.185976 
L 1308.355687 341.374598 
L 1309.687694 342.079526 
L 1311.019701 341.999605 
L 1312.351708 340.255605 
L 1313.683715 342.327697 
L 1315.015723 343.023392 
L 1316.34773 339.529871 
L 1317.679737 341.29708 
L 1319.011744 341.866276 
L 1320.343751 341.801744 
L 1321.675758 340.393546 
L 1323.007766 342.066663 
L 1324.339773 342.628403 
" clip-path="url(#padd917da3e)" style="fill: none; stroke: #ff0000; stroke-width: 1.5; stroke-linecap: square"/>
   </g>
   <g id="patch_3">
    <path d="M 46.0125 368.3955 
L 46.0125 35.7555 
" style="fill: none; stroke: #000000; stroke-width: 0.8; stroke-linejoin: miter; stroke-linecap: square"/>
   </g>
   <g id="patch_4">
    <path d="M 1385.2125 368.3955 
L 1385.2125 35.7555 
" style="fill: none; stroke: #000000; stroke-width: 0.8; stroke-linejoin: miter; stroke-linecap: square"/>
   </g>
   <g id="patch_5">
    <path d="M 46.0125 368.3955 
L 1385.2125 368.3955 
" style="fill: none; stroke: #000000; stroke-width: 0.8; stroke-linejoin: miter; stroke-linecap: square"/>
   </g>
   <g id="patch_6">
    <path d="M 46.0125 35.7555 
L 1385.2125 35.7555 
" style="fill: none; stroke: #000000; stroke-width: 0.8; stroke-linejoin: miter; stroke-linecap: square"/>
   </g>
   <g id="text_19">
    <!-- Daily Confirmed Cases Forecasting - Pakistan -->
    <g transform="translate(579.989063 16.318125)scale(0.12 -0.12)">
     <defs>
      <path id="DejaVuSans-44" d="M 1259 4147 
L 1259 519 
L 2022 519 
Q 2988 519 3436 956 
Q 3884 1394 3884 2338 
Q 3884 3275 3436 3711 
Q 2988 4147 2022 4147 
L 1259 4147 
z
M 628 4666 
L 1925 4666 
Q 3281 4666 3915 4102 
Q 4550 3538 4550 2338 
Q 4550 1131 3912 565 
Q 3275 0 1925 0 
L 628 0 
L 628 4666 
z
" transform="scale(0.015625)"/>
      <path id="DejaVuSans-61" d="M 2194 1759 
Q 1497 1759 1228 1600 
Q 959 1441 959 1056 
Q 959 750 1161 570 
Q 1363 391 1709 391 
Q 2188 391 2477 730 
Q 2766 1069 2766 1631 
L 2766 1759 
L 2194 1759 
z
M 3341 1997 
L 3341 0 
L 2766 0 
L 2766 531 
Q 2569 213 2275 61 
Q 1981 -91 1556 -91 
Q 1019 -91 701 211 
Q 384 513 384 1019 
Q 384 1609 779 1909 
Q 1175 2209 1959 2209 
L 2766 2209 
L 2766 2266 
Q 2766 2663 2505 2880 
Q 2244 3097 1772 3097 
Q 1472 3097 1187 3025 
Q 903 2953 641 2809 
L 641 3341 
Q 956 3463 1253 3523 
Q 1550 3584 1831 3584 
Q 2591 3584 2966 3190 
Q 3341 2797 3341 1997 
z
" transform="scale(0.015625)"/>
      <path id="DejaVuSans-69" d="M 603 3500 
L 1178 3500 
L 1178 0 
L 603 0 
L 603 3500 
z
M 603 4863 
L 1178 4863 
L 1178 4134 
L 603 4134 
L 603 4863 
z
" transform="scale(0.015625)"/>
      <path id="DejaVuSans-6c" d="M 603 4863 
L 1178 4863 
L 1178 0 
L 603 0 
L 603 4863 
z
" transform="scale(0.015625)"/>
      <path id="DejaVuSans-79" d="M 2059 -325 
Q 1816 -950 1584 -1140 
Q 1353 -1331 966 -1331 
L 506 -1331 
L 506 -850 
L 844 -850 
Q 1081 -850 1212 -737 
Q 1344 -625 1503 -206 
L 1606 56 
L 191 3500 
L 800 3500 
L 1894 763 
L 2988 3500 
L 3597 3500 
L 2059 -325 
z
" transform="scale(0.015625)"/>
      <path id="DejaVuSans-20" transform="scale(0.015625)"/>
      <path id="DejaVuSans-43" d="M 4122 4306 
L 4122 3641 
Q 3803 3938 3442 4084 
Q 3081 4231 2675 4231 
Q 1875 4231 1450 3742 
Q 1025 3253 1025 2328 
Q 1025 1406 1450 917 
Q 1875 428 2675 428 
Q 3081 428 3442 575 
Q 3803 722 4122 1019 
L 4122 359 
Q 3791 134 3420 21 
Q 3050 -91 2638 -91 
Q 1578 -91 968 557 
Q 359 1206 359 2328 
Q 359 3453 968 4101 
Q 1578 4750 2638 4750 
Q 3056 4750 3426 4639 
Q 3797 4528 4122 4306 
z
" transform="scale(0.015625)"/>
      <path id="DejaVuSans-6f" d="M 1959 3097 
Q 1497 3097 1228 2736 
Q 959 2375 959 1747 
Q 959 1119 1226 758 
Q 1494 397 1959 397 
Q 2419 397 2687 759 
Q 2956 1122 2956 1747 
Q 2956 2369 2687 2733 
Q 2419 3097 1959 3097 
z
M 1959 3584 
Q 2709 3584 3137 3096 
Q 3566 2609 3566 1747 
Q 3566 888 3137 398 
Q 2709 -91 1959 -91 
Q 1206 -91 779 398 
Q 353 888 353 1747 
Q 353 2609 779 3096 
Q 1206 3584 1959 3584 
z
" transform="scale(0.015625)"/>
      <path id="DejaVuSans-6e" d="M 3513 2113 
L 3513 0 
L 2938 0 
L 2938 2094 
Q 2938 2591 2744 2837 
Q 2550 3084 2163 3084 
Q 1697 3084 1428 2787 
Q 1159 2491 1159 1978 
L 1159 0 
L 581 0 
L 581 3500 
L 1159 3500 
L 1159 2956 
Q 1366 3272 1645 3428 
Q 1925 3584 2291 3584 
Q 2894 3584 3203 3211 
Q 3513 2838 3513 2113 
z
" transform="scale(0.015625)"/>
      <path id="DejaVuSans-66" d="M 2375 4863 
L 2375 4384 
L 1825 4384 
Q 1516 4384 1395 4259 
Q 1275 4134 1275 3809 
L 1275 3500 
L 2222 3500 
L 2222 3053 
L 1275 3053 
L 1275 0 
L 697 0 
L 697 3053 
L 147 3053 
L 147 3500 
L 697 3500 
L 697 3744 
Q 697 4328 969 4595 
Q 1241 4863 1831 4863 
L 2375 4863 
z
" transform="scale(0.015625)"/>
      <path id="DejaVuSans-72" d="M 2631 2963 
Q 2534 3019 2420 3045 
Q 2306 3072 2169 3072 
Q 1681 3072 1420 2755 
Q 1159 2438 1159 1844 
L 1159 0 
L 581 0 
L 581 3500 
L 1159 3500 
L 1159 2956 
Q 1341 3275 1631 3429 
Q 1922 3584 2338 3584 
Q 2397 3584 2469 3576 
Q 2541 3569 2628 3553 
L 2631 2963 
z
" transform="scale(0.015625)"/>
      <path id="DejaVuSans-6d" d="M 3328 2828 
Q 3544 3216 3844 3400 
Q 4144 3584 4550 3584 
Q 5097 3584 5394 3201 
Q 5691 2819 5691 2113 
L 5691 0 
L 5113 0 
L 5113 2094 
Q 5113 2597 4934 2840 
Q 4756 3084 4391 3084 
Q 3944 3084 3684 2787 
Q 3425 2491 3425 1978 
L 3425 0 
L 2847 0 
L 2847 2094 
Q 2847 2600 2669 2842 
Q 2491 3084 2119 3084 
Q 1678 3084 1418 2786 
Q 1159 2488 1159 1978 
L 1159 0 
L 581 0 
L 581 3500 
L 1159 3500 
L 1159 2956 
Q 1356 3278 1631 3431 
Q 1906 3584 2284 3584 
Q 2666 3584 2933 3390 
Q 3200 3197 3328 2828 
z
" transform="scale(0.015625)"/>
      <path id="DejaVuSans-65" d="M 3597 1894 
L 3597 1613 
L 953 1613 
Q 991 1019 1311 708 
Q 1631 397 2203 397 
Q 2534 397 2845 478 
Q 3156 559 3463 722 
L 3463 178 
Q 3153 47 2828 -22 
Q 2503 -91 2169 -91 
Q 1331 -91 842 396 
Q 353 884 353 1716 
Q 353 2575 817 3079 
Q 1281 3584 2069 3584 
Q 2775 3584 3186 3129 
Q 3597 2675 3597 1894 
z
M 3022 2063 
Q 3016 2534 2758 2815 
Q 2500 3097 2075 3097 
Q 1594 3097 1305 2825 
Q 1016 2553 972 2059 
L 3022 2063 
z
" transform="scale(0.015625)"/>
      <path id="DejaVuSans-64" d="M 2906 2969 
L 2906 4863 
L 3481 4863 
L 3481 0 
L 2906 0 
L 2906 525 
Q 2725 213 2448 61 
Q 2172 -91 1784 -91 
Q 1150 -91 751 415 
Q 353 922 353 1747 
Q 353 2572 751 3078 
Q 1150 3584 1784 3584 
Q 2172 3584 2448 3432 
Q 2725 3281 2906 2969 
z
M 947 1747 
Q 947 1113 1208 752 
Q 1469 391 1925 391 
Q 2381 391 2643 752 
Q 2906 1113 2906 1747 
Q 2906 2381 2643 2742 
Q 2381 3103 1925 3103 
Q 1469 3103 1208 2742 
Q 947 2381 947 1747 
z
" transform="scale(0.015625)"/>
      <path id="DejaVuSans-73" d="M 2834 3397 
L 2834 2853 
Q 2591 2978 2328 3040 
Q 2066 3103 1784 3103 
Q 1356 3103 1142 2972 
Q 928 2841 928 2578 
Q 928 2378 1081 2264 
Q 1234 2150 1697 2047 
L 1894 2003 
Q 2506 1872 2764 1633 
Q 3022 1394 3022 966 
Q 3022 478 2636 193 
Q 2250 -91 1575 -91 
Q 1294 -91 989 -36 
Q 684 19 347 128 
L 347 722 
Q 666 556 975 473 
Q 1284 391 1588 391 
Q 1994 391 2212 530 
Q 2431 669 2431 922 
Q 2431 1156 2273 1281 
Q 2116 1406 1581 1522 
L 1381 1569 
Q 847 1681 609 1914 
Q 372 2147 372 2553 
Q 372 3047 722 3315 
Q 1072 3584 1716 3584 
Q 2034 3584 2315 3537 
Q 2597 3491 2834 3397 
z
" transform="scale(0.015625)"/>
      <path id="DejaVuSans-46" d="M 628 4666 
L 3309 4666 
L 3309 4134 
L 1259 4134 
L 1259 2759 
L 3109 2759 
L 3109 2228 
L 1259 2228 
L 1259 0 
L 628 0 
L 628 4666 
z
" transform="scale(0.015625)"/>
      <path id="DejaVuSans-63" d="M 3122 3366 
L 3122 2828 
Q 2878 2963 2633 3030 
Q 2388 3097 2138 3097 
Q 1578 3097 1268 2742 
Q 959 2388 959 1747 
Q 959 1106 1268 751 
Q 1578 397 2138 397 
Q 2388 397 2633 464 
Q 2878 531 3122 666 
L 3122 134 
Q 2881 22 2623 -34 
Q 2366 -91 2075 -91 
Q 1284 -91 818 406 
Q 353 903 353 1747 
Q 353 2603 823 3093 
Q 1294 3584 2113 3584 
Q 2378 3584 2631 3529 
Q 2884 3475 3122 3366 
z
" transform="scale(0.015625)"/>
      <path id="DejaVuSans-74" d="M 1172 4494 
L 1172 3500 
L 2356 3500 
L 2356 3053 
L 1172 3053 
L 1172 1153 
Q 1172 725 1289 603 
Q 1406 481 1766 481 
L 2356 481 
L 2356 0 
L 1766 0 
Q 1100 0 847 248 
Q 594 497 594 1153 
L 594 3053 
L 172 3053 
L 172 3500 
L 594 3500 
L 594 4494 
L 1172 4494 
z
" transform="scale(0.015625)"/>
      <path id="DejaVuSans-67" d="M 2906 1791 
Q 2906 2416 2648 2759 
Q 2391 3103 1925 3103 
Q 1463 3103 1205 2759 
Q 947 2416 947 1791 
Q 947 1169 1205 825 
Q 1463 481 1925 481 
Q 2391 481 2648 825 
Q 2906 1169 2906 1791 
z
M 3481 434 
Q 3481 -459 3084 -895 
Q 2688 -1331 1869 -1331 
Q 1566 -1331 1297 -1286 
Q 1028 -1241 775 -1147 
L 775 -588 
Q 1028 -725 1275 -790 
Q 1522 -856 1778 -856 
Q 2344 -856 2625 -561 
Q 2906 -266 2906 331 
L 2906 616 
Q 2728 306 2450 153 
Q 2172 0 1784 0 
Q 1141 0 747 490 
Q 353 981 353 1791 
Q 353 2603 747 3093 
Q 1141 3584 1784 3584 
Q 2172 3584 2450 3431 
Q 2728 3278 2906 2969 
L 2906 3500 
L 3481 3500 
L 3481 434 
z
" transform="scale(0.015625)"/>
      <path id="DejaVuSans-50" d="M 1259 4147 
L 1259 2394 
L 2053 2394 
Q 2494 2394 2734 2622 
Q 2975 2850 2975 3272 
Q 2975 3691 2734 3919 
Q 2494 4147 2053 4147 
L 1259 4147 
z
M 628 4666 
L 2053 4666 
Q 2838 4666 3239 4311 
Q 3641 3956 3641 3272 
Q 3641 2581 3239 2228 
Q 2838 1875 2053 1875 
L 1259 1875 
L 1259 0 
L 628 0 
L 628 4666 
z
" transform="scale(0.015625)"/>
      <path id="DejaVuSans-6b" d="M 581 4863 
L 1159 4863 
L 1159 1991 
L 2875 3500 
L 3609 3500 
L 1753 1863 
L 3688 0 
L 2938 0 
L 1159 1709 
L 1159 0 
L 581 0 
L 581 4863 
z
" transform="scale(0.015625)"/>
     </defs>
     <use xlink:href="#DejaVuSans-44"/>
     <use xlink:href="#DejaVuSans-61" x="77.001953"/>
     <use xlink:href="#DejaVuSans-69" x="138.28125"/>
     <use xlink:href="#DejaVuSans-6c" x="166.064453"/>
     <use xlink:href="#DejaVuSans-79" x="193.847656"/>
     <use xlink:href="#DejaVuSans-20" x="253.027344"/>
     <use xlink:href="#DejaVuSans-43" x="284.814453"/>
     <use xlink:href="#DejaVuSans-6f" x="354.638672"/>
     <use xlink:href="#DejaVuSans-6e" x="415.820312"/>
     <use xlink:href="#DejaVuSans-66" x="479.199219"/>
     <use xlink:href="#DejaVuSans-69" x="514.404297"/>
     <use xlink:href="#DejaVuSans-72" x="542.1875"/>
     <use xlink:href="#DejaVuSans-6d" x="581.550781"/>
     <use xlink:href="#DejaVuSans-65" x="678.962891"/>
     <use xlink:href="#DejaVuSans-64" x="740.486328"/>
     <use xlink:href="#DejaVuSans-20" x="803.962891"/>
     <use xlink:href="#DejaVuSans-43" x="835.75"/>
     <use xlink:href="#DejaVuSans-61" x="905.574219"/>
     <use xlink:href="#DejaVuSans-73" x="966.853516"/>
     <use xlink:href="#DejaVuSans-65" x="1018.953125"/>
     <use xlink:href="#DejaVuSans-73" x="1080.476562"/>
     <use xlink:href="#DejaVuSans-20" x="1132.576172"/>
     <use xlink:href="#DejaVuSans-46" x="1164.363281"/>
     <use xlink:href="#DejaVuSans-6f" x="1218.257812"/>
     <use xlink:href="#DejaVuSans-72" x="1279.439453"/>
     <use xlink:href="#DejaVuSans-65" x="1318.302734"/>
     <use xlink:href="#DejaVuSans-63" x="1379.826172"/>
     <use xlink:href="#DejaVuSans-61" x="1434.806641"/>
     <use xlink:href="#DejaVuSans-73" x="1496.085938"/>
     <use xlink:href="#DejaVuSans-74" x="1548.185547"/>
     <use xlink:href="#DejaVuSans-69" x="1587.394531"/>
     <use xlink:href="#DejaVuSans-6e" x="1615.177734"/>
     <use xlink:href="#DejaVuSans-67" x="1678.556641"/>
     <use xlink:href="#DejaVuSans-20" x="1742.033203"/>
     <use xlink:href="#DejaVuSans-2d" x="1773.820312"/>
     <use xlink:href="#DejaVuSans-20" x="1809.904297"/>
     <use xlink:href="#DejaVuSans-50" x="1841.691406"/>
     <use xlink:href="#DejaVuSans-61" x="1897.494141"/>
     <use xlink:href="#DejaVuSans-6b" x="1958.773438"/>
     <use xlink:href="#DejaVuSans-69" x="2016.683594"/>
     <use xlink:href="#DejaVuSans-73" x="2044.466797"/>
     <use xlink:href="#DejaVuSans-74" x="2096.566406"/>
     <use xlink:href="#DejaVuSans-61" x="2135.775391"/>
     <use xlink:href="#DejaVuSans-6e" x="2197.054688"/>
    </g>
    <!-- ARIMA (0, 1, 1)x(1, 0, 1, 7) (R2 = 0.973682) -->
    <g transform="translate(583.628438 29.7555)scale(0.12 -0.12)">
     <defs>
      <path id="DejaVuSans-41" d="M 2188 4044 
L 1331 1722 
L 3047 1722 
L 2188 4044 
z
M 1831 4666 
L 2547 4666 
L 4325 0 
L 3669 0 
L 3244 1197 
L 1141 1197 
L 716 0 
L 50 0 
L 1831 4666 
z
" transform="scale(0.015625)"/>
      <path id="DejaVuSans-52" d="M 2841 2188 
Q 3044 2119 3236 1894 
Q 3428 1669 3622 1275 
L 4263 0 
L 3584 0 
L 2988 1197 
Q 2756 1666 2539 1819 
Q 2322 1972 1947 1972 
L 1259 1972 
L 1259 0 
L 628 0 
L 628 4666 
L 2053 4666 
Q 2853 4666 3247 4331 
Q 3641 3997 3641 3322 
Q 3641 2881 3436 2590 
Q 3231 2300 2841 2188 
z
M 1259 4147 
L 1259 2491 
L 2053 2491 
Q 2509 2491 2742 2702 
Q 2975 2913 2975 3322 
Q 2975 3731 2742 3939 
Q 2509 4147 2053 4147 
L 1259 4147 
z
" transform="scale(0.015625)"/>
      <path id="DejaVuSans-49" d="M 628 4666 
L 1259 4666 
L 1259 0 
L 628 0 
L 628 4666 
z
" transform="scale(0.015625)"/>
      <path id="DejaVuSans-4d" d="M 628 4666 
L 1569 4666 
L 2759 1491 
L 3956 4666 
L 4897 4666 
L 4897 0 
L 4281 0 
L 4281 4097 
L 3078 897 
L 2444 897 
L 1241 4097 
L 1241 0 
L 628 0 
L 628 4666 
z
" transform="scale(0.015625)"/>
      <path id="DejaVuSans-28" d="M 1984 4856 
Q 1566 4138 1362 3434 
Q 1159 2731 1159 2009 
Q 1159 1288 1364 580 
Q 1569 -128 1984 -844 
L 1484 -844 
Q 1016 -109 783 600 
Q 550 1309 550 2009 
Q 550 2706 781 3412 
Q 1013 4119 1484 4856 
L 1984 4856 
z
" transform="scale(0.015625)"/>
      <path id="DejaVuSans-2c" d="M 750 794 
L 1409 794 
L 1409 256 
L 897 -744 
L 494 -744 
L 750 256 
L 750 794 
z
" transform="scale(0.015625)"/>
      <path id="DejaVuSans-29" d="M 513 4856 
L 1013 4856 
Q 1481 4119 1714 3412 
Q 1947 2706 1947 2009 
Q 1947 1309 1714 600 
Q 1481 -109 1013 -844 
L 513 -844 
Q 928 -128 1133 580 
Q 1338 1288 1338 2009 
Q 1338 2731 1133 3434 
Q 928 4138 513 4856 
z
" transform="scale(0.015625)"/>
      <path id="DejaVuSans-78" d="M 3513 3500 
L 2247 1797 
L 3578 0 
L 2900 0 
L 1881 1375 
L 863 0 
L 184 0 
L 1544 1831 
L 300 3500 
L 978 3500 
L 1906 2253 
L 2834 3500 
L 3513 3500 
z
" transform="scale(0.015625)"/>
      <path id="DejaVuSans-3d" d="M 678 2906 
L 4684 2906 
L 4684 2381 
L 678 2381 
L 678 2906 
z
M 678 1631 
L 4684 1631 
L 4684 1100 
L 678 1100 
L 678 1631 
z
" transform="scale(0.015625)"/>
      <path id="DejaVuSans-2e" d="M 684 794 
L 1344 794 
L 1344 0 
L 684 0 
L 684 794 
z
" transform="scale(0.015625)"/>
      <path id="DejaVuSans-39" d="M 703 97 
L 703 672 
Q 941 559 1184 500 
Q 1428 441 1663 441 
Q 2288 441 2617 861 
Q 2947 1281 2994 2138 
Q 2813 1869 2534 1725 
Q 2256 1581 1919 1581 
Q 1219 1581 811 2004 
Q 403 2428 403 3163 
Q 403 3881 828 4315 
Q 1253 4750 1959 4750 
Q 2769 4750 3195 4129 
Q 3622 3509 3622 2328 
Q 3622 1225 3098 567 
Q 2575 -91 1691 -91 
Q 1453 -91 1209 -44 
Q 966 3 703 97 
z
M 1959 2075 
Q 2384 2075 2632 2365 
Q 2881 2656 2881 3163 
Q 2881 3666 2632 3958 
Q 2384 4250 1959 4250 
Q 1534 4250 1286 3958 
Q 1038 3666 1038 3163 
Q 1038 2656 1286 2365 
Q 1534 2075 1959 2075 
z
" transform="scale(0.015625)"/>
      <path id="DejaVuSans-33" d="M 2597 2516 
Q 3050 2419 3304 2112 
Q 3559 1806 3559 1356 
Q 3559 666 3084 287 
Q 2609 -91 1734 -91 
Q 1441 -91 1130 -33 
Q 819 25 488 141 
L 488 750 
Q 750 597 1062 519 
Q 1375 441 1716 441 
Q 2309 441 2620 675 
Q 2931 909 2931 1356 
Q 2931 1769 2642 2001 
Q 2353 2234 1838 2234 
L 1294 2234 
L 1294 2753 
L 1863 2753 
Q 2328 2753 2575 2939 
Q 2822 3125 2822 3475 
Q 2822 3834 2567 4026 
Q 2313 4219 1838 4219 
Q 1578 4219 1281 4162 
Q 984 4106 628 3988 
L 628 4550 
Q 988 4650 1302 4700 
Q 1616 4750 1894 4750 
Q 2613 4750 3031 4423 
Q 3450 4097 3450 3541 
Q 3450 3153 3228 2886 
Q 3006 2619 2597 2516 
z
" transform="scale(0.015625)"/>
     </defs>
     <use xlink:href="#DejaVuSans-41"/>
     <use xlink:href="#DejaVuSans-52" x="68.408203"/>
     <use xlink:href="#DejaVuSans-49" x="137.890625"/>
     <use xlink:href="#DejaVuSans-4d" x="167.382812"/>
     <use xlink:href="#DejaVuSans-41" x="253.662109"/>
     <use xlink:href="#DejaVuSans-20" x="322.070312"/>
     <use xlink:href="#DejaVuSans-28" x="353.857422"/>
     <use xlink:href="#DejaVuSans-30" x="392.871094"/>
     <use xlink:href="#DejaVuSans-2c" x="456.494141"/>
     <use xlink:href="#DejaVuSans-20" x="488.28125"/>
     <use xlink:href="#DejaVuSans-31" x="520.068359"/>
     <use xlink:href="#DejaVuSans-2c" x="583.691406"/>
     <use xlink:href="#DejaVuSans-20" x="615.478516"/>
     <use xlink:href="#DejaVuSans-31" x="647.265625"/>
     <use xlink:href="#DejaVuSans-29" x="710.888672"/>
     <use xlink:href="#DejaVuSans-78" x="749.902344"/>
     <use xlink:href="#DejaVuSans-28" x="809.082031"/>
     <use xlink:href="#DejaVuSans-31" x="848.095703"/>
     <use xlink:href="#DejaVuSans-2c" x="911.71875"/>
     <use xlink:href="#DejaVuSans-20" x="943.505859"/>
     <use xlink:href="#DejaVuSans-30" x="975.292969"/>
     <use xlink:href="#DejaVuSans-2c" x="1038.916016"/>
     <use xlink:href="#DejaVuSans-20" x="1070.703125"/>
     <use xlink:href="#DejaVuSans-31" x="1102.490234"/>
     <use xlink:href="#DejaVuSans-2c" x="1166.113281"/>
     <use xlink:href="#DejaVuSans-20" x="1197.900391"/>
     <use xlink:href="#DejaVuSans-37" x="1229.6875"/>
     <use xlink:href="#DejaVuSans-29" x="1293.310547"/>
     <use xlink:href="#DejaVuSans-20" x="1332.324219"/>
     <use xlink:href="#DejaVuSans-28" x="1364.111328"/>
     <use xlink:href="#DejaVuSans-52" x="1403.125"/>
     <use xlink:href="#DejaVuSans-32" x="1472.607422"/>
     <use xlink:href="#DejaVuSans-20" x="1536.230469"/>
     <use xlink:href="#DejaVuSans-3d" x="1568.017578"/>
     <use xlink:href="#DejaVuSans-20" x="1651.806641"/>
     <use xlink:href="#DejaVuSans-30" x="1683.59375"/>
     <use xlink:href="#DejaVuSans-2e" x="1747.216797"/>
     <use xlink:href="#DejaVuSans-39" x="1779.003906"/>
     <use xlink:href="#DejaVuSans-37" x="1842.626953"/>
     <use xlink:href="#DejaVuSans-33" x="1906.25"/>
     <use xlink:href="#DejaVuSans-36" x="1969.873047"/>
     <use xlink:href="#DejaVuSans-38" x="2033.496094"/>
     <use xlink:href="#DejaVuSans-32" x="2097.119141"/>
     <use xlink:href="#DejaVuSans-29" x="2160.742188"/>
    </g>
   </g>
   <g id="legend_1">
    <g id="patch_7">
     <path d="M 1281.132812 87.789875 
L 1378.2125 87.789875 
Q 1380.2125 87.789875 1380.2125 85.789875 
L 1380.2125 42.7555 
Q 1380.2125 40.7555 1378.2125 40.7555 
L 1281.132812 40.7555 
Q 1279.132812 40.7555 1279.132812 42.7555 
L 1279.132812 85.789875 
Q 1279.132812 87.789875 1281.132812 87.789875 
z
" style="fill: #ffffff; opacity: 0.8; stroke: #cccccc; stroke-linejoin: miter"/>
    </g>
    <g id="line2d_22">
     <path d="M 1283.132812 48.853937 
L 1293.132812 48.853937 
L 1303.132812 48.853937 
" style="fill: none; stroke: #0000ff; stroke-width: 1.5; stroke-linecap: square"/>
    </g>
    <g id="text_20">
     <!-- Actual Value -->
     <g transform="translate(1311.132812 52.353937)scale(0.1 -0.1)">
      <defs>
       <path id="DejaVuSans-75" d="M 544 1381 
L 544 3500 
L 1119 3500 
L 1119 1403 
Q 1119 906 1312 657 
Q 1506 409 1894 409 
Q 2359 409 2629 706 
Q 2900 1003 2900 1516 
L 2900 3500 
L 3475 3500 
L 3475 0 
L 2900 0 
L 2900 538 
Q 2691 219 2414 64 
Q 2138 -91 1772 -91 
Q 1169 -91 856 284 
Q 544 659 544 1381 
z
M 1991 3584 
L 1991 3584 
z
" transform="scale(0.015625)"/>
       <path id="DejaVuSans-56" d="M 1831 0 
L 50 4666 
L 709 4666 
L 2188 738 
L 3669 4666 
L 4325 4666 
L 2547 0 
L 1831 0 
z
" transform="scale(0.015625)"/>
      </defs>
      <use xlink:href="#DejaVuSans-41"/>
      <use xlink:href="#DejaVuSans-63" x="66.658203"/>
      <use xlink:href="#DejaVuSans-74" x="121.638672"/>
      <use xlink:href="#DejaVuSans-75" x="160.847656"/>
      <use xlink:href="#DejaVuSans-61" x="224.226562"/>
      <use xlink:href="#DejaVuSans-6c" x="285.505859"/>
      <use xlink:href="#DejaVuSans-20" x="313.289062"/>
      <use xlink:href="#DejaVuSans-56" x="345.076172"/>
      <use xlink:href="#DejaVuSans-61" x="405.734375"/>
      <use xlink:href="#DejaVuSans-6c" x="467.013672"/>
      <use xlink:href="#DejaVuSans-75" x="494.796875"/>
      <use xlink:href="#DejaVuSans-65" x="558.175781"/>
     </g>
    </g>
    <g id="line2d_23">
     <path d="M 1283.132812 63.532062 
L 1293.132812 63.532062 
L 1303.132812 63.532062 
" style="fill: none; stroke: #ffa500; stroke-width: 1.5; stroke-linecap: square"/>
    </g>
    <g id="text_21">
     <!-- Check Value -->
     <g transform="translate(1311.132812 67.032062)scale(0.1 -0.1)">
      <defs>
       <path id="DejaVuSans-68" d="M 3513 2113 
L 3513 0 
L 2938 0 
L 2938 2094 
Q 2938 2591 2744 2837 
Q 2550 3084 2163 3084 
Q 1697 3084 1428 2787 
Q 1159 2491 1159 1978 
L 1159 0 
L 581 0 
L 581 4863 
L 1159 4863 
L 1159 2956 
Q 1366 3272 1645 3428 
Q 1925 3584 2291 3584 
Q 2894 3584 3203 3211 
Q 3513 2838 3513 2113 
z
" transform="scale(0.015625)"/>
      </defs>
      <use xlink:href="#DejaVuSans-43"/>
      <use xlink:href="#DejaVuSans-68" x="69.824219"/>
      <use xlink:href="#DejaVuSans-65" x="133.203125"/>
      <use xlink:href="#DejaVuSans-63" x="194.726562"/>
      <use xlink:href="#DejaVuSans-6b" x="249.707031"/>
      <use xlink:href="#DejaVuSans-20" x="307.617188"/>
      <use xlink:href="#DejaVuSans-56" x="339.404297"/>
      <use xlink:href="#DejaVuSans-61" x="400.0625"/>
      <use xlink:href="#DejaVuSans-6c" x="461.341797"/>
      <use xlink:href="#DejaVuSans-75" x="489.125"/>
      <use xlink:href="#DejaVuSans-65" x="552.503906"/>
     </g>
    </g>
    <g id="line2d_24">
     <path d="M 1283.132812 78.210187 
L 1293.132812 78.210187 
L 1303.132812 78.210187 
" style="fill: none; stroke: #ff0000; stroke-width: 1.5; stroke-linecap: square"/>
    </g>
    <g id="text_22">
     <!-- Predict Value -->
     <g transform="translate(1311.132812 81.710187)scale(0.1 -0.1)">
      <use xlink:href="#DejaVuSans-50"/>
      <use xlink:href="#DejaVuSans-72" x="58.552734"/>
      <use xlink:href="#DejaVuSans-65" x="97.416016"/>
      <use xlink:href="#DejaVuSans-64" x="158.939453"/>
      <use xlink:href="#DejaVuSans-69" x="222.416016"/>
      <use xlink:href="#DejaVuSans-63" x="250.199219"/>
      <use xlink:href="#DejaVuSans-74" x="305.179688"/>
      <use xlink:href="#DejaVuSans-20" x="344.388672"/>
      <use xlink:href="#DejaVuSans-56" x="376.175781"/>
      <use xlink:href="#DejaVuSans-61" x="436.833984"/>
      <use xlink:href="#DejaVuSans-6c" x="498.113281"/>
      <use xlink:href="#DejaVuSans-75" x="525.896484"/>
      <use xlink:href="#DejaVuSans-65" x="589.275391"/>
     </g>
    </g>
   </g>
  </g>
 </g>
 <defs>
  <clipPath id="padd917da3e">
   <rect x="46.0125" y="35.7555" width="1339.2" height="332.64"/>
  </clipPath>
 </defs>
</svg>
