<?xml version="1.0" encoding="utf-8" standalone="no"?>
<!DOCTYPE svg PUBLIC "-//W3C//DTD SVG 1.1//EN"
  "http://www.w3.org/Graphics/SVG/1.1/DTD/svg11.dtd">
<svg xmlns:xlink="http://www.w3.org/1999/xlink" width="1392.4125pt" height="392.273625pt" viewBox="0 0 1392.4125 392.273625" xmlns="http://www.w3.org/2000/svg" version="1.1">
 <metadata>
  <rdf:RDF xmlns:dc="http://purl.org/dc/elements/1.1/" xmlns:cc="http://creativecommons.org/ns#" xmlns:rdf="http://www.w3.org/1999/02/22-rdf-syntax-ns#">
   <cc:Work>
    <dc:type rdf:resource="http://purl.org/dc/dcmitype/StillImage"/>
    <dc:date>2022-06-28T20:29:16.898649</dc:date>
    <dc:format>image/svg+xml</dc:format>
    <dc:creator>
     <cc:Agent>
      <dc:title>Matplotlib v3.5.2, https://matplotlib.org/</dc:title>
     </cc:Agent>
    </dc:creator>
   </cc:Work>
  </rdf:RDF>
 </metadata>
 <defs>
  <style type="text/css">*{stroke-linejoin: round; stroke-linecap: butt}</style>
 </defs>
 <g id="figure_1">
  <g id="patch_1">
   <path d="M 0 392.273625 
L 1392.4125 392.273625 
L 1392.4125 0 
L 0 0 
z
" style="fill: #ffffff"/>
  </g>
  <g id="axes_1">
   <g id="patch_2">
    <path d="M 46.0125 368.3955 
L 1385.2125 368.3955 
L 1385.2125 35.7555 
L 46.0125 35.7555 
z
" style="fill: #ffffff"/>
   </g>
   <g id="matplotlib.axis_1">
    <g id="xtick_1">
     <g id="line2d_1">
      <defs>
       <path id="m356085025a" d="M 0 0 
L 0 3.5 
" style="stroke: #000000; stroke-width: 0.8"/>
      </defs>
      <g>
       <use xlink:href="#m356085025a" x="77.092124" y="368.3955" style="stroke: #000000; stroke-width: 0.8"/>
      </g>
     </g>
     <g id="text_1">
      <!-- 2020-01 -->
      <g transform="translate(56.200718 382.993937)scale(0.1 -0.1)">
       <defs>
        <path id="DejaVuSans-32" d="M 1228 531 
L 3431 531 
L 3431 0 
L 469 0 
L 469 531 
Q 828 903 1448 1529 
Q 2069 2156 2228 2338 
Q 2531 2678 2651 2914 
Q 2772 3150 2772 3378 
Q 2772 3750 2511 3984 
Q 2250 4219 1831 4219 
Q 1534 4219 1204 4116 
Q 875 4013 500 3803 
L 500 4441 
Q 881 4594 1212 4672 
Q 1544 4750 1819 4750 
Q 2544 4750 2975 4387 
Q 3406 4025 3406 3419 
Q 3406 3131 3298 2873 
Q 3191 2616 2906 2266 
Q 2828 2175 2409 1742 
Q 1991 1309 1228 531 
z
" transform="scale(0.015625)"/>
        <path id="DejaVuSans-30" d="M 2034 4250 
Q 1547 4250 1301 3770 
Q 1056 3291 1056 2328 
Q 1056 1369 1301 889 
Q 1547 409 2034 409 
Q 2525 409 2770 889 
Q 3016 1369 3016 2328 
Q 3016 3291 2770 3770 
Q 2525 4250 2034 4250 
z
M 2034 4750 
Q 2819 4750 3233 4129 
Q 3647 3509 3647 2328 
Q 3647 1150 3233 529 
Q 2819 -91 2034 -91 
Q 1250 -91 836 529 
Q 422 1150 422 2328 
Q 422 3509 836 4129 
Q 1250 4750 2034 4750 
z
" transform="scale(0.015625)"/>
        <path id="DejaVuSans-2d" d="M 313 2009 
L 1997 2009 
L 1997 1497 
L 313 1497 
L 313 2009 
z
" transform="scale(0.015625)"/>
        <path id="DejaVuSans-31" d="M 794 531 
L 1825 531 
L 1825 4091 
L 703 3866 
L 703 4441 
L 1819 4666 
L 2450 4666 
L 2450 531 
L 3481 531 
L 3481 0 
L 794 0 
L 794 531 
z
" transform="scale(0.015625)"/>
       </defs>
       <use xlink:href="#DejaVuSans-32"/>
       <use xlink:href="#DejaVuSans-30" x="63.623047"/>
       <use xlink:href="#DejaVuSans-32" x="127.246094"/>
       <use xlink:href="#DejaVuSans-30" x="190.869141"/>
       <use xlink:href="#DejaVuSans-2d" x="254.492188"/>
       <use xlink:href="#DejaVuSans-30" x="290.576172"/>
       <use xlink:href="#DejaVuSans-31" x="354.199219"/>
      </g>
     </g>
    </g>
    <g id="xtick_2">
     <g id="line2d_2">
      <g>
       <use xlink:href="#m356085025a" x="200.327234" y="368.3955" style="stroke: #000000; stroke-width: 0.8"/>
      </g>
     </g>
     <g id="text_2">
      <!-- 2020-04 -->
      <g transform="translate(179.435827 382.993937)scale(0.1 -0.1)">
       <defs>
        <path id="DejaVuSans-34" d="M 2419 4116 
L 825 1625 
L 2419 1625 
L 2419 4116 
z
M 2253 4666 
L 3047 4666 
L 3047 1625 
L 3713 1625 
L 3713 1100 
L 3047 1100 
L 3047 0 
L 2419 0 
L 2419 1100 
L 313 1100 
L 313 1709 
L 2253 4666 
z
" transform="scale(0.015625)"/>
       </defs>
       <use xlink:href="#DejaVuSans-32"/>
       <use xlink:href="#DejaVuSans-30" x="63.623047"/>
       <use xlink:href="#DejaVuSans-32" x="127.246094"/>
       <use xlink:href="#DejaVuSans-30" x="190.869141"/>
       <use xlink:href="#DejaVuSans-2d" x="254.492188"/>
       <use xlink:href="#DejaVuSans-30" x="290.576172"/>
       <use xlink:href="#DejaVuSans-34" x="354.199219"/>
      </g>
     </g>
    </g>
    <g id="xtick_3">
     <g id="line2d_3">
      <g>
       <use xlink:href="#m356085025a" x="323.562343" y="368.3955" style="stroke: #000000; stroke-width: 0.8"/>
      </g>
     </g>
     <g id="text_3">
      <!-- 2020-07 -->
      <g transform="translate(302.670937 382.993937)scale(0.1 -0.1)">
       <defs>
        <path id="DejaVuSans-37" d="M 525 4666 
L 3525 4666 
L 3525 4397 
L 1831 0 
L 1172 0 
L 2766 4134 
L 525 4134 
L 525 4666 
z
" transform="scale(0.015625)"/>
       </defs>
       <use xlink:href="#DejaVuSans-32"/>
       <use xlink:href="#DejaVuSans-30" x="63.623047"/>
       <use xlink:href="#DejaVuSans-32" x="127.246094"/>
       <use xlink:href="#DejaVuSans-30" x="190.869141"/>
       <use xlink:href="#DejaVuSans-2d" x="254.492188"/>
       <use xlink:href="#DejaVuSans-30" x="290.576172"/>
       <use xlink:href="#DejaVuSans-37" x="354.199219"/>
      </g>
     </g>
    </g>
    <g id="xtick_4">
     <g id="line2d_4">
      <g>
       <use xlink:href="#m356085025a" x="448.151685" y="368.3955" style="stroke: #000000; stroke-width: 0.8"/>
      </g>
     </g>
     <g id="text_4">
      <!-- 2020-10 -->
      <g transform="translate(427.260279 382.993937)scale(0.1 -0.1)">
       <use xlink:href="#DejaVuSans-32"/>
       <use xlink:href="#DejaVuSans-30" x="63.623047"/>
       <use xlink:href="#DejaVuSans-32" x="127.246094"/>
       <use xlink:href="#DejaVuSans-30" x="190.869141"/>
       <use xlink:href="#DejaVuSans-2d" x="254.492188"/>
       <use xlink:href="#DejaVuSans-31" x="290.576172"/>
       <use xlink:href="#DejaVuSans-30" x="354.199219"/>
      </g>
     </g>
    </g>
    <g id="xtick_5">
     <g id="line2d_5">
      <g>
       <use xlink:href="#m356085025a" x="572.741027" y="368.3955" style="stroke: #000000; stroke-width: 0.8"/>
      </g>
     </g>
     <g id="text_5">
      <!-- 2021-01 -->
      <g transform="translate(551.84962 382.993937)scale(0.1 -0.1)">
       <use xlink:href="#DejaVuSans-32"/>
       <use xlink:href="#DejaVuSans-30" x="63.623047"/>
       <use xlink:href="#DejaVuSans-32" x="127.246094"/>
       <use xlink:href="#DejaVuSans-31" x="190.869141"/>
       <use xlink:href="#DejaVuSans-2d" x="254.492188"/>
       <use xlink:href="#DejaVuSans-30" x="290.576172"/>
       <use xlink:href="#DejaVuSans-31" x="354.199219"/>
      </g>
     </g>
    </g>
    <g id="xtick_6">
     <g id="line2d_6">
      <g>
       <use xlink:href="#m356085025a" x="694.621904" y="368.3955" style="stroke: #000000; stroke-width: 0.8"/>
      </g>
     </g>
     <g id="text_6">
      <!-- 2021-04 -->
      <g transform="translate(673.730498 382.993937)scale(0.1 -0.1)">
       <use xlink:href="#DejaVuSans-32"/>
       <use xlink:href="#DejaVuSans-30" x="63.623047"/>
       <use xlink:href="#DejaVuSans-32" x="127.246094"/>
       <use xlink:href="#DejaVuSans-31" x="190.869141"/>
       <use xlink:href="#DejaVuSans-2d" x="254.492188"/>
       <use xlink:href="#DejaVuSans-30" x="290.576172"/>
       <use xlink:href="#DejaVuSans-34" x="354.199219"/>
      </g>
     </g>
    </g>
    <g id="xtick_7">
     <g id="line2d_7">
      <g>
       <use xlink:href="#m356085025a" x="817.857014" y="368.3955" style="stroke: #000000; stroke-width: 0.8"/>
      </g>
     </g>
     <g id="text_7">
      <!-- 2021-07 -->
      <g transform="translate(796.965608 382.993937)scale(0.1 -0.1)">
       <use xlink:href="#DejaVuSans-32"/>
       <use xlink:href="#DejaVuSans-30" x="63.623047"/>
       <use xlink:href="#DejaVuSans-32" x="127.246094"/>
       <use xlink:href="#DejaVuSans-31" x="190.869141"/>
       <use xlink:href="#DejaVuSans-2d" x="254.492188"/>
       <use xlink:href="#DejaVuSans-30" x="290.576172"/>
       <use xlink:href="#DejaVuSans-37" x="354.199219"/>
      </g>
     </g>
    </g>
    <g id="xtick_8">
     <g id="line2d_8">
      <g>
       <use xlink:href="#m356085025a" x="942.446356" y="368.3955" style="stroke: #000000; stroke-width: 0.8"/>
      </g>
     </g>
     <g id="text_8">
      <!-- 2021-10 -->
      <g transform="translate(921.55495 382.993937)scale(0.1 -0.1)">
       <use xlink:href="#DejaVuSans-32"/>
       <use xlink:href="#DejaVuSans-30" x="63.623047"/>
       <use xlink:href="#DejaVuSans-32" x="127.246094"/>
       <use xlink:href="#DejaVuSans-31" x="190.869141"/>
       <use xlink:href="#DejaVuSans-2d" x="254.492188"/>
       <use xlink:href="#DejaVuSans-31" x="290.576172"/>
       <use xlink:href="#DejaVuSans-30" x="354.199219"/>
      </g>
     </g>
    </g>
    <g id="xtick_9">
     <g id="line2d_9">
      <g>
       <use xlink:href="#m356085025a" x="1067.035697" y="368.3955" style="stroke: #000000; stroke-width: 0.8"/>
      </g>
     </g>
     <g id="text_9">
      <!-- 2022-01 -->
      <g transform="translate(1046.144291 382.993937)scale(0.1 -0.1)">
       <use xlink:href="#DejaVuSans-32"/>
       <use xlink:href="#DejaVuSans-30" x="63.623047"/>
       <use xlink:href="#DejaVuSans-32" x="127.246094"/>
       <use xlink:href="#DejaVuSans-32" x="190.869141"/>
       <use xlink:href="#DejaVuSans-2d" x="254.492188"/>
       <use xlink:href="#DejaVuSans-30" x="290.576172"/>
       <use xlink:href="#DejaVuSans-31" x="354.199219"/>
      </g>
     </g>
    </g>
    <g id="xtick_10">
     <g id="line2d_10">
      <g>
       <use xlink:href="#m356085025a" x="1188.916575" y="368.3955" style="stroke: #000000; stroke-width: 0.8"/>
      </g>
     </g>
     <g id="text_10">
      <!-- 2022-04 -->
      <g transform="translate(1168.025169 382.993937)scale(0.1 -0.1)">
       <use xlink:href="#DejaVuSans-32"/>
       <use xlink:href="#DejaVuSans-30" x="63.623047"/>
       <use xlink:href="#DejaVuSans-32" x="127.246094"/>
       <use xlink:href="#DejaVuSans-32" x="190.869141"/>
       <use xlink:href="#DejaVuSans-2d" x="254.492188"/>
       <use xlink:href="#DejaVuSans-30" x="290.576172"/>
       <use xlink:href="#DejaVuSans-34" x="354.199219"/>
      </g>
     </g>
    </g>
    <g id="xtick_11">
     <g id="line2d_11">
      <g>
       <use xlink:href="#m356085025a" x="1312.151685" y="368.3955" style="stroke: #000000; stroke-width: 0.8"/>
      </g>
     </g>
     <g id="text_11">
      <!-- 2022-07 -->
      <g transform="translate(1291.260279 382.993937)scale(0.1 -0.1)">
       <use xlink:href="#DejaVuSans-32"/>
       <use xlink:href="#DejaVuSans-30" x="63.623047"/>
       <use xlink:href="#DejaVuSans-32" x="127.246094"/>
       <use xlink:href="#DejaVuSans-32" x="190.869141"/>
       <use xlink:href="#DejaVuSans-2d" x="254.492188"/>
       <use xlink:href="#DejaVuSans-30" x="290.576172"/>
       <use xlink:href="#DejaVuSans-37" x="354.199219"/>
      </g>
     </g>
    </g>
   </g>
   <g id="matplotlib.axis_2">
    <g id="ytick_1">
     <g id="line2d_12">
      <defs>
       <path id="me5dfe9dedb" d="M 0 0 
L -3.5 0 
" style="stroke: #000000; stroke-width: 0.8"/>
      </defs>
      <g>
       <use xlink:href="#me5dfe9dedb" x="46.0125" y="344.208537" style="stroke: #000000; stroke-width: 0.8"/>
      </g>
     </g>
     <g id="text_12">
      <!-- 0 -->
      <g transform="translate(32.65 348.007755)scale(0.1 -0.1)">
       <use xlink:href="#DejaVuSans-30"/>
      </g>
     </g>
    </g>
    <g id="ytick_2">
     <g id="line2d_13">
      <g>
       <use xlink:href="#me5dfe9dedb" x="46.0125" y="304.093756" style="stroke: #000000; stroke-width: 0.8"/>
      </g>
     </g>
     <g id="text_13">
      <!-- 2000 -->
      <g transform="translate(13.5625 307.892974)scale(0.1 -0.1)">
       <use xlink:href="#DejaVuSans-32"/>
       <use xlink:href="#DejaVuSans-30" x="63.623047"/>
       <use xlink:href="#DejaVuSans-30" x="127.246094"/>
       <use xlink:href="#DejaVuSans-30" x="190.869141"/>
      </g>
     </g>
    </g>
    <g id="ytick_3">
     <g id="line2d_14">
      <g>
       <use xlink:href="#me5dfe9dedb" x="46.0125" y="263.978974" style="stroke: #000000; stroke-width: 0.8"/>
      </g>
     </g>
     <g id="text_14">
      <!-- 4000 -->
      <g transform="translate(13.5625 267.778193)scale(0.1 -0.1)">
       <use xlink:href="#DejaVuSans-34"/>
       <use xlink:href="#DejaVuSans-30" x="63.623047"/>
       <use xlink:href="#DejaVuSans-30" x="127.246094"/>
       <use xlink:href="#DejaVuSans-30" x="190.869141"/>
      </g>
     </g>
    </g>
    <g id="ytick_4">
     <g id="line2d_15">
      <g>
       <use xlink:href="#me5dfe9dedb" x="46.0125" y="223.864193" style="stroke: #000000; stroke-width: 0.8"/>
      </g>
     </g>
     <g id="text_15">
      <!-- 6000 -->
      <g transform="translate(13.5625 227.663412)scale(0.1 -0.1)">
       <defs>
        <path id="DejaVuSans-36" d="M 2113 2584 
Q 1688 2584 1439 2293 
Q 1191 2003 1191 1497 
Q 1191 994 1439 701 
Q 1688 409 2113 409 
Q 2538 409 2786 701 
Q 3034 994 3034 1497 
Q 3034 2003 2786 2293 
Q 2538 2584 2113 2584 
z
M 3366 4563 
L 3366 3988 
Q 3128 4100 2886 4159 
Q 2644 4219 2406 4219 
Q 1781 4219 1451 3797 
Q 1122 3375 1075 2522 
Q 1259 2794 1537 2939 
Q 1816 3084 2150 3084 
Q 2853 3084 3261 2657 
Q 3669 2231 3669 1497 
Q 3669 778 3244 343 
Q 2819 -91 2113 -91 
Q 1303 -91 875 529 
Q 447 1150 447 2328 
Q 447 3434 972 4092 
Q 1497 4750 2381 4750 
Q 2619 4750 2861 4703 
Q 3103 4656 3366 4563 
z
" transform="scale(0.015625)"/>
       </defs>
       <use xlink:href="#DejaVuSans-36"/>
       <use xlink:href="#DejaVuSans-30" x="63.623047"/>
       <use xlink:href="#DejaVuSans-30" x="127.246094"/>
       <use xlink:href="#DejaVuSans-30" x="190.869141"/>
      </g>
     </g>
    </g>
    <g id="ytick_5">
     <g id="line2d_16">
      <g>
       <use xlink:href="#me5dfe9dedb" x="46.0125" y="183.749412" style="stroke: #000000; stroke-width: 0.8"/>
      </g>
     </g>
     <g id="text_16">
      <!-- 8000 -->
      <g transform="translate(13.5625 187.548631)scale(0.1 -0.1)">
       <defs>
        <path id="DejaVuSans-38" d="M 2034 2216 
Q 1584 2216 1326 1975 
Q 1069 1734 1069 1313 
Q 1069 891 1326 650 
Q 1584 409 2034 409 
Q 2484 409 2743 651 
Q 3003 894 3003 1313 
Q 3003 1734 2745 1975 
Q 2488 2216 2034 2216 
z
M 1403 2484 
Q 997 2584 770 2862 
Q 544 3141 544 3541 
Q 544 4100 942 4425 
Q 1341 4750 2034 4750 
Q 2731 4750 3128 4425 
Q 3525 4100 3525 3541 
Q 3525 3141 3298 2862 
Q 3072 2584 2669 2484 
Q 3125 2378 3379 2068 
Q 3634 1759 3634 1313 
Q 3634 634 3220 271 
Q 2806 -91 2034 -91 
Q 1263 -91 848 271 
Q 434 634 434 1313 
Q 434 1759 690 2068 
Q 947 2378 1403 2484 
z
M 1172 3481 
Q 1172 3119 1398 2916 
Q 1625 2713 2034 2713 
Q 2441 2713 2670 2916 
Q 2900 3119 2900 3481 
Q 2900 3844 2670 4047 
Q 2441 4250 2034 4250 
Q 1625 4250 1398 4047 
Q 1172 3844 1172 3481 
z
" transform="scale(0.015625)"/>
       </defs>
       <use xlink:href="#DejaVuSans-38"/>
       <use xlink:href="#DejaVuSans-30" x="63.623047"/>
       <use xlink:href="#DejaVuSans-30" x="127.246094"/>
       <use xlink:href="#DejaVuSans-30" x="190.869141"/>
      </g>
     </g>
    </g>
    <g id="ytick_6">
     <g id="line2d_17">
      <g>
       <use xlink:href="#me5dfe9dedb" x="46.0125" y="143.634631" style="stroke: #000000; stroke-width: 0.8"/>
      </g>
     </g>
     <g id="text_17">
      <!-- 10000 -->
      <g transform="translate(7.2 147.43385)scale(0.1 -0.1)">
       <use xlink:href="#DejaVuSans-31"/>
       <use xlink:href="#DejaVuSans-30" x="63.623047"/>
       <use xlink:href="#DejaVuSans-30" x="127.246094"/>
       <use xlink:href="#DejaVuSans-30" x="190.869141"/>
       <use xlink:href="#DejaVuSans-30" x="254.492188"/>
      </g>
     </g>
    </g>
    <g id="ytick_7">
     <g id="line2d_18">
      <g>
       <use xlink:href="#me5dfe9dedb" x="46.0125" y="103.51985" style="stroke: #000000; stroke-width: 0.8"/>
      </g>
     </g>
     <g id="text_18">
      <!-- 12000 -->
      <g transform="translate(7.2 107.319068)scale(0.1 -0.1)">
       <use xlink:href="#DejaVuSans-31"/>
       <use xlink:href="#DejaVuSans-32" x="63.623047"/>
       <use xlink:href="#DejaVuSans-30" x="127.246094"/>
       <use xlink:href="#DejaVuSans-30" x="190.869141"/>
       <use xlink:href="#DejaVuSans-30" x="254.492188"/>
      </g>
     </g>
    </g>
    <g id="ytick_8">
     <g id="line2d_19">
      <g>
       <use xlink:href="#me5dfe9dedb" x="46.0125" y="63.405068" style="stroke: #000000; stroke-width: 0.8"/>
      </g>
     </g>
     <g id="text_19">
      <!-- 14000 -->
      <g transform="translate(7.2 67.204287)scale(0.1 -0.1)">
       <use xlink:href="#DejaVuSans-31"/>
       <use xlink:href="#DejaVuSans-34" x="63.623047"/>
       <use xlink:href="#DejaVuSans-30" x="127.246094"/>
       <use xlink:href="#DejaVuSans-30" x="190.869141"/>
       <use xlink:href="#DejaVuSans-30" x="254.492188"/>
      </g>
     </g>
    </g>
   </g>
   <g id="line2d_20">
    <path d="M 106.885227 344.208537 
L 177.30529 344.168422 
L 178.659522 343.787331 
L 180.013754 343.787331 
L 181.367986 343.626872 
L 182.722218 343.907676 
L 184.07645 343.887618 
L 185.430682 343.707102 
L 186.784914 343.747217 
L 188.139146 344.128307 
L 189.493378 343.666987 
L 190.84761 343.64693 
L 192.201842 343.787331 
L 193.556074 343.486471 
L 194.910306 343.626872 
L 196.264538 344.088192 
L 198.973002 343.847504 
L 200.327234 343.967848 
L 201.681466 343.827446 
L 204.389929 343.927733 
L 205.744161 344.088192 
L 208.452625 344.02802 
L 209.806857 343.5667 
L 211.161089 343.867561 
L 212.515321 343.787331 
L 213.869553 344.068135 
L 215.223785 344.629742 
L 216.578017 344.148365 
L 217.932249 344.02802 
L 219.286481 344.188479 
L 220.640713 344.02802 
L 221.994945 344.088192 
L 224.703409 343.987905 
L 227.411873 344.048078 
L 231.474569 344.088192 
L 232.828801 343.546643 
L 234.183033 344.007963 
L 235.537265 343.927733 
L 236.891497 344.10825 
L 238.245729 344.10825 
L 239.599961 343.947791 
L 240.954193 344.10825 
L 245.016889 344.168422 
L 246.371121 343.947791 
L 247.725353 344.148365 
L 249.079585 343.987905 
L 265.330368 344.188479 
L 266.6846 344.048078 
L 268.038832 344.148365 
L 269.393064 344.128307 
L 270.747296 343.987905 
L 272.101528 344.10825 
L 273.45576 343.847504 
L 274.809992 344.168422 
L 276.164224 343.927733 
L 278.872688 344.10825 
L 288.352312 344.168422 
L 289.706544 343.987905 
L 291.060776 344.208537 
L 307.31156 344.148365 
L 308.665792 344.088192 
L 310.020024 343.867561 
L 311.374255 344.088192 
L 312.728487 344.148365 
L 314.082719 343.867561 
L 315.436951 344.10825 
L 316.791183 343.967848 
L 318.145415 344.10825 
L 341.167359 344.048078 
L 343.875823 343.867561 
L 346.584287 344.068135 
L 349.292751 344.007963 
L 350.646983 343.5667 
L 352.001215 343.787331 
L 354.709679 343.707102 
L 356.063911 344.048078 
L 357.418143 343.847504 
L 358.772375 344.007963 
L 361.480839 343.827446 
L 362.835071 344.088192 
L 364.189303 343.787331 
L 368.251998 344.10825 
L 370.960462 344.02802 
L 375.023158 344.007963 
L 376.37739 343.847504 
L 377.731622 343.987905 
L 379.085854 343.787331 
L 380.440086 344.048078 
L 381.794318 343.887618 
L 385.857014 344.088192 
L 388.565478 343.64693 
L 389.91971 344.048078 
L 391.273942 343.947791 
L 398.045102 344.148365 
L 400.753566 344.048078 
L 402.107798 344.10825 
L 403.46203 343.927733 
L 404.816262 343.907676 
L 406.170494 344.007963 
L 407.524726 343.887618 
L 415.650118 343.927733 
L 418.358582 343.626872 
L 419.712813 343.847504 
L 422.421277 344.068135 
L 423.775509 343.64693 
L 425.129741 344.128307 
L 427.838205 343.626872 
L 430.546669 343.927733 
L 434.609365 344.007963 
L 435.963597 344.068135 
L 438.672061 343.947791 
L 440.026293 344.048078 
L 441.380525 343.586758 
L 442.734757 344.007963 
L 444.088989 344.168422 
L 445.443221 343.747217 
L 446.797453 343.947791 
L 448.151685 343.907676 
L 449.505917 343.486471 
L 450.860149 343.707102 
L 452.214381 343.747217 
L 453.568613 344.007963 
L 456.277077 343.626872 
L 457.631309 343.807389 
L 458.985541 343.707102 
L 460.339773 343.867561 
L 461.694005 343.687045 
L 463.048237 343.827446 
L 464.402469 343.727159 
L 465.756701 343.18561 
L 467.110933 343.626872 
L 468.465165 343.546643 
L 469.819397 343.18561 
L 471.173629 343.606815 
L 472.527861 343.626872 
L 473.882092 342.944921 
L 475.236324 343.406241 
L 476.590556 343.446356 
L 477.944788 343.045208 
L 479.29902 343.245782 
L 480.653252 343.326012 
L 482.007484 343.787331 
L 484.715948 342.904806 
L 486.07018 342.944921 
L 487.424412 343.446356 
L 488.778644 343.366126 
L 490.132876 343.707102 
L 491.487108 343.887618 
L 495.549804 342.924864 
L 496.904036 342.985036 
L 498.258268 342.784462 
L 499.6125 342.744347 
L 500.966732 343.285897 
L 502.320964 343.005093 
L 505.029428 342.303085 
L 506.38366 342.443486 
L 507.737892 342.72429 
L 510.446356 342.72429 
L 511.800588 342.122568 
L 513.15482 342.443486 
L 514.509052 342.583888 
L 515.863284 342.202798 
L 517.217516 342.463544 
L 518.571748 341.500789 
L 519.92598 342.924864 
L 521.280212 342.062396 
L 523.988676 341.621133 
L 525.342908 340.477862 
L 526.697139 340.036599 
L 528.051371 340.096772 
L 529.405603 341.380445 
L 530.759835 340.858952 
L 533.468299 339.595337 
L 534.822531 338.672697 
L 536.176763 339.515107 
L 537.530995 337.429139 
L 538.885227 340.156944 
L 540.239459 338.171262 
L 541.593691 338.231434 
L 542.947923 336.526556 
L 544.302155 336.947761 
L 545.656387 337.56954 
L 547.010619 333.618234 
L 548.364851 337.770114 
L 549.719083 336.406212 
L 551.073315 334.681276 
L 552.427547 333.317374 
L 553.781779 333.899038 
L 555.136011 332.033701 
L 556.490243 334.360358 
L 557.844475 335.603916 
L 559.198707 333.698464 
L 560.552939 329.987847 
L 561.907171 329.225666 
L 563.261403 336.366097 
L 564.615635 336.787302 
L 565.969867 333.979267 
L 567.324099 332.615365 
L 568.678331 331.050888 
L 570.032563 333.818808 
L 571.386795 331.391864 
L 572.741027 331.492151 
L 574.095259 333.738579 
L 575.449491 333.217087 
L 576.803723 332.11393 
L 578.157955 330.609626 
L 579.512187 325.27436 
L 580.866418 328.984977 
L 582.22065 333.538005 
L 583.574882 331.472094 
L 584.929114 319.898979 
L 586.283346 329.867502 
L 587.637578 325.254303 
L 588.99181 331.592438 
L 590.346042 313.841647 
L 591.700274 325.013614 
L 593.054506 329.707043 
L 594.408738 329.987847 
L 595.76297 334.480702 
L 597.117202 332.515078 
L 598.471434 327.199869 
L 599.825666 330.208478 
L 601.179898 320.580931 
L 602.53413 328.222796 
L 603.888362 330.850315 
L 605.242594 336.025121 
L 606.596826 331.391864 
L 607.951058 331.211348 
L 609.30529 332.996455 
L 610.659522 331.331692 
L 612.013754 331.131118 
L 613.367986 333.03657 
L 614.722218 336.386154 
L 616.07645 333.397603 
L 617.430682 333.217087 
L 618.784914 332.394734 
L 620.139146 334.199899 
L 621.493378 333.999325 
L 622.84761 334.199899 
L 624.201842 337.409081 
L 625.556074 334.119669 
L 626.910306 331.672668 
L 628.264538 334.661219 
L 629.61877 332.695594 
L 630.973002 331.552323 
L 632.327234 335.182711 
L 633.681466 335.162654 
L 635.035697 336.887589 
L 636.389929 334.520817 
L 637.744161 333.297316 
L 639.098393 331.672668 
L 640.452625 328.443428 
L 641.806857 331.131118 
L 643.161089 334.280128 
L 644.515321 330.910487 
L 645.869553 326.136828 
L 647.223785 327.741419 
L 648.578017 327.219927 
L 649.932249 327.761476 
L 651.286481 331.532266 
L 652.640713 332.274389 
L 653.994945 332.535135 
L 655.349177 326.096713 
L 656.703409 326.738549 
L 658.057641 324.472064 
L 659.411873 322.526497 
L 660.766105 327.621075 
L 662.120337 326.899009 
L 663.474569 327.621075 
L 664.828801 325.013614 
L 666.183033 319.477774 
L 667.537265 316.990658 
L 668.891497 322.96776 
L 670.245729 312.959122 
L 671.599961 320.721332 
L 672.954193 325.996426 
L 674.308425 316.770026 
L 675.662657 310.552235 
L 677.016889 312.417573 
L 678.371121 313.681188 
L 679.725353 311.835908 
L 681.079585 290.193984 
L 682.433817 308.566554 
L 683.788049 308.004947 
L 685.142281 311.194072 
L 686.496513 286.342965 
L 687.850745 285.340095 
L 689.204976 301.52641 
L 690.559208 300.52354 
L 691.91344 286.503424 
L 693.267672 282.271315 
L 694.621904 291.277083 
L 695.976136 276.414557 
L 697.330368 297.354472 
L 698.6846 266.927411 
L 700.038832 300.06222 
L 701.393064 281.930339 
L 702.747296 265.503336 
L 704.101528 270.597913 
L 705.45576 198.010217 
L 706.809992 275.331457 
L 708.164224 278.781329 
L 709.518456 293.443281 
L 710.872688 298.939006 
L 712.22692 290.875935 
L 713.581152 255.755444 
L 714.935384 282.632348 
L 716.289616 287.426064 
L 717.643848 297.194013 
L 718.99808 298.29717 
L 720.352312 298.196883 
L 721.706544 278.54064 
L 723.060776 278.219722 
L 724.415008 271.079291 
L 725.76924 288.268474 
L 727.123472 293.282822 
L 728.477704 294.385978 
L 729.831936 289.110885 
L 731.186168 285.420325 
L 732.5404 289.91318 
L 733.894632 290.173926 
L 735.248864 294.466208 
L 736.603096 312.43763 
L 737.957328 311.555105 
L 739.31156 287.526351 
L 740.665792 285.620899 
L 742.020024 272.362964 
L 743.374255 290.113754 
L 744.728487 290.976222 
L 746.082719 306.44047 
L 747.436951 300.343023 
L 748.791183 284.497685 
L 750.145415 298.979121 
L 751.499647 268.01051 
L 752.853879 277.918861 
L 755.562343 295.408905 
L 756.916575 296.191144 
L 758.270807 281.629478 
L 759.625039 277.23691 
L 760.979271 252.425917 
L 762.333503 251.964597 
L 763.687735 274.629449 
L 765.041967 282.251257 
L 766.396199 288.248417 
L 767.750431 264.560639 
L 769.104663 252.425917 
L 770.458895 265.24259 
L 771.813127 307.583741 
L 773.167359 224.385685 
L 774.521591 277.69823 
L 775.875823 283.735504 
L 777.230055 273.947497 
L 778.584287 273.646637 
L 779.938519 286.30285 
L 781.292751 262.39444 
L 782.646983 259.70675 
L 784.001215 267.348616 
L 785.355447 299.119523 
L 786.709679 260.067783 
L 788.063911 275.471859 
L 789.418143 271.560668 
L 790.772375 274.870137 
L 792.126607 284.317168 
L 793.480839 303.231288 
L 794.835071 297.976251 
L 796.189303 288.108015 
L 797.543534 286.042104 
L 798.897766 301.145319 
L 800.251998 289.732664 
L 801.60623 304.113813 
L 802.960462 314.363139 
L 804.314694 313.781475 
L 805.668926 302.509222 
L 807.023158 308.386037 
L 808.37739 309.168275 
L 809.731622 312.397515 
L 811.085854 318.555134 
L 812.440086 324.010744 
L 813.794318 323.168334 
L 815.14855 318.876052 
L 816.502782 320.701275 
L 817.857014 319.136798 
L 819.211246 327.821649 
L 820.565478 328.944862 
L 821.91971 333.558062 
L 823.273942 332.635422 
L 824.628174 329.506469 
L 825.982406 331.251462 
L 827.336638 331.512208 
L 828.69087 332.093873 
L 830.045102 336.606786 
L 831.399334 338.231434 
L 832.753566 338.251492 
L 834.107798 335.764375 
L 835.46203 336.045179 
L 836.816262 337.449196 
L 838.170494 335.403342 
L 839.524726 339.134017 
L 840.878958 341.360387 
L 842.23319 340.257231 
L 843.587422 338.11109 
L 844.941654 339.454935 
L 846.295886 338.231434 
L 847.650118 339.394763 
L 849.00435 340.999354 
L 850.358582 341.80165 
L 851.712813 341.139756 
L 853.067045 340.016542 
L 854.421277 340.538034 
L 855.775509 339.976427 
L 857.129741 340.658379 
L 858.483973 341.139756 
L 859.838205 343.165552 
L 861.192437 341.280158 
L 862.546669 341.440617 
L 863.900901 341.380445 
L 865.255133 340.979297 
L 866.609365 341.400502 
L 867.963597 342.904806 
L 869.317829 341.280158 
L 870.672061 342.18274 
L 872.026293 341.921994 
L 873.380525 341.159813 
L 874.734757 341.72142 
L 876.088989 342.122568 
L 877.443221 341.982166 
L 878.797453 342.603945 
L 880.151685 342.303085 
L 882.860149 341.400502 
L 884.214381 341.942052 
L 885.568613 341.300215 
L 886.922845 341.741478 
L 888.277077 342.844634 
L 890.985541 342.082453 
L 892.339773 342.102511 
L 893.694005 342.884749 
L 895.048237 342.744347 
L 896.402469 342.383314 
L 897.756701 342.804519 
L 899.110933 342.483601 
L 900.465165 341.079584 
L 901.819397 341.320272 
L 903.173629 340.477862 
L 907.236324 342.142625 
L 908.590556 341.80165 
L 909.944788 341.280158 
L 911.29902 341.079584 
L 912.653252 340.678436 
L 914.007484 341.159813 
L 915.361716 341.159813 
L 916.715948 341.420559 
L 918.07018 340.758666 
L 919.424412 341.099641 
L 920.778644 341.641191 
L 922.132876 341.34033 
L 923.487108 341.199928 
L 924.84134 342.082453 
L 926.195572 342.764405 
L 927.549804 341.861822 
L 928.904036 340.638321 
L 930.258268 341.280158 
L 931.6125 341.741478 
L 932.966732 341.761535 
L 934.320964 341.982166 
L 935.675196 342.64406 
L 937.029428 342.804519 
L 938.38366 341.641191 
L 939.737892 341.761535 
L 941.092124 342.082453 
L 942.446356 342.26297 
L 943.800588 342.222855 
L 945.15482 342.985036 
L 946.509052 342.704232 
L 947.863284 342.142625 
L 949.217516 341.360387 
L 950.571748 341.079584 
L 951.92598 341.079584 
L 953.280212 341.841765 
L 954.634444 342.142625 
L 955.988676 342.664118 
L 958.697139 340.999354 
L 960.051371 340.578149 
L 961.405603 340.457805 
L 962.759835 341.139756 
L 964.114067 341.621133 
L 965.468299 341.741478 
L 966.822531 340.377575 
L 968.176763 340.919125 
L 970.885227 340.397632 
L 972.239459 341.420559 
L 973.593691 341.821707 
L 974.947923 340.778723 
L 976.302155 338.873271 
L 977.656387 338.311664 
L 979.010619 338.993615 
L 980.364851 337.890459 
L 981.719083 338.913386 
L 983.073315 340.578149 
L 984.427547 341.119699 
L 985.781779 340.297346 
L 987.136011 340.297346 
L 988.490243 339.474993 
L 989.844475 339.49505 
L 991.198707 340.497919 
L 992.552939 340.818838 
L 993.907171 341.360387 
L 995.261403 340.197059 
L 996.615635 340.297346 
L 997.969867 341.019412 
L 999.324099 339.976427 
L 1000.678331 339.655509 
L 1002.032563 341.34033 
L 1003.386795 341.560961 
L 1004.741027 339.976427 
L 1006.095259 339.093902 
L 1007.449491 340.698493 
L 1008.803723 339.575279 
L 1010.157955 340.939182 
L 1011.512187 341.621133 
L 1012.866418 341.219985 
L 1014.22065 339.735739 
L 1015.574882 339.735739 
L 1016.929114 339.394763 
L 1018.283346 339.916255 
L 1019.637578 338.371836 
L 1020.99181 340.858952 
L 1022.346042 341.079584 
L 1023.700274 340.377575 
L 1025.054506 338.772984 
L 1026.408738 338.010803 
L 1027.76297 338.853213 
L 1029.117202 338.612525 
L 1030.471434 342.122568 
L 1031.825666 340.638321 
L 1034.53413 338.19132 
L 1035.888362 339.053787 
L 1037.242594 339.154074 
L 1038.596826 339.515107 
L 1039.951058 341.681305 
L 1041.30529 344.208537 
L 1042.659522 334.801621 
L 1044.013754 337.890459 
L 1045.367986 338.411951 
L 1046.722218 337.850344 
L 1048.07645 337.068106 
L 1049.430682 340.096772 
L 1050.784914 336.967819 
L 1052.139146 335.88472 
L 1053.493378 335.282998 
L 1054.84761 335.26294 
L 1056.201842 331.933414 
L 1057.556074 336.987876 
L 1058.910306 338.552353 
L 1061.61877 325.896139 
L 1062.973002 315.787214 
L 1064.327234 317.191232 
L 1065.681466 309.609538 
L 1067.035697 325.936254 
L 1068.389929 325.053729 
L 1069.744161 309.689767 
L 1071.098393 281.268445 
L 1072.452625 237.34276 
L 1073.806857 233.451626 
L 1075.161089 221.778225 
L 1076.515321 216.362729 
L 1077.869553 224.144997 
L 1079.223785 208.680749 
L 1080.578017 200.236587 
L 1081.932249 147.184789 
L 1083.286481 130.797901 
L 1084.640713 207.697936 
L 1087.349177 92.006907 
L 1088.703409 184.130502 
L 1090.057641 130.998475 
L 1091.411873 109.256263 
L 1092.766105 83.522631 
L 1094.120337 85.98969 
L 1095.474569 122.995576 
L 1096.828801 165.116096 
L 1098.183033 142.732048 
L 1099.537265 128.691875 
L 1100.891497 110.178903 
L 1102.245729 152.339538 
L 1103.599961 71.187336 
L 1104.954193 159.239281 
L 1106.308425 192.013057 
L 1107.662657 204.127721 
L 1109.016889 114.491242 
L 1110.371121 131.239163 
L 1111.725353 143.33377 
L 1113.079585 136.353798 
L 1114.433817 162.207775 
L 1115.788049 221.978798 
L 1117.142281 204.448639 
L 1118.496513 174.843931 
L 1119.850745 181.743673 
L 1121.204976 167.462811 
L 1122.559208 191.892713 
L 1123.91344 207.878453 
L 1125.267672 249.276907 
L 1126.621904 242.597796 
L 1127.976136 221.457306 
L 1129.330368 211.027463 
L 1130.6846 233.551913 
L 1132.038832 200.21653 
L 1133.393064 256.858601 
L 1134.747296 277.277024 
L 1136.101528 270.497626 
L 1137.45576 255.855731 
L 1138.809992 263.377253 
L 1140.164224 261.251169 
L 1141.518456 276.093638 
L 1142.872688 284.136652 
L 1144.22692 300.683999 
L 1145.581152 305.076568 
L 1146.935384 305.337314 
L 1148.289616 294.706897 
L 1149.643848 300.44331 
L 1150.99808 300.262794 
L 1152.352312 305.51783 
L 1153.706544 320.039381 
L 1155.060776 313.961992 
L 1156.415008 309.067988 
L 1157.76924 313.520729 
L 1159.123472 314.162566 
L 1160.477704 314.323025 
L 1161.831936 319.898979 
L 1163.186168 323.930515 
L 1164.5404 318.775765 
L 1165.894632 311.354531 
L 1167.248864 310.712694 
L 1168.603096 301.506352 
L 1169.957328 306.961962 
L 1171.31156 314.804402 
L 1172.665792 325.976369 
L 1174.020024 322.406153 
L 1175.374255 316.870313 
L 1176.728487 307.002077 
L 1179.436951 319.598118 
L 1182.145415 329.626814 
L 1183.499647 330.950602 
L 1184.853879 319.377487 
L 1186.208111 323.188391 
L 1187.562343 326.016483 
L 1190.270807 334.320243 
L 1191.625039 336.566671 
L 1192.979271 331.632553 
L 1194.333503 327.360329 
L 1195.687735 327.761476 
L 1197.041967 331.091003 
L 1198.396199 333.076685 
L 1199.750431 332.856054 
L 1201.104663 337.509368 
L 1202.458895 337.027991 
L 1203.813127 336.927704 
L 1205.167359 337.10822 
L 1206.521591 339.073845 
L 1207.875823 339.976427 
L 1209.230055 341.380445 
L 1210.584287 340.538034 
L 1211.938519 344.208537 
L 1225.480839 344.208537 
L 1226.835071 302.248476 
L 1228.189303 344.208537 
L 1230.897766 344.208537 
L 1232.251998 306.98202 
L 1233.60623 344.208537 
L 1240.37739 344.208537 
L 1241.731622 287.706867 
L 1243.085854 344.208537 
L 1249.857014 344.208537 
L 1251.211246 233.130708 
L 1252.565478 344.208537 
L 1259.336638 344.208537 
L 1260.69087 177.531621 
L 1262.045102 344.208537 
L 1268.816262 344.208537 
L 1270.170494 155.889696 
L 1271.524726 344.208537 
L 1278.295886 344.208537 
L 1279.650118 160.001462 
L 1281.00435 344.208537 
L 1286.421277 344.208537 
L 1287.775509 165.376842 
L 1289.129741 344.208537 
L 1295.900901 344.208537 
L 1297.255133 182.325337 
L 1298.609365 344.208537 
L 1305.380525 344.208537 
L 1306.734757 230.262501 
L 1306.734757 230.262501 
" clip-path="url(#p772a9ba291)" style="fill: none; stroke: #0000ff; stroke-width: 1.5; stroke-linecap: square"/>
   </g>
   <g id="line2d_21">
    <path d="M 1067.035697 321.318367 
L 1068.389929 317.228664 
L 1069.744161 312.73442 
L 1071.098393 303.473915 
L 1072.452625 294.991563 
L 1073.806857 273.178507 
L 1075.161089 267.850718 
L 1076.515321 251.319741 
L 1077.869553 228.266343 
L 1079.223785 200.970199 
L 1080.578017 164.953105 
L 1081.932249 161.162548 
L 1083.286481 147.805718 
L 1084.640713 142.394107 
L 1085.994945 156.97247 
L 1087.349177 143.91332 
L 1088.703409 134.641167 
L 1090.057641 100.399116 
L 1091.411873 84.641455 
L 1092.766105 146.473732 
L 1094.120337 100.73928 
L 1095.474569 50.8755 
L 1096.828801 123.679431 
L 1098.183033 104.613601 
L 1099.537265 101.005288 
L 1100.891497 94.568081 
L 1102.245729 96.32374 
L 1103.599961 132.341131 
L 1104.954193 159.682507 
L 1106.308425 154.428315 
L 1107.662657 148.314073 
L 1109.016889 146.664945 
L 1110.371121 170.7653 
L 1111.725353 111.261607 
L 1113.079585 163.743501 
L 1114.433817 192.030393 
L 1115.788049 201.218289 
L 1117.142281 147.395555 
L 1118.496513 159.612546 
L 1119.850745 176.617995 
L 1121.204976 174.105975 
L 1122.559208 194.077302 
L 1123.91344 239.576878 
L 1125.267672 229.047462 
L 1126.621904 212.951045 
L 1127.976136 220.903275 
L 1129.330368 212.11988 
L 1130.6846 229.185389 
L 1132.038832 242.424619 
L 1133.393064 266.308983 
L 1134.747296 266.490844 
L 1136.101528 250.848341 
L 1137.45576 247.542966 
L 1138.809992 264.853306 
L 1140.164224 244.096449 
L 1141.518456 285.102956 
L 1142.872688 306.007781 
L 1144.22692 300.220265 
L 1145.581152 291.852063 
L 1146.935384 296.73698 
L 1148.289616 297.576636 
L 1149.643848 308.605807 
L 1150.99808 315.048938 
L 1152.352312 323.639063 
L 1153.706544 325.066657 
L 1155.060776 323.126964 
L 1156.415008 312.756984 
L 1157.76924 314.297749 
L 1159.123472 313.431629 
L 1160.477704 316.70334 
L 1161.831936 327.957298 
L 1164.5404 319.552671 
L 1165.894632 321.360834 
L 1167.248864 319.25504 
L 1168.603096 316.226594 
L 1169.957328 315.961748 
L 1171.31156 316.453568 
L 1172.665792 312.289041 
L 1174.020024 309.614415 
L 1175.374255 311.829046 
L 1176.728487 307.210656 
L 1178.082719 310.721389 
L 1179.436951 317.727014 
L 1180.791183 326.955846 
L 1182.145415 326.820245 
L 1183.499647 324.036622 
L 1184.853879 317.673037 
L 1186.208111 321.534034 
L 1187.562343 327.242431 
L 1188.916575 331.315486 
L 1190.270807 336.234994 
L 1191.625039 337.727436 
L 1192.979271 329.395254 
L 1194.333503 330.917789 
L 1195.687735 332.174509 
L 1197.041967 333.942086 
L 1198.396199 336.819244 
L 1199.750431 337.856106 
L 1201.104663 333.743194 
L 1202.458895 330.757938 
L 1203.813127 331.730885 
L 1205.167359 335.699659 
L 1206.521591 338.567181 
L 1207.875823 339.417685 
L 1209.230055 343.116533 
L 1210.584287 342.99528 
L 1211.938519 342.534862 
L 1213.292751 343.034102 
L 1214.646983 344.517953 
L 1216.001215 345.61791 
L 1217.355447 346.518861 
L 1218.709679 345.54233 
L 1220.063911 347.503239 
L 1221.418143 346.986933 
L 1222.772375 346.144643 
L 1225.480839 344.870947 
L 1226.835071 342.205041 
L 1228.189303 334.693052 
L 1229.543534 334.85377 
L 1230.897766 334.14729 
L 1232.251998 337.032801 
L 1233.60623 333.029966 
L 1234.960462 305.191399 
L 1236.314694 336.214264 
L 1237.668926 346.097479 
L 1239.023158 348.333368 
L 1240.37739 323.995923 
L 1241.731622 345.454045 
L 1243.085854 338.665585 
L 1244.440086 338.107246 
L 1245.794318 337.251835 
L 1247.14855 340.68198 
L 1248.502782 342.420822 
L 1249.857014 303.807118 
L 1251.211246 339.758371 
L 1252.565478 327.452111 
L 1253.91971 327.984307 
L 1255.273942 326.909867 
L 1256.628174 335.439333 
L 1257.982406 339.76317 
L 1259.336638 264.310651 
L 1260.69087 338.102578 
L 1262.045102 323.077921 
L 1263.399334 323.882565 
L 1264.753566 322.618553 
L 1266.107798 333.26394 
L 1267.46203 338.660399 
L 1268.816262 224.887364 
L 1270.170494 338.779343 
L 1271.524726 326.909723 
L 1272.878958 327.684785 
L 1274.23319 326.729189 
L 1275.587422 335.347742 
L 1276.941654 339.71674 
L 1278.295886 210.294954 
L 1279.650118 340.123418 
L 1281.00435 331.488455 
L 1282.358582 332.083488 
L 1283.712813 331.397925 
L 1285.067045 337.714461 
L 1286.421277 340.916499 
L 1287.775509 203.807366 
L 1289.129741 309.261104 
L 1290.483973 333.264797 
L 1291.838205 329.895847 
L 1293.192437 353.2755 
L 1294.546669 348.804847 
L 1295.900901 221.533582 
L 1297.255133 343.333707 
L 1298.609365 336.294631 
L 1299.963597 336.214421 
L 1301.317829 335.481238 
L 1302.672061 339.784413 
L 1304.026293 341.965818 
L 1305.380525 229.913828 
L 1306.734757 343.588265 
L 1306.734757 343.588265 
" clip-path="url(#p772a9ba291)" style="fill: none; stroke: #ffa500; stroke-width: 1.5; stroke-linecap: square"/>
   </g>
   <g id="line2d_22">
    <path d="M 1306.734757 343.588265 
L 1308.088989 343.699851 
L 1309.443221 343.711544 
L 1310.797453 343.658945 
L 1312.151685 343.665057 
L 1313.505917 343.673249 
L 1314.860149 264.025598 
L 1316.214381 343.237904 
L 1317.568613 343.315974 
L 1318.922845 343.32471 
L 1320.277077 343.288114 
L 1321.631309 343.292171 
L 1322.985541 343.29788 
L 1324.339773 287.623494 
" clip-path="url(#p772a9ba291)" style="fill: none; stroke: #ff0000; stroke-width: 1.5; stroke-linecap: square"/>
   </g>
   <g id="patch_3">
    <path d="M 46.0125 368.3955 
L 46.0125 35.7555 
" style="fill: none; stroke: #000000; stroke-width: 0.8; stroke-linejoin: miter; stroke-linecap: square"/>
   </g>
   <g id="patch_4">
    <path d="M 1385.2125 368.3955 
L 1385.2125 35.7555 
" style="fill: none; stroke: #000000; stroke-width: 0.8; stroke-linejoin: miter; stroke-linecap: square"/>
   </g>
   <g id="patch_5">
    <path d="M 46.0125 368.3955 
L 1385.2125 368.3955 
" style="fill: none; stroke: #000000; stroke-width: 0.8; stroke-linejoin: miter; stroke-linecap: square"/>
   </g>
   <g id="patch_6">
    <path d="M 46.0125 35.7555 
L 1385.2125 35.7555 
" style="fill: none; stroke: #000000; stroke-width: 0.8; stroke-linejoin: miter; stroke-linecap: square"/>
   </g>
   <g id="text_20">
    <!-- Daily Confirmed Cases Forecasting - Uruguay -->
    <g transform="translate(579.612188 16.318125)scale(0.12 -0.12)">
     <defs>
      <path id="DejaVuSans-44" d="M 1259 4147 
L 1259 519 
L 2022 519 
Q 2988 519 3436 956 
Q 3884 1394 3884 2338 
Q 3884 3275 3436 3711 
Q 2988 4147 2022 4147 
L 1259 4147 
z
M 628 4666 
L 1925 4666 
Q 3281 4666 3915 4102 
Q 4550 3538 4550 2338 
Q 4550 1131 3912 565 
Q 3275 0 1925 0 
L 628 0 
L 628 4666 
z
" transform="scale(0.015625)"/>
      <path id="DejaVuSans-61" d="M 2194 1759 
Q 1497 1759 1228 1600 
Q 959 1441 959 1056 
Q 959 750 1161 570 
Q 1363 391 1709 391 
Q 2188 391 2477 730 
Q 2766 1069 2766 1631 
L 2766 1759 
L 2194 1759 
z
M 3341 1997 
L 3341 0 
L 2766 0 
L 2766 531 
Q 2569 213 2275 61 
Q 1981 -91 1556 -91 
Q 1019 -91 701 211 
Q 384 513 384 1019 
Q 384 1609 779 1909 
Q 1175 2209 1959 2209 
L 2766 2209 
L 2766 2266 
Q 2766 2663 2505 2880 
Q 2244 3097 1772 3097 
Q 1472 3097 1187 3025 
Q 903 2953 641 2809 
L 641 3341 
Q 956 3463 1253 3523 
Q 1550 3584 1831 3584 
Q 2591 3584 2966 3190 
Q 3341 2797 3341 1997 
z
" transform="scale(0.015625)"/>
      <path id="DejaVuSans-69" d="M 603 3500 
L 1178 3500 
L 1178 0 
L 603 0 
L 603 3500 
z
M 603 4863 
L 1178 4863 
L 1178 4134 
L 603 4134 
L 603 4863 
z
" transform="scale(0.015625)"/>
      <path id="DejaVuSans-6c" d="M 603 4863 
L 1178 4863 
L 1178 0 
L 603 0 
L 603 4863 
z
" transform="scale(0.015625)"/>
      <path id="DejaVuSans-79" d="M 2059 -325 
Q 1816 -950 1584 -1140 
Q 1353 -1331 966 -1331 
L 506 -1331 
L 506 -850 
L 844 -850 
Q 1081 -850 1212 -737 
Q 1344 -625 1503 -206 
L 1606 56 
L 191 3500 
L 800 3500 
L 1894 763 
L 2988 3500 
L 3597 3500 
L 2059 -325 
z
" transform="scale(0.015625)"/>
      <path id="DejaVuSans-20" transform="scale(0.015625)"/>
      <path id="DejaVuSans-43" d="M 4122 4306 
L 4122 3641 
Q 3803 3938 3442 4084 
Q 3081 4231 2675 4231 
Q 1875 4231 1450 3742 
Q 1025 3253 1025 2328 
Q 1025 1406 1450 917 
Q 1875 428 2675 428 
Q 3081 428 3442 575 
Q 3803 722 4122 1019 
L 4122 359 
Q 3791 134 3420 21 
Q 3050 -91 2638 -91 
Q 1578 -91 968 557 
Q 359 1206 359 2328 
Q 359 3453 968 4101 
Q 1578 4750 2638 4750 
Q 3056 4750 3426 4639 
Q 3797 4528 4122 4306 
z
" transform="scale(0.015625)"/>
      <path id="DejaVuSans-6f" d="M 1959 3097 
Q 1497 3097 1228 2736 
Q 959 2375 959 1747 
Q 959 1119 1226 758 
Q 1494 397 1959 397 
Q 2419 397 2687 759 
Q 2956 1122 2956 1747 
Q 2956 2369 2687 2733 
Q 2419 3097 1959 3097 
z
M 1959 3584 
Q 2709 3584 3137 3096 
Q 3566 2609 3566 1747 
Q 3566 888 3137 398 
Q 2709 -91 1959 -91 
Q 1206 -91 779 398 
Q 353 888 353 1747 
Q 353 2609 779 3096 
Q 1206 3584 1959 3584 
z
" transform="scale(0.015625)"/>
      <path id="DejaVuSans-6e" d="M 3513 2113 
L 3513 0 
L 2938 0 
L 2938 2094 
Q 2938 2591 2744 2837 
Q 2550 3084 2163 3084 
Q 1697 3084 1428 2787 
Q 1159 2491 1159 1978 
L 1159 0 
L 581 0 
L 581 3500 
L 1159 3500 
L 1159 2956 
Q 1366 3272 1645 3428 
Q 1925 3584 2291 3584 
Q 2894 3584 3203 3211 
Q 3513 2838 3513 2113 
z
" transform="scale(0.015625)"/>
      <path id="DejaVuSans-66" d="M 2375 4863 
L 2375 4384 
L 1825 4384 
Q 1516 4384 1395 4259 
Q 1275 4134 1275 3809 
L 1275 3500 
L 2222 3500 
L 2222 3053 
L 1275 3053 
L 1275 0 
L 697 0 
L 697 3053 
L 147 3053 
L 147 3500 
L 697 3500 
L 697 3744 
Q 697 4328 969 4595 
Q 1241 4863 1831 4863 
L 2375 4863 
z
" transform="scale(0.015625)"/>
      <path id="DejaVuSans-72" d="M 2631 2963 
Q 2534 3019 2420 3045 
Q 2306 3072 2169 3072 
Q 1681 3072 1420 2755 
Q 1159 2438 1159 1844 
L 1159 0 
L 581 0 
L 581 3500 
L 1159 3500 
L 1159 2956 
Q 1341 3275 1631 3429 
Q 1922 3584 2338 3584 
Q 2397 3584 2469 3576 
Q 2541 3569 2628 3553 
L 2631 2963 
z
" transform="scale(0.015625)"/>
      <path id="DejaVuSans-6d" d="M 3328 2828 
Q 3544 3216 3844 3400 
Q 4144 3584 4550 3584 
Q 5097 3584 5394 3201 
Q 5691 2819 5691 2113 
L 5691 0 
L 5113 0 
L 5113 2094 
Q 5113 2597 4934 2840 
Q 4756 3084 4391 3084 
Q 3944 3084 3684 2787 
Q 3425 2491 3425 1978 
L 3425 0 
L 2847 0 
L 2847 2094 
Q 2847 2600 2669 2842 
Q 2491 3084 2119 3084 
Q 1678 3084 1418 2786 
Q 1159 2488 1159 1978 
L 1159 0 
L 581 0 
L 581 3500 
L 1159 3500 
L 1159 2956 
Q 1356 3278 1631 3431 
Q 1906 3584 2284 3584 
Q 2666 3584 2933 3390 
Q 3200 3197 3328 2828 
z
" transform="scale(0.015625)"/>
      <path id="DejaVuSans-65" d="M 3597 1894 
L 3597 1613 
L 953 1613 
Q 991 1019 1311 708 
Q 1631 397 2203 397 
Q 2534 397 2845 478 
Q 3156 559 3463 722 
L 3463 178 
Q 3153 47 2828 -22 
Q 2503 -91 2169 -91 
Q 1331 -91 842 396 
Q 353 884 353 1716 
Q 353 2575 817 3079 
Q 1281 3584 2069 3584 
Q 2775 3584 3186 3129 
Q 3597 2675 3597 1894 
z
M 3022 2063 
Q 3016 2534 2758 2815 
Q 2500 3097 2075 3097 
Q 1594 3097 1305 2825 
Q 1016 2553 972 2059 
L 3022 2063 
z
" transform="scale(0.015625)"/>
      <path id="DejaVuSans-64" d="M 2906 2969 
L 2906 4863 
L 3481 4863 
L 3481 0 
L 2906 0 
L 2906 525 
Q 2725 213 2448 61 
Q 2172 -91 1784 -91 
Q 1150 -91 751 415 
Q 353 922 353 1747 
Q 353 2572 751 3078 
Q 1150 3584 1784 3584 
Q 2172 3584 2448 3432 
Q 2725 3281 2906 2969 
z
M 947 1747 
Q 947 1113 1208 752 
Q 1469 391 1925 391 
Q 2381 391 2643 752 
Q 2906 1113 2906 1747 
Q 2906 2381 2643 2742 
Q 2381 3103 1925 3103 
Q 1469 3103 1208 2742 
Q 947 2381 947 1747 
z
" transform="scale(0.015625)"/>
      <path id="DejaVuSans-73" d="M 2834 3397 
L 2834 2853 
Q 2591 2978 2328 3040 
Q 2066 3103 1784 3103 
Q 1356 3103 1142 2972 
Q 928 2841 928 2578 
Q 928 2378 1081 2264 
Q 1234 2150 1697 2047 
L 1894 2003 
Q 2506 1872 2764 1633 
Q 3022 1394 3022 966 
Q 3022 478 2636 193 
Q 2250 -91 1575 -91 
Q 1294 -91 989 -36 
Q 684 19 347 128 
L 347 722 
Q 666 556 975 473 
Q 1284 391 1588 391 
Q 1994 391 2212 530 
Q 2431 669 2431 922 
Q 2431 1156 2273 1281 
Q 2116 1406 1581 1522 
L 1381 1569 
Q 847 1681 609 1914 
Q 372 2147 372 2553 
Q 372 3047 722 3315 
Q 1072 3584 1716 3584 
Q 2034 3584 2315 3537 
Q 2597 3491 2834 3397 
z
" transform="scale(0.015625)"/>
      <path id="DejaVuSans-46" d="M 628 4666 
L 3309 4666 
L 3309 4134 
L 1259 4134 
L 1259 2759 
L 3109 2759 
L 3109 2228 
L 1259 2228 
L 1259 0 
L 628 0 
L 628 4666 
z
" transform="scale(0.015625)"/>
      <path id="DejaVuSans-63" d="M 3122 3366 
L 3122 2828 
Q 2878 2963 2633 3030 
Q 2388 3097 2138 3097 
Q 1578 3097 1268 2742 
Q 959 2388 959 1747 
Q 959 1106 1268 751 
Q 1578 397 2138 397 
Q 2388 397 2633 464 
Q 2878 531 3122 666 
L 3122 134 
Q 2881 22 2623 -34 
Q 2366 -91 2075 -91 
Q 1284 -91 818 406 
Q 353 903 353 1747 
Q 353 2603 823 3093 
Q 1294 3584 2113 3584 
Q 2378 3584 2631 3529 
Q 2884 3475 3122 3366 
z
" transform="scale(0.015625)"/>
      <path id="DejaVuSans-74" d="M 1172 4494 
L 1172 3500 
L 2356 3500 
L 2356 3053 
L 1172 3053 
L 1172 1153 
Q 1172 725 1289 603 
Q 1406 481 1766 481 
L 2356 481 
L 2356 0 
L 1766 0 
Q 1100 0 847 248 
Q 594 497 594 1153 
L 594 3053 
L 172 3053 
L 172 3500 
L 594 3500 
L 594 4494 
L 1172 4494 
z
" transform="scale(0.015625)"/>
      <path id="DejaVuSans-67" d="M 2906 1791 
Q 2906 2416 2648 2759 
Q 2391 3103 1925 3103 
Q 1463 3103 1205 2759 
Q 947 2416 947 1791 
Q 947 1169 1205 825 
Q 1463 481 1925 481 
Q 2391 481 2648 825 
Q 2906 1169 2906 1791 
z
M 3481 434 
Q 3481 -459 3084 -895 
Q 2688 -1331 1869 -1331 
Q 1566 -1331 1297 -1286 
Q 1028 -1241 775 -1147 
L 775 -588 
Q 1028 -725 1275 -790 
Q 1522 -856 1778 -856 
Q 2344 -856 2625 -561 
Q 2906 -266 2906 331 
L 2906 616 
Q 2728 306 2450 153 
Q 2172 0 1784 0 
Q 1141 0 747 490 
Q 353 981 353 1791 
Q 353 2603 747 3093 
Q 1141 3584 1784 3584 
Q 2172 3584 2450 3431 
Q 2728 3278 2906 2969 
L 2906 3500 
L 3481 3500 
L 3481 434 
z
" transform="scale(0.015625)"/>
      <path id="DejaVuSans-55" d="M 556 4666 
L 1191 4666 
L 1191 1831 
Q 1191 1081 1462 751 
Q 1734 422 2344 422 
Q 2950 422 3222 751 
Q 3494 1081 3494 1831 
L 3494 4666 
L 4128 4666 
L 4128 1753 
Q 4128 841 3676 375 
Q 3225 -91 2344 -91 
Q 1459 -91 1007 375 
Q 556 841 556 1753 
L 556 4666 
z
" transform="scale(0.015625)"/>
      <path id="DejaVuSans-75" d="M 544 1381 
L 544 3500 
L 1119 3500 
L 1119 1403 
Q 1119 906 1312 657 
Q 1506 409 1894 409 
Q 2359 409 2629 706 
Q 2900 1003 2900 1516 
L 2900 3500 
L 3475 3500 
L 3475 0 
L 2900 0 
L 2900 538 
Q 2691 219 2414 64 
Q 2138 -91 1772 -91 
Q 1169 -91 856 284 
Q 544 659 544 1381 
z
M 1991 3584 
L 1991 3584 
z
" transform="scale(0.015625)"/>
     </defs>
     <use xlink:href="#DejaVuSans-44"/>
     <use xlink:href="#DejaVuSans-61" x="77.001953"/>
     <use xlink:href="#DejaVuSans-69" x="138.28125"/>
     <use xlink:href="#DejaVuSans-6c" x="166.064453"/>
     <use xlink:href="#DejaVuSans-79" x="193.847656"/>
     <use xlink:href="#DejaVuSans-20" x="253.027344"/>
     <use xlink:href="#DejaVuSans-43" x="284.814453"/>
     <use xlink:href="#DejaVuSans-6f" x="354.638672"/>
     <use xlink:href="#DejaVuSans-6e" x="415.820312"/>
     <use xlink:href="#DejaVuSans-66" x="479.199219"/>
     <use xlink:href="#DejaVuSans-69" x="514.404297"/>
     <use xlink:href="#DejaVuSans-72" x="542.1875"/>
     <use xlink:href="#DejaVuSans-6d" x="581.550781"/>
     <use xlink:href="#DejaVuSans-65" x="678.962891"/>
     <use xlink:href="#DejaVuSans-64" x="740.486328"/>
     <use xlink:href="#DejaVuSans-20" x="803.962891"/>
     <use xlink:href="#DejaVuSans-43" x="835.75"/>
     <use xlink:href="#DejaVuSans-61" x="905.574219"/>
     <use xlink:href="#DejaVuSans-73" x="966.853516"/>
     <use xlink:href="#DejaVuSans-65" x="1018.953125"/>
     <use xlink:href="#DejaVuSans-73" x="1080.476562"/>
     <use xlink:href="#DejaVuSans-20" x="1132.576172"/>
     <use xlink:href="#DejaVuSans-46" x="1164.363281"/>
     <use xlink:href="#DejaVuSans-6f" x="1218.257812"/>
     <use xlink:href="#DejaVuSans-72" x="1279.439453"/>
     <use xlink:href="#DejaVuSans-65" x="1318.302734"/>
     <use xlink:href="#DejaVuSans-63" x="1379.826172"/>
     <use xlink:href="#DejaVuSans-61" x="1434.806641"/>
     <use xlink:href="#DejaVuSans-73" x="1496.085938"/>
     <use xlink:href="#DejaVuSans-74" x="1548.185547"/>
     <use xlink:href="#DejaVuSans-69" x="1587.394531"/>
     <use xlink:href="#DejaVuSans-6e" x="1615.177734"/>
     <use xlink:href="#DejaVuSans-67" x="1678.556641"/>
     <use xlink:href="#DejaVuSans-20" x="1742.033203"/>
     <use xlink:href="#DejaVuSans-2d" x="1773.820312"/>
     <use xlink:href="#DejaVuSans-20" x="1809.904297"/>
     <use xlink:href="#DejaVuSans-55" x="1841.691406"/>
     <use xlink:href="#DejaVuSans-72" x="1914.884766"/>
     <use xlink:href="#DejaVuSans-75" x="1955.998047"/>
     <use xlink:href="#DejaVuSans-67" x="2019.376953"/>
     <use xlink:href="#DejaVuSans-75" x="2082.853516"/>
     <use xlink:href="#DejaVuSans-61" x="2146.232422"/>
     <use xlink:href="#DejaVuSans-79" x="2207.511719"/>
    </g>
    <!-- ARIMA (3, 1, 1)x(1, 0, 0, 7) (R2 = 0.724887) -->
    <g transform="translate(583.628438 29.7555)scale(0.12 -0.12)">
     <defs>
      <path id="DejaVuSans-41" d="M 2188 4044 
L 1331 1722 
L 3047 1722 
L 2188 4044 
z
M 1831 4666 
L 2547 4666 
L 4325 0 
L 3669 0 
L 3244 1197 
L 1141 1197 
L 716 0 
L 50 0 
L 1831 4666 
z
" transform="scale(0.015625)"/>
      <path id="DejaVuSans-52" d="M 2841 2188 
Q 3044 2119 3236 1894 
Q 3428 1669 3622 1275 
L 4263 0 
L 3584 0 
L 2988 1197 
Q 2756 1666 2539 1819 
Q 2322 1972 1947 1972 
L 1259 1972 
L 1259 0 
L 628 0 
L 628 4666 
L 2053 4666 
Q 2853 4666 3247 4331 
Q 3641 3997 3641 3322 
Q 3641 2881 3436 2590 
Q 3231 2300 2841 2188 
z
M 1259 4147 
L 1259 2491 
L 2053 2491 
Q 2509 2491 2742 2702 
Q 2975 2913 2975 3322 
Q 2975 3731 2742 3939 
Q 2509 4147 2053 4147 
L 1259 4147 
z
" transform="scale(0.015625)"/>
      <path id="DejaVuSans-49" d="M 628 4666 
L 1259 4666 
L 1259 0 
L 628 0 
L 628 4666 
z
" transform="scale(0.015625)"/>
      <path id="DejaVuSans-4d" d="M 628 4666 
L 1569 4666 
L 2759 1491 
L 3956 4666 
L 4897 4666 
L 4897 0 
L 4281 0 
L 4281 4097 
L 3078 897 
L 2444 897 
L 1241 4097 
L 1241 0 
L 628 0 
L 628 4666 
z
" transform="scale(0.015625)"/>
      <path id="DejaVuSans-28" d="M 1984 4856 
Q 1566 4138 1362 3434 
Q 1159 2731 1159 2009 
Q 1159 1288 1364 580 
Q 1569 -128 1984 -844 
L 1484 -844 
Q 1016 -109 783 600 
Q 550 1309 550 2009 
Q 550 2706 781 3412 
Q 1013 4119 1484 4856 
L 1984 4856 
z
" transform="scale(0.015625)"/>
      <path id="DejaVuSans-33" d="M 2597 2516 
Q 3050 2419 3304 2112 
Q 3559 1806 3559 1356 
Q 3559 666 3084 287 
Q 2609 -91 1734 -91 
Q 1441 -91 1130 -33 
Q 819 25 488 141 
L 488 750 
Q 750 597 1062 519 
Q 1375 441 1716 441 
Q 2309 441 2620 675 
Q 2931 909 2931 1356 
Q 2931 1769 2642 2001 
Q 2353 2234 1838 2234 
L 1294 2234 
L 1294 2753 
L 1863 2753 
Q 2328 2753 2575 2939 
Q 2822 3125 2822 3475 
Q 2822 3834 2567 4026 
Q 2313 4219 1838 4219 
Q 1578 4219 1281 4162 
Q 984 4106 628 3988 
L 628 4550 
Q 988 4650 1302 4700 
Q 1616 4750 1894 4750 
Q 2613 4750 3031 4423 
Q 3450 4097 3450 3541 
Q 3450 3153 3228 2886 
Q 3006 2619 2597 2516 
z
" transform="scale(0.015625)"/>
      <path id="DejaVuSans-2c" d="M 750 794 
L 1409 794 
L 1409 256 
L 897 -744 
L 494 -744 
L 750 256 
L 750 794 
z
" transform="scale(0.015625)"/>
      <path id="DejaVuSans-29" d="M 513 4856 
L 1013 4856 
Q 1481 4119 1714 3412 
Q 1947 2706 1947 2009 
Q 1947 1309 1714 600 
Q 1481 -109 1013 -844 
L 513 -844 
Q 928 -128 1133 580 
Q 1338 1288 1338 2009 
Q 1338 2731 1133 3434 
Q 928 4138 513 4856 
z
" transform="scale(0.015625)"/>
      <path id="DejaVuSans-78" d="M 3513 3500 
L 2247 1797 
L 3578 0 
L 2900 0 
L 1881 1375 
L 863 0 
L 184 0 
L 1544 1831 
L 300 3500 
L 978 3500 
L 1906 2253 
L 2834 3500 
L 3513 3500 
z
" transform="scale(0.015625)"/>
      <path id="DejaVuSans-3d" d="M 678 2906 
L 4684 2906 
L 4684 2381 
L 678 2381 
L 678 2906 
z
M 678 1631 
L 4684 1631 
L 4684 1100 
L 678 1100 
L 678 1631 
z
" transform="scale(0.015625)"/>
      <path id="DejaVuSans-2e" d="M 684 794 
L 1344 794 
L 1344 0 
L 684 0 
L 684 794 
z
" transform="scale(0.015625)"/>
     </defs>
     <use xlink:href="#DejaVuSans-41"/>
     <use xlink:href="#DejaVuSans-52" x="68.408203"/>
     <use xlink:href="#DejaVuSans-49" x="137.890625"/>
     <use xlink:href="#DejaVuSans-4d" x="167.382812"/>
     <use xlink:href="#DejaVuSans-41" x="253.662109"/>
     <use xlink:href="#DejaVuSans-20" x="322.070312"/>
     <use xlink:href="#DejaVuSans-28" x="353.857422"/>
     <use xlink:href="#DejaVuSans-33" x="392.871094"/>
     <use xlink:href="#DejaVuSans-2c" x="456.494141"/>
     <use xlink:href="#DejaVuSans-20" x="488.28125"/>
     <use xlink:href="#DejaVuSans-31" x="520.068359"/>
     <use xlink:href="#DejaVuSans-2c" x="583.691406"/>
     <use xlink:href="#DejaVuSans-20" x="615.478516"/>
     <use xlink:href="#DejaVuSans-31" x="647.265625"/>
     <use xlink:href="#DejaVuSans-29" x="710.888672"/>
     <use xlink:href="#DejaVuSans-78" x="749.902344"/>
     <use xlink:href="#DejaVuSans-28" x="809.082031"/>
     <use xlink:href="#DejaVuSans-31" x="848.095703"/>
     <use xlink:href="#DejaVuSans-2c" x="911.71875"/>
     <use xlink:href="#DejaVuSans-20" x="943.505859"/>
     <use xlink:href="#DejaVuSans-30" x="975.292969"/>
     <use xlink:href="#DejaVuSans-2c" x="1038.916016"/>
     <use xlink:href="#DejaVuSans-20" x="1070.703125"/>
     <use xlink:href="#DejaVuSans-30" x="1102.490234"/>
     <use xlink:href="#DejaVuSans-2c" x="1166.113281"/>
     <use xlink:href="#DejaVuSans-20" x="1197.900391"/>
     <use xlink:href="#DejaVuSans-37" x="1229.6875"/>
     <use xlink:href="#DejaVuSans-29" x="1293.310547"/>
     <use xlink:href="#DejaVuSans-20" x="1332.324219"/>
     <use xlink:href="#DejaVuSans-28" x="1364.111328"/>
     <use xlink:href="#DejaVuSans-52" x="1403.125"/>
     <use xlink:href="#DejaVuSans-32" x="1472.607422"/>
     <use xlink:href="#DejaVuSans-20" x="1536.230469"/>
     <use xlink:href="#DejaVuSans-3d" x="1568.017578"/>
     <use xlink:href="#DejaVuSans-20" x="1651.806641"/>
     <use xlink:href="#DejaVuSans-30" x="1683.59375"/>
     <use xlink:href="#DejaVuSans-2e" x="1747.216797"/>
     <use xlink:href="#DejaVuSans-37" x="1779.003906"/>
     <use xlink:href="#DejaVuSans-32" x="1842.626953"/>
     <use xlink:href="#DejaVuSans-34" x="1906.25"/>
     <use xlink:href="#DejaVuSans-38" x="1969.873047"/>
     <use xlink:href="#DejaVuSans-38" x="2033.496094"/>
     <use xlink:href="#DejaVuSans-37" x="2097.119141"/>
     <use xlink:href="#DejaVuSans-29" x="2160.742188"/>
    </g>
   </g>
   <g id="legend_1">
    <g id="patch_7">
     <path d="M 1281.132812 87.789875 
L 1378.2125 87.789875 
Q 1380.2125 87.789875 1380.2125 85.789875 
L 1380.2125 42.7555 
Q 1380.2125 40.7555 1378.2125 40.7555 
L 1281.132812 40.7555 
Q 1279.132812 40.7555 1279.132812 42.7555 
L 1279.132812 85.789875 
Q 1279.132812 87.789875 1281.132812 87.789875 
z
" style="fill: #ffffff; opacity: 0.8; stroke: #cccccc; stroke-linejoin: miter"/>
    </g>
    <g id="line2d_23">
     <path d="M 1283.132812 48.853937 
L 1293.132812 48.853937 
L 1303.132812 48.853937 
" style="fill: none; stroke: #0000ff; stroke-width: 1.5; stroke-linecap: square"/>
    </g>
    <g id="text_21">
     <!-- Actual Value -->
     <g transform="translate(1311.132812 52.353937)scale(0.1 -0.1)">
      <defs>
       <path id="DejaVuSans-56" d="M 1831 0 
L 50 4666 
L 709 4666 
L 2188 738 
L 3669 4666 
L 4325 4666 
L 2547 0 
L 1831 0 
z
" transform="scale(0.015625)"/>
      </defs>
      <use xlink:href="#DejaVuSans-41"/>
      <use xlink:href="#DejaVuSans-63" x="66.658203"/>
      <use xlink:href="#DejaVuSans-74" x="121.638672"/>
      <use xlink:href="#DejaVuSans-75" x="160.847656"/>
      <use xlink:href="#DejaVuSans-61" x="224.226562"/>
      <use xlink:href="#DejaVuSans-6c" x="285.505859"/>
      <use xlink:href="#DejaVuSans-20" x="313.289062"/>
      <use xlink:href="#DejaVuSans-56" x="345.076172"/>
      <use xlink:href="#DejaVuSans-61" x="405.734375"/>
      <use xlink:href="#DejaVuSans-6c" x="467.013672"/>
      <use xlink:href="#DejaVuSans-75" x="494.796875"/>
      <use xlink:href="#DejaVuSans-65" x="558.175781"/>
     </g>
    </g>
    <g id="line2d_24">
     <path d="M 1283.132812 63.532062 
L 1293.132812 63.532062 
L 1303.132812 63.532062 
" style="fill: none; stroke: #ffa500; stroke-width: 1.5; stroke-linecap: square"/>
    </g>
    <g id="text_22">
     <!-- Check Value -->
     <g transform="translate(1311.132812 67.032062)scale(0.1 -0.1)">
      <defs>
       <path id="DejaVuSans-68" d="M 3513 2113 
L 3513 0 
L 2938 0 
L 2938 2094 
Q 2938 2591 2744 2837 
Q 2550 3084 2163 3084 
Q 1697 3084 1428 2787 
Q 1159 2491 1159 1978 
L 1159 0 
L 581 0 
L 581 4863 
L 1159 4863 
L 1159 2956 
Q 1366 3272 1645 3428 
Q 1925 3584 2291 3584 
Q 2894 3584 3203 3211 
Q 3513 2838 3513 2113 
z
" transform="scale(0.015625)"/>
       <path id="DejaVuSans-6b" d="M 581 4863 
L 1159 4863 
L 1159 1991 
L 2875 3500 
L 3609 3500 
L 1753 1863 
L 3688 0 
L 2938 0 
L 1159 1709 
L 1159 0 
L 581 0 
L 581 4863 
z
" transform="scale(0.015625)"/>
      </defs>
      <use xlink:href="#DejaVuSans-43"/>
      <use xlink:href="#DejaVuSans-68" x="69.824219"/>
      <use xlink:href="#DejaVuSans-65" x="133.203125"/>
      <use xlink:href="#DejaVuSans-63" x="194.726562"/>
      <use xlink:href="#DejaVuSans-6b" x="249.707031"/>
      <use xlink:href="#DejaVuSans-20" x="307.617188"/>
      <use xlink:href="#DejaVuSans-56" x="339.404297"/>
      <use xlink:href="#DejaVuSans-61" x="400.0625"/>
      <use xlink:href="#DejaVuSans-6c" x="461.341797"/>
      <use xlink:href="#DejaVuSans-75" x="489.125"/>
      <use xlink:href="#DejaVuSans-65" x="552.503906"/>
     </g>
    </g>
    <g id="line2d_25">
     <path d="M 1283.132812 78.210187 
L 1293.132812 78.210187 
L 1303.132812 78.210187 
" style="fill: none; stroke: #ff0000; stroke-width: 1.5; stroke-linecap: square"/>
    </g>
    <g id="text_23">
     <!-- Predict Value -->
     <g transform="translate(1311.132812 81.710187)scale(0.1 -0.1)">
      <defs>
       <path id="DejaVuSans-50" d="M 1259 4147 
L 1259 2394 
L 2053 2394 
Q 2494 2394 2734 2622 
Q 2975 2850 2975 3272 
Q 2975 3691 2734 3919 
Q 2494 4147 2053 4147 
L 1259 4147 
z
M 628 4666 
L 2053 4666 
Q 2838 4666 3239 4311 
Q 3641 3956 3641 3272 
Q 3641 2581 3239 2228 
Q 2838 1875 2053 1875 
L 1259 1875 
L 1259 0 
L 628 0 
L 628 4666 
z
" transform="scale(0.015625)"/>
      </defs>
      <use xlink:href="#DejaVuSans-50"/>
      <use xlink:href="#DejaVuSans-72" x="58.552734"/>
      <use xlink:href="#DejaVuSans-65" x="97.416016"/>
      <use xlink:href="#DejaVuSans-64" x="158.939453"/>
      <use xlink:href="#DejaVuSans-69" x="222.416016"/>
      <use xlink:href="#DejaVuSans-63" x="250.199219"/>
      <use xlink:href="#DejaVuSans-74" x="305.179688"/>
      <use xlink:href="#DejaVuSans-20" x="344.388672"/>
      <use xlink:href="#DejaVuSans-56" x="376.175781"/>
      <use xlink:href="#DejaVuSans-61" x="436.833984"/>
      <use xlink:href="#DejaVuSans-6c" x="498.113281"/>
      <use xlink:href="#DejaVuSans-75" x="525.896484"/>
      <use xlink:href="#DejaVuSans-65" x="589.275391"/>
     </g>
    </g>
   </g>
  </g>
 </g>
 <defs>
  <clipPath id="p772a9ba291">
   <rect x="46.0125" y="35.7555" width="1339.2" height="332.64"/>
  </clipPath>
 </defs>
</svg>
