<?xml version="1.0" encoding="utf-8" standalone="no"?>
<!DOCTYPE svg PUBLIC "-//W3C//DTD SVG 1.1//EN"
  "http://www.w3.org/Graphics/SVG/1.1/DTD/svg11.dtd">
<svg xmlns:xlink="http://www.w3.org/1999/xlink" width="1392.4125pt" height="392.273625pt" viewBox="0 0 1392.4125 392.273625" xmlns="http://www.w3.org/2000/svg" version="1.1">
 <metadata>
  <rdf:RDF xmlns:dc="http://purl.org/dc/elements/1.1/" xmlns:cc="http://creativecommons.org/ns#" xmlns:rdf="http://www.w3.org/1999/02/22-rdf-syntax-ns#">
   <cc:Work>
    <dc:type rdf:resource="http://purl.org/dc/dcmitype/StillImage"/>
    <dc:date>2022-06-25T20:05:23.376364</dc:date>
    <dc:format>image/svg+xml</dc:format>
    <dc:creator>
     <cc:Agent>
      <dc:title>Matplotlib v3.5.2, https://matplotlib.org/</dc:title>
     </cc:Agent>
    </dc:creator>
   </cc:Work>
  </rdf:RDF>
 </metadata>
 <defs>
  <style type="text/css">*{stroke-linejoin: round; stroke-linecap: butt}</style>
 </defs>
 <g id="figure_1">
  <g id="patch_1">
   <path d="M 0 392.273625 
L 1392.4125 392.273625 
L 1392.4125 0 
L 0 0 
z
" style="fill: #ffffff"/>
  </g>
  <g id="axes_1">
   <g id="patch_2">
    <path d="M 46.0125 368.3955 
L 1385.2125 368.3955 
L 1385.2125 35.7555 
L 46.0125 35.7555 
z
" style="fill: #ffffff"/>
   </g>
   <g id="matplotlib.axis_1">
    <g id="xtick_1">
     <g id="line2d_1">
      <defs>
       <path id="m214e61373b" d="M 0 0 
L 0 3.5 
" style="stroke: #000000; stroke-width: 0.8"/>
      </defs>
      <g>
       <use xlink:href="#m214e61373b" x="76.99237" y="368.3955" style="stroke: #000000; stroke-width: 0.8"/>
      </g>
     </g>
     <g id="text_1">
      <!-- 2020-01 -->
      <g transform="translate(56.100964 382.993937)scale(0.1 -0.1)">
       <defs>
        <path id="DejaVuSans-32" d="M 1228 531 
L 3431 531 
L 3431 0 
L 469 0 
L 469 531 
Q 828 903 1448 1529 
Q 2069 2156 2228 2338 
Q 2531 2678 2651 2914 
Q 2772 3150 2772 3378 
Q 2772 3750 2511 3984 
Q 2250 4219 1831 4219 
Q 1534 4219 1204 4116 
Q 875 4013 500 3803 
L 500 4441 
Q 881 4594 1212 4672 
Q 1544 4750 1819 4750 
Q 2544 4750 2975 4387 
Q 3406 4025 3406 3419 
Q 3406 3131 3298 2873 
Q 3191 2616 2906 2266 
Q 2828 2175 2409 1742 
Q 1991 1309 1228 531 
z
" transform="scale(0.015625)"/>
        <path id="DejaVuSans-30" d="M 2034 4250 
Q 1547 4250 1301 3770 
Q 1056 3291 1056 2328 
Q 1056 1369 1301 889 
Q 1547 409 2034 409 
Q 2525 409 2770 889 
Q 3016 1369 3016 2328 
Q 3016 3291 2770 3770 
Q 2525 4250 2034 4250 
z
M 2034 4750 
Q 2819 4750 3233 4129 
Q 3647 3509 3647 2328 
Q 3647 1150 3233 529 
Q 2819 -91 2034 -91 
Q 1250 -91 836 529 
Q 422 1150 422 2328 
Q 422 3509 836 4129 
Q 1250 4750 2034 4750 
z
" transform="scale(0.015625)"/>
        <path id="DejaVuSans-2d" d="M 313 2009 
L 1997 2009 
L 1997 1497 
L 313 1497 
L 313 2009 
z
" transform="scale(0.015625)"/>
        <path id="DejaVuSans-31" d="M 794 531 
L 1825 531 
L 1825 4091 
L 703 3866 
L 703 4441 
L 1819 4666 
L 2450 4666 
L 2450 531 
L 3481 531 
L 3481 0 
L 794 0 
L 794 531 
z
" transform="scale(0.015625)"/>
       </defs>
       <use xlink:href="#DejaVuSans-32"/>
       <use xlink:href="#DejaVuSans-30" x="63.623047"/>
       <use xlink:href="#DejaVuSans-32" x="127.246094"/>
       <use xlink:href="#DejaVuSans-30" x="190.869141"/>
       <use xlink:href="#DejaVuSans-2d" x="254.492188"/>
       <use xlink:href="#DejaVuSans-30" x="290.576172"/>
       <use xlink:href="#DejaVuSans-31" x="354.199219"/>
      </g>
     </g>
    </g>
    <g id="xtick_2">
     <g id="line2d_2">
      <g>
       <use xlink:href="#m214e61373b" x="200.640097" y="368.3955" style="stroke: #000000; stroke-width: 0.8"/>
      </g>
     </g>
     <g id="text_2">
      <!-- 2020-04 -->
      <g transform="translate(179.748691 382.993937)scale(0.1 -0.1)">
       <defs>
        <path id="DejaVuSans-34" d="M 2419 4116 
L 825 1625 
L 2419 1625 
L 2419 4116 
z
M 2253 4666 
L 3047 4666 
L 3047 1625 
L 3713 1625 
L 3713 1100 
L 3047 1100 
L 3047 0 
L 2419 0 
L 2419 1100 
L 313 1100 
L 313 1709 
L 2253 4666 
z
" transform="scale(0.015625)"/>
       </defs>
       <use xlink:href="#DejaVuSans-32"/>
       <use xlink:href="#DejaVuSans-30" x="63.623047"/>
       <use xlink:href="#DejaVuSans-32" x="127.246094"/>
       <use xlink:href="#DejaVuSans-30" x="190.869141"/>
       <use xlink:href="#DejaVuSans-2d" x="254.492188"/>
       <use xlink:href="#DejaVuSans-30" x="290.576172"/>
       <use xlink:href="#DejaVuSans-34" x="354.199219"/>
      </g>
     </g>
    </g>
    <g id="xtick_3">
     <g id="line2d_3">
      <g>
       <use xlink:href="#m214e61373b" x="324.287825" y="368.3955" style="stroke: #000000; stroke-width: 0.8"/>
      </g>
     </g>
     <g id="text_3">
      <!-- 2020-07 -->
      <g transform="translate(303.396418 382.993937)scale(0.1 -0.1)">
       <defs>
        <path id="DejaVuSans-37" d="M 525 4666 
L 3525 4666 
L 3525 4397 
L 1831 0 
L 1172 0 
L 2766 4134 
L 525 4134 
L 525 4666 
z
" transform="scale(0.015625)"/>
       </defs>
       <use xlink:href="#DejaVuSans-32"/>
       <use xlink:href="#DejaVuSans-30" x="63.623047"/>
       <use xlink:href="#DejaVuSans-32" x="127.246094"/>
       <use xlink:href="#DejaVuSans-30" x="190.869141"/>
       <use xlink:href="#DejaVuSans-2d" x="254.492188"/>
       <use xlink:href="#DejaVuSans-30" x="290.576172"/>
       <use xlink:href="#DejaVuSans-37" x="354.199219"/>
      </g>
     </g>
    </g>
    <g id="xtick_4">
     <g id="line2d_4">
      <g>
       <use xlink:href="#m214e61373b" x="449.294318" y="368.3955" style="stroke: #000000; stroke-width: 0.8"/>
      </g>
     </g>
     <g id="text_4">
      <!-- 2020-10 -->
      <g transform="translate(428.402912 382.993937)scale(0.1 -0.1)">
       <use xlink:href="#DejaVuSans-32"/>
       <use xlink:href="#DejaVuSans-30" x="63.623047"/>
       <use xlink:href="#DejaVuSans-32" x="127.246094"/>
       <use xlink:href="#DejaVuSans-30" x="190.869141"/>
       <use xlink:href="#DejaVuSans-2d" x="254.492188"/>
       <use xlink:href="#DejaVuSans-31" x="290.576172"/>
       <use xlink:href="#DejaVuSans-30" x="354.199219"/>
      </g>
     </g>
    </g>
    <g id="xtick_5">
     <g id="line2d_5">
      <g>
       <use xlink:href="#m214e61373b" x="574.300812" y="368.3955" style="stroke: #000000; stroke-width: 0.8"/>
      </g>
     </g>
     <g id="text_5">
      <!-- 2021-01 -->
      <g transform="translate(553.409405 382.993937)scale(0.1 -0.1)">
       <use xlink:href="#DejaVuSans-32"/>
       <use xlink:href="#DejaVuSans-30" x="63.623047"/>
       <use xlink:href="#DejaVuSans-32" x="127.246094"/>
       <use xlink:href="#DejaVuSans-31" x="190.869141"/>
       <use xlink:href="#DejaVuSans-2d" x="254.492188"/>
       <use xlink:href="#DejaVuSans-30" x="290.576172"/>
       <use xlink:href="#DejaVuSans-31" x="354.199219"/>
      </g>
     </g>
    </g>
    <g id="xtick_6">
     <g id="line2d_6">
      <g>
       <use xlink:href="#m214e61373b" x="696.589773" y="368.3955" style="stroke: #000000; stroke-width: 0.8"/>
      </g>
     </g>
     <g id="text_6">
      <!-- 2021-04 -->
      <g transform="translate(675.698366 382.993937)scale(0.1 -0.1)">
       <use xlink:href="#DejaVuSans-32"/>
       <use xlink:href="#DejaVuSans-30" x="63.623047"/>
       <use xlink:href="#DejaVuSans-32" x="127.246094"/>
       <use xlink:href="#DejaVuSans-31" x="190.869141"/>
       <use xlink:href="#DejaVuSans-2d" x="254.492188"/>
       <use xlink:href="#DejaVuSans-30" x="290.576172"/>
       <use xlink:href="#DejaVuSans-34" x="354.199219"/>
      </g>
     </g>
    </g>
    <g id="xtick_7">
     <g id="line2d_7">
      <g>
       <use xlink:href="#m214e61373b" x="820.2375" y="368.3955" style="stroke: #000000; stroke-width: 0.8"/>
      </g>
     </g>
     <g id="text_7">
      <!-- 2021-07 -->
      <g transform="translate(799.346094 382.993937)scale(0.1 -0.1)">
       <use xlink:href="#DejaVuSans-32"/>
       <use xlink:href="#DejaVuSans-30" x="63.623047"/>
       <use xlink:href="#DejaVuSans-32" x="127.246094"/>
       <use xlink:href="#DejaVuSans-31" x="190.869141"/>
       <use xlink:href="#DejaVuSans-2d" x="254.492188"/>
       <use xlink:href="#DejaVuSans-30" x="290.576172"/>
       <use xlink:href="#DejaVuSans-37" x="354.199219"/>
      </g>
     </g>
    </g>
    <g id="xtick_8">
     <g id="line2d_8">
      <g>
       <use xlink:href="#m214e61373b" x="945.243994" y="368.3955" style="stroke: #000000; stroke-width: 0.8"/>
      </g>
     </g>
     <g id="text_8">
      <!-- 2021-10 -->
      <g transform="translate(924.352587 382.993937)scale(0.1 -0.1)">
       <use xlink:href="#DejaVuSans-32"/>
       <use xlink:href="#DejaVuSans-30" x="63.623047"/>
       <use xlink:href="#DejaVuSans-32" x="127.246094"/>
       <use xlink:href="#DejaVuSans-31" x="190.869141"/>
       <use xlink:href="#DejaVuSans-2d" x="254.492188"/>
       <use xlink:href="#DejaVuSans-31" x="290.576172"/>
       <use xlink:href="#DejaVuSans-30" x="354.199219"/>
      </g>
     </g>
    </g>
    <g id="xtick_9">
     <g id="line2d_9">
      <g>
       <use xlink:href="#m214e61373b" x="1070.250487" y="368.3955" style="stroke: #000000; stroke-width: 0.8"/>
      </g>
     </g>
     <g id="text_9">
      <!-- 2022-01 -->
      <g transform="translate(1049.359081 382.993937)scale(0.1 -0.1)">
       <use xlink:href="#DejaVuSans-32"/>
       <use xlink:href="#DejaVuSans-30" x="63.623047"/>
       <use xlink:href="#DejaVuSans-32" x="127.246094"/>
       <use xlink:href="#DejaVuSans-32" x="190.869141"/>
       <use xlink:href="#DejaVuSans-2d" x="254.492188"/>
       <use xlink:href="#DejaVuSans-30" x="290.576172"/>
       <use xlink:href="#DejaVuSans-31" x="354.199219"/>
      </g>
     </g>
    </g>
    <g id="xtick_10">
     <g id="line2d_10">
      <g>
       <use xlink:href="#m214e61373b" x="1192.539448" y="368.3955" style="stroke: #000000; stroke-width: 0.8"/>
      </g>
     </g>
     <g id="text_10">
      <!-- 2022-04 -->
      <g transform="translate(1171.648042 382.993937)scale(0.1 -0.1)">
       <use xlink:href="#DejaVuSans-32"/>
       <use xlink:href="#DejaVuSans-30" x="63.623047"/>
       <use xlink:href="#DejaVuSans-32" x="127.246094"/>
       <use xlink:href="#DejaVuSans-32" x="190.869141"/>
       <use xlink:href="#DejaVuSans-2d" x="254.492188"/>
       <use xlink:href="#DejaVuSans-30" x="290.576172"/>
       <use xlink:href="#DejaVuSans-34" x="354.199219"/>
      </g>
     </g>
    </g>
    <g id="xtick_11">
     <g id="line2d_11">
      <g>
       <use xlink:href="#m214e61373b" x="1316.187175" y="368.3955" style="stroke: #000000; stroke-width: 0.8"/>
      </g>
     </g>
     <g id="text_11">
      <!-- 2022-07 -->
      <g transform="translate(1295.295769 382.993937)scale(0.1 -0.1)">
       <use xlink:href="#DejaVuSans-32"/>
       <use xlink:href="#DejaVuSans-30" x="63.623047"/>
       <use xlink:href="#DejaVuSans-32" x="127.246094"/>
       <use xlink:href="#DejaVuSans-32" x="190.869141"/>
       <use xlink:href="#DejaVuSans-2d" x="254.492188"/>
       <use xlink:href="#DejaVuSans-30" x="290.576172"/>
       <use xlink:href="#DejaVuSans-37" x="354.199219"/>
      </g>
     </g>
    </g>
   </g>
   <g id="matplotlib.axis_2">
    <g id="ytick_1">
     <g id="line2d_12">
      <defs>
       <path id="m9004901d19" d="M 0 0 
L -3.5 0 
" style="stroke: #000000; stroke-width: 0.8"/>
      </defs>
      <g>
       <use xlink:href="#m9004901d19" x="46.0125" y="351.527787" style="stroke: #000000; stroke-width: 0.8"/>
      </g>
     </g>
     <g id="text_12">
      <!-- 0 -->
      <g transform="translate(32.65 355.327006)scale(0.1 -0.1)">
       <use xlink:href="#DejaVuSans-30"/>
      </g>
     </g>
    </g>
    <g id="ytick_2">
     <g id="line2d_13">
      <g>
       <use xlink:href="#m9004901d19" x="46.0125" y="311.837716" style="stroke: #000000; stroke-width: 0.8"/>
      </g>
     </g>
     <g id="text_13">
      <!-- 5000 -->
      <g transform="translate(13.5625 315.636935)scale(0.1 -0.1)">
       <defs>
        <path id="DejaVuSans-35" d="M 691 4666 
L 3169 4666 
L 3169 4134 
L 1269 4134 
L 1269 2991 
Q 1406 3038 1543 3061 
Q 1681 3084 1819 3084 
Q 2600 3084 3056 2656 
Q 3513 2228 3513 1497 
Q 3513 744 3044 326 
Q 2575 -91 1722 -91 
Q 1428 -91 1123 -41 
Q 819 9 494 109 
L 494 744 
Q 775 591 1075 516 
Q 1375 441 1709 441 
Q 2250 441 2565 725 
Q 2881 1009 2881 1497 
Q 2881 1984 2565 2268 
Q 2250 2553 1709 2553 
Q 1456 2553 1204 2497 
Q 953 2441 691 2322 
L 691 4666 
z
" transform="scale(0.015625)"/>
       </defs>
       <use xlink:href="#DejaVuSans-35"/>
       <use xlink:href="#DejaVuSans-30" x="63.623047"/>
       <use xlink:href="#DejaVuSans-30" x="127.246094"/>
       <use xlink:href="#DejaVuSans-30" x="190.869141"/>
      </g>
     </g>
    </g>
    <g id="ytick_3">
     <g id="line2d_14">
      <g>
       <use xlink:href="#m9004901d19" x="46.0125" y="272.147645" style="stroke: #000000; stroke-width: 0.8"/>
      </g>
     </g>
     <g id="text_14">
      <!-- 10000 -->
      <g transform="translate(7.2 275.946864)scale(0.1 -0.1)">
       <use xlink:href="#DejaVuSans-31"/>
       <use xlink:href="#DejaVuSans-30" x="63.623047"/>
       <use xlink:href="#DejaVuSans-30" x="127.246094"/>
       <use xlink:href="#DejaVuSans-30" x="190.869141"/>
       <use xlink:href="#DejaVuSans-30" x="254.492188"/>
      </g>
     </g>
    </g>
    <g id="ytick_4">
     <g id="line2d_15">
      <g>
       <use xlink:href="#m9004901d19" x="46.0125" y="232.457574" style="stroke: #000000; stroke-width: 0.8"/>
      </g>
     </g>
     <g id="text_15">
      <!-- 15000 -->
      <g transform="translate(7.2 236.256793)scale(0.1 -0.1)">
       <use xlink:href="#DejaVuSans-31"/>
       <use xlink:href="#DejaVuSans-35" x="63.623047"/>
       <use xlink:href="#DejaVuSans-30" x="127.246094"/>
       <use xlink:href="#DejaVuSans-30" x="190.869141"/>
       <use xlink:href="#DejaVuSans-30" x="254.492188"/>
      </g>
     </g>
    </g>
    <g id="ytick_5">
     <g id="line2d_16">
      <g>
       <use xlink:href="#m9004901d19" x="46.0125" y="192.767504" style="stroke: #000000; stroke-width: 0.8"/>
      </g>
     </g>
     <g id="text_16">
      <!-- 20000 -->
      <g transform="translate(7.2 196.566722)scale(0.1 -0.1)">
       <use xlink:href="#DejaVuSans-32"/>
       <use xlink:href="#DejaVuSans-30" x="63.623047"/>
       <use xlink:href="#DejaVuSans-30" x="127.246094"/>
       <use xlink:href="#DejaVuSans-30" x="190.869141"/>
       <use xlink:href="#DejaVuSans-30" x="254.492188"/>
      </g>
     </g>
    </g>
    <g id="ytick_6">
     <g id="line2d_17">
      <g>
       <use xlink:href="#m9004901d19" x="46.0125" y="153.077433" style="stroke: #000000; stroke-width: 0.8"/>
      </g>
     </g>
     <g id="text_17">
      <!-- 25000 -->
      <g transform="translate(7.2 156.876651)scale(0.1 -0.1)">
       <use xlink:href="#DejaVuSans-32"/>
       <use xlink:href="#DejaVuSans-35" x="63.623047"/>
       <use xlink:href="#DejaVuSans-30" x="127.246094"/>
       <use xlink:href="#DejaVuSans-30" x="190.869141"/>
       <use xlink:href="#DejaVuSans-30" x="254.492188"/>
      </g>
     </g>
    </g>
    <g id="ytick_7">
     <g id="line2d_18">
      <g>
       <use xlink:href="#m9004901d19" x="46.0125" y="113.387362" style="stroke: #000000; stroke-width: 0.8"/>
      </g>
     </g>
     <g id="text_18">
      <!-- 30000 -->
      <g transform="translate(7.2 117.18658)scale(0.1 -0.1)">
       <defs>
        <path id="DejaVuSans-33" d="M 2597 2516 
Q 3050 2419 3304 2112 
Q 3559 1806 3559 1356 
Q 3559 666 3084 287 
Q 2609 -91 1734 -91 
Q 1441 -91 1130 -33 
Q 819 25 488 141 
L 488 750 
Q 750 597 1062 519 
Q 1375 441 1716 441 
Q 2309 441 2620 675 
Q 2931 909 2931 1356 
Q 2931 1769 2642 2001 
Q 2353 2234 1838 2234 
L 1294 2234 
L 1294 2753 
L 1863 2753 
Q 2328 2753 2575 2939 
Q 2822 3125 2822 3475 
Q 2822 3834 2567 4026 
Q 2313 4219 1838 4219 
Q 1578 4219 1281 4162 
Q 984 4106 628 3988 
L 628 4550 
Q 988 4650 1302 4700 
Q 1616 4750 1894 4750 
Q 2613 4750 3031 4423 
Q 3450 4097 3450 3541 
Q 3450 3153 3228 2886 
Q 3006 2619 2597 2516 
z
" transform="scale(0.015625)"/>
       </defs>
       <use xlink:href="#DejaVuSans-33"/>
       <use xlink:href="#DejaVuSans-30" x="63.623047"/>
       <use xlink:href="#DejaVuSans-30" x="127.246094"/>
       <use xlink:href="#DejaVuSans-30" x="190.869141"/>
       <use xlink:href="#DejaVuSans-30" x="254.492188"/>
      </g>
     </g>
    </g>
    <g id="ytick_8">
     <g id="line2d_19">
      <g>
       <use xlink:href="#m9004901d19" x="46.0125" y="73.697291" style="stroke: #000000; stroke-width: 0.8"/>
      </g>
     </g>
     <g id="text_19">
      <!-- 35000 -->
      <g transform="translate(7.2 77.49651)scale(0.1 -0.1)">
       <use xlink:href="#DejaVuSans-33"/>
       <use xlink:href="#DejaVuSans-35" x="63.623047"/>
       <use xlink:href="#DejaVuSans-30" x="127.246094"/>
       <use xlink:href="#DejaVuSans-30" x="190.869141"/>
       <use xlink:href="#DejaVuSans-30" x="254.492188"/>
      </g>
     </g>
    </g>
   </g>
   <g id="line2d_20">
    <path d="M 106.885227 351.527787 
L 174.823539 351.472221 
L 177.541071 351.424593 
L 180.258604 351.527787 
L 181.61737 351.099134 
L 182.976136 351.257895 
L 184.334903 351.11501 
L 187.052435 351.257895 
L 188.411201 350.511721 
L 189.769968 350.321209 
L 191.128734 350.297395 
L 192.4875 349.7973 
L 193.846266 349.59885 
L 195.205032 351.392841 
L 196.563799 350.789552 
L 197.922565 351.162638 
L 199.281331 351.313461 
L 200.640097 351.313461 
L 201.998864 350.87687 
L 203.35763 351.186453 
L 204.716396 350.892746 
L 206.075162 350.972126 
L 207.433929 351.281709 
L 210.151461 350.765738 
L 212.868994 350.980064 
L 214.22776 351.329337 
L 215.586526 350.376775 
L 216.945292 350.741924 
L 218.304058 350.392651 
L 219.662825 350.805428 
L 221.021591 350.741924 
L 223.739123 349.535346 
L 225.09789 350.543473 
L 229.174188 350.178325 
L 230.532955 349.003499 
L 231.891721 349.408337 
L 233.250487 350.408527 
L 234.609253 350.059255 
L 235.968019 349.567098 
L 237.326786 349.91637 
L 238.685552 348.71773 
L 240.044318 349.170197 
L 241.403084 349.114631 
L 242.761851 348.471652 
L 244.120617 347.979495 
L 245.479383 348.058875 
L 246.838149 348.733606 
L 248.196916 349.654416 
L 249.555682 348.162069 
L 250.914448 346.264884 
L 252.273214 347.36033 
L 253.631981 346.804669 
L 254.990747 346.471272 
L 256.349513 345.987053 
L 257.708279 345.780665 
L 259.067045 346.249008 
L 260.425812 345.296446 
L 261.784578 344.931297 
L 263.143344 342.319691 
L 264.50211 344.24069 
L 265.860877 345.43933 
L 267.219643 345.153562 
L 268.578409 342.526079 
L 269.937175 343.685029 
L 271.295942 341.859286 
L 272.654708 341.68465 
L 274.013474 343.335757 
L 275.37224 346.376016 
L 276.731006 338.247489 
L 278.089773 339.890658 
L 279.448539 336.945655 
L 280.807305 337.818837 
L 282.166071 337.906155 
L 283.524838 338.239551 
L 284.883604 339.977977 
L 286.24237 337.929969 
L 287.601136 325.594295 
L 288.959903 330.555554 
L 290.318669 331.373169 
L 291.677435 333.175098 
L 293.036201 330.936578 
L 294.394968 334.762701 
L 295.753734 332.238413 
L 297.1125 326.546857 
L 298.471266 324.863998 
L 299.830032 321.291891 
L 301.188799 317.37845 
L 302.547565 323.784428 
L 303.906331 329.293409 
L 305.265097 319.156565 
L 306.623864 323.919374 
L 307.98263 321.164883 
L 309.341396 312.107609 
L 312.058929 317.489582 
L 313.417695 315.663839 
L 314.776461 306.376362 
L 316.135227 299.303592 
L 317.493994 302.193029 
L 318.85276 294.294705 
L 320.211526 301.248405 
L 321.570292 302.86776 
L 322.929058 296.398279 
L 324.287825 287.03936 
L 325.646591 282.244799 
L 327.005357 279.585565 
L 328.364123 265.376519 
L 329.72289 281.887589 
L 331.081656 280.315862 
L 332.440422 271.083951 
L 333.799188 281.593882 
L 335.157955 242.983381 
L 336.516721 253.509188 
L 337.875487 244.38841 
L 339.234253 255.811212 
L 340.593019 259.811971 
L 341.951786 268.21039 
L 343.310552 250.26254 
L 344.669318 246.968264 
L 346.028084 245.372723 
L 347.386851 246.071269 
L 348.745617 244.769434 
L 350.104383 277.704255 
L 351.463149 286.674211 
L 352.821916 247.142901 
L 354.180682 247.508049 
L 355.539448 240.840117 
L 356.898214 254.652262 
L 358.256981 262.360074 
L 359.615747 295.199639 
L 360.974513 294.120069 
L 362.333279 261.33607 
L 363.692045 263.844482 
L 365.050812 264.098499 
L 366.409578 271.298278 
L 367.768344 286.475761 
L 369.12711 308.845085 
L 370.485877 316.155996 
L 371.844643 283.586324 
L 373.203409 285.586703 
L 374.562175 293.643788 
L 375.920942 290.309822 
L 377.279708 298.573295 
L 378.638474 321.847552 
L 379.99724 331.595434 
L 381.356006 329.221967 
L 382.714773 320.204383 
L 384.073539 301.716748 
L 385.432305 315.703529 
L 386.791071 322.220639 
L 388.149838 331.357293 
L 389.508604 333.603751 
L 390.86737 320.442524 
L 392.226136 320.728292 
L 393.584903 324.554415 
L 394.943669 322.101569 
L 397.661201 338.215737 
L 399.019968 339.088919 
L 400.378734 330.222157 
L 401.7375 331.00802 
L 403.096266 336.874213 
L 404.455032 332.325731 
L 405.813799 331.643062 
L 407.172565 335.770829 
L 408.531331 341.859286 
L 409.890097 332.984586 
L 411.248864 332.317793 
L 412.60763 335.151664 
L 413.966396 337.191734 
L 415.325162 338.56501 
L 416.683929 344.820165 
L 418.042695 342.96267 
L 419.401461 335.731139 
L 420.760227 335.596193 
L 422.118994 335.969279 
L 423.47776 337.112353 
L 424.836526 338.993663 
L 426.195292 343.939046 
L 427.554058 345.39964 
L 428.912825 336.262986 
L 430.271591 334.635693 
L 431.630357 335.215168 
L 432.989123 335.421556 
L 434.34789 339.184175 
L 435.706656 345.772727 
L 437.065422 340.84322 
L 438.424188 336.397932 
L 439.782955 336.755143 
L 441.141721 339.779526 
L 442.500487 343.835851 
L 443.859253 341.462385 
L 445.218019 344.35976 
L 446.576786 344.35976 
L 447.935552 337.501316 
L 449.294318 337.675952 
L 450.653084 337.6442 
L 452.011851 336.580506 
L 453.370617 339.041291 
L 454.729383 344.177186 
L 456.088149 343.375447 
L 457.446916 336.342366 
L 458.805682 337.747395 
L 460.164448 339.930348 
L 461.523214 331.333479 
L 462.881981 339.025415 
L 464.240747 344.478831 
L 465.599513 342.176806 
L 466.958279 336.628135 
L 468.317045 337.477502 
L 469.675812 335.500937 
L 471.034578 336.223296 
L 472.393344 338.334808 
L 473.75211 339.930348 
L 475.110877 343.192872 
L 476.469643 335.215168 
L 477.828409 334.413429 
L 479.187175 336.469374 
L 480.545942 336.969469 
L 481.904708 338.652328 
L 483.263474 344.455017 
L 484.62224 342.859476 
L 485.981006 336.739267 
L 487.339773 335.20723 
L 490.057305 337.477502 
L 491.416071 340.64477 
L 492.774838 345.39964 
L 495.49237 337.937907 
L 496.851136 336.715453 
L 498.209903 337.548944 
L 499.568669 337.787085 
L 500.927435 340.636832 
L 502.286201 341.629083 
L 503.644968 337.802961 
L 505.003734 334.540437 
L 506.3625 332.96871 
L 507.721266 333.960962 
L 509.080032 333.770449 
L 510.438799 336.905965 
L 511.797565 341.644959 
L 513.156331 335.754953 
L 514.515097 328.602802 
L 515.873864 331.571619 
L 517.23263 326.880253 
L 518.591396 330.523802 
L 519.950162 333.508495 
L 521.308929 335.016718 
L 522.667695 331.738318 
L 524.026461 325.729241 
L 525.385227 327.166022 
L 526.743994 324.776679 
L 528.10276 326.142018 
L 529.461526 331.182657 
L 530.820292 333.254478 
L 532.179058 333.310045 
L 533.537825 318.402454 
L 534.896591 316.600525 
L 536.255357 312.377501 
L 537.614123 314.655711 
L 538.97289 318.854921 
L 540.331656 325.229146 
L 541.690422 319.688412 
L 543.049188 298.27165 
L 544.407955 286.705963 
L 545.766721 285.491447 
L 547.125487 288.960359 
L 548.484253 288.031612 
L 549.843019 310.54382 
L 552.560552 272.084141 
L 553.919318 279.08547 
L 555.278084 282.268613 
L 556.636851 264.69385 
L 557.995617 276.553243 
L 559.354383 281.76058 
L 560.713149 276.108714 
L 562.071916 240.03044 
L 563.430682 237.974494 
L 564.789448 234.076929 
L 566.148214 259.827847 
L 568.865747 292.326077 
L 570.224513 275.481611 
L 571.583279 210.945556 
L 572.942045 208.643532 
L 574.300812 218.756562 
L 575.659578 232.441698 
L 577.018344 257.390877 
L 578.37711 251.50087 
L 579.735877 237.141003 
L 581.094643 178.225062 
L 582.453409 184.837427 
L 583.812175 177.050235 
L 585.170942 180.019053 
L 586.529708 213.239642 
L 587.888474 232.092426 
L 589.24724 247.500111 
L 590.606006 204.237934 
L 591.964773 204.650711 
L 593.323539 233.410136 
L 594.682305 240.609915 
L 596.041071 254.152167 
L 597.399838 280.006279 
L 598.758604 273.894008 
L 600.11737 250.635627 
L 601.476136 261.185248 
L 602.834903 258.168802 
L 604.193669 254.120415 
L 605.552435 286.856786 
L 606.911201 315.401885 
L 608.269968 303.574243 
L 609.628734 295.406027 
L 610.9875 294.770986 
L 612.346266 302.780442 
L 613.705032 309.480126 
L 615.063799 315.608273 
L 616.422565 331.301727 
L 617.781331 330.499988 
L 619.140097 319.315326 
L 620.498864 321.752296 
L 621.85763 321.768172 
L 623.216396 326.25315 
L 624.575162 332.198723 
L 625.933929 340.60508 
L 627.292695 337.699766 
L 628.651461 326.4516 
L 630.010227 331.778008 
L 631.368994 329.45217 
L 632.72776 332.619437 
L 635.445292 342.780096 
L 636.804058 341.92279 
L 638.162825 333.111594 
L 639.521591 333.056028 
L 640.880357 336.358242 
L 642.239123 338.112543 
L 643.59789 340.184365 
L 644.956656 345.24088 
L 646.315422 343.605649 
L 647.674188 336.747205 
L 649.032955 338.223675 
L 650.391721 338.398312 
L 651.750487 340.041481 
L 653.109253 342.256187 
L 654.468019 347.034871 
L 655.826786 344.732847 
L 657.185552 340.041481 
L 658.544318 340.382815 
L 661.261851 341.787844 
L 662.620617 344.685219 
L 663.979383 346.463334 
L 665.338149 343.661215 
L 666.696916 339.80334 
L 668.055682 339.827154 
L 669.414448 341.80372 
L 670.773214 339.295307 
L 672.131981 343.542145 
L 673.490747 346.661784 
L 674.849513 344.12162 
L 676.208279 339.374687 
L 677.567045 339.906534 
L 678.925812 339.92241 
L 680.284578 340.589204 
L 681.643344 343.184934 
L 683.00211 346.772917 
L 684.360877 347.4794 
L 687.078409 339.192113 
L 688.437175 339.493758 
L 689.795942 340.517761 
L 692.513474 347.177755 
L 693.87224 345.526648 
L 695.231006 340.239931 
L 696.589773 341.255997 
L 697.948539 341.422695 
L 699.307305 345.35995 
L 700.666071 347.852487 
L 703.383604 348.058875 
L 704.74237 345.526648 
L 706.101136 340.68446 
L 707.459903 341.470323 
L 708.818669 341.327439 
L 710.177435 344.137496 
L 711.536201 346.328388 
L 712.894968 344.804289 
L 714.253734 338.834902 
L 715.6125 340.636832 
L 716.971266 340.224055 
L 718.330032 341.009918 
L 719.688799 342.88329 
L 721.047565 345.621905 
L 722.406331 344.756661 
L 723.765097 339.073043 
L 725.123864 340.311373 
L 726.48263 338.533258 
L 727.841396 340.533637 
L 729.200162 342.788034 
L 730.558929 344.788413 
L 731.917695 344.542335 
L 733.276461 341.605269 
L 734.635227 342.907104 
L 735.993994 338.239551 
L 737.35276 338.572948 
L 738.711526 341.827534 
L 740.070292 344.407388 
L 741.429058 342.105364 
L 742.787825 335.072284 
L 744.146591 334.468995 
L 745.505357 333.619627 
L 746.864123 351.527787 
L 748.22289 320.021809 
L 749.581656 342.565769 
L 750.940422 339.239741 
L 752.299188 329.626806 
L 753.657955 325.959443 
L 755.016721 326.594485 
L 756.375487 329.698248 
L 757.734253 331.00802 
L 759.093019 337.580696 
L 760.451786 332.833764 
L 761.810552 323.570101 
L 763.169318 322.625478 
L 764.528084 325.078324 
L 765.886851 317.902359 
L 767.245617 328.555174 
L 768.604383 332.611499 
L 769.963149 351.527787 
L 771.321916 290.349512 
L 772.680682 316.425888 
L 774.039448 315.21931 
L 775.398214 315.655901 
L 776.756981 351.527787 
L 778.115747 299.557608 
L 779.474513 322.839804 
L 780.833279 305.630189 
L 782.192045 308.980031 
L 783.550812 306.535123 
L 784.909578 308.26561 
L 786.268344 311.258241 
L 787.62711 325.451411 
L 788.985877 318.116685 
L 790.344643 281.030283 
L 791.703409 278.918771 
L 793.062175 287.864913 
L 794.420942 277.553433 
L 795.779708 290.746413 
L 797.138474 307.487684 
L 798.49724 284.5627 
L 799.856006 246.380851 
L 801.214773 258.121174 
L 802.573539 268.099258 
L 803.932305 243.769245 
L 805.291071 247.103211 
L 806.649838 278.815577 
L 808.008604 263.471396 
L 809.36737 212.668105 
L 810.726136 223.900395 
L 812.084903 202.594765 
L 813.443669 208.992804 
L 816.161201 254.509378 
L 817.519968 245.579112 
L 818.878734 196.688883 
L 820.2375 180.193689 
L 821.596266 158.872183 
L 822.955032 141.289482 
L 824.313799 219.875822 
L 825.672565 252.199416 
L 827.031331 228.488567 
L 828.390097 181.439957 
L 829.748864 169.667882 
L 831.10763 173.390811 
L 832.466396 179.987301 
L 835.183929 262.764913 
L 836.542695 252.024779 
L 837.901461 212.699857 
L 839.260227 221.066524 
L 840.618994 225.003779 
L 841.97776 234.831041 
L 843.336526 262.502958 
L 844.695292 294.302643 
L 846.054058 280.657197 
L 847.412825 222.614437 
L 848.771591 233.584772 
L 850.130357 242.626171 
L 851.489123 255.827088 
L 852.84789 274.386165 
L 854.206656 306.543061 
L 855.565422 290.143123 
L 856.924188 214.184266 
L 858.282955 243.364406 
L 859.641721 249.246474 
L 861.000487 252.953527 
L 862.359253 282.228923 
L 863.718019 307.281296 
L 865.076786 280.180916 
L 866.435552 246.245905 
L 867.794318 243.205646 
L 869.153084 244.182021 
L 870.511851 253.810833 
L 871.870617 272.322282 
L 873.229383 297.898563 
L 874.588149 299.613174 
L 875.946916 292.167317 
L 877.305682 238.244387 
L 878.664448 241.062382 
L 880.023214 248.174842 
L 881.381981 271.044261 
L 882.740747 288.15862 
L 884.099513 266.710106 
L 885.458279 234.624652 
L 886.817045 243.007195 
L 888.175812 237.918928 
L 889.534578 246.261781 
L 890.893344 266.210011 
L 892.25211 290.944863 
L 894.969643 246.341161 
L 896.328409 250.151408 
L 897.687175 255.914406 
L 899.045942 270.774369 
L 900.404708 290.087557 
L 901.763474 306.725635 
L 903.12224 295.294895 
L 904.481006 275.76738 
L 905.839773 278.482181 
L 907.198539 278.505995 
L 908.557305 284.769088 
L 909.916071 304.447425 
L 911.274838 318.839045 
L 912.633604 305.717507 
L 913.99237 296.445907 
L 915.351136 301.764376 
L 916.709903 304.82845 
L 918.068669 309.38487 
L 920.786201 330.57143 
L 922.144968 322.165073 
L 923.503734 314.481075 
L 924.8625 318.076995 
L 926.221266 322.569911 
L 927.580032 325.443473 
L 928.938799 333.421177 
L 930.297565 339.589014 
L 931.656331 334.08797 
L 933.015097 327.975699 
L 934.373864 329.436294 
L 935.73263 333.579937 
L 938.450162 343.851727 
L 939.808929 346.939615 
L 941.167695 340.676522 
L 942.526461 351.527787 
L 943.885227 321.490341 
L 945.243994 338.549134 
L 946.60276 341.160741 
L 947.961526 345.105934 
L 949.320292 348.122379 
L 950.679058 345.431392 
L 952.037825 342.407009 
L 953.396591 343.677091 
L 954.755357 344.193062 
L 956.114123 345.050368 
L 957.47289 346.383954 
L 958.831656 349.932246 
L 960.190422 346.828483 
L 961.549188 344.050178 
L 962.907955 344.010488 
L 964.266721 345.709223 
L 965.625487 346.614156 
L 968.343019 349.860804 
L 969.701786 347.939805 
L 971.060552 346.836421 
L 972.419318 347.40002 
L 973.778084 347.423834 
L 975.136851 347.963619 
L 977.854383 350.368837 
L 979.213149 348.900304 
L 980.571916 347.781044 
L 981.930682 347.296826 
L 983.289448 347.75723 
L 984.648214 349.170197 
L 986.006981 349.702044 
L 987.365747 350.686358 
L 988.724513 350.186263 
L 990.083279 348.79711 
L 991.442045 348.995561 
L 994.159578 348.685978 
L 995.518344 349.900494 
L 996.87711 350.606977 
L 998.235877 349.582974 
L 1000.953409 348.701854 
L 1002.312175 348.408148 
L 1003.670942 349.098755 
L 1005.029708 349.448027 
L 1006.388474 350.448217 
L 1007.74724 349.360709 
L 1009.106006 347.034871 
L 1010.464773 346.884049 
L 1011.823539 345.264694 
L 1013.182305 344.486769 
L 1014.541071 346.074371 
L 1015.899838 349.051127 
L 1017.258604 203.991856 
L 1018.61737 341.406819 
L 1019.976136 331.960582 
L 1022.693669 325.967381 
L 1024.052435 328.840943 
L 1025.411201 333.484681 
L 1026.769968 316.814851 
L 1028.128734 283.570448 
L 1029.4875 259.962794 
L 1030.846266 224.082969 
L 1032.205032 221.614247 
L 1033.563799 263.217379 
L 1034.922565 300.875319 
L 1037.640097 194.02171 
L 1038.998864 173.811526 
L 1040.35763 200.570571 
L 1041.716396 215.36703 
L 1043.075162 50.8755 
L 1044.433929 246.047455 
L 1045.792695 162.150583 
L 1047.151461 142.051531 
L 1048.510227 154.784106 
L 1049.868994 187.107699 
L 1051.22776 223.884519 
L 1052.586526 228.766398 
L 1053.945292 283.967348 
L 1055.304058 229.099794 
L 1056.662825 184.051564 
L 1058.021591 183.591159 
L 1059.380357 201.920034 
L 1060.739123 233.822913 
L 1062.09789 307.051094 
L 1063.456656 321.53797 
L 1064.815422 294.247077 
L 1066.174188 279.926899 
L 1067.532955 248.508239 
L 1068.891721 258.224368 
L 1070.250487 273.790814 
L 1071.609253 316.941859 
L 1072.968019 327.110456 
L 1074.326786 287.404509 
L 1075.685552 263.368202 
L 1077.044318 273.274843 
L 1078.403084 278.029714 
L 1079.761851 289.936735 
L 1081.120617 315.949608 
L 1082.479383 332.405111 
L 1083.838149 306.535123 
L 1085.196916 297.866811 
L 1086.555682 304.558557 
L 1089.273214 315.092302 
L 1090.631981 330.420607 
L 1091.990747 338.596762 
L 1093.349513 322.498469 
L 1094.708279 351.527787 
L 1096.067045 285.785154 
L 1097.425812 323.593915 
L 1098.784578 327.324782 
L 1100.143344 336.199482 
L 1101.50211 340.954352 
L 1102.860877 326.149956 
L 1104.219643 315.719405 
L 1105.578409 318.981929 
L 1106.937175 321.450651 
L 1108.295942 324.998944 
L 1109.654708 333.857768 
L 1111.013474 340.68446 
L 1112.37224 327.039013 
L 1113.731006 315.790847 
L 1115.089773 325.602233 
L 1116.448539 351.527787 
L 1117.807305 302.82807 
L 1119.166071 337.620386 
L 1120.524838 341.779906 
L 1121.883604 344.986863 
L 1123.24237 306.852643 
L 1124.601136 326.37222 
L 1125.959903 328.809191 
L 1127.318669 331.77007 
L 1128.677435 338.438002 
L 1130.036201 342.8436 
L 1132.753734 322.165073 
L 1134.1125 327.269216 
L 1135.471266 329.301347 
L 1136.830032 333.532309 
L 1138.188799 339.970038 
L 1139.547565 342.391133 
L 1140.906331 333.000462 
L 1142.265097 326.784997 
L 1143.623864 332.389235 
L 1144.98263 334.770639 
L 1146.341396 333.111594 
L 1147.700162 341.478261 
L 1149.058929 345.296446 
L 1150.417695 338.438002 
L 1151.776461 335.691449 
L 1153.135227 336.818647 
L 1154.493994 336.461436 
L 1155.85276 337.755333 
L 1157.211526 342.422885 
L 1158.570292 345.169438 
L 1159.929058 340.128799 
L 1161.287825 336.707515 
L 1162.646591 336.699577 
L 1164.005357 338.263365 
L 1165.364123 339.065105 
L 1166.72289 343.812037 
L 1168.081656 346.20138 
L 1169.440422 338.44594 
L 1170.799188 335.810519 
L 1172.157955 338.183985 
L 1173.516721 339.160361 
L 1174.875487 341.311563 
L 1176.234253 344.470893 
L 1177.593019 347.034871 
L 1178.951786 344.288318 
L 1180.310552 340.470133 
L 1181.669318 334.699197 
L 1183.028084 339.168299 
L 1184.386851 339.64458 
L 1185.745617 343.677091 
L 1187.104383 346.915801 
L 1188.463149 339.168299 
L 1189.821916 338.215737 
L 1191.180682 336.556692 
L 1192.539448 351.527787 
L 1193.898214 351.527787 
L 1195.256981 319.767792 
L 1196.615747 351.527787 
L 1197.974513 333.881582 
L 1199.333279 335.40568 
L 1200.692045 339.771588 
L 1202.050812 340.597142 
L 1203.409578 342.152992 
L 1204.768344 344.955111 
L 1206.12711 347.138065 
L 1207.485877 341.279811 
L 1208.844643 338.358622 
L 1210.203409 337.493378 
L 1211.562175 336.874213 
L 1212.920942 341.954542 
L 1214.279708 344.923359 
L 1215.638474 344.566149 
L 1216.99724 339.819216 
L 1218.356006 328.967951 
L 1219.714773 316.552897 
L 1221.073539 314.782719 
L 1222.432305 317.949987 
L 1223.791071 325.951505 
L 1225.149838 336.016907 
L 1226.508604 311.345559 
L 1227.86737 300.954699 
L 1229.226136 318.61678 
L 1231.943669 306.06678 
L 1233.302435 314.711277 
L 1234.661201 330.49205 
L 1236.019968 321.482403 
L 1237.378734 302.55024 
L 1238.7375 274.076583 
L 1240.096266 278.077342 
L 1241.455032 283.864154 
L 1242.813799 307.979841 
L 1244.172565 325.832435 
L 1245.531331 291.810106 
L 1246.890097 272.012699 
L 1248.248864 280.720701 
L 1249.60763 285.253307 
L 1250.966396 287.904603 
L 1252.325162 317.045054 
L 1253.683929 328.094769 
L 1255.042695 311.075667 
L 1256.401461 286.602769 
L 1257.760227 351.527787 
L 1259.118994 243.4676 
L 1260.47776 311.686894 
L 1261.836526 325.967381 
L 1263.195292 338.334808 
L 1264.554058 317.973801 
L 1265.912825 309.58332 
L 1267.271591 321.363333 
L 1268.630357 325.538729 
L 1269.989123 319.188317 
L 1271.34789 337.44575 
L 1272.706656 343.558021 
L 1274.065422 329.253719 
L 1275.424188 330.515864 
L 1276.782955 327.951885 
L 1278.141721 335.429494 
L 1279.500487 338.382436 
L 1280.859253 342.581645 
L 1282.218019 351.527787 
L 1283.576786 329.396604 
L 1284.935552 334.913523 
L 1286.294318 335.842271 
L 1287.653084 338.898407 
L 1289.011851 343.788223 
L 1290.370617 343.891417 
L 1291.729383 347.273012 
L 1293.088149 345.891797 
L 1294.446916 336.421746 
L 1295.805682 336.159792 
L 1298.523214 351.527787 
L 1299.881981 336.008969 
L 1301.240747 349.217825 
L 1302.599513 351.527787 
L 1303.958279 334.738887 
L 1305.317045 343.192872 
L 1306.675812 344.018426 
L 1306.675812 344.018426 
" clip-path="url(#pbcbad4a980)" style="fill: none; stroke: #0000ff; stroke-width: 1.5; stroke-linecap: square"/>
   </g>
   <g id="line2d_21">
    <path d="M 1067.532955 271.566526 
L 1068.891721 284.160099 
L 1070.250487 294.374455 
L 1071.609253 336.111841 
L 1072.968019 302.774255 
L 1074.326786 280.345857 
L 1075.685552 261.584337 
L 1078.403084 291.299095 
L 1081.120617 333.189062 
L 1082.479383 304.763521 
L 1083.838149 289.538897 
L 1085.196916 291.150597 
L 1086.555682 303.228754 
L 1087.914448 317.251909 
L 1089.273214 336.125104 
L 1090.631981 348.542737 
L 1091.990747 321.601585 
L 1093.349513 311.238489 
L 1094.708279 330.171408 
L 1096.067045 315.71833 
L 1097.425812 326.293302 
L 1098.784578 341.669181 
L 1100.143344 349.338986 
L 1101.50211 329.140885 
L 1102.860877 332.795247 
L 1104.219643 303.020382 
L 1105.578409 325.567166 
L 1106.937175 328.524201 
L 1108.295942 337.296287 
L 1109.654708 342.313873 
L 1111.013474 328.440568 
L 1112.37224 326.576148 
L 1113.731006 312.233917 
L 1116.448539 340.9209 
L 1117.807305 332.385324 
L 1119.166071 340.20141 
L 1120.524838 329.763577 
L 1121.883604 331.863538 
L 1123.24237 319.734526 
L 1124.601136 335.743873 
L 1125.959903 317.398065 
L 1127.318669 339.72899 
L 1128.677435 343.291907 
L 1130.036201 338.846245 
L 1131.394968 320.668226 
L 1134.1125 334.614662 
L 1135.471266 325.935896 
L 1136.830032 339.335321 
L 1138.188799 343.144471 
L 1139.547565 337.238991 
L 1140.906331 324.189997 
L 1142.265097 330.116373 
L 1143.623864 335.286273 
L 1144.98263 333.469416 
L 1146.341396 340.434296 
L 1147.700162 343.44147 
L 1149.058929 338.27426 
L 1150.417695 330.764756 
L 1151.776461 337.187513 
L 1153.135227 339.876835 
L 1154.493994 337.038841 
L 1155.85276 343.714663 
L 1157.211526 345.718513 
L 1158.570292 340.195775 
L 1159.929058 335.546248 
L 1161.287825 338.510414 
L 1162.646591 338.971914 
L 1164.005357 338.464243 
L 1165.364123 343.43048 
L 1166.72289 345.796602 
L 1168.081656 341.659866 
L 1169.440422 336.83151 
L 1170.799188 337.57012 
L 1172.157955 338.988617 
L 1173.516721 339.247912 
L 1174.875487 344.078734 
L 1176.234253 346.147207 
L 1177.593019 341.740102 
L 1178.951786 340.275268 
L 1180.310552 341.761683 
L 1181.669318 339.579093 
L 1183.028084 340.241194 
L 1184.386851 342.98356 
L 1185.745617 345.098578 
L 1187.104383 342.61605 
L 1188.463149 338.53393 
L 1189.821916 337.053888 
L 1191.180682 338.832832 
L 1193.898214 350.672837 
L 1195.256981 339.204269 
L 1196.615747 340.28782 
L 1197.974513 335.916333 
L 1199.333279 334.465997 
L 1200.692045 342.977872 
L 1202.050812 342.216233 
L 1203.409578 332.463892 
L 1204.768344 349.98524 
L 1206.12711 340.502278 
L 1207.485877 340.612384 
L 1208.844643 340.563535 
L 1210.203409 342.505947 
L 1211.562175 340.727737 
L 1212.920942 337.54751 
L 1214.279708 347.356468 
L 1215.638474 340.112474 
L 1216.99724 338.852636 
L 1218.356006 334.690754 
L 1219.714773 328.149344 
L 1222.432305 320.845656 
L 1223.791071 326.130026 
L 1225.149838 325.871481 
L 1227.86737 304.716973 
L 1229.226136 310.819262 
L 1230.584903 313.545601 
L 1231.943669 312.717546 
L 1233.302435 318.582766 
L 1234.661201 312.94292 
L 1236.019968 310.93757 
L 1237.378734 311.394832 
L 1238.7375 292.899444 
L 1240.096266 285.315667 
L 1241.455032 288.880064 
L 1242.813799 305.138411 
L 1244.172565 305.781719 
L 1246.890097 274.358103 
L 1248.248864 277.458305 
L 1249.60763 282.33974 
L 1250.966396 295.225101 
L 1252.325162 314.810535 
L 1253.683929 304.660831 
L 1255.042695 296.004254 
L 1256.401461 291.101927 
L 1257.760227 319.19277 
L 1259.118994 287.81561 
L 1260.47776 313.463406 
L 1261.836526 327.641512 
L 1263.195292 318.65664 
L 1264.554058 304.271878 
L 1265.912825 328.902306 
L 1267.271591 288.671246 
L 1268.630357 329.394247 
L 1269.989123 337.294374 
L 1271.34789 345.897497 
L 1272.706656 331.168951 
L 1274.065422 320.598959 
L 1275.424188 339.815328 
L 1276.782955 318.266387 
L 1278.141721 335.42903 
L 1279.500487 349.063437 
L 1280.859253 352.495894 
L 1282.218019 340.453822 
L 1283.576786 331.373807 
L 1284.935552 339.21046 
L 1286.294318 332.450373 
L 1289.011851 349.626423 
L 1290.370617 353.2755 
L 1291.729383 337.309699 
L 1293.088149 340.925037 
L 1294.446916 342.324376 
L 1295.805682 338.150328 
L 1298.523214 351.518108 
L 1299.881981 348.906825 
L 1301.240747 342.115052 
L 1302.599513 342.846874 
L 1303.958279 340.843401 
L 1305.317045 343.828968 
L 1306.675812 348.761985 
L 1306.675812 348.761985 
" clip-path="url(#pbcbad4a980)" style="fill: none; stroke: #ffa500; stroke-width: 1.5; stroke-linecap: square"/>
   </g>
   <g id="line2d_22">
    <path d="M 1306.675812 348.761985 
L 1308.034578 345.084608 
L 1309.393344 351.707542 
L 1310.75211 349.170813 
L 1312.110877 341.672093 
L 1313.469643 345.367782 
L 1314.828409 346.60323 
L 1316.187175 350.603589 
L 1317.545942 347.542356 
L 1318.904708 353.055617 
L 1320.263474 350.943917 
L 1321.62224 344.701609 
L 1322.981006 347.778085 
L 1324.339773 348.806534 
" clip-path="url(#pbcbad4a980)" style="fill: none; stroke: #ff0000; stroke-width: 1.5; stroke-linecap: square"/>
   </g>
   <g id="patch_3">
    <path d="M 46.0125 368.3955 
L 46.0125 35.7555 
" style="fill: none; stroke: #000000; stroke-width: 0.8; stroke-linejoin: miter; stroke-linecap: square"/>
   </g>
   <g id="patch_4">
    <path d="M 1385.2125 368.3955 
L 1385.2125 35.7555 
" style="fill: none; stroke: #000000; stroke-width: 0.8; stroke-linejoin: miter; stroke-linecap: square"/>
   </g>
   <g id="patch_5">
    <path d="M 46.0125 368.3955 
L 1385.2125 368.3955 
" style="fill: none; stroke: #000000; stroke-width: 0.8; stroke-linejoin: miter; stroke-linecap: square"/>
   </g>
   <g id="patch_6">
    <path d="M 46.0125 35.7555 
L 1385.2125 35.7555 
" style="fill: none; stroke: #000000; stroke-width: 0.8; stroke-linejoin: miter; stroke-linecap: square"/>
   </g>
   <g id="text_20">
    <!-- Daily Confirmed Cases Forecasting - South Africa -->
    <g transform="translate(568.659375 16.318125)scale(0.12 -0.12)">
     <defs>
      <path id="DejaVuSans-44" d="M 1259 4147 
L 1259 519 
L 2022 519 
Q 2988 519 3436 956 
Q 3884 1394 3884 2338 
Q 3884 3275 3436 3711 
Q 2988 4147 2022 4147 
L 1259 4147 
z
M 628 4666 
L 1925 4666 
Q 3281 4666 3915 4102 
Q 4550 3538 4550 2338 
Q 4550 1131 3912 565 
Q 3275 0 1925 0 
L 628 0 
L 628 4666 
z
" transform="scale(0.015625)"/>
      <path id="DejaVuSans-61" d="M 2194 1759 
Q 1497 1759 1228 1600 
Q 959 1441 959 1056 
Q 959 750 1161 570 
Q 1363 391 1709 391 
Q 2188 391 2477 730 
Q 2766 1069 2766 1631 
L 2766 1759 
L 2194 1759 
z
M 3341 1997 
L 3341 0 
L 2766 0 
L 2766 531 
Q 2569 213 2275 61 
Q 1981 -91 1556 -91 
Q 1019 -91 701 211 
Q 384 513 384 1019 
Q 384 1609 779 1909 
Q 1175 2209 1959 2209 
L 2766 2209 
L 2766 2266 
Q 2766 2663 2505 2880 
Q 2244 3097 1772 3097 
Q 1472 3097 1187 3025 
Q 903 2953 641 2809 
L 641 3341 
Q 956 3463 1253 3523 
Q 1550 3584 1831 3584 
Q 2591 3584 2966 3190 
Q 3341 2797 3341 1997 
z
" transform="scale(0.015625)"/>
      <path id="DejaVuSans-69" d="M 603 3500 
L 1178 3500 
L 1178 0 
L 603 0 
L 603 3500 
z
M 603 4863 
L 1178 4863 
L 1178 4134 
L 603 4134 
L 603 4863 
z
" transform="scale(0.015625)"/>
      <path id="DejaVuSans-6c" d="M 603 4863 
L 1178 4863 
L 1178 0 
L 603 0 
L 603 4863 
z
" transform="scale(0.015625)"/>
      <path id="DejaVuSans-79" d="M 2059 -325 
Q 1816 -950 1584 -1140 
Q 1353 -1331 966 -1331 
L 506 -1331 
L 506 -850 
L 844 -850 
Q 1081 -850 1212 -737 
Q 1344 -625 1503 -206 
L 1606 56 
L 191 3500 
L 800 3500 
L 1894 763 
L 2988 3500 
L 3597 3500 
L 2059 -325 
z
" transform="scale(0.015625)"/>
      <path id="DejaVuSans-20" transform="scale(0.015625)"/>
      <path id="DejaVuSans-43" d="M 4122 4306 
L 4122 3641 
Q 3803 3938 3442 4084 
Q 3081 4231 2675 4231 
Q 1875 4231 1450 3742 
Q 1025 3253 1025 2328 
Q 1025 1406 1450 917 
Q 1875 428 2675 428 
Q 3081 428 3442 575 
Q 3803 722 4122 1019 
L 4122 359 
Q 3791 134 3420 21 
Q 3050 -91 2638 -91 
Q 1578 -91 968 557 
Q 359 1206 359 2328 
Q 359 3453 968 4101 
Q 1578 4750 2638 4750 
Q 3056 4750 3426 4639 
Q 3797 4528 4122 4306 
z
" transform="scale(0.015625)"/>
      <path id="DejaVuSans-6f" d="M 1959 3097 
Q 1497 3097 1228 2736 
Q 959 2375 959 1747 
Q 959 1119 1226 758 
Q 1494 397 1959 397 
Q 2419 397 2687 759 
Q 2956 1122 2956 1747 
Q 2956 2369 2687 2733 
Q 2419 3097 1959 3097 
z
M 1959 3584 
Q 2709 3584 3137 3096 
Q 3566 2609 3566 1747 
Q 3566 888 3137 398 
Q 2709 -91 1959 -91 
Q 1206 -91 779 398 
Q 353 888 353 1747 
Q 353 2609 779 3096 
Q 1206 3584 1959 3584 
z
" transform="scale(0.015625)"/>
      <path id="DejaVuSans-6e" d="M 3513 2113 
L 3513 0 
L 2938 0 
L 2938 2094 
Q 2938 2591 2744 2837 
Q 2550 3084 2163 3084 
Q 1697 3084 1428 2787 
Q 1159 2491 1159 1978 
L 1159 0 
L 581 0 
L 581 3500 
L 1159 3500 
L 1159 2956 
Q 1366 3272 1645 3428 
Q 1925 3584 2291 3584 
Q 2894 3584 3203 3211 
Q 3513 2838 3513 2113 
z
" transform="scale(0.015625)"/>
      <path id="DejaVuSans-66" d="M 2375 4863 
L 2375 4384 
L 1825 4384 
Q 1516 4384 1395 4259 
Q 1275 4134 1275 3809 
L 1275 3500 
L 2222 3500 
L 2222 3053 
L 1275 3053 
L 1275 0 
L 697 0 
L 697 3053 
L 147 3053 
L 147 3500 
L 697 3500 
L 697 3744 
Q 697 4328 969 4595 
Q 1241 4863 1831 4863 
L 2375 4863 
z
" transform="scale(0.015625)"/>
      <path id="DejaVuSans-72" d="M 2631 2963 
Q 2534 3019 2420 3045 
Q 2306 3072 2169 3072 
Q 1681 3072 1420 2755 
Q 1159 2438 1159 1844 
L 1159 0 
L 581 0 
L 581 3500 
L 1159 3500 
L 1159 2956 
Q 1341 3275 1631 3429 
Q 1922 3584 2338 3584 
Q 2397 3584 2469 3576 
Q 2541 3569 2628 3553 
L 2631 2963 
z
" transform="scale(0.015625)"/>
      <path id="DejaVuSans-6d" d="M 3328 2828 
Q 3544 3216 3844 3400 
Q 4144 3584 4550 3584 
Q 5097 3584 5394 3201 
Q 5691 2819 5691 2113 
L 5691 0 
L 5113 0 
L 5113 2094 
Q 5113 2597 4934 2840 
Q 4756 3084 4391 3084 
Q 3944 3084 3684 2787 
Q 3425 2491 3425 1978 
L 3425 0 
L 2847 0 
L 2847 2094 
Q 2847 2600 2669 2842 
Q 2491 3084 2119 3084 
Q 1678 3084 1418 2786 
Q 1159 2488 1159 1978 
L 1159 0 
L 581 0 
L 581 3500 
L 1159 3500 
L 1159 2956 
Q 1356 3278 1631 3431 
Q 1906 3584 2284 3584 
Q 2666 3584 2933 3390 
Q 3200 3197 3328 2828 
z
" transform="scale(0.015625)"/>
      <path id="DejaVuSans-65" d="M 3597 1894 
L 3597 1613 
L 953 1613 
Q 991 1019 1311 708 
Q 1631 397 2203 397 
Q 2534 397 2845 478 
Q 3156 559 3463 722 
L 3463 178 
Q 3153 47 2828 -22 
Q 2503 -91 2169 -91 
Q 1331 -91 842 396 
Q 353 884 353 1716 
Q 353 2575 817 3079 
Q 1281 3584 2069 3584 
Q 2775 3584 3186 3129 
Q 3597 2675 3597 1894 
z
M 3022 2063 
Q 3016 2534 2758 2815 
Q 2500 3097 2075 3097 
Q 1594 3097 1305 2825 
Q 1016 2553 972 2059 
L 3022 2063 
z
" transform="scale(0.015625)"/>
      <path id="DejaVuSans-64" d="M 2906 2969 
L 2906 4863 
L 3481 4863 
L 3481 0 
L 2906 0 
L 2906 525 
Q 2725 213 2448 61 
Q 2172 -91 1784 -91 
Q 1150 -91 751 415 
Q 353 922 353 1747 
Q 353 2572 751 3078 
Q 1150 3584 1784 3584 
Q 2172 3584 2448 3432 
Q 2725 3281 2906 2969 
z
M 947 1747 
Q 947 1113 1208 752 
Q 1469 391 1925 391 
Q 2381 391 2643 752 
Q 2906 1113 2906 1747 
Q 2906 2381 2643 2742 
Q 2381 3103 1925 3103 
Q 1469 3103 1208 2742 
Q 947 2381 947 1747 
z
" transform="scale(0.015625)"/>
      <path id="DejaVuSans-73" d="M 2834 3397 
L 2834 2853 
Q 2591 2978 2328 3040 
Q 2066 3103 1784 3103 
Q 1356 3103 1142 2972 
Q 928 2841 928 2578 
Q 928 2378 1081 2264 
Q 1234 2150 1697 2047 
L 1894 2003 
Q 2506 1872 2764 1633 
Q 3022 1394 3022 966 
Q 3022 478 2636 193 
Q 2250 -91 1575 -91 
Q 1294 -91 989 -36 
Q 684 19 347 128 
L 347 722 
Q 666 556 975 473 
Q 1284 391 1588 391 
Q 1994 391 2212 530 
Q 2431 669 2431 922 
Q 2431 1156 2273 1281 
Q 2116 1406 1581 1522 
L 1381 1569 
Q 847 1681 609 1914 
Q 372 2147 372 2553 
Q 372 3047 722 3315 
Q 1072 3584 1716 3584 
Q 2034 3584 2315 3537 
Q 2597 3491 2834 3397 
z
" transform="scale(0.015625)"/>
      <path id="DejaVuSans-46" d="M 628 4666 
L 3309 4666 
L 3309 4134 
L 1259 4134 
L 1259 2759 
L 3109 2759 
L 3109 2228 
L 1259 2228 
L 1259 0 
L 628 0 
L 628 4666 
z
" transform="scale(0.015625)"/>
      <path id="DejaVuSans-63" d="M 3122 3366 
L 3122 2828 
Q 2878 2963 2633 3030 
Q 2388 3097 2138 3097 
Q 1578 3097 1268 2742 
Q 959 2388 959 1747 
Q 959 1106 1268 751 
Q 1578 397 2138 397 
Q 2388 397 2633 464 
Q 2878 531 3122 666 
L 3122 134 
Q 2881 22 2623 -34 
Q 2366 -91 2075 -91 
Q 1284 -91 818 406 
Q 353 903 353 1747 
Q 353 2603 823 3093 
Q 1294 3584 2113 3584 
Q 2378 3584 2631 3529 
Q 2884 3475 3122 3366 
z
" transform="scale(0.015625)"/>
      <path id="DejaVuSans-74" d="M 1172 4494 
L 1172 3500 
L 2356 3500 
L 2356 3053 
L 1172 3053 
L 1172 1153 
Q 1172 725 1289 603 
Q 1406 481 1766 481 
L 2356 481 
L 2356 0 
L 1766 0 
Q 1100 0 847 248 
Q 594 497 594 1153 
L 594 3053 
L 172 3053 
L 172 3500 
L 594 3500 
L 594 4494 
L 1172 4494 
z
" transform="scale(0.015625)"/>
      <path id="DejaVuSans-67" d="M 2906 1791 
Q 2906 2416 2648 2759 
Q 2391 3103 1925 3103 
Q 1463 3103 1205 2759 
Q 947 2416 947 1791 
Q 947 1169 1205 825 
Q 1463 481 1925 481 
Q 2391 481 2648 825 
Q 2906 1169 2906 1791 
z
M 3481 434 
Q 3481 -459 3084 -895 
Q 2688 -1331 1869 -1331 
Q 1566 -1331 1297 -1286 
Q 1028 -1241 775 -1147 
L 775 -588 
Q 1028 -725 1275 -790 
Q 1522 -856 1778 -856 
Q 2344 -856 2625 -561 
Q 2906 -266 2906 331 
L 2906 616 
Q 2728 306 2450 153 
Q 2172 0 1784 0 
Q 1141 0 747 490 
Q 353 981 353 1791 
Q 353 2603 747 3093 
Q 1141 3584 1784 3584 
Q 2172 3584 2450 3431 
Q 2728 3278 2906 2969 
L 2906 3500 
L 3481 3500 
L 3481 434 
z
" transform="scale(0.015625)"/>
      <path id="DejaVuSans-53" d="M 3425 4513 
L 3425 3897 
Q 3066 4069 2747 4153 
Q 2428 4238 2131 4238 
Q 1616 4238 1336 4038 
Q 1056 3838 1056 3469 
Q 1056 3159 1242 3001 
Q 1428 2844 1947 2747 
L 2328 2669 
Q 3034 2534 3370 2195 
Q 3706 1856 3706 1288 
Q 3706 609 3251 259 
Q 2797 -91 1919 -91 
Q 1588 -91 1214 -16 
Q 841 59 441 206 
L 441 856 
Q 825 641 1194 531 
Q 1563 422 1919 422 
Q 2459 422 2753 634 
Q 3047 847 3047 1241 
Q 3047 1584 2836 1778 
Q 2625 1972 2144 2069 
L 1759 2144 
Q 1053 2284 737 2584 
Q 422 2884 422 3419 
Q 422 4038 858 4394 
Q 1294 4750 2059 4750 
Q 2388 4750 2728 4690 
Q 3069 4631 3425 4513 
z
" transform="scale(0.015625)"/>
      <path id="DejaVuSans-75" d="M 544 1381 
L 544 3500 
L 1119 3500 
L 1119 1403 
Q 1119 906 1312 657 
Q 1506 409 1894 409 
Q 2359 409 2629 706 
Q 2900 1003 2900 1516 
L 2900 3500 
L 3475 3500 
L 3475 0 
L 2900 0 
L 2900 538 
Q 2691 219 2414 64 
Q 2138 -91 1772 -91 
Q 1169 -91 856 284 
Q 544 659 544 1381 
z
M 1991 3584 
L 1991 3584 
z
" transform="scale(0.015625)"/>
      <path id="DejaVuSans-68" d="M 3513 2113 
L 3513 0 
L 2938 0 
L 2938 2094 
Q 2938 2591 2744 2837 
Q 2550 3084 2163 3084 
Q 1697 3084 1428 2787 
Q 1159 2491 1159 1978 
L 1159 0 
L 581 0 
L 581 4863 
L 1159 4863 
L 1159 2956 
Q 1366 3272 1645 3428 
Q 1925 3584 2291 3584 
Q 2894 3584 3203 3211 
Q 3513 2838 3513 2113 
z
" transform="scale(0.015625)"/>
      <path id="DejaVuSans-41" d="M 2188 4044 
L 1331 1722 
L 3047 1722 
L 2188 4044 
z
M 1831 4666 
L 2547 4666 
L 4325 0 
L 3669 0 
L 3244 1197 
L 1141 1197 
L 716 0 
L 50 0 
L 1831 4666 
z
" transform="scale(0.015625)"/>
     </defs>
     <use xlink:href="#DejaVuSans-44"/>
     <use xlink:href="#DejaVuSans-61" x="77.001953"/>
     <use xlink:href="#DejaVuSans-69" x="138.28125"/>
     <use xlink:href="#DejaVuSans-6c" x="166.064453"/>
     <use xlink:href="#DejaVuSans-79" x="193.847656"/>
     <use xlink:href="#DejaVuSans-20" x="253.027344"/>
     <use xlink:href="#DejaVuSans-43" x="284.814453"/>
     <use xlink:href="#DejaVuSans-6f" x="354.638672"/>
     <use xlink:href="#DejaVuSans-6e" x="415.820312"/>
     <use xlink:href="#DejaVuSans-66" x="479.199219"/>
     <use xlink:href="#DejaVuSans-69" x="514.404297"/>
     <use xlink:href="#DejaVuSans-72" x="542.1875"/>
     <use xlink:href="#DejaVuSans-6d" x="581.550781"/>
     <use xlink:href="#DejaVuSans-65" x="678.962891"/>
     <use xlink:href="#DejaVuSans-64" x="740.486328"/>
     <use xlink:href="#DejaVuSans-20" x="803.962891"/>
     <use xlink:href="#DejaVuSans-43" x="835.75"/>
     <use xlink:href="#DejaVuSans-61" x="905.574219"/>
     <use xlink:href="#DejaVuSans-73" x="966.853516"/>
     <use xlink:href="#DejaVuSans-65" x="1018.953125"/>
     <use xlink:href="#DejaVuSans-73" x="1080.476562"/>
     <use xlink:href="#DejaVuSans-20" x="1132.576172"/>
     <use xlink:href="#DejaVuSans-46" x="1164.363281"/>
     <use xlink:href="#DejaVuSans-6f" x="1218.257812"/>
     <use xlink:href="#DejaVuSans-72" x="1279.439453"/>
     <use xlink:href="#DejaVuSans-65" x="1318.302734"/>
     <use xlink:href="#DejaVuSans-63" x="1379.826172"/>
     <use xlink:href="#DejaVuSans-61" x="1434.806641"/>
     <use xlink:href="#DejaVuSans-73" x="1496.085938"/>
     <use xlink:href="#DejaVuSans-74" x="1548.185547"/>
     <use xlink:href="#DejaVuSans-69" x="1587.394531"/>
     <use xlink:href="#DejaVuSans-6e" x="1615.177734"/>
     <use xlink:href="#DejaVuSans-67" x="1678.556641"/>
     <use xlink:href="#DejaVuSans-20" x="1742.033203"/>
     <use xlink:href="#DejaVuSans-2d" x="1773.820312"/>
     <use xlink:href="#DejaVuSans-20" x="1809.904297"/>
     <use xlink:href="#DejaVuSans-53" x="1841.691406"/>
     <use xlink:href="#DejaVuSans-6f" x="1905.167969"/>
     <use xlink:href="#DejaVuSans-75" x="1966.349609"/>
     <use xlink:href="#DejaVuSans-74" x="2029.728516"/>
     <use xlink:href="#DejaVuSans-68" x="2068.9375"/>
     <use xlink:href="#DejaVuSans-20" x="2132.316406"/>
     <use xlink:href="#DejaVuSans-41" x="2164.103516"/>
     <use xlink:href="#DejaVuSans-66" x="2228.886719"/>
     <use xlink:href="#DejaVuSans-72" x="2264.091797"/>
     <use xlink:href="#DejaVuSans-69" x="2305.205078"/>
     <use xlink:href="#DejaVuSans-63" x="2332.988281"/>
     <use xlink:href="#DejaVuSans-61" x="2387.96875"/>
    </g>
    <!-- ARIMA (0, 1, 1)x(1, 0, 1, 7) (R2 = 0.737371) -->
    <g transform="translate(583.628438 29.7555)scale(0.12 -0.12)">
     <defs>
      <path id="DejaVuSans-52" d="M 2841 2188 
Q 3044 2119 3236 1894 
Q 3428 1669 3622 1275 
L 4263 0 
L 3584 0 
L 2988 1197 
Q 2756 1666 2539 1819 
Q 2322 1972 1947 1972 
L 1259 1972 
L 1259 0 
L 628 0 
L 628 4666 
L 2053 4666 
Q 2853 4666 3247 4331 
Q 3641 3997 3641 3322 
Q 3641 2881 3436 2590 
Q 3231 2300 2841 2188 
z
M 1259 4147 
L 1259 2491 
L 2053 2491 
Q 2509 2491 2742 2702 
Q 2975 2913 2975 3322 
Q 2975 3731 2742 3939 
Q 2509 4147 2053 4147 
L 1259 4147 
z
" transform="scale(0.015625)"/>
      <path id="DejaVuSans-49" d="M 628 4666 
L 1259 4666 
L 1259 0 
L 628 0 
L 628 4666 
z
" transform="scale(0.015625)"/>
      <path id="DejaVuSans-4d" d="M 628 4666 
L 1569 4666 
L 2759 1491 
L 3956 4666 
L 4897 4666 
L 4897 0 
L 4281 0 
L 4281 4097 
L 3078 897 
L 2444 897 
L 1241 4097 
L 1241 0 
L 628 0 
L 628 4666 
z
" transform="scale(0.015625)"/>
      <path id="DejaVuSans-28" d="M 1984 4856 
Q 1566 4138 1362 3434 
Q 1159 2731 1159 2009 
Q 1159 1288 1364 580 
Q 1569 -128 1984 -844 
L 1484 -844 
Q 1016 -109 783 600 
Q 550 1309 550 2009 
Q 550 2706 781 3412 
Q 1013 4119 1484 4856 
L 1984 4856 
z
" transform="scale(0.015625)"/>
      <path id="DejaVuSans-2c" d="M 750 794 
L 1409 794 
L 1409 256 
L 897 -744 
L 494 -744 
L 750 256 
L 750 794 
z
" transform="scale(0.015625)"/>
      <path id="DejaVuSans-29" d="M 513 4856 
L 1013 4856 
Q 1481 4119 1714 3412 
Q 1947 2706 1947 2009 
Q 1947 1309 1714 600 
Q 1481 -109 1013 -844 
L 513 -844 
Q 928 -128 1133 580 
Q 1338 1288 1338 2009 
Q 1338 2731 1133 3434 
Q 928 4138 513 4856 
z
" transform="scale(0.015625)"/>
      <path id="DejaVuSans-78" d="M 3513 3500 
L 2247 1797 
L 3578 0 
L 2900 0 
L 1881 1375 
L 863 0 
L 184 0 
L 1544 1831 
L 300 3500 
L 978 3500 
L 1906 2253 
L 2834 3500 
L 3513 3500 
z
" transform="scale(0.015625)"/>
      <path id="DejaVuSans-3d" d="M 678 2906 
L 4684 2906 
L 4684 2381 
L 678 2381 
L 678 2906 
z
M 678 1631 
L 4684 1631 
L 4684 1100 
L 678 1100 
L 678 1631 
z
" transform="scale(0.015625)"/>
      <path id="DejaVuSans-2e" d="M 684 794 
L 1344 794 
L 1344 0 
L 684 0 
L 684 794 
z
" transform="scale(0.015625)"/>
     </defs>
     <use xlink:href="#DejaVuSans-41"/>
     <use xlink:href="#DejaVuSans-52" x="68.408203"/>
     <use xlink:href="#DejaVuSans-49" x="137.890625"/>
     <use xlink:href="#DejaVuSans-4d" x="167.382812"/>
     <use xlink:href="#DejaVuSans-41" x="253.662109"/>
     <use xlink:href="#DejaVuSans-20" x="322.070312"/>
     <use xlink:href="#DejaVuSans-28" x="353.857422"/>
     <use xlink:href="#DejaVuSans-30" x="392.871094"/>
     <use xlink:href="#DejaVuSans-2c" x="456.494141"/>
     <use xlink:href="#DejaVuSans-20" x="488.28125"/>
     <use xlink:href="#DejaVuSans-31" x="520.068359"/>
     <use xlink:href="#DejaVuSans-2c" x="583.691406"/>
     <use xlink:href="#DejaVuSans-20" x="615.478516"/>
     <use xlink:href="#DejaVuSans-31" x="647.265625"/>
     <use xlink:href="#DejaVuSans-29" x="710.888672"/>
     <use xlink:href="#DejaVuSans-78" x="749.902344"/>
     <use xlink:href="#DejaVuSans-28" x="809.082031"/>
     <use xlink:href="#DejaVuSans-31" x="848.095703"/>
     <use xlink:href="#DejaVuSans-2c" x="911.71875"/>
     <use xlink:href="#DejaVuSans-20" x="943.505859"/>
     <use xlink:href="#DejaVuSans-30" x="975.292969"/>
     <use xlink:href="#DejaVuSans-2c" x="1038.916016"/>
     <use xlink:href="#DejaVuSans-20" x="1070.703125"/>
     <use xlink:href="#DejaVuSans-31" x="1102.490234"/>
     <use xlink:href="#DejaVuSans-2c" x="1166.113281"/>
     <use xlink:href="#DejaVuSans-20" x="1197.900391"/>
     <use xlink:href="#DejaVuSans-37" x="1229.6875"/>
     <use xlink:href="#DejaVuSans-29" x="1293.310547"/>
     <use xlink:href="#DejaVuSans-20" x="1332.324219"/>
     <use xlink:href="#DejaVuSans-28" x="1364.111328"/>
     <use xlink:href="#DejaVuSans-52" x="1403.125"/>
     <use xlink:href="#DejaVuSans-32" x="1472.607422"/>
     <use xlink:href="#DejaVuSans-20" x="1536.230469"/>
     <use xlink:href="#DejaVuSans-3d" x="1568.017578"/>
     <use xlink:href="#DejaVuSans-20" x="1651.806641"/>
     <use xlink:href="#DejaVuSans-30" x="1683.59375"/>
     <use xlink:href="#DejaVuSans-2e" x="1747.216797"/>
     <use xlink:href="#DejaVuSans-37" x="1779.003906"/>
     <use xlink:href="#DejaVuSans-33" x="1842.626953"/>
     <use xlink:href="#DejaVuSans-37" x="1906.25"/>
     <use xlink:href="#DejaVuSans-33" x="1969.873047"/>
     <use xlink:href="#DejaVuSans-37" x="2033.496094"/>
     <use xlink:href="#DejaVuSans-31" x="2097.119141"/>
     <use xlink:href="#DejaVuSans-29" x="2160.742188"/>
    </g>
   </g>
   <g id="legend_1">
    <g id="patch_7">
     <path d="M 1281.132812 87.789875 
L 1378.2125 87.789875 
Q 1380.2125 87.789875 1380.2125 85.789875 
L 1380.2125 42.7555 
Q 1380.2125 40.7555 1378.2125 40.7555 
L 1281.132812 40.7555 
Q 1279.132812 40.7555 1279.132812 42.7555 
L 1279.132812 85.789875 
Q 1279.132812 87.789875 1281.132812 87.789875 
z
" style="fill: #ffffff; opacity: 0.8; stroke: #cccccc; stroke-linejoin: miter"/>
    </g>
    <g id="line2d_23">
     <path d="M 1283.132812 48.853937 
L 1293.132812 48.853937 
L 1303.132812 48.853937 
" style="fill: none; stroke: #0000ff; stroke-width: 1.5; stroke-linecap: square"/>
    </g>
    <g id="text_21">
     <!-- Actual Value -->
     <g transform="translate(1311.132812 52.353937)scale(0.1 -0.1)">
      <defs>
       <path id="DejaVuSans-56" d="M 1831 0 
L 50 4666 
L 709 4666 
L 2188 738 
L 3669 4666 
L 4325 4666 
L 2547 0 
L 1831 0 
z
" transform="scale(0.015625)"/>
      </defs>
      <use xlink:href="#DejaVuSans-41"/>
      <use xlink:href="#DejaVuSans-63" x="66.658203"/>
      <use xlink:href="#DejaVuSans-74" x="121.638672"/>
      <use xlink:href="#DejaVuSans-75" x="160.847656"/>
      <use xlink:href="#DejaVuSans-61" x="224.226562"/>
      <use xlink:href="#DejaVuSans-6c" x="285.505859"/>
      <use xlink:href="#DejaVuSans-20" x="313.289062"/>
      <use xlink:href="#DejaVuSans-56" x="345.076172"/>
      <use xlink:href="#DejaVuSans-61" x="405.734375"/>
      <use xlink:href="#DejaVuSans-6c" x="467.013672"/>
      <use xlink:href="#DejaVuSans-75" x="494.796875"/>
      <use xlink:href="#DejaVuSans-65" x="558.175781"/>
     </g>
    </g>
    <g id="line2d_24">
     <path d="M 1283.132812 63.532062 
L 1293.132812 63.532062 
L 1303.132812 63.532062 
" style="fill: none; stroke: #ffa500; stroke-width: 1.5; stroke-linecap: square"/>
    </g>
    <g id="text_22">
     <!-- Check Value -->
     <g transform="translate(1311.132812 67.032062)scale(0.1 -0.1)">
      <defs>
       <path id="DejaVuSans-6b" d="M 581 4863 
L 1159 4863 
L 1159 1991 
L 2875 3500 
L 3609 3500 
L 1753 1863 
L 3688 0 
L 2938 0 
L 1159 1709 
L 1159 0 
L 581 0 
L 581 4863 
z
" transform="scale(0.015625)"/>
      </defs>
      <use xlink:href="#DejaVuSans-43"/>
      <use xlink:href="#DejaVuSans-68" x="69.824219"/>
      <use xlink:href="#DejaVuSans-65" x="133.203125"/>
      <use xlink:href="#DejaVuSans-63" x="194.726562"/>
      <use xlink:href="#DejaVuSans-6b" x="249.707031"/>
      <use xlink:href="#DejaVuSans-20" x="307.617188"/>
      <use xlink:href="#DejaVuSans-56" x="339.404297"/>
      <use xlink:href="#DejaVuSans-61" x="400.0625"/>
      <use xlink:href="#DejaVuSans-6c" x="461.341797"/>
      <use xlink:href="#DejaVuSans-75" x="489.125"/>
      <use xlink:href="#DejaVuSans-65" x="552.503906"/>
     </g>
    </g>
    <g id="line2d_25">
     <path d="M 1283.132812 78.210187 
L 1293.132812 78.210187 
L 1303.132812 78.210187 
" style="fill: none; stroke: #ff0000; stroke-width: 1.5; stroke-linecap: square"/>
    </g>
    <g id="text_23">
     <!-- Predict Value -->
     <g transform="translate(1311.132812 81.710187)scale(0.1 -0.1)">
      <defs>
       <path id="DejaVuSans-50" d="M 1259 4147 
L 1259 2394 
L 2053 2394 
Q 2494 2394 2734 2622 
Q 2975 2850 2975 3272 
Q 2975 3691 2734 3919 
Q 2494 4147 2053 4147 
L 1259 4147 
z
M 628 4666 
L 2053 4666 
Q 2838 4666 3239 4311 
Q 3641 3956 3641 3272 
Q 3641 2581 3239 2228 
Q 2838 1875 2053 1875 
L 1259 1875 
L 1259 0 
L 628 0 
L 628 4666 
z
" transform="scale(0.015625)"/>
      </defs>
      <use xlink:href="#DejaVuSans-50"/>
      <use xlink:href="#DejaVuSans-72" x="58.552734"/>
      <use xlink:href="#DejaVuSans-65" x="97.416016"/>
      <use xlink:href="#DejaVuSans-64" x="158.939453"/>
      <use xlink:href="#DejaVuSans-69" x="222.416016"/>
      <use xlink:href="#DejaVuSans-63" x="250.199219"/>
      <use xlink:href="#DejaVuSans-74" x="305.179688"/>
      <use xlink:href="#DejaVuSans-20" x="344.388672"/>
      <use xlink:href="#DejaVuSans-56" x="376.175781"/>
      <use xlink:href="#DejaVuSans-61" x="436.833984"/>
      <use xlink:href="#DejaVuSans-6c" x="498.113281"/>
      <use xlink:href="#DejaVuSans-75" x="525.896484"/>
      <use xlink:href="#DejaVuSans-65" x="589.275391"/>
     </g>
    </g>
   </g>
  </g>
 </g>
 <defs>
  <clipPath id="pbcbad4a980">
   <rect x="46.0125" y="35.7555" width="1339.2" height="332.64"/>
  </clipPath>
 </defs>
</svg>
