<?xml version="1.0" encoding="utf-8" standalone="no"?>
<!DOCTYPE svg PUBLIC "-//W3C//DTD SVG 1.1//EN"
  "http://www.w3.org/Graphics/SVG/1.1/DTD/svg11.dtd">
<svg xmlns:xlink="http://www.w3.org/1999/xlink" width="1386.05pt" height="392.273625pt" viewBox="0 0 1386.05 392.273625" xmlns="http://www.w3.org/2000/svg" version="1.1">
 <metadata>
  <rdf:RDF xmlns:dc="http://purl.org/dc/elements/1.1/" xmlns:cc="http://creativecommons.org/ns#" xmlns:rdf="http://www.w3.org/1999/02/22-rdf-syntax-ns#">
   <cc:Work>
    <dc:type rdf:resource="http://purl.org/dc/dcmitype/StillImage"/>
    <dc:date>2022-06-19T19:23:08.074948</dc:date>
    <dc:format>image/svg+xml</dc:format>
    <dc:creator>
     <cc:Agent>
      <dc:title>Matplotlib v3.5.2, https://matplotlib.org/</dc:title>
     </cc:Agent>
    </dc:creator>
   </cc:Work>
  </rdf:RDF>
 </metadata>
 <defs>
  <style type="text/css">*{stroke-linejoin: round; stroke-linecap: butt}</style>
 </defs>
 <g id="figure_1">
  <g id="patch_1">
   <path d="M 0 392.273625 
L 1386.05 392.273625 
L 1386.05 0 
L 0 0 
z
" style="fill: #ffffff"/>
  </g>
  <g id="axes_1">
   <g id="patch_2">
    <path d="M 39.65 368.3955 
L 1378.85 368.3955 
L 1378.85 35.7555 
L 39.65 35.7555 
z
" style="fill: #ffffff"/>
   </g>
   <g id="matplotlib.axis_1">
    <g id="xtick_1">
     <g id="line2d_1">
      <defs>
       <path id="m858bcc701f" d="M 0 0 
L 0 3.5 
" style="stroke: #000000; stroke-width: 0.8"/>
      </defs>
      <g>
       <use xlink:href="#m858bcc701f" x="70.428345" y="368.3955" style="stroke: #000000; stroke-width: 0.8"/>
      </g>
     </g>
     <g id="text_1">
      <!-- 2020-01 -->
      <g transform="translate(49.536939 382.993937)scale(0.1 -0.1)">
       <defs>
        <path id="DejaVuSans-32" d="M 1228 531 
L 3431 531 
L 3431 0 
L 469 0 
L 469 531 
Q 828 903 1448 1529 
Q 2069 2156 2228 2338 
Q 2531 2678 2651 2914 
Q 2772 3150 2772 3378 
Q 2772 3750 2511 3984 
Q 2250 4219 1831 4219 
Q 1534 4219 1204 4116 
Q 875 4013 500 3803 
L 500 4441 
Q 881 4594 1212 4672 
Q 1544 4750 1819 4750 
Q 2544 4750 2975 4387 
Q 3406 4025 3406 3419 
Q 3406 3131 3298 2873 
Q 3191 2616 2906 2266 
Q 2828 2175 2409 1742 
Q 1991 1309 1228 531 
z
" transform="scale(0.015625)"/>
        <path id="DejaVuSans-30" d="M 2034 4250 
Q 1547 4250 1301 3770 
Q 1056 3291 1056 2328 
Q 1056 1369 1301 889 
Q 1547 409 2034 409 
Q 2525 409 2770 889 
Q 3016 1369 3016 2328 
Q 3016 3291 2770 3770 
Q 2525 4250 2034 4250 
z
M 2034 4750 
Q 2819 4750 3233 4129 
Q 3647 3509 3647 2328 
Q 3647 1150 3233 529 
Q 2819 -91 2034 -91 
Q 1250 -91 836 529 
Q 422 1150 422 2328 
Q 422 3509 836 4129 
Q 1250 4750 2034 4750 
z
" transform="scale(0.015625)"/>
        <path id="DejaVuSans-2d" d="M 313 2009 
L 1997 2009 
L 1997 1497 
L 313 1497 
L 313 2009 
z
" transform="scale(0.015625)"/>
        <path id="DejaVuSans-31" d="M 794 531 
L 1825 531 
L 1825 4091 
L 703 3866 
L 703 4441 
L 1819 4666 
L 2450 4666 
L 2450 531 
L 3481 531 
L 3481 0 
L 794 0 
L 794 531 
z
" transform="scale(0.015625)"/>
       </defs>
       <use xlink:href="#DejaVuSans-32"/>
       <use xlink:href="#DejaVuSans-30" x="63.623047"/>
       <use xlink:href="#DejaVuSans-32" x="127.246094"/>
       <use xlink:href="#DejaVuSans-30" x="190.869141"/>
       <use xlink:href="#DejaVuSans-2d" x="254.492188"/>
       <use xlink:href="#DejaVuSans-30" x="290.576172"/>
       <use xlink:href="#DejaVuSans-31" x="354.199219"/>
      </g>
     </g>
    </g>
    <g id="xtick_2">
     <g id="line2d_2">
      <g>
       <use xlink:href="#m858bcc701f" x="194.909653" y="368.3955" style="stroke: #000000; stroke-width: 0.8"/>
      </g>
     </g>
     <g id="text_2">
      <!-- 2020-04 -->
      <g transform="translate(174.018246 382.993937)scale(0.1 -0.1)">
       <defs>
        <path id="DejaVuSans-34" d="M 2419 4116 
L 825 1625 
L 2419 1625 
L 2419 4116 
z
M 2253 4666 
L 3047 4666 
L 3047 1625 
L 3713 1625 
L 3713 1100 
L 3047 1100 
L 3047 0 
L 2419 0 
L 2419 1100 
L 313 1100 
L 313 1709 
L 2253 4666 
z
" transform="scale(0.015625)"/>
       </defs>
       <use xlink:href="#DejaVuSans-32"/>
       <use xlink:href="#DejaVuSans-30" x="63.623047"/>
       <use xlink:href="#DejaVuSans-32" x="127.246094"/>
       <use xlink:href="#DejaVuSans-30" x="190.869141"/>
       <use xlink:href="#DejaVuSans-2d" x="254.492188"/>
       <use xlink:href="#DejaVuSans-30" x="290.576172"/>
       <use xlink:href="#DejaVuSans-34" x="354.199219"/>
      </g>
     </g>
    </g>
    <g id="xtick_3">
     <g id="line2d_3">
      <g>
       <use xlink:href="#m858bcc701f" x="319.39096" y="368.3955" style="stroke: #000000; stroke-width: 0.8"/>
      </g>
     </g>
     <g id="text_3">
      <!-- 2020-07 -->
      <g transform="translate(298.499554 382.993937)scale(0.1 -0.1)">
       <defs>
        <path id="DejaVuSans-37" d="M 525 4666 
L 3525 4666 
L 3525 4397 
L 1831 0 
L 1172 0 
L 2766 4134 
L 525 4134 
L 525 4666 
z
" transform="scale(0.015625)"/>
       </defs>
       <use xlink:href="#DejaVuSans-32"/>
       <use xlink:href="#DejaVuSans-30" x="63.623047"/>
       <use xlink:href="#DejaVuSans-32" x="127.246094"/>
       <use xlink:href="#DejaVuSans-30" x="190.869141"/>
       <use xlink:href="#DejaVuSans-2d" x="254.492188"/>
       <use xlink:href="#DejaVuSans-30" x="290.576172"/>
       <use xlink:href="#DejaVuSans-37" x="354.199219"/>
      </g>
     </g>
    </g>
    <g id="xtick_4">
     <g id="line2d_4">
      <g>
       <use xlink:href="#m858bcc701f" x="445.240194" y="368.3955" style="stroke: #000000; stroke-width: 0.8"/>
      </g>
     </g>
     <g id="text_4">
      <!-- 2020-10 -->
      <g transform="translate(424.348788 382.993937)scale(0.1 -0.1)">
       <use xlink:href="#DejaVuSans-32"/>
       <use xlink:href="#DejaVuSans-30" x="63.623047"/>
       <use xlink:href="#DejaVuSans-32" x="127.246094"/>
       <use xlink:href="#DejaVuSans-30" x="190.869141"/>
       <use xlink:href="#DejaVuSans-2d" x="254.492188"/>
       <use xlink:href="#DejaVuSans-31" x="290.576172"/>
       <use xlink:href="#DejaVuSans-30" x="354.199219"/>
      </g>
     </g>
    </g>
    <g id="xtick_5">
     <g id="line2d_5">
      <g>
       <use xlink:href="#m858bcc701f" x="571.089428" y="368.3955" style="stroke: #000000; stroke-width: 0.8"/>
      </g>
     </g>
     <g id="text_5">
      <!-- 2021-01 -->
      <g transform="translate(550.198022 382.993937)scale(0.1 -0.1)">
       <use xlink:href="#DejaVuSans-32"/>
       <use xlink:href="#DejaVuSans-30" x="63.623047"/>
       <use xlink:href="#DejaVuSans-32" x="127.246094"/>
       <use xlink:href="#DejaVuSans-31" x="190.869141"/>
       <use xlink:href="#DejaVuSans-2d" x="254.492188"/>
       <use xlink:href="#DejaVuSans-30" x="290.576172"/>
       <use xlink:href="#DejaVuSans-31" x="354.199219"/>
      </g>
     </g>
    </g>
    <g id="xtick_6">
     <g id="line2d_6">
      <g>
       <use xlink:href="#m858bcc701f" x="694.202809" y="368.3955" style="stroke: #000000; stroke-width: 0.8"/>
      </g>
     </g>
     <g id="text_6">
      <!-- 2021-04 -->
      <g transform="translate(673.311403 382.993937)scale(0.1 -0.1)">
       <use xlink:href="#DejaVuSans-32"/>
       <use xlink:href="#DejaVuSans-30" x="63.623047"/>
       <use xlink:href="#DejaVuSans-32" x="127.246094"/>
       <use xlink:href="#DejaVuSans-31" x="190.869141"/>
       <use xlink:href="#DejaVuSans-2d" x="254.492188"/>
       <use xlink:href="#DejaVuSans-30" x="290.576172"/>
       <use xlink:href="#DejaVuSans-34" x="354.199219"/>
      </g>
     </g>
    </g>
    <g id="xtick_7">
     <g id="line2d_7">
      <g>
       <use xlink:href="#m858bcc701f" x="818.684116" y="368.3955" style="stroke: #000000; stroke-width: 0.8"/>
      </g>
     </g>
     <g id="text_7">
      <!-- 2021-07 -->
      <g transform="translate(797.79271 382.993937)scale(0.1 -0.1)">
       <use xlink:href="#DejaVuSans-32"/>
       <use xlink:href="#DejaVuSans-30" x="63.623047"/>
       <use xlink:href="#DejaVuSans-32" x="127.246094"/>
       <use xlink:href="#DejaVuSans-31" x="190.869141"/>
       <use xlink:href="#DejaVuSans-2d" x="254.492188"/>
       <use xlink:href="#DejaVuSans-30" x="290.576172"/>
       <use xlink:href="#DejaVuSans-37" x="354.199219"/>
      </g>
     </g>
    </g>
    <g id="xtick_8">
     <g id="line2d_8">
      <g>
       <use xlink:href="#m858bcc701f" x="944.53335" y="368.3955" style="stroke: #000000; stroke-width: 0.8"/>
      </g>
     </g>
     <g id="text_8">
      <!-- 2021-10 -->
      <g transform="translate(923.641944 382.993937)scale(0.1 -0.1)">
       <use xlink:href="#DejaVuSans-32"/>
       <use xlink:href="#DejaVuSans-30" x="63.623047"/>
       <use xlink:href="#DejaVuSans-32" x="127.246094"/>
       <use xlink:href="#DejaVuSans-31" x="190.869141"/>
       <use xlink:href="#DejaVuSans-2d" x="254.492188"/>
       <use xlink:href="#DejaVuSans-31" x="290.576172"/>
       <use xlink:href="#DejaVuSans-30" x="354.199219"/>
      </g>
     </g>
    </g>
    <g id="xtick_9">
     <g id="line2d_9">
      <g>
       <use xlink:href="#m858bcc701f" x="1070.382584" y="368.3955" style="stroke: #000000; stroke-width: 0.8"/>
      </g>
     </g>
     <g id="text_9">
      <!-- 2022-01 -->
      <g transform="translate(1049.491178 382.993937)scale(0.1 -0.1)">
       <use xlink:href="#DejaVuSans-32"/>
       <use xlink:href="#DejaVuSans-30" x="63.623047"/>
       <use xlink:href="#DejaVuSans-32" x="127.246094"/>
       <use xlink:href="#DejaVuSans-32" x="190.869141"/>
       <use xlink:href="#DejaVuSans-2d" x="254.492188"/>
       <use xlink:href="#DejaVuSans-30" x="290.576172"/>
       <use xlink:href="#DejaVuSans-31" x="354.199219"/>
      </g>
     </g>
    </g>
    <g id="xtick_10">
     <g id="line2d_10">
      <g>
       <use xlink:href="#m858bcc701f" x="1193.495965" y="368.3955" style="stroke: #000000; stroke-width: 0.8"/>
      </g>
     </g>
     <g id="text_10">
      <!-- 2022-04 -->
      <g transform="translate(1172.604559 382.993937)scale(0.1 -0.1)">
       <use xlink:href="#DejaVuSans-32"/>
       <use xlink:href="#DejaVuSans-30" x="63.623047"/>
       <use xlink:href="#DejaVuSans-32" x="127.246094"/>
       <use xlink:href="#DejaVuSans-32" x="190.869141"/>
       <use xlink:href="#DejaVuSans-2d" x="254.492188"/>
       <use xlink:href="#DejaVuSans-30" x="290.576172"/>
       <use xlink:href="#DejaVuSans-34" x="354.199219"/>
      </g>
     </g>
    </g>
    <g id="xtick_11">
     <g id="line2d_11">
      <g>
       <use xlink:href="#m858bcc701f" x="1317.977273" y="368.3955" style="stroke: #000000; stroke-width: 0.8"/>
      </g>
     </g>
     <g id="text_11">
      <!-- 2022-07 -->
      <g transform="translate(1297.085866 382.993937)scale(0.1 -0.1)">
       <use xlink:href="#DejaVuSans-32"/>
       <use xlink:href="#DejaVuSans-30" x="63.623047"/>
       <use xlink:href="#DejaVuSans-32" x="127.246094"/>
       <use xlink:href="#DejaVuSans-32" x="190.869141"/>
       <use xlink:href="#DejaVuSans-2d" x="254.492188"/>
       <use xlink:href="#DejaVuSans-30" x="290.576172"/>
       <use xlink:href="#DejaVuSans-37" x="354.199219"/>
      </g>
     </g>
    </g>
   </g>
   <g id="matplotlib.axis_2">
    <g id="ytick_1">
     <g id="line2d_12">
      <defs>
       <path id="m937acfe874" d="M 0 0 
L -3.5 0 
" style="stroke: #000000; stroke-width: 0.8"/>
      </defs>
      <g>
       <use xlink:href="#m937acfe874" x="39.65" y="349.494976" style="stroke: #000000; stroke-width: 0.8"/>
      </g>
     </g>
     <g id="text_12">
      <!-- 0 -->
      <g transform="translate(26.2875 353.294195)scale(0.1 -0.1)">
       <use xlink:href="#DejaVuSans-30"/>
      </g>
     </g>
    </g>
    <g id="ytick_2">
     <g id="line2d_13">
      <g>
       <use xlink:href="#m937acfe874" x="39.65" y="282.853718" style="stroke: #000000; stroke-width: 0.8"/>
      </g>
     </g>
     <g id="text_13">
      <!-- 1000 -->
      <g transform="translate(7.2 286.652937)scale(0.1 -0.1)">
       <use xlink:href="#DejaVuSans-31"/>
       <use xlink:href="#DejaVuSans-30" x="63.623047"/>
       <use xlink:href="#DejaVuSans-30" x="127.246094"/>
       <use xlink:href="#DejaVuSans-30" x="190.869141"/>
      </g>
     </g>
    </g>
    <g id="ytick_3">
     <g id="line2d_14">
      <g>
       <use xlink:href="#m937acfe874" x="39.65" y="216.21246" style="stroke: #000000; stroke-width: 0.8"/>
      </g>
     </g>
     <g id="text_14">
      <!-- 2000 -->
      <g transform="translate(7.2 220.011679)scale(0.1 -0.1)">
       <use xlink:href="#DejaVuSans-32"/>
       <use xlink:href="#DejaVuSans-30" x="63.623047"/>
       <use xlink:href="#DejaVuSans-30" x="127.246094"/>
       <use xlink:href="#DejaVuSans-30" x="190.869141"/>
      </g>
     </g>
    </g>
    <g id="ytick_4">
     <g id="line2d_15">
      <g>
       <use xlink:href="#m937acfe874" x="39.65" y="149.571203" style="stroke: #000000; stroke-width: 0.8"/>
      </g>
     </g>
     <g id="text_15">
      <!-- 3000 -->
      <g transform="translate(7.2 153.370421)scale(0.1 -0.1)">
       <defs>
        <path id="DejaVuSans-33" d="M 2597 2516 
Q 3050 2419 3304 2112 
Q 3559 1806 3559 1356 
Q 3559 666 3084 287 
Q 2609 -91 1734 -91 
Q 1441 -91 1130 -33 
Q 819 25 488 141 
L 488 750 
Q 750 597 1062 519 
Q 1375 441 1716 441 
Q 2309 441 2620 675 
Q 2931 909 2931 1356 
Q 2931 1769 2642 2001 
Q 2353 2234 1838 2234 
L 1294 2234 
L 1294 2753 
L 1863 2753 
Q 2328 2753 2575 2939 
Q 2822 3125 2822 3475 
Q 2822 3834 2567 4026 
Q 2313 4219 1838 4219 
Q 1578 4219 1281 4162 
Q 984 4106 628 3988 
L 628 4550 
Q 988 4650 1302 4700 
Q 1616 4750 1894 4750 
Q 2613 4750 3031 4423 
Q 3450 4097 3450 3541 
Q 3450 3153 3228 2886 
Q 3006 2619 2597 2516 
z
" transform="scale(0.015625)"/>
       </defs>
       <use xlink:href="#DejaVuSans-33"/>
       <use xlink:href="#DejaVuSans-30" x="63.623047"/>
       <use xlink:href="#DejaVuSans-30" x="127.246094"/>
       <use xlink:href="#DejaVuSans-30" x="190.869141"/>
      </g>
     </g>
    </g>
    <g id="ytick_5">
     <g id="line2d_16">
      <g>
       <use xlink:href="#m937acfe874" x="39.65" y="82.929945" style="stroke: #000000; stroke-width: 0.8"/>
      </g>
     </g>
     <g id="text_16">
      <!-- 4000 -->
      <g transform="translate(7.2 86.729164)scale(0.1 -0.1)">
       <use xlink:href="#DejaVuSans-34"/>
       <use xlink:href="#DejaVuSans-30" x="63.623047"/>
       <use xlink:href="#DejaVuSans-30" x="127.246094"/>
       <use xlink:href="#DejaVuSans-30" x="190.869141"/>
      </g>
     </g>
    </g>
   </g>
   <g id="line2d_17">
    <path d="M 100.522727 349.494976 
L 175.758682 349.428335 
L 177.126609 348.828563 
L 178.494535 349.228411 
L 183.966241 348.895205 
L 185.334168 349.295052 
L 186.702094 349.295052 
L 188.07002 349.494976 
L 189.437947 348.561998 
L 190.805873 349.494976 
L 192.1738 348.428716 
L 193.541726 348.362074 
L 194.909653 348.761922 
L 196.277579 347.828944 
L 197.645506 349.494976 
L 199.013432 348.162151 
L 200.381359 349.494976 
L 201.749285 349.028487 
L 203.117211 348.228792 
L 204.485138 349.494976 
L 205.853064 349.494976 
L 207.220991 347.162532 
L 208.588917 348.961846 
L 209.956844 348.761922 
L 211.32477 349.428335 
L 212.692697 349.095128 
L 214.060623 348.62864 
L 215.42855 348.62864 
L 216.796476 348.162151 
L 219.532329 348.162151 
L 220.900255 349.16177 
L 222.268182 348.295433 
L 223.636108 348.895205 
L 225.004035 348.295433 
L 226.371961 348.362074 
L 229.107814 347.762303 
L 230.475741 348.362074 
L 231.843667 348.695281 
L 233.211593 348.162151 
L 234.57952 344.097034 
L 235.947446 347.362456 
L 237.315373 344.830088 
L 238.683299 349.494976 
L 240.051226 348.961846 
L 241.419152 347.962227 
L 242.787079 343.36398 
L 244.155005 345.096653 
L 245.522932 344.563523 
L 246.890858 349.494976 
L 248.258784 345.896348 
L 249.626711 347.295814 
L 250.994637 344.296958 
L 252.362564 345.030012 
L 253.73049 344.630164 
L 255.098417 345.763065 
L 256.466343 339.032298 
L 257.83427 349.494976 
L 259.202196 343.963751 
L 260.570123 343.430621 
L 261.938049 342.697568 
L 263.305975 342.564285 
L 264.673902 342.164438 
L 266.041828 344.163675 
L 267.409755 341.76459 
L 268.777681 339.09894 
L 270.145608 342.431003 
L 271.513534 339.965276 
L 272.881461 341.897872 
L 274.249387 337.966038 
L 275.617314 340.631689 
L 276.98524 342.564285 
L 278.353166 341.164819 
L 279.721093 340.764971 
L 281.089019 338.232603 
L 282.456946 339.565428 
L 283.824872 341.498025 
L 285.192799 341.897872 
L 286.560725 340.298482 
L 287.928652 343.497263 
L 289.296578 339.298863 
L 290.664505 340.764971 
L 292.032431 341.164819 
L 293.400358 341.364742 
L 296.13621 345.896348 
L 297.504137 345.563142 
L 298.872063 340.365124 
L 300.23999 341.098177 
L 301.607916 337.299626 
L 302.975843 336.566572 
L 304.343769 336.499931 
L 305.711696 339.232222 
L 307.079622 342.964133 
L 308.447549 342.630926 
L 309.815475 337.099702 
L 311.183401 336.300007 
L 312.551328 340.098559 
L 313.919254 340.298482 
L 315.287181 340.365124 
L 316.655107 342.031155 
L 318.023034 342.83085 
L 320.758887 345.030012 
L 322.126813 341.364742 
L 323.49474 344.96337 
L 324.862666 347.362456 
L 326.230592 348.095509 
L 327.598519 349.494976 
L 328.966445 349.494976 
L 330.334372 321.905495 
L 331.702298 345.563142 
L 333.070225 345.096653 
L 334.438151 345.363218 
L 335.806078 346.696043 
L 337.174004 345.4965 
L 338.541931 347.629021 
L 339.909857 347.095891 
L 341.277783 346.162913 
L 342.64571 344.496882 
L 344.013636 344.230316 
L 345.381563 346.829326 
L 346.749489 343.430621 
L 349.485342 343.230698 
L 350.853269 346.362837 
L 352.221195 347.229173 
L 353.589122 347.495738 
L 354.957048 348.62864 
L 356.324974 347.562379 
L 357.692901 345.629783 
L 359.060827 344.230316 
L 360.428754 345.4965 
L 361.79668 348.561998 
L 363.164607 347.429097 
L 364.532533 348.295433 
L 365.90046 346.496119 
L 367.268386 344.496882 
L 368.636313 345.763065 
L 370.004239 346.429478 
L 371.372165 344.097034 
L 372.740092 348.295433 
L 374.108018 347.162532 
L 375.475945 348.828563 
L 376.843871 346.895967 
L 378.211798 346.096272 
L 379.579724 348.428716 
L 380.947651 347.295814 
L 382.315577 346.962608 
L 383.683504 347.495738 
L 385.05143 348.495357 
L 386.419356 348.162151 
L 387.787283 348.428716 
L 389.155209 346.496119 
L 390.523136 348.895205 
L 391.891062 348.228792 
L 393.258989 348.695281 
L 394.626915 346.229554 
L 395.994842 348.095509 
L 397.362768 349.295052 
L 398.730695 344.230316 
L 400.098621 348.62864 
L 401.466547 346.962608 
L 402.834474 346.02963 
L 404.2024 349.028487 
L 405.570327 348.828563 
L 406.938253 348.761922 
L 408.30618 347.895586 
L 409.674106 347.562379 
L 411.042033 347.362456 
L 412.409959 347.962227 
L 413.777886 345.563142 
L 415.145812 347.362456 
L 416.513739 348.228792 
L 417.881665 348.295433 
L 419.249591 347.895586 
L 420.617518 349.16177 
L 421.985444 349.494976 
L 423.353371 348.761922 
L 424.721297 348.62864 
L 426.089224 347.629021 
L 427.45715 348.561998 
L 428.825077 347.362456 
L 430.193003 347.695662 
L 431.56093 349.228411 
L 432.928856 349.228411 
L 434.296782 348.561998 
L 437.032635 347.962227 
L 438.400562 348.495357 
L 439.768488 348.228792 
L 441.136415 348.695281 
L 442.504341 349.028487 
L 443.872268 347.629021 
L 445.240194 347.762303 
L 446.608121 346.562761 
L 447.976047 347.962227 
L 449.343973 348.961846 
L 450.7119 348.295433 
L 452.079826 348.761922 
L 454.815679 348.295433 
L 456.183606 348.62864 
L 457.551532 349.095128 
L 458.919459 348.828563 
L 460.287385 348.362074 
L 461.655312 349.228411 
L 463.023238 345.296577 
L 464.391164 349.494976 
L 465.759091 345.229935 
L 467.127017 349.428335 
L 468.494944 349.095128 
L 469.86287 346.429478 
L 471.230797 348.561998 
L 472.598723 349.494976 
L 473.96665 347.429097 
L 475.334576 347.828944 
L 476.702503 348.095509 
L 478.070429 349.494976 
L 479.438355 347.429097 
L 480.806282 348.362074 
L 482.174208 348.162151 
L 483.542135 349.494976 
L 484.910061 343.164056 
L 486.277988 349.494976 
L 487.645914 345.030012 
L 489.013841 348.028868 
L 490.381767 347.362456 
L 491.749694 347.962227 
L 493.11762 349.494976 
L 494.485546 345.030012 
L 495.853473 347.295814 
L 497.221399 346.762684 
L 498.589326 348.362074 
L 499.957252 347.229173 
L 501.325179 348.561998 
L 502.693105 347.095891 
L 504.061032 349.494976 
L 505.428958 344.96337 
L 506.796885 349.494976 
L 508.164811 344.230316 
L 509.532737 347.695662 
L 510.900664 346.02963 
L 512.26859 343.497263 
L 513.636517 341.431384 
L 515.004443 346.096272 
L 516.37237 349.494976 
L 517.740296 342.964133 
L 519.108223 347.362456 
L 520.476149 345.829707 
L 521.844076 342.497644 
L 523.212002 349.494976 
L 524.579928 340.298482 
L 525.947855 343.230698 
L 527.315781 344.830088 
L 528.683708 343.697186 
L 530.051634 340.964895 
L 531.419561 339.831993 
L 532.787487 339.565428 
L 535.52334 341.897872 
L 536.891267 344.96337 
L 538.259193 339.165581 
L 539.62712 343.297339 
L 540.995046 339.232222 
L 542.362972 338.03268 
L 543.730899 337.966038 
L 545.098825 341.564666 
L 546.466752 346.02963 
L 547.834678 343.89711 
L 549.202605 327.303437 
L 550.570531 338.899016 
L 551.938458 349.494976 
L 553.306384 328.969468 
L 554.674311 342.964133 
L 556.042237 337.899397 
L 557.410163 340.098559 
L 558.77809 334.234128 
L 560.146016 333.30115 
L 561.513943 336.833137 
L 562.881869 330.10237 
L 564.249796 344.43024 
L 565.617722 344.296958 
L 566.985649 331.835043 
L 568.353575 336.566572 
L 569.721502 330.702141 
L 571.089428 336.766496 
L 573.825281 342.564285 
L 575.193207 346.096272 
L 576.561134 343.164056 
L 577.92906 333.567715 
L 579.296987 332.76802 
L 580.664913 334.100845 
L 582.03284 336.833137 
L 583.400766 331.035347 
L 584.768693 345.4965 
L 586.136619 335.43367 
L 587.504545 329.769164 
L 588.872472 317.773737 
L 590.240398 344.363599 
L 591.608325 340.365124 
L 592.976251 335.167105 
L 594.344178 339.365505 
L 595.712104 344.163675 
L 597.080031 338.699092 
L 598.447957 343.097415 
L 599.815884 336.233366 
L 601.18381 341.76459 
L 602.551736 339.09894 
L 603.919663 343.830469 
L 605.287589 343.230698 
L 606.655516 340.831612 
L 608.023442 339.898635 
L 609.391369 340.631689 
L 612.127222 338.365886 
L 613.495148 344.763447 
L 614.863075 336.100083 
L 616.231001 340.231841 
L 617.598927 346.829326 
L 618.966854 339.565428 
L 620.33478 341.897872 
L 621.702707 341.897872 
L 623.070633 344.696805 
L 624.43856 342.83085 
L 627.174413 340.431765 
L 628.542339 341.098177 
L 629.910266 343.630545 
L 631.278192 345.829707 
L 632.646118 343.430621 
L 634.014045 347.029249 
L 635.381971 337.566191 
L 636.749898 336.699854 
L 638.117824 338.165962 
L 639.485751 341.76459 
L 640.853677 349.494976 
L 642.221604 345.229935 
L 643.58953 349.494976 
L 646.325383 349.494976 
L 647.693309 313.042208 
L 649.061236 342.764209 
L 650.429162 341.431384 
L 651.797089 346.229554 
L 653.165015 343.630545 
L 654.532942 336.366648 
L 655.900868 343.297339 
L 657.268795 349.494976 
L 658.636721 340.898254 
L 660.004648 344.696805 
L 661.372574 343.763828 
L 662.740501 345.696424 
L 664.108427 345.896348 
L 665.476353 348.095509 
L 666.84428 343.697186 
L 668.212206 343.36398 
L 669.580133 344.43024 
L 670.948059 345.296577 
L 672.315986 347.962227 
L 673.683912 339.365505 
L 675.051839 346.962608 
L 676.419765 345.096653 
L 677.787692 342.031155 
L 679.155618 343.830469 
L 680.523544 348.228792 
L 681.891471 348.961846 
L 683.259397 344.163675 
L 684.627324 344.896729 
L 685.99525 345.163294 
L 687.363177 343.297339 
L 688.731103 346.629402 
L 690.09903 344.030393 
L 691.466956 345.229935 
L 692.834883 345.096653 
L 694.202809 345.696424 
L 695.570735 348.295433 
L 696.938662 344.496882 
L 698.306588 347.295814 
L 699.674515 347.562379 
L 701.042441 347.962227 
L 702.410368 347.295814 
L 703.778294 345.229935 
L 705.146221 347.029249 
L 706.514147 347.429097 
L 707.882074 349.494976 
L 709.25 349.494976 
L 710.617926 341.298101 
L 711.985853 346.229554 
L 713.353779 345.829707 
L 714.721706 343.497263 
L 716.089632 347.162532 
L 717.457559 345.363218 
L 718.825485 349.494976 
L 720.193412 340.964895 
L 721.561338 339.565428 
L 722.929265 341.697949 
L 724.297191 345.829707 
L 725.665117 343.297339 
L 727.033044 344.296958 
L 728.40097 347.162532 
L 729.768897 343.497263 
L 732.50475 346.562761 
L 733.872676 346.762684 
L 736.608529 345.429859 
L 737.976456 346.895967 
L 739.344382 345.030012 
L 740.712308 345.563142 
L 742.080235 344.763447 
L 743.448161 346.895967 
L 744.816088 346.496119 
L 746.184014 346.962608 
L 747.551941 347.695662 
L 748.919867 346.696043 
L 750.287794 347.029249 
L 751.65572 346.229554 
L 753.023647 347.295814 
L 754.391573 347.162532 
L 755.759499 348.428716 
L 757.127426 346.362837 
L 758.495352 348.761922 
L 759.863279 343.630545 
L 761.231205 346.229554 
L 762.599132 344.96337 
L 763.967058 346.962608 
L 765.334985 349.494976 
L 766.702911 349.494976 
L 768.070838 328.902827 
L 769.438764 344.43024 
L 770.806691 347.429097 
L 772.174617 342.364361 
L 773.542543 347.495738 
L 774.91047 340.098559 
L 776.278396 343.230698 
L 777.646323 349.494976 
L 779.014249 330.6355 
L 780.382176 333.30115 
L 781.750102 324.970993 
L 783.118029 332.76802 
L 784.485955 322.438625 
L 785.853882 340.431765 
L 787.221808 333.567715 
L 788.589734 324.237939 
L 789.957661 328.836186 
L 791.325587 320.905876 
L 792.693514 332.568096 
L 794.06144 330.902065 
L 795.429367 320.172822 
L 796.797293 332.834661 
L 799.533146 325.770688 
L 800.901073 324.237939 
L 802.268999 312.042589 
L 803.636925 330.169011 
L 805.004852 341.697949 
L 806.372778 322.571908 
L 807.740705 334.633975 
L 809.108631 323.971374 
L 810.476558 318.906639 
L 811.844484 325.304199 
L 813.212411 316.440912 
L 814.580337 337.166343 
L 815.948264 323.038397 
L 817.31619 349.494976 
L 818.684116 315.041446 
L 820.052043 321.63893 
L 821.419969 336.966419 
L 822.787896 334.700617 
L 824.155822 320.439387 
L 825.523749 331.968325 
L 826.891675 340.231841 
L 828.259602 328.569621 
L 829.627528 325.437482 
L 830.995455 331.101989 
L 832.363381 338.232603 
L 833.731307 336.633213 
L 835.099234 337.499549 
L 836.46716 323.038397 
L 837.835087 329.369316 
L 839.203013 335.167105 
L 840.57094 349.494976 
L 841.938866 310.643123 
L 843.306793 326.370459 
L 844.674719 324.904352 
L 846.042646 340.098559 
L 847.410572 328.969468 
L 848.778498 334.167487 
L 850.146425 324.038015 
L 851.514351 326.703666 
L 852.882278 324.504504 
L 854.250204 331.835043 
L 855.618131 336.033442 
L 856.986057 330.768782 
L 858.353984 328.769545 
L 859.72191 325.837329 
L 861.089837 349.494976 
L 862.457763 331.101989 
L 863.825689 327.103513 
L 865.193616 331.901684 
L 866.561542 332.501455 
L 867.929469 335.766877 
L 869.297395 331.568478 
L 870.665322 325.104276 
L 872.033248 343.097415 
L 873.401175 329.03611 
L 874.769101 340.1652 
L 876.137028 349.494976 
L 877.504954 313.575338 
L 878.87288 338.499168 
L 880.240807 341.631307 
L 881.608733 343.36398 
L 882.97666 339.165581 
L 884.344586 341.564666 
L 885.712513 340.365124 
L 887.080439 340.031917 
L 888.448366 349.494976 
L 889.816292 342.164438 
L 891.184219 349.494976 
L 892.552145 349.494976 
L 893.920072 340.964895 
L 895.287998 343.563904 
L 896.655924 330.702141 
L 898.023851 349.494976 
L 899.391777 349.494976 
L 900.759704 325.837329 
L 902.12763 349.494976 
L 903.495557 330.6355 
L 904.863483 349.494976 
L 906.23141 338.765733 
L 907.599336 349.494976 
L 910.335189 349.494976 
L 911.703115 311.509459 
L 913.071042 349.494976 
L 914.438968 335.633594 
L 915.806895 348.761922 
L 917.174821 349.494976 
L 918.542748 349.494976 
L 919.910674 341.564666 
L 921.278601 349.494976 
L 922.646527 342.364361 
L 924.014454 347.162532 
L 925.38238 347.495738 
L 926.750306 349.494976 
L 928.118233 349.494976 
L 929.486159 344.43024 
L 930.854086 349.494976 
L 933.589939 349.494976 
L 934.957865 339.232222 
L 936.325792 349.494976 
L 937.693718 349.494976 
L 939.061645 333.167868 
L 940.429571 349.494976 
L 941.797497 349.494976 
L 943.165424 344.496882 
L 944.53335 345.4965 
L 945.901277 349.494976 
L 947.269203 349.494976 
L 948.63713 347.029249 
L 950.005056 349.494976 
L 951.372983 346.229554 
L 952.740909 349.494976 
L 954.108836 346.629402 
L 955.476762 349.494976 
L 956.844688 349.095128 
L 958.212615 341.831231 
L 959.580541 349.494976 
L 960.948468 348.028868 
L 962.316394 349.494976 
L 966.420174 349.494976 
L 967.7881 344.896729 
L 969.156027 349.494976 
L 970.523953 345.229935 
L 971.891879 349.494976 
L 973.259806 347.495738 
L 974.627732 349.494976 
L 975.995659 349.494976 
L 977.363585 348.095509 
L 978.731512 349.494976 
L 980.099438 348.362074 
L 981.467365 349.494976 
L 985.571144 349.494976 
L 986.93907 343.164056 
L 988.306997 349.494976 
L 989.674923 348.362074 
L 991.04285 349.16177 
L 992.410776 348.295433 
L 993.778703 349.494976 
L 995.146629 349.494976 
L 996.514556 347.295814 
L 997.882482 349.494976 
L 999.250409 347.895586 
L 1000.618335 349.494976 
L 1001.986261 345.030012 
L 1003.354188 349.494976 
L 1004.722114 349.494976 
L 1006.090041 344.563523 
L 1007.457967 349.494976 
L 1010.19382 349.494976 
L 1011.561747 344.363599 
L 1012.929673 349.494976 
L 1014.2976 349.494976 
L 1015.665526 343.030774 
L 1017.033453 346.02963 
L 1018.401379 347.429097 
L 1019.769305 349.494976 
L 1021.137232 345.829707 
L 1022.505158 349.494976 
L 1023.873085 349.494976 
L 1025.241011 341.564666 
L 1026.608938 349.494976 
L 1027.976864 344.696805 
L 1029.344791 348.62864 
L 1030.712717 349.494976 
L 1033.44857 349.494976 
L 1034.816496 313.575338 
L 1036.184423 328.369697 
L 1037.552349 349.494976 
L 1038.920276 347.295814 
L 1040.288202 306.644647 
L 1041.656129 349.494976 
L 1045.759908 349.494976 
L 1047.127835 210.814519 
L 1048.495761 252.465305 
L 1049.863687 278.855243 
L 1051.231614 349.494976 
L 1052.59954 349.494976 
L 1053.967467 159.567391 
L 1055.335393 349.494976 
L 1056.70332 349.494976 
L 1058.071246 165.498463 
L 1059.439173 349.494976 
L 1062.175026 349.494976 
L 1063.542952 196.886496 
L 1064.910878 349.494976 
L 1066.278805 186.623742 
L 1067.646731 349.494976 
L 1073.118437 349.494976 
L 1074.486364 50.8755 
L 1075.85429 304.978616 
L 1077.222217 333.967563 
L 1078.590143 349.494976 
L 1081.325996 349.494976 
L 1082.693922 294.649221 
L 1084.061849 301.446629 
L 1085.429775 349.494976 
L 1086.797702 349.494976 
L 1088.165628 310.376558 
L 1089.533555 349.494976 
L 1090.901481 349.494976 
L 1092.269408 304.312203 
L 1093.637334 349.494976 
L 1095.00526 349.494976 
L 1096.373187 268.592489 
L 1097.741113 343.830469 
L 1099.10904 349.494976 
L 1100.476966 349.494976 
L 1101.844893 333.767639 
L 1103.212819 333.434433 
L 1104.580746 341.697949 
L 1105.948672 346.229554 
L 1107.316599 344.696805 
L 1108.684525 349.494976 
L 1110.052451 349.494976 
L 1111.420378 324.104657 
L 1112.788304 349.494976 
L 1114.156231 340.764971 
L 1115.524157 349.494976 
L 1119.627937 349.494976 
L 1120.995863 337.766114 
L 1122.36379 349.494976 
L 1123.731716 348.028868 
L 1125.099642 347.162532 
L 1126.467569 347.295814 
L 1127.835495 349.494976 
L 1129.203422 349.494976 
L 1130.571348 348.362074 
L 1131.939275 349.494976 
L 1133.307201 347.562379 
L 1134.675128 348.695281 
L 1136.043054 349.494976 
L 1138.778907 349.494976 
L 1140.146834 346.696043 
L 1141.51476 349.494976 
L 1142.882686 349.494976 
L 1144.250613 345.363218 
L 1145.618539 345.429859 
L 1146.986466 349.494976 
L 1148.354392 349.494976 
L 1149.722319 348.228792 
L 1151.090245 348.095509 
L 1152.458172 349.494976 
L 1153.826098 342.897491 
L 1155.194025 348.428716 
L 1156.561951 349.494976 
L 1160.66573 349.494976 
L 1162.033657 341.697949 
L 1163.401583 348.228792 
L 1164.76951 347.828944 
L 1166.137436 349.494976 
L 1167.505363 349.494976 
L 1168.873289 347.562379 
L 1170.241216 347.429097 
L 1171.609142 346.096272 
L 1172.977068 347.162532 
L 1174.344995 349.494976 
L 1178.448774 349.494976 
L 1179.816701 346.296195 
L 1181.184627 344.43024 
L 1182.552554 348.62864 
L 1183.92048 348.62864 
L 1185.288407 349.494976 
L 1186.656333 349.494976 
L 1188.024259 348.362074 
L 1189.392186 343.697186 
L 1190.760112 347.295814 
L 1192.128039 349.494976 
L 1209.911083 349.494976 
L 1211.279009 331.16863 
L 1212.646936 349.494976 
L 1253.684729 349.494976 
L 1255.052656 308.843809 
L 1256.420582 349.494976 
L 1265.996067 349.494976 
L 1267.363994 322.638549 
L 1268.73192 349.494976 
L 1272.8357 349.494976 
L 1274.203626 326.970231 
L 1275.571553 349.494976 
L 1276.939479 349.494976 
L 1278.307406 295.182351 
L 1279.675332 349.494976 
L 1287.882891 349.494976 
L 1289.250817 299.980521 
L 1290.618744 349.494976 
L 1300.194229 349.494976 
L 1300.194229 349.494976 
" clip-path="url(#p1004c05dee)" style="fill: none; stroke: #0000ff; stroke-width: 1.5; stroke-linecap: square"/>
   </g>
   <g id="line2d_18">
    <path d="M 1060.807099 290.892483 
L 1062.175026 279.931662 
L 1063.542952 300.395852 
L 1064.910878 304.197462 
L 1066.278805 298.179505 
L 1067.646731 309.222117 
L 1069.014658 287.901827 
L 1070.382584 296.232346 
L 1071.750511 272.119718 
L 1073.118437 300.114507 
L 1074.486364 321.765984 
L 1075.85429 329.799591 
L 1077.222217 308.670634 
L 1078.590143 305.939723 
L 1079.958069 276.220781 
L 1081.325996 286.387796 
L 1082.693922 271.732483 
L 1084.061849 305.425776 
L 1085.429775 309.953391 
L 1086.797702 315.618821 
L 1088.165628 319.058595 
L 1089.533555 321.097778 
L 1090.901481 318.278391 
L 1092.269408 326.555635 
L 1093.637334 327.784201 
L 1095.00526 328.791509 
L 1096.373187 335.546167 
L 1097.741113 333.030056 
L 1100.476966 326.368534 
L 1101.844893 325.736494 
L 1103.212819 331.031886 
L 1104.580746 325.440606 
L 1105.948672 333.500484 
L 1107.316599 335.145735 
L 1108.684525 335.932956 
L 1110.052451 335.803894 
L 1111.420378 340.759433 
L 1112.788304 341.144537 
L 1114.156231 341.836364 
L 1115.524157 342.072635 
L 1116.892084 340.366895 
L 1118.26001 342.113708 
L 1119.627937 340.074609 
L 1120.995863 344.84851 
L 1122.36379 344.476081 
L 1123.731716 345.417983 
L 1125.099642 346.103395 
L 1126.467569 345.692165 
L 1127.835495 346.096954 
L 1129.203422 345.239558 
L 1130.571348 346.654135 
L 1131.939275 346.788916 
L 1133.307201 347.361951 
L 1136.043054 348.032882 
L 1137.410981 348.220057 
L 1138.778907 348.137333 
L 1140.146834 348.67821 
L 1141.51476 348.537364 
L 1142.882686 348.550309 
L 1144.250613 349.099707 
L 1145.618539 349.052285 
L 1148.354392 348.042777 
L 1151.090245 347.902972 
L 1152.458172 347.64137 
L 1153.826098 348.349509 
L 1155.194025 348.499829 
L 1156.561951 347.96339 
L 1157.929877 347.882178 
L 1159.297804 347.37854 
L 1163.401583 348.584121 
L 1164.76951 348.315949 
L 1166.137436 348.190618 
L 1167.505363 347.352369 
L 1168.873289 347.821847 
L 1170.241216 347.27118 
L 1171.609142 348.181808 
L 1172.977068 348.211847 
L 1177.080848 347.512411 
L 1178.448774 347.56373 
L 1179.816701 348.068006 
L 1181.184627 348.694848 
L 1182.552554 348.619036 
L 1183.92048 348.364958 
L 1186.656333 347.609552 
L 1188.024259 347.652182 
L 1190.760112 348.493534 
L 1192.128039 348.076892 
L 1193.495965 347.965246 
L 1194.863892 347.559736 
L 1196.231818 347.623593 
L 1197.599745 347.494322 
L 1198.967671 348.088965 
L 1200.335598 348.553947 
L 1203.07145 348.981886 
L 1205.807303 349.248118 
L 1209.911083 349.364498 
L 1211.279009 351.096097 
L 1212.646936 349.904216 
L 1214.014862 348.263415 
L 1215.382789 347.932386 
L 1216.750715 346.030623 
L 1218.118641 346.69394 
L 1219.486568 345.39031 
L 1220.854494 347.492534 
L 1223.590347 348.414669 
L 1224.958274 348.678423 
L 1226.3262 349.055741 
L 1231.797906 349.307267 
L 1241.373391 349.452576 
L 1253.684729 349.488715 
L 1255.052656 353.2755 
L 1256.420582 350.587854 
L 1257.788509 346.912817 
L 1259.156435 346.149878 
L 1260.524362 341.908253 
L 1261.892288 343.360876 
L 1263.260215 340.45404 
L 1264.628141 345.10491 
L 1265.996067 346.142634 
L 1267.363994 349.633434 
L 1268.73192 348.435768 
L 1270.099847 346.83904 
L 1271.467773 346.5169 
L 1272.8357 343.861716 
L 1274.203626 347.037898 
L 1275.571553 343.723867 
L 1276.939479 344.83746 
L 1278.307406 350.220587 
L 1279.675332 344.982613 
L 1281.043258 341.299473 
L 1282.411185 339.251137 
L 1283.779111 336.30756 
L 1285.147038 338.94179 
L 1286.514964 335.702284 
L 1289.250817 348.835052 
L 1290.618744 347.034341 
L 1291.98667 343.452696 
L 1293.354597 343.733005 
L 1294.722523 338.889676 
L 1296.090449 340.920263 
L 1297.458376 337.590866 
L 1298.826302 343.42656 
L 1300.194229 344.828624 
L 1300.194229 344.828624 
" clip-path="url(#p1004c05dee)" style="fill: none; stroke: #ffa500; stroke-width: 1.5; stroke-linecap: square"/>
   </g>
   <g id="line2d_19">
    <path d="M 1300.194229 344.828624 
L 1301.562155 346.580461 
L 1302.930082 347.338246 
L 1304.298008 348.01043 
L 1305.665935 347.935921 
L 1307.033861 347.473461 
L 1308.401788 347.430153 
L 1309.769714 347.013779 
L 1311.13764 347.263853 
L 1312.505567 347.368585 
L 1313.873493 347.407716 
L 1315.24142 347.384071 
L 1316.609346 347.335703 
L 1317.977273 347.336568 
" clip-path="url(#p1004c05dee)" style="fill: none; stroke: #ff0000; stroke-width: 1.5; stroke-linecap: square"/>
   </g>
   <g id="patch_3">
    <path d="M 39.65 368.3955 
L 39.65 35.7555 
" style="fill: none; stroke: #000000; stroke-width: 0.8; stroke-linejoin: miter; stroke-linecap: square"/>
   </g>
   <g id="patch_4">
    <path d="M 1378.85 368.3955 
L 1378.85 35.7555 
" style="fill: none; stroke: #000000; stroke-width: 0.8; stroke-linejoin: miter; stroke-linecap: square"/>
   </g>
   <g id="patch_5">
    <path d="M 39.65 368.3955 
L 1378.85 368.3955 
" style="fill: none; stroke: #000000; stroke-width: 0.8; stroke-linejoin: miter; stroke-linecap: square"/>
   </g>
   <g id="patch_6">
    <path d="M 39.65 35.7555 
L 1378.85 35.7555 
" style="fill: none; stroke: #000000; stroke-width: 0.8; stroke-linejoin: miter; stroke-linecap: square"/>
   </g>
   <g id="text_17">
    <!-- Daily Confirmed Cases Forecasting - Congo (Kinshasa) -->
    <g transform="translate(546.205625 16.318125)scale(0.12 -0.12)">
     <defs>
      <path id="DejaVuSans-44" d="M 1259 4147 
L 1259 519 
L 2022 519 
Q 2988 519 3436 956 
Q 3884 1394 3884 2338 
Q 3884 3275 3436 3711 
Q 2988 4147 2022 4147 
L 1259 4147 
z
M 628 4666 
L 1925 4666 
Q 3281 4666 3915 4102 
Q 4550 3538 4550 2338 
Q 4550 1131 3912 565 
Q 3275 0 1925 0 
L 628 0 
L 628 4666 
z
" transform="scale(0.015625)"/>
      <path id="DejaVuSans-61" d="M 2194 1759 
Q 1497 1759 1228 1600 
Q 959 1441 959 1056 
Q 959 750 1161 570 
Q 1363 391 1709 391 
Q 2188 391 2477 730 
Q 2766 1069 2766 1631 
L 2766 1759 
L 2194 1759 
z
M 3341 1997 
L 3341 0 
L 2766 0 
L 2766 531 
Q 2569 213 2275 61 
Q 1981 -91 1556 -91 
Q 1019 -91 701 211 
Q 384 513 384 1019 
Q 384 1609 779 1909 
Q 1175 2209 1959 2209 
L 2766 2209 
L 2766 2266 
Q 2766 2663 2505 2880 
Q 2244 3097 1772 3097 
Q 1472 3097 1187 3025 
Q 903 2953 641 2809 
L 641 3341 
Q 956 3463 1253 3523 
Q 1550 3584 1831 3584 
Q 2591 3584 2966 3190 
Q 3341 2797 3341 1997 
z
" transform="scale(0.015625)"/>
      <path id="DejaVuSans-69" d="M 603 3500 
L 1178 3500 
L 1178 0 
L 603 0 
L 603 3500 
z
M 603 4863 
L 1178 4863 
L 1178 4134 
L 603 4134 
L 603 4863 
z
" transform="scale(0.015625)"/>
      <path id="DejaVuSans-6c" d="M 603 4863 
L 1178 4863 
L 1178 0 
L 603 0 
L 603 4863 
z
" transform="scale(0.015625)"/>
      <path id="DejaVuSans-79" d="M 2059 -325 
Q 1816 -950 1584 -1140 
Q 1353 -1331 966 -1331 
L 506 -1331 
L 506 -850 
L 844 -850 
Q 1081 -850 1212 -737 
Q 1344 -625 1503 -206 
L 1606 56 
L 191 3500 
L 800 3500 
L 1894 763 
L 2988 3500 
L 3597 3500 
L 2059 -325 
z
" transform="scale(0.015625)"/>
      <path id="DejaVuSans-20" transform="scale(0.015625)"/>
      <path id="DejaVuSans-43" d="M 4122 4306 
L 4122 3641 
Q 3803 3938 3442 4084 
Q 3081 4231 2675 4231 
Q 1875 4231 1450 3742 
Q 1025 3253 1025 2328 
Q 1025 1406 1450 917 
Q 1875 428 2675 428 
Q 3081 428 3442 575 
Q 3803 722 4122 1019 
L 4122 359 
Q 3791 134 3420 21 
Q 3050 -91 2638 -91 
Q 1578 -91 968 557 
Q 359 1206 359 2328 
Q 359 3453 968 4101 
Q 1578 4750 2638 4750 
Q 3056 4750 3426 4639 
Q 3797 4528 4122 4306 
z
" transform="scale(0.015625)"/>
      <path id="DejaVuSans-6f" d="M 1959 3097 
Q 1497 3097 1228 2736 
Q 959 2375 959 1747 
Q 959 1119 1226 758 
Q 1494 397 1959 397 
Q 2419 397 2687 759 
Q 2956 1122 2956 1747 
Q 2956 2369 2687 2733 
Q 2419 3097 1959 3097 
z
M 1959 3584 
Q 2709 3584 3137 3096 
Q 3566 2609 3566 1747 
Q 3566 888 3137 398 
Q 2709 -91 1959 -91 
Q 1206 -91 779 398 
Q 353 888 353 1747 
Q 353 2609 779 3096 
Q 1206 3584 1959 3584 
z
" transform="scale(0.015625)"/>
      <path id="DejaVuSans-6e" d="M 3513 2113 
L 3513 0 
L 2938 0 
L 2938 2094 
Q 2938 2591 2744 2837 
Q 2550 3084 2163 3084 
Q 1697 3084 1428 2787 
Q 1159 2491 1159 1978 
L 1159 0 
L 581 0 
L 581 3500 
L 1159 3500 
L 1159 2956 
Q 1366 3272 1645 3428 
Q 1925 3584 2291 3584 
Q 2894 3584 3203 3211 
Q 3513 2838 3513 2113 
z
" transform="scale(0.015625)"/>
      <path id="DejaVuSans-66" d="M 2375 4863 
L 2375 4384 
L 1825 4384 
Q 1516 4384 1395 4259 
Q 1275 4134 1275 3809 
L 1275 3500 
L 2222 3500 
L 2222 3053 
L 1275 3053 
L 1275 0 
L 697 0 
L 697 3053 
L 147 3053 
L 147 3500 
L 697 3500 
L 697 3744 
Q 697 4328 969 4595 
Q 1241 4863 1831 4863 
L 2375 4863 
z
" transform="scale(0.015625)"/>
      <path id="DejaVuSans-72" d="M 2631 2963 
Q 2534 3019 2420 3045 
Q 2306 3072 2169 3072 
Q 1681 3072 1420 2755 
Q 1159 2438 1159 1844 
L 1159 0 
L 581 0 
L 581 3500 
L 1159 3500 
L 1159 2956 
Q 1341 3275 1631 3429 
Q 1922 3584 2338 3584 
Q 2397 3584 2469 3576 
Q 2541 3569 2628 3553 
L 2631 2963 
z
" transform="scale(0.015625)"/>
      <path id="DejaVuSans-6d" d="M 3328 2828 
Q 3544 3216 3844 3400 
Q 4144 3584 4550 3584 
Q 5097 3584 5394 3201 
Q 5691 2819 5691 2113 
L 5691 0 
L 5113 0 
L 5113 2094 
Q 5113 2597 4934 2840 
Q 4756 3084 4391 3084 
Q 3944 3084 3684 2787 
Q 3425 2491 3425 1978 
L 3425 0 
L 2847 0 
L 2847 2094 
Q 2847 2600 2669 2842 
Q 2491 3084 2119 3084 
Q 1678 3084 1418 2786 
Q 1159 2488 1159 1978 
L 1159 0 
L 581 0 
L 581 3500 
L 1159 3500 
L 1159 2956 
Q 1356 3278 1631 3431 
Q 1906 3584 2284 3584 
Q 2666 3584 2933 3390 
Q 3200 3197 3328 2828 
z
" transform="scale(0.015625)"/>
      <path id="DejaVuSans-65" d="M 3597 1894 
L 3597 1613 
L 953 1613 
Q 991 1019 1311 708 
Q 1631 397 2203 397 
Q 2534 397 2845 478 
Q 3156 559 3463 722 
L 3463 178 
Q 3153 47 2828 -22 
Q 2503 -91 2169 -91 
Q 1331 -91 842 396 
Q 353 884 353 1716 
Q 353 2575 817 3079 
Q 1281 3584 2069 3584 
Q 2775 3584 3186 3129 
Q 3597 2675 3597 1894 
z
M 3022 2063 
Q 3016 2534 2758 2815 
Q 2500 3097 2075 3097 
Q 1594 3097 1305 2825 
Q 1016 2553 972 2059 
L 3022 2063 
z
" transform="scale(0.015625)"/>
      <path id="DejaVuSans-64" d="M 2906 2969 
L 2906 4863 
L 3481 4863 
L 3481 0 
L 2906 0 
L 2906 525 
Q 2725 213 2448 61 
Q 2172 -91 1784 -91 
Q 1150 -91 751 415 
Q 353 922 353 1747 
Q 353 2572 751 3078 
Q 1150 3584 1784 3584 
Q 2172 3584 2448 3432 
Q 2725 3281 2906 2969 
z
M 947 1747 
Q 947 1113 1208 752 
Q 1469 391 1925 391 
Q 2381 391 2643 752 
Q 2906 1113 2906 1747 
Q 2906 2381 2643 2742 
Q 2381 3103 1925 3103 
Q 1469 3103 1208 2742 
Q 947 2381 947 1747 
z
" transform="scale(0.015625)"/>
      <path id="DejaVuSans-73" d="M 2834 3397 
L 2834 2853 
Q 2591 2978 2328 3040 
Q 2066 3103 1784 3103 
Q 1356 3103 1142 2972 
Q 928 2841 928 2578 
Q 928 2378 1081 2264 
Q 1234 2150 1697 2047 
L 1894 2003 
Q 2506 1872 2764 1633 
Q 3022 1394 3022 966 
Q 3022 478 2636 193 
Q 2250 -91 1575 -91 
Q 1294 -91 989 -36 
Q 684 19 347 128 
L 347 722 
Q 666 556 975 473 
Q 1284 391 1588 391 
Q 1994 391 2212 530 
Q 2431 669 2431 922 
Q 2431 1156 2273 1281 
Q 2116 1406 1581 1522 
L 1381 1569 
Q 847 1681 609 1914 
Q 372 2147 372 2553 
Q 372 3047 722 3315 
Q 1072 3584 1716 3584 
Q 2034 3584 2315 3537 
Q 2597 3491 2834 3397 
z
" transform="scale(0.015625)"/>
      <path id="DejaVuSans-46" d="M 628 4666 
L 3309 4666 
L 3309 4134 
L 1259 4134 
L 1259 2759 
L 3109 2759 
L 3109 2228 
L 1259 2228 
L 1259 0 
L 628 0 
L 628 4666 
z
" transform="scale(0.015625)"/>
      <path id="DejaVuSans-63" d="M 3122 3366 
L 3122 2828 
Q 2878 2963 2633 3030 
Q 2388 3097 2138 3097 
Q 1578 3097 1268 2742 
Q 959 2388 959 1747 
Q 959 1106 1268 751 
Q 1578 397 2138 397 
Q 2388 397 2633 464 
Q 2878 531 3122 666 
L 3122 134 
Q 2881 22 2623 -34 
Q 2366 -91 2075 -91 
Q 1284 -91 818 406 
Q 353 903 353 1747 
Q 353 2603 823 3093 
Q 1294 3584 2113 3584 
Q 2378 3584 2631 3529 
Q 2884 3475 3122 3366 
z
" transform="scale(0.015625)"/>
      <path id="DejaVuSans-74" d="M 1172 4494 
L 1172 3500 
L 2356 3500 
L 2356 3053 
L 1172 3053 
L 1172 1153 
Q 1172 725 1289 603 
Q 1406 481 1766 481 
L 2356 481 
L 2356 0 
L 1766 0 
Q 1100 0 847 248 
Q 594 497 594 1153 
L 594 3053 
L 172 3053 
L 172 3500 
L 594 3500 
L 594 4494 
L 1172 4494 
z
" transform="scale(0.015625)"/>
      <path id="DejaVuSans-67" d="M 2906 1791 
Q 2906 2416 2648 2759 
Q 2391 3103 1925 3103 
Q 1463 3103 1205 2759 
Q 947 2416 947 1791 
Q 947 1169 1205 825 
Q 1463 481 1925 481 
Q 2391 481 2648 825 
Q 2906 1169 2906 1791 
z
M 3481 434 
Q 3481 -459 3084 -895 
Q 2688 -1331 1869 -1331 
Q 1566 -1331 1297 -1286 
Q 1028 -1241 775 -1147 
L 775 -588 
Q 1028 -725 1275 -790 
Q 1522 -856 1778 -856 
Q 2344 -856 2625 -561 
Q 2906 -266 2906 331 
L 2906 616 
Q 2728 306 2450 153 
Q 2172 0 1784 0 
Q 1141 0 747 490 
Q 353 981 353 1791 
Q 353 2603 747 3093 
Q 1141 3584 1784 3584 
Q 2172 3584 2450 3431 
Q 2728 3278 2906 2969 
L 2906 3500 
L 3481 3500 
L 3481 434 
z
" transform="scale(0.015625)"/>
      <path id="DejaVuSans-28" d="M 1984 4856 
Q 1566 4138 1362 3434 
Q 1159 2731 1159 2009 
Q 1159 1288 1364 580 
Q 1569 -128 1984 -844 
L 1484 -844 
Q 1016 -109 783 600 
Q 550 1309 550 2009 
Q 550 2706 781 3412 
Q 1013 4119 1484 4856 
L 1984 4856 
z
" transform="scale(0.015625)"/>
      <path id="DejaVuSans-4b" d="M 628 4666 
L 1259 4666 
L 1259 2694 
L 3353 4666 
L 4166 4666 
L 1850 2491 
L 4331 0 
L 3500 0 
L 1259 2247 
L 1259 0 
L 628 0 
L 628 4666 
z
" transform="scale(0.015625)"/>
      <path id="DejaVuSans-68" d="M 3513 2113 
L 3513 0 
L 2938 0 
L 2938 2094 
Q 2938 2591 2744 2837 
Q 2550 3084 2163 3084 
Q 1697 3084 1428 2787 
Q 1159 2491 1159 1978 
L 1159 0 
L 581 0 
L 581 4863 
L 1159 4863 
L 1159 2956 
Q 1366 3272 1645 3428 
Q 1925 3584 2291 3584 
Q 2894 3584 3203 3211 
Q 3513 2838 3513 2113 
z
" transform="scale(0.015625)"/>
      <path id="DejaVuSans-29" d="M 513 4856 
L 1013 4856 
Q 1481 4119 1714 3412 
Q 1947 2706 1947 2009 
Q 1947 1309 1714 600 
Q 1481 -109 1013 -844 
L 513 -844 
Q 928 -128 1133 580 
Q 1338 1288 1338 2009 
Q 1338 2731 1133 3434 
Q 928 4138 513 4856 
z
" transform="scale(0.015625)"/>
     </defs>
     <use xlink:href="#DejaVuSans-44"/>
     <use xlink:href="#DejaVuSans-61" x="77.001953"/>
     <use xlink:href="#DejaVuSans-69" x="138.28125"/>
     <use xlink:href="#DejaVuSans-6c" x="166.064453"/>
     <use xlink:href="#DejaVuSans-79" x="193.847656"/>
     <use xlink:href="#DejaVuSans-20" x="253.027344"/>
     <use xlink:href="#DejaVuSans-43" x="284.814453"/>
     <use xlink:href="#DejaVuSans-6f" x="354.638672"/>
     <use xlink:href="#DejaVuSans-6e" x="415.820312"/>
     <use xlink:href="#DejaVuSans-66" x="479.199219"/>
     <use xlink:href="#DejaVuSans-69" x="514.404297"/>
     <use xlink:href="#DejaVuSans-72" x="542.1875"/>
     <use xlink:href="#DejaVuSans-6d" x="581.550781"/>
     <use xlink:href="#DejaVuSans-65" x="678.962891"/>
     <use xlink:href="#DejaVuSans-64" x="740.486328"/>
     <use xlink:href="#DejaVuSans-20" x="803.962891"/>
     <use xlink:href="#DejaVuSans-43" x="835.75"/>
     <use xlink:href="#DejaVuSans-61" x="905.574219"/>
     <use xlink:href="#DejaVuSans-73" x="966.853516"/>
     <use xlink:href="#DejaVuSans-65" x="1018.953125"/>
     <use xlink:href="#DejaVuSans-73" x="1080.476562"/>
     <use xlink:href="#DejaVuSans-20" x="1132.576172"/>
     <use xlink:href="#DejaVuSans-46" x="1164.363281"/>
     <use xlink:href="#DejaVuSans-6f" x="1218.257812"/>
     <use xlink:href="#DejaVuSans-72" x="1279.439453"/>
     <use xlink:href="#DejaVuSans-65" x="1318.302734"/>
     <use xlink:href="#DejaVuSans-63" x="1379.826172"/>
     <use xlink:href="#DejaVuSans-61" x="1434.806641"/>
     <use xlink:href="#DejaVuSans-73" x="1496.085938"/>
     <use xlink:href="#DejaVuSans-74" x="1548.185547"/>
     <use xlink:href="#DejaVuSans-69" x="1587.394531"/>
     <use xlink:href="#DejaVuSans-6e" x="1615.177734"/>
     <use xlink:href="#DejaVuSans-67" x="1678.556641"/>
     <use xlink:href="#DejaVuSans-20" x="1742.033203"/>
     <use xlink:href="#DejaVuSans-2d" x="1773.820312"/>
     <use xlink:href="#DejaVuSans-20" x="1809.904297"/>
     <use xlink:href="#DejaVuSans-43" x="1841.691406"/>
     <use xlink:href="#DejaVuSans-6f" x="1911.515625"/>
     <use xlink:href="#DejaVuSans-6e" x="1972.697266"/>
     <use xlink:href="#DejaVuSans-67" x="2036.076172"/>
     <use xlink:href="#DejaVuSans-6f" x="2099.552734"/>
     <use xlink:href="#DejaVuSans-20" x="2160.734375"/>
     <use xlink:href="#DejaVuSans-28" x="2192.521484"/>
     <use xlink:href="#DejaVuSans-4b" x="2231.535156"/>
     <use xlink:href="#DejaVuSans-69" x="2297.111328"/>
     <use xlink:href="#DejaVuSans-6e" x="2324.894531"/>
     <use xlink:href="#DejaVuSans-73" x="2388.273438"/>
     <use xlink:href="#DejaVuSans-68" x="2440.373047"/>
     <use xlink:href="#DejaVuSans-61" x="2503.751953"/>
     <use xlink:href="#DejaVuSans-73" x="2565.03125"/>
     <use xlink:href="#DejaVuSans-61" x="2617.130859"/>
     <use xlink:href="#DejaVuSans-29" x="2678.410156"/>
    </g>
    <!-- ARIMA (4, 1, 1)x(1, 0, 0, 7) (R2 = -0.021828) -->
    <g transform="translate(575.10125 29.7555)scale(0.12 -0.12)">
     <defs>
      <path id="DejaVuSans-41" d="M 2188 4044 
L 1331 1722 
L 3047 1722 
L 2188 4044 
z
M 1831 4666 
L 2547 4666 
L 4325 0 
L 3669 0 
L 3244 1197 
L 1141 1197 
L 716 0 
L 50 0 
L 1831 4666 
z
" transform="scale(0.015625)"/>
      <path id="DejaVuSans-52" d="M 2841 2188 
Q 3044 2119 3236 1894 
Q 3428 1669 3622 1275 
L 4263 0 
L 3584 0 
L 2988 1197 
Q 2756 1666 2539 1819 
Q 2322 1972 1947 1972 
L 1259 1972 
L 1259 0 
L 628 0 
L 628 4666 
L 2053 4666 
Q 2853 4666 3247 4331 
Q 3641 3997 3641 3322 
Q 3641 2881 3436 2590 
Q 3231 2300 2841 2188 
z
M 1259 4147 
L 1259 2491 
L 2053 2491 
Q 2509 2491 2742 2702 
Q 2975 2913 2975 3322 
Q 2975 3731 2742 3939 
Q 2509 4147 2053 4147 
L 1259 4147 
z
" transform="scale(0.015625)"/>
      <path id="DejaVuSans-49" d="M 628 4666 
L 1259 4666 
L 1259 0 
L 628 0 
L 628 4666 
z
" transform="scale(0.015625)"/>
      <path id="DejaVuSans-4d" d="M 628 4666 
L 1569 4666 
L 2759 1491 
L 3956 4666 
L 4897 4666 
L 4897 0 
L 4281 0 
L 4281 4097 
L 3078 897 
L 2444 897 
L 1241 4097 
L 1241 0 
L 628 0 
L 628 4666 
z
" transform="scale(0.015625)"/>
      <path id="DejaVuSans-2c" d="M 750 794 
L 1409 794 
L 1409 256 
L 897 -744 
L 494 -744 
L 750 256 
L 750 794 
z
" transform="scale(0.015625)"/>
      <path id="DejaVuSans-78" d="M 3513 3500 
L 2247 1797 
L 3578 0 
L 2900 0 
L 1881 1375 
L 863 0 
L 184 0 
L 1544 1831 
L 300 3500 
L 978 3500 
L 1906 2253 
L 2834 3500 
L 3513 3500 
z
" transform="scale(0.015625)"/>
      <path id="DejaVuSans-3d" d="M 678 2906 
L 4684 2906 
L 4684 2381 
L 678 2381 
L 678 2906 
z
M 678 1631 
L 4684 1631 
L 4684 1100 
L 678 1100 
L 678 1631 
z
" transform="scale(0.015625)"/>
      <path id="DejaVuSans-2e" d="M 684 794 
L 1344 794 
L 1344 0 
L 684 0 
L 684 794 
z
" transform="scale(0.015625)"/>
      <path id="DejaVuSans-38" d="M 2034 2216 
Q 1584 2216 1326 1975 
Q 1069 1734 1069 1313 
Q 1069 891 1326 650 
Q 1584 409 2034 409 
Q 2484 409 2743 651 
Q 3003 894 3003 1313 
Q 3003 1734 2745 1975 
Q 2488 2216 2034 2216 
z
M 1403 2484 
Q 997 2584 770 2862 
Q 544 3141 544 3541 
Q 544 4100 942 4425 
Q 1341 4750 2034 4750 
Q 2731 4750 3128 4425 
Q 3525 4100 3525 3541 
Q 3525 3141 3298 2862 
Q 3072 2584 2669 2484 
Q 3125 2378 3379 2068 
Q 3634 1759 3634 1313 
Q 3634 634 3220 271 
Q 2806 -91 2034 -91 
Q 1263 -91 848 271 
Q 434 634 434 1313 
Q 434 1759 690 2068 
Q 947 2378 1403 2484 
z
M 1172 3481 
Q 1172 3119 1398 2916 
Q 1625 2713 2034 2713 
Q 2441 2713 2670 2916 
Q 2900 3119 2900 3481 
Q 2900 3844 2670 4047 
Q 2441 4250 2034 4250 
Q 1625 4250 1398 4047 
Q 1172 3844 1172 3481 
z
" transform="scale(0.015625)"/>
     </defs>
     <use xlink:href="#DejaVuSans-41"/>
     <use xlink:href="#DejaVuSans-52" x="68.408203"/>
     <use xlink:href="#DejaVuSans-49" x="137.890625"/>
     <use xlink:href="#DejaVuSans-4d" x="167.382812"/>
     <use xlink:href="#DejaVuSans-41" x="253.662109"/>
     <use xlink:href="#DejaVuSans-20" x="322.070312"/>
     <use xlink:href="#DejaVuSans-28" x="353.857422"/>
     <use xlink:href="#DejaVuSans-34" x="392.871094"/>
     <use xlink:href="#DejaVuSans-2c" x="456.494141"/>
     <use xlink:href="#DejaVuSans-20" x="488.28125"/>
     <use xlink:href="#DejaVuSans-31" x="520.068359"/>
     <use xlink:href="#DejaVuSans-2c" x="583.691406"/>
     <use xlink:href="#DejaVuSans-20" x="615.478516"/>
     <use xlink:href="#DejaVuSans-31" x="647.265625"/>
     <use xlink:href="#DejaVuSans-29" x="710.888672"/>
     <use xlink:href="#DejaVuSans-78" x="749.902344"/>
     <use xlink:href="#DejaVuSans-28" x="809.082031"/>
     <use xlink:href="#DejaVuSans-31" x="848.095703"/>
     <use xlink:href="#DejaVuSans-2c" x="911.71875"/>
     <use xlink:href="#DejaVuSans-20" x="943.505859"/>
     <use xlink:href="#DejaVuSans-30" x="975.292969"/>
     <use xlink:href="#DejaVuSans-2c" x="1038.916016"/>
     <use xlink:href="#DejaVuSans-20" x="1070.703125"/>
     <use xlink:href="#DejaVuSans-30" x="1102.490234"/>
     <use xlink:href="#DejaVuSans-2c" x="1166.113281"/>
     <use xlink:href="#DejaVuSans-20" x="1197.900391"/>
     <use xlink:href="#DejaVuSans-37" x="1229.6875"/>
     <use xlink:href="#DejaVuSans-29" x="1293.310547"/>
     <use xlink:href="#DejaVuSans-20" x="1332.324219"/>
     <use xlink:href="#DejaVuSans-28" x="1364.111328"/>
     <use xlink:href="#DejaVuSans-52" x="1403.125"/>
     <use xlink:href="#DejaVuSans-32" x="1472.607422"/>
     <use xlink:href="#DejaVuSans-20" x="1536.230469"/>
     <use xlink:href="#DejaVuSans-3d" x="1568.017578"/>
     <use xlink:href="#DejaVuSans-20" x="1651.806641"/>
     <use xlink:href="#DejaVuSans-2d" x="1683.59375"/>
     <use xlink:href="#DejaVuSans-30" x="1719.677734"/>
     <use xlink:href="#DejaVuSans-2e" x="1783.300781"/>
     <use xlink:href="#DejaVuSans-30" x="1815.087891"/>
     <use xlink:href="#DejaVuSans-32" x="1878.710938"/>
     <use xlink:href="#DejaVuSans-31" x="1942.333984"/>
     <use xlink:href="#DejaVuSans-38" x="2005.957031"/>
     <use xlink:href="#DejaVuSans-32" x="2069.580078"/>
     <use xlink:href="#DejaVuSans-38" x="2133.203125"/>
     <use xlink:href="#DejaVuSans-29" x="2196.826172"/>
    </g>
   </g>
   <g id="legend_1">
    <g id="patch_7">
     <path d="M 1274.770313 87.789875 
L 1371.85 87.789875 
Q 1373.85 87.789875 1373.85 85.789875 
L 1373.85 42.7555 
Q 1373.85 40.7555 1371.85 40.7555 
L 1274.770313 40.7555 
Q 1272.770313 40.7555 1272.770313 42.7555 
L 1272.770313 85.789875 
Q 1272.770313 87.789875 1274.770313 87.789875 
z
" style="fill: #ffffff; opacity: 0.8; stroke: #cccccc; stroke-linejoin: miter"/>
    </g>
    <g id="line2d_20">
     <path d="M 1276.770313 48.853937 
L 1286.770313 48.853937 
L 1296.770313 48.853937 
" style="fill: none; stroke: #0000ff; stroke-width: 1.5; stroke-linecap: square"/>
    </g>
    <g id="text_18">
     <!-- Actual Value -->
     <g transform="translate(1304.770313 52.353937)scale(0.1 -0.1)">
      <defs>
       <path id="DejaVuSans-75" d="M 544 1381 
L 544 3500 
L 1119 3500 
L 1119 1403 
Q 1119 906 1312 657 
Q 1506 409 1894 409 
Q 2359 409 2629 706 
Q 2900 1003 2900 1516 
L 2900 3500 
L 3475 3500 
L 3475 0 
L 2900 0 
L 2900 538 
Q 2691 219 2414 64 
Q 2138 -91 1772 -91 
Q 1169 -91 856 284 
Q 544 659 544 1381 
z
M 1991 3584 
L 1991 3584 
z
" transform="scale(0.015625)"/>
       <path id="DejaVuSans-56" d="M 1831 0 
L 50 4666 
L 709 4666 
L 2188 738 
L 3669 4666 
L 4325 4666 
L 2547 0 
L 1831 0 
z
" transform="scale(0.015625)"/>
      </defs>
      <use xlink:href="#DejaVuSans-41"/>
      <use xlink:href="#DejaVuSans-63" x="66.658203"/>
      <use xlink:href="#DejaVuSans-74" x="121.638672"/>
      <use xlink:href="#DejaVuSans-75" x="160.847656"/>
      <use xlink:href="#DejaVuSans-61" x="224.226562"/>
      <use xlink:href="#DejaVuSans-6c" x="285.505859"/>
      <use xlink:href="#DejaVuSans-20" x="313.289062"/>
      <use xlink:href="#DejaVuSans-56" x="345.076172"/>
      <use xlink:href="#DejaVuSans-61" x="405.734375"/>
      <use xlink:href="#DejaVuSans-6c" x="467.013672"/>
      <use xlink:href="#DejaVuSans-75" x="494.796875"/>
      <use xlink:href="#DejaVuSans-65" x="558.175781"/>
     </g>
    </g>
    <g id="line2d_21">
     <path d="M 1276.770313 63.532062 
L 1286.770313 63.532062 
L 1296.770313 63.532062 
" style="fill: none; stroke: #ffa500; stroke-width: 1.5; stroke-linecap: square"/>
    </g>
    <g id="text_19">
     <!-- Check Value -->
     <g transform="translate(1304.770313 67.032062)scale(0.1 -0.1)">
      <defs>
       <path id="DejaVuSans-6b" d="M 581 4863 
L 1159 4863 
L 1159 1991 
L 2875 3500 
L 3609 3500 
L 1753 1863 
L 3688 0 
L 2938 0 
L 1159 1709 
L 1159 0 
L 581 0 
L 581 4863 
z
" transform="scale(0.015625)"/>
      </defs>
      <use xlink:href="#DejaVuSans-43"/>
      <use xlink:href="#DejaVuSans-68" x="69.824219"/>
      <use xlink:href="#DejaVuSans-65" x="133.203125"/>
      <use xlink:href="#DejaVuSans-63" x="194.726562"/>
      <use xlink:href="#DejaVuSans-6b" x="249.707031"/>
      <use xlink:href="#DejaVuSans-20" x="307.617188"/>
      <use xlink:href="#DejaVuSans-56" x="339.404297"/>
      <use xlink:href="#DejaVuSans-61" x="400.0625"/>
      <use xlink:href="#DejaVuSans-6c" x="461.341797"/>
      <use xlink:href="#DejaVuSans-75" x="489.125"/>
      <use xlink:href="#DejaVuSans-65" x="552.503906"/>
     </g>
    </g>
    <g id="line2d_22">
     <path d="M 1276.770313 78.210187 
L 1286.770313 78.210187 
L 1296.770313 78.210187 
" style="fill: none; stroke: #ff0000; stroke-width: 1.5; stroke-linecap: square"/>
    </g>
    <g id="text_20">
     <!-- Predict Value -->
     <g transform="translate(1304.770313 81.710187)scale(0.1 -0.1)">
      <defs>
       <path id="DejaVuSans-50" d="M 1259 4147 
L 1259 2394 
L 2053 2394 
Q 2494 2394 2734 2622 
Q 2975 2850 2975 3272 
Q 2975 3691 2734 3919 
Q 2494 4147 2053 4147 
L 1259 4147 
z
M 628 4666 
L 2053 4666 
Q 2838 4666 3239 4311 
Q 3641 3956 3641 3272 
Q 3641 2581 3239 2228 
Q 2838 1875 2053 1875 
L 1259 1875 
L 1259 0 
L 628 0 
L 628 4666 
z
" transform="scale(0.015625)"/>
      </defs>
      <use xlink:href="#DejaVuSans-50"/>
      <use xlink:href="#DejaVuSans-72" x="58.552734"/>
      <use xlink:href="#DejaVuSans-65" x="97.416016"/>
      <use xlink:href="#DejaVuSans-64" x="158.939453"/>
      <use xlink:href="#DejaVuSans-69" x="222.416016"/>
      <use xlink:href="#DejaVuSans-63" x="250.199219"/>
      <use xlink:href="#DejaVuSans-74" x="305.179688"/>
      <use xlink:href="#DejaVuSans-20" x="344.388672"/>
      <use xlink:href="#DejaVuSans-56" x="376.175781"/>
      <use xlink:href="#DejaVuSans-61" x="436.833984"/>
      <use xlink:href="#DejaVuSans-6c" x="498.113281"/>
      <use xlink:href="#DejaVuSans-75" x="525.896484"/>
      <use xlink:href="#DejaVuSans-65" x="589.275391"/>
     </g>
    </g>
   </g>
  </g>
 </g>
 <defs>
  <clipPath id="p1004c05dee">
   <rect x="39.65" y="35.7555" width="1339.2" height="332.64"/>
  </clipPath>
 </defs>
</svg>
