<?xml version="1.0" encoding="utf-8" standalone="no"?>
<!DOCTYPE svg PUBLIC "-//W3C//DTD SVG 1.1//EN"
  "http://www.w3.org/Graphics/SVG/1.1/DTD/svg11.dtd">
<svg xmlns:xlink="http://www.w3.org/1999/xlink" width="1386.05pt" height="392.273625pt" viewBox="0 0 1386.05 392.273625" xmlns="http://www.w3.org/2000/svg" version="1.1">
 <metadata>
  <rdf:RDF xmlns:dc="http://purl.org/dc/elements/1.1/" xmlns:cc="http://creativecommons.org/ns#" xmlns:rdf="http://www.w3.org/1999/02/22-rdf-syntax-ns#">
   <cc:Work>
    <dc:type rdf:resource="http://purl.org/dc/dcmitype/StillImage"/>
    <dc:date>2022-07-12T20:16:31.373364</dc:date>
    <dc:format>image/svg+xml</dc:format>
    <dc:creator>
     <cc:Agent>
      <dc:title>Matplotlib v3.5.2, https://matplotlib.org/</dc:title>
     </cc:Agent>
    </dc:creator>
   </cc:Work>
  </rdf:RDF>
 </metadata>
 <defs>
  <style type="text/css">*{stroke-linejoin: round; stroke-linecap: butt}</style>
 </defs>
 <g id="figure_1">
  <g id="patch_1">
   <path d="M 0 392.273625 
L 1386.05 392.273625 
L 1386.05 0 
L 0 0 
z
" style="fill: #ffffff"/>
  </g>
  <g id="axes_1">
   <g id="patch_2">
    <path d="M 39.65 368.3955 
L 1378.85 368.3955 
L 1378.85 35.7555 
L 39.65 35.7555 
z
" style="fill: #ffffff"/>
   </g>
   <g id="matplotlib.axis_1">
    <g id="xtick_1">
     <g id="line2d_1">
      <defs>
       <path id="m637425f190" d="M 0 0 
L 0 3.5 
" style="stroke: #000000; stroke-width: 0.8"/>
      </defs>
      <g>
       <use xlink:href="#m637425f190" x="71.186473" y="368.3955" style="stroke: #000000; stroke-width: 0.8"/>
      </g>
     </g>
     <g id="text_1">
      <!-- 2020-01 -->
      <g transform="translate(50.295067 382.993937)scale(0.1 -0.1)">
       <defs>
        <path id="DejaVuSans-32" d="M 1228 531 
L 3431 531 
L 3431 0 
L 469 0 
L 469 531 
Q 828 903 1448 1529 
Q 2069 2156 2228 2338 
Q 2531 2678 2651 2914 
Q 2772 3150 2772 3378 
Q 2772 3750 2511 3984 
Q 2250 4219 1831 4219 
Q 1534 4219 1204 4116 
Q 875 4013 500 3803 
L 500 4441 
Q 881 4594 1212 4672 
Q 1544 4750 1819 4750 
Q 2544 4750 2975 4387 
Q 3406 4025 3406 3419 
Q 3406 3131 3298 2873 
Q 3191 2616 2906 2266 
Q 2828 2175 2409 1742 
Q 1991 1309 1228 531 
z
" transform="scale(0.015625)"/>
        <path id="DejaVuSans-30" d="M 2034 4250 
Q 1547 4250 1301 3770 
Q 1056 3291 1056 2328 
Q 1056 1369 1301 889 
Q 1547 409 2034 409 
Q 2525 409 2770 889 
Q 3016 1369 3016 2328 
Q 3016 3291 2770 3770 
Q 2525 4250 2034 4250 
z
M 2034 4750 
Q 2819 4750 3233 4129 
Q 3647 3509 3647 2328 
Q 3647 1150 3233 529 
Q 2819 -91 2034 -91 
Q 1250 -91 836 529 
Q 422 1150 422 2328 
Q 422 3509 836 4129 
Q 1250 4750 2034 4750 
z
" transform="scale(0.015625)"/>
        <path id="DejaVuSans-2d" d="M 313 2009 
L 1997 2009 
L 1997 1497 
L 313 1497 
L 313 2009 
z
" transform="scale(0.015625)"/>
        <path id="DejaVuSans-31" d="M 794 531 
L 1825 531 
L 1825 4091 
L 703 3866 
L 703 4441 
L 1819 4666 
L 2450 4666 
L 2450 531 
L 3481 531 
L 3481 0 
L 794 0 
L 794 531 
z
" transform="scale(0.015625)"/>
       </defs>
       <use xlink:href="#DejaVuSans-32"/>
       <use xlink:href="#DejaVuSans-30" x="63.623047"/>
       <use xlink:href="#DejaVuSans-32" x="127.246094"/>
       <use xlink:href="#DejaVuSans-30" x="190.869141"/>
       <use xlink:href="#DejaVuSans-2d" x="254.492188"/>
       <use xlink:href="#DejaVuSans-30" x="290.576172"/>
       <use xlink:href="#DejaVuSans-31" x="354.199219"/>
      </g>
     </g>
    </g>
    <g id="xtick_2">
     <g id="line2d_2">
      <g>
       <use xlink:href="#m637425f190" x="192.531888" y="368.3955" style="stroke: #000000; stroke-width: 0.8"/>
      </g>
     </g>
     <g id="text_2">
      <!-- 2020-04 -->
      <g transform="translate(171.640482 382.993937)scale(0.1 -0.1)">
       <defs>
        <path id="DejaVuSans-34" d="M 2419 4116 
L 825 1625 
L 2419 1625 
L 2419 4116 
z
M 2253 4666 
L 3047 4666 
L 3047 1625 
L 3713 1625 
L 3713 1100 
L 3047 1100 
L 3047 0 
L 2419 0 
L 2419 1100 
L 313 1100 
L 313 1709 
L 2253 4666 
z
" transform="scale(0.015625)"/>
       </defs>
       <use xlink:href="#DejaVuSans-32"/>
       <use xlink:href="#DejaVuSans-30" x="63.623047"/>
       <use xlink:href="#DejaVuSans-32" x="127.246094"/>
       <use xlink:href="#DejaVuSans-30" x="190.869141"/>
       <use xlink:href="#DejaVuSans-2d" x="254.492188"/>
       <use xlink:href="#DejaVuSans-30" x="290.576172"/>
       <use xlink:href="#DejaVuSans-34" x="354.199219"/>
      </g>
     </g>
    </g>
    <g id="xtick_3">
     <g id="line2d_3">
      <g>
       <use xlink:href="#m637425f190" x="313.877303" y="368.3955" style="stroke: #000000; stroke-width: 0.8"/>
      </g>
     </g>
     <g id="text_3">
      <!-- 2020-07 -->
      <g transform="translate(292.985896 382.993937)scale(0.1 -0.1)">
       <defs>
        <path id="DejaVuSans-37" d="M 525 4666 
L 3525 4666 
L 3525 4397 
L 1831 0 
L 1172 0 
L 2766 4134 
L 525 4134 
L 525 4666 
z
" transform="scale(0.015625)"/>
       </defs>
       <use xlink:href="#DejaVuSans-32"/>
       <use xlink:href="#DejaVuSans-30" x="63.623047"/>
       <use xlink:href="#DejaVuSans-32" x="127.246094"/>
       <use xlink:href="#DejaVuSans-30" x="190.869141"/>
       <use xlink:href="#DejaVuSans-2d" x="254.492188"/>
       <use xlink:href="#DejaVuSans-30" x="290.576172"/>
       <use xlink:href="#DejaVuSans-37" x="354.199219"/>
      </g>
     </g>
    </g>
    <g id="xtick_4">
     <g id="line2d_4">
      <g>
       <use xlink:href="#m637425f190" x="436.556183" y="368.3955" style="stroke: #000000; stroke-width: 0.8"/>
      </g>
     </g>
     <g id="text_4">
      <!-- 2020-10 -->
      <g transform="translate(415.664777 382.993937)scale(0.1 -0.1)">
       <use xlink:href="#DejaVuSans-32"/>
       <use xlink:href="#DejaVuSans-30" x="63.623047"/>
       <use xlink:href="#DejaVuSans-32" x="127.246094"/>
       <use xlink:href="#DejaVuSans-30" x="190.869141"/>
       <use xlink:href="#DejaVuSans-2d" x="254.492188"/>
       <use xlink:href="#DejaVuSans-31" x="290.576172"/>
       <use xlink:href="#DejaVuSans-30" x="354.199219"/>
      </g>
     </g>
    </g>
    <g id="xtick_5">
     <g id="line2d_5">
      <g>
       <use xlink:href="#m637425f190" x="559.235064" y="368.3955" style="stroke: #000000; stroke-width: 0.8"/>
      </g>
     </g>
     <g id="text_5">
      <!-- 2021-01 -->
      <g transform="translate(538.343658 382.993937)scale(0.1 -0.1)">
       <use xlink:href="#DejaVuSans-32"/>
       <use xlink:href="#DejaVuSans-30" x="63.623047"/>
       <use xlink:href="#DejaVuSans-32" x="127.246094"/>
       <use xlink:href="#DejaVuSans-31" x="190.869141"/>
       <use xlink:href="#DejaVuSans-2d" x="254.492188"/>
       <use xlink:href="#DejaVuSans-30" x="290.576172"/>
       <use xlink:href="#DejaVuSans-31" x="354.199219"/>
      </g>
     </g>
    </g>
    <g id="xtick_6">
     <g id="line2d_6">
      <g>
       <use xlink:href="#m637425f190" x="679.247013" y="368.3955" style="stroke: #000000; stroke-width: 0.8"/>
      </g>
     </g>
     <g id="text_6">
      <!-- 2021-04 -->
      <g transform="translate(658.355607 382.993937)scale(0.1 -0.1)">
       <use xlink:href="#DejaVuSans-32"/>
       <use xlink:href="#DejaVuSans-30" x="63.623047"/>
       <use xlink:href="#DejaVuSans-32" x="127.246094"/>
       <use xlink:href="#DejaVuSans-31" x="190.869141"/>
       <use xlink:href="#DejaVuSans-2d" x="254.492188"/>
       <use xlink:href="#DejaVuSans-30" x="290.576172"/>
       <use xlink:href="#DejaVuSans-34" x="354.199219"/>
      </g>
     </g>
    </g>
    <g id="xtick_7">
     <g id="line2d_7">
      <g>
       <use xlink:href="#m637425f190" x="800.592428" y="368.3955" style="stroke: #000000; stroke-width: 0.8"/>
      </g>
     </g>
     <g id="text_7">
      <!-- 2021-07 -->
      <g transform="translate(779.701021 382.993937)scale(0.1 -0.1)">
       <use xlink:href="#DejaVuSans-32"/>
       <use xlink:href="#DejaVuSans-30" x="63.623047"/>
       <use xlink:href="#DejaVuSans-32" x="127.246094"/>
       <use xlink:href="#DejaVuSans-31" x="190.869141"/>
       <use xlink:href="#DejaVuSans-2d" x="254.492188"/>
       <use xlink:href="#DejaVuSans-30" x="290.576172"/>
       <use xlink:href="#DejaVuSans-37" x="354.199219"/>
      </g>
     </g>
    </g>
    <g id="xtick_8">
     <g id="line2d_8">
      <g>
       <use xlink:href="#m637425f190" x="923.271308" y="368.3955" style="stroke: #000000; stroke-width: 0.8"/>
      </g>
     </g>
     <g id="text_8">
      <!-- 2021-10 -->
      <g transform="translate(902.379902 382.993937)scale(0.1 -0.1)">
       <use xlink:href="#DejaVuSans-32"/>
       <use xlink:href="#DejaVuSans-30" x="63.623047"/>
       <use xlink:href="#DejaVuSans-32" x="127.246094"/>
       <use xlink:href="#DejaVuSans-31" x="190.869141"/>
       <use xlink:href="#DejaVuSans-2d" x="254.492188"/>
       <use xlink:href="#DejaVuSans-31" x="290.576172"/>
       <use xlink:href="#DejaVuSans-30" x="354.199219"/>
      </g>
     </g>
    </g>
    <g id="xtick_9">
     <g id="line2d_9">
      <g>
       <use xlink:href="#m637425f190" x="1045.950189" y="368.3955" style="stroke: #000000; stroke-width: 0.8"/>
      </g>
     </g>
     <g id="text_9">
      <!-- 2022-01 -->
      <g transform="translate(1025.058783 382.993937)scale(0.1 -0.1)">
       <use xlink:href="#DejaVuSans-32"/>
       <use xlink:href="#DejaVuSans-30" x="63.623047"/>
       <use xlink:href="#DejaVuSans-32" x="127.246094"/>
       <use xlink:href="#DejaVuSans-32" x="190.869141"/>
       <use xlink:href="#DejaVuSans-2d" x="254.492188"/>
       <use xlink:href="#DejaVuSans-30" x="290.576172"/>
       <use xlink:href="#DejaVuSans-31" x="354.199219"/>
      </g>
     </g>
    </g>
    <g id="xtick_10">
     <g id="line2d_10">
      <g>
       <use xlink:href="#m637425f190" x="1165.962138" y="368.3955" style="stroke: #000000; stroke-width: 0.8"/>
      </g>
     </g>
     <g id="text_10">
      <!-- 2022-04 -->
      <g transform="translate(1145.070732 382.993937)scale(0.1 -0.1)">
       <use xlink:href="#DejaVuSans-32"/>
       <use xlink:href="#DejaVuSans-30" x="63.623047"/>
       <use xlink:href="#DejaVuSans-32" x="127.246094"/>
       <use xlink:href="#DejaVuSans-32" x="190.869141"/>
       <use xlink:href="#DejaVuSans-2d" x="254.492188"/>
       <use xlink:href="#DejaVuSans-30" x="290.576172"/>
       <use xlink:href="#DejaVuSans-34" x="354.199219"/>
      </g>
     </g>
    </g>
    <g id="xtick_11">
     <g id="line2d_11">
      <g>
       <use xlink:href="#m637425f190" x="1287.307553" y="368.3955" style="stroke: #000000; stroke-width: 0.8"/>
      </g>
     </g>
     <g id="text_11">
      <!-- 2022-07 -->
      <g transform="translate(1266.416146 382.993937)scale(0.1 -0.1)">
       <use xlink:href="#DejaVuSans-32"/>
       <use xlink:href="#DejaVuSans-30" x="63.623047"/>
       <use xlink:href="#DejaVuSans-32" x="127.246094"/>
       <use xlink:href="#DejaVuSans-32" x="190.869141"/>
       <use xlink:href="#DejaVuSans-2d" x="254.492188"/>
       <use xlink:href="#DejaVuSans-30" x="290.576172"/>
       <use xlink:href="#DejaVuSans-37" x="354.199219"/>
      </g>
     </g>
    </g>
   </g>
   <g id="matplotlib.axis_2">
    <g id="ytick_1">
     <g id="line2d_12">
      <defs>
       <path id="m2fc65ddec0" d="M 0 0 
L -3.5 0 
" style="stroke: #000000; stroke-width: 0.8"/>
      </defs>
      <g>
       <use xlink:href="#m2fc65ddec0" x="39.65" y="353.2755" style="stroke: #000000; stroke-width: 0.8"/>
      </g>
     </g>
     <g id="text_12">
      <!-- 0 -->
      <g transform="translate(26.2875 357.074719)scale(0.1 -0.1)">
       <use xlink:href="#DejaVuSans-30"/>
      </g>
     </g>
    </g>
    <g id="ytick_2">
     <g id="line2d_13">
      <g>
       <use xlink:href="#m2fc65ddec0" x="39.65" y="312.355338" style="stroke: #000000; stroke-width: 0.8"/>
      </g>
     </g>
     <g id="text_13">
      <!-- 200 -->
      <g transform="translate(13.5625 316.154556)scale(0.1 -0.1)">
       <use xlink:href="#DejaVuSans-32"/>
       <use xlink:href="#DejaVuSans-30" x="63.623047"/>
       <use xlink:href="#DejaVuSans-30" x="127.246094"/>
      </g>
     </g>
    </g>
    <g id="ytick_3">
     <g id="line2d_14">
      <g>
       <use xlink:href="#m2fc65ddec0" x="39.65" y="271.435175" style="stroke: #000000; stroke-width: 0.8"/>
      </g>
     </g>
     <g id="text_14">
      <!-- 400 -->
      <g transform="translate(13.5625 275.234394)scale(0.1 -0.1)">
       <use xlink:href="#DejaVuSans-34"/>
       <use xlink:href="#DejaVuSans-30" x="63.623047"/>
       <use xlink:href="#DejaVuSans-30" x="127.246094"/>
      </g>
     </g>
    </g>
    <g id="ytick_4">
     <g id="line2d_15">
      <g>
       <use xlink:href="#m2fc65ddec0" x="39.65" y="230.515013" style="stroke: #000000; stroke-width: 0.8"/>
      </g>
     </g>
     <g id="text_15">
      <!-- 600 -->
      <g transform="translate(13.5625 234.314232)scale(0.1 -0.1)">
       <defs>
        <path id="DejaVuSans-36" d="M 2113 2584 
Q 1688 2584 1439 2293 
Q 1191 2003 1191 1497 
Q 1191 994 1439 701 
Q 1688 409 2113 409 
Q 2538 409 2786 701 
Q 3034 994 3034 1497 
Q 3034 2003 2786 2293 
Q 2538 2584 2113 2584 
z
M 3366 4563 
L 3366 3988 
Q 3128 4100 2886 4159 
Q 2644 4219 2406 4219 
Q 1781 4219 1451 3797 
Q 1122 3375 1075 2522 
Q 1259 2794 1537 2939 
Q 1816 3084 2150 3084 
Q 2853 3084 3261 2657 
Q 3669 2231 3669 1497 
Q 3669 778 3244 343 
Q 2819 -91 2113 -91 
Q 1303 -91 875 529 
Q 447 1150 447 2328 
Q 447 3434 972 4092 
Q 1497 4750 2381 4750 
Q 2619 4750 2861 4703 
Q 3103 4656 3366 4563 
z
" transform="scale(0.015625)"/>
       </defs>
       <use xlink:href="#DejaVuSans-36"/>
       <use xlink:href="#DejaVuSans-30" x="63.623047"/>
       <use xlink:href="#DejaVuSans-30" x="127.246094"/>
      </g>
     </g>
    </g>
    <g id="ytick_5">
     <g id="line2d_16">
      <g>
       <use xlink:href="#m2fc65ddec0" x="39.65" y="189.59485" style="stroke: #000000; stroke-width: 0.8"/>
      </g>
     </g>
     <g id="text_16">
      <!-- 800 -->
      <g transform="translate(13.5625 193.394069)scale(0.1 -0.1)">
       <defs>
        <path id="DejaVuSans-38" d="M 2034 2216 
Q 1584 2216 1326 1975 
Q 1069 1734 1069 1313 
Q 1069 891 1326 650 
Q 1584 409 2034 409 
Q 2484 409 2743 651 
Q 3003 894 3003 1313 
Q 3003 1734 2745 1975 
Q 2488 2216 2034 2216 
z
M 1403 2484 
Q 997 2584 770 2862 
Q 544 3141 544 3541 
Q 544 4100 942 4425 
Q 1341 4750 2034 4750 
Q 2731 4750 3128 4425 
Q 3525 4100 3525 3541 
Q 3525 3141 3298 2862 
Q 3072 2584 2669 2484 
Q 3125 2378 3379 2068 
Q 3634 1759 3634 1313 
Q 3634 634 3220 271 
Q 2806 -91 2034 -91 
Q 1263 -91 848 271 
Q 434 634 434 1313 
Q 434 1759 690 2068 
Q 947 2378 1403 2484 
z
M 1172 3481 
Q 1172 3119 1398 2916 
Q 1625 2713 2034 2713 
Q 2441 2713 2670 2916 
Q 2900 3119 2900 3481 
Q 2900 3844 2670 4047 
Q 2441 4250 2034 4250 
Q 1625 4250 1398 4047 
Q 1172 3844 1172 3481 
z
" transform="scale(0.015625)"/>
       </defs>
       <use xlink:href="#DejaVuSans-38"/>
       <use xlink:href="#DejaVuSans-30" x="63.623047"/>
       <use xlink:href="#DejaVuSans-30" x="127.246094"/>
      </g>
     </g>
    </g>
    <g id="ytick_6">
     <g id="line2d_17">
      <g>
       <use xlink:href="#m2fc65ddec0" x="39.65" y="148.674688" style="stroke: #000000; stroke-width: 0.8"/>
      </g>
     </g>
     <g id="text_17">
      <!-- 1000 -->
      <g transform="translate(7.2 152.473907)scale(0.1 -0.1)">
       <use xlink:href="#DejaVuSans-31"/>
       <use xlink:href="#DejaVuSans-30" x="63.623047"/>
       <use xlink:href="#DejaVuSans-30" x="127.246094"/>
       <use xlink:href="#DejaVuSans-30" x="190.869141"/>
      </g>
     </g>
    </g>
    <g id="ytick_7">
     <g id="line2d_18">
      <g>
       <use xlink:href="#m2fc65ddec0" x="39.65" y="107.754526" style="stroke: #000000; stroke-width: 0.8"/>
      </g>
     </g>
     <g id="text_18">
      <!-- 1200 -->
      <g transform="translate(7.2 111.553744)scale(0.1 -0.1)">
       <use xlink:href="#DejaVuSans-31"/>
       <use xlink:href="#DejaVuSans-32" x="63.623047"/>
       <use xlink:href="#DejaVuSans-30" x="127.246094"/>
       <use xlink:href="#DejaVuSans-30" x="190.869141"/>
      </g>
     </g>
    </g>
    <g id="ytick_8">
     <g id="line2d_19">
      <g>
       <use xlink:href="#m2fc65ddec0" x="39.65" y="66.834363" style="stroke: #000000; stroke-width: 0.8"/>
      </g>
     </g>
     <g id="text_19">
      <!-- 1400 -->
      <g transform="translate(7.2 70.633582)scale(0.1 -0.1)">
       <use xlink:href="#DejaVuSans-31"/>
       <use xlink:href="#DejaVuSans-34" x="63.623047"/>
       <use xlink:href="#DejaVuSans-30" x="127.246094"/>
       <use xlink:href="#DejaVuSans-30" x="190.869141"/>
      </g>
     </g>
    </g>
   </g>
   <g id="line2d_20">
    <path d="M 100.522727 353.2755 
L 168.529498 353.2755 
L 169.862964 353.070899 
L 171.19643 352.252496 
L 172.529896 352.457097 
L 173.863363 352.252496 
L 175.196829 351.638694 
L 176.530295 351.229492 
L 177.863761 351.229492 
L 179.197227 353.2755 
L 180.530693 352.661698 
L 181.864159 352.457097 
L 183.197625 351.229492 
L 184.531091 350.206488 
L 185.864557 350.615689 
L 187.198023 350.001887 
L 188.53149 345.091468 
L 189.864956 352.252496 
L 191.198422 348.569681 
L 192.531888 351.434093 
L 193.865354 348.365081 
L 195.19882 348.774282 
L 196.532286 345.296068 
L 199.199218 329.746407 
L 200.532684 340.385649 
L 201.866151 348.16048 
L 203.199617 345.70527 
L 204.533083 344.682266 
L 205.866549 324.017584 
L 207.200015 333.22462 
L 209.866947 319.107164 
L 211.200413 325.245189 
L 212.533879 343.659262 
L 213.867345 341.817855 
L 215.200812 335.884431 
L 216.534278 337.930439 
L 217.867744 340.59025 
L 219.20121 342.840859 
L 220.534676 345.500669 
L 223.201608 343.863863 
L 224.535074 341.408653 
L 225.86854 351.843294 
L 227.202006 346.114472 
L 228.535472 346.114472 
L 229.868939 340.385649 
L 231.202405 345.70527 
L 232.535871 343.659262 
L 233.869337 346.728274 
L 235.202803 346.932875 
L 236.536269 345.091468 
L 237.869735 349.592685 
L 239.203201 347.955879 
L 240.536667 339.976447 
L 241.870133 347.751278 
L 243.2036 348.365081 
L 244.537066 339.158044 
L 245.870532 339.362645 
L 247.203998 346.523673 
L 248.537464 334.247624 
L 249.87093 346.523673 
L 251.204396 344.886867 
L 252.537862 342.636258 
L 253.871328 350.206488 
L 255.204794 345.500669 
L 256.53826 340.181048 
L 257.871727 336.089032 
L 259.205193 348.16048 
L 260.538659 340.181048 
L 261.872125 335.475229 
L 263.205591 343.25006 
L 264.539057 348.16048 
L 265.872523 332.610818 
L 267.205989 337.112036 
L 268.539455 337.930439 
L 269.872921 348.365081 
L 271.206388 337.316637 
L 272.539854 337.521237 
L 273.87332 337.112036 
L 275.206786 341.408653 
L 276.540252 336.293633 
L 277.873718 333.633822 
L 279.207184 339.362645 
L 280.54065 335.475229 
L 281.874116 304.785108 
L 283.207582 330.974012 
L 284.541048 336.907435 
L 285.874515 332.201616 
L 287.207981 329.132604 
L 288.541447 327.086596 
L 289.874913 333.429221 
L 291.208379 329.951007 
L 292.541845 315.833551 
L 293.875311 306.217313 
L 295.208777 314.605947 
L 296.542243 335.884431 
L 297.875709 316.651955 
L 299.209176 310.923132 
L 300.542642 320.130168 
L 301.876108 323.403781 
L 303.209574 312.150737 
L 304.54304 286.166434 
L 305.876506 315.015148 
L 307.209972 302.125297 
L 308.543438 301.102293 
L 309.876904 298.851684 
L 311.21037 297.214878 
L 312.543837 295.782672 
L 313.877303 296.396474 
L 315.210769 292.509059 
L 316.544235 288.212442 
L 317.877701 289.440047 
L 319.211167 289.440047 
L 320.544633 283.302022 
L 321.878099 255.885514 
L 323.211565 301.306894 
L 324.545031 256.703917 
L 325.878497 258.545324 
L 327.211964 253.839505 
L 328.54543 254.248707 
L 329.878896 231.742618 
L 331.212362 252.202699 
L 332.545828 251.793497 
L 333.879294 254.044106 
L 335.21276 242.586461 
L 336.546226 234.81163 
L 337.879692 237.47144 
L 339.213158 272.048978 
L 340.546625 203.507706 
L 341.880091 251.384296 
L 343.213557 229.082807 
L 344.547023 276.754796 
L 345.880489 232.151819 
L 347.213955 234.81163 
L 348.547421 214.55615 
L 349.880887 253.021102 
L 351.214353 171.999181 
L 352.547819 212.919343 
L 353.881285 202.280101 
L 355.214752 194.914472 
L 356.548218 240.131251 
L 357.881684 203.916907 
L 359.21515 152.562104 
L 361.882082 246.473876 
L 363.215548 201.461698 
L 364.549014 231.538017 
L 365.88248 157.472523 
L 368.549413 262.63734 
L 369.882879 167.702564 
L 371.216345 216.397557 
L 372.549811 251.384296 
L 373.883277 208.622726 
L 375.216743 189.39025 
L 376.550209 276.959397 
L 377.883675 220.284972 
L 379.217141 197.778883 
L 380.550607 264.274147 
L 381.884073 245.450872 
L 383.21754 259.568328 
L 384.551006 268.570764 
L 385.884472 271.025974 
L 387.217938 293.327462 
L 388.551404 287.189438 
L 389.88487 254.453308 
L 391.218336 297.419478 
L 392.551802 282.279018 
L 393.885268 280.23301 
L 395.218734 257.317719 
L 396.552201 305.39891 
L 397.885667 289.849248 
L 399.219133 301.920696 
L 400.552599 289.849248 
L 401.886065 292.91826 
L 403.219531 293.122861 
L 404.552997 290.667652 
L 405.886463 273.890385 
L 407.219929 220.489573 
L 408.553395 242.177259 
L 409.886861 212.714742 
L 411.220328 238.494445 
L 412.553794 237.47144 
L 413.88726 240.949654 
L 415.220726 231.947219 
L 416.554192 233.379424 
L 417.887658 228.059803 
L 419.221124 225.195392 
L 420.55459 202.0755 
L 421.888056 220.694174 
L 423.221522 265.297151 
L 424.554989 227.446001 
L 425.888455 232.561021 
L 427.221921 238.903646 
L 428.555387 239.108247 
L 429.888853 265.910953 
L 431.222319 250.770493 
L 432.555785 259.97753 
L 433.889251 235.016231 
L 435.222717 279.005405 
L 436.556183 256.499316 
L 437.88965 299.260886 
L 439.223116 192.868463 
L 440.556582 276.754796 
L 441.890048 284.938829 
L 443.223514 272.048978 
L 444.55698 304.989708 
L 445.890446 261.818937 
L 447.223912 288.621643 
L 448.557378 264.478748 
L 449.890844 287.394039 
L 451.22431 308.058721 
L 452.557777 287.189438 
L 453.891243 290.25845 
L 455.224709 286.166434 
L 456.558175 289.849248 
L 457.891641 308.058721 
L 459.225107 288.826244 
L 460.558573 271.639776 
L 461.892039 290.25845 
L 463.225505 316.651955 
L 464.558971 265.501752 
L 465.892438 294.964269 
L 467.225904 312.559938 
L 468.55937 274.708788 
L 469.892836 279.619208 
L 471.226302 309.490926 
L 472.559768 300.079289 
L 473.893234 301.920696 
L 475.2267 304.989708 
L 476.560166 291.076853 
L 477.893632 307.444918 
L 479.227098 333.22462 
L 480.560565 292.099857 
L 481.894031 307.035717 
L 483.227497 306.217313 
L 484.560963 326.677394 
L 485.894429 306.626515 
L 487.227895 279.005405 
L 488.561361 292.509059 
L 489.894827 353.2755 
L 491.228293 277.5732 
L 492.561759 319.925568 
L 493.895226 313.582942 
L 495.228692 305.603511 
L 496.562158 300.897692 
L 497.895624 325.040588 
L 499.22909 298.647083 
L 500.562556 310.309329 
L 501.896022 340.385649 
L 503.229488 294.555067 
L 504.562954 307.649519 
L 505.89642 315.219749 
L 507.229886 321.153173 
L 508.563353 310.104729 
L 509.896819 303.762104 
L 511.230285 316.038152 
L 512.563751 331.997016 
L 513.897217 311.332334 
L 515.230683 322.176177 
L 516.564149 307.444918 
L 517.897615 316.038152 
L 519.231081 341.204052 
L 520.564547 333.633822 
L 521.898014 287.80324 
L 523.23148 353.2755 
L 524.564946 291.486055 
L 525.898412 353.2755 
L 527.231878 321.971576 
L 528.565344 323.403781 
L 529.89881 323.403781 
L 531.232276 289.235446 
L 532.565742 353.2755 
L 533.899208 323.608382 
L 535.232674 325.040588 
L 536.566141 323.199181 
L 537.899607 292.509059 
L 539.233073 353.2755 
L 540.566539 325.245189 
L 541.900005 326.472794 
L 543.233471 327.291197 
L 544.566937 329.746407 
L 545.900403 326.268193 
L 547.233869 325.65439 
L 548.567335 324.426786 
L 549.900802 330.360209 
L 552.567734 335.884431 
L 553.9012 336.702834 
L 555.234666 337.930439 
L 556.568132 337.316637 
L 557.901598 337.930439 
L 559.235064 328.314201 
L 560.56853 353.2755 
L 561.901996 337.725838 
L 563.235463 353.2755 
L 564.568929 345.70527 
L 565.902395 342.022455 
L 567.235861 340.59025 
L 568.569327 338.339641 
L 569.902793 344.068463 
L 572.569725 345.296068 
L 573.903191 342.636258 
L 575.236657 342.431657 
L 576.570123 340.79485 
L 577.90359 327.291197 
L 580.570522 353.2755 
L 581.903988 339.362645 
L 583.237454 342.022455 
L 584.57092 338.544242 
L 585.904386 341.817855 
L 587.237852 342.431657 
L 588.571318 344.068463 
L 589.904784 341.408653 
L 591.238251 342.227056 
L 592.571717 344.682266 
L 593.905183 345.296068 
L 595.238649 343.863863 
L 596.572115 343.863863 
L 597.905581 330.974012 
L 599.239047 353.2755 
L 600.572513 344.273064 
L 601.905979 343.863863 
L 603.239445 341.408653 
L 604.572911 341.613254 
L 605.906378 338.339641 
L 607.239844 341.817855 
L 608.57331 342.431657 
L 609.906776 340.181048 
L 611.240242 344.682266 
L 612.573708 346.523673 
L 613.907174 339.771846 
L 615.24064 345.70527 
L 616.574106 344.886867 
L 617.907572 346.114472 
L 619.241039 347.955879 
L 620.574505 349.388085 
L 621.907971 345.909871 
L 623.241437 342.840859 
L 624.574903 343.045459 
L 625.908369 346.319072 
L 627.241835 348.774282 
L 628.575301 347.751278 
L 629.908767 345.909871 
L 631.242233 346.728274 
L 632.575699 348.365081 
L 633.909166 346.932875 
L 635.242632 346.728274 
L 636.576098 334.861427 
L 637.909564 353.2755 
L 639.24303 346.114472 
L 640.576496 338.13504 
L 641.909962 353.2755 
L 643.243428 343.863863 
L 644.576894 344.273064 
L 645.91036 342.840859 
L 647.243827 344.477665 
L 648.577293 347.546677 
L 649.910759 348.978883 
L 651.244225 327.904999 
L 652.577691 353.2755 
L 653.911157 335.066028 
L 655.244623 335.67983 
L 656.578089 330.56481 
L 657.911555 339.976447 
L 659.245021 329.746407 
L 660.578488 330.155608 
L 661.911954 327.904999 
L 663.24542 303.352902 
L 664.578886 353.2755 
L 665.912352 331.383213 
L 667.245818 305.808112 
L 668.579284 353.2755 
L 669.91275 325.040588 
L 671.246216 323.812983 
L 672.579682 315.219749 
L 673.913148 313.582942 
L 675.246615 313.173741 
L 676.580081 323.403781 
L 677.913547 315.015148 
L 679.247013 316.242753 
L 680.580479 314.605947 
L 681.913945 313.173741 
L 683.247411 314.810547 
L 684.580877 316.651955 
L 685.914343 326.063592 
L 687.247809 313.992144 
L 688.581276 313.378342 
L 689.914742 310.923132 
L 691.248208 313.378342 
L 692.581674 312.764539 
L 693.91514 313.992144 
L 695.248606 317.061156 
L 696.582072 309.900128 
L 697.915538 306.831116 
L 699.249004 293.532063 
L 701.915936 283.302022 
L 703.249403 291.486055 
L 704.582869 303.557503 
L 705.916335 286.575635 
L 707.249801 274.708788 
L 708.583267 282.68822 
L 709.916733 271.639776 
L 711.250199 282.074417 
L 712.583665 286.166434 
L 713.917131 297.010277 
L 715.250597 275.936393 
L 716.584064 271.844377 
L 717.91753 271.025974 
L 719.250996 262.841941 
L 720.584462 272.867381 
L 721.917928 279.005405 
L 723.251394 289.030845 
L 724.58486 270.616772 
L 725.918326 260.795933 
L 727.251792 267.138558 
L 728.585258 275.322591 
L 729.918724 267.54776 
L 731.252191 279.210006 
L 732.585657 289.235446 
L 733.919123 272.458179 
L 735.252589 279.823809 
L 736.586055 293.736664 
L 737.919521 301.920696 
L 739.252987 291.486055 
L 740.586453 307.649519 
L 741.919919 317.470358 
L 743.253385 309.900128 
L 745.920318 289.235446 
L 747.253784 290.25845 
L 748.58725 294.555067 
L 749.920716 311.127733 
L 751.254182 313.992144 
L 752.587648 309.286325 
L 753.921114 295.987273 
L 755.25458 304.989708 
L 756.588046 299.260886 
L 757.921512 295.987273 
L 759.254979 310.104729 
L 760.588445 320.53937 
L 761.921911 306.012712 
L 763.255377 297.82868 
L 764.588843 312.150737 
L 765.922309 304.580507 
L 767.255775 294.759668 
L 769.922707 312.559938 
L 771.256173 312.559938 
L 773.923106 294.555067 
L 775.256572 289.030845 
L 776.590038 291.076853 
L 777.923504 291.281454 
L 779.25697 291.895256 
L 780.590436 281.665216 
L 781.923902 277.368599 
L 783.257368 274.504187 
L 784.590834 273.276583 
L 785.924301 268.366163 
L 787.257767 265.910953 
L 788.591233 272.458179 
L 791.258165 262.841941 
L 792.591631 255.885514 
L 793.925097 241.563457 
L 795.258563 252.4073 
L 796.592029 257.317719 
L 797.925495 251.384296 
L 800.592428 255.885514 
L 801.925894 251.998098 
L 803.25936 254.657909 
L 804.592826 257.726921 
L 805.926292 256.090114 
L 807.259758 251.793497 
L 808.593224 256.908518 
L 809.92669 253.021102 
L 811.260156 254.657909 
L 812.593622 257.726921 
L 813.927089 254.044106 
L 815.260555 259.568328 
L 816.594021 251.588896 
L 817.927487 252.816501 
L 819.260953 252.4073 
L 820.594419 255.476312 
L 821.927885 250.770493 
L 823.261351 249.542888 
L 825.928283 218.648166 
L 827.261749 210.464133 
L 828.595216 206.167516 
L 829.928682 202.280101 
L 831.262148 195.119072 
L 832.595614 203.712306 
L 833.92908 209.031928 
L 835.262546 191.845459 
L 836.596012 180.797016 
L 837.929478 173.431386 
L 839.262944 169.748572 
L 840.59641 164.22435 
L 841.929877 171.385378 
L 843.263343 176.704999 
L 844.596809 169.33937 
L 845.930275 164.428951 
L 847.263741 158.700128 
L 848.597207 153.994309 
L 849.930673 166.67956 
L 851.264139 169.748572 
L 852.597605 178.137205 
L 853.931071 170.976177 
L 855.264537 168.520967 
L 857.93147 159.31393 
L 859.264936 155.631116 
L 860.598402 165.656555 
L 861.931868 173.840588 
L 863.265334 180.183213 
L 864.5988 179.160209 
L 865.932266 180.592415 
L 868.599198 173.022185 
L 869.932665 178.341806 
L 871.266131 185.912036 
L 872.599597 188.162645 
L 873.933063 182.638423 
L 875.266529 180.183213 
L 876.599995 181.206217 
L 877.933461 183.661427 
L 879.266927 187.344242 
L 880.600393 190.617855 
L 881.933859 198.801887 
L 883.267326 201.461698 
L 884.600792 202.689302 
L 885.934258 212.305541 
L 887.267724 220.694174 
L 888.60119 217.829763 
L 889.934656 222.33098 
L 891.268122 231.128815 
L 892.601588 218.238964 
L 893.935054 219.67117 
L 895.26852 212.714742 
L 896.601986 217.829763 
L 899.268919 245.655473 
L 900.602385 244.632469 
L 901.935851 229.69661 
L 903.269317 226.627597 
L 904.602783 225.604593 
L 905.936249 232.561021 
L 907.269715 234.81163 
L 908.603181 250.770493 
L 909.936647 245.041671 
L 911.270114 246.473876 
L 912.60358 244.632469 
L 913.937046 238.699045 
L 915.270512 249.338288 
L 916.603978 250.565892 
L 917.937444 270.821373 
L 919.27091 270.20757 
L 920.604376 248.929086 
L 921.937842 253.839505 
L 923.271308 248.315283 
L 924.604774 256.908518 
L 925.938241 273.890385 
L 927.271707 261.614336 
L 928.605173 291.076853 
L 929.938639 259.568328 
L 931.272105 253.634905 
L 932.605571 267.54776 
L 933.939037 261.000534 
L 935.272503 266.320155 
L 936.605969 275.936393 
L 937.939435 281.869817 
L 939.272902 274.504187 
L 940.606368 283.711224 
L 941.939834 261.000534 
L 943.2733 270.616772 
L 944.606766 273.071982 
L 945.940232 280.846813 
L 947.273698 283.302022 
L 948.607164 270.20757 
L 949.94063 279.414607 
L 951.274096 271.844377 
L 952.607562 277.163998 
L 953.941029 275.936393 
L 955.274495 279.823809 
L 956.607961 290.872252 
L 957.941427 285.757232 
L 959.274893 283.302022 
L 960.608359 273.481183 
L 963.275291 288.621643 
L 964.608757 295.782672 
L 965.942223 240.949654 
L 967.27569 353.2755 
L 968.609156 293.532063 
L 969.942622 292.71366 
L 971.276088 294.964269 
L 972.609554 300.488491 
L 973.94302 303.148301 
L 975.276486 306.421914 
L 976.609952 308.058721 
L 977.943418 297.419478 
L 979.276884 293.122861 
L 980.61035 297.624079 
L 981.943817 307.240317 
L 983.277283 305.808112 
L 984.610749 314.605947 
L 985.944215 306.626515 
L 987.277681 301.716095 
L 988.611147 298.851684 
L 989.944613 297.624079 
L 991.278079 309.900128 
L 992.611545 303.762104 
L 993.945011 317.674959 
L 995.278478 311.127733 
L 996.611944 308.467922 
L 997.94541 311.127733 
L 999.278876 308.672523 
L 1000.612342 305.808112 
L 1001.945808 305.39891 
L 1003.279274 324.017584 
L 1004.61274 309.081725 
L 1005.946206 310.51393 
L 1007.279672 300.079289 
L 1008.613139 309.900128 
L 1009.946605 306.626515 
L 1011.280071 307.649519 
L 1012.613537 323.199181 
L 1013.947003 312.150737 
L 1015.280469 313.582942 
L 1016.613935 322.99458 
L 1017.947401 296.396474 
L 1019.280867 307.649519 
L 1020.614333 310.104729 
L 1021.947799 325.44979 
L 1023.281266 310.51393 
L 1024.614732 308.467922 
L 1025.948198 308.877124 
L 1027.281664 320.334769 
L 1028.61513 317.674959 
L 1029.948596 313.582942 
L 1031.282062 327.904999 
L 1032.615528 317.674959 
L 1033.948994 315.015148 
L 1035.28246 319.516366 
L 1036.615927 316.242753 
L 1037.949393 324.017584 
L 1039.282859 323.608382 
L 1040.616325 332.815419 
L 1041.949791 324.835987 
L 1043.283257 324.017584 
L 1044.616723 325.858991 
L 1045.950189 327.291197 
L 1047.283655 335.270629 
L 1048.617121 340.181048 
L 1049.950587 335.066028 
L 1051.284054 334.861427 
L 1052.61752 323.403781 
L 1053.950986 301.920696 
L 1055.284452 309.490926 
L 1056.617918 277.7778 
L 1057.951384 273.685784 
L 1059.28485 266.320155 
L 1060.618316 83.61163 
L 1061.951782 353.2755 
L 1063.285248 184.684431 
L 1064.618715 174.045189 
L 1065.952181 166.67956 
L 1067.285647 141.104458 
L 1068.619113 161.973741 
L 1069.952579 104.890114 
L 1071.286045 85.862239 
L 1072.619511 82.997827 
L 1073.952977 68.880371 
L 1075.286443 50.8755 
L 1077.953375 123.508788 
L 1079.286842 113.074147 
L 1080.620308 124.736393 
L 1081.953774 110.618937 
L 1083.28724 117.575365 
L 1084.620706 127.396204 
L 1085.954172 130.465216 
L 1087.287638 145.605676 
L 1088.621104 130.874417 
L 1089.95457 163.815148 
L 1091.288036 156.65412 
L 1092.621503 166.67956 
L 1093.954969 171.79458 
L 1096.621901 195.119072 
L 1097.955367 194.096068 
L 1099.288833 211.691738 
L 1100.622299 225.399993 
L 1101.955765 250.156691 
L 1103.289231 263.455744 
L 1104.622697 287.394039 
L 1105.956163 291.486055 
L 1107.28963 292.71366 
L 1108.623096 303.966704 
L 1109.956562 297.624079 
L 1111.290028 314.196745 
L 1112.623494 311.536934 
L 1113.95696 320.53937 
L 1115.290426 317.470358 
L 1116.623892 325.040588 
L 1117.957358 324.631386 
L 1119.290824 321.357773 
L 1120.624291 325.040588 
L 1121.957757 327.700399 
L 1123.291223 331.587814 
L 1124.624689 333.633822 
L 1125.958155 333.838423 
L 1127.291621 334.656826 
L 1128.625087 336.089032 
L 1129.958553 339.158044 
L 1131.292019 341.204052 
L 1132.625485 339.362645 
L 1133.958952 347.751278 
L 1135.292418 342.840859 
L 1136.625884 350.411089 
L 1137.95935 338.953443 
L 1139.292816 345.091468 
L 1140.626282 339.158044 
L 1141.959748 348.774282 
L 1143.293214 348.978883 
L 1144.62668 340.999451 
L 1145.960146 344.477665 
L 1147.293612 347.137476 
L 1148.627079 348.365081 
L 1149.960545 345.500669 
L 1151.294011 346.728274 
L 1152.627477 350.82029 
L 1153.960943 351.843294 
L 1155.294409 352.047895 
L 1156.627875 351.434093 
L 1157.961341 343.659262 
L 1159.294807 342.636258 
L 1160.628273 345.500669 
L 1161.96174 351.638694 
L 1164.628672 345.296068 
L 1165.962138 345.500669 
L 1167.295604 344.886867 
L 1168.62907 348.16048 
L 1169.962536 346.114472 
L 1171.296002 349.592685 
L 1172.629468 347.955879 
L 1173.962934 346.114472 
L 1175.2964 347.751278 
L 1176.629867 343.863863 
L 1179.296799 349.797286 
L 1180.630265 351.229492 
L 1181.963731 337.316637 
L 1183.297197 353.2755 
L 1184.630663 345.500669 
L 1185.964129 345.500669 
L 1187.297595 345.909871 
L 1188.631061 348.16048 
L 1189.964528 351.638694 
L 1191.297994 343.863863 
L 1192.63146 346.319072 
L 1193.964926 347.751278 
L 1195.298392 350.411089 
L 1196.631858 347.751278 
L 1197.965324 346.319072 
L 1199.29879 351.843294 
L 1200.632256 348.16048 
L 1201.965722 348.978883 
L 1203.299188 348.978883 
L 1204.632655 349.388085 
L 1205.966121 353.2755 
L 1207.299587 346.932875 
L 1208.633053 353.070899 
L 1211.299985 350.206488 
L 1212.633451 351.434093 
L 1213.966917 346.114472 
L 1215.300383 353.2755 
L 1216.633849 344.886867 
L 1217.967316 351.843294 
L 1219.300782 352.457097 
L 1220.634248 349.183484 
L 1221.967714 351.024891 
L 1223.30118 351.229492 
L 1224.634646 350.411089 
L 1225.968112 350.001887 
L 1227.301578 352.047895 
L 1228.635044 349.592685 
L 1229.96851 350.615689 
L 1231.301977 350.615689 
L 1232.635443 344.682266 
L 1233.968909 349.388085 
L 1235.302375 351.024891 
L 1236.635841 352.252496 
L 1237.969307 349.388085 
L 1239.302773 351.024891 
L 1240.636239 351.638694 
L 1241.969705 353.2755 
L 1243.303171 353.2755 
L 1244.636637 344.682266 
L 1245.970104 352.661698 
L 1247.30357 349.592685 
L 1248.637036 350.615689 
L 1249.970502 349.592685 
L 1251.303968 350.206488 
L 1252.637434 353.2755 
L 1253.9709 344.477665 
L 1255.304366 352.047895 
L 1256.637832 349.592685 
L 1257.971298 348.569681 
L 1259.304765 348.978883 
L 1260.638231 346.523673 
L 1261.971697 353.2755 
L 1263.305163 345.909871 
L 1264.638629 351.638694 
L 1265.972095 345.296068 
L 1267.305561 341.613254 
L 1268.639027 341.204052 
L 1269.972493 334.861427 
L 1271.305959 353.2755 
L 1272.639425 312.150737 
L 1273.972892 335.475229 
L 1275.306358 336.498233 
L 1276.639824 333.22462 
L 1277.97329 334.043024 
L 1279.306756 328.928003 
L 1280.640222 324.835987 
L 1281.973688 326.063592 
L 1283.307154 334.656826 
L 1284.64062 333.22462 
L 1285.974086 333.429221 
L 1287.307553 334.452225 
L 1288.641019 335.066028 
L 1289.974485 333.838423 
L 1291.307951 336.498233 
L 1292.641417 338.13504 
L 1293.974883 335.475229 
L 1295.308349 334.043024 
L 1296.641815 334.656826 
L 1297.975281 333.22462 
L 1299.308747 335.066028 
L 1300.642213 336.293633 
L 1300.642213 336.293633 
" clip-path="url(#pb1d8fb3ffa)" style="fill: none; stroke: #0000ff; stroke-width: 1.5; stroke-linecap: square"/>
   </g>
   <g id="line2d_21">
    <path d="M 1060.618316 230.52179 
L 1061.951782 211.880426 
L 1063.285248 219.666256 
L 1064.618715 229.245285 
L 1065.952181 187.321894 
L 1068.619113 138.179357 
L 1069.952579 154.325872 
L 1071.286045 118.791702 
L 1072.619511 92.34889 
L 1073.952977 75.294717 
L 1075.286443 65.755155 
L 1076.619909 65.956688 
L 1077.953375 68.653339 
L 1079.286842 103.185969 
L 1080.620308 111.586816 
L 1081.953774 112.966782 
L 1083.28724 110.832959 
L 1084.620706 117.036842 
L 1085.954172 128.366114 
L 1087.287638 129.141247 
L 1088.621104 137.712608 
L 1089.95457 139.598907 
L 1091.288036 147.763667 
L 1092.621503 157.571629 
L 1093.954969 165.015257 
L 1095.288435 175.453501 
L 1096.621901 179.398287 
L 1097.955367 192.410057 
L 1099.288833 197.287993 
L 1100.622299 208.031666 
L 1101.955765 224.017912 
L 1104.622697 265.120451 
L 1107.28963 291.836712 
L 1111.290028 306.797927 
L 1113.95696 317.87452 
L 1115.290426 318.190849 
L 1116.623892 322.633736 
L 1117.957358 323.534197 
L 1119.290824 326.969792 
L 1120.624291 326.025921 
L 1123.291223 329.505886 
L 1125.958155 334.306229 
L 1127.291621 334.33438 
L 1128.625087 336.195463 
L 1129.958553 337.551086 
L 1131.292019 340.397383 
L 1132.625485 341.387217 
L 1133.958952 342.719139 
L 1135.292418 344.373527 
L 1136.625884 346.262238 
L 1137.95935 346.412186 
L 1139.292816 345.499575 
L 1140.626282 343.23511 
L 1143.293214 345.837741 
L 1144.62668 347.612357 
L 1145.960146 344.538052 
L 1147.293612 344.639128 
L 1148.627079 346.021846 
L 1149.960545 348.144763 
L 1151.294011 348.020295 
L 1152.627477 347.10354 
L 1153.960943 349.515934 
L 1155.294409 351.171268 
L 1156.627875 352.353779 
L 1157.961341 350.015991 
L 1159.294807 347.12542 
L 1160.628273 345.102633 
L 1161.96174 346.016617 
L 1163.295206 348.642444 
L 1164.628672 348.737745 
L 1165.962138 346.401241 
L 1167.295604 344.803967 
L 1168.62907 345.867114 
L 1169.962536 347.51458 
L 1171.296002 347.860297 
L 1172.629468 347.853963 
L 1173.962934 347.70403 
L 1175.2964 346.919524 
L 1176.629867 346.350136 
L 1177.963333 346.03603 
L 1179.296799 347.305247 
L 1180.630265 348.917503 
L 1181.963731 347.338489 
L 1183.297197 346.080877 
L 1184.630663 345.622281 
L 1185.964129 347.547484 
L 1187.297595 346.547001 
L 1188.631061 346.973308 
L 1189.964528 346.941849 
L 1191.297994 348.882484 
L 1192.63146 347.184555 
L 1193.964926 345.90132 
L 1196.631858 349.016771 
L 1197.965324 349.200172 
L 1199.29879 347.440784 
L 1200.632256 348.903601 
L 1201.965722 349.422992 
L 1204.632655 348.962405 
L 1207.299587 351.029518 
L 1208.633053 350.17141 
L 1209.966519 350.71661 
L 1211.299985 351.43045 
L 1212.633451 351.321328 
L 1215.300383 349.36749 
L 1216.633849 349.546295 
L 1217.967316 349.201384 
L 1219.300782 349.674829 
L 1220.634248 350.990408 
L 1221.967714 350.460255 
L 1223.30118 351.031571 
L 1224.634646 350.248211 
L 1225.968112 351.156566 
L 1228.635044 350.658396 
L 1229.96851 350.653622 
L 1231.301977 350.236099 
L 1232.635443 349.512682 
L 1233.968909 347.763009 
L 1235.302375 348.573392 
L 1236.635841 350.276296 
L 1237.969307 350.994882 
L 1239.302773 350.805779 
L 1240.636239 350.089663 
L 1241.969705 351.690396 
L 1243.303171 352.689985 
L 1244.636637 351.918032 
L 1245.970104 349.793083 
L 1247.30357 349.357945 
L 1248.637036 350.552199 
L 1249.970502 350.199141 
L 1251.303968 350.261609 
L 1252.637434 349.972796 
L 1253.9709 350.503483 
L 1255.304366 349.377403 
L 1256.637832 349.182213 
L 1257.971298 349.782413 
L 1260.638231 348.768954 
L 1261.971697 348.014613 
L 1263.305163 349.487013 
L 1264.638629 349.615661 
L 1265.972095 348.516498 
L 1267.305561 346.626191 
L 1268.639027 343.255365 
L 1269.972493 340.970029 
L 1271.305959 340.634568 
L 1272.639425 338.070604 
L 1273.972892 332.125 
L 1275.306358 328.458541 
L 1276.639824 333.110872 
L 1279.306756 334.389557 
L 1280.640222 327.093729 
L 1281.973688 327.10415 
L 1283.307154 327.825243 
L 1284.64062 330.838374 
L 1285.974086 333.013194 
L 1287.307553 332.719425 
L 1288.641019 334.018389 
L 1289.974485 332.797606 
L 1291.307951 335.535145 
L 1292.641417 336.443617 
L 1293.974883 337.018868 
L 1295.308349 336.183321 
L 1296.641815 334.686097 
L 1299.308747 333.616482 
L 1300.642213 335.271693 
L 1300.642213 335.271693 
" clip-path="url(#pb1d8fb3ffa)" style="fill: none; stroke: #ffa500; stroke-width: 1.5; stroke-linecap: square"/>
   </g>
   <g id="line2d_22">
    <path d="M 1300.642213 335.271693 
L 1301.97568 335.670748 
L 1303.309146 335.560653 
L 1304.642612 335.428971 
L 1305.976078 335.269791 
L 1307.309544 335.50431 
L 1308.64301 335.368704 
L 1309.976476 335.708518 
L 1311.309942 335.597167 
L 1312.643408 335.490949 
L 1313.976874 335.528007 
L 1315.310341 335.404385 
L 1316.643807 335.519029 
L 1317.977273 335.46328 
" clip-path="url(#pb1d8fb3ffa)" style="fill: none; stroke: #ff0000; stroke-width: 1.5; stroke-linecap: square"/>
   </g>
   <g id="patch_3">
    <path d="M 39.65 368.3955 
L 39.65 35.7555 
" style="fill: none; stroke: #000000; stroke-width: 0.8; stroke-linejoin: miter; stroke-linecap: square"/>
   </g>
   <g id="patch_4">
    <path d="M 1378.85 368.3955 
L 1378.85 35.7555 
" style="fill: none; stroke: #000000; stroke-width: 0.8; stroke-linejoin: miter; stroke-linecap: square"/>
   </g>
   <g id="patch_5">
    <path d="M 39.65 368.3955 
L 1378.85 368.3955 
" style="fill: none; stroke: #000000; stroke-width: 0.8; stroke-linejoin: miter; stroke-linecap: square"/>
   </g>
   <g id="patch_6">
    <path d="M 39.65 35.7555 
L 1378.85 35.7555 
" style="fill: none; stroke: #000000; stroke-width: 0.8; stroke-linejoin: miter; stroke-linecap: square"/>
   </g>
   <g id="text_20">
    <!-- Daily Confirmed Cases Forecasting - Uzbekistan -->
    <g transform="translate(565.61 16.318125)scale(0.12 -0.12)">
     <defs>
      <path id="DejaVuSans-44" d="M 1259 4147 
L 1259 519 
L 2022 519 
Q 2988 519 3436 956 
Q 3884 1394 3884 2338 
Q 3884 3275 3436 3711 
Q 2988 4147 2022 4147 
L 1259 4147 
z
M 628 4666 
L 1925 4666 
Q 3281 4666 3915 4102 
Q 4550 3538 4550 2338 
Q 4550 1131 3912 565 
Q 3275 0 1925 0 
L 628 0 
L 628 4666 
z
" transform="scale(0.015625)"/>
      <path id="DejaVuSans-61" d="M 2194 1759 
Q 1497 1759 1228 1600 
Q 959 1441 959 1056 
Q 959 750 1161 570 
Q 1363 391 1709 391 
Q 2188 391 2477 730 
Q 2766 1069 2766 1631 
L 2766 1759 
L 2194 1759 
z
M 3341 1997 
L 3341 0 
L 2766 0 
L 2766 531 
Q 2569 213 2275 61 
Q 1981 -91 1556 -91 
Q 1019 -91 701 211 
Q 384 513 384 1019 
Q 384 1609 779 1909 
Q 1175 2209 1959 2209 
L 2766 2209 
L 2766 2266 
Q 2766 2663 2505 2880 
Q 2244 3097 1772 3097 
Q 1472 3097 1187 3025 
Q 903 2953 641 2809 
L 641 3341 
Q 956 3463 1253 3523 
Q 1550 3584 1831 3584 
Q 2591 3584 2966 3190 
Q 3341 2797 3341 1997 
z
" transform="scale(0.015625)"/>
      <path id="DejaVuSans-69" d="M 603 3500 
L 1178 3500 
L 1178 0 
L 603 0 
L 603 3500 
z
M 603 4863 
L 1178 4863 
L 1178 4134 
L 603 4134 
L 603 4863 
z
" transform="scale(0.015625)"/>
      <path id="DejaVuSans-6c" d="M 603 4863 
L 1178 4863 
L 1178 0 
L 603 0 
L 603 4863 
z
" transform="scale(0.015625)"/>
      <path id="DejaVuSans-79" d="M 2059 -325 
Q 1816 -950 1584 -1140 
Q 1353 -1331 966 -1331 
L 506 -1331 
L 506 -850 
L 844 -850 
Q 1081 -850 1212 -737 
Q 1344 -625 1503 -206 
L 1606 56 
L 191 3500 
L 800 3500 
L 1894 763 
L 2988 3500 
L 3597 3500 
L 2059 -325 
z
" transform="scale(0.015625)"/>
      <path id="DejaVuSans-20" transform="scale(0.015625)"/>
      <path id="DejaVuSans-43" d="M 4122 4306 
L 4122 3641 
Q 3803 3938 3442 4084 
Q 3081 4231 2675 4231 
Q 1875 4231 1450 3742 
Q 1025 3253 1025 2328 
Q 1025 1406 1450 917 
Q 1875 428 2675 428 
Q 3081 428 3442 575 
Q 3803 722 4122 1019 
L 4122 359 
Q 3791 134 3420 21 
Q 3050 -91 2638 -91 
Q 1578 -91 968 557 
Q 359 1206 359 2328 
Q 359 3453 968 4101 
Q 1578 4750 2638 4750 
Q 3056 4750 3426 4639 
Q 3797 4528 4122 4306 
z
" transform="scale(0.015625)"/>
      <path id="DejaVuSans-6f" d="M 1959 3097 
Q 1497 3097 1228 2736 
Q 959 2375 959 1747 
Q 959 1119 1226 758 
Q 1494 397 1959 397 
Q 2419 397 2687 759 
Q 2956 1122 2956 1747 
Q 2956 2369 2687 2733 
Q 2419 3097 1959 3097 
z
M 1959 3584 
Q 2709 3584 3137 3096 
Q 3566 2609 3566 1747 
Q 3566 888 3137 398 
Q 2709 -91 1959 -91 
Q 1206 -91 779 398 
Q 353 888 353 1747 
Q 353 2609 779 3096 
Q 1206 3584 1959 3584 
z
" transform="scale(0.015625)"/>
      <path id="DejaVuSans-6e" d="M 3513 2113 
L 3513 0 
L 2938 0 
L 2938 2094 
Q 2938 2591 2744 2837 
Q 2550 3084 2163 3084 
Q 1697 3084 1428 2787 
Q 1159 2491 1159 1978 
L 1159 0 
L 581 0 
L 581 3500 
L 1159 3500 
L 1159 2956 
Q 1366 3272 1645 3428 
Q 1925 3584 2291 3584 
Q 2894 3584 3203 3211 
Q 3513 2838 3513 2113 
z
" transform="scale(0.015625)"/>
      <path id="DejaVuSans-66" d="M 2375 4863 
L 2375 4384 
L 1825 4384 
Q 1516 4384 1395 4259 
Q 1275 4134 1275 3809 
L 1275 3500 
L 2222 3500 
L 2222 3053 
L 1275 3053 
L 1275 0 
L 697 0 
L 697 3053 
L 147 3053 
L 147 3500 
L 697 3500 
L 697 3744 
Q 697 4328 969 4595 
Q 1241 4863 1831 4863 
L 2375 4863 
z
" transform="scale(0.015625)"/>
      <path id="DejaVuSans-72" d="M 2631 2963 
Q 2534 3019 2420 3045 
Q 2306 3072 2169 3072 
Q 1681 3072 1420 2755 
Q 1159 2438 1159 1844 
L 1159 0 
L 581 0 
L 581 3500 
L 1159 3500 
L 1159 2956 
Q 1341 3275 1631 3429 
Q 1922 3584 2338 3584 
Q 2397 3584 2469 3576 
Q 2541 3569 2628 3553 
L 2631 2963 
z
" transform="scale(0.015625)"/>
      <path id="DejaVuSans-6d" d="M 3328 2828 
Q 3544 3216 3844 3400 
Q 4144 3584 4550 3584 
Q 5097 3584 5394 3201 
Q 5691 2819 5691 2113 
L 5691 0 
L 5113 0 
L 5113 2094 
Q 5113 2597 4934 2840 
Q 4756 3084 4391 3084 
Q 3944 3084 3684 2787 
Q 3425 2491 3425 1978 
L 3425 0 
L 2847 0 
L 2847 2094 
Q 2847 2600 2669 2842 
Q 2491 3084 2119 3084 
Q 1678 3084 1418 2786 
Q 1159 2488 1159 1978 
L 1159 0 
L 581 0 
L 581 3500 
L 1159 3500 
L 1159 2956 
Q 1356 3278 1631 3431 
Q 1906 3584 2284 3584 
Q 2666 3584 2933 3390 
Q 3200 3197 3328 2828 
z
" transform="scale(0.015625)"/>
      <path id="DejaVuSans-65" d="M 3597 1894 
L 3597 1613 
L 953 1613 
Q 991 1019 1311 708 
Q 1631 397 2203 397 
Q 2534 397 2845 478 
Q 3156 559 3463 722 
L 3463 178 
Q 3153 47 2828 -22 
Q 2503 -91 2169 -91 
Q 1331 -91 842 396 
Q 353 884 353 1716 
Q 353 2575 817 3079 
Q 1281 3584 2069 3584 
Q 2775 3584 3186 3129 
Q 3597 2675 3597 1894 
z
M 3022 2063 
Q 3016 2534 2758 2815 
Q 2500 3097 2075 3097 
Q 1594 3097 1305 2825 
Q 1016 2553 972 2059 
L 3022 2063 
z
" transform="scale(0.015625)"/>
      <path id="DejaVuSans-64" d="M 2906 2969 
L 2906 4863 
L 3481 4863 
L 3481 0 
L 2906 0 
L 2906 525 
Q 2725 213 2448 61 
Q 2172 -91 1784 -91 
Q 1150 -91 751 415 
Q 353 922 353 1747 
Q 353 2572 751 3078 
Q 1150 3584 1784 3584 
Q 2172 3584 2448 3432 
Q 2725 3281 2906 2969 
z
M 947 1747 
Q 947 1113 1208 752 
Q 1469 391 1925 391 
Q 2381 391 2643 752 
Q 2906 1113 2906 1747 
Q 2906 2381 2643 2742 
Q 2381 3103 1925 3103 
Q 1469 3103 1208 2742 
Q 947 2381 947 1747 
z
" transform="scale(0.015625)"/>
      <path id="DejaVuSans-73" d="M 2834 3397 
L 2834 2853 
Q 2591 2978 2328 3040 
Q 2066 3103 1784 3103 
Q 1356 3103 1142 2972 
Q 928 2841 928 2578 
Q 928 2378 1081 2264 
Q 1234 2150 1697 2047 
L 1894 2003 
Q 2506 1872 2764 1633 
Q 3022 1394 3022 966 
Q 3022 478 2636 193 
Q 2250 -91 1575 -91 
Q 1294 -91 989 -36 
Q 684 19 347 128 
L 347 722 
Q 666 556 975 473 
Q 1284 391 1588 391 
Q 1994 391 2212 530 
Q 2431 669 2431 922 
Q 2431 1156 2273 1281 
Q 2116 1406 1581 1522 
L 1381 1569 
Q 847 1681 609 1914 
Q 372 2147 372 2553 
Q 372 3047 722 3315 
Q 1072 3584 1716 3584 
Q 2034 3584 2315 3537 
Q 2597 3491 2834 3397 
z
" transform="scale(0.015625)"/>
      <path id="DejaVuSans-46" d="M 628 4666 
L 3309 4666 
L 3309 4134 
L 1259 4134 
L 1259 2759 
L 3109 2759 
L 3109 2228 
L 1259 2228 
L 1259 0 
L 628 0 
L 628 4666 
z
" transform="scale(0.015625)"/>
      <path id="DejaVuSans-63" d="M 3122 3366 
L 3122 2828 
Q 2878 2963 2633 3030 
Q 2388 3097 2138 3097 
Q 1578 3097 1268 2742 
Q 959 2388 959 1747 
Q 959 1106 1268 751 
Q 1578 397 2138 397 
Q 2388 397 2633 464 
Q 2878 531 3122 666 
L 3122 134 
Q 2881 22 2623 -34 
Q 2366 -91 2075 -91 
Q 1284 -91 818 406 
Q 353 903 353 1747 
Q 353 2603 823 3093 
Q 1294 3584 2113 3584 
Q 2378 3584 2631 3529 
Q 2884 3475 3122 3366 
z
" transform="scale(0.015625)"/>
      <path id="DejaVuSans-74" d="M 1172 4494 
L 1172 3500 
L 2356 3500 
L 2356 3053 
L 1172 3053 
L 1172 1153 
Q 1172 725 1289 603 
Q 1406 481 1766 481 
L 2356 481 
L 2356 0 
L 1766 0 
Q 1100 0 847 248 
Q 594 497 594 1153 
L 594 3053 
L 172 3053 
L 172 3500 
L 594 3500 
L 594 4494 
L 1172 4494 
z
" transform="scale(0.015625)"/>
      <path id="DejaVuSans-67" d="M 2906 1791 
Q 2906 2416 2648 2759 
Q 2391 3103 1925 3103 
Q 1463 3103 1205 2759 
Q 947 2416 947 1791 
Q 947 1169 1205 825 
Q 1463 481 1925 481 
Q 2391 481 2648 825 
Q 2906 1169 2906 1791 
z
M 3481 434 
Q 3481 -459 3084 -895 
Q 2688 -1331 1869 -1331 
Q 1566 -1331 1297 -1286 
Q 1028 -1241 775 -1147 
L 775 -588 
Q 1028 -725 1275 -790 
Q 1522 -856 1778 -856 
Q 2344 -856 2625 -561 
Q 2906 -266 2906 331 
L 2906 616 
Q 2728 306 2450 153 
Q 2172 0 1784 0 
Q 1141 0 747 490 
Q 353 981 353 1791 
Q 353 2603 747 3093 
Q 1141 3584 1784 3584 
Q 2172 3584 2450 3431 
Q 2728 3278 2906 2969 
L 2906 3500 
L 3481 3500 
L 3481 434 
z
" transform="scale(0.015625)"/>
      <path id="DejaVuSans-55" d="M 556 4666 
L 1191 4666 
L 1191 1831 
Q 1191 1081 1462 751 
Q 1734 422 2344 422 
Q 2950 422 3222 751 
Q 3494 1081 3494 1831 
L 3494 4666 
L 4128 4666 
L 4128 1753 
Q 4128 841 3676 375 
Q 3225 -91 2344 -91 
Q 1459 -91 1007 375 
Q 556 841 556 1753 
L 556 4666 
z
" transform="scale(0.015625)"/>
      <path id="DejaVuSans-7a" d="M 353 3500 
L 3084 3500 
L 3084 2975 
L 922 459 
L 3084 459 
L 3084 0 
L 275 0 
L 275 525 
L 2438 3041 
L 353 3041 
L 353 3500 
z
" transform="scale(0.015625)"/>
      <path id="DejaVuSans-62" d="M 3116 1747 
Q 3116 2381 2855 2742 
Q 2594 3103 2138 3103 
Q 1681 3103 1420 2742 
Q 1159 2381 1159 1747 
Q 1159 1113 1420 752 
Q 1681 391 2138 391 
Q 2594 391 2855 752 
Q 3116 1113 3116 1747 
z
M 1159 2969 
Q 1341 3281 1617 3432 
Q 1894 3584 2278 3584 
Q 2916 3584 3314 3078 
Q 3713 2572 3713 1747 
Q 3713 922 3314 415 
Q 2916 -91 2278 -91 
Q 1894 -91 1617 61 
Q 1341 213 1159 525 
L 1159 0 
L 581 0 
L 581 4863 
L 1159 4863 
L 1159 2969 
z
" transform="scale(0.015625)"/>
      <path id="DejaVuSans-6b" d="M 581 4863 
L 1159 4863 
L 1159 1991 
L 2875 3500 
L 3609 3500 
L 1753 1863 
L 3688 0 
L 2938 0 
L 1159 1709 
L 1159 0 
L 581 0 
L 581 4863 
z
" transform="scale(0.015625)"/>
     </defs>
     <use xlink:href="#DejaVuSans-44"/>
     <use xlink:href="#DejaVuSans-61" x="77.001953"/>
     <use xlink:href="#DejaVuSans-69" x="138.28125"/>
     <use xlink:href="#DejaVuSans-6c" x="166.064453"/>
     <use xlink:href="#DejaVuSans-79" x="193.847656"/>
     <use xlink:href="#DejaVuSans-20" x="253.027344"/>
     <use xlink:href="#DejaVuSans-43" x="284.814453"/>
     <use xlink:href="#DejaVuSans-6f" x="354.638672"/>
     <use xlink:href="#DejaVuSans-6e" x="415.820312"/>
     <use xlink:href="#DejaVuSans-66" x="479.199219"/>
     <use xlink:href="#DejaVuSans-69" x="514.404297"/>
     <use xlink:href="#DejaVuSans-72" x="542.1875"/>
     <use xlink:href="#DejaVuSans-6d" x="581.550781"/>
     <use xlink:href="#DejaVuSans-65" x="678.962891"/>
     <use xlink:href="#DejaVuSans-64" x="740.486328"/>
     <use xlink:href="#DejaVuSans-20" x="803.962891"/>
     <use xlink:href="#DejaVuSans-43" x="835.75"/>
     <use xlink:href="#DejaVuSans-61" x="905.574219"/>
     <use xlink:href="#DejaVuSans-73" x="966.853516"/>
     <use xlink:href="#DejaVuSans-65" x="1018.953125"/>
     <use xlink:href="#DejaVuSans-73" x="1080.476562"/>
     <use xlink:href="#DejaVuSans-20" x="1132.576172"/>
     <use xlink:href="#DejaVuSans-46" x="1164.363281"/>
     <use xlink:href="#DejaVuSans-6f" x="1218.257812"/>
     <use xlink:href="#DejaVuSans-72" x="1279.439453"/>
     <use xlink:href="#DejaVuSans-65" x="1318.302734"/>
     <use xlink:href="#DejaVuSans-63" x="1379.826172"/>
     <use xlink:href="#DejaVuSans-61" x="1434.806641"/>
     <use xlink:href="#DejaVuSans-73" x="1496.085938"/>
     <use xlink:href="#DejaVuSans-74" x="1548.185547"/>
     <use xlink:href="#DejaVuSans-69" x="1587.394531"/>
     <use xlink:href="#DejaVuSans-6e" x="1615.177734"/>
     <use xlink:href="#DejaVuSans-67" x="1678.556641"/>
     <use xlink:href="#DejaVuSans-20" x="1742.033203"/>
     <use xlink:href="#DejaVuSans-2d" x="1773.820312"/>
     <use xlink:href="#DejaVuSans-20" x="1809.904297"/>
     <use xlink:href="#DejaVuSans-55" x="1841.691406"/>
     <use xlink:href="#DejaVuSans-7a" x="1914.884766"/>
     <use xlink:href="#DejaVuSans-62" x="1967.375"/>
     <use xlink:href="#DejaVuSans-65" x="2030.851562"/>
     <use xlink:href="#DejaVuSans-6b" x="2092.375"/>
     <use xlink:href="#DejaVuSans-69" x="2150.285156"/>
     <use xlink:href="#DejaVuSans-73" x="2178.068359"/>
     <use xlink:href="#DejaVuSans-74" x="2230.167969"/>
     <use xlink:href="#DejaVuSans-61" x="2269.376953"/>
     <use xlink:href="#DejaVuSans-6e" x="2330.65625"/>
    </g>
    <!-- ARIMA (3, 1, 0)x(1, 0, 1, 7) (R2 = 0.944922) -->
    <g transform="translate(577.265938 29.7555)scale(0.12 -0.12)">
     <defs>
      <path id="DejaVuSans-41" d="M 2188 4044 
L 1331 1722 
L 3047 1722 
L 2188 4044 
z
M 1831 4666 
L 2547 4666 
L 4325 0 
L 3669 0 
L 3244 1197 
L 1141 1197 
L 716 0 
L 50 0 
L 1831 4666 
z
" transform="scale(0.015625)"/>
      <path id="DejaVuSans-52" d="M 2841 2188 
Q 3044 2119 3236 1894 
Q 3428 1669 3622 1275 
L 4263 0 
L 3584 0 
L 2988 1197 
Q 2756 1666 2539 1819 
Q 2322 1972 1947 1972 
L 1259 1972 
L 1259 0 
L 628 0 
L 628 4666 
L 2053 4666 
Q 2853 4666 3247 4331 
Q 3641 3997 3641 3322 
Q 3641 2881 3436 2590 
Q 3231 2300 2841 2188 
z
M 1259 4147 
L 1259 2491 
L 2053 2491 
Q 2509 2491 2742 2702 
Q 2975 2913 2975 3322 
Q 2975 3731 2742 3939 
Q 2509 4147 2053 4147 
L 1259 4147 
z
" transform="scale(0.015625)"/>
      <path id="DejaVuSans-49" d="M 628 4666 
L 1259 4666 
L 1259 0 
L 628 0 
L 628 4666 
z
" transform="scale(0.015625)"/>
      <path id="DejaVuSans-4d" d="M 628 4666 
L 1569 4666 
L 2759 1491 
L 3956 4666 
L 4897 4666 
L 4897 0 
L 4281 0 
L 4281 4097 
L 3078 897 
L 2444 897 
L 1241 4097 
L 1241 0 
L 628 0 
L 628 4666 
z
" transform="scale(0.015625)"/>
      <path id="DejaVuSans-28" d="M 1984 4856 
Q 1566 4138 1362 3434 
Q 1159 2731 1159 2009 
Q 1159 1288 1364 580 
Q 1569 -128 1984 -844 
L 1484 -844 
Q 1016 -109 783 600 
Q 550 1309 550 2009 
Q 550 2706 781 3412 
Q 1013 4119 1484 4856 
L 1984 4856 
z
" transform="scale(0.015625)"/>
      <path id="DejaVuSans-33" d="M 2597 2516 
Q 3050 2419 3304 2112 
Q 3559 1806 3559 1356 
Q 3559 666 3084 287 
Q 2609 -91 1734 -91 
Q 1441 -91 1130 -33 
Q 819 25 488 141 
L 488 750 
Q 750 597 1062 519 
Q 1375 441 1716 441 
Q 2309 441 2620 675 
Q 2931 909 2931 1356 
Q 2931 1769 2642 2001 
Q 2353 2234 1838 2234 
L 1294 2234 
L 1294 2753 
L 1863 2753 
Q 2328 2753 2575 2939 
Q 2822 3125 2822 3475 
Q 2822 3834 2567 4026 
Q 2313 4219 1838 4219 
Q 1578 4219 1281 4162 
Q 984 4106 628 3988 
L 628 4550 
Q 988 4650 1302 4700 
Q 1616 4750 1894 4750 
Q 2613 4750 3031 4423 
Q 3450 4097 3450 3541 
Q 3450 3153 3228 2886 
Q 3006 2619 2597 2516 
z
" transform="scale(0.015625)"/>
      <path id="DejaVuSans-2c" d="M 750 794 
L 1409 794 
L 1409 256 
L 897 -744 
L 494 -744 
L 750 256 
L 750 794 
z
" transform="scale(0.015625)"/>
      <path id="DejaVuSans-29" d="M 513 4856 
L 1013 4856 
Q 1481 4119 1714 3412 
Q 1947 2706 1947 2009 
Q 1947 1309 1714 600 
Q 1481 -109 1013 -844 
L 513 -844 
Q 928 -128 1133 580 
Q 1338 1288 1338 2009 
Q 1338 2731 1133 3434 
Q 928 4138 513 4856 
z
" transform="scale(0.015625)"/>
      <path id="DejaVuSans-78" d="M 3513 3500 
L 2247 1797 
L 3578 0 
L 2900 0 
L 1881 1375 
L 863 0 
L 184 0 
L 1544 1831 
L 300 3500 
L 978 3500 
L 1906 2253 
L 2834 3500 
L 3513 3500 
z
" transform="scale(0.015625)"/>
      <path id="DejaVuSans-3d" d="M 678 2906 
L 4684 2906 
L 4684 2381 
L 678 2381 
L 678 2906 
z
M 678 1631 
L 4684 1631 
L 4684 1100 
L 678 1100 
L 678 1631 
z
" transform="scale(0.015625)"/>
      <path id="DejaVuSans-2e" d="M 684 794 
L 1344 794 
L 1344 0 
L 684 0 
L 684 794 
z
" transform="scale(0.015625)"/>
      <path id="DejaVuSans-39" d="M 703 97 
L 703 672 
Q 941 559 1184 500 
Q 1428 441 1663 441 
Q 2288 441 2617 861 
Q 2947 1281 2994 2138 
Q 2813 1869 2534 1725 
Q 2256 1581 1919 1581 
Q 1219 1581 811 2004 
Q 403 2428 403 3163 
Q 403 3881 828 4315 
Q 1253 4750 1959 4750 
Q 2769 4750 3195 4129 
Q 3622 3509 3622 2328 
Q 3622 1225 3098 567 
Q 2575 -91 1691 -91 
Q 1453 -91 1209 -44 
Q 966 3 703 97 
z
M 1959 2075 
Q 2384 2075 2632 2365 
Q 2881 2656 2881 3163 
Q 2881 3666 2632 3958 
Q 2384 4250 1959 4250 
Q 1534 4250 1286 3958 
Q 1038 3666 1038 3163 
Q 1038 2656 1286 2365 
Q 1534 2075 1959 2075 
z
" transform="scale(0.015625)"/>
     </defs>
     <use xlink:href="#DejaVuSans-41"/>
     <use xlink:href="#DejaVuSans-52" x="68.408203"/>
     <use xlink:href="#DejaVuSans-49" x="137.890625"/>
     <use xlink:href="#DejaVuSans-4d" x="167.382812"/>
     <use xlink:href="#DejaVuSans-41" x="253.662109"/>
     <use xlink:href="#DejaVuSans-20" x="322.070312"/>
     <use xlink:href="#DejaVuSans-28" x="353.857422"/>
     <use xlink:href="#DejaVuSans-33" x="392.871094"/>
     <use xlink:href="#DejaVuSans-2c" x="456.494141"/>
     <use xlink:href="#DejaVuSans-20" x="488.28125"/>
     <use xlink:href="#DejaVuSans-31" x="520.068359"/>
     <use xlink:href="#DejaVuSans-2c" x="583.691406"/>
     <use xlink:href="#DejaVuSans-20" x="615.478516"/>
     <use xlink:href="#DejaVuSans-30" x="647.265625"/>
     <use xlink:href="#DejaVuSans-29" x="710.888672"/>
     <use xlink:href="#DejaVuSans-78" x="749.902344"/>
     <use xlink:href="#DejaVuSans-28" x="809.082031"/>
     <use xlink:href="#DejaVuSans-31" x="848.095703"/>
     <use xlink:href="#DejaVuSans-2c" x="911.71875"/>
     <use xlink:href="#DejaVuSans-20" x="943.505859"/>
     <use xlink:href="#DejaVuSans-30" x="975.292969"/>
     <use xlink:href="#DejaVuSans-2c" x="1038.916016"/>
     <use xlink:href="#DejaVuSans-20" x="1070.703125"/>
     <use xlink:href="#DejaVuSans-31" x="1102.490234"/>
     <use xlink:href="#DejaVuSans-2c" x="1166.113281"/>
     <use xlink:href="#DejaVuSans-20" x="1197.900391"/>
     <use xlink:href="#DejaVuSans-37" x="1229.6875"/>
     <use xlink:href="#DejaVuSans-29" x="1293.310547"/>
     <use xlink:href="#DejaVuSans-20" x="1332.324219"/>
     <use xlink:href="#DejaVuSans-28" x="1364.111328"/>
     <use xlink:href="#DejaVuSans-52" x="1403.125"/>
     <use xlink:href="#DejaVuSans-32" x="1472.607422"/>
     <use xlink:href="#DejaVuSans-20" x="1536.230469"/>
     <use xlink:href="#DejaVuSans-3d" x="1568.017578"/>
     <use xlink:href="#DejaVuSans-20" x="1651.806641"/>
     <use xlink:href="#DejaVuSans-30" x="1683.59375"/>
     <use xlink:href="#DejaVuSans-2e" x="1747.216797"/>
     <use xlink:href="#DejaVuSans-39" x="1779.003906"/>
     <use xlink:href="#DejaVuSans-34" x="1842.626953"/>
     <use xlink:href="#DejaVuSans-34" x="1906.25"/>
     <use xlink:href="#DejaVuSans-39" x="1969.873047"/>
     <use xlink:href="#DejaVuSans-32" x="2033.496094"/>
     <use xlink:href="#DejaVuSans-32" x="2097.119141"/>
     <use xlink:href="#DejaVuSans-29" x="2160.742188"/>
    </g>
   </g>
   <g id="legend_1">
    <g id="patch_7">
     <path d="M 1274.770313 87.789875 
L 1371.85 87.789875 
Q 1373.85 87.789875 1373.85 85.789875 
L 1373.85 42.7555 
Q 1373.85 40.7555 1371.85 40.7555 
L 1274.770313 40.7555 
Q 1272.770313 40.7555 1272.770313 42.7555 
L 1272.770313 85.789875 
Q 1272.770313 87.789875 1274.770313 87.789875 
z
" style="fill: #ffffff; opacity: 0.8; stroke: #cccccc; stroke-linejoin: miter"/>
    </g>
    <g id="line2d_23">
     <path d="M 1276.770313 48.853937 
L 1286.770313 48.853937 
L 1296.770313 48.853937 
" style="fill: none; stroke: #0000ff; stroke-width: 1.5; stroke-linecap: square"/>
    </g>
    <g id="text_21">
     <!-- Actual Value -->
     <g transform="translate(1304.770313 52.353937)scale(0.1 -0.1)">
      <defs>
       <path id="DejaVuSans-75" d="M 544 1381 
L 544 3500 
L 1119 3500 
L 1119 1403 
Q 1119 906 1312 657 
Q 1506 409 1894 409 
Q 2359 409 2629 706 
Q 2900 1003 2900 1516 
L 2900 3500 
L 3475 3500 
L 3475 0 
L 2900 0 
L 2900 538 
Q 2691 219 2414 64 
Q 2138 -91 1772 -91 
Q 1169 -91 856 284 
Q 544 659 544 1381 
z
M 1991 3584 
L 1991 3584 
z
" transform="scale(0.015625)"/>
       <path id="DejaVuSans-56" d="M 1831 0 
L 50 4666 
L 709 4666 
L 2188 738 
L 3669 4666 
L 4325 4666 
L 2547 0 
L 1831 0 
z
" transform="scale(0.015625)"/>
      </defs>
      <use xlink:href="#DejaVuSans-41"/>
      <use xlink:href="#DejaVuSans-63" x="66.658203"/>
      <use xlink:href="#DejaVuSans-74" x="121.638672"/>
      <use xlink:href="#DejaVuSans-75" x="160.847656"/>
      <use xlink:href="#DejaVuSans-61" x="224.226562"/>
      <use xlink:href="#DejaVuSans-6c" x="285.505859"/>
      <use xlink:href="#DejaVuSans-20" x="313.289062"/>
      <use xlink:href="#DejaVuSans-56" x="345.076172"/>
      <use xlink:href="#DejaVuSans-61" x="405.734375"/>
      <use xlink:href="#DejaVuSans-6c" x="467.013672"/>
      <use xlink:href="#DejaVuSans-75" x="494.796875"/>
      <use xlink:href="#DejaVuSans-65" x="558.175781"/>
     </g>
    </g>
    <g id="line2d_24">
     <path d="M 1276.770313 63.532062 
L 1286.770313 63.532062 
L 1296.770313 63.532062 
" style="fill: none; stroke: #ffa500; stroke-width: 1.5; stroke-linecap: square"/>
    </g>
    <g id="text_22">
     <!-- Check Value -->
     <g transform="translate(1304.770313 67.032062)scale(0.1 -0.1)">
      <defs>
       <path id="DejaVuSans-68" d="M 3513 2113 
L 3513 0 
L 2938 0 
L 2938 2094 
Q 2938 2591 2744 2837 
Q 2550 3084 2163 3084 
Q 1697 3084 1428 2787 
Q 1159 2491 1159 1978 
L 1159 0 
L 581 0 
L 581 4863 
L 1159 4863 
L 1159 2956 
Q 1366 3272 1645 3428 
Q 1925 3584 2291 3584 
Q 2894 3584 3203 3211 
Q 3513 2838 3513 2113 
z
" transform="scale(0.015625)"/>
      </defs>
      <use xlink:href="#DejaVuSans-43"/>
      <use xlink:href="#DejaVuSans-68" x="69.824219"/>
      <use xlink:href="#DejaVuSans-65" x="133.203125"/>
      <use xlink:href="#DejaVuSans-63" x="194.726562"/>
      <use xlink:href="#DejaVuSans-6b" x="249.707031"/>
      <use xlink:href="#DejaVuSans-20" x="307.617188"/>
      <use xlink:href="#DejaVuSans-56" x="339.404297"/>
      <use xlink:href="#DejaVuSans-61" x="400.0625"/>
      <use xlink:href="#DejaVuSans-6c" x="461.341797"/>
      <use xlink:href="#DejaVuSans-75" x="489.125"/>
      <use xlink:href="#DejaVuSans-65" x="552.503906"/>
     </g>
    </g>
    <g id="line2d_25">
     <path d="M 1276.770313 78.210187 
L 1286.770313 78.210187 
L 1296.770313 78.210187 
" style="fill: none; stroke: #ff0000; stroke-width: 1.5; stroke-linecap: square"/>
    </g>
    <g id="text_23">
     <!-- Predict Value -->
     <g transform="translate(1304.770313 81.710187)scale(0.1 -0.1)">
      <defs>
       <path id="DejaVuSans-50" d="M 1259 4147 
L 1259 2394 
L 2053 2394 
Q 2494 2394 2734 2622 
Q 2975 2850 2975 3272 
Q 2975 3691 2734 3919 
Q 2494 4147 2053 4147 
L 1259 4147 
z
M 628 4666 
L 2053 4666 
Q 2838 4666 3239 4311 
Q 3641 3956 3641 3272 
Q 3641 2581 3239 2228 
Q 2838 1875 2053 1875 
L 1259 1875 
L 1259 0 
L 628 0 
L 628 4666 
z
" transform="scale(0.015625)"/>
      </defs>
      <use xlink:href="#DejaVuSans-50"/>
      <use xlink:href="#DejaVuSans-72" x="58.552734"/>
      <use xlink:href="#DejaVuSans-65" x="97.416016"/>
      <use xlink:href="#DejaVuSans-64" x="158.939453"/>
      <use xlink:href="#DejaVuSans-69" x="222.416016"/>
      <use xlink:href="#DejaVuSans-63" x="250.199219"/>
      <use xlink:href="#DejaVuSans-74" x="305.179688"/>
      <use xlink:href="#DejaVuSans-20" x="344.388672"/>
      <use xlink:href="#DejaVuSans-56" x="376.175781"/>
      <use xlink:href="#DejaVuSans-61" x="436.833984"/>
      <use xlink:href="#DejaVuSans-6c" x="498.113281"/>
      <use xlink:href="#DejaVuSans-75" x="525.896484"/>
      <use xlink:href="#DejaVuSans-65" x="589.275391"/>
     </g>
    </g>
   </g>
  </g>
 </g>
 <defs>
  <clipPath id="pb1d8fb3ffa">
   <rect x="39.65" y="35.7555" width="1339.2" height="332.64"/>
  </clipPath>
 </defs>
</svg>
