<?xml version="1.0" encoding="utf-8" standalone="no"?>
<!DOCTYPE svg PUBLIC "-//W3C//DTD SVG 1.1//EN"
  "http://www.w3.org/Graphics/SVG/1.1/DTD/svg11.dtd">
<svg xmlns:xlink="http://www.w3.org/1999/xlink" width="1379.6875pt" height="392.273625pt" viewBox="0 0 1379.6875 392.273625" xmlns="http://www.w3.org/2000/svg" version="1.1">
 <metadata>
  <rdf:RDF xmlns:dc="http://purl.org/dc/elements/1.1/" xmlns:cc="http://creativecommons.org/ns#" xmlns:rdf="http://www.w3.org/1999/02/22-rdf-syntax-ns#">
   <cc:Work>
    <dc:type rdf:resource="http://purl.org/dc/dcmitype/StillImage"/>
    <dc:date>2022-06-24T20:02:42.336864</dc:date>
    <dc:format>image/svg+xml</dc:format>
    <dc:creator>
     <cc:Agent>
      <dc:title>Matplotlib v3.5.2, https://matplotlib.org/</dc:title>
     </cc:Agent>
    </dc:creator>
   </cc:Work>
  </rdf:RDF>
 </metadata>
 <defs>
  <style type="text/css">*{stroke-linejoin: round; stroke-linecap: butt}</style>
 </defs>
 <g id="figure_1">
  <g id="patch_1">
   <path d="M 0 392.273625 
L 1379.6875 392.273625 
L 1379.6875 0 
L 0 0 
z
" style="fill: #ffffff"/>
  </g>
  <g id="axes_1">
   <g id="patch_2">
    <path d="M 33.2875 368.3955 
L 1372.4875 368.3955 
L 1372.4875 35.7555 
L 33.2875 35.7555 
z
" style="fill: #ffffff"/>
   </g>
   <g id="matplotlib.axis_1">
    <g id="xtick_1">
     <g id="line2d_1">
      <defs>
       <path id="m7321d54ede" d="M 0 0 
L 0 3.5 
" style="stroke: #000000; stroke-width: 0.8"/>
      </defs>
      <g>
       <use xlink:href="#m7321d54ede" x="64.23397" y="368.3955" style="stroke: #000000; stroke-width: 0.8"/>
      </g>
     </g>
     <g id="text_1">
      <!-- 2020-01 -->
      <g transform="translate(43.342564 382.993937)scale(0.1 -0.1)">
       <defs>
        <path id="DejaVuSans-32" d="M 1228 531 
L 3431 531 
L 3431 0 
L 469 0 
L 469 531 
Q 828 903 1448 1529 
Q 2069 2156 2228 2338 
Q 2531 2678 2651 2914 
Q 2772 3150 2772 3378 
Q 2772 3750 2511 3984 
Q 2250 4219 1831 4219 
Q 1534 4219 1204 4116 
Q 875 4013 500 3803 
L 500 4441 
Q 881 4594 1212 4672 
Q 1544 4750 1819 4750 
Q 2544 4750 2975 4387 
Q 3406 4025 3406 3419 
Q 3406 3131 3298 2873 
Q 3191 2616 2906 2266 
Q 2828 2175 2409 1742 
Q 1991 1309 1228 531 
z
" transform="scale(0.015625)"/>
        <path id="DejaVuSans-30" d="M 2034 4250 
Q 1547 4250 1301 3770 
Q 1056 3291 1056 2328 
Q 1056 1369 1301 889 
Q 1547 409 2034 409 
Q 2525 409 2770 889 
Q 3016 1369 3016 2328 
Q 3016 3291 2770 3770 
Q 2525 4250 2034 4250 
z
M 2034 4750 
Q 2819 4750 3233 4129 
Q 3647 3509 3647 2328 
Q 3647 1150 3233 529 
Q 2819 -91 2034 -91 
Q 1250 -91 836 529 
Q 422 1150 422 2328 
Q 422 3509 836 4129 
Q 1250 4750 2034 4750 
z
" transform="scale(0.015625)"/>
        <path id="DejaVuSans-2d" d="M 313 2009 
L 1997 2009 
L 1997 1497 
L 313 1497 
L 313 2009 
z
" transform="scale(0.015625)"/>
        <path id="DejaVuSans-31" d="M 794 531 
L 1825 531 
L 1825 4091 
L 703 3866 
L 703 4441 
L 1819 4666 
L 2450 4666 
L 2450 531 
L 3481 531 
L 3481 0 
L 794 0 
L 794 531 
z
" transform="scale(0.015625)"/>
       </defs>
       <use xlink:href="#DejaVuSans-32"/>
       <use xlink:href="#DejaVuSans-30" x="63.623047"/>
       <use xlink:href="#DejaVuSans-32" x="127.246094"/>
       <use xlink:href="#DejaVuSans-30" x="190.869141"/>
       <use xlink:href="#DejaVuSans-2d" x="254.492188"/>
       <use xlink:href="#DejaVuSans-30" x="290.576172"/>
       <use xlink:href="#DejaVuSans-31" x="354.199219"/>
      </g>
     </g>
    </g>
    <g id="xtick_2">
     <g id="line2d_2">
      <g>
       <use xlink:href="#m7321d54ede" x="188.019851" y="368.3955" style="stroke: #000000; stroke-width: 0.8"/>
      </g>
     </g>
     <g id="text_2">
      <!-- 2020-04 -->
      <g transform="translate(167.128445 382.993937)scale(0.1 -0.1)">
       <defs>
        <path id="DejaVuSans-34" d="M 2419 4116 
L 825 1625 
L 2419 1625 
L 2419 4116 
z
M 2253 4666 
L 3047 4666 
L 3047 1625 
L 3713 1625 
L 3713 1100 
L 3047 1100 
L 3047 0 
L 2419 0 
L 2419 1100 
L 313 1100 
L 313 1709 
L 2253 4666 
z
" transform="scale(0.015625)"/>
       </defs>
       <use xlink:href="#DejaVuSans-32"/>
       <use xlink:href="#DejaVuSans-30" x="63.623047"/>
       <use xlink:href="#DejaVuSans-32" x="127.246094"/>
       <use xlink:href="#DejaVuSans-30" x="190.869141"/>
       <use xlink:href="#DejaVuSans-2d" x="254.492188"/>
       <use xlink:href="#DejaVuSans-30" x="290.576172"/>
       <use xlink:href="#DejaVuSans-34" x="354.199219"/>
      </g>
     </g>
    </g>
    <g id="xtick_3">
     <g id="line2d_3">
      <g>
       <use xlink:href="#m7321d54ede" x="311.805733" y="368.3955" style="stroke: #000000; stroke-width: 0.8"/>
      </g>
     </g>
     <g id="text_3">
      <!-- 2020-07 -->
      <g transform="translate(290.914326 382.993937)scale(0.1 -0.1)">
       <defs>
        <path id="DejaVuSans-37" d="M 525 4666 
L 3525 4666 
L 3525 4397 
L 1831 0 
L 1172 0 
L 2766 4134 
L 525 4134 
L 525 4666 
z
" transform="scale(0.015625)"/>
       </defs>
       <use xlink:href="#DejaVuSans-32"/>
       <use xlink:href="#DejaVuSans-30" x="63.623047"/>
       <use xlink:href="#DejaVuSans-32" x="127.246094"/>
       <use xlink:href="#DejaVuSans-30" x="190.869141"/>
       <use xlink:href="#DejaVuSans-2d" x="254.492188"/>
       <use xlink:href="#DejaVuSans-30" x="290.576172"/>
       <use xlink:href="#DejaVuSans-37" x="354.199219"/>
      </g>
     </g>
    </g>
    <g id="xtick_4">
     <g id="line2d_4">
      <g>
       <use xlink:href="#m7321d54ede" x="436.951898" y="368.3955" style="stroke: #000000; stroke-width: 0.8"/>
      </g>
     </g>
     <g id="text_4">
      <!-- 2020-10 -->
      <g transform="translate(416.060492 382.993937)scale(0.1 -0.1)">
       <use xlink:href="#DejaVuSans-32"/>
       <use xlink:href="#DejaVuSans-30" x="63.623047"/>
       <use xlink:href="#DejaVuSans-32" x="127.246094"/>
       <use xlink:href="#DejaVuSans-30" x="190.869141"/>
       <use xlink:href="#DejaVuSans-2d" x="254.492188"/>
       <use xlink:href="#DejaVuSans-31" x="290.576172"/>
       <use xlink:href="#DejaVuSans-30" x="354.199219"/>
      </g>
     </g>
    </g>
    <g id="xtick_5">
     <g id="line2d_5">
      <g>
       <use xlink:href="#m7321d54ede" x="562.098064" y="368.3955" style="stroke: #000000; stroke-width: 0.8"/>
      </g>
     </g>
     <g id="text_5">
      <!-- 2021-01 -->
      <g transform="translate(541.206657 382.993937)scale(0.1 -0.1)">
       <use xlink:href="#DejaVuSans-32"/>
       <use xlink:href="#DejaVuSans-30" x="63.623047"/>
       <use xlink:href="#DejaVuSans-32" x="127.246094"/>
       <use xlink:href="#DejaVuSans-31" x="190.869141"/>
       <use xlink:href="#DejaVuSans-2d" x="254.492188"/>
       <use xlink:href="#DejaVuSans-30" x="290.576172"/>
       <use xlink:href="#DejaVuSans-31" x="354.199219"/>
      </g>
     </g>
    </g>
    <g id="xtick_6">
     <g id="line2d_6">
      <g>
       <use xlink:href="#m7321d54ede" x="684.52366" y="368.3955" style="stroke: #000000; stroke-width: 0.8"/>
      </g>
     </g>
     <g id="text_6">
      <!-- 2021-04 -->
      <g transform="translate(663.632254 382.993937)scale(0.1 -0.1)">
       <use xlink:href="#DejaVuSans-32"/>
       <use xlink:href="#DejaVuSans-30" x="63.623047"/>
       <use xlink:href="#DejaVuSans-32" x="127.246094"/>
       <use xlink:href="#DejaVuSans-31" x="190.869141"/>
       <use xlink:href="#DejaVuSans-2d" x="254.492188"/>
       <use xlink:href="#DejaVuSans-30" x="290.576172"/>
       <use xlink:href="#DejaVuSans-34" x="354.199219"/>
      </g>
     </g>
    </g>
    <g id="xtick_7">
     <g id="line2d_7">
      <g>
       <use xlink:href="#m7321d54ede" x="808.309542" y="368.3955" style="stroke: #000000; stroke-width: 0.8"/>
      </g>
     </g>
     <g id="text_7">
      <!-- 2021-07 -->
      <g transform="translate(787.418135 382.993937)scale(0.1 -0.1)">
       <use xlink:href="#DejaVuSans-32"/>
       <use xlink:href="#DejaVuSans-30" x="63.623047"/>
       <use xlink:href="#DejaVuSans-32" x="127.246094"/>
       <use xlink:href="#DejaVuSans-31" x="190.869141"/>
       <use xlink:href="#DejaVuSans-2d" x="254.492188"/>
       <use xlink:href="#DejaVuSans-30" x="290.576172"/>
       <use xlink:href="#DejaVuSans-37" x="354.199219"/>
      </g>
     </g>
    </g>
    <g id="xtick_8">
     <g id="line2d_8">
      <g>
       <use xlink:href="#m7321d54ede" x="933.455707" y="368.3955" style="stroke: #000000; stroke-width: 0.8"/>
      </g>
     </g>
     <g id="text_8">
      <!-- 2021-10 -->
      <g transform="translate(912.564301 382.993937)scale(0.1 -0.1)">
       <use xlink:href="#DejaVuSans-32"/>
       <use xlink:href="#DejaVuSans-30" x="63.623047"/>
       <use xlink:href="#DejaVuSans-32" x="127.246094"/>
       <use xlink:href="#DejaVuSans-31" x="190.869141"/>
       <use xlink:href="#DejaVuSans-2d" x="254.492188"/>
       <use xlink:href="#DejaVuSans-31" x="290.576172"/>
       <use xlink:href="#DejaVuSans-30" x="354.199219"/>
      </g>
     </g>
    </g>
    <g id="xtick_9">
     <g id="line2d_9">
      <g>
       <use xlink:href="#m7321d54ede" x="1058.601873" y="368.3955" style="stroke: #000000; stroke-width: 0.8"/>
      </g>
     </g>
     <g id="text_9">
      <!-- 2022-01 -->
      <g transform="translate(1037.710467 382.993937)scale(0.1 -0.1)">
       <use xlink:href="#DejaVuSans-32"/>
       <use xlink:href="#DejaVuSans-30" x="63.623047"/>
       <use xlink:href="#DejaVuSans-32" x="127.246094"/>
       <use xlink:href="#DejaVuSans-32" x="190.869141"/>
       <use xlink:href="#DejaVuSans-2d" x="254.492188"/>
       <use xlink:href="#DejaVuSans-30" x="290.576172"/>
       <use xlink:href="#DejaVuSans-31" x="354.199219"/>
      </g>
     </g>
    </g>
    <g id="xtick_10">
     <g id="line2d_10">
      <g>
       <use xlink:href="#m7321d54ede" x="1181.02747" y="368.3955" style="stroke: #000000; stroke-width: 0.8"/>
      </g>
     </g>
     <g id="text_10">
      <!-- 2022-04 -->
      <g transform="translate(1160.136063 382.993937)scale(0.1 -0.1)">
       <use xlink:href="#DejaVuSans-32"/>
       <use xlink:href="#DejaVuSans-30" x="63.623047"/>
       <use xlink:href="#DejaVuSans-32" x="127.246094"/>
       <use xlink:href="#DejaVuSans-32" x="190.869141"/>
       <use xlink:href="#DejaVuSans-2d" x="254.492188"/>
       <use xlink:href="#DejaVuSans-30" x="290.576172"/>
       <use xlink:href="#DejaVuSans-34" x="354.199219"/>
      </g>
     </g>
    </g>
    <g id="xtick_11">
     <g id="line2d_11">
      <g>
       <use xlink:href="#m7321d54ede" x="1304.813351" y="368.3955" style="stroke: #000000; stroke-width: 0.8"/>
      </g>
     </g>
     <g id="text_11">
      <!-- 2022-07 -->
      <g transform="translate(1283.921944 382.993937)scale(0.1 -0.1)">
       <use xlink:href="#DejaVuSans-32"/>
       <use xlink:href="#DejaVuSans-30" x="63.623047"/>
       <use xlink:href="#DejaVuSans-32" x="127.246094"/>
       <use xlink:href="#DejaVuSans-32" x="190.869141"/>
       <use xlink:href="#DejaVuSans-2d" x="254.492188"/>
       <use xlink:href="#DejaVuSans-30" x="290.576172"/>
       <use xlink:href="#DejaVuSans-37" x="354.199219"/>
      </g>
     </g>
    </g>
   </g>
   <g id="matplotlib.axis_2">
    <g id="ytick_1">
     <g id="line2d_12">
      <defs>
       <path id="mbd1f72097d" d="M 0 0 
L -3.5 0 
" style="stroke: #000000; stroke-width: 0.8"/>
      </defs>
      <g>
       <use xlink:href="#mbd1f72097d" x="33.2875" y="352.690705" style="stroke: #000000; stroke-width: 0.8"/>
      </g>
     </g>
     <g id="text_12">
      <!-- 0 -->
      <g transform="translate(19.925 356.489924)scale(0.1 -0.1)">
       <use xlink:href="#DejaVuSans-30"/>
      </g>
     </g>
    </g>
    <g id="ytick_2">
     <g id="line2d_13">
      <g>
       <use xlink:href="#mbd1f72097d" x="33.2875" y="313.39185" style="stroke: #000000; stroke-width: 0.8"/>
      </g>
     </g>
     <g id="text_13">
      <!-- 25 -->
      <g transform="translate(13.5625 317.191069)scale(0.1 -0.1)">
       <defs>
        <path id="DejaVuSans-35" d="M 691 4666 
L 3169 4666 
L 3169 4134 
L 1269 4134 
L 1269 2991 
Q 1406 3038 1543 3061 
Q 1681 3084 1819 3084 
Q 2600 3084 3056 2656 
Q 3513 2228 3513 1497 
Q 3513 744 3044 326 
Q 2575 -91 1722 -91 
Q 1428 -91 1123 -41 
Q 819 9 494 109 
L 494 744 
Q 775 591 1075 516 
Q 1375 441 1709 441 
Q 2250 441 2565 725 
Q 2881 1009 2881 1497 
Q 2881 1984 2565 2268 
Q 2250 2553 1709 2553 
Q 1456 2553 1204 2497 
Q 953 2441 691 2322 
L 691 4666 
z
" transform="scale(0.015625)"/>
       </defs>
       <use xlink:href="#DejaVuSans-32"/>
       <use xlink:href="#DejaVuSans-35" x="63.623047"/>
      </g>
     </g>
    </g>
    <g id="ytick_3">
     <g id="line2d_14">
      <g>
       <use xlink:href="#mbd1f72097d" x="33.2875" y="274.092995" style="stroke: #000000; stroke-width: 0.8"/>
      </g>
     </g>
     <g id="text_14">
      <!-- 50 -->
      <g transform="translate(13.5625 277.892214)scale(0.1 -0.1)">
       <use xlink:href="#DejaVuSans-35"/>
       <use xlink:href="#DejaVuSans-30" x="63.623047"/>
      </g>
     </g>
    </g>
    <g id="ytick_4">
     <g id="line2d_15">
      <g>
       <use xlink:href="#mbd1f72097d" x="33.2875" y="234.79414" style="stroke: #000000; stroke-width: 0.8"/>
      </g>
     </g>
     <g id="text_15">
      <!-- 75 -->
      <g transform="translate(13.5625 238.593359)scale(0.1 -0.1)">
       <use xlink:href="#DejaVuSans-37"/>
       <use xlink:href="#DejaVuSans-35" x="63.623047"/>
      </g>
     </g>
    </g>
    <g id="ytick_5">
     <g id="line2d_16">
      <g>
       <use xlink:href="#mbd1f72097d" x="33.2875" y="195.495286" style="stroke: #000000; stroke-width: 0.8"/>
      </g>
     </g>
     <g id="text_16">
      <!-- 100 -->
      <g transform="translate(7.2 199.294504)scale(0.1 -0.1)">
       <use xlink:href="#DejaVuSans-31"/>
       <use xlink:href="#DejaVuSans-30" x="63.623047"/>
       <use xlink:href="#DejaVuSans-30" x="127.246094"/>
      </g>
     </g>
    </g>
    <g id="ytick_6">
     <g id="line2d_17">
      <g>
       <use xlink:href="#mbd1f72097d" x="33.2875" y="156.196431" style="stroke: #000000; stroke-width: 0.8"/>
      </g>
     </g>
     <g id="text_17">
      <!-- 125 -->
      <g transform="translate(7.2 159.99565)scale(0.1 -0.1)">
       <use xlink:href="#DejaVuSans-31"/>
       <use xlink:href="#DejaVuSans-32" x="63.623047"/>
       <use xlink:href="#DejaVuSans-35" x="127.246094"/>
      </g>
     </g>
    </g>
    <g id="ytick_7">
     <g id="line2d_18">
      <g>
       <use xlink:href="#mbd1f72097d" x="33.2875" y="116.897576" style="stroke: #000000; stroke-width: 0.8"/>
      </g>
     </g>
     <g id="text_18">
      <!-- 150 -->
      <g transform="translate(7.2 120.696795)scale(0.1 -0.1)">
       <use xlink:href="#DejaVuSans-31"/>
       <use xlink:href="#DejaVuSans-35" x="63.623047"/>
       <use xlink:href="#DejaVuSans-30" x="127.246094"/>
      </g>
     </g>
    </g>
    <g id="ytick_8">
     <g id="line2d_19">
      <g>
       <use xlink:href="#mbd1f72097d" x="33.2875" y="77.598721" style="stroke: #000000; stroke-width: 0.8"/>
      </g>
     </g>
     <g id="text_19">
      <!-- 175 -->
      <g transform="translate(7.2 81.39794)scale(0.1 -0.1)">
       <use xlink:href="#DejaVuSans-31"/>
       <use xlink:href="#DejaVuSans-37" x="63.623047"/>
       <use xlink:href="#DejaVuSans-35" x="127.246094"/>
      </g>
     </g>
    </g>
    <g id="ytick_9">
     <g id="line2d_20">
      <g>
       <use xlink:href="#mbd1f72097d" x="33.2875" y="38.299866" style="stroke: #000000; stroke-width: 0.8"/>
      </g>
     </g>
     <g id="text_20">
      <!-- 200 -->
      <g transform="translate(7.2 42.099085)scale(0.1 -0.1)">
       <use xlink:href="#DejaVuSans-32"/>
       <use xlink:href="#DejaVuSans-30" x="63.623047"/>
       <use xlink:href="#DejaVuSans-30" x="127.246094"/>
      </g>
     </g>
    </g>
   </g>
   <g id="line2d_21">
    <path d="M 94.160227 352.690705 
L 185.299283 352.690705 
L 186.659567 351.118751 
L 188.019851 351.118751 
L 189.380136 352.690705 
L 190.74042 352.690705 
L 192.100705 349.546796 
L 193.460989 349.546796 
L 194.821273 352.690705 
L 196.181558 352.690705 
L 197.541842 351.118751 
L 198.902127 352.690705 
L 200.262411 351.118751 
L 201.622696 352.690705 
L 202.98298 349.546796 
L 204.343264 352.690705 
L 207.063833 349.546796 
L 208.424118 349.546796 
L 209.784402 335.399209 
L 211.144686 346.402888 
L 212.504971 344.830934 
L 213.865255 340.115071 
L 215.22554 341.687025 
L 216.585824 335.399209 
L 217.946108 347.974842 
L 219.306393 324.395529 
L 220.666677 352.690705 
L 222.026962 335.399209 
L 223.387246 352.690705 
L 224.74753 335.399209 
L 226.107815 352.690705 
L 227.468099 321.251621 
L 228.828384 333.827254 
L 230.188668 322.823575 
L 231.548953 335.399209 
L 232.909237 333.827254 
L 234.269521 319.679667 
L 235.629806 311.819896 
L 236.99009 343.25898 
L 238.350375 311.819896 
L 239.710659 299.244262 
L 241.070943 327.539438 
L 242.431228 303.960125 
L 243.791512 352.690705 
L 245.151797 275.664949 
L 246.512081 319.679667 
L 247.872365 291.384491 
L 249.23265 329.111392 
L 250.592934 285.096675 
L 251.953219 330.683346 
L 253.313503 329.111392 
L 254.673787 296.100354 
L 256.034072 329.111392 
L 257.394356 319.679667 
L 258.754641 329.111392 
L 260.114925 217.502644 
L 261.475209 308.675987 
L 262.835494 322.823575 
L 264.195778 308.675987 
L 265.556063 305.532079 
L 266.916347 325.967484 
L 268.276632 316.535758 
L 269.636916 338.543117 
L 270.9972 346.402888 
L 272.357485 303.960125 
L 273.717769 332.2553 
L 275.078054 344.830934 
L 276.438338 329.111392 
L 277.798622 325.967484 
L 279.158907 316.535758 
L 280.519191 302.388171 
L 281.879476 314.963804 
L 283.23976 294.5284 
L 284.600044 316.535758 
L 285.960329 324.395529 
L 287.320613 307.104033 
L 288.680898 294.5284 
L 290.041182 341.687025 
L 291.401466 275.664949 
L 292.761751 314.963804 
L 294.122035 316.535758 
L 295.48232 311.819896 
L 296.842604 335.399209 
L 298.202889 324.395529 
L 299.563173 332.2553 
L 300.923457 341.687025 
L 302.283742 341.687025 
L 303.644026 352.690705 
L 305.004311 289.812537 
L 306.364595 327.539438 
L 307.724879 325.967484 
L 309.085164 316.535758 
L 310.445448 333.827254 
L 311.805733 296.100354 
L 313.166017 321.251621 
L 314.526301 343.25898 
L 315.886586 338.543117 
L 317.24687 338.543117 
L 318.607155 344.830934 
L 319.967439 313.39185 
L 321.327723 333.827254 
L 322.688008 330.683346 
L 324.048292 329.111392 
L 325.408577 344.830934 
L 326.768861 325.967484 
L 328.129146 341.687025 
L 329.48943 338.543117 
L 330.849714 325.967484 
L 332.209999 336.971163 
L 333.570283 336.971163 
L 334.930568 332.2553 
L 336.290852 336.971163 
L 337.651136 352.690705 
L 339.011421 327.539438 
L 340.371705 346.402888 
L 341.73199 319.679667 
L 343.092274 332.2553 
L 344.452558 347.974842 
L 345.812843 329.111392 
L 347.173127 352.690705 
L 348.533412 347.974842 
L 349.893696 325.967484 
L 351.25398 329.111392 
L 352.614265 344.830934 
L 353.974549 352.690705 
L 355.334834 321.251621 
L 356.695118 344.830934 
L 358.055402 341.687025 
L 359.415687 344.830934 
L 360.775971 325.967484 
L 362.136256 336.971163 
L 363.49654 340.115071 
L 364.856825 319.679667 
L 366.217109 351.118751 
L 367.577393 329.111392 
L 368.937678 344.830934 
L 370.297962 347.974842 
L 371.658247 341.687025 
L 373.018531 341.687025 
L 374.378815 349.546796 
L 375.7391 352.690705 
L 377.099384 347.974842 
L 378.459669 349.546796 
L 379.819953 340.115071 
L 381.180237 347.974842 
L 382.540522 340.115071 
L 383.900806 333.827254 
L 385.261091 344.830934 
L 386.621375 346.402888 
L 387.981659 349.546796 
L 389.341944 336.971163 
L 390.702228 352.690705 
L 392.062513 343.25898 
L 394.783082 352.690705 
L 396.143366 343.25898 
L 397.50365 351.118751 
L 398.863935 343.25898 
L 400.224219 343.25898 
L 401.584504 352.690705 
L 402.944788 332.2553 
L 404.305072 351.118751 
L 405.665357 338.543117 
L 407.025641 347.974842 
L 408.385926 349.546796 
L 409.74621 324.395529 
L 411.106494 338.543117 
L 412.466779 332.2553 
L 413.827063 349.546796 
L 415.187348 329.111392 
L 416.547632 341.687025 
L 417.907916 352.690705 
L 419.268201 321.251621 
L 420.628485 343.25898 
L 421.98877 338.543117 
L 423.349054 352.690705 
L 424.709338 343.25898 
L 426.069623 338.543117 
L 427.429907 344.830934 
L 428.790192 335.399209 
L 431.510761 341.687025 
L 432.871045 352.690705 
L 434.231329 341.687025 
L 435.591614 338.543117 
L 436.951898 341.687025 
L 438.312183 330.683346 
L 439.672467 341.687025 
L 441.032751 336.971163 
L 442.393036 352.690705 
L 443.75332 340.115071 
L 445.113605 336.971163 
L 447.834173 349.546796 
L 449.194458 344.830934 
L 450.554742 343.25898 
L 451.915027 352.690705 
L 454.635595 343.25898 
L 455.99588 340.115071 
L 457.356164 349.546796 
L 458.716449 349.546796 
L 460.076733 347.974842 
L 461.437018 351.118751 
L 462.797302 344.830934 
L 464.157586 351.118751 
L 465.517871 347.974842 
L 466.878155 347.974842 
L 470.959008 352.690705 
L 472.319293 346.402888 
L 473.679577 346.402888 
L 475.039862 340.115071 
L 476.400146 347.974842 
L 477.76043 351.118751 
L 479.120715 352.690705 
L 480.480999 352.690705 
L 481.841284 349.546796 
L 483.201568 351.118751 
L 484.561852 349.546796 
L 485.922137 349.546796 
L 487.282421 340.115071 
L 488.642706 352.690705 
L 490.00299 346.402888 
L 491.363275 351.118751 
L 492.723559 352.690705 
L 495.444128 349.546796 
L 496.804412 349.546796 
L 498.164697 352.690705 
L 499.524981 352.690705 
L 500.885265 351.118751 
L 502.24555 344.830934 
L 503.605834 352.690705 
L 504.966119 349.546796 
L 506.326403 343.25898 
L 507.686687 352.690705 
L 509.046972 351.118751 
L 510.407256 352.690705 
L 511.767541 349.546796 
L 513.127825 351.118751 
L 514.488109 351.118751 
L 515.848394 352.690705 
L 517.208678 351.118751 
L 519.929247 351.118751 
L 521.289531 347.974842 
L 522.649816 352.690705 
L 524.0101 346.402888 
L 525.370385 352.690705 
L 526.730669 343.25898 
L 528.090954 349.546796 
L 529.451238 352.690705 
L 530.811522 343.25898 
L 532.171807 351.118751 
L 533.532091 347.974842 
L 534.892376 349.546796 
L 536.25266 352.690705 
L 537.612944 344.830934 
L 538.973229 343.25898 
L 540.333513 338.543117 
L 541.693798 346.402888 
L 543.054082 318.107713 
L 544.414366 335.399209 
L 545.774651 333.827254 
L 547.134935 352.690705 
L 548.49522 338.543117 
L 549.855504 343.25898 
L 551.215788 341.687025 
L 552.576073 324.395529 
L 553.936357 352.690705 
L 555.296642 335.399209 
L 556.656926 352.690705 
L 558.017211 338.543117 
L 559.377495 330.683346 
L 560.737779 308.675987 
L 562.098064 314.963804 
L 563.458348 335.399209 
L 564.818633 310.247942 
L 566.178917 352.690705 
L 567.539201 272.521041 
L 568.899486 329.111392 
L 570.25977 324.395529 
L 571.620055 313.39185 
L 572.980339 319.679667 
L 574.340623 303.960125 
L 575.700908 333.827254 
L 577.061192 324.395529 
L 578.421477 316.535758 
L 579.781761 280.380812 
L 581.142045 311.819896 
L 582.50233 335.399209 
L 583.862614 296.100354 
L 585.222899 340.115071 
L 586.583183 327.539438 
L 587.943467 352.690705 
L 589.303752 272.521041 
L 590.664036 333.827254 
L 592.024321 310.247942 
L 593.384605 322.823575 
L 594.74489 299.244262 
L 596.105174 319.679667 
L 597.465458 286.668629 
L 598.825743 280.380812 
L 600.186027 195.495286 
L 601.546312 123.185393 
L 602.906596 250.513682 
L 604.26688 288.240583 
L 605.627165 311.819896 
L 606.987449 291.384491 
L 608.347734 307.104033 
L 609.708018 303.960125 
L 611.068302 332.2553 
L 612.428587 332.2553 
L 613.788871 346.402888 
L 615.149156 333.827254 
L 616.50944 349.546796 
L 617.869724 336.971163 
L 619.230009 346.402888 
L 620.590293 346.402888 
L 621.950578 352.690705 
L 623.310862 349.546796 
L 624.671147 349.546796 
L 626.031431 352.690705 
L 627.391715 346.402888 
L 628.752 333.827254 
L 630.112284 340.115071 
L 631.472569 343.25898 
L 632.832853 349.546796 
L 634.193137 344.830934 
L 635.553422 324.395529 
L 636.913706 346.402888 
L 638.273991 352.690705 
L 639.634275 347.974842 
L 640.994559 352.690705 
L 642.354844 352.690705 
L 643.715128 349.546796 
L 645.075413 335.399209 
L 646.435697 352.690705 
L 647.795981 338.543117 
L 649.156266 338.543117 
L 650.51655 349.546796 
L 651.876835 351.118751 
L 653.237119 351.118751 
L 654.597404 343.25898 
L 657.317972 349.546796 
L 658.678257 347.974842 
L 660.038541 352.690705 
L 661.398826 351.118751 
L 662.75911 351.118751 
L 665.479679 344.830934 
L 666.839963 352.690705 
L 668.200248 351.118751 
L 669.560532 352.690705 
L 670.920816 352.690705 
L 672.281101 351.118751 
L 673.641385 346.402888 
L 675.00167 352.690705 
L 676.361954 338.543117 
L 677.722238 352.690705 
L 679.082523 340.115071 
L 680.442807 352.690705 
L 681.803092 352.690705 
L 683.163376 336.971163 
L 684.52366 351.118751 
L 685.883945 343.25898 
L 687.244229 352.690705 
L 688.604514 351.118751 
L 691.325083 351.118751 
L 692.685367 347.974842 
L 694.045651 352.690705 
L 695.405936 349.546796 
L 696.76622 352.690705 
L 698.126505 336.971163 
L 699.486789 347.974842 
L 700.847073 351.118751 
L 702.207358 346.402888 
L 703.567642 347.974842 
L 704.927927 352.690705 
L 707.648495 340.115071 
L 709.00878 336.971163 
L 710.369064 347.974842 
L 711.729349 351.118751 
L 713.089633 349.546796 
L 714.449917 352.690705 
L 717.170486 352.690705 
L 718.530771 349.546796 
L 719.891055 352.690705 
L 721.25134 347.974842 
L 722.611624 346.402888 
L 723.971908 351.118751 
L 726.692477 344.830934 
L 728.052762 352.690705 
L 729.413046 343.25898 
L 730.77333 352.690705 
L 736.214468 352.690705 
L 737.574752 319.679667 
L 738.935037 352.690705 
L 740.295321 352.690705 
L 741.655606 341.687025 
L 743.01589 341.687025 
L 744.376174 352.690705 
L 745.736459 346.402888 
L 747.096743 352.690705 
L 749.817312 352.690705 
L 751.177596 340.115071 
L 752.537881 352.690705 
L 753.898165 343.25898 
L 755.25845 352.690705 
L 759.339303 352.690705 
L 760.699587 333.827254 
L 762.059872 341.687025 
L 763.420156 351.118751 
L 764.780441 343.25898 
L 766.140725 352.690705 
L 767.501009 351.118751 
L 768.861294 340.115071 
L 770.221578 343.25898 
L 771.581863 343.25898 
L 772.942147 321.251621 
L 774.302431 332.2553 
L 775.662716 341.687025 
L 777.023 335.399209 
L 778.383285 302.388171 
L 779.743569 292.956445 
L 781.103853 316.535758 
L 782.464138 294.5284 
L 783.824422 291.384491 
L 785.184707 281.952766 
L 786.544991 327.539438 
L 787.905276 264.66127 
L 789.26556 277.236904 
L 790.625844 230.078278 
L 791.986129 241.081957 
L 793.346413 173.487927 
L 794.706698 253.657591 
L 796.066982 220.646553 
L 797.427266 352.690705 
L 798.787551 50.8755 
L 800.147835 198.639194 
L 801.50812 269.377133 
L 802.868404 234.79414 
L 804.228688 255.229545 
L 805.588973 270.949087 
L 806.949257 226.934369 
L 808.309542 231.650232 
L 809.669826 274.092995 
L 811.03011 280.380812 
L 812.390395 281.952766 
L 813.750679 324.395529 
L 815.110964 313.39185 
L 816.471248 303.960125 
L 817.831533 321.251621 
L 819.191817 233.222186 
L 820.552101 289.812537 
L 821.912386 308.675987 
L 823.27267 329.111392 
L 824.632955 308.675987 
L 825.993239 311.819896 
L 827.353523 318.107713 
L 828.713808 321.251621 
L 830.074092 314.963804 
L 831.434377 321.251621 
L 832.794661 344.830934 
L 834.154945 341.687025 
L 835.51523 347.974842 
L 836.875514 344.830934 
L 838.235799 352.690705 
L 839.596083 333.827254 
L 840.956367 336.971163 
L 842.316652 352.690705 
L 843.676936 322.823575 
L 845.037221 347.974842 
L 846.397505 324.395529 
L 849.118074 346.402888 
L 850.478358 352.690705 
L 851.838643 344.830934 
L 853.198927 346.402888 
L 854.559212 346.402888 
L 855.919496 341.687025 
L 857.27978 341.687025 
L 858.640065 347.974842 
L 860.000349 349.546796 
L 861.360634 352.690705 
L 862.720918 352.690705 
L 864.081202 338.543117 
L 865.441487 340.115071 
L 866.801771 351.118751 
L 868.162056 344.830934 
L 869.52234 346.402888 
L 870.882624 352.690705 
L 872.242909 351.118751 
L 873.603193 347.974842 
L 874.963478 351.118751 
L 876.323762 352.690705 
L 877.684046 352.690705 
L 879.044331 340.115071 
L 880.404615 352.690705 
L 881.7649 349.546796 
L 883.125184 351.118751 
L 884.485469 344.830934 
L 885.845753 352.690705 
L 888.566322 352.690705 
L 889.926606 346.402888 
L 891.286891 352.690705 
L 892.647175 351.118751 
L 894.007459 351.118751 
L 895.367744 349.546796 
L 896.728028 351.118751 
L 898.088313 349.546796 
L 899.448597 352.690705 
L 900.808881 349.546796 
L 902.169166 352.690705 
L 903.52945 349.546796 
L 906.250019 352.690705 
L 907.610303 343.25898 
L 908.970588 352.690705 
L 911.691157 349.546796 
L 913.051441 352.690705 
L 914.411725 347.974842 
L 915.77201 351.118751 
L 917.132294 352.690705 
L 918.492579 352.690705 
L 919.852863 351.118751 
L 921.213148 352.690705 
L 930.735138 352.690705 
L 932.095423 351.118751 
L 933.455707 352.690705 
L 934.815992 352.690705 
L 936.176276 349.546796 
L 937.53656 352.690705 
L 955.220258 352.690705 
L 956.580542 351.118751 
L 957.940827 352.690705 
L 974.264239 352.690705 
L 975.624524 351.118751 
L 976.984808 352.690705 
L 987.867084 352.690705 
L 989.227368 349.546796 
L 990.587652 352.690705 
L 1008.27135 352.690705 
L 1009.631634 351.118751 
L 1010.991918 352.690705 
L 1012.352203 352.690705 
L 1013.712487 351.118751 
L 1015.072772 352.690705 
L 1023.234478 352.690705 
L 1024.594763 347.974842 
L 1025.955047 352.690705 
L 1027.315331 329.111392 
L 1028.675616 351.118751 
L 1030.0359 352.690705 
L 1031.396185 352.690705 
L 1032.756469 351.118751 
L 1034.116753 351.118751 
L 1035.477038 335.399209 
L 1036.837322 352.690705 
L 1038.197607 324.395529 
L 1039.557891 322.823575 
L 1040.918175 299.244262 
L 1042.27846 344.830934 
L 1043.638744 329.111392 
L 1044.999029 277.236904 
L 1046.359313 294.5284 
L 1047.719598 275.664949 
L 1049.079882 278.808858 
L 1050.440166 292.956445 
L 1051.800451 297.672308 
L 1053.160735 289.812537 
L 1054.52102 239.510003 
L 1055.881304 208.070919 
L 1057.241588 225.362415 
L 1058.601873 274.092995 
L 1059.962157 250.513682 
L 1061.322442 288.240583 
L 1062.682726 277.236904 
L 1064.04301 289.812537 
L 1065.403295 283.52472 
L 1066.763579 305.532079 
L 1068.123864 316.535758 
L 1069.484148 285.096675 
L 1070.844432 343.25898 
L 1072.204717 352.690705 
L 1073.565001 291.384491 
L 1074.925286 341.687025 
L 1076.28557 352.690705 
L 1077.645854 307.104033 
L 1079.006139 332.2553 
L 1080.366423 349.546796 
L 1081.726708 330.683346 
L 1083.086992 346.402888 
L 1084.447277 344.830934 
L 1085.807561 344.830934 
L 1087.167845 333.827254 
L 1088.52813 343.25898 
L 1089.888414 347.974842 
L 1091.248699 330.683346 
L 1092.608983 351.118751 
L 1093.969267 347.974842 
L 1095.329552 351.118751 
L 1096.689836 347.974842 
L 1098.050121 341.687025 
L 1099.410405 351.118751 
L 1100.770689 352.690705 
L 1102.130974 349.546796 
L 1103.491258 352.690705 
L 1104.851543 349.546796 
L 1106.211827 352.690705 
L 1107.572111 351.118751 
L 1108.932396 352.690705 
L 1110.29268 338.543117 
L 1111.652965 351.118751 
L 1113.013249 336.971163 
L 1114.373534 352.690705 
L 1115.733818 346.402888 
L 1117.094102 352.690705 
L 1118.454387 352.690705 
L 1119.814671 341.687025 
L 1121.174956 349.546796 
L 1122.53524 352.690705 
L 1123.895524 352.690705 
L 1125.255809 349.546796 
L 1126.616093 352.690705 
L 1130.696946 352.690705 
L 1132.057231 349.546796 
L 1133.417515 352.690705 
L 1145.660075 352.690705 
L 1147.020359 351.118751 
L 1148.380644 352.690705 
L 1149.740928 352.690705 
L 1151.101213 351.118751 
L 1152.461497 352.690705 
L 1155.182066 352.690705 
L 1157.902635 349.546796 
L 1159.262919 352.690705 
L 1160.623203 352.690705 
L 1161.983488 347.974842 
L 1163.343772 352.690705 
L 1164.704057 351.118751 
L 1166.064341 352.690705 
L 1183.748038 352.690705 
L 1185.108323 351.118751 
L 1186.468607 352.690705 
L 1190.54946 352.690705 
L 1191.909745 349.546796 
L 1193.270029 352.690705 
L 1197.350882 352.690705 
L 1198.711167 346.402888 
L 1200.071451 352.690705 
L 1227.277139 352.690705 
L 1228.637424 351.118751 
L 1229.997708 352.690705 
L 1272.166525 352.690705 
L 1273.526809 351.118751 
L 1274.887094 352.690705 
L 1277.607663 352.690705 
L 1278.967947 351.118751 
L 1280.328231 351.118751 
L 1281.688516 352.690705 
L 1284.409085 352.690705 
L 1285.769369 347.974842 
L 1287.129653 352.690705 
L 1291.210507 352.690705 
L 1292.570791 344.830934 
L 1293.931075 352.690705 
L 1293.931075 352.690705 
" clip-path="url(#p96902dca42)" style="fill: none; stroke: #0000ff; stroke-width: 1.5; stroke-linecap: square"/>
   </g>
   <g id="line2d_22">
    <path d="M 1054.52102 283.403071 
L 1055.881304 259.111987 
L 1057.241588 247.625116 
L 1058.601873 252.618488 
L 1059.962157 259.536687 
L 1061.322442 270.59683 
L 1062.682726 277.125587 
L 1064.04301 278.353303 
L 1068.123864 306.145608 
L 1069.484148 307.273812 
L 1070.844432 315.931917 
L 1072.204717 327.710108 
L 1073.565001 316.260518 
L 1074.925286 326.310052 
L 1076.28557 341.366744 
L 1077.645854 323.932767 
L 1079.006139 335.894252 
L 1080.366423 341.243195 
L 1081.726708 326.77975 
L 1083.086992 336.972747 
L 1084.447277 343.649634 
L 1085.807561 340.502514 
L 1087.167845 340.474975 
L 1088.52813 345.656912 
L 1089.888414 344.568525 
L 1091.248699 335.800394 
L 1092.608983 341.06526 
L 1093.969267 345.583476 
L 1095.329552 343.447598 
L 1096.689836 347.713339 
L 1098.050121 349.679133 
L 1099.410405 346.587966 
L 1100.770689 346.777959 
L 1102.130974 347.786853 
L 1103.491258 350.286707 
L 1104.851543 348.966183 
L 1106.211827 348.521363 
L 1107.572111 353.2755 
L 1108.932396 350.461683 
L 1110.29268 346.247987 
L 1111.652965 346.51093 
L 1114.373534 343.317771 
L 1115.733818 346.386778 
L 1117.094102 348.568389 
L 1118.454387 349.613454 
L 1119.814671 346.664219 
L 1121.174956 346.497308 
L 1122.53524 349.416727 
L 1123.895524 348.483529 
L 1125.255809 349.624841 
L 1126.616093 352.143403 
L 1127.976378 349.551692 
L 1129.336662 350.377951 
L 1130.696946 351.039405 
L 1132.057231 351.02371 
L 1133.417515 350.13668 
L 1134.7778 350.812136 
L 1136.138084 351.989396 
L 1137.498368 350.443734 
L 1138.858653 351.132509 
L 1140.218937 350.901401 
L 1141.579222 351.746625 
L 1142.939506 351.204149 
L 1144.299791 351.305496 
L 1145.660075 352.23425 
L 1147.020359 350.324915 
L 1148.380644 350.753697 
L 1151.101213 350.922327 
L 1152.461497 350.802678 
L 1153.821781 351.10932 
L 1155.182066 351.543844 
L 1156.54235 350.552754 
L 1157.902635 350.021707 
L 1159.262919 349.929911 
L 1160.623203 350.874008 
L 1161.983488 349.510582 
L 1164.704057 350.545488 
L 1166.064341 349.548474 
L 1167.424625 351.190814 
L 1168.78491 350.930246 
L 1171.505479 351.466715 
L 1172.865763 351.333107 
L 1174.226047 351.593101 
L 1175.586332 351.129233 
L 1176.946616 351.403561 
L 1179.667185 351.25848 
L 1181.02747 351.431357 
L 1182.387754 351.340009 
L 1183.748038 351.517767 
L 1185.108323 350.793589 
L 1187.828892 351.096909 
L 1189.189176 350.995615 
L 1190.54946 351.407183 
L 1191.909745 350.530664 
L 1193.270029 350.44903 
L 1194.630314 350.856594 
L 1195.990598 350.824892 
L 1197.350882 351.339358 
L 1198.711167 349.703906 
L 1200.071451 349.356194 
L 1201.431736 350.562284 
L 1202.79202 350.244214 
L 1204.152304 351.335892 
L 1205.512589 351.438081 
L 1206.872873 350.868673 
L 1208.233158 351.462429 
L 1209.593442 351.352667 
L 1212.314011 351.48661 
L 1213.674295 351.341914 
L 1215.03458 351.41178 
L 1216.394864 351.022478 
L 1217.755149 351.428426 
L 1219.115433 351.353383 
L 1221.836002 351.444959 
L 1223.196286 351.346031 
L 1224.556571 351.393798 
L 1225.916855 351.127633 
L 1227.277139 351.405179 
L 1228.637424 350.94684 
L 1229.997708 350.953172 
L 1231.357993 351.204671 
L 1232.718277 351.055473 
L 1234.078561 351.381504 
L 1235.438846 351.199528 
L 1240.879983 351.413035 
L 1246.321121 351.297125 
L 1249.04169 351.400318 
L 1272.166525 351.360736 
L 1273.526809 350.913942 
L 1274.887094 350.887292 
L 1276.247378 351.149687 
L 1278.967947 350.960593 
L 1280.328231 350.502673 
L 1281.688516 350.579021 
L 1284.409085 351.082902 
L 1285.769369 350.154346 
L 1287.129653 349.920643 
L 1288.489938 350.64006 
L 1289.850222 350.542269 
L 1291.210507 351.326347 
L 1292.570791 349.363158 
L 1293.931075 348.789186 
L 1293.931075 348.789186 
" clip-path="url(#p96902dca42)" style="fill: none; stroke: #ffa500; stroke-width: 1.5; stroke-linecap: square"/>
   </g>
   <g id="line2d_23">
    <path d="M 1293.931075 348.789186 
L 1295.29136 349.392024 
L 1296.651644 347.961707 
L 1298.011929 348.655928 
L 1299.372213 347.899021 
L 1300.732497 347.09443 
L 1302.092782 347.294081 
L 1303.453066 346.615878 
L 1304.813351 346.571355 
L 1306.173635 346.194332 
L 1307.53392 345.992786 
L 1308.894204 345.790611 
L 1310.254488 345.069716 
L 1311.614773 345.333454 
" clip-path="url(#p96902dca42)" style="fill: none; stroke: #ff0000; stroke-width: 1.5; stroke-linecap: square"/>
   </g>
   <g id="patch_3">
    <path d="M 33.2875 368.3955 
L 33.2875 35.7555 
" style="fill: none; stroke: #000000; stroke-width: 0.8; stroke-linejoin: miter; stroke-linecap: square"/>
   </g>
   <g id="patch_4">
    <path d="M 1372.4875 368.3955 
L 1372.4875 35.7555 
" style="fill: none; stroke: #000000; stroke-width: 0.8; stroke-linejoin: miter; stroke-linecap: square"/>
   </g>
   <g id="patch_5">
    <path d="M 33.2875 368.3955 
L 1372.4875 368.3955 
" style="fill: none; stroke: #000000; stroke-width: 0.8; stroke-linejoin: miter; stroke-linecap: square"/>
   </g>
   <g id="patch_6">
    <path d="M 33.2875 35.7555 
L 1372.4875 35.7555 
" style="fill: none; stroke: #000000; stroke-width: 0.8; stroke-linejoin: miter; stroke-linecap: square"/>
   </g>
   <g id="text_21">
    <!-- Daily Confirmed Cases Forecasting - Sierra Leone -->
    <g transform="translate(554.711875 16.318125)scale(0.12 -0.12)">
     <defs>
      <path id="DejaVuSans-44" d="M 1259 4147 
L 1259 519 
L 2022 519 
Q 2988 519 3436 956 
Q 3884 1394 3884 2338 
Q 3884 3275 3436 3711 
Q 2988 4147 2022 4147 
L 1259 4147 
z
M 628 4666 
L 1925 4666 
Q 3281 4666 3915 4102 
Q 4550 3538 4550 2338 
Q 4550 1131 3912 565 
Q 3275 0 1925 0 
L 628 0 
L 628 4666 
z
" transform="scale(0.015625)"/>
      <path id="DejaVuSans-61" d="M 2194 1759 
Q 1497 1759 1228 1600 
Q 959 1441 959 1056 
Q 959 750 1161 570 
Q 1363 391 1709 391 
Q 2188 391 2477 730 
Q 2766 1069 2766 1631 
L 2766 1759 
L 2194 1759 
z
M 3341 1997 
L 3341 0 
L 2766 0 
L 2766 531 
Q 2569 213 2275 61 
Q 1981 -91 1556 -91 
Q 1019 -91 701 211 
Q 384 513 384 1019 
Q 384 1609 779 1909 
Q 1175 2209 1959 2209 
L 2766 2209 
L 2766 2266 
Q 2766 2663 2505 2880 
Q 2244 3097 1772 3097 
Q 1472 3097 1187 3025 
Q 903 2953 641 2809 
L 641 3341 
Q 956 3463 1253 3523 
Q 1550 3584 1831 3584 
Q 2591 3584 2966 3190 
Q 3341 2797 3341 1997 
z
" transform="scale(0.015625)"/>
      <path id="DejaVuSans-69" d="M 603 3500 
L 1178 3500 
L 1178 0 
L 603 0 
L 603 3500 
z
M 603 4863 
L 1178 4863 
L 1178 4134 
L 603 4134 
L 603 4863 
z
" transform="scale(0.015625)"/>
      <path id="DejaVuSans-6c" d="M 603 4863 
L 1178 4863 
L 1178 0 
L 603 0 
L 603 4863 
z
" transform="scale(0.015625)"/>
      <path id="DejaVuSans-79" d="M 2059 -325 
Q 1816 -950 1584 -1140 
Q 1353 -1331 966 -1331 
L 506 -1331 
L 506 -850 
L 844 -850 
Q 1081 -850 1212 -737 
Q 1344 -625 1503 -206 
L 1606 56 
L 191 3500 
L 800 3500 
L 1894 763 
L 2988 3500 
L 3597 3500 
L 2059 -325 
z
" transform="scale(0.015625)"/>
      <path id="DejaVuSans-20" transform="scale(0.015625)"/>
      <path id="DejaVuSans-43" d="M 4122 4306 
L 4122 3641 
Q 3803 3938 3442 4084 
Q 3081 4231 2675 4231 
Q 1875 4231 1450 3742 
Q 1025 3253 1025 2328 
Q 1025 1406 1450 917 
Q 1875 428 2675 428 
Q 3081 428 3442 575 
Q 3803 722 4122 1019 
L 4122 359 
Q 3791 134 3420 21 
Q 3050 -91 2638 -91 
Q 1578 -91 968 557 
Q 359 1206 359 2328 
Q 359 3453 968 4101 
Q 1578 4750 2638 4750 
Q 3056 4750 3426 4639 
Q 3797 4528 4122 4306 
z
" transform="scale(0.015625)"/>
      <path id="DejaVuSans-6f" d="M 1959 3097 
Q 1497 3097 1228 2736 
Q 959 2375 959 1747 
Q 959 1119 1226 758 
Q 1494 397 1959 397 
Q 2419 397 2687 759 
Q 2956 1122 2956 1747 
Q 2956 2369 2687 2733 
Q 2419 3097 1959 3097 
z
M 1959 3584 
Q 2709 3584 3137 3096 
Q 3566 2609 3566 1747 
Q 3566 888 3137 398 
Q 2709 -91 1959 -91 
Q 1206 -91 779 398 
Q 353 888 353 1747 
Q 353 2609 779 3096 
Q 1206 3584 1959 3584 
z
" transform="scale(0.015625)"/>
      <path id="DejaVuSans-6e" d="M 3513 2113 
L 3513 0 
L 2938 0 
L 2938 2094 
Q 2938 2591 2744 2837 
Q 2550 3084 2163 3084 
Q 1697 3084 1428 2787 
Q 1159 2491 1159 1978 
L 1159 0 
L 581 0 
L 581 3500 
L 1159 3500 
L 1159 2956 
Q 1366 3272 1645 3428 
Q 1925 3584 2291 3584 
Q 2894 3584 3203 3211 
Q 3513 2838 3513 2113 
z
" transform="scale(0.015625)"/>
      <path id="DejaVuSans-66" d="M 2375 4863 
L 2375 4384 
L 1825 4384 
Q 1516 4384 1395 4259 
Q 1275 4134 1275 3809 
L 1275 3500 
L 2222 3500 
L 2222 3053 
L 1275 3053 
L 1275 0 
L 697 0 
L 697 3053 
L 147 3053 
L 147 3500 
L 697 3500 
L 697 3744 
Q 697 4328 969 4595 
Q 1241 4863 1831 4863 
L 2375 4863 
z
" transform="scale(0.015625)"/>
      <path id="DejaVuSans-72" d="M 2631 2963 
Q 2534 3019 2420 3045 
Q 2306 3072 2169 3072 
Q 1681 3072 1420 2755 
Q 1159 2438 1159 1844 
L 1159 0 
L 581 0 
L 581 3500 
L 1159 3500 
L 1159 2956 
Q 1341 3275 1631 3429 
Q 1922 3584 2338 3584 
Q 2397 3584 2469 3576 
Q 2541 3569 2628 3553 
L 2631 2963 
z
" transform="scale(0.015625)"/>
      <path id="DejaVuSans-6d" d="M 3328 2828 
Q 3544 3216 3844 3400 
Q 4144 3584 4550 3584 
Q 5097 3584 5394 3201 
Q 5691 2819 5691 2113 
L 5691 0 
L 5113 0 
L 5113 2094 
Q 5113 2597 4934 2840 
Q 4756 3084 4391 3084 
Q 3944 3084 3684 2787 
Q 3425 2491 3425 1978 
L 3425 0 
L 2847 0 
L 2847 2094 
Q 2847 2600 2669 2842 
Q 2491 3084 2119 3084 
Q 1678 3084 1418 2786 
Q 1159 2488 1159 1978 
L 1159 0 
L 581 0 
L 581 3500 
L 1159 3500 
L 1159 2956 
Q 1356 3278 1631 3431 
Q 1906 3584 2284 3584 
Q 2666 3584 2933 3390 
Q 3200 3197 3328 2828 
z
" transform="scale(0.015625)"/>
      <path id="DejaVuSans-65" d="M 3597 1894 
L 3597 1613 
L 953 1613 
Q 991 1019 1311 708 
Q 1631 397 2203 397 
Q 2534 397 2845 478 
Q 3156 559 3463 722 
L 3463 178 
Q 3153 47 2828 -22 
Q 2503 -91 2169 -91 
Q 1331 -91 842 396 
Q 353 884 353 1716 
Q 353 2575 817 3079 
Q 1281 3584 2069 3584 
Q 2775 3584 3186 3129 
Q 3597 2675 3597 1894 
z
M 3022 2063 
Q 3016 2534 2758 2815 
Q 2500 3097 2075 3097 
Q 1594 3097 1305 2825 
Q 1016 2553 972 2059 
L 3022 2063 
z
" transform="scale(0.015625)"/>
      <path id="DejaVuSans-64" d="M 2906 2969 
L 2906 4863 
L 3481 4863 
L 3481 0 
L 2906 0 
L 2906 525 
Q 2725 213 2448 61 
Q 2172 -91 1784 -91 
Q 1150 -91 751 415 
Q 353 922 353 1747 
Q 353 2572 751 3078 
Q 1150 3584 1784 3584 
Q 2172 3584 2448 3432 
Q 2725 3281 2906 2969 
z
M 947 1747 
Q 947 1113 1208 752 
Q 1469 391 1925 391 
Q 2381 391 2643 752 
Q 2906 1113 2906 1747 
Q 2906 2381 2643 2742 
Q 2381 3103 1925 3103 
Q 1469 3103 1208 2742 
Q 947 2381 947 1747 
z
" transform="scale(0.015625)"/>
      <path id="DejaVuSans-73" d="M 2834 3397 
L 2834 2853 
Q 2591 2978 2328 3040 
Q 2066 3103 1784 3103 
Q 1356 3103 1142 2972 
Q 928 2841 928 2578 
Q 928 2378 1081 2264 
Q 1234 2150 1697 2047 
L 1894 2003 
Q 2506 1872 2764 1633 
Q 3022 1394 3022 966 
Q 3022 478 2636 193 
Q 2250 -91 1575 -91 
Q 1294 -91 989 -36 
Q 684 19 347 128 
L 347 722 
Q 666 556 975 473 
Q 1284 391 1588 391 
Q 1994 391 2212 530 
Q 2431 669 2431 922 
Q 2431 1156 2273 1281 
Q 2116 1406 1581 1522 
L 1381 1569 
Q 847 1681 609 1914 
Q 372 2147 372 2553 
Q 372 3047 722 3315 
Q 1072 3584 1716 3584 
Q 2034 3584 2315 3537 
Q 2597 3491 2834 3397 
z
" transform="scale(0.015625)"/>
      <path id="DejaVuSans-46" d="M 628 4666 
L 3309 4666 
L 3309 4134 
L 1259 4134 
L 1259 2759 
L 3109 2759 
L 3109 2228 
L 1259 2228 
L 1259 0 
L 628 0 
L 628 4666 
z
" transform="scale(0.015625)"/>
      <path id="DejaVuSans-63" d="M 3122 3366 
L 3122 2828 
Q 2878 2963 2633 3030 
Q 2388 3097 2138 3097 
Q 1578 3097 1268 2742 
Q 959 2388 959 1747 
Q 959 1106 1268 751 
Q 1578 397 2138 397 
Q 2388 397 2633 464 
Q 2878 531 3122 666 
L 3122 134 
Q 2881 22 2623 -34 
Q 2366 -91 2075 -91 
Q 1284 -91 818 406 
Q 353 903 353 1747 
Q 353 2603 823 3093 
Q 1294 3584 2113 3584 
Q 2378 3584 2631 3529 
Q 2884 3475 3122 3366 
z
" transform="scale(0.015625)"/>
      <path id="DejaVuSans-74" d="M 1172 4494 
L 1172 3500 
L 2356 3500 
L 2356 3053 
L 1172 3053 
L 1172 1153 
Q 1172 725 1289 603 
Q 1406 481 1766 481 
L 2356 481 
L 2356 0 
L 1766 0 
Q 1100 0 847 248 
Q 594 497 594 1153 
L 594 3053 
L 172 3053 
L 172 3500 
L 594 3500 
L 594 4494 
L 1172 4494 
z
" transform="scale(0.015625)"/>
      <path id="DejaVuSans-67" d="M 2906 1791 
Q 2906 2416 2648 2759 
Q 2391 3103 1925 3103 
Q 1463 3103 1205 2759 
Q 947 2416 947 1791 
Q 947 1169 1205 825 
Q 1463 481 1925 481 
Q 2391 481 2648 825 
Q 2906 1169 2906 1791 
z
M 3481 434 
Q 3481 -459 3084 -895 
Q 2688 -1331 1869 -1331 
Q 1566 -1331 1297 -1286 
Q 1028 -1241 775 -1147 
L 775 -588 
Q 1028 -725 1275 -790 
Q 1522 -856 1778 -856 
Q 2344 -856 2625 -561 
Q 2906 -266 2906 331 
L 2906 616 
Q 2728 306 2450 153 
Q 2172 0 1784 0 
Q 1141 0 747 490 
Q 353 981 353 1791 
Q 353 2603 747 3093 
Q 1141 3584 1784 3584 
Q 2172 3584 2450 3431 
Q 2728 3278 2906 2969 
L 2906 3500 
L 3481 3500 
L 3481 434 
z
" transform="scale(0.015625)"/>
      <path id="DejaVuSans-53" d="M 3425 4513 
L 3425 3897 
Q 3066 4069 2747 4153 
Q 2428 4238 2131 4238 
Q 1616 4238 1336 4038 
Q 1056 3838 1056 3469 
Q 1056 3159 1242 3001 
Q 1428 2844 1947 2747 
L 2328 2669 
Q 3034 2534 3370 2195 
Q 3706 1856 3706 1288 
Q 3706 609 3251 259 
Q 2797 -91 1919 -91 
Q 1588 -91 1214 -16 
Q 841 59 441 206 
L 441 856 
Q 825 641 1194 531 
Q 1563 422 1919 422 
Q 2459 422 2753 634 
Q 3047 847 3047 1241 
Q 3047 1584 2836 1778 
Q 2625 1972 2144 2069 
L 1759 2144 
Q 1053 2284 737 2584 
Q 422 2884 422 3419 
Q 422 4038 858 4394 
Q 1294 4750 2059 4750 
Q 2388 4750 2728 4690 
Q 3069 4631 3425 4513 
z
" transform="scale(0.015625)"/>
      <path id="DejaVuSans-4c" d="M 628 4666 
L 1259 4666 
L 1259 531 
L 3531 531 
L 3531 0 
L 628 0 
L 628 4666 
z
" transform="scale(0.015625)"/>
     </defs>
     <use xlink:href="#DejaVuSans-44"/>
     <use xlink:href="#DejaVuSans-61" x="77.001953"/>
     <use xlink:href="#DejaVuSans-69" x="138.28125"/>
     <use xlink:href="#DejaVuSans-6c" x="166.064453"/>
     <use xlink:href="#DejaVuSans-79" x="193.847656"/>
     <use xlink:href="#DejaVuSans-20" x="253.027344"/>
     <use xlink:href="#DejaVuSans-43" x="284.814453"/>
     <use xlink:href="#DejaVuSans-6f" x="354.638672"/>
     <use xlink:href="#DejaVuSans-6e" x="415.820312"/>
     <use xlink:href="#DejaVuSans-66" x="479.199219"/>
     <use xlink:href="#DejaVuSans-69" x="514.404297"/>
     <use xlink:href="#DejaVuSans-72" x="542.1875"/>
     <use xlink:href="#DejaVuSans-6d" x="581.550781"/>
     <use xlink:href="#DejaVuSans-65" x="678.962891"/>
     <use xlink:href="#DejaVuSans-64" x="740.486328"/>
     <use xlink:href="#DejaVuSans-20" x="803.962891"/>
     <use xlink:href="#DejaVuSans-43" x="835.75"/>
     <use xlink:href="#DejaVuSans-61" x="905.574219"/>
     <use xlink:href="#DejaVuSans-73" x="966.853516"/>
     <use xlink:href="#DejaVuSans-65" x="1018.953125"/>
     <use xlink:href="#DejaVuSans-73" x="1080.476562"/>
     <use xlink:href="#DejaVuSans-20" x="1132.576172"/>
     <use xlink:href="#DejaVuSans-46" x="1164.363281"/>
     <use xlink:href="#DejaVuSans-6f" x="1218.257812"/>
     <use xlink:href="#DejaVuSans-72" x="1279.439453"/>
     <use xlink:href="#DejaVuSans-65" x="1318.302734"/>
     <use xlink:href="#DejaVuSans-63" x="1379.826172"/>
     <use xlink:href="#DejaVuSans-61" x="1434.806641"/>
     <use xlink:href="#DejaVuSans-73" x="1496.085938"/>
     <use xlink:href="#DejaVuSans-74" x="1548.185547"/>
     <use xlink:href="#DejaVuSans-69" x="1587.394531"/>
     <use xlink:href="#DejaVuSans-6e" x="1615.177734"/>
     <use xlink:href="#DejaVuSans-67" x="1678.556641"/>
     <use xlink:href="#DejaVuSans-20" x="1742.033203"/>
     <use xlink:href="#DejaVuSans-2d" x="1773.820312"/>
     <use xlink:href="#DejaVuSans-20" x="1809.904297"/>
     <use xlink:href="#DejaVuSans-53" x="1841.691406"/>
     <use xlink:href="#DejaVuSans-69" x="1905.167969"/>
     <use xlink:href="#DejaVuSans-65" x="1932.951172"/>
     <use xlink:href="#DejaVuSans-72" x="1994.474609"/>
     <use xlink:href="#DejaVuSans-72" x="2033.837891"/>
     <use xlink:href="#DejaVuSans-61" x="2074.951172"/>
     <use xlink:href="#DejaVuSans-20" x="2136.230469"/>
     <use xlink:href="#DejaVuSans-4c" x="2168.017578"/>
     <use xlink:href="#DejaVuSans-65" x="2221.980469"/>
     <use xlink:href="#DejaVuSans-6f" x="2283.503906"/>
     <use xlink:href="#DejaVuSans-6e" x="2344.685547"/>
     <use xlink:href="#DejaVuSans-65" x="2408.064453"/>
    </g>
    <!-- ARIMA (4, 0, 0)x(1, 0, 1, 7) (R2 = 0.884089) -->
    <g transform="translate(570.903438 29.7555)scale(0.12 -0.12)">
     <defs>
      <path id="DejaVuSans-41" d="M 2188 4044 
L 1331 1722 
L 3047 1722 
L 2188 4044 
z
M 1831 4666 
L 2547 4666 
L 4325 0 
L 3669 0 
L 3244 1197 
L 1141 1197 
L 716 0 
L 50 0 
L 1831 4666 
z
" transform="scale(0.015625)"/>
      <path id="DejaVuSans-52" d="M 2841 2188 
Q 3044 2119 3236 1894 
Q 3428 1669 3622 1275 
L 4263 0 
L 3584 0 
L 2988 1197 
Q 2756 1666 2539 1819 
Q 2322 1972 1947 1972 
L 1259 1972 
L 1259 0 
L 628 0 
L 628 4666 
L 2053 4666 
Q 2853 4666 3247 4331 
Q 3641 3997 3641 3322 
Q 3641 2881 3436 2590 
Q 3231 2300 2841 2188 
z
M 1259 4147 
L 1259 2491 
L 2053 2491 
Q 2509 2491 2742 2702 
Q 2975 2913 2975 3322 
Q 2975 3731 2742 3939 
Q 2509 4147 2053 4147 
L 1259 4147 
z
" transform="scale(0.015625)"/>
      <path id="DejaVuSans-49" d="M 628 4666 
L 1259 4666 
L 1259 0 
L 628 0 
L 628 4666 
z
" transform="scale(0.015625)"/>
      <path id="DejaVuSans-4d" d="M 628 4666 
L 1569 4666 
L 2759 1491 
L 3956 4666 
L 4897 4666 
L 4897 0 
L 4281 0 
L 4281 4097 
L 3078 897 
L 2444 897 
L 1241 4097 
L 1241 0 
L 628 0 
L 628 4666 
z
" transform="scale(0.015625)"/>
      <path id="DejaVuSans-28" d="M 1984 4856 
Q 1566 4138 1362 3434 
Q 1159 2731 1159 2009 
Q 1159 1288 1364 580 
Q 1569 -128 1984 -844 
L 1484 -844 
Q 1016 -109 783 600 
Q 550 1309 550 2009 
Q 550 2706 781 3412 
Q 1013 4119 1484 4856 
L 1984 4856 
z
" transform="scale(0.015625)"/>
      <path id="DejaVuSans-2c" d="M 750 794 
L 1409 794 
L 1409 256 
L 897 -744 
L 494 -744 
L 750 256 
L 750 794 
z
" transform="scale(0.015625)"/>
      <path id="DejaVuSans-29" d="M 513 4856 
L 1013 4856 
Q 1481 4119 1714 3412 
Q 1947 2706 1947 2009 
Q 1947 1309 1714 600 
Q 1481 -109 1013 -844 
L 513 -844 
Q 928 -128 1133 580 
Q 1338 1288 1338 2009 
Q 1338 2731 1133 3434 
Q 928 4138 513 4856 
z
" transform="scale(0.015625)"/>
      <path id="DejaVuSans-78" d="M 3513 3500 
L 2247 1797 
L 3578 0 
L 2900 0 
L 1881 1375 
L 863 0 
L 184 0 
L 1544 1831 
L 300 3500 
L 978 3500 
L 1906 2253 
L 2834 3500 
L 3513 3500 
z
" transform="scale(0.015625)"/>
      <path id="DejaVuSans-3d" d="M 678 2906 
L 4684 2906 
L 4684 2381 
L 678 2381 
L 678 2906 
z
M 678 1631 
L 4684 1631 
L 4684 1100 
L 678 1100 
L 678 1631 
z
" transform="scale(0.015625)"/>
      <path id="DejaVuSans-2e" d="M 684 794 
L 1344 794 
L 1344 0 
L 684 0 
L 684 794 
z
" transform="scale(0.015625)"/>
      <path id="DejaVuSans-38" d="M 2034 2216 
Q 1584 2216 1326 1975 
Q 1069 1734 1069 1313 
Q 1069 891 1326 650 
Q 1584 409 2034 409 
Q 2484 409 2743 651 
Q 3003 894 3003 1313 
Q 3003 1734 2745 1975 
Q 2488 2216 2034 2216 
z
M 1403 2484 
Q 997 2584 770 2862 
Q 544 3141 544 3541 
Q 544 4100 942 4425 
Q 1341 4750 2034 4750 
Q 2731 4750 3128 4425 
Q 3525 4100 3525 3541 
Q 3525 3141 3298 2862 
Q 3072 2584 2669 2484 
Q 3125 2378 3379 2068 
Q 3634 1759 3634 1313 
Q 3634 634 3220 271 
Q 2806 -91 2034 -91 
Q 1263 -91 848 271 
Q 434 634 434 1313 
Q 434 1759 690 2068 
Q 947 2378 1403 2484 
z
M 1172 3481 
Q 1172 3119 1398 2916 
Q 1625 2713 2034 2713 
Q 2441 2713 2670 2916 
Q 2900 3119 2900 3481 
Q 2900 3844 2670 4047 
Q 2441 4250 2034 4250 
Q 1625 4250 1398 4047 
Q 1172 3844 1172 3481 
z
" transform="scale(0.015625)"/>
      <path id="DejaVuSans-39" d="M 703 97 
L 703 672 
Q 941 559 1184 500 
Q 1428 441 1663 441 
Q 2288 441 2617 861 
Q 2947 1281 2994 2138 
Q 2813 1869 2534 1725 
Q 2256 1581 1919 1581 
Q 1219 1581 811 2004 
Q 403 2428 403 3163 
Q 403 3881 828 4315 
Q 1253 4750 1959 4750 
Q 2769 4750 3195 4129 
Q 3622 3509 3622 2328 
Q 3622 1225 3098 567 
Q 2575 -91 1691 -91 
Q 1453 -91 1209 -44 
Q 966 3 703 97 
z
M 1959 2075 
Q 2384 2075 2632 2365 
Q 2881 2656 2881 3163 
Q 2881 3666 2632 3958 
Q 2384 4250 1959 4250 
Q 1534 4250 1286 3958 
Q 1038 3666 1038 3163 
Q 1038 2656 1286 2365 
Q 1534 2075 1959 2075 
z
" transform="scale(0.015625)"/>
     </defs>
     <use xlink:href="#DejaVuSans-41"/>
     <use xlink:href="#DejaVuSans-52" x="68.408203"/>
     <use xlink:href="#DejaVuSans-49" x="137.890625"/>
     <use xlink:href="#DejaVuSans-4d" x="167.382812"/>
     <use xlink:href="#DejaVuSans-41" x="253.662109"/>
     <use xlink:href="#DejaVuSans-20" x="322.070312"/>
     <use xlink:href="#DejaVuSans-28" x="353.857422"/>
     <use xlink:href="#DejaVuSans-34" x="392.871094"/>
     <use xlink:href="#DejaVuSans-2c" x="456.494141"/>
     <use xlink:href="#DejaVuSans-20" x="488.28125"/>
     <use xlink:href="#DejaVuSans-30" x="520.068359"/>
     <use xlink:href="#DejaVuSans-2c" x="583.691406"/>
     <use xlink:href="#DejaVuSans-20" x="615.478516"/>
     <use xlink:href="#DejaVuSans-30" x="647.265625"/>
     <use xlink:href="#DejaVuSans-29" x="710.888672"/>
     <use xlink:href="#DejaVuSans-78" x="749.902344"/>
     <use xlink:href="#DejaVuSans-28" x="809.082031"/>
     <use xlink:href="#DejaVuSans-31" x="848.095703"/>
     <use xlink:href="#DejaVuSans-2c" x="911.71875"/>
     <use xlink:href="#DejaVuSans-20" x="943.505859"/>
     <use xlink:href="#DejaVuSans-30" x="975.292969"/>
     <use xlink:href="#DejaVuSans-2c" x="1038.916016"/>
     <use xlink:href="#DejaVuSans-20" x="1070.703125"/>
     <use xlink:href="#DejaVuSans-31" x="1102.490234"/>
     <use xlink:href="#DejaVuSans-2c" x="1166.113281"/>
     <use xlink:href="#DejaVuSans-20" x="1197.900391"/>
     <use xlink:href="#DejaVuSans-37" x="1229.6875"/>
     <use xlink:href="#DejaVuSans-29" x="1293.310547"/>
     <use xlink:href="#DejaVuSans-20" x="1332.324219"/>
     <use xlink:href="#DejaVuSans-28" x="1364.111328"/>
     <use xlink:href="#DejaVuSans-52" x="1403.125"/>
     <use xlink:href="#DejaVuSans-32" x="1472.607422"/>
     <use xlink:href="#DejaVuSans-20" x="1536.230469"/>
     <use xlink:href="#DejaVuSans-3d" x="1568.017578"/>
     <use xlink:href="#DejaVuSans-20" x="1651.806641"/>
     <use xlink:href="#DejaVuSans-30" x="1683.59375"/>
     <use xlink:href="#DejaVuSans-2e" x="1747.216797"/>
     <use xlink:href="#DejaVuSans-38" x="1779.003906"/>
     <use xlink:href="#DejaVuSans-38" x="1842.626953"/>
     <use xlink:href="#DejaVuSans-34" x="1906.25"/>
     <use xlink:href="#DejaVuSans-30" x="1969.873047"/>
     <use xlink:href="#DejaVuSans-38" x="2033.496094"/>
     <use xlink:href="#DejaVuSans-39" x="2097.119141"/>
     <use xlink:href="#DejaVuSans-29" x="2160.742188"/>
    </g>
   </g>
   <g id="legend_1">
    <g id="patch_7">
     <path d="M 1268.407813 87.789875 
L 1365.4875 87.789875 
Q 1367.4875 87.789875 1367.4875 85.789875 
L 1367.4875 42.7555 
Q 1367.4875 40.7555 1365.4875 40.7555 
L 1268.407813 40.7555 
Q 1266.407813 40.7555 1266.407813 42.7555 
L 1266.407813 85.789875 
Q 1266.407813 87.789875 1268.407813 87.789875 
z
" style="fill: #ffffff; opacity: 0.8; stroke: #cccccc; stroke-linejoin: miter"/>
    </g>
    <g id="line2d_24">
     <path d="M 1270.407813 48.853937 
L 1280.407813 48.853937 
L 1290.407813 48.853937 
" style="fill: none; stroke: #0000ff; stroke-width: 1.5; stroke-linecap: square"/>
    </g>
    <g id="text_22">
     <!-- Actual Value -->
     <g transform="translate(1298.407813 52.353937)scale(0.1 -0.1)">
      <defs>
       <path id="DejaVuSans-75" d="M 544 1381 
L 544 3500 
L 1119 3500 
L 1119 1403 
Q 1119 906 1312 657 
Q 1506 409 1894 409 
Q 2359 409 2629 706 
Q 2900 1003 2900 1516 
L 2900 3500 
L 3475 3500 
L 3475 0 
L 2900 0 
L 2900 538 
Q 2691 219 2414 64 
Q 2138 -91 1772 -91 
Q 1169 -91 856 284 
Q 544 659 544 1381 
z
M 1991 3584 
L 1991 3584 
z
" transform="scale(0.015625)"/>
       <path id="DejaVuSans-56" d="M 1831 0 
L 50 4666 
L 709 4666 
L 2188 738 
L 3669 4666 
L 4325 4666 
L 2547 0 
L 1831 0 
z
" transform="scale(0.015625)"/>
      </defs>
      <use xlink:href="#DejaVuSans-41"/>
      <use xlink:href="#DejaVuSans-63" x="66.658203"/>
      <use xlink:href="#DejaVuSans-74" x="121.638672"/>
      <use xlink:href="#DejaVuSans-75" x="160.847656"/>
      <use xlink:href="#DejaVuSans-61" x="224.226562"/>
      <use xlink:href="#DejaVuSans-6c" x="285.505859"/>
      <use xlink:href="#DejaVuSans-20" x="313.289062"/>
      <use xlink:href="#DejaVuSans-56" x="345.076172"/>
      <use xlink:href="#DejaVuSans-61" x="405.734375"/>
      <use xlink:href="#DejaVuSans-6c" x="467.013672"/>
      <use xlink:href="#DejaVuSans-75" x="494.796875"/>
      <use xlink:href="#DejaVuSans-65" x="558.175781"/>
     </g>
    </g>
    <g id="line2d_25">
     <path d="M 1270.407813 63.532062 
L 1280.407813 63.532062 
L 1290.407813 63.532062 
" style="fill: none; stroke: #ffa500; stroke-width: 1.5; stroke-linecap: square"/>
    </g>
    <g id="text_23">
     <!-- Check Value -->
     <g transform="translate(1298.407813 67.032062)scale(0.1 -0.1)">
      <defs>
       <path id="DejaVuSans-68" d="M 3513 2113 
L 3513 0 
L 2938 0 
L 2938 2094 
Q 2938 2591 2744 2837 
Q 2550 3084 2163 3084 
Q 1697 3084 1428 2787 
Q 1159 2491 1159 1978 
L 1159 0 
L 581 0 
L 581 4863 
L 1159 4863 
L 1159 2956 
Q 1366 3272 1645 3428 
Q 1925 3584 2291 3584 
Q 2894 3584 3203 3211 
Q 3513 2838 3513 2113 
z
" transform="scale(0.015625)"/>
       <path id="DejaVuSans-6b" d="M 581 4863 
L 1159 4863 
L 1159 1991 
L 2875 3500 
L 3609 3500 
L 1753 1863 
L 3688 0 
L 2938 0 
L 1159 1709 
L 1159 0 
L 581 0 
L 581 4863 
z
" transform="scale(0.015625)"/>
      </defs>
      <use xlink:href="#DejaVuSans-43"/>
      <use xlink:href="#DejaVuSans-68" x="69.824219"/>
      <use xlink:href="#DejaVuSans-65" x="133.203125"/>
      <use xlink:href="#DejaVuSans-63" x="194.726562"/>
      <use xlink:href="#DejaVuSans-6b" x="249.707031"/>
      <use xlink:href="#DejaVuSans-20" x="307.617188"/>
      <use xlink:href="#DejaVuSans-56" x="339.404297"/>
      <use xlink:href="#DejaVuSans-61" x="400.0625"/>
      <use xlink:href="#DejaVuSans-6c" x="461.341797"/>
      <use xlink:href="#DejaVuSans-75" x="489.125"/>
      <use xlink:href="#DejaVuSans-65" x="552.503906"/>
     </g>
    </g>
    <g id="line2d_26">
     <path d="M 1270.407813 78.210187 
L 1280.407813 78.210187 
L 1290.407813 78.210187 
" style="fill: none; stroke: #ff0000; stroke-width: 1.5; stroke-linecap: square"/>
    </g>
    <g id="text_24">
     <!-- Predict Value -->
     <g transform="translate(1298.407813 81.710187)scale(0.1 -0.1)">
      <defs>
       <path id="DejaVuSans-50" d="M 1259 4147 
L 1259 2394 
L 2053 2394 
Q 2494 2394 2734 2622 
Q 2975 2850 2975 3272 
Q 2975 3691 2734 3919 
Q 2494 4147 2053 4147 
L 1259 4147 
z
M 628 4666 
L 2053 4666 
Q 2838 4666 3239 4311 
Q 3641 3956 3641 3272 
Q 3641 2581 3239 2228 
Q 2838 1875 2053 1875 
L 1259 1875 
L 1259 0 
L 628 0 
L 628 4666 
z
" transform="scale(0.015625)"/>
      </defs>
      <use xlink:href="#DejaVuSans-50"/>
      <use xlink:href="#DejaVuSans-72" x="58.552734"/>
      <use xlink:href="#DejaVuSans-65" x="97.416016"/>
      <use xlink:href="#DejaVuSans-64" x="158.939453"/>
      <use xlink:href="#DejaVuSans-69" x="222.416016"/>
      <use xlink:href="#DejaVuSans-63" x="250.199219"/>
      <use xlink:href="#DejaVuSans-74" x="305.179688"/>
      <use xlink:href="#DejaVuSans-20" x="344.388672"/>
      <use xlink:href="#DejaVuSans-56" x="376.175781"/>
      <use xlink:href="#DejaVuSans-61" x="436.833984"/>
      <use xlink:href="#DejaVuSans-6c" x="498.113281"/>
      <use xlink:href="#DejaVuSans-75" x="525.896484"/>
      <use xlink:href="#DejaVuSans-65" x="589.275391"/>
     </g>
    </g>
   </g>
  </g>
 </g>
 <defs>
  <clipPath id="p96902dca42">
   <rect x="33.2875" y="35.7555" width="1339.2" height="332.64"/>
  </clipPath>
 </defs>
</svg>
