<?xml version="1.0" encoding="utf-8" standalone="no"?>
<!DOCTYPE svg PUBLIC "-//W3C//DTD SVG 1.1//EN"
  "http://www.w3.org/Graphics/SVG/1.1/DTD/svg11.dtd">
<svg xmlns:xlink="http://www.w3.org/1999/xlink" width="1398.775pt" height="392.273625pt" viewBox="0 0 1398.775 392.273625" xmlns="http://www.w3.org/2000/svg" version="1.1">
 <metadata>
  <rdf:RDF xmlns:dc="http://purl.org/dc/elements/1.1/" xmlns:cc="http://creativecommons.org/ns#" xmlns:rdf="http://www.w3.org/1999/02/22-rdf-syntax-ns#">
   <cc:Work>
    <dc:type rdf:resource="http://purl.org/dc/dcmitype/StillImage"/>
    <dc:date>2022-06-24T20:10:44.754690</dc:date>
    <dc:format>image/svg+xml</dc:format>
    <dc:creator>
     <cc:Agent>
      <dc:title>Matplotlib v3.5.2, https://matplotlib.org/</dc:title>
     </cc:Agent>
    </dc:creator>
   </cc:Work>
  </rdf:RDF>
 </metadata>
 <defs>
  <style type="text/css">*{stroke-linejoin: round; stroke-linecap: butt}</style>
 </defs>
 <g id="figure_1">
  <g id="patch_1">
   <path d="M 0 392.273625 
L 1398.775 392.273625 
L 1398.775 0 
L 0 0 
z
" style="fill: #ffffff"/>
  </g>
  <g id="axes_1">
   <g id="patch_2">
    <path d="M 52.375 368.3955 
L 1391.575 368.3955 
L 1391.575 35.7555 
L 52.375 35.7555 
z
" style="fill: #ffffff"/>
   </g>
   <g id="matplotlib.axis_1">
    <g id="xtick_1">
     <g id="line2d_1">
      <defs>
       <path id="m9841166ac3" d="M 0 0 
L 0 3.5 
" style="stroke: #000000; stroke-width: 0.8"/>
      </defs>
      <g>
       <use xlink:href="#m9841166ac3" x="83.32147" y="368.3955" style="stroke: #000000; stroke-width: 0.8"/>
      </g>
     </g>
     <g id="text_1">
      <!-- 2020-01 -->
      <g transform="translate(62.430064 382.993937)scale(0.1 -0.1)">
       <defs>
        <path id="DejaVuSans-32" d="M 1228 531 
L 3431 531 
L 3431 0 
L 469 0 
L 469 531 
Q 828 903 1448 1529 
Q 2069 2156 2228 2338 
Q 2531 2678 2651 2914 
Q 2772 3150 2772 3378 
Q 2772 3750 2511 3984 
Q 2250 4219 1831 4219 
Q 1534 4219 1204 4116 
Q 875 4013 500 3803 
L 500 4441 
Q 881 4594 1212 4672 
Q 1544 4750 1819 4750 
Q 2544 4750 2975 4387 
Q 3406 4025 3406 3419 
Q 3406 3131 3298 2873 
Q 3191 2616 2906 2266 
Q 2828 2175 2409 1742 
Q 1991 1309 1228 531 
z
" transform="scale(0.015625)"/>
        <path id="DejaVuSans-30" d="M 2034 4250 
Q 1547 4250 1301 3770 
Q 1056 3291 1056 2328 
Q 1056 1369 1301 889 
Q 1547 409 2034 409 
Q 2525 409 2770 889 
Q 3016 1369 3016 2328 
Q 3016 3291 2770 3770 
Q 2525 4250 2034 4250 
z
M 2034 4750 
Q 2819 4750 3233 4129 
Q 3647 3509 3647 2328 
Q 3647 1150 3233 529 
Q 2819 -91 2034 -91 
Q 1250 -91 836 529 
Q 422 1150 422 2328 
Q 422 3509 836 4129 
Q 1250 4750 2034 4750 
z
" transform="scale(0.015625)"/>
        <path id="DejaVuSans-2d" d="M 313 2009 
L 1997 2009 
L 1997 1497 
L 313 1497 
L 313 2009 
z
" transform="scale(0.015625)"/>
        <path id="DejaVuSans-31" d="M 794 531 
L 1825 531 
L 1825 4091 
L 703 3866 
L 703 4441 
L 1819 4666 
L 2450 4666 
L 2450 531 
L 3481 531 
L 3481 0 
L 794 0 
L 794 531 
z
" transform="scale(0.015625)"/>
       </defs>
       <use xlink:href="#DejaVuSans-32"/>
       <use xlink:href="#DejaVuSans-30" x="63.623047"/>
       <use xlink:href="#DejaVuSans-32" x="127.246094"/>
       <use xlink:href="#DejaVuSans-30" x="190.869141"/>
       <use xlink:href="#DejaVuSans-2d" x="254.492188"/>
       <use xlink:href="#DejaVuSans-30" x="290.576172"/>
       <use xlink:href="#DejaVuSans-31" x="354.199219"/>
      </g>
     </g>
    </g>
    <g id="xtick_2">
     <g id="line2d_2">
      <g>
       <use xlink:href="#m9841166ac3" x="207.107351" y="368.3955" style="stroke: #000000; stroke-width: 0.8"/>
      </g>
     </g>
     <g id="text_2">
      <!-- 2020-04 -->
      <g transform="translate(186.215945 382.993937)scale(0.1 -0.1)">
       <defs>
        <path id="DejaVuSans-34" d="M 2419 4116 
L 825 1625 
L 2419 1625 
L 2419 4116 
z
M 2253 4666 
L 3047 4666 
L 3047 1625 
L 3713 1625 
L 3713 1100 
L 3047 1100 
L 3047 0 
L 2419 0 
L 2419 1100 
L 313 1100 
L 313 1709 
L 2253 4666 
z
" transform="scale(0.015625)"/>
       </defs>
       <use xlink:href="#DejaVuSans-32"/>
       <use xlink:href="#DejaVuSans-30" x="63.623047"/>
       <use xlink:href="#DejaVuSans-32" x="127.246094"/>
       <use xlink:href="#DejaVuSans-30" x="190.869141"/>
       <use xlink:href="#DejaVuSans-2d" x="254.492188"/>
       <use xlink:href="#DejaVuSans-30" x="290.576172"/>
       <use xlink:href="#DejaVuSans-34" x="354.199219"/>
      </g>
     </g>
    </g>
    <g id="xtick_3">
     <g id="line2d_3">
      <g>
       <use xlink:href="#m9841166ac3" x="330.893233" y="368.3955" style="stroke: #000000; stroke-width: 0.8"/>
      </g>
     </g>
     <g id="text_3">
      <!-- 2020-07 -->
      <g transform="translate(310.001826 382.993937)scale(0.1 -0.1)">
       <defs>
        <path id="DejaVuSans-37" d="M 525 4666 
L 3525 4666 
L 3525 4397 
L 1831 0 
L 1172 0 
L 2766 4134 
L 525 4134 
L 525 4666 
z
" transform="scale(0.015625)"/>
       </defs>
       <use xlink:href="#DejaVuSans-32"/>
       <use xlink:href="#DejaVuSans-30" x="63.623047"/>
       <use xlink:href="#DejaVuSans-32" x="127.246094"/>
       <use xlink:href="#DejaVuSans-30" x="190.869141"/>
       <use xlink:href="#DejaVuSans-2d" x="254.492188"/>
       <use xlink:href="#DejaVuSans-30" x="290.576172"/>
       <use xlink:href="#DejaVuSans-37" x="354.199219"/>
      </g>
     </g>
    </g>
    <g id="xtick_4">
     <g id="line2d_4">
      <g>
       <use xlink:href="#m9841166ac3" x="456.039398" y="368.3955" style="stroke: #000000; stroke-width: 0.8"/>
      </g>
     </g>
     <g id="text_4">
      <!-- 2020-10 -->
      <g transform="translate(435.147992 382.993937)scale(0.1 -0.1)">
       <use xlink:href="#DejaVuSans-32"/>
       <use xlink:href="#DejaVuSans-30" x="63.623047"/>
       <use xlink:href="#DejaVuSans-32" x="127.246094"/>
       <use xlink:href="#DejaVuSans-30" x="190.869141"/>
       <use xlink:href="#DejaVuSans-2d" x="254.492188"/>
       <use xlink:href="#DejaVuSans-31" x="290.576172"/>
       <use xlink:href="#DejaVuSans-30" x="354.199219"/>
      </g>
     </g>
    </g>
    <g id="xtick_5">
     <g id="line2d_5">
      <g>
       <use xlink:href="#m9841166ac3" x="581.185564" y="368.3955" style="stroke: #000000; stroke-width: 0.8"/>
      </g>
     </g>
     <g id="text_5">
      <!-- 2021-01 -->
      <g transform="translate(560.294157 382.993937)scale(0.1 -0.1)">
       <use xlink:href="#DejaVuSans-32"/>
       <use xlink:href="#DejaVuSans-30" x="63.623047"/>
       <use xlink:href="#DejaVuSans-32" x="127.246094"/>
       <use xlink:href="#DejaVuSans-31" x="190.869141"/>
       <use xlink:href="#DejaVuSans-2d" x="254.492188"/>
       <use xlink:href="#DejaVuSans-30" x="290.576172"/>
       <use xlink:href="#DejaVuSans-31" x="354.199219"/>
      </g>
     </g>
    </g>
    <g id="xtick_6">
     <g id="line2d_6">
      <g>
       <use xlink:href="#m9841166ac3" x="703.61116" y="368.3955" style="stroke: #000000; stroke-width: 0.8"/>
      </g>
     </g>
     <g id="text_6">
      <!-- 2021-04 -->
      <g transform="translate(682.719754 382.993937)scale(0.1 -0.1)">
       <use xlink:href="#DejaVuSans-32"/>
       <use xlink:href="#DejaVuSans-30" x="63.623047"/>
       <use xlink:href="#DejaVuSans-32" x="127.246094"/>
       <use xlink:href="#DejaVuSans-31" x="190.869141"/>
       <use xlink:href="#DejaVuSans-2d" x="254.492188"/>
       <use xlink:href="#DejaVuSans-30" x="290.576172"/>
       <use xlink:href="#DejaVuSans-34" x="354.199219"/>
      </g>
     </g>
    </g>
    <g id="xtick_7">
     <g id="line2d_7">
      <g>
       <use xlink:href="#m9841166ac3" x="827.397042" y="368.3955" style="stroke: #000000; stroke-width: 0.8"/>
      </g>
     </g>
     <g id="text_7">
      <!-- 2021-07 -->
      <g transform="translate(806.505635 382.993937)scale(0.1 -0.1)">
       <use xlink:href="#DejaVuSans-32"/>
       <use xlink:href="#DejaVuSans-30" x="63.623047"/>
       <use xlink:href="#DejaVuSans-32" x="127.246094"/>
       <use xlink:href="#DejaVuSans-31" x="190.869141"/>
       <use xlink:href="#DejaVuSans-2d" x="254.492188"/>
       <use xlink:href="#DejaVuSans-30" x="290.576172"/>
       <use xlink:href="#DejaVuSans-37" x="354.199219"/>
      </g>
     </g>
    </g>
    <g id="xtick_8">
     <g id="line2d_8">
      <g>
       <use xlink:href="#m9841166ac3" x="952.543207" y="368.3955" style="stroke: #000000; stroke-width: 0.8"/>
      </g>
     </g>
     <g id="text_8">
      <!-- 2021-10 -->
      <g transform="translate(931.651801 382.993937)scale(0.1 -0.1)">
       <use xlink:href="#DejaVuSans-32"/>
       <use xlink:href="#DejaVuSans-30" x="63.623047"/>
       <use xlink:href="#DejaVuSans-32" x="127.246094"/>
       <use xlink:href="#DejaVuSans-31" x="190.869141"/>
       <use xlink:href="#DejaVuSans-2d" x="254.492188"/>
       <use xlink:href="#DejaVuSans-31" x="290.576172"/>
       <use xlink:href="#DejaVuSans-30" x="354.199219"/>
      </g>
     </g>
    </g>
    <g id="xtick_9">
     <g id="line2d_9">
      <g>
       <use xlink:href="#m9841166ac3" x="1077.689373" y="368.3955" style="stroke: #000000; stroke-width: 0.8"/>
      </g>
     </g>
     <g id="text_9">
      <!-- 2022-01 -->
      <g transform="translate(1056.797967 382.993937)scale(0.1 -0.1)">
       <use xlink:href="#DejaVuSans-32"/>
       <use xlink:href="#DejaVuSans-30" x="63.623047"/>
       <use xlink:href="#DejaVuSans-32" x="127.246094"/>
       <use xlink:href="#DejaVuSans-32" x="190.869141"/>
       <use xlink:href="#DejaVuSans-2d" x="254.492188"/>
       <use xlink:href="#DejaVuSans-30" x="290.576172"/>
       <use xlink:href="#DejaVuSans-31" x="354.199219"/>
      </g>
     </g>
    </g>
    <g id="xtick_10">
     <g id="line2d_10">
      <g>
       <use xlink:href="#m9841166ac3" x="1200.11497" y="368.3955" style="stroke: #000000; stroke-width: 0.8"/>
      </g>
     </g>
     <g id="text_10">
      <!-- 2022-04 -->
      <g transform="translate(1179.223563 382.993937)scale(0.1 -0.1)">
       <use xlink:href="#DejaVuSans-32"/>
       <use xlink:href="#DejaVuSans-30" x="63.623047"/>
       <use xlink:href="#DejaVuSans-32" x="127.246094"/>
       <use xlink:href="#DejaVuSans-32" x="190.869141"/>
       <use xlink:href="#DejaVuSans-2d" x="254.492188"/>
       <use xlink:href="#DejaVuSans-30" x="290.576172"/>
       <use xlink:href="#DejaVuSans-34" x="354.199219"/>
      </g>
     </g>
    </g>
    <g id="xtick_11">
     <g id="line2d_11">
      <g>
       <use xlink:href="#m9841166ac3" x="1323.900851" y="368.3955" style="stroke: #000000; stroke-width: 0.8"/>
      </g>
     </g>
     <g id="text_11">
      <!-- 2022-07 -->
      <g transform="translate(1303.009444 382.993937)scale(0.1 -0.1)">
       <use xlink:href="#DejaVuSans-32"/>
       <use xlink:href="#DejaVuSans-30" x="63.623047"/>
       <use xlink:href="#DejaVuSans-32" x="127.246094"/>
       <use xlink:href="#DejaVuSans-32" x="190.869141"/>
       <use xlink:href="#DejaVuSans-2d" x="254.492188"/>
       <use xlink:href="#DejaVuSans-30" x="290.576172"/>
       <use xlink:href="#DejaVuSans-37" x="354.199219"/>
      </g>
     </g>
    </g>
   </g>
   <g id="matplotlib.axis_2">
    <g id="ytick_1">
     <g id="line2d_12">
      <defs>
       <path id="md498406242" d="M 0 0 
L -3.5 0 
" style="stroke: #000000; stroke-width: 0.8"/>
      </defs>
      <g>
       <use xlink:href="#md498406242" x="52.375" y="348.698075" style="stroke: #000000; stroke-width: 0.8"/>
      </g>
     </g>
     <g id="text_12">
      <!-- 0 -->
      <g transform="translate(39.0125 352.497294)scale(0.1 -0.1)">
       <use xlink:href="#DejaVuSans-30"/>
      </g>
     </g>
    </g>
    <g id="ytick_2">
     <g id="line2d_13">
      <g>
       <use xlink:href="#md498406242" x="52.375" y="278.470897" style="stroke: #000000; stroke-width: 0.8"/>
      </g>
     </g>
     <g id="text_13">
      <!-- 200000 -->
      <g transform="translate(7.2 282.270116)scale(0.1 -0.1)">
       <use xlink:href="#DejaVuSans-32"/>
       <use xlink:href="#DejaVuSans-30" x="63.623047"/>
       <use xlink:href="#DejaVuSans-30" x="127.246094"/>
       <use xlink:href="#DejaVuSans-30" x="190.869141"/>
       <use xlink:href="#DejaVuSans-30" x="254.492188"/>
       <use xlink:href="#DejaVuSans-30" x="318.115234"/>
      </g>
     </g>
    </g>
    <g id="ytick_3">
     <g id="line2d_14">
      <g>
       <use xlink:href="#md498406242" x="52.375" y="208.24372" style="stroke: #000000; stroke-width: 0.8"/>
      </g>
     </g>
     <g id="text_14">
      <!-- 400000 -->
      <g transform="translate(7.2 212.042938)scale(0.1 -0.1)">
       <use xlink:href="#DejaVuSans-34"/>
       <use xlink:href="#DejaVuSans-30" x="63.623047"/>
       <use xlink:href="#DejaVuSans-30" x="127.246094"/>
       <use xlink:href="#DejaVuSans-30" x="190.869141"/>
       <use xlink:href="#DejaVuSans-30" x="254.492188"/>
       <use xlink:href="#DejaVuSans-30" x="318.115234"/>
      </g>
     </g>
    </g>
    <g id="ytick_4">
     <g id="line2d_15">
      <g>
       <use xlink:href="#md498406242" x="52.375" y="138.016542" style="stroke: #000000; stroke-width: 0.8"/>
      </g>
     </g>
     <g id="text_15">
      <!-- 600000 -->
      <g transform="translate(7.2 141.815761)scale(0.1 -0.1)">
       <defs>
        <path id="DejaVuSans-36" d="M 2113 2584 
Q 1688 2584 1439 2293 
Q 1191 2003 1191 1497 
Q 1191 994 1439 701 
Q 1688 409 2113 409 
Q 2538 409 2786 701 
Q 3034 994 3034 1497 
Q 3034 2003 2786 2293 
Q 2538 2584 2113 2584 
z
M 3366 4563 
L 3366 3988 
Q 3128 4100 2886 4159 
Q 2644 4219 2406 4219 
Q 1781 4219 1451 3797 
Q 1122 3375 1075 2522 
Q 1259 2794 1537 2939 
Q 1816 3084 2150 3084 
Q 2853 3084 3261 2657 
Q 3669 2231 3669 1497 
Q 3669 778 3244 343 
Q 2819 -91 2113 -91 
Q 1303 -91 875 529 
Q 447 1150 447 2328 
Q 447 3434 972 4092 
Q 1497 4750 2381 4750 
Q 2619 4750 2861 4703 
Q 3103 4656 3366 4563 
z
" transform="scale(0.015625)"/>
       </defs>
       <use xlink:href="#DejaVuSans-36"/>
       <use xlink:href="#DejaVuSans-30" x="63.623047"/>
       <use xlink:href="#DejaVuSans-30" x="127.246094"/>
       <use xlink:href="#DejaVuSans-30" x="190.869141"/>
       <use xlink:href="#DejaVuSans-30" x="254.492188"/>
       <use xlink:href="#DejaVuSans-30" x="318.115234"/>
      </g>
     </g>
    </g>
    <g id="ytick_5">
     <g id="line2d_16">
      <g>
       <use xlink:href="#md498406242" x="52.375" y="67.789365" style="stroke: #000000; stroke-width: 0.8"/>
      </g>
     </g>
     <g id="text_16">
      <!-- 800000 -->
      <g transform="translate(7.2 71.588583)scale(0.1 -0.1)">
       <defs>
        <path id="DejaVuSans-38" d="M 2034 2216 
Q 1584 2216 1326 1975 
Q 1069 1734 1069 1313 
Q 1069 891 1326 650 
Q 1584 409 2034 409 
Q 2484 409 2743 651 
Q 3003 894 3003 1313 
Q 3003 1734 2745 1975 
Q 2488 2216 2034 2216 
z
M 1403 2484 
Q 997 2584 770 2862 
Q 544 3141 544 3541 
Q 544 4100 942 4425 
Q 1341 4750 2034 4750 
Q 2731 4750 3128 4425 
Q 3525 4100 3525 3541 
Q 3525 3141 3298 2862 
Q 3072 2584 2669 2484 
Q 3125 2378 3379 2068 
Q 3634 1759 3634 1313 
Q 3634 634 3220 271 
Q 2806 -91 2034 -91 
Q 1263 -91 848 271 
Q 434 634 434 1313 
Q 434 1759 690 2068 
Q 947 2378 1403 2484 
z
M 1172 3481 
Q 1172 3119 1398 2916 
Q 1625 2713 2034 2713 
Q 2441 2713 2670 2916 
Q 2900 3119 2900 3481 
Q 2900 3844 2670 4047 
Q 2441 4250 2034 4250 
Q 1625 4250 1398 4047 
Q 1172 3844 1172 3481 
z
" transform="scale(0.015625)"/>
       </defs>
       <use xlink:href="#DejaVuSans-38"/>
       <use xlink:href="#DejaVuSans-30" x="63.623047"/>
       <use xlink:href="#DejaVuSans-30" x="127.246094"/>
       <use xlink:href="#DejaVuSans-30" x="190.869141"/>
       <use xlink:href="#DejaVuSans-30" x="254.492188"/>
       <use xlink:href="#DejaVuSans-30" x="318.115234"/>
      </g>
     </g>
    </g>
   </g>
   <g id="line2d_17">
    <path d="M 113.247727 348.698075 
L 177.181094 348.607482 
L 181.261948 348.52953 
L 183.982517 348.542873 
L 193.504507 348.198408 
L 194.864792 347.873257 
L 197.585361 347.747199 
L 200.305929 347.558639 
L 201.666214 347.696635 
L 203.026498 347.681888 
L 204.386783 347.187488 
L 209.82792 346.959601 
L 211.188205 347.260524 
L 212.548489 347.426963 
L 213.908773 346.817391 
L 215.269058 346.772446 
L 219.349911 347.174496 
L 220.710196 347.424154 
L 222.07048 347.456458 
L 223.430764 347.220144 
L 224.791049 347.167473 
L 226.151333 346.906579 
L 227.511618 346.823711 
L 230.232186 347.036851 
L 231.592471 347.340232 
L 232.952755 346.985585 
L 234.31304 347.022805 
L 235.673324 346.764721 
L 238.393893 346.949418 
L 239.754177 347.369728 
L 241.114462 347.477878 
L 242.474746 347.045278 
L 243.83503 347.039309 
L 245.195315 346.78614 
L 247.915884 347.035446 
L 249.276168 347.56531 
L 250.636453 347.653094 
L 253.357021 347.402734 
L 256.07759 347.373941 
L 258.798159 347.943133 
L 260.158443 347.882737 
L 261.518728 347.438199 
L 264.239297 347.539677 
L 265.599581 347.778801 
L 266.959865 347.812861 
L 269.680434 348.056901 
L 272.401003 347.622546 
L 279.202425 348.222286 
L 283.283278 348.06287 
L 286.003847 348.168211 
L 287.364132 348.309367 
L 288.724416 348.322359 
L 290.0847 348.191035 
L 294.165554 348.263369 
L 298.246407 348.445959 
L 300.966976 348.291459 
L 305.047829 348.327978 
L 307.768398 348.414708 
L 310.488966 348.317795 
L 318.650673 348.384862 
L 325.452095 348.475455 
L 326.812379 348.555162 
L 328.172664 348.480371 
L 332.253517 348.695968 
L 333.613801 348.521805 
L 336.33437 348.515835 
L 337.694655 348.574124 
L 340.415223 348.472646 
L 347.216646 348.510919 
L 348.57693 348.261262 
L 349.937214 348.509164 
L 355.378352 348.44315 
L 359.459205 348.500385 
L 362.179774 348.428402 
L 385.304609 348.410846 
L 386.664893 348.294269 
L 389.385462 348.294269 
L 390.745747 348.185768 
L 392.106031 348.331138 
L 393.466315 348.307261 
L 394.8266 348.445608 
L 396.186884 348.306558 
L 397.547169 348.407334 
L 398.907453 348.278116 
L 400.267737 348.32552 
L 401.628022 348.230362 
L 404.348591 348.355717 
L 408.429444 348.155921 
L 411.150013 348.307963 
L 412.510297 348.082182 
L 415.230866 348.232117 
L 420.672004 348.05655 
L 422.032288 347.647476 
L 423.392572 347.661873 
L 424.752857 347.826556 
L 427.473426 347.667842 
L 428.83371 347.454 
L 431.554279 347.525632 
L 432.914563 347.775641 
L 434.274848 347.606042 
L 435.635132 347.290371 
L 436.995416 347.501404 
L 438.355701 347.177305 
L 439.715985 347.142543 
L 441.07627 347.328294 
L 443.796838 346.964517 
L 445.157123 346.525597 
L 447.877692 346.283313 
L 449.237976 346.573703 
L 450.598261 346.694845 
L 451.958545 347.276326 
L 453.318829 346.184995 
L 457.399683 346.244337 
L 458.759967 344.17404 
L 460.120251 340.632835 
L 461.480536 344.274816 
L 462.84082 343.588345 
L 464.201105 343.720372 
L 465.561389 342.534235 
L 466.921673 343.820095 
L 468.281958 343.368885 
L 469.642242 344.171582 
L 471.002527 343.788142 
L 472.362811 342.641332 
L 473.723095 341.758927 
L 475.08338 342.027195 
L 476.443664 343.199989 
L 479.164233 342.730871 
L 480.524518 342.089346 
L 481.884802 341.19395 
L 483.245086 339.320991 
L 484.605371 341.234681 
L 485.965655 341.480125 
L 487.32594 340.607202 
L 488.686224 341.74418 
L 490.046508 341.357579 
L 492.767077 340.020102 
L 494.127362 340.593858 
L 495.487646 340.124039 
L 496.84793 341.000825 
L 498.208215 340.527845 
L 499.568499 342.035974 
L 500.928784 341.658502 
L 502.289068 339.848748 
L 505.009637 340.509937 
L 506.369921 339.92038 
L 507.730206 341.46608 
L 509.09049 341.192545 
L 510.450775 341.523315 
L 511.811059 340.621598 
L 513.171343 336.929053 
L 514.531628 339.101531 
L 515.891912 339.254977 
L 517.252197 339.923189 
L 518.612481 341.188332 
L 519.972765 341.650426 
L 521.33305 341.804575 
L 522.693334 340.645827 
L 524.053619 341.575634 
L 525.413903 341.702746 
L 526.774187 342.138856 
L 528.134472 343.264949 
L 529.494756 344.722865 
L 530.855041 342.290898 
L 532.215325 342.530724 
L 533.575609 343.506882 
L 534.935894 343.109396 
L 536.296178 344.416324 
L 537.656463 344.352768 
L 539.016747 343.962656 
L 540.377031 343.006864 
L 541.737316 343.457372 
L 543.0976 342.946118 
L 544.457885 343.214737 
L 545.818169 342.607974 
L 548.538738 344.338372 
L 551.259307 341.296833 
L 552.619591 341.057709 
L 553.979876 341.132852 
L 555.34016 342.19258 
L 556.700444 341.544734 
L 558.060729 342.16765 
L 559.421013 339.82768 
L 560.781298 336.234506 
L 562.141582 338.631711 
L 563.501866 339.142965 
L 564.862151 336.019962 
L 566.222435 336.953984 
L 567.58272 335.702887 
L 568.943004 334.877717 
L 570.303288 334.938464 
L 571.663573 337.156589 
L 573.023857 336.465554 
L 574.384142 337.308631 
L 575.744426 334.144546 
L 577.104711 329.987097 
L 578.464995 331.05771 
L 579.825279 329.032007 
L 581.185564 329.917923 
L 582.545848 328.375383 
L 583.906133 329.344869 
L 585.266417 328.009499 
L 586.626701 327.24613 
L 587.986986 326.73312 
L 589.34727 330.158802 
L 590.707555 324.752012 
L 592.067839 327.603586 
L 593.428123 329.378578 
L 594.788408 332.441185 
L 596.148692 332.666615 
L 597.508977 331.961885 
L 598.869261 331.562292 
L 600.229545 329.074495 
L 601.58983 334.148057 
L 602.950114 335.118245 
L 604.310399 335.491854 
L 605.670683 336.955037 
L 607.030967 335.007638 
L 608.391252 335.361583 
L 609.751536 334.537818 
L 611.111821 336.885161 
L 612.472105 338.129236 
L 613.83239 340.891973 
L 615.192674 341.605832 
L 616.552958 339.794673 
L 617.913243 338.582201 
L 619.273527 338.454388 
L 620.633812 340.497296 
L 624.714665 342.758962 
L 626.074949 341.938358 
L 627.435234 341.418326 
L 628.795518 341.960128 
L 630.155802 342.252273 
L 631.516087 343.109045 
L 634.236656 344.329242 
L 636.957224 343.941588 
L 638.317509 343.36397 
L 639.677793 344.006899 
L 641.038078 344.837687 
L 642.398362 345.263615 
L 643.758647 344.962691 
L 645.118931 344.217581 
L 646.479215 344.450735 
L 647.8395 344.450735 
L 649.199784 345.026598 
L 650.560069 345.2436 
L 651.920353 344.956371 
L 653.280637 345.703939 
L 654.640922 345.205677 
L 656.001206 345.179693 
L 660.082059 346.572298 
L 661.442344 346.779468 
L 662.802628 346.447294 
L 665.523197 346.365479 
L 666.883481 346.58213 
L 668.243766 346.549825 
L 669.60405 346.850749 
L 670.964335 347.004898 
L 672.324619 346.637609 
L 673.684904 346.583534 
L 675.045188 346.298061 
L 676.405472 346.351083 
L 679.126041 347.049492 
L 684.567179 346.474331 
L 685.927463 346.987341 
L 687.287748 346.71802 
L 688.648032 346.817391 
L 692.728885 346.722233 
L 694.08917 346.493995 
L 695.449454 346.508743 
L 696.809738 347.325485 
L 698.170023 347.312141 
L 699.530307 347.018241 
L 700.890592 347.269303 
L 702.250876 347.253151 
L 703.61116 347.095139 
L 704.971445 347.496137 
L 706.331729 347.495785 
L 707.692014 347.853593 
L 709.052298 347.704009 
L 710.412583 347.853944 
L 713.133151 347.601126 
L 714.493436 350.378962 
L 715.85372 347.745443 
L 717.214005 348.09061 
L 718.574289 347.403788 
L 719.934573 347.818831 
L 724.015427 347.712436 
L 726.735995 348.036535 
L 728.09628 347.625706 
L 729.456564 347.80935 
L 730.816849 347.847624 
L 732.177133 347.726833 
L 733.537417 347.75071 
L 736.257986 348.089556 
L 738.978555 347.75071 
L 740.33884 347.930141 
L 741.699124 347.834632 
L 743.059408 347.856402 
L 745.779977 348.110273 
L 748.500546 348.001772 
L 752.581399 347.823746 
L 755.301968 348.076213 
L 756.662252 347.863425 
L 760.743106 347.763 
L 762.10339 347.926278 
L 766.184243 347.998963 
L 767.544528 349.527458 
L 768.904812 347.944537 
L 770.265096 347.750359 
L 772.985665 347.811808 
L 774.34595 347.962445 
L 779.787087 347.509831 
L 781.147372 347.282997 
L 782.507656 347.560043 
L 786.588509 347.608851 
L 789.309078 346.87884 
L 790.669363 346.540696 
L 793.389931 346.863039 
L 796.1105 346.598633 
L 797.470785 346.128111 
L 798.831069 346.156553 
L 800.191353 345.900224 
L 802.911922 346.126004 
L 804.272207 346.02277 
L 805.632491 346.031198 
L 806.992776 345.601407 
L 808.35306 344.901594 
L 812.433913 345.510814 
L 813.794198 345.019926 
L 815.154482 344.664226 
L 816.514766 343.096053 
L 817.875051 342.825678 
L 819.235335 343.31481 
L 820.59562 342.386056 
L 821.955904 343.551125 
L 823.316188 340.73642 
L 824.676473 341.587573 
L 826.036757 339.692142 
L 827.397042 338.994786 
L 828.757326 339.264458 
L 830.11761 340.083307 
L 831.477895 340.280294 
L 832.838179 339.164033 
L 834.198464 338.712121 
L 835.558748 337.413972 
L 836.919033 337.425559 
L 838.279317 336.154447 
L 839.639601 337.458917 
L 840.999886 337.622547 
L 842.36017 336.587398 
L 843.720455 335.916728 
L 846.441023 331.64516 
L 847.801308 330.431986 
L 849.161592 329.600847 
L 850.521877 331.745585 
L 851.882161 334.64983 
L 853.242445 332.325662 
L 854.60273 333.188754 
L 858.683583 337.530549 
L 860.043867 338.486692 
L 861.404152 340.027125 
L 862.764436 340.49238 
L 864.124721 339.662295 
L 865.485005 337.850785 
L 866.845289 338.398557 
L 868.205574 339.619456 
L 870.926143 340.845974 
L 872.286427 341.084395 
L 873.646712 338.46457 
L 875.006996 338.153464 
L 876.36728 337.590593 
L 877.727565 338.733189 
L 879.087849 339.123301 
L 880.448134 339.914411 
L 881.808418 340.466045 
L 883.168702 338.376084 
L 884.528987 337.155536 
L 885.889271 337.280189 
L 887.249556 338.417167 
L 888.60984 339.387356 
L 889.970124 338.759876 
L 891.330409 339.308701 
L 892.690693 336.825468 
L 894.050978 335.902332 
L 895.411262 335.666017 
L 896.771546 337.484199 
L 898.131831 337.437498 
L 899.492115 337.539679 
L 900.8524 337.891517 
L 902.212684 336.19237 
L 903.572969 335.313828 
L 904.933253 335.411093 
L 906.293537 337.395362 
L 907.653822 337.10427 
L 909.014106 339.455476 
L 910.374391 337.437498 
L 911.734675 336.207469 
L 913.094959 335.36088 
L 914.455244 333.82747 
L 915.815528 335.785755 
L 917.175813 335.851066 
L 918.536097 334.344342 
L 919.896381 335.516082 
L 921.256666 335.144581 
L 922.61695 335.509411 
L 923.977235 335.702887 
L 925.337519 338.535149 
L 926.697803 338.627849 
L 928.058088 338.040749 
L 929.418372 339.304488 
L 930.778657 338.187173 
L 932.138941 339.360318 
L 933.499225 337.267899 
L 934.85951 338.332895 
L 936.219794 338.403824 
L 937.580079 336.090892 
L 938.940363 337.751765 
L 940.300648 336.817041 
L 941.660932 336.113013 
L 943.021216 336.158661 
L 944.381501 338.159433 
L 945.741785 337.077233 
L 947.10207 335.502739 
L 948.462354 336.47995 
L 951.182923 336.116876 
L 952.543207 336.513659 
L 953.903492 338.323414 
L 955.263776 338.2574 
L 956.62406 336.595474 
L 957.984345 337.045981 
L 959.344629 335.031164 
L 960.704914 334.691966 
L 962.065198 336.367938 
L 963.425482 334.817322 
L 964.785767 336.867604 
L 966.146051 334.775888 
L 967.506336 335.408284 
L 968.86662 334.066242 
L 970.226905 332.986499 
L 971.587189 333.107641 
L 972.947473 333.616086 
L 974.307758 332.947172 
L 975.668042 331.541575 
L 977.028327 333.390657 
L 978.388611 331.559132 
L 979.748895 330.540838 
L 981.10918 331.491012 
L 982.469464 332.840427 
L 983.829749 335.040644 
L 985.190033 335.969048 
L 986.550317 333.32991 
L 987.910602 333.21228 
L 989.270886 334.841902 
L 990.631171 333.509341 
L 991.991455 334.270252 
L 993.351739 335.418818 
L 994.712024 334.716195 
L 996.072308 336.851803 
L 997.432593 334.09012 
L 998.792877 335.753099 
L 1000.153162 336.775607 
L 1001.513446 337.963851 
L 1002.87373 338.17067 
L 1004.234015 337.411514 
L 1005.594299 337.1134 
L 1006.954584 334.788529 
L 1008.314868 333.442976 
L 1009.675152 334.945135 
L 1011.035437 335.357369 
L 1012.395721 335.911461 
L 1013.756006 334.560642 
L 1015.11629 335.658644 
L 1016.476574 335.278715 
L 1017.836859 331.809843 
L 1019.197143 332.970698 
L 1020.557428 334.53852 
L 1021.917712 334.725324 
L 1023.277996 332.818657 
L 1024.638281 333.646635 
L 1025.998565 333.558149 
L 1027.35885 332.136048 
L 1028.719134 331.170776 
L 1030.079418 334.638243 
L 1031.439703 335.79032 
L 1032.799987 333.776204 
L 1034.160272 334.508674 
L 1035.520556 331.840392 
L 1036.880841 329.915114 
L 1038.241125 330.718513 
L 1039.601409 334.014274 
L 1040.961694 333.378718 
L 1042.321978 330.672163 
L 1043.682263 332.765986 
L 1045.042547 330.771534 
L 1046.402831 330.971682 
L 1047.763116 328.120458 
L 1049.1234 330.231838 
L 1050.483685 331.719601 
L 1053.204253 327.784421 
L 1054.564538 321.27682 
L 1055.924822 317.795659 
L 1057.285107 316.06491 
L 1058.645391 317.30758 
L 1060.005675 319.804156 
L 1061.36596 316.341254 
L 1062.726244 317.250345 
L 1065.446813 305.42479 
L 1066.807098 305.909358 
L 1068.167382 305.737301 
L 1069.527666 306.784388 
L 1070.887951 310.790147 
L 1072.248235 300.120532 
L 1073.60852 284.427566 
L 1074.968804 281.848824 
L 1076.329088 281.641654 
L 1079.049657 301.051042 
L 1080.409942 282.499479 
L 1081.770226 270.104031 
L 1083.13051 280.186547 
L 1084.490795 284.740077 
L 1085.851079 285.40864 
L 1087.211364 298.822733 
L 1088.571648 298.742323 
L 1089.931932 298.112034 
L 1091.292217 307.490523 
L 1092.652501 302.359023 
L 1094.012786 311.302454 
L 1095.37307 313.379423 
L 1096.733354 320.134224 
L 1098.093639 323.845028 
L 1099.453923 317.111295 
L 1100.814208 315.512222 
L 1102.174492 310.691477 
L 1103.534777 310.721324 
L 1104.895061 314.81592 
L 1106.255345 321.452037 
L 1107.61563 322.271237 
L 1108.975914 315.167758 
L 1110.336199 315.23658 
L 1111.696483 312.725959 
L 1113.056767 314.572231 
L 1114.417052 317.327595 
L 1115.777336 323.128711 
L 1117.137621 326.606009 
L 1118.497905 50.8755 
L 1119.858189 308.982148 
L 1121.218474 317.939624 
L 1122.578758 315.092966 
L 1123.939043 319.687228 
L 1125.299327 327.418889 
L 1126.659611 329.834353 
L 1128.019896 326.243988 
L 1129.38018 325.26151 
L 1130.740465 324.827857 
L 1132.100749 290.945351 
L 1133.461034 328.030216 
L 1134.821318 332.561274 
L 1136.181602 334.230223 
L 1137.541887 334.042014 
L 1138.902171 332.426087 
L 1140.262456 329.638068 
L 1141.62274 330.098758 
L 1142.983024 331.963289 
L 1145.703593 337.809351 
L 1147.063878 335.094719 
L 1148.424162 334.078532 
L 1149.784446 334.435988 
L 1151.144731 335.017469 
L 1152.505015 337.461726 
L 1153.8653 348.698075 
L 1155.225584 348.698075 
L 1156.585868 319.71883 
L 1157.946153 313.700361 
L 1159.306437 332.790566 
L 1160.666722 332.582693 
L 1162.027006 332.935234 
L 1163.387291 348.698075 
L 1164.747575 348.698075 
L 1166.107859 304.136122 
L 1167.468144 326.524195 
L 1168.828428 324.59084 
L 1170.188713 318.940713 
L 1171.548997 323.046194 
L 1172.909281 348.698075 
L 1174.269566 348.698075 
L 1175.62985 288.418928 
L 1176.990135 306.322294 
L 1178.350419 315.711316 
L 1179.710703 316.672375 
L 1181.070988 316.009782 
L 1182.431272 348.698075 
L 1183.791557 348.698075 
L 1185.151841 269.197047 
L 1186.512125 315.104904 
L 1187.87241 312.50369 
L 1189.232694 313.027233 
L 1190.592979 321.230119 
L 1191.953263 348.697724 
L 1193.313547 348.698075 
L 1194.673832 273.064107 
L 1196.034116 320.093843 
L 1197.394401 317.465942 
L 1198.754685 322.345326 
L 1200.11497 324.197217 
L 1201.475254 348.698075 
L 1202.835538 348.698075 
L 1204.195823 298.341677 
L 1205.556107 330.775397 
L 1206.916392 330.602989 
L 1208.276676 331.609696 
L 1209.63696 333.955986 
L 1210.997245 348.698075 
L 1212.357529 348.698075 
L 1213.717814 316.621109 
L 1215.078098 335.150199 
L 1216.438382 335.54312 
L 1217.798667 336.976457 
L 1219.158951 348.698075 
L 1223.239804 348.698075 
L 1224.600089 307.818132 
L 1225.960373 339.104691 
L 1227.320658 341.08896 
L 1228.680942 340.294691 
L 1230.041227 348.698075 
L 1231.401511 348.698075 
L 1232.761795 332.841129 
L 1234.12208 342.7551 
L 1235.482364 342.283524 
L 1236.842649 343.542698 
L 1238.202933 344.271305 
L 1239.563217 348.689296 
L 1242.283786 348.660503 
L 1243.644071 336.215194 
L 1245.004355 342.330225 
L 1246.364639 344.238649 
L 1247.724924 344.63157 
L 1249.085208 348.683678 
L 1250.445493 348.698075 
L 1251.805777 339.479704 
L 1253.166061 344.902647 
L 1254.526346 345.337704 
L 1255.88663 343.126602 
L 1257.246915 346.385143 
L 1258.607199 348.698075 
L 1259.967483 348.681571 
L 1261.327768 340.287668 
L 1262.688052 345.679711 
L 1264.048337 345.680764 
L 1265.408621 343.848186 
L 1266.768906 346.400944 
L 1268.12919 348.679113 
L 1269.489474 348.698075 
L 1270.849759 339.54958 
L 1272.210043 346.402348 
L 1273.570328 346.332472 
L 1274.930612 350.028529 
L 1276.290896 346.976456 
L 1277.651181 348.692105 
L 1279.011465 348.696319 
L 1280.37175 342.401857 
L 1281.732034 346.661135 
L 1283.092318 346.624266 
L 1284.452603 348.556918 
L 1285.812887 348.689999 
L 1288.533456 348.698075 
L 1289.89374 336.892535 
L 1291.254025 345.103497 
L 1292.614309 343.615734 
L 1293.974594 344.970767 
L 1295.334878 345.325415 
L 1296.695163 348.698075 
L 1298.055447 348.697373 
L 1299.415731 338.773921 
L 1300.776016 344.474612 
L 1302.1363 339.337143 
L 1303.496585 344.106622 
L 1304.856869 344.299747 
L 1306.217153 348.697724 
L 1307.577438 348.698075 
L 1308.937722 335.663208 
L 1310.298007 342.928912 
L 1311.658291 336.968029 
L 1313.018575 342.179237 
L 1313.018575 342.179237 
" clip-path="url(#p9f46f67c98)" style="fill: none; stroke: #0000ff; stroke-width: 1.5; stroke-linecap: square"/>
   </g>
   <g id="line2d_18">
    <path d="M 1073.60852 302.802955 
L 1074.968804 299.088758 
L 1076.329088 296.978745 
L 1077.689373 296.550566 
L 1079.049657 296.772449 
L 1080.409942 293.584949 
L 1081.770226 286.686756 
L 1083.13051 284.335032 
L 1084.490795 284.244331 
L 1085.851079 286.062527 
L 1087.211364 289.615583 
L 1088.571648 288.947332 
L 1089.931932 288.674777 
L 1091.292217 290.351287 
L 1092.652501 291.760763 
L 1094.012786 294.999177 
L 1095.37307 300.751048 
L 1096.733354 305.200796 
L 1099.453923 307.5881 
L 1100.814208 307.169532 
L 1102.174492 308.086816 
L 1103.534777 308.669821 
L 1104.895061 312.57786 
L 1106.255345 315.417288 
L 1107.61563 314.312931 
L 1108.975914 313.756743 
L 1110.336199 312.064836 
L 1111.696483 312.450367 
L 1113.056767 313.313198 
L 1114.417052 317.041454 
L 1115.777336 319.277873 
L 1117.137621 317.934313 
L 1118.497905 272.121483 
L 1119.858189 276.48686 
L 1121.218474 283.912917 
L 1122.578758 289.879405 
L 1123.939043 298.049726 
L 1125.299327 304.370371 
L 1126.659611 280.373206 
L 1128.019896 312.106446 
L 1129.38018 313.599032 
L 1130.740465 315.573399 
L 1132.100749 312.416753 
L 1133.461034 318.428414 
L 1134.821318 322.18734 
L 1136.181602 299.996637 
L 1137.541887 325.892763 
L 1138.902171 326.337622 
L 1140.262456 323.747183 
L 1141.62274 329.19296 
L 1142.983024 332.93322 
L 1144.343309 334.581169 
L 1145.703593 314.662575 
L 1147.063878 334.957402 
L 1148.424162 333.986057 
L 1149.784446 331.448198 
L 1151.144731 335.917213 
L 1152.505015 339.219967 
L 1153.8653 342.204198 
L 1155.225584 325.776414 
L 1156.585868 338.860608 
L 1157.946153 333.939363 
L 1159.306437 331.593952 
L 1160.666722 335.254239 
L 1162.027006 338.492672 
L 1163.387291 341.384779 
L 1164.747575 325.08602 
L 1166.107859 332.874977 
L 1167.468144 333.051295 
L 1168.828428 329.783704 
L 1170.188713 330.928339 
L 1172.909281 337.597073 
L 1174.269566 320.454922 
L 1175.62985 326.718015 
L 1176.990135 324.137105 
L 1178.350419 320.626412 
L 1179.710703 322.861389 
L 1181.070988 327.978235 
L 1182.431272 332.316013 
L 1183.791557 313.325813 
L 1185.151841 317.412686 
L 1186.512125 318.648454 
L 1187.87241 315.940444 
L 1189.232694 317.835441 
L 1190.592979 326.805147 
L 1191.953263 331.21215 
L 1193.313547 308.273125 
L 1194.673832 316.416115 
L 1196.034116 318.165126 
L 1197.394401 316.689269 
L 1198.754685 320.439967 
L 1200.11497 330.763361 
L 1201.475254 334.390927 
L 1202.835538 307.789901 
L 1204.195823 322.550041 
L 1205.556107 324.64438 
L 1206.916392 324.970352 
L 1208.276676 328.627055 
L 1209.63696 340.026026 
L 1210.997245 341.992766 
L 1212.357529 313.863656 
L 1213.717814 331.210227 
L 1215.078098 332.452986 
L 1216.438382 332.495215 
L 1217.798667 335.613433 
L 1219.158951 348.084167 
L 1220.519236 348.608459 
L 1221.87952 320.888025 
L 1223.239804 341.598027 
L 1224.600089 336.400114 
L 1225.960373 336.587979 
L 1227.320658 340.451966 
L 1228.680942 349.079162 
L 1230.041227 349.369326 
L 1231.401511 325.850046 
L 1232.761795 336.662507 
L 1234.12208 341.100325 
L 1235.482364 341.260747 
L 1236.842649 344.189431 
L 1238.202933 352.302428 
L 1239.563217 351.989853 
L 1240.923502 330.176269 
L 1242.283786 342.371441 
L 1243.644071 344.15843 
L 1245.004355 343.934413 
L 1246.364639 346.200319 
L 1247.724924 353.188013 
L 1249.085208 352.677545 
L 1250.445493 334.065054 
L 1251.805777 341.452324 
L 1253.166061 345.003957 
L 1254.526346 345.313559 
L 1255.88663 346.849098 
L 1257.246915 353.2755 
L 1258.607199 352.714619 
L 1259.967483 336.02003 
L 1261.327768 342.71681 
L 1262.688052 345.763874 
L 1264.048337 345.753843 
L 1265.408621 347.348258 
L 1266.768906 352.896437 
L 1268.12919 352.361517 
L 1269.489474 337.433792 
L 1270.849759 343.34445 
L 1272.210043 346.01034 
L 1273.570328 345.89465 
L 1274.930612 348.454495 
L 1276.290896 353.237461 
L 1277.651181 352.620791 
L 1279.011465 339.015556 
L 1280.37175 344.923941 
L 1281.732034 347.024198 
L 1283.092318 347.163043 
L 1284.452603 348.679297 
L 1285.812887 353.091184 
L 1287.173172 352.476794 
L 1288.533456 340.320026 
L 1289.89374 344.645203 
L 1291.254025 346.243422 
L 1292.614309 346.155874 
L 1293.974594 347.048114 
L 1295.334878 350.478717 
L 1296.695163 350.286528 
L 1298.055447 339.179845 
L 1299.415731 344.028964 
L 1300.776016 345.246666 
L 1302.1363 344.675921 
L 1303.496585 345.53543 
L 1304.856869 348.786985 
L 1306.217153 348.864099 
L 1307.577438 338.750004 
L 1308.937722 342.917542 
L 1310.298007 343.396543 
L 1311.658291 343.122724 
L 1313.018575 343.787928 
L 1313.018575 343.787928 
" clip-path="url(#p9f46f67c98)" style="fill: none; stroke: #ffa500; stroke-width: 1.5; stroke-linecap: square"/>
   </g>
   <g id="line2d_19">
    <path d="M 1313.018575 343.787928 
L 1314.37886 347.125214 
L 1315.739144 347.203079 
L 1317.099429 337.4565 
L 1318.459713 342.103071 
L 1319.819997 341.940808 
L 1321.180282 343.122294 
L 1322.540566 343.970928 
L 1323.900851 347.10345 
L 1325.261135 347.176538 
L 1326.62142 338.027973 
L 1327.981704 342.389448 
L 1329.341988 342.23714 
L 1330.702273 343.346135 
" clip-path="url(#p9f46f67c98)" style="fill: none; stroke: #ff0000; stroke-width: 1.5; stroke-linecap: square"/>
   </g>
   <g id="patch_3">
    <path d="M 52.375 368.3955 
L 52.375 35.7555 
" style="fill: none; stroke: #000000; stroke-width: 0.8; stroke-linejoin: miter; stroke-linecap: square"/>
   </g>
   <g id="patch_4">
    <path d="M 1391.575 368.3955 
L 1391.575 35.7555 
" style="fill: none; stroke: #000000; stroke-width: 0.8; stroke-linejoin: miter; stroke-linecap: square"/>
   </g>
   <g id="patch_5">
    <path d="M 52.375 368.3955 
L 1391.575 368.3955 
" style="fill: none; stroke: #000000; stroke-width: 0.8; stroke-linejoin: miter; stroke-linecap: square"/>
   </g>
   <g id="patch_6">
    <path d="M 52.375 35.7555 
L 1391.575 35.7555 
" style="fill: none; stroke: #000000; stroke-width: 0.8; stroke-linejoin: miter; stroke-linecap: square"/>
   </g>
   <g id="text_17">
    <!-- Daily Confirmed Cases Forecasting - United Kingdom -->
    <g transform="translate(563.31625 16.318125)scale(0.12 -0.12)">
     <defs>
      <path id="DejaVuSans-44" d="M 1259 4147 
L 1259 519 
L 2022 519 
Q 2988 519 3436 956 
Q 3884 1394 3884 2338 
Q 3884 3275 3436 3711 
Q 2988 4147 2022 4147 
L 1259 4147 
z
M 628 4666 
L 1925 4666 
Q 3281 4666 3915 4102 
Q 4550 3538 4550 2338 
Q 4550 1131 3912 565 
Q 3275 0 1925 0 
L 628 0 
L 628 4666 
z
" transform="scale(0.015625)"/>
      <path id="DejaVuSans-61" d="M 2194 1759 
Q 1497 1759 1228 1600 
Q 959 1441 959 1056 
Q 959 750 1161 570 
Q 1363 391 1709 391 
Q 2188 391 2477 730 
Q 2766 1069 2766 1631 
L 2766 1759 
L 2194 1759 
z
M 3341 1997 
L 3341 0 
L 2766 0 
L 2766 531 
Q 2569 213 2275 61 
Q 1981 -91 1556 -91 
Q 1019 -91 701 211 
Q 384 513 384 1019 
Q 384 1609 779 1909 
Q 1175 2209 1959 2209 
L 2766 2209 
L 2766 2266 
Q 2766 2663 2505 2880 
Q 2244 3097 1772 3097 
Q 1472 3097 1187 3025 
Q 903 2953 641 2809 
L 641 3341 
Q 956 3463 1253 3523 
Q 1550 3584 1831 3584 
Q 2591 3584 2966 3190 
Q 3341 2797 3341 1997 
z
" transform="scale(0.015625)"/>
      <path id="DejaVuSans-69" d="M 603 3500 
L 1178 3500 
L 1178 0 
L 603 0 
L 603 3500 
z
M 603 4863 
L 1178 4863 
L 1178 4134 
L 603 4134 
L 603 4863 
z
" transform="scale(0.015625)"/>
      <path id="DejaVuSans-6c" d="M 603 4863 
L 1178 4863 
L 1178 0 
L 603 0 
L 603 4863 
z
" transform="scale(0.015625)"/>
      <path id="DejaVuSans-79" d="M 2059 -325 
Q 1816 -950 1584 -1140 
Q 1353 -1331 966 -1331 
L 506 -1331 
L 506 -850 
L 844 -850 
Q 1081 -850 1212 -737 
Q 1344 -625 1503 -206 
L 1606 56 
L 191 3500 
L 800 3500 
L 1894 763 
L 2988 3500 
L 3597 3500 
L 2059 -325 
z
" transform="scale(0.015625)"/>
      <path id="DejaVuSans-20" transform="scale(0.015625)"/>
      <path id="DejaVuSans-43" d="M 4122 4306 
L 4122 3641 
Q 3803 3938 3442 4084 
Q 3081 4231 2675 4231 
Q 1875 4231 1450 3742 
Q 1025 3253 1025 2328 
Q 1025 1406 1450 917 
Q 1875 428 2675 428 
Q 3081 428 3442 575 
Q 3803 722 4122 1019 
L 4122 359 
Q 3791 134 3420 21 
Q 3050 -91 2638 -91 
Q 1578 -91 968 557 
Q 359 1206 359 2328 
Q 359 3453 968 4101 
Q 1578 4750 2638 4750 
Q 3056 4750 3426 4639 
Q 3797 4528 4122 4306 
z
" transform="scale(0.015625)"/>
      <path id="DejaVuSans-6f" d="M 1959 3097 
Q 1497 3097 1228 2736 
Q 959 2375 959 1747 
Q 959 1119 1226 758 
Q 1494 397 1959 397 
Q 2419 397 2687 759 
Q 2956 1122 2956 1747 
Q 2956 2369 2687 2733 
Q 2419 3097 1959 3097 
z
M 1959 3584 
Q 2709 3584 3137 3096 
Q 3566 2609 3566 1747 
Q 3566 888 3137 398 
Q 2709 -91 1959 -91 
Q 1206 -91 779 398 
Q 353 888 353 1747 
Q 353 2609 779 3096 
Q 1206 3584 1959 3584 
z
" transform="scale(0.015625)"/>
      <path id="DejaVuSans-6e" d="M 3513 2113 
L 3513 0 
L 2938 0 
L 2938 2094 
Q 2938 2591 2744 2837 
Q 2550 3084 2163 3084 
Q 1697 3084 1428 2787 
Q 1159 2491 1159 1978 
L 1159 0 
L 581 0 
L 581 3500 
L 1159 3500 
L 1159 2956 
Q 1366 3272 1645 3428 
Q 1925 3584 2291 3584 
Q 2894 3584 3203 3211 
Q 3513 2838 3513 2113 
z
" transform="scale(0.015625)"/>
      <path id="DejaVuSans-66" d="M 2375 4863 
L 2375 4384 
L 1825 4384 
Q 1516 4384 1395 4259 
Q 1275 4134 1275 3809 
L 1275 3500 
L 2222 3500 
L 2222 3053 
L 1275 3053 
L 1275 0 
L 697 0 
L 697 3053 
L 147 3053 
L 147 3500 
L 697 3500 
L 697 3744 
Q 697 4328 969 4595 
Q 1241 4863 1831 4863 
L 2375 4863 
z
" transform="scale(0.015625)"/>
      <path id="DejaVuSans-72" d="M 2631 2963 
Q 2534 3019 2420 3045 
Q 2306 3072 2169 3072 
Q 1681 3072 1420 2755 
Q 1159 2438 1159 1844 
L 1159 0 
L 581 0 
L 581 3500 
L 1159 3500 
L 1159 2956 
Q 1341 3275 1631 3429 
Q 1922 3584 2338 3584 
Q 2397 3584 2469 3576 
Q 2541 3569 2628 3553 
L 2631 2963 
z
" transform="scale(0.015625)"/>
      <path id="DejaVuSans-6d" d="M 3328 2828 
Q 3544 3216 3844 3400 
Q 4144 3584 4550 3584 
Q 5097 3584 5394 3201 
Q 5691 2819 5691 2113 
L 5691 0 
L 5113 0 
L 5113 2094 
Q 5113 2597 4934 2840 
Q 4756 3084 4391 3084 
Q 3944 3084 3684 2787 
Q 3425 2491 3425 1978 
L 3425 0 
L 2847 0 
L 2847 2094 
Q 2847 2600 2669 2842 
Q 2491 3084 2119 3084 
Q 1678 3084 1418 2786 
Q 1159 2488 1159 1978 
L 1159 0 
L 581 0 
L 581 3500 
L 1159 3500 
L 1159 2956 
Q 1356 3278 1631 3431 
Q 1906 3584 2284 3584 
Q 2666 3584 2933 3390 
Q 3200 3197 3328 2828 
z
" transform="scale(0.015625)"/>
      <path id="DejaVuSans-65" d="M 3597 1894 
L 3597 1613 
L 953 1613 
Q 991 1019 1311 708 
Q 1631 397 2203 397 
Q 2534 397 2845 478 
Q 3156 559 3463 722 
L 3463 178 
Q 3153 47 2828 -22 
Q 2503 -91 2169 -91 
Q 1331 -91 842 396 
Q 353 884 353 1716 
Q 353 2575 817 3079 
Q 1281 3584 2069 3584 
Q 2775 3584 3186 3129 
Q 3597 2675 3597 1894 
z
M 3022 2063 
Q 3016 2534 2758 2815 
Q 2500 3097 2075 3097 
Q 1594 3097 1305 2825 
Q 1016 2553 972 2059 
L 3022 2063 
z
" transform="scale(0.015625)"/>
      <path id="DejaVuSans-64" d="M 2906 2969 
L 2906 4863 
L 3481 4863 
L 3481 0 
L 2906 0 
L 2906 525 
Q 2725 213 2448 61 
Q 2172 -91 1784 -91 
Q 1150 -91 751 415 
Q 353 922 353 1747 
Q 353 2572 751 3078 
Q 1150 3584 1784 3584 
Q 2172 3584 2448 3432 
Q 2725 3281 2906 2969 
z
M 947 1747 
Q 947 1113 1208 752 
Q 1469 391 1925 391 
Q 2381 391 2643 752 
Q 2906 1113 2906 1747 
Q 2906 2381 2643 2742 
Q 2381 3103 1925 3103 
Q 1469 3103 1208 2742 
Q 947 2381 947 1747 
z
" transform="scale(0.015625)"/>
      <path id="DejaVuSans-73" d="M 2834 3397 
L 2834 2853 
Q 2591 2978 2328 3040 
Q 2066 3103 1784 3103 
Q 1356 3103 1142 2972 
Q 928 2841 928 2578 
Q 928 2378 1081 2264 
Q 1234 2150 1697 2047 
L 1894 2003 
Q 2506 1872 2764 1633 
Q 3022 1394 3022 966 
Q 3022 478 2636 193 
Q 2250 -91 1575 -91 
Q 1294 -91 989 -36 
Q 684 19 347 128 
L 347 722 
Q 666 556 975 473 
Q 1284 391 1588 391 
Q 1994 391 2212 530 
Q 2431 669 2431 922 
Q 2431 1156 2273 1281 
Q 2116 1406 1581 1522 
L 1381 1569 
Q 847 1681 609 1914 
Q 372 2147 372 2553 
Q 372 3047 722 3315 
Q 1072 3584 1716 3584 
Q 2034 3584 2315 3537 
Q 2597 3491 2834 3397 
z
" transform="scale(0.015625)"/>
      <path id="DejaVuSans-46" d="M 628 4666 
L 3309 4666 
L 3309 4134 
L 1259 4134 
L 1259 2759 
L 3109 2759 
L 3109 2228 
L 1259 2228 
L 1259 0 
L 628 0 
L 628 4666 
z
" transform="scale(0.015625)"/>
      <path id="DejaVuSans-63" d="M 3122 3366 
L 3122 2828 
Q 2878 2963 2633 3030 
Q 2388 3097 2138 3097 
Q 1578 3097 1268 2742 
Q 959 2388 959 1747 
Q 959 1106 1268 751 
Q 1578 397 2138 397 
Q 2388 397 2633 464 
Q 2878 531 3122 666 
L 3122 134 
Q 2881 22 2623 -34 
Q 2366 -91 2075 -91 
Q 1284 -91 818 406 
Q 353 903 353 1747 
Q 353 2603 823 3093 
Q 1294 3584 2113 3584 
Q 2378 3584 2631 3529 
Q 2884 3475 3122 3366 
z
" transform="scale(0.015625)"/>
      <path id="DejaVuSans-74" d="M 1172 4494 
L 1172 3500 
L 2356 3500 
L 2356 3053 
L 1172 3053 
L 1172 1153 
Q 1172 725 1289 603 
Q 1406 481 1766 481 
L 2356 481 
L 2356 0 
L 1766 0 
Q 1100 0 847 248 
Q 594 497 594 1153 
L 594 3053 
L 172 3053 
L 172 3500 
L 594 3500 
L 594 4494 
L 1172 4494 
z
" transform="scale(0.015625)"/>
      <path id="DejaVuSans-67" d="M 2906 1791 
Q 2906 2416 2648 2759 
Q 2391 3103 1925 3103 
Q 1463 3103 1205 2759 
Q 947 2416 947 1791 
Q 947 1169 1205 825 
Q 1463 481 1925 481 
Q 2391 481 2648 825 
Q 2906 1169 2906 1791 
z
M 3481 434 
Q 3481 -459 3084 -895 
Q 2688 -1331 1869 -1331 
Q 1566 -1331 1297 -1286 
Q 1028 -1241 775 -1147 
L 775 -588 
Q 1028 -725 1275 -790 
Q 1522 -856 1778 -856 
Q 2344 -856 2625 -561 
Q 2906 -266 2906 331 
L 2906 616 
Q 2728 306 2450 153 
Q 2172 0 1784 0 
Q 1141 0 747 490 
Q 353 981 353 1791 
Q 353 2603 747 3093 
Q 1141 3584 1784 3584 
Q 2172 3584 2450 3431 
Q 2728 3278 2906 2969 
L 2906 3500 
L 3481 3500 
L 3481 434 
z
" transform="scale(0.015625)"/>
      <path id="DejaVuSans-55" d="M 556 4666 
L 1191 4666 
L 1191 1831 
Q 1191 1081 1462 751 
Q 1734 422 2344 422 
Q 2950 422 3222 751 
Q 3494 1081 3494 1831 
L 3494 4666 
L 4128 4666 
L 4128 1753 
Q 4128 841 3676 375 
Q 3225 -91 2344 -91 
Q 1459 -91 1007 375 
Q 556 841 556 1753 
L 556 4666 
z
" transform="scale(0.015625)"/>
      <path id="DejaVuSans-4b" d="M 628 4666 
L 1259 4666 
L 1259 2694 
L 3353 4666 
L 4166 4666 
L 1850 2491 
L 4331 0 
L 3500 0 
L 1259 2247 
L 1259 0 
L 628 0 
L 628 4666 
z
" transform="scale(0.015625)"/>
     </defs>
     <use xlink:href="#DejaVuSans-44"/>
     <use xlink:href="#DejaVuSans-61" x="77.001953"/>
     <use xlink:href="#DejaVuSans-69" x="138.28125"/>
     <use xlink:href="#DejaVuSans-6c" x="166.064453"/>
     <use xlink:href="#DejaVuSans-79" x="193.847656"/>
     <use xlink:href="#DejaVuSans-20" x="253.027344"/>
     <use xlink:href="#DejaVuSans-43" x="284.814453"/>
     <use xlink:href="#DejaVuSans-6f" x="354.638672"/>
     <use xlink:href="#DejaVuSans-6e" x="415.820312"/>
     <use xlink:href="#DejaVuSans-66" x="479.199219"/>
     <use xlink:href="#DejaVuSans-69" x="514.404297"/>
     <use xlink:href="#DejaVuSans-72" x="542.1875"/>
     <use xlink:href="#DejaVuSans-6d" x="581.550781"/>
     <use xlink:href="#DejaVuSans-65" x="678.962891"/>
     <use xlink:href="#DejaVuSans-64" x="740.486328"/>
     <use xlink:href="#DejaVuSans-20" x="803.962891"/>
     <use xlink:href="#DejaVuSans-43" x="835.75"/>
     <use xlink:href="#DejaVuSans-61" x="905.574219"/>
     <use xlink:href="#DejaVuSans-73" x="966.853516"/>
     <use xlink:href="#DejaVuSans-65" x="1018.953125"/>
     <use xlink:href="#DejaVuSans-73" x="1080.476562"/>
     <use xlink:href="#DejaVuSans-20" x="1132.576172"/>
     <use xlink:href="#DejaVuSans-46" x="1164.363281"/>
     <use xlink:href="#DejaVuSans-6f" x="1218.257812"/>
     <use xlink:href="#DejaVuSans-72" x="1279.439453"/>
     <use xlink:href="#DejaVuSans-65" x="1318.302734"/>
     <use xlink:href="#DejaVuSans-63" x="1379.826172"/>
     <use xlink:href="#DejaVuSans-61" x="1434.806641"/>
     <use xlink:href="#DejaVuSans-73" x="1496.085938"/>
     <use xlink:href="#DejaVuSans-74" x="1548.185547"/>
     <use xlink:href="#DejaVuSans-69" x="1587.394531"/>
     <use xlink:href="#DejaVuSans-6e" x="1615.177734"/>
     <use xlink:href="#DejaVuSans-67" x="1678.556641"/>
     <use xlink:href="#DejaVuSans-20" x="1742.033203"/>
     <use xlink:href="#DejaVuSans-2d" x="1773.820312"/>
     <use xlink:href="#DejaVuSans-20" x="1809.904297"/>
     <use xlink:href="#DejaVuSans-55" x="1841.691406"/>
     <use xlink:href="#DejaVuSans-6e" x="1914.884766"/>
     <use xlink:href="#DejaVuSans-69" x="1978.263672"/>
     <use xlink:href="#DejaVuSans-74" x="2006.046875"/>
     <use xlink:href="#DejaVuSans-65" x="2045.255859"/>
     <use xlink:href="#DejaVuSans-64" x="2106.779297"/>
     <use xlink:href="#DejaVuSans-20" x="2170.255859"/>
     <use xlink:href="#DejaVuSans-4b" x="2202.042969"/>
     <use xlink:href="#DejaVuSans-69" x="2267.619141"/>
     <use xlink:href="#DejaVuSans-6e" x="2295.402344"/>
     <use xlink:href="#DejaVuSans-67" x="2358.78125"/>
     <use xlink:href="#DejaVuSans-64" x="2422.257812"/>
     <use xlink:href="#DejaVuSans-6f" x="2485.734375"/>
     <use xlink:href="#DejaVuSans-6d" x="2546.916016"/>
    </g>
    <!-- ARIMA (0, 1, 1)x(1, 0, 1, 7) (R2 = 0.421682) -->
    <g transform="translate(589.990937 29.7555)scale(0.12 -0.12)">
     <defs>
      <path id="DejaVuSans-41" d="M 2188 4044 
L 1331 1722 
L 3047 1722 
L 2188 4044 
z
M 1831 4666 
L 2547 4666 
L 4325 0 
L 3669 0 
L 3244 1197 
L 1141 1197 
L 716 0 
L 50 0 
L 1831 4666 
z
" transform="scale(0.015625)"/>
      <path id="DejaVuSans-52" d="M 2841 2188 
Q 3044 2119 3236 1894 
Q 3428 1669 3622 1275 
L 4263 0 
L 3584 0 
L 2988 1197 
Q 2756 1666 2539 1819 
Q 2322 1972 1947 1972 
L 1259 1972 
L 1259 0 
L 628 0 
L 628 4666 
L 2053 4666 
Q 2853 4666 3247 4331 
Q 3641 3997 3641 3322 
Q 3641 2881 3436 2590 
Q 3231 2300 2841 2188 
z
M 1259 4147 
L 1259 2491 
L 2053 2491 
Q 2509 2491 2742 2702 
Q 2975 2913 2975 3322 
Q 2975 3731 2742 3939 
Q 2509 4147 2053 4147 
L 1259 4147 
z
" transform="scale(0.015625)"/>
      <path id="DejaVuSans-49" d="M 628 4666 
L 1259 4666 
L 1259 0 
L 628 0 
L 628 4666 
z
" transform="scale(0.015625)"/>
      <path id="DejaVuSans-4d" d="M 628 4666 
L 1569 4666 
L 2759 1491 
L 3956 4666 
L 4897 4666 
L 4897 0 
L 4281 0 
L 4281 4097 
L 3078 897 
L 2444 897 
L 1241 4097 
L 1241 0 
L 628 0 
L 628 4666 
z
" transform="scale(0.015625)"/>
      <path id="DejaVuSans-28" d="M 1984 4856 
Q 1566 4138 1362 3434 
Q 1159 2731 1159 2009 
Q 1159 1288 1364 580 
Q 1569 -128 1984 -844 
L 1484 -844 
Q 1016 -109 783 600 
Q 550 1309 550 2009 
Q 550 2706 781 3412 
Q 1013 4119 1484 4856 
L 1984 4856 
z
" transform="scale(0.015625)"/>
      <path id="DejaVuSans-2c" d="M 750 794 
L 1409 794 
L 1409 256 
L 897 -744 
L 494 -744 
L 750 256 
L 750 794 
z
" transform="scale(0.015625)"/>
      <path id="DejaVuSans-29" d="M 513 4856 
L 1013 4856 
Q 1481 4119 1714 3412 
Q 1947 2706 1947 2009 
Q 1947 1309 1714 600 
Q 1481 -109 1013 -844 
L 513 -844 
Q 928 -128 1133 580 
Q 1338 1288 1338 2009 
Q 1338 2731 1133 3434 
Q 928 4138 513 4856 
z
" transform="scale(0.015625)"/>
      <path id="DejaVuSans-78" d="M 3513 3500 
L 2247 1797 
L 3578 0 
L 2900 0 
L 1881 1375 
L 863 0 
L 184 0 
L 1544 1831 
L 300 3500 
L 978 3500 
L 1906 2253 
L 2834 3500 
L 3513 3500 
z
" transform="scale(0.015625)"/>
      <path id="DejaVuSans-3d" d="M 678 2906 
L 4684 2906 
L 4684 2381 
L 678 2381 
L 678 2906 
z
M 678 1631 
L 4684 1631 
L 4684 1100 
L 678 1100 
L 678 1631 
z
" transform="scale(0.015625)"/>
      <path id="DejaVuSans-2e" d="M 684 794 
L 1344 794 
L 1344 0 
L 684 0 
L 684 794 
z
" transform="scale(0.015625)"/>
     </defs>
     <use xlink:href="#DejaVuSans-41"/>
     <use xlink:href="#DejaVuSans-52" x="68.408203"/>
     <use xlink:href="#DejaVuSans-49" x="137.890625"/>
     <use xlink:href="#DejaVuSans-4d" x="167.382812"/>
     <use xlink:href="#DejaVuSans-41" x="253.662109"/>
     <use xlink:href="#DejaVuSans-20" x="322.070312"/>
     <use xlink:href="#DejaVuSans-28" x="353.857422"/>
     <use xlink:href="#DejaVuSans-30" x="392.871094"/>
     <use xlink:href="#DejaVuSans-2c" x="456.494141"/>
     <use xlink:href="#DejaVuSans-20" x="488.28125"/>
     <use xlink:href="#DejaVuSans-31" x="520.068359"/>
     <use xlink:href="#DejaVuSans-2c" x="583.691406"/>
     <use xlink:href="#DejaVuSans-20" x="615.478516"/>
     <use xlink:href="#DejaVuSans-31" x="647.265625"/>
     <use xlink:href="#DejaVuSans-29" x="710.888672"/>
     <use xlink:href="#DejaVuSans-78" x="749.902344"/>
     <use xlink:href="#DejaVuSans-28" x="809.082031"/>
     <use xlink:href="#DejaVuSans-31" x="848.095703"/>
     <use xlink:href="#DejaVuSans-2c" x="911.71875"/>
     <use xlink:href="#DejaVuSans-20" x="943.505859"/>
     <use xlink:href="#DejaVuSans-30" x="975.292969"/>
     <use xlink:href="#DejaVuSans-2c" x="1038.916016"/>
     <use xlink:href="#DejaVuSans-20" x="1070.703125"/>
     <use xlink:href="#DejaVuSans-31" x="1102.490234"/>
     <use xlink:href="#DejaVuSans-2c" x="1166.113281"/>
     <use xlink:href="#DejaVuSans-20" x="1197.900391"/>
     <use xlink:href="#DejaVuSans-37" x="1229.6875"/>
     <use xlink:href="#DejaVuSans-29" x="1293.310547"/>
     <use xlink:href="#DejaVuSans-20" x="1332.324219"/>
     <use xlink:href="#DejaVuSans-28" x="1364.111328"/>
     <use xlink:href="#DejaVuSans-52" x="1403.125"/>
     <use xlink:href="#DejaVuSans-32" x="1472.607422"/>
     <use xlink:href="#DejaVuSans-20" x="1536.230469"/>
     <use xlink:href="#DejaVuSans-3d" x="1568.017578"/>
     <use xlink:href="#DejaVuSans-20" x="1651.806641"/>
     <use xlink:href="#DejaVuSans-30" x="1683.59375"/>
     <use xlink:href="#DejaVuSans-2e" x="1747.216797"/>
     <use xlink:href="#DejaVuSans-34" x="1779.003906"/>
     <use xlink:href="#DejaVuSans-32" x="1842.626953"/>
     <use xlink:href="#DejaVuSans-31" x="1906.25"/>
     <use xlink:href="#DejaVuSans-36" x="1969.873047"/>
     <use xlink:href="#DejaVuSans-38" x="2033.496094"/>
     <use xlink:href="#DejaVuSans-32" x="2097.119141"/>
     <use xlink:href="#DejaVuSans-29" x="2160.742188"/>
    </g>
   </g>
   <g id="legend_1">
    <g id="patch_7">
     <path d="M 1287.495312 87.789875 
L 1384.575 87.789875 
Q 1386.575 87.789875 1386.575 85.789875 
L 1386.575 42.7555 
Q 1386.575 40.7555 1384.575 40.7555 
L 1287.495312 40.7555 
Q 1285.495312 40.7555 1285.495312 42.7555 
L 1285.495312 85.789875 
Q 1285.495312 87.789875 1287.495312 87.789875 
z
" style="fill: #ffffff; opacity: 0.8; stroke: #cccccc; stroke-linejoin: miter"/>
    </g>
    <g id="line2d_20">
     <path d="M 1289.495312 48.853937 
L 1299.495312 48.853937 
L 1309.495312 48.853937 
" style="fill: none; stroke: #0000ff; stroke-width: 1.5; stroke-linecap: square"/>
    </g>
    <g id="text_18">
     <!-- Actual Value -->
     <g transform="translate(1317.495312 52.353937)scale(0.1 -0.1)">
      <defs>
       <path id="DejaVuSans-75" d="M 544 1381 
L 544 3500 
L 1119 3500 
L 1119 1403 
Q 1119 906 1312 657 
Q 1506 409 1894 409 
Q 2359 409 2629 706 
Q 2900 1003 2900 1516 
L 2900 3500 
L 3475 3500 
L 3475 0 
L 2900 0 
L 2900 538 
Q 2691 219 2414 64 
Q 2138 -91 1772 -91 
Q 1169 -91 856 284 
Q 544 659 544 1381 
z
M 1991 3584 
L 1991 3584 
z
" transform="scale(0.015625)"/>
       <path id="DejaVuSans-56" d="M 1831 0 
L 50 4666 
L 709 4666 
L 2188 738 
L 3669 4666 
L 4325 4666 
L 2547 0 
L 1831 0 
z
" transform="scale(0.015625)"/>
      </defs>
      <use xlink:href="#DejaVuSans-41"/>
      <use xlink:href="#DejaVuSans-63" x="66.658203"/>
      <use xlink:href="#DejaVuSans-74" x="121.638672"/>
      <use xlink:href="#DejaVuSans-75" x="160.847656"/>
      <use xlink:href="#DejaVuSans-61" x="224.226562"/>
      <use xlink:href="#DejaVuSans-6c" x="285.505859"/>
      <use xlink:href="#DejaVuSans-20" x="313.289062"/>
      <use xlink:href="#DejaVuSans-56" x="345.076172"/>
      <use xlink:href="#DejaVuSans-61" x="405.734375"/>
      <use xlink:href="#DejaVuSans-6c" x="467.013672"/>
      <use xlink:href="#DejaVuSans-75" x="494.796875"/>
      <use xlink:href="#DejaVuSans-65" x="558.175781"/>
     </g>
    </g>
    <g id="line2d_21">
     <path d="M 1289.495312 63.532062 
L 1299.495312 63.532062 
L 1309.495312 63.532062 
" style="fill: none; stroke: #ffa500; stroke-width: 1.5; stroke-linecap: square"/>
    </g>
    <g id="text_19">
     <!-- Check Value -->
     <g transform="translate(1317.495312 67.032062)scale(0.1 -0.1)">
      <defs>
       <path id="DejaVuSans-68" d="M 3513 2113 
L 3513 0 
L 2938 0 
L 2938 2094 
Q 2938 2591 2744 2837 
Q 2550 3084 2163 3084 
Q 1697 3084 1428 2787 
Q 1159 2491 1159 1978 
L 1159 0 
L 581 0 
L 581 4863 
L 1159 4863 
L 1159 2956 
Q 1366 3272 1645 3428 
Q 1925 3584 2291 3584 
Q 2894 3584 3203 3211 
Q 3513 2838 3513 2113 
z
" transform="scale(0.015625)"/>
       <path id="DejaVuSans-6b" d="M 581 4863 
L 1159 4863 
L 1159 1991 
L 2875 3500 
L 3609 3500 
L 1753 1863 
L 3688 0 
L 2938 0 
L 1159 1709 
L 1159 0 
L 581 0 
L 581 4863 
z
" transform="scale(0.015625)"/>
      </defs>
      <use xlink:href="#DejaVuSans-43"/>
      <use xlink:href="#DejaVuSans-68" x="69.824219"/>
      <use xlink:href="#DejaVuSans-65" x="133.203125"/>
      <use xlink:href="#DejaVuSans-63" x="194.726562"/>
      <use xlink:href="#DejaVuSans-6b" x="249.707031"/>
      <use xlink:href="#DejaVuSans-20" x="307.617188"/>
      <use xlink:href="#DejaVuSans-56" x="339.404297"/>
      <use xlink:href="#DejaVuSans-61" x="400.0625"/>
      <use xlink:href="#DejaVuSans-6c" x="461.341797"/>
      <use xlink:href="#DejaVuSans-75" x="489.125"/>
      <use xlink:href="#DejaVuSans-65" x="552.503906"/>
     </g>
    </g>
    <g id="line2d_22">
     <path d="M 1289.495312 78.210187 
L 1299.495312 78.210187 
L 1309.495312 78.210187 
" style="fill: none; stroke: #ff0000; stroke-width: 1.5; stroke-linecap: square"/>
    </g>
    <g id="text_20">
     <!-- Predict Value -->
     <g transform="translate(1317.495312 81.710187)scale(0.1 -0.1)">
      <defs>
       <path id="DejaVuSans-50" d="M 1259 4147 
L 1259 2394 
L 2053 2394 
Q 2494 2394 2734 2622 
Q 2975 2850 2975 3272 
Q 2975 3691 2734 3919 
Q 2494 4147 2053 4147 
L 1259 4147 
z
M 628 4666 
L 2053 4666 
Q 2838 4666 3239 4311 
Q 3641 3956 3641 3272 
Q 3641 2581 3239 2228 
Q 2838 1875 2053 1875 
L 1259 1875 
L 1259 0 
L 628 0 
L 628 4666 
z
" transform="scale(0.015625)"/>
      </defs>
      <use xlink:href="#DejaVuSans-50"/>
      <use xlink:href="#DejaVuSans-72" x="58.552734"/>
      <use xlink:href="#DejaVuSans-65" x="97.416016"/>
      <use xlink:href="#DejaVuSans-64" x="158.939453"/>
      <use xlink:href="#DejaVuSans-69" x="222.416016"/>
      <use xlink:href="#DejaVuSans-63" x="250.199219"/>
      <use xlink:href="#DejaVuSans-74" x="305.179688"/>
      <use xlink:href="#DejaVuSans-20" x="344.388672"/>
      <use xlink:href="#DejaVuSans-56" x="376.175781"/>
      <use xlink:href="#DejaVuSans-61" x="436.833984"/>
      <use xlink:href="#DejaVuSans-6c" x="498.113281"/>
      <use xlink:href="#DejaVuSans-75" x="525.896484"/>
      <use xlink:href="#DejaVuSans-65" x="589.275391"/>
     </g>
    </g>
   </g>
  </g>
 </g>
 <defs>
  <clipPath id="p9f46f67c98">
   <rect x="52.375" y="35.7555" width="1339.2" height="332.64"/>
  </clipPath>
 </defs>
</svg>
