<?xml version="1.0" encoding="utf-8" standalone="no"?>
<!DOCTYPE svg PUBLIC "-//W3C//DTD SVG 1.1//EN"
  "http://www.w3.org/Graphics/SVG/1.1/DTD/svg11.dtd">
<svg xmlns:xlink="http://www.w3.org/1999/xlink" width="1398.775pt" height="392.273625pt" viewBox="0 0 1398.775 392.273625" xmlns="http://www.w3.org/2000/svg" version="1.1">
 <metadata>
  <rdf:RDF xmlns:dc="http://purl.org/dc/elements/1.1/" xmlns:cc="http://creativecommons.org/ns#" xmlns:rdf="http://www.w3.org/1999/02/22-rdf-syntax-ns#">
   <cc:Work>
    <dc:type rdf:resource="http://purl.org/dc/dcmitype/StillImage"/>
    <dc:date>2022-07-21T19:40:58.949347</dc:date>
    <dc:format>image/svg+xml</dc:format>
    <dc:creator>
     <cc:Agent>
      <dc:title>Matplotlib v3.5.2, https://matplotlib.org/</dc:title>
     </cc:Agent>
    </dc:creator>
   </cc:Work>
  </rdf:RDF>
 </metadata>
 <defs>
  <style type="text/css">*{stroke-linejoin: round; stroke-linecap: butt}</style>
 </defs>
 <g id="figure_1">
  <g id="patch_1">
   <path d="M 0 392.273625 
L 1398.775 392.273625 
L 1398.775 0 
L 0 0 
z
" style="fill: #ffffff"/>
  </g>
  <g id="axes_1">
   <g id="patch_2">
    <path d="M 52.375 368.3955 
L 1391.575 368.3955 
L 1391.575 35.7555 
L 52.375 35.7555 
z
" style="fill: #ffffff"/>
   </g>
   <g id="matplotlib.axis_1">
    <g id="xtick_1">
     <g id="line2d_1">
      <defs>
       <path id="medef6cf4b8" d="M 0 0 
L 0 3.5 
" style="stroke: #000000; stroke-width: 0.8"/>
      </defs>
      <g>
       <use xlink:href="#medef6cf4b8" x="84.197836" y="368.3955" style="stroke: #000000; stroke-width: 0.8"/>
      </g>
     </g>
     <g id="text_1">
      <!-- 2020-01 -->
      <g transform="translate(63.306429 382.993937)scale(0.1 -0.1)">
       <defs>
        <path id="DejaVuSans-32" d="M 1228 531 
L 3431 531 
L 3431 0 
L 469 0 
L 469 531 
Q 828 903 1448 1529 
Q 2069 2156 2228 2338 
Q 2531 2678 2651 2914 
Q 2772 3150 2772 3378 
Q 2772 3750 2511 3984 
Q 2250 4219 1831 4219 
Q 1534 4219 1204 4116 
Q 875 4013 500 3803 
L 500 4441 
Q 881 4594 1212 4672 
Q 1544 4750 1819 4750 
Q 2544 4750 2975 4387 
Q 3406 4025 3406 3419 
Q 3406 3131 3298 2873 
Q 3191 2616 2906 2266 
Q 2828 2175 2409 1742 
Q 1991 1309 1228 531 
z
" transform="scale(0.015625)"/>
        <path id="DejaVuSans-30" d="M 2034 4250 
Q 1547 4250 1301 3770 
Q 1056 3291 1056 2328 
Q 1056 1369 1301 889 
Q 1547 409 2034 409 
Q 2525 409 2770 889 
Q 3016 1369 3016 2328 
Q 3016 3291 2770 3770 
Q 2525 4250 2034 4250 
z
M 2034 4750 
Q 2819 4750 3233 4129 
Q 3647 3509 3647 2328 
Q 3647 1150 3233 529 
Q 2819 -91 2034 -91 
Q 1250 -91 836 529 
Q 422 1150 422 2328 
Q 422 3509 836 4129 
Q 1250 4750 2034 4750 
z
" transform="scale(0.015625)"/>
        <path id="DejaVuSans-2d" d="M 313 2009 
L 1997 2009 
L 1997 1497 
L 313 1497 
L 313 2009 
z
" transform="scale(0.015625)"/>
        <path id="DejaVuSans-31" d="M 794 531 
L 1825 531 
L 1825 4091 
L 703 3866 
L 703 4441 
L 1819 4666 
L 2450 4666 
L 2450 531 
L 3481 531 
L 3481 0 
L 794 0 
L 794 531 
z
" transform="scale(0.015625)"/>
       </defs>
       <use xlink:href="#DejaVuSans-32"/>
       <use xlink:href="#DejaVuSans-30" x="63.623047"/>
       <use xlink:href="#DejaVuSans-32" x="127.246094"/>
       <use xlink:href="#DejaVuSans-30" x="190.869141"/>
       <use xlink:href="#DejaVuSans-2d" x="254.492188"/>
       <use xlink:href="#DejaVuSans-30" x="290.576172"/>
       <use xlink:href="#DejaVuSans-31" x="354.199219"/>
      </g>
     </g>
    </g>
    <g id="xtick_2">
     <g id="line2d_2">
      <g>
       <use xlink:href="#medef6cf4b8" x="204.358751" y="368.3955" style="stroke: #000000; stroke-width: 0.8"/>
      </g>
     </g>
     <g id="text_2">
      <!-- 2020-04 -->
      <g transform="translate(183.467344 382.993937)scale(0.1 -0.1)">
       <defs>
        <path id="DejaVuSans-34" d="M 2419 4116 
L 825 1625 
L 2419 1625 
L 2419 4116 
z
M 2253 4666 
L 3047 4666 
L 3047 1625 
L 3713 1625 
L 3713 1100 
L 3047 1100 
L 3047 0 
L 2419 0 
L 2419 1100 
L 313 1100 
L 313 1709 
L 2253 4666 
z
" transform="scale(0.015625)"/>
       </defs>
       <use xlink:href="#DejaVuSans-32"/>
       <use xlink:href="#DejaVuSans-30" x="63.623047"/>
       <use xlink:href="#DejaVuSans-32" x="127.246094"/>
       <use xlink:href="#DejaVuSans-30" x="190.869141"/>
       <use xlink:href="#DejaVuSans-2d" x="254.492188"/>
       <use xlink:href="#DejaVuSans-30" x="290.576172"/>
       <use xlink:href="#DejaVuSans-34" x="354.199219"/>
      </g>
     </g>
    </g>
    <g id="xtick_3">
     <g id="line2d_3">
      <g>
       <use xlink:href="#medef6cf4b8" x="324.519666" y="368.3955" style="stroke: #000000; stroke-width: 0.8"/>
      </g>
     </g>
     <g id="text_3">
      <!-- 2020-07 -->
      <g transform="translate(303.628259 382.993937)scale(0.1 -0.1)">
       <defs>
        <path id="DejaVuSans-37" d="M 525 4666 
L 3525 4666 
L 3525 4397 
L 1831 0 
L 1172 0 
L 2766 4134 
L 525 4134 
L 525 4666 
z
" transform="scale(0.015625)"/>
       </defs>
       <use xlink:href="#DejaVuSans-32"/>
       <use xlink:href="#DejaVuSans-30" x="63.623047"/>
       <use xlink:href="#DejaVuSans-32" x="127.246094"/>
       <use xlink:href="#DejaVuSans-30" x="190.869141"/>
       <use xlink:href="#DejaVuSans-2d" x="254.492188"/>
       <use xlink:href="#DejaVuSans-30" x="290.576172"/>
       <use xlink:href="#DejaVuSans-37" x="354.199219"/>
      </g>
     </g>
    </g>
    <g id="xtick_4">
     <g id="line2d_4">
      <g>
       <use xlink:href="#medef6cf4b8" x="446.00103" y="368.3955" style="stroke: #000000; stroke-width: 0.8"/>
      </g>
     </g>
     <g id="text_4">
      <!-- 2020-10 -->
      <g transform="translate(425.109624 382.993937)scale(0.1 -0.1)">
       <use xlink:href="#DejaVuSans-32"/>
       <use xlink:href="#DejaVuSans-30" x="63.623047"/>
       <use xlink:href="#DejaVuSans-32" x="127.246094"/>
       <use xlink:href="#DejaVuSans-30" x="190.869141"/>
       <use xlink:href="#DejaVuSans-2d" x="254.492188"/>
       <use xlink:href="#DejaVuSans-31" x="290.576172"/>
       <use xlink:href="#DejaVuSans-30" x="354.199219"/>
      </g>
     </g>
    </g>
    <g id="xtick_5">
     <g id="line2d_5">
      <g>
       <use xlink:href="#medef6cf4b8" x="567.482395" y="368.3955" style="stroke: #000000; stroke-width: 0.8"/>
      </g>
     </g>
     <g id="text_5">
      <!-- 2021-01 -->
      <g transform="translate(546.590989 382.993937)scale(0.1 -0.1)">
       <use xlink:href="#DejaVuSans-32"/>
       <use xlink:href="#DejaVuSans-30" x="63.623047"/>
       <use xlink:href="#DejaVuSans-32" x="127.246094"/>
       <use xlink:href="#DejaVuSans-31" x="190.869141"/>
       <use xlink:href="#DejaVuSans-2d" x="254.492188"/>
       <use xlink:href="#DejaVuSans-30" x="290.576172"/>
       <use xlink:href="#DejaVuSans-31" x="354.199219"/>
      </g>
     </g>
    </g>
    <g id="xtick_6">
     <g id="line2d_6">
      <g>
       <use xlink:href="#medef6cf4b8" x="686.32286" y="368.3955" style="stroke: #000000; stroke-width: 0.8"/>
      </g>
     </g>
     <g id="text_6">
      <!-- 2021-04 -->
      <g transform="translate(665.431454 382.993937)scale(0.1 -0.1)">
       <use xlink:href="#DejaVuSans-32"/>
       <use xlink:href="#DejaVuSans-30" x="63.623047"/>
       <use xlink:href="#DejaVuSans-32" x="127.246094"/>
       <use xlink:href="#DejaVuSans-31" x="190.869141"/>
       <use xlink:href="#DejaVuSans-2d" x="254.492188"/>
       <use xlink:href="#DejaVuSans-30" x="290.576172"/>
       <use xlink:href="#DejaVuSans-34" x="354.199219"/>
      </g>
     </g>
    </g>
    <g id="xtick_7">
     <g id="line2d_7">
      <g>
       <use xlink:href="#medef6cf4b8" x="806.483775" y="368.3955" style="stroke: #000000; stroke-width: 0.8"/>
      </g>
     </g>
     <g id="text_7">
      <!-- 2021-07 -->
      <g transform="translate(785.592369 382.993937)scale(0.1 -0.1)">
       <use xlink:href="#DejaVuSans-32"/>
       <use xlink:href="#DejaVuSans-30" x="63.623047"/>
       <use xlink:href="#DejaVuSans-32" x="127.246094"/>
       <use xlink:href="#DejaVuSans-31" x="190.869141"/>
       <use xlink:href="#DejaVuSans-2d" x="254.492188"/>
       <use xlink:href="#DejaVuSans-30" x="290.576172"/>
       <use xlink:href="#DejaVuSans-37" x="354.199219"/>
      </g>
     </g>
    </g>
    <g id="xtick_8">
     <g id="line2d_8">
      <g>
       <use xlink:href="#medef6cf4b8" x="927.96514" y="368.3955" style="stroke: #000000; stroke-width: 0.8"/>
      </g>
     </g>
     <g id="text_8">
      <!-- 2021-10 -->
      <g transform="translate(907.073734 382.993937)scale(0.1 -0.1)">
       <use xlink:href="#DejaVuSans-32"/>
       <use xlink:href="#DejaVuSans-30" x="63.623047"/>
       <use xlink:href="#DejaVuSans-32" x="127.246094"/>
       <use xlink:href="#DejaVuSans-31" x="190.869141"/>
       <use xlink:href="#DejaVuSans-2d" x="254.492188"/>
       <use xlink:href="#DejaVuSans-31" x="290.576172"/>
       <use xlink:href="#DejaVuSans-30" x="354.199219"/>
      </g>
     </g>
    </g>
    <g id="xtick_9">
     <g id="line2d_9">
      <g>
       <use xlink:href="#medef6cf4b8" x="1049.446505" y="368.3955" style="stroke: #000000; stroke-width: 0.8"/>
      </g>
     </g>
     <g id="text_9">
      <!-- 2022-01 -->
      <g transform="translate(1028.555098 382.993937)scale(0.1 -0.1)">
       <use xlink:href="#DejaVuSans-32"/>
       <use xlink:href="#DejaVuSans-30" x="63.623047"/>
       <use xlink:href="#DejaVuSans-32" x="127.246094"/>
       <use xlink:href="#DejaVuSans-32" x="190.869141"/>
       <use xlink:href="#DejaVuSans-2d" x="254.492188"/>
       <use xlink:href="#DejaVuSans-30" x="290.576172"/>
       <use xlink:href="#DejaVuSans-31" x="354.199219"/>
      </g>
     </g>
    </g>
    <g id="xtick_10">
     <g id="line2d_10">
      <g>
       <use xlink:href="#medef6cf4b8" x="1168.28697" y="368.3955" style="stroke: #000000; stroke-width: 0.8"/>
      </g>
     </g>
     <g id="text_10">
      <!-- 2022-04 -->
      <g transform="translate(1147.395564 382.993937)scale(0.1 -0.1)">
       <use xlink:href="#DejaVuSans-32"/>
       <use xlink:href="#DejaVuSans-30" x="63.623047"/>
       <use xlink:href="#DejaVuSans-32" x="127.246094"/>
       <use xlink:href="#DejaVuSans-32" x="190.869141"/>
       <use xlink:href="#DejaVuSans-2d" x="254.492188"/>
       <use xlink:href="#DejaVuSans-30" x="290.576172"/>
       <use xlink:href="#DejaVuSans-34" x="354.199219"/>
      </g>
     </g>
    </g>
    <g id="xtick_11">
     <g id="line2d_11">
      <g>
       <use xlink:href="#medef6cf4b8" x="1288.447885" y="368.3955" style="stroke: #000000; stroke-width: 0.8"/>
      </g>
     </g>
     <g id="text_11">
      <!-- 2022-07 -->
      <g transform="translate(1267.556479 382.993937)scale(0.1 -0.1)">
       <use xlink:href="#DejaVuSans-32"/>
       <use xlink:href="#DejaVuSans-30" x="63.623047"/>
       <use xlink:href="#DejaVuSans-32" x="127.246094"/>
       <use xlink:href="#DejaVuSans-32" x="190.869141"/>
       <use xlink:href="#DejaVuSans-2d" x="254.492188"/>
       <use xlink:href="#DejaVuSans-30" x="290.576172"/>
       <use xlink:href="#DejaVuSans-37" x="354.199219"/>
      </g>
     </g>
    </g>
   </g>
   <g id="matplotlib.axis_2">
    <g id="ytick_1">
     <g id="line2d_12">
      <defs>
       <path id="me76d9f3eba" d="M 0 0 
L -3.5 0 
" style="stroke: #000000; stroke-width: 0.8"/>
      </defs>
      <g>
       <use xlink:href="#me76d9f3eba" x="52.375" y="351.85408" style="stroke: #000000; stroke-width: 0.8"/>
      </g>
     </g>
     <g id="text_12">
      <!-- 0 -->
      <g transform="translate(39.0125 355.653299)scale(0.1 -0.1)">
       <use xlink:href="#DejaVuSans-30"/>
      </g>
     </g>
    </g>
    <g id="ytick_2">
     <g id="line2d_13">
      <g>
       <use xlink:href="#me76d9f3eba" x="52.375" y="289.999422" style="stroke: #000000; stroke-width: 0.8"/>
      </g>
     </g>
     <g id="text_13">
      <!-- 50000 -->
      <g transform="translate(13.5625 293.798641)scale(0.1 -0.1)">
       <defs>
        <path id="DejaVuSans-35" d="M 691 4666 
L 3169 4666 
L 3169 4134 
L 1269 4134 
L 1269 2991 
Q 1406 3038 1543 3061 
Q 1681 3084 1819 3084 
Q 2600 3084 3056 2656 
Q 3513 2228 3513 1497 
Q 3513 744 3044 326 
Q 2575 -91 1722 -91 
Q 1428 -91 1123 -41 
Q 819 9 494 109 
L 494 744 
Q 775 591 1075 516 
Q 1375 441 1709 441 
Q 2250 441 2565 725 
Q 2881 1009 2881 1497 
Q 2881 1984 2565 2268 
Q 2250 2553 1709 2553 
Q 1456 2553 1204 2497 
Q 953 2441 691 2322 
L 691 4666 
z
" transform="scale(0.015625)"/>
       </defs>
       <use xlink:href="#DejaVuSans-35"/>
       <use xlink:href="#DejaVuSans-30" x="63.623047"/>
       <use xlink:href="#DejaVuSans-30" x="127.246094"/>
       <use xlink:href="#DejaVuSans-30" x="190.869141"/>
       <use xlink:href="#DejaVuSans-30" x="254.492188"/>
      </g>
     </g>
    </g>
    <g id="ytick_3">
     <g id="line2d_14">
      <g>
       <use xlink:href="#me76d9f3eba" x="52.375" y="228.144764" style="stroke: #000000; stroke-width: 0.8"/>
      </g>
     </g>
     <g id="text_14">
      <!-- 100000 -->
      <g transform="translate(7.2 231.943983)scale(0.1 -0.1)">
       <use xlink:href="#DejaVuSans-31"/>
       <use xlink:href="#DejaVuSans-30" x="63.623047"/>
       <use xlink:href="#DejaVuSans-30" x="127.246094"/>
       <use xlink:href="#DejaVuSans-30" x="190.869141"/>
       <use xlink:href="#DejaVuSans-30" x="254.492188"/>
       <use xlink:href="#DejaVuSans-30" x="318.115234"/>
      </g>
     </g>
    </g>
    <g id="ytick_4">
     <g id="line2d_15">
      <g>
       <use xlink:href="#me76d9f3eba" x="52.375" y="166.290106" style="stroke: #000000; stroke-width: 0.8"/>
      </g>
     </g>
     <g id="text_15">
      <!-- 150000 -->
      <g transform="translate(7.2 170.089325)scale(0.1 -0.1)">
       <use xlink:href="#DejaVuSans-31"/>
       <use xlink:href="#DejaVuSans-35" x="63.623047"/>
       <use xlink:href="#DejaVuSans-30" x="127.246094"/>
       <use xlink:href="#DejaVuSans-30" x="190.869141"/>
       <use xlink:href="#DejaVuSans-30" x="254.492188"/>
       <use xlink:href="#DejaVuSans-30" x="318.115234"/>
      </g>
     </g>
    </g>
    <g id="ytick_5">
     <g id="line2d_16">
      <g>
       <use xlink:href="#me76d9f3eba" x="52.375" y="104.435448" style="stroke: #000000; stroke-width: 0.8"/>
      </g>
     </g>
     <g id="text_16">
      <!-- 200000 -->
      <g transform="translate(7.2 108.234667)scale(0.1 -0.1)">
       <use xlink:href="#DejaVuSans-32"/>
       <use xlink:href="#DejaVuSans-30" x="63.623047"/>
       <use xlink:href="#DejaVuSans-30" x="127.246094"/>
       <use xlink:href="#DejaVuSans-30" x="190.869141"/>
       <use xlink:href="#DejaVuSans-30" x="254.492188"/>
       <use xlink:href="#DejaVuSans-30" x="318.115234"/>
      </g>
     </g>
    </g>
    <g id="ytick_6">
     <g id="line2d_17">
      <g>
       <use xlink:href="#me76d9f3eba" x="52.375" y="42.58079" style="stroke: #000000; stroke-width: 0.8"/>
      </g>
     </g>
     <g id="text_17">
      <!-- 250000 -->
      <g transform="translate(7.2 46.380009)scale(0.1 -0.1)">
       <use xlink:href="#DejaVuSans-32"/>
       <use xlink:href="#DejaVuSans-35" x="63.623047"/>
       <use xlink:href="#DejaVuSans-30" x="127.246094"/>
       <use xlink:href="#DejaVuSans-30" x="190.869141"/>
       <use xlink:href="#DejaVuSans-30" x="254.492188"/>
       <use xlink:href="#DejaVuSans-30" x="318.115234"/>
      </g>
     </g>
    </g>
   </g>
   <g id="line2d_18">
    <path d="M 113.247727 351.85408 
L 187.192906 351.835524 
L 188.513355 351.554703 
L 193.795154 351.727896 
L 195.115603 350.472247 
L 196.436053 351.210792 
L 197.756503 351.318419 
L 201.717852 351.178627 
L 203.038301 350.941105 
L 206.99965 351.115535 
L 208.3201 351.324604 
L 209.640549 351.132855 
L 212.281448 351.387696 
L 214.922348 351.429757 
L 217.563247 351.427283 
L 218.883697 351.171205 
L 221.524596 351.36048 
L 224.165495 351.4879 
L 234.729092 351.547281 
L 237.369991 351.751401 
L 240.01089 351.657382 
L 241.33134 351.752638 
L 243.972239 351.710577 
L 246.613138 351.820678 
L 251.894937 351.778617 
L 255.856286 351.818204 
L 266.419883 351.820678 
L 278.303929 351.804596 
L 280.944828 351.714288 
L 282.265278 351.818204 
L 286.226627 351.704392 
L 291.508425 351.757587 
L 294.149325 351.63264 
L 303.392472 351.609136 
L 304.712922 351.482952 
L 307.353821 351.480478 
L 308.67427 351.470581 
L 309.99472 351.657382 
L 311.31517 351.640063 
L 313.956069 351.296151 
L 316.596968 351.21574 
L 320.558317 351.377799 
L 321.878767 350.9176 
L 323.199216 350.881725 
L 325.840115 350.436371 
L 328.481015 350.838426 
L 329.801464 350.826056 
L 332.442363 350.13452 
L 333.762813 350.212457 
L 335.083263 349.967513 
L 336.403712 350.111016 
L 337.724162 350.409155 
L 339.044612 350.322559 
L 340.365061 349.72628 
L 341.685511 349.869783 
L 343.00596 349.532056 
L 344.32641 349.455356 
L 345.64686 349.868545 
L 346.967309 350.062769 
L 348.287759 350.597193 
L 349.608208 349.519685 
L 352.249108 349.325462 
L 353.569557 349.392265 
L 354.890007 349.590199 
L 356.210457 350.478432 
L 357.530906 350.565029 
L 358.851356 349.320513 
L 360.171805 349.225257 
L 362.812705 349.643394 
L 364.133154 350.169159 
L 365.453604 351.080897 
L 366.774053 350.978218 
L 368.094503 349.627312 
L 372.055852 349.779475 
L 373.376302 349.671848 
L 374.696751 350.921312 
L 376.017201 350.711006 
L 377.33765 349.746073 
L 378.6581 349.598859 
L 379.97855 349.847515 
L 381.298999 349.821536 
L 382.619449 350.136995 
L 383.939898 350.9176 
L 385.260348 350.532864 
L 386.580798 349.812876 
L 389.221697 349.825247 
L 390.542147 350.014522 
L 391.862596 350.0071 
L 393.183046 350.974507 
L 394.503495 350.660285 
L 395.823945 349.503603 
L 399.785294 349.29206 
L 401.105743 349.587725 
L 402.426193 350.728325 
L 403.746643 350.49204 
L 405.067092 349.159691 
L 406.387542 349.068146 
L 407.707992 347.904042 
L 409.028441 348.562175 
L 410.348891 348.609185 
L 411.66934 349.992255 
L 412.98979 349.160928 
L 414.31024 347.662808 
L 415.630689 347.537862 
L 416.951139 346.910656 
L 418.271588 346.706535 
L 419.592038 346.936635 
L 420.912488 348.490424 
L 422.232937 347.926309 
L 423.553387 345.909847 
L 424.873837 345.001821 
L 426.194286 346.195616 
L 427.514736 345.192333 
L 428.835185 345.248002 
L 430.155635 347.141992 
L 431.476085 348.663617 
L 432.796534 347.071478 
L 434.116984 343.168449 
L 435.437433 343.039791 
L 436.757883 341.667855 
L 438.078333 341.474868 
L 440.719232 347.630644 
L 442.039682 350.420289 
L 444.680581 340.623748 
L 446.00103 342.290113 
L 447.32148 343.122676 
L 448.64193 348.646297 
L 449.962379 348.220737 
L 451.282829 344.77667 
L 452.603278 346.010052 
L 453.923728 346.701587 
L 455.244178 347.208795 
L 456.564627 348.188573 
L 457.885077 350.720903 
L 459.205527 349.817825 
L 460.525976 347.933732 
L 461.846426 348.96423 
L 463.166875 349.235154 
L 464.487325 349.859886 
L 465.807775 349.99844 
L 467.128224 351.345635 
L 469.769123 349.97741 
L 471.089573 350.378228 
L 472.410023 350.404207 
L 475.050922 350.803788 
L 476.371372 351.549755 
L 479.012271 350.76049 
L 480.33272 350.756778 
L 482.97362 351.057392 
L 484.294069 351.012857 
L 485.614519 351.572023 
L 486.934968 351.040073 
L 489.575868 350.807499 
L 490.896317 350.902755 
L 492.216767 351.148937 
L 493.537217 350.999249 
L 494.857666 351.591816 
L 496.178116 351.193472 
L 497.498565 350.96461 
L 498.819015 351.019042 
L 501.459914 350.81987 
L 502.780364 350.912652 
L 504.100813 351.492849 
L 506.741713 350.774098 
L 512.023511 350.89657 
L 513.343961 351.332027 
L 514.66441 350.907704 
L 515.98486 350.667708 
L 517.30531 350.793891 
L 518.625759 350.519256 
L 521.266658 350.5774 
L 522.587108 351.136566 
L 523.907558 350.586059 
L 525.228007 350.297817 
L 526.548457 350.372042 
L 527.868907 349.90071 
L 529.189356 350.07514 
L 530.509806 350.9943 
L 531.830255 349.720094 
L 533.150705 350.518019 
L 534.471155 349.514737 
L 535.791604 350.013285 
L 537.112054 349.397213 
L 538.432503 349.22402 
L 539.752953 350.775335 
L 541.073403 348.740316 
L 542.393852 350.13452 
L 543.714302 348.971653 
L 545.034752 350.463587 
L 546.355201 346.396025 
L 547.675651 348.225686 
L 548.9961 349.160928 
L 550.31655 348.471867 
L 551.637 349.535767 
L 552.957449 347.525491 
L 554.277899 346.62365 
L 555.598348 348.718049 
L 556.918798 346.094174 
L 558.239248 346.02366 
L 559.559697 346.567981 
L 560.880147 348.382797 
L 562.200597 344.660383 
L 563.521046 345.528823 
L 564.841496 346.675608 
L 566.161945 343.592772 
L 567.482395 345.361815 
L 568.802845 344.074001 
L 570.123294 343.512361 
L 571.443744 343.650915 
L 572.764193 341.999396 
L 574.084643 342.812166 
L 575.405093 342.452172 
L 576.725542 344.049259 
L 578.045992 341.862079 
L 579.366442 344.573787 
L 580.686891 339.787473 
L 582.007341 340.732612 
L 583.32779 339.48686 
L 584.64824 339.787473 
L 585.96869 345.377897 
L 587.289139 341.400643 
L 588.609589 341.722287 
L 589.930038 343.738749 
L 591.250488 342.724332 
L 592.570938 339.219648 
L 593.891387 343.161026 
L 595.211837 344.234823 
L 596.532287 345.751499 
L 597.852736 347.596005 
L 599.173186 347.318896 
L 600.493635 341.231161 
L 601.814085 337.09061 
L 603.134535 342.817114 
L 604.454984 345.549853 
L 605.775434 345.918507 
L 607.095883 346.106545 
L 608.416333 340.954052 
L 609.736783 342.288876 
L 611.057232 340.848899 
L 612.377682 343.511124 
L 613.698132 345.374186 
L 615.018581 346.006341 
L 616.339031 343.790707 
L 617.65948 346.377469 
L 618.97993 342.958143 
L 620.30038 344.41915 
L 621.620829 345.565935 
L 622.941279 346.987355 
L 624.261728 348.019091 
L 625.582178 348.719286 
L 626.902628 344.539148 
L 628.223077 346.556847 
L 629.543527 346.838904 
L 632.184426 348.663617 
L 633.504876 351.85408 
L 634.825325 345.012955 
L 636.145775 345.724283 
L 638.786674 346.678082 
L 640.107124 346.94282 
L 641.427573 348.075997 
L 642.748023 348.693307 
L 644.068473 348.795986 
L 645.388922 346.718906 
L 646.709372 345.34697 
L 648.029822 346.575403 
L 649.350271 347.002201 
L 650.670721 348.071049 
L 651.99117 347.818682 
L 653.31162 349.567932 
L 654.63207 347.473533 
L 655.952519 347.962185 
L 657.272969 347.858269 
L 658.593418 348.442177 
L 659.913868 349.444222 
L 662.554767 350.396784 
L 663.875217 349.459068 
L 665.195667 349.639683 
L 666.516116 350.029368 
L 667.836566 350.141943 
L 669.157015 350.558843 
L 670.477465 351.098216 
L 671.797915 351.171205 
L 673.118364 350.626884 
L 674.438814 350.709769 
L 675.759263 351.434705 
L 677.079713 350.843375 
L 678.400163 351.188524 
L 679.720612 351.85408 
L 681.041062 351.184813 
L 682.361512 351.605424 
L 683.681961 351.218214 
L 686.32286 351.41986 
L 687.64331 351.54357 
L 688.96376 351.405015 
L 690.284209 351.635114 
L 691.604659 351.413675 
L 699.527357 351.705629 
L 700.847806 351.575734 
L 702.168256 351.636352 
L 704.809155 351.468107 
L 706.129605 351.812019 
L 707.450054 351.919646 
L 708.770504 351.651197 
L 712.731853 351.687072 
L 714.052302 351.464396 
L 715.372752 351.748927 
L 777.433884 351.85408 
L 780.074783 351.825627 
L 786.677031 351.830575 
L 795.920178 351.673464 
L 797.240628 351.583157 
L 801.201977 351.773669 
L 802.522427 351.473055 
L 809.124675 351.511405 
L 810.445124 351.456973 
L 811.765574 351.240482 
L 813.086023 351.325841 
L 815.726923 351.098216 
L 817.047372 351.371614 
L 818.367822 351.319656 
L 821.008721 351.615321 
L 822.329171 350.276786 
L 823.64962 350.963373 
L 824.97007 350.676367 
L 826.29052 350.827293 
L 827.610969 350.785231 
L 828.931419 350.920075 
L 830.251868 350.344826 
L 831.572318 350.009574 
L 832.892768 350.47101 
L 834.213217 350.080088 
L 835.533667 350.628121 
L 836.854117 350.096171 
L 838.174566 350.302765 
L 839.495016 349.299483 
L 842.135915 348.974127 
L 843.456365 349.598859 
L 846.097264 348.544856 
L 847.417713 349.648343 
L 848.738163 347.092508 
L 850.058613 347.959711 
L 851.379062 348.182387 
L 852.699512 346.367572 
L 854.019962 348.261561 
L 855.340411 346.63231 
L 856.660861 347.949814 
L 857.98131 344.526777 
L 859.30176 346.702824 
L 860.62221 342.36805 
L 861.942659 343.782047 
L 863.263109 346.272316 
L 864.583558 344.899142 
L 865.904008 346.331696 
L 867.224458 341.093844 
L 868.544907 341.645587 
L 869.865357 344.576261 
L 871.185807 341.446415 
L 872.506256 342.444749 
L 873.826706 342.851753 
L 875.147155 345.625316 
L 877.788055 336.869171 
L 879.108504 343.686791 
L 880.428954 338.931405 
L 881.749403 343.996064 
L 883.069853 338.02709 
L 884.390303 344.667806 
L 885.710752 339.632837 
L 887.031202 345.836859 
L 888.351652 331.282458 
L 889.672101 334.658485 
L 890.992551 341.845996 
L 892.313 341.965994 
L 893.63345 346.123864 
L 894.9539 351.85408 
L 896.274349 351.85408 
L 897.594799 324.278036 
L 898.915248 344.375852 
L 900.235698 341.519404 
L 901.556148 337.756166 
L 902.876597 343.725141 
L 904.197047 337.256381 
L 905.517497 338.58007 
L 906.837946 342.663715 
L 908.158396 344.195236 
L 909.478845 348.093317 
L 910.799295 340.777148 
L 912.119745 342.288876 
L 913.440194 343.274839 
L 914.760644 342.949483 
L 916.081093 345.209653 
L 917.401543 343.543288 
L 918.721993 349.071857 
L 920.042442 344.004724 
L 921.362892 347.819919 
L 922.683342 346.876017 
L 924.003791 346.701587 
L 925.324241 348.297437 
L 926.64469 345.732943 
L 927.96514 347.707344 
L 929.28559 348.876397 
L 930.606039 349.191855 
L 931.926489 347.686313 
L 934.567388 349.075569 
L 935.887838 348.911035 
L 937.208287 349.616178 
L 939.849187 350.177819 
L 941.169636 349.183196 
L 943.810535 349.927926 
L 945.130985 349.858649 
L 946.451435 350.239673 
L 947.771884 350.488329 
L 949.092334 350.616987 
L 950.412783 350.071429 
L 951.733233 350.316373 
L 953.053683 350.739459 
L 954.374132 350.542761 
L 955.694582 350.701109 
L 957.015032 351.234296 
L 958.335481 351.007908 
L 959.655931 350.665233 
L 960.97638 350.793891 
L 962.29683 351.113061 
L 963.61728 351.019042 
L 967.578628 351.443365 
L 968.899078 350.913889 
L 970.219528 347.673942 
L 971.539977 351.049969 
L 975.501326 351.430994 
L 976.821776 351.379036 
L 978.142225 350.892859 
L 979.462675 351.336975 
L 982.103574 351.210792 
L 984.744473 351.489137 
L 986.064923 351.473055 
L 987.385373 351.122958 
L 988.705822 351.294914 
L 990.026272 351.136566 
L 991.346722 351.303574 
L 992.667171 351.278832 
L 993.987621 351.407489 
L 995.30807 351.41986 
L 996.62852 350.986878 
L 997.94897 353.2755 
L 999.269419 351.242956 
L 1000.589869 351.103164 
L 1003.230768 351.433468 
L 1004.551218 351.447076 
L 1005.871667 350.906467 
L 1007.192117 351.007908 
L 1008.512567 351.306048 
L 1009.833016 351.155122 
L 1011.153466 351.340686 
L 1012.473915 351.409964 
L 1013.794365 351.268935 
L 1015.114815 350.920075 
L 1016.435264 350.859457 
L 1017.755714 350.920075 
L 1019.076163 351.1477 
L 1020.396613 351.13038 
L 1021.717063 351.413675 
L 1023.037512 351.267698 
L 1024.357962 350.864405 
L 1025.678412 350.912652 
L 1026.998861 351.078423 
L 1028.319311 350.767912 
L 1029.63976 350.963373 
L 1030.96021 350.993063 
L 1032.28066 350.871828 
L 1033.601109 350.176582 
L 1034.921559 350.468536 
L 1036.242008 350.369568 
L 1037.562458 349.695352 
L 1038.882908 350.182767 
L 1040.203357 350.054109 
L 1041.523807 350.318847 
L 1042.844257 348.085894 
L 1044.164706 348.148986 
L 1045.485156 347.591057 
L 1046.805605 344.926358 
L 1048.126055 347.046736 
L 1049.446505 344.281833 
L 1050.766954 345.594389 
L 1052.087404 339.726856 
L 1053.407853 343.340405 
L 1054.728303 330.536491 
L 1056.048753 327.832205 
L 1057.369202 333.613141 
L 1058.689652 324.145667 
L 1060.010102 330.216084 
L 1061.330551 284.413946 
L 1062.651001 312.883171 
L 1063.97145 252.239628 
L 1065.2919 319.834398 
L 1066.61235 322.810844 
L 1067.932799 284.25065 
L 1069.253249 328.966619 
L 1070.573698 351.85408 
L 1071.894148 351.85408 
L 1073.214598 50.8755 
L 1074.535047 267.097116 
L 1075.855497 272.592284 
L 1077.175947 296.704467 
L 1078.496396 351.85408 
L 1079.816846 89.300851 
L 1081.137295 252.091176 
L 1082.457745 235.588354 
L 1083.778195 277.293238 
L 1085.098644 295.719741 
L 1086.419094 285.14012 
L 1087.739543 263.859644 
L 1089.059993 264.744165 
L 1090.380443 270.360568 
L 1091.700892 264.402728 
L 1093.021342 279.265165 
L 1094.341792 332.693981 
L 1095.662241 312.872037 
L 1096.982691 285.385065 
L 1098.30314 288.913254 
L 1099.62359 303.788062 
L 1100.94404 314.796954 
L 1102.264489 312.982139 
L 1103.584939 318.394421 
L 1104.905388 327.036754 
L 1106.225838 313.086055 
L 1107.546288 320.394801 
L 1108.866737 323.903197 
L 1110.187187 329.786812 
L 1111.507637 327.223555 
L 1112.828086 337.517407 
L 1114.148536 337.506274 
L 1115.468985 329.83011 
L 1118.109885 339.350779 
L 1119.430334 336.501754 
L 1120.750784 336.302582 
L 1122.071233 344.917699 
L 1123.391683 342.303721 
L 1124.712133 338.847282 
L 1126.032582 341.010958 
L 1127.353032 341.719813 
L 1128.673482 341.302912 
L 1129.993931 348.91351 
L 1131.314381 341.384561 
L 1132.63483 343.135047 
L 1133.95528 346.916841 
L 1135.27573 342.540006 
L 1136.596179 342.620417 
L 1137.916629 348.293726 
L 1139.237078 335.604861 
L 1140.557528 347.69621 
L 1141.877978 345.161406 
L 1143.198427 343.74246 
L 1144.518877 344.468634 
L 1145.839327 342.981648 
L 1147.159776 345.958094 
L 1148.480226 341.888057 
L 1149.800675 344.875637 
L 1151.121125 342.073621 
L 1152.441575 334.778483 
L 1153.762024 335.703829 
L 1155.082474 332.282029 
L 1156.402923 335.770632 
L 1157.723373 347.61085 
L 1159.043823 330.037942 
L 1160.364272 336.611855 
L 1161.684722 331.894819 
L 1163.005172 337.049786 
L 1164.325621 329.562898 
L 1165.646071 339.280265 
L 1166.96652 334.625084 
L 1168.28697 341.231161 
L 1169.60742 341.608474 
L 1170.927869 338.006059 
L 1172.248319 337.993688 
L 1173.568768 339.185009 
L 1174.889218 343.143707 
L 1176.209668 342.266608 
L 1177.530117 345.293775 
L 1178.850567 344.817494 
L 1180.171017 346.483859 
L 1181.491466 340.731375 
L 1184.132365 347.253331 
L 1185.452815 344.712341 
L 1186.773265 347.82363 
L 1188.093714 347.990638 
L 1189.414164 348.528774 
L 1190.734613 345.76387 
L 1192.055063 346.584063 
L 1193.375513 346.843853 
L 1194.695962 348.515166 
L 1196.016412 351.85408 
L 1197.336862 343.628648 
L 1198.657311 347.61085 
L 1199.977761 346.279738 
L 1201.29821 347.22364 
L 1202.61866 349.793083 
L 1203.93911 347.148178 
L 1205.259559 348.602999 
L 1206.580009 349.38979 
L 1207.900458 349.686693 
L 1209.220908 348.607948 
L 1210.541358 348.793511 
L 1211.861807 348.814542 
L 1213.182257 350.310188 
L 1214.502707 350.346063 
L 1215.823156 348.767533 
L 1217.143606 349.783186 
L 1218.464055 347.675179 
L 1219.784505 348.870211 
L 1221.104955 349.064435 
L 1222.425404 349.464016 
L 1223.745854 349.065672 
L 1225.066303 350.514308 
L 1226.386753 348.103214 
L 1227.707203 349.133712 
L 1229.027652 349.084228 
L 1230.348102 349.221546 
L 1231.668552 349.241339 
L 1234.309451 349.826484 
L 1235.6299 349.753496 
L 1236.95035 348.480527 
L 1238.2708 349.405873 
L 1239.591249 350.647914 
L 1240.911699 348.293726 
L 1242.232148 351.85408 
L 1243.552598 348.353106 
L 1244.873048 350.353486 
L 1246.193497 348.911035 
L 1247.513947 350.342352 
L 1248.834397 345.422433 
L 1250.154846 348.808357 
L 1251.475296 351.85408 
L 1252.795745 351.85408 
L 1254.116195 344.676465 
L 1255.436645 348.66238 
L 1256.757094 345.630264 
L 1258.077544 345.81088 
L 1259.397993 345.846756 
L 1260.718443 344.043074 
L 1262.038893 346.737463 
L 1263.359342 347.280547 
L 1264.679792 343.970085 
L 1266.000242 341.531775 
L 1267.320691 342.919793 
L 1268.641141 346.722618 
L 1269.96159 338.295539 
L 1271.28204 344.77667 
L 1272.60249 342.558562 
L 1273.922939 338.624606 
L 1275.243389 338.655533 
L 1276.563838 338.55904 
L 1277.884288 339.585827 
L 1279.204738 339.066248 
L 1280.525187 343.256283 
L 1281.845637 341.305387 
L 1283.166087 333.786334 
L 1284.486536 336.357014 
L 1285.806986 339.52521 
L 1287.127435 334.12035 
L 1288.447885 342.345782 
L 1289.768335 342.353205 
L 1291.088784 340.498802 
L 1292.409234 334.909615 
L 1293.729683 335.847332 
L 1295.050133 338.432856 
L 1296.370583 339.161504 
L 1297.691032 338.65677 
L 1299.011482 344.077712 
L 1300.331932 342.736703 
L 1301.652381 336.207326 
L 1302.972831 339.705825 
L 1304.29328 339.519024 
L 1305.61373 342.822063 
L 1306.93418 341.165595 
L 1308.254629 351.85408 
L 1309.575079 338.951198 
L 1310.895528 339.421294 
L 1312.215978 343.274839 
L 1313.536428 344.135856 
L 1313.536428 344.135856 
" clip-path="url(#p4b8496d0f7)" style="fill: none; stroke: #0000ff; stroke-width: 1.5; stroke-linecap: square"/>
   </g>
   <g id="line2d_19">
    <path d="M 1074.535047 321.572239 
L 1075.855497 292.193973 
L 1077.175947 308.683248 
L 1078.496396 189.822388 
L 1079.816846 246.569023 
L 1081.137295 200.982256 
L 1082.457745 257.837988 
L 1083.778195 281.269617 
L 1085.098644 179.913542 
L 1086.419094 258.556116 
L 1087.739543 231.200088 
L 1089.059993 280.094015 
L 1090.380443 257.592794 
L 1091.700892 282.113669 
L 1093.021342 266.963338 
L 1094.341792 301.032758 
L 1095.662241 283.458879 
L 1096.982691 279.031222 
L 1098.30314 289.232082 
L 1099.62359 303.337944 
L 1100.94404 308.645463 
L 1102.264489 311.907365 
L 1103.584939 313.986766 
L 1104.905388 311.228298 
L 1106.225838 316.055693 
L 1107.546288 320.324634 
L 1108.866737 316.764139 
L 1110.187187 325.277093 
L 1111.507637 327.986369 
L 1112.828086 334.352893 
L 1114.148536 328.396374 
L 1115.468985 332.32317 
L 1116.789435 333.546506 
L 1118.109885 338.113627 
L 1119.430334 337.244114 
L 1120.750784 340.299257 
L 1122.071233 341.930801 
L 1123.391683 339.828482 
L 1124.712133 339.956068 
L 1127.353032 343.219796 
L 1128.673482 342.104399 
L 1129.993931 345.412718 
L 1131.314381 343.900327 
L 1132.63483 343.198138 
L 1133.95528 343.759918 
L 1135.27573 347.116576 
L 1136.596179 343.12958 
L 1137.916629 345.860426 
L 1139.237078 345.232502 
L 1140.557528 345.382821 
L 1141.877978 343.743583 
L 1143.198427 345.927398 
L 1144.518877 340.023858 
L 1145.839327 346.503804 
L 1147.159776 343.179355 
L 1148.480226 344.846006 
L 1149.800675 344.946533 
L 1151.121125 343.783203 
L 1152.441575 343.608842 
L 1153.762024 342.525443 
L 1155.082474 341.976414 
L 1156.402923 338.76181 
L 1157.723373 337.226252 
L 1159.043823 334.413767 
L 1160.364272 333.542191 
L 1161.684722 333.110363 
L 1163.005172 338.963377 
L 1164.325621 331.389255 
L 1165.646071 337.794073 
L 1166.96652 331.178946 
L 1168.28697 336.797535 
L 1169.60742 331.93321 
L 1170.927869 337.972711 
L 1172.248319 333.330306 
L 1173.568768 341.297946 
L 1174.889218 340.635716 
L 1176.209668 340.994339 
L 1177.530117 341.168811 
L 1178.850567 341.500054 
L 1180.171017 343.215355 
L 1181.491466 342.731231 
L 1182.811916 346.06607 
L 1184.132365 345.038502 
L 1185.452815 347.227899 
L 1186.773265 345.088666 
L 1188.093714 346.398012 
L 1189.414164 346.088484 
L 1190.734613 346.168088 
L 1192.055063 348.334256 
L 1193.375513 347.619822 
L 1194.695962 348.974219 
L 1197.336862 348.032594 
L 1198.657311 347.364498 
L 1199.977761 347.940929 
L 1201.29821 349.431016 
L 1202.61866 346.275915 
L 1203.93911 348.377983 
L 1205.259559 346.621079 
L 1206.580009 348.13639 
L 1207.900458 348.522407 
L 1209.220908 347.972044 
L 1210.541358 348.82872 
L 1213.182257 350.095833 
L 1214.502707 349.435571 
L 1215.823156 349.70104 
L 1217.143606 349.087942 
L 1218.464055 349.827319 
L 1219.784505 349.93485 
L 1221.104955 349.31857 
L 1222.425404 349.677703 
L 1223.745854 348.43066 
L 1225.066303 349.368914 
L 1226.386753 348.506848 
L 1227.707203 349.30223 
L 1229.027652 348.892029 
L 1230.348102 349.976476 
L 1231.668552 348.740816 
L 1232.989001 349.686116 
L 1234.309451 348.995772 
L 1235.6299 349.255491 
L 1236.95035 349.139108 
L 1238.2708 349.507907 
L 1242.232148 349.684424 
L 1243.552598 349.321808 
L 1244.873048 350.136109 
L 1246.193497 349.008303 
L 1247.513947 351.020245 
L 1248.834397 348.340113 
L 1250.154846 350.529575 
L 1251.475296 348.74605 
L 1252.795745 349.96233 
L 1254.116195 346.839307 
L 1255.436645 349.579348 
L 1256.757094 348.341396 
L 1258.077544 349.874219 
L 1259.397993 346.892366 
L 1260.718443 347.878348 
L 1262.038893 344.796953 
L 1263.359342 346.03459 
L 1266.000242 343.446879 
L 1267.320691 344.555559 
L 1268.641141 345.413793 
L 1269.96159 343.454787 
L 1271.28204 343.183623 
L 1272.60249 342.077046 
L 1273.922939 342.981163 
L 1275.243389 339.810229 
L 1276.563838 342.439937 
L 1277.884288 339.256497 
L 1279.204738 339.555738 
L 1280.525187 339.196203 
L 1281.845637 337.940459 
L 1283.166087 337.63845 
L 1285.806986 339.980866 
L 1287.127435 338.193903 
L 1288.447885 337.860874 
L 1289.768335 337.365282 
L 1291.088784 337.444507 
L 1292.409234 335.731377 
L 1293.729683 340.340853 
L 1295.050133 338.511127 
L 1296.370583 339.938864 
L 1297.691032 338.418647 
L 1299.011482 338.539253 
L 1300.331932 337.245198 
L 1301.652381 338.931939 
L 1302.972831 339.342782 
L 1304.29328 340.920654 
L 1305.61373 341.591813 
L 1306.93418 340.7583 
L 1308.254629 342.712037 
L 1309.575079 339.176793 
L 1310.895528 343.194707 
L 1312.215978 342.018889 
L 1313.536428 346.775833 
L 1313.536428 346.775833 
" clip-path="url(#p4b8496d0f7)" style="fill: none; stroke: #ffa500; stroke-width: 1.5; stroke-linecap: square"/>
   </g>
   <g id="line2d_20">
    <path d="M 1313.536428 346.775833 
L 1314.856877 341.643331 
L 1316.177327 345.098886 
L 1317.497777 343.340678 
L 1318.818226 343.408132 
L 1320.138676 345.299888 
L 1321.459125 343.653496 
L 1322.779575 344.301596 
L 1324.100025 343.825079 
L 1325.420474 345.596328 
L 1326.740924 344.648866 
L 1328.061373 343.847087 
L 1329.381823 344.360323 
L 1330.702273 344.447324 
" clip-path="url(#p4b8496d0f7)" style="fill: none; stroke: #ff0000; stroke-width: 1.5; stroke-linecap: square"/>
   </g>
   <g id="patch_3">
    <path d="M 52.375 368.3955 
L 52.375 35.7555 
" style="fill: none; stroke: #000000; stroke-width: 0.8; stroke-linejoin: miter; stroke-linecap: square"/>
   </g>
   <g id="patch_4">
    <path d="M 1391.575 368.3955 
L 1391.575 35.7555 
" style="fill: none; stroke: #000000; stroke-width: 0.8; stroke-linejoin: miter; stroke-linecap: square"/>
   </g>
   <g id="patch_5">
    <path d="M 52.375 368.3955 
L 1391.575 368.3955 
" style="fill: none; stroke: #000000; stroke-width: 0.8; stroke-linejoin: miter; stroke-linecap: square"/>
   </g>
   <g id="patch_6">
    <path d="M 52.375 35.7555 
L 1391.575 35.7555 
" style="fill: none; stroke: #000000; stroke-width: 0.8; stroke-linejoin: miter; stroke-linecap: square"/>
   </g>
   <g id="text_18">
    <!-- Daily Confirmed Cases Forecasting - Israel -->
    <g transform="translate(595.076875 16.318125)scale(0.12 -0.12)">
     <defs>
      <path id="DejaVuSans-44" d="M 1259 4147 
L 1259 519 
L 2022 519 
Q 2988 519 3436 956 
Q 3884 1394 3884 2338 
Q 3884 3275 3436 3711 
Q 2988 4147 2022 4147 
L 1259 4147 
z
M 628 4666 
L 1925 4666 
Q 3281 4666 3915 4102 
Q 4550 3538 4550 2338 
Q 4550 1131 3912 565 
Q 3275 0 1925 0 
L 628 0 
L 628 4666 
z
" transform="scale(0.015625)"/>
      <path id="DejaVuSans-61" d="M 2194 1759 
Q 1497 1759 1228 1600 
Q 959 1441 959 1056 
Q 959 750 1161 570 
Q 1363 391 1709 391 
Q 2188 391 2477 730 
Q 2766 1069 2766 1631 
L 2766 1759 
L 2194 1759 
z
M 3341 1997 
L 3341 0 
L 2766 0 
L 2766 531 
Q 2569 213 2275 61 
Q 1981 -91 1556 -91 
Q 1019 -91 701 211 
Q 384 513 384 1019 
Q 384 1609 779 1909 
Q 1175 2209 1959 2209 
L 2766 2209 
L 2766 2266 
Q 2766 2663 2505 2880 
Q 2244 3097 1772 3097 
Q 1472 3097 1187 3025 
Q 903 2953 641 2809 
L 641 3341 
Q 956 3463 1253 3523 
Q 1550 3584 1831 3584 
Q 2591 3584 2966 3190 
Q 3341 2797 3341 1997 
z
" transform="scale(0.015625)"/>
      <path id="DejaVuSans-69" d="M 603 3500 
L 1178 3500 
L 1178 0 
L 603 0 
L 603 3500 
z
M 603 4863 
L 1178 4863 
L 1178 4134 
L 603 4134 
L 603 4863 
z
" transform="scale(0.015625)"/>
      <path id="DejaVuSans-6c" d="M 603 4863 
L 1178 4863 
L 1178 0 
L 603 0 
L 603 4863 
z
" transform="scale(0.015625)"/>
      <path id="DejaVuSans-79" d="M 2059 -325 
Q 1816 -950 1584 -1140 
Q 1353 -1331 966 -1331 
L 506 -1331 
L 506 -850 
L 844 -850 
Q 1081 -850 1212 -737 
Q 1344 -625 1503 -206 
L 1606 56 
L 191 3500 
L 800 3500 
L 1894 763 
L 2988 3500 
L 3597 3500 
L 2059 -325 
z
" transform="scale(0.015625)"/>
      <path id="DejaVuSans-20" transform="scale(0.015625)"/>
      <path id="DejaVuSans-43" d="M 4122 4306 
L 4122 3641 
Q 3803 3938 3442 4084 
Q 3081 4231 2675 4231 
Q 1875 4231 1450 3742 
Q 1025 3253 1025 2328 
Q 1025 1406 1450 917 
Q 1875 428 2675 428 
Q 3081 428 3442 575 
Q 3803 722 4122 1019 
L 4122 359 
Q 3791 134 3420 21 
Q 3050 -91 2638 -91 
Q 1578 -91 968 557 
Q 359 1206 359 2328 
Q 359 3453 968 4101 
Q 1578 4750 2638 4750 
Q 3056 4750 3426 4639 
Q 3797 4528 4122 4306 
z
" transform="scale(0.015625)"/>
      <path id="DejaVuSans-6f" d="M 1959 3097 
Q 1497 3097 1228 2736 
Q 959 2375 959 1747 
Q 959 1119 1226 758 
Q 1494 397 1959 397 
Q 2419 397 2687 759 
Q 2956 1122 2956 1747 
Q 2956 2369 2687 2733 
Q 2419 3097 1959 3097 
z
M 1959 3584 
Q 2709 3584 3137 3096 
Q 3566 2609 3566 1747 
Q 3566 888 3137 398 
Q 2709 -91 1959 -91 
Q 1206 -91 779 398 
Q 353 888 353 1747 
Q 353 2609 779 3096 
Q 1206 3584 1959 3584 
z
" transform="scale(0.015625)"/>
      <path id="DejaVuSans-6e" d="M 3513 2113 
L 3513 0 
L 2938 0 
L 2938 2094 
Q 2938 2591 2744 2837 
Q 2550 3084 2163 3084 
Q 1697 3084 1428 2787 
Q 1159 2491 1159 1978 
L 1159 0 
L 581 0 
L 581 3500 
L 1159 3500 
L 1159 2956 
Q 1366 3272 1645 3428 
Q 1925 3584 2291 3584 
Q 2894 3584 3203 3211 
Q 3513 2838 3513 2113 
z
" transform="scale(0.015625)"/>
      <path id="DejaVuSans-66" d="M 2375 4863 
L 2375 4384 
L 1825 4384 
Q 1516 4384 1395 4259 
Q 1275 4134 1275 3809 
L 1275 3500 
L 2222 3500 
L 2222 3053 
L 1275 3053 
L 1275 0 
L 697 0 
L 697 3053 
L 147 3053 
L 147 3500 
L 697 3500 
L 697 3744 
Q 697 4328 969 4595 
Q 1241 4863 1831 4863 
L 2375 4863 
z
" transform="scale(0.015625)"/>
      <path id="DejaVuSans-72" d="M 2631 2963 
Q 2534 3019 2420 3045 
Q 2306 3072 2169 3072 
Q 1681 3072 1420 2755 
Q 1159 2438 1159 1844 
L 1159 0 
L 581 0 
L 581 3500 
L 1159 3500 
L 1159 2956 
Q 1341 3275 1631 3429 
Q 1922 3584 2338 3584 
Q 2397 3584 2469 3576 
Q 2541 3569 2628 3553 
L 2631 2963 
z
" transform="scale(0.015625)"/>
      <path id="DejaVuSans-6d" d="M 3328 2828 
Q 3544 3216 3844 3400 
Q 4144 3584 4550 3584 
Q 5097 3584 5394 3201 
Q 5691 2819 5691 2113 
L 5691 0 
L 5113 0 
L 5113 2094 
Q 5113 2597 4934 2840 
Q 4756 3084 4391 3084 
Q 3944 3084 3684 2787 
Q 3425 2491 3425 1978 
L 3425 0 
L 2847 0 
L 2847 2094 
Q 2847 2600 2669 2842 
Q 2491 3084 2119 3084 
Q 1678 3084 1418 2786 
Q 1159 2488 1159 1978 
L 1159 0 
L 581 0 
L 581 3500 
L 1159 3500 
L 1159 2956 
Q 1356 3278 1631 3431 
Q 1906 3584 2284 3584 
Q 2666 3584 2933 3390 
Q 3200 3197 3328 2828 
z
" transform="scale(0.015625)"/>
      <path id="DejaVuSans-65" d="M 3597 1894 
L 3597 1613 
L 953 1613 
Q 991 1019 1311 708 
Q 1631 397 2203 397 
Q 2534 397 2845 478 
Q 3156 559 3463 722 
L 3463 178 
Q 3153 47 2828 -22 
Q 2503 -91 2169 -91 
Q 1331 -91 842 396 
Q 353 884 353 1716 
Q 353 2575 817 3079 
Q 1281 3584 2069 3584 
Q 2775 3584 3186 3129 
Q 3597 2675 3597 1894 
z
M 3022 2063 
Q 3016 2534 2758 2815 
Q 2500 3097 2075 3097 
Q 1594 3097 1305 2825 
Q 1016 2553 972 2059 
L 3022 2063 
z
" transform="scale(0.015625)"/>
      <path id="DejaVuSans-64" d="M 2906 2969 
L 2906 4863 
L 3481 4863 
L 3481 0 
L 2906 0 
L 2906 525 
Q 2725 213 2448 61 
Q 2172 -91 1784 -91 
Q 1150 -91 751 415 
Q 353 922 353 1747 
Q 353 2572 751 3078 
Q 1150 3584 1784 3584 
Q 2172 3584 2448 3432 
Q 2725 3281 2906 2969 
z
M 947 1747 
Q 947 1113 1208 752 
Q 1469 391 1925 391 
Q 2381 391 2643 752 
Q 2906 1113 2906 1747 
Q 2906 2381 2643 2742 
Q 2381 3103 1925 3103 
Q 1469 3103 1208 2742 
Q 947 2381 947 1747 
z
" transform="scale(0.015625)"/>
      <path id="DejaVuSans-73" d="M 2834 3397 
L 2834 2853 
Q 2591 2978 2328 3040 
Q 2066 3103 1784 3103 
Q 1356 3103 1142 2972 
Q 928 2841 928 2578 
Q 928 2378 1081 2264 
Q 1234 2150 1697 2047 
L 1894 2003 
Q 2506 1872 2764 1633 
Q 3022 1394 3022 966 
Q 3022 478 2636 193 
Q 2250 -91 1575 -91 
Q 1294 -91 989 -36 
Q 684 19 347 128 
L 347 722 
Q 666 556 975 473 
Q 1284 391 1588 391 
Q 1994 391 2212 530 
Q 2431 669 2431 922 
Q 2431 1156 2273 1281 
Q 2116 1406 1581 1522 
L 1381 1569 
Q 847 1681 609 1914 
Q 372 2147 372 2553 
Q 372 3047 722 3315 
Q 1072 3584 1716 3584 
Q 2034 3584 2315 3537 
Q 2597 3491 2834 3397 
z
" transform="scale(0.015625)"/>
      <path id="DejaVuSans-46" d="M 628 4666 
L 3309 4666 
L 3309 4134 
L 1259 4134 
L 1259 2759 
L 3109 2759 
L 3109 2228 
L 1259 2228 
L 1259 0 
L 628 0 
L 628 4666 
z
" transform="scale(0.015625)"/>
      <path id="DejaVuSans-63" d="M 3122 3366 
L 3122 2828 
Q 2878 2963 2633 3030 
Q 2388 3097 2138 3097 
Q 1578 3097 1268 2742 
Q 959 2388 959 1747 
Q 959 1106 1268 751 
Q 1578 397 2138 397 
Q 2388 397 2633 464 
Q 2878 531 3122 666 
L 3122 134 
Q 2881 22 2623 -34 
Q 2366 -91 2075 -91 
Q 1284 -91 818 406 
Q 353 903 353 1747 
Q 353 2603 823 3093 
Q 1294 3584 2113 3584 
Q 2378 3584 2631 3529 
Q 2884 3475 3122 3366 
z
" transform="scale(0.015625)"/>
      <path id="DejaVuSans-74" d="M 1172 4494 
L 1172 3500 
L 2356 3500 
L 2356 3053 
L 1172 3053 
L 1172 1153 
Q 1172 725 1289 603 
Q 1406 481 1766 481 
L 2356 481 
L 2356 0 
L 1766 0 
Q 1100 0 847 248 
Q 594 497 594 1153 
L 594 3053 
L 172 3053 
L 172 3500 
L 594 3500 
L 594 4494 
L 1172 4494 
z
" transform="scale(0.015625)"/>
      <path id="DejaVuSans-67" d="M 2906 1791 
Q 2906 2416 2648 2759 
Q 2391 3103 1925 3103 
Q 1463 3103 1205 2759 
Q 947 2416 947 1791 
Q 947 1169 1205 825 
Q 1463 481 1925 481 
Q 2391 481 2648 825 
Q 2906 1169 2906 1791 
z
M 3481 434 
Q 3481 -459 3084 -895 
Q 2688 -1331 1869 -1331 
Q 1566 -1331 1297 -1286 
Q 1028 -1241 775 -1147 
L 775 -588 
Q 1028 -725 1275 -790 
Q 1522 -856 1778 -856 
Q 2344 -856 2625 -561 
Q 2906 -266 2906 331 
L 2906 616 
Q 2728 306 2450 153 
Q 2172 0 1784 0 
Q 1141 0 747 490 
Q 353 981 353 1791 
Q 353 2603 747 3093 
Q 1141 3584 1784 3584 
Q 2172 3584 2450 3431 
Q 2728 3278 2906 2969 
L 2906 3500 
L 3481 3500 
L 3481 434 
z
" transform="scale(0.015625)"/>
      <path id="DejaVuSans-49" d="M 628 4666 
L 1259 4666 
L 1259 0 
L 628 0 
L 628 4666 
z
" transform="scale(0.015625)"/>
     </defs>
     <use xlink:href="#DejaVuSans-44"/>
     <use xlink:href="#DejaVuSans-61" x="77.001953"/>
     <use xlink:href="#DejaVuSans-69" x="138.28125"/>
     <use xlink:href="#DejaVuSans-6c" x="166.064453"/>
     <use xlink:href="#DejaVuSans-79" x="193.847656"/>
     <use xlink:href="#DejaVuSans-20" x="253.027344"/>
     <use xlink:href="#DejaVuSans-43" x="284.814453"/>
     <use xlink:href="#DejaVuSans-6f" x="354.638672"/>
     <use xlink:href="#DejaVuSans-6e" x="415.820312"/>
     <use xlink:href="#DejaVuSans-66" x="479.199219"/>
     <use xlink:href="#DejaVuSans-69" x="514.404297"/>
     <use xlink:href="#DejaVuSans-72" x="542.1875"/>
     <use xlink:href="#DejaVuSans-6d" x="581.550781"/>
     <use xlink:href="#DejaVuSans-65" x="678.962891"/>
     <use xlink:href="#DejaVuSans-64" x="740.486328"/>
     <use xlink:href="#DejaVuSans-20" x="803.962891"/>
     <use xlink:href="#DejaVuSans-43" x="835.75"/>
     <use xlink:href="#DejaVuSans-61" x="905.574219"/>
     <use xlink:href="#DejaVuSans-73" x="966.853516"/>
     <use xlink:href="#DejaVuSans-65" x="1018.953125"/>
     <use xlink:href="#DejaVuSans-73" x="1080.476562"/>
     <use xlink:href="#DejaVuSans-20" x="1132.576172"/>
     <use xlink:href="#DejaVuSans-46" x="1164.363281"/>
     <use xlink:href="#DejaVuSans-6f" x="1218.257812"/>
     <use xlink:href="#DejaVuSans-72" x="1279.439453"/>
     <use xlink:href="#DejaVuSans-65" x="1318.302734"/>
     <use xlink:href="#DejaVuSans-63" x="1379.826172"/>
     <use xlink:href="#DejaVuSans-61" x="1434.806641"/>
     <use xlink:href="#DejaVuSans-73" x="1496.085938"/>
     <use xlink:href="#DejaVuSans-74" x="1548.185547"/>
     <use xlink:href="#DejaVuSans-69" x="1587.394531"/>
     <use xlink:href="#DejaVuSans-6e" x="1615.177734"/>
     <use xlink:href="#DejaVuSans-67" x="1678.556641"/>
     <use xlink:href="#DejaVuSans-20" x="1742.033203"/>
     <use xlink:href="#DejaVuSans-2d" x="1773.820312"/>
     <use xlink:href="#DejaVuSans-20" x="1809.904297"/>
     <use xlink:href="#DejaVuSans-49" x="1841.691406"/>
     <use xlink:href="#DejaVuSans-73" x="1871.183594"/>
     <use xlink:href="#DejaVuSans-72" x="1923.283203"/>
     <use xlink:href="#DejaVuSans-61" x="1964.396484"/>
     <use xlink:href="#DejaVuSans-65" x="2025.675781"/>
     <use xlink:href="#DejaVuSans-6c" x="2087.199219"/>
    </g>
    <!-- ARIMA (4, 1, 1)x(1, 0, 1, 7) (R2 = 0.449970) -->
    <g transform="translate(589.990937 29.7555)scale(0.12 -0.12)">
     <defs>
      <path id="DejaVuSans-41" d="M 2188 4044 
L 1331 1722 
L 3047 1722 
L 2188 4044 
z
M 1831 4666 
L 2547 4666 
L 4325 0 
L 3669 0 
L 3244 1197 
L 1141 1197 
L 716 0 
L 50 0 
L 1831 4666 
z
" transform="scale(0.015625)"/>
      <path id="DejaVuSans-52" d="M 2841 2188 
Q 3044 2119 3236 1894 
Q 3428 1669 3622 1275 
L 4263 0 
L 3584 0 
L 2988 1197 
Q 2756 1666 2539 1819 
Q 2322 1972 1947 1972 
L 1259 1972 
L 1259 0 
L 628 0 
L 628 4666 
L 2053 4666 
Q 2853 4666 3247 4331 
Q 3641 3997 3641 3322 
Q 3641 2881 3436 2590 
Q 3231 2300 2841 2188 
z
M 1259 4147 
L 1259 2491 
L 2053 2491 
Q 2509 2491 2742 2702 
Q 2975 2913 2975 3322 
Q 2975 3731 2742 3939 
Q 2509 4147 2053 4147 
L 1259 4147 
z
" transform="scale(0.015625)"/>
      <path id="DejaVuSans-4d" d="M 628 4666 
L 1569 4666 
L 2759 1491 
L 3956 4666 
L 4897 4666 
L 4897 0 
L 4281 0 
L 4281 4097 
L 3078 897 
L 2444 897 
L 1241 4097 
L 1241 0 
L 628 0 
L 628 4666 
z
" transform="scale(0.015625)"/>
      <path id="DejaVuSans-28" d="M 1984 4856 
Q 1566 4138 1362 3434 
Q 1159 2731 1159 2009 
Q 1159 1288 1364 580 
Q 1569 -128 1984 -844 
L 1484 -844 
Q 1016 -109 783 600 
Q 550 1309 550 2009 
Q 550 2706 781 3412 
Q 1013 4119 1484 4856 
L 1984 4856 
z
" transform="scale(0.015625)"/>
      <path id="DejaVuSans-2c" d="M 750 794 
L 1409 794 
L 1409 256 
L 897 -744 
L 494 -744 
L 750 256 
L 750 794 
z
" transform="scale(0.015625)"/>
      <path id="DejaVuSans-29" d="M 513 4856 
L 1013 4856 
Q 1481 4119 1714 3412 
Q 1947 2706 1947 2009 
Q 1947 1309 1714 600 
Q 1481 -109 1013 -844 
L 513 -844 
Q 928 -128 1133 580 
Q 1338 1288 1338 2009 
Q 1338 2731 1133 3434 
Q 928 4138 513 4856 
z
" transform="scale(0.015625)"/>
      <path id="DejaVuSans-78" d="M 3513 3500 
L 2247 1797 
L 3578 0 
L 2900 0 
L 1881 1375 
L 863 0 
L 184 0 
L 1544 1831 
L 300 3500 
L 978 3500 
L 1906 2253 
L 2834 3500 
L 3513 3500 
z
" transform="scale(0.015625)"/>
      <path id="DejaVuSans-3d" d="M 678 2906 
L 4684 2906 
L 4684 2381 
L 678 2381 
L 678 2906 
z
M 678 1631 
L 4684 1631 
L 4684 1100 
L 678 1100 
L 678 1631 
z
" transform="scale(0.015625)"/>
      <path id="DejaVuSans-2e" d="M 684 794 
L 1344 794 
L 1344 0 
L 684 0 
L 684 794 
z
" transform="scale(0.015625)"/>
      <path id="DejaVuSans-39" d="M 703 97 
L 703 672 
Q 941 559 1184 500 
Q 1428 441 1663 441 
Q 2288 441 2617 861 
Q 2947 1281 2994 2138 
Q 2813 1869 2534 1725 
Q 2256 1581 1919 1581 
Q 1219 1581 811 2004 
Q 403 2428 403 3163 
Q 403 3881 828 4315 
Q 1253 4750 1959 4750 
Q 2769 4750 3195 4129 
Q 3622 3509 3622 2328 
Q 3622 1225 3098 567 
Q 2575 -91 1691 -91 
Q 1453 -91 1209 -44 
Q 966 3 703 97 
z
M 1959 2075 
Q 2384 2075 2632 2365 
Q 2881 2656 2881 3163 
Q 2881 3666 2632 3958 
Q 2384 4250 1959 4250 
Q 1534 4250 1286 3958 
Q 1038 3666 1038 3163 
Q 1038 2656 1286 2365 
Q 1534 2075 1959 2075 
z
" transform="scale(0.015625)"/>
     </defs>
     <use xlink:href="#DejaVuSans-41"/>
     <use xlink:href="#DejaVuSans-52" x="68.408203"/>
     <use xlink:href="#DejaVuSans-49" x="137.890625"/>
     <use xlink:href="#DejaVuSans-4d" x="167.382812"/>
     <use xlink:href="#DejaVuSans-41" x="253.662109"/>
     <use xlink:href="#DejaVuSans-20" x="322.070312"/>
     <use xlink:href="#DejaVuSans-28" x="353.857422"/>
     <use xlink:href="#DejaVuSans-34" x="392.871094"/>
     <use xlink:href="#DejaVuSans-2c" x="456.494141"/>
     <use xlink:href="#DejaVuSans-20" x="488.28125"/>
     <use xlink:href="#DejaVuSans-31" x="520.068359"/>
     <use xlink:href="#DejaVuSans-2c" x="583.691406"/>
     <use xlink:href="#DejaVuSans-20" x="615.478516"/>
     <use xlink:href="#DejaVuSans-31" x="647.265625"/>
     <use xlink:href="#DejaVuSans-29" x="710.888672"/>
     <use xlink:href="#DejaVuSans-78" x="749.902344"/>
     <use xlink:href="#DejaVuSans-28" x="809.082031"/>
     <use xlink:href="#DejaVuSans-31" x="848.095703"/>
     <use xlink:href="#DejaVuSans-2c" x="911.71875"/>
     <use xlink:href="#DejaVuSans-20" x="943.505859"/>
     <use xlink:href="#DejaVuSans-30" x="975.292969"/>
     <use xlink:href="#DejaVuSans-2c" x="1038.916016"/>
     <use xlink:href="#DejaVuSans-20" x="1070.703125"/>
     <use xlink:href="#DejaVuSans-31" x="1102.490234"/>
     <use xlink:href="#DejaVuSans-2c" x="1166.113281"/>
     <use xlink:href="#DejaVuSans-20" x="1197.900391"/>
     <use xlink:href="#DejaVuSans-37" x="1229.6875"/>
     <use xlink:href="#DejaVuSans-29" x="1293.310547"/>
     <use xlink:href="#DejaVuSans-20" x="1332.324219"/>
     <use xlink:href="#DejaVuSans-28" x="1364.111328"/>
     <use xlink:href="#DejaVuSans-52" x="1403.125"/>
     <use xlink:href="#DejaVuSans-32" x="1472.607422"/>
     <use xlink:href="#DejaVuSans-20" x="1536.230469"/>
     <use xlink:href="#DejaVuSans-3d" x="1568.017578"/>
     <use xlink:href="#DejaVuSans-20" x="1651.806641"/>
     <use xlink:href="#DejaVuSans-30" x="1683.59375"/>
     <use xlink:href="#DejaVuSans-2e" x="1747.216797"/>
     <use xlink:href="#DejaVuSans-34" x="1779.003906"/>
     <use xlink:href="#DejaVuSans-34" x="1842.626953"/>
     <use xlink:href="#DejaVuSans-39" x="1906.25"/>
     <use xlink:href="#DejaVuSans-39" x="1969.873047"/>
     <use xlink:href="#DejaVuSans-37" x="2033.496094"/>
     <use xlink:href="#DejaVuSans-30" x="2097.119141"/>
     <use xlink:href="#DejaVuSans-29" x="2160.742188"/>
    </g>
   </g>
   <g id="legend_1">
    <g id="patch_7">
     <path d="M 1287.495312 87.789875 
L 1384.575 87.789875 
Q 1386.575 87.789875 1386.575 85.789875 
L 1386.575 42.7555 
Q 1386.575 40.7555 1384.575 40.7555 
L 1287.495312 40.7555 
Q 1285.495312 40.7555 1285.495312 42.7555 
L 1285.495312 85.789875 
Q 1285.495312 87.789875 1287.495312 87.789875 
z
" style="fill: #ffffff; opacity: 0.8; stroke: #cccccc; stroke-linejoin: miter"/>
    </g>
    <g id="line2d_21">
     <path d="M 1289.495312 48.853937 
L 1299.495312 48.853937 
L 1309.495312 48.853937 
" style="fill: none; stroke: #0000ff; stroke-width: 1.5; stroke-linecap: square"/>
    </g>
    <g id="text_19">
     <!-- Actual Value -->
     <g transform="translate(1317.495312 52.353937)scale(0.1 -0.1)">
      <defs>
       <path id="DejaVuSans-75" d="M 544 1381 
L 544 3500 
L 1119 3500 
L 1119 1403 
Q 1119 906 1312 657 
Q 1506 409 1894 409 
Q 2359 409 2629 706 
Q 2900 1003 2900 1516 
L 2900 3500 
L 3475 3500 
L 3475 0 
L 2900 0 
L 2900 538 
Q 2691 219 2414 64 
Q 2138 -91 1772 -91 
Q 1169 -91 856 284 
Q 544 659 544 1381 
z
M 1991 3584 
L 1991 3584 
z
" transform="scale(0.015625)"/>
       <path id="DejaVuSans-56" d="M 1831 0 
L 50 4666 
L 709 4666 
L 2188 738 
L 3669 4666 
L 4325 4666 
L 2547 0 
L 1831 0 
z
" transform="scale(0.015625)"/>
      </defs>
      <use xlink:href="#DejaVuSans-41"/>
      <use xlink:href="#DejaVuSans-63" x="66.658203"/>
      <use xlink:href="#DejaVuSans-74" x="121.638672"/>
      <use xlink:href="#DejaVuSans-75" x="160.847656"/>
      <use xlink:href="#DejaVuSans-61" x="224.226562"/>
      <use xlink:href="#DejaVuSans-6c" x="285.505859"/>
      <use xlink:href="#DejaVuSans-20" x="313.289062"/>
      <use xlink:href="#DejaVuSans-56" x="345.076172"/>
      <use xlink:href="#DejaVuSans-61" x="405.734375"/>
      <use xlink:href="#DejaVuSans-6c" x="467.013672"/>
      <use xlink:href="#DejaVuSans-75" x="494.796875"/>
      <use xlink:href="#DejaVuSans-65" x="558.175781"/>
     </g>
    </g>
    <g id="line2d_22">
     <path d="M 1289.495312 63.532062 
L 1299.495312 63.532062 
L 1309.495312 63.532062 
" style="fill: none; stroke: #ffa500; stroke-width: 1.5; stroke-linecap: square"/>
    </g>
    <g id="text_20">
     <!-- Check Value -->
     <g transform="translate(1317.495312 67.032062)scale(0.1 -0.1)">
      <defs>
       <path id="DejaVuSans-68" d="M 3513 2113 
L 3513 0 
L 2938 0 
L 2938 2094 
Q 2938 2591 2744 2837 
Q 2550 3084 2163 3084 
Q 1697 3084 1428 2787 
Q 1159 2491 1159 1978 
L 1159 0 
L 581 0 
L 581 4863 
L 1159 4863 
L 1159 2956 
Q 1366 3272 1645 3428 
Q 1925 3584 2291 3584 
Q 2894 3584 3203 3211 
Q 3513 2838 3513 2113 
z
" transform="scale(0.015625)"/>
       <path id="DejaVuSans-6b" d="M 581 4863 
L 1159 4863 
L 1159 1991 
L 2875 3500 
L 3609 3500 
L 1753 1863 
L 3688 0 
L 2938 0 
L 1159 1709 
L 1159 0 
L 581 0 
L 581 4863 
z
" transform="scale(0.015625)"/>
      </defs>
      <use xlink:href="#DejaVuSans-43"/>
      <use xlink:href="#DejaVuSans-68" x="69.824219"/>
      <use xlink:href="#DejaVuSans-65" x="133.203125"/>
      <use xlink:href="#DejaVuSans-63" x="194.726562"/>
      <use xlink:href="#DejaVuSans-6b" x="249.707031"/>
      <use xlink:href="#DejaVuSans-20" x="307.617188"/>
      <use xlink:href="#DejaVuSans-56" x="339.404297"/>
      <use xlink:href="#DejaVuSans-61" x="400.0625"/>
      <use xlink:href="#DejaVuSans-6c" x="461.341797"/>
      <use xlink:href="#DejaVuSans-75" x="489.125"/>
      <use xlink:href="#DejaVuSans-65" x="552.503906"/>
     </g>
    </g>
    <g id="line2d_23">
     <path d="M 1289.495312 78.210187 
L 1299.495312 78.210187 
L 1309.495312 78.210187 
" style="fill: none; stroke: #ff0000; stroke-width: 1.5; stroke-linecap: square"/>
    </g>
    <g id="text_21">
     <!-- Predict Value -->
     <g transform="translate(1317.495312 81.710187)scale(0.1 -0.1)">
      <defs>
       <path id="DejaVuSans-50" d="M 1259 4147 
L 1259 2394 
L 2053 2394 
Q 2494 2394 2734 2622 
Q 2975 2850 2975 3272 
Q 2975 3691 2734 3919 
Q 2494 4147 2053 4147 
L 1259 4147 
z
M 628 4666 
L 2053 4666 
Q 2838 4666 3239 4311 
Q 3641 3956 3641 3272 
Q 3641 2581 3239 2228 
Q 2838 1875 2053 1875 
L 1259 1875 
L 1259 0 
L 628 0 
L 628 4666 
z
" transform="scale(0.015625)"/>
      </defs>
      <use xlink:href="#DejaVuSans-50"/>
      <use xlink:href="#DejaVuSans-72" x="58.552734"/>
      <use xlink:href="#DejaVuSans-65" x="97.416016"/>
      <use xlink:href="#DejaVuSans-64" x="158.939453"/>
      <use xlink:href="#DejaVuSans-69" x="222.416016"/>
      <use xlink:href="#DejaVuSans-63" x="250.199219"/>
      <use xlink:href="#DejaVuSans-74" x="305.179688"/>
      <use xlink:href="#DejaVuSans-20" x="344.388672"/>
      <use xlink:href="#DejaVuSans-56" x="376.175781"/>
      <use xlink:href="#DejaVuSans-61" x="436.833984"/>
      <use xlink:href="#DejaVuSans-6c" x="498.113281"/>
      <use xlink:href="#DejaVuSans-75" x="525.896484"/>
      <use xlink:href="#DejaVuSans-65" x="589.275391"/>
     </g>
    </g>
   </g>
  </g>
 </g>
 <defs>
  <clipPath id="p4b8496d0f7">
   <rect x="52.375" y="35.7555" width="1339.2" height="332.64"/>
  </clipPath>
 </defs>
</svg>
