<?xml version="1.0" encoding="utf-8" standalone="no"?>
<!DOCTYPE svg PUBLIC "-//W3C//DTD SVG 1.1//EN"
  "http://www.w3.org/Graphics/SVG/1.1/DTD/svg11.dtd">
<svg xmlns:xlink="http://www.w3.org/1999/xlink" width="1392.4125pt" height="392.273625pt" viewBox="0 0 1392.4125 392.273625" xmlns="http://www.w3.org/2000/svg" version="1.1">
 <metadata>
  <rdf:RDF xmlns:dc="http://purl.org/dc/elements/1.1/" xmlns:cc="http://creativecommons.org/ns#" xmlns:rdf="http://www.w3.org/1999/02/22-rdf-syntax-ns#">
   <cc:Work>
    <dc:type rdf:resource="http://purl.org/dc/dcmitype/StillImage"/>
    <dc:date>2022-06-30T19:25:33.939181</dc:date>
    <dc:format>image/svg+xml</dc:format>
    <dc:creator>
     <cc:Agent>
      <dc:title>Matplotlib v3.5.2, https://matplotlib.org/</dc:title>
     </cc:Agent>
    </dc:creator>
   </cc:Work>
  </rdf:RDF>
 </metadata>
 <defs>
  <style type="text/css">*{stroke-linejoin: round; stroke-linecap: butt}</style>
 </defs>
 <g id="figure_1">
  <g id="patch_1">
   <path d="M 0 392.273625 
L 1392.4125 392.273625 
L 1392.4125 0 
L 0 0 
z
" style="fill: #ffffff"/>
  </g>
  <g id="axes_1">
   <g id="patch_2">
    <path d="M 46.0125 368.3955 
L 1385.2125 368.3955 
L 1385.2125 35.7555 
L 46.0125 35.7555 
z
" style="fill: #ffffff"/>
   </g>
   <g id="matplotlib.axis_1">
    <g id="xtick_1">
     <g id="line2d_1">
      <defs>
       <path id="m38c02f0555" d="M 0 0 
L 0 3.5 
" style="stroke: #000000; stroke-width: 0.8"/>
      </defs>
      <g>
       <use xlink:href="#m38c02f0555" x="77.158257" y="368.3955" style="stroke: #000000; stroke-width: 0.8"/>
      </g>
     </g>
     <g id="text_1">
      <!-- 2020-01 -->
      <g transform="translate(56.266851 382.993937)scale(0.1 -0.1)">
       <defs>
        <path id="DejaVuSans-32" d="M 1228 531 
L 3431 531 
L 3431 0 
L 469 0 
L 469 531 
Q 828 903 1448 1529 
Q 2069 2156 2228 2338 
Q 2531 2678 2651 2914 
Q 2772 3150 2772 3378 
Q 2772 3750 2511 3984 
Q 2250 4219 1831 4219 
Q 1534 4219 1204 4116 
Q 875 4013 500 3803 
L 500 4441 
Q 881 4594 1212 4672 
Q 1544 4750 1819 4750 
Q 2544 4750 2975 4387 
Q 3406 4025 3406 3419 
Q 3406 3131 3298 2873 
Q 3191 2616 2906 2266 
Q 2828 2175 2409 1742 
Q 1991 1309 1228 531 
z
" transform="scale(0.015625)"/>
        <path id="DejaVuSans-30" d="M 2034 4250 
Q 1547 4250 1301 3770 
Q 1056 3291 1056 2328 
Q 1056 1369 1301 889 
Q 1547 409 2034 409 
Q 2525 409 2770 889 
Q 3016 1369 3016 2328 
Q 3016 3291 2770 3770 
Q 2525 4250 2034 4250 
z
M 2034 4750 
Q 2819 4750 3233 4129 
Q 3647 3509 3647 2328 
Q 3647 1150 3233 529 
Q 2819 -91 2034 -91 
Q 1250 -91 836 529 
Q 422 1150 422 2328 
Q 422 3509 836 4129 
Q 1250 4750 2034 4750 
z
" transform="scale(0.015625)"/>
        <path id="DejaVuSans-2d" d="M 313 2009 
L 1997 2009 
L 1997 1497 
L 313 1497 
L 313 2009 
z
" transform="scale(0.015625)"/>
        <path id="DejaVuSans-31" d="M 794 531 
L 1825 531 
L 1825 4091 
L 703 3866 
L 703 4441 
L 1819 4666 
L 2450 4666 
L 2450 531 
L 3481 531 
L 3481 0 
L 794 0 
L 794 531 
z
" transform="scale(0.015625)"/>
       </defs>
       <use xlink:href="#DejaVuSans-32"/>
       <use xlink:href="#DejaVuSans-30" x="63.623047"/>
       <use xlink:href="#DejaVuSans-32" x="127.246094"/>
       <use xlink:href="#DejaVuSans-30" x="190.869141"/>
       <use xlink:href="#DejaVuSans-2d" x="254.492188"/>
       <use xlink:href="#DejaVuSans-30" x="290.576172"/>
       <use xlink:href="#DejaVuSans-31" x="354.199219"/>
      </g>
     </g>
    </g>
    <g id="xtick_2">
     <g id="line2d_2">
      <g>
       <use xlink:href="#m38c02f0555" x="200.119815" y="368.3955" style="stroke: #000000; stroke-width: 0.8"/>
      </g>
     </g>
     <g id="text_2">
      <!-- 2020-04 -->
      <g transform="translate(179.228409 382.993937)scale(0.1 -0.1)">
       <defs>
        <path id="DejaVuSans-34" d="M 2419 4116 
L 825 1625 
L 2419 1625 
L 2419 4116 
z
M 2253 4666 
L 3047 4666 
L 3047 1625 
L 3713 1625 
L 3713 1100 
L 3047 1100 
L 3047 0 
L 2419 0 
L 2419 1100 
L 313 1100 
L 313 1709 
L 2253 4666 
z
" transform="scale(0.015625)"/>
       </defs>
       <use xlink:href="#DejaVuSans-32"/>
       <use xlink:href="#DejaVuSans-30" x="63.623047"/>
       <use xlink:href="#DejaVuSans-32" x="127.246094"/>
       <use xlink:href="#DejaVuSans-30" x="190.869141"/>
       <use xlink:href="#DejaVuSans-2d" x="254.492188"/>
       <use xlink:href="#DejaVuSans-30" x="290.576172"/>
       <use xlink:href="#DejaVuSans-34" x="354.199219"/>
      </g>
     </g>
    </g>
    <g id="xtick_3">
     <g id="line2d_3">
      <g>
       <use xlink:href="#m38c02f0555" x="323.081373" y="368.3955" style="stroke: #000000; stroke-width: 0.8"/>
      </g>
     </g>
     <g id="text_3">
      <!-- 2020-07 -->
      <g transform="translate(302.189967 382.993937)scale(0.1 -0.1)">
       <defs>
        <path id="DejaVuSans-37" d="M 525 4666 
L 3525 4666 
L 3525 4397 
L 1831 0 
L 1172 0 
L 2766 4134 
L 525 4134 
L 525 4666 
z
" transform="scale(0.015625)"/>
       </defs>
       <use xlink:href="#DejaVuSans-32"/>
       <use xlink:href="#DejaVuSans-30" x="63.623047"/>
       <use xlink:href="#DejaVuSans-32" x="127.246094"/>
       <use xlink:href="#DejaVuSans-30" x="190.869141"/>
       <use xlink:href="#DejaVuSans-2d" x="254.492188"/>
       <use xlink:href="#DejaVuSans-30" x="290.576172"/>
       <use xlink:href="#DejaVuSans-37" x="354.199219"/>
      </g>
     </g>
    </g>
    <g id="xtick_4">
     <g id="line2d_4">
      <g>
       <use xlink:href="#m38c02f0555" x="447.394157" y="368.3955" style="stroke: #000000; stroke-width: 0.8"/>
      </g>
     </g>
     <g id="text_4">
      <!-- 2020-10 -->
      <g transform="translate(426.50275 382.993937)scale(0.1 -0.1)">
       <use xlink:href="#DejaVuSans-32"/>
       <use xlink:href="#DejaVuSans-30" x="63.623047"/>
       <use xlink:href="#DejaVuSans-32" x="127.246094"/>
       <use xlink:href="#DejaVuSans-30" x="190.869141"/>
       <use xlink:href="#DejaVuSans-2d" x="254.492188"/>
       <use xlink:href="#DejaVuSans-31" x="290.576172"/>
       <use xlink:href="#DejaVuSans-30" x="354.199219"/>
      </g>
     </g>
    </g>
    <g id="xtick_5">
     <g id="line2d_5">
      <g>
       <use xlink:href="#m38c02f0555" x="571.706941" y="368.3955" style="stroke: #000000; stroke-width: 0.8"/>
      </g>
     </g>
     <g id="text_5">
      <!-- 2021-01 -->
      <g transform="translate(550.815534 382.993937)scale(0.1 -0.1)">
       <use xlink:href="#DejaVuSans-32"/>
       <use xlink:href="#DejaVuSans-30" x="63.623047"/>
       <use xlink:href="#DejaVuSans-32" x="127.246094"/>
       <use xlink:href="#DejaVuSans-31" x="190.869141"/>
       <use xlink:href="#DejaVuSans-2d" x="254.492188"/>
       <use xlink:href="#DejaVuSans-30" x="290.576172"/>
       <use xlink:href="#DejaVuSans-31" x="354.199219"/>
      </g>
     </g>
    </g>
    <g id="xtick_6">
     <g id="line2d_6">
      <g>
       <use xlink:href="#m38c02f0555" x="693.317272" y="368.3955" style="stroke: #000000; stroke-width: 0.8"/>
      </g>
     </g>
     <g id="text_6">
      <!-- 2021-04 -->
      <g transform="translate(672.425866 382.993937)scale(0.1 -0.1)">
       <use xlink:href="#DejaVuSans-32"/>
       <use xlink:href="#DejaVuSans-30" x="63.623047"/>
       <use xlink:href="#DejaVuSans-32" x="127.246094"/>
       <use xlink:href="#DejaVuSans-31" x="190.869141"/>
       <use xlink:href="#DejaVuSans-2d" x="254.492188"/>
       <use xlink:href="#DejaVuSans-30" x="290.576172"/>
       <use xlink:href="#DejaVuSans-34" x="354.199219"/>
      </g>
     </g>
    </g>
    <g id="xtick_7">
     <g id="line2d_7">
      <g>
       <use xlink:href="#m38c02f0555" x="816.27883" y="368.3955" style="stroke: #000000; stroke-width: 0.8"/>
      </g>
     </g>
     <g id="text_7">
      <!-- 2021-07 -->
      <g transform="translate(795.387424 382.993937)scale(0.1 -0.1)">
       <use xlink:href="#DejaVuSans-32"/>
       <use xlink:href="#DejaVuSans-30" x="63.623047"/>
       <use xlink:href="#DejaVuSans-32" x="127.246094"/>
       <use xlink:href="#DejaVuSans-31" x="190.869141"/>
       <use xlink:href="#DejaVuSans-2d" x="254.492188"/>
       <use xlink:href="#DejaVuSans-30" x="290.576172"/>
       <use xlink:href="#DejaVuSans-37" x="354.199219"/>
      </g>
     </g>
    </g>
    <g id="xtick_8">
     <g id="line2d_8">
      <g>
       <use xlink:href="#m38c02f0555" x="940.591614" y="368.3955" style="stroke: #000000; stroke-width: 0.8"/>
      </g>
     </g>
     <g id="text_8">
      <!-- 2021-10 -->
      <g transform="translate(919.700208 382.993937)scale(0.1 -0.1)">
       <use xlink:href="#DejaVuSans-32"/>
       <use xlink:href="#DejaVuSans-30" x="63.623047"/>
       <use xlink:href="#DejaVuSans-32" x="127.246094"/>
       <use xlink:href="#DejaVuSans-31" x="190.869141"/>
       <use xlink:href="#DejaVuSans-2d" x="254.492188"/>
       <use xlink:href="#DejaVuSans-31" x="290.576172"/>
       <use xlink:href="#DejaVuSans-30" x="354.199219"/>
      </g>
     </g>
    </g>
    <g id="xtick_9">
     <g id="line2d_9">
      <g>
       <use xlink:href="#m38c02f0555" x="1064.904398" y="368.3955" style="stroke: #000000; stroke-width: 0.8"/>
      </g>
     </g>
     <g id="text_9">
      <!-- 2022-01 -->
      <g transform="translate(1044.012992 382.993937)scale(0.1 -0.1)">
       <use xlink:href="#DejaVuSans-32"/>
       <use xlink:href="#DejaVuSans-30" x="63.623047"/>
       <use xlink:href="#DejaVuSans-32" x="127.246094"/>
       <use xlink:href="#DejaVuSans-32" x="190.869141"/>
       <use xlink:href="#DejaVuSans-2d" x="254.492188"/>
       <use xlink:href="#DejaVuSans-30" x="290.576172"/>
       <use xlink:href="#DejaVuSans-31" x="354.199219"/>
      </g>
     </g>
    </g>
    <g id="xtick_10">
     <g id="line2d_10">
      <g>
       <use xlink:href="#m38c02f0555" x="1186.51473" y="368.3955" style="stroke: #000000; stroke-width: 0.8"/>
      </g>
     </g>
     <g id="text_10">
      <!-- 2022-04 -->
      <g transform="translate(1165.623324 382.993937)scale(0.1 -0.1)">
       <use xlink:href="#DejaVuSans-32"/>
       <use xlink:href="#DejaVuSans-30" x="63.623047"/>
       <use xlink:href="#DejaVuSans-32" x="127.246094"/>
       <use xlink:href="#DejaVuSans-32" x="190.869141"/>
       <use xlink:href="#DejaVuSans-2d" x="254.492188"/>
       <use xlink:href="#DejaVuSans-30" x="290.576172"/>
       <use xlink:href="#DejaVuSans-34" x="354.199219"/>
      </g>
     </g>
    </g>
    <g id="xtick_11">
     <g id="line2d_11">
      <g>
       <use xlink:href="#m38c02f0555" x="1309.476288" y="368.3955" style="stroke: #000000; stroke-width: 0.8"/>
      </g>
     </g>
     <g id="text_11">
      <!-- 2022-07 -->
      <g transform="translate(1288.584881 382.993937)scale(0.1 -0.1)">
       <use xlink:href="#DejaVuSans-32"/>
       <use xlink:href="#DejaVuSans-30" x="63.623047"/>
       <use xlink:href="#DejaVuSans-32" x="127.246094"/>
       <use xlink:href="#DejaVuSans-32" x="190.869141"/>
       <use xlink:href="#DejaVuSans-2d" x="254.492188"/>
       <use xlink:href="#DejaVuSans-30" x="290.576172"/>
       <use xlink:href="#DejaVuSans-37" x="354.199219"/>
      </g>
     </g>
    </g>
   </g>
   <g id="matplotlib.axis_2">
    <g id="ytick_1">
     <g id="line2d_12">
      <defs>
       <path id="mf6274253ca" d="M 0 0 
L -3.5 0 
" style="stroke: #000000; stroke-width: 0.8"/>
      </defs>
      <g>
       <use xlink:href="#mf6274253ca" x="46.0125" y="353.082342" style="stroke: #000000; stroke-width: 0.8"/>
      </g>
     </g>
     <g id="text_12">
      <!-- 0 -->
      <g transform="translate(32.65 356.881561)scale(0.1 -0.1)">
       <use xlink:href="#DejaVuSans-30"/>
      </g>
     </g>
    </g>
    <g id="ytick_2">
     <g id="line2d_13">
      <g>
       <use xlink:href="#mf6274253ca" x="46.0125" y="292.073592" style="stroke: #000000; stroke-width: 0.8"/>
      </g>
     </g>
     <g id="text_13">
      <!-- 2000 -->
      <g transform="translate(13.5625 295.872811)scale(0.1 -0.1)">
       <use xlink:href="#DejaVuSans-32"/>
       <use xlink:href="#DejaVuSans-30" x="63.623047"/>
       <use xlink:href="#DejaVuSans-30" x="127.246094"/>
       <use xlink:href="#DejaVuSans-30" x="190.869141"/>
      </g>
     </g>
    </g>
    <g id="ytick_3">
     <g id="line2d_14">
      <g>
       <use xlink:href="#mf6274253ca" x="46.0125" y="231.064843" style="stroke: #000000; stroke-width: 0.8"/>
      </g>
     </g>
     <g id="text_14">
      <!-- 4000 -->
      <g transform="translate(13.5625 234.864061)scale(0.1 -0.1)">
       <use xlink:href="#DejaVuSans-34"/>
       <use xlink:href="#DejaVuSans-30" x="63.623047"/>
       <use xlink:href="#DejaVuSans-30" x="127.246094"/>
       <use xlink:href="#DejaVuSans-30" x="190.869141"/>
      </g>
     </g>
    </g>
    <g id="ytick_4">
     <g id="line2d_15">
      <g>
       <use xlink:href="#mf6274253ca" x="46.0125" y="170.056093" style="stroke: #000000; stroke-width: 0.8"/>
      </g>
     </g>
     <g id="text_15">
      <!-- 6000 -->
      <g transform="translate(13.5625 173.855312)scale(0.1 -0.1)">
       <defs>
        <path id="DejaVuSans-36" d="M 2113 2584 
Q 1688 2584 1439 2293 
Q 1191 2003 1191 1497 
Q 1191 994 1439 701 
Q 1688 409 2113 409 
Q 2538 409 2786 701 
Q 3034 994 3034 1497 
Q 3034 2003 2786 2293 
Q 2538 2584 2113 2584 
z
M 3366 4563 
L 3366 3988 
Q 3128 4100 2886 4159 
Q 2644 4219 2406 4219 
Q 1781 4219 1451 3797 
Q 1122 3375 1075 2522 
Q 1259 2794 1537 2939 
Q 1816 3084 2150 3084 
Q 2853 3084 3261 2657 
Q 3669 2231 3669 1497 
Q 3669 778 3244 343 
Q 2819 -91 2113 -91 
Q 1303 -91 875 529 
Q 447 1150 447 2328 
Q 447 3434 972 4092 
Q 1497 4750 2381 4750 
Q 2619 4750 2861 4703 
Q 3103 4656 3366 4563 
z
" transform="scale(0.015625)"/>
       </defs>
       <use xlink:href="#DejaVuSans-36"/>
       <use xlink:href="#DejaVuSans-30" x="63.623047"/>
       <use xlink:href="#DejaVuSans-30" x="127.246094"/>
       <use xlink:href="#DejaVuSans-30" x="190.869141"/>
      </g>
     </g>
    </g>
    <g id="ytick_5">
     <g id="line2d_16">
      <g>
       <use xlink:href="#mf6274253ca" x="46.0125" y="109.047343" style="stroke: #000000; stroke-width: 0.8"/>
      </g>
     </g>
     <g id="text_16">
      <!-- 8000 -->
      <g transform="translate(13.5625 112.846562)scale(0.1 -0.1)">
       <defs>
        <path id="DejaVuSans-38" d="M 2034 2216 
Q 1584 2216 1326 1975 
Q 1069 1734 1069 1313 
Q 1069 891 1326 650 
Q 1584 409 2034 409 
Q 2484 409 2743 651 
Q 3003 894 3003 1313 
Q 3003 1734 2745 1975 
Q 2488 2216 2034 2216 
z
M 1403 2484 
Q 997 2584 770 2862 
Q 544 3141 544 3541 
Q 544 4100 942 4425 
Q 1341 4750 2034 4750 
Q 2731 4750 3128 4425 
Q 3525 4100 3525 3541 
Q 3525 3141 3298 2862 
Q 3072 2584 2669 2484 
Q 3125 2378 3379 2068 
Q 3634 1759 3634 1313 
Q 3634 634 3220 271 
Q 2806 -91 2034 -91 
Q 1263 -91 848 271 
Q 434 634 434 1313 
Q 434 1759 690 2068 
Q 947 2378 1403 2484 
z
M 1172 3481 
Q 1172 3119 1398 2916 
Q 1625 2713 2034 2713 
Q 2441 2713 2670 2916 
Q 2900 3119 2900 3481 
Q 2900 3844 2670 4047 
Q 2441 4250 2034 4250 
Q 1625 4250 1398 4047 
Q 1172 3844 1172 3481 
z
" transform="scale(0.015625)"/>
       </defs>
       <use xlink:href="#DejaVuSans-38"/>
       <use xlink:href="#DejaVuSans-30" x="63.623047"/>
       <use xlink:href="#DejaVuSans-30" x="127.246094"/>
       <use xlink:href="#DejaVuSans-30" x="190.869141"/>
      </g>
     </g>
    </g>
    <g id="ytick_6">
     <g id="line2d_17">
      <g>
       <use xlink:href="#mf6274253ca" x="46.0125" y="48.038593" style="stroke: #000000; stroke-width: 0.8"/>
      </g>
     </g>
     <g id="text_17">
      <!-- 10000 -->
      <g transform="translate(7.2 51.837812)scale(0.1 -0.1)">
       <use xlink:href="#DejaVuSans-31"/>
       <use xlink:href="#DejaVuSans-30" x="63.623047"/>
       <use xlink:href="#DejaVuSans-30" x="127.246094"/>
       <use xlink:href="#DejaVuSans-30" x="190.869141"/>
       <use xlink:href="#DejaVuSans-30" x="254.492188"/>
      </g>
     </g>
    </g>
   </g>
   <g id="line2d_18">
    <path d="M 106.885227 353.082342 
L 181.202652 353.021334 
L 185.25633 352.92982 
L 186.607556 352.655281 
L 187.958782 352.92982 
L 190.661234 352.807803 
L 193.363686 352.685785 
L 194.714911 351.892672 
L 196.066137 352.472255 
L 197.417363 352.136707 
L 198.768589 352.594272 
L 200.119815 352.289229 
L 201.471041 352.44175 
L 202.822267 351.984185 
L 204.173493 352.502759 
L 205.524719 352.106202 
L 206.875945 352.167211 
L 209.578396 351.221575 
L 210.929622 351.313089 
L 212.280848 351.587628 
L 213.632074 351.374097 
L 214.9833 351.587628 
L 216.334526 351.343593 
L 217.685752 351.862167 
L 219.036978 351.618132 
L 220.388204 351.618132 
L 221.73943 351.221575 
L 223.090656 351.160567 
L 224.441881 351.587628 
L 225.793107 351.496115 
L 227.144333 351.557124 
L 228.495559 351.496115 
L 229.846785 351.679141 
L 232.549237 351.496115 
L 233.900463 352.106202 
L 235.251689 352.472255 
L 236.602915 351.618132 
L 237.954141 352.167211 
L 240.656592 351.984185 
L 242.007818 350.825019 
L 243.359044 351.923176 
L 244.71027 352.502759 
L 247.412722 352.533264 
L 248.763948 352.289229 
L 250.115174 352.71629 
L 254.168852 352.563768 
L 255.520077 352.44175 
L 256.871303 352.899316 
L 258.222529 352.472255 
L 259.573755 352.777299 
L 260.924981 352.411246 
L 262.276207 352.777299 
L 264.978659 352.899316 
L 266.329885 352.685785 
L 267.681111 352.838307 
L 269.032337 352.838307 
L 270.383562 352.624777 
L 273.086014 352.899316 
L 274.43724 352.594272 
L 277.139692 352.807803 
L 278.490918 352.411246 
L 281.19337 352.472255 
L 282.544596 351.923176 
L 283.895822 352.807803 
L 285.247047 352.624777 
L 286.598273 352.71629 
L 287.949499 352.655281 
L 289.300725 351.862167 
L 290.651951 352.533264 
L 292.003177 352.807803 
L 293.354403 352.92982 
L 296.056855 352.838307 
L 297.408081 352.655281 
L 298.759307 352.92982 
L 301.461758 352.655281 
L 304.16421 352.868812 
L 305.515436 352.624777 
L 309.569114 352.990829 
L 319.027695 353.021334 
L 320.378921 352.838307 
L 321.730147 353.051838 
L 323.081373 352.868812 
L 324.432599 352.92982 
L 327.135051 352.838307 
L 328.486277 352.990829 
L 331.188728 352.624777 
L 332.539954 352.960325 
L 333.89118 352.960325 
L 335.242406 352.777299 
L 339.296084 353.021334 
L 341.998536 352.899316 
L 343.349762 353.021334 
L 344.700988 352.960325 
L 347.403439 353.051838 
L 348.754665 353.082342 
L 350.105891 352.990829 
L 351.457117 352.685785 
L 352.808343 352.960325 
L 354.159569 352.990829 
L 356.862021 352.563768 
L 358.213247 351.95368 
L 359.564473 352.380742 
L 360.915698 352.075698 
L 362.266924 352.807803 
L 363.61815 352.746794 
L 364.969376 352.319733 
L 366.320602 352.685785 
L 367.671828 352.350237 
L 369.023054 352.136707 
L 370.37428 352.319733 
L 371.725506 351.587628 
L 375.779183 351.099558 
L 377.130409 350.245435 
L 378.481635 351.648637 
L 379.832861 352.014689 
L 382.535313 351.404602 
L 383.886539 351.160567 
L 385.237765 352.350237 
L 386.588991 351.618132 
L 387.940217 351.74015 
L 389.291443 350.825019 
L 390.642668 350.550479 
L 391.993894 352.563768 
L 393.34512 352.014689 
L 394.696346 351.099558 
L 396.047572 352.014689 
L 397.398798 352.258724 
L 398.750024 352.624777 
L 400.10125 351.648637 
L 401.452476 351.25208 
L 402.803702 351.282584 
L 404.154928 351.618132 
L 405.506154 351.282584 
L 406.857379 352.075698 
L 409.559831 350.397957 
L 410.911057 351.496115 
L 413.613509 352.746794 
L 414.964735 351.770654 
L 416.315961 352.319733 
L 417.667187 350.580984 
L 419.018413 350.27594 
L 420.369639 351.801159 
L 421.720864 351.25208 
L 423.07209 352.136707 
L 424.423316 351.801159 
L 425.774542 350.733505 
L 427.125768 350.855523 
L 428.476994 351.343593 
L 429.82822 350.916532 
L 431.179446 351.526619 
L 432.530672 351.984185 
L 433.881898 351.557124 
L 435.233124 350.611488 
L 436.584349 351.618132 
L 437.935575 351.862167 
L 439.286801 351.862167 
L 440.638027 351.191071 
L 443.340479 352.289229 
L 446.042931 351.069054 
L 447.394157 350.855523 
L 448.745383 351.618132 
L 450.096609 351.191071 
L 451.447834 352.197715 
L 452.79906 351.984185 
L 454.150286 351.923176 
L 455.501512 352.624777 
L 458.203964 352.289229 
L 459.55519 352.92982 
L 460.906416 352.167211 
L 463.608868 352.563768 
L 464.960094 352.533264 
L 466.311319 352.258724 
L 467.662545 351.374097 
L 470.364997 351.557124 
L 471.716223 351.923176 
L 473.067449 351.648637 
L 474.418675 351.160567 
L 475.769901 351.46561 
L 477.121127 351.313089 
L 478.472353 351.404602 
L 479.823579 352.106202 
L 481.174805 352.197715 
L 482.52603 350.550479 
L 483.877256 351.587628 
L 485.228482 351.892672 
L 486.579708 352.014689 
L 487.930934 350.458966 
L 489.28216 351.618132 
L 490.633386 352.014689 
L 491.984612 351.099558 
L 493.335838 349.757365 
L 494.687064 351.862167 
L 496.03829 351.74015 
L 497.389515 351.892672 
L 498.740741 352.167211 
L 500.091967 351.496115 
L 502.794419 351.95368 
L 504.145645 351.313089 
L 505.496871 351.435106 
L 506.848097 352.258724 
L 508.199323 352.411246 
L 509.550549 351.587628 
L 510.901775 352.22822 
L 512.253 351.95368 
L 513.604226 352.44175 
L 514.955452 351.923176 
L 516.306678 352.014689 
L 517.657904 351.618132 
L 519.00913 352.075698 
L 520.360356 350.916532 
L 521.711582 350.76401 
L 523.062808 351.587628 
L 524.414034 352.014689 
L 525.76526 351.160567 
L 527.116485 351.25208 
L 528.467711 351.526619 
L 529.818937 350.123418 
L 531.170163 350.794514 
L 532.521389 350.794514 
L 533.872615 350.672497 
L 535.223841 349.909887 
L 536.575067 351.008045 
L 537.926293 349.2998 
L 539.277519 350.76401 
L 540.628745 349.2998 
L 541.97997 350.794514 
L 543.331196 350.458966 
L 544.682422 350.428462 
L 546.033648 350.97754 
L 547.384874 350.97754 
L 548.7361 350.153922 
L 550.087326 350.550479 
L 551.438552 350.031905 
L 552.789778 349.360809 
L 554.141004 349.086269 
L 555.49223 349.940392 
L 556.843456 349.574339 
L 558.194681 348.750721 
L 559.545907 349.543835 
L 560.897133 346.462893 
L 562.248359 347.500042 
L 563.599585 348.872739 
L 564.950811 347.988112 
L 566.302037 346.09684 
L 567.653263 347.988112 
L 569.004489 350.458966 
L 570.355715 347.713572 
L 571.706941 347.194998 
L 573.058166 347.927103 
L 574.409392 347.011972 
L 575.760618 343.44296 
L 577.111844 346.249362 
L 578.46307 346.950963 
L 579.814296 343.503969 
L 581.165522 342.588837 
L 583.867974 341.246645 
L 585.2192 339.934957 
L 586.570426 338.226712 
L 587.921651 336.304936 
L 589.272877 337.677633 
L 590.624103 336.396449 
L 591.975329 340.72807 
L 593.326555 333.254499 
L 594.677781 344.175065 
L 596.029007 343.015899 
L 597.380233 342.436315 
L 598.731459 340.636557 
L 600.082685 336.915024 
L 601.433911 335.786362 
L 602.785136 333.742569 
L 604.136362 335.786362 
L 605.487588 329.105904 
L 606.838814 327.916233 
L 608.19004 332.766429 
L 609.541266 332.979959 
L 610.892492 325.323361 
L 612.243718 322.211915 
L 613.594944 325.445379 
L 614.94617 321.235775 
L 616.297396 325.841936 
L 617.648621 328.190772 
L 618.999847 327.306146 
L 620.351073 328.038251 
L 621.702299 328.068755 
L 623.053525 333.162986 
L 624.404751 335.389805 
L 625.755977 326.909589 
L 627.107203 327.153624 
L 628.458429 327.977242 
L 629.809655 325.994457 
L 631.160881 328.495816 
L 632.512106 331.271714 
L 633.863332 324.499743 
L 635.214558 327.946737 
L 636.565784 324.926804 
L 637.91701 326.879084 
L 639.268236 324.499743 
L 640.619462 321.388297 
L 641.970688 327.519676 
L 643.321914 327.580685 
L 644.67314 331.759784 
L 646.024366 332.644411 
L 647.375592 326.391014 
L 648.726817 331.119192 
L 650.078043 334.230639 
L 652.780495 322.669481 
L 654.131721 325.201344 
L 655.482947 328.465312 
L 658.185399 330.204061 
L 659.536625 326.909589 
L 660.887851 326.452023 
L 662.239077 321.327288 
L 663.590302 329.532965 
L 664.941528 329.349939 
L 666.292754 329.838009 
L 667.64398 333.590047 
L 668.995206 325.201344 
L 670.346432 330.692131 
L 671.697658 328.922877 
L 673.048884 330.905662 
L 674.40011 332.064828 
L 675.751336 330.661627 
L 677.102562 328.282286 
L 678.453787 328.80086 
L 679.805013 331.180201 
L 681.156239 329.471956 
L 682.507465 330.631122 
L 683.858691 328.190772 
L 685.209917 327.702702 
L 686.561143 324.103186 
L 687.912369 325.048822 
L 689.263595 331.698776 
L 690.614821 322.333932 
L 691.966047 321.022244 
L 693.317272 322.181411 
L 694.668498 320.229131 
L 696.019724 321.693341 
L 697.37095 317.636259 
L 698.722176 320.564679 
L 700.073402 321.662836 
L 701.424628 323.767638 
L 702.775854 325.201344 
L 704.12708 322.059393 
L 705.478306 321.357792 
L 706.829532 323.828647 
L 708.180757 327.031606 
L 709.531983 320.747705 
L 710.883209 323.828647 
L 712.234435 322.45595 
L 713.585661 321.357792 
L 714.936887 321.784854 
L 716.288113 321.449306 
L 717.639339 320.747705 
L 718.990565 316.995667 
L 720.341791 322.394941 
L 721.693017 316.263562 
L 723.044243 315.226413 
L 724.395468 319.222486 
L 725.746694 316.934658 
L 727.09792 324.469239 
L 728.449146 320.046104 
L 729.800372 322.94402 
L 731.151598 318.032816 
L 732.502824 321.174766 
L 733.85405 325.170839 
L 735.205276 320.412157 
L 736.556502 324.652265 
L 737.907728 321.998384 
L 739.258953 322.272924 
L 740.610179 320.747705 
L 741.961405 317.636259 
L 743.312631 321.47981 
L 744.663857 320.473166 
L 746.015083 319.03946 
L 747.366309 320.412157 
L 748.717535 316.263562 
L 750.068761 316.904154 
L 751.419987 314.128256 
L 752.771213 310.894792 
L 754.122438 315.470448 
L 755.473664 320.839218 
L 756.82489 315.1349 
L 758.176116 312.236984 
L 759.527342 314.890865 
L 760.878568 316.568606 
L 762.229794 313.762203 
L 764.932246 317.849789 
L 766.283472 313.701194 
L 767.634698 318.642903 
L 768.985923 319.466521 
L 770.337149 317.422728 
L 771.688375 316.843145 
L 773.039601 320.168122 
L 774.390827 319.52753 
L 775.742053 320.839218 
L 777.093279 316.751632 
L 778.444505 320.961236 
L 779.795731 318.642903 
L 781.146957 318.459877 
L 782.498183 319.924087 
L 783.849408 316.934658 
L 785.200634 317.819285 
L 786.55186 317.666763 
L 787.903086 317.758276 
L 789.254312 313.792707 
L 790.605538 311.23034 
L 791.956764 308.240911 
L 793.30799 311.931941 
L 794.659216 306.197118 
L 796.010442 310.284704 
L 797.361668 309.827139 
L 798.712894 307.905363 
L 800.064119 308.179902 
L 801.415345 309.27806 
L 802.766571 305.465013 
L 804.117797 307.661328 
L 805.469023 290.395852 
L 806.820249 295.734117 
L 808.171475 277.919563 
L 809.522701 279.780329 
L 810.873927 270.781539 
L 812.225153 274.106516 
L 813.576379 259.128868 
L 814.927604 262.484349 
L 816.27883 263.033428 
L 817.630056 252.17387 
L 818.981282 247.079639 
L 820.332508 245.737447 
L 821.683734 259.281389 
L 823.03496 243.541132 
L 824.386186 241.314313 
L 825.737412 236.586135 
L 827.088638 157.183247 
L 828.439864 147.177812 
L 829.791089 141.900555 
L 831.142315 157.152742 
L 832.493541 181.861286 
L 833.844767 167.615743 
L 835.195993 155.444497 
L 836.547219 156.02408 
L 837.898445 168.164822 
L 840.600897 154.651383 
L 841.952123 168.317343 
L 843.303349 157.701821 
L 844.654574 116.825959 
L 846.0058 115.636288 
L 847.357026 117.222515 
L 848.708252 83.027111 
L 850.059478 103.434538 
L 851.410704 112.006267 
L 852.76193 68.690055 
L 854.113156 90.531187 
L 856.815608 82.356015 
L 858.166834 55.7562 
L 859.518059 70.032247 
L 860.869285 59.355716 
L 862.220511 67.46988 
L 863.571737 96.876097 
L 864.922963 82.020467 
L 866.274189 81.806936 
L 867.625415 65.5176 
L 868.976641 110.572562 
L 870.327867 80.495248 
L 871.679093 90.592196 
L 873.030319 103.129494 
L 874.381544 99.529978 
L 875.73277 84.155773 
L 877.083996 89.646561 
L 878.435222 73.387729 
L 879.786448 54.993591 
L 881.137674 88.731429 
L 882.4889 79.397091 
L 883.840126 55.237626 
L 885.191352 55.969731 
L 886.542578 61.826571 
L 887.893804 68.781568 
L 889.24503 50.8755 
L 890.596255 89.616056 
L 891.947481 93.520616 
L 893.298707 120.059422 
L 894.649933 144.127374 
L 896.001159 161.606381 
L 897.352385 167.768265 
L 900.054837 151.478928 
L 901.406063 163.711183 
L 902.757289 141.778537 
L 904.108515 113.500982 
L 905.45974 71.801501 
L 906.810966 132.535712 
L 909.513418 99.377456 
L 910.864644 116.76495 
L 912.21587 97.028619 
L 913.567096 107.97969 
L 914.918322 108.010194 
L 916.269548 98.614847 
L 917.620774 123.81146 
L 918.972 126.221306 
L 920.323225 120.39497 
L 921.674451 100.17057 
L 923.025677 93.276581 
L 924.376903 95.808444 
L 925.728129 92.452963 
L 927.079355 100.231579 
L 928.430581 134.945557 
L 929.781807 141.534502 
L 931.133033 118.351177 
L 932.484259 123.902974 
L 933.835485 149.526648 
L 935.18671 150.777328 
L 936.537936 169.781553 
L 937.889162 181.739268 
L 939.240388 200.468955 
L 940.591614 199.065753 
L 941.94284 204.434523 
L 943.294066 228.105918 
L 944.645292 222.767653 
L 945.996518 206.874873 
L 947.347744 243.38861 
L 948.69897 236.159073 
L 950.050195 249.489485 
L 951.401421 248.086284 
L 952.752647 243.144575 
L 954.103873 263.246958 
L 956.806325 281.275044 
L 958.157551 280.97 
L 959.508777 287.863989 
L 960.860003 293.720829 
L 962.211229 286.064231 
L 963.562455 296.832275 
L 964.913681 299.150607 
L 966.264906 305.800561 
L 967.616132 309.308564 
L 968.967358 308.057885 
L 970.318584 310.589748 
L 971.66981 312.847072 
L 973.021036 316.172049 
L 974.372262 323.340577 
L 975.723488 325.262352 
L 977.074714 325.628405 
L 978.42594 326.665554 
L 979.777166 331.363227 
L 981.128391 332.461385 
L 982.479617 333.773073 
L 983.830843 336.335441 
L 985.182069 335.786362 
L 986.533295 335.023752 
L 987.884521 334.596691 
L 989.235747 336.304936 
L 990.586973 338.348729 
L 991.938199 338.714782 
L 993.289425 338.836799 
L 994.640651 340.484035 
L 995.991876 340.789079 
L 997.343102 342.039759 
L 998.694328 344.14456 
L 1000.045554 342.46682 
L 1001.39678 343.137916 
L 1002.748006 345.669779 
L 1004.099232 345.578266 
L 1005.450458 343.44296 
L 1006.801684 343.44296 
L 1008.15291 344.327587 
L 1009.504136 343.015899 
L 1010.855361 345.761292 
L 1012.206587 345.944319 
L 1013.557813 347.530546 
L 1014.909039 345.761292 
L 1016.260265 347.408529 
L 1017.611491 347.500042 
L 1018.962717 348.415173 
L 1020.313943 349.116774 
L 1024.367621 348.506686 
L 1025.718846 349.604844 
L 1027.070072 349.726861 
L 1028.421298 350.397957 
L 1029.772524 349.909887 
L 1031.12375 350.794514 
L 1033.826202 350.611488 
L 1035.177428 351.099558 
L 1036.528654 350.855523 
L 1037.87988 351.191071 
L 1039.231106 351.099558 
L 1040.582332 351.313089 
L 1041.933557 351.191071 
L 1043.284783 350.886027 
L 1045.987235 350.733505 
L 1047.338461 351.191071 
L 1048.689687 350.672497 
L 1050.040913 351.221575 
L 1051.392139 350.641992 
L 1052.743365 350.367453 
L 1054.094591 350.76401 
L 1055.445817 349.269295 
L 1056.797042 349.360809 
L 1058.148268 349.177782 
L 1059.499494 348.659208 
L 1060.85072 345.730788 
L 1062.201946 343.076907 
L 1063.553172 339.873948 
L 1064.904398 338.77579 
L 1066.255624 338.77579 
L 1067.60685 336.12191 
L 1068.958076 332.552898 
L 1070.309302 323.584612 
L 1071.660527 309.491591 
L 1073.011753 293.720829 
L 1074.362979 286.765831 
L 1075.714205 270.018929 
L 1077.065431 276.241822 
L 1078.416657 271.178096 
L 1079.767883 268.036145 
L 1081.119109 249.764024 
L 1082.470335 251.319748 
L 1083.821561 246.134004 
L 1085.172787 244.425759 
L 1086.524012 252.234879 
L 1087.875238 256.993561 
L 1089.226464 262.575862 
L 1090.57769 255.620864 
L 1091.928916 249.611503 
L 1093.280142 249.336963 
L 1094.631368 246.072995 
L 1095.982594 252.204374 
L 1097.33382 268.76825 
L 1098.685046 261.965774 
L 1100.036272 267.243031 
L 1101.387497 267.700597 
L 1102.738723 259.769459 
L 1104.089949 266.785466 
L 1105.441175 288.443572 
L 1106.792401 303.970299 
L 1108.143627 308.545955 
L 1109.494853 305.922579 
L 1110.846079 309.339069 
L 1112.197305 310.986305 
L 1113.548531 312.20648 
L 1114.899757 311.931941 
L 1116.250982 322.028889 
L 1117.602208 325.048822 
L 1118.953434 324.072682 
L 1120.30466 318.032816 
L 1121.655886 325.994457 
L 1123.007112 325.689414 
L 1124.358338 328.922877 
L 1125.709564 333.864586 
L 1127.06079 334.962744 
L 1128.412016 330.722636 
L 1129.763242 333.346012 
L 1131.114468 333.895091 
L 1132.465693 333.925595 
L 1133.816919 335.938884 
L 1135.168145 338.836799 
L 1136.519371 337.433598 
L 1137.870597 334.932239 
L 1139.221823 333.986604 
L 1140.573049 334.505178 
L 1141.924275 333.864586 
L 1143.275501 338.592764 
L 1144.626727 341.00261 
L 1145.977953 338.684277 
L 1147.329178 334.901735 
L 1148.680404 333.620551 
L 1150.03163 337.525111 
L 1151.382856 338.379234 
L 1152.734082 336.365945 
L 1154.085308 339.446887 
L 1155.436534 337.281076 
L 1156.78776 335.969388 
L 1159.490212 334.383161 
L 1160.841438 336.12191 
L 1162.192663 334.16963 
L 1163.543889 335.969388 
L 1164.895115 336.030397 
L 1166.246341 335.206779 
L 1167.597567 330.448096 
L 1168.948793 327.672198 
L 1170.300019 329.105904 
L 1171.651245 330.844653 
L 1173.002471 332.369872 
L 1174.353697 328.343294 
L 1175.704923 326.330006 
L 1177.056148 327.580685 
L 1178.407374 323.889656 
L 1179.7586 328.007746 
L 1181.109826 327.641694 
L 1182.461052 334.139126 
L 1183.812278 328.251781 
L 1185.163504 327.672198 
L 1186.51473 329.349939 
L 1187.865956 329.014391 
L 1189.217182 331.881802 
L 1190.568408 334.200134 
L 1191.919633 337.525111 
L 1193.270859 332.461385 
L 1194.622085 333.132481 
L 1195.973311 334.200134 
L 1197.324537 334.505178 
L 1198.675763 334.688204 
L 1200.026989 337.952172 
L 1201.378215 342.649846 
L 1202.729441 339.690922 
L 1204.080667 339.385878 
L 1205.431893 338.470747 
L 1206.783119 340.819584 
L 1208.134344 344.175065 
L 1209.48557 342.802368 
L 1210.836796 345.791797 
L 1212.188022 344.022543 
L 1213.539248 343.046403 
L 1214.890474 344.480109 
L 1216.2417 344.968179 
L 1217.592926 345.60877 
L 1218.944152 345.852805 
L 1220.295378 347.103485 
L 1221.646604 347.256007 
L 1222.997829 346.85945 
L 1224.349055 347.256007 
L 1227.051507 347.286511 
L 1228.402733 348.354164 
L 1229.753959 349.757365 
L 1231.105185 350.245435 
L 1233.807637 348.598199 
L 1235.158863 349.330304 
L 1236.510089 349.909887 
L 1239.21254 351.46561 
L 1240.563766 350.153922 
L 1241.914992 349.726861 
L 1243.266218 350.733505 
L 1244.617444 349.940392 
L 1245.96867 350.245435 
L 1247.319896 350.886027 
L 1248.671122 351.679141 
L 1250.022348 351.191071 
L 1252.724799 351.221575 
L 1254.076025 351.74015 
L 1255.427251 351.74015 
L 1258.129703 352.136707 
L 1259.480929 351.74015 
L 1263.534607 351.679141 
L 1264.885833 352.136707 
L 1266.237059 352.106202 
L 1267.588284 352.197715 
L 1268.93951 351.831663 
L 1270.290736 352.197715 
L 1271.641962 352.167211 
L 1274.344414 352.533264 
L 1277.046866 352.685785 
L 1278.398092 352.258724 
L 1281.100544 352.136707 
L 1282.451769 352.624777 
L 1283.802995 352.472255 
L 1285.154221 352.502759 
L 1286.505447 352.71629 
L 1287.856673 352.44175 
L 1289.207899 352.563768 
L 1290.559125 352.289229 
L 1291.910351 352.411246 
L 1294.612803 352.319733 
L 1295.964029 352.563768 
L 1300.017706 352.197715 
L 1301.368932 352.44175 
L 1302.720158 352.22822 
L 1304.071384 352.289229 
L 1305.42261 352.22822 
L 1306.773836 352.746794 
L 1306.773836 352.746794 
" clip-path="url(#pd3ad025ca8)" style="fill: none; stroke: #0000ff; stroke-width: 1.5; stroke-linecap: square"/>
   </g>
   <g id="line2d_19">
    <path d="M 1067.60685 336.388595 
L 1068.958076 333.247158 
L 1070.309302 324.199358 
L 1071.660527 310.748376 
L 1073.011753 294.697395 
L 1074.362979 285.682875 
L 1075.714205 269.153853 
L 1077.065431 273.863954 
L 1078.416657 267.379897 
L 1079.767883 266.861913 
L 1081.119109 249.93031 
L 1082.470335 250.207752 
L 1083.821561 241.974495 
L 1085.172787 244.787653 
L 1086.524012 250.065096 
L 1089.226464 259.436856 
L 1090.57769 255.970127 
L 1091.928916 250.813426 
L 1093.280142 247.824818 
L 1094.631368 246.52206 
L 1095.982594 251.447153 
L 1097.33382 265.809106 
L 1098.685046 259.595123 
L 1100.036272 267.984067 
L 1101.387497 266.067401 
L 1102.738723 260.212845 
L 1104.089949 268.50214 
L 1105.441175 285.876898 
L 1106.792401 301.197946 
L 1108.143627 309.189835 
L 1109.494853 308.270974 
L 1110.846079 309.07624 
L 1112.197305 310.174266 
L 1113.548531 316.038866 
L 1114.899757 316.109431 
L 1116.250982 321.537293 
L 1117.602208 321.994178 
L 1118.953434 324.249672 
L 1120.30466 318.790651 
L 1121.655886 325.20645 
L 1123.007112 327.016562 
L 1124.358338 333.278879 
L 1125.709564 334.353037 
L 1127.06079 333.422773 
L 1128.412016 330.354704 
L 1129.763242 333.311723 
L 1131.114468 333.066213 
L 1132.465693 336.679596 
L 1133.816919 339.321945 
L 1135.168145 339.189989 
L 1136.519371 336.093645 
L 1137.870597 334.58005 
L 1139.221823 333.908643 
L 1140.573049 334.076304 
L 1141.924275 335.806244 
L 1143.275501 340.906909 
L 1144.626727 340.884896 
L 1147.329178 334.986928 
L 1148.680404 333.563544 
L 1150.03163 336.329606 
L 1151.382856 339.805214 
L 1154.085308 339.75906 
L 1155.436534 335.397852 
L 1158.138986 335.45572 
L 1159.490212 334.447712 
L 1160.841438 337.276776 
L 1162.192663 336.350706 
L 1163.543889 336.009885 
L 1164.895115 334.255006 
L 1166.246341 334.383851 
L 1168.948793 328.574243 
L 1170.300019 329.23057 
L 1171.651245 331.613638 
L 1173.002471 332.090632 
L 1174.353697 328.041663 
L 1175.704923 325.811813 
L 1177.056148 326.630609 
L 1178.407374 324.145108 
L 1179.7586 328.784243 
L 1181.109826 328.644237 
L 1182.461052 333.295137 
L 1183.812278 327.750171 
L 1185.163504 328.116847 
L 1186.51473 328.034709 
L 1187.865956 329.249839 
L 1190.568408 335.840327 
L 1191.919633 336.528221 
L 1193.270859 332.526693 
L 1194.622085 333.25624 
L 1195.973311 333.007568 
L 1197.324537 335.12319 
L 1198.675763 335.75866 
L 1200.026989 339.575076 
L 1201.378215 340.695784 
L 1202.729441 339.577931 
L 1204.080667 340.029607 
L 1205.431893 338.252089 
L 1206.783119 341.06218 
L 1208.134344 344.413416 
L 1209.48557 345.188844 
L 1210.836796 345.032603 
L 1212.188022 343.339772 
L 1213.539248 343.038455 
L 1216.2417 345.535423 
L 1217.592926 346.37849 
L 1218.944152 347.791394 
L 1220.295378 345.960976 
L 1221.646604 346.559686 
L 1222.997829 346.716849 
L 1224.349055 347.497837 
L 1225.700281 348.048609 
L 1227.051507 347.882108 
L 1228.402733 349.752245 
L 1229.753959 348.690699 
L 1231.105185 349.715582 
L 1232.456411 349.56361 
L 1233.807637 349.056389 
L 1235.158863 349.855502 
L 1236.510089 350.126947 
L 1237.861314 351.982965 
L 1240.563766 349.951479 
L 1241.914992 349.661825 
L 1243.266218 350.574719 
L 1244.617444 350.438174 
L 1245.96867 350.915287 
L 1247.319896 351.815481 
L 1248.671122 350.97264 
L 1250.022348 350.866834 
L 1251.373574 351.207883 
L 1252.724799 351.24088 
L 1254.076025 352.142669 
L 1255.427251 352.173749 
L 1256.778477 352.959013 
L 1258.129703 351.665572 
L 1259.480929 351.43944 
L 1262.183381 351.75213 
L 1264.885833 352.449114 
L 1266.237059 352.822339 
L 1267.588284 351.861358 
L 1268.93951 351.59692 
L 1270.290736 352.031441 
L 1271.641962 352.173211 
L 1272.993188 352.71841 
L 1274.344414 352.810169 
L 1275.69564 353.186492 
L 1277.046866 352.360644 
L 1278.398092 352.131065 
L 1281.100544 352.166383 
L 1282.451769 352.810937 
L 1283.802995 352.687053 
L 1285.154221 353.039868 
L 1286.505447 352.373582 
L 1287.856673 352.292714 
L 1289.207899 352.499598 
L 1290.559125 352.40951 
L 1291.910351 352.628 
L 1293.261577 352.497572 
L 1294.612803 352.692467 
L 1295.964029 352.259277 
L 1297.315255 352.289362 
L 1298.66648 352.166156 
L 1301.368932 352.522154 
L 1302.720158 352.373263 
L 1304.071384 352.635972 
L 1305.42261 351.993713 
L 1306.773836 352.559172 
L 1306.773836 352.559172 
" clip-path="url(#pd3ad025ca8)" style="fill: none; stroke: #ffa500; stroke-width: 1.5; stroke-linecap: square"/>
   </g>
   <g id="line2d_20">
    <path d="M 1306.773836 352.559172 
L 1308.125062 352.461477 
L 1309.476288 352.675107 
L 1310.827514 352.762369 
L 1312.17874 352.825498 
L 1313.529965 353.064289 
L 1314.881191 352.943193 
L 1316.232417 352.863978 
L 1317.583643 352.846443 
L 1318.934869 352.940579 
L 1320.286095 353.002556 
L 1321.637321 353.081216 
L 1322.988547 353.2755 
L 1324.339773 353.162237 
" clip-path="url(#pd3ad025ca8)" style="fill: none; stroke: #ff0000; stroke-width: 1.5; stroke-linecap: square"/>
   </g>
   <g id="patch_3">
    <path d="M 46.0125 368.3955 
L 46.0125 35.7555 
" style="fill: none; stroke: #000000; stroke-width: 0.8; stroke-linejoin: miter; stroke-linecap: square"/>
   </g>
   <g id="patch_4">
    <path d="M 1385.2125 368.3955 
L 1385.2125 35.7555 
" style="fill: none; stroke: #000000; stroke-width: 0.8; stroke-linejoin: miter; stroke-linecap: square"/>
   </g>
   <g id="patch_5">
    <path d="M 46.0125 368.3955 
L 1385.2125 368.3955 
" style="fill: none; stroke: #000000; stroke-width: 0.8; stroke-linejoin: miter; stroke-linecap: square"/>
   </g>
   <g id="patch_6">
    <path d="M 46.0125 35.7555 
L 1385.2125 35.7555 
" style="fill: none; stroke: #000000; stroke-width: 0.8; stroke-linejoin: miter; stroke-linecap: square"/>
   </g>
   <g id="text_18">
    <!-- Daily Confirmed Cases Forecasting - Cuba -->
    <g transform="translate(589.634063 16.318125)scale(0.12 -0.12)">
     <defs>
      <path id="DejaVuSans-44" d="M 1259 4147 
L 1259 519 
L 2022 519 
Q 2988 519 3436 956 
Q 3884 1394 3884 2338 
Q 3884 3275 3436 3711 
Q 2988 4147 2022 4147 
L 1259 4147 
z
M 628 4666 
L 1925 4666 
Q 3281 4666 3915 4102 
Q 4550 3538 4550 2338 
Q 4550 1131 3912 565 
Q 3275 0 1925 0 
L 628 0 
L 628 4666 
z
" transform="scale(0.015625)"/>
      <path id="DejaVuSans-61" d="M 2194 1759 
Q 1497 1759 1228 1600 
Q 959 1441 959 1056 
Q 959 750 1161 570 
Q 1363 391 1709 391 
Q 2188 391 2477 730 
Q 2766 1069 2766 1631 
L 2766 1759 
L 2194 1759 
z
M 3341 1997 
L 3341 0 
L 2766 0 
L 2766 531 
Q 2569 213 2275 61 
Q 1981 -91 1556 -91 
Q 1019 -91 701 211 
Q 384 513 384 1019 
Q 384 1609 779 1909 
Q 1175 2209 1959 2209 
L 2766 2209 
L 2766 2266 
Q 2766 2663 2505 2880 
Q 2244 3097 1772 3097 
Q 1472 3097 1187 3025 
Q 903 2953 641 2809 
L 641 3341 
Q 956 3463 1253 3523 
Q 1550 3584 1831 3584 
Q 2591 3584 2966 3190 
Q 3341 2797 3341 1997 
z
" transform="scale(0.015625)"/>
      <path id="DejaVuSans-69" d="M 603 3500 
L 1178 3500 
L 1178 0 
L 603 0 
L 603 3500 
z
M 603 4863 
L 1178 4863 
L 1178 4134 
L 603 4134 
L 603 4863 
z
" transform="scale(0.015625)"/>
      <path id="DejaVuSans-6c" d="M 603 4863 
L 1178 4863 
L 1178 0 
L 603 0 
L 603 4863 
z
" transform="scale(0.015625)"/>
      <path id="DejaVuSans-79" d="M 2059 -325 
Q 1816 -950 1584 -1140 
Q 1353 -1331 966 -1331 
L 506 -1331 
L 506 -850 
L 844 -850 
Q 1081 -850 1212 -737 
Q 1344 -625 1503 -206 
L 1606 56 
L 191 3500 
L 800 3500 
L 1894 763 
L 2988 3500 
L 3597 3500 
L 2059 -325 
z
" transform="scale(0.015625)"/>
      <path id="DejaVuSans-20" transform="scale(0.015625)"/>
      <path id="DejaVuSans-43" d="M 4122 4306 
L 4122 3641 
Q 3803 3938 3442 4084 
Q 3081 4231 2675 4231 
Q 1875 4231 1450 3742 
Q 1025 3253 1025 2328 
Q 1025 1406 1450 917 
Q 1875 428 2675 428 
Q 3081 428 3442 575 
Q 3803 722 4122 1019 
L 4122 359 
Q 3791 134 3420 21 
Q 3050 -91 2638 -91 
Q 1578 -91 968 557 
Q 359 1206 359 2328 
Q 359 3453 968 4101 
Q 1578 4750 2638 4750 
Q 3056 4750 3426 4639 
Q 3797 4528 4122 4306 
z
" transform="scale(0.015625)"/>
      <path id="DejaVuSans-6f" d="M 1959 3097 
Q 1497 3097 1228 2736 
Q 959 2375 959 1747 
Q 959 1119 1226 758 
Q 1494 397 1959 397 
Q 2419 397 2687 759 
Q 2956 1122 2956 1747 
Q 2956 2369 2687 2733 
Q 2419 3097 1959 3097 
z
M 1959 3584 
Q 2709 3584 3137 3096 
Q 3566 2609 3566 1747 
Q 3566 888 3137 398 
Q 2709 -91 1959 -91 
Q 1206 -91 779 398 
Q 353 888 353 1747 
Q 353 2609 779 3096 
Q 1206 3584 1959 3584 
z
" transform="scale(0.015625)"/>
      <path id="DejaVuSans-6e" d="M 3513 2113 
L 3513 0 
L 2938 0 
L 2938 2094 
Q 2938 2591 2744 2837 
Q 2550 3084 2163 3084 
Q 1697 3084 1428 2787 
Q 1159 2491 1159 1978 
L 1159 0 
L 581 0 
L 581 3500 
L 1159 3500 
L 1159 2956 
Q 1366 3272 1645 3428 
Q 1925 3584 2291 3584 
Q 2894 3584 3203 3211 
Q 3513 2838 3513 2113 
z
" transform="scale(0.015625)"/>
      <path id="DejaVuSans-66" d="M 2375 4863 
L 2375 4384 
L 1825 4384 
Q 1516 4384 1395 4259 
Q 1275 4134 1275 3809 
L 1275 3500 
L 2222 3500 
L 2222 3053 
L 1275 3053 
L 1275 0 
L 697 0 
L 697 3053 
L 147 3053 
L 147 3500 
L 697 3500 
L 697 3744 
Q 697 4328 969 4595 
Q 1241 4863 1831 4863 
L 2375 4863 
z
" transform="scale(0.015625)"/>
      <path id="DejaVuSans-72" d="M 2631 2963 
Q 2534 3019 2420 3045 
Q 2306 3072 2169 3072 
Q 1681 3072 1420 2755 
Q 1159 2438 1159 1844 
L 1159 0 
L 581 0 
L 581 3500 
L 1159 3500 
L 1159 2956 
Q 1341 3275 1631 3429 
Q 1922 3584 2338 3584 
Q 2397 3584 2469 3576 
Q 2541 3569 2628 3553 
L 2631 2963 
z
" transform="scale(0.015625)"/>
      <path id="DejaVuSans-6d" d="M 3328 2828 
Q 3544 3216 3844 3400 
Q 4144 3584 4550 3584 
Q 5097 3584 5394 3201 
Q 5691 2819 5691 2113 
L 5691 0 
L 5113 0 
L 5113 2094 
Q 5113 2597 4934 2840 
Q 4756 3084 4391 3084 
Q 3944 3084 3684 2787 
Q 3425 2491 3425 1978 
L 3425 0 
L 2847 0 
L 2847 2094 
Q 2847 2600 2669 2842 
Q 2491 3084 2119 3084 
Q 1678 3084 1418 2786 
Q 1159 2488 1159 1978 
L 1159 0 
L 581 0 
L 581 3500 
L 1159 3500 
L 1159 2956 
Q 1356 3278 1631 3431 
Q 1906 3584 2284 3584 
Q 2666 3584 2933 3390 
Q 3200 3197 3328 2828 
z
" transform="scale(0.015625)"/>
      <path id="DejaVuSans-65" d="M 3597 1894 
L 3597 1613 
L 953 1613 
Q 991 1019 1311 708 
Q 1631 397 2203 397 
Q 2534 397 2845 478 
Q 3156 559 3463 722 
L 3463 178 
Q 3153 47 2828 -22 
Q 2503 -91 2169 -91 
Q 1331 -91 842 396 
Q 353 884 353 1716 
Q 353 2575 817 3079 
Q 1281 3584 2069 3584 
Q 2775 3584 3186 3129 
Q 3597 2675 3597 1894 
z
M 3022 2063 
Q 3016 2534 2758 2815 
Q 2500 3097 2075 3097 
Q 1594 3097 1305 2825 
Q 1016 2553 972 2059 
L 3022 2063 
z
" transform="scale(0.015625)"/>
      <path id="DejaVuSans-64" d="M 2906 2969 
L 2906 4863 
L 3481 4863 
L 3481 0 
L 2906 0 
L 2906 525 
Q 2725 213 2448 61 
Q 2172 -91 1784 -91 
Q 1150 -91 751 415 
Q 353 922 353 1747 
Q 353 2572 751 3078 
Q 1150 3584 1784 3584 
Q 2172 3584 2448 3432 
Q 2725 3281 2906 2969 
z
M 947 1747 
Q 947 1113 1208 752 
Q 1469 391 1925 391 
Q 2381 391 2643 752 
Q 2906 1113 2906 1747 
Q 2906 2381 2643 2742 
Q 2381 3103 1925 3103 
Q 1469 3103 1208 2742 
Q 947 2381 947 1747 
z
" transform="scale(0.015625)"/>
      <path id="DejaVuSans-73" d="M 2834 3397 
L 2834 2853 
Q 2591 2978 2328 3040 
Q 2066 3103 1784 3103 
Q 1356 3103 1142 2972 
Q 928 2841 928 2578 
Q 928 2378 1081 2264 
Q 1234 2150 1697 2047 
L 1894 2003 
Q 2506 1872 2764 1633 
Q 3022 1394 3022 966 
Q 3022 478 2636 193 
Q 2250 -91 1575 -91 
Q 1294 -91 989 -36 
Q 684 19 347 128 
L 347 722 
Q 666 556 975 473 
Q 1284 391 1588 391 
Q 1994 391 2212 530 
Q 2431 669 2431 922 
Q 2431 1156 2273 1281 
Q 2116 1406 1581 1522 
L 1381 1569 
Q 847 1681 609 1914 
Q 372 2147 372 2553 
Q 372 3047 722 3315 
Q 1072 3584 1716 3584 
Q 2034 3584 2315 3537 
Q 2597 3491 2834 3397 
z
" transform="scale(0.015625)"/>
      <path id="DejaVuSans-46" d="M 628 4666 
L 3309 4666 
L 3309 4134 
L 1259 4134 
L 1259 2759 
L 3109 2759 
L 3109 2228 
L 1259 2228 
L 1259 0 
L 628 0 
L 628 4666 
z
" transform="scale(0.015625)"/>
      <path id="DejaVuSans-63" d="M 3122 3366 
L 3122 2828 
Q 2878 2963 2633 3030 
Q 2388 3097 2138 3097 
Q 1578 3097 1268 2742 
Q 959 2388 959 1747 
Q 959 1106 1268 751 
Q 1578 397 2138 397 
Q 2388 397 2633 464 
Q 2878 531 3122 666 
L 3122 134 
Q 2881 22 2623 -34 
Q 2366 -91 2075 -91 
Q 1284 -91 818 406 
Q 353 903 353 1747 
Q 353 2603 823 3093 
Q 1294 3584 2113 3584 
Q 2378 3584 2631 3529 
Q 2884 3475 3122 3366 
z
" transform="scale(0.015625)"/>
      <path id="DejaVuSans-74" d="M 1172 4494 
L 1172 3500 
L 2356 3500 
L 2356 3053 
L 1172 3053 
L 1172 1153 
Q 1172 725 1289 603 
Q 1406 481 1766 481 
L 2356 481 
L 2356 0 
L 1766 0 
Q 1100 0 847 248 
Q 594 497 594 1153 
L 594 3053 
L 172 3053 
L 172 3500 
L 594 3500 
L 594 4494 
L 1172 4494 
z
" transform="scale(0.015625)"/>
      <path id="DejaVuSans-67" d="M 2906 1791 
Q 2906 2416 2648 2759 
Q 2391 3103 1925 3103 
Q 1463 3103 1205 2759 
Q 947 2416 947 1791 
Q 947 1169 1205 825 
Q 1463 481 1925 481 
Q 2391 481 2648 825 
Q 2906 1169 2906 1791 
z
M 3481 434 
Q 3481 -459 3084 -895 
Q 2688 -1331 1869 -1331 
Q 1566 -1331 1297 -1286 
Q 1028 -1241 775 -1147 
L 775 -588 
Q 1028 -725 1275 -790 
Q 1522 -856 1778 -856 
Q 2344 -856 2625 -561 
Q 2906 -266 2906 331 
L 2906 616 
Q 2728 306 2450 153 
Q 2172 0 1784 0 
Q 1141 0 747 490 
Q 353 981 353 1791 
Q 353 2603 747 3093 
Q 1141 3584 1784 3584 
Q 2172 3584 2450 3431 
Q 2728 3278 2906 2969 
L 2906 3500 
L 3481 3500 
L 3481 434 
z
" transform="scale(0.015625)"/>
      <path id="DejaVuSans-75" d="M 544 1381 
L 544 3500 
L 1119 3500 
L 1119 1403 
Q 1119 906 1312 657 
Q 1506 409 1894 409 
Q 2359 409 2629 706 
Q 2900 1003 2900 1516 
L 2900 3500 
L 3475 3500 
L 3475 0 
L 2900 0 
L 2900 538 
Q 2691 219 2414 64 
Q 2138 -91 1772 -91 
Q 1169 -91 856 284 
Q 544 659 544 1381 
z
M 1991 3584 
L 1991 3584 
z
" transform="scale(0.015625)"/>
      <path id="DejaVuSans-62" d="M 3116 1747 
Q 3116 2381 2855 2742 
Q 2594 3103 2138 3103 
Q 1681 3103 1420 2742 
Q 1159 2381 1159 1747 
Q 1159 1113 1420 752 
Q 1681 391 2138 391 
Q 2594 391 2855 752 
Q 3116 1113 3116 1747 
z
M 1159 2969 
Q 1341 3281 1617 3432 
Q 1894 3584 2278 3584 
Q 2916 3584 3314 3078 
Q 3713 2572 3713 1747 
Q 3713 922 3314 415 
Q 2916 -91 2278 -91 
Q 1894 -91 1617 61 
Q 1341 213 1159 525 
L 1159 0 
L 581 0 
L 581 4863 
L 1159 4863 
L 1159 2969 
z
" transform="scale(0.015625)"/>
     </defs>
     <use xlink:href="#DejaVuSans-44"/>
     <use xlink:href="#DejaVuSans-61" x="77.001953"/>
     <use xlink:href="#DejaVuSans-69" x="138.28125"/>
     <use xlink:href="#DejaVuSans-6c" x="166.064453"/>
     <use xlink:href="#DejaVuSans-79" x="193.847656"/>
     <use xlink:href="#DejaVuSans-20" x="253.027344"/>
     <use xlink:href="#DejaVuSans-43" x="284.814453"/>
     <use xlink:href="#DejaVuSans-6f" x="354.638672"/>
     <use xlink:href="#DejaVuSans-6e" x="415.820312"/>
     <use xlink:href="#DejaVuSans-66" x="479.199219"/>
     <use xlink:href="#DejaVuSans-69" x="514.404297"/>
     <use xlink:href="#DejaVuSans-72" x="542.1875"/>
     <use xlink:href="#DejaVuSans-6d" x="581.550781"/>
     <use xlink:href="#DejaVuSans-65" x="678.962891"/>
     <use xlink:href="#DejaVuSans-64" x="740.486328"/>
     <use xlink:href="#DejaVuSans-20" x="803.962891"/>
     <use xlink:href="#DejaVuSans-43" x="835.75"/>
     <use xlink:href="#DejaVuSans-61" x="905.574219"/>
     <use xlink:href="#DejaVuSans-73" x="966.853516"/>
     <use xlink:href="#DejaVuSans-65" x="1018.953125"/>
     <use xlink:href="#DejaVuSans-73" x="1080.476562"/>
     <use xlink:href="#DejaVuSans-20" x="1132.576172"/>
     <use xlink:href="#DejaVuSans-46" x="1164.363281"/>
     <use xlink:href="#DejaVuSans-6f" x="1218.257812"/>
     <use xlink:href="#DejaVuSans-72" x="1279.439453"/>
     <use xlink:href="#DejaVuSans-65" x="1318.302734"/>
     <use xlink:href="#DejaVuSans-63" x="1379.826172"/>
     <use xlink:href="#DejaVuSans-61" x="1434.806641"/>
     <use xlink:href="#DejaVuSans-73" x="1496.085938"/>
     <use xlink:href="#DejaVuSans-74" x="1548.185547"/>
     <use xlink:href="#DejaVuSans-69" x="1587.394531"/>
     <use xlink:href="#DejaVuSans-6e" x="1615.177734"/>
     <use xlink:href="#DejaVuSans-67" x="1678.556641"/>
     <use xlink:href="#DejaVuSans-20" x="1742.033203"/>
     <use xlink:href="#DejaVuSans-2d" x="1773.820312"/>
     <use xlink:href="#DejaVuSans-20" x="1809.904297"/>
     <use xlink:href="#DejaVuSans-43" x="1841.691406"/>
     <use xlink:href="#DejaVuSans-75" x="1911.515625"/>
     <use xlink:href="#DejaVuSans-62" x="1974.894531"/>
     <use xlink:href="#DejaVuSans-61" x="2038.371094"/>
    </g>
    <!-- ARIMA (4, 1, 0)x(1, 0, 1, 7) (R2 = 0.998149) -->
    <g transform="translate(583.628438 29.7555)scale(0.12 -0.12)">
     <defs>
      <path id="DejaVuSans-41" d="M 2188 4044 
L 1331 1722 
L 3047 1722 
L 2188 4044 
z
M 1831 4666 
L 2547 4666 
L 4325 0 
L 3669 0 
L 3244 1197 
L 1141 1197 
L 716 0 
L 50 0 
L 1831 4666 
z
" transform="scale(0.015625)"/>
      <path id="DejaVuSans-52" d="M 2841 2188 
Q 3044 2119 3236 1894 
Q 3428 1669 3622 1275 
L 4263 0 
L 3584 0 
L 2988 1197 
Q 2756 1666 2539 1819 
Q 2322 1972 1947 1972 
L 1259 1972 
L 1259 0 
L 628 0 
L 628 4666 
L 2053 4666 
Q 2853 4666 3247 4331 
Q 3641 3997 3641 3322 
Q 3641 2881 3436 2590 
Q 3231 2300 2841 2188 
z
M 1259 4147 
L 1259 2491 
L 2053 2491 
Q 2509 2491 2742 2702 
Q 2975 2913 2975 3322 
Q 2975 3731 2742 3939 
Q 2509 4147 2053 4147 
L 1259 4147 
z
" transform="scale(0.015625)"/>
      <path id="DejaVuSans-49" d="M 628 4666 
L 1259 4666 
L 1259 0 
L 628 0 
L 628 4666 
z
" transform="scale(0.015625)"/>
      <path id="DejaVuSans-4d" d="M 628 4666 
L 1569 4666 
L 2759 1491 
L 3956 4666 
L 4897 4666 
L 4897 0 
L 4281 0 
L 4281 4097 
L 3078 897 
L 2444 897 
L 1241 4097 
L 1241 0 
L 628 0 
L 628 4666 
z
" transform="scale(0.015625)"/>
      <path id="DejaVuSans-28" d="M 1984 4856 
Q 1566 4138 1362 3434 
Q 1159 2731 1159 2009 
Q 1159 1288 1364 580 
Q 1569 -128 1984 -844 
L 1484 -844 
Q 1016 -109 783 600 
Q 550 1309 550 2009 
Q 550 2706 781 3412 
Q 1013 4119 1484 4856 
L 1984 4856 
z
" transform="scale(0.015625)"/>
      <path id="DejaVuSans-2c" d="M 750 794 
L 1409 794 
L 1409 256 
L 897 -744 
L 494 -744 
L 750 256 
L 750 794 
z
" transform="scale(0.015625)"/>
      <path id="DejaVuSans-29" d="M 513 4856 
L 1013 4856 
Q 1481 4119 1714 3412 
Q 1947 2706 1947 2009 
Q 1947 1309 1714 600 
Q 1481 -109 1013 -844 
L 513 -844 
Q 928 -128 1133 580 
Q 1338 1288 1338 2009 
Q 1338 2731 1133 3434 
Q 928 4138 513 4856 
z
" transform="scale(0.015625)"/>
      <path id="DejaVuSans-78" d="M 3513 3500 
L 2247 1797 
L 3578 0 
L 2900 0 
L 1881 1375 
L 863 0 
L 184 0 
L 1544 1831 
L 300 3500 
L 978 3500 
L 1906 2253 
L 2834 3500 
L 3513 3500 
z
" transform="scale(0.015625)"/>
      <path id="DejaVuSans-3d" d="M 678 2906 
L 4684 2906 
L 4684 2381 
L 678 2381 
L 678 2906 
z
M 678 1631 
L 4684 1631 
L 4684 1100 
L 678 1100 
L 678 1631 
z
" transform="scale(0.015625)"/>
      <path id="DejaVuSans-2e" d="M 684 794 
L 1344 794 
L 1344 0 
L 684 0 
L 684 794 
z
" transform="scale(0.015625)"/>
      <path id="DejaVuSans-39" d="M 703 97 
L 703 672 
Q 941 559 1184 500 
Q 1428 441 1663 441 
Q 2288 441 2617 861 
Q 2947 1281 2994 2138 
Q 2813 1869 2534 1725 
Q 2256 1581 1919 1581 
Q 1219 1581 811 2004 
Q 403 2428 403 3163 
Q 403 3881 828 4315 
Q 1253 4750 1959 4750 
Q 2769 4750 3195 4129 
Q 3622 3509 3622 2328 
Q 3622 1225 3098 567 
Q 2575 -91 1691 -91 
Q 1453 -91 1209 -44 
Q 966 3 703 97 
z
M 1959 2075 
Q 2384 2075 2632 2365 
Q 2881 2656 2881 3163 
Q 2881 3666 2632 3958 
Q 2384 4250 1959 4250 
Q 1534 4250 1286 3958 
Q 1038 3666 1038 3163 
Q 1038 2656 1286 2365 
Q 1534 2075 1959 2075 
z
" transform="scale(0.015625)"/>
     </defs>
     <use xlink:href="#DejaVuSans-41"/>
     <use xlink:href="#DejaVuSans-52" x="68.408203"/>
     <use xlink:href="#DejaVuSans-49" x="137.890625"/>
     <use xlink:href="#DejaVuSans-4d" x="167.382812"/>
     <use xlink:href="#DejaVuSans-41" x="253.662109"/>
     <use xlink:href="#DejaVuSans-20" x="322.070312"/>
     <use xlink:href="#DejaVuSans-28" x="353.857422"/>
     <use xlink:href="#DejaVuSans-34" x="392.871094"/>
     <use xlink:href="#DejaVuSans-2c" x="456.494141"/>
     <use xlink:href="#DejaVuSans-20" x="488.28125"/>
     <use xlink:href="#DejaVuSans-31" x="520.068359"/>
     <use xlink:href="#DejaVuSans-2c" x="583.691406"/>
     <use xlink:href="#DejaVuSans-20" x="615.478516"/>
     <use xlink:href="#DejaVuSans-30" x="647.265625"/>
     <use xlink:href="#DejaVuSans-29" x="710.888672"/>
     <use xlink:href="#DejaVuSans-78" x="749.902344"/>
     <use xlink:href="#DejaVuSans-28" x="809.082031"/>
     <use xlink:href="#DejaVuSans-31" x="848.095703"/>
     <use xlink:href="#DejaVuSans-2c" x="911.71875"/>
     <use xlink:href="#DejaVuSans-20" x="943.505859"/>
     <use xlink:href="#DejaVuSans-30" x="975.292969"/>
     <use xlink:href="#DejaVuSans-2c" x="1038.916016"/>
     <use xlink:href="#DejaVuSans-20" x="1070.703125"/>
     <use xlink:href="#DejaVuSans-31" x="1102.490234"/>
     <use xlink:href="#DejaVuSans-2c" x="1166.113281"/>
     <use xlink:href="#DejaVuSans-20" x="1197.900391"/>
     <use xlink:href="#DejaVuSans-37" x="1229.6875"/>
     <use xlink:href="#DejaVuSans-29" x="1293.310547"/>
     <use xlink:href="#DejaVuSans-20" x="1332.324219"/>
     <use xlink:href="#DejaVuSans-28" x="1364.111328"/>
     <use xlink:href="#DejaVuSans-52" x="1403.125"/>
     <use xlink:href="#DejaVuSans-32" x="1472.607422"/>
     <use xlink:href="#DejaVuSans-20" x="1536.230469"/>
     <use xlink:href="#DejaVuSans-3d" x="1568.017578"/>
     <use xlink:href="#DejaVuSans-20" x="1651.806641"/>
     <use xlink:href="#DejaVuSans-30" x="1683.59375"/>
     <use xlink:href="#DejaVuSans-2e" x="1747.216797"/>
     <use xlink:href="#DejaVuSans-39" x="1779.003906"/>
     <use xlink:href="#DejaVuSans-39" x="1842.626953"/>
     <use xlink:href="#DejaVuSans-38" x="1906.25"/>
     <use xlink:href="#DejaVuSans-31" x="1969.873047"/>
     <use xlink:href="#DejaVuSans-34" x="2033.496094"/>
     <use xlink:href="#DejaVuSans-39" x="2097.119141"/>
     <use xlink:href="#DejaVuSans-29" x="2160.742188"/>
    </g>
   </g>
   <g id="legend_1">
    <g id="patch_7">
     <path d="M 1281.132812 87.789875 
L 1378.2125 87.789875 
Q 1380.2125 87.789875 1380.2125 85.789875 
L 1380.2125 42.7555 
Q 1380.2125 40.7555 1378.2125 40.7555 
L 1281.132812 40.7555 
Q 1279.132812 40.7555 1279.132812 42.7555 
L 1279.132812 85.789875 
Q 1279.132812 87.789875 1281.132812 87.789875 
z
" style="fill: #ffffff; opacity: 0.8; stroke: #cccccc; stroke-linejoin: miter"/>
    </g>
    <g id="line2d_21">
     <path d="M 1283.132812 48.853937 
L 1293.132812 48.853937 
L 1303.132812 48.853937 
" style="fill: none; stroke: #0000ff; stroke-width: 1.5; stroke-linecap: square"/>
    </g>
    <g id="text_19">
     <!-- Actual Value -->
     <g transform="translate(1311.132812 52.353937)scale(0.1 -0.1)">
      <defs>
       <path id="DejaVuSans-56" d="M 1831 0 
L 50 4666 
L 709 4666 
L 2188 738 
L 3669 4666 
L 4325 4666 
L 2547 0 
L 1831 0 
z
" transform="scale(0.015625)"/>
      </defs>
      <use xlink:href="#DejaVuSans-41"/>
      <use xlink:href="#DejaVuSans-63" x="66.658203"/>
      <use xlink:href="#DejaVuSans-74" x="121.638672"/>
      <use xlink:href="#DejaVuSans-75" x="160.847656"/>
      <use xlink:href="#DejaVuSans-61" x="224.226562"/>
      <use xlink:href="#DejaVuSans-6c" x="285.505859"/>
      <use xlink:href="#DejaVuSans-20" x="313.289062"/>
      <use xlink:href="#DejaVuSans-56" x="345.076172"/>
      <use xlink:href="#DejaVuSans-61" x="405.734375"/>
      <use xlink:href="#DejaVuSans-6c" x="467.013672"/>
      <use xlink:href="#DejaVuSans-75" x="494.796875"/>
      <use xlink:href="#DejaVuSans-65" x="558.175781"/>
     </g>
    </g>
    <g id="line2d_22">
     <path d="M 1283.132812 63.532062 
L 1293.132812 63.532062 
L 1303.132812 63.532062 
" style="fill: none; stroke: #ffa500; stroke-width: 1.5; stroke-linecap: square"/>
    </g>
    <g id="text_20">
     <!-- Check Value -->
     <g transform="translate(1311.132812 67.032062)scale(0.1 -0.1)">
      <defs>
       <path id="DejaVuSans-68" d="M 3513 2113 
L 3513 0 
L 2938 0 
L 2938 2094 
Q 2938 2591 2744 2837 
Q 2550 3084 2163 3084 
Q 1697 3084 1428 2787 
Q 1159 2491 1159 1978 
L 1159 0 
L 581 0 
L 581 4863 
L 1159 4863 
L 1159 2956 
Q 1366 3272 1645 3428 
Q 1925 3584 2291 3584 
Q 2894 3584 3203 3211 
Q 3513 2838 3513 2113 
z
" transform="scale(0.015625)"/>
       <path id="DejaVuSans-6b" d="M 581 4863 
L 1159 4863 
L 1159 1991 
L 2875 3500 
L 3609 3500 
L 1753 1863 
L 3688 0 
L 2938 0 
L 1159 1709 
L 1159 0 
L 581 0 
L 581 4863 
z
" transform="scale(0.015625)"/>
      </defs>
      <use xlink:href="#DejaVuSans-43"/>
      <use xlink:href="#DejaVuSans-68" x="69.824219"/>
      <use xlink:href="#DejaVuSans-65" x="133.203125"/>
      <use xlink:href="#DejaVuSans-63" x="194.726562"/>
      <use xlink:href="#DejaVuSans-6b" x="249.707031"/>
      <use xlink:href="#DejaVuSans-20" x="307.617188"/>
      <use xlink:href="#DejaVuSans-56" x="339.404297"/>
      <use xlink:href="#DejaVuSans-61" x="400.0625"/>
      <use xlink:href="#DejaVuSans-6c" x="461.341797"/>
      <use xlink:href="#DejaVuSans-75" x="489.125"/>
      <use xlink:href="#DejaVuSans-65" x="552.503906"/>
     </g>
    </g>
    <g id="line2d_23">
     <path d="M 1283.132812 78.210187 
L 1293.132812 78.210187 
L 1303.132812 78.210187 
" style="fill: none; stroke: #ff0000; stroke-width: 1.5; stroke-linecap: square"/>
    </g>
    <g id="text_21">
     <!-- Predict Value -->
     <g transform="translate(1311.132812 81.710187)scale(0.1 -0.1)">
      <defs>
       <path id="DejaVuSans-50" d="M 1259 4147 
L 1259 2394 
L 2053 2394 
Q 2494 2394 2734 2622 
Q 2975 2850 2975 3272 
Q 2975 3691 2734 3919 
Q 2494 4147 2053 4147 
L 1259 4147 
z
M 628 4666 
L 2053 4666 
Q 2838 4666 3239 4311 
Q 3641 3956 3641 3272 
Q 3641 2581 3239 2228 
Q 2838 1875 2053 1875 
L 1259 1875 
L 1259 0 
L 628 0 
L 628 4666 
z
" transform="scale(0.015625)"/>
      </defs>
      <use xlink:href="#DejaVuSans-50"/>
      <use xlink:href="#DejaVuSans-72" x="58.552734"/>
      <use xlink:href="#DejaVuSans-65" x="97.416016"/>
      <use xlink:href="#DejaVuSans-64" x="158.939453"/>
      <use xlink:href="#DejaVuSans-69" x="222.416016"/>
      <use xlink:href="#DejaVuSans-63" x="250.199219"/>
      <use xlink:href="#DejaVuSans-74" x="305.179688"/>
      <use xlink:href="#DejaVuSans-20" x="344.388672"/>
      <use xlink:href="#DejaVuSans-56" x="376.175781"/>
      <use xlink:href="#DejaVuSans-61" x="436.833984"/>
      <use xlink:href="#DejaVuSans-6c" x="498.113281"/>
      <use xlink:href="#DejaVuSans-75" x="525.896484"/>
      <use xlink:href="#DejaVuSans-65" x="589.275391"/>
     </g>
    </g>
   </g>
  </g>
 </g>
 <defs>
  <clipPath id="pd3ad025ca8">
   <rect x="46.0125" y="35.7555" width="1339.2" height="332.64"/>
  </clipPath>
 </defs>
</svg>
