<?xml version="1.0" encoding="utf-8" standalone="no"?>
<!DOCTYPE svg PUBLIC "-//W3C//DTD SVG 1.1//EN"
  "http://www.w3.org/Graphics/SVG/1.1/DTD/svg11.dtd">
<svg xmlns:xlink="http://www.w3.org/1999/xlink" width="1392.4125pt" height="392.273625pt" viewBox="0 0 1392.4125 392.273625" xmlns="http://www.w3.org/2000/svg" version="1.1">
 <metadata>
  <rdf:RDF xmlns:dc="http://purl.org/dc/elements/1.1/" xmlns:cc="http://creativecommons.org/ns#" xmlns:rdf="http://www.w3.org/1999/02/22-rdf-syntax-ns#">
   <cc:Work>
    <dc:type rdf:resource="http://purl.org/dc/dcmitype/StillImage"/>
    <dc:date>2022-07-22T19:40:31.415908</dc:date>
    <dc:format>image/svg+xml</dc:format>
    <dc:creator>
     <cc:Agent>
      <dc:title>Matplotlib v3.5.2, https://matplotlib.org/</dc:title>
     </cc:Agent>
    </dc:creator>
   </cc:Work>
  </rdf:RDF>
 </metadata>
 <defs>
  <style type="text/css">*{stroke-linejoin: round; stroke-linecap: butt}</style>
 </defs>
 <g id="figure_1">
  <g id="patch_1">
   <path d="M 0 392.273625 
L 1392.4125 392.273625 
L 1392.4125 0 
L 0 0 
z
" style="fill: #ffffff"/>
  </g>
  <g id="axes_1">
   <g id="patch_2">
    <path d="M 46.0125 368.3955 
L 1385.2125 368.3955 
L 1385.2125 35.7555 
L 46.0125 35.7555 
z
" style="fill: #ffffff"/>
   </g>
   <g id="matplotlib.axis_1">
    <g id="xtick_1">
     <g id="line2d_1">
      <defs>
       <path id="m47bf0ba566" d="M 0 0 
L 0 3.5 
" style="stroke: #000000; stroke-width: 0.8"/>
      </defs>
      <g>
       <use xlink:href="#m47bf0ba566" x="77.866809" y="368.3955" style="stroke: #000000; stroke-width: 0.8"/>
      </g>
     </g>
     <g id="text_1">
      <!-- 2020-01 -->
      <g transform="translate(56.975403 382.993937)scale(0.1 -0.1)">
       <defs>
        <path id="DejaVuSans-32" d="M 1228 531 
L 3431 531 
L 3431 0 
L 469 0 
L 469 531 
Q 828 903 1448 1529 
Q 2069 2156 2228 2338 
Q 2531 2678 2651 2914 
Q 2772 3150 2772 3378 
Q 2772 3750 2511 3984 
Q 2250 4219 1831 4219 
Q 1534 4219 1204 4116 
Q 875 4013 500 3803 
L 500 4441 
Q 881 4594 1212 4672 
Q 1544 4750 1819 4750 
Q 2544 4750 2975 4387 
Q 3406 4025 3406 3419 
Q 3406 3131 3298 2873 
Q 3191 2616 2906 2266 
Q 2828 2175 2409 1742 
Q 1991 1309 1228 531 
z
" transform="scale(0.015625)"/>
        <path id="DejaVuSans-30" d="M 2034 4250 
Q 1547 4250 1301 3770 
Q 1056 3291 1056 2328 
Q 1056 1369 1301 889 
Q 1547 409 2034 409 
Q 2525 409 2770 889 
Q 3016 1369 3016 2328 
Q 3016 3291 2770 3770 
Q 2525 4250 2034 4250 
z
M 2034 4750 
Q 2819 4750 3233 4129 
Q 3647 3509 3647 2328 
Q 3647 1150 3233 529 
Q 2819 -91 2034 -91 
Q 1250 -91 836 529 
Q 422 1150 422 2328 
Q 422 3509 836 4129 
Q 1250 4750 2034 4750 
z
" transform="scale(0.015625)"/>
        <path id="DejaVuSans-2d" d="M 313 2009 
L 1997 2009 
L 1997 1497 
L 313 1497 
L 313 2009 
z
" transform="scale(0.015625)"/>
        <path id="DejaVuSans-31" d="M 794 531 
L 1825 531 
L 1825 4091 
L 703 3866 
L 703 4441 
L 1819 4666 
L 2450 4666 
L 2450 531 
L 3481 531 
L 3481 0 
L 794 0 
L 794 531 
z
" transform="scale(0.015625)"/>
       </defs>
       <use xlink:href="#DejaVuSans-32"/>
       <use xlink:href="#DejaVuSans-30" x="63.623047"/>
       <use xlink:href="#DejaVuSans-32" x="127.246094"/>
       <use xlink:href="#DejaVuSans-30" x="190.869141"/>
       <use xlink:href="#DejaVuSans-2d" x="254.492188"/>
       <use xlink:href="#DejaVuSans-30" x="290.576172"/>
       <use xlink:href="#DejaVuSans-31" x="354.199219"/>
      </g>
     </g>
    </g>
    <g id="xtick_2">
     <g id="line2d_2">
      <g>
       <use xlink:href="#m47bf0ba566" x="197.897539" y="368.3955" style="stroke: #000000; stroke-width: 0.8"/>
      </g>
     </g>
     <g id="text_2">
      <!-- 2020-04 -->
      <g transform="translate(177.006133 382.993937)scale(0.1 -0.1)">
       <defs>
        <path id="DejaVuSans-34" d="M 2419 4116 
L 825 1625 
L 2419 1625 
L 2419 4116 
z
M 2253 4666 
L 3047 4666 
L 3047 1625 
L 3713 1625 
L 3713 1100 
L 3047 1100 
L 3047 0 
L 2419 0 
L 2419 1100 
L 313 1100 
L 313 1709 
L 2253 4666 
z
" transform="scale(0.015625)"/>
       </defs>
       <use xlink:href="#DejaVuSans-32"/>
       <use xlink:href="#DejaVuSans-30" x="63.623047"/>
       <use xlink:href="#DejaVuSans-32" x="127.246094"/>
       <use xlink:href="#DejaVuSans-30" x="190.869141"/>
       <use xlink:href="#DejaVuSans-2d" x="254.492188"/>
       <use xlink:href="#DejaVuSans-30" x="290.576172"/>
       <use xlink:href="#DejaVuSans-34" x="354.199219"/>
      </g>
     </g>
    </g>
    <g id="xtick_3">
     <g id="line2d_3">
      <g>
       <use xlink:href="#m47bf0ba566" x="317.928269" y="368.3955" style="stroke: #000000; stroke-width: 0.8"/>
      </g>
     </g>
     <g id="text_3">
      <!-- 2020-07 -->
      <g transform="translate(297.036862 382.993937)scale(0.1 -0.1)">
       <defs>
        <path id="DejaVuSans-37" d="M 525 4666 
L 3525 4666 
L 3525 4397 
L 1831 0 
L 1172 0 
L 2766 4134 
L 525 4134 
L 525 4666 
z
" transform="scale(0.015625)"/>
       </defs>
       <use xlink:href="#DejaVuSans-32"/>
       <use xlink:href="#DejaVuSans-30" x="63.623047"/>
       <use xlink:href="#DejaVuSans-32" x="127.246094"/>
       <use xlink:href="#DejaVuSans-30" x="190.869141"/>
       <use xlink:href="#DejaVuSans-2d" x="254.492188"/>
       <use xlink:href="#DejaVuSans-30" x="290.576172"/>
       <use xlink:href="#DejaVuSans-37" x="354.199219"/>
      </g>
     </g>
    </g>
    <g id="xtick_4">
     <g id="line2d_4">
      <g>
       <use xlink:href="#m47bf0ba566" x="439.278018" y="368.3955" style="stroke: #000000; stroke-width: 0.8"/>
      </g>
     </g>
     <g id="text_4">
      <!-- 2020-10 -->
      <g transform="translate(418.386611 382.993937)scale(0.1 -0.1)">
       <use xlink:href="#DejaVuSans-32"/>
       <use xlink:href="#DejaVuSans-30" x="63.623047"/>
       <use xlink:href="#DejaVuSans-32" x="127.246094"/>
       <use xlink:href="#DejaVuSans-30" x="190.869141"/>
       <use xlink:href="#DejaVuSans-2d" x="254.492188"/>
       <use xlink:href="#DejaVuSans-31" x="290.576172"/>
       <use xlink:href="#DejaVuSans-30" x="354.199219"/>
      </g>
     </g>
    </g>
    <g id="xtick_5">
     <g id="line2d_5">
      <g>
       <use xlink:href="#m47bf0ba566" x="560.627766" y="368.3955" style="stroke: #000000; stroke-width: 0.8"/>
      </g>
     </g>
     <g id="text_5">
      <!-- 2021-01 -->
      <g transform="translate(539.73636 382.993937)scale(0.1 -0.1)">
       <use xlink:href="#DejaVuSans-32"/>
       <use xlink:href="#DejaVuSans-30" x="63.623047"/>
       <use xlink:href="#DejaVuSans-32" x="127.246094"/>
       <use xlink:href="#DejaVuSans-31" x="190.869141"/>
       <use xlink:href="#DejaVuSans-2d" x="254.492188"/>
       <use xlink:href="#DejaVuSans-30" x="290.576172"/>
       <use xlink:href="#DejaVuSans-31" x="354.199219"/>
      </g>
     </g>
    </g>
    <g id="xtick_6">
     <g id="line2d_6">
      <g>
       <use xlink:href="#m47bf0ba566" x="679.339477" y="368.3955" style="stroke: #000000; stroke-width: 0.8"/>
      </g>
     </g>
     <g id="text_6">
      <!-- 2021-04 -->
      <g transform="translate(658.448071 382.993937)scale(0.1 -0.1)">
       <use xlink:href="#DejaVuSans-32"/>
       <use xlink:href="#DejaVuSans-30" x="63.623047"/>
       <use xlink:href="#DejaVuSans-32" x="127.246094"/>
       <use xlink:href="#DejaVuSans-31" x="190.869141"/>
       <use xlink:href="#DejaVuSans-2d" x="254.492188"/>
       <use xlink:href="#DejaVuSans-30" x="290.576172"/>
       <use xlink:href="#DejaVuSans-34" x="354.199219"/>
      </g>
     </g>
    </g>
    <g id="xtick_7">
     <g id="line2d_7">
      <g>
       <use xlink:href="#m47bf0ba566" x="799.370207" y="368.3955" style="stroke: #000000; stroke-width: 0.8"/>
      </g>
     </g>
     <g id="text_7">
      <!-- 2021-07 -->
      <g transform="translate(778.478801 382.993937)scale(0.1 -0.1)">
       <use xlink:href="#DejaVuSans-32"/>
       <use xlink:href="#DejaVuSans-30" x="63.623047"/>
       <use xlink:href="#DejaVuSans-32" x="127.246094"/>
       <use xlink:href="#DejaVuSans-31" x="190.869141"/>
       <use xlink:href="#DejaVuSans-2d" x="254.492188"/>
       <use xlink:href="#DejaVuSans-30" x="290.576172"/>
       <use xlink:href="#DejaVuSans-37" x="354.199219"/>
      </g>
     </g>
    </g>
    <g id="xtick_8">
     <g id="line2d_8">
      <g>
       <use xlink:href="#m47bf0ba566" x="920.719956" y="368.3955" style="stroke: #000000; stroke-width: 0.8"/>
      </g>
     </g>
     <g id="text_8">
      <!-- 2021-10 -->
      <g transform="translate(899.82855 382.993937)scale(0.1 -0.1)">
       <use xlink:href="#DejaVuSans-32"/>
       <use xlink:href="#DejaVuSans-30" x="63.623047"/>
       <use xlink:href="#DejaVuSans-32" x="127.246094"/>
       <use xlink:href="#DejaVuSans-31" x="190.869141"/>
       <use xlink:href="#DejaVuSans-2d" x="254.492188"/>
       <use xlink:href="#DejaVuSans-31" x="290.576172"/>
       <use xlink:href="#DejaVuSans-30" x="354.199219"/>
      </g>
     </g>
    </g>
    <g id="xtick_9">
     <g id="line2d_9">
      <g>
       <use xlink:href="#m47bf0ba566" x="1042.069705" y="368.3955" style="stroke: #000000; stroke-width: 0.8"/>
      </g>
     </g>
     <g id="text_9">
      <!-- 2022-01 -->
      <g transform="translate(1021.178299 382.993937)scale(0.1 -0.1)">
       <use xlink:href="#DejaVuSans-32"/>
       <use xlink:href="#DejaVuSans-30" x="63.623047"/>
       <use xlink:href="#DejaVuSans-32" x="127.246094"/>
       <use xlink:href="#DejaVuSans-32" x="190.869141"/>
       <use xlink:href="#DejaVuSans-2d" x="254.492188"/>
       <use xlink:href="#DejaVuSans-30" x="290.576172"/>
       <use xlink:href="#DejaVuSans-31" x="354.199219"/>
      </g>
     </g>
    </g>
    <g id="xtick_10">
     <g id="line2d_10">
      <g>
       <use xlink:href="#m47bf0ba566" x="1160.781416" y="368.3955" style="stroke: #000000; stroke-width: 0.8"/>
      </g>
     </g>
     <g id="text_10">
      <!-- 2022-04 -->
      <g transform="translate(1139.890009 382.993937)scale(0.1 -0.1)">
       <use xlink:href="#DejaVuSans-32"/>
       <use xlink:href="#DejaVuSans-30" x="63.623047"/>
       <use xlink:href="#DejaVuSans-32" x="127.246094"/>
       <use xlink:href="#DejaVuSans-32" x="190.869141"/>
       <use xlink:href="#DejaVuSans-2d" x="254.492188"/>
       <use xlink:href="#DejaVuSans-30" x="290.576172"/>
       <use xlink:href="#DejaVuSans-34" x="354.199219"/>
      </g>
     </g>
    </g>
    <g id="xtick_11">
     <g id="line2d_11">
      <g>
       <use xlink:href="#m47bf0ba566" x="1280.812145" y="368.3955" style="stroke: #000000; stroke-width: 0.8"/>
      </g>
     </g>
     <g id="text_11">
      <!-- 2022-07 -->
      <g transform="translate(1259.920739 382.993937)scale(0.1 -0.1)">
       <use xlink:href="#DejaVuSans-32"/>
       <use xlink:href="#DejaVuSans-30" x="63.623047"/>
       <use xlink:href="#DejaVuSans-32" x="127.246094"/>
       <use xlink:href="#DejaVuSans-32" x="190.869141"/>
       <use xlink:href="#DejaVuSans-2d" x="254.492188"/>
       <use xlink:href="#DejaVuSans-30" x="290.576172"/>
       <use xlink:href="#DejaVuSans-37" x="354.199219"/>
      </g>
     </g>
    </g>
   </g>
   <g id="matplotlib.axis_2">
    <g id="ytick_1">
     <g id="line2d_12">
      <defs>
       <path id="m8d82d614e9" d="M 0 0 
L -3.5 0 
" style="stroke: #000000; stroke-width: 0.8"/>
      </defs>
      <g>
       <use xlink:href="#m8d82d614e9" x="46.0125" y="318.946699" style="stroke: #000000; stroke-width: 0.8"/>
      </g>
     </g>
     <g id="text_12">
      <!-- 0 -->
      <g transform="translate(32.65 322.745918)scale(0.1 -0.1)">
       <use xlink:href="#DejaVuSans-30"/>
      </g>
     </g>
    </g>
    <g id="ytick_2">
     <g id="line2d_13">
      <g>
       <use xlink:href="#m8d82d614e9" x="46.0125" y="256.891744" style="stroke: #000000; stroke-width: 0.8"/>
      </g>
     </g>
     <g id="text_13">
      <!-- 10000 -->
      <g transform="translate(7.2 260.690963)scale(0.1 -0.1)">
       <use xlink:href="#DejaVuSans-31"/>
       <use xlink:href="#DejaVuSans-30" x="63.623047"/>
       <use xlink:href="#DejaVuSans-30" x="127.246094"/>
       <use xlink:href="#DejaVuSans-30" x="190.869141"/>
       <use xlink:href="#DejaVuSans-30" x="254.492188"/>
      </g>
     </g>
    </g>
    <g id="ytick_3">
     <g id="line2d_14">
      <g>
       <use xlink:href="#m8d82d614e9" x="46.0125" y="194.83679" style="stroke: #000000; stroke-width: 0.8"/>
      </g>
     </g>
     <g id="text_14">
      <!-- 20000 -->
      <g transform="translate(7.2 198.636008)scale(0.1 -0.1)">
       <use xlink:href="#DejaVuSans-32"/>
       <use xlink:href="#DejaVuSans-30" x="63.623047"/>
       <use xlink:href="#DejaVuSans-30" x="127.246094"/>
       <use xlink:href="#DejaVuSans-30" x="190.869141"/>
       <use xlink:href="#DejaVuSans-30" x="254.492188"/>
      </g>
     </g>
    </g>
    <g id="ytick_4">
     <g id="line2d_15">
      <g>
       <use xlink:href="#m8d82d614e9" x="46.0125" y="132.781835" style="stroke: #000000; stroke-width: 0.8"/>
      </g>
     </g>
     <g id="text_15">
      <!-- 30000 -->
      <g transform="translate(7.2 136.581054)scale(0.1 -0.1)">
       <defs>
        <path id="DejaVuSans-33" d="M 2597 2516 
Q 3050 2419 3304 2112 
Q 3559 1806 3559 1356 
Q 3559 666 3084 287 
Q 2609 -91 1734 -91 
Q 1441 -91 1130 -33 
Q 819 25 488 141 
L 488 750 
Q 750 597 1062 519 
Q 1375 441 1716 441 
Q 2309 441 2620 675 
Q 2931 909 2931 1356 
Q 2931 1769 2642 2001 
Q 2353 2234 1838 2234 
L 1294 2234 
L 1294 2753 
L 1863 2753 
Q 2328 2753 2575 2939 
Q 2822 3125 2822 3475 
Q 2822 3834 2567 4026 
Q 2313 4219 1838 4219 
Q 1578 4219 1281 4162 
Q 984 4106 628 3988 
L 628 4550 
Q 988 4650 1302 4700 
Q 1616 4750 1894 4750 
Q 2613 4750 3031 4423 
Q 3450 4097 3450 3541 
Q 3450 3153 3228 2886 
Q 3006 2619 2597 2516 
z
" transform="scale(0.015625)"/>
       </defs>
       <use xlink:href="#DejaVuSans-33"/>
       <use xlink:href="#DejaVuSans-30" x="63.623047"/>
       <use xlink:href="#DejaVuSans-30" x="127.246094"/>
       <use xlink:href="#DejaVuSans-30" x="190.869141"/>
       <use xlink:href="#DejaVuSans-30" x="254.492188"/>
      </g>
     </g>
    </g>
    <g id="ytick_5">
     <g id="line2d_16">
      <g>
       <use xlink:href="#m8d82d614e9" x="46.0125" y="70.72688" style="stroke: #000000; stroke-width: 0.8"/>
      </g>
     </g>
     <g id="text_16">
      <!-- 40000 -->
      <g transform="translate(7.2 74.526099)scale(0.1 -0.1)">
       <use xlink:href="#DejaVuSans-34"/>
       <use xlink:href="#DejaVuSans-30" x="63.623047"/>
       <use xlink:href="#DejaVuSans-30" x="127.246094"/>
       <use xlink:href="#DejaVuSans-30" x="190.869141"/>
       <use xlink:href="#DejaVuSans-30" x="254.492188"/>
      </g>
     </g>
    </g>
   </g>
   <g id="line2d_17">
    <path d="M 106.885227 318.946699 
L 171.517159 318.946699 
L 172.836178 318.655041 
L 174.155197 318.704685 
L 175.474216 318.946699 
L 176.793235 318.698479 
L 179.431273 318.51852 
L 180.750292 317.302243 
L 182.069311 318.164807 
L 183.38833 318.313738 
L 184.707349 318.195834 
L 186.026368 317.587696 
L 187.345387 317.680778 
L 191.302444 317.072639 
L 192.621463 317.122283 
L 193.940482 317.7056 
L 195.259501 317.116078 
L 196.57852 316.929913 
L 197.897539 317.631134 
L 199.216558 316.45209 
L 200.535577 316.315569 
L 201.854596 316.89268 
L 203.173615 316.526556 
L 205.811653 316.805803 
L 207.130672 316.681693 
L 208.449691 315.843951 
L 209.76871 309.545373 
L 211.087729 313.740288 
L 212.406748 314.435304 
L 213.725767 312.790848 
L 215.044786 313.783727 
L 216.363805 312.31923 
L 217.682824 314.45392 
L 219.001843 314.547003 
L 220.320862 314.118824 
L 221.639881 315.88739 
L 222.9589 316.458295 
L 224.277919 316.538967 
L 225.596938 315.031031 
L 226.915957 313.138355 
L 228.234976 315.366128 
L 229.553995 316.607227 
L 230.873014 314.596647 
L 232.192033 316.551378 
L 233.511052 317.525641 
L 234.830071 316.613433 
L 236.14909 316.718926 
L 237.468109 317.575285 
L 238.787128 316.818214 
L 240.106147 316.898886 
L 242.744185 317.637339 
L 244.063204 317.302243 
L 245.382223 318.096546 
L 246.701242 317.978642 
L 248.020261 317.587696 
L 249.33928 317.482202 
L 250.658299 318.084135 
L 251.977318 318.282711 
L 253.296337 317.960025 
L 254.615356 316.303158 
L 255.934375 318.14619 
L 258.572413 318.549547 
L 259.891432 318.400615 
L 261.210451 318.630219 
L 263.848489 318.475081 
L 265.167508 318.233067 
L 266.486527 318.475081 
L 267.805546 318.592986 
L 269.124565 318.580575 
L 270.443584 318.717096 
L 271.762603 318.524725 
L 273.081622 318.71089 
L 274.400641 318.729507 
L 278.357698 318.499903 
L 279.676717 318.921877 
L 280.995736 318.667452 
L 284.952794 318.822589 
L 292.866908 318.872233 
L 294.185927 318.667452 
L 295.504946 318.897055 
L 298.142984 318.866028 
L 300.781022 318.859822 
L 311.333174 318.89085 
L 312.652193 318.803973 
L 313.971212 318.934288 
L 315.290231 318.803973 
L 317.928269 318.921877 
L 321.885326 318.878439 
L 323.204345 318.835 
L 325.842383 318.903261 
L 327.161402 318.921877 
L 328.480421 318.803973 
L 340.351592 318.822589 
L 342.98963 318.909466 
L 344.308649 318.723301 
L 346.946687 318.903261 
L 349.584725 318.797767 
L 352.222763 318.878439 
L 353.541782 318.717096 
L 354.860801 318.866028 
L 356.17982 318.419232 
L 357.498839 318.71089 
L 362.774915 318.667452 
L 365.412953 318.51852 
L 366.731972 318.33856 
L 368.050991 317.866943 
L 369.37001 318.524725 
L 373.327067 318.717096 
L 374.646086 318.381999 
L 375.965105 318.537136 
L 377.284124 317.730422 
L 378.603143 318.537136 
L 379.922162 318.599191 
L 381.241181 317.792477 
L 382.5602 318.648835 
L 383.879219 318.14619 
L 385.198238 318.456465 
L 386.517257 317.997258 
L 387.836276 318.568164 
L 389.155295 318.034491 
L 390.474314 318.419232 
L 391.793333 317.941409 
L 393.112352 318.388204 
L 395.75039 318.065519 
L 397.069409 318.698479 
L 398.388428 318.630219 
L 399.707447 317.618723 
L 401.026466 318.39441 
L 403.664504 318.344766 
L 404.983523 317.51323 
L 406.302542 318.090341 
L 407.621561 318.313738 
L 408.94058 317.047817 
L 410.259599 318.425437 
L 411.578618 317.730422 
L 412.897637 317.637339 
L 414.216656 317.960025 
L 415.535675 317.364298 
L 416.854694 317.662161 
L 418.173713 316.731337 
L 419.492732 317.395325 
L 420.811751 317.556668 
L 423.449789 317.289832 
L 424.768808 316.495528 
L 426.087827 317.780066 
L 427.406846 316.942324 
L 428.725866 317.51323 
L 430.044885 316.967146 
L 431.363904 316.954735 
L 432.682923 317.426353 
L 434.001942 316.278336 
L 435.320961 316.545172 
L 436.63998 316.694104 
L 437.958999 316.371418 
L 440.597037 316.054938 
L 441.916056 315.192374 
L 443.235075 316.687899 
L 444.554094 315.738458 
L 445.873113 316.315569 
L 447.192132 315.155141 
L 448.511151 315.83154 
L 449.83017 315.117908 
L 451.149189 312.672943 
L 452.468208 313.895426 
L 453.787227 313.839576 
L 455.106246 313.932659 
L 456.425265 312.219942 
L 457.744284 311.586981 
L 459.063303 312.753615 
L 460.382322 311.183624 
L 461.701341 310.978843 
L 463.02036 312.548833 
L 464.339379 311.109158 
L 466.977417 312.406107 
L 468.296436 314.075385 
L 469.615455 313.690644 
L 470.934474 312.617094 
L 472.253493 313.119739 
L 473.572512 314.602852 
L 474.891531 314.807634 
L 476.21055 313.591356 
L 477.529569 314.218111 
L 478.848588 316.483117 
L 480.167607 315.558499 
L 481.486626 314.304988 
L 482.805645 317.097461 
L 485.443683 315.453005 
L 486.762702 315.893595 
L 488.081721 316.979557 
L 489.40074 315.601937 
L 490.719759 317.302243 
L 492.038778 317.519435 
L 493.357797 316.725132 
L 494.676816 316.557583 
L 495.995835 316.048733 
L 498.633873 316.607227 
L 499.952892 316.13561 
L 501.271911 316.898886 
L 503.909949 316.371418 
L 505.228968 316.905091 
L 506.547987 316.830625 
L 507.867006 316.973351 
L 509.186025 317.395325 
L 510.505044 317.587696 
L 513.143082 317.041612 
L 514.462101 317.674572 
L 518.419158 317.066434 
L 519.738177 317.370503 
L 521.057196 317.283626 
L 522.376215 317.941409 
L 523.695234 317.314654 
L 525.014253 316.110788 
L 526.333272 317.097461 
L 527.652291 317.569079 
L 530.290329 317.593901 
L 531.609348 317.066434 
L 532.928367 317.060228 
L 534.247386 317.401531 
L 535.566405 316.284541 
L 536.885424 317.308448 
L 538.204443 316.917502 
L 539.523462 316.334185 
L 540.842481 315.961856 
L 542.1615 315.372334 
L 543.480519 315.70743 
L 544.799538 314.193289 
L 546.118557 314.447715 
L 547.437576 312.983218 
L 548.756595 313.194205 
L 550.075614 313.250054 
L 551.394633 312.586066 
L 552.713652 310.904377 
L 554.032671 314.38566 
L 555.35169 314.199495 
L 556.670709 309.359209 
L 557.989728 308.285658 
L 559.308747 308.881385 
L 560.627766 308.068465 
L 563.265804 288.161236 
L 564.584823 281.031122 
L 565.903842 285.902436 
L 567.222861 270.345258 
L 568.54188 278.592362 
L 569.860899 267.894088 
L 571.179918 288.893484 
L 572.498938 276.215657 
L 575.136976 300.007527 
L 576.455995 296.898574 
L 577.775014 294.664595 
L 579.094033 297.283314 
L 581.732071 300.665309 
L 583.05109 305.809665 
L 584.370109 306.56053 
L 585.689128 303.526043 
L 587.008147 302.824822 
L 588.327166 304.320346 
L 589.646185 307.12523 
L 590.965204 310.44517 
L 592.284223 310.451376 
L 593.603242 313.187999 
L 594.922261 310.687185 
L 596.24128 309.868059 
L 597.560299 311.208446 
L 598.879318 310.190745 
L 600.198337 311.227063 
L 601.517356 312.703971 
L 602.836375 313.541712 
L 604.155394 312.703971 
L 605.474413 310.792678 
L 606.793432 312.623299 
L 608.112451 314.075385 
L 609.43147 312.617094 
L 610.750489 313.802343 
L 612.069508 315.577115 
L 613.388527 312.747409 
L 614.707546 313.597562 
L 616.026565 313.243849 
L 617.345584 312.269586 
L 618.664603 314.06918 
L 619.983622 313.858193 
L 621.302641 314.534592 
L 622.62166 314.987593 
L 623.940679 313.386575 
L 625.259698 314.273961 
L 626.578717 312.877724 
L 627.897736 314.733168 
L 629.216755 314.689729 
L 630.535774 315.490238 
L 631.854793 315.595731 
L 633.173812 314.987593 
L 634.492831 314.149851 
L 635.81185 314.422893 
L 637.130869 315.148936 
L 638.449888 314.720757 
L 639.768907 316.731337 
L 641.087926 315.477827 
L 642.406945 316.092171 
L 643.725964 315.719841 
L 645.044983 315.657786 
L 646.364002 315.719841 
L 647.683021 316.265925 
L 649.00204 317.047817 
L 650.321059 315.031031 
L 651.640078 315.279251 
L 652.959097 314.968976 
L 654.278116 315.608142 
L 655.597135 316.569994 
L 656.916154 315.378539 
L 658.235173 316.793392 
L 659.554192 315.521266 
L 660.873211 315.341306 
L 662.19223 315.781896 
L 663.511249 315.688814 
L 664.830268 314.180879 
L 666.149287 315.719841 
L 667.468306 316.681693 
L 668.787325 314.726962 
L 670.106344 315.260635 
L 671.425363 315.415772 
L 672.744382 315.161347 
L 674.063401 315.19858 
L 675.38242 315.614348 
L 676.701439 316.675488 
L 678.020458 316.402446 
L 679.339477 314.317399 
L 680.658496 315.304073 
L 681.977515 315.794307 
L 683.296534 316.13561 
L 684.615553 316.973351 
L 685.934572 316.210076 
L 688.57261 316.476912 
L 689.891629 316.036322 
L 691.210648 316.148021 
L 692.529667 317.072639 
L 693.848686 316.557583 
L 695.167705 316.749954 
L 696.486724 316.334185 
L 697.805743 317.103667 
L 699.124762 316.359007 
L 700.443781 316.346596 
L 701.7628 317.271215 
L 703.081819 316.445884 
L 704.400838 316.551378 
L 705.719857 316.476912 
L 707.038876 315.130319 
L 708.357895 316.259719 
L 709.676914 316.085966 
L 710.995933 316.284541 
L 712.314952 316.241103 
L 713.633971 316.340391 
L 714.95299 316.663077 
L 716.27201 316.036322 
L 717.591029 315.570909 
L 718.910048 315.428183 
L 720.229067 316.458295 
L 721.548086 316.141815 
L 722.867105 316.5762 
L 724.186124 316.371418 
L 725.505143 316.545172 
L 726.824162 316.278336 
L 728.143181 316.470706 
L 729.4622 315.806718 
L 730.781219 316.588611 
L 732.100238 316.601022 
L 733.419257 316.179048 
L 736.057295 316.340391 
L 737.376314 316.085966 
L 738.695333 316.619638 
L 740.014352 316.594816 
L 741.333371 316.681693 
L 742.65239 315.682608 
L 743.971409 316.030116 
L 745.290428 315.63917 
L 746.609447 316.563789 
L 747.928466 316.172843 
L 749.247485 316.780981 
L 750.566504 316.756159 
L 751.885523 316.185254 
L 753.204542 316.265925 
L 754.523561 316.085966 
L 755.84258 316.116993 
L 757.161599 316.669282 
L 758.480618 316.650666 
L 759.799637 316.855447 
L 762.437675 316.061144 
L 763.756694 315.738458 
L 766.394732 317.004379 
L 767.713751 316.607227 
L 769.03277 317.463586 
L 770.351789 317.538052 
L 771.670808 316.476912 
L 772.989827 316.967146 
L 774.308846 316.27213 
L 776.946884 317.693189 
L 778.265903 317.190544 
L 779.584922 317.165722 
L 780.903941 316.632049 
L 782.22296 317.072639 
L 783.541979 316.507939 
L 784.860998 316.507939 
L 787.499036 317.866943 
L 788.818055 317.097461 
L 790.137074 317.060228 
L 792.775112 316.197665 
L 794.094131 316.836831 
L 795.41315 316.905091 
L 796.732169 316.82442 
L 798.051188 319.089425 
L 799.370207 313.510685 
L 800.689226 315.769485 
L 802.008245 316.166637 
L 803.327264 315.459211 
L 804.646283 316.867858 
L 805.965302 316.483117 
L 807.284321 315.63917 
L 808.60334 315.63917 
L 809.922359 315.031031 
L 811.241378 315.341306 
L 813.879416 315.397156 
L 815.198435 315.291662 
L 816.517454 314.373249 
L 817.836473 312.778437 
L 819.155492 311.686269 
L 820.474511 310.401732 
L 821.79353 311.63042 
L 823.112549 312.300613 
L 824.431568 312.058599 
L 825.750587 311.127775 
L 827.069606 311.57457 
L 828.388625 310.345882 
L 829.707644 310.600308 
L 831.026663 311.959311 
L 832.345682 311.028487 
L 833.664701 312.033777 
L 834.98372 310.873349 
L 836.302739 310.50102 
L 837.621758 309.63225 
L 838.940777 310.091457 
L 840.259796 312.133065 
L 841.578815 310.556869 
L 842.897834 313.461041 
L 844.216853 311.394611 
L 846.854891 307.894712 
L 848.17391 307.603053 
L 849.492929 307.547204 
L 850.811948 310.190745 
L 852.130967 309.582606 
L 853.449986 307.658903 
L 854.769005 308.192575 
L 856.088024 306.672229 
L 857.407043 306.076501 
L 860.045082 310.00458 
L 861.364101 309.663278 
L 862.68312 308.372535 
L 864.002139 307.665108 
L 865.321158 305.92757 
L 866.640177 305.760021 
L 867.959196 308.471823 
L 869.278215 309.079961 
L 870.597234 309.197866 
L 871.916253 306.219228 
L 873.235272 307.367244 
L 874.554291 307.311395 
L 875.87331 306.554325 
L 877.192329 308.360124 
L 878.511348 310.929199 
L 879.830367 310.370704 
L 881.149386 307.845068 
L 882.468405 329.53948 
L 883.787424 310.215567 
L 885.106443 308.37874 
L 886.425462 311.624214 
L 887.744481 311.897256 
L 889.0635 309.855648 
L 890.382519 309.408852 
L 891.701538 311.059514 
L 893.020557 308.900002 
L 894.339576 309.849443 
L 895.658595 310.594102 
L 896.977614 313.504479 
L 898.296633 311.649036 
L 899.615652 326.244362 
L 900.934671 295.583009 
L 902.25369 310.345882 
L 903.572709 309.911498 
L 904.891728 311.351173 
L 906.210747 311.810379 
L 907.529766 310.134895 
L 908.848785 310.079046 
L 910.167804 310.544458 
L 911.486823 311.729708 
L 912.805842 310.662363 
L 914.124861 309.892881 
L 915.44388 312.468162 
L 916.762899 309.657072 
L 918.081918 309.967347 
L 919.400937 311.084336 
L 920.719956 312.38749 
L 922.038975 309.104783 
L 923.357994 312.424723 
L 924.677013 313.405192 
L 925.996032 311.971722 
L 927.315051 312.852902 
L 928.63407 311.462871 
L 929.953089 306.523297 
L 931.272108 306.908038 
L 932.591127 310.358293 
L 933.910146 310.525842 
L 935.229165 309.911498 
L 936.548184 306.219228 
L 937.867203 308.856563 
L 940.505241 305.418719 
L 941.82426 310.383115 
L 943.143279 309.166838 
L 944.462298 304.072126 
L 945.781317 305.6235 
L 947.100336 306.374365 
L 948.419355 303.650153 
L 949.738374 303.885962 
L 951.057393 308.242219 
L 952.376412 307.49756 
L 953.695431 305.418719 
L 955.01445 308.868974 
L 956.333469 302.824822 
L 957.652488 303.178535 
L 958.971507 300.541199 
L 960.290526 306.765311 
L 962.928564 295.843639 
L 964.247583 299.250456 
L 965.566602 300.181281 
L 966.885621 294.72665 
L 968.20464 296.079448 
L 970.842678 299.331128 
L 972.161697 285.865203 
L 973.480716 300.528788 
L 974.799735 296.129092 
L 976.118754 284.952995 
L 978.756792 295.334789 
L 980.075811 290.662051 
L 981.39483 291.59908 
L 982.713849 296.408339 
L 984.032868 290.115967 
L 985.351887 299.504882 
L 986.670906 281.968151 
L 987.989925 293.001522 
L 989.308944 284.00976 
L 990.627963 296.22838 
L 991.946982 294.801116 
L 993.266001 289.389924 
L 994.58502 290.283515 
L 995.904039 289.21617 
L 997.223058 295.769173 
L 999.861096 285.077105 
L 1001.180115 295.427871 
L 1002.499134 293.138043 
L 1003.818154 285.38738 
L 1005.137173 284.059403 
L 1006.456192 286.951164 
L 1007.775211 300.882502 
L 1009.09423 284.413117 
L 1010.413249 293.342825 
L 1011.732268 294.106101 
L 1013.051287 293.522784 
L 1014.370306 294.099895 
L 1015.689325 289.985652 
L 1017.008344 289.886364 
L 1018.327363 294.925226 
L 1019.646382 292.697453 
L 1020.965401 293.249742 
L 1022.28442 296.637943 
L 1023.603439 273.441801 
L 1024.922458 287.14974 
L 1026.241477 289.234787 
L 1027.560496 286.249943 
L 1030.198534 272.957772 
L 1031.517553 249.556849 
L 1032.836572 233.528054 
L 1034.155591 254.384724 
L 1035.47461 277.152687 
L 1036.793629 263.060007 
L 1038.112648 217.002819 
L 1039.431667 191.398945 
L 1040.750686 194.154185 
L 1042.069705 174.476559 
L 1043.388724 318.946699 
L 1044.707743 107.60614 
L 1046.026762 186.757234 
L 1047.345781 209.382471 
L 1048.6648 171.150413 
L 1049.983819 182.885005 
L 1051.302838 156.846746 
L 1052.621857 186.248384 
L 1053.940876 318.946699 
L 1055.259895 50.8755 
L 1056.578914 189.195994 
L 1059.216952 213.049919 
L 1060.535971 228.625712 
L 1061.85499 252.219006 
L 1063.174009 279.672118 
L 1064.493028 283.159607 
L 1065.812047 276.482493 
L 1067.131066 284.673748 
L 1068.450085 278.009045 
L 1069.769104 277.43814 
L 1071.088123 289.5885 
L 1072.407142 296.03601 
L 1073.726161 294.087484 
L 1075.04518 284.164897 
L 1076.364199 286.274765 
L 1077.683218 287.242823 
L 1079.002237 318.946699 
L 1080.321256 318.946699 
L 1081.640275 236.022663 
L 1082.959294 292.833974 
L 1084.278313 282.086056 
L 1085.597332 281.335191 
L 1086.916351 277.388496 
L 1088.23537 318.946699 
L 1089.554389 318.946699 
L 1090.873408 224.821744 
L 1092.192427 295.489926 
L 1093.511446 283.718101 
L 1094.830465 283.891855 
L 1096.149484 277.87873 
L 1097.468503 318.946699 
L 1098.787522 318.946699 
L 1100.106541 239.733549 
L 1101.42556 353.2755 
L 1102.744579 286.280971 
L 1105.382617 289.191348 
L 1106.701636 318.946699 
L 1108.020655 318.946699 
L 1109.339674 246.627855 
L 1110.658693 298.592674 
L 1111.977712 293.373852 
L 1113.296731 295.806406 
L 1114.61575 292.238247 
L 1115.934769 318.946699 
L 1117.253788 318.946699 
L 1118.572807 267.999581 
L 1119.891826 298.480975 
L 1121.210845 298.207933 
L 1122.529864 293.857881 
L 1123.848883 294.155745 
L 1125.167902 318.946699 
L 1126.486921 318.946699 
L 1127.80594 272.461332 
L 1129.124959 291.921766 
L 1130.443978 308.409768 
L 1131.762997 293.771004 
L 1133.082016 262.321553 
L 1134.401035 318.946699 
L 1135.720054 318.946699 
L 1137.039073 245.057864 
L 1138.358092 279.963776 
L 1139.677111 285.114338 
L 1140.99613 318.946699 
L 1144.953187 318.946699 
L 1146.272206 165.608906 
L 1147.591225 271.11474 
L 1148.910245 275.235189 
L 1150.229264 263.91016 
L 1151.548283 262.185032 
L 1152.867302 318.946699 
L 1154.186321 318.946699 
L 1155.50534 195.258763 
L 1156.824359 282.117083 
L 1158.143378 285.623188 
L 1159.462397 286.411286 
L 1160.781416 283.420237 
L 1162.100435 318.946699 
L 1163.419454 318.946699 
L 1164.738473 261.707209 
L 1166.057492 301.956052 
L 1167.376511 293.758593 
L 1168.69553 299.399388 
L 1170.014549 301.304475 
L 1171.333568 318.946699 
L 1172.652587 318.946699 
L 1173.971606 282.321865 
L 1175.290625 308.099493 
L 1176.609644 305.939981 
L 1177.928663 307.007326 
L 1179.247682 318.946699 
L 1183.204739 318.946699 
L 1184.523758 277.158893 
L 1185.842777 310.290033 
L 1187.161796 310.19695 
L 1188.480815 311.729708 
L 1189.799834 318.946699 
L 1191.118853 318.946699 
L 1192.437872 298.617496 
L 1193.756891 311.357378 
L 1195.07591 312.927368 
L 1196.394929 311.82279 
L 1197.713948 312.995629 
L 1199.032967 318.946699 
L 1201.671005 318.946699 
L 1202.990024 305.393897 
L 1204.309043 312.548833 
L 1205.628062 311.828996 
L 1206.947081 313.430014 
L 1208.2661 318.946699 
L 1209.585119 318.946699 
L 1210.904138 305.344253 
L 1212.223157 301.73886 
L 1213.542176 304.680265 
L 1214.861195 299.436621 
L 1216.180214 302.315971 
L 1217.499233 318.946699 
L 1221.45629 318.946699 
L 1222.775309 217.275861 
L 1224.094328 318.946699 
L 1230.689423 318.946699 
L 1232.008442 258.15146 
L 1233.327461 318.946699 
L 1239.922556 318.946699 
L 1241.241575 292.02726 
L 1242.560594 318.946699 
L 1249.155689 318.946699 
L 1250.474708 290.7179 
L 1251.793727 318.946699 
L 1258.388822 318.946699 
L 1259.707841 270.761027 
L 1261.02686 318.946699 
L 1267.621955 318.946699 
L 1268.940974 262.470485 
L 1270.259993 318.946699 
L 1276.855088 318.946699 
L 1278.174107 236.854199 
L 1279.493126 318.946699 
L 1286.088221 318.946699 
L 1287.40724 231.964269 
L 1288.726259 318.946699 
L 1295.321355 318.946699 
L 1296.640374 231.362336 
L 1297.959393 318.946699 
L 1304.554488 318.946699 
L 1305.873507 252.461021 
L 1307.192526 318.946699 
L 1307.192526 318.946699 
" clip-path="url(#p49e7d7d27a)" style="fill: none; stroke: #0000ff; stroke-width: 1.5; stroke-linecap: square"/>
   </g>
   <g id="line2d_18">
    <path d="M 1067.131066 276.774614 
L 1068.450085 274.806255 
L 1069.769104 304.954525 
L 1071.088123 313.258547 
L 1072.407142 272.614976 
L 1073.726161 289.438255 
L 1075.04518 291.144136 
L 1076.364199 294.280637 
L 1077.683218 287.218711 
L 1079.002237 308.38255 
L 1080.321256 322.830189 
L 1081.640275 300.614387 
L 1082.959294 291.458427 
L 1084.278313 278.46305 
L 1085.597332 285.06767 
L 1086.916351 290.412481 
L 1088.23537 303.030764 
L 1089.554389 290.922227 
L 1090.873408 295.459948 
L 1092.192427 284.862868 
L 1093.511446 275.606141 
L 1094.830465 281.88542 
L 1096.149484 297.790153 
L 1097.468503 306.018685 
L 1098.787522 273.48419 
L 1100.106541 297.106564 
L 1101.42556 292.042886 
L 1102.744579 297.568817 
L 1104.063598 303.916702 
L 1105.382617 315.669284 
L 1106.701636 317.383729 
L 1108.020655 274.072857 
L 1109.339674 317.22829 
L 1110.658693 291.239266 
L 1111.977712 284.735802 
L 1113.296731 285.396365 
L 1114.61575 310.368996 
L 1115.934769 315.518852 
L 1117.253788 270.349598 
L 1118.572807 312.404777 
L 1119.891826 297.772603 
L 1121.210845 295.458289 
L 1122.529864 292.663443 
L 1123.848883 313.822904 
L 1125.167902 315.686061 
L 1126.486921 274.427508 
L 1127.80594 308.833447 
L 1129.124959 299.236655 
L 1130.443978 295.369225 
L 1131.762997 294.543598 
L 1133.082016 314.022849 
L 1134.401035 307.794217 
L 1135.720054 266.943162 
L 1137.039073 297.316958 
L 1138.358092 291.841268 
L 1139.677111 279.73913 
L 1140.99613 272.115103 
L 1142.315149 310.207332 
L 1143.634168 324.970259 
L 1144.953187 284.097893 
L 1146.272206 298.663785 
L 1147.591225 274.85287 
L 1148.910245 263.256202 
L 1150.229264 265.090081 
L 1151.548283 282.431584 
L 1152.867302 282.583082 
L 1154.186321 223.155141 
L 1155.50534 277.611798 
L 1156.824359 274.927775 
L 1158.143378 271.328006 
L 1159.462397 274.536177 
L 1160.781416 304.259957 
L 1162.100435 307.285552 
L 1163.419454 234.987841 
L 1164.738473 290.967089 
L 1166.057492 299.063418 
L 1167.376511 303.949794 
L 1168.69553 298.597533 
L 1170.014549 322.154107 
L 1171.333568 323.029908 
L 1172.652587 260.558023 
L 1173.971606 302.40346 
L 1175.290625 305.882007 
L 1176.609644 311.930658 
L 1177.928663 308.742479 
L 1179.247682 328.583389 
L 1180.566701 329.928588 
L 1181.88572 280.839256 
L 1183.204739 311.641532 
L 1184.523758 315.586687 
L 1185.842777 315.550251 
L 1187.161796 308.719083 
L 1188.480815 323.400066 
L 1189.799834 323.73238 
L 1191.118853 293.11836 
L 1192.437872 300.559558 
L 1193.756891 310.512951 
L 1195.07591 314.670046 
L 1196.394929 317.468954 
L 1197.713948 325.62444 
L 1199.032967 324.11719 
L 1200.351986 298.813887 
L 1201.671005 307.300926 
L 1202.990024 316.552161 
L 1204.309043 318.891558 
L 1205.628062 316.975995 
L 1206.947081 322.899651 
L 1208.2661 321.816421 
L 1209.585119 306.430128 
L 1210.904138 307.212917 
L 1212.223157 311.979344 
L 1214.861195 309.178756 
L 1216.180214 312.357627 
L 1217.499233 310.726502 
L 1218.818252 299.986452 
L 1220.137271 303.899751 
L 1221.45629 312.706924 
L 1222.775309 310.138414 
L 1224.094328 293.962906 
L 1225.413347 293.281272 
L 1226.732366 309.812776 
L 1228.051385 308.390329 
L 1229.370404 310.272935 
L 1230.689423 287.543982 
L 1232.008442 315.404468 
L 1233.327461 311.032162 
L 1234.64648 313.21942 
L 1235.965499 318.437454 
L 1237.284518 315.075197 
L 1238.603537 314.957728 
L 1239.922556 283.751644 
L 1241.241575 318.693705 
L 1242.560594 320.996658 
L 1243.879613 324.677968 
L 1245.198632 323.337579 
L 1246.517651 318.973054 
L 1247.83667 317.726003 
L 1249.155689 290.663673 
L 1250.474708 318.851928 
L 1251.793727 319.267161 
L 1253.112746 321.044254 
L 1254.431765 320.91548 
L 1255.750784 318.597673 
L 1257.069803 318.014073 
L 1258.388822 293.817379 
L 1259.707841 317.486637 
L 1261.02686 313.334135 
L 1262.345879 312.341952 
L 1263.664898 316.134408 
L 1266.302936 317.334728 
L 1267.621955 289.842994 
L 1268.940974 316.977692 
L 1270.259993 311.933306 
L 1271.579012 310.149146 
L 1272.898031 314.803867 
L 1274.21705 316.331407 
L 1275.536069 317.3325 
L 1276.855088 285.350912 
L 1278.174107 315.706435 
L 1279.493126 306.572079 
L 1280.812145 302.628376 
L 1282.131164 310.843327 
L 1283.450183 314.511016 
L 1284.769202 316.515213 
L 1286.088221 275.169274 
L 1287.40724 315.756575 
L 1288.726259 307.625138 
L 1290.045278 304.018725 
L 1291.364297 311.471266 
L 1292.683317 314.950889 
L 1294.002336 316.806292 
L 1295.321355 268.004301 
L 1296.640374 316.21011 
L 1297.959393 309.304031 
L 1299.278412 306.189035 
L 1300.597431 312.527453 
L 1301.91645 315.562188 
L 1303.235469 317.158613 
L 1304.554488 263.545376 
L 1305.873507 317.795943 
L 1307.192526 315.750745 
L 1307.192526 315.750745 
" clip-path="url(#p49e7d7d27a)" style="fill: none; stroke: #ffa500; stroke-width: 1.5; stroke-linecap: square"/>
   </g>
   <g id="line2d_19">
    <path d="M 1307.192526 315.750745 
L 1308.511545 314.68965 
L 1309.830564 315.875238 
L 1311.149583 315.517439 
L 1312.468602 315.380495 
L 1313.787621 263.968415 
L 1315.10664 315.494579 
L 1316.425659 314.615158 
L 1317.744678 314.396433 
L 1319.063697 314.719798 
L 1320.382716 314.563784 
L 1321.701735 314.527458 
L 1323.020754 268.922253 
L 1324.339773 314.570162 
" clip-path="url(#p49e7d7d27a)" style="fill: none; stroke: #ff0000; stroke-width: 1.5; stroke-linecap: square"/>
   </g>
   <g id="patch_3">
    <path d="M 46.0125 368.3955 
L 46.0125 35.7555 
" style="fill: none; stroke: #000000; stroke-width: 0.8; stroke-linejoin: miter; stroke-linecap: square"/>
   </g>
   <g id="patch_4">
    <path d="M 1385.2125 368.3955 
L 1385.2125 35.7555 
" style="fill: none; stroke: #000000; stroke-width: 0.8; stroke-linejoin: miter; stroke-linecap: square"/>
   </g>
   <g id="patch_5">
    <path d="M 46.0125 368.3955 
L 1385.2125 368.3955 
" style="fill: none; stroke: #000000; stroke-width: 0.8; stroke-linejoin: miter; stroke-linecap: square"/>
   </g>
   <g id="patch_6">
    <path d="M 46.0125 35.7555 
L 1385.2125 35.7555 
" style="fill: none; stroke: #000000; stroke-width: 0.8; stroke-linejoin: miter; stroke-linecap: square"/>
   </g>
   <g id="text_17">
    <!-- Daily Confirmed Cases Forecasting - Ireland -->
    <g transform="translate(584.363438 16.318125)scale(0.12 -0.12)">
     <defs>
      <path id="DejaVuSans-44" d="M 1259 4147 
L 1259 519 
L 2022 519 
Q 2988 519 3436 956 
Q 3884 1394 3884 2338 
Q 3884 3275 3436 3711 
Q 2988 4147 2022 4147 
L 1259 4147 
z
M 628 4666 
L 1925 4666 
Q 3281 4666 3915 4102 
Q 4550 3538 4550 2338 
Q 4550 1131 3912 565 
Q 3275 0 1925 0 
L 628 0 
L 628 4666 
z
" transform="scale(0.015625)"/>
      <path id="DejaVuSans-61" d="M 2194 1759 
Q 1497 1759 1228 1600 
Q 959 1441 959 1056 
Q 959 750 1161 570 
Q 1363 391 1709 391 
Q 2188 391 2477 730 
Q 2766 1069 2766 1631 
L 2766 1759 
L 2194 1759 
z
M 3341 1997 
L 3341 0 
L 2766 0 
L 2766 531 
Q 2569 213 2275 61 
Q 1981 -91 1556 -91 
Q 1019 -91 701 211 
Q 384 513 384 1019 
Q 384 1609 779 1909 
Q 1175 2209 1959 2209 
L 2766 2209 
L 2766 2266 
Q 2766 2663 2505 2880 
Q 2244 3097 1772 3097 
Q 1472 3097 1187 3025 
Q 903 2953 641 2809 
L 641 3341 
Q 956 3463 1253 3523 
Q 1550 3584 1831 3584 
Q 2591 3584 2966 3190 
Q 3341 2797 3341 1997 
z
" transform="scale(0.015625)"/>
      <path id="DejaVuSans-69" d="M 603 3500 
L 1178 3500 
L 1178 0 
L 603 0 
L 603 3500 
z
M 603 4863 
L 1178 4863 
L 1178 4134 
L 603 4134 
L 603 4863 
z
" transform="scale(0.015625)"/>
      <path id="DejaVuSans-6c" d="M 603 4863 
L 1178 4863 
L 1178 0 
L 603 0 
L 603 4863 
z
" transform="scale(0.015625)"/>
      <path id="DejaVuSans-79" d="M 2059 -325 
Q 1816 -950 1584 -1140 
Q 1353 -1331 966 -1331 
L 506 -1331 
L 506 -850 
L 844 -850 
Q 1081 -850 1212 -737 
Q 1344 -625 1503 -206 
L 1606 56 
L 191 3500 
L 800 3500 
L 1894 763 
L 2988 3500 
L 3597 3500 
L 2059 -325 
z
" transform="scale(0.015625)"/>
      <path id="DejaVuSans-20" transform="scale(0.015625)"/>
      <path id="DejaVuSans-43" d="M 4122 4306 
L 4122 3641 
Q 3803 3938 3442 4084 
Q 3081 4231 2675 4231 
Q 1875 4231 1450 3742 
Q 1025 3253 1025 2328 
Q 1025 1406 1450 917 
Q 1875 428 2675 428 
Q 3081 428 3442 575 
Q 3803 722 4122 1019 
L 4122 359 
Q 3791 134 3420 21 
Q 3050 -91 2638 -91 
Q 1578 -91 968 557 
Q 359 1206 359 2328 
Q 359 3453 968 4101 
Q 1578 4750 2638 4750 
Q 3056 4750 3426 4639 
Q 3797 4528 4122 4306 
z
" transform="scale(0.015625)"/>
      <path id="DejaVuSans-6f" d="M 1959 3097 
Q 1497 3097 1228 2736 
Q 959 2375 959 1747 
Q 959 1119 1226 758 
Q 1494 397 1959 397 
Q 2419 397 2687 759 
Q 2956 1122 2956 1747 
Q 2956 2369 2687 2733 
Q 2419 3097 1959 3097 
z
M 1959 3584 
Q 2709 3584 3137 3096 
Q 3566 2609 3566 1747 
Q 3566 888 3137 398 
Q 2709 -91 1959 -91 
Q 1206 -91 779 398 
Q 353 888 353 1747 
Q 353 2609 779 3096 
Q 1206 3584 1959 3584 
z
" transform="scale(0.015625)"/>
      <path id="DejaVuSans-6e" d="M 3513 2113 
L 3513 0 
L 2938 0 
L 2938 2094 
Q 2938 2591 2744 2837 
Q 2550 3084 2163 3084 
Q 1697 3084 1428 2787 
Q 1159 2491 1159 1978 
L 1159 0 
L 581 0 
L 581 3500 
L 1159 3500 
L 1159 2956 
Q 1366 3272 1645 3428 
Q 1925 3584 2291 3584 
Q 2894 3584 3203 3211 
Q 3513 2838 3513 2113 
z
" transform="scale(0.015625)"/>
      <path id="DejaVuSans-66" d="M 2375 4863 
L 2375 4384 
L 1825 4384 
Q 1516 4384 1395 4259 
Q 1275 4134 1275 3809 
L 1275 3500 
L 2222 3500 
L 2222 3053 
L 1275 3053 
L 1275 0 
L 697 0 
L 697 3053 
L 147 3053 
L 147 3500 
L 697 3500 
L 697 3744 
Q 697 4328 969 4595 
Q 1241 4863 1831 4863 
L 2375 4863 
z
" transform="scale(0.015625)"/>
      <path id="DejaVuSans-72" d="M 2631 2963 
Q 2534 3019 2420 3045 
Q 2306 3072 2169 3072 
Q 1681 3072 1420 2755 
Q 1159 2438 1159 1844 
L 1159 0 
L 581 0 
L 581 3500 
L 1159 3500 
L 1159 2956 
Q 1341 3275 1631 3429 
Q 1922 3584 2338 3584 
Q 2397 3584 2469 3576 
Q 2541 3569 2628 3553 
L 2631 2963 
z
" transform="scale(0.015625)"/>
      <path id="DejaVuSans-6d" d="M 3328 2828 
Q 3544 3216 3844 3400 
Q 4144 3584 4550 3584 
Q 5097 3584 5394 3201 
Q 5691 2819 5691 2113 
L 5691 0 
L 5113 0 
L 5113 2094 
Q 5113 2597 4934 2840 
Q 4756 3084 4391 3084 
Q 3944 3084 3684 2787 
Q 3425 2491 3425 1978 
L 3425 0 
L 2847 0 
L 2847 2094 
Q 2847 2600 2669 2842 
Q 2491 3084 2119 3084 
Q 1678 3084 1418 2786 
Q 1159 2488 1159 1978 
L 1159 0 
L 581 0 
L 581 3500 
L 1159 3500 
L 1159 2956 
Q 1356 3278 1631 3431 
Q 1906 3584 2284 3584 
Q 2666 3584 2933 3390 
Q 3200 3197 3328 2828 
z
" transform="scale(0.015625)"/>
      <path id="DejaVuSans-65" d="M 3597 1894 
L 3597 1613 
L 953 1613 
Q 991 1019 1311 708 
Q 1631 397 2203 397 
Q 2534 397 2845 478 
Q 3156 559 3463 722 
L 3463 178 
Q 3153 47 2828 -22 
Q 2503 -91 2169 -91 
Q 1331 -91 842 396 
Q 353 884 353 1716 
Q 353 2575 817 3079 
Q 1281 3584 2069 3584 
Q 2775 3584 3186 3129 
Q 3597 2675 3597 1894 
z
M 3022 2063 
Q 3016 2534 2758 2815 
Q 2500 3097 2075 3097 
Q 1594 3097 1305 2825 
Q 1016 2553 972 2059 
L 3022 2063 
z
" transform="scale(0.015625)"/>
      <path id="DejaVuSans-64" d="M 2906 2969 
L 2906 4863 
L 3481 4863 
L 3481 0 
L 2906 0 
L 2906 525 
Q 2725 213 2448 61 
Q 2172 -91 1784 -91 
Q 1150 -91 751 415 
Q 353 922 353 1747 
Q 353 2572 751 3078 
Q 1150 3584 1784 3584 
Q 2172 3584 2448 3432 
Q 2725 3281 2906 2969 
z
M 947 1747 
Q 947 1113 1208 752 
Q 1469 391 1925 391 
Q 2381 391 2643 752 
Q 2906 1113 2906 1747 
Q 2906 2381 2643 2742 
Q 2381 3103 1925 3103 
Q 1469 3103 1208 2742 
Q 947 2381 947 1747 
z
" transform="scale(0.015625)"/>
      <path id="DejaVuSans-73" d="M 2834 3397 
L 2834 2853 
Q 2591 2978 2328 3040 
Q 2066 3103 1784 3103 
Q 1356 3103 1142 2972 
Q 928 2841 928 2578 
Q 928 2378 1081 2264 
Q 1234 2150 1697 2047 
L 1894 2003 
Q 2506 1872 2764 1633 
Q 3022 1394 3022 966 
Q 3022 478 2636 193 
Q 2250 -91 1575 -91 
Q 1294 -91 989 -36 
Q 684 19 347 128 
L 347 722 
Q 666 556 975 473 
Q 1284 391 1588 391 
Q 1994 391 2212 530 
Q 2431 669 2431 922 
Q 2431 1156 2273 1281 
Q 2116 1406 1581 1522 
L 1381 1569 
Q 847 1681 609 1914 
Q 372 2147 372 2553 
Q 372 3047 722 3315 
Q 1072 3584 1716 3584 
Q 2034 3584 2315 3537 
Q 2597 3491 2834 3397 
z
" transform="scale(0.015625)"/>
      <path id="DejaVuSans-46" d="M 628 4666 
L 3309 4666 
L 3309 4134 
L 1259 4134 
L 1259 2759 
L 3109 2759 
L 3109 2228 
L 1259 2228 
L 1259 0 
L 628 0 
L 628 4666 
z
" transform="scale(0.015625)"/>
      <path id="DejaVuSans-63" d="M 3122 3366 
L 3122 2828 
Q 2878 2963 2633 3030 
Q 2388 3097 2138 3097 
Q 1578 3097 1268 2742 
Q 959 2388 959 1747 
Q 959 1106 1268 751 
Q 1578 397 2138 397 
Q 2388 397 2633 464 
Q 2878 531 3122 666 
L 3122 134 
Q 2881 22 2623 -34 
Q 2366 -91 2075 -91 
Q 1284 -91 818 406 
Q 353 903 353 1747 
Q 353 2603 823 3093 
Q 1294 3584 2113 3584 
Q 2378 3584 2631 3529 
Q 2884 3475 3122 3366 
z
" transform="scale(0.015625)"/>
      <path id="DejaVuSans-74" d="M 1172 4494 
L 1172 3500 
L 2356 3500 
L 2356 3053 
L 1172 3053 
L 1172 1153 
Q 1172 725 1289 603 
Q 1406 481 1766 481 
L 2356 481 
L 2356 0 
L 1766 0 
Q 1100 0 847 248 
Q 594 497 594 1153 
L 594 3053 
L 172 3053 
L 172 3500 
L 594 3500 
L 594 4494 
L 1172 4494 
z
" transform="scale(0.015625)"/>
      <path id="DejaVuSans-67" d="M 2906 1791 
Q 2906 2416 2648 2759 
Q 2391 3103 1925 3103 
Q 1463 3103 1205 2759 
Q 947 2416 947 1791 
Q 947 1169 1205 825 
Q 1463 481 1925 481 
Q 2391 481 2648 825 
Q 2906 1169 2906 1791 
z
M 3481 434 
Q 3481 -459 3084 -895 
Q 2688 -1331 1869 -1331 
Q 1566 -1331 1297 -1286 
Q 1028 -1241 775 -1147 
L 775 -588 
Q 1028 -725 1275 -790 
Q 1522 -856 1778 -856 
Q 2344 -856 2625 -561 
Q 2906 -266 2906 331 
L 2906 616 
Q 2728 306 2450 153 
Q 2172 0 1784 0 
Q 1141 0 747 490 
Q 353 981 353 1791 
Q 353 2603 747 3093 
Q 1141 3584 1784 3584 
Q 2172 3584 2450 3431 
Q 2728 3278 2906 2969 
L 2906 3500 
L 3481 3500 
L 3481 434 
z
" transform="scale(0.015625)"/>
      <path id="DejaVuSans-49" d="M 628 4666 
L 1259 4666 
L 1259 0 
L 628 0 
L 628 4666 
z
" transform="scale(0.015625)"/>
     </defs>
     <use xlink:href="#DejaVuSans-44"/>
     <use xlink:href="#DejaVuSans-61" x="77.001953"/>
     <use xlink:href="#DejaVuSans-69" x="138.28125"/>
     <use xlink:href="#DejaVuSans-6c" x="166.064453"/>
     <use xlink:href="#DejaVuSans-79" x="193.847656"/>
     <use xlink:href="#DejaVuSans-20" x="253.027344"/>
     <use xlink:href="#DejaVuSans-43" x="284.814453"/>
     <use xlink:href="#DejaVuSans-6f" x="354.638672"/>
     <use xlink:href="#DejaVuSans-6e" x="415.820312"/>
     <use xlink:href="#DejaVuSans-66" x="479.199219"/>
     <use xlink:href="#DejaVuSans-69" x="514.404297"/>
     <use xlink:href="#DejaVuSans-72" x="542.1875"/>
     <use xlink:href="#DejaVuSans-6d" x="581.550781"/>
     <use xlink:href="#DejaVuSans-65" x="678.962891"/>
     <use xlink:href="#DejaVuSans-64" x="740.486328"/>
     <use xlink:href="#DejaVuSans-20" x="803.962891"/>
     <use xlink:href="#DejaVuSans-43" x="835.75"/>
     <use xlink:href="#DejaVuSans-61" x="905.574219"/>
     <use xlink:href="#DejaVuSans-73" x="966.853516"/>
     <use xlink:href="#DejaVuSans-65" x="1018.953125"/>
     <use xlink:href="#DejaVuSans-73" x="1080.476562"/>
     <use xlink:href="#DejaVuSans-20" x="1132.576172"/>
     <use xlink:href="#DejaVuSans-46" x="1164.363281"/>
     <use xlink:href="#DejaVuSans-6f" x="1218.257812"/>
     <use xlink:href="#DejaVuSans-72" x="1279.439453"/>
     <use xlink:href="#DejaVuSans-65" x="1318.302734"/>
     <use xlink:href="#DejaVuSans-63" x="1379.826172"/>
     <use xlink:href="#DejaVuSans-61" x="1434.806641"/>
     <use xlink:href="#DejaVuSans-73" x="1496.085938"/>
     <use xlink:href="#DejaVuSans-74" x="1548.185547"/>
     <use xlink:href="#DejaVuSans-69" x="1587.394531"/>
     <use xlink:href="#DejaVuSans-6e" x="1615.177734"/>
     <use xlink:href="#DejaVuSans-67" x="1678.556641"/>
     <use xlink:href="#DejaVuSans-20" x="1742.033203"/>
     <use xlink:href="#DejaVuSans-2d" x="1773.820312"/>
     <use xlink:href="#DejaVuSans-20" x="1809.904297"/>
     <use xlink:href="#DejaVuSans-49" x="1841.691406"/>
     <use xlink:href="#DejaVuSans-72" x="1871.183594"/>
     <use xlink:href="#DejaVuSans-65" x="1910.046875"/>
     <use xlink:href="#DejaVuSans-6c" x="1971.570312"/>
     <use xlink:href="#DejaVuSans-61" x="1999.353516"/>
     <use xlink:href="#DejaVuSans-6e" x="2060.632812"/>
     <use xlink:href="#DejaVuSans-64" x="2124.011719"/>
    </g>
    <!-- ARIMA (2, 1, 1)x(1, 0, 1, 7) (R2 = -0.286447) -->
    <g transform="translate(581.46375 29.7555)scale(0.12 -0.12)">
     <defs>
      <path id="DejaVuSans-41" d="M 2188 4044 
L 1331 1722 
L 3047 1722 
L 2188 4044 
z
M 1831 4666 
L 2547 4666 
L 4325 0 
L 3669 0 
L 3244 1197 
L 1141 1197 
L 716 0 
L 50 0 
L 1831 4666 
z
" transform="scale(0.015625)"/>
      <path id="DejaVuSans-52" d="M 2841 2188 
Q 3044 2119 3236 1894 
Q 3428 1669 3622 1275 
L 4263 0 
L 3584 0 
L 2988 1197 
Q 2756 1666 2539 1819 
Q 2322 1972 1947 1972 
L 1259 1972 
L 1259 0 
L 628 0 
L 628 4666 
L 2053 4666 
Q 2853 4666 3247 4331 
Q 3641 3997 3641 3322 
Q 3641 2881 3436 2590 
Q 3231 2300 2841 2188 
z
M 1259 4147 
L 1259 2491 
L 2053 2491 
Q 2509 2491 2742 2702 
Q 2975 2913 2975 3322 
Q 2975 3731 2742 3939 
Q 2509 4147 2053 4147 
L 1259 4147 
z
" transform="scale(0.015625)"/>
      <path id="DejaVuSans-4d" d="M 628 4666 
L 1569 4666 
L 2759 1491 
L 3956 4666 
L 4897 4666 
L 4897 0 
L 4281 0 
L 4281 4097 
L 3078 897 
L 2444 897 
L 1241 4097 
L 1241 0 
L 628 0 
L 628 4666 
z
" transform="scale(0.015625)"/>
      <path id="DejaVuSans-28" d="M 1984 4856 
Q 1566 4138 1362 3434 
Q 1159 2731 1159 2009 
Q 1159 1288 1364 580 
Q 1569 -128 1984 -844 
L 1484 -844 
Q 1016 -109 783 600 
Q 550 1309 550 2009 
Q 550 2706 781 3412 
Q 1013 4119 1484 4856 
L 1984 4856 
z
" transform="scale(0.015625)"/>
      <path id="DejaVuSans-2c" d="M 750 794 
L 1409 794 
L 1409 256 
L 897 -744 
L 494 -744 
L 750 256 
L 750 794 
z
" transform="scale(0.015625)"/>
      <path id="DejaVuSans-29" d="M 513 4856 
L 1013 4856 
Q 1481 4119 1714 3412 
Q 1947 2706 1947 2009 
Q 1947 1309 1714 600 
Q 1481 -109 1013 -844 
L 513 -844 
Q 928 -128 1133 580 
Q 1338 1288 1338 2009 
Q 1338 2731 1133 3434 
Q 928 4138 513 4856 
z
" transform="scale(0.015625)"/>
      <path id="DejaVuSans-78" d="M 3513 3500 
L 2247 1797 
L 3578 0 
L 2900 0 
L 1881 1375 
L 863 0 
L 184 0 
L 1544 1831 
L 300 3500 
L 978 3500 
L 1906 2253 
L 2834 3500 
L 3513 3500 
z
" transform="scale(0.015625)"/>
      <path id="DejaVuSans-3d" d="M 678 2906 
L 4684 2906 
L 4684 2381 
L 678 2381 
L 678 2906 
z
M 678 1631 
L 4684 1631 
L 4684 1100 
L 678 1100 
L 678 1631 
z
" transform="scale(0.015625)"/>
      <path id="DejaVuSans-2e" d="M 684 794 
L 1344 794 
L 1344 0 
L 684 0 
L 684 794 
z
" transform="scale(0.015625)"/>
      <path id="DejaVuSans-38" d="M 2034 2216 
Q 1584 2216 1326 1975 
Q 1069 1734 1069 1313 
Q 1069 891 1326 650 
Q 1584 409 2034 409 
Q 2484 409 2743 651 
Q 3003 894 3003 1313 
Q 3003 1734 2745 1975 
Q 2488 2216 2034 2216 
z
M 1403 2484 
Q 997 2584 770 2862 
Q 544 3141 544 3541 
Q 544 4100 942 4425 
Q 1341 4750 2034 4750 
Q 2731 4750 3128 4425 
Q 3525 4100 3525 3541 
Q 3525 3141 3298 2862 
Q 3072 2584 2669 2484 
Q 3125 2378 3379 2068 
Q 3634 1759 3634 1313 
Q 3634 634 3220 271 
Q 2806 -91 2034 -91 
Q 1263 -91 848 271 
Q 434 634 434 1313 
Q 434 1759 690 2068 
Q 947 2378 1403 2484 
z
M 1172 3481 
Q 1172 3119 1398 2916 
Q 1625 2713 2034 2713 
Q 2441 2713 2670 2916 
Q 2900 3119 2900 3481 
Q 2900 3844 2670 4047 
Q 2441 4250 2034 4250 
Q 1625 4250 1398 4047 
Q 1172 3844 1172 3481 
z
" transform="scale(0.015625)"/>
      <path id="DejaVuSans-36" d="M 2113 2584 
Q 1688 2584 1439 2293 
Q 1191 2003 1191 1497 
Q 1191 994 1439 701 
Q 1688 409 2113 409 
Q 2538 409 2786 701 
Q 3034 994 3034 1497 
Q 3034 2003 2786 2293 
Q 2538 2584 2113 2584 
z
M 3366 4563 
L 3366 3988 
Q 3128 4100 2886 4159 
Q 2644 4219 2406 4219 
Q 1781 4219 1451 3797 
Q 1122 3375 1075 2522 
Q 1259 2794 1537 2939 
Q 1816 3084 2150 3084 
Q 2853 3084 3261 2657 
Q 3669 2231 3669 1497 
Q 3669 778 3244 343 
Q 2819 -91 2113 -91 
Q 1303 -91 875 529 
Q 447 1150 447 2328 
Q 447 3434 972 4092 
Q 1497 4750 2381 4750 
Q 2619 4750 2861 4703 
Q 3103 4656 3366 4563 
z
" transform="scale(0.015625)"/>
     </defs>
     <use xlink:href="#DejaVuSans-41"/>
     <use xlink:href="#DejaVuSans-52" x="68.408203"/>
     <use xlink:href="#DejaVuSans-49" x="137.890625"/>
     <use xlink:href="#DejaVuSans-4d" x="167.382812"/>
     <use xlink:href="#DejaVuSans-41" x="253.662109"/>
     <use xlink:href="#DejaVuSans-20" x="322.070312"/>
     <use xlink:href="#DejaVuSans-28" x="353.857422"/>
     <use xlink:href="#DejaVuSans-32" x="392.871094"/>
     <use xlink:href="#DejaVuSans-2c" x="456.494141"/>
     <use xlink:href="#DejaVuSans-20" x="488.28125"/>
     <use xlink:href="#DejaVuSans-31" x="520.068359"/>
     <use xlink:href="#DejaVuSans-2c" x="583.691406"/>
     <use xlink:href="#DejaVuSans-20" x="615.478516"/>
     <use xlink:href="#DejaVuSans-31" x="647.265625"/>
     <use xlink:href="#DejaVuSans-29" x="710.888672"/>
     <use xlink:href="#DejaVuSans-78" x="749.902344"/>
     <use xlink:href="#DejaVuSans-28" x="809.082031"/>
     <use xlink:href="#DejaVuSans-31" x="848.095703"/>
     <use xlink:href="#DejaVuSans-2c" x="911.71875"/>
     <use xlink:href="#DejaVuSans-20" x="943.505859"/>
     <use xlink:href="#DejaVuSans-30" x="975.292969"/>
     <use xlink:href="#DejaVuSans-2c" x="1038.916016"/>
     <use xlink:href="#DejaVuSans-20" x="1070.703125"/>
     <use xlink:href="#DejaVuSans-31" x="1102.490234"/>
     <use xlink:href="#DejaVuSans-2c" x="1166.113281"/>
     <use xlink:href="#DejaVuSans-20" x="1197.900391"/>
     <use xlink:href="#DejaVuSans-37" x="1229.6875"/>
     <use xlink:href="#DejaVuSans-29" x="1293.310547"/>
     <use xlink:href="#DejaVuSans-20" x="1332.324219"/>
     <use xlink:href="#DejaVuSans-28" x="1364.111328"/>
     <use xlink:href="#DejaVuSans-52" x="1403.125"/>
     <use xlink:href="#DejaVuSans-32" x="1472.607422"/>
     <use xlink:href="#DejaVuSans-20" x="1536.230469"/>
     <use xlink:href="#DejaVuSans-3d" x="1568.017578"/>
     <use xlink:href="#DejaVuSans-20" x="1651.806641"/>
     <use xlink:href="#DejaVuSans-2d" x="1683.59375"/>
     <use xlink:href="#DejaVuSans-30" x="1719.677734"/>
     <use xlink:href="#DejaVuSans-2e" x="1783.300781"/>
     <use xlink:href="#DejaVuSans-32" x="1815.087891"/>
     <use xlink:href="#DejaVuSans-38" x="1878.710938"/>
     <use xlink:href="#DejaVuSans-36" x="1942.333984"/>
     <use xlink:href="#DejaVuSans-34" x="2005.957031"/>
     <use xlink:href="#DejaVuSans-34" x="2069.580078"/>
     <use xlink:href="#DejaVuSans-37" x="2133.203125"/>
     <use xlink:href="#DejaVuSans-29" x="2196.826172"/>
    </g>
   </g>
   <g id="legend_1">
    <g id="patch_7">
     <path d="M 1281.132812 87.789875 
L 1378.2125 87.789875 
Q 1380.2125 87.789875 1380.2125 85.789875 
L 1380.2125 42.7555 
Q 1380.2125 40.7555 1378.2125 40.7555 
L 1281.132812 40.7555 
Q 1279.132812 40.7555 1279.132812 42.7555 
L 1279.132812 85.789875 
Q 1279.132812 87.789875 1281.132812 87.789875 
z
" style="fill: #ffffff; opacity: 0.8; stroke: #cccccc; stroke-linejoin: miter"/>
    </g>
    <g id="line2d_20">
     <path d="M 1283.132812 48.853937 
L 1293.132812 48.853937 
L 1303.132812 48.853937 
" style="fill: none; stroke: #0000ff; stroke-width: 1.5; stroke-linecap: square"/>
    </g>
    <g id="text_18">
     <!-- Actual Value -->
     <g transform="translate(1311.132812 52.353937)scale(0.1 -0.1)">
      <defs>
       <path id="DejaVuSans-75" d="M 544 1381 
L 544 3500 
L 1119 3500 
L 1119 1403 
Q 1119 906 1312 657 
Q 1506 409 1894 409 
Q 2359 409 2629 706 
Q 2900 1003 2900 1516 
L 2900 3500 
L 3475 3500 
L 3475 0 
L 2900 0 
L 2900 538 
Q 2691 219 2414 64 
Q 2138 -91 1772 -91 
Q 1169 -91 856 284 
Q 544 659 544 1381 
z
M 1991 3584 
L 1991 3584 
z
" transform="scale(0.015625)"/>
       <path id="DejaVuSans-56" d="M 1831 0 
L 50 4666 
L 709 4666 
L 2188 738 
L 3669 4666 
L 4325 4666 
L 2547 0 
L 1831 0 
z
" transform="scale(0.015625)"/>
      </defs>
      <use xlink:href="#DejaVuSans-41"/>
      <use xlink:href="#DejaVuSans-63" x="66.658203"/>
      <use xlink:href="#DejaVuSans-74" x="121.638672"/>
      <use xlink:href="#DejaVuSans-75" x="160.847656"/>
      <use xlink:href="#DejaVuSans-61" x="224.226562"/>
      <use xlink:href="#DejaVuSans-6c" x="285.505859"/>
      <use xlink:href="#DejaVuSans-20" x="313.289062"/>
      <use xlink:href="#DejaVuSans-56" x="345.076172"/>
      <use xlink:href="#DejaVuSans-61" x="405.734375"/>
      <use xlink:href="#DejaVuSans-6c" x="467.013672"/>
      <use xlink:href="#DejaVuSans-75" x="494.796875"/>
      <use xlink:href="#DejaVuSans-65" x="558.175781"/>
     </g>
    </g>
    <g id="line2d_21">
     <path d="M 1283.132812 63.532062 
L 1293.132812 63.532062 
L 1303.132812 63.532062 
" style="fill: none; stroke: #ffa500; stroke-width: 1.5; stroke-linecap: square"/>
    </g>
    <g id="text_19">
     <!-- Check Value -->
     <g transform="translate(1311.132812 67.032062)scale(0.1 -0.1)">
      <defs>
       <path id="DejaVuSans-68" d="M 3513 2113 
L 3513 0 
L 2938 0 
L 2938 2094 
Q 2938 2591 2744 2837 
Q 2550 3084 2163 3084 
Q 1697 3084 1428 2787 
Q 1159 2491 1159 1978 
L 1159 0 
L 581 0 
L 581 4863 
L 1159 4863 
L 1159 2956 
Q 1366 3272 1645 3428 
Q 1925 3584 2291 3584 
Q 2894 3584 3203 3211 
Q 3513 2838 3513 2113 
z
" transform="scale(0.015625)"/>
       <path id="DejaVuSans-6b" d="M 581 4863 
L 1159 4863 
L 1159 1991 
L 2875 3500 
L 3609 3500 
L 1753 1863 
L 3688 0 
L 2938 0 
L 1159 1709 
L 1159 0 
L 581 0 
L 581 4863 
z
" transform="scale(0.015625)"/>
      </defs>
      <use xlink:href="#DejaVuSans-43"/>
      <use xlink:href="#DejaVuSans-68" x="69.824219"/>
      <use xlink:href="#DejaVuSans-65" x="133.203125"/>
      <use xlink:href="#DejaVuSans-63" x="194.726562"/>
      <use xlink:href="#DejaVuSans-6b" x="249.707031"/>
      <use xlink:href="#DejaVuSans-20" x="307.617188"/>
      <use xlink:href="#DejaVuSans-56" x="339.404297"/>
      <use xlink:href="#DejaVuSans-61" x="400.0625"/>
      <use xlink:href="#DejaVuSans-6c" x="461.341797"/>
      <use xlink:href="#DejaVuSans-75" x="489.125"/>
      <use xlink:href="#DejaVuSans-65" x="552.503906"/>
     </g>
    </g>
    <g id="line2d_22">
     <path d="M 1283.132812 78.210187 
L 1293.132812 78.210187 
L 1303.132812 78.210187 
" style="fill: none; stroke: #ff0000; stroke-width: 1.5; stroke-linecap: square"/>
    </g>
    <g id="text_20">
     <!-- Predict Value -->
     <g transform="translate(1311.132812 81.710187)scale(0.1 -0.1)">
      <defs>
       <path id="DejaVuSans-50" d="M 1259 4147 
L 1259 2394 
L 2053 2394 
Q 2494 2394 2734 2622 
Q 2975 2850 2975 3272 
Q 2975 3691 2734 3919 
Q 2494 4147 2053 4147 
L 1259 4147 
z
M 628 4666 
L 2053 4666 
Q 2838 4666 3239 4311 
Q 3641 3956 3641 3272 
Q 3641 2581 3239 2228 
Q 2838 1875 2053 1875 
L 1259 1875 
L 1259 0 
L 628 0 
L 628 4666 
z
" transform="scale(0.015625)"/>
      </defs>
      <use xlink:href="#DejaVuSans-50"/>
      <use xlink:href="#DejaVuSans-72" x="58.552734"/>
      <use xlink:href="#DejaVuSans-65" x="97.416016"/>
      <use xlink:href="#DejaVuSans-64" x="158.939453"/>
      <use xlink:href="#DejaVuSans-69" x="222.416016"/>
      <use xlink:href="#DejaVuSans-63" x="250.199219"/>
      <use xlink:href="#DejaVuSans-74" x="305.179688"/>
      <use xlink:href="#DejaVuSans-20" x="344.388672"/>
      <use xlink:href="#DejaVuSans-56" x="376.175781"/>
      <use xlink:href="#DejaVuSans-61" x="436.833984"/>
      <use xlink:href="#DejaVuSans-6c" x="498.113281"/>
      <use xlink:href="#DejaVuSans-75" x="525.896484"/>
      <use xlink:href="#DejaVuSans-65" x="589.275391"/>
     </g>
    </g>
   </g>
  </g>
 </g>
 <defs>
  <clipPath id="p49e7d7d27a">
   <rect x="46.0125" y="35.7555" width="1339.2" height="332.64"/>
  </clipPath>
 </defs>
</svg>
