<?xml version="1.0" encoding="utf-8" standalone="no"?>
<!DOCTYPE svg PUBLIC "-//W3C//DTD SVG 1.1//EN"
  "http://www.w3.org/Graphics/SVG/1.1/DTD/svg11.dtd">
<svg xmlns:xlink="http://www.w3.org/1999/xlink" width="1386.05pt" height="392.273625pt" viewBox="0 0 1386.05 392.273625" xmlns="http://www.w3.org/2000/svg" version="1.1">
 <metadata>
  <rdf:RDF xmlns:dc="http://purl.org/dc/elements/1.1/" xmlns:cc="http://creativecommons.org/ns#" xmlns:rdf="http://www.w3.org/1999/02/22-rdf-syntax-ns#">
   <cc:Work>
    <dc:type rdf:resource="http://purl.org/dc/dcmitype/StillImage"/>
    <dc:date>2022-07-22T19:43:49.497999</dc:date>
    <dc:format>image/svg+xml</dc:format>
    <dc:creator>
     <cc:Agent>
      <dc:title>Matplotlib v3.5.2, https://matplotlib.org/</dc:title>
     </cc:Agent>
    </dc:creator>
   </cc:Work>
  </rdf:RDF>
 </metadata>
 <defs>
  <style type="text/css">*{stroke-linejoin: round; stroke-linecap: butt}</style>
 </defs>
 <g id="figure_1">
  <g id="patch_1">
   <path d="M 0 392.273625 
L 1386.05 392.273625 
L 1386.05 0 
L 0 0 
z
" style="fill: #ffffff"/>
  </g>
  <g id="axes_1">
   <g id="patch_2">
    <path d="M 39.65 368.3955 
L 1378.85 368.3955 
L 1378.85 35.7555 
L 39.65 35.7555 
z
" style="fill: #ffffff"/>
   </g>
   <g id="matplotlib.axis_1">
    <g id="xtick_1">
     <g id="line2d_1">
      <defs>
       <path id="m78d206d571" d="M 0 0 
L 0 3.5 
" style="stroke: #000000; stroke-width: 0.8"/>
      </defs>
      <g>
       <use xlink:href="#m78d206d571" x="71.504309" y="368.3955" style="stroke: #000000; stroke-width: 0.8"/>
      </g>
     </g>
     <g id="text_1">
      <!-- 2020-01 -->
      <g transform="translate(50.612903 382.993937)scale(0.1 -0.1)">
       <defs>
        <path id="DejaVuSans-32" d="M 1228 531 
L 3431 531 
L 3431 0 
L 469 0 
L 469 531 
Q 828 903 1448 1529 
Q 2069 2156 2228 2338 
Q 2531 2678 2651 2914 
Q 2772 3150 2772 3378 
Q 2772 3750 2511 3984 
Q 2250 4219 1831 4219 
Q 1534 4219 1204 4116 
Q 875 4013 500 3803 
L 500 4441 
Q 881 4594 1212 4672 
Q 1544 4750 1819 4750 
Q 2544 4750 2975 4387 
Q 3406 4025 3406 3419 
Q 3406 3131 3298 2873 
Q 3191 2616 2906 2266 
Q 2828 2175 2409 1742 
Q 1991 1309 1228 531 
z
" transform="scale(0.015625)"/>
        <path id="DejaVuSans-30" d="M 2034 4250 
Q 1547 4250 1301 3770 
Q 1056 3291 1056 2328 
Q 1056 1369 1301 889 
Q 1547 409 2034 409 
Q 2525 409 2770 889 
Q 3016 1369 3016 2328 
Q 3016 3291 2770 3770 
Q 2525 4250 2034 4250 
z
M 2034 4750 
Q 2819 4750 3233 4129 
Q 3647 3509 3647 2328 
Q 3647 1150 3233 529 
Q 2819 -91 2034 -91 
Q 1250 -91 836 529 
Q 422 1150 422 2328 
Q 422 3509 836 4129 
Q 1250 4750 2034 4750 
z
" transform="scale(0.015625)"/>
        <path id="DejaVuSans-2d" d="M 313 2009 
L 1997 2009 
L 1997 1497 
L 313 1497 
L 313 2009 
z
" transform="scale(0.015625)"/>
        <path id="DejaVuSans-31" d="M 794 531 
L 1825 531 
L 1825 4091 
L 703 3866 
L 703 4441 
L 1819 4666 
L 2450 4666 
L 2450 531 
L 3481 531 
L 3481 0 
L 794 0 
L 794 531 
z
" transform="scale(0.015625)"/>
       </defs>
       <use xlink:href="#DejaVuSans-32"/>
       <use xlink:href="#DejaVuSans-30" x="63.623047"/>
       <use xlink:href="#DejaVuSans-32" x="127.246094"/>
       <use xlink:href="#DejaVuSans-30" x="190.869141"/>
       <use xlink:href="#DejaVuSans-2d" x="254.492188"/>
       <use xlink:href="#DejaVuSans-30" x="290.576172"/>
       <use xlink:href="#DejaVuSans-31" x="354.199219"/>
      </g>
     </g>
    </g>
    <g id="xtick_2">
     <g id="line2d_2">
      <g>
       <use xlink:href="#m78d206d571" x="191.535039" y="368.3955" style="stroke: #000000; stroke-width: 0.8"/>
      </g>
     </g>
     <g id="text_2">
      <!-- 2020-04 -->
      <g transform="translate(170.643633 382.993937)scale(0.1 -0.1)">
       <defs>
        <path id="DejaVuSans-34" d="M 2419 4116 
L 825 1625 
L 2419 1625 
L 2419 4116 
z
M 2253 4666 
L 3047 4666 
L 3047 1625 
L 3713 1625 
L 3713 1100 
L 3047 1100 
L 3047 0 
L 2419 0 
L 2419 1100 
L 313 1100 
L 313 1709 
L 2253 4666 
z
" transform="scale(0.015625)"/>
       </defs>
       <use xlink:href="#DejaVuSans-32"/>
       <use xlink:href="#DejaVuSans-30" x="63.623047"/>
       <use xlink:href="#DejaVuSans-32" x="127.246094"/>
       <use xlink:href="#DejaVuSans-30" x="190.869141"/>
       <use xlink:href="#DejaVuSans-2d" x="254.492188"/>
       <use xlink:href="#DejaVuSans-30" x="290.576172"/>
       <use xlink:href="#DejaVuSans-34" x="354.199219"/>
      </g>
     </g>
    </g>
    <g id="xtick_3">
     <g id="line2d_3">
      <g>
       <use xlink:href="#m78d206d571" x="311.565769" y="368.3955" style="stroke: #000000; stroke-width: 0.8"/>
      </g>
     </g>
     <g id="text_3">
      <!-- 2020-07 -->
      <g transform="translate(290.674362 382.993937)scale(0.1 -0.1)">
       <defs>
        <path id="DejaVuSans-37" d="M 525 4666 
L 3525 4666 
L 3525 4397 
L 1831 0 
L 1172 0 
L 2766 4134 
L 525 4134 
L 525 4666 
z
" transform="scale(0.015625)"/>
       </defs>
       <use xlink:href="#DejaVuSans-32"/>
       <use xlink:href="#DejaVuSans-30" x="63.623047"/>
       <use xlink:href="#DejaVuSans-32" x="127.246094"/>
       <use xlink:href="#DejaVuSans-30" x="190.869141"/>
       <use xlink:href="#DejaVuSans-2d" x="254.492188"/>
       <use xlink:href="#DejaVuSans-30" x="290.576172"/>
       <use xlink:href="#DejaVuSans-37" x="354.199219"/>
      </g>
     </g>
    </g>
    <g id="xtick_4">
     <g id="line2d_4">
      <g>
       <use xlink:href="#m78d206d571" x="432.915518" y="368.3955" style="stroke: #000000; stroke-width: 0.8"/>
      </g>
     </g>
     <g id="text_4">
      <!-- 2020-10 -->
      <g transform="translate(412.024111 382.993937)scale(0.1 -0.1)">
       <use xlink:href="#DejaVuSans-32"/>
       <use xlink:href="#DejaVuSans-30" x="63.623047"/>
       <use xlink:href="#DejaVuSans-32" x="127.246094"/>
       <use xlink:href="#DejaVuSans-30" x="190.869141"/>
       <use xlink:href="#DejaVuSans-2d" x="254.492188"/>
       <use xlink:href="#DejaVuSans-31" x="290.576172"/>
       <use xlink:href="#DejaVuSans-30" x="354.199219"/>
      </g>
     </g>
    </g>
    <g id="xtick_5">
     <g id="line2d_5">
      <g>
       <use xlink:href="#m78d206d571" x="554.265266" y="368.3955" style="stroke: #000000; stroke-width: 0.8"/>
      </g>
     </g>
     <g id="text_5">
      <!-- 2021-01 -->
      <g transform="translate(533.37386 382.993937)scale(0.1 -0.1)">
       <use xlink:href="#DejaVuSans-32"/>
       <use xlink:href="#DejaVuSans-30" x="63.623047"/>
       <use xlink:href="#DejaVuSans-32" x="127.246094"/>
       <use xlink:href="#DejaVuSans-31" x="190.869141"/>
       <use xlink:href="#DejaVuSans-2d" x="254.492188"/>
       <use xlink:href="#DejaVuSans-30" x="290.576172"/>
       <use xlink:href="#DejaVuSans-31" x="354.199219"/>
      </g>
     </g>
    </g>
    <g id="xtick_6">
     <g id="line2d_6">
      <g>
       <use xlink:href="#m78d206d571" x="672.976977" y="368.3955" style="stroke: #000000; stroke-width: 0.8"/>
      </g>
     </g>
     <g id="text_6">
      <!-- 2021-04 -->
      <g transform="translate(652.085571 382.993937)scale(0.1 -0.1)">
       <use xlink:href="#DejaVuSans-32"/>
       <use xlink:href="#DejaVuSans-30" x="63.623047"/>
       <use xlink:href="#DejaVuSans-32" x="127.246094"/>
       <use xlink:href="#DejaVuSans-31" x="190.869141"/>
       <use xlink:href="#DejaVuSans-2d" x="254.492188"/>
       <use xlink:href="#DejaVuSans-30" x="290.576172"/>
       <use xlink:href="#DejaVuSans-34" x="354.199219"/>
      </g>
     </g>
    </g>
    <g id="xtick_7">
     <g id="line2d_7">
      <g>
       <use xlink:href="#m78d206d571" x="793.007707" y="368.3955" style="stroke: #000000; stroke-width: 0.8"/>
      </g>
     </g>
     <g id="text_7">
      <!-- 2021-07 -->
      <g transform="translate(772.116301 382.993937)scale(0.1 -0.1)">
       <use xlink:href="#DejaVuSans-32"/>
       <use xlink:href="#DejaVuSans-30" x="63.623047"/>
       <use xlink:href="#DejaVuSans-32" x="127.246094"/>
       <use xlink:href="#DejaVuSans-31" x="190.869141"/>
       <use xlink:href="#DejaVuSans-2d" x="254.492188"/>
       <use xlink:href="#DejaVuSans-30" x="290.576172"/>
       <use xlink:href="#DejaVuSans-37" x="354.199219"/>
      </g>
     </g>
    </g>
    <g id="xtick_8">
     <g id="line2d_8">
      <g>
       <use xlink:href="#m78d206d571" x="914.357456" y="368.3955" style="stroke: #000000; stroke-width: 0.8"/>
      </g>
     </g>
     <g id="text_8">
      <!-- 2021-10 -->
      <g transform="translate(893.46605 382.993937)scale(0.1 -0.1)">
       <use xlink:href="#DejaVuSans-32"/>
       <use xlink:href="#DejaVuSans-30" x="63.623047"/>
       <use xlink:href="#DejaVuSans-32" x="127.246094"/>
       <use xlink:href="#DejaVuSans-31" x="190.869141"/>
       <use xlink:href="#DejaVuSans-2d" x="254.492188"/>
       <use xlink:href="#DejaVuSans-31" x="290.576172"/>
       <use xlink:href="#DejaVuSans-30" x="354.199219"/>
      </g>
     </g>
    </g>
    <g id="xtick_9">
     <g id="line2d_9">
      <g>
       <use xlink:href="#m78d206d571" x="1035.707205" y="368.3955" style="stroke: #000000; stroke-width: 0.8"/>
      </g>
     </g>
     <g id="text_9">
      <!-- 2022-01 -->
      <g transform="translate(1014.815799 382.993937)scale(0.1 -0.1)">
       <use xlink:href="#DejaVuSans-32"/>
       <use xlink:href="#DejaVuSans-30" x="63.623047"/>
       <use xlink:href="#DejaVuSans-32" x="127.246094"/>
       <use xlink:href="#DejaVuSans-32" x="190.869141"/>
       <use xlink:href="#DejaVuSans-2d" x="254.492188"/>
       <use xlink:href="#DejaVuSans-30" x="290.576172"/>
       <use xlink:href="#DejaVuSans-31" x="354.199219"/>
      </g>
     </g>
    </g>
    <g id="xtick_10">
     <g id="line2d_10">
      <g>
       <use xlink:href="#m78d206d571" x="1154.418916" y="368.3955" style="stroke: #000000; stroke-width: 0.8"/>
      </g>
     </g>
     <g id="text_10">
      <!-- 2022-04 -->
      <g transform="translate(1133.527509 382.993937)scale(0.1 -0.1)">
       <use xlink:href="#DejaVuSans-32"/>
       <use xlink:href="#DejaVuSans-30" x="63.623047"/>
       <use xlink:href="#DejaVuSans-32" x="127.246094"/>
       <use xlink:href="#DejaVuSans-32" x="190.869141"/>
       <use xlink:href="#DejaVuSans-2d" x="254.492188"/>
       <use xlink:href="#DejaVuSans-30" x="290.576172"/>
       <use xlink:href="#DejaVuSans-34" x="354.199219"/>
      </g>
     </g>
    </g>
    <g id="xtick_11">
     <g id="line2d_11">
      <g>
       <use xlink:href="#m78d206d571" x="1274.449645" y="368.3955" style="stroke: #000000; stroke-width: 0.8"/>
      </g>
     </g>
     <g id="text_11">
      <!-- 2022-07 -->
      <g transform="translate(1253.558239 382.993937)scale(0.1 -0.1)">
       <use xlink:href="#DejaVuSans-32"/>
       <use xlink:href="#DejaVuSans-30" x="63.623047"/>
       <use xlink:href="#DejaVuSans-32" x="127.246094"/>
       <use xlink:href="#DejaVuSans-32" x="190.869141"/>
       <use xlink:href="#DejaVuSans-2d" x="254.492188"/>
       <use xlink:href="#DejaVuSans-30" x="290.576172"/>
       <use xlink:href="#DejaVuSans-37" x="354.199219"/>
      </g>
     </g>
    </g>
   </g>
   <g id="matplotlib.axis_2">
    <g id="ytick_1">
     <g id="line2d_12">
      <defs>
       <path id="m280917fbb2" d="M 0 0 
L -3.5 0 
" style="stroke: #000000; stroke-width: 0.8"/>
      </defs>
      <g>
       <use xlink:href="#m280917fbb2" x="39.65" y="343.260917" style="stroke: #000000; stroke-width: 0.8"/>
      </g>
     </g>
     <g id="text_12">
      <!-- 0 -->
      <g transform="translate(26.2875 347.060136)scale(0.1 -0.1)">
       <use xlink:href="#DejaVuSans-30"/>
      </g>
     </g>
    </g>
    <g id="ytick_2">
     <g id="line2d_13">
      <g>
       <use xlink:href="#m280917fbb2" x="39.65" y="300.965905" style="stroke: #000000; stroke-width: 0.8"/>
      </g>
     </g>
     <g id="text_13">
      <!-- 1000 -->
      <g transform="translate(7.2 304.765124)scale(0.1 -0.1)">
       <use xlink:href="#DejaVuSans-31"/>
       <use xlink:href="#DejaVuSans-30" x="63.623047"/>
       <use xlink:href="#DejaVuSans-30" x="127.246094"/>
       <use xlink:href="#DejaVuSans-30" x="190.869141"/>
      </g>
     </g>
    </g>
    <g id="ytick_3">
     <g id="line2d_14">
      <g>
       <use xlink:href="#m280917fbb2" x="39.65" y="258.670894" style="stroke: #000000; stroke-width: 0.8"/>
      </g>
     </g>
     <g id="text_14">
      <!-- 2000 -->
      <g transform="translate(7.2 262.470112)scale(0.1 -0.1)">
       <use xlink:href="#DejaVuSans-32"/>
       <use xlink:href="#DejaVuSans-30" x="63.623047"/>
       <use xlink:href="#DejaVuSans-30" x="127.246094"/>
       <use xlink:href="#DejaVuSans-30" x="190.869141"/>
      </g>
     </g>
    </g>
    <g id="ytick_4">
     <g id="line2d_15">
      <g>
       <use xlink:href="#m280917fbb2" x="39.65" y="216.375882" style="stroke: #000000; stroke-width: 0.8"/>
      </g>
     </g>
     <g id="text_15">
      <!-- 3000 -->
      <g transform="translate(7.2 220.1751)scale(0.1 -0.1)">
       <defs>
        <path id="DejaVuSans-33" d="M 2597 2516 
Q 3050 2419 3304 2112 
Q 3559 1806 3559 1356 
Q 3559 666 3084 287 
Q 2609 -91 1734 -91 
Q 1441 -91 1130 -33 
Q 819 25 488 141 
L 488 750 
Q 750 597 1062 519 
Q 1375 441 1716 441 
Q 2309 441 2620 675 
Q 2931 909 2931 1356 
Q 2931 1769 2642 2001 
Q 2353 2234 1838 2234 
L 1294 2234 
L 1294 2753 
L 1863 2753 
Q 2328 2753 2575 2939 
Q 2822 3125 2822 3475 
Q 2822 3834 2567 4026 
Q 2313 4219 1838 4219 
Q 1578 4219 1281 4162 
Q 984 4106 628 3988 
L 628 4550 
Q 988 4650 1302 4700 
Q 1616 4750 1894 4750 
Q 2613 4750 3031 4423 
Q 3450 4097 3450 3541 
Q 3450 3153 3228 2886 
Q 3006 2619 2597 2516 
z
" transform="scale(0.015625)"/>
       </defs>
       <use xlink:href="#DejaVuSans-33"/>
       <use xlink:href="#DejaVuSans-30" x="63.623047"/>
       <use xlink:href="#DejaVuSans-30" x="127.246094"/>
       <use xlink:href="#DejaVuSans-30" x="190.869141"/>
      </g>
     </g>
    </g>
    <g id="ytick_5">
     <g id="line2d_16">
      <g>
       <use xlink:href="#m280917fbb2" x="39.65" y="174.08087" style="stroke: #000000; stroke-width: 0.8"/>
      </g>
     </g>
     <g id="text_16">
      <!-- 4000 -->
      <g transform="translate(7.2 177.880088)scale(0.1 -0.1)">
       <use xlink:href="#DejaVuSans-34"/>
       <use xlink:href="#DejaVuSans-30" x="63.623047"/>
       <use xlink:href="#DejaVuSans-30" x="127.246094"/>
       <use xlink:href="#DejaVuSans-30" x="190.869141"/>
      </g>
     </g>
    </g>
    <g id="ytick_6">
     <g id="line2d_17">
      <g>
       <use xlink:href="#m280917fbb2" x="39.65" y="131.785858" style="stroke: #000000; stroke-width: 0.8"/>
      </g>
     </g>
     <g id="text_17">
      <!-- 5000 -->
      <g transform="translate(7.2 135.585077)scale(0.1 -0.1)">
       <defs>
        <path id="DejaVuSans-35" d="M 691 4666 
L 3169 4666 
L 3169 4134 
L 1269 4134 
L 1269 2991 
Q 1406 3038 1543 3061 
Q 1681 3084 1819 3084 
Q 2600 3084 3056 2656 
Q 3513 2228 3513 1497 
Q 3513 744 3044 326 
Q 2575 -91 1722 -91 
Q 1428 -91 1123 -41 
Q 819 9 494 109 
L 494 744 
Q 775 591 1075 516 
Q 1375 441 1709 441 
Q 2250 441 2565 725 
Q 2881 1009 2881 1497 
Q 2881 1984 2565 2268 
Q 2250 2553 1709 2553 
Q 1456 2553 1204 2497 
Q 953 2441 691 2322 
L 691 4666 
z
" transform="scale(0.015625)"/>
       </defs>
       <use xlink:href="#DejaVuSans-35"/>
       <use xlink:href="#DejaVuSans-30" x="63.623047"/>
       <use xlink:href="#DejaVuSans-30" x="127.246094"/>
       <use xlink:href="#DejaVuSans-30" x="190.869141"/>
      </g>
     </g>
    </g>
    <g id="ytick_7">
     <g id="line2d_18">
      <g>
       <use xlink:href="#m280917fbb2" x="39.65" y="89.490846" style="stroke: #000000; stroke-width: 0.8"/>
      </g>
     </g>
     <g id="text_18">
      <!-- 6000 -->
      <g transform="translate(7.2 93.290065)scale(0.1 -0.1)">
       <defs>
        <path id="DejaVuSans-36" d="M 2113 2584 
Q 1688 2584 1439 2293 
Q 1191 2003 1191 1497 
Q 1191 994 1439 701 
Q 1688 409 2113 409 
Q 2538 409 2786 701 
Q 3034 994 3034 1497 
Q 3034 2003 2786 2293 
Q 2538 2584 2113 2584 
z
M 3366 4563 
L 3366 3988 
Q 3128 4100 2886 4159 
Q 2644 4219 2406 4219 
Q 1781 4219 1451 3797 
Q 1122 3375 1075 2522 
Q 1259 2794 1537 2939 
Q 1816 3084 2150 3084 
Q 2853 3084 3261 2657 
Q 3669 2231 3669 1497 
Q 3669 778 3244 343 
Q 2819 -91 2113 -91 
Q 1303 -91 875 529 
Q 447 1150 447 2328 
Q 447 3434 972 4092 
Q 1497 4750 2381 4750 
Q 2619 4750 2861 4703 
Q 3103 4656 3366 4563 
z
" transform="scale(0.015625)"/>
       </defs>
       <use xlink:href="#DejaVuSans-36"/>
       <use xlink:href="#DejaVuSans-30" x="63.623047"/>
       <use xlink:href="#DejaVuSans-30" x="127.246094"/>
       <use xlink:href="#DejaVuSans-30" x="190.869141"/>
      </g>
     </g>
    </g>
    <g id="ytick_8">
     <g id="line2d_19">
      <g>
       <use xlink:href="#m280917fbb2" x="39.65" y="47.195834" style="stroke: #000000; stroke-width: 0.8"/>
      </g>
     </g>
     <g id="text_19">
      <!-- 7000 -->
      <g transform="translate(7.2 50.995053)scale(0.1 -0.1)">
       <use xlink:href="#DejaVuSans-37"/>
       <use xlink:href="#DejaVuSans-30" x="63.623047"/>
       <use xlink:href="#DejaVuSans-30" x="127.246094"/>
       <use xlink:href="#DejaVuSans-30" x="190.869141"/>
      </g>
     </g>
    </g>
   </g>
   <g id="line2d_20">
    <path d="M 100.522727 343.260917 
L 142.731336 343.218622 
L 144.050355 342.837967 
L 145.369374 342.626492 
L 146.688393 342.541902 
L 148.007412 343.176327 
L 150.64545 343.260917 
L 151.964469 342.795672 
L 153.283488 343.260917 
L 157.240545 343.260917 
L 158.559564 343.134032 
L 159.878583 343.134032 
L 161.197602 343.260917 
L 162.516621 343.049442 
L 163.83564 343.134032 
L 165.154659 342.922557 
L 166.473678 343.260917 
L 167.792697 342.245837 
L 169.111716 342.922557 
L 170.430735 342.795672 
L 171.749754 342.964852 
L 173.068773 342.753377 
L 174.387792 343.007147 
L 177.02583 342.541902 
L 178.344849 342.753377 
L 179.663868 343.218622 
L 182.301906 343.091737 
L 183.620925 342.711082 
L 184.939944 342.541902 
L 186.258963 342.837967 
L 187.577982 342.415017 
L 188.897001 342.795672 
L 190.21602 342.288132 
L 191.535039 342.076657 
L 192.854058 342.203542 
L 194.173077 340.088791 
L 195.492096 340.638627 
L 196.811115 340.004201 
L 198.130134 338.650761 
L 199.449153 339.961906 
L 200.768172 338.523876 
L 202.087191 340.934692 
L 203.40621 339.750431 
L 204.725229 336.45142 
L 206.044248 339.877316 
L 207.363267 340.469447 
L 208.682286 340.934692 
L 210.001305 341.146167 
L 211.320324 338.227811 
L 212.639343 337.593386 
L 213.958362 339.327481 
L 215.277381 336.324535 
L 216.5964 339.877316 
L 217.915419 339.665841 
L 219.234438 336.155355 
L 220.553457 336.874371 
L 223.191495 331.502904 
L 224.510514 335.52093 
L 225.829533 334.25208 
L 227.148552 336.832076 
L 228.467571 330.572414 
L 229.78659 331.249134 
L 231.105609 328.330778 
L 232.424628 333.025524 
L 233.743647 327.865533 
L 235.062666 330.783889 
L 236.381685 321.013741 
L 237.700704 322.747837 
L 239.019723 331.502904 
L 240.338742 316.149815 
L 241.657761 325.708487 
L 242.97678 298.21673 
L 244.295799 317.9685 
L 245.614818 301.346561 
L 246.933837 311.497363 
L 248.252856 303.207541 
L 249.571875 305.829832 
L 250.890894 303.419016 
L 252.209913 298.935745 
L 253.528932 307.690812 
L 254.847951 297.87837 
L 256.16697 309.255728 
L 257.485989 299.23181 
L 258.805008 302.869181 
L 260.124027 305.195407 
L 261.443046 307.817697 
L 262.762065 315.134734 
L 264.081084 317.54555 
L 265.400103 313.992769 
L 266.719122 307.521632 
L 268.038141 297.920665 
L 269.35716 300.627545 
L 270.676179 307.267862 
L 271.995198 312.850804 
L 273.314217 305.745242 
L 274.633236 313.231459 
L 275.952255 319.491121 
L 277.271275 312.681624 
L 278.590294 322.663247 
L 279.909313 312.935394 
L 281.228332 315.261619 
L 282.547351 316.61506 
L 283.86637 314.373424 
L 285.185389 317.503255 
L 286.504408 321.267511 
L 287.823427 321.521281 
L 289.142446 324.058982 
L 290.461465 321.648166 
L 291.780484 320.971446 
L 293.099503 318.941286 
L 294.418522 320.379316 
L 295.737541 317.71473 
L 297.05656 323.509147 
L 298.375579 321.901936 
L 299.694598 316.149815 
L 302.332636 307.479337 
L 303.651655 304.814752 
L 304.970674 304.560981 
L 306.289693 314.161949 
L 307.608712 319.956366 
L 308.927731 318.64522 
L 310.24675 314.880964 
L 311.565769 311.751133 
L 312.884788 304.391801 
L 314.203807 308.875073 
L 315.522826 316.572765 
L 316.841845 316.2767 
L 318.160864 313.527524 
L 319.479883 317.841615 
L 320.798902 311.032118 
L 322.117921 308.029172 
L 323.43694 311.962609 
L 324.755959 323.043902 
L 326.074978 307.902287 
L 327.393997 317.29178 
L 328.713016 315.092439 
L 330.032035 313.527524 
L 331.351054 309.805563 
L 332.670073 319.871776 
L 333.989092 314.373424 
L 335.308111 330.572414 
L 336.62713 319.618006 
L 337.946149 314.880964 
L 339.265168 311.497363 
L 340.584187 314.204244 
L 341.903206 311.412773 
L 343.222225 314.331129 
L 344.541244 323.636032 
L 345.860263 317.63014 
L 347.179282 310.693758 
L 348.498301 311.370478 
L 349.81732 316.78424 
L 351.136339 325.158652 
L 352.455358 322.494067 
L 353.774377 323.678327 
L 355.093396 326.850453 
L 356.412415 323.170787 
L 357.731434 315.726865 
L 359.050453 317.03801 
L 360.369472 314.415719 
L 361.688491 323.297672 
L 363.00751 321.521281 
L 364.326529 314.204244 
L 365.645548 315.007849 
L 366.964567 312.935394 
L 368.283586 313.612114 
L 369.602605 313.696704 
L 370.921624 321.605871 
L 372.240643 321.775051 
L 373.559662 316.95342 
L 374.878681 316.065225 
L 376.1977 314.711784 
L 377.516719 316.95342 
L 378.835738 322.028821 
L 380.154757 314.161949 
L 381.473776 319.110466 
L 382.792795 324.989472 
L 384.111814 317.334075 
L 385.430833 313.738999 
L 386.749852 314.754079 
L 388.068871 316.488175 
L 389.38789 315.93834 
L 390.706909 325.835372 
L 392.025928 323.255377 
L 393.344947 313.569819 
L 394.663966 315.050144 
L 395.982985 305.195407 
L 397.302004 306.675732 
L 398.621023 312.808509 
L 399.940042 317.080305 
L 401.259061 309.213433 
L 402.57808 307.014092 
L 403.897099 307.817697 
L 405.216118 311.962609 
L 406.535137 315.642275 
L 407.854156 312.131789 
L 409.173175 319.871776 
L 410.492194 313.316049 
L 411.811213 308.198352 
L 413.130232 313.738999 
L 414.449251 308.367533 
L 415.76827 313.485229 
L 417.087289 321.225216 
L 418.406308 326.977338 
L 419.725327 320.844561 
L 421.044346 312.850804 
L 422.363366 317.20719 
L 423.682385 319.914071 
L 425.001404 318.30686 
L 426.320423 311.201298 
L 427.639442 328.669138 
L 428.958461 324.777997 
L 430.27748 318.433745 
L 431.596499 317.29178 
L 432.915518 322.367181 
L 434.234537 325.877667 
L 435.553556 327.569468 
L 436.872575 319.279646 
L 438.191594 319.279646 
L 439.510613 314.669489 
L 440.829632 323.170787 
L 442.148651 313.738999 
L 443.46767 316.403585 
L 444.786689 322.451772 
L 446.105708 320.083251 
L 447.424727 310.397693 
L 448.743746 307.563927 
L 450.062765 320.759971 
L 451.381784 311.708838 
L 452.700803 312.427854 
L 454.019822 312.004904 
L 455.338841 315.219324 
L 456.65786 314.246539 
L 457.976879 305.787537 
L 459.295898 308.875073 
L 460.614917 305.660652 
L 461.933936 308.917368 
L 463.252955 313.865884 
L 464.571974 313.316049 
L 465.890993 314.415719 
L 467.210012 310.482283 
L 468.529031 308.832778 
L 469.84805 311.116708 
L 472.486088 318.349155 
L 473.805107 317.54555 
L 475.124126 311.159003 
L 476.443145 309.974743 
L 477.762164 310.989823 
L 480.400202 308.367533 
L 481.719221 311.878019 
L 483.03824 320.506201 
L 484.357259 312.174084 
L 485.676278 305.068522 
L 486.995297 310.355398 
L 488.314316 310.566873 
L 489.633335 312.893099 
L 490.952354 314.035064 
L 492.271373 322.155706 
L 493.590392 322.578657 
L 494.909411 319.744891 
L 496.22843 324.143572 
L 497.547449 322.747837 
L 498.866468 322.705542 
L 500.185487 325.243242 
L 501.504506 329.641924 
L 502.823525 329.007498 
L 504.142544 326.258323 
L 505.461563 325.412422 
L 506.780582 329.303563 
L 508.099601 329.345858 
L 509.41862 329.768809 
L 510.737639 333.49077 
L 512.056658 334.42126 
L 513.375677 328.161598 
L 514.694696 331.925854 
L 516.013715 329.980284 
L 517.332734 328.753728 
L 518.651753 332.814049 
L 519.970772 334.59044 
L 521.289791 333.533065 
L 522.60881 330.530119 
L 523.927829 330.403234 
L 525.246848 330.953069 
L 526.565867 330.826184 
L 527.884886 332.475689 
L 529.203905 335.901585 
L 530.522924 333.49077 
L 531.841943 332.221919 
L 533.160962 332.221919 
L 534.479981 333.91372 
L 535.799 328.922908 
L 537.118019 332.940934 
L 538.437038 334.632735 
L 539.756057 333.533065 
L 541.075076 330.657004 
L 542.394095 332.010444 
L 543.713114 332.940934 
L 545.032133 332.264214 
L 546.351152 335.986175 
L 547.670171 334.632735 
L 548.98919 334.632735 
L 550.308209 333.279295 
L 551.627228 334.59044 
L 552.946247 331.164544 
L 554.265266 331.206839 
L 555.584285 334.59044 
L 556.903304 331.883559 
L 558.222323 327.527173 
L 559.541342 330.064874 
L 560.860361 325.877667 
L 562.17938 320.421611 
L 563.498399 322.324886 
L 564.817418 325.200947 
L 566.136438 325.750782 
L 567.455457 320.971446 
L 568.774476 322.367181 
L 570.093495 320.463906 
L 571.412514 319.575711 
L 572.731533 320.844561 
L 574.050552 324.862587 
L 575.369571 327.273403 
L 576.68859 323.509147 
L 578.007609 318.8144 
L 579.326628 324.566522 
L 580.645647 319.152761 
L 581.964666 320.717676 
L 583.283685 320.675381 
L 584.602704 327.019633 
L 585.921723 322.451772 
L 587.240742 321.901936 
L 588.559761 318.72981 
L 589.87878 318.39145 
L 591.197799 315.4308 
L 592.516818 321.521281 
L 593.835837 316.403585 
L 595.154856 318.47604 
L 596.473875 308.959663 
L 597.792894 311.285888 
L 599.111913 307.733107 
L 600.430932 303.503606 
L 601.749951 307.479337 
L 603.06897 302.573116 
L 604.387989 301.135086 
L 605.707008 300.881315 
L 607.026027 301.515741 
L 608.345046 298.935745 
L 609.664065 300.07771 
L 610.983084 307.267862 
L 612.302103 309.509498 
L 613.621122 308.452123 
L 614.940141 302.488526 
L 616.25916 300.24689 
L 617.578179 301.854101 
L 618.897198 301.980986 
L 620.216217 306.802617 
L 621.535236 310.778348 
L 622.854255 305.237702 
L 624.173274 300.33148 
L 625.492293 300.92361 
L 626.811312 300.1623 
L 628.130331 300.035415 
L 629.44935 307.563927 
L 630.768369 302.573116 
L 632.087388 293.395098 
L 633.406407 286.543306 
L 634.725426 283.667246 
L 636.044445 270.682677 
L 637.363464 275.039063 
L 638.682483 287.516092 
L 640.001502 294.875424 
L 641.320521 287.177732 
L 642.63954 294.325589 
L 645.277578 279.606924 
L 649.234635 298.30132 
L 650.553654 286.923962 
L 651.872673 287.685272 
L 653.191692 279.649219 
L 654.510711 284.301671 
L 655.82973 279.014794 
L 657.148749 286.289536 
L 658.467768 292.845263 
L 659.786787 287.008552 
L 661.105806 288.784942 
L 662.424825 288.319697 
L 663.743844 284.470851 
L 665.062863 277.788239 
L 666.381882 292.591493 
L 667.700901 295.848209 
L 669.01992 290.349857 
L 670.338939 289.503957 
L 671.657958 289.038712 
L 672.976977 283.28659 
L 674.295996 291.111168 
L 675.615015 291.026578 
L 676.934034 292.380018 
L 678.253053 285.866586 
L 679.572072 283.921016 
L 680.891091 279.099384 
L 682.21011 284.936096 
L 683.529129 280.791185 
L 684.848148 284.936096 
L 686.167167 284.470851 
L 687.486186 274.108573 
L 688.805205 277.957419 
L 690.124224 283.963311 
L 691.443243 284.428556 
L 692.762262 283.794131 
L 694.081281 284.555441 
L 695.4003 295.594439 
L 696.719319 279.395449 
L 698.038338 285.274456 
L 699.357357 282.398395 
L 700.676376 281.552495 
L 701.995395 282.69446 
L 703.314414 292.253133 
L 704.633433 277.915124 
L 705.952452 288.869532 
L 707.271471 282.10233 
L 708.59049 281.34102 
L 709.90951 283.328885 
L 711.228529 282.821345 
L 712.547548 289.165597 
L 713.866567 287.600682 
L 715.185586 290.561333 
L 716.504605 290.265267 
L 717.823624 281.890855 
L 719.142643 290.984283 
L 720.461662 292.126248 
L 721.780681 296.947879 
L 723.0997 301.304266 
L 724.418719 301.896396 
L 725.737738 294.494769 
L 727.056757 301.600331 
L 728.375776 298.4705 
L 729.694795 310.989823 
L 733.651852 306.844912 
L 734.970871 297.413124 
L 736.28989 295.932799 
L 737.608909 293.860343 
L 738.927928 286.374126 
L 740.246947 300.24689 
L 741.565966 301.304266 
L 742.884985 290.815103 
L 744.204004 283.709541 
L 745.523023 293.521983 
L 746.842042 294.198704 
L 748.161061 284.724621 
L 749.48008 295.298374 
L 750.799099 296.947879 
L 752.118118 283.624951 
L 753.437137 289.165597 
L 754.756156 286.374126 
L 756.075175 282.229215 
L 757.394194 289.123302 
L 758.713213 286.966257 
L 760.032232 288.404287 
L 761.351251 280.706595 
L 762.67027 276.392504 
L 763.989289 284.428556 
L 765.308308 270.978742 
L 766.627327 273.178083 
L 767.946346 282.482985 
L 769.265365 279.310859 
L 770.584384 277.153814 
L 771.903403 280.368235 
L 773.222422 277.407584 
L 774.541441 273.643328 
L 775.86046 273.135788 
L 777.179479 279.945285 
L 778.498498 273.008903 
L 779.817517 261.420069 
L 781.136536 260.278104 
L 782.455555 264.169245 
L 783.774574 268.779401 
L 785.093593 271.274807 
L 786.412612 273.008903 
L 787.731631 277.365289 
L 789.05065 273.389558 
L 790.369669 270.598087 
L 791.688688 265.607275 
L 793.007707 266.114816 
L 794.326726 263.11187 
L 795.645745 275.081358 
L 796.964764 273.304968 
L 798.283783 259.643679 
L 799.602802 258.966959 
L 800.921821 276.223323 
L 802.24084 271.147922 
L 803.559859 274.869883 
L 806.197897 280.24135 
L 807.516916 268.398746 
L 808.835935 270.851857 
L 810.154954 274.616113 
L 811.473973 284.682326 
L 812.792992 289.842317 
L 815.43103 292.972148 
L 816.750049 296.440339 
L 818.069068 299.14722 
L 819.388087 302.277051 
L 820.707106 301.515741 
L 822.026125 304.095736 
L 823.345144 301.515741 
L 824.664163 307.902287 
L 825.983182 301.473446 
L 827.302201 303.799671 
L 828.62122 303.461311 
L 831.259258 310.862938 
L 832.578277 312.258674 
L 833.897296 313.358344 
L 835.216315 309.213433 
L 836.535334 310.059333 
L 837.854353 307.267862 
L 840.492391 318.05309 
L 841.81141 322.071116 
L 843.130429 319.787186 
L 844.449448 321.309806 
L 845.768467 318.095385 
L 847.087486 325.327832 
L 848.406505 319.787186 
L 849.725524 325.623897 
L 851.044543 327.400288 
L 852.363562 330.318644 
L 853.682582 328.753728 
L 855.001601 332.433394 
L 856.32062 333.237 
L 857.639639 331.587494 
L 858.958658 333.702245 
L 860.277677 334.801915 
L 861.596696 336.19765 
L 862.915715 335.26716 
L 864.234734 336.239945 
L 865.553753 334.9288 
L 866.872772 334.294375 
L 868.191791 336.155355 
L 869.51081 335.394045 
L 870.829829 335.26716 
L 872.148848 335.478635 
L 873.467867 338.016336 
L 874.786886 338.989121 
L 876.105905 338.566171 
L 877.424924 339.242891 
L 878.743943 338.904531 
L 880.062962 340.215677 
L 881.381981 340.257972 
L 882.701 339.750431 
L 884.020019 340.469447 
L 885.339038 340.342562 
L 886.658057 340.638627 
L 887.977076 341.526822 
L 890.615114 340.807807 
L 893.253152 340.765512 
L 894.572171 340.807807 
L 895.89119 340.596332 
L 897.210209 341.442232 
L 898.529228 340.892397 
L 899.848247 341.019282 
L 902.486285 341.653707 
L 905.124323 341.230757 
L 906.443342 341.526822 
L 907.762361 341.696002 
L 909.08138 341.188462 
L 910.400399 341.611412 
L 911.719418 341.865182 
L 913.038437 341.146167 
L 914.357456 341.780592 
L 915.676475 341.526822 
L 916.995494 340.215677 
L 918.314513 341.061577 
L 919.633532 341.188462 
L 920.952551 341.949772 
L 922.27157 341.315347 
L 923.590589 341.780592 
L 926.228627 341.949772 
L 927.547646 341.484527 
L 928.866665 341.696002 
L 930.185684 341.653707 
L 931.504703 341.907477 
L 932.823722 341.992067 
L 934.142741 341.611412 
L 935.46176 341.780592 
L 936.780779 341.611412 
L 938.099798 341.907477 
L 939.418817 342.372722 
L 940.737836 342.203542 
L 942.056855 341.907477 
L 943.375874 342.203542 
L 944.694893 342.372722 
L 946.013912 341.992067 
L 947.332931 342.372722 
L 948.65195 342.584197 
L 949.970969 342.203542 
L 951.289988 342.330427 
L 952.609007 342.753377 
L 953.928026 342.203542 
L 955.247045 341.992067 
L 956.566064 342.288132 
L 957.885083 342.372722 
L 959.204102 342.584197 
L 960.523121 342.203542 
L 961.84214 342.076657 
L 963.161159 342.288132 
L 964.480178 342.203542 
L 968.437235 342.415017 
L 969.756254 342.245837 
L 971.075273 342.330427 
L 972.394292 342.161247 
L 973.713311 342.161247 
L 975.03233 342.584197 
L 977.670368 342.330427 
L 978.989387 342.584197 
L 980.308406 342.668787 
L 981.627425 342.541902 
L 982.946444 342.076657 
L 984.265463 342.753377 
L 985.584482 342.372722 
L 986.903501 342.161247 
L 988.22252 342.372722 
L 989.541539 342.372722 
L 990.860558 343.260917 
L 992.179577 340.680922 
L 993.498596 341.780592 
L 994.817615 342.372722 
L 996.136634 341.738297 
L 997.455654 342.330427 
L 998.774673 342.288132 
L 1001.412711 341.865182 
L 1002.73173 341.949772 
L 1004.050749 341.865182 
L 1005.369768 342.415017 
L 1006.688787 342.034362 
L 1009.326825 341.611412 
L 1010.645844 343.260917 
L 1011.964863 339.919611 
L 1013.283882 340.850102 
L 1014.602901 341.399937 
L 1015.92192 339.835021 
L 1017.240939 341.103872 
L 1018.559958 340.088791 
L 1019.878977 339.877316 
L 1021.197996 339.369776 
L 1022.517015 337.212731 
L 1023.836034 335.732405 
L 1025.155053 336.070765 
L 1026.474072 336.916666 
L 1027.793091 333.110115 
L 1029.11211 334.886505 
L 1030.431129 329.345858 
L 1031.750148 326.385208 
L 1033.069167 319.829481 
L 1034.388186 321.944231 
L 1035.707205 318.39145 
L 1037.026224 317.503255 
L 1038.345243 301.727216 
L 1039.664262 280.57971 
L 1040.983281 248.266321 
L 1042.3023 241.203054 
L 1043.621319 231.390611 
L 1046.259357 216.418177 
L 1048.897395 157.28975 
L 1050.216414 150.903203 
L 1051.535433 136.734374 
L 1052.854452 136.818964 
L 1054.173471 152.214349 
L 1055.49249 152.806479 
L 1056.811509 125.568491 
L 1058.130528 139.187485 
L 1059.449547 159.827451 
L 1060.768566 152.510414 
L 1062.087585 139.864205 
L 1063.406604 167.821208 
L 1064.725623 159.404501 
L 1066.044642 124.341936 
L 1067.363661 100.402959 
L 1068.68268 70.28891 
L 1070.001699 67.708915 
L 1071.320718 50.8755 
L 1072.639737 97.611488 
L 1073.958756 106.747211 
L 1075.277775 86.82626 
L 1076.596794 71.050221 
L 1077.915813 64.452199 
L 1080.553851 114.571788 
L 1081.87287 155.259589 
L 1083.191889 164.268427 
L 1084.510908 161.646136 
L 1085.829927 174.546115 
L 1087.148946 196.793291 
L 1088.467965 202.672298 
L 1089.786984 220.774563 
L 1091.106003 247.927961 
L 1092.425022 247.33583 
L 1093.744041 234.901097 
L 1095.06306 251.649922 
L 1096.382079 262.18138 
L 1097.701098 279.776104 
L 1099.020117 286.247241 
L 1100.339136 300.1623 
L 1101.658155 292.718378 
L 1102.977174 287.050847 
L 1104.296193 298.72427 
L 1105.615212 300.458365 
L 1106.934231 306.633437 
L 1108.25325 307.479337 
L 1109.572269 318.64522 
L 1110.891288 317.587845 
L 1113.529326 319.660301 
L 1114.848345 320.929151 
L 1116.167364 322.705542 
L 1117.486383 322.155706 
L 1118.805402 321.098331 
L 1120.124421 314.923259 
L 1121.44344 317.46096 
L 1122.762459 324.820292 
L 1124.081478 327.696353 
L 1125.400497 328.499958 
L 1126.719516 331.418314 
L 1128.038535 332.306509 
L 1129.357554 343.260917 
L 1130.676573 315.642275 
L 1131.995592 331.841264 
L 1133.314611 333.74454 
L 1134.63363 343.260917 
L 1135.952649 327.019633 
L 1137.271668 336.916666 
L 1138.590687 334.84421 
L 1139.909706 333.025524 
L 1141.228725 336.11306 
L 1142.547745 343.260917 
L 1143.866764 327.315698 
L 1145.185783 343.260917 
L 1147.823821 343.260917 
L 1149.14284 329.303563 
L 1150.461859 321.352101 
L 1151.780878 343.260917 
L 1155.737935 343.260917 
L 1157.056954 320.125546 
L 1158.375973 343.260917 
L 1161.014011 343.260917 
L 1162.33303 326.892748 
L 1163.652049 328.880613 
L 1164.971068 343.260917 
L 1167.609106 343.260917 
L 1168.928125 326.808158 
L 1170.247144 343.260917 
L 1172.885182 343.260917 
L 1174.204201 332.814049 
L 1175.52322 343.260917 
L 1176.842239 343.260917 
L 1178.161258 336.070765 
L 1179.480277 342.499607 
L 1180.799296 343.260917 
L 1182.118315 343.260917 
L 1183.437334 334.040605 
L 1184.756353 343.260917 
L 1186.075372 343.260917 
L 1187.394391 338.396991 
L 1188.71341 343.260917 
L 1199.265562 343.260917 
L 1200.584581 330.910774 
L 1201.9036 343.260917 
L 1203.222619 334.9288 
L 1204.541638 343.260917 
L 1205.860657 343.260917 
L 1207.179676 335.816995 
L 1208.498695 343.260917 
L 1215.09379 343.260917 
L 1216.412809 326.342913 
L 1217.731828 343.260917 
L 1220.369866 343.260917 
L 1221.688885 330.276349 
L 1223.007904 343.260917 
L 1230.922018 343.260917 
L 1232.241037 324.481932 
L 1233.560056 343.260917 
L 1238.836132 343.260917 
L 1240.155151 307.648517 
L 1241.47417 343.260917 
L 1242.793189 323.382262 
L 1244.112208 343.260917 
L 1245.431227 321.775051 
L 1246.750246 343.260917 
L 1248.069265 308.452123 
L 1249.388284 327.527173 
L 1250.707303 343.260917 
L 1252.026322 308.536713 
L 1254.66436 343.260917 
L 1255.983379 307.014092 
L 1257.302398 327.146518 
L 1258.621417 343.260917 
L 1259.940436 318.64522 
L 1261.259455 343.260917 
L 1262.578474 276.984634 
L 1263.897493 343.260917 
L 1265.216512 308.536713 
L 1266.535531 330.276349 
L 1267.85455 343.260917 
L 1269.173569 300.1623 
L 1270.492588 343.260917 
L 1273.130626 343.260917 
L 1274.449645 282.060035 
L 1275.768664 343.260917 
L 1278.406702 343.260917 
L 1279.725721 273.601033 
L 1281.04474 343.260917 
L 1285.001797 343.260917 
L 1286.320817 253.680082 
L 1287.639836 343.260917 
L 1300.830026 343.260917 
L 1300.830026 343.260917 
" clip-path="url(#p2344d26fd4)" style="fill: none; stroke: #0000ff; stroke-width: 1.5; stroke-linecap: square"/>
   </g>
   <g id="line2d_21">
    <path d="M 1060.768566 151.120637 
L 1062.087585 147.277069 
L 1063.406604 160.379894 
L 1064.725623 155.572834 
L 1066.044642 139.7182 
L 1067.363661 119.256615 
L 1068.68268 88.010672 
L 1070.001699 72.988791 
L 1071.320718 63.955168 
L 1072.639737 83.15113 
L 1073.958756 91.970124 
L 1075.277775 83.630871 
L 1076.596794 69.449668 
L 1077.915813 66.041 
L 1079.234832 78.125914 
L 1081.87287 139.531267 
L 1083.191889 152.201102 
L 1084.510908 156.056056 
L 1085.829927 167.470071 
L 1087.148946 190.475943 
L 1088.467965 203.170776 
L 1091.106003 238.700335 
L 1092.425022 244.055293 
L 1093.744041 241.18313 
L 1095.06306 251.853378 
L 1096.382079 258.445728 
L 1097.701098 274.093624 
L 1099.020117 285.56604 
L 1100.339136 294.249846 
L 1101.658155 290.964128 
L 1102.977174 291.160837 
L 1105.615212 302.425361 
L 1106.934231 305.790205 
L 1108.25325 308.709665 
L 1109.572269 313.532888 
L 1110.891288 315.419018 
L 1112.210307 319.065677 
L 1113.529326 319.535862 
L 1114.848345 320.944898 
L 1116.167364 322.051978 
L 1117.486383 323.861956 
L 1118.805402 322.201511 
L 1120.124421 317.993379 
L 1121.44344 317.550684 
L 1122.762459 322.272974 
L 1124.081478 325.863556 
L 1125.400497 327.390253 
L 1126.719516 329.358792 
L 1128.038535 330.015007 
L 1129.357554 338.640325 
L 1130.676573 325.798223 
L 1131.995592 330.040612 
L 1133.314611 332.442502 
L 1134.63363 339.712047 
L 1135.952649 332.115684 
L 1137.271668 337.367212 
L 1138.590687 330.536998 
L 1139.909706 334.857907 
L 1141.228725 335.89918 
L 1142.547745 342.226843 
L 1143.866764 329.832518 
L 1145.185783 339.959875 
L 1146.504802 341.187458 
L 1147.823821 343.119702 
L 1149.14284 334.619365 
L 1150.461859 327.694375 
L 1151.780878 334.009354 
L 1153.099897 343.328789 
L 1154.418916 342.94685 
L 1155.737935 343.294914 
L 1157.056954 326.199241 
L 1159.694992 344.090115 
L 1161.014011 344.201582 
L 1162.33303 332.805694 
L 1163.652049 330.438209 
L 1164.971068 334.00603 
L 1166.290087 344.600468 
L 1167.609106 344.05336 
L 1168.928125 332.643509 
L 1170.247144 336.027977 
L 1171.566163 341.00841 
L 1172.885182 345.093171 
L 1174.204201 338.308926 
L 1175.52322 340.463069 
L 1176.842239 339.052257 
L 1178.161258 340.43289 
L 1179.480277 342.3128 
L 1180.799296 342.806152 
L 1183.437334 338.35265 
L 1184.756353 341.564581 
L 1186.075372 341.855228 
L 1187.394391 340.314476 
L 1188.71341 342.169967 
L 1190.032429 342.86339 
L 1191.351448 341.841108 
L 1192.670467 344.113034 
L 1193.989486 343.552971 
L 1195.308505 342.601126 
L 1196.627524 343.810578 
L 1197.946543 343.464395 
L 1199.265562 343.335038 
L 1200.584581 335.877301 
L 1201.9036 340.189398 
L 1203.222619 336.936847 
L 1204.541638 340.999034 
L 1205.860657 342.249698 
L 1207.179676 338.266119 
L 1208.498695 339.040614 
L 1209.817714 343.930143 
L 1211.136733 341.999477 
L 1212.455752 344.344986 
L 1213.774771 343.646267 
L 1215.09379 342.037418 
L 1216.412809 333.713878 
L 1217.731828 340.063394 
L 1219.050847 341.616617 
L 1220.369866 342.919974 
L 1221.688885 334.794217 
L 1223.007904 340.04391 
L 1224.326923 339.115835 
L 1225.645942 344.598985 
L 1226.964961 343.688281 
L 1228.28398 343.503855 
L 1229.602999 340.860595 
L 1230.922018 344.841911 
L 1232.241037 332.22924 
L 1233.560056 339.611362 
L 1234.879075 341.324319 
L 1236.198094 342.539296 
L 1237.517113 342.97121 
L 1238.836132 343.618956 
L 1240.155151 317.341146 
L 1241.47417 336.924779 
L 1242.793189 328.432973 
L 1244.112208 337.720833 
L 1245.431227 327.840547 
L 1246.750246 337.395319 
L 1248.069265 312.688764 
L 1249.388284 329.321091 
L 1250.707303 333.558775 
L 1252.026322 321.812951 
L 1253.345341 320.327537 
L 1254.66436 338.570165 
L 1255.983379 312.483504 
L 1257.302398 326.423056 
L 1258.621417 338.41093 
L 1259.940436 320.470117 
L 1261.259455 337.155938 
L 1262.578474 303.895246 
L 1263.897493 320.712116 
L 1265.216512 318.180828 
L 1266.535531 327.788086 
L 1267.85455 332.455573 
L 1269.173569 318.146503 
L 1270.492588 320.770187 
L 1271.811607 346.398752 
L 1273.130626 339.353458 
L 1274.449645 307.006532 
L 1275.768664 331.505791 
L 1277.087683 331.614568 
L 1278.406702 345.855434 
L 1279.725721 303.528032 
L 1281.04474 325.942639 
L 1282.363759 326.131449 
L 1283.682778 347.648823 
L 1285.001797 344.547191 
L 1286.320817 289.608272 
L 1287.639836 308.436397 
L 1288.958855 342.637793 
L 1290.277874 343.436578 
L 1291.596893 345.30757 
L 1292.915912 341.990865 
L 1294.234931 326.021067 
L 1295.55395 353.2755 
L 1296.872969 349.778454 
L 1298.191988 343.368627 
L 1299.511007 343.22436 
L 1300.830026 342.875081 
L 1300.830026 342.875081 
" clip-path="url(#p2344d26fd4)" style="fill: none; stroke: #ffa500; stroke-width: 1.5; stroke-linecap: square"/>
   </g>
   <g id="line2d_22">
    <path d="M 1300.830026 342.875081 
L 1302.149045 343.259992 
L 1303.468064 346.407856 
L 1304.787083 343.294008 
L 1306.106102 342.785595 
L 1307.425121 343.231315 
L 1308.74414 343.245883 
L 1310.063159 343.243269 
L 1311.382178 343.243269 
L 1312.701197 343.243269 
L 1314.020216 343.243269 
L 1315.339235 343.243269 
L 1316.658254 343.243269 
L 1317.977273 343.243269 
" clip-path="url(#p2344d26fd4)" style="fill: none; stroke: #ff0000; stroke-width: 1.5; stroke-linecap: square"/>
   </g>
   <g id="patch_3">
    <path d="M 39.65 368.3955 
L 39.65 35.7555 
" style="fill: none; stroke: #000000; stroke-width: 0.8; stroke-linejoin: miter; stroke-linecap: square"/>
   </g>
   <g id="patch_4">
    <path d="M 1378.85 368.3955 
L 1378.85 35.7555 
" style="fill: none; stroke: #000000; stroke-width: 0.8; stroke-linejoin: miter; stroke-linecap: square"/>
   </g>
   <g id="patch_5">
    <path d="M 39.65 368.3955 
L 1378.85 368.3955 
" style="fill: none; stroke: #000000; stroke-width: 0.8; stroke-linejoin: miter; stroke-linecap: square"/>
   </g>
   <g id="patch_6">
    <path d="M 39.65 35.7555 
L 1378.85 35.7555 
" style="fill: none; stroke: #000000; stroke-width: 0.8; stroke-linejoin: miter; stroke-linecap: square"/>
   </g>
   <g id="text_20">
    <!-- Daily Confirmed Cases Forecasting - Kuwait -->
    <g transform="translate(578.709687 16.318125)scale(0.12 -0.12)">
     <defs>
      <path id="DejaVuSans-44" d="M 1259 4147 
L 1259 519 
L 2022 519 
Q 2988 519 3436 956 
Q 3884 1394 3884 2338 
Q 3884 3275 3436 3711 
Q 2988 4147 2022 4147 
L 1259 4147 
z
M 628 4666 
L 1925 4666 
Q 3281 4666 3915 4102 
Q 4550 3538 4550 2338 
Q 4550 1131 3912 565 
Q 3275 0 1925 0 
L 628 0 
L 628 4666 
z
" transform="scale(0.015625)"/>
      <path id="DejaVuSans-61" d="M 2194 1759 
Q 1497 1759 1228 1600 
Q 959 1441 959 1056 
Q 959 750 1161 570 
Q 1363 391 1709 391 
Q 2188 391 2477 730 
Q 2766 1069 2766 1631 
L 2766 1759 
L 2194 1759 
z
M 3341 1997 
L 3341 0 
L 2766 0 
L 2766 531 
Q 2569 213 2275 61 
Q 1981 -91 1556 -91 
Q 1019 -91 701 211 
Q 384 513 384 1019 
Q 384 1609 779 1909 
Q 1175 2209 1959 2209 
L 2766 2209 
L 2766 2266 
Q 2766 2663 2505 2880 
Q 2244 3097 1772 3097 
Q 1472 3097 1187 3025 
Q 903 2953 641 2809 
L 641 3341 
Q 956 3463 1253 3523 
Q 1550 3584 1831 3584 
Q 2591 3584 2966 3190 
Q 3341 2797 3341 1997 
z
" transform="scale(0.015625)"/>
      <path id="DejaVuSans-69" d="M 603 3500 
L 1178 3500 
L 1178 0 
L 603 0 
L 603 3500 
z
M 603 4863 
L 1178 4863 
L 1178 4134 
L 603 4134 
L 603 4863 
z
" transform="scale(0.015625)"/>
      <path id="DejaVuSans-6c" d="M 603 4863 
L 1178 4863 
L 1178 0 
L 603 0 
L 603 4863 
z
" transform="scale(0.015625)"/>
      <path id="DejaVuSans-79" d="M 2059 -325 
Q 1816 -950 1584 -1140 
Q 1353 -1331 966 -1331 
L 506 -1331 
L 506 -850 
L 844 -850 
Q 1081 -850 1212 -737 
Q 1344 -625 1503 -206 
L 1606 56 
L 191 3500 
L 800 3500 
L 1894 763 
L 2988 3500 
L 3597 3500 
L 2059 -325 
z
" transform="scale(0.015625)"/>
      <path id="DejaVuSans-20" transform="scale(0.015625)"/>
      <path id="DejaVuSans-43" d="M 4122 4306 
L 4122 3641 
Q 3803 3938 3442 4084 
Q 3081 4231 2675 4231 
Q 1875 4231 1450 3742 
Q 1025 3253 1025 2328 
Q 1025 1406 1450 917 
Q 1875 428 2675 428 
Q 3081 428 3442 575 
Q 3803 722 4122 1019 
L 4122 359 
Q 3791 134 3420 21 
Q 3050 -91 2638 -91 
Q 1578 -91 968 557 
Q 359 1206 359 2328 
Q 359 3453 968 4101 
Q 1578 4750 2638 4750 
Q 3056 4750 3426 4639 
Q 3797 4528 4122 4306 
z
" transform="scale(0.015625)"/>
      <path id="DejaVuSans-6f" d="M 1959 3097 
Q 1497 3097 1228 2736 
Q 959 2375 959 1747 
Q 959 1119 1226 758 
Q 1494 397 1959 397 
Q 2419 397 2687 759 
Q 2956 1122 2956 1747 
Q 2956 2369 2687 2733 
Q 2419 3097 1959 3097 
z
M 1959 3584 
Q 2709 3584 3137 3096 
Q 3566 2609 3566 1747 
Q 3566 888 3137 398 
Q 2709 -91 1959 -91 
Q 1206 -91 779 398 
Q 353 888 353 1747 
Q 353 2609 779 3096 
Q 1206 3584 1959 3584 
z
" transform="scale(0.015625)"/>
      <path id="DejaVuSans-6e" d="M 3513 2113 
L 3513 0 
L 2938 0 
L 2938 2094 
Q 2938 2591 2744 2837 
Q 2550 3084 2163 3084 
Q 1697 3084 1428 2787 
Q 1159 2491 1159 1978 
L 1159 0 
L 581 0 
L 581 3500 
L 1159 3500 
L 1159 2956 
Q 1366 3272 1645 3428 
Q 1925 3584 2291 3584 
Q 2894 3584 3203 3211 
Q 3513 2838 3513 2113 
z
" transform="scale(0.015625)"/>
      <path id="DejaVuSans-66" d="M 2375 4863 
L 2375 4384 
L 1825 4384 
Q 1516 4384 1395 4259 
Q 1275 4134 1275 3809 
L 1275 3500 
L 2222 3500 
L 2222 3053 
L 1275 3053 
L 1275 0 
L 697 0 
L 697 3053 
L 147 3053 
L 147 3500 
L 697 3500 
L 697 3744 
Q 697 4328 969 4595 
Q 1241 4863 1831 4863 
L 2375 4863 
z
" transform="scale(0.015625)"/>
      <path id="DejaVuSans-72" d="M 2631 2963 
Q 2534 3019 2420 3045 
Q 2306 3072 2169 3072 
Q 1681 3072 1420 2755 
Q 1159 2438 1159 1844 
L 1159 0 
L 581 0 
L 581 3500 
L 1159 3500 
L 1159 2956 
Q 1341 3275 1631 3429 
Q 1922 3584 2338 3584 
Q 2397 3584 2469 3576 
Q 2541 3569 2628 3553 
L 2631 2963 
z
" transform="scale(0.015625)"/>
      <path id="DejaVuSans-6d" d="M 3328 2828 
Q 3544 3216 3844 3400 
Q 4144 3584 4550 3584 
Q 5097 3584 5394 3201 
Q 5691 2819 5691 2113 
L 5691 0 
L 5113 0 
L 5113 2094 
Q 5113 2597 4934 2840 
Q 4756 3084 4391 3084 
Q 3944 3084 3684 2787 
Q 3425 2491 3425 1978 
L 3425 0 
L 2847 0 
L 2847 2094 
Q 2847 2600 2669 2842 
Q 2491 3084 2119 3084 
Q 1678 3084 1418 2786 
Q 1159 2488 1159 1978 
L 1159 0 
L 581 0 
L 581 3500 
L 1159 3500 
L 1159 2956 
Q 1356 3278 1631 3431 
Q 1906 3584 2284 3584 
Q 2666 3584 2933 3390 
Q 3200 3197 3328 2828 
z
" transform="scale(0.015625)"/>
      <path id="DejaVuSans-65" d="M 3597 1894 
L 3597 1613 
L 953 1613 
Q 991 1019 1311 708 
Q 1631 397 2203 397 
Q 2534 397 2845 478 
Q 3156 559 3463 722 
L 3463 178 
Q 3153 47 2828 -22 
Q 2503 -91 2169 -91 
Q 1331 -91 842 396 
Q 353 884 353 1716 
Q 353 2575 817 3079 
Q 1281 3584 2069 3584 
Q 2775 3584 3186 3129 
Q 3597 2675 3597 1894 
z
M 3022 2063 
Q 3016 2534 2758 2815 
Q 2500 3097 2075 3097 
Q 1594 3097 1305 2825 
Q 1016 2553 972 2059 
L 3022 2063 
z
" transform="scale(0.015625)"/>
      <path id="DejaVuSans-64" d="M 2906 2969 
L 2906 4863 
L 3481 4863 
L 3481 0 
L 2906 0 
L 2906 525 
Q 2725 213 2448 61 
Q 2172 -91 1784 -91 
Q 1150 -91 751 415 
Q 353 922 353 1747 
Q 353 2572 751 3078 
Q 1150 3584 1784 3584 
Q 2172 3584 2448 3432 
Q 2725 3281 2906 2969 
z
M 947 1747 
Q 947 1113 1208 752 
Q 1469 391 1925 391 
Q 2381 391 2643 752 
Q 2906 1113 2906 1747 
Q 2906 2381 2643 2742 
Q 2381 3103 1925 3103 
Q 1469 3103 1208 2742 
Q 947 2381 947 1747 
z
" transform="scale(0.015625)"/>
      <path id="DejaVuSans-73" d="M 2834 3397 
L 2834 2853 
Q 2591 2978 2328 3040 
Q 2066 3103 1784 3103 
Q 1356 3103 1142 2972 
Q 928 2841 928 2578 
Q 928 2378 1081 2264 
Q 1234 2150 1697 2047 
L 1894 2003 
Q 2506 1872 2764 1633 
Q 3022 1394 3022 966 
Q 3022 478 2636 193 
Q 2250 -91 1575 -91 
Q 1294 -91 989 -36 
Q 684 19 347 128 
L 347 722 
Q 666 556 975 473 
Q 1284 391 1588 391 
Q 1994 391 2212 530 
Q 2431 669 2431 922 
Q 2431 1156 2273 1281 
Q 2116 1406 1581 1522 
L 1381 1569 
Q 847 1681 609 1914 
Q 372 2147 372 2553 
Q 372 3047 722 3315 
Q 1072 3584 1716 3584 
Q 2034 3584 2315 3537 
Q 2597 3491 2834 3397 
z
" transform="scale(0.015625)"/>
      <path id="DejaVuSans-46" d="M 628 4666 
L 3309 4666 
L 3309 4134 
L 1259 4134 
L 1259 2759 
L 3109 2759 
L 3109 2228 
L 1259 2228 
L 1259 0 
L 628 0 
L 628 4666 
z
" transform="scale(0.015625)"/>
      <path id="DejaVuSans-63" d="M 3122 3366 
L 3122 2828 
Q 2878 2963 2633 3030 
Q 2388 3097 2138 3097 
Q 1578 3097 1268 2742 
Q 959 2388 959 1747 
Q 959 1106 1268 751 
Q 1578 397 2138 397 
Q 2388 397 2633 464 
Q 2878 531 3122 666 
L 3122 134 
Q 2881 22 2623 -34 
Q 2366 -91 2075 -91 
Q 1284 -91 818 406 
Q 353 903 353 1747 
Q 353 2603 823 3093 
Q 1294 3584 2113 3584 
Q 2378 3584 2631 3529 
Q 2884 3475 3122 3366 
z
" transform="scale(0.015625)"/>
      <path id="DejaVuSans-74" d="M 1172 4494 
L 1172 3500 
L 2356 3500 
L 2356 3053 
L 1172 3053 
L 1172 1153 
Q 1172 725 1289 603 
Q 1406 481 1766 481 
L 2356 481 
L 2356 0 
L 1766 0 
Q 1100 0 847 248 
Q 594 497 594 1153 
L 594 3053 
L 172 3053 
L 172 3500 
L 594 3500 
L 594 4494 
L 1172 4494 
z
" transform="scale(0.015625)"/>
      <path id="DejaVuSans-67" d="M 2906 1791 
Q 2906 2416 2648 2759 
Q 2391 3103 1925 3103 
Q 1463 3103 1205 2759 
Q 947 2416 947 1791 
Q 947 1169 1205 825 
Q 1463 481 1925 481 
Q 2391 481 2648 825 
Q 2906 1169 2906 1791 
z
M 3481 434 
Q 3481 -459 3084 -895 
Q 2688 -1331 1869 -1331 
Q 1566 -1331 1297 -1286 
Q 1028 -1241 775 -1147 
L 775 -588 
Q 1028 -725 1275 -790 
Q 1522 -856 1778 -856 
Q 2344 -856 2625 -561 
Q 2906 -266 2906 331 
L 2906 616 
Q 2728 306 2450 153 
Q 2172 0 1784 0 
Q 1141 0 747 490 
Q 353 981 353 1791 
Q 353 2603 747 3093 
Q 1141 3584 1784 3584 
Q 2172 3584 2450 3431 
Q 2728 3278 2906 2969 
L 2906 3500 
L 3481 3500 
L 3481 434 
z
" transform="scale(0.015625)"/>
      <path id="DejaVuSans-4b" d="M 628 4666 
L 1259 4666 
L 1259 2694 
L 3353 4666 
L 4166 4666 
L 1850 2491 
L 4331 0 
L 3500 0 
L 1259 2247 
L 1259 0 
L 628 0 
L 628 4666 
z
" transform="scale(0.015625)"/>
      <path id="DejaVuSans-75" d="M 544 1381 
L 544 3500 
L 1119 3500 
L 1119 1403 
Q 1119 906 1312 657 
Q 1506 409 1894 409 
Q 2359 409 2629 706 
Q 2900 1003 2900 1516 
L 2900 3500 
L 3475 3500 
L 3475 0 
L 2900 0 
L 2900 538 
Q 2691 219 2414 64 
Q 2138 -91 1772 -91 
Q 1169 -91 856 284 
Q 544 659 544 1381 
z
M 1991 3584 
L 1991 3584 
z
" transform="scale(0.015625)"/>
      <path id="DejaVuSans-77" d="M 269 3500 
L 844 3500 
L 1563 769 
L 2278 3500 
L 2956 3500 
L 3675 769 
L 4391 3500 
L 4966 3500 
L 4050 0 
L 3372 0 
L 2619 2869 
L 1863 0 
L 1184 0 
L 269 3500 
z
" transform="scale(0.015625)"/>
     </defs>
     <use xlink:href="#DejaVuSans-44"/>
     <use xlink:href="#DejaVuSans-61" x="77.001953"/>
     <use xlink:href="#DejaVuSans-69" x="138.28125"/>
     <use xlink:href="#DejaVuSans-6c" x="166.064453"/>
     <use xlink:href="#DejaVuSans-79" x="193.847656"/>
     <use xlink:href="#DejaVuSans-20" x="253.027344"/>
     <use xlink:href="#DejaVuSans-43" x="284.814453"/>
     <use xlink:href="#DejaVuSans-6f" x="354.638672"/>
     <use xlink:href="#DejaVuSans-6e" x="415.820312"/>
     <use xlink:href="#DejaVuSans-66" x="479.199219"/>
     <use xlink:href="#DejaVuSans-69" x="514.404297"/>
     <use xlink:href="#DejaVuSans-72" x="542.1875"/>
     <use xlink:href="#DejaVuSans-6d" x="581.550781"/>
     <use xlink:href="#DejaVuSans-65" x="678.962891"/>
     <use xlink:href="#DejaVuSans-64" x="740.486328"/>
     <use xlink:href="#DejaVuSans-20" x="803.962891"/>
     <use xlink:href="#DejaVuSans-43" x="835.75"/>
     <use xlink:href="#DejaVuSans-61" x="905.574219"/>
     <use xlink:href="#DejaVuSans-73" x="966.853516"/>
     <use xlink:href="#DejaVuSans-65" x="1018.953125"/>
     <use xlink:href="#DejaVuSans-73" x="1080.476562"/>
     <use xlink:href="#DejaVuSans-20" x="1132.576172"/>
     <use xlink:href="#DejaVuSans-46" x="1164.363281"/>
     <use xlink:href="#DejaVuSans-6f" x="1218.257812"/>
     <use xlink:href="#DejaVuSans-72" x="1279.439453"/>
     <use xlink:href="#DejaVuSans-65" x="1318.302734"/>
     <use xlink:href="#DejaVuSans-63" x="1379.826172"/>
     <use xlink:href="#DejaVuSans-61" x="1434.806641"/>
     <use xlink:href="#DejaVuSans-73" x="1496.085938"/>
     <use xlink:href="#DejaVuSans-74" x="1548.185547"/>
     <use xlink:href="#DejaVuSans-69" x="1587.394531"/>
     <use xlink:href="#DejaVuSans-6e" x="1615.177734"/>
     <use xlink:href="#DejaVuSans-67" x="1678.556641"/>
     <use xlink:href="#DejaVuSans-20" x="1742.033203"/>
     <use xlink:href="#DejaVuSans-2d" x="1773.820312"/>
     <use xlink:href="#DejaVuSans-20" x="1809.904297"/>
     <use xlink:href="#DejaVuSans-4b" x="1841.691406"/>
     <use xlink:href="#DejaVuSans-75" x="1902.267578"/>
     <use xlink:href="#DejaVuSans-77" x="1965.646484"/>
     <use xlink:href="#DejaVuSans-61" x="2047.433594"/>
     <use xlink:href="#DejaVuSans-69" x="2108.712891"/>
     <use xlink:href="#DejaVuSans-74" x="2136.496094"/>
    </g>
    <!-- ARIMA (0, 1, 1)x(0, 0, 1, 7) (R2 = 0.987273) -->
    <g transform="translate(577.265938 29.7555)scale(0.12 -0.12)">
     <defs>
      <path id="DejaVuSans-41" d="M 2188 4044 
L 1331 1722 
L 3047 1722 
L 2188 4044 
z
M 1831 4666 
L 2547 4666 
L 4325 0 
L 3669 0 
L 3244 1197 
L 1141 1197 
L 716 0 
L 50 0 
L 1831 4666 
z
" transform="scale(0.015625)"/>
      <path id="DejaVuSans-52" d="M 2841 2188 
Q 3044 2119 3236 1894 
Q 3428 1669 3622 1275 
L 4263 0 
L 3584 0 
L 2988 1197 
Q 2756 1666 2539 1819 
Q 2322 1972 1947 1972 
L 1259 1972 
L 1259 0 
L 628 0 
L 628 4666 
L 2053 4666 
Q 2853 4666 3247 4331 
Q 3641 3997 3641 3322 
Q 3641 2881 3436 2590 
Q 3231 2300 2841 2188 
z
M 1259 4147 
L 1259 2491 
L 2053 2491 
Q 2509 2491 2742 2702 
Q 2975 2913 2975 3322 
Q 2975 3731 2742 3939 
Q 2509 4147 2053 4147 
L 1259 4147 
z
" transform="scale(0.015625)"/>
      <path id="DejaVuSans-49" d="M 628 4666 
L 1259 4666 
L 1259 0 
L 628 0 
L 628 4666 
z
" transform="scale(0.015625)"/>
      <path id="DejaVuSans-4d" d="M 628 4666 
L 1569 4666 
L 2759 1491 
L 3956 4666 
L 4897 4666 
L 4897 0 
L 4281 0 
L 4281 4097 
L 3078 897 
L 2444 897 
L 1241 4097 
L 1241 0 
L 628 0 
L 628 4666 
z
" transform="scale(0.015625)"/>
      <path id="DejaVuSans-28" d="M 1984 4856 
Q 1566 4138 1362 3434 
Q 1159 2731 1159 2009 
Q 1159 1288 1364 580 
Q 1569 -128 1984 -844 
L 1484 -844 
Q 1016 -109 783 600 
Q 550 1309 550 2009 
Q 550 2706 781 3412 
Q 1013 4119 1484 4856 
L 1984 4856 
z
" transform="scale(0.015625)"/>
      <path id="DejaVuSans-2c" d="M 750 794 
L 1409 794 
L 1409 256 
L 897 -744 
L 494 -744 
L 750 256 
L 750 794 
z
" transform="scale(0.015625)"/>
      <path id="DejaVuSans-29" d="M 513 4856 
L 1013 4856 
Q 1481 4119 1714 3412 
Q 1947 2706 1947 2009 
Q 1947 1309 1714 600 
Q 1481 -109 1013 -844 
L 513 -844 
Q 928 -128 1133 580 
Q 1338 1288 1338 2009 
Q 1338 2731 1133 3434 
Q 928 4138 513 4856 
z
" transform="scale(0.015625)"/>
      <path id="DejaVuSans-78" d="M 3513 3500 
L 2247 1797 
L 3578 0 
L 2900 0 
L 1881 1375 
L 863 0 
L 184 0 
L 1544 1831 
L 300 3500 
L 978 3500 
L 1906 2253 
L 2834 3500 
L 3513 3500 
z
" transform="scale(0.015625)"/>
      <path id="DejaVuSans-3d" d="M 678 2906 
L 4684 2906 
L 4684 2381 
L 678 2381 
L 678 2906 
z
M 678 1631 
L 4684 1631 
L 4684 1100 
L 678 1100 
L 678 1631 
z
" transform="scale(0.015625)"/>
      <path id="DejaVuSans-2e" d="M 684 794 
L 1344 794 
L 1344 0 
L 684 0 
L 684 794 
z
" transform="scale(0.015625)"/>
      <path id="DejaVuSans-39" d="M 703 97 
L 703 672 
Q 941 559 1184 500 
Q 1428 441 1663 441 
Q 2288 441 2617 861 
Q 2947 1281 2994 2138 
Q 2813 1869 2534 1725 
Q 2256 1581 1919 1581 
Q 1219 1581 811 2004 
Q 403 2428 403 3163 
Q 403 3881 828 4315 
Q 1253 4750 1959 4750 
Q 2769 4750 3195 4129 
Q 3622 3509 3622 2328 
Q 3622 1225 3098 567 
Q 2575 -91 1691 -91 
Q 1453 -91 1209 -44 
Q 966 3 703 97 
z
M 1959 2075 
Q 2384 2075 2632 2365 
Q 2881 2656 2881 3163 
Q 2881 3666 2632 3958 
Q 2384 4250 1959 4250 
Q 1534 4250 1286 3958 
Q 1038 3666 1038 3163 
Q 1038 2656 1286 2365 
Q 1534 2075 1959 2075 
z
" transform="scale(0.015625)"/>
      <path id="DejaVuSans-38" d="M 2034 2216 
Q 1584 2216 1326 1975 
Q 1069 1734 1069 1313 
Q 1069 891 1326 650 
Q 1584 409 2034 409 
Q 2484 409 2743 651 
Q 3003 894 3003 1313 
Q 3003 1734 2745 1975 
Q 2488 2216 2034 2216 
z
M 1403 2484 
Q 997 2584 770 2862 
Q 544 3141 544 3541 
Q 544 4100 942 4425 
Q 1341 4750 2034 4750 
Q 2731 4750 3128 4425 
Q 3525 4100 3525 3541 
Q 3525 3141 3298 2862 
Q 3072 2584 2669 2484 
Q 3125 2378 3379 2068 
Q 3634 1759 3634 1313 
Q 3634 634 3220 271 
Q 2806 -91 2034 -91 
Q 1263 -91 848 271 
Q 434 634 434 1313 
Q 434 1759 690 2068 
Q 947 2378 1403 2484 
z
M 1172 3481 
Q 1172 3119 1398 2916 
Q 1625 2713 2034 2713 
Q 2441 2713 2670 2916 
Q 2900 3119 2900 3481 
Q 2900 3844 2670 4047 
Q 2441 4250 2034 4250 
Q 1625 4250 1398 4047 
Q 1172 3844 1172 3481 
z
" transform="scale(0.015625)"/>
     </defs>
     <use xlink:href="#DejaVuSans-41"/>
     <use xlink:href="#DejaVuSans-52" x="68.408203"/>
     <use xlink:href="#DejaVuSans-49" x="137.890625"/>
     <use xlink:href="#DejaVuSans-4d" x="167.382812"/>
     <use xlink:href="#DejaVuSans-41" x="253.662109"/>
     <use xlink:href="#DejaVuSans-20" x="322.070312"/>
     <use xlink:href="#DejaVuSans-28" x="353.857422"/>
     <use xlink:href="#DejaVuSans-30" x="392.871094"/>
     <use xlink:href="#DejaVuSans-2c" x="456.494141"/>
     <use xlink:href="#DejaVuSans-20" x="488.28125"/>
     <use xlink:href="#DejaVuSans-31" x="520.068359"/>
     <use xlink:href="#DejaVuSans-2c" x="583.691406"/>
     <use xlink:href="#DejaVuSans-20" x="615.478516"/>
     <use xlink:href="#DejaVuSans-31" x="647.265625"/>
     <use xlink:href="#DejaVuSans-29" x="710.888672"/>
     <use xlink:href="#DejaVuSans-78" x="749.902344"/>
     <use xlink:href="#DejaVuSans-28" x="809.082031"/>
     <use xlink:href="#DejaVuSans-30" x="848.095703"/>
     <use xlink:href="#DejaVuSans-2c" x="911.71875"/>
     <use xlink:href="#DejaVuSans-20" x="943.505859"/>
     <use xlink:href="#DejaVuSans-30" x="975.292969"/>
     <use xlink:href="#DejaVuSans-2c" x="1038.916016"/>
     <use xlink:href="#DejaVuSans-20" x="1070.703125"/>
     <use xlink:href="#DejaVuSans-31" x="1102.490234"/>
     <use xlink:href="#DejaVuSans-2c" x="1166.113281"/>
     <use xlink:href="#DejaVuSans-20" x="1197.900391"/>
     <use xlink:href="#DejaVuSans-37" x="1229.6875"/>
     <use xlink:href="#DejaVuSans-29" x="1293.310547"/>
     <use xlink:href="#DejaVuSans-20" x="1332.324219"/>
     <use xlink:href="#DejaVuSans-28" x="1364.111328"/>
     <use xlink:href="#DejaVuSans-52" x="1403.125"/>
     <use xlink:href="#DejaVuSans-32" x="1472.607422"/>
     <use xlink:href="#DejaVuSans-20" x="1536.230469"/>
     <use xlink:href="#DejaVuSans-3d" x="1568.017578"/>
     <use xlink:href="#DejaVuSans-20" x="1651.806641"/>
     <use xlink:href="#DejaVuSans-30" x="1683.59375"/>
     <use xlink:href="#DejaVuSans-2e" x="1747.216797"/>
     <use xlink:href="#DejaVuSans-39" x="1779.003906"/>
     <use xlink:href="#DejaVuSans-38" x="1842.626953"/>
     <use xlink:href="#DejaVuSans-37" x="1906.25"/>
     <use xlink:href="#DejaVuSans-32" x="1969.873047"/>
     <use xlink:href="#DejaVuSans-37" x="2033.496094"/>
     <use xlink:href="#DejaVuSans-33" x="2097.119141"/>
     <use xlink:href="#DejaVuSans-29" x="2160.742188"/>
    </g>
   </g>
   <g id="legend_1">
    <g id="patch_7">
     <path d="M 1274.770313 87.789875 
L 1371.85 87.789875 
Q 1373.85 87.789875 1373.85 85.789875 
L 1373.85 42.7555 
Q 1373.85 40.7555 1371.85 40.7555 
L 1274.770313 40.7555 
Q 1272.770313 40.7555 1272.770313 42.7555 
L 1272.770313 85.789875 
Q 1272.770313 87.789875 1274.770313 87.789875 
z
" style="fill: #ffffff; opacity: 0.8; stroke: #cccccc; stroke-linejoin: miter"/>
    </g>
    <g id="line2d_23">
     <path d="M 1276.770313 48.853937 
L 1286.770313 48.853937 
L 1296.770313 48.853937 
" style="fill: none; stroke: #0000ff; stroke-width: 1.5; stroke-linecap: square"/>
    </g>
    <g id="text_21">
     <!-- Actual Value -->
     <g transform="translate(1304.770313 52.353937)scale(0.1 -0.1)">
      <defs>
       <path id="DejaVuSans-56" d="M 1831 0 
L 50 4666 
L 709 4666 
L 2188 738 
L 3669 4666 
L 4325 4666 
L 2547 0 
L 1831 0 
z
" transform="scale(0.015625)"/>
      </defs>
      <use xlink:href="#DejaVuSans-41"/>
      <use xlink:href="#DejaVuSans-63" x="66.658203"/>
      <use xlink:href="#DejaVuSans-74" x="121.638672"/>
      <use xlink:href="#DejaVuSans-75" x="160.847656"/>
      <use xlink:href="#DejaVuSans-61" x="224.226562"/>
      <use xlink:href="#DejaVuSans-6c" x="285.505859"/>
      <use xlink:href="#DejaVuSans-20" x="313.289062"/>
      <use xlink:href="#DejaVuSans-56" x="345.076172"/>
      <use xlink:href="#DejaVuSans-61" x="405.734375"/>
      <use xlink:href="#DejaVuSans-6c" x="467.013672"/>
      <use xlink:href="#DejaVuSans-75" x="494.796875"/>
      <use xlink:href="#DejaVuSans-65" x="558.175781"/>
     </g>
    </g>
    <g id="line2d_24">
     <path d="M 1276.770313 63.532062 
L 1286.770313 63.532062 
L 1296.770313 63.532062 
" style="fill: none; stroke: #ffa500; stroke-width: 1.5; stroke-linecap: square"/>
    </g>
    <g id="text_22">
     <!-- Check Value -->
     <g transform="translate(1304.770313 67.032062)scale(0.1 -0.1)">
      <defs>
       <path id="DejaVuSans-68" d="M 3513 2113 
L 3513 0 
L 2938 0 
L 2938 2094 
Q 2938 2591 2744 2837 
Q 2550 3084 2163 3084 
Q 1697 3084 1428 2787 
Q 1159 2491 1159 1978 
L 1159 0 
L 581 0 
L 581 4863 
L 1159 4863 
L 1159 2956 
Q 1366 3272 1645 3428 
Q 1925 3584 2291 3584 
Q 2894 3584 3203 3211 
Q 3513 2838 3513 2113 
z
" transform="scale(0.015625)"/>
       <path id="DejaVuSans-6b" d="M 581 4863 
L 1159 4863 
L 1159 1991 
L 2875 3500 
L 3609 3500 
L 1753 1863 
L 3688 0 
L 2938 0 
L 1159 1709 
L 1159 0 
L 581 0 
L 581 4863 
z
" transform="scale(0.015625)"/>
      </defs>
      <use xlink:href="#DejaVuSans-43"/>
      <use xlink:href="#DejaVuSans-68" x="69.824219"/>
      <use xlink:href="#DejaVuSans-65" x="133.203125"/>
      <use xlink:href="#DejaVuSans-63" x="194.726562"/>
      <use xlink:href="#DejaVuSans-6b" x="249.707031"/>
      <use xlink:href="#DejaVuSans-20" x="307.617188"/>
      <use xlink:href="#DejaVuSans-56" x="339.404297"/>
      <use xlink:href="#DejaVuSans-61" x="400.0625"/>
      <use xlink:href="#DejaVuSans-6c" x="461.341797"/>
      <use xlink:href="#DejaVuSans-75" x="489.125"/>
      <use xlink:href="#DejaVuSans-65" x="552.503906"/>
     </g>
    </g>
    <g id="line2d_25">
     <path d="M 1276.770313 78.210187 
L 1286.770313 78.210187 
L 1296.770313 78.210187 
" style="fill: none; stroke: #ff0000; stroke-width: 1.5; stroke-linecap: square"/>
    </g>
    <g id="text_23">
     <!-- Predict Value -->
     <g transform="translate(1304.770313 81.710187)scale(0.1 -0.1)">
      <defs>
       <path id="DejaVuSans-50" d="M 1259 4147 
L 1259 2394 
L 2053 2394 
Q 2494 2394 2734 2622 
Q 2975 2850 2975 3272 
Q 2975 3691 2734 3919 
Q 2494 4147 2053 4147 
L 1259 4147 
z
M 628 4666 
L 2053 4666 
Q 2838 4666 3239 4311 
Q 3641 3956 3641 3272 
Q 3641 2581 3239 2228 
Q 2838 1875 2053 1875 
L 1259 1875 
L 1259 0 
L 628 0 
L 628 4666 
z
" transform="scale(0.015625)"/>
      </defs>
      <use xlink:href="#DejaVuSans-50"/>
      <use xlink:href="#DejaVuSans-72" x="58.552734"/>
      <use xlink:href="#DejaVuSans-65" x="97.416016"/>
      <use xlink:href="#DejaVuSans-64" x="158.939453"/>
      <use xlink:href="#DejaVuSans-69" x="222.416016"/>
      <use xlink:href="#DejaVuSans-63" x="250.199219"/>
      <use xlink:href="#DejaVuSans-74" x="305.179688"/>
      <use xlink:href="#DejaVuSans-20" x="344.388672"/>
      <use xlink:href="#DejaVuSans-56" x="376.175781"/>
      <use xlink:href="#DejaVuSans-61" x="436.833984"/>
      <use xlink:href="#DejaVuSans-6c" x="498.113281"/>
      <use xlink:href="#DejaVuSans-75" x="525.896484"/>
      <use xlink:href="#DejaVuSans-65" x="589.275391"/>
     </g>
    </g>
   </g>
  </g>
 </g>
 <defs>
  <clipPath id="p2344d26fd4">
   <rect x="39.65" y="35.7555" width="1339.2" height="332.64"/>
  </clipPath>
 </defs>
</svg>
