<?xml version="1.0" encoding="utf-8" standalone="no"?>
<!DOCTYPE svg PUBLIC "-//W3C//DTD SVG 1.1//EN"
  "http://www.w3.org/Graphics/SVG/1.1/DTD/svg11.dtd">
<svg xmlns:xlink="http://www.w3.org/1999/xlink" width="1392.4125pt" height="392.273625pt" viewBox="0 0 1392.4125 392.273625" xmlns="http://www.w3.org/2000/svg" version="1.1">
 <metadata>
  <rdf:RDF xmlns:dc="http://purl.org/dc/elements/1.1/" xmlns:cc="http://creativecommons.org/ns#" xmlns:rdf="http://www.w3.org/1999/02/22-rdf-syntax-ns#">
   <cc:Work>
    <dc:type rdf:resource="http://purl.org/dc/dcmitype/StillImage"/>
    <dc:date>2022-07-05T19:42:02.122987</dc:date>
    <dc:format>image/svg+xml</dc:format>
    <dc:creator>
     <cc:Agent>
      <dc:title>Matplotlib v3.5.2, https://matplotlib.org/</dc:title>
     </cc:Agent>
    </dc:creator>
   </cc:Work>
  </rdf:RDF>
 </metadata>
 <defs>
  <style type="text/css">*{stroke-linejoin: round; stroke-linecap: butt}</style>
 </defs>
 <g id="figure_1">
  <g id="patch_1">
   <path d="M 0 392.273625 
L 1392.4125 392.273625 
L 1392.4125 0 
L 0 0 
z
" style="fill: #ffffff"/>
  </g>
  <g id="axes_1">
   <g id="patch_2">
    <path d="M 46.0125 368.3955 
L 1385.2125 368.3955 
L 1385.2125 35.7555 
L 46.0125 35.7555 
z
" style="fill: #ffffff"/>
   </g>
   <g id="matplotlib.axis_1">
    <g id="xtick_1">
     <g id="line2d_1">
      <defs>
       <path id="m56206838af" d="M 0 0 
L 0 3.5 
" style="stroke: #000000; stroke-width: 0.8"/>
      </defs>
      <g>
       <use xlink:href="#m56206838af" x="78.697195" y="368.3955" style="stroke: #000000; stroke-width: 0.8"/>
      </g>
     </g>
     <g id="text_1">
      <!-- 2020-01 -->
      <g transform="translate(57.805789 382.993937)scale(0.1 -0.1)">
       <defs>
        <path id="DejaVuSans-32" d="M 1228 531 
L 3431 531 
L 3431 0 
L 469 0 
L 469 531 
Q 828 903 1448 1529 
Q 2069 2156 2228 2338 
Q 2531 2678 2651 2914 
Q 2772 3150 2772 3378 
Q 2772 3750 2511 3984 
Q 2250 4219 1831 4219 
Q 1534 4219 1204 4116 
Q 875 4013 500 3803 
L 500 4441 
Q 881 4594 1212 4672 
Q 1544 4750 1819 4750 
Q 2544 4750 2975 4387 
Q 3406 4025 3406 3419 
Q 3406 3131 3298 2873 
Q 3191 2616 2906 2266 
Q 2828 2175 2409 1742 
Q 1991 1309 1228 531 
z
" transform="scale(0.015625)"/>
        <path id="DejaVuSans-30" d="M 2034 4250 
Q 1547 4250 1301 3770 
Q 1056 3291 1056 2328 
Q 1056 1369 1301 889 
Q 1547 409 2034 409 
Q 2525 409 2770 889 
Q 3016 1369 3016 2328 
Q 3016 3291 2770 3770 
Q 2525 4250 2034 4250 
z
M 2034 4750 
Q 2819 4750 3233 4129 
Q 3647 3509 3647 2328 
Q 3647 1150 3233 529 
Q 2819 -91 2034 -91 
Q 1250 -91 836 529 
Q 422 1150 422 2328 
Q 422 3509 836 4129 
Q 1250 4750 2034 4750 
z
" transform="scale(0.015625)"/>
        <path id="DejaVuSans-2d" d="M 313 2009 
L 1997 2009 
L 1997 1497 
L 313 1497 
L 313 2009 
z
" transform="scale(0.015625)"/>
        <path id="DejaVuSans-31" d="M 794 531 
L 1825 531 
L 1825 4091 
L 703 3866 
L 703 4441 
L 1819 4666 
L 2450 4666 
L 2450 531 
L 3481 531 
L 3481 0 
L 794 0 
L 794 531 
z
" transform="scale(0.015625)"/>
       </defs>
       <use xlink:href="#DejaVuSans-32"/>
       <use xlink:href="#DejaVuSans-30" x="63.623047"/>
       <use xlink:href="#DejaVuSans-32" x="127.246094"/>
       <use xlink:href="#DejaVuSans-30" x="190.869141"/>
       <use xlink:href="#DejaVuSans-2d" x="254.492188"/>
       <use xlink:href="#DejaVuSans-30" x="290.576172"/>
       <use xlink:href="#DejaVuSans-31" x="354.199219"/>
      </g>
     </g>
    </g>
    <g id="xtick_2">
     <g id="line2d_2">
      <g>
       <use xlink:href="#m56206838af" x="200.845336" y="368.3955" style="stroke: #000000; stroke-width: 0.8"/>
      </g>
     </g>
     <g id="text_2">
      <!-- 2020-04 -->
      <g transform="translate(179.953929 382.993937)scale(0.1 -0.1)">
       <defs>
        <path id="DejaVuSans-34" d="M 2419 4116 
L 825 1625 
L 2419 1625 
L 2419 4116 
z
M 2253 4666 
L 3047 4666 
L 3047 1625 
L 3713 1625 
L 3713 1100 
L 3047 1100 
L 3047 0 
L 2419 0 
L 2419 1100 
L 313 1100 
L 313 1709 
L 2253 4666 
z
" transform="scale(0.015625)"/>
       </defs>
       <use xlink:href="#DejaVuSans-32"/>
       <use xlink:href="#DejaVuSans-30" x="63.623047"/>
       <use xlink:href="#DejaVuSans-32" x="127.246094"/>
       <use xlink:href="#DejaVuSans-30" x="190.869141"/>
       <use xlink:href="#DejaVuSans-2d" x="254.492188"/>
       <use xlink:href="#DejaVuSans-30" x="290.576172"/>
       <use xlink:href="#DejaVuSans-34" x="354.199219"/>
      </g>
     </g>
    </g>
    <g id="xtick_3">
     <g id="line2d_3">
      <g>
       <use xlink:href="#m56206838af" x="322.993476" y="368.3955" style="stroke: #000000; stroke-width: 0.8"/>
      </g>
     </g>
     <g id="text_3">
      <!-- 2020-07 -->
      <g transform="translate(302.10207 382.993937)scale(0.1 -0.1)">
       <defs>
        <path id="DejaVuSans-37" d="M 525 4666 
L 3525 4666 
L 3525 4397 
L 1831 0 
L 1172 0 
L 2766 4134 
L 525 4134 
L 525 4666 
z
" transform="scale(0.015625)"/>
       </defs>
       <use xlink:href="#DejaVuSans-32"/>
       <use xlink:href="#DejaVuSans-30" x="63.623047"/>
       <use xlink:href="#DejaVuSans-32" x="127.246094"/>
       <use xlink:href="#DejaVuSans-30" x="190.869141"/>
       <use xlink:href="#DejaVuSans-2d" x="254.492188"/>
       <use xlink:href="#DejaVuSans-30" x="290.576172"/>
       <use xlink:href="#DejaVuSans-37" x="354.199219"/>
      </g>
     </g>
    </g>
    <g id="xtick_4">
     <g id="line2d_4">
      <g>
       <use xlink:href="#m56206838af" x="446.483904" y="368.3955" style="stroke: #000000; stroke-width: 0.8"/>
      </g>
     </g>
     <g id="text_4">
      <!-- 2020-10 -->
      <g transform="translate(425.592498 382.993937)scale(0.1 -0.1)">
       <use xlink:href="#DejaVuSans-32"/>
       <use xlink:href="#DejaVuSans-30" x="63.623047"/>
       <use xlink:href="#DejaVuSans-32" x="127.246094"/>
       <use xlink:href="#DejaVuSans-30" x="190.869141"/>
       <use xlink:href="#DejaVuSans-2d" x="254.492188"/>
       <use xlink:href="#DejaVuSans-31" x="290.576172"/>
       <use xlink:href="#DejaVuSans-30" x="354.199219"/>
      </g>
     </g>
    </g>
    <g id="xtick_5">
     <g id="line2d_5">
      <g>
       <use xlink:href="#m56206838af" x="569.974332" y="368.3955" style="stroke: #000000; stroke-width: 0.8"/>
      </g>
     </g>
     <g id="text_5">
      <!-- 2021-01 -->
      <g transform="translate(549.082926 382.993937)scale(0.1 -0.1)">
       <use xlink:href="#DejaVuSans-32"/>
       <use xlink:href="#DejaVuSans-30" x="63.623047"/>
       <use xlink:href="#DejaVuSans-32" x="127.246094"/>
       <use xlink:href="#DejaVuSans-31" x="190.869141"/>
       <use xlink:href="#DejaVuSans-2d" x="254.492188"/>
       <use xlink:href="#DejaVuSans-30" x="290.576172"/>
       <use xlink:href="#DejaVuSans-31" x="354.199219"/>
      </g>
     </g>
    </g>
    <g id="xtick_6">
     <g id="line2d_6">
      <g>
       <use xlink:href="#m56206838af" x="690.780186" y="368.3955" style="stroke: #000000; stroke-width: 0.8"/>
      </g>
     </g>
     <g id="text_6">
      <!-- 2021-04 -->
      <g transform="translate(669.888779 382.993937)scale(0.1 -0.1)">
       <use xlink:href="#DejaVuSans-32"/>
       <use xlink:href="#DejaVuSans-30" x="63.623047"/>
       <use xlink:href="#DejaVuSans-32" x="127.246094"/>
       <use xlink:href="#DejaVuSans-31" x="190.869141"/>
       <use xlink:href="#DejaVuSans-2d" x="254.492188"/>
       <use xlink:href="#DejaVuSans-30" x="290.576172"/>
       <use xlink:href="#DejaVuSans-34" x="354.199219"/>
      </g>
     </g>
    </g>
    <g id="xtick_7">
     <g id="line2d_7">
      <g>
       <use xlink:href="#m56206838af" x="812.928326" y="368.3955" style="stroke: #000000; stroke-width: 0.8"/>
      </g>
     </g>
     <g id="text_7">
      <!-- 2021-07 -->
      <g transform="translate(792.03692 382.993937)scale(0.1 -0.1)">
       <use xlink:href="#DejaVuSans-32"/>
       <use xlink:href="#DejaVuSans-30" x="63.623047"/>
       <use xlink:href="#DejaVuSans-32" x="127.246094"/>
       <use xlink:href="#DejaVuSans-31" x="190.869141"/>
       <use xlink:href="#DejaVuSans-2d" x="254.492188"/>
       <use xlink:href="#DejaVuSans-30" x="290.576172"/>
       <use xlink:href="#DejaVuSans-37" x="354.199219"/>
      </g>
     </g>
    </g>
    <g id="xtick_8">
     <g id="line2d_8">
      <g>
       <use xlink:href="#m56206838af" x="936.418754" y="368.3955" style="stroke: #000000; stroke-width: 0.8"/>
      </g>
     </g>
     <g id="text_8">
      <!-- 2021-10 -->
      <g transform="translate(915.527348 382.993937)scale(0.1 -0.1)">
       <use xlink:href="#DejaVuSans-32"/>
       <use xlink:href="#DejaVuSans-30" x="63.623047"/>
       <use xlink:href="#DejaVuSans-32" x="127.246094"/>
       <use xlink:href="#DejaVuSans-31" x="190.869141"/>
       <use xlink:href="#DejaVuSans-2d" x="254.492188"/>
       <use xlink:href="#DejaVuSans-31" x="290.576172"/>
       <use xlink:href="#DejaVuSans-30" x="354.199219"/>
      </g>
     </g>
    </g>
    <g id="xtick_9">
     <g id="line2d_9">
      <g>
       <use xlink:href="#m56206838af" x="1059.909182" y="368.3955" style="stroke: #000000; stroke-width: 0.8"/>
      </g>
     </g>
     <g id="text_9">
      <!-- 2022-01 -->
      <g transform="translate(1039.017776 382.993937)scale(0.1 -0.1)">
       <use xlink:href="#DejaVuSans-32"/>
       <use xlink:href="#DejaVuSans-30" x="63.623047"/>
       <use xlink:href="#DejaVuSans-32" x="127.246094"/>
       <use xlink:href="#DejaVuSans-32" x="190.869141"/>
       <use xlink:href="#DejaVuSans-2d" x="254.492188"/>
       <use xlink:href="#DejaVuSans-30" x="290.576172"/>
       <use xlink:href="#DejaVuSans-31" x="354.199219"/>
      </g>
     </g>
    </g>
    <g id="xtick_10">
     <g id="line2d_10">
      <g>
       <use xlink:href="#m56206838af" x="1180.715036" y="368.3955" style="stroke: #000000; stroke-width: 0.8"/>
      </g>
     </g>
     <g id="text_10">
      <!-- 2022-04 -->
      <g transform="translate(1159.82363 382.993937)scale(0.1 -0.1)">
       <use xlink:href="#DejaVuSans-32"/>
       <use xlink:href="#DejaVuSans-30" x="63.623047"/>
       <use xlink:href="#DejaVuSans-32" x="127.246094"/>
       <use xlink:href="#DejaVuSans-32" x="190.869141"/>
       <use xlink:href="#DejaVuSans-2d" x="254.492188"/>
       <use xlink:href="#DejaVuSans-30" x="290.576172"/>
       <use xlink:href="#DejaVuSans-34" x="354.199219"/>
      </g>
     </g>
    </g>
    <g id="xtick_11">
     <g id="line2d_11">
      <g>
       <use xlink:href="#m56206838af" x="1302.863177" y="368.3955" style="stroke: #000000; stroke-width: 0.8"/>
      </g>
     </g>
     <g id="text_11">
      <!-- 2022-07 -->
      <g transform="translate(1281.97177 382.993937)scale(0.1 -0.1)">
       <use xlink:href="#DejaVuSans-32"/>
       <use xlink:href="#DejaVuSans-30" x="63.623047"/>
       <use xlink:href="#DejaVuSans-32" x="127.246094"/>
       <use xlink:href="#DejaVuSans-32" x="190.869141"/>
       <use xlink:href="#DejaVuSans-2d" x="254.492188"/>
       <use xlink:href="#DejaVuSans-30" x="290.576172"/>
       <use xlink:href="#DejaVuSans-37" x="354.199219"/>
      </g>
     </g>
    </g>
   </g>
   <g id="matplotlib.axis_2">
    <g id="ytick_1">
     <g id="line2d_12">
      <defs>
       <path id="mdb01cc434d" d="M 0 0 
L -3.5 0 
" style="stroke: #000000; stroke-width: 0.8"/>
      </defs>
      <g>
       <use xlink:href="#mdb01cc434d" x="46.0125" y="353.2755" style="stroke: #000000; stroke-width: 0.8"/>
      </g>
     </g>
     <g id="text_12">
      <!-- 0 -->
      <g transform="translate(32.65 357.074719)scale(0.1 -0.1)">
       <use xlink:href="#DejaVuSans-30"/>
      </g>
     </g>
    </g>
    <g id="ytick_2">
     <g id="line2d_13">
      <g>
       <use xlink:href="#mdb01cc434d" x="46.0125" y="306.281505" style="stroke: #000000; stroke-width: 0.8"/>
      </g>
     </g>
     <g id="text_13">
      <!-- 5000 -->
      <g transform="translate(13.5625 310.080724)scale(0.1 -0.1)">
       <defs>
        <path id="DejaVuSans-35" d="M 691 4666 
L 3169 4666 
L 3169 4134 
L 1269 4134 
L 1269 2991 
Q 1406 3038 1543 3061 
Q 1681 3084 1819 3084 
Q 2600 3084 3056 2656 
Q 3513 2228 3513 1497 
Q 3513 744 3044 326 
Q 2575 -91 1722 -91 
Q 1428 -91 1123 -41 
Q 819 9 494 109 
L 494 744 
Q 775 591 1075 516 
Q 1375 441 1709 441 
Q 2250 441 2565 725 
Q 2881 1009 2881 1497 
Q 2881 1984 2565 2268 
Q 2250 2553 1709 2553 
Q 1456 2553 1204 2497 
Q 953 2441 691 2322 
L 691 4666 
z
" transform="scale(0.015625)"/>
       </defs>
       <use xlink:href="#DejaVuSans-35"/>
       <use xlink:href="#DejaVuSans-30" x="63.623047"/>
       <use xlink:href="#DejaVuSans-30" x="127.246094"/>
       <use xlink:href="#DejaVuSans-30" x="190.869141"/>
      </g>
     </g>
    </g>
    <g id="ytick_3">
     <g id="line2d_14">
      <g>
       <use xlink:href="#mdb01cc434d" x="46.0125" y="259.28751" style="stroke: #000000; stroke-width: 0.8"/>
      </g>
     </g>
     <g id="text_14">
      <!-- 10000 -->
      <g transform="translate(7.2 263.086729)scale(0.1 -0.1)">
       <use xlink:href="#DejaVuSans-31"/>
       <use xlink:href="#DejaVuSans-30" x="63.623047"/>
       <use xlink:href="#DejaVuSans-30" x="127.246094"/>
       <use xlink:href="#DejaVuSans-30" x="190.869141"/>
       <use xlink:href="#DejaVuSans-30" x="254.492188"/>
      </g>
     </g>
    </g>
    <g id="ytick_4">
     <g id="line2d_15">
      <g>
       <use xlink:href="#mdb01cc434d" x="46.0125" y="212.293515" style="stroke: #000000; stroke-width: 0.8"/>
      </g>
     </g>
     <g id="text_15">
      <!-- 15000 -->
      <g transform="translate(7.2 216.092733)scale(0.1 -0.1)">
       <use xlink:href="#DejaVuSans-31"/>
       <use xlink:href="#DejaVuSans-35" x="63.623047"/>
       <use xlink:href="#DejaVuSans-30" x="127.246094"/>
       <use xlink:href="#DejaVuSans-30" x="190.869141"/>
       <use xlink:href="#DejaVuSans-30" x="254.492188"/>
      </g>
     </g>
    </g>
    <g id="ytick_5">
     <g id="line2d_16">
      <g>
       <use xlink:href="#mdb01cc434d" x="46.0125" y="165.29952" style="stroke: #000000; stroke-width: 0.8"/>
      </g>
     </g>
     <g id="text_16">
      <!-- 20000 -->
      <g transform="translate(7.2 169.098738)scale(0.1 -0.1)">
       <use xlink:href="#DejaVuSans-32"/>
       <use xlink:href="#DejaVuSans-30" x="63.623047"/>
       <use xlink:href="#DejaVuSans-30" x="127.246094"/>
       <use xlink:href="#DejaVuSans-30" x="190.869141"/>
       <use xlink:href="#DejaVuSans-30" x="254.492188"/>
      </g>
     </g>
    </g>
    <g id="ytick_6">
     <g id="line2d_17">
      <g>
       <use xlink:href="#mdb01cc434d" x="46.0125" y="118.305525" style="stroke: #000000; stroke-width: 0.8"/>
      </g>
     </g>
     <g id="text_17">
      <!-- 25000 -->
      <g transform="translate(7.2 122.104743)scale(0.1 -0.1)">
       <use xlink:href="#DejaVuSans-32"/>
       <use xlink:href="#DejaVuSans-35" x="63.623047"/>
       <use xlink:href="#DejaVuSans-30" x="127.246094"/>
       <use xlink:href="#DejaVuSans-30" x="190.869141"/>
       <use xlink:href="#DejaVuSans-30" x="254.492188"/>
      </g>
     </g>
    </g>
    <g id="ytick_7">
     <g id="line2d_18">
      <g>
       <use xlink:href="#mdb01cc434d" x="46.0125" y="71.311529" style="stroke: #000000; stroke-width: 0.8"/>
      </g>
     </g>
     <g id="text_18">
      <!-- 30000 -->
      <g transform="translate(7.2 75.110748)scale(0.1 -0.1)">
       <defs>
        <path id="DejaVuSans-33" d="M 2597 2516 
Q 3050 2419 3304 2112 
Q 3559 1806 3559 1356 
Q 3559 666 3084 287 
Q 2609 -91 1734 -91 
Q 1441 -91 1130 -33 
Q 819 25 488 141 
L 488 750 
Q 750 597 1062 519 
Q 1375 441 1716 441 
Q 2309 441 2620 675 
Q 2931 909 2931 1356 
Q 2931 1769 2642 2001 
Q 2353 2234 1838 2234 
L 1294 2234 
L 1294 2753 
L 1863 2753 
Q 2328 2753 2575 2939 
Q 2822 3125 2822 3475 
Q 2822 3834 2567 4026 
Q 2313 4219 1838 4219 
Q 1578 4219 1281 4162 
Q 984 4106 628 3988 
L 628 4550 
Q 988 4650 1302 4700 
Q 1616 4750 1894 4750 
Q 2613 4750 3031 4423 
Q 3450 4097 3450 3541 
Q 3450 3153 3228 2886 
Q 3006 2619 2597 2516 
z
" transform="scale(0.015625)"/>
       </defs>
       <use xlink:href="#DejaVuSans-33"/>
       <use xlink:href="#DejaVuSans-30" x="63.623047"/>
       <use xlink:href="#DejaVuSans-30" x="127.246094"/>
       <use xlink:href="#DejaVuSans-30" x="190.869141"/>
       <use xlink:href="#DejaVuSans-30" x="254.492188"/>
      </g>
     </g>
    </g>
   </g>
   <g id="line2d_19">
    <path d="M 106.885227 353.2755 
L 196.818474 353.20031 
L 199.503048 353.134518 
L 210.241346 353.04053 
L 231.717943 352.692774 
L 234.402517 352.598786 
L 242.456241 352.514197 
L 250.509964 352.26043 
L 253.194539 351.903275 
L 254.536826 351.856281 
L 255.879113 351.658907 
L 257.2214 351.311151 
L 259.905975 351.076181 
L 263.932837 349.91073 
L 265.275124 348.989648 
L 266.617411 348.26594 
L 270.644273 346.376782 
L 271.98656 345.643675 
L 273.328848 345.145539 
L 276.013422 343.284577 
L 277.355709 342.24131 
L 278.697997 340.869085 
L 280.040284 339.713033 
L 281.382571 338.387802 
L 284.067146 333.312451 
L 285.409433 332.353773 
L 286.75172 329.712711 
L 288.094007 328.801027 
L 289.436295 328.462671 
L 290.778582 325.793412 
L 292.120869 324.402389 
L 293.463157 321.939904 
L 294.805444 320.022549 
L 297.490018 317.597659 
L 298.832306 316.234833 
L 300.174593 316.234833 
L 301.51688 314.129502 
L 304.201455 311.535434 
L 305.543742 310.539161 
L 306.886029 309.21393 
L 308.228316 307.071004 
L 309.570604 306.469481 
L 310.912891 305.557797 
L 312.255178 304.298358 
L 313.597465 304.251364 
L 317.624327 301.177957 
L 318.966614 299.495572 
L 320.308902 299.495572 
L 321.651189 298.320722 
L 322.993476 297.512425 
L 324.335764 297.117676 
L 327.020338 295.933427 
L 328.362625 294.720982 
L 329.704913 294.119459 
L 332.389487 293.395751 
L 335.074062 292.31489 
L 336.416349 291.412605 
L 337.758636 291.083647 
L 339.100923 290.397535 
L 340.443211 290.049779 
L 341.785498 290.049779 
L 343.127785 289.072304 
L 344.470072 288.404989 
L 345.81236 287.972644 
L 347.154647 287.718877 
L 348.496934 286.985771 
L 349.839221 286.891783 
L 353.866083 285.914307 
L 355.208371 285.632343 
L 356.550658 285.040219 
L 357.892945 284.692464 
L 360.57752 284.288315 
L 361.919807 283.996952 
L 363.262094 283.931161 
L 364.604381 283.611602 
L 365.946669 283.498816 
L 367.288956 283.085269 
L 368.631243 283.010079 
L 369.97353 282.681121 
L 379.369541 281.384086 
L 380.711828 280.500599 
L 383.396403 279.87088 
L 384.73869 279.673505 
L 386.080977 279.222363 
L 388.765552 278.827613 
L 390.107839 278.564447 
L 391.450127 278.113304 
L 392.792414 277.934727 
L 396.819276 277.05124 
L 399.50385 276.938454 
L 400.846137 276.665889 
L 403.530712 276.449717 
L 404.872999 276.120759 
L 406.215286 275.979777 
L 407.557574 275.979777 
L 408.899861 275.660218 
L 410.242148 275.660218 
L 411.584435 275.021099 
L 412.926723 275.021099 
L 414.26901 274.70154 
L 416.953584 274.682743 
L 418.295872 274.551159 
L 419.638159 274.053023 
L 420.980446 273.789857 
L 422.322734 273.789857 
L 425.007308 273.4515 
L 426.349595 273.395107 
L 429.03417 272.859376 
L 430.376457 272.859376 
L 431.718744 272.445828 
L 433.061032 272.445828 
L 434.403319 272.220257 
L 435.745606 272.220257 
L 437.087893 272.013484 
L 438.430181 272.013484 
L 439.772468 271.656329 
L 441.114755 271.656329 
L 442.457042 271.289776 
L 443.79933 271.129997 
L 445.141617 271.129997 
L 446.483904 270.885628 
L 447.826191 270.885628 
L 449.168479 270.641259 
L 450.510766 270.641259 
L 451.853053 270.387491 
L 454.537628 270.387491 
L 457.222202 270.058534 
L 459.906777 270.002141 
L 461.249064 269.795367 
L 463.933639 269.748373 
L 465.275926 269.550998 
L 466.618213 269.550998 
L 467.9605 269.391219 
L 471.987362 269.391219 
L 473.329649 268.91188 
L 476.014224 268.883684 
L 478.698798 268.545327 
L 481.383373 268.44194 
L 482.72566 268.44194 
L 484.067948 268.253964 
L 486.752522 268.178774 
L 492.121671 268.178774 
L 493.463958 267.746429 
L 498.833107 267.492661 
L 501.517682 267.398673 
L 502.859969 267.257691 
L 504.202256 267.257691 
L 505.544544 267.107311 
L 508.229118 267.003924 
L 510.913693 266.891138 
L 512.25598 266.891138 
L 513.598267 266.731359 
L 520.309704 266.533984 
L 522.994278 266.280216 
L 532.390289 265.744485 
L 535.074863 265.208753 
L 536.417151 265.208753 
L 537.759438 264.936188 
L 539.101725 264.936188 
L 540.444012 264.60723 
L 541.7863 264.60723 
L 544.470874 264.071499 
L 545.813162 263.90232 
L 547.155449 263.375987 
L 548.497736 263.075226 
L 549.840023 263.075226 
L 552.524598 262.595887 
L 553.866885 262.351518 
L 555.209172 262.351518 
L 556.55146 261.439835 
L 559.236034 260.734925 
L 563.262896 260.734925 
L 564.605183 259.682259 
L 565.94747 259.682259 
L 567.289758 259.296909 
L 568.632045 259.296909 
L 569.974332 259.146528 
L 571.316619 259.146528 
L 574.001194 258.093862 
L 578.028056 258.093862 
L 579.370343 257.379554 
L 580.71263 257.022399 
L 582.054918 257.022399 
L 583.397205 256.731036 
L 584.739492 256.731036 
L 586.081779 255.659573 
L 587.424067 255.387008 
L 588.766354 253.939593 
L 590.108641 253.319272 
L 591.450928 251.947048 
L 592.793216 251.947048 
L 594.135503 251.279733 
L 596.820077 250.236466 
L 598.162365 250.236466 
L 600.846939 248.95823 
L 602.189226 248.95823 
L 603.531514 247.200654 
L 606.216088 247.200654 
L 607.558376 246.110394 
L 608.900663 245.565263 
L 610.24295 244.879151 
L 611.585237 244.879151 
L 612.927525 244.343419 
L 614.269812 243.572718 
L 615.612099 243.384742 
L 616.954386 243.384742 
L 618.296674 242.764421 
L 619.638961 242.313279 
L 620.981248 242.313279 
L 622.323535 241.354601 
L 623.665823 240.781275 
L 626.350397 240.339531 
L 627.692684 240.339531 
L 629.034972 239.145884 
L 630.377259 239.145884 
L 631.719546 238.685342 
L 633.061833 238.553759 
L 635.746408 238.553759 
L 637.088695 238.102617 
L 638.430983 237.914641 
L 639.77327 237.585683 
L 641.115557 237.585683 
L 642.457844 237.181535 
L 645.142419 237.181535 
L 646.484706 236.448428 
L 647.826993 236.448428 
L 649.169281 236.27925 
L 651.853855 235.49915 
L 655.880717 235.452156 
L 659.907579 235.452156 
L 661.249866 234.907025 
L 662.592153 234.907025 
L 663.93444 234.549871 
L 667.961302 234.549871 
L 669.30359 234.249109 
L 670.645877 234.202115 
L 671.988164 234.042336 
L 674.672739 233.910752 
L 676.015026 233.779169 
L 678.6996 233.703979 
L 681.384175 233.609991 
L 685.411037 233.572396 
L 686.753324 233.572396 
L 688.095611 233.365622 
L 690.780186 233.328027 
L 692.122473 233.083658 
L 696.149335 233.083658 
L 697.491622 232.942676 
L 700.176197 232.942676 
L 704.203058 232.594921 
L 705.545346 232.594921 
L 706.887633 232.453939 
L 709.572207 232.435141 
L 713.599069 231.861814 
L 717.625931 231.861814 
L 718.968218 231.617446 
L 721.652793 231.617446 
L 722.99508 231.485862 
L 724.337367 231.485862 
L 725.679654 231.100512 
L 727.021942 230.931333 
L 728.364229 230.931333 
L 729.706516 230.56478 
L 731.048803 230.56478 
L 732.391091 230.207626 
L 733.733378 230.207626 
L 735.075665 229.822275 
L 737.76024 229.54971 
L 743.129389 229.54971 
L 744.471676 229.408728 
L 745.813963 228.957585 
L 747.156251 228.694419 
L 748.498538 228.572235 
L 749.840825 227.773337 
L 751.183112 227.397385 
L 755.209974 225.470631 
L 756.552261 225.470631 
L 757.894549 225.226262 
L 759.236836 225.226262 
L 760.579123 224.182996 
L 761.92141 222.575801 
L 763.263698 222.575801 
L 764.605985 221.344558 
L 767.29056 221.344558 
L 768.632847 220.489267 
L 769.975134 219.267424 
L 771.317421 218.393335 
L 772.659709 216.381992 
L 774.001996 215.009768 
L 775.344283 212.942032 
L 776.68657 211.748384 
L 778.028858 211.137462 
L 780.713432 208.205037 
L 782.055719 203.88159 
L 783.398007 202.885317 
L 784.740294 202.885317 
L 786.082581 202.152211 
L 788.767156 202.152211 
L 790.109443 197.621989 
L 791.45173 196.672711 
L 792.794017 196.672711 
L 794.136305 194.821147 
L 798.163167 194.821147 
L 799.505454 192.92259 
L 800.847741 192.92259 
L 802.190028 187.828441 
L 803.532316 187.828441 
L 804.874603 184.444873 
L 807.559177 184.444873 
L 808.901465 182.104572 
L 810.243752 180.892127 
L 811.586039 178.814993 
L 812.928326 177.912708 
L 816.955188 177.912708 
L 818.297475 175.149461 
L 819.639763 173.692647 
L 820.98205 173.081725 
L 822.324337 173.081725 
L 823.666624 172.630583 
L 829.035774 172.630583 
L 830.378061 171.183168 
L 835.74721 171.183168 
L 837.089497 169.557176 
L 838.431784 169.406795 
L 839.774072 169.406795 
L 841.116359 168.805272 
L 842.458646 167.536434 
L 845.143221 167.536434 
L 846.485508 167.0195 
L 847.827795 166.070221 
L 850.51237 164.575812 
L 854.539231 164.575812 
L 855.881519 163.823908 
L 857.223806 162.414088 
L 858.566093 162.414088 
L 859.908381 162.235511 
L 863.935242 162.235511 
L 865.27753 161.643387 
L 867.962104 161.643387 
L 869.304391 160.534329 
L 873.331253 160.534329 
L 874.67354 160.073787 
L 877.358115 160.073787 
L 878.700402 158.823747 
L 882.727264 158.823747 
L 885.411838 158.288016 
L 886.754126 158.288016 
L 888.096413 157.47032 
L 892.123275 157.47032 
L 893.465562 157.31054 
L 894.807849 156.878196 
L 897.492424 156.45525 
L 898.834711 156.116893 
L 901.519286 156.116893 
L 902.861573 155.252204 
L 905.546147 154.73527 
L 906.888435 154.73527 
L 908.230722 154.378115 
L 910.915296 154.378115 
L 912.257584 154.227734 
L 913.599871 153.353646 
L 914.942158 152.911903 
L 916.284445 152.911903 
L 917.626733 152.799117 
L 920.311307 152.799117 
L 921.653595 152.441963 
L 922.995882 151.849838 
L 924.338169 151.849838 
L 928.365031 151.332904 
L 929.707318 151.332904 
L 931.049605 150.825369 
L 932.391893 149.819698 
L 935.076467 149.819698 
L 936.418754 147.291421 
L 939.103329 147.291421 
L 940.445616 146.765088 
L 941.787903 145.327072 
L 943.130191 143.174747 
L 945.814765 143.174747 
L 947.157052 142.91158 
L 948.49934 141.558153 
L 949.841627 140.731059 
L 952.526202 139.6314 
L 953.868489 138.729115 
L 955.210776 138.729115 
L 956.553063 137.732842 
L 957.895351 137.732842 
L 959.237638 136.708373 
L 960.579925 134.057912 
L 961.922212 133.28721 
L 967.291361 133.28721 
L 968.633649 131.285266 
L 969.975936 131.285266 
L 971.318223 129.837851 
L 972.66051 129.367911 
L 974.002798 129.367911 
L 975.345085 128.080276 
L 978.029659 128.080276 
L 979.371947 127.666728 
L 980.714234 127.666728 
L 982.056521 127.403562 
L 983.398809 127.018211 
L 986.083383 127.018211 
L 987.42567 125.514403 
L 991.452532 125.514403 
L 992.794819 122.600776 
L 995.479394 122.600776 
L 996.821681 121.736086 
L 998.163968 121.031176 
L 1000.848543 121.031176 
L 1002.19083 120.486046 
L 1004.875405 120.486046 
L 1006.217692 118.775465 
L 1007.559979 118.775465 
L 1008.902266 118.549893 
L 1010.244554 118.549893 
L 1011.586841 118.051757 
L 1014.271416 118.051757 
L 1015.613703 116.660735 
L 1016.95599 116.660735 
L 1018.298277 115.006546 
L 1019.640565 115.006546 
L 1020.982852 113.953881 
L 1022.325139 113.512137 
L 1023.667426 113.512137 
L 1025.009714 112.309091 
L 1026.352001 112.309091 
L 1029.036575 111.312818 
L 1033.063437 111.312818 
L 1034.405724 111.181235 
L 1035.748012 110.175563 
L 1037.090299 110.04398 
L 1038.432586 109.780814 
L 1039.774873 109.780814 
L 1041.117161 109.658629 
L 1045.144023 109.630433 
L 1046.48631 109.461255 
L 1051.855459 109.376666 
L 1053.197746 109.151094 
L 1061.25147 109.047708 
L 1062.593757 108.380393 
L 1063.936044 106.904781 
L 1066.620619 106.049491 
L 1069.305193 106.049491 
L 1070.64748 102.759911 
L 1071.989768 101.321895 
L 1074.674342 101.321895 
L 1076.016629 98.737225 
L 1080.043491 98.737225 
L 1081.385779 91.81031 
L 1082.728066 91.81031 
L 1084.070353 89.827164 
L 1085.41264 89.009468 
L 1086.754928 87.759428 
L 1088.097215 86.80075 
L 1089.439502 85.682293 
L 1090.781789 84.836401 
L 1093.466364 84.836401 
L 1094.808651 81.885178 
L 1098.835513 81.885178 
L 1100.1778 78.670789 
L 1101.520087 77.674516 
L 1104.204662 77.674516 
L 1105.546949 75.136841 
L 1106.889236 75.136841 
L 1109.573811 72.890528 
L 1110.916098 72.448784 
L 1113.600673 72.185618 
L 1114.94296 71.884856 
L 1116.285247 71.884856 
L 1117.627535 71.602892 
L 1118.969822 71.471309 
L 1121.654396 70.174275 
L 1122.996684 69.788924 
L 1125.681258 69.788924 
L 1127.023545 69.187401 
L 1129.70812 68.614074 
L 1131.050407 68.501289 
L 1132.392694 68.153533 
L 1139.104131 68.09714 
L 1141.788705 67.993753 
L 1143.130993 67.721188 
L 1148.500142 67.55201 
L 1149.842429 67.270046 
L 1153.869291 67.119665 
L 1155.211578 66.978683 
L 1156.553865 66.978683 
L 1159.23844 66.818904 
L 1164.607589 66.818904 
L 1165.949876 66.527541 
L 1176.688174 66.339565 
L 1178.030461 66.189184 
L 1183.39961 66.151589 
L 1184.741898 65.98241 
L 1190.111047 65.879024 
L 1192.795621 65.813232 
L 1203.533919 65.728643 
L 1204.876207 65.531268 
L 1207.560781 65.531268 
L 1208.903068 65.296298 
L 1212.92993 65.296298 
L 1214.272217 65.155316 
L 1216.956792 65.155316 
L 1218.299079 64.826358 
L 1223.668228 64.760567 
L 1226.352803 64.704174 
L 1239.775675 64.610186 
L 1241.117963 64.4974 
L 1245.144824 64.412811 
L 1246.487112 64.300025 
L 1250.513973 64.300025 
L 1251.856261 63.971067 
L 1257.22541 63.971067 
L 1258.567697 63.79249 
L 1259.909984 63.79249 
L 1261.252271 63.623312 
L 1262.594559 63.219164 
L 1266.621421 62.927801 
L 1269.305995 62.927801 
L 1270.648282 62.476658 
L 1271.99057 62.260486 
L 1273.332857 62.260486 
L 1274.675144 61.875135 
L 1278.702006 61.875135 
L 1281.38658 61.405195 
L 1286.755729 61.405195 
L 1288.098017 60.831869 
L 1289.440304 60.831869 
L 1290.782591 59.788602 
L 1292.124878 59.788602 
L 1293.467166 59.581828 
L 1294.809453 59.083692 
L 1296.15174 59.083692 
L 1297.494028 58.059223 
L 1298.836315 57.495295 
L 1300.178602 56.743391 
L 1301.520889 56.743391 
L 1302.863177 56.245255 
L 1305.547751 56.245255 
L 1306.890038 55.549744 
L 1306.890038 55.549744 
" clip-path="url(#pfd3eea26e2)" style="fill: none; stroke: #0000ff; stroke-width: 1.5; stroke-linecap: square"/>
   </g>
   <g id="line2d_20">
    <path d="M 1067.962906 105.621056 
L 1069.305193 105.722699 
L 1070.64748 102.482801 
L 1071.989768 100.747152 
L 1073.332055 100.672185 
L 1074.674342 100.382102 
L 1076.016629 98.101065 
L 1078.701204 97.834407 
L 1080.043491 97.554121 
L 1081.385779 91.703815 
L 1082.728066 90.844689 
L 1084.070353 88.976374 
L 1085.41264 87.39159 
L 1086.754928 86.647768 
L 1088.097215 85.363904 
L 1089.439502 83.623849 
L 1093.466364 83.664036 
L 1094.808651 81.412206 
L 1096.150938 81.212186 
L 1097.493226 81.145547 
L 1098.835513 80.275794 
L 1100.1778 78.333721 
L 1101.520087 77.054667 
L 1102.862375 76.644507 
L 1104.204662 76.823674 
L 1105.546949 74.706612 
L 1106.889236 74.338271 
L 1108.231524 72.666247 
L 1109.573811 72.021621 
L 1110.916098 71.777239 
L 1112.258386 71.360541 
L 1113.600673 71.361718 
L 1114.94296 71.489953 
L 1116.285247 71.339409 
L 1117.627535 70.546938 
L 1118.969822 71.118 
L 1120.312109 70.685948 
L 1121.654396 69.820601 
L 1122.996684 69.503317 
L 1124.338971 69.650556 
L 1125.681258 69.406427 
L 1127.023545 68.41341 
L 1128.365833 68.56678 
L 1129.70812 68.425361 
L 1131.050407 68.10692 
L 1132.392694 67.909917 
L 1133.734982 68.085248 
L 1135.077269 67.847537 
L 1136.419556 67.477123 
L 1137.761843 67.884303 
L 1139.104131 67.992802 
L 1140.446418 67.825465 
L 1141.788705 67.932847 
L 1143.130993 67.85067 
L 1145.815567 67.324961 
L 1147.157854 67.567811 
L 1148.500142 67.503254 
L 1149.842429 67.146181 
L 1152.527003 67.236049 
L 1155.211578 66.67164 
L 1156.553865 66.855101 
L 1159.23844 66.663653 
L 1161.923014 66.831263 
L 1168.63445 66.410591 
L 1172.661312 66.437679 
L 1174.0036 66.302033 
L 1176.688174 66.284427 
L 1178.030461 66.12834 
L 1191.453334 65.752121 
L 1192.795621 65.630721 
L 1195.480196 65.7231 
L 1200.849345 65.68882 
L 1202.191632 65.59693 
L 1203.533919 65.670692 
L 1204.876207 65.493255 
L 1207.560781 65.478892 
L 1208.903068 65.270855 
L 1216.956792 65.064549 
L 1218.299079 64.80307 
L 1226.352803 64.570329 
L 1229.037377 64.648331 
L 1233.064239 64.614043 
L 1238.433388 64.577416 
L 1250.513973 64.215347 
L 1251.856261 63.93735 
L 1255.883122 63.872138 
L 1257.22541 63.891004 
L 1258.567697 63.709419 
L 1261.252271 63.570292 
L 1262.594559 63.156646 
L 1265.279133 62.830182 
L 1267.963708 62.750192 
L 1269.305995 62.731561 
L 1270.648282 62.355474 
L 1271.99057 62.139852 
L 1273.332857 62.107102 
L 1274.675144 61.761664 
L 1280.044293 61.424839 
L 1282.728868 61.226908 
L 1286.755729 61.305194 
L 1288.098017 60.722498 
L 1289.440304 60.662874 
L 1290.782591 59.787645 
L 1292.124878 59.515284 
L 1293.467166 59.428704 
L 1294.809453 58.834406 
L 1296.15174 58.753365 
L 1298.836315 57.060155 
L 1300.178602 56.500477 
L 1301.520889 56.26609 
L 1302.863177 55.841892 
L 1305.547751 55.760941 
L 1306.890038 55.176804 
L 1306.890038 55.176804 
" clip-path="url(#pfd3eea26e2)" style="fill: none; stroke: #ffa500; stroke-width: 1.5; stroke-linecap: square"/>
   </g>
   <g id="line2d_21">
    <path d="M 1306.890038 55.176804 
L 1308.232326 54.732286 
L 1309.574613 54.524411 
L 1310.9169 54.166147 
L 1312.259187 53.887255 
L 1313.601475 53.649068 
L 1314.943762 53.214481 
L 1316.286049 52.852133 
L 1317.628336 52.41491 
L 1318.970624 52.16414 
L 1320.312911 51.822845 
L 1321.655198 51.543362 
L 1322.997485 51.298075 
L 1324.339773 50.8755 
" clip-path="url(#pfd3eea26e2)" style="fill: none; stroke: #ff0000; stroke-width: 1.5; stroke-linecap: square"/>
   </g>
   <g id="patch_3">
    <path d="M 46.0125 368.3955 
L 46.0125 35.7555 
" style="fill: none; stroke: #000000; stroke-width: 0.8; stroke-linejoin: miter; stroke-linecap: square"/>
   </g>
   <g id="patch_4">
    <path d="M 1385.2125 368.3955 
L 1385.2125 35.7555 
" style="fill: none; stroke: #000000; stroke-width: 0.8; stroke-linejoin: miter; stroke-linecap: square"/>
   </g>
   <g id="patch_5">
    <path d="M 46.0125 368.3955 
L 1385.2125 368.3955 
" style="fill: none; stroke: #000000; stroke-width: 0.8; stroke-linejoin: miter; stroke-linecap: square"/>
   </g>
   <g id="patch_6">
    <path d="M 46.0125 35.7555 
L 1385.2125 35.7555 
" style="fill: none; stroke: #000000; stroke-width: 0.8; stroke-linejoin: miter; stroke-linecap: square"/>
   </g>
   <g id="text_19">
    <!-- Accumulative Confirmed Cases Forecasting - Haiti -->
    <g transform="translate(565.76625 16.318125)scale(0.12 -0.12)">
     <defs>
      <path id="DejaVuSans-41" d="M 2188 4044 
L 1331 1722 
L 3047 1722 
L 2188 4044 
z
M 1831 4666 
L 2547 4666 
L 4325 0 
L 3669 0 
L 3244 1197 
L 1141 1197 
L 716 0 
L 50 0 
L 1831 4666 
z
" transform="scale(0.015625)"/>
      <path id="DejaVuSans-63" d="M 3122 3366 
L 3122 2828 
Q 2878 2963 2633 3030 
Q 2388 3097 2138 3097 
Q 1578 3097 1268 2742 
Q 959 2388 959 1747 
Q 959 1106 1268 751 
Q 1578 397 2138 397 
Q 2388 397 2633 464 
Q 2878 531 3122 666 
L 3122 134 
Q 2881 22 2623 -34 
Q 2366 -91 2075 -91 
Q 1284 -91 818 406 
Q 353 903 353 1747 
Q 353 2603 823 3093 
Q 1294 3584 2113 3584 
Q 2378 3584 2631 3529 
Q 2884 3475 3122 3366 
z
" transform="scale(0.015625)"/>
      <path id="DejaVuSans-75" d="M 544 1381 
L 544 3500 
L 1119 3500 
L 1119 1403 
Q 1119 906 1312 657 
Q 1506 409 1894 409 
Q 2359 409 2629 706 
Q 2900 1003 2900 1516 
L 2900 3500 
L 3475 3500 
L 3475 0 
L 2900 0 
L 2900 538 
Q 2691 219 2414 64 
Q 2138 -91 1772 -91 
Q 1169 -91 856 284 
Q 544 659 544 1381 
z
M 1991 3584 
L 1991 3584 
z
" transform="scale(0.015625)"/>
      <path id="DejaVuSans-6d" d="M 3328 2828 
Q 3544 3216 3844 3400 
Q 4144 3584 4550 3584 
Q 5097 3584 5394 3201 
Q 5691 2819 5691 2113 
L 5691 0 
L 5113 0 
L 5113 2094 
Q 5113 2597 4934 2840 
Q 4756 3084 4391 3084 
Q 3944 3084 3684 2787 
Q 3425 2491 3425 1978 
L 3425 0 
L 2847 0 
L 2847 2094 
Q 2847 2600 2669 2842 
Q 2491 3084 2119 3084 
Q 1678 3084 1418 2786 
Q 1159 2488 1159 1978 
L 1159 0 
L 581 0 
L 581 3500 
L 1159 3500 
L 1159 2956 
Q 1356 3278 1631 3431 
Q 1906 3584 2284 3584 
Q 2666 3584 2933 3390 
Q 3200 3197 3328 2828 
z
" transform="scale(0.015625)"/>
      <path id="DejaVuSans-6c" d="M 603 4863 
L 1178 4863 
L 1178 0 
L 603 0 
L 603 4863 
z
" transform="scale(0.015625)"/>
      <path id="DejaVuSans-61" d="M 2194 1759 
Q 1497 1759 1228 1600 
Q 959 1441 959 1056 
Q 959 750 1161 570 
Q 1363 391 1709 391 
Q 2188 391 2477 730 
Q 2766 1069 2766 1631 
L 2766 1759 
L 2194 1759 
z
M 3341 1997 
L 3341 0 
L 2766 0 
L 2766 531 
Q 2569 213 2275 61 
Q 1981 -91 1556 -91 
Q 1019 -91 701 211 
Q 384 513 384 1019 
Q 384 1609 779 1909 
Q 1175 2209 1959 2209 
L 2766 2209 
L 2766 2266 
Q 2766 2663 2505 2880 
Q 2244 3097 1772 3097 
Q 1472 3097 1187 3025 
Q 903 2953 641 2809 
L 641 3341 
Q 956 3463 1253 3523 
Q 1550 3584 1831 3584 
Q 2591 3584 2966 3190 
Q 3341 2797 3341 1997 
z
" transform="scale(0.015625)"/>
      <path id="DejaVuSans-74" d="M 1172 4494 
L 1172 3500 
L 2356 3500 
L 2356 3053 
L 1172 3053 
L 1172 1153 
Q 1172 725 1289 603 
Q 1406 481 1766 481 
L 2356 481 
L 2356 0 
L 1766 0 
Q 1100 0 847 248 
Q 594 497 594 1153 
L 594 3053 
L 172 3053 
L 172 3500 
L 594 3500 
L 594 4494 
L 1172 4494 
z
" transform="scale(0.015625)"/>
      <path id="DejaVuSans-69" d="M 603 3500 
L 1178 3500 
L 1178 0 
L 603 0 
L 603 3500 
z
M 603 4863 
L 1178 4863 
L 1178 4134 
L 603 4134 
L 603 4863 
z
" transform="scale(0.015625)"/>
      <path id="DejaVuSans-76" d="M 191 3500 
L 800 3500 
L 1894 563 
L 2988 3500 
L 3597 3500 
L 2284 0 
L 1503 0 
L 191 3500 
z
" transform="scale(0.015625)"/>
      <path id="DejaVuSans-65" d="M 3597 1894 
L 3597 1613 
L 953 1613 
Q 991 1019 1311 708 
Q 1631 397 2203 397 
Q 2534 397 2845 478 
Q 3156 559 3463 722 
L 3463 178 
Q 3153 47 2828 -22 
Q 2503 -91 2169 -91 
Q 1331 -91 842 396 
Q 353 884 353 1716 
Q 353 2575 817 3079 
Q 1281 3584 2069 3584 
Q 2775 3584 3186 3129 
Q 3597 2675 3597 1894 
z
M 3022 2063 
Q 3016 2534 2758 2815 
Q 2500 3097 2075 3097 
Q 1594 3097 1305 2825 
Q 1016 2553 972 2059 
L 3022 2063 
z
" transform="scale(0.015625)"/>
      <path id="DejaVuSans-20" transform="scale(0.015625)"/>
      <path id="DejaVuSans-43" d="M 4122 4306 
L 4122 3641 
Q 3803 3938 3442 4084 
Q 3081 4231 2675 4231 
Q 1875 4231 1450 3742 
Q 1025 3253 1025 2328 
Q 1025 1406 1450 917 
Q 1875 428 2675 428 
Q 3081 428 3442 575 
Q 3803 722 4122 1019 
L 4122 359 
Q 3791 134 3420 21 
Q 3050 -91 2638 -91 
Q 1578 -91 968 557 
Q 359 1206 359 2328 
Q 359 3453 968 4101 
Q 1578 4750 2638 4750 
Q 3056 4750 3426 4639 
Q 3797 4528 4122 4306 
z
" transform="scale(0.015625)"/>
      <path id="DejaVuSans-6f" d="M 1959 3097 
Q 1497 3097 1228 2736 
Q 959 2375 959 1747 
Q 959 1119 1226 758 
Q 1494 397 1959 397 
Q 2419 397 2687 759 
Q 2956 1122 2956 1747 
Q 2956 2369 2687 2733 
Q 2419 3097 1959 3097 
z
M 1959 3584 
Q 2709 3584 3137 3096 
Q 3566 2609 3566 1747 
Q 3566 888 3137 398 
Q 2709 -91 1959 -91 
Q 1206 -91 779 398 
Q 353 888 353 1747 
Q 353 2609 779 3096 
Q 1206 3584 1959 3584 
z
" transform="scale(0.015625)"/>
      <path id="DejaVuSans-6e" d="M 3513 2113 
L 3513 0 
L 2938 0 
L 2938 2094 
Q 2938 2591 2744 2837 
Q 2550 3084 2163 3084 
Q 1697 3084 1428 2787 
Q 1159 2491 1159 1978 
L 1159 0 
L 581 0 
L 581 3500 
L 1159 3500 
L 1159 2956 
Q 1366 3272 1645 3428 
Q 1925 3584 2291 3584 
Q 2894 3584 3203 3211 
Q 3513 2838 3513 2113 
z
" transform="scale(0.015625)"/>
      <path id="DejaVuSans-66" d="M 2375 4863 
L 2375 4384 
L 1825 4384 
Q 1516 4384 1395 4259 
Q 1275 4134 1275 3809 
L 1275 3500 
L 2222 3500 
L 2222 3053 
L 1275 3053 
L 1275 0 
L 697 0 
L 697 3053 
L 147 3053 
L 147 3500 
L 697 3500 
L 697 3744 
Q 697 4328 969 4595 
Q 1241 4863 1831 4863 
L 2375 4863 
z
" transform="scale(0.015625)"/>
      <path id="DejaVuSans-72" d="M 2631 2963 
Q 2534 3019 2420 3045 
Q 2306 3072 2169 3072 
Q 1681 3072 1420 2755 
Q 1159 2438 1159 1844 
L 1159 0 
L 581 0 
L 581 3500 
L 1159 3500 
L 1159 2956 
Q 1341 3275 1631 3429 
Q 1922 3584 2338 3584 
Q 2397 3584 2469 3576 
Q 2541 3569 2628 3553 
L 2631 2963 
z
" transform="scale(0.015625)"/>
      <path id="DejaVuSans-64" d="M 2906 2969 
L 2906 4863 
L 3481 4863 
L 3481 0 
L 2906 0 
L 2906 525 
Q 2725 213 2448 61 
Q 2172 -91 1784 -91 
Q 1150 -91 751 415 
Q 353 922 353 1747 
Q 353 2572 751 3078 
Q 1150 3584 1784 3584 
Q 2172 3584 2448 3432 
Q 2725 3281 2906 2969 
z
M 947 1747 
Q 947 1113 1208 752 
Q 1469 391 1925 391 
Q 2381 391 2643 752 
Q 2906 1113 2906 1747 
Q 2906 2381 2643 2742 
Q 2381 3103 1925 3103 
Q 1469 3103 1208 2742 
Q 947 2381 947 1747 
z
" transform="scale(0.015625)"/>
      <path id="DejaVuSans-73" d="M 2834 3397 
L 2834 2853 
Q 2591 2978 2328 3040 
Q 2066 3103 1784 3103 
Q 1356 3103 1142 2972 
Q 928 2841 928 2578 
Q 928 2378 1081 2264 
Q 1234 2150 1697 2047 
L 1894 2003 
Q 2506 1872 2764 1633 
Q 3022 1394 3022 966 
Q 3022 478 2636 193 
Q 2250 -91 1575 -91 
Q 1294 -91 989 -36 
Q 684 19 347 128 
L 347 722 
Q 666 556 975 473 
Q 1284 391 1588 391 
Q 1994 391 2212 530 
Q 2431 669 2431 922 
Q 2431 1156 2273 1281 
Q 2116 1406 1581 1522 
L 1381 1569 
Q 847 1681 609 1914 
Q 372 2147 372 2553 
Q 372 3047 722 3315 
Q 1072 3584 1716 3584 
Q 2034 3584 2315 3537 
Q 2597 3491 2834 3397 
z
" transform="scale(0.015625)"/>
      <path id="DejaVuSans-46" d="M 628 4666 
L 3309 4666 
L 3309 4134 
L 1259 4134 
L 1259 2759 
L 3109 2759 
L 3109 2228 
L 1259 2228 
L 1259 0 
L 628 0 
L 628 4666 
z
" transform="scale(0.015625)"/>
      <path id="DejaVuSans-67" d="M 2906 1791 
Q 2906 2416 2648 2759 
Q 2391 3103 1925 3103 
Q 1463 3103 1205 2759 
Q 947 2416 947 1791 
Q 947 1169 1205 825 
Q 1463 481 1925 481 
Q 2391 481 2648 825 
Q 2906 1169 2906 1791 
z
M 3481 434 
Q 3481 -459 3084 -895 
Q 2688 -1331 1869 -1331 
Q 1566 -1331 1297 -1286 
Q 1028 -1241 775 -1147 
L 775 -588 
Q 1028 -725 1275 -790 
Q 1522 -856 1778 -856 
Q 2344 -856 2625 -561 
Q 2906 -266 2906 331 
L 2906 616 
Q 2728 306 2450 153 
Q 2172 0 1784 0 
Q 1141 0 747 490 
Q 353 981 353 1791 
Q 353 2603 747 3093 
Q 1141 3584 1784 3584 
Q 2172 3584 2450 3431 
Q 2728 3278 2906 2969 
L 2906 3500 
L 3481 3500 
L 3481 434 
z
" transform="scale(0.015625)"/>
      <path id="DejaVuSans-48" d="M 628 4666 
L 1259 4666 
L 1259 2753 
L 3553 2753 
L 3553 4666 
L 4184 4666 
L 4184 0 
L 3553 0 
L 3553 2222 
L 1259 2222 
L 1259 0 
L 628 0 
L 628 4666 
z
" transform="scale(0.015625)"/>
     </defs>
     <use xlink:href="#DejaVuSans-41"/>
     <use xlink:href="#DejaVuSans-63" x="66.658203"/>
     <use xlink:href="#DejaVuSans-63" x="121.638672"/>
     <use xlink:href="#DejaVuSans-75" x="176.619141"/>
     <use xlink:href="#DejaVuSans-6d" x="239.998047"/>
     <use xlink:href="#DejaVuSans-75" x="337.410156"/>
     <use xlink:href="#DejaVuSans-6c" x="400.789062"/>
     <use xlink:href="#DejaVuSans-61" x="428.572266"/>
     <use xlink:href="#DejaVuSans-74" x="489.851562"/>
     <use xlink:href="#DejaVuSans-69" x="529.060547"/>
     <use xlink:href="#DejaVuSans-76" x="556.84375"/>
     <use xlink:href="#DejaVuSans-65" x="616.023438"/>
     <use xlink:href="#DejaVuSans-20" x="677.546875"/>
     <use xlink:href="#DejaVuSans-43" x="709.333984"/>
     <use xlink:href="#DejaVuSans-6f" x="779.158203"/>
     <use xlink:href="#DejaVuSans-6e" x="840.339844"/>
     <use xlink:href="#DejaVuSans-66" x="903.71875"/>
     <use xlink:href="#DejaVuSans-69" x="938.923828"/>
     <use xlink:href="#DejaVuSans-72" x="966.707031"/>
     <use xlink:href="#DejaVuSans-6d" x="1006.070312"/>
     <use xlink:href="#DejaVuSans-65" x="1103.482422"/>
     <use xlink:href="#DejaVuSans-64" x="1165.005859"/>
     <use xlink:href="#DejaVuSans-20" x="1228.482422"/>
     <use xlink:href="#DejaVuSans-43" x="1260.269531"/>
     <use xlink:href="#DejaVuSans-61" x="1330.09375"/>
     <use xlink:href="#DejaVuSans-73" x="1391.373047"/>
     <use xlink:href="#DejaVuSans-65" x="1443.472656"/>
     <use xlink:href="#DejaVuSans-73" x="1504.996094"/>
     <use xlink:href="#DejaVuSans-20" x="1557.095703"/>
     <use xlink:href="#DejaVuSans-46" x="1588.882812"/>
     <use xlink:href="#DejaVuSans-6f" x="1642.777344"/>
     <use xlink:href="#DejaVuSans-72" x="1703.958984"/>
     <use xlink:href="#DejaVuSans-65" x="1742.822266"/>
     <use xlink:href="#DejaVuSans-63" x="1804.345703"/>
     <use xlink:href="#DejaVuSans-61" x="1859.326172"/>
     <use xlink:href="#DejaVuSans-73" x="1920.605469"/>
     <use xlink:href="#DejaVuSans-74" x="1972.705078"/>
     <use xlink:href="#DejaVuSans-69" x="2011.914062"/>
     <use xlink:href="#DejaVuSans-6e" x="2039.697266"/>
     <use xlink:href="#DejaVuSans-67" x="2103.076172"/>
     <use xlink:href="#DejaVuSans-20" x="2166.552734"/>
     <use xlink:href="#DejaVuSans-2d" x="2198.339844"/>
     <use xlink:href="#DejaVuSans-20" x="2234.423828"/>
     <use xlink:href="#DejaVuSans-48" x="2266.210938"/>
     <use xlink:href="#DejaVuSans-61" x="2341.40625"/>
     <use xlink:href="#DejaVuSans-69" x="2402.685547"/>
     <use xlink:href="#DejaVuSans-74" x="2430.46875"/>
     <use xlink:href="#DejaVuSans-69" x="2469.677734"/>
    </g>
    <!-- ARIMA (4, 1, 1)x(1, 0, 1, 7) (R2 = 0.997940) -->
    <g transform="translate(583.628438 29.7555)scale(0.12 -0.12)">
     <defs>
      <path id="DejaVuSans-52" d="M 2841 2188 
Q 3044 2119 3236 1894 
Q 3428 1669 3622 1275 
L 4263 0 
L 3584 0 
L 2988 1197 
Q 2756 1666 2539 1819 
Q 2322 1972 1947 1972 
L 1259 1972 
L 1259 0 
L 628 0 
L 628 4666 
L 2053 4666 
Q 2853 4666 3247 4331 
Q 3641 3997 3641 3322 
Q 3641 2881 3436 2590 
Q 3231 2300 2841 2188 
z
M 1259 4147 
L 1259 2491 
L 2053 2491 
Q 2509 2491 2742 2702 
Q 2975 2913 2975 3322 
Q 2975 3731 2742 3939 
Q 2509 4147 2053 4147 
L 1259 4147 
z
" transform="scale(0.015625)"/>
      <path id="DejaVuSans-49" d="M 628 4666 
L 1259 4666 
L 1259 0 
L 628 0 
L 628 4666 
z
" transform="scale(0.015625)"/>
      <path id="DejaVuSans-4d" d="M 628 4666 
L 1569 4666 
L 2759 1491 
L 3956 4666 
L 4897 4666 
L 4897 0 
L 4281 0 
L 4281 4097 
L 3078 897 
L 2444 897 
L 1241 4097 
L 1241 0 
L 628 0 
L 628 4666 
z
" transform="scale(0.015625)"/>
      <path id="DejaVuSans-28" d="M 1984 4856 
Q 1566 4138 1362 3434 
Q 1159 2731 1159 2009 
Q 1159 1288 1364 580 
Q 1569 -128 1984 -844 
L 1484 -844 
Q 1016 -109 783 600 
Q 550 1309 550 2009 
Q 550 2706 781 3412 
Q 1013 4119 1484 4856 
L 1984 4856 
z
" transform="scale(0.015625)"/>
      <path id="DejaVuSans-2c" d="M 750 794 
L 1409 794 
L 1409 256 
L 897 -744 
L 494 -744 
L 750 256 
L 750 794 
z
" transform="scale(0.015625)"/>
      <path id="DejaVuSans-29" d="M 513 4856 
L 1013 4856 
Q 1481 4119 1714 3412 
Q 1947 2706 1947 2009 
Q 1947 1309 1714 600 
Q 1481 -109 1013 -844 
L 513 -844 
Q 928 -128 1133 580 
Q 1338 1288 1338 2009 
Q 1338 2731 1133 3434 
Q 928 4138 513 4856 
z
" transform="scale(0.015625)"/>
      <path id="DejaVuSans-78" d="M 3513 3500 
L 2247 1797 
L 3578 0 
L 2900 0 
L 1881 1375 
L 863 0 
L 184 0 
L 1544 1831 
L 300 3500 
L 978 3500 
L 1906 2253 
L 2834 3500 
L 3513 3500 
z
" transform="scale(0.015625)"/>
      <path id="DejaVuSans-3d" d="M 678 2906 
L 4684 2906 
L 4684 2381 
L 678 2381 
L 678 2906 
z
M 678 1631 
L 4684 1631 
L 4684 1100 
L 678 1100 
L 678 1631 
z
" transform="scale(0.015625)"/>
      <path id="DejaVuSans-2e" d="M 684 794 
L 1344 794 
L 1344 0 
L 684 0 
L 684 794 
z
" transform="scale(0.015625)"/>
      <path id="DejaVuSans-39" d="M 703 97 
L 703 672 
Q 941 559 1184 500 
Q 1428 441 1663 441 
Q 2288 441 2617 861 
Q 2947 1281 2994 2138 
Q 2813 1869 2534 1725 
Q 2256 1581 1919 1581 
Q 1219 1581 811 2004 
Q 403 2428 403 3163 
Q 403 3881 828 4315 
Q 1253 4750 1959 4750 
Q 2769 4750 3195 4129 
Q 3622 3509 3622 2328 
Q 3622 1225 3098 567 
Q 2575 -91 1691 -91 
Q 1453 -91 1209 -44 
Q 966 3 703 97 
z
M 1959 2075 
Q 2384 2075 2632 2365 
Q 2881 2656 2881 3163 
Q 2881 3666 2632 3958 
Q 2384 4250 1959 4250 
Q 1534 4250 1286 3958 
Q 1038 3666 1038 3163 
Q 1038 2656 1286 2365 
Q 1534 2075 1959 2075 
z
" transform="scale(0.015625)"/>
     </defs>
     <use xlink:href="#DejaVuSans-41"/>
     <use xlink:href="#DejaVuSans-52" x="68.408203"/>
     <use xlink:href="#DejaVuSans-49" x="137.890625"/>
     <use xlink:href="#DejaVuSans-4d" x="167.382812"/>
     <use xlink:href="#DejaVuSans-41" x="253.662109"/>
     <use xlink:href="#DejaVuSans-20" x="322.070312"/>
     <use xlink:href="#DejaVuSans-28" x="353.857422"/>
     <use xlink:href="#DejaVuSans-34" x="392.871094"/>
     <use xlink:href="#DejaVuSans-2c" x="456.494141"/>
     <use xlink:href="#DejaVuSans-20" x="488.28125"/>
     <use xlink:href="#DejaVuSans-31" x="520.068359"/>
     <use xlink:href="#DejaVuSans-2c" x="583.691406"/>
     <use xlink:href="#DejaVuSans-20" x="615.478516"/>
     <use xlink:href="#DejaVuSans-31" x="647.265625"/>
     <use xlink:href="#DejaVuSans-29" x="710.888672"/>
     <use xlink:href="#DejaVuSans-78" x="749.902344"/>
     <use xlink:href="#DejaVuSans-28" x="809.082031"/>
     <use xlink:href="#DejaVuSans-31" x="848.095703"/>
     <use xlink:href="#DejaVuSans-2c" x="911.71875"/>
     <use xlink:href="#DejaVuSans-20" x="943.505859"/>
     <use xlink:href="#DejaVuSans-30" x="975.292969"/>
     <use xlink:href="#DejaVuSans-2c" x="1038.916016"/>
     <use xlink:href="#DejaVuSans-20" x="1070.703125"/>
     <use xlink:href="#DejaVuSans-31" x="1102.490234"/>
     <use xlink:href="#DejaVuSans-2c" x="1166.113281"/>
     <use xlink:href="#DejaVuSans-20" x="1197.900391"/>
     <use xlink:href="#DejaVuSans-37" x="1229.6875"/>
     <use xlink:href="#DejaVuSans-29" x="1293.310547"/>
     <use xlink:href="#DejaVuSans-20" x="1332.324219"/>
     <use xlink:href="#DejaVuSans-28" x="1364.111328"/>
     <use xlink:href="#DejaVuSans-52" x="1403.125"/>
     <use xlink:href="#DejaVuSans-32" x="1472.607422"/>
     <use xlink:href="#DejaVuSans-20" x="1536.230469"/>
     <use xlink:href="#DejaVuSans-3d" x="1568.017578"/>
     <use xlink:href="#DejaVuSans-20" x="1651.806641"/>
     <use xlink:href="#DejaVuSans-30" x="1683.59375"/>
     <use xlink:href="#DejaVuSans-2e" x="1747.216797"/>
     <use xlink:href="#DejaVuSans-39" x="1779.003906"/>
     <use xlink:href="#DejaVuSans-39" x="1842.626953"/>
     <use xlink:href="#DejaVuSans-37" x="1906.25"/>
     <use xlink:href="#DejaVuSans-39" x="1969.873047"/>
     <use xlink:href="#DejaVuSans-34" x="2033.496094"/>
     <use xlink:href="#DejaVuSans-30" x="2097.119141"/>
     <use xlink:href="#DejaVuSans-29" x="2160.742188"/>
    </g>
   </g>
   <g id="legend_1">
    <g id="patch_7">
     <path d="M 53.0125 87.789875 
L 150.092188 87.789875 
Q 152.092188 87.789875 152.092188 85.789875 
L 152.092188 42.7555 
Q 152.092188 40.7555 150.092188 40.7555 
L 53.0125 40.7555 
Q 51.0125 40.7555 51.0125 42.7555 
L 51.0125 85.789875 
Q 51.0125 87.789875 53.0125 87.789875 
z
" style="fill: #ffffff; opacity: 0.8; stroke: #cccccc; stroke-linejoin: miter"/>
    </g>
    <g id="line2d_22">
     <path d="M 55.0125 48.853937 
L 65.0125 48.853937 
L 75.0125 48.853937 
" style="fill: none; stroke: #0000ff; stroke-width: 1.5; stroke-linecap: square"/>
    </g>
    <g id="text_20">
     <!-- Actual Value -->
     <g transform="translate(83.0125 52.353937)scale(0.1 -0.1)">
      <defs>
       <path id="DejaVuSans-56" d="M 1831 0 
L 50 4666 
L 709 4666 
L 2188 738 
L 3669 4666 
L 4325 4666 
L 2547 0 
L 1831 0 
z
" transform="scale(0.015625)"/>
      </defs>
      <use xlink:href="#DejaVuSans-41"/>
      <use xlink:href="#DejaVuSans-63" x="66.658203"/>
      <use xlink:href="#DejaVuSans-74" x="121.638672"/>
      <use xlink:href="#DejaVuSans-75" x="160.847656"/>
      <use xlink:href="#DejaVuSans-61" x="224.226562"/>
      <use xlink:href="#DejaVuSans-6c" x="285.505859"/>
      <use xlink:href="#DejaVuSans-20" x="313.289062"/>
      <use xlink:href="#DejaVuSans-56" x="345.076172"/>
      <use xlink:href="#DejaVuSans-61" x="405.734375"/>
      <use xlink:href="#DejaVuSans-6c" x="467.013672"/>
      <use xlink:href="#DejaVuSans-75" x="494.796875"/>
      <use xlink:href="#DejaVuSans-65" x="558.175781"/>
     </g>
    </g>
    <g id="line2d_23">
     <path d="M 55.0125 63.532062 
L 65.0125 63.532062 
L 75.0125 63.532062 
" style="fill: none; stroke: #ffa500; stroke-width: 1.5; stroke-linecap: square"/>
    </g>
    <g id="text_21">
     <!-- Check Value -->
     <g transform="translate(83.0125 67.032062)scale(0.1 -0.1)">
      <defs>
       <path id="DejaVuSans-68" d="M 3513 2113 
L 3513 0 
L 2938 0 
L 2938 2094 
Q 2938 2591 2744 2837 
Q 2550 3084 2163 3084 
Q 1697 3084 1428 2787 
Q 1159 2491 1159 1978 
L 1159 0 
L 581 0 
L 581 4863 
L 1159 4863 
L 1159 2956 
Q 1366 3272 1645 3428 
Q 1925 3584 2291 3584 
Q 2894 3584 3203 3211 
Q 3513 2838 3513 2113 
z
" transform="scale(0.015625)"/>
       <path id="DejaVuSans-6b" d="M 581 4863 
L 1159 4863 
L 1159 1991 
L 2875 3500 
L 3609 3500 
L 1753 1863 
L 3688 0 
L 2938 0 
L 1159 1709 
L 1159 0 
L 581 0 
L 581 4863 
z
" transform="scale(0.015625)"/>
      </defs>
      <use xlink:href="#DejaVuSans-43"/>
      <use xlink:href="#DejaVuSans-68" x="69.824219"/>
      <use xlink:href="#DejaVuSans-65" x="133.203125"/>
      <use xlink:href="#DejaVuSans-63" x="194.726562"/>
      <use xlink:href="#DejaVuSans-6b" x="249.707031"/>
      <use xlink:href="#DejaVuSans-20" x="307.617188"/>
      <use xlink:href="#DejaVuSans-56" x="339.404297"/>
      <use xlink:href="#DejaVuSans-61" x="400.0625"/>
      <use xlink:href="#DejaVuSans-6c" x="461.341797"/>
      <use xlink:href="#DejaVuSans-75" x="489.125"/>
      <use xlink:href="#DejaVuSans-65" x="552.503906"/>
     </g>
    </g>
    <g id="line2d_24">
     <path d="M 55.0125 78.210187 
L 65.0125 78.210187 
L 75.0125 78.210187 
" style="fill: none; stroke: #ff0000; stroke-width: 1.5; stroke-linecap: square"/>
    </g>
    <g id="text_22">
     <!-- Predict Value -->
     <g transform="translate(83.0125 81.710187)scale(0.1 -0.1)">
      <defs>
       <path id="DejaVuSans-50" d="M 1259 4147 
L 1259 2394 
L 2053 2394 
Q 2494 2394 2734 2622 
Q 2975 2850 2975 3272 
Q 2975 3691 2734 3919 
Q 2494 4147 2053 4147 
L 1259 4147 
z
M 628 4666 
L 2053 4666 
Q 2838 4666 3239 4311 
Q 3641 3956 3641 3272 
Q 3641 2581 3239 2228 
Q 2838 1875 2053 1875 
L 1259 1875 
L 1259 0 
L 628 0 
L 628 4666 
z
" transform="scale(0.015625)"/>
      </defs>
      <use xlink:href="#DejaVuSans-50"/>
      <use xlink:href="#DejaVuSans-72" x="58.552734"/>
      <use xlink:href="#DejaVuSans-65" x="97.416016"/>
      <use xlink:href="#DejaVuSans-64" x="158.939453"/>
      <use xlink:href="#DejaVuSans-69" x="222.416016"/>
      <use xlink:href="#DejaVuSans-63" x="250.199219"/>
      <use xlink:href="#DejaVuSans-74" x="305.179688"/>
      <use xlink:href="#DejaVuSans-20" x="344.388672"/>
      <use xlink:href="#DejaVuSans-56" x="376.175781"/>
      <use xlink:href="#DejaVuSans-61" x="436.833984"/>
      <use xlink:href="#DejaVuSans-6c" x="498.113281"/>
      <use xlink:href="#DejaVuSans-75" x="525.896484"/>
      <use xlink:href="#DejaVuSans-65" x="589.275391"/>
     </g>
    </g>
   </g>
  </g>
 </g>
 <defs>
  <clipPath id="pfd3eea26e2">
   <rect x="46.0125" y="35.7555" width="1339.2" height="332.64"/>
  </clipPath>
 </defs>
</svg>
