<?xml version="1.0" encoding="utf-8" standalone="no"?>
<!DOCTYPE svg PUBLIC "-//W3C//DTD SVG 1.1//EN"
  "http://www.w3.org/Graphics/SVG/1.1/DTD/svg11.dtd">
<svg xmlns:xlink="http://www.w3.org/1999/xlink" width="1386.05pt" height="392.273625pt" viewBox="0 0 1386.05 392.273625" xmlns="http://www.w3.org/2000/svg" version="1.1">
 <metadata>
  <rdf:RDF xmlns:dc="http://purl.org/dc/elements/1.1/" xmlns:cc="http://creativecommons.org/ns#" xmlns:rdf="http://www.w3.org/1999/02/22-rdf-syntax-ns#">
   <cc:Work>
    <dc:type rdf:resource="http://purl.org/dc/dcmitype/StillImage"/>
    <dc:date>2022-07-31T19:37:31.463856</dc:date>
    <dc:format>image/svg+xml</dc:format>
    <dc:creator>
     <cc:Agent>
      <dc:title>Matplotlib v3.5.2, https://matplotlib.org/</dc:title>
     </cc:Agent>
    </dc:creator>
   </cc:Work>
  </rdf:RDF>
 </metadata>
 <defs>
  <style type="text/css">*{stroke-linejoin: round; stroke-linecap: butt}</style>
 </defs>
 <g id="figure_1">
  <g id="patch_1">
   <path d="M 0 392.273625 
L 1386.05 392.273625 
L 1386.05 0 
L 0 0 
z
" style="fill: #ffffff"/>
  </g>
  <g id="axes_1">
   <g id="patch_2">
    <path d="M 39.65 368.3955 
L 1378.85 368.3955 
L 1378.85 35.7555 
L 39.65 35.7555 
z
" style="fill: #ffffff"/>
   </g>
   <g id="matplotlib.axis_1">
    <g id="xtick_1">
     <g id="line2d_1">
      <defs>
       <path id="m83a2a40130" d="M 0 0 
L 0 3.5 
" style="stroke: #000000; stroke-width: 0.8"/>
      </defs>
      <g>
       <use xlink:href="#m83a2a40130" x="71.78453" y="368.3955" style="stroke: #000000; stroke-width: 0.8"/>
      </g>
     </g>
     <g id="text_1">
      <!-- 2020-01 -->
      <g transform="translate(50.893124 382.993937)scale(0.1 -0.1)">
       <defs>
        <path id="DejaVuSans-32" d="M 1228 531 
L 3431 531 
L 3431 0 
L 469 0 
L 469 531 
Q 828 903 1448 1529 
Q 2069 2156 2228 2338 
Q 2531 2678 2651 2914 
Q 2772 3150 2772 3378 
Q 2772 3750 2511 3984 
Q 2250 4219 1831 4219 
Q 1534 4219 1204 4116 
Q 875 4013 500 3803 
L 500 4441 
Q 881 4594 1212 4672 
Q 1544 4750 1819 4750 
Q 2544 4750 2975 4387 
Q 3406 4025 3406 3419 
Q 3406 3131 3298 2873 
Q 3191 2616 2906 2266 
Q 2828 2175 2409 1742 
Q 1991 1309 1228 531 
z
" transform="scale(0.015625)"/>
        <path id="DejaVuSans-30" d="M 2034 4250 
Q 1547 4250 1301 3770 
Q 1056 3291 1056 2328 
Q 1056 1369 1301 889 
Q 1547 409 2034 409 
Q 2525 409 2770 889 
Q 3016 1369 3016 2328 
Q 3016 3291 2770 3770 
Q 2525 4250 2034 4250 
z
M 2034 4750 
Q 2819 4750 3233 4129 
Q 3647 3509 3647 2328 
Q 3647 1150 3233 529 
Q 2819 -91 2034 -91 
Q 1250 -91 836 529 
Q 422 1150 422 2328 
Q 422 3509 836 4129 
Q 1250 4750 2034 4750 
z
" transform="scale(0.015625)"/>
        <path id="DejaVuSans-2d" d="M 313 2009 
L 1997 2009 
L 1997 1497 
L 313 1497 
L 313 2009 
z
" transform="scale(0.015625)"/>
        <path id="DejaVuSans-31" d="M 794 531 
L 1825 531 
L 1825 4091 
L 703 3866 
L 703 4441 
L 1819 4666 
L 2450 4666 
L 2450 531 
L 3481 531 
L 3481 0 
L 794 0 
L 794 531 
z
" transform="scale(0.015625)"/>
       </defs>
       <use xlink:href="#DejaVuSans-32"/>
       <use xlink:href="#DejaVuSans-30" x="63.623047"/>
       <use xlink:href="#DejaVuSans-32" x="127.246094"/>
       <use xlink:href="#DejaVuSans-30" x="190.869141"/>
       <use xlink:href="#DejaVuSans-2d" x="254.492188"/>
       <use xlink:href="#DejaVuSans-30" x="290.576172"/>
       <use xlink:href="#DejaVuSans-31" x="354.199219"/>
      </g>
     </g>
    </g>
    <g id="xtick_2">
     <g id="line2d_2">
      <g>
       <use xlink:href="#m83a2a40130" x="190.656165" y="368.3955" style="stroke: #000000; stroke-width: 0.8"/>
      </g>
     </g>
     <g id="text_2">
      <!-- 2020-04 -->
      <g transform="translate(169.764758 382.993937)scale(0.1 -0.1)">
       <defs>
        <path id="DejaVuSans-34" d="M 2419 4116 
L 825 1625 
L 2419 1625 
L 2419 4116 
z
M 2253 4666 
L 3047 4666 
L 3047 1625 
L 3713 1625 
L 3713 1100 
L 3047 1100 
L 3047 0 
L 2419 0 
L 2419 1100 
L 313 1100 
L 313 1709 
L 2253 4666 
z
" transform="scale(0.015625)"/>
       </defs>
       <use xlink:href="#DejaVuSans-32"/>
       <use xlink:href="#DejaVuSans-30" x="63.623047"/>
       <use xlink:href="#DejaVuSans-32" x="127.246094"/>
       <use xlink:href="#DejaVuSans-30" x="190.869141"/>
       <use xlink:href="#DejaVuSans-2d" x="254.492188"/>
       <use xlink:href="#DejaVuSans-30" x="290.576172"/>
       <use xlink:href="#DejaVuSans-34" x="354.199219"/>
      </g>
     </g>
    </g>
    <g id="xtick_3">
     <g id="line2d_3">
      <g>
       <use xlink:href="#m83a2a40130" x="309.527799" y="368.3955" style="stroke: #000000; stroke-width: 0.8"/>
      </g>
     </g>
     <g id="text_3">
      <!-- 2020-07 -->
      <g transform="translate(288.636393 382.993937)scale(0.1 -0.1)">
       <defs>
        <path id="DejaVuSans-37" d="M 525 4666 
L 3525 4666 
L 3525 4397 
L 1831 0 
L 1172 0 
L 2766 4134 
L 525 4134 
L 525 4666 
z
" transform="scale(0.015625)"/>
       </defs>
       <use xlink:href="#DejaVuSans-32"/>
       <use xlink:href="#DejaVuSans-30" x="63.623047"/>
       <use xlink:href="#DejaVuSans-32" x="127.246094"/>
       <use xlink:href="#DejaVuSans-30" x="190.869141"/>
       <use xlink:href="#DejaVuSans-2d" x="254.492188"/>
       <use xlink:href="#DejaVuSans-30" x="290.576172"/>
       <use xlink:href="#DejaVuSans-37" x="354.199219"/>
      </g>
     </g>
    </g>
    <g id="xtick_4">
     <g id="line2d_4">
      <g>
       <use xlink:href="#m83a2a40130" x="429.705716" y="368.3955" style="stroke: #000000; stroke-width: 0.8"/>
      </g>
     </g>
     <g id="text_4">
      <!-- 2020-10 -->
      <g transform="translate(408.81431 382.993937)scale(0.1 -0.1)">
       <use xlink:href="#DejaVuSans-32"/>
       <use xlink:href="#DejaVuSans-30" x="63.623047"/>
       <use xlink:href="#DejaVuSans-32" x="127.246094"/>
       <use xlink:href="#DejaVuSans-30" x="190.869141"/>
       <use xlink:href="#DejaVuSans-2d" x="254.492188"/>
       <use xlink:href="#DejaVuSans-31" x="290.576172"/>
       <use xlink:href="#DejaVuSans-30" x="354.199219"/>
      </g>
     </g>
    </g>
    <g id="xtick_5">
     <g id="line2d_5">
      <g>
       <use xlink:href="#m83a2a40130" x="549.883632" y="368.3955" style="stroke: #000000; stroke-width: 0.8"/>
      </g>
     </g>
     <g id="text_5">
      <!-- 2021-01 -->
      <g transform="translate(528.992226 382.993937)scale(0.1 -0.1)">
       <use xlink:href="#DejaVuSans-32"/>
       <use xlink:href="#DejaVuSans-30" x="63.623047"/>
       <use xlink:href="#DejaVuSans-32" x="127.246094"/>
       <use xlink:href="#DejaVuSans-31" x="190.869141"/>
       <use xlink:href="#DejaVuSans-2d" x="254.492188"/>
       <use xlink:href="#DejaVuSans-30" x="290.576172"/>
       <use xlink:href="#DejaVuSans-31" x="354.199219"/>
      </g>
     </g>
    </g>
    <g id="xtick_6">
     <g id="line2d_6">
      <g>
       <use xlink:href="#m83a2a40130" x="667.448986" y="368.3955" style="stroke: #000000; stroke-width: 0.8"/>
      </g>
     </g>
     <g id="text_6">
      <!-- 2021-04 -->
      <g transform="translate(646.557579 382.993937)scale(0.1 -0.1)">
       <use xlink:href="#DejaVuSans-32"/>
       <use xlink:href="#DejaVuSans-30" x="63.623047"/>
       <use xlink:href="#DejaVuSans-32" x="127.246094"/>
       <use xlink:href="#DejaVuSans-31" x="190.869141"/>
       <use xlink:href="#DejaVuSans-2d" x="254.492188"/>
       <use xlink:href="#DejaVuSans-30" x="290.576172"/>
       <use xlink:href="#DejaVuSans-34" x="354.199219"/>
      </g>
     </g>
    </g>
    <g id="xtick_7">
     <g id="line2d_7">
      <g>
       <use xlink:href="#m83a2a40130" x="786.32062" y="368.3955" style="stroke: #000000; stroke-width: 0.8"/>
      </g>
     </g>
     <g id="text_7">
      <!-- 2021-07 -->
      <g transform="translate(765.429214 382.993937)scale(0.1 -0.1)">
       <use xlink:href="#DejaVuSans-32"/>
       <use xlink:href="#DejaVuSans-30" x="63.623047"/>
       <use xlink:href="#DejaVuSans-32" x="127.246094"/>
       <use xlink:href="#DejaVuSans-31" x="190.869141"/>
       <use xlink:href="#DejaVuSans-2d" x="254.492188"/>
       <use xlink:href="#DejaVuSans-30" x="290.576172"/>
       <use xlink:href="#DejaVuSans-37" x="354.199219"/>
      </g>
     </g>
    </g>
    <g id="xtick_8">
     <g id="line2d_8">
      <g>
       <use xlink:href="#m83a2a40130" x="906.498537" y="368.3955" style="stroke: #000000; stroke-width: 0.8"/>
      </g>
     </g>
     <g id="text_8">
      <!-- 2021-10 -->
      <g transform="translate(885.607131 382.993937)scale(0.1 -0.1)">
       <use xlink:href="#DejaVuSans-32"/>
       <use xlink:href="#DejaVuSans-30" x="63.623047"/>
       <use xlink:href="#DejaVuSans-32" x="127.246094"/>
       <use xlink:href="#DejaVuSans-31" x="190.869141"/>
       <use xlink:href="#DejaVuSans-2d" x="254.492188"/>
       <use xlink:href="#DejaVuSans-31" x="290.576172"/>
       <use xlink:href="#DejaVuSans-30" x="354.199219"/>
      </g>
     </g>
    </g>
    <g id="xtick_9">
     <g id="line2d_9">
      <g>
       <use xlink:href="#m83a2a40130" x="1026.676453" y="368.3955" style="stroke: #000000; stroke-width: 0.8"/>
      </g>
     </g>
     <g id="text_9">
      <!-- 2022-01 -->
      <g transform="translate(1005.785047 382.993937)scale(0.1 -0.1)">
       <use xlink:href="#DejaVuSans-32"/>
       <use xlink:href="#DejaVuSans-30" x="63.623047"/>
       <use xlink:href="#DejaVuSans-32" x="127.246094"/>
       <use xlink:href="#DejaVuSans-32" x="190.869141"/>
       <use xlink:href="#DejaVuSans-2d" x="254.492188"/>
       <use xlink:href="#DejaVuSans-30" x="290.576172"/>
       <use xlink:href="#DejaVuSans-31" x="354.199219"/>
      </g>
     </g>
    </g>
    <g id="xtick_10">
     <g id="line2d_10">
      <g>
       <use xlink:href="#m83a2a40130" x="1144.241806" y="368.3955" style="stroke: #000000; stroke-width: 0.8"/>
      </g>
     </g>
     <g id="text_10">
      <!-- 2022-04 -->
      <g transform="translate(1123.3504 382.993937)scale(0.1 -0.1)">
       <use xlink:href="#DejaVuSans-32"/>
       <use xlink:href="#DejaVuSans-30" x="63.623047"/>
       <use xlink:href="#DejaVuSans-32" x="127.246094"/>
       <use xlink:href="#DejaVuSans-32" x="190.869141"/>
       <use xlink:href="#DejaVuSans-2d" x="254.492188"/>
       <use xlink:href="#DejaVuSans-30" x="290.576172"/>
       <use xlink:href="#DejaVuSans-34" x="354.199219"/>
      </g>
     </g>
    </g>
    <g id="xtick_11">
     <g id="line2d_11">
      <g>
       <use xlink:href="#m83a2a40130" x="1263.113441" y="368.3955" style="stroke: #000000; stroke-width: 0.8"/>
      </g>
     </g>
     <g id="text_11">
      <!-- 2022-07 -->
      <g transform="translate(1242.222035 382.993937)scale(0.1 -0.1)">
       <use xlink:href="#DejaVuSans-32"/>
       <use xlink:href="#DejaVuSans-30" x="63.623047"/>
       <use xlink:href="#DejaVuSans-32" x="127.246094"/>
       <use xlink:href="#DejaVuSans-32" x="190.869141"/>
       <use xlink:href="#DejaVuSans-2d" x="254.492188"/>
       <use xlink:href="#DejaVuSans-30" x="290.576172"/>
       <use xlink:href="#DejaVuSans-37" x="354.199219"/>
      </g>
     </g>
    </g>
   </g>
   <g id="matplotlib.axis_2">
    <g id="ytick_1">
     <g id="line2d_12">
      <defs>
       <path id="mafd4104cb2" d="M 0 0 
L -3.5 0 
" style="stroke: #000000; stroke-width: 0.8"/>
      </defs>
      <g>
       <use xlink:href="#mafd4104cb2" x="39.65" y="330.774816" style="stroke: #000000; stroke-width: 0.8"/>
      </g>
     </g>
     <g id="text_12">
      <!-- 0 -->
      <g transform="translate(26.2875 334.574035)scale(0.1 -0.1)">
       <use xlink:href="#DejaVuSans-30"/>
      </g>
     </g>
    </g>
    <g id="ytick_2">
     <g id="line2d_13">
      <g>
       <use xlink:href="#mafd4104cb2" x="39.65" y="269.794573" style="stroke: #000000; stroke-width: 0.8"/>
      </g>
     </g>
     <g id="text_13">
      <!-- 500 -->
      <g transform="translate(13.5625 273.593792)scale(0.1 -0.1)">
       <defs>
        <path id="DejaVuSans-35" d="M 691 4666 
L 3169 4666 
L 3169 4134 
L 1269 4134 
L 1269 2991 
Q 1406 3038 1543 3061 
Q 1681 3084 1819 3084 
Q 2600 3084 3056 2656 
Q 3513 2228 3513 1497 
Q 3513 744 3044 326 
Q 2575 -91 1722 -91 
Q 1428 -91 1123 -41 
Q 819 9 494 109 
L 494 744 
Q 775 591 1075 516 
Q 1375 441 1709 441 
Q 2250 441 2565 725 
Q 2881 1009 2881 1497 
Q 2881 1984 2565 2268 
Q 2250 2553 1709 2553 
Q 1456 2553 1204 2497 
Q 953 2441 691 2322 
L 691 4666 
z
" transform="scale(0.015625)"/>
       </defs>
       <use xlink:href="#DejaVuSans-35"/>
       <use xlink:href="#DejaVuSans-30" x="63.623047"/>
       <use xlink:href="#DejaVuSans-30" x="127.246094"/>
      </g>
     </g>
    </g>
    <g id="ytick_3">
     <g id="line2d_14">
      <g>
       <use xlink:href="#mafd4104cb2" x="39.65" y="208.81433" style="stroke: #000000; stroke-width: 0.8"/>
      </g>
     </g>
     <g id="text_14">
      <!-- 1000 -->
      <g transform="translate(7.2 212.613549)scale(0.1 -0.1)">
       <use xlink:href="#DejaVuSans-31"/>
       <use xlink:href="#DejaVuSans-30" x="63.623047"/>
       <use xlink:href="#DejaVuSans-30" x="127.246094"/>
       <use xlink:href="#DejaVuSans-30" x="190.869141"/>
      </g>
     </g>
    </g>
    <g id="ytick_4">
     <g id="line2d_15">
      <g>
       <use xlink:href="#mafd4104cb2" x="39.65" y="147.834087" style="stroke: #000000; stroke-width: 0.8"/>
      </g>
     </g>
     <g id="text_15">
      <!-- 1500 -->
      <g transform="translate(7.2 151.633305)scale(0.1 -0.1)">
       <use xlink:href="#DejaVuSans-31"/>
       <use xlink:href="#DejaVuSans-35" x="63.623047"/>
       <use xlink:href="#DejaVuSans-30" x="127.246094"/>
       <use xlink:href="#DejaVuSans-30" x="190.869141"/>
      </g>
     </g>
    </g>
    <g id="ytick_5">
     <g id="line2d_16">
      <g>
       <use xlink:href="#mafd4104cb2" x="39.65" y="86.853843" style="stroke: #000000; stroke-width: 0.8"/>
      </g>
     </g>
     <g id="text_16">
      <!-- 2000 -->
      <g transform="translate(7.2 90.653062)scale(0.1 -0.1)">
       <use xlink:href="#DejaVuSans-32"/>
       <use xlink:href="#DejaVuSans-30" x="63.623047"/>
       <use xlink:href="#DejaVuSans-30" x="127.246094"/>
       <use xlink:href="#DejaVuSans-30" x="190.869141"/>
      </g>
     </g>
    </g>
   </g>
   <g id="line2d_17">
    <path d="M 100.522727 330.774816 
L 173.674503 330.774816 
L 174.980784 330.408935 
L 176.287066 330.774816 
L 177.593348 330.774816 
L 178.899629 329.677172 
L 180.205911 330.165014 
L 181.512193 330.530895 
L 182.818474 330.286974 
L 184.124756 330.408935 
L 185.431038 330.774816 
L 186.73732 329.18933 
L 188.043601 330.286974 
L 189.349883 329.067369 
L 190.656165 330.774816 
L 191.962446 330.530895 
L 193.268728 329.433251 
L 194.57501 330.774816 
L 195.881291 330.530895 
L 197.187573 329.555211 
L 198.493855 330.043053 
L 199.800137 330.165014 
L 201.106418 330.774816 
L 202.4127 330.774816 
L 203.718982 329.677172 
L 206.331545 330.774816 
L 207.637827 330.530895 
L 208.944108 330.530895 
L 210.25039 330.652856 
L 211.556672 330.043053 
L 212.862954 330.408935 
L 214.169235 330.652856 
L 215.475517 330.774816 
L 219.394362 330.774816 
L 220.700644 330.652856 
L 223.313207 330.652856 
L 224.619489 330.286974 
L 225.925771 330.774816 
L 228.538334 330.774816 
L 229.844616 330.286974 
L 231.150897 330.408935 
L 232.457179 329.067369 
L 233.763461 330.774816 
L 235.069742 330.530895 
L 236.376024 329.921093 
L 237.682306 326.506199 
L 238.988588 330.774816 
L 241.601151 330.774816 
L 242.907433 331.62854 
L 244.213714 330.774816 
L 245.519996 327.603843 
L 246.826278 328.579527 
L 248.13256 329.799132 
L 249.438841 325.286594 
L 250.745123 328.213646 
L 252.051405 328.579527 
L 253.357686 330.286974 
L 254.663968 325.286594 
L 255.97025 326.62816 
L 257.276531 325.530515 
L 258.582813 325.896397 
L 259.889095 326.018357 
L 261.195377 328.945409 
L 262.501658 325.408555 
L 263.80794 327.603843 
L 265.114222 325.408555 
L 266.420503 325.652476 
L 267.726785 323.457187 
L 269.033067 329.18933 
L 270.339348 324.066989 
L 271.64563 328.457567 
L 272.951912 323.091305 
L 274.258194 324.798752 
L 275.564475 328.579527 
L 276.870757 324.554831 
L 278.177039 327.603843 
L 279.48332 325.652476 
L 280.789602 325.408555 
L 282.095884 327.847764 
L 283.402165 325.774436 
L 284.708447 326.262278 
L 286.014729 329.31129 
L 287.321011 328.335606 
L 288.627292 328.579527 
L 289.933574 327.481883 
L 291.239856 323.335226 
L 292.546137 327.725804 
L 293.852419 325.896397 
L 295.158701 323.457187 
L 296.464982 319.432491 
L 297.771264 325.408555 
L 299.077546 320.530135 
L 301.690109 325.652476 
L 302.996391 319.432491 
L 305.608954 321.871701 
L 306.915236 323.457187 
L 308.221518 321.505819 
L 309.527799 319.920333 
L 310.834081 318.578767 
L 312.140363 317.481123 
L 313.446645 304.431351 
L 314.752926 304.797233 
L 316.059208 293.089026 
L 317.36549 303.699588 
L 318.671771 318.456807 
L 319.978053 305.285074 
L 321.284335 286.747081 
L 322.590616 277.722005 
L 323.896898 295.528236 
L 325.20318 304.797233 
L 326.509462 298.699208 
L 327.815743 298.821169 
L 329.122025 271.745941 
L 330.428307 284.673752 
L 331.734588 284.18591 
L 333.04087 306.382719 
L 334.347152 318.090926 
L 335.653433 282.600424 
L 336.959715 255.891078 
L 338.265997 304.06547 
L 339.572279 286.869041 
L 340.87856 315.529755 
L 342.184842 278.453767 
L 343.491124 282.600424 
L 344.797405 280.283175 
L 346.103687 304.797233 
L 347.409969 278.209847 
L 348.71625 316.139558 
L 350.022532 281.380819 
L 351.328814 299.674892 
L 352.635096 314.676032 
L 353.941377 302.114102 
L 355.247659 290.893737 
L 356.553941 293.698828 
L 357.860222 308.578008 
L 359.166504 304.675272 
L 361.779067 316.6274 
L 363.085349 316.74936 
L 364.391631 321.017977 
L 365.697913 315.529755 
L 367.004194 316.017597 
L 368.310476 320.896017 
L 369.616758 318.212886 
L 370.923039 323.579147 
L 372.229321 315.773676 
L 373.535603 322.847385 
L 374.841885 321.017977 
L 376.148166 322.969345 
L 377.454448 323.579147 
L 378.76073 324.676792 
L 380.067011 321.62778 
L 381.373293 321.871701 
L 382.679575 321.139938 
L 383.985856 326.140318 
L 385.292138 318.090926 
L 386.59842 319.18857 
L 387.904702 324.432871 
L 389.210983 328.335606 
L 390.517265 319.31053 
L 391.823547 322.725424 
L 393.129828 320.652096 
L 394.43611 320.896017 
L 395.742392 320.774056 
L 397.048673 324.676792 
L 398.354955 326.75012 
L 399.661237 320.652096 
L 400.967519 320.408175 
L 402.2738 318.090926 
L 403.580082 325.286594 
L 404.886364 322.481503 
L 406.192645 328.335606 
L 407.498927 329.31129 
L 408.805209 326.62816 
L 410.11149 322.481503 
L 411.417772 324.18895 
L 412.724054 325.164634 
L 414.030336 324.798752 
L 415.336617 326.75012 
L 416.642899 328.335606 
L 417.949181 323.091305 
L 419.255462 326.994041 
L 420.561744 327.847764 
L 423.174307 326.384239 
L 424.480589 327.359923 
L 425.786871 323.091305 
L 427.093153 327.237962 
L 428.399434 326.994041 
L 429.705716 325.164634 
L 431.011998 326.018357 
L 432.318279 326.384239 
L 433.624561 327.237962 
L 434.930843 329.31129 
L 436.237124 327.116002 
L 437.543406 326.75012 
L 438.849688 328.213646 
L 440.15597 328.091685 
L 441.462251 327.603843 
L 442.768533 328.823448 
L 444.074815 329.799132 
L 445.381096 327.359923 
L 446.687378 330.774816 
L 449.299941 330.774816 
L 450.606223 323.945029 
L 451.912505 330.774816 
L 458.443913 330.774816 
L 459.750195 311.505059 
L 461.056477 330.774816 
L 467.587885 330.774816 
L 468.894167 313.334467 
L 470.200449 330.774816 
L 478.038139 330.774816 
L 479.344421 317.115242 
L 480.650702 330.774816 
L 487.182111 330.774816 
L 488.488393 320.164254 
L 489.794674 330.774816 
L 496.326083 330.774816 
L 497.632364 326.994041 
L 498.938646 330.774816 
L 513.307745 330.774816 
L 514.614027 314.676032 
L 515.920308 330.774816 
L 522.451717 330.774816 
L 523.757998 316.871321 
L 525.06428 330.774816 
L 532.90197 330.774816 
L 534.208252 325.164634 
L 535.514534 330.774816 
L 542.045942 330.774816 
L 543.352224 320.896017 
L 544.658506 330.774816 
L 549.883632 330.774816 
L 551.189914 324.31091 
L 552.496196 330.774816 
L 560.333886 330.774816 
L 561.640168 302.236062 
L 562.946449 330.774816 
L 569.477858 330.774816 
L 570.78414 294.18667 
L 572.090421 330.774816 
L 578.62183 330.774816 
L 579.928112 276.868281 
L 581.234393 330.774816 
L 587.765802 330.774816 
L 589.072083 291.50354 
L 590.378365 330.774816 
L 596.909774 330.774816 
L 598.216055 294.796473 
L 599.522337 330.774816 
L 606.053746 330.774816 
L 607.360027 301.74822 
L 608.666309 330.774816 
L 615.197718 330.774816 
L 616.503999 302.358023 
L 617.810281 330.774816 
L 632.17938 330.774816 
L 633.485661 291.259619 
L 634.791943 330.774816 
L 641.323352 330.774816 
L 642.629633 184.300272 
L 643.935915 330.774816 
L 645.242197 302.601944 
L 646.548478 318.456807 
L 649.161042 309.675652 
L 650.467323 316.871321 
L 653.079887 305.285074 
L 654.386169 314.676032 
L 655.69245 322.725424 
L 656.998732 311.017217 
L 658.305014 306.870561 
L 659.611295 307.602324 
L 660.917577 307.114482 
L 662.223859 311.139178 
L 663.53014 283.941989 
L 664.836422 294.796473 
L 666.142704 311.017217 
L 667.448986 297.845485 
L 668.755267 297.601564 
L 670.061549 294.918433 
L 671.367831 292.967065 
L 672.674112 314.066229 
L 673.980394 310.651336 
L 676.592957 288.332567 
L 677.899239 262.598904 
L 679.205521 268.087126 
L 680.511803 267.965166 
L 681.818084 272.477704 
L 683.124366 303.455667 
L 684.430648 259.671853 
L 685.736929 226.010758 
L 687.043211 229.303691 
L 688.349493 260.281655 
L 689.655774 259.06205 
L 690.962056 258.452248 
L 692.268338 281.50278 
L 693.57462 283.210226 
L 694.880901 272.599664 
L 696.187183 244.670713 
L 697.493465 271.380059 
L 698.799746 271.745941 
L 700.106028 294.308631 
L 701.41231 313.090546 
L 702.718591 291.74746 
L 704.024873 308.090166 
L 705.331155 291.991381 
L 706.637437 296.381959 
L 707.943718 290.040014 
L 709.25 316.017597 
L 710.556282 301.74822 
L 711.862563 315.285834 
L 713.168845 303.821549 
L 714.475127 293.698828 
L 715.781409 302.358023 
L 717.08769 313.944269 
L 718.393972 312.480743 
L 719.700254 307.724284 
L 721.006535 311.383099 
L 722.312817 300.406655 
L 723.619099 315.041913 
L 724.92538 316.505439 
L 726.231662 314.18819 
L 727.537944 323.091305 
L 728.844226 315.895637 
L 730.150507 323.579147 
L 731.456789 314.432111 
L 732.763071 309.675652 
L 734.069352 320.042293 
L 735.375634 319.066609 
L 736.681916 321.261898 
L 737.988197 325.286594 
L 739.294479 323.213266 
L 740.600761 325.774436 
L 741.907043 320.774056 
L 743.213324 324.676792 
L 744.519606 326.872081 
L 745.825888 321.505819 
L 747.132169 327.847764 
L 748.438451 324.31091 
L 749.744733 322.359543 
L 751.051014 324.432871 
L 752.357296 319.676412 
L 753.663578 323.579147 
L 754.96986 324.432871 
L 756.276141 328.823448 
L 757.582423 327.359923 
L 758.888705 324.18895 
L 760.194986 327.237962 
L 761.501268 327.725804 
L 762.80755 326.018357 
L 764.113831 328.945409 
L 765.420113 328.579527 
L 766.726395 326.872081 
L 768.032677 326.384239 
L 769.338958 325.652476 
L 770.64524 329.433251 
L 771.951522 326.384239 
L 773.257803 329.067369 
L 774.564085 330.774816 
L 775.870367 327.847764 
L 777.176648 330.165014 
L 778.48293 327.359923 
L 779.789212 330.774816 
L 782.401775 330.774816 
L 783.708057 329.18933 
L 785.014339 329.677172 
L 786.32062 326.994041 
L 787.626902 328.701488 
L 788.933184 327.847764 
L 790.239465 327.969725 
L 791.545747 328.579527 
L 792.852029 329.799132 
L 794.158311 328.213646 
L 795.464592 328.579527 
L 796.770874 328.823448 
L 798.077156 330.774816 
L 800.689719 330.774816 
L 801.996001 322.237582 
L 803.302282 330.774816 
L 804.608564 328.701488 
L 805.914846 328.823448 
L 807.221128 327.725804 
L 808.527409 328.823448 
L 809.833691 330.530895 
L 811.139973 329.18933 
L 812.446254 329.921093 
L 813.752536 330.408935 
L 815.058818 328.335606 
L 816.365099 329.677172 
L 817.671381 329.677172 
L 818.977663 330.774816 
L 820.283945 329.799132 
L 821.590226 329.799132 
L 822.896508 327.116002 
L 824.20279 329.921093 
L 825.509071 329.433251 
L 826.815353 330.530895 
L 828.121635 329.921093 
L 829.427917 330.530895 
L 830.734198 329.433251 
L 832.04048 330.774816 
L 834.653043 330.774816 
L 835.959325 319.676412 
L 837.265607 330.165014 
L 838.571888 330.043053 
L 839.87817 330.286974 
L 841.184452 330.286974 
L 842.490734 329.921093 
L 843.797015 329.677172 
L 845.103297 330.774816 
L 846.409579 329.799132 
L 847.71586 330.774816 
L 849.022142 329.18933 
L 850.328424 330.286974 
L 851.634705 330.530895 
L 852.940987 330.286974 
L 855.553551 330.530895 
L 856.859832 330.774816 
L 858.166114 330.408935 
L 859.472396 330.286974 
L 860.778677 330.408935 
L 862.084959 330.165014 
L 863.391241 330.774816 
L 864.697522 330.774816 
L 866.003804 329.921093 
L 867.310086 330.286974 
L 868.616368 330.774816 
L 869.922649 330.165014 
L 871.228931 330.408935 
L 872.535213 330.408935 
L 873.841494 330.774816 
L 877.760339 330.774816 
L 879.066621 329.921093 
L 880.372903 330.408935 
L 881.679185 330.774816 
L 882.985466 330.286974 
L 884.291748 330.774816 
L 911.723664 330.774816 
L 913.029945 243.93895 
L 914.336227 330.774816 
L 922.173917 330.774816 
L 923.480199 330.043053 
L 924.786481 330.774816 
L 928.705326 330.774816 
L 930.011607 330.043053 
L 931.317889 330.774816 
L 937.849298 330.774816 
L 939.155579 330.286974 
L 940.461861 330.774816 
L 946.99327 330.774816 
L 948.299551 330.043053 
L 949.605833 330.774816 
L 957.443523 330.774816 
L 958.749805 325.896397 
L 960.056087 330.774816 
L 974.425185 330.774816 
L 975.731467 281.990622 
L 977.037749 330.774816 
L 982.262876 330.774816 
L 983.569157 299.309011 
L 984.875439 330.774816 
L 988.794284 330.774816 
L 990.100566 273.453388 
L 991.406847 330.774816 
L 997.938256 330.774816 
L 999.244538 209.546093 
L 1000.550819 330.774816 
L 1007.082228 330.774816 
L 1008.38851 147.712126 
L 1009.694791 330.774816 
L 1016.2262 330.774816 
L 1017.532481 50.8755 
L 1018.838763 330.774816 
L 1021.451327 330.774816 
L 1022.757608 246.744041 
L 1024.06389 330.774816 
L 1029.289017 330.774816 
L 1030.595298 67.949968 
L 1031.90158 330.774816 
L 1034.514144 330.774816 
L 1035.820425 127.466685 
L 1037.126707 330.774816 
L 1043.658115 330.774816 
L 1044.964397 204.301792 
L 1046.270679 330.774816 
L 1047.576961 246.744041 
L 1048.883242 330.774816 
L 1052.802087 330.774816 
L 1054.108369 141.979983 
L 1055.414651 330.774816 
L 1061.946059 330.774816 
L 1063.252341 93.683631 
L 1064.558623 330.774816 
L 1071.090031 330.774816 
L 1072.396313 72.828388 
L 1073.702595 330.774816 
L 1080.234003 330.774816 
L 1081.540285 158.81053 
L 1082.846567 330.774816 
L 1089.377975 330.774816 
L 1090.684257 258.94009 
L 1091.990538 330.774816 
L 1098.521947 330.774816 
L 1099.828229 303.211746 
L 1101.13451 330.774816 
L 1107.665919 330.774816 
L 1108.972201 314.676032 
L 1110.278482 330.774816 
L 1116.809891 330.774816 
L 1118.116172 321.139938 
L 1119.422454 330.774816 
L 1125.953863 330.774816 
L 1127.260144 323.701108 
L 1128.566426 330.774816 
L 1135.097835 330.774816 
L 1136.404116 320.896017 
L 1137.710398 330.774816 
L 1144.241806 330.774816 
L 1145.548088 325.774436 
L 1146.85437 330.774816 
L 1154.69206 330.774816 
L 1155.998342 326.018357 
L 1157.304623 330.774816 
L 1163.836032 330.774816 
L 1165.142314 326.872081 
L 1166.448595 330.774816 
L 1172.980004 330.774816 
L 1174.286286 326.994041 
L 1175.592567 330.774816 
L 1183.430258 330.774816 
L 1184.736539 327.237962 
L 1186.042821 330.774816 
L 1191.267948 330.774816 
L 1192.574229 324.066989 
L 1193.880511 330.774816 
L 1200.41192 330.774816 
L 1201.718201 325.896397 
L 1203.024483 330.774816 
L 1209.555892 330.774816 
L 1210.862173 326.140318 
L 1212.168455 330.774816 
L 1218.699863 330.774816 
L 1220.006145 323.091305 
L 1221.312427 330.774816 
L 1229.150117 330.774816 
L 1230.456399 318.456807 
L 1231.76268 330.774816 
L 1236.987807 330.774816 
L 1238.294089 305.528995 
L 1239.600371 330.774816 
L 1246.131779 330.774816 
L 1247.438061 291.259619 
L 1248.744343 330.774816 
L 1255.275751 330.774816 
L 1256.582033 285.405515 
L 1257.888314 330.774816 
L 1264.419723 330.774816 
L 1265.726005 281.258859 
L 1267.032286 330.774816 
L 1273.563695 330.774816 
L 1274.869977 292.845105 
L 1276.176258 330.774816 
L 1282.707667 330.774816 
L 1284.013948 307.480363 
L 1285.32023 330.774816 
L 1291.851639 330.774816 
L 1293.15792 315.285834 
L 1294.464202 330.774816 
L 1300.995611 330.774816 
L 1300.995611 330.774816 
" clip-path="url(#p78cbfb50d1)" style="fill: none; stroke: #0000ff; stroke-width: 1.5; stroke-linecap: square"/>
   </g>
   <g id="line2d_18">
    <path d="M 1061.946059 196.801338 
L 1063.252341 319.474441 
L 1064.558623 313.514598 
L 1065.864904 353.2755 
L 1067.171186 303.034102 
L 1068.477468 326.366889 
L 1069.78375 331.559027 
L 1071.090031 160.004175 
L 1072.396313 320.717029 
L 1073.702595 322.86899 
L 1075.008876 350.43786 
L 1076.315158 306.370963 
L 1077.62144 328.43896 
L 1078.927721 329.656086 
L 1080.234003 139.233909 
L 1081.540285 330.790242 
L 1082.846567 329.158309 
L 1084.152848 324.636207 
L 1085.45913 333.743151 
L 1086.765412 328.924689 
L 1088.071693 329.210004 
L 1089.377975 184.433924 
L 1090.684257 335.991232 
L 1091.990538 331.821828 
L 1093.29682 311.290841 
L 1094.603102 347.878625 
L 1095.909384 329.038552 
L 1097.215665 329.105435 
L 1098.521947 253.336798 
L 1099.828229 333.648855 
L 1101.13451 330.954681 
L 1102.440792 317.314585 
L 1103.747074 341.510877 
L 1105.053355 329.065244 
L 1106.359637 329.080922 
L 1107.665919 295.268987 
L 1108.972201 330.754925 
L 1110.278482 329.769433 
L 1111.584764 324.752143 
L 1112.891046 333.644257 
L 1114.197327 329.071501 
L 1115.503609 329.075176 
L 1116.809891 311.774469 
L 1118.116172 329.801225 
L 1119.422454 329.376294 
L 1120.728736 327.203102 
L 1122.035018 331.051808 
L 1123.341299 329.072967 
L 1124.647581 329.073829 
L 1125.953863 319.407685 
L 1127.260144 329.319558 
L 1128.566426 329.176047 
L 1129.872708 328.440891 
L 1131.178989 329.7425 
L 1132.485271 329.073311 
L 1133.791553 329.073513 
L 1135.097835 322.688457 
L 1136.404116 328.741658 
L 1137.710398 328.934377 
L 1139.01668 329.925925 
L 1140.322961 328.171608 
L 1141.629243 329.073392 
L 1142.935525 329.073439 
L 1144.241806 321.824073 
L 1145.548088 329.28697 
L 1146.85437 329.162824 
L 1148.160652 328.524651 
L 1149.466933 329.653913 
L 1150.773215 329.073411 
L 1152.079497 329.073422 
L 1153.385778 324.462236 
L 1154.69206 329.511276 
L 1155.998342 328.805124 
L 1157.304623 327.759111 
L 1158.610905 331.424248 
L 1159.917187 327.845694 
L 1161.223469 329.073418 
L 1162.52975 327.992476 
L 1163.836032 326.406288 
L 1165.142314 329.008818 
L 1166.448595 328.764606 
L 1167.754877 329.628877 
L 1169.061159 328.780979 
L 1170.36744 329.073417 
L 1171.673722 328.820025 
L 1172.980004 326.175564 
L 1174.286286 329.001938 
L 1175.592567 328.977434 
L 1176.898849 329.348389 
L 1178.205131 328.85173 
L 1179.511412 329.073416 
L 1180.817694 329.014017 
L 1182.123976 326.192498 
L 1183.430258 329.349875 
L 1186.042821 328.243762 
L 1187.349103 330.681502 
L 1188.655384 328.160496 
L 1189.961666 329.059492 
L 1191.267948 328.398079 
L 1192.574229 326.441702 
L 1193.880511 329.025753 
L 1195.186793 330.630558 
L 1196.493075 327.014122 
L 1197.799356 329.605026 
L 1199.105638 329.070152 
L 1200.41192 325.00902 
L 1201.718201 328.51348 
L 1203.024483 329.086107 
L 1204.330765 329.292009 
L 1205.637046 328.745577 
L 1206.943328 329.198035 
L 1208.24961 329.072651 
L 1209.555892 325.279862 
L 1210.862173 328.880425 
L 1213.474737 329.283293 
L 1214.781018 328.828758 
L 1216.0873 329.102629 
L 1217.393582 329.073237 
L 1218.699863 325.485392 
L 1220.006145 328.658004 
L 1221.312427 328.913032 
L 1222.618709 330.073841 
L 1223.92499 328.009834 
L 1225.231272 329.080264 
L 1226.537554 329.073374 
L 1227.843835 323.758077 
L 1229.150117 329.571923 
L 1230.456399 328.115696 
L 1231.76268 327.286858 
L 1233.068962 333.449557 
L 1234.375244 325.895539 
L 1235.681526 329.073407 
L 1236.987807 327.827409 
L 1238.294089 319.620037 
L 1239.600371 328.8003 
L 1240.906652 335.214838 
L 1242.212934 321.12805 
L 1243.519216 330.925262 
L 1244.825497 329.073414 
L 1246.131779 314.080243 
L 1247.438061 325.063087 
L 1248.744343 328.257976 
L 1250.050624 335.12384 
L 1251.356906 322.333501 
L 1252.663188 329.507521 
L 1253.969469 329.073416 
L 1255.275751 302.54836 
L 1256.582033 326.889795 
L 1257.888314 328.361496 
L 1259.194596 333.687221 
L 1260.500878 324.113205 
L 1261.80716 329.175178 
L 1263.113441 329.073416 
L 1264.419723 296.43614 
L 1265.726005 327.378266 
L 1267.032286 328.410998 
L 1268.338568 333.195607 
L 1269.64485 324.694198 
L 1270.951131 329.097271 
L 1272.257413 329.073416 
L 1273.563695 292.58866 
L 1274.869977 328.914545 
L 1276.176258 329.018014 
L 1277.48254 329.426857 
L 1278.788822 328.695163 
L 1280.095103 329.079008 
L 1281.401385 329.073416 
L 1282.707667 298.43362 
L 1284.013948 329.765823 
L 1285.32023 329.365992 
L 1286.626512 327.281303 
L 1287.932794 330.968132 
L 1289.239075 329.074727 
L 1290.545357 329.073416 
L 1291.851639 308.326149 
L 1293.15792 329.571532 
L 1294.464202 329.282629 
L 1295.770484 327.790405 
L 1297.076766 330.430377 
L 1298.383047 329.073724 
L 1299.689329 329.073416 
L 1300.995611 315.190392 
L 1300.995611 315.190392 
" clip-path="url(#p78cbfb50d1)" style="fill: none; stroke: #ffa500; stroke-width: 1.5; stroke-linecap: square"/>
   </g>
   <g id="line2d_19">
    <path d="M 1300.995611 315.190392 
L 1302.301892 328.911579 
L 1303.608174 328.82886 
L 1304.914456 329.229707 
L 1306.220737 328.864732 
L 1307.527019 328.824566 
L 1308.833301 328.687006 
L 1310.139583 316.535363 
L 1311.445864 327.706821 
L 1312.752146 327.682058 
L 1314.058428 327.835886 
L 1315.364709 327.680443 
L 1316.670991 327.634776 
L 1317.977273 327.580272 
" clip-path="url(#p78cbfb50d1)" style="fill: none; stroke: #ff0000; stroke-width: 1.5; stroke-linecap: square"/>
   </g>
   <g id="patch_3">
    <path d="M 39.65 368.3955 
L 39.65 35.7555 
" style="fill: none; stroke: #000000; stroke-width: 0.8; stroke-linejoin: miter; stroke-linecap: square"/>
   </g>
   <g id="patch_4">
    <path d="M 1378.85 368.3955 
L 1378.85 35.7555 
" style="fill: none; stroke: #000000; stroke-width: 0.8; stroke-linejoin: miter; stroke-linecap: square"/>
   </g>
   <g id="patch_5">
    <path d="M 39.65 368.3955 
L 1378.85 368.3955 
" style="fill: none; stroke: #000000; stroke-width: 0.8; stroke-linejoin: miter; stroke-linecap: square"/>
   </g>
   <g id="patch_6">
    <path d="M 39.65 35.7555 
L 1378.85 35.7555 
" style="fill: none; stroke: #000000; stroke-width: 0.8; stroke-linejoin: miter; stroke-linecap: square"/>
   </g>
   <g id="text_17">
    <!-- Daily Confirmed Cases Forecasting - Madagascar -->
    <g transform="translate(562.355937 16.318125)scale(0.12 -0.12)">
     <defs>
      <path id="DejaVuSans-44" d="M 1259 4147 
L 1259 519 
L 2022 519 
Q 2988 519 3436 956 
Q 3884 1394 3884 2338 
Q 3884 3275 3436 3711 
Q 2988 4147 2022 4147 
L 1259 4147 
z
M 628 4666 
L 1925 4666 
Q 3281 4666 3915 4102 
Q 4550 3538 4550 2338 
Q 4550 1131 3912 565 
Q 3275 0 1925 0 
L 628 0 
L 628 4666 
z
" transform="scale(0.015625)"/>
      <path id="DejaVuSans-61" d="M 2194 1759 
Q 1497 1759 1228 1600 
Q 959 1441 959 1056 
Q 959 750 1161 570 
Q 1363 391 1709 391 
Q 2188 391 2477 730 
Q 2766 1069 2766 1631 
L 2766 1759 
L 2194 1759 
z
M 3341 1997 
L 3341 0 
L 2766 0 
L 2766 531 
Q 2569 213 2275 61 
Q 1981 -91 1556 -91 
Q 1019 -91 701 211 
Q 384 513 384 1019 
Q 384 1609 779 1909 
Q 1175 2209 1959 2209 
L 2766 2209 
L 2766 2266 
Q 2766 2663 2505 2880 
Q 2244 3097 1772 3097 
Q 1472 3097 1187 3025 
Q 903 2953 641 2809 
L 641 3341 
Q 956 3463 1253 3523 
Q 1550 3584 1831 3584 
Q 2591 3584 2966 3190 
Q 3341 2797 3341 1997 
z
" transform="scale(0.015625)"/>
      <path id="DejaVuSans-69" d="M 603 3500 
L 1178 3500 
L 1178 0 
L 603 0 
L 603 3500 
z
M 603 4863 
L 1178 4863 
L 1178 4134 
L 603 4134 
L 603 4863 
z
" transform="scale(0.015625)"/>
      <path id="DejaVuSans-6c" d="M 603 4863 
L 1178 4863 
L 1178 0 
L 603 0 
L 603 4863 
z
" transform="scale(0.015625)"/>
      <path id="DejaVuSans-79" d="M 2059 -325 
Q 1816 -950 1584 -1140 
Q 1353 -1331 966 -1331 
L 506 -1331 
L 506 -850 
L 844 -850 
Q 1081 -850 1212 -737 
Q 1344 -625 1503 -206 
L 1606 56 
L 191 3500 
L 800 3500 
L 1894 763 
L 2988 3500 
L 3597 3500 
L 2059 -325 
z
" transform="scale(0.015625)"/>
      <path id="DejaVuSans-20" transform="scale(0.015625)"/>
      <path id="DejaVuSans-43" d="M 4122 4306 
L 4122 3641 
Q 3803 3938 3442 4084 
Q 3081 4231 2675 4231 
Q 1875 4231 1450 3742 
Q 1025 3253 1025 2328 
Q 1025 1406 1450 917 
Q 1875 428 2675 428 
Q 3081 428 3442 575 
Q 3803 722 4122 1019 
L 4122 359 
Q 3791 134 3420 21 
Q 3050 -91 2638 -91 
Q 1578 -91 968 557 
Q 359 1206 359 2328 
Q 359 3453 968 4101 
Q 1578 4750 2638 4750 
Q 3056 4750 3426 4639 
Q 3797 4528 4122 4306 
z
" transform="scale(0.015625)"/>
      <path id="DejaVuSans-6f" d="M 1959 3097 
Q 1497 3097 1228 2736 
Q 959 2375 959 1747 
Q 959 1119 1226 758 
Q 1494 397 1959 397 
Q 2419 397 2687 759 
Q 2956 1122 2956 1747 
Q 2956 2369 2687 2733 
Q 2419 3097 1959 3097 
z
M 1959 3584 
Q 2709 3584 3137 3096 
Q 3566 2609 3566 1747 
Q 3566 888 3137 398 
Q 2709 -91 1959 -91 
Q 1206 -91 779 398 
Q 353 888 353 1747 
Q 353 2609 779 3096 
Q 1206 3584 1959 3584 
z
" transform="scale(0.015625)"/>
      <path id="DejaVuSans-6e" d="M 3513 2113 
L 3513 0 
L 2938 0 
L 2938 2094 
Q 2938 2591 2744 2837 
Q 2550 3084 2163 3084 
Q 1697 3084 1428 2787 
Q 1159 2491 1159 1978 
L 1159 0 
L 581 0 
L 581 3500 
L 1159 3500 
L 1159 2956 
Q 1366 3272 1645 3428 
Q 1925 3584 2291 3584 
Q 2894 3584 3203 3211 
Q 3513 2838 3513 2113 
z
" transform="scale(0.015625)"/>
      <path id="DejaVuSans-66" d="M 2375 4863 
L 2375 4384 
L 1825 4384 
Q 1516 4384 1395 4259 
Q 1275 4134 1275 3809 
L 1275 3500 
L 2222 3500 
L 2222 3053 
L 1275 3053 
L 1275 0 
L 697 0 
L 697 3053 
L 147 3053 
L 147 3500 
L 697 3500 
L 697 3744 
Q 697 4328 969 4595 
Q 1241 4863 1831 4863 
L 2375 4863 
z
" transform="scale(0.015625)"/>
      <path id="DejaVuSans-72" d="M 2631 2963 
Q 2534 3019 2420 3045 
Q 2306 3072 2169 3072 
Q 1681 3072 1420 2755 
Q 1159 2438 1159 1844 
L 1159 0 
L 581 0 
L 581 3500 
L 1159 3500 
L 1159 2956 
Q 1341 3275 1631 3429 
Q 1922 3584 2338 3584 
Q 2397 3584 2469 3576 
Q 2541 3569 2628 3553 
L 2631 2963 
z
" transform="scale(0.015625)"/>
      <path id="DejaVuSans-6d" d="M 3328 2828 
Q 3544 3216 3844 3400 
Q 4144 3584 4550 3584 
Q 5097 3584 5394 3201 
Q 5691 2819 5691 2113 
L 5691 0 
L 5113 0 
L 5113 2094 
Q 5113 2597 4934 2840 
Q 4756 3084 4391 3084 
Q 3944 3084 3684 2787 
Q 3425 2491 3425 1978 
L 3425 0 
L 2847 0 
L 2847 2094 
Q 2847 2600 2669 2842 
Q 2491 3084 2119 3084 
Q 1678 3084 1418 2786 
Q 1159 2488 1159 1978 
L 1159 0 
L 581 0 
L 581 3500 
L 1159 3500 
L 1159 2956 
Q 1356 3278 1631 3431 
Q 1906 3584 2284 3584 
Q 2666 3584 2933 3390 
Q 3200 3197 3328 2828 
z
" transform="scale(0.015625)"/>
      <path id="DejaVuSans-65" d="M 3597 1894 
L 3597 1613 
L 953 1613 
Q 991 1019 1311 708 
Q 1631 397 2203 397 
Q 2534 397 2845 478 
Q 3156 559 3463 722 
L 3463 178 
Q 3153 47 2828 -22 
Q 2503 -91 2169 -91 
Q 1331 -91 842 396 
Q 353 884 353 1716 
Q 353 2575 817 3079 
Q 1281 3584 2069 3584 
Q 2775 3584 3186 3129 
Q 3597 2675 3597 1894 
z
M 3022 2063 
Q 3016 2534 2758 2815 
Q 2500 3097 2075 3097 
Q 1594 3097 1305 2825 
Q 1016 2553 972 2059 
L 3022 2063 
z
" transform="scale(0.015625)"/>
      <path id="DejaVuSans-64" d="M 2906 2969 
L 2906 4863 
L 3481 4863 
L 3481 0 
L 2906 0 
L 2906 525 
Q 2725 213 2448 61 
Q 2172 -91 1784 -91 
Q 1150 -91 751 415 
Q 353 922 353 1747 
Q 353 2572 751 3078 
Q 1150 3584 1784 3584 
Q 2172 3584 2448 3432 
Q 2725 3281 2906 2969 
z
M 947 1747 
Q 947 1113 1208 752 
Q 1469 391 1925 391 
Q 2381 391 2643 752 
Q 2906 1113 2906 1747 
Q 2906 2381 2643 2742 
Q 2381 3103 1925 3103 
Q 1469 3103 1208 2742 
Q 947 2381 947 1747 
z
" transform="scale(0.015625)"/>
      <path id="DejaVuSans-73" d="M 2834 3397 
L 2834 2853 
Q 2591 2978 2328 3040 
Q 2066 3103 1784 3103 
Q 1356 3103 1142 2972 
Q 928 2841 928 2578 
Q 928 2378 1081 2264 
Q 1234 2150 1697 2047 
L 1894 2003 
Q 2506 1872 2764 1633 
Q 3022 1394 3022 966 
Q 3022 478 2636 193 
Q 2250 -91 1575 -91 
Q 1294 -91 989 -36 
Q 684 19 347 128 
L 347 722 
Q 666 556 975 473 
Q 1284 391 1588 391 
Q 1994 391 2212 530 
Q 2431 669 2431 922 
Q 2431 1156 2273 1281 
Q 2116 1406 1581 1522 
L 1381 1569 
Q 847 1681 609 1914 
Q 372 2147 372 2553 
Q 372 3047 722 3315 
Q 1072 3584 1716 3584 
Q 2034 3584 2315 3537 
Q 2597 3491 2834 3397 
z
" transform="scale(0.015625)"/>
      <path id="DejaVuSans-46" d="M 628 4666 
L 3309 4666 
L 3309 4134 
L 1259 4134 
L 1259 2759 
L 3109 2759 
L 3109 2228 
L 1259 2228 
L 1259 0 
L 628 0 
L 628 4666 
z
" transform="scale(0.015625)"/>
      <path id="DejaVuSans-63" d="M 3122 3366 
L 3122 2828 
Q 2878 2963 2633 3030 
Q 2388 3097 2138 3097 
Q 1578 3097 1268 2742 
Q 959 2388 959 1747 
Q 959 1106 1268 751 
Q 1578 397 2138 397 
Q 2388 397 2633 464 
Q 2878 531 3122 666 
L 3122 134 
Q 2881 22 2623 -34 
Q 2366 -91 2075 -91 
Q 1284 -91 818 406 
Q 353 903 353 1747 
Q 353 2603 823 3093 
Q 1294 3584 2113 3584 
Q 2378 3584 2631 3529 
Q 2884 3475 3122 3366 
z
" transform="scale(0.015625)"/>
      <path id="DejaVuSans-74" d="M 1172 4494 
L 1172 3500 
L 2356 3500 
L 2356 3053 
L 1172 3053 
L 1172 1153 
Q 1172 725 1289 603 
Q 1406 481 1766 481 
L 2356 481 
L 2356 0 
L 1766 0 
Q 1100 0 847 248 
Q 594 497 594 1153 
L 594 3053 
L 172 3053 
L 172 3500 
L 594 3500 
L 594 4494 
L 1172 4494 
z
" transform="scale(0.015625)"/>
      <path id="DejaVuSans-67" d="M 2906 1791 
Q 2906 2416 2648 2759 
Q 2391 3103 1925 3103 
Q 1463 3103 1205 2759 
Q 947 2416 947 1791 
Q 947 1169 1205 825 
Q 1463 481 1925 481 
Q 2391 481 2648 825 
Q 2906 1169 2906 1791 
z
M 3481 434 
Q 3481 -459 3084 -895 
Q 2688 -1331 1869 -1331 
Q 1566 -1331 1297 -1286 
Q 1028 -1241 775 -1147 
L 775 -588 
Q 1028 -725 1275 -790 
Q 1522 -856 1778 -856 
Q 2344 -856 2625 -561 
Q 2906 -266 2906 331 
L 2906 616 
Q 2728 306 2450 153 
Q 2172 0 1784 0 
Q 1141 0 747 490 
Q 353 981 353 1791 
Q 353 2603 747 3093 
Q 1141 3584 1784 3584 
Q 2172 3584 2450 3431 
Q 2728 3278 2906 2969 
L 2906 3500 
L 3481 3500 
L 3481 434 
z
" transform="scale(0.015625)"/>
      <path id="DejaVuSans-4d" d="M 628 4666 
L 1569 4666 
L 2759 1491 
L 3956 4666 
L 4897 4666 
L 4897 0 
L 4281 0 
L 4281 4097 
L 3078 897 
L 2444 897 
L 1241 4097 
L 1241 0 
L 628 0 
L 628 4666 
z
" transform="scale(0.015625)"/>
     </defs>
     <use xlink:href="#DejaVuSans-44"/>
     <use xlink:href="#DejaVuSans-61" x="77.001953"/>
     <use xlink:href="#DejaVuSans-69" x="138.28125"/>
     <use xlink:href="#DejaVuSans-6c" x="166.064453"/>
     <use xlink:href="#DejaVuSans-79" x="193.847656"/>
     <use xlink:href="#DejaVuSans-20" x="253.027344"/>
     <use xlink:href="#DejaVuSans-43" x="284.814453"/>
     <use xlink:href="#DejaVuSans-6f" x="354.638672"/>
     <use xlink:href="#DejaVuSans-6e" x="415.820312"/>
     <use xlink:href="#DejaVuSans-66" x="479.199219"/>
     <use xlink:href="#DejaVuSans-69" x="514.404297"/>
     <use xlink:href="#DejaVuSans-72" x="542.1875"/>
     <use xlink:href="#DejaVuSans-6d" x="581.550781"/>
     <use xlink:href="#DejaVuSans-65" x="678.962891"/>
     <use xlink:href="#DejaVuSans-64" x="740.486328"/>
     <use xlink:href="#DejaVuSans-20" x="803.962891"/>
     <use xlink:href="#DejaVuSans-43" x="835.75"/>
     <use xlink:href="#DejaVuSans-61" x="905.574219"/>
     <use xlink:href="#DejaVuSans-73" x="966.853516"/>
     <use xlink:href="#DejaVuSans-65" x="1018.953125"/>
     <use xlink:href="#DejaVuSans-73" x="1080.476562"/>
     <use xlink:href="#DejaVuSans-20" x="1132.576172"/>
     <use xlink:href="#DejaVuSans-46" x="1164.363281"/>
     <use xlink:href="#DejaVuSans-6f" x="1218.257812"/>
     <use xlink:href="#DejaVuSans-72" x="1279.439453"/>
     <use xlink:href="#DejaVuSans-65" x="1318.302734"/>
     <use xlink:href="#DejaVuSans-63" x="1379.826172"/>
     <use xlink:href="#DejaVuSans-61" x="1434.806641"/>
     <use xlink:href="#DejaVuSans-73" x="1496.085938"/>
     <use xlink:href="#DejaVuSans-74" x="1548.185547"/>
     <use xlink:href="#DejaVuSans-69" x="1587.394531"/>
     <use xlink:href="#DejaVuSans-6e" x="1615.177734"/>
     <use xlink:href="#DejaVuSans-67" x="1678.556641"/>
     <use xlink:href="#DejaVuSans-20" x="1742.033203"/>
     <use xlink:href="#DejaVuSans-2d" x="1773.820312"/>
     <use xlink:href="#DejaVuSans-20" x="1809.904297"/>
     <use xlink:href="#DejaVuSans-4d" x="1841.691406"/>
     <use xlink:href="#DejaVuSans-61" x="1927.970703"/>
     <use xlink:href="#DejaVuSans-64" x="1989.25"/>
     <use xlink:href="#DejaVuSans-61" x="2052.726562"/>
     <use xlink:href="#DejaVuSans-67" x="2114.005859"/>
     <use xlink:href="#DejaVuSans-61" x="2177.482422"/>
     <use xlink:href="#DejaVuSans-73" x="2238.761719"/>
     <use xlink:href="#DejaVuSans-63" x="2290.861328"/>
     <use xlink:href="#DejaVuSans-61" x="2345.841797"/>
     <use xlink:href="#DejaVuSans-72" x="2407.121094"/>
    </g>
    <!-- ARIMA (4, 0, 0)x(1, 0, 1, 7) (R2 = -0.733749) -->
    <g transform="translate(575.10125 29.7555)scale(0.12 -0.12)">
     <defs>
      <path id="DejaVuSans-41" d="M 2188 4044 
L 1331 1722 
L 3047 1722 
L 2188 4044 
z
M 1831 4666 
L 2547 4666 
L 4325 0 
L 3669 0 
L 3244 1197 
L 1141 1197 
L 716 0 
L 50 0 
L 1831 4666 
z
" transform="scale(0.015625)"/>
      <path id="DejaVuSans-52" d="M 2841 2188 
Q 3044 2119 3236 1894 
Q 3428 1669 3622 1275 
L 4263 0 
L 3584 0 
L 2988 1197 
Q 2756 1666 2539 1819 
Q 2322 1972 1947 1972 
L 1259 1972 
L 1259 0 
L 628 0 
L 628 4666 
L 2053 4666 
Q 2853 4666 3247 4331 
Q 3641 3997 3641 3322 
Q 3641 2881 3436 2590 
Q 3231 2300 2841 2188 
z
M 1259 4147 
L 1259 2491 
L 2053 2491 
Q 2509 2491 2742 2702 
Q 2975 2913 2975 3322 
Q 2975 3731 2742 3939 
Q 2509 4147 2053 4147 
L 1259 4147 
z
" transform="scale(0.015625)"/>
      <path id="DejaVuSans-49" d="M 628 4666 
L 1259 4666 
L 1259 0 
L 628 0 
L 628 4666 
z
" transform="scale(0.015625)"/>
      <path id="DejaVuSans-28" d="M 1984 4856 
Q 1566 4138 1362 3434 
Q 1159 2731 1159 2009 
Q 1159 1288 1364 580 
Q 1569 -128 1984 -844 
L 1484 -844 
Q 1016 -109 783 600 
Q 550 1309 550 2009 
Q 550 2706 781 3412 
Q 1013 4119 1484 4856 
L 1984 4856 
z
" transform="scale(0.015625)"/>
      <path id="DejaVuSans-2c" d="M 750 794 
L 1409 794 
L 1409 256 
L 897 -744 
L 494 -744 
L 750 256 
L 750 794 
z
" transform="scale(0.015625)"/>
      <path id="DejaVuSans-29" d="M 513 4856 
L 1013 4856 
Q 1481 4119 1714 3412 
Q 1947 2706 1947 2009 
Q 1947 1309 1714 600 
Q 1481 -109 1013 -844 
L 513 -844 
Q 928 -128 1133 580 
Q 1338 1288 1338 2009 
Q 1338 2731 1133 3434 
Q 928 4138 513 4856 
z
" transform="scale(0.015625)"/>
      <path id="DejaVuSans-78" d="M 3513 3500 
L 2247 1797 
L 3578 0 
L 2900 0 
L 1881 1375 
L 863 0 
L 184 0 
L 1544 1831 
L 300 3500 
L 978 3500 
L 1906 2253 
L 2834 3500 
L 3513 3500 
z
" transform="scale(0.015625)"/>
      <path id="DejaVuSans-3d" d="M 678 2906 
L 4684 2906 
L 4684 2381 
L 678 2381 
L 678 2906 
z
M 678 1631 
L 4684 1631 
L 4684 1100 
L 678 1100 
L 678 1631 
z
" transform="scale(0.015625)"/>
      <path id="DejaVuSans-2e" d="M 684 794 
L 1344 794 
L 1344 0 
L 684 0 
L 684 794 
z
" transform="scale(0.015625)"/>
      <path id="DejaVuSans-33" d="M 2597 2516 
Q 3050 2419 3304 2112 
Q 3559 1806 3559 1356 
Q 3559 666 3084 287 
Q 2609 -91 1734 -91 
Q 1441 -91 1130 -33 
Q 819 25 488 141 
L 488 750 
Q 750 597 1062 519 
Q 1375 441 1716 441 
Q 2309 441 2620 675 
Q 2931 909 2931 1356 
Q 2931 1769 2642 2001 
Q 2353 2234 1838 2234 
L 1294 2234 
L 1294 2753 
L 1863 2753 
Q 2328 2753 2575 2939 
Q 2822 3125 2822 3475 
Q 2822 3834 2567 4026 
Q 2313 4219 1838 4219 
Q 1578 4219 1281 4162 
Q 984 4106 628 3988 
L 628 4550 
Q 988 4650 1302 4700 
Q 1616 4750 1894 4750 
Q 2613 4750 3031 4423 
Q 3450 4097 3450 3541 
Q 3450 3153 3228 2886 
Q 3006 2619 2597 2516 
z
" transform="scale(0.015625)"/>
      <path id="DejaVuSans-39" d="M 703 97 
L 703 672 
Q 941 559 1184 500 
Q 1428 441 1663 441 
Q 2288 441 2617 861 
Q 2947 1281 2994 2138 
Q 2813 1869 2534 1725 
Q 2256 1581 1919 1581 
Q 1219 1581 811 2004 
Q 403 2428 403 3163 
Q 403 3881 828 4315 
Q 1253 4750 1959 4750 
Q 2769 4750 3195 4129 
Q 3622 3509 3622 2328 
Q 3622 1225 3098 567 
Q 2575 -91 1691 -91 
Q 1453 -91 1209 -44 
Q 966 3 703 97 
z
M 1959 2075 
Q 2384 2075 2632 2365 
Q 2881 2656 2881 3163 
Q 2881 3666 2632 3958 
Q 2384 4250 1959 4250 
Q 1534 4250 1286 3958 
Q 1038 3666 1038 3163 
Q 1038 2656 1286 2365 
Q 1534 2075 1959 2075 
z
" transform="scale(0.015625)"/>
     </defs>
     <use xlink:href="#DejaVuSans-41"/>
     <use xlink:href="#DejaVuSans-52" x="68.408203"/>
     <use xlink:href="#DejaVuSans-49" x="137.890625"/>
     <use xlink:href="#DejaVuSans-4d" x="167.382812"/>
     <use xlink:href="#DejaVuSans-41" x="253.662109"/>
     <use xlink:href="#DejaVuSans-20" x="322.070312"/>
     <use xlink:href="#DejaVuSans-28" x="353.857422"/>
     <use xlink:href="#DejaVuSans-34" x="392.871094"/>
     <use xlink:href="#DejaVuSans-2c" x="456.494141"/>
     <use xlink:href="#DejaVuSans-20" x="488.28125"/>
     <use xlink:href="#DejaVuSans-30" x="520.068359"/>
     <use xlink:href="#DejaVuSans-2c" x="583.691406"/>
     <use xlink:href="#DejaVuSans-20" x="615.478516"/>
     <use xlink:href="#DejaVuSans-30" x="647.265625"/>
     <use xlink:href="#DejaVuSans-29" x="710.888672"/>
     <use xlink:href="#DejaVuSans-78" x="749.902344"/>
     <use xlink:href="#DejaVuSans-28" x="809.082031"/>
     <use xlink:href="#DejaVuSans-31" x="848.095703"/>
     <use xlink:href="#DejaVuSans-2c" x="911.71875"/>
     <use xlink:href="#DejaVuSans-20" x="943.505859"/>
     <use xlink:href="#DejaVuSans-30" x="975.292969"/>
     <use xlink:href="#DejaVuSans-2c" x="1038.916016"/>
     <use xlink:href="#DejaVuSans-20" x="1070.703125"/>
     <use xlink:href="#DejaVuSans-31" x="1102.490234"/>
     <use xlink:href="#DejaVuSans-2c" x="1166.113281"/>
     <use xlink:href="#DejaVuSans-20" x="1197.900391"/>
     <use xlink:href="#DejaVuSans-37" x="1229.6875"/>
     <use xlink:href="#DejaVuSans-29" x="1293.310547"/>
     <use xlink:href="#DejaVuSans-20" x="1332.324219"/>
     <use xlink:href="#DejaVuSans-28" x="1364.111328"/>
     <use xlink:href="#DejaVuSans-52" x="1403.125"/>
     <use xlink:href="#DejaVuSans-32" x="1472.607422"/>
     <use xlink:href="#DejaVuSans-20" x="1536.230469"/>
     <use xlink:href="#DejaVuSans-3d" x="1568.017578"/>
     <use xlink:href="#DejaVuSans-20" x="1651.806641"/>
     <use xlink:href="#DejaVuSans-2d" x="1683.59375"/>
     <use xlink:href="#DejaVuSans-30" x="1719.677734"/>
     <use xlink:href="#DejaVuSans-2e" x="1783.300781"/>
     <use xlink:href="#DejaVuSans-37" x="1815.087891"/>
     <use xlink:href="#DejaVuSans-33" x="1878.710938"/>
     <use xlink:href="#DejaVuSans-33" x="1942.333984"/>
     <use xlink:href="#DejaVuSans-37" x="2005.957031"/>
     <use xlink:href="#DejaVuSans-34" x="2069.580078"/>
     <use xlink:href="#DejaVuSans-39" x="2133.203125"/>
     <use xlink:href="#DejaVuSans-29" x="2196.826172"/>
    </g>
   </g>
   <g id="legend_1">
    <g id="patch_7">
     <path d="M 1274.770313 87.789875 
L 1371.85 87.789875 
Q 1373.85 87.789875 1373.85 85.789875 
L 1373.85 42.7555 
Q 1373.85 40.7555 1371.85 40.7555 
L 1274.770313 40.7555 
Q 1272.770313 40.7555 1272.770313 42.7555 
L 1272.770313 85.789875 
Q 1272.770313 87.789875 1274.770313 87.789875 
z
" style="fill: #ffffff; opacity: 0.8; stroke: #cccccc; stroke-linejoin: miter"/>
    </g>
    <g id="line2d_20">
     <path d="M 1276.770313 48.853937 
L 1286.770313 48.853937 
L 1296.770313 48.853937 
" style="fill: none; stroke: #0000ff; stroke-width: 1.5; stroke-linecap: square"/>
    </g>
    <g id="text_18">
     <!-- Actual Value -->
     <g transform="translate(1304.770313 52.353937)scale(0.1 -0.1)">
      <defs>
       <path id="DejaVuSans-75" d="M 544 1381 
L 544 3500 
L 1119 3500 
L 1119 1403 
Q 1119 906 1312 657 
Q 1506 409 1894 409 
Q 2359 409 2629 706 
Q 2900 1003 2900 1516 
L 2900 3500 
L 3475 3500 
L 3475 0 
L 2900 0 
L 2900 538 
Q 2691 219 2414 64 
Q 2138 -91 1772 -91 
Q 1169 -91 856 284 
Q 544 659 544 1381 
z
M 1991 3584 
L 1991 3584 
z
" transform="scale(0.015625)"/>
       <path id="DejaVuSans-56" d="M 1831 0 
L 50 4666 
L 709 4666 
L 2188 738 
L 3669 4666 
L 4325 4666 
L 2547 0 
L 1831 0 
z
" transform="scale(0.015625)"/>
      </defs>
      <use xlink:href="#DejaVuSans-41"/>
      <use xlink:href="#DejaVuSans-63" x="66.658203"/>
      <use xlink:href="#DejaVuSans-74" x="121.638672"/>
      <use xlink:href="#DejaVuSans-75" x="160.847656"/>
      <use xlink:href="#DejaVuSans-61" x="224.226562"/>
      <use xlink:href="#DejaVuSans-6c" x="285.505859"/>
      <use xlink:href="#DejaVuSans-20" x="313.289062"/>
      <use xlink:href="#DejaVuSans-56" x="345.076172"/>
      <use xlink:href="#DejaVuSans-61" x="405.734375"/>
      <use xlink:href="#DejaVuSans-6c" x="467.013672"/>
      <use xlink:href="#DejaVuSans-75" x="494.796875"/>
      <use xlink:href="#DejaVuSans-65" x="558.175781"/>
     </g>
    </g>
    <g id="line2d_21">
     <path d="M 1276.770313 63.532062 
L 1286.770313 63.532062 
L 1296.770313 63.532062 
" style="fill: none; stroke: #ffa500; stroke-width: 1.5; stroke-linecap: square"/>
    </g>
    <g id="text_19">
     <!-- Check Value -->
     <g transform="translate(1304.770313 67.032062)scale(0.1 -0.1)">
      <defs>
       <path id="DejaVuSans-68" d="M 3513 2113 
L 3513 0 
L 2938 0 
L 2938 2094 
Q 2938 2591 2744 2837 
Q 2550 3084 2163 3084 
Q 1697 3084 1428 2787 
Q 1159 2491 1159 1978 
L 1159 0 
L 581 0 
L 581 4863 
L 1159 4863 
L 1159 2956 
Q 1366 3272 1645 3428 
Q 1925 3584 2291 3584 
Q 2894 3584 3203 3211 
Q 3513 2838 3513 2113 
z
" transform="scale(0.015625)"/>
       <path id="DejaVuSans-6b" d="M 581 4863 
L 1159 4863 
L 1159 1991 
L 2875 3500 
L 3609 3500 
L 1753 1863 
L 3688 0 
L 2938 0 
L 1159 1709 
L 1159 0 
L 581 0 
L 581 4863 
z
" transform="scale(0.015625)"/>
      </defs>
      <use xlink:href="#DejaVuSans-43"/>
      <use xlink:href="#DejaVuSans-68" x="69.824219"/>
      <use xlink:href="#DejaVuSans-65" x="133.203125"/>
      <use xlink:href="#DejaVuSans-63" x="194.726562"/>
      <use xlink:href="#DejaVuSans-6b" x="249.707031"/>
      <use xlink:href="#DejaVuSans-20" x="307.617188"/>
      <use xlink:href="#DejaVuSans-56" x="339.404297"/>
      <use xlink:href="#DejaVuSans-61" x="400.0625"/>
      <use xlink:href="#DejaVuSans-6c" x="461.341797"/>
      <use xlink:href="#DejaVuSans-75" x="489.125"/>
      <use xlink:href="#DejaVuSans-65" x="552.503906"/>
     </g>
    </g>
    <g id="line2d_22">
     <path d="M 1276.770313 78.210187 
L 1286.770313 78.210187 
L 1296.770313 78.210187 
" style="fill: none; stroke: #ff0000; stroke-width: 1.5; stroke-linecap: square"/>
    </g>
    <g id="text_20">
     <!-- Predict Value -->
     <g transform="translate(1304.770313 81.710187)scale(0.1 -0.1)">
      <defs>
       <path id="DejaVuSans-50" d="M 1259 4147 
L 1259 2394 
L 2053 2394 
Q 2494 2394 2734 2622 
Q 2975 2850 2975 3272 
Q 2975 3691 2734 3919 
Q 2494 4147 2053 4147 
L 1259 4147 
z
M 628 4666 
L 2053 4666 
Q 2838 4666 3239 4311 
Q 3641 3956 3641 3272 
Q 3641 2581 3239 2228 
Q 2838 1875 2053 1875 
L 1259 1875 
L 1259 0 
L 628 0 
L 628 4666 
z
" transform="scale(0.015625)"/>
      </defs>
      <use xlink:href="#DejaVuSans-50"/>
      <use xlink:href="#DejaVuSans-72" x="58.552734"/>
      <use xlink:href="#DejaVuSans-65" x="97.416016"/>
      <use xlink:href="#DejaVuSans-64" x="158.939453"/>
      <use xlink:href="#DejaVuSans-69" x="222.416016"/>
      <use xlink:href="#DejaVuSans-63" x="250.199219"/>
      <use xlink:href="#DejaVuSans-74" x="305.179688"/>
      <use xlink:href="#DejaVuSans-20" x="344.388672"/>
      <use xlink:href="#DejaVuSans-56" x="376.175781"/>
      <use xlink:href="#DejaVuSans-61" x="436.833984"/>
      <use xlink:href="#DejaVuSans-6c" x="498.113281"/>
      <use xlink:href="#DejaVuSans-75" x="525.896484"/>
      <use xlink:href="#DejaVuSans-65" x="589.275391"/>
     </g>
    </g>
   </g>
  </g>
 </g>
 <defs>
  <clipPath id="p78cbfb50d1">
   <rect x="39.65" y="35.7555" width="1339.2" height="332.64"/>
  </clipPath>
 </defs>
</svg>
