<?xml version="1.0" encoding="utf-8" standalone="no"?>
<!DOCTYPE svg PUBLIC "-//W3C//DTD SVG 1.1//EN"
  "http://www.w3.org/Graphics/SVG/1.1/DTD/svg11.dtd">
<svg xmlns:xlink="http://www.w3.org/1999/xlink" width="1386.05pt" height="392.273625pt" viewBox="0 0 1386.05 392.273625" xmlns="http://www.w3.org/2000/svg" version="1.1">
 <metadata>
  <rdf:RDF xmlns:dc="http://purl.org/dc/elements/1.1/" xmlns:cc="http://creativecommons.org/ns#" xmlns:rdf="http://www.w3.org/1999/02/22-rdf-syntax-ns#">
   <cc:Work>
    <dc:type rdf:resource="http://purl.org/dc/dcmitype/StillImage"/>
    <dc:date>2022-07-10T19:32:34.192131</dc:date>
    <dc:format>image/svg+xml</dc:format>
    <dc:creator>
     <cc:Agent>
      <dc:title>Matplotlib v3.5.2, https://matplotlib.org/</dc:title>
     </cc:Agent>
    </dc:creator>
   </cc:Work>
  </rdf:RDF>
 </metadata>
 <defs>
  <style type="text/css">*{stroke-linejoin: round; stroke-linecap: butt}</style>
 </defs>
 <g id="figure_1">
  <g id="patch_1">
   <path d="M 0 392.273625 
L 1386.05 392.273625 
L 1386.05 0 
L 0 0 
z
" style="fill: #ffffff"/>
  </g>
  <g id="axes_1">
   <g id="patch_2">
    <path d="M 39.65 368.3955 
L 1378.85 368.3955 
L 1378.85 35.7555 
L 39.65 35.7555 
z
" style="fill: #ffffff"/>
   </g>
   <g id="matplotlib.axis_1">
    <g id="xtick_1">
     <g id="line2d_1">
      <defs>
       <path id="mc57cba75d1" d="M 0 0 
L 0 3.5 
" style="stroke: #000000; stroke-width: 0.8"/>
      </defs>
      <g>
       <use xlink:href="#mc57cba75d1" x="71.122069" y="368.3955" style="stroke: #000000; stroke-width: 0.8"/>
      </g>
     </g>
     <g id="text_1">
      <!-- 2020-01 -->
      <g transform="translate(50.230662 382.993937)scale(0.1 -0.1)">
       <defs>
        <path id="DejaVuSans-32" d="M 1228 531 
L 3431 531 
L 3431 0 
L 469 0 
L 469 531 
Q 828 903 1448 1529 
Q 2069 2156 2228 2338 
Q 2531 2678 2651 2914 
Q 2772 3150 2772 3378 
Q 2772 3750 2511 3984 
Q 2250 4219 1831 4219 
Q 1534 4219 1204 4116 
Q 875 4013 500 3803 
L 500 4441 
Q 881 4594 1212 4672 
Q 1544 4750 1819 4750 
Q 2544 4750 2975 4387 
Q 3406 4025 3406 3419 
Q 3406 3131 3298 2873 
Q 3191 2616 2906 2266 
Q 2828 2175 2409 1742 
Q 1991 1309 1228 531 
z
" transform="scale(0.015625)"/>
        <path id="DejaVuSans-30" d="M 2034 4250 
Q 1547 4250 1301 3770 
Q 1056 3291 1056 2328 
Q 1056 1369 1301 889 
Q 1547 409 2034 409 
Q 2525 409 2770 889 
Q 3016 1369 3016 2328 
Q 3016 3291 2770 3770 
Q 2525 4250 2034 4250 
z
M 2034 4750 
Q 2819 4750 3233 4129 
Q 3647 3509 3647 2328 
Q 3647 1150 3233 529 
Q 2819 -91 2034 -91 
Q 1250 -91 836 529 
Q 422 1150 422 2328 
Q 422 3509 836 4129 
Q 1250 4750 2034 4750 
z
" transform="scale(0.015625)"/>
        <path id="DejaVuSans-2d" d="M 313 2009 
L 1997 2009 
L 1997 1497 
L 313 1497 
L 313 2009 
z
" transform="scale(0.015625)"/>
        <path id="DejaVuSans-31" d="M 794 531 
L 1825 531 
L 1825 4091 
L 703 3866 
L 703 4441 
L 1819 4666 
L 2450 4666 
L 2450 531 
L 3481 531 
L 3481 0 
L 794 0 
L 794 531 
z
" transform="scale(0.015625)"/>
       </defs>
       <use xlink:href="#DejaVuSans-32"/>
       <use xlink:href="#DejaVuSans-30" x="63.623047"/>
       <use xlink:href="#DejaVuSans-32" x="127.246094"/>
       <use xlink:href="#DejaVuSans-30" x="190.869141"/>
       <use xlink:href="#DejaVuSans-2d" x="254.492188"/>
       <use xlink:href="#DejaVuSans-30" x="290.576172"/>
       <use xlink:href="#DejaVuSans-31" x="354.199219"/>
      </g>
     </g>
    </g>
    <g id="xtick_2">
     <g id="line2d_2">
      <g>
       <use xlink:href="#mc57cba75d1" x="192.733884" y="368.3955" style="stroke: #000000; stroke-width: 0.8"/>
      </g>
     </g>
     <g id="text_2">
      <!-- 2020-04 -->
      <g transform="translate(171.842478 382.993937)scale(0.1 -0.1)">
       <defs>
        <path id="DejaVuSans-34" d="M 2419 4116 
L 825 1625 
L 2419 1625 
L 2419 4116 
z
M 2253 4666 
L 3047 4666 
L 3047 1625 
L 3713 1625 
L 3713 1100 
L 3047 1100 
L 3047 0 
L 2419 0 
L 2419 1100 
L 313 1100 
L 313 1709 
L 2253 4666 
z
" transform="scale(0.015625)"/>
       </defs>
       <use xlink:href="#DejaVuSans-32"/>
       <use xlink:href="#DejaVuSans-30" x="63.623047"/>
       <use xlink:href="#DejaVuSans-32" x="127.246094"/>
       <use xlink:href="#DejaVuSans-30" x="190.869141"/>
       <use xlink:href="#DejaVuSans-2d" x="254.492188"/>
       <use xlink:href="#DejaVuSans-30" x="290.576172"/>
       <use xlink:href="#DejaVuSans-34" x="354.199219"/>
      </g>
     </g>
    </g>
    <g id="xtick_3">
     <g id="line2d_3">
      <g>
       <use xlink:href="#mc57cba75d1" x="314.345699" y="368.3955" style="stroke: #000000; stroke-width: 0.8"/>
      </g>
     </g>
     <g id="text_3">
      <!-- 2020-07 -->
      <g transform="translate(293.454293 382.993937)scale(0.1 -0.1)">
       <defs>
        <path id="DejaVuSans-37" d="M 525 4666 
L 3525 4666 
L 3525 4397 
L 1831 0 
L 1172 0 
L 2766 4134 
L 525 4134 
L 525 4666 
z
" transform="scale(0.015625)"/>
       </defs>
       <use xlink:href="#DejaVuSans-32"/>
       <use xlink:href="#DejaVuSans-30" x="63.623047"/>
       <use xlink:href="#DejaVuSans-32" x="127.246094"/>
       <use xlink:href="#DejaVuSans-30" x="190.869141"/>
       <use xlink:href="#DejaVuSans-2d" x="254.492188"/>
       <use xlink:href="#DejaVuSans-30" x="290.576172"/>
       <use xlink:href="#DejaVuSans-37" x="354.199219"/>
      </g>
     </g>
    </g>
    <g id="xtick_4">
     <g id="line2d_4">
      <g>
       <use xlink:href="#mc57cba75d1" x="437.293908" y="368.3955" style="stroke: #000000; stroke-width: 0.8"/>
      </g>
     </g>
     <g id="text_4">
      <!-- 2020-10 -->
      <g transform="translate(416.402502 382.993937)scale(0.1 -0.1)">
       <use xlink:href="#DejaVuSans-32"/>
       <use xlink:href="#DejaVuSans-30" x="63.623047"/>
       <use xlink:href="#DejaVuSans-32" x="127.246094"/>
       <use xlink:href="#DejaVuSans-30" x="190.869141"/>
       <use xlink:href="#DejaVuSans-2d" x="254.492188"/>
       <use xlink:href="#DejaVuSans-31" x="290.576172"/>
       <use xlink:href="#DejaVuSans-30" x="354.199219"/>
      </g>
     </g>
    </g>
    <g id="xtick_5">
     <g id="line2d_5">
      <g>
       <use xlink:href="#mc57cba75d1" x="560.242117" y="368.3955" style="stroke: #000000; stroke-width: 0.8"/>
      </g>
     </g>
     <g id="text_5">
      <!-- 2021-01 -->
      <g transform="translate(539.35071 382.993937)scale(0.1 -0.1)">
       <use xlink:href="#DejaVuSans-32"/>
       <use xlink:href="#DejaVuSans-30" x="63.623047"/>
       <use xlink:href="#DejaVuSans-32" x="127.246094"/>
       <use xlink:href="#DejaVuSans-31" x="190.869141"/>
       <use xlink:href="#DejaVuSans-2d" x="254.492188"/>
       <use xlink:href="#DejaVuSans-30" x="290.576172"/>
       <use xlink:href="#DejaVuSans-31" x="354.199219"/>
      </g>
     </g>
    </g>
    <g id="xtick_6">
     <g id="line2d_6">
      <g>
       <use xlink:href="#mc57cba75d1" x="680.517538" y="368.3955" style="stroke: #000000; stroke-width: 0.8"/>
      </g>
     </g>
     <g id="text_6">
      <!-- 2021-04 -->
      <g transform="translate(659.626132 382.993937)scale(0.1 -0.1)">
       <use xlink:href="#DejaVuSans-32"/>
       <use xlink:href="#DejaVuSans-30" x="63.623047"/>
       <use xlink:href="#DejaVuSans-32" x="127.246094"/>
       <use xlink:href="#DejaVuSans-31" x="190.869141"/>
       <use xlink:href="#DejaVuSans-2d" x="254.492188"/>
       <use xlink:href="#DejaVuSans-30" x="290.576172"/>
       <use xlink:href="#DejaVuSans-34" x="354.199219"/>
      </g>
     </g>
    </g>
    <g id="xtick_7">
     <g id="line2d_7">
      <g>
       <use xlink:href="#mc57cba75d1" x="802.129353" y="368.3955" style="stroke: #000000; stroke-width: 0.8"/>
      </g>
     </g>
     <g id="text_7">
      <!-- 2021-07 -->
      <g transform="translate(781.237947 382.993937)scale(0.1 -0.1)">
       <use xlink:href="#DejaVuSans-32"/>
       <use xlink:href="#DejaVuSans-30" x="63.623047"/>
       <use xlink:href="#DejaVuSans-32" x="127.246094"/>
       <use xlink:href="#DejaVuSans-31" x="190.869141"/>
       <use xlink:href="#DejaVuSans-2d" x="254.492188"/>
       <use xlink:href="#DejaVuSans-30" x="290.576172"/>
       <use xlink:href="#DejaVuSans-37" x="354.199219"/>
      </g>
     </g>
    </g>
    <g id="xtick_8">
     <g id="line2d_8">
      <g>
       <use xlink:href="#mc57cba75d1" x="925.077562" y="368.3955" style="stroke: #000000; stroke-width: 0.8"/>
      </g>
     </g>
     <g id="text_8">
      <!-- 2021-10 -->
      <g transform="translate(904.186156 382.993937)scale(0.1 -0.1)">
       <use xlink:href="#DejaVuSans-32"/>
       <use xlink:href="#DejaVuSans-30" x="63.623047"/>
       <use xlink:href="#DejaVuSans-32" x="127.246094"/>
       <use xlink:href="#DejaVuSans-31" x="190.869141"/>
       <use xlink:href="#DejaVuSans-2d" x="254.492188"/>
       <use xlink:href="#DejaVuSans-31" x="290.576172"/>
       <use xlink:href="#DejaVuSans-30" x="354.199219"/>
      </g>
     </g>
    </g>
    <g id="xtick_9">
     <g id="line2d_9">
      <g>
       <use xlink:href="#mc57cba75d1" x="1048.025771" y="368.3955" style="stroke: #000000; stroke-width: 0.8"/>
      </g>
     </g>
     <g id="text_9">
      <!-- 2022-01 -->
      <g transform="translate(1027.134365 382.993937)scale(0.1 -0.1)">
       <use xlink:href="#DejaVuSans-32"/>
       <use xlink:href="#DejaVuSans-30" x="63.623047"/>
       <use xlink:href="#DejaVuSans-32" x="127.246094"/>
       <use xlink:href="#DejaVuSans-32" x="190.869141"/>
       <use xlink:href="#DejaVuSans-2d" x="254.492188"/>
       <use xlink:href="#DejaVuSans-30" x="290.576172"/>
       <use xlink:href="#DejaVuSans-31" x="354.199219"/>
      </g>
     </g>
    </g>
    <g id="xtick_10">
     <g id="line2d_10">
      <g>
       <use xlink:href="#mc57cba75d1" x="1168.301192" y="368.3955" style="stroke: #000000; stroke-width: 0.8"/>
      </g>
     </g>
     <g id="text_10">
      <!-- 2022-04 -->
      <g transform="translate(1147.409786 382.993937)scale(0.1 -0.1)">
       <use xlink:href="#DejaVuSans-32"/>
       <use xlink:href="#DejaVuSans-30" x="63.623047"/>
       <use xlink:href="#DejaVuSans-32" x="127.246094"/>
       <use xlink:href="#DejaVuSans-32" x="190.869141"/>
       <use xlink:href="#DejaVuSans-2d" x="254.492188"/>
       <use xlink:href="#DejaVuSans-30" x="290.576172"/>
       <use xlink:href="#DejaVuSans-34" x="354.199219"/>
      </g>
     </g>
    </g>
    <g id="xtick_11">
     <g id="line2d_11">
      <g>
       <use xlink:href="#mc57cba75d1" x="1289.913008" y="368.3955" style="stroke: #000000; stroke-width: 0.8"/>
      </g>
     </g>
     <g id="text_11">
      <!-- 2022-07 -->
      <g transform="translate(1269.021601 382.993937)scale(0.1 -0.1)">
       <use xlink:href="#DejaVuSans-32"/>
       <use xlink:href="#DejaVuSans-30" x="63.623047"/>
       <use xlink:href="#DejaVuSans-32" x="127.246094"/>
       <use xlink:href="#DejaVuSans-32" x="190.869141"/>
       <use xlink:href="#DejaVuSans-2d" x="254.492188"/>
       <use xlink:href="#DejaVuSans-30" x="290.576172"/>
       <use xlink:href="#DejaVuSans-37" x="354.199219"/>
      </g>
     </g>
    </g>
   </g>
   <g id="matplotlib.axis_2">
    <g id="ytick_1">
     <g id="line2d_12">
      <defs>
       <path id="m82d9737292" d="M 0 0 
L -3.5 0 
" style="stroke: #000000; stroke-width: 0.8"/>
      </defs>
      <g>
       <use xlink:href="#m82d9737292" x="39.65" y="353.2755" style="stroke: #000000; stroke-width: 0.8"/>
      </g>
     </g>
     <g id="text_12">
      <!-- 0 -->
      <g transform="translate(26.2875 357.074719)scale(0.1 -0.1)">
       <use xlink:href="#DejaVuSans-30"/>
      </g>
     </g>
    </g>
    <g id="ytick_2">
     <g id="line2d_13">
      <g>
       <use xlink:href="#m82d9737292" x="39.65" y="293.2993" style="stroke: #000000; stroke-width: 0.8"/>
      </g>
     </g>
     <g id="text_13">
      <!-- 500 -->
      <g transform="translate(13.5625 297.098519)scale(0.1 -0.1)">
       <defs>
        <path id="DejaVuSans-35" d="M 691 4666 
L 3169 4666 
L 3169 4134 
L 1269 4134 
L 1269 2991 
Q 1406 3038 1543 3061 
Q 1681 3084 1819 3084 
Q 2600 3084 3056 2656 
Q 3513 2228 3513 1497 
Q 3513 744 3044 326 
Q 2575 -91 1722 -91 
Q 1428 -91 1123 -41 
Q 819 9 494 109 
L 494 744 
Q 775 591 1075 516 
Q 1375 441 1709 441 
Q 2250 441 2565 725 
Q 2881 1009 2881 1497 
Q 2881 1984 2565 2268 
Q 2250 2553 1709 2553 
Q 1456 2553 1204 2497 
Q 953 2441 691 2322 
L 691 4666 
z
" transform="scale(0.015625)"/>
       </defs>
       <use xlink:href="#DejaVuSans-35"/>
       <use xlink:href="#DejaVuSans-30" x="63.623047"/>
       <use xlink:href="#DejaVuSans-30" x="127.246094"/>
      </g>
     </g>
    </g>
    <g id="ytick_3">
     <g id="line2d_14">
      <g>
       <use xlink:href="#m82d9737292" x="39.65" y="233.3231" style="stroke: #000000; stroke-width: 0.8"/>
      </g>
     </g>
     <g id="text_14">
      <!-- 1000 -->
      <g transform="translate(7.2 237.122319)scale(0.1 -0.1)">
       <use xlink:href="#DejaVuSans-31"/>
       <use xlink:href="#DejaVuSans-30" x="63.623047"/>
       <use xlink:href="#DejaVuSans-30" x="127.246094"/>
       <use xlink:href="#DejaVuSans-30" x="190.869141"/>
      </g>
     </g>
    </g>
    <g id="ytick_4">
     <g id="line2d_15">
      <g>
       <use xlink:href="#m82d9737292" x="39.65" y="173.3469" style="stroke: #000000; stroke-width: 0.8"/>
      </g>
     </g>
     <g id="text_15">
      <!-- 1500 -->
      <g transform="translate(7.2 177.146119)scale(0.1 -0.1)">
       <use xlink:href="#DejaVuSans-31"/>
       <use xlink:href="#DejaVuSans-35" x="63.623047"/>
       <use xlink:href="#DejaVuSans-30" x="127.246094"/>
       <use xlink:href="#DejaVuSans-30" x="190.869141"/>
      </g>
     </g>
    </g>
    <g id="ytick_5">
     <g id="line2d_16">
      <g>
       <use xlink:href="#m82d9737292" x="39.65" y="113.3707" style="stroke: #000000; stroke-width: 0.8"/>
      </g>
     </g>
     <g id="text_16">
      <!-- 2000 -->
      <g transform="translate(7.2 117.169919)scale(0.1 -0.1)">
       <use xlink:href="#DejaVuSans-32"/>
       <use xlink:href="#DejaVuSans-30" x="63.623047"/>
       <use xlink:href="#DejaVuSans-30" x="127.246094"/>
       <use xlink:href="#DejaVuSans-30" x="190.869141"/>
      </g>
     </g>
    </g>
    <g id="ytick_6">
     <g id="line2d_17">
      <g>
       <use xlink:href="#m82d9737292" x="39.65" y="53.3945" style="stroke: #000000; stroke-width: 0.8"/>
      </g>
     </g>
     <g id="text_17">
      <!-- 2500 -->
      <g transform="translate(7.2 57.193719)scale(0.1 -0.1)">
       <use xlink:href="#DejaVuSans-32"/>
       <use xlink:href="#DejaVuSans-35" x="63.623047"/>
       <use xlink:href="#DejaVuSans-30" x="127.246094"/>
       <use xlink:href="#DejaVuSans-30" x="190.869141"/>
      </g>
     </g>
    </g>
   </g>
   <g id="line2d_18">
    <path d="M 100.522727 353.2755 
L 167.342406 353.2755 
L 168.6788 352.915643 
L 170.015193 352.915643 
L 171.351587 353.2755 
L 172.68798 353.155548 
L 174.024374 353.2755 
L 175.360767 352.79569 
L 176.697161 352.675738 
L 178.033555 352.915643 
L 179.369948 352.79569 
L 180.706342 352.79569 
L 182.042735 350.156738 
L 183.379129 348.477404 
L 184.715522 348.597356 
L 186.051916 352.675738 
L 187.38831 352.79569 
L 188.724703 351.956024 
L 190.061097 353.2755 
L 191.39749 352.195928 
L 192.733884 349.197118 
L 194.070277 352.195928 
L 195.406671 353.155548 
L 196.743065 353.2755 
L 198.079458 352.195928 
L 199.415852 353.2755 
L 200.752245 344.518975 
L 202.088639 350.156738 
L 203.425032 345.478594 
L 204.761426 353.2755 
L 206.09782 349.676928 
L 207.434213 334.323021 
L 208.770607 353.2755 
L 210.107 344.878832 
L 211.443394 353.2755 
L 212.779787 352.675738 
L 214.116181 353.2755 
L 215.452575 330.124687 
L 216.788968 328.325401 
L 218.125362 353.2755 
L 219.461755 353.2755 
L 220.798149 339.840831 
L 222.134542 353.2755 
L 223.470936 338.28145 
L 224.80733 353.2755 
L 226.143723 320.7684 
L 227.480117 353.2755 
L 228.81651 338.76126 
L 230.152904 353.2755 
L 231.489297 304.934683 
L 232.825691 353.2755 
L 234.162085 341.880022 
L 235.498478 353.2755 
L 236.834872 287.30168 
L 238.171265 353.2755 
L 239.507659 308.653207 
L 240.844052 353.2755 
L 242.180446 242.79934 
L 243.51684 323.167448 
L 244.853233 353.2755 
L 246.189627 300.856301 
L 247.52602 302.055825 
L 248.862414 319.568876 
L 250.198808 338.641307 
L 251.535201 340.320641 
L 252.871595 341.640117 
L 254.207988 353.2755 
L 255.544382 353.2755 
L 256.880775 309.972684 
L 259.553563 353.2755 
L 260.889956 327.245829 
L 262.22635 337.561736 
L 263.562743 345.358642 
L 264.899137 338.28145 
L 266.23553 316.210208 
L 267.571924 330.964354 
L 268.908318 353.2755 
L 270.244711 315.730399 
L 271.581105 335.042735 
L 272.917498 317.049875 
L 274.253892 353.2755 
L 275.590285 326.046305 
L 276.926679 323.167448 
L 278.263073 312.851541 
L 279.599466 319.328971 
L 280.93586 318.009494 
L 282.272253 332.163878 
L 283.608647 320.648447 
L 284.94504 318.369352 
L 286.281434 353.2755 
L 287.617828 334.442973 
L 288.954221 293.539205 
L 290.290615 321.847971 
L 291.627008 251.79577 
L 292.963402 353.2755 
L 294.299795 325.8064 
L 295.636189 305.654397 
L 296.972583 312.611636 
L 298.308976 320.408542 
L 299.64537 291.619966 
L 300.981763 300.856301 
L 302.318157 353.2755 
L 303.65455 303.615206 
L 304.990944 299.896682 
L 306.327338 298.097396 
L 307.663731 309.972684 
L 309.000125 281.663917 
L 310.336518 315.970304 
L 311.672912 280.224488 
L 313.009305 306.494064 
L 314.345699 306.134207 
L 315.682093 353.2755 
L 317.018486 202.855191 
L 318.35488 353.2755 
L 319.691273 269.668677 
L 321.027667 234.282719 
L 322.36406 246.397912 
L 323.700454 250.836151 
L 325.036848 276.386012 
L 326.373241 308.77316 
L 327.709635 303.615206 
L 329.046028 320.888352 
L 330.382422 296.897872 
L 331.718815 353.2755 
L 333.055209 300.256539 
L 334.391603 269.908582 
L 335.727996 299.656777 
L 337.06439 294.738729 
L 338.400783 280.464393 
L 339.737177 261.751819 
L 341.073571 286.222108 
L 342.409964 271.348011 
L 343.746358 353.2755 
L 345.082751 187.141426 
L 346.419145 258.033295 
L 347.755538 219.168717 
L 349.091932 274.706678 
L 350.428326 259.472723 
L 351.764719 264.990534 
L 353.101113 353.2755 
L 354.437506 310.212588 
L 355.7739 171.787519 
L 357.110293 353.2755 
L 358.446687 257.553485 
L 359.783081 353.2755 
L 361.119474 201.775619 
L 362.455868 285.262489 
L 363.792261 298.697158 
L 365.128655 300.976254 
L 366.465048 296.897872 
L 367.801442 328.205448 
L 369.137836 330.244639 
L 370.474229 333.123497 
L 371.810623 334.922783 
L 373.147016 338.641307 
L 374.48341 309.732779 
L 375.819803 314.650827 
L 377.156197 338.76126 
L 378.492591 312.491684 
L 379.828984 341.160308 
L 381.165378 333.363402 
L 382.501771 345.478594 
L 383.838165 353.2755 
L 385.174558 331.684068 
L 386.510952 339.241069 
L 387.847346 341.880022 
L 389.183739 347.037975 
L 390.520133 344.638927 
L 391.856526 340.320641 
L 393.19292 333.003544 
L 394.529313 342.839641 
L 395.865707 342.119927 
L 397.202101 333.843211 
L 398.538494 329.524925 
L 399.874888 346.678118 
L 401.211281 345.598546 
L 402.547675 353.2755 
L 403.884068 353.2755 
L 405.220462 342.239879 
L 406.556856 336.122307 
L 407.893249 317.169828 
L 409.229643 353.2755 
L 410.566036 344.27907 
L 411.90243 347.75769 
L 413.238823 353.2755 
L 414.575217 333.243449 
L 415.911611 346.79807 
L 417.248004 353.2755 
L 418.584398 346.198308 
L 419.920791 347.75769 
L 421.257185 339.241069 
L 422.593578 338.041545 
L 423.929972 346.318261 
L 425.266366 353.2755 
L 426.602759 342.359832 
L 427.939153 344.998784 
L 429.275546 353.2755 
L 430.61194 353.2755 
L 431.948333 333.483354 
L 433.284727 346.438213 
L 434.621121 348.717309 
L 435.957514 336.002354 
L 437.293908 349.676928 
L 438.630301 348.717309 
L 439.966695 340.200688 
L 441.303089 350.156738 
L 442.639482 353.2755 
L 445.312269 353.2755 
L 446.648663 339.121117 
L 447.985056 348.477404 
L 449.32145 351.116357 
L 450.657844 353.2755 
L 451.994237 350.27669 
L 453.330631 341.76007 
L 454.667024 353.2755 
L 456.003418 347.637737 
L 457.339811 353.2755 
L 458.676205 346.198308 
L 460.012599 343.919213 
L 461.348992 345.838451 
L 462.685386 342.599736 
L 464.021779 353.2755 
L 465.358173 344.039165 
L 466.694566 345.718499 
L 468.03096 342.599736 
L 469.367354 353.2755 
L 470.703747 343.079546 
L 472.040141 353.2755 
L 473.376534 353.2755 
L 474.712928 319.688828 
L 476.049321 353.2755 
L 477.385715 353.2755 
L 478.722109 344.998784 
L 480.058502 344.159118 
L 481.394896 353.2755 
L 482.731289 300.136587 
L 484.067683 335.882402 
L 485.404076 353.2755 
L 486.74047 339.361022 
L 488.076864 329.524925 
L 489.413257 341.28026 
L 490.749651 341.28026 
L 492.086044 353.2755 
L 493.422438 274.706678 
L 494.758831 345.958404 
L 496.095225 353.2755 
L 497.431619 340.680498 
L 498.768012 322.927543 
L 500.104406 353.2755 
L 501.440799 343.559356 
L 502.777193 332.403782 
L 504.113586 353.2755 
L 505.44998 342.959594 
L 506.786374 334.442973 
L 508.122767 345.238689 
L 509.459161 324.127067 
L 510.795554 348.357452 
L 512.131948 353.2755 
L 513.468341 353.2755 
L 514.804735 334.80283 
L 516.141129 330.484544 
L 518.813916 353.2755 
L 521.486703 353.2755 
L 522.823096 301.81592 
L 524.15949 353.2755 
L 525.495884 331.923973 
L 526.832277 353.2755 
L 528.168671 326.166258 
L 529.505064 338.641307 
L 530.841458 339.361022 
L 532.177852 353.2755 
L 533.514245 329.884782 
L 534.850639 353.2755 
L 536.187032 343.559356 
L 537.523426 322.567686 
L 538.859819 339.361022 
L 540.196213 333.243449 
L 541.532607 341.28026 
L 542.869 353.2755 
L 544.205394 353.2755 
L 545.541787 317.169828 
L 546.878181 353.2755 
L 548.214574 342.599736 
L 549.550968 353.2755 
L 550.887362 353.2755 
L 552.223755 324.127067 
L 553.560149 339.480974 
L 554.896542 341.040355 
L 556.232936 331.923973 
L 558.905723 353.2755 
L 560.242117 334.203068 
L 561.57851 337.201878 
L 562.914904 340.80045 
L 564.251297 353.2755 
L 566.924084 353.2755 
L 568.260478 318.129447 
L 569.596872 353.2755 
L 570.933265 315.970304 
L 572.269659 353.2755 
L 573.606052 298.337301 
L 574.942446 330.364592 
L 576.278839 286.102156 
L 577.615233 353.2755 
L 580.28802 353.2755 
L 581.624414 265.350391 
L 582.960807 311.172208 
L 584.297201 309.372922 
L 585.633594 353.2755 
L 586.969988 227.445433 
L 588.306382 353.2755 
L 589.642775 277.105726 
L 590.979169 271.827821 
L 592.315562 192.419332 
L 593.651956 353.2755 
L 594.988349 279.384822 
L 596.324743 217.489383 
L 597.661137 353.2755 
L 598.99753 168.068995 
L 600.333924 163.390851 
L 601.670317 353.2755 
L 603.006711 260.672247 
L 604.343104 260.072485 
L 605.679498 269.78863 
L 607.015892 258.393152 
L 608.352285 353.2755 
L 609.688679 266.669867 
L 611.025072 166.149756 
L 612.361466 272.30763 
L 613.697859 353.2755 
L 615.034253 286.82187 
L 616.370647 258.513104 
L 617.70704 174.666377 
L 619.043434 353.2755 
L 620.379827 274.586726 
L 621.716221 286.82187 
L 623.052615 206.33381 
L 624.389008 303.135397 
L 625.725402 296.178158 
L 627.061795 294.498824 
L 628.398189 281.543965 
L 629.734582 292.579586 
L 631.070976 353.2755 
L 632.40737 294.978634 
L 633.743763 301.935873 
L 635.080157 243.758959 
L 636.41655 353.2755 
L 637.752944 180.903901 
L 639.089337 353.2755 
L 640.425731 353.2755 
L 641.762125 314.171018 
L 643.098518 246.517864 
L 644.434912 353.2755 
L 645.771305 250.956103 
L 647.107699 308.533255 
L 648.444092 353.2755 
L 649.780486 320.648447 
L 651.11688 353.2755 
L 653.789667 353.2755 
L 655.12606 264.150867 
L 656.462454 319.448923 
L 657.798847 326.526115 
L 659.135241 324.127067 
L 660.471635 330.124687 
L 661.808028 353.2755 
L 663.144422 282.863441 
L 664.480815 321.128257 
L 665.817209 304.574826 
L 667.153602 353.2755 
L 668.489996 327.965544 
L 669.82639 353.2755 
L 671.162783 340.560546 
L 672.499177 318.729209 
L 673.83557 353.2755 
L 677.844751 353.2755 
L 679.181145 317.76959 
L 680.517538 353.2755 
L 681.853932 342.359832 
L 683.190325 353.2755 
L 684.526719 340.320641 
L 685.863112 339.121117 
L 687.199506 347.75769 
L 688.5359 345.718499 
L 689.872293 341.28026 
L 691.208687 353.2755 
L 692.54508 335.162688 
L 693.881474 353.2755 
L 695.217867 353.2755 
L 696.554261 335.28264 
L 697.890655 345.238689 
L 699.227048 345.118737 
L 700.563442 353.2755 
L 701.899835 339.121117 
L 703.236229 347.75769 
L 704.572622 353.2755 
L 705.909016 353.2755 
L 708.581803 335.882402 
L 709.918197 353.2755 
L 711.25459 353.2755 
L 712.590984 324.726829 
L 713.927378 342.839641 
L 715.263771 327.965544 
L 716.600165 347.397832 
L 717.936558 347.397832 
L 719.272952 353.2755 
L 720.609345 348.597356 
L 721.945739 353.2755 
L 723.282133 343.439403 
L 724.618526 346.438213 
L 725.95492 342.719689 
L 727.291313 353.2755 
L 728.627707 349.916833 
L 729.9641 353.2755 
L 731.300494 341.880022 
L 732.636888 346.078356 
L 733.973281 353.2755 
L 735.309675 339.600926 
L 736.646068 349.197118 
L 737.982462 343.199498 
L 739.318855 353.2755 
L 740.655249 353.2755 
L 741.991643 342.479784 
L 743.328036 346.438213 
L 744.66443 345.358642 
L 746.000823 353.2755 
L 747.337217 345.478594 
L 748.67361 345.838451 
L 750.010004 348.837261 
L 751.346398 350.396642 
L 752.682791 345.238689 
L 754.019185 353.2755 
L 755.355578 351.836071 
L 756.691972 347.037975 
L 758.028365 353.2755 
L 759.364759 338.521355 
L 760.701153 353.2755 
L 762.037546 339.720879 
L 763.37394 353.2755 
L 764.710333 353.2755 
L 766.046727 332.043925 
L 767.38312 353.2755 
L 768.719514 348.477404 
L 770.055908 353.2755 
L 771.392301 353.2755 
L 772.728695 336.362212 
L 774.065088 353.2755 
L 775.401482 344.27907 
L 776.737875 347.397832 
L 778.074269 353.2755 
L 779.410663 353.2755 
L 780.747056 328.565306 
L 782.08345 338.28145 
L 783.419843 353.2755 
L 784.756237 342.599736 
L 786.09263 353.2755 
L 787.429024 353.2755 
L 788.765418 335.76245 
L 790.101811 332.043925 
L 791.438205 353.2755 
L 792.774598 350.516595 
L 794.110992 353.2755 
L 795.447385 353.2755 
L 796.783779 340.080736 
L 798.120173 340.440593 
L 799.456566 333.363402 
L 800.79296 320.648447 
L 802.129353 353.2755 
L 803.465747 353.2755 
L 804.802141 334.922783 
L 806.138534 323.2874 
L 807.474928 343.079546 
L 808.811321 353.2755 
L 810.147715 316.570066 
L 811.484108 321.728019 
L 812.820502 353.2755 
L 814.156896 334.203068 
L 815.493289 298.697158 
L 816.829683 353.2755 
L 818.166076 336.122307 
L 819.50247 353.2755 
L 820.838863 306.973874 
L 822.175257 353.2755 
L 823.511651 314.77078 
L 824.848044 307.453683 
L 826.184438 353.2755 
L 827.520831 312.131827 
L 828.857225 353.2755 
L 830.193618 353.2755 
L 831.530012 222.527384 
L 832.866406 293.659157 
L 834.202799 302.535635 
L 835.539193 241.359911 
L 836.875586 353.2755 
L 838.21198 243.399102 
L 839.548373 353.2755 
L 843.557554 353.2755 
L 844.893948 116.36951 
L 846.230341 291.140157 
L 847.566735 288.381252 
L 848.903128 307.573636 
L 850.239522 353.2755 
L 851.575916 315.370542 
L 852.912309 176.225758 
L 854.248703 353.2755 
L 855.585096 299.176968 
L 856.92149 311.891922 
L 858.257883 304.574826 
L 859.594277 316.330161 
L 860.930671 284.902632 
L 862.267064 304.81473 
L 863.603458 290.660347 
L 864.939851 353.2755 
L 866.276245 215.81005 
L 868.949032 353.2755 
L 870.285426 229.844481 
L 871.621819 278.065345 
L 872.958213 291.140157 
L 874.294606 302.535635 
L 875.631 353.2755 
L 876.967393 243.399102 
L 878.303787 281.424012 
L 879.640181 281.78387 
L 880.976574 353.2755 
L 882.312968 277.705488 
L 883.649361 212.931192 
L 884.985755 353.2755 
L 886.322148 285.262489 
L 887.658542 299.416872 
L 888.994936 353.2755 
L 890.331329 353.2755 
L 891.667723 250.716198 
L 893.004116 251.31596 
L 894.34051 306.973874 
L 895.676904 353.2755 
L 897.013297 324.966734 
L 898.349691 353.2755 
L 899.686084 264.270819 
L 901.022478 310.932303 
L 902.358871 353.2755 
L 905.031659 353.2755 
L 906.368052 249.396722 
L 907.704446 321.488114 
L 909.040839 322.567686 
L 910.377233 316.80997 
L 911.713626 353.2755 
L 913.05002 321.488114 
L 914.386414 315.370542 
L 915.722807 333.243449 
L 917.059201 316.330161 
L 918.395594 353.2755 
L 919.731988 305.894302 
L 921.068381 353.2755 
L 922.404775 353.2755 
L 923.741169 297.377682 
L 925.077562 353.2755 
L 929.086743 353.2755 
L 930.423136 305.77435 
L 931.75953 319.568876 
L 933.095924 328.205448 
L 934.432317 353.2755 
L 943.787072 353.2755 
L 945.123466 246.517864 
L 946.459859 331.444163 
L 947.796253 353.2755 
L 949.132646 335.042735 
L 950.46904 353.2755 
L 953.141827 353.2755 
L 954.478221 327.725639 
L 955.814614 353.2755 
L 957.151008 336.122307 
L 958.487401 346.078356 
L 959.823795 349.317071 
L 961.160189 348.957214 
L 962.496582 353.2755 
L 966.505763 353.2755 
L 967.842156 328.085496 
L 969.17855 353.2755 
L 970.514944 353.2755 
L 971.851337 340.80045 
L 973.187731 353.2755 
L 975.860518 353.2755 
L 977.196911 327.245829 
L 978.533305 353.2755 
L 979.869699 348.357452 
L 981.206092 353.2755 
L 983.878879 353.2755 
L 985.215273 345.958404 
L 986.551667 351.236309 
L 987.88806 353.2755 
L 991.897241 353.2755 
L 993.233634 341.28026 
L 994.570028 353.2755 
L 995.906422 342.119927 
L 997.242815 353.2755 
L 1011.943144 353.2755 
L 1013.279538 314.171018 
L 1014.615932 353.2755 
L 1018.625112 353.2755 
L 1019.961506 333.363402 
L 1021.297899 337.081926 
L 1022.634293 353.2755 
L 1023.970687 353.2755 
L 1025.30708 318.129447 
L 1026.643474 344.75888 
L 1027.979867 353.2755 
L 1030.652654 353.2755 
L 1031.989048 326.76602 
L 1033.325442 296.058205 
L 1034.661835 239.80053 
L 1035.998229 233.3231 
L 1037.334622 353.2755 
L 1038.671016 353.2755 
L 1040.007409 127.645036 
L 1041.343803 50.8755 
L 1042.680197 201.655667 
L 1044.01659 224.446623 
L 1045.352984 353.2755 
L 1046.689377 150.435992 
L 1048.025771 232.003624 
L 1049.362164 226.725718 
L 1050.698558 225.286289 
L 1052.034952 223.247099 
L 1053.371345 248.197198 
L 1054.707739 353.2755 
L 1056.044132 353.2755 
L 1057.380526 198.776809 
L 1058.716919 172.507233 
L 1060.053313 189.060665 
L 1061.389707 353.2755 
L 1062.7261 294.978634 
L 1064.062494 353.2755 
L 1065.398887 353.2755 
L 1066.735281 259.112866 
L 1068.071674 353.2755 
L 1069.408068 353.2755 
L 1070.744462 272.187678 
L 1072.080855 353.2755 
L 1073.417249 269.188868 
L 1074.753642 353.2755 
L 1076.090036 353.2755 
L 1077.426429 280.704298 
L 1078.762823 333.003544 
L 1080.099217 353.2755 
L 1081.43561 280.464393 
L 1082.772004 338.881212 
L 1084.108397 338.521355 
L 1085.444791 332.28383 
L 1086.781185 339.480974 
L 1088.117578 339.480974 
L 1089.453972 353.2755 
L 1090.790365 353.2755 
L 1092.126759 317.28978 
L 1093.463152 353.2755 
L 1094.799546 314.77078 
L 1096.13594 353.2755 
L 1097.472333 328.085496 
L 1098.808727 353.2755 
L 1105.490695 353.2755 
L 1106.827088 333.363402 
L 1108.163482 344.27907 
L 1109.499875 333.243449 
L 1110.836269 345.958404 
L 1112.172662 353.2755 
L 1114.84545 353.2755 
L 1116.181843 327.605686 
L 1117.518237 298.097396 
L 1120.191024 353.2755 
L 1124.200205 353.2755 
L 1125.536598 287.30168 
L 1126.872992 327.245829 
L 1128.209385 353.2755 
L 1129.545779 336.842021 
L 1130.882172 353.2755 
L 1134.891353 353.2755 
L 1136.227747 279.864631 
L 1137.56414 350.036785 
L 1138.900534 351.596166 
L 1140.236927 351.836071 
L 1141.573321 353.2755 
L 1142.909715 350.516595 
L 1144.246108 353.2755 
L 1145.582502 347.877642 
L 1146.918895 353.2755 
L 1148.255289 351.596166 
L 1149.591682 351.356262 
L 1150.928076 353.2755 
L 1152.26447 349.916833 
L 1153.600863 347.997594 
L 1154.937257 352.435833 
L 1156.27365 353.2755 
L 1157.610044 350.396642 
L 1158.946437 353.2755 
L 1160.282831 349.556976 
L 1161.619225 353.2755 
L 1165.628405 353.2755 
L 1166.964799 347.75769 
L 1168.301192 353.2755 
L 1172.310373 353.2755 
L 1173.646767 348.117547 
L 1174.98316 350.876452 
L 1176.319554 353.2755 
L 1177.655948 351.596166 
L 1178.992341 353.2755 
L 1180.328735 353.2755 
L 1181.665128 350.516595 
L 1183.001522 353.2755 
L 1184.337915 351.476214 
L 1185.674309 353.2755 
L 1187.010703 351.476214 
L 1188.347096 353.2755 
L 1191.019883 353.2755 
L 1192.356277 351.716119 
L 1193.69267 352.915643 
L 1195.029064 352.435833 
L 1196.365458 353.2755 
L 1199.038245 353.2755 
L 1200.374638 349.317071 
L 1201.711032 353.2755 
L 1203.047425 351.716119 
L 1204.383819 353.2755 
L 1205.720213 352.915643 
L 1207.056606 353.2755 
L 1208.393 349.556976 
L 1209.729393 353.2755 
L 1211.065787 351.836071 
L 1212.40218 353.2755 
L 1213.738574 352.555786 
L 1215.074968 353.2755 
L 1217.747755 353.2755 
L 1219.084148 347.637737 
L 1220.420542 353.035595 
L 1221.756935 353.2755 
L 1223.093329 352.195928 
L 1224.429723 353.2755 
L 1227.10251 353.2755 
L 1228.438903 349.676928 
L 1231.11169 353.2755 
L 1235.120871 353.2755 
L 1236.457265 350.156738 
L 1237.793658 353.2755 
L 1239.130052 350.996404 
L 1240.466445 353.2755 
L 1248.484807 353.2755 
L 1249.8212 344.518975 
L 1252.493988 353.2755 
L 1253.830381 353.2755 
L 1255.166775 315.610446 
L 1256.503168 353.2755 
L 1257.839562 347.75769 
L 1259.175955 353.2755 
L 1263.185136 353.2755 
L 1264.52153 341.999974 
L 1265.857923 353.2755 
L 1267.194317 267.989344 
L 1268.530711 287.901442 
L 1269.867104 336.362212 
L 1271.203498 353.2755 
L 1272.539891 353.2755 
L 1273.876285 313.211398 
L 1275.212678 293.539205 
L 1276.549072 353.2755 
L 1277.885466 308.053445 
L 1279.221859 344.75888 
L 1280.558253 325.566496 
L 1281.894646 353.2755 
L 1283.23104 353.2755 
L 1284.567433 244.598626 
L 1285.903827 353.2755 
L 1287.240221 307.213778 
L 1288.576614 353.2755 
L 1291.249401 353.2755 
L 1292.585795 321.608066 
L 1293.922188 335.402592 
L 1295.258582 353.2755 
L 1296.594976 353.2755 
L 1297.931369 320.888352 
L 1299.267763 353.2755 
L 1300.604156 353.2755 
L 1300.604156 353.2755 
" clip-path="url(#pcf799a0445)" style="fill: none; stroke: #0000ff; stroke-width: 1.5; stroke-linecap: square"/>
   </g>
   <g id="line2d_19">
    <path d="M 1061.389707 268.988276 
L 1062.7261 257.215205 
L 1064.062494 256.617234 
L 1065.398887 284.822406 
L 1066.735281 290.238277 
L 1068.071674 306.620459 
L 1069.408068 318.55149 
L 1070.744462 307.974123 
L 1072.080855 319.15036 
L 1073.417249 322.908177 
L 1074.753642 315.417204 
L 1076.090036 324.786379 
L 1077.426429 314.448448 
L 1078.762823 322.734486 
L 1080.099217 329.514598 
L 1081.43561 319.292572 
L 1082.772004 322.892553 
L 1084.108397 328.978702 
L 1085.444791 321.389139 
L 1086.781185 326.423029 
L 1088.117578 329.891572 
L 1089.453972 332.076246 
L 1090.790365 335.165745 
L 1092.126759 335.617872 
L 1093.463152 339.308829 
L 1094.799546 340.040246 
L 1096.13594 336.10534 
L 1097.472333 338.503506 
L 1098.808727 334.954533 
L 1100.14512 339.305061 
L 1101.481514 338.433436 
L 1102.817907 342.16054 
L 1104.154301 344.723746 
L 1105.490695 346.486517 
L 1108.163482 346.811525 
L 1109.499875 346.255313 
L 1110.836269 343.053227 
L 1112.172662 343.238177 
L 1113.509056 341.889752 
L 1114.84545 343.280763 
L 1116.181843 344.120186 
L 1117.518237 342.465084 
L 1118.85463 341.581121 
L 1120.191024 338.200408 
L 1121.527417 332.016046 
L 1122.863811 333.008577 
L 1124.200205 338.429752 
L 1125.536598 338.626797 
L 1126.872992 339.222082 
L 1128.209385 340.828251 
L 1129.545779 331.118104 
L 1130.882172 332.24085 
L 1132.218566 337.59974 
L 1133.55496 338.764639 
L 1134.891353 342.388315 
L 1136.227747 340.95112 
L 1137.56414 341.851259 
L 1138.900534 342.989566 
L 1140.236927 332.505829 
L 1141.573321 337.460252 
L 1142.909715 341.028701 
L 1144.246108 343.627947 
L 1145.582502 345.39329 
L 1148.255289 347.406073 
L 1149.591682 347.258649 
L 1150.928076 348.150137 
L 1152.26447 348.339437 
L 1153.600863 348.275528 
L 1154.937257 348.688222 
L 1156.27365 348.517736 
L 1157.610044 348.019688 
L 1158.946437 348.535755 
L 1160.282831 348.856173 
L 1161.619225 348.73942 
L 1162.955618 349.179837 
L 1164.292012 348.912383 
L 1165.628405 349.367129 
L 1166.964799 349.38453 
L 1169.637586 349.705235 
L 1170.97398 348.964672 
L 1172.310373 349.403089 
L 1176.319554 349.589616 
L 1177.655948 348.812989 
L 1178.992341 348.844004 
L 1180.328735 349.289239 
L 1181.665128 349.190196 
L 1183.001522 349.488007 
L 1184.337915 349.615987 
L 1185.674309 349.331384 
L 1187.010703 349.52591 
L 1188.347096 349.434257 
L 1189.68349 349.692964 
L 1191.019883 349.594912 
L 1193.69267 349.886348 
L 1195.029064 349.954189 
L 1196.365458 349.787794 
L 1199.038245 349.896565 
L 1200.374638 349.832099 
L 1203.047425 349.889391 
L 1204.383819 349.319487 
L 1205.720213 349.599182 
L 1208.393 349.60856 
L 1211.065787 349.756187 
L 1212.40218 349.272135 
L 1213.738574 349.549561 
L 1215.074968 349.539791 
L 1216.411361 349.785383 
L 1217.747755 349.843894 
L 1219.084148 349.705991 
L 1221.756935 349.838036 
L 1223.093329 348.973207 
L 1225.766116 349.64157 
L 1231.11169 349.813469 
L 1232.448084 349.335679 
L 1233.784478 349.3492 
L 1235.120871 349.667537 
L 1239.130052 349.827752 
L 1240.466445 349.403006 
L 1241.802839 349.662654 
L 1243.139233 349.491657 
L 1245.81202 349.953841 
L 1248.484807 350.172435 
L 1249.8212 349.765006 
L 1251.157594 349.486776 
L 1252.493988 349.485267 
L 1253.830381 348.173352 
L 1255.166775 346.059985 
L 1256.503168 346.447369 
L 1257.839562 346.684308 
L 1259.175955 341.225271 
L 1260.512349 343.979131 
L 1261.848743 345.026712 
L 1263.185136 346.694872 
L 1264.52153 347.238585 
L 1265.857923 347.929202 
L 1267.194317 343.918853 
L 1268.530711 338.327755 
L 1269.867104 337.952165 
L 1271.203498 325.5494 
L 1272.539891 321.760676 
L 1273.876285 325.644968 
L 1275.212678 329.149162 
L 1276.549072 333.519672 
L 1279.221859 323.381431 
L 1280.558253 329.278082 
L 1281.894646 327.23567 
L 1283.23104 332.48756 
L 1284.567433 327.495381 
L 1285.903827 331.873737 
L 1287.240221 333.186512 
L 1288.576614 318.714499 
L 1289.913008 327.752854 
L 1291.249401 326.903897 
L 1292.585795 332.536456 
L 1293.922188 336.342885 
L 1295.258582 339.686169 
L 1296.594976 337.254509 
L 1297.931369 336.546482 
L 1299.267763 340.038992 
L 1300.604156 342.669474 
L 1300.604156 342.669474 
" clip-path="url(#pcf799a0445)" style="fill: none; stroke: #ffa500; stroke-width: 1.5; stroke-linecap: square"/>
   </g>
   <g id="line2d_20">
    <path d="M 1300.604156 342.669474 
L 1301.94055 338.943377 
L 1303.276943 341.474327 
L 1304.613337 343.060672 
L 1305.949731 342.410791 
L 1307.286124 341.375959 
L 1308.622518 341.056225 
L 1309.958911 341.05342 
L 1311.295305 340.912568 
L 1312.631698 340.624476 
L 1313.968092 340.352378 
L 1315.304486 340.140288 
L 1316.640879 339.946668 
L 1317.977273 339.743271 
" clip-path="url(#pcf799a0445)" style="fill: none; stroke: #ff0000; stroke-width: 1.5; stroke-linecap: square"/>
   </g>
   <g id="patch_3">
    <path d="M 39.65 368.3955 
L 39.65 35.7555 
" style="fill: none; stroke: #000000; stroke-width: 0.8; stroke-linejoin: miter; stroke-linecap: square"/>
   </g>
   <g id="patch_4">
    <path d="M 1378.85 368.3955 
L 1378.85 35.7555 
" style="fill: none; stroke: #000000; stroke-width: 0.8; stroke-linejoin: miter; stroke-linecap: square"/>
   </g>
   <g id="patch_5">
    <path d="M 39.65 368.3955 
L 1378.85 368.3955 
" style="fill: none; stroke: #000000; stroke-width: 0.8; stroke-linejoin: miter; stroke-linecap: square"/>
   </g>
   <g id="patch_6">
    <path d="M 39.65 35.7555 
L 1378.85 35.7555 
" style="fill: none; stroke: #000000; stroke-width: 0.8; stroke-linejoin: miter; stroke-linecap: square"/>
   </g>
   <g id="text_18">
    <!-- Daily Confirmed Cases Forecasting - Ghana -->
    <g transform="translate(579.141875 16.318125)scale(0.12 -0.12)">
     <defs>
      <path id="DejaVuSans-44" d="M 1259 4147 
L 1259 519 
L 2022 519 
Q 2988 519 3436 956 
Q 3884 1394 3884 2338 
Q 3884 3275 3436 3711 
Q 2988 4147 2022 4147 
L 1259 4147 
z
M 628 4666 
L 1925 4666 
Q 3281 4666 3915 4102 
Q 4550 3538 4550 2338 
Q 4550 1131 3912 565 
Q 3275 0 1925 0 
L 628 0 
L 628 4666 
z
" transform="scale(0.015625)"/>
      <path id="DejaVuSans-61" d="M 2194 1759 
Q 1497 1759 1228 1600 
Q 959 1441 959 1056 
Q 959 750 1161 570 
Q 1363 391 1709 391 
Q 2188 391 2477 730 
Q 2766 1069 2766 1631 
L 2766 1759 
L 2194 1759 
z
M 3341 1997 
L 3341 0 
L 2766 0 
L 2766 531 
Q 2569 213 2275 61 
Q 1981 -91 1556 -91 
Q 1019 -91 701 211 
Q 384 513 384 1019 
Q 384 1609 779 1909 
Q 1175 2209 1959 2209 
L 2766 2209 
L 2766 2266 
Q 2766 2663 2505 2880 
Q 2244 3097 1772 3097 
Q 1472 3097 1187 3025 
Q 903 2953 641 2809 
L 641 3341 
Q 956 3463 1253 3523 
Q 1550 3584 1831 3584 
Q 2591 3584 2966 3190 
Q 3341 2797 3341 1997 
z
" transform="scale(0.015625)"/>
      <path id="DejaVuSans-69" d="M 603 3500 
L 1178 3500 
L 1178 0 
L 603 0 
L 603 3500 
z
M 603 4863 
L 1178 4863 
L 1178 4134 
L 603 4134 
L 603 4863 
z
" transform="scale(0.015625)"/>
      <path id="DejaVuSans-6c" d="M 603 4863 
L 1178 4863 
L 1178 0 
L 603 0 
L 603 4863 
z
" transform="scale(0.015625)"/>
      <path id="DejaVuSans-79" d="M 2059 -325 
Q 1816 -950 1584 -1140 
Q 1353 -1331 966 -1331 
L 506 -1331 
L 506 -850 
L 844 -850 
Q 1081 -850 1212 -737 
Q 1344 -625 1503 -206 
L 1606 56 
L 191 3500 
L 800 3500 
L 1894 763 
L 2988 3500 
L 3597 3500 
L 2059 -325 
z
" transform="scale(0.015625)"/>
      <path id="DejaVuSans-20" transform="scale(0.015625)"/>
      <path id="DejaVuSans-43" d="M 4122 4306 
L 4122 3641 
Q 3803 3938 3442 4084 
Q 3081 4231 2675 4231 
Q 1875 4231 1450 3742 
Q 1025 3253 1025 2328 
Q 1025 1406 1450 917 
Q 1875 428 2675 428 
Q 3081 428 3442 575 
Q 3803 722 4122 1019 
L 4122 359 
Q 3791 134 3420 21 
Q 3050 -91 2638 -91 
Q 1578 -91 968 557 
Q 359 1206 359 2328 
Q 359 3453 968 4101 
Q 1578 4750 2638 4750 
Q 3056 4750 3426 4639 
Q 3797 4528 4122 4306 
z
" transform="scale(0.015625)"/>
      <path id="DejaVuSans-6f" d="M 1959 3097 
Q 1497 3097 1228 2736 
Q 959 2375 959 1747 
Q 959 1119 1226 758 
Q 1494 397 1959 397 
Q 2419 397 2687 759 
Q 2956 1122 2956 1747 
Q 2956 2369 2687 2733 
Q 2419 3097 1959 3097 
z
M 1959 3584 
Q 2709 3584 3137 3096 
Q 3566 2609 3566 1747 
Q 3566 888 3137 398 
Q 2709 -91 1959 -91 
Q 1206 -91 779 398 
Q 353 888 353 1747 
Q 353 2609 779 3096 
Q 1206 3584 1959 3584 
z
" transform="scale(0.015625)"/>
      <path id="DejaVuSans-6e" d="M 3513 2113 
L 3513 0 
L 2938 0 
L 2938 2094 
Q 2938 2591 2744 2837 
Q 2550 3084 2163 3084 
Q 1697 3084 1428 2787 
Q 1159 2491 1159 1978 
L 1159 0 
L 581 0 
L 581 3500 
L 1159 3500 
L 1159 2956 
Q 1366 3272 1645 3428 
Q 1925 3584 2291 3584 
Q 2894 3584 3203 3211 
Q 3513 2838 3513 2113 
z
" transform="scale(0.015625)"/>
      <path id="DejaVuSans-66" d="M 2375 4863 
L 2375 4384 
L 1825 4384 
Q 1516 4384 1395 4259 
Q 1275 4134 1275 3809 
L 1275 3500 
L 2222 3500 
L 2222 3053 
L 1275 3053 
L 1275 0 
L 697 0 
L 697 3053 
L 147 3053 
L 147 3500 
L 697 3500 
L 697 3744 
Q 697 4328 969 4595 
Q 1241 4863 1831 4863 
L 2375 4863 
z
" transform="scale(0.015625)"/>
      <path id="DejaVuSans-72" d="M 2631 2963 
Q 2534 3019 2420 3045 
Q 2306 3072 2169 3072 
Q 1681 3072 1420 2755 
Q 1159 2438 1159 1844 
L 1159 0 
L 581 0 
L 581 3500 
L 1159 3500 
L 1159 2956 
Q 1341 3275 1631 3429 
Q 1922 3584 2338 3584 
Q 2397 3584 2469 3576 
Q 2541 3569 2628 3553 
L 2631 2963 
z
" transform="scale(0.015625)"/>
      <path id="DejaVuSans-6d" d="M 3328 2828 
Q 3544 3216 3844 3400 
Q 4144 3584 4550 3584 
Q 5097 3584 5394 3201 
Q 5691 2819 5691 2113 
L 5691 0 
L 5113 0 
L 5113 2094 
Q 5113 2597 4934 2840 
Q 4756 3084 4391 3084 
Q 3944 3084 3684 2787 
Q 3425 2491 3425 1978 
L 3425 0 
L 2847 0 
L 2847 2094 
Q 2847 2600 2669 2842 
Q 2491 3084 2119 3084 
Q 1678 3084 1418 2786 
Q 1159 2488 1159 1978 
L 1159 0 
L 581 0 
L 581 3500 
L 1159 3500 
L 1159 2956 
Q 1356 3278 1631 3431 
Q 1906 3584 2284 3584 
Q 2666 3584 2933 3390 
Q 3200 3197 3328 2828 
z
" transform="scale(0.015625)"/>
      <path id="DejaVuSans-65" d="M 3597 1894 
L 3597 1613 
L 953 1613 
Q 991 1019 1311 708 
Q 1631 397 2203 397 
Q 2534 397 2845 478 
Q 3156 559 3463 722 
L 3463 178 
Q 3153 47 2828 -22 
Q 2503 -91 2169 -91 
Q 1331 -91 842 396 
Q 353 884 353 1716 
Q 353 2575 817 3079 
Q 1281 3584 2069 3584 
Q 2775 3584 3186 3129 
Q 3597 2675 3597 1894 
z
M 3022 2063 
Q 3016 2534 2758 2815 
Q 2500 3097 2075 3097 
Q 1594 3097 1305 2825 
Q 1016 2553 972 2059 
L 3022 2063 
z
" transform="scale(0.015625)"/>
      <path id="DejaVuSans-64" d="M 2906 2969 
L 2906 4863 
L 3481 4863 
L 3481 0 
L 2906 0 
L 2906 525 
Q 2725 213 2448 61 
Q 2172 -91 1784 -91 
Q 1150 -91 751 415 
Q 353 922 353 1747 
Q 353 2572 751 3078 
Q 1150 3584 1784 3584 
Q 2172 3584 2448 3432 
Q 2725 3281 2906 2969 
z
M 947 1747 
Q 947 1113 1208 752 
Q 1469 391 1925 391 
Q 2381 391 2643 752 
Q 2906 1113 2906 1747 
Q 2906 2381 2643 2742 
Q 2381 3103 1925 3103 
Q 1469 3103 1208 2742 
Q 947 2381 947 1747 
z
" transform="scale(0.015625)"/>
      <path id="DejaVuSans-73" d="M 2834 3397 
L 2834 2853 
Q 2591 2978 2328 3040 
Q 2066 3103 1784 3103 
Q 1356 3103 1142 2972 
Q 928 2841 928 2578 
Q 928 2378 1081 2264 
Q 1234 2150 1697 2047 
L 1894 2003 
Q 2506 1872 2764 1633 
Q 3022 1394 3022 966 
Q 3022 478 2636 193 
Q 2250 -91 1575 -91 
Q 1294 -91 989 -36 
Q 684 19 347 128 
L 347 722 
Q 666 556 975 473 
Q 1284 391 1588 391 
Q 1994 391 2212 530 
Q 2431 669 2431 922 
Q 2431 1156 2273 1281 
Q 2116 1406 1581 1522 
L 1381 1569 
Q 847 1681 609 1914 
Q 372 2147 372 2553 
Q 372 3047 722 3315 
Q 1072 3584 1716 3584 
Q 2034 3584 2315 3537 
Q 2597 3491 2834 3397 
z
" transform="scale(0.015625)"/>
      <path id="DejaVuSans-46" d="M 628 4666 
L 3309 4666 
L 3309 4134 
L 1259 4134 
L 1259 2759 
L 3109 2759 
L 3109 2228 
L 1259 2228 
L 1259 0 
L 628 0 
L 628 4666 
z
" transform="scale(0.015625)"/>
      <path id="DejaVuSans-63" d="M 3122 3366 
L 3122 2828 
Q 2878 2963 2633 3030 
Q 2388 3097 2138 3097 
Q 1578 3097 1268 2742 
Q 959 2388 959 1747 
Q 959 1106 1268 751 
Q 1578 397 2138 397 
Q 2388 397 2633 464 
Q 2878 531 3122 666 
L 3122 134 
Q 2881 22 2623 -34 
Q 2366 -91 2075 -91 
Q 1284 -91 818 406 
Q 353 903 353 1747 
Q 353 2603 823 3093 
Q 1294 3584 2113 3584 
Q 2378 3584 2631 3529 
Q 2884 3475 3122 3366 
z
" transform="scale(0.015625)"/>
      <path id="DejaVuSans-74" d="M 1172 4494 
L 1172 3500 
L 2356 3500 
L 2356 3053 
L 1172 3053 
L 1172 1153 
Q 1172 725 1289 603 
Q 1406 481 1766 481 
L 2356 481 
L 2356 0 
L 1766 0 
Q 1100 0 847 248 
Q 594 497 594 1153 
L 594 3053 
L 172 3053 
L 172 3500 
L 594 3500 
L 594 4494 
L 1172 4494 
z
" transform="scale(0.015625)"/>
      <path id="DejaVuSans-67" d="M 2906 1791 
Q 2906 2416 2648 2759 
Q 2391 3103 1925 3103 
Q 1463 3103 1205 2759 
Q 947 2416 947 1791 
Q 947 1169 1205 825 
Q 1463 481 1925 481 
Q 2391 481 2648 825 
Q 2906 1169 2906 1791 
z
M 3481 434 
Q 3481 -459 3084 -895 
Q 2688 -1331 1869 -1331 
Q 1566 -1331 1297 -1286 
Q 1028 -1241 775 -1147 
L 775 -588 
Q 1028 -725 1275 -790 
Q 1522 -856 1778 -856 
Q 2344 -856 2625 -561 
Q 2906 -266 2906 331 
L 2906 616 
Q 2728 306 2450 153 
Q 2172 0 1784 0 
Q 1141 0 747 490 
Q 353 981 353 1791 
Q 353 2603 747 3093 
Q 1141 3584 1784 3584 
Q 2172 3584 2450 3431 
Q 2728 3278 2906 2969 
L 2906 3500 
L 3481 3500 
L 3481 434 
z
" transform="scale(0.015625)"/>
      <path id="DejaVuSans-47" d="M 3809 666 
L 3809 1919 
L 2778 1919 
L 2778 2438 
L 4434 2438 
L 4434 434 
Q 4069 175 3628 42 
Q 3188 -91 2688 -91 
Q 1594 -91 976 548 
Q 359 1188 359 2328 
Q 359 3472 976 4111 
Q 1594 4750 2688 4750 
Q 3144 4750 3555 4637 
Q 3966 4525 4313 4306 
L 4313 3634 
Q 3963 3931 3569 4081 
Q 3175 4231 2741 4231 
Q 1884 4231 1454 3753 
Q 1025 3275 1025 2328 
Q 1025 1384 1454 906 
Q 1884 428 2741 428 
Q 3075 428 3337 486 
Q 3600 544 3809 666 
z
" transform="scale(0.015625)"/>
      <path id="DejaVuSans-68" d="M 3513 2113 
L 3513 0 
L 2938 0 
L 2938 2094 
Q 2938 2591 2744 2837 
Q 2550 3084 2163 3084 
Q 1697 3084 1428 2787 
Q 1159 2491 1159 1978 
L 1159 0 
L 581 0 
L 581 4863 
L 1159 4863 
L 1159 2956 
Q 1366 3272 1645 3428 
Q 1925 3584 2291 3584 
Q 2894 3584 3203 3211 
Q 3513 2838 3513 2113 
z
" transform="scale(0.015625)"/>
     </defs>
     <use xlink:href="#DejaVuSans-44"/>
     <use xlink:href="#DejaVuSans-61" x="77.001953"/>
     <use xlink:href="#DejaVuSans-69" x="138.28125"/>
     <use xlink:href="#DejaVuSans-6c" x="166.064453"/>
     <use xlink:href="#DejaVuSans-79" x="193.847656"/>
     <use xlink:href="#DejaVuSans-20" x="253.027344"/>
     <use xlink:href="#DejaVuSans-43" x="284.814453"/>
     <use xlink:href="#DejaVuSans-6f" x="354.638672"/>
     <use xlink:href="#DejaVuSans-6e" x="415.820312"/>
     <use xlink:href="#DejaVuSans-66" x="479.199219"/>
     <use xlink:href="#DejaVuSans-69" x="514.404297"/>
     <use xlink:href="#DejaVuSans-72" x="542.1875"/>
     <use xlink:href="#DejaVuSans-6d" x="581.550781"/>
     <use xlink:href="#DejaVuSans-65" x="678.962891"/>
     <use xlink:href="#DejaVuSans-64" x="740.486328"/>
     <use xlink:href="#DejaVuSans-20" x="803.962891"/>
     <use xlink:href="#DejaVuSans-43" x="835.75"/>
     <use xlink:href="#DejaVuSans-61" x="905.574219"/>
     <use xlink:href="#DejaVuSans-73" x="966.853516"/>
     <use xlink:href="#DejaVuSans-65" x="1018.953125"/>
     <use xlink:href="#DejaVuSans-73" x="1080.476562"/>
     <use xlink:href="#DejaVuSans-20" x="1132.576172"/>
     <use xlink:href="#DejaVuSans-46" x="1164.363281"/>
     <use xlink:href="#DejaVuSans-6f" x="1218.257812"/>
     <use xlink:href="#DejaVuSans-72" x="1279.439453"/>
     <use xlink:href="#DejaVuSans-65" x="1318.302734"/>
     <use xlink:href="#DejaVuSans-63" x="1379.826172"/>
     <use xlink:href="#DejaVuSans-61" x="1434.806641"/>
     <use xlink:href="#DejaVuSans-73" x="1496.085938"/>
     <use xlink:href="#DejaVuSans-74" x="1548.185547"/>
     <use xlink:href="#DejaVuSans-69" x="1587.394531"/>
     <use xlink:href="#DejaVuSans-6e" x="1615.177734"/>
     <use xlink:href="#DejaVuSans-67" x="1678.556641"/>
     <use xlink:href="#DejaVuSans-20" x="1742.033203"/>
     <use xlink:href="#DejaVuSans-2d" x="1773.820312"/>
     <use xlink:href="#DejaVuSans-20" x="1809.904297"/>
     <use xlink:href="#DejaVuSans-47" x="1841.691406"/>
     <use xlink:href="#DejaVuSans-68" x="1919.181641"/>
     <use xlink:href="#DejaVuSans-61" x="1982.560547"/>
     <use xlink:href="#DejaVuSans-6e" x="2043.839844"/>
     <use xlink:href="#DejaVuSans-61" x="2107.21875"/>
    </g>
    <!-- ARIMA (4, 0, 1)x(0, 0, 0, 7) (R2 = -0.051355) -->
    <g transform="translate(575.10125 29.7555)scale(0.12 -0.12)">
     <defs>
      <path id="DejaVuSans-41" d="M 2188 4044 
L 1331 1722 
L 3047 1722 
L 2188 4044 
z
M 1831 4666 
L 2547 4666 
L 4325 0 
L 3669 0 
L 3244 1197 
L 1141 1197 
L 716 0 
L 50 0 
L 1831 4666 
z
" transform="scale(0.015625)"/>
      <path id="DejaVuSans-52" d="M 2841 2188 
Q 3044 2119 3236 1894 
Q 3428 1669 3622 1275 
L 4263 0 
L 3584 0 
L 2988 1197 
Q 2756 1666 2539 1819 
Q 2322 1972 1947 1972 
L 1259 1972 
L 1259 0 
L 628 0 
L 628 4666 
L 2053 4666 
Q 2853 4666 3247 4331 
Q 3641 3997 3641 3322 
Q 3641 2881 3436 2590 
Q 3231 2300 2841 2188 
z
M 1259 4147 
L 1259 2491 
L 2053 2491 
Q 2509 2491 2742 2702 
Q 2975 2913 2975 3322 
Q 2975 3731 2742 3939 
Q 2509 4147 2053 4147 
L 1259 4147 
z
" transform="scale(0.015625)"/>
      <path id="DejaVuSans-49" d="M 628 4666 
L 1259 4666 
L 1259 0 
L 628 0 
L 628 4666 
z
" transform="scale(0.015625)"/>
      <path id="DejaVuSans-4d" d="M 628 4666 
L 1569 4666 
L 2759 1491 
L 3956 4666 
L 4897 4666 
L 4897 0 
L 4281 0 
L 4281 4097 
L 3078 897 
L 2444 897 
L 1241 4097 
L 1241 0 
L 628 0 
L 628 4666 
z
" transform="scale(0.015625)"/>
      <path id="DejaVuSans-28" d="M 1984 4856 
Q 1566 4138 1362 3434 
Q 1159 2731 1159 2009 
Q 1159 1288 1364 580 
Q 1569 -128 1984 -844 
L 1484 -844 
Q 1016 -109 783 600 
Q 550 1309 550 2009 
Q 550 2706 781 3412 
Q 1013 4119 1484 4856 
L 1984 4856 
z
" transform="scale(0.015625)"/>
      <path id="DejaVuSans-2c" d="M 750 794 
L 1409 794 
L 1409 256 
L 897 -744 
L 494 -744 
L 750 256 
L 750 794 
z
" transform="scale(0.015625)"/>
      <path id="DejaVuSans-29" d="M 513 4856 
L 1013 4856 
Q 1481 4119 1714 3412 
Q 1947 2706 1947 2009 
Q 1947 1309 1714 600 
Q 1481 -109 1013 -844 
L 513 -844 
Q 928 -128 1133 580 
Q 1338 1288 1338 2009 
Q 1338 2731 1133 3434 
Q 928 4138 513 4856 
z
" transform="scale(0.015625)"/>
      <path id="DejaVuSans-78" d="M 3513 3500 
L 2247 1797 
L 3578 0 
L 2900 0 
L 1881 1375 
L 863 0 
L 184 0 
L 1544 1831 
L 300 3500 
L 978 3500 
L 1906 2253 
L 2834 3500 
L 3513 3500 
z
" transform="scale(0.015625)"/>
      <path id="DejaVuSans-3d" d="M 678 2906 
L 4684 2906 
L 4684 2381 
L 678 2381 
L 678 2906 
z
M 678 1631 
L 4684 1631 
L 4684 1100 
L 678 1100 
L 678 1631 
z
" transform="scale(0.015625)"/>
      <path id="DejaVuSans-2e" d="M 684 794 
L 1344 794 
L 1344 0 
L 684 0 
L 684 794 
z
" transform="scale(0.015625)"/>
      <path id="DejaVuSans-33" d="M 2597 2516 
Q 3050 2419 3304 2112 
Q 3559 1806 3559 1356 
Q 3559 666 3084 287 
Q 2609 -91 1734 -91 
Q 1441 -91 1130 -33 
Q 819 25 488 141 
L 488 750 
Q 750 597 1062 519 
Q 1375 441 1716 441 
Q 2309 441 2620 675 
Q 2931 909 2931 1356 
Q 2931 1769 2642 2001 
Q 2353 2234 1838 2234 
L 1294 2234 
L 1294 2753 
L 1863 2753 
Q 2328 2753 2575 2939 
Q 2822 3125 2822 3475 
Q 2822 3834 2567 4026 
Q 2313 4219 1838 4219 
Q 1578 4219 1281 4162 
Q 984 4106 628 3988 
L 628 4550 
Q 988 4650 1302 4700 
Q 1616 4750 1894 4750 
Q 2613 4750 3031 4423 
Q 3450 4097 3450 3541 
Q 3450 3153 3228 2886 
Q 3006 2619 2597 2516 
z
" transform="scale(0.015625)"/>
     </defs>
     <use xlink:href="#DejaVuSans-41"/>
     <use xlink:href="#DejaVuSans-52" x="68.408203"/>
     <use xlink:href="#DejaVuSans-49" x="137.890625"/>
     <use xlink:href="#DejaVuSans-4d" x="167.382812"/>
     <use xlink:href="#DejaVuSans-41" x="253.662109"/>
     <use xlink:href="#DejaVuSans-20" x="322.070312"/>
     <use xlink:href="#DejaVuSans-28" x="353.857422"/>
     <use xlink:href="#DejaVuSans-34" x="392.871094"/>
     <use xlink:href="#DejaVuSans-2c" x="456.494141"/>
     <use xlink:href="#DejaVuSans-20" x="488.28125"/>
     <use xlink:href="#DejaVuSans-30" x="520.068359"/>
     <use xlink:href="#DejaVuSans-2c" x="583.691406"/>
     <use xlink:href="#DejaVuSans-20" x="615.478516"/>
     <use xlink:href="#DejaVuSans-31" x="647.265625"/>
     <use xlink:href="#DejaVuSans-29" x="710.888672"/>
     <use xlink:href="#DejaVuSans-78" x="749.902344"/>
     <use xlink:href="#DejaVuSans-28" x="809.082031"/>
     <use xlink:href="#DejaVuSans-30" x="848.095703"/>
     <use xlink:href="#DejaVuSans-2c" x="911.71875"/>
     <use xlink:href="#DejaVuSans-20" x="943.505859"/>
     <use xlink:href="#DejaVuSans-30" x="975.292969"/>
     <use xlink:href="#DejaVuSans-2c" x="1038.916016"/>
     <use xlink:href="#DejaVuSans-20" x="1070.703125"/>
     <use xlink:href="#DejaVuSans-30" x="1102.490234"/>
     <use xlink:href="#DejaVuSans-2c" x="1166.113281"/>
     <use xlink:href="#DejaVuSans-20" x="1197.900391"/>
     <use xlink:href="#DejaVuSans-37" x="1229.6875"/>
     <use xlink:href="#DejaVuSans-29" x="1293.310547"/>
     <use xlink:href="#DejaVuSans-20" x="1332.324219"/>
     <use xlink:href="#DejaVuSans-28" x="1364.111328"/>
     <use xlink:href="#DejaVuSans-52" x="1403.125"/>
     <use xlink:href="#DejaVuSans-32" x="1472.607422"/>
     <use xlink:href="#DejaVuSans-20" x="1536.230469"/>
     <use xlink:href="#DejaVuSans-3d" x="1568.017578"/>
     <use xlink:href="#DejaVuSans-20" x="1651.806641"/>
     <use xlink:href="#DejaVuSans-2d" x="1683.59375"/>
     <use xlink:href="#DejaVuSans-30" x="1719.677734"/>
     <use xlink:href="#DejaVuSans-2e" x="1783.300781"/>
     <use xlink:href="#DejaVuSans-30" x="1815.087891"/>
     <use xlink:href="#DejaVuSans-35" x="1878.710938"/>
     <use xlink:href="#DejaVuSans-31" x="1942.333984"/>
     <use xlink:href="#DejaVuSans-33" x="2005.957031"/>
     <use xlink:href="#DejaVuSans-35" x="2069.580078"/>
     <use xlink:href="#DejaVuSans-35" x="2133.203125"/>
     <use xlink:href="#DejaVuSans-29" x="2196.826172"/>
    </g>
   </g>
   <g id="legend_1">
    <g id="patch_7">
     <path d="M 1274.770313 87.789875 
L 1371.85 87.789875 
Q 1373.85 87.789875 1373.85 85.789875 
L 1373.85 42.7555 
Q 1373.85 40.7555 1371.85 40.7555 
L 1274.770313 40.7555 
Q 1272.770313 40.7555 1272.770313 42.7555 
L 1272.770313 85.789875 
Q 1272.770313 87.789875 1274.770313 87.789875 
z
" style="fill: #ffffff; opacity: 0.8; stroke: #cccccc; stroke-linejoin: miter"/>
    </g>
    <g id="line2d_21">
     <path d="M 1276.770313 48.853937 
L 1286.770313 48.853937 
L 1296.770313 48.853937 
" style="fill: none; stroke: #0000ff; stroke-width: 1.5; stroke-linecap: square"/>
    </g>
    <g id="text_19">
     <!-- Actual Value -->
     <g transform="translate(1304.770313 52.353937)scale(0.1 -0.1)">
      <defs>
       <path id="DejaVuSans-75" d="M 544 1381 
L 544 3500 
L 1119 3500 
L 1119 1403 
Q 1119 906 1312 657 
Q 1506 409 1894 409 
Q 2359 409 2629 706 
Q 2900 1003 2900 1516 
L 2900 3500 
L 3475 3500 
L 3475 0 
L 2900 0 
L 2900 538 
Q 2691 219 2414 64 
Q 2138 -91 1772 -91 
Q 1169 -91 856 284 
Q 544 659 544 1381 
z
M 1991 3584 
L 1991 3584 
z
" transform="scale(0.015625)"/>
       <path id="DejaVuSans-56" d="M 1831 0 
L 50 4666 
L 709 4666 
L 2188 738 
L 3669 4666 
L 4325 4666 
L 2547 0 
L 1831 0 
z
" transform="scale(0.015625)"/>
      </defs>
      <use xlink:href="#DejaVuSans-41"/>
      <use xlink:href="#DejaVuSans-63" x="66.658203"/>
      <use xlink:href="#DejaVuSans-74" x="121.638672"/>
      <use xlink:href="#DejaVuSans-75" x="160.847656"/>
      <use xlink:href="#DejaVuSans-61" x="224.226562"/>
      <use xlink:href="#DejaVuSans-6c" x="285.505859"/>
      <use xlink:href="#DejaVuSans-20" x="313.289062"/>
      <use xlink:href="#DejaVuSans-56" x="345.076172"/>
      <use xlink:href="#DejaVuSans-61" x="405.734375"/>
      <use xlink:href="#DejaVuSans-6c" x="467.013672"/>
      <use xlink:href="#DejaVuSans-75" x="494.796875"/>
      <use xlink:href="#DejaVuSans-65" x="558.175781"/>
     </g>
    </g>
    <g id="line2d_22">
     <path d="M 1276.770313 63.532062 
L 1286.770313 63.532062 
L 1296.770313 63.532062 
" style="fill: none; stroke: #ffa500; stroke-width: 1.5; stroke-linecap: square"/>
    </g>
    <g id="text_20">
     <!-- Check Value -->
     <g transform="translate(1304.770313 67.032062)scale(0.1 -0.1)">
      <defs>
       <path id="DejaVuSans-6b" d="M 581 4863 
L 1159 4863 
L 1159 1991 
L 2875 3500 
L 3609 3500 
L 1753 1863 
L 3688 0 
L 2938 0 
L 1159 1709 
L 1159 0 
L 581 0 
L 581 4863 
z
" transform="scale(0.015625)"/>
      </defs>
      <use xlink:href="#DejaVuSans-43"/>
      <use xlink:href="#DejaVuSans-68" x="69.824219"/>
      <use xlink:href="#DejaVuSans-65" x="133.203125"/>
      <use xlink:href="#DejaVuSans-63" x="194.726562"/>
      <use xlink:href="#DejaVuSans-6b" x="249.707031"/>
      <use xlink:href="#DejaVuSans-20" x="307.617188"/>
      <use xlink:href="#DejaVuSans-56" x="339.404297"/>
      <use xlink:href="#DejaVuSans-61" x="400.0625"/>
      <use xlink:href="#DejaVuSans-6c" x="461.341797"/>
      <use xlink:href="#DejaVuSans-75" x="489.125"/>
      <use xlink:href="#DejaVuSans-65" x="552.503906"/>
     </g>
    </g>
    <g id="line2d_23">
     <path d="M 1276.770313 78.210187 
L 1286.770313 78.210187 
L 1296.770313 78.210187 
" style="fill: none; stroke: #ff0000; stroke-width: 1.5; stroke-linecap: square"/>
    </g>
    <g id="text_21">
     <!-- Predict Value -->
     <g transform="translate(1304.770313 81.710187)scale(0.1 -0.1)">
      <defs>
       <path id="DejaVuSans-50" d="M 1259 4147 
L 1259 2394 
L 2053 2394 
Q 2494 2394 2734 2622 
Q 2975 2850 2975 3272 
Q 2975 3691 2734 3919 
Q 2494 4147 2053 4147 
L 1259 4147 
z
M 628 4666 
L 2053 4666 
Q 2838 4666 3239 4311 
Q 3641 3956 3641 3272 
Q 3641 2581 3239 2228 
Q 2838 1875 2053 1875 
L 1259 1875 
L 1259 0 
L 628 0 
L 628 4666 
z
" transform="scale(0.015625)"/>
      </defs>
      <use xlink:href="#DejaVuSans-50"/>
      <use xlink:href="#DejaVuSans-72" x="58.552734"/>
      <use xlink:href="#DejaVuSans-65" x="97.416016"/>
      <use xlink:href="#DejaVuSans-64" x="158.939453"/>
      <use xlink:href="#DejaVuSans-69" x="222.416016"/>
      <use xlink:href="#DejaVuSans-63" x="250.199219"/>
      <use xlink:href="#DejaVuSans-74" x="305.179688"/>
      <use xlink:href="#DejaVuSans-20" x="344.388672"/>
      <use xlink:href="#DejaVuSans-56" x="376.175781"/>
      <use xlink:href="#DejaVuSans-61" x="436.833984"/>
      <use xlink:href="#DejaVuSans-6c" x="498.113281"/>
      <use xlink:href="#DejaVuSans-75" x="525.896484"/>
      <use xlink:href="#DejaVuSans-65" x="589.275391"/>
     </g>
    </g>
   </g>
  </g>
 </g>
 <defs>
  <clipPath id="pcf799a0445">
   <rect x="39.65" y="35.7555" width="1339.2" height="332.64"/>
  </clipPath>
 </defs>
</svg>
